# https://github.com/mikedh/trimesh
v 5.72842400 -2.45289788 0.10271255
v 5.72842400 -2.38386959 0.10220013
v 5.72842400 -2.55045794 0.10086782
v 5.95821640 -2.55045794 0.09318155
v 5.75674582 -2.45289788 0.10168770
v 5.75674582 -2.35552191 0.10086782
v 5.72842400 -2.28630954 0.10127778
v 5.72842400 -2.64801800 0.09594860
v 5.95821640 -2.64801800 0.08959462
v 5.95821640 -2.45289788 0.09379644
v 5.85421929 -2.45289788 0.09789580
v 5.85421929 -2.35552191 0.09707595
v 5.85421929 -2.25796200 0.09605110
v 5.75674582 -2.16040194 0.09881815
v 5.72842400 -2.25796200 0.10097032
v 5.72842400 -2.67636554 0.09451383
v 5.95821640 -2.74539397 0.08447044
v 5.95821640 -2.35552191 0.09297659
v 5.75674582 -2.06302596 0.09758834
v 5.72842400 -2.16040194 0.09984300
v 5.72842400 -2.06302596 0.09871569
v 5.72842400 -2.74539397 0.09082443
v 5.95821640 -2.84295388 0.07924377
v 5.95821640 -2.25796200 0.08969712
v 5.95173750 -2.25796200 0.09041450
v 5.75674582 -1.96454566 0.09625607
v 5.72842400 -1.99381359 0.09779334
v 5.72842400 -2.77374151 0.08928719
v 5.72842400 -2.84295388 0.08549529
v 5.95173750 -2.94032986 0.07381213
v 5.95821640 -2.93370321 0.07401709
v 5.95821640 -2.16040194 0.06868795
v 5.85421929 -1.96454566 0.07514444
v 5.75755565 -1.96454566 0.09615357
v 5.72842400 -1.96454566 0.09738338
v 5.72842400 -2.87130157 0.08385555
v 5.72842400 -2.94032986 0.07975619
v 5.95821640 -3.03770584 0.06735568
v 5.95821640 -2.94032986 0.07360716
v 5.95821640 -1.96454566 0.00689027
v 5.92609243 -1.96454566 0.03363853
v 5.85482658 -1.96454566 0.07483698
v 5.72842400 -1.96454566 -0.94405611
v 5.72842400 -2.96867755 0.07791149
v 5.72842400 -3.03770584 0.07329970
v 5.95821640 -3.13526575 0.06018180
v 5.95821640 -1.96454566 -0.94405611
v 5.72842400 -3.84506091 -0.94405611
v 5.72842400 -3.13526575 0.06561344
v 5.95821640 -3.23282581 0.05167565
v 5.95821640 -3.84506091 -0.94405611
v 5.72842400 -3.84506091 -0.26100216
v 5.72842400 -3.16361344 0.06305135
v 5.95821640 -3.33020178 0.04132480
v 5.72842400 -3.23282581 0.05649240
v 5.95821640 -3.84506091 -0.13105281
v 5.72842400 -3.82978267 -0.23076948
v 5.72842400 -3.26117349 0.05331539
v 5.72842400 -3.33020178 0.04532166
v 5.95821640 -3.42776177 0.02851432
v 5.95821640 -3.83107122 -0.11619267
v 5.72842400 -3.75467989 -0.10717409
v 5.72842400 -3.76333140 -0.11752496
v 5.72842400 -3.78413197 -0.15257440
v 5.72842400 -3.80088283 -0.18106487
v 5.72842400 -3.35854940 0.04132480
v 5.72842400 -3.42776177 0.03107641
v 5.95821640 -3.50286455 0.01662623
v 5.95821640 -3.80640509 -0.09600339
v 5.72842400 -3.70902911 -0.06136390
v 5.72842400 -3.72541189 -0.07755632
v 5.72842400 -3.45187566 0.02666962
v 5.72842400 -3.50139193 0.01744608
v 5.95821640 -3.55109235 0.00740269
v 5.95821640 -3.76388363 -0.06495080
v 5.72842400 -3.65122942 -0.03102870
v 5.72842400 -3.51556577 0.01437157
v 5.72842400 -3.55017196 0.00627538
v 5.95821640 -3.62232957 -0.01022450
v 5.95821640 -3.72780483 -0.04978324
v 5.72842400 -3.62269773 -0.01729587
v 5.72842400 -3.56839544 0.00043378
f 1 2 7
f 1 7 15
f 1 15 20
f 1 20 21
f 1 21 27
f 1 27 35
f 1 35 43
f 1 43 48
f 1 48 52
f 1 52 57
f 1 57 65
f 1 65 64
f 1 64 63
f 1 63 62
f 1 62 71
f 1 71 70
f 1 70 76
f 1 76 81
f 1 81 82
f 1 82 78
f 1 78 77
f 1 77 73
f 1 73 72
f 1 72 67
f 1 67 66
f 1 66 59
f 1 59 58
f 1 58 55
f 1 55 53
f 1 53 49
f 1 49 45
f 1 45 44
f 1 44 37
f 1 37 36
f 1 36 29
f 1 29 28
f 1 28 22
f 1 22 16
f 1 16 8
f 1 8 3
f 1 3 4
f 1 4 5
f 1 5 2
f 2 6 7
f 2 5 6
f 3 8 9
f 3 9 4
f 4 10 11
f 4 11 5
f 4 9 17
f 4 17 23
f 4 23 31
f 4 31 39
f 4 39 38
f 4 38 46
f 4 46 50
f 4 50 54
f 4 54 60
f 4 60 68
f 4 68 74
f 4 74 79
f 4 79 80
f 4 80 75
f 4 75 69
f 4 69 61
f 4 61 56
f 4 56 51
f 4 51 47
f 4 47 40
f 4 40 32
f 4 32 24
f 4 24 18
f 4 18 10
f 5 11 12
f 5 12 6
f 6 12 7
f 7 12 13
f 7 13 14
f 7 14 15
f 8 16 9
f 9 16 17
f 10 18 12
f 10 12 11
f 12 18 13
f 13 18 19
f 13 19 14
f 14 20 15
f 14 19 21
f 14 21 20
f 16 22 17
f 17 22 23
f 18 24 25
f 18 25 26
f 18 26 19
f 19 26 27
f 19 27 21
f 22 28 23
f 23 28 29
f 23 29 30
f 23 30 31
f 24 32 33
f 24 33 34
f 24 34 26
f 24 26 25
f 26 34 33
f 26 33 42
f 26 42 41
f 26 41 40
f 26 40 47
f 26 47 43
f 26 43 35
f 26 35 27
f 29 36 30
f 30 36 37
f 30 37 38
f 30 38 39
f 30 39 31
f 32 40 41
f 32 41 42
f 32 42 33
f 37 44 38
f 38 44 45
f 38 45 46
f 43 47 51
f 43 51 48
f 45 49 46
f 46 49 50
f 48 51 56
f 48 56 52
f 49 53 50
f 50 53 55
f 50 55 54
f 52 56 57
f 54 55 58
f 54 58 59
f 54 59 60
f 56 61 62
f 56 62 63
f 56 63 64
f 56 64 65
f 56 65 57
f 59 66 60
f 60 66 67
f 60 67 68
f 61 69 70
f 61 70 71
f 61 71 62
f 67 72 68
f 68 72 73
f 68 73 74
f 69 75 70
f 70 75 76
f 73 77 74
f 74 78 79
f 74 77 78
f 75 80 81
f 75 81 76
f 78 82 79
f 79 82 81
f 79 81 80

