# https://github.com/mikedh/trimesh
v 2.05637491 -5.57385249 -0.94405799
v 2.05637491 -5.57385249 0.03633883
v 2.05637491 -5.42911288 -0.94405799
v 4.52455538 -5.57385249 -0.94405799
v 2.14842433 -5.57385249 0.08618260
v 2.05637491 -5.57379583 0.08526712
v 2.05637491 -5.42911288 0.09147215
v 4.52455538 -5.42911288 -0.94405799
v 4.52455538 -5.57385249 -0.58243620
v 2.24675534 -5.57284660 0.08699639
v 2.24675534 -5.42911288 0.09309969
v 2.19553625 -5.42911288 0.09269281
v 2.09817168 -5.42911288 0.09187903
v 2.34339516 -5.57385249 0.08770844
v 4.52455538 -5.42911288 0.07021226
v 4.52455538 -5.57348412 0.06400719
v 4.48904014 -5.57385249 0.06492271
v 2.29314243 -5.42911288 0.09340486
v 2.44075973 -5.57385249 0.08831875
v 4.48904014 -5.42911288 0.07122948
v 4.48807370 -5.57385249 0.06502441
v 2.34436153 -5.42911288 0.09371003
v 2.53836591 -5.57385249 0.08872566
v 2.48811326 -5.42911288 0.09442208
v 2.44196771 -5.42911288 0.09421864
v 4.39167564 -5.42911288 0.07377250
v 4.39167564 -5.57385249 0.06756747
v 2.63597210 -5.57385249 0.08892910
v 2.68308402 -5.42911288 0.09493069
v 2.58571945 -5.42911288 0.09472726
v 2.53933229 -5.42911288 0.09462552
v 4.29406939 -5.42911288 0.07621386
v 4.29406939 -5.57385249 0.07000879
v 2.73430311 -5.57385249 0.08892910
v 2.83190930 -5.42911288 0.09493069
v 4.24285029 -5.42911288 0.07743451
v 4.19670474 -5.57284660 0.07234840
v 4.19670474 -5.57385249 0.07224667
v 2.83190930 -5.57385249 0.08872566
v 2.83190930 -5.57284660 0.08882736
v 2.92927387 -5.42911288 0.09482896
v 4.14524418 -5.42911288 0.07967240
v 4.19670474 -5.47537118 0.07651899
v 4.09909863 -5.57385249 0.07448458
v 2.92927387 -5.57385249 0.08852222
v 2.92927387 -5.57284660 0.08862392
v 3.02688006 -5.57284660 0.08831875
v 3.02688006 -5.47537118 0.09248937
v 3.02688006 -5.42911288 0.09442208
v 4.09909863 -5.42911288 0.08068962
v 4.00173398 -5.57385249 0.07651899
v 3.02688006 -5.57385249 0.08821705
v 3.22185085 -5.57385249 0.08719983
v 3.12424466 -5.57284660 0.08781014
v 3.12424466 -5.42911288 0.09401521
v 4.00173398 -5.42911288 0.08272406
v 3.90412780 -5.42911288 0.08465677
v 3.90412780 -5.57284660 0.07845174
v 3.90412780 -5.57385249 0.07835000
v 3.22185085 -5.42911288 0.09340486
v 3.31921546 -5.57385249 0.08638604
v 3.85290871 -5.42911288 0.08557226
v 3.80555517 -5.57385249 0.08018101
v 3.31921546 -5.42911288 0.09259107
v 3.41658003 -5.57385249 0.08547056
v 3.36536094 -5.42911288 0.09218420
v 3.80652162 -5.42911288 0.08638604
v 3.75530252 -5.42911288 0.08719983
v 3.70915697 -5.57385249 0.08170684
v 3.46296712 -5.42911288 0.09116698
v 3.41658003 -5.42911288 0.09167559
v 3.51418621 -5.57385249 0.08435160
v 3.70915697 -5.42911288 0.08791187
v 3.61155086 -5.57385249 0.08313094
v 3.56033177 -5.42911288 0.09004802
v 3.61155086 -5.42911288 0.08933597
f 1 2 6
f 1 6 7
f 1 7 3
f 1 3 8
f 1 8 4
f 1 4 9
f 1 9 17
f 1 17 21
f 1 21 27
f 1 27 33
f 1 33 38
f 1 38 44
f 1 44 51
f 1 51 59
f 1 59 63
f 1 63 69
f 1 69 74
f 1 74 72
f 1 72 65
f 1 65 61
f 1 61 53
f 1 53 52
f 1 52 45
f 1 45 39
f 1 39 34
f 1 34 28
f 1 28 23
f 1 23 19
f 1 19 14
f 1 14 5
f 1 5 2
f 2 5 6
f 3 7 13
f 3 13 12
f 3 12 11
f 3 11 18
f 3 18 22
f 3 22 25
f 3 25 24
f 3 24 31
f 3 31 30
f 3 30 29
f 3 29 35
f 3 35 41
f 3 41 49
f 3 49 55
f 3 55 60
f 3 60 64
f 3 64 66
f 3 66 71
f 3 71 70
f 3 70 75
f 3 75 76
f 3 76 73
f 3 73 68
f 3 68 67
f 3 67 62
f 3 62 57
f 3 57 56
f 3 56 50
f 3 50 42
f 3 42 36
f 3 36 32
f 3 32 26
f 3 26 20
f 3 20 15
f 3 15 8
f 4 8 15
f 4 15 16
f 4 16 9
f 5 10 11
f 5 11 12
f 5 12 13
f 5 13 7
f 5 7 6
f 5 14 10
f 9 16 17
f 10 14 11
f 11 14 18
f 14 19 18
f 15 20 16
f 16 20 21
f 16 21 17
f 18 19 22
f 19 23 24
f 19 24 25
f 19 25 22
f 20 26 27
f 20 27 21
f 23 28 29
f 23 29 30
f 23 30 31
f 23 31 24
f 26 32 33
f 26 33 27
f 28 34 35
f 28 35 29
f 32 36 33
f 33 36 37
f 33 37 38
f 34 39 40
f 34 40 41
f 34 41 35
f 36 42 43
f 36 43 37
f 37 43 42
f 37 42 44
f 37 44 38
f 39 45 46
f 39 46 40
f 40 46 41
f 41 46 47
f 41 47 48
f 41 48 49
f 42 50 44
f 44 50 56
f 44 56 51
f 45 52 47
f 45 47 46
f 47 52 53
f 47 53 54
f 47 54 55
f 47 55 48
f 48 55 49
f 51 56 57
f 51 57 58
f 51 58 59
f 53 60 55
f 53 55 54
f 53 61 64
f 53 64 60
f 57 62 63
f 57 63 58
f 58 63 59
f 61 65 66
f 61 66 64
f 62 67 63
f 63 68 69
f 63 67 68
f 65 70 71
f 65 71 66
f 65 72 70
f 68 73 69
f 69 73 76
f 69 76 74
f 70 72 75
f 72 74 75
f 74 76 75

