# https://github.com/mikedh/trimesh
v 5.94369009 -6.41748425 -0.01574340
v 5.94369009 -6.42018919 -0.01582792
v 5.94369009 -6.41748425 -0.05466273
v 5.08878513 -6.41748425 0.03166974
v 5.35966872 -6.57116028 0.03166974
v 5.40871447 -6.60168987 0.03166974
v 5.94369009 -6.55590449 -0.02007059
v 5.94369009 -6.60168987 -0.05466273
v -1.76478836 -6.41748425 -0.05466273
v 0.63543379 -6.41748425 0.03166974
v 5.94369009 -6.60168987 -0.02165947
v 0.62185184 -6.60168987 0.03166974
v -1.67424244 -6.60168987 -0.05466273
v -1.71725184 -6.51439284 -0.05466273
v -1.75045209 -6.41748425 -0.05373306
v 0.29739552 -6.41748425 0.02391968
v 0.19930430 -6.41748425 0.02166311
v 0.10196711 -6.41748425 0.01933895
v 0.00463051 -6.41748425 0.01693871
v -0.05875181 -6.41748425 0.01531600
v -0.09195206 -6.41748425 0.01446241
v -0.16061583 -6.41748425 0.01264531
v -0.19306175 -6.41748425 0.01178326
v -0.29039836 -6.41748425 0.00912103
v -0.38547199 -6.41748425 0.00639117
v -0.45036325 -6.41748425 0.00446422
v -0.48280859 -6.41748425 0.00349231
v -0.48280859 -6.60168987 -0.00229700
v -1.65311490 -6.60168987 -0.05330204
v -1.71649693 -6.41748425 -0.05155257
v -0.54769985 -6.41748425 0.00147238
v -0.58014578 -6.60168987 -0.00533955
v -1.60935117 -6.60168987 -0.05063981
v -1.65311490 -6.41748425 -0.04750429
v -0.58014578 -6.41748425 0.00044974
v -0.63447298 -6.60168987 -0.00710593
v -1.55502339 -6.60168987 -0.04738596
v -1.55502339 -6.41748425 -0.04160511
v -0.67823729 -6.41748425 -0.00275338
v -0.67823729 -6.60168987 -0.00853424
v -1.51201399 -6.60168987 -0.04490121
v -1.52257805 -6.41748425 -0.03973732
v -0.77557389 -6.41748425 -0.00608329
v -0.77557389 -6.60168987 -0.01185570
v -1.45768678 -6.60168987 -0.04183331
v -1.45768678 -6.41748425 -0.03605245
v -0.87291108 -6.41748425 -0.00960757
v -0.87291108 -6.60168987 -0.01537998
v -1.36034960 -6.60168987 -0.03663561
v -1.42524086 -6.41748425 -0.03429454
v -0.93780235 -6.41748425 -0.01207543
v -0.97024769 -6.60168987 -0.01913247
v -1.26301299 -6.60168987 -0.03178442
v -1.36034960 -6.41748425 -0.03084630
v -0.97024769 -6.41748425 -0.01334316
v -1.02457547 -6.60168987 -0.02131297
v -1.16567580 -6.60168987 -0.02727975
v -1.26301299 -6.41748425 -0.02600357
v -1.03513895 -6.41748425 -0.01596314
v -1.06758487 -6.60168987 -0.02307934
v -1.12191208 -6.60168987 -0.02540350
v -1.16567580 -6.41748425 -0.02149890
v -1.06758487 -6.41748425 -0.01729849
f 1 2 7
f 1 7 11
f 1 11 8
f 1 8 3
f 1 3 9
f 1 9 15
f 1 15 30
f 1 30 34
f 1 34 38
f 1 38 42
f 1 42 46
f 1 46 50
f 1 50 54
f 1 54 58
f 1 58 62
f 1 62 63
f 1 63 59
f 1 59 55
f 1 55 51
f 1 51 47
f 1 47 43
f 1 43 39
f 1 39 35
f 1 35 31
f 1 31 27
f 1 27 26
f 1 26 25
f 1 25 24
f 1 24 23
f 1 23 22
f 1 22 21
f 1 21 20
f 1 20 19
f 1 19 18
f 1 18 17
f 1 17 16
f 1 16 10
f 1 10 4
f 1 4 5
f 1 5 6
f 1 6 2
f 2 6 7
f 3 8 13
f 3 13 14
f 3 14 9
f 4 10 12
f 4 12 6
f 4 6 5
f 6 11 7
f 6 12 28
f 6 28 32
f 6 32 36
f 6 36 40
f 6 40 44
f 6 44 48
f 6 48 52
f 6 52 56
f 6 56 60
f 6 60 61
f 6 61 57
f 6 57 53
f 6 53 49
f 6 49 45
f 6 45 41
f 6 41 37
f 6 37 33
f 6 33 29
f 6 29 13
f 6 13 8
f 6 8 11
f 9 14 15
f 10 16 12
f 12 16 17
f 12 17 18
f 12 18 19
f 12 19 20
f 12 20 21
f 12 21 22
f 12 22 23
f 12 23 24
f 12 24 25
f 12 25 26
f 12 26 27
f 12 27 28
f 13 29 14
f 14 29 15
f 15 29 30
f 27 31 28
f 28 31 32
f 29 33 34
f 29 34 30
f 31 35 32
f 32 35 36
f 33 37 38
f 33 38 34
f 35 39 40
f 35 40 36
f 37 41 38
f 38 41 42
f 39 43 44
f 39 44 40
f 41 45 46
f 41 46 42
f 43 47 48
f 43 48 44
f 45 49 50
f 45 50 46
f 47 51 48
f 48 51 52
f 49 53 54
f 49 54 50
f 51 55 52
f 52 55 56
f 53 57 62
f 53 62 58
f 53 58 54
f 55 59 56
f 56 59 60
f 57 61 62
f 59 63 60
f 60 63 61
f 61 63 62

