# https://github.com/mikedh/trimesh
v 3.81941941 -6.99247405 0.03166974
v 3.91499674 -7.00953589 0.03166974
v 3.91499674 -6.82958338 0.04163633
v 3.91499674 -6.73208682 0.04641312
v 3.91499674 -6.64541001 0.05026339
v 3.91499674 -6.63464967 0.05069170
v 3.91499674 -6.54791345 0.05382741
v 3.81941941 -6.92517757 0.03390299
v 3.81941941 -6.40226318 0.03166974
v 3.91499674 -6.40226318 0.03166974
v 3.81941941 -6.45041688 0.04858955
v 3.81941941 -6.54791345 0.04585372
v 3.81941941 -6.63268787 0.04317032
v 3.81941941 -6.73012501 0.04008485
v 3.91499674 -6.45041688 0.05399349
v 3.81941941 -6.40226318 0.04980451
v 3.91499674 -6.40226318 0.05362419
f 1 2 3
f 1 3 4
f 1 4 5
f 1 5 6
f 1 6 7
f 1 7 8
f 1 8 14
f 1 14 13
f 1 13 12
f 1 12 11
f 1 11 16
f 1 16 9
f 1 9 10
f 1 10 2
f 2 10 17
f 2 17 15
f 2 15 7
f 2 7 6
f 2 6 5
f 2 5 4
f 2 4 3
f 7 11 12
f 7 12 13
f 7 13 14
f 7 14 8
f 7 15 16
f 7 16 11
f 9 16 17
f 9 17 10
f 15 17 16

