# https://github.com/mikedh/trimesh
v -2.04294338 -4.09552857 -0.94416100
v -2.14057666 -4.09552857 -0.94083017
v -2.10553825 -3.56034825 -0.94204142
v -2.04294338 -4.01327378 -0.94416100
v -0.37879869 -4.01322137 -0.94406003
v -0.37879869 -4.09552857 -0.94395913
v -2.14057666 -3.56034825 -0.94083017
v -2.21612845 -4.09552857 -0.90146571
v -2.04294338 -3.56034825 -0.94406003
v -0.37879869 -3.56034825 -0.94406003
v -0.37879869 -4.09552857 0.07891233
v -2.21612845 -3.56034825 -0.90146571
v -2.24313718 -4.09552857 -0.81657964
v -2.24313718 -4.01322137 -0.81668054
v -0.37879869 -3.56034825 -0.06401109
v -0.37879869 -4.08950355 0.07881139
v -0.87353465 -3.56034825 0.08002261
v -1.06843596 -4.09552857 0.08698709
v -2.24313718 -3.56034825 -0.81668054
v -2.24313718 -4.09552857 -0.13446346
v -0.37879869 -3.74523831 0.02642630
v -0.58537957 -3.56034825 0.03359266
v -0.37879869 -4.01280225 0.07739830
v -0.77608385 -3.56034825 0.07648990
v -0.97098516 -3.56034825 0.08042632
v -1.06843596 -3.56034825 0.07901327
v -1.16588676 -3.56034825 0.07648990
v -1.20092517 -3.56034825 0.07548056
v -1.29837597 -3.56034825 0.07235156
v -1.49309509 -3.56034825 0.06609361
v -1.16588676 -4.09552857 0.08345438
v -2.24313718 -3.56034825 -0.13436254
v -2.22142036 -3.72040467 -0.03685969
v -2.22288078 -3.62290389 -0.03685969
v -2.22379318 -3.56034825 -0.03685969
v -2.23091047 -3.56034825 -0.07188401
v -2.24313718 -4.01322137 -0.13436254
v -2.21539854 -4.09552857 -0.03847466
v -0.37879869 -3.81088499 0.05145812
v -0.67845057 -3.56034825 0.06518521
v -0.37879869 -4.00567697 0.07699455
v -0.37879869 -3.91530147 0.07103941
v -1.55550719 -3.56034825 0.06367118
v -1.59054560 -3.56034825 0.06215719
v -1.65295799 -3.56034825 0.05882632
v -1.68799640 -3.56034825 0.05670670
v -1.78544720 -3.56034825 0.05044874
v -1.84804207 -3.56034825 0.04620951
v -1.84804207 -3.62290389 0.04509923
v -2.04294338 -3.62290389 0.03137210
v -2.04294338 -3.72040467 0.02935342
v -2.04294338 -3.81785307 0.02703193
v -2.14057666 -3.91530147 0.01734220
v -2.14185402 -4.01327378 0.01451602
v -2.10261829 -4.09552857 0.01471790
v -2.19696693 -3.56034825 0.01683751
v -2.20864621 -4.09552857 -0.03019799
v -2.18948469 -3.97057460 0.01209359
v -2.19076204 -3.91530147 0.01280015
v -2.19295180 -3.81785307 0.01411231
v -2.19459412 -3.72040467 0.01532352
v -2.19605453 -3.62290389 0.01633286
v -0.37879869 -3.81785307 0.05357774
v -0.37879869 -3.90817620 0.07003007
v -1.88308048 -3.56034825 0.04378707
v -1.94549258 -3.56034825 0.03944690
v -2.07798179 -3.56034825 0.02995901
v -2.14057666 -3.62290389 0.02420575
v -2.14057666 -3.72040467 0.02218707
v -2.14057666 -3.81785307 0.01986557
v -2.11758249 -4.09552857 0.01360762
v -2.16046810 -3.56034825 0.02248988
v -2.17835256 -4.03554021 0.01057960
v -2.16521315 -4.09552857 0.00896463
v -2.14057666 -3.56034825 0.02531602
f 1 2 3
f 1 3 4
f 1 4 10
f 1 10 5
f 1 5 6
f 1 6 11
f 1 11 18
f 1 18 31
f 1 31 55
f 1 55 71
f 1 71 74
f 1 74 57
f 1 57 38
f 1 38 20
f 1 20 13
f 1 13 8
f 1 8 2
f 2 7 3
f 2 8 12
f 2 12 7
f 3 9 4
f 3 7 12
f 3 12 19
f 3 19 32
f 3 32 36
f 3 36 35
f 3 35 56
f 3 56 72
f 3 72 75
f 3 75 67
f 3 67 66
f 3 66 65
f 3 65 48
f 3 48 47
f 3 47 46
f 3 46 45
f 3 45 44
f 3 44 43
f 3 43 30
f 3 30 29
f 3 29 28
f 3 28 27
f 3 27 26
f 3 26 25
f 3 25 17
f 3 17 24
f 3 24 40
f 3 40 22
f 3 22 15
f 3 15 10
f 3 10 9
f 4 9 10
f 5 10 15
f 5 15 21
f 5 21 39
f 5 39 63
f 5 63 64
f 5 64 42
f 5 42 41
f 5 41 23
f 5 23 16
f 5 16 11
f 5 11 6
f 8 13 14
f 8 14 19
f 8 19 12
f 11 16 17
f 11 17 18
f 13 20 37
f 13 37 32
f 13 32 19
f 13 19 14
f 15 22 21
f 16 23 17
f 17 23 24
f 17 25 18
f 18 25 26
f 18 26 27
f 18 27 28
f 18 28 29
f 18 29 30
f 18 30 31
f 20 33 34
f 20 34 35
f 20 35 36
f 20 36 37
f 20 38 33
f 21 22 39
f 22 40 39
f 23 41 24
f 24 41 42
f 24 42 40
f 30 43 31
f 31 43 44
f 31 44 45
f 31 45 46
f 31 46 47
f 31 47 48
f 31 48 49
f 31 49 50
f 31 50 51
f 31 51 52
f 31 52 53
f 31 53 54
f 31 54 55
f 32 37 36
f 33 38 56
f 33 56 34
f 34 56 35
f 38 57 58
f 38 58 59
f 38 59 60
f 38 60 61
f 38 61 62
f 38 62 56
f 39 40 63
f 40 42 64
f 40 64 63
f 48 65 49
f 49 65 66
f 49 66 50
f 50 67 68
f 50 68 69
f 50 69 51
f 50 66 67
f 51 69 70
f 51 70 52
f 52 70 53
f 53 70 58
f 53 58 54
f 54 58 71
f 54 71 55
f 56 62 72
f 57 73 58
f 57 74 73
f 58 73 71
f 58 70 69
f 58 69 68
f 58 68 75
f 58 75 60
f 58 60 59
f 60 75 61
f 61 75 72
f 61 72 62
f 67 75 68
f 71 73 74

