# https://github.com/mikedh/trimesh
v 2.04098342 -6.74463984 0.04434272
v 2.04098342 -6.96340443 0.03747262
v 2.04098342 -6.74463984 0.03166974
v 1.75924920 -6.74463984 0.05341391
v 2.04098342 -6.96340443 0.03166974
v 1.65996474 -6.74463984 0.05493420
v 1.61769833 -6.74463984 0.05516650
v 1.61769833 -6.96340443 0.03793723
v 1.61769833 -6.74463984 0.03166974
v 1.61769833 -6.96340443 0.03166974
f 1 2 5
f 1 5 3
f 1 3 9
f 1 9 7
f 1 7 6
f 1 6 4
f 1 4 2
f 2 4 6
f 2 6 7
f 2 7 8
f 2 8 10
f 2 10 5
f 3 5 10
f 3 10 9
f 7 9 10
f 7 10 8

