# https://github.com/mikedh/trimesh
v 1.90194027 -2.34748786 0.15964965
v 1.90194027 -2.34748786 -0.59413654
v 1.85657193 -2.34748786 0.16113447
v 1.90194027 -2.35543808 0.16054054
v 1.90194027 -3.30301537 -0.59413654
v -0.23392644 -2.34748786 -0.59413654
v 1.75914496 -2.34748786 0.15994661
v 1.85657193 -2.35543808 0.16128296
v 1.90194027 -2.45289890 0.16261937
v 1.90194027 -3.30301537 0.13143744
v -0.23392644 -3.30301537 -0.59413654
v -0.23392644 -2.34748786 0.12000404
v 1.66945361 -2.34748786 0.15883299
v 1.85657193 -2.45289890 0.16209968
v 1.90194027 -2.50518353 0.16299058
v 1.90194027 -2.99258122 0.15667992
v 1.68889720 -3.30301537 0.14346475
v -0.23392644 -3.30301537 0.07419630
v -0.23392644 -2.35543808 0.12007828
v -0.09322187 -2.34748786 0.12364196
v 1.56408194 -2.34748786 0.15727385
v 1.56408194 -2.35543808 0.15734809
v 1.56408194 -2.45289890 0.15816482
v 1.66171798 -2.45289890 0.15957541
v 1.75914496 -2.55045329 0.16157992
v 1.85657193 -2.55045329 0.16276785
v 1.90194027 -2.55045329 0.16328754
v 1.90194027 -2.94029659 0.16024358
v 1.49404326 -3.30301537 0.15333899
v 1.56408194 -3.30301537 0.15022085
v 1.59147023 -3.30301537 0.14888444
v -0.23392644 -3.23492374 0.09780545
v -0.19190324 -3.30301537 0.08971302
v -0.19064884 -2.45289890 0.12193433
v -0.09322187 -2.45289890 0.12453285
v -0.09322187 -2.35543808 0.12371620
v -0.23392644 -2.49620440 0.12104342
v 0.00462324 -2.34748786 0.12609192
v 1.46644597 -2.34748786 0.15578903
v 1.46644597 -2.35543808 0.15586327
v 1.46644597 -2.45289890 0.15667992
v 1.56408194 -2.55045329 0.15890723
v 1.75914496 -2.64800768 0.16209968
v 1.85657193 -2.64800768 0.16328754
v 1.90194027 -2.60273792 0.16358451
v 1.90194027 -2.89512039 0.16254513
v 1.46644597 -3.30301537 0.15393292
v -0.23392644 -3.17684001 0.10849642
v -0.12249183 -3.30301537 0.10604642
v -0.23392644 -2.59366522 0.12171161
v -0.19064884 -2.55045329 0.12260251
v -0.09322187 -2.55045329 0.12520102
v 0.00462324 -2.55045329 0.12772530
v 0.00462324 -2.45289890 0.12698289
v 0.00462324 -2.35543808 0.12616616
v 0.10184100 -2.34748786 0.12846772
v 1.37675463 -2.34748786 0.15437844
v 1.36901900 -2.45289890 0.15512085
v 1.46644597 -2.55045329 0.15742233
v 1.56408194 -2.64800768 0.15942692
v 1.75914496 -2.74546836 0.16247089
v 1.85657193 -2.74546836 0.16365875
v 1.90194027 -2.70029231 0.16402996
v 1.90194027 -2.64800768 0.16380723
v 1.90194027 -2.84283577 0.16402996
v 1.39640722 -3.30301537 0.15497237
v -0.23392644 -3.12913859 0.11473280
v -0.07419633 -3.30301537 0.11347070
v -0.23392644 -2.69103248 0.12215706
v -0.19064884 -2.64800768 0.12312227
v -0.09322187 -2.64800768 0.12572071
v 0.10184100 -2.64800768 0.13062071
v 0.10184100 -2.55045329 0.13010102
v 0.10184100 -2.45289890 0.12935861
v 0.10184100 -2.35543808 0.12854196
v 0.19947719 -2.34748786 0.13084351
v 1.27159203 -2.34748786 0.15259658
v 1.27159203 -2.35543808 0.15267082
v 1.27159203 -2.45289890 0.15348747
v 1.27159203 -2.55045329 0.15422996
v 1.46644597 -2.64800768 0.15794202
v 1.46644597 -2.74546836 0.15831330
v 1.66171798 -2.74546836 0.16113447
v 1.85657193 -2.84283577 0.16388147
v 1.66171798 -2.84283577 0.16135720
v 1.90194027 -2.79775313 0.16432692
v 1.90194027 -2.74546836 0.16417844
v 1.46644597 -3.13521810 0.15786778
v 1.36901900 -3.30301537 0.15474965
v -0.23392644 -3.03775742 0.12104342
v 0.00462324 -3.30301537 0.12200858
v -0.23392644 -2.78858687 0.12245402
v -0.19064884 -2.74546836 0.12349347
v -0.09322187 -2.74546836 0.12609192
v 0.10184100 -2.74546836 0.13099199
v 0.29690416 -2.64800768 0.13522382
v 0.29690416 -2.55045329 0.13470406
v 0.19947719 -2.45289890 0.13173441
v 0.19947719 -2.35543808 0.13091775
v 0.29690416 -2.34748786 0.13307075
v 1.18210975 -2.34748786 0.15103751
v 1.07652901 -2.45289890 0.15007230
v 1.07652901 -2.55045329 0.15066630
v 1.17416505 -2.64800768 0.15304202
v 1.27159203 -2.64800768 0.15474965
v 1.46644597 -2.84283577 0.15846179
v 1.56408194 -2.84283577 0.15994661
v 1.27159203 -2.74546836 0.15512085
v 1.36901900 -2.84283577 0.15690265
v 1.66171798 -2.94029659 0.16135720
v 1.56408194 -3.03775742 0.15972389
v 1.46644597 -3.03775742 0.15831330
v 1.36901900 -3.13521810 0.15630872
v 1.36901900 -3.23277249 0.15564054
v 1.29898024 -3.30301537 0.15385868
v -0.23392644 -2.94029659 0.12252827
v 0.10184100 -3.30301537 0.12854196
v -0.19064884 -3.03775742 0.12289947
v -0.23392644 -2.84283577 0.12252827
v -0.19064884 -2.84283577 0.12371620
v -0.09322187 -2.84283577 0.12631464
v 0.10184100 -2.84283577 0.13121472
v 0.29690416 -2.74546836 0.13559503
v 0.49175811 -2.64800768 0.13952989
v 0.49175811 -2.55045329 0.13901020
v 0.39433113 -2.45289890 0.13618896
v 0.29690416 -2.35543808 0.13314499
v 0.40227583 -2.34748786 0.13544654
v 1.08447371 -2.34748786 0.14925565
v 0.98704673 -2.34748786 0.14747385
v 0.97910204 -2.35543808 0.14739961
v 0.97910204 -2.45289890 0.14821627
v 0.97910204 -2.55045329 0.14888444
v 0.97910204 -2.64800768 0.14940413
v 0.97910204 -2.74546836 0.14977533
v 1.07652901 -2.74546836 0.15155720
v 1.46644597 -2.94029659 0.15846179
v 1.56408194 -2.94029659 0.15994661
v 1.07652901 -2.84283577 0.15177992
v 1.17416505 -2.84283577 0.15356171
v 1.27159203 -2.84283577 0.15526934
v 1.36901900 -2.94029659 0.15690265
v 1.27159203 -3.03775742 0.15512085
v 1.27159203 -3.13521810 0.15467541
v 1.27159203 -3.23277249 0.15408148
v 1.10391723 -3.30301537 0.15044358
v -0.09322187 -3.03775742 0.12609192
v -0.19064884 -2.94029659 0.12371620
v 0.19947719 -3.30301537 0.13166016
v 0.10184100 -3.23277249 0.12995254
v 0.00462324 -3.13521810 0.12817075
v -0.09322187 -2.94029659 0.12631464
v 0.10184100 -2.94029659 0.13121472
v 0.19947719 -2.84283577 0.13351620
v 0.39433113 -2.84283577 0.13797075
v 0.49175811 -2.74546836 0.13990109
v 0.58939415 -2.64800768 0.14160865
v 0.58939415 -2.55045329 0.14108896
v 0.58939415 -2.45289890 0.14042078
v 0.49970280 -2.34748786 0.13759954
v 0.97910204 -2.34748786 0.14732537
v 0.88167507 -2.35543808 0.14554351
v 0.68682112 -2.45289890 0.14242530
v 0.78445716 -2.55045329 0.14509806
v 0.88167507 -2.64800768 0.14754810
v 0.88167507 -2.74546836 0.14791930
v 0.97910204 -2.84283577 0.14999806
v 1.07652901 -2.94029659 0.15177992
v 1.17416505 -2.94029659 0.15356171
v 1.27159203 -2.94029659 0.15526934
v 1.07652901 -3.03775742 0.15155720
v 1.07652901 -3.13521810 0.15118599
v 1.17416505 -3.13521810 0.15296778
v 1.07652901 -3.23277249 0.15059206
v 1.00628119 -3.30301537 0.14858747
v 0.10184100 -3.03775742 0.13099199
v 0.42171935 -3.30301537 0.13670865
v 0.39433113 -3.23277249 0.13670865
v 0.19947719 -3.23277249 0.13225409
v 0.29690416 -3.13521810 0.13514958
v 0.10184100 -3.13521810 0.13054647
v 0.19947719 -2.94029659 0.13351620
v 0.39433113 -2.94029659 0.13797075
v 0.49175811 -2.84283577 0.14012382
v 0.58939415 -2.74546836 0.14197985
v 0.68682112 -2.64800768 0.14361323
v 0.58939415 -2.35543808 0.13960413
v 0.58939415 -2.34748786 0.13952989
v 0.88167507 -2.34748786 0.14546927
v 0.68682112 -2.35543808 0.14160865
v 0.68682112 -2.74546836 0.14398444
v 0.68682112 -2.84283577 0.14420716
v 0.97910204 -2.94029659 0.14999806
v 0.97910204 -3.03775742 0.14977533
v 0.88167507 -3.13521810 0.14747385
v 0.97910204 -3.23277249 0.14873596
v 0.88167507 -3.30301537 0.14621168
v 0.19947719 -3.03775742 0.13329347
v 0.51914632 -3.30301537 0.13878748
v 0.49175811 -3.23277249 0.13886172
v 0.49175811 -3.13521810 0.13945565
v 0.39433113 -3.03775742 0.13774802
v 0.49175811 -3.03775742 0.13990109
v 0.49175811 -2.94029659 0.14004958
v 0.68682112 -2.94029659 0.14420716
v 0.68682112 -2.34748786 0.14153440
v 0.78445716 -3.03775742 0.14598895
v 0.78445716 -3.13521810 0.14554351
v 0.78445716 -3.23277249 0.14494958
v 0.71420934 -3.30301537 0.14287082
v 0.58939415 -3.30301537 0.14027230
v 0.58939415 -3.23277249 0.14094047
v 0.58939415 -3.13521810 0.14153440
v 0.68682112 -3.03775742 0.14398444
v 0.68682112 -3.13521810 0.14353899
v 0.68682112 -3.23277249 0.14294506
f 1 2 6
f 1 6 12
f 1 12 20
f 1 20 38
f 1 38 56
f 1 56 76
f 1 76 100
f 1 100 128
f 1 128 160
f 1 160 188
f 1 188 206
f 1 206 189
f 1 189 161
f 1 161 130
f 1 130 129
f 1 129 101
f 1 101 77
f 1 77 57
f 1 57 39
f 1 39 21
f 1 21 13
f 1 13 7
f 1 7 3
f 1 3 4
f 1 4 9
f 1 9 15
f 1 15 27
f 1 27 45
f 1 45 64
f 1 64 63
f 1 63 87
f 1 87 86
f 1 86 65
f 1 65 46
f 1 46 28
f 1 28 16
f 1 16 10
f 1 10 5
f 1 5 2
f 2 5 11
f 2 11 6
f 3 7 8
f 3 8 9
f 3 9 4
f 5 10 17
f 5 17 31
f 5 31 30
f 5 30 29
f 5 29 47
f 5 47 66
f 5 66 89
f 5 89 115
f 5 115 146
f 5 146 175
f 5 175 197
f 5 197 210
f 5 210 211
f 5 211 199
f 5 199 177
f 5 177 149
f 5 149 117
f 5 117 91
f 5 91 68
f 5 68 49
f 5 49 33
f 5 33 18
f 5 18 11
f 6 11 18
f 6 18 32
f 6 32 48
f 6 48 67
f 6 67 90
f 6 90 116
f 6 116 119
f 6 119 92
f 6 92 69
f 6 69 50
f 6 50 37
f 6 37 19
f 6 19 12
f 7 13 8
f 8 14 9
f 8 13 14
f 9 14 15
f 10 16 17
f 12 19 36
f 12 36 20
f 13 21 22
f 13 22 23
f 13 23 24
f 13 24 14
f 14 25 26
f 14 26 15
f 14 24 25
f 15 26 27
f 16 28 29
f 16 29 30
f 16 30 31
f 16 31 17
f 18 33 32
f 19 34 35
f 19 35 36
f 19 37 34
f 20 36 55
f 20 55 38
f 21 39 40
f 21 40 22
f 22 40 41
f 22 41 23
f 23 41 59
f 23 59 42
f 23 42 24
f 24 42 25
f 25 43 44
f 25 44 26
f 25 42 60
f 25 60 43
f 26 44 45
f 26 45 27
f 28 46 29
f 29 46 47
f 32 33 49
f 32 49 48
f 34 37 50
f 34 50 51
f 34 51 52
f 34 52 35
f 35 52 53
f 35 53 54
f 35 54 55
f 35 55 36
f 38 55 75
f 38 75 56
f 39 57 40
f 40 57 41
f 41 57 58
f 41 58 59
f 42 59 81
f 42 81 60
f 43 60 61
f 43 61 62
f 43 62 44
f 44 62 63
f 44 63 64
f 44 64 45
f 46 65 66
f 46 66 47
f 48 49 68
f 48 68 67
f 50 69 70
f 50 70 71
f 50 71 52
f 50 52 51
f 52 71 53
f 53 71 72
f 53 72 73
f 53 73 74
f 53 74 54
f 54 74 75
f 54 75 55
f 56 75 99
f 56 99 76
f 57 77 78
f 57 78 79
f 57 79 58
f 58 79 80
f 58 80 59
f 59 80 105
f 59 105 81
f 60 81 82
f 60 82 83
f 60 83 61
f 61 84 62
f 61 83 85
f 61 85 84
f 62 84 86
f 62 86 87
f 62 87 63
f 65 86 84
f 65 84 66
f 66 84 88
f 66 88 89
f 67 68 91
f 67 91 90
f 69 92 93
f 69 93 94
f 69 94 71
f 69 71 70
f 71 94 95
f 71 95 72
f 72 95 123
f 72 123 96
f 72 96 97
f 72 97 73
f 73 97 98
f 73 98 74
f 74 98 99
f 74 99 75
f 76 99 127
f 76 127 100
f 77 101 78
f 78 101 102
f 78 102 79
f 79 102 80
f 80 102 103
f 80 103 104
f 80 104 105
f 81 105 108
f 81 108 82
f 82 106 107
f 82 107 85
f 82 85 83
f 82 108 109
f 82 109 106
f 84 85 110
f 84 110 111
f 84 111 88
f 85 107 138
f 85 138 110
f 88 112 113
f 88 113 145
f 88 145 114
f 88 114 89
f 88 111 112
f 89 114 115
f 90 91 117
f 90 117 118
f 90 118 116
f 92 119 120
f 92 120 121
f 92 121 94
f 92 94 93
f 94 121 122
f 94 122 95
f 95 122 123
f 96 123 156
f 96 156 124
f 96 124 125
f 96 125 97
f 97 125 126
f 97 126 98
f 98 126 127
f 98 127 99
f 100 127 128
f 101 129 102
f 102 129 130
f 102 130 131
f 102 131 162
f 102 162 132
f 102 132 133
f 102 133 103
f 103 133 104
f 104 108 105
f 104 133 134
f 104 134 135
f 104 135 136
f 104 136 108
f 106 137 138
f 106 138 107
f 106 109 142
f 106 142 137
f 108 136 139
f 108 139 140
f 108 140 141
f 108 141 109
f 109 141 170
f 109 170 142
f 110 138 112
f 110 112 111
f 112 138 137
f 112 137 142
f 112 142 143
f 112 143 113
f 113 143 144
f 113 144 145
f 114 145 115
f 115 145 146
f 116 118 147
f 116 147 148
f 116 148 120
f 116 120 119
f 117 149 150
f 117 150 118
f 118 150 151
f 118 151 147
f 120 148 152
f 120 152 121
f 121 152 153
f 121 153 122
f 122 153 182
f 122 182 154
f 122 154 123
f 123 155 184
f 123 184 156
f 123 154 155
f 124 157 158
f 124 158 125
f 124 156 185
f 124 185 157
f 125 158 159
f 125 159 126
f 126 128 127
f 126 159 160
f 126 160 128
f 130 161 131
f 131 161 189
f 131 189 162
f 132 162 163
f 132 163 164
f 132 164 133
f 133 165 134
f 133 164 165
f 134 165 166
f 134 166 135
f 135 166 167
f 135 167 139
f 135 139 136
f 139 167 193
f 139 193 168
f 139 168 169
f 139 169 140
f 140 169 170
f 140 170 141
f 142 170 143
f 143 170 169
f 143 169 168
f 143 168 171
f 143 171 172
f 143 172 173
f 143 173 144
f 144 173 145
f 145 173 174
f 145 174 146
f 146 174 175
f 147 152 148
f 147 151 176
f 147 176 153
f 147 153 152
f 149 177 178
f 149 178 179
f 149 179 150
f 150 179 180
f 150 180 181
f 150 181 151
f 151 181 176
f 153 176 198
f 153 198 182
f 154 182 183
f 154 183 155
f 155 183 184
f 156 184 185
f 157 185 191
f 157 191 186
f 157 186 158
f 158 186 164
f 158 164 163
f 158 163 159
f 159 163 190
f 159 190 187
f 159 187 160
f 160 187 188
f 162 189 206
f 162 206 190
f 162 190 163
f 164 186 165
f 165 186 191
f 165 191 166
f 166 191 192
f 166 192 167
f 167 192 205
f 167 205 193
f 168 193 194
f 168 194 171
f 171 194 172
f 172 194 195
f 172 195 196
f 172 196 174
f 172 174 173
f 174 196 175
f 175 196 197
f 176 181 180
f 176 180 198
f 177 199 200
f 177 200 178
f 178 200 201
f 178 201 180
f 178 180 179
f 180 201 203
f 180 203 202
f 180 202 198
f 182 198 202
f 182 202 183
f 183 202 203
f 183 203 204
f 183 204 184
f 184 204 205
f 184 205 192
f 184 192 185
f 185 192 191
f 187 190 206
f 187 206 188
f 193 205 207
f 193 207 194
f 194 207 195
f 195 207 208
f 195 208 209
f 195 209 196
f 196 209 197
f 197 209 210
f 199 211 212
f 199 212 200
f 200 212 213
f 200 213 201
f 201 213 203
f 203 213 214
f 203 214 205
f 203 205 204
f 205 214 207
f 207 214 215
f 207 215 208
f 208 215 216
f 208 216 209
f 209 216 210
f 210 216 212
f 210 212 211
f 212 216 215
f 212 215 213
f 213 215 214

