# https://github.com/mikedh/trimesh
v -2.24313718 -6.79323710 -0.30344673
v -2.24313718 -6.79323710 -0.23175574
v -2.24313718 -6.64267195 -0.30344673
v 2.92018425 -6.79323710 -0.30344673
v -2.22999632 -6.79323710 -0.18806904
v -2.21584427 -6.64267195 -0.13926852
v -2.24313718 -6.64267195 -0.23175574
v 2.92018425 -6.64267195 -0.30344673
v 2.92018425 -6.79323710 -0.05467120
v -2.21584427 -6.79323710 -0.14231246
v -2.21483366 -6.64267195 -0.13792918
v 2.92018425 -6.64267195 -0.05467120
v -1.58053770 -6.79323710 -0.05467120
v -2.17945470 -6.79323710 -0.11925153
v -2.13952711 -6.64267195 -0.08959133
v -1.65483393 -6.64267195 -0.05467120
v -1.65331743 -6.64578195 -0.05467120
v -1.65281212 -6.79323710 -0.05907882
v -2.14053772 -6.79323710 -0.09536266
v -2.11021298 -6.79323710 -0.09192909
v -2.08898549 -6.68748028 -0.08574378
v -2.12689127 -6.64267195 -0.08825200
v -1.74782996 -6.64267195 -0.06061297
v -1.75035736 -6.79323710 -0.06528848
v -1.70335375 -6.79323710 -0.06229324
v -2.06725240 -6.79323710 -0.08732664
v -2.05057382 -6.64267195 -0.08157968
v -2.06624179 -6.64267195 -0.08274854
v -1.84537520 -6.64267195 -0.06711484
v -1.75035736 -6.64536933 -0.06085649
v -1.84790231 -6.79323710 -0.07181469
v -2.01873258 -6.79323710 -0.08377130
v -1.94292043 -6.64267195 -0.07388459
v -1.89844364 -6.79323710 -0.07532132
v -1.97829939 -6.79323710 -0.08089783
v -1.94544725 -6.79323710 -0.07858443
f 1 2 7
f 1 7 3
f 1 3 8
f 1 8 4
f 1 4 9
f 1 9 13
f 1 13 18
f 1 18 25
f 1 25 24
f 1 24 31
f 1 31 34
f 1 34 36
f 1 36 35
f 1 35 32
f 1 32 26
f 1 26 20
f 1 20 19
f 1 19 14
f 1 14 10
f 1 10 5
f 1 5 2
f 2 5 6
f 2 6 7
f 3 7 6
f 3 6 11
f 3 11 15
f 3 15 22
f 3 22 28
f 3 28 27
f 3 27 33
f 3 33 29
f 3 29 23
f 3 23 16
f 3 16 12
f 3 12 8
f 4 8 12
f 4 12 9
f 5 10 6
f 6 10 11
f 9 12 16
f 9 16 17
f 9 17 13
f 10 14 15
f 10 15 11
f 13 17 18
f 14 19 15
f 15 19 20
f 15 20 21
f 15 21 22
f 16 23 24
f 16 24 25
f 16 25 18
f 16 18 17
f 20 26 21
f 21 26 27
f 21 27 28
f 21 28 22
f 23 29 30
f 23 30 24
f 24 30 29
f 24 29 31
f 26 32 27
f 27 32 33
f 29 33 34
f 29 34 31
f 32 35 33
f 33 35 36
f 33 36 34

