# https://github.com/mikedh/trimesh
v 3.81941948 -5.57385249 0.07994535
v 3.81941948 -5.57385249 0.03166976
v 3.80663414 -5.57385249 0.08016593
v 2.71793105 -6.25531769 0.08944775
v 2.65817326 -6.32738087 0.08944775
v 3.81941948 -6.32738087 0.05196417
v 3.81941948 -6.32738087 0.03166976
v 0.97995298 -5.57385249 0.03166976
v 3.70907612 -5.57385249 0.08172705
v 3.22156394 -5.57385249 0.08719659
v 2.73405173 -6.19136817 0.08944775
v 3.61151810 -5.57385249 0.08315807
v 3.61068423 -5.57385249 0.08316938
v 3.51423801 -5.57385249 0.08440243
v 3.41667999 -5.57385249 0.08547145
v 3.41556818 -5.57385249 0.08548276
v 3.31912197 -5.57385249 0.08642169
v 1.25039156 -6.32738087 0.08944775
v 0.97995298 -6.32738087 0.03166976
v 0.97995298 -5.57385249 0.06928909
v 3.22073007 -5.57385249 0.08720224
v 2.73933264 -6.15780747 0.08944775
v 3.12317205 -5.57385249 0.08780180
v 1.22593261 -6.27869949 0.08944775
v 0.97995298 -6.32738087 0.04142103
v 1.19647057 -6.15780747 0.08944775
v 1.19285730 -6.12380422 0.08944775
v 1.18729836 -6.06029725 0.08944775
v 1.19702644 -5.96278703 0.08944775
v 1.22065159 -5.86542427 0.08944775
v 1.26206502 -5.76540626 0.08944775
v 1.27234897 -5.74954797 0.08944775
v 1.33210669 -5.66745349 0.08944775
v 1.36684959 -5.62496792 0.08944775
v 1.42938692 -5.57385249 0.08944775
v 2.73905470 -6.15286556 0.08944775
v 3.02672583 -5.57385249 0.08828824
v 1.20536471 -6.20184201 0.08944775
v 1.94691685 -5.57385249 0.08944775
v 2.73405173 -6.13066392 0.08944775
v 2.92916778 -5.57385249 0.08860498
v 2.02640866 -5.59848826 0.08944775
v 2.73321790 -5.57385249 0.08894435
v 2.71654132 -6.07785205 0.08944775
v 2.83049799 -5.57385249 0.08879729
v 2.63649371 -5.97001546 0.08944775
v 2.68152048 -6.01545143 0.08944775
v 2.70736921 -6.06029725 0.08944775
f 1 2 8
f 1 8 20
f 1 20 35
f 1 35 39
f 1 39 43
f 1 43 45
f 1 45 41
f 1 41 37
f 1 37 23
f 1 23 21
f 1 21 10
f 1 10 17
f 1 17 16
f 1 16 15
f 1 15 14
f 1 14 13
f 1 13 12
f 1 12 9
f 1 9 3
f 1 3 4
f 1 4 5
f 1 5 6
f 1 6 7
f 1 7 2
f 2 7 19
f 2 19 8
f 3 9 4
f 4 10 11
f 4 11 22
f 4 22 36
f 4 36 40
f 4 40 44
f 4 44 48
f 4 48 47
f 4 47 46
f 4 46 42
f 4 42 39
f 4 39 35
f 4 35 34
f 4 34 33
f 4 33 32
f 4 32 31
f 4 31 30
f 4 30 29
f 4 29 28
f 4 28 27
f 4 27 26
f 4 26 38
f 4 38 24
f 4 24 18
f 4 18 5
f 4 9 12
f 4 12 13
f 4 13 14
f 4 14 15
f 4 15 16
f 4 16 17
f 4 17 10
f 5 18 25
f 5 25 19
f 5 19 7
f 5 7 6
f 8 19 25
f 8 25 20
f 10 21 11
f 11 21 23
f 11 23 22
f 18 24 25
f 20 25 26
f 20 26 27
f 20 27 28
f 20 28 29
f 20 29 30
f 20 30 31
f 20 31 32
f 20 32 33
f 20 33 34
f 20 34 35
f 22 23 37
f 22 37 36
f 24 38 25
f 25 38 26
f 36 37 41
f 36 41 40
f 39 42 43
f 40 41 44
f 41 45 44
f 42 46 43
f 43 46 47
f 43 47 45
f 44 45 48
f 45 47 48

