# https://github.com/mikedh/trimesh
v 2.92064365 -6.79323710 -0.30344673
v 2.92064365 -6.79323710 -0.05467120
v 2.92064365 -6.64267195 -0.30344673
v 7.61411260 -6.79323710 -0.30344673
v 2.92064365 -6.64267195 -0.05467120
v 6.60603881 -6.79323710 -0.05467120
v 7.61411260 -6.64267195 -0.30344673
v 7.61411260 -6.79323710 -0.23175574
v 6.71171659 -6.64267195 -0.05467120
v 6.63406657 -6.79323710 -0.05586441
v 6.70987901 -6.64536933 -0.05467120
v 7.61411260 -6.64267195 -0.23175574
v 7.58792271 -6.64267195 -0.14197154
v 7.58700392 -6.79323710 -0.14238552
v 6.73147379 -6.64267195 -0.05552350
v 6.73147379 -6.79323710 -0.06002854
v 6.82888129 -6.64536933 -0.05980937
v 7.58700392 -6.64267195 -0.13934157
v 7.51165087 -6.64267195 -0.09158816
v 7.51165087 -6.79323710 -0.09687244
v 6.82888129 -6.64267195 -0.05973631
v 6.77879906 -6.79323710 -0.06207408
v 6.87620628 -6.79323710 -0.06628689
v 7.02415512 -6.64267195 -0.06821066
v 7.44181174 -6.64267195 -0.08659609
v 7.46110954 -6.79323710 -0.09314666
v 7.02415512 -6.79323710 -0.07271570
v 7.12156233 -6.64267195 -0.07247218
v 7.44043326 -6.64267195 -0.08652304
v 7.41102731 -6.79323710 -0.08973745
v 7.12156233 -6.79323710 -0.07697722
v 7.26997057 -6.79323710 -0.08350345
v 7.21896984 -6.64267195 -0.07675806
v 7.31959340 -6.64267195 -0.08119005
v 7.33843151 -6.79323710 -0.08652304
f 1 2 5
f 1 5 3
f 1 3 7
f 1 7 4
f 1 4 8
f 1 8 14
f 1 14 20
f 1 20 26
f 1 26 30
f 1 30 35
f 1 35 32
f 1 32 31
f 1 31 27
f 1 27 23
f 1 23 22
f 1 22 16
f 1 16 10
f 1 10 6
f 1 6 2
f 2 6 11
f 2 11 9
f 2 9 5
f 3 5 9
f 3 9 15
f 3 15 21
f 3 21 24
f 3 24 28
f 3 28 33
f 3 33 34
f 3 34 29
f 3 29 25
f 3 25 19
f 3 19 18
f 3 18 13
f 3 13 12
f 3 12 7
f 4 7 12
f 4 12 8
f 6 10 11
f 8 13 14
f 8 12 13
f 9 11 15
f 10 16 11
f 11 16 17
f 11 17 15
f 13 18 14
f 14 18 19
f 14 19 20
f 15 17 21
f 16 22 17
f 17 22 23
f 17 23 24
f 17 24 21
f 19 25 26
f 19 26 20
f 23 27 24
f 24 27 31
f 24 31 28
f 25 29 30
f 25 30 26
f 28 31 32
f 28 32 33
f 29 34 35
f 29 35 30
f 32 35 34
f 32 34 33

