# https://github.com/mikedh/trimesh
v 3.64534983 -5.12992883 -0.94415926
v 3.64534983 -5.03852695 -0.94415926
v 3.65678554 -5.12992883 -0.94415926
v 2.73309208 -5.12992883 -0.94405596
v 3.66276327 -5.03852695 -0.94415926
v 2.73309208 -5.03852695 -0.94405596
v 5.38773629 -5.12992883 -0.94405596
v 2.73283216 -5.12992883 -0.61976418
v 5.38773629 -5.03852695 -0.94405596
v 2.73283216 -5.03852695 -0.61976418
v 5.38799606 -5.12992883 -0.61976418
v 2.73283216 -5.12992883 0.10534819
v 5.38799606 -5.03852695 -0.61976418
v 2.73283216 -5.03852695 0.10689735
v 5.38799606 -5.12992883 0.04740943
v 2.73439167 -5.12992883 0.10545146
v 2.73283216 -5.08598150 0.10627770
v 5.38799606 -5.03852695 0.04431112
v 2.73283216 -5.03921586 0.10689735
v 2.77987457 -5.03852695 0.10741377
v 5.07403377 -5.08534627 0.06465680
v 5.17149736 -5.12992883 0.05907980
v 5.38799606 -5.08534627 0.04617010
v 5.07403377 -5.03852695 0.06403712
v 4.97657048 -5.03852695 0.06971741
v 2.78741173 -5.12992883 0.10596788
v 3.04393543 -5.03852695 0.11020225
v 5.36668401 -5.03852695 0.04565371
v 4.97657048 -5.08534627 0.06982068
v 5.07403377 -5.12992883 0.06424368
v 5.17149736 -5.03852695 0.05794374
v 4.87884712 -5.03852695 0.07488129
v 2.88383550 -5.12992883 0.10669082
v 3.14997571 -5.03852695 0.11092519
v 4.78112376 -5.03852695 0.07942552
v 4.87884712 -5.08534627 0.07426161
v 4.97657048 -5.12992883 0.06878791
v 2.99013562 -5.12992883 0.10720720
v 3.12450527 -5.05650134 0.11020225
v 3.09357686 -5.12992883 0.10731047
v 3.22196864 -5.03852695 0.11071863
v 4.68392024 -5.03852695 0.08293694
v 4.78112376 -5.08534627 0.07808289
v 4.87884712 -5.12992883 0.07271245
v 3.18844128 -5.12992883 0.10689735
v 3.22196864 -5.05328045 0.11009898
v 3.31943208 -5.03852695 0.10999569
v 4.58645680 -5.03852695 0.08582872
v 4.68392024 -5.08534627 0.08097467
v 4.73694031 -5.12992883 0.07746324
v 4.78112376 -5.12992883 0.07612062
v 3.22196864 -5.12992883 0.10669082
v 3.27966700 -5.12992883 0.10627770
v 3.37791019 -5.03852695 0.10947930
v 4.48899336 -5.03852695 0.08861720
v 4.58645680 -5.08534627 0.08386645
v 4.68392024 -5.12992883 0.07901240
v 3.41481633 -5.12992883 0.10503837
v 3.43742782 -5.03852695 0.10885962
v 4.39152992 -5.03852695 0.09119916
v 4.48899336 -5.12992883 0.08448610
v 4.58645680 -5.12992883 0.08180088
v 3.51461888 -5.12992883 0.10390230
v 3.51461888 -5.03852695 0.10803341
v 4.24338553 -5.03852695 0.09481388
v 4.39152992 -5.12992883 0.08706805
v 3.56763894 -5.12992883 0.10317936
v 3.61208232 -5.03852695 0.10669082
v 4.14592209 -5.03852695 0.09708598
v 4.19634312 -5.12992883 0.09181884
v 3.66510238 -5.12992883 0.10183677
v 3.70954576 -5.12992883 0.10121709
v 3.71214478 -5.03852695 0.10524493
v 4.09887968 -5.03852695 0.09811875
v 4.09887968 -5.12992883 0.09398764
v 3.76256582 -5.12992883 0.10039088
v 3.80700920 -5.03852695 0.10369574
v 4.04897834 -5.03852695 0.09915155
v 4.00219599 -5.08534627 0.09801548
v 4.05469622 -5.12992883 0.09491714
v 3.90473255 -5.12992883 0.09791222
v 3.90473255 -5.03852695 0.10204329
v 3.80700920 -5.08534627 0.10163021
f 1 2 5
f 1 5 3
f 1 3 7
f 1 7 11
f 1 11 15
f 1 15 22
f 1 22 30
f 1 30 37
f 1 37 44
f 1 44 51
f 1 51 50
f 1 50 57
f 1 57 62
f 1 62 61
f 1 61 66
f 1 66 70
f 1 70 75
f 1 75 80
f 1 80 81
f 1 81 76
f 1 76 72
f 1 72 71
f 1 71 67
f 1 67 63
f 1 63 58
f 1 58 53
f 1 53 52
f 1 52 45
f 1 45 40
f 1 40 38
f 1 38 33
f 1 33 26
f 1 26 16
f 1 16 12
f 1 12 8
f 1 8 4
f 1 4 6
f 1 6 2
f 2 6 10
f 2 10 14
f 2 14 20
f 2 20 27
f 2 27 34
f 2 34 41
f 2 41 47
f 2 47 54
f 2 54 59
f 2 59 64
f 2 64 68
f 2 68 73
f 2 73 77
f 2 77 82
f 2 82 78
f 2 78 74
f 2 74 69
f 2 69 65
f 2 65 60
f 2 60 55
f 2 55 48
f 2 48 42
f 2 42 35
f 2 35 32
f 2 32 25
f 2 25 24
f 2 24 31
f 2 31 28
f 2 28 18
f 2 18 13
f 2 13 9
f 2 9 5
f 3 5 7
f 4 8 10
f 4 10 6
f 5 9 7
f 7 9 13
f 7 13 11
f 8 12 17
f 8 17 19
f 8 19 14
f 8 14 10
f 11 13 18
f 11 18 23
f 11 23 15
f 12 16 17
f 14 19 20
f 15 21 22
f 15 23 24
f 15 24 25
f 15 25 21
f 16 26 17
f 17 26 27
f 17 27 20
f 17 20 19
f 18 28 23
f 21 25 29
f 21 29 30
f 21 30 22
f 23 28 31
f 23 31 24
f 25 32 29
f 26 33 27
f 27 33 34
f 29 32 35
f 29 35 36
f 29 36 37
f 29 37 30
f 33 38 34
f 34 38 39
f 34 39 40
f 34 40 41
f 35 42 43
f 35 43 36
f 36 43 44
f 36 44 37
f 38 40 39
f 40 45 46
f 40 46 41
f 41 46 47
f 42 48 56
f 42 56 49
f 42 49 43
f 43 49 50
f 43 50 51
f 43 51 44
f 45 52 46
f 46 52 53
f 46 53 47
f 47 53 54
f 48 55 56
f 49 56 50
f 50 56 57
f 53 58 54
f 54 58 59
f 55 60 66
f 55 66 61
f 55 61 56
f 56 61 62
f 56 62 57
f 58 63 64
f 58 64 59
f 60 65 66
f 63 67 64
f 64 67 71
f 64 71 68
f 65 69 70
f 65 70 66
f 68 71 72
f 68 72 73
f 69 74 75
f 69 75 70
f 72 76 73
f 73 76 77
f 74 78 79
f 74 79 80
f 74 80 75
f 76 81 82
f 76 82 83
f 76 83 77
f 77 83 82
f 78 82 79
f 79 82 81
f 79 81 80

