# https://github.com/mikedh/trimesh
v 5.17146540 -6.10428995 0.02214486
v 5.17146540 -6.10428995 -0.05466273
v 5.12773683 -6.10428995 0.02551701
v 5.17146540 -6.10444380 0.02344639
v 5.17146540 -6.24723425 -0.05466273
v -1.91950260 -6.10428995 -0.05466273
v 5.02986789 -6.10428995 0.03076542
v 5.17146540 -6.24723425 0.01862056
v 5.03056207 -6.20084549 0.03166974
v 5.02570341 -6.24723425 0.03166974
v -1.84800982 -6.24723425 -0.05466273
v -1.84800982 -6.10428995 -0.04971859
v 5.00904488 -6.10428995 0.03166974
v 5.01320966 -6.12085825 0.03166974
v 0.39255835 -6.24723425 0.03166974
v -1.83620995 -6.24723425 -0.05386829
v -1.79456363 -6.10428995 -0.04613513
v 0.17738611 -6.10428995 0.03166974
v 0.29677195 -6.18419321 0.03166974
v 0.29677195 -6.24723425 0.02951460
v -1.74250580 -6.24723425 -0.04762261
v -1.75014117 -6.10428995 -0.04320246
v 0.10242273 -6.10428995 0.02987802
v 0.11005782 -6.24723425 0.02512824
v 0.19959748 -6.24723425 0.02725803
v 0.19959748 -6.11951494 0.03166974
v 0.21070288 -6.24723425 0.02752004
v -1.65296642 -6.24723425 -0.04191782
v -1.65296642 -6.10428995 -0.03698211
v -1.69669499 -6.10428995 -0.03977958
v 0.05799998 -6.10428995 0.02879621
v 0.00455438 -6.24723425 0.02252517
v -1.55509777 -6.24723425 -0.03601865
v -1.59952052 -6.10428995 -0.03373673
v 0.00455438 -6.10428995 0.02746931
v -0.08498529 -6.24723425 0.02024326
v -1.54746269 -6.24723425 -0.03556226
v -1.55509777 -6.10428995 -0.03108294
v -0.03917448 -6.10428995 0.02635371
v -0.09262038 -6.10428995 0.02498457
v -0.13704313 -6.10428995 0.02381825
v -0.19048902 -6.24723425 0.01745426
v -1.45792331 -6.24723425 -0.03046599
v -1.45792331 -6.10428995 -0.02552184
v -1.50165188 -6.10428995 -0.02802349
v -0.19048902 -6.10428995 0.02238994
v -0.23421759 -6.10428995 0.02118982
v -0.27933452 -6.24723425 0.01501176
v -1.36074855 -6.24723425 -0.02525983
v -1.36074855 -6.10428995 -0.02032413
v -0.28766349 -6.10428995 0.01971927
v -0.29321633 -6.24723425 0.01462299
v -1.26287991 -6.24723425 -0.02041709
v -1.26287991 -6.10428995 -0.01547295
v -0.33208624 -6.10428995 0.01845998
v -0.33486295 -6.24723425 0.01343976
v -1.16570544 -6.24723425 -0.01591244
v -1.20943401 -6.10428995 -0.01299665
v -0.38900302 -6.10428995 0.01681193
v -0.38067347 -6.24723425 0.01212132
v -1.06783680 -6.24723425 -0.01170357
v -1.16570544 -6.10428995 -0.01097673
v -0.44244892 -6.10428995 0.01523148
v -0.39455587 -6.24723425 0.01171565
v -0.97066204 -6.24723425 -0.00775670
v -0.97066204 -6.10428995 -0.00282100
v -1.06783680 -6.10428995 -0.00677633
v -0.48270689 -6.10428995 0.01401447
v -0.47507180 -6.24723425 0.00931542
v -0.87279340 -6.24723425 -0.00401267
v -0.87279340 -6.10428995 0.00093150
v -0.52712964 -6.10428995 0.01266222
v -0.48270689 -6.24723425 0.00907877
v -0.77561893 -6.24723425 -0.00048837
v -0.77561893 -6.10428995 0.00445578
v -0.57294045 -6.10428995 0.01121700
v -0.57988136 -6.24723425 0.00606157
v -0.67011520 -6.24723425 0.00310353
v -0.72217304 -6.10428995 0.00627286
v -0.59237540 -6.10428995 0.01059160
v -0.67497358 -6.10428995 0.00787021
f 1 2 6
f 1 6 12
f 1 12 17
f 1 17 22
f 1 22 30
f 1 30 29
f 1 29 34
f 1 34 38
f 1 38 45
f 1 45 44
f 1 44 50
f 1 50 54
f 1 54 58
f 1 58 62
f 1 62 67
f 1 67 66
f 1 66 71
f 1 71 75
f 1 75 79
f 1 79 81
f 1 81 80
f 1 80 76
f 1 76 72
f 1 72 68
f 1 68 63
f 1 63 59
f 1 59 55
f 1 55 51
f 1 51 47
f 1 47 46
f 1 46 41
f 1 41 40
f 1 40 39
f 1 39 35
f 1 35 31
f 1 31 23
f 1 23 18
f 1 18 13
f 1 13 7
f 1 7 3
f 1 3 4
f 1 4 8
f 1 8 5
f 1 5 2
f 2 5 11
f 2 11 6
f 3 7 4
f 4 7 9
f 4 9 10
f 4 10 8
f 5 8 10
f 5 10 15
f 5 15 20
f 5 20 27
f 5 27 25
f 5 25 24
f 5 24 32
f 5 32 36
f 5 36 42
f 5 42 48
f 5 48 52
f 5 52 56
f 5 56 60
f 5 60 64
f 5 64 69
f 5 69 73
f 5 73 77
f 5 77 78
f 5 78 74
f 5 74 70
f 5 70 65
f 5 65 61
f 5 61 57
f 5 57 53
f 5 53 49
f 5 49 43
f 5 43 37
f 5 37 33
f 5 33 28
f 5 28 21
f 5 21 16
f 5 16 11
f 6 11 12
f 7 13 14
f 7 14 9
f 9 14 13
f 9 13 18
f 9 18 26
f 9 26 19
f 9 19 15
f 9 15 10
f 11 16 12
f 12 16 17
f 15 19 20
f 16 21 17
f 17 21 22
f 18 23 24
f 18 24 25
f 18 25 26
f 19 26 20
f 20 26 27
f 21 28 29
f 21 29 30
f 21 30 22
f 23 31 24
f 24 31 32
f 25 27 26
f 28 33 34
f 28 34 29
f 31 35 32
f 32 35 36
f 33 37 34
f 34 37 38
f 35 39 36
f 36 39 40
f 36 40 41
f 36 41 42
f 37 43 44
f 37 44 45
f 37 45 38
f 41 46 42
f 42 46 47
f 42 47 48
f 43 49 44
f 44 49 50
f 47 51 48
f 48 51 52
f 49 53 54
f 49 54 50
f 51 55 52
f 52 55 56
f 53 57 54
f 54 57 58
f 55 59 60
f 55 60 56
f 57 61 62
f 57 62 58
f 59 63 64
f 59 64 60
f 61 65 66
f 61 66 67
f 61 67 62
f 63 68 69
f 63 69 64
f 65 70 71
f 65 71 66
f 68 72 69
f 69 72 73
f 70 74 75
f 70 75 71
f 72 76 77
f 72 77 73
f 74 78 75
f 75 78 79
f 76 80 77
f 77 80 78
f 78 80 81
f 78 81 79

