# https://github.com/mikedh/trimesh
v 1.18714726 -6.06046883 0.08946012
v 1.26353271 -6.06077117 0.15805208
v 1.27238340 -5.96328667 0.15805208
v 1.19696004 -5.96298418 0.08946012
v 2.12570685 -5.97558559 0.08945340
v 2.12570685 -6.24364306 0.08945340
v 1.19272713 -6.12367753 0.08946012
v 1.27305680 -6.15805417 0.15805208
v 1.29653043 -5.87497597 0.15805208
v 1.22062602 -5.86549967 0.08946012
v 1.26199354 -5.76549481 0.08946012
v 1.27238340 -5.74966739 0.08946012
v 1.33202939 -5.66750623 0.08946012
v 1.36675893 -5.62506461 0.08946012
v 1.42929103 -5.57395332 0.08946012
v 2.16774770 -5.97558559 0.08945340
v 1.20542588 -6.20170544 0.08946012
v 1.19638282 -6.15775168 0.08946012
v 2.16457301 -6.15472740 0.08945340
v 2.12205112 -6.25523633 0.08946012
v 2.07327607 -6.35675326 0.08946012
v 1.99246527 -6.45363294 0.08946012
v 1.95812068 -6.48639675 0.08946012
v 1.87644405 -6.54648020 0.08946012
v 1.85874265 -6.55867844 0.08946012
v 1.75917220 -6.59486970 0.08946012
v 1.66181445 -6.60374102 0.08946012
v 1.62968257 -6.60122074 0.08946012
v 1.54232996 -6.58902265 0.08946012
v 1.45613181 -6.55555333 0.08946012
v 1.40023769 -6.51956358 0.08946012
v 1.34578656 -6.47369437 0.08946012
v 1.30182161 -6.41865148 0.08946012
v 1.26564924 -6.36189465 0.08946012
v 1.22601338 -6.27862452 0.08946012
v 1.29691529 -6.24394541 0.15805208
v 1.29768487 -5.87265735 0.15805208
v 1.36175628 -5.76398260 0.15805208
v 1.36339177 -5.76136156 0.15805208
v 1.36637406 -5.75833721 0.15805208
v 1.46267362 -5.66770782 0.15805208
v 1.56426428 -5.61810867 0.15805208
v 1.56426428 -5.57395332 0.11736693
v 1.94667248 -5.57395332 0.08946012
v 1.46353938 -5.66720375 0.15805208
v 2.06278988 -5.96772240 0.15805208
v 2.06384807 -5.97669456 0.15805208
v 2.07067857 -6.05734358 0.15805208
v 2.16996037 -6.04312920 0.08945340
v 2.02623265 -5.59865207 0.08946012
v 2.12570685 -5.66922003 0.08946012
v 2.06298231 -6.15412257 0.15805208
v 2.03450612 -6.25100225 0.15805208
v 2.16919075 -6.06036800 0.08945340
v 2.07077474 -6.06046883 0.15805208
v 2.03344793 -6.25301839 0.15805208
v 1.96947269 -6.35705575 0.15805208
v 1.96437387 -6.36421328 0.15805208
v 1.95648526 -6.37237910 0.15805208
v 1.86624647 -6.45282646 0.15805208
v 1.86336043 -6.45524591 0.15805208
v 1.86134015 -6.45635488 0.15805208
v 1.75917220 -6.50292975 0.15805208
v 1.66181445 -6.51623682 0.15805208
v 1.60803679 -6.50756700 0.15805208
v 1.56426428 -6.49990547 0.15805208
v 1.54030969 -6.49073151 0.15805208
v 1.46450146 -6.45201997 0.15805208
v 1.46392424 -6.45161680 0.15805208
v 1.40966561 -6.41038498 0.15805208
v 1.36377649 -6.35745892 0.15805208
v 1.32212058 -6.29606484 0.15805208
v 1.29768487 -6.24656652 0.15805208
v 1.66181445 -5.60177725 0.15805208
v 1.66181445 -5.57395332 0.12982295
v 1.75917220 -5.57395332 0.12071091
v 1.75917220 -5.61427783 0.15805208
v 2.03421751 -5.86922975 0.15805208
v 1.78880283 -5.62506461 0.15805208
v 1.86422627 -5.66165919 0.15805208
v 1.92031274 -5.70450398 0.15805208
v 1.96206498 -5.75007071 0.15805208
v 1.96966505 -5.75853887 0.15805208
v 2.00708820 -5.81388424 0.15805208
v 2.03354411 -5.86741513 0.15805208
v 1.72040225 -5.60863237 0.15805208
v 1.69433120 -5.57395332 0.12820467
f 1 2 3
f 1 3 4
f 1 4 5
f 1 5 6
f 1 6 7
f 1 7 2
f 2 7 8
f 2 8 36
f 2 36 73
f 2 73 72
f 2 72 71
f 2 71 70
f 2 70 69
f 2 69 68
f 2 68 67
f 2 67 66
f 2 66 65
f 2 65 64
f 2 64 63
f 2 63 62
f 2 62 61
f 2 61 60
f 2 60 59
f 2 59 58
f 2 58 57
f 2 57 56
f 2 56 53
f 2 53 52
f 2 52 55
f 2 55 48
f 2 48 47
f 2 47 46
f 2 46 78
f 2 78 85
f 2 85 84
f 2 84 83
f 2 83 82
f 2 82 81
f 2 81 80
f 2 80 79
f 2 79 77
f 2 77 86
f 2 86 74
f 2 74 42
f 2 42 45
f 2 45 41
f 2 41 40
f 2 40 39
f 2 39 38
f 2 38 37
f 2 37 9
f 2 9 3
f 3 9 10
f 3 10 4
f 4 10 5
f 5 10 11
f 5 11 12
f 5 12 13
f 5 13 14
f 5 14 15
f 5 15 44
f 5 44 16
f 5 16 49
f 5 49 54
f 5 54 19
f 5 19 6
f 6 17 18
f 6 18 7
f 6 19 20
f 6 20 21
f 6 21 22
f 6 22 23
f 6 23 24
f 6 24 25
f 6 25 26
f 6 26 27
f 6 27 28
f 6 28 29
f 6 29 30
f 6 30 31
f 6 31 32
f 6 32 33
f 6 33 34
f 6 34 35
f 6 35 17
f 7 18 8
f 8 18 17
f 8 17 35
f 8 35 36
f 9 37 11
f 9 11 10
f 11 37 38
f 11 38 39
f 11 39 12
f 12 39 13
f 13 39 14
f 14 39 40
f 14 40 41
f 14 41 15
f 15 42 43
f 15 43 75
f 15 75 87
f 15 87 76
f 15 76 44
f 15 41 45
f 15 45 42
f 16 46 47
f 16 47 48
f 16 48 49
f 16 44 50
f 16 50 51
f 16 51 46
f 19 52 53
f 19 53 20
f 19 54 55
f 19 55 52
f 20 53 21
f 21 53 56
f 21 56 57
f 21 57 58
f 21 58 22
f 22 58 59
f 22 59 23
f 23 59 60
f 23 60 61
f 23 61 24
f 24 61 25
f 25 61 62
f 25 62 63
f 25 63 26
f 26 63 64
f 26 64 27
f 27 64 28
f 28 64 29
f 29 64 65
f 29 65 66
f 29 66 67
f 29 67 30
f 30 67 68
f 30 68 31
f 31 68 69
f 31 69 70
f 31 70 32
f 32 70 71
f 32 71 33
f 33 71 72
f 33 72 34
f 34 72 73
f 34 73 35
f 35 73 36
f 42 74 43
f 43 74 75
f 44 76 77
f 44 77 50
f 46 51 78
f 48 55 49
f 49 55 54
f 50 77 79
f 50 79 80
f 50 80 51
f 51 80 81
f 51 81 82
f 51 82 83
f 51 83 84
f 51 84 85
f 51 85 78
f 74 86 87
f 74 87 75
f 76 87 86
f 76 86 77

