# https://github.com/mikedh/trimesh
v 7.52360561 -5.57392288 -0.05466509
v 7.51033923 -5.57392288 -0.05149599
v 7.51033923 -5.64973772 -0.05466509
v 6.14009221 -5.57392288 -0.05466509
v 7.50939138 -5.57392288 -0.05145374
v 7.25637903 -5.93362966 -0.05466509
v 6.14009221 -5.93362966 -0.05466509
v -2.15719858 -5.57392288 -0.05465665
v 7.15024650 -5.93362966 -0.04995792
v 7.11897536 -5.57392288 -0.03425607
v -2.00652824 -5.93362966 -0.05465665
v -2.14014167 -5.68614858 -0.05465665
v -2.15435591 -5.59480452 -0.05465665
v -2.14014167 -5.57392288 -0.04999172
v 6.92661017 -5.57392288 -0.02579667
v 7.02326655 -5.93362966 -0.04441410
v -1.91650505 -5.93362966 -0.04825927
v -1.94493352 -5.57392288 -0.03590400
v -2.04348530 -5.57392288 -0.04296054
v 6.82805839 -5.57392288 -0.02152895
v 6.82805839 -5.93362966 -0.03593781
v -1.81890112 -5.93362966 -0.04156613
v -1.84732959 -5.57392288 -0.02913480
v 6.72950690 -5.57392288 -0.01731193
v 6.73045446 -5.93362966 -0.03172079
v -1.74972536 -5.93362966 -0.03699417
v -1.74972536 -5.57392288 -0.02261066
v 6.53619386 -5.57392288 -0.00904690
v 6.53619386 -5.93362966 -0.02341352
v -1.65306899 -5.93362966 -0.03077427
v -1.65401655 -5.57392288 -0.01644992
v 6.43764237 -5.57392288 -0.00488904
v 6.43858993 -5.93362966 -0.01929790
v -1.55546506 -5.93362966 -0.02487551
v -1.55546506 -5.57392288 -0.01050891
v 6.24338178 -5.57392288 0.00320697
v 6.27275780 -5.93362966 -0.01238503
v -1.45786113 -5.93362966 -0.01931481
v -1.45786113 -5.57392288 -0.00494819
v 6.24338178 -5.93362966 -0.01118498
v 6.14577784 -5.57392288 0.00718736
v -1.36025690 -5.93362966 -0.01410902
v -1.36025690 -5.57392288 0.00024914
v 6.14577784 -5.93362966 -0.00720459
v 5.95625532 -5.57392288 0.01483547
v 6.04817391 -5.93362966 -0.00324955
v -1.26265297 -5.93362966 -0.00928353
v -1.26265297 -5.57392288 0.00509998
v 5.87191807 -5.57392288 0.01817359
v 5.85391331 -5.93362966 0.00449996
v -1.16504875 -5.93362966 -0.00477918
v -1.16599660 -5.57392288 0.00957897
v 5.75441398 -5.57392288 0.02273710
v 5.69660978 -5.93362966 0.01059309
v -1.06839237 -5.93362966 -0.00057906
v -1.06649726 -5.57392288 0.01388050
v 5.65775760 -5.57392288 0.02646397
v 5.59900556 -5.93362966 0.01426925
v -0.97078844 -5.93362966 0.00337597
v -0.96984088 -5.57392288 0.01775948
v 5.56015367 -5.57392288 0.03013167
v 5.56394390 -5.93362966 0.01558760
v -0.87223666 -5.93362966 0.00714510
v -0.87413207 -5.57392288 0.02147791
v 5.51845853 -5.57392288 0.03166130
v 5.46349730 -5.93362966 0.01928911
v -0.84286093 -5.93362966 0.00821837
v -0.77558029 -5.57392288 0.02504419
v 5.17068492 -5.93362966 0.02962462
v 5.29766516 -5.93362966 0.02523857
v 5.36589307 -5.93362966 0.02281316
v -0.09898537 -5.57392288 0.03166974
v -0.09898537 -5.91644534 0.03166974
v 5.11098546 -5.93362966 0.03166130
v -0.77178977 -5.93362966 0.01077056
v -0.67418584 -5.93362966 0.01410023
v -0.67797636 -5.57392288 0.02836542
v -0.57752946 -5.57392288 0.03166974
v -0.19090367 -5.85299052 0.03166974
v -0.19090367 -5.93362966 0.02859359
v -0.09898537 -5.93362966 0.03101056
v -0.09235218 -5.93362966 0.03117958
v -0.07339987 -5.93362966 0.03166130
v -0.64765278 -5.93362966 0.01497068
v -0.58037213 -5.93362966 0.01717638
v -0.48276820 -5.93362966 0.02021871
v -0.38516427 -5.93362966 0.02311739
v -0.48276820 -5.64452615 0.03166974
v -0.28756005 -5.78481709 0.03166974
v -0.38516427 -5.71537582 0.03166974
v -0.25913187 -5.93362966 0.02671749
v -0.28756005 -5.93362966 0.02591464
f 1 2 3
f 1 3 6
f 1 6 7
f 1 7 4
f 1 4 8
f 1 8 14
f 1 14 19
f 1 19 18
f 1 18 23
f 1 23 27
f 1 27 31
f 1 31 35
f 1 35 39
f 1 39 43
f 1 43 48
f 1 48 52
f 1 52 56
f 1 56 60
f 1 60 64
f 1 64 68
f 1 68 77
f 1 77 78
f 1 78 72
f 1 72 65
f 1 65 61
f 1 61 57
f 1 57 53
f 1 53 49
f 1 49 45
f 1 45 41
f 1 41 36
f 1 36 32
f 1 32 28
f 1 28 24
f 1 24 20
f 1 20 15
f 1 15 10
f 1 10 5
f 1 5 2
f 2 5 6
f 2 6 3
f 4 7 8
f 5 9 6
f 5 10 9
f 6 9 16
f 6 16 21
f 6 21 25
f 6 25 29
f 6 29 33
f 6 33 37
f 6 37 40
f 6 40 44
f 6 44 46
f 6 46 50
f 6 50 54
f 6 54 58
f 6 58 62
f 6 62 66
f 6 66 71
f 6 71 70
f 6 70 69
f 6 69 74
f 6 74 83
f 6 83 82
f 6 82 81
f 6 81 80
f 6 80 91
f 6 91 92
f 6 92 87
f 6 87 86
f 6 86 85
f 6 85 84
f 6 84 76
f 6 76 75
f 6 75 67
f 6 67 63
f 6 63 59
f 6 59 55
f 6 55 51
f 6 51 47
f 6 47 42
f 6 42 38
f 6 38 34
f 6 34 30
f 6 30 26
f 6 26 22
f 6 22 17
f 6 17 11
f 6 11 7
f 7 11 12
f 7 12 13
f 7 13 8
f 8 13 14
f 9 10 15
f 9 15 16
f 11 17 18
f 11 18 19
f 11 19 14
f 11 14 12
f 12 14 13
f 15 20 21
f 15 21 16
f 17 22 23
f 17 23 18
f 20 24 25
f 20 25 21
f 22 26 27
f 22 27 23
f 24 28 29
f 24 29 25
f 26 30 31
f 26 31 27
f 28 32 29
f 29 32 33
f 30 34 31
f 31 34 35
f 32 36 37
f 32 37 33
f 34 38 39
f 34 39 35
f 36 40 37
f 36 41 44
f 36 44 40
f 38 42 39
f 39 42 43
f 41 45 46
f 41 46 44
f 42 47 48
f 42 48 43
f 45 49 50
f 45 50 46
f 47 51 52
f 47 52 48
f 49 53 50
f 50 53 54
f 51 55 52
f 52 55 56
f 53 57 54
f 54 57 58
f 55 59 56
f 56 59 60
f 57 61 62
f 57 62 58
f 59 63 64
f 59 64 60
f 61 65 66
f 61 66 62
f 63 67 64
f 64 67 68
f 65 69 70
f 65 70 71
f 65 71 66
f 65 72 73
f 65 73 74
f 65 74 69
f 67 75 68
f 68 75 76
f 68 76 77
f 72 78 88
f 72 88 90
f 72 90 89
f 72 89 79
f 72 79 73
f 73 79 80
f 73 80 81
f 73 81 82
f 73 82 83
f 73 83 74
f 76 84 78
f 76 78 77
f 78 84 85
f 78 85 86
f 78 86 87
f 78 87 88
f 79 89 80
f 80 89 90
f 80 90 91
f 87 92 88
f 88 92 90
f 90 92 91

