# https://github.com/mikedh/trimesh
v 5.95821640 -2.45299566 0.09382891
v 6.04923247 -2.45299566 0.09017119
v 6.09369938 -2.35537924 0.08752948
v 5.95821640 -2.35537924 0.09291448
v 5.95821640 -2.55040360 0.09311770
v 6.04923247 -2.55040360 0.09027278
v 6.09369938 -2.55040360 0.08874872
v 6.09369938 -2.45299566 0.08834228
v 6.09369938 -2.25797130 0.07584497
v 5.95821640 -2.25797130 0.08966316
v 5.95821640 -2.64802018 0.08956153
v 6.04923247 -2.64802018 0.08742785
v 6.09369938 -2.64802018 0.08631020
v 5.95821640 -2.16035472 0.06873270
v 6.09369938 -1.96470461 -0.03530989
v 5.95821640 -1.96470461 0.00685580
v 5.95821640 -2.74542797 0.08448134
v 6.09369938 -2.84304454 0.07645463
v 6.09369938 -2.74542797 0.08153482
v 6.09369938 -1.96470461 -0.94405698
v 5.95821640 -1.96470461 -0.94415853
v 5.95821640 -2.83657843 0.07960433
v 6.09369938 -2.94045248 0.07117118
v 6.04923247 -1.96470461 -0.94415853
v 6.09369938 -4.09558102 -0.94405698
v 5.95821640 -4.09558102 -0.94415853
v 5.95821640 -2.93398637 0.07401611
v 6.09369938 -3.03765179 0.06537978
v 6.04923247 -4.09558102 -0.94415853
v 6.09369938 -4.09558102 -0.09840603
v 5.95821640 -4.09558102 -0.29643242
v 5.95821640 -2.94045248 0.07360971
v 5.95821640 -3.03765179 0.06741186
v 6.09369938 -3.13526822 0.05887709
v 6.06854160 -4.09558102 -0.13508510
v 6.09369938 -3.72034154 -0.01509068
v 5.95821640 -3.55097278 0.00736383
v 5.95821640 -3.62230785 -0.01021367
v 5.95821640 -3.72785045 -0.04973769
v 5.95821640 -3.76393521 -0.06497830
v 5.95821640 -3.13526822 0.06019796
v 6.09369938 -3.23267616 0.05135842
v 6.09369938 -3.62585378 0.00411250
v 5.95821640 -3.50279024 0.01660981
v 5.95821640 -3.23267616 0.05166323
v 6.09369938 -3.33029273 0.04251883
v 6.09369938 -3.57641975 0.01234243
v 6.09307610 -3.57621119 0.01234243
v 5.95821640 -3.42770060 0.02849747
v 6.09369938 -3.57579400 0.01244402
v 5.95821640 -3.33029273 0.04129959
v 6.09369938 -3.42770060 0.03205364
v 6.09369938 -3.52656860 0.01945470
f 1 2 3
f 1 3 4
f 1 4 10
f 1 10 14
f 1 14 16
f 1 16 21
f 1 21 26
f 1 26 31
f 1 31 40
f 1 40 39
f 1 39 38
f 1 38 37
f 1 37 44
f 1 44 49
f 1 49 51
f 1 51 45
f 1 45 41
f 1 41 33
f 1 33 32
f 1 32 27
f 1 27 22
f 1 22 17
f 1 17 11
f 1 11 5
f 1 5 6
f 1 6 7
f 1 7 2
f 2 7 8
f 2 8 3
f 3 8 7
f 3 7 13
f 3 13 19
f 3 19 18
f 3 18 23
f 3 23 28
f 3 28 34
f 3 34 42
f 3 42 46
f 3 46 52
f 3 52 53
f 3 53 50
f 3 50 47
f 3 47 43
f 3 43 36
f 3 36 30
f 3 30 25
f 3 25 20
f 3 20 15
f 3 15 9
f 3 9 10
f 3 10 4
f 5 11 12
f 5 12 13
f 5 13 6
f 6 13 7
f 9 14 10
f 9 15 16
f 9 16 14
f 11 17 18
f 11 18 19
f 11 19 12
f 12 19 13
f 15 20 24
f 15 24 21
f 15 21 16
f 17 22 18
f 18 22 23
f 20 25 29
f 20 29 24
f 21 24 29
f 21 29 26
f 22 27 23
f 23 27 28
f 25 30 35
f 25 35 31
f 25 31 26
f 25 26 29
f 27 32 28
f 28 32 33
f 28 33 34
f 30 36 37
f 30 37 38
f 30 38 39
f 30 39 40
f 30 40 35
f 31 35 40
f 33 41 34
f 34 41 42
f 36 43 37
f 37 43 44
f 41 45 42
f 42 45 46
f 43 47 48
f 43 48 44
f 44 48 50
f 44 50 49
f 45 51 46
f 46 51 52
f 47 50 48
f 49 50 53
f 49 53 51
f 51 53 52

