# https://github.com/mikedh/trimesh
v -0.23369049 -2.12833623 -0.94416042
v -0.23369049 -2.12833623 0.11949053
v -0.23369049 -1.88086801 -0.94416042
v -0.19072671 -2.12833623 -0.94416042
v -0.23369049 -2.06285365 0.11949053
v 0.52384227 -2.12833623 0.13577642
v -0.23369049 -1.88086801 0.11733346
v -0.17774306 -1.88086801 -0.94416042
v 2.17771383 -2.12833623 -0.94405255
v -0.23369049 -1.96536828 0.11862771
v 0.58946839 -2.12833623 0.13717850
v 0.67397955 -1.88086801 0.13556074
v 2.17771383 -1.88086801 -0.94405255
v 2.17771383 -2.12833623 0.02652083
v 0.62133709 -2.12833623 0.13782561
v 0.68696321 -2.06285365 0.13836491
v 0.78445803 -1.96536828 0.13901202
v 0.86896934 -1.88086801 0.13944344
v 2.17771383 -1.88086801 0.06728944
v 1.95557664 -2.12833623 0.13113873
v 0.91382170 -2.12833623 0.14364970
v 0.88195286 -2.06285365 0.14224761
v 0.88195286 -1.96536828 0.14095340
v 0.97921173 -1.88086801 0.14160051
v 2.02970107 -1.88086801 0.12315757
v 1.95486844 -1.88086801 0.14364970
v 1.85666542 -2.12833623 0.15702352
v 0.97921173 -2.12833623 0.14494398
v 0.97921173 -2.06285365 0.14408113
v 0.97921173 -1.96536828 0.14278692
v 1.07670655 -1.88086801 0.14343402
v 1.94117673 -1.88086801 0.14699317
v 1.85666542 -1.88086801 0.15519001
v 1.75917053 -2.12833623 0.15767070
v 1.07670655 -2.12833623 0.14677750
v 1.17420138 -2.06285365 0.14774815
v 1.07670655 -1.96536828 0.14462043
v 1.16121786 -1.88086801 0.14494398
v 1.84368184 -1.88086801 0.15519001
v 1.56418081 -2.12833623 0.15497433
v 1.75917053 -2.06285365 0.15680785
v 1.66167570 -2.06285365 0.15551364
v 1.27169620 -2.12833623 0.15022877
v 1.27169620 -2.06285365 0.14947379
v 1.25871269 -1.88086801 0.14666962
v 1.75917053 -1.96536828 0.15551364
v 1.74618694 -1.88086801 0.15411148
v 1.56418081 -2.06285365 0.15411148
v 1.46668599 -2.12833623 0.15346437
v 1.66167570 -1.96536828 0.15421935
v 1.30356504 -2.12833623 0.15076808
v 1.36919117 -2.06285365 0.15109163
v 1.36919117 -1.96536828 0.14979735
v 1.27169620 -1.88086801 0.14688530
v 1.55119730 -1.88086801 0.15141518
v 1.56418081 -1.96536828 0.15281727
v 1.40105987 -2.12833623 0.15238584
v 1.46668599 -1.88086801 0.15012090
f 1 2 5
f 1 5 10
f 1 10 7
f 1 7 3
f 1 3 8
f 1 8 4
f 1 4 9
f 1 9 14
f 1 14 20
f 1 20 27
f 1 27 34
f 1 34 40
f 1 40 49
f 1 49 57
f 1 57 51
f 1 51 43
f 1 43 35
f 1 35 28
f 1 28 21
f 1 21 15
f 1 15 11
f 1 11 6
f 1 6 2
f 2 6 5
f 3 7 12
f 3 12 18
f 3 18 24
f 3 24 31
f 3 31 38
f 3 38 45
f 3 45 54
f 3 54 58
f 3 58 55
f 3 55 47
f 3 47 39
f 3 39 33
f 3 33 32
f 3 32 26
f 3 26 25
f 3 25 19
f 3 19 13
f 3 13 8
f 4 8 9
f 5 6 11
f 5 11 10
f 7 10 12
f 8 13 9
f 9 13 19
f 9 19 14
f 10 11 15
f 10 15 16
f 10 16 17
f 10 17 12
f 12 17 23
f 12 23 18
f 14 19 20
f 15 21 22
f 15 22 16
f 16 22 23
f 16 23 17
f 18 23 24
f 19 25 20
f 20 25 26
f 20 26 27
f 21 28 22
f 22 28 29
f 22 29 30
f 22 30 23
f 23 30 24
f 24 30 37
f 24 37 31
f 26 32 27
f 27 32 33
f 27 33 34
f 28 35 36
f 28 36 29
f 29 36 37
f 29 37 30
f 31 37 36
f 31 36 38
f 33 39 34
f 34 39 41
f 34 41 42
f 34 42 40
f 35 43 44
f 35 44 36
f 36 44 45
f 36 45 38
f 39 46 41
f 39 47 46
f 40 42 48
f 40 48 52
f 40 52 49
f 41 46 50
f 41 50 42
f 42 50 56
f 42 56 48
f 43 51 44
f 44 51 57
f 44 57 52
f 44 52 53
f 44 53 45
f 45 53 54
f 46 47 50
f 47 55 50
f 48 56 53
f 48 53 52
f 49 52 57
f 50 55 56
f 53 56 58
f 53 58 54
f 55 58 56

