# https://github.com/mikedh/trimesh
v 2.14924578 -6.32738087 0.07443056
v 2.14908574 -6.49620270 0.06029007
v 2.14924578 -6.45034511 0.06403448
v 2.14924578 -6.32738087 0.03166976
v 2.09532472 -6.32738087 0.08703256
v 2.14924578 -6.49620270 0.04987137
v 2.08492447 -6.32738087 0.08944775
v 2.07324425 -6.35684537 0.08944775
v 1.99244268 -6.45379900 0.08944775
v 1.95820196 -6.48651894 0.08944775
v 1.94492170 -6.49620270 0.08944775
v 2.14924578 -6.49620270 0.03166976
v 0.51465349 -6.32738087 0.03166976
v 1.25018801 -6.32738087 0.08944775
v 1.37803053 -6.49620270 0.08944775
v 0.65817632 -6.49620270 0.03166976
v 1.34554988 -6.47386057 0.08944775
v 1.30170901 -6.41874897 0.08944775
v 1.26570837 -6.36201771 0.08944775
f 1 2 3
f 1 3 6
f 1 6 12
f 1 12 4
f 1 4 13
f 1 13 14
f 1 14 7
f 1 7 5
f 1 5 2
f 2 6 3
f 2 5 7
f 2 7 8
f 2 8 9
f 2 9 10
f 2 10 11
f 2 11 15
f 2 15 16
f 2 16 12
f 2 12 6
f 4 12 16
f 4 16 13
f 7 14 19
f 7 19 18
f 7 18 17
f 7 17 15
f 7 15 11
f 7 11 10
f 7 10 9
f 7 9 8
f 13 16 17
f 13 17 18
f 13 18 19
f 13 19 14
f 15 17 16

