# https://github.com/mikedh/trimesh
v 1.70649523 -5.42910576 -0.11248707
v 1.70649523 -5.42910576 0.08889532
v 1.70649523 -5.35598795 -0.11248707
v 5.06331193 -5.42910576 -0.11248707
v 1.70813812 -5.42910576 0.08891595
v 1.75939732 -5.35598795 0.09141182
v 1.70649523 -5.35598795 0.09071052
v 5.06298330 -5.35598795 -0.11248707
v 5.06331193 -5.40781819 -0.11248707
v 5.06331193 -5.42910576 0.05389114
v 2.05183733 -5.35598795 0.09469155
v 1.97626287 -5.35598795 0.09392834
v 1.95424778 -5.35598795 0.09370144
v 1.87867332 -5.35598795 0.09285573
v 1.85698687 -5.35598795 0.09260822
v 2.19575716 -5.42910576 0.09273197
v 2.14942673 -5.35598795 0.09557851
v 5.06331193 -5.35598795 0.05710896
v 5.06331193 -5.35844307 0.05700582
v 4.97656554 -5.42910576 0.05673768
v 2.24701635 -5.42910576 0.09312388
v 2.24701635 -5.37786241 0.09537224
v 2.24701635 -5.35598795 0.09632108
v 4.99858078 -5.35598795 0.05923355
v 4.92530649 -5.42910576 0.05836721
v 4.90099137 -5.35598795 0.06234824
v 4.87897614 -5.35598795 0.06304957
v 2.34427726 -5.42910576 0.09374269
v 2.34427726 -5.37786241 0.09599105
v 2.34427726 -5.35598795 0.09691926
v 4.87897614 -5.42910576 0.05983173
v 4.80340168 -5.35598795 0.06538044
v 4.78171508 -5.42910576 0.06284330
v 4.82771709 -5.42910576 0.06142002
v 2.44186674 -5.42910576 0.09427901
v 2.44186674 -5.37786241 0.09652735
v 2.44186674 -5.35598795 0.09741433
v 4.78171508 -5.35598795 0.06604051
v 4.70581227 -5.35598795 0.06830948
v 4.73045603 -5.42910576 0.06436970
v 2.53945629 -5.42910576 0.09465029
v 2.53945629 -5.37786241 0.09689863
v 2.56114289 -5.35598795 0.09786813
v 4.68412568 -5.35598795 0.06894892
v 4.68412568 -5.42910576 0.06573108
v 2.58578664 -5.42910576 0.09477404
v 2.63704584 -5.37786241 0.09714616
v 2.65873236 -5.35598795 0.09811564
v 4.58653613 -5.35598795 0.07175422
v 4.63286663 -5.42910576 0.06721624
v 2.63704584 -5.42910576 0.09489782
v 2.68304763 -5.42910576 0.09495970
v 2.73430675 -5.37786241 0.09726993
v 2.73430675 -5.35598795 0.09821878
v 4.51096182 -5.35598795 0.07383755
v 4.58653613 -5.42910576 0.06853638
v 2.73430675 -5.42910576 0.09502157
v 2.75632191 -5.35598795 0.09823941
v 4.48894658 -5.35598795 0.07443573
v 4.48894658 -5.42910576 0.07121789
v 2.83189626 -5.42910576 0.09498033
v 2.83189626 -5.35598795 0.09819815
v 4.39168567 -5.35598795 0.07701413
v 4.43768753 -5.42910576 0.07257930
v 2.92948577 -5.42910576 0.09483593
v 2.92948577 -5.35598795 0.09803314
v 4.29409612 -5.35598795 0.07944811
v 4.34042647 -5.42910576 0.07507517
v 4.39168567 -5.42910576 0.07379629
v 2.95117233 -5.35598795 0.09797124
v 3.02674672 -5.42910576 0.09450591
v 3.02674672 -5.35598795 0.09772371
v 4.21852166 -5.35598795 0.08124267
v 4.29409612 -5.42910576 0.07623029
v 3.07307711 -5.42910576 0.09427901
v 3.04876188 -5.35598795 0.09762060
v 4.19650672 -5.35598795 0.08175834
v 4.19650672 -5.42910576 0.07854052
v 4.24283707 -5.42910576 0.07744728
v 3.12433623 -5.42910576 0.09401085
v 3.12433623 -5.35598795 0.09722869
v 4.12093226 -5.35598795 0.08344977
v 4.09891702 -5.42910576 0.08072699
v 3.17066662 -5.42910576 0.09374269
v 3.14635139 -5.35598795 0.09710490
v 4.09891702 -5.35598795 0.08392420
v 4.02334271 -5.35598795 0.08551247
v 4.00165626 -5.35598795 0.08596627
v 4.00165626 -5.42910576 0.08274845
v 3.22192578 -5.42910576 0.09341267
v 3.22192578 -5.35598795 0.09663049
v 3.90406663 -5.35598795 0.08786397
v 3.90406663 -5.42910576 0.08464615
v 3.26825613 -5.42910576 0.09306200
v 3.24361231 -5.35598795 0.09646546
v 3.80647716 -5.35598795 0.08959665
v 3.80647716 -5.42910576 0.08639944
v 3.85280751 -5.42910576 0.08557436
v 3.31951526 -5.42910576 0.09264946
v 3.31951526 -5.35598795 0.09586728
v 3.70921618 -5.35598795 0.09116431
v 3.70921618 -5.42910576 0.08794649
v 3.41644760 -5.42910576 0.09170061
v 3.41644760 -5.35598795 0.09491845
v 3.61162670 -5.35598795 0.09260822
v 3.65795705 -5.42910576 0.08870968
v 3.51403715 -5.42910576 0.09062800
v 3.51403715 -5.35598795 0.09384584
v 3.53605231 -5.35598795 0.09357768
v 3.56036751 -5.42910576 0.09005045
v 3.61162670 -5.42910576 0.08939038
f 1 2 7
f 1 7 3
f 1 3 8
f 1 8 9
f 1 9 4
f 1 4 10
f 1 10 20
f 1 20 25
f 1 25 31
f 1 31 34
f 1 34 33
f 1 33 40
f 1 40 45
f 1 45 50
f 1 50 56
f 1 56 60
f 1 60 64
f 1 64 69
f 1 69 68
f 1 68 74
f 1 74 79
f 1 79 78
f 1 78 83
f 1 83 89
f 1 89 93
f 1 93 98
f 1 98 97
f 1 97 102
f 1 102 106
f 1 106 111
f 1 111 110
f 1 110 107
f 1 107 103
f 1 103 99
f 1 99 94
f 1 94 90
f 1 90 84
f 1 84 80
f 1 80 75
f 1 75 71
f 1 71 65
f 1 65 61
f 1 61 57
f 1 57 52
f 1 52 51
f 1 51 46
f 1 46 41
f 1 41 35
f 1 35 28
f 1 28 21
f 1 21 16
f 1 16 5
f 1 5 2
f 2 5 6
f 2 6 7
f 3 7 6
f 3 6 15
f 3 15 14
f 3 14 13
f 3 13 12
f 3 12 11
f 3 11 17
f 3 17 23
f 3 23 30
f 3 30 37
f 3 37 43
f 3 43 48
f 3 48 54
f 3 54 58
f 3 58 62
f 3 62 66
f 3 66 70
f 3 70 72
f 3 72 76
f 3 76 81
f 3 81 85
f 3 85 91
f 3 91 95
f 3 95 100
f 3 100 104
f 3 104 108
f 3 108 109
f 3 109 105
f 3 105 101
f 3 101 96
f 3 96 92
f 3 92 88
f 3 88 87
f 3 87 86
f 3 86 82
f 3 82 77
f 3 77 73
f 3 73 67
f 3 67 63
f 3 63 59
f 3 59 55
f 3 55 49
f 3 49 44
f 3 44 39
f 3 39 38
f 3 38 32
f 3 32 27
f 3 27 26
f 3 26 24
f 3 24 18
f 3 18 8
f 4 9 18
f 4 18 19
f 4 19 10
f 5 11 12
f 5 12 13
f 5 13 14
f 5 14 15
f 5 15 6
f 5 16 17
f 5 17 11
f 8 18 9
f 10 19 20
f 16 21 22
f 16 22 17
f 17 22 23
f 18 24 19
f 19 24 20
f 20 24 26
f 20 26 27
f 20 27 25
f 21 28 29
f 21 29 22
f 22 29 23
f 23 29 30
f 25 27 31
f 27 32 33
f 27 33 34
f 27 34 31
f 28 35 36
f 28 36 29
f 29 36 30
f 30 36 37
f 32 38 33
f 33 38 39
f 33 39 40
f 35 41 42
f 35 42 36
f 36 42 43
f 36 43 37
f 39 44 40
f 40 44 45
f 41 46 42
f 42 46 47
f 42 47 48
f 42 48 43
f 44 49 50
f 44 50 45
f 46 51 47
f 47 51 52
f 47 52 53
f 47 53 54
f 47 54 48
f 49 55 56
f 49 56 50
f 52 57 53
f 53 58 54
f 53 57 58
f 55 59 60
f 55 60 56
f 57 61 58
f 58 61 62
f 59 63 64
f 59 64 60
f 61 65 62
f 62 65 66
f 63 67 68
f 63 68 69
f 63 69 64
f 65 70 66
f 65 71 72
f 65 72 70
f 67 73 74
f 67 74 68
f 71 75 76
f 71 76 72
f 73 77 78
f 73 78 79
f 73 79 74
f 75 80 81
f 75 81 76
f 77 82 83
f 77 83 78
f 80 84 85
f 80 85 81
f 82 86 83
f 83 86 87
f 83 87 88
f 83 88 89
f 84 90 91
f 84 91 85
f 88 92 93
f 88 93 89
f 90 94 91
f 91 94 95
f 92 96 97
f 92 97 98
f 92 98 93
f 94 99 100
f 94 100 95
f 96 101 97
f 97 101 102
f 99 103 104
f 99 104 100
f 101 105 106
f 101 106 102
f 103 107 108
f 103 108 104
f 105 109 110
f 105 110 111
f 105 111 106
f 107 110 109
f 107 109 108

