# https://github.com/mikedh/trimesh
v 2.09671823 -3.56034825 0.10538846
v 2.09671823 -3.67477285 0.10085778
v 2.09671823 -3.56034825 0.04631803
v 1.56423304 -3.56034825 0.13731514
v 2.09671823 -3.67477285 0.04631803
v 1.56423304 -3.67477285 0.13278446
v -0.18341649 -3.56034825 0.04631803
v 1.52906678 -3.56034825 0.13935344
v -0.22085154 -3.67477285 0.04631803
v 1.46667509 -3.67477285 0.13843519
v -0.13327614 -3.56034825 0.07057586
v 1.46667509 -3.56034825 0.14289523
v -0.14507368 -3.67477285 0.07627705
v -0.09311842 -3.56034825 0.08791151
v 1.43173562 -3.56034825 0.14467117
v 1.41471969 -3.67477285 0.14105874
v -0.09311842 -3.67477285 0.08926365
v -0.04660820 -3.56034825 0.09947536
v 1.36911707 -3.56034825 0.14757726
v 1.36911707 -3.67477285 0.14335942
v -0.05364151 -3.67477285 0.09728569
v -0.01620646 -3.56034825 0.10564071
v 1.33417760 -3.56034825 0.14848545
v 1.27155905 -3.67477285 0.14631596
v 1.31716166 -3.67477285 0.14512526
v 0.00103612 -3.67477285 0.10505546
v 0.01510274 -3.56034825 0.10996959
v 1.27155905 -3.56034825 0.14939359
v 1.27155905 -3.62285841 0.14778920
v 1.21960379 -3.67477285 0.14638660
v 0.02599283 -3.67477285 0.10835509
v 0.03257255 -3.56034825 0.11227025
v 1.23661972 -3.56034825 0.14916150
v 1.17422796 -3.67477285 0.14609396
v 0.04505090 -3.67477285 0.11050439
v 0.07976329 -3.56034825 0.11742654
v 1.17422796 -3.56034825 0.14826345
v 1.17422796 -3.62285841 0.14716356
v 1.07666994 -3.67477285 0.14429782
v 0.06683107 -3.67477285 0.11269405
v 0.10177068 -3.56034825 0.11966665
v 1.07666994 -3.56034825 0.14647741
v 1.07666994 -3.62285841 0.14536742
v 0.97911192 -3.67477285 0.14246133
v 0.09723310 -3.67477285 0.11554969
v 0.14714651 -3.67477285 0.11946485
v 0.19932871 -3.67477285 0.12347081
v 0.19932871 -3.62285841 0.12503485
v 0.19932871 -3.56034825 0.12678054
v 1.04173062 -3.56034825 0.14582151
v 0.97911192 -3.62285841 0.14353093
v 0.88178084 -3.67477285 0.14058449
v 0.29688658 -3.67477285 0.12804184
v 0.29688658 -3.62285841 0.12930318
v 0.29688658 -3.56034825 0.13044343
v 0.97911192 -3.56034825 0.14464092
v 0.88178084 -3.62285841 0.14165408
v 0.78444975 -3.67477285 0.13864709
v 0.39444460 -3.67477285 0.13045352
v 0.39444460 -3.62285841 0.13152312
v 0.39444460 -3.56034825 0.13263307
v 0.94417259 -3.56034825 0.14396483
v 0.88178084 -3.56034825 0.14275397
v 0.74928349 -3.56034825 0.14012033
v 0.78444975 -3.62285841 0.13971669
v 0.68689173 -3.67477285 0.13667941
v 0.44004722 -3.67477285 0.13144238
v 0.49177569 -3.62285841 0.13364216
v 0.49177569 -3.56034825 0.13475211
v 0.68689173 -3.56034825 0.13885899
v 0.68689173 -3.62285841 0.13774904
v 0.63493632 -3.67477285 0.13559971
v 0.49177569 -3.67477285 0.13256246
v 0.53737845 -3.67477285 0.13354126
v 0.58933371 -3.67477285 0.13465121
v 0.58933371 -3.62285841 0.13572081
v 0.58933371 -3.56034825 0.13683080
f 1 2 5
f 1 5 3
f 1 3 7
f 1 7 11
f 1 11 14
f 1 14 18
f 1 18 22
f 1 22 27
f 1 27 32
f 1 32 36
f 1 36 41
f 1 41 49
f 1 49 55
f 1 55 61
f 1 61 69
f 1 69 77
f 1 77 70
f 1 70 64
f 1 64 63
f 1 63 62
f 1 62 56
f 1 56 50
f 1 50 42
f 1 42 37
f 1 37 33
f 1 33 28
f 1 28 23
f 1 23 19
f 1 19 15
f 1 15 12
f 1 12 8
f 1 8 4
f 1 4 6
f 1 6 2
f 2 6 10
f 2 10 16
f 2 16 20
f 2 20 25
f 2 25 24
f 2 24 30
f 2 30 34
f 2 34 39
f 2 39 44
f 2 44 52
f 2 52 58
f 2 58 66
f 2 66 72
f 2 72 75
f 2 75 74
f 2 74 73
f 2 73 67
f 2 67 59
f 2 59 53
f 2 53 47
f 2 47 46
f 2 46 45
f 2 45 40
f 2 40 35
f 2 35 31
f 2 31 26
f 2 26 21
f 2 21 17
f 2 17 13
f 2 13 9
f 2 9 5
f 3 5 9
f 3 9 7
f 4 8 6
f 6 8 10
f 7 9 11
f 8 12 10
f 9 13 14
f 9 14 11
f 10 12 15
f 10 15 16
f 13 17 14
f 14 17 18
f 15 19 20
f 15 20 16
f 17 21 18
f 18 21 22
f 19 23 24
f 19 24 25
f 19 25 20
f 21 26 22
f 22 26 27
f 23 28 29
f 23 29 24
f 24 29 30
f 26 31 27
f 27 31 32
f 28 33 34
f 28 34 30
f 28 30 29
f 31 35 32
f 32 35 36
f 33 37 38
f 33 38 34
f 34 38 43
f 34 43 39
f 35 40 41
f 35 41 36
f 37 42 38
f 38 42 43
f 39 43 51
f 39 51 44
f 40 45 41
f 41 45 46
f 41 46 47
f 41 47 48
f 41 48 49
f 42 50 43
f 43 50 51
f 44 51 57
f 44 57 52
f 47 53 48
f 48 53 49
f 49 53 54
f 49 54 55
f 50 56 51
f 51 56 57
f 52 57 65
f 52 65 58
f 53 59 54
f 54 59 60
f 54 60 55
f 55 60 61
f 56 62 57
f 57 62 63
f 57 63 64
f 57 64 65
f 58 65 71
f 58 71 66
f 59 67 68
f 59 68 60
f 60 68 69
f 60 69 61
f 64 70 71
f 64 71 65
f 66 71 72
f 67 73 68
f 68 73 74
f 68 74 75
f 68 75 76
f 68 76 77
f 68 77 69
f 70 77 76
f 70 76 71
f 71 76 72
f 72 76 75

