# https://github.com/mikedh/trimesh
v -0.90200409 -1.99419744 0.10123605
v -0.90200409 -1.96547230 0.10113373
v -1.06045160 -2.64769706 0.09427767
v -1.06045160 -2.73730734 0.09458466
v -1.06045160 -2.83503563 0.09478933
v -0.97077420 -2.84284129 0.09847317
v -0.97077420 -2.94025751 0.09847317
v -0.90200409 -2.94025751 0.10113373
v -0.90200409 -1.89709358 0.10011044
v -1.06045160 -1.95766665 0.08864957
v -1.06045160 -1.96547230 0.08875188
v -1.06045160 -2.05477050 0.08967285
v -1.06045160 -2.35482439 0.09223109
v -1.06045160 -2.45286490 0.09304971
v -1.06045160 -2.55028098 0.09376600
v -1.06045160 -2.94025751 0.09478933
v -0.97077420 -3.03767344 0.09826850
v -0.90200409 -3.03767344 0.10092909
v -1.06045160 -1.86805637 0.08721693
v -0.90200409 -1.86805637 0.09959878
v -1.06045160 -3.03767344 0.09458466
v -1.06045160 -3.12728372 0.09427767
v -0.97077420 -3.13508966 0.09744988
v -0.90200409 -3.06608651 0.10062210
v -1.06045160 -1.38035140 0.07780263
v -0.90200409 -0.50298241 0.06480681
v -0.97077420 -0.50298241 0.06214625
v -1.06045160 -0.50298241 0.05846241
v -1.06045160 -0.60039863 0.06081597
v -1.06045160 -0.78773721 0.06521612
v -1.06045160 -0.99037502 0.06971861
v -1.06045160 -1.07998530 0.07166287
v -1.06045160 -1.27512952 0.07565374
v -1.06045160 -3.13508966 0.09417535
v -0.90200409 -3.13508966 0.09939414
v -1.06045160 -3.22469980 0.09253808
v -0.90200409 -0.41586990 0.03768952
v -0.97077420 -0.41649434 0.03635924
v -1.06045160 -0.41743114 0.03461965
v -0.90200409 -3.16381480 0.09857549
v -1.06045160 -3.32211587 0.08885420
v -0.97077420 -3.23250559 0.09468697
v -0.90200409 -0.37403092 -0.03690858
v -0.97077420 -0.37465565 -0.03690858
v -1.06045160 -0.37559217 -0.03690858
v -0.97077420 -3.56034810 0.08025855
v -0.90200409 -3.23250559 0.09550563
v -1.06045160 -3.32992167 0.08854721
v -1.06045160 -3.56034810 0.07903059
v -0.90200409 -0.37090872 -0.13442845
v -1.06045160 -0.37090872 -0.13442845
v -0.90200409 -3.56034810 0.08005388
v -0.90200409 -3.26123088 0.09417535
v -1.06045160 -3.56034810 -0.94416064
v -0.90200409 -0.37090872 -0.78790371
v -1.06045160 -0.37090872 -0.72701777
v -0.90200409 -3.56034810 -0.94416064
v -1.06045160 -0.50298241 -0.94416064
v -0.90200409 -0.37122109 -0.81676059
v -1.06045160 -0.37122109 -0.81676059
v -0.90200409 -0.50298241 -0.94416064
v -1.06045160 -0.41274769 -0.90476386
v -1.06045160 -0.37434329 -0.82382136
v -0.90200409 -0.41274769 -0.90476386
f 1 2 3
f 1 3 4
f 1 4 5
f 1 5 6
f 1 6 7
f 1 7 8
f 1 8 18
f 1 18 24
f 1 24 35
f 1 35 40
f 1 40 47
f 1 47 53
f 1 53 52
f 1 52 57
f 1 57 61
f 1 61 64
f 1 64 59
f 1 59 55
f 1 55 50
f 1 50 43
f 1 43 37
f 1 37 26
f 1 26 20
f 1 20 9
f 1 9 2
f 2 9 10
f 2 10 11
f 2 11 12
f 2 12 13
f 2 13 14
f 2 14 15
f 2 15 3
f 3 15 14
f 3 14 13
f 3 13 12
f 3 12 11
f 3 11 10
f 3 10 19
f 3 19 25
f 3 25 33
f 3 33 32
f 3 32 31
f 3 31 30
f 3 30 29
f 3 29 28
f 3 28 39
f 3 39 45
f 3 45 51
f 3 51 56
f 3 56 60
f 3 60 63
f 3 63 62
f 3 62 58
f 3 58 54
f 3 54 49
f 3 49 48
f 3 48 41
f 3 41 36
f 3 36 34
f 3 34 22
f 3 22 21
f 3 21 16
f 3 16 5
f 3 5 4
f 5 16 7
f 5 7 6
f 7 16 21
f 7 21 17
f 7 17 18
f 7 18 8
f 9 19 10
f 9 20 19
f 17 21 22
f 17 22 18
f 18 22 23
f 18 23 24
f 19 20 25
f 20 26 27
f 20 27 28
f 20 28 29
f 20 29 30
f 20 30 31
f 20 31 32
f 20 32 33
f 20 33 25
f 22 34 23
f 23 35 24
f 23 34 36
f 23 36 35
f 26 37 38
f 26 38 39
f 26 39 27
f 27 39 28
f 35 36 40
f 36 41 42
f 36 42 40
f 37 43 44
f 37 44 45
f 37 45 38
f 38 45 39
f 40 42 46
f 40 46 47
f 41 48 42
f 42 48 49
f 42 49 46
f 43 50 51
f 43 51 44
f 44 51 45
f 46 49 54
f 46 54 57
f 46 57 52
f 46 52 53
f 46 53 47
f 50 55 56
f 50 56 51
f 54 58 61
f 54 61 57
f 55 59 60
f 55 60 56
f 58 62 64
f 58 64 61
f 59 63 60
f 59 64 63
f 62 63 64

