# https://github.com/mikedh/trimesh
v 3.05979467 -7.95640433 -0.89062089
v 3.05979467 -7.95640433 -0.94415018
v 2.51979767 -7.95640433 -0.89062089
v 0.64859760 -7.95647639 -0.89061566
v 3.05979467 -8.69215984 -0.89062089
v 3.05979467 -8.59527420 -0.94415018
v -0.92687042 -7.95647639 -0.94416064
v 2.51979767 -7.95640433 -0.94415018
v -1.11313243 -7.95647639 -0.89061566
v 0.64859760 -8.69215984 -0.89061566
v 3.05979467 -8.68546068 -0.90484572
v 2.51979767 -8.69215984 -0.89062089
v 2.51979767 -8.69086330 -0.89341452
v 2.51979767 -8.66781246 -0.91254517
v 0.64900614 -8.59527420 -0.94415018
v -0.97016807 -8.59520214 -0.94416064
v -1.11313243 -7.95647639 -0.94416064
v -1.11313243 -8.69215984 -0.89061566
v 0.64900614 -8.68546068 -0.90484572
v -1.11313243 -8.59520214 -0.94416064
v -1.11313243 -8.68538862 -0.90484572
v -1.11313243 -8.64389717 -0.92293344
f 1 2 8
f 1 8 3
f 1 3 9
f 1 9 4
f 1 4 10
f 1 10 5
f 1 5 11
f 1 11 6
f 1 6 2
f 2 6 7
f 2 7 17
f 2 17 8
f 3 8 17
f 3 17 9
f 4 9 18
f 4 18 10
f 5 10 18
f 5 18 12
f 5 12 13
f 5 13 11
f 6 11 14
f 6 14 15
f 6 15 20
f 6 20 16
f 6 16 7
f 7 16 20
f 7 20 17
f 9 17 20
f 9 20 22
f 9 22 21
f 9 21 18
f 11 13 19
f 11 19 14
f 12 18 13
f 13 18 19
f 14 19 15
f 15 19 20
f 18 21 19
f 19 21 22
f 19 22 20

