# https://github.com/mikedh/trimesh
v 2.04102483 -6.65766041 0.04952105
v 2.04102483 -6.66702586 0.04896419
v 2.04102483 -6.65766041 0.03166976
v 1.85671787 -6.65766041 0.06356583
v 2.04102483 -6.74463984 0.04434624
v 2.04102483 -6.74463984 0.03166976
v 1.54251273 -6.65766041 0.03166976
v 1.75926983 -6.65766041 0.07001743
v 1.75926983 -6.74463984 0.05341111
v 1.54251273 -6.74463984 0.03166976
v 1.54251273 -6.65766041 0.06995777
v 1.66177305 -6.65766041 0.07224089
v 1.65996757 -6.74463984 0.05493053
v 1.54251273 -6.74463984 0.05627496
v 1.55197937 -6.65766041 0.07035155
v 1.54251273 -6.66708542 0.06907476
v 1.64947616 -6.65766041 0.07230057
f 1 2 5
f 1 5 6
f 1 6 3
f 1 3 7
f 1 7 11
f 1 11 15
f 1 15 17
f 1 17 12
f 1 12 8
f 1 8 4
f 1 4 2
f 2 4 5
f 3 6 10
f 3 10 7
f 4 8 5
f 5 8 9
f 5 9 13
f 5 13 14
f 5 14 10
f 5 10 6
f 7 10 14
f 7 14 16
f 7 16 11
f 8 12 9
f 9 12 13
f 11 16 15
f 12 17 14
f 12 14 13
f 14 17 16
f 15 16 17

