# https://github.com/mikedh/trimesh
v -0.37837446 -3.81732365 -0.94416042
v -0.37837446 -3.81732365 0.05352048
v -0.37837446 -3.67477285 -0.94416042
v -0.19059189 -3.81732365 -0.94416042
v -0.37837446 -3.81087642 0.05149224
v -0.09246057 -3.81732365 0.09333805
v 0.00082488 -3.67477285 0.10497377
v -0.05345032 -3.67477285 0.09718105
v -0.09318729 -3.67477285 0.08917483
v -0.14503940 -3.67477285 0.07625815
v -0.37837446 -3.67477285 -0.01810844
v -0.19059189 -3.67477285 -0.94416042
v 2.09671809 -3.81732365 -0.94405364
v -0.37837446 -3.74520402 0.02651288
v 0.00445936 -3.81732365 0.10390625
v 0.04516597 -3.67477285 0.11041798
v 0.02602421 -3.67477285 0.10828300
v -0.24729016 -3.67477285 0.03718782
v 2.09671809 -3.67477285 -0.94405364
v 2.09671809 -3.81732365 0.09654056
v 0.05970390 -3.81732365 0.10892349
v 0.09726042 -3.67477285 0.11554197
v 0.06673053 -3.67477285 0.11265971
v 2.09671809 -3.67477285 0.10081052
v 2.09671809 -3.77287686 0.09792829
v 1.56414318 -3.67477285 0.13272860
v 1.56462778 -3.81732365 0.12813842
v 0.10840620 -3.81732365 0.11265971
v 0.19926856 -3.67477285 0.12344139
v 2.09671809 -3.67538690 0.10081052
v 1.46649639 -3.67477285 0.13838634
v 1.46722326 -3.81732365 0.13368938
v 0.19926856 -3.81732365 0.11895794
v 0.19926856 -3.72036399 0.12205369
v 0.29691520 -3.81732365 0.12408188
v 0.29691520 -3.72036399 0.12685743
v 0.29691520 -3.67477285 0.12803164
v 1.41464414 -3.67477285 0.14105510
v 1.36909193 -3.67477285 0.14329680
v 1.36957646 -3.81732365 0.13849313
v 0.39431980 -3.81732365 0.12717765
v 0.39431980 -3.72036399 0.12941941
v 0.39431980 -3.67477285 0.13038012
v 1.31723968 -3.67477285 0.14511157
v 1.27217201 -3.81732365 0.14222931
v 0.49196659 -3.81732365 0.12931263
v 0.58937105 -3.72036399 0.13368938
v 0.43987215 -3.67477285 0.13144761
v 1.27168734 -3.67477285 0.14628585
v 1.27168734 -3.72036399 0.14500479
v 1.17452507 -3.81732365 0.14286980
v 0.58985572 -3.81732365 0.13144761
v 0.68677565 -3.72036399 0.13571765
v 0.58937105 -3.67477285 0.13465008
v 1.21959289 -3.67477285 0.14639256
v 1.17404054 -3.81732365 0.14286980
v 0.78442244 -3.81732365 0.13539736
v 0.68677565 -3.67477285 0.13667835
v 0.88158470 -3.81732365 0.13731885
v 0.88158470 -3.72036399 0.13956062
v 1.17404054 -3.67477285 0.14607235
v 1.17404054 -3.72036399 0.14511157
v 0.97923149 -3.81732365 0.13924033
v 0.88158470 -3.67477285 0.14052132
v 0.97923149 -3.72036399 0.14148210
v 1.12218829 -3.67477285 0.14511157
v 0.97923149 -3.67477285 0.14244281
v 1.02478384 -3.67477285 0.14329680
f 1 2 5
f 1 5 14
f 1 14 11
f 1 11 3
f 1 3 12
f 1 12 4
f 1 4 13
f 1 13 20
f 1 20 27
f 1 27 32
f 1 32 40
f 1 40 45
f 1 45 51
f 1 51 56
f 1 56 63
f 1 63 59
f 1 59 57
f 1 57 52
f 1 52 46
f 1 46 41
f 1 41 35
f 1 35 33
f 1 33 28
f 1 28 21
f 1 21 15
f 1 15 6
f 1 6 2
f 2 6 7
f 2 7 8
f 2 8 9
f 2 9 10
f 2 10 5
f 3 11 18
f 3 18 10
f 3 10 9
f 3 9 8
f 3 8 7
f 3 7 17
f 3 17 16
f 3 16 23
f 3 23 22
f 3 22 29
f 3 29 37
f 3 37 43
f 3 43 48
f 3 48 54
f 3 54 58
f 3 58 64
f 3 64 67
f 3 67 68
f 3 68 66
f 3 66 61
f 3 61 55
f 3 55 49
f 3 49 44
f 3 44 39
f 3 39 38
f 3 38 31
f 3 31 26
f 3 26 24
f 3 24 19
f 3 19 12
f 4 12 19
f 4 19 13
f 5 10 14
f 6 15 16
f 6 16 17
f 6 17 7
f 10 18 14
f 11 14 18
f 13 19 24
f 13 24 30
f 13 30 25
f 13 25 20
f 15 21 22
f 15 22 23
f 15 23 16
f 20 25 26
f 20 26 27
f 21 28 29
f 21 29 22
f 24 26 30
f 25 30 26
f 26 31 27
f 27 31 32
f 28 33 34
f 28 34 29
f 29 34 35
f 29 35 36
f 29 36 37
f 31 38 32
f 32 38 39
f 32 39 40
f 33 35 34
f 35 41 36
f 36 41 37
f 37 41 42
f 37 42 43
f 39 44 45
f 39 45 40
f 41 46 47
f 41 47 42
f 42 47 48
f 42 48 43
f 44 49 50
f 44 50 45
f 45 50 51
f 46 52 47
f 47 52 53
f 47 53 58
f 47 58 54
f 47 54 48
f 49 55 51
f 49 51 50
f 51 55 56
f 52 57 53
f 53 57 59
f 53 59 60
f 53 60 64
f 53 64 58
f 55 61 62
f 55 62 56
f 56 62 65
f 56 65 63
f 59 63 65
f 59 65 60
f 60 65 67
f 60 67 64
f 61 66 62
f 62 66 68
f 62 68 65
f 65 68 67

