# https://github.com/mikedh/trimesh
v 3.40878244 -2.94002897 0.16630056
v 3.40878244 -3.03750927 0.16608318
v 3.51426503 -2.94002897 0.16510489
v 3.51426503 -2.84254868 0.16510489
v 3.40878244 -2.74506824 0.16608318
v 3.51426503 -3.03750927 0.16488751
v 3.40878244 -3.13529713 0.16564837
v 3.61171736 -3.03750927 0.16369180
v 3.61171736 -2.94002897 0.16380051
v 3.61171736 -2.84254868 0.16380051
v 3.62692361 -2.82748075 0.16358313
v 3.61171736 -2.74506824 0.16369180
v 3.51426503 -2.74506824 0.16488751
v 3.62692361 -1.78779352 0.16130046
v 3.40878244 -2.65558320 0.16575708
v 3.51426503 -3.13529713 0.16445270
v 3.40878244 -3.23246985 0.16499618
v 3.62692361 -3.03750927 0.16347442
v 3.61171736 -3.13529713 0.16325703
v 3.62692361 -2.94002897 0.16358313
v 3.62692361 -2.74506824 0.16347442
v 3.62692361 -1.77057302 0.16119175
v 3.40878244 -2.46062261 0.16456141
v 3.51426503 -3.23246985 0.16380051
v 3.40878244 -3.33025757 0.16369180
v 3.41676999 -3.33025757 0.16369180
v 3.51426503 -3.42743044 0.16184394
v 3.51426503 -3.33025757 0.16293094
v 3.62692361 -3.13529713 0.16303961
v 3.62692361 -3.21740192 0.16249613
v 3.61171736 -3.23246985 0.16260484
v 3.40878244 -1.68108769 0.15466989
v 3.40878244 -1.77057302 0.15608294
v 3.40878244 -1.86805317 0.15760471
v 3.40878244 -2.06270633 0.16032218
v 3.40878244 -2.16818173 0.16162656
v 3.40878244 -2.26566203 0.16282223
v 3.40878244 -2.35514721 0.16369180
v 3.62692361 -0.50302135 0.12727793
v 3.61171736 -0.50302135 0.12749535
v 3.51426503 -0.50302135 0.12869102
v 3.40878244 -0.51101675 0.13010411
v 3.40878244 -0.89294281 0.13890864
v 3.40878244 -0.99042296 0.14108260
v 3.40878244 -1.09589851 0.14336527
v 3.40878244 -1.28286399 0.14716970
v 3.40878244 -1.38034413 0.14912627
v 3.40878244 -1.57530472 0.15282199
v 3.40878244 -1.59867548 0.15325679
v 3.40878244 -3.42743044 0.16130046
v 3.41676999 -3.42743044 0.16162656
v 3.51426503 -3.51168779 0.16010479
v 3.61171736 -3.51168779 0.15934389
v 3.61171736 -3.42743044 0.16053956
v 3.62692361 -3.41236251 0.16053956
v 3.62692361 -3.33025757 0.16151785
v 3.62692361 -3.23246985 0.16238742
v 3.62692361 -0.49256625 0.12597358
v 3.40878244 -0.50302135 0.12988669
v 3.40878244 -3.51168779 0.15847432
v 3.41676999 -3.51168779 0.15880041
v 3.62506554 -3.51168779 0.15912651
v 3.62692361 -3.50984280 0.15912651
v 3.62692361 -3.42743044 0.16032218
v 3.62692361 -0.43413936 0.11771250
v 3.61171736 -0.43383193 0.11782121
v 3.51426503 -0.43290966 0.11847340
v 3.40878244 -0.43752221 0.11999516
v 3.40878244 -3.51168779 -0.94415933
v 3.62692361 -3.51168779 0.15901780
v 3.62692361 -0.42768167 0.10890796
v 3.62692361 -0.39231840 0.06064599
v 3.61171736 -0.39201098 0.06064599
v 3.41676999 -0.43167937 0.11901688
v 3.40878244 -0.43167937 0.11901688
v 3.40878244 -0.50302135 -0.94415933
v 3.62692361 -1.59867548 -0.94405059
v 3.62692361 -3.51168779 -0.94394191
v 3.62692361 -0.37048536 -0.03696492
v 3.40878244 -0.38985841 0.06064599
v 3.40878244 -0.41292146 -0.90481064
v 3.62692361 -0.41292146 -0.90481064
v 3.62692361 -0.50302135 -0.94405059
v 3.62692361 -0.37048536 -0.71915426
v 3.40878244 -0.37048536 -0.03696492
v 3.40878244 -0.37110021 -0.81665642
v 3.62692361 -0.37755789 -0.83046109
v 3.62692361 -0.37110021 -0.81665642
v 3.40878244 -0.37048536 -0.71915426
f 1 2 6
f 1 6 3
f 1 3 4
f 1 4 5
f 1 5 15
f 1 15 23
f 1 23 38
f 1 38 37
f 1 37 36
f 1 36 35
f 1 35 34
f 1 34 33
f 1 33 32
f 1 32 49
f 1 49 48
f 1 48 47
f 1 47 46
f 1 46 45
f 1 45 44
f 1 44 43
f 1 43 42
f 1 42 59
f 1 59 68
f 1 68 75
f 1 75 80
f 1 80 85
f 1 85 89
f 1 89 86
f 1 86 81
f 1 81 76
f 1 76 69
f 1 69 60
f 1 60 50
f 1 50 25
f 1 25 17
f 1 17 7
f 1 7 2
f 2 7 16
f 2 16 6
f 3 6 8
f 3 8 9
f 3 9 10
f 3 10 4
f 4 10 11
f 4 11 12
f 4 12 13
f 4 13 5
f 5 14 15
f 5 13 14
f 6 16 19
f 6 19 8
f 7 17 24
f 7 24 16
f 8 18 20
f 8 20 9
f 8 19 29
f 8 29 18
f 9 20 11
f 9 11 10
f 11 21 12
f 11 20 18
f 11 18 29
f 11 29 30
f 11 30 57
f 11 57 56
f 11 56 55
f 11 55 64
f 11 64 63
f 11 63 70
f 11 70 78
f 11 78 77
f 11 77 83
f 11 83 82
f 11 82 87
f 11 87 88
f 11 88 84
f 11 84 79
f 11 79 72
f 11 72 71
f 11 71 65
f 11 65 58
f 11 58 39
f 11 39 22
f 11 22 14
f 11 14 21
f 12 21 14
f 12 14 13
f 14 22 23
f 14 23 15
f 16 24 31
f 16 31 19
f 17 25 26
f 17 26 27
f 17 27 28
f 17 28 24
f 19 30 29
f 19 31 30
f 22 32 33
f 22 33 34
f 22 34 35
f 22 35 36
f 22 36 37
f 22 37 38
f 22 38 23
f 22 39 40
f 22 40 41
f 22 41 42
f 22 42 43
f 22 43 44
f 22 44 45
f 22 45 46
f 22 46 47
f 22 47 48
f 22 48 49
f 22 49 32
f 24 28 31
f 25 50 51
f 25 51 52
f 25 52 27
f 25 27 26
f 27 52 53
f 27 53 54
f 27 54 55
f 27 55 56
f 27 56 28
f 28 56 31
f 30 31 57
f 31 56 57
f 39 58 40
f 40 58 41
f 41 58 59
f 41 59 42
f 50 60 61
f 50 61 51
f 51 61 52
f 52 61 60
f 52 60 69
f 52 69 78
f 52 78 70
f 52 70 62
f 52 62 53
f 53 62 63
f 53 63 64
f 53 64 55
f 53 55 54
f 58 65 59
f 59 65 66
f 59 66 67
f 59 67 68
f 62 70 63
f 65 71 66
f 66 71 72
f 66 72 73
f 66 73 74
f 66 74 67
f 67 74 68
f 68 74 75
f 69 76 83
f 69 83 77
f 69 77 78
f 72 79 73
f 73 80 74
f 73 79 80
f 74 80 75
f 76 81 82
f 76 82 83
f 79 84 89
f 79 89 85
f 79 85 80
f 81 86 87
f 81 87 82
f 84 88 86
f 84 86 89
f 86 88 87

