# https://github.com/mikedh/trimesh
v -1.59536504 -6.76333035 -0.05466577
v -1.58907066 -6.77625865 -0.05466577
v -1.55610112 -6.76333035 -0.05229625
v -0.06452433 -6.76333035 -0.05466577
v -0.77576945 -8.10769563 -0.05467156
v -1.55759960 -6.84053623 -0.05466577
v -1.45824119 -6.76333035 -0.04671717
v -1.45824119 -7.03646413 -0.05466577
v -0.06452433 -8.62337257 -0.05466577
v -0.06452433 -6.76333035 0.00451420
v -0.12132198 -8.61827419 -0.05466577
v -0.20749275 -8.60880559 -0.05466577
v -0.29156530 -8.59788006 -0.05466577
v -0.30894939 -8.59533086 -0.05466577
v -0.38582852 -8.52504424 -0.05466577
v -0.41460189 -8.49773100 -0.05466577
v -0.48338857 -8.43126832 -0.05466577
v -0.51381066 -8.40031332 -0.05466577
v -0.54678048 -8.36608038 -0.05466577
v -0.58079898 -8.33075488 -0.05466577
v -0.59413685 -8.31618789 -0.05466577
v -0.60642546 -8.30271346 -0.05466577
v -0.64044425 -8.26483877 -0.05466577
v -0.67835933 -8.22241196 -0.05466577
v -0.68630184 -8.21330745 -0.05466577
v -0.69319568 -8.20529549 -0.05466577
v -0.73111076 -8.16050140 -0.05466577
v -0.77576945 -8.10769563 -0.05466577
v -0.81863008 -8.05306884 -0.05466577
v -0.85219906 -8.01027795 -0.05466577
v -0.87317986 -7.98332879 -0.05466577
v -0.94436435 -7.88645711 -0.05466577
v -0.97073992 -7.85022124 -0.05466577
v -0.99501755 -7.81526012 -0.05466577
v -1.02484018 -7.77192296 -0.05466577
v -1.06200588 -7.71784245 -0.05466577
v -1.06815033 -7.70855604 -0.05466577
v -1.10276857 -7.65502152 -0.05466577
v -1.16571067 -7.55687538 -0.05466577
v -1.17844880 -7.53575307 -0.05466577
v -1.26312079 -7.39463385 -0.05466577
v -1.32231625 -7.28956830 -0.05466577
v -1.35558566 -7.23038941 -0.05466577
v -1.36068085 -7.22128489 -0.05466577
v -1.36068085 -6.76333035 -0.04151467
v -0.06452433 -8.59533086 -0.04807284
v -0.09329771 -6.76333035 0.00377264
v -0.06452433 -7.23038941 -0.00820240
v -0.09329771 -8.59533086 -0.04881440
v -0.19085805 -8.59533086 -0.05139827
v -0.28826846 -8.59533086 -0.05407483
v -0.28826846 -8.49773100 -0.05102169
v -0.38582852 -8.49773100 -0.05381413
v -0.38582852 -8.40031332 -0.05081892
v -0.48338857 -8.40031332 -0.05371564
v -0.48338857 -8.30271346 -0.05078995
v -0.58079898 -8.30271346 -0.05383151
v -0.58079898 -8.20529549 -0.05096376
v -0.67835933 -8.20529549 -0.05416173
v -0.67835933 -8.10769563 -0.05134033
v -0.77576945 -8.01027795 -0.05190229
v -0.77576945 -7.91267809 -0.04915042
v -0.79630073 -6.76333035 -0.01748928
v -0.87317986 -6.76333035 -0.02027012
v -0.89371085 -6.76333035 -0.02105803
v -0.97073992 -6.76333035 -0.02402428
v -1.06815033 -6.76333035 -0.02796960
v -1.08868132 -6.76333035 -0.02885020
v -1.16571067 -6.76333035 -0.03216985
v -1.26312079 -6.76333035 -0.03667714
v -1.28365178 -6.76333035 -0.03769099
v -0.06452433 -8.49773100 -0.04501969
v -0.09329771 -8.49773100 -0.04575546
v -0.11382899 -6.76333035 0.00323385
v -0.19085805 -6.76333035 0.00119455
v -0.28826846 -6.76333035 -0.00148200
v -0.06452433 -7.39663706 -0.01283714
v -0.19085805 -8.49773100 -0.04834512
v -0.28826846 -8.40031332 -0.04802649
v -0.28826846 -8.30271346 -0.04509501
v -0.38582852 -8.30271346 -0.04789323
v -0.38582852 -8.20529549 -0.04502548
v -0.48338857 -8.20529549 -0.04792799
v -0.58079898 -8.10769563 -0.04814815
v -0.67835933 -8.01027795 -0.04857686
v -0.67835933 -6.76333035 -0.01342228
v -0.77576945 -6.76333035 -0.01674771
v -0.06452433 -8.46896082 -0.04413330
v -0.09329771 -8.40031332 -0.04276025
v -0.30879945 -6.76333035 -0.00206714
v -0.38582852 -7.91267809 -0.03668293
v -0.38582852 -8.01027795 -0.03943482
v -0.28826846 -8.01027795 -0.03664238
v -0.28826846 -8.10769563 -0.03940585
v -0.06452433 -7.49405473 -0.01562379
v -0.38582852 -6.76333035 -0.00428023
v -0.19085805 -8.40031332 -0.04534992
v -0.19085805 -8.30271346 -0.04241844
v -0.28826846 -8.20529549 -0.04223305
v -0.38582852 -8.10769563 -0.04220409
v -0.48338857 -8.10769563 -0.04511239
v -0.48338857 -8.01027795 -0.04234312
v -0.58079898 -8.01027795 -0.04538468
v -0.58079898 -6.76333035 -0.01022430
v -0.60133027 -6.76333035 -0.01089634
v -0.06452433 -8.40031332 -0.04202448
v -0.06452433 -8.37136095 -0.04115546
v -0.09329771 -8.30271346 -0.03983457
v -0.40635951 -6.76333035 -0.00488855
v -0.48338857 -6.76333035 -0.00718275
v -0.19085805 -8.20529549 -0.03955648
v -0.19085805 -8.10769563 -0.03673507
v -0.06452433 -7.78630805 -0.02407063
v -0.09329771 -8.20529549 -0.03696681
v -0.06452433 -8.30271346 -0.03909880
v -0.06452433 -8.27394328 -0.03824716
v -0.06452433 -8.20529549 -0.03623105
f 1 2 3
f 1 3 7
f 1 7 45
f 1 45 71
f 1 71 70
f 1 70 69
f 1 69 68
f 1 68 67
f 1 67 66
f 1 66 65
f 1 65 64
f 1 64 63
f 1 63 87
f 1 87 86
f 1 86 105
f 1 105 104
f 1 104 110
f 1 110 109
f 1 109 96
f 1 96 90
f 1 90 76
f 1 76 75
f 1 75 74
f 1 74 47
f 1 47 10
f 1 10 4
f 1 4 5
f 1 5 2
f 2 5 6
f 2 6 3
f 3 6 8
f 3 8 7
f 4 9 5
f 4 10 48
f 4 48 77
f 4 77 95
f 4 95 113
f 4 113 117
f 4 117 116
f 4 116 115
f 4 115 107
f 4 107 106
f 4 106 88
f 4 88 72
f 4 72 46
f 4 46 9
f 5 9 11
f 5 11 12
f 5 12 13
f 5 13 14
f 5 14 15
f 5 15 16
f 5 16 17
f 5 17 18
f 5 18 19
f 5 19 20
f 5 20 21
f 5 21 22
f 5 22 23
f 5 23 24
f 5 24 25
f 5 25 26
f 5 26 27
f 5 27 28
f 5 28 29
f 5 29 30
f 5 30 31
f 5 31 32
f 5 32 33
f 5 33 34
f 5 34 35
f 5 35 36
f 5 36 37
f 5 37 38
f 5 38 39
f 5 39 40
f 5 40 41
f 5 41 42
f 5 42 43
f 5 43 44
f 5 44 8
f 5 8 6
f 7 8 44
f 7 44 45
f 9 46 11
f 10 47 48
f 11 46 12
f 12 46 49
f 12 49 50
f 12 50 13
f 13 50 51
f 13 51 14
f 14 51 52
f 14 52 15
f 15 52 53
f 15 53 16
f 16 53 54
f 16 54 17
f 17 54 55
f 17 55 18
f 18 55 19
f 19 55 20
f 20 55 56
f 20 56 57
f 20 57 21
f 21 57 22
f 22 57 58
f 22 58 23
f 23 58 59
f 23 59 24
f 24 59 25
f 25 59 26
f 26 59 60
f 26 60 27
f 27 60 28
f 28 60 85
f 28 85 61
f 28 61 29
f 29 61 30
f 30 61 62
f 30 62 63
f 30 63 64
f 30 64 31
f 31 64 32
f 32 64 65
f 32 65 66
f 32 66 33
f 33 66 67
f 33 67 34
f 34 67 35
f 35 67 36
f 36 67 37
f 37 67 68
f 37 68 69
f 37 69 38
f 38 69 39
f 39 69 70
f 39 70 40
f 40 70 41
f 41 70 71
f 41 71 45
f 41 45 42
f 42 45 43
f 43 45 44
f 46 72 73
f 46 73 49
f 47 74 48
f 48 74 75
f 48 75 76
f 48 76 77
f 49 73 50
f 50 73 78
f 50 78 52
f 50 52 51
f 52 78 97
f 52 97 79
f 52 79 54
f 52 54 53
f 54 79 80
f 54 80 81
f 54 81 56
f 54 56 55
f 56 81 82
f 56 82 83
f 56 83 58
f 56 58 57
f 58 83 101
f 58 101 84
f 58 84 60
f 58 60 59
f 60 84 103
f 60 103 85
f 61 85 62
f 62 85 86
f 62 86 87
f 62 87 63
f 72 88 73
f 73 88 89
f 73 89 97
f 73 97 78
f 76 90 77
f 77 91 92
f 77 92 93
f 77 93 94
f 77 94 95
f 77 90 96
f 77 96 91
f 79 97 98
f 79 98 80
f 80 98 111
f 80 111 99
f 80 99 82
f 80 82 81
f 82 99 94
f 82 94 100
f 82 100 83
f 83 100 101
f 84 101 102
f 84 102 103
f 85 103 104
f 85 104 105
f 85 105 86
f 88 106 89
f 89 106 107
f 89 107 108
f 89 108 98
f 89 98 97
f 91 96 109
f 91 109 110
f 91 110 92
f 92 102 101
f 92 101 100
f 92 100 94
f 92 94 93
f 92 110 102
f 94 99 111
f 94 111 112
f 94 112 95
f 95 112 113
f 98 108 114
f 98 114 111
f 102 110 104
f 102 104 103
f 107 115 108
f 108 115 116
f 108 116 114
f 111 114 113
f 111 113 112
f 113 114 117
f 114 116 117

