# https://github.com/mikedh/trimesh
v 5.75864530 -4.39591990 -0.24664606
v 5.75864530 -4.39591990 -0.94406584
v 5.75864530 -4.30346319 -0.32594262
v 5.75812401 -4.27984901 -0.33448511
v 5.45004320 -4.29690622 -0.06186835
v 5.51268456 -4.35452120 -0.08591731
v 5.56768037 -4.39594262 -0.11173047
v 5.56781055 -4.39594262 -0.11349469
v 5.56781055 -4.39594262 -0.94406584
v 5.31485602 -4.39594262 -0.94415868
v 5.75864530 -4.27984901 -0.94406584
v 5.75864530 -4.27984901 -0.57562467
v 5.56781055 -4.27984901 -0.23188241
v 5.36676741 -4.29690622 -0.01822736
v 5.48071227 -4.39594262 -0.05267587
v 5.31485602 -4.29690622 -0.94415868
v 5.31485602 -4.39594262 0.00442877
v 5.56781055 -4.27984901 -0.94406584
v 5.31485602 -4.29690622 0.00043612
v 5.35938279 -4.39594262 -0.00374227
v 5.47358801 -4.39594262 -0.04979742
v 5.33197162 -4.39594262 0.00442877
v 5.31485602 -4.34210046 0.00442877
v 5.31485602 -4.30417913 0.00127177
v 5.33601145 -4.39594262 0.00340741
v 5.33171098 -4.39344257 0.00442877
f 1 2 11
f 1 11 12
f 1 12 3
f 1 3 4
f 1 4 5
f 1 5 6
f 1 6 7
f 1 7 8
f 1 8 9
f 1 9 2
f 2 9 10
f 2 10 16
f 2 16 11
f 3 12 4
f 4 12 11
f 4 11 18
f 4 18 13
f 4 13 5
f 5 14 15
f 5 15 6
f 5 13 14
f 6 15 7
f 7 15 21
f 7 21 20
f 7 20 25
f 7 25 22
f 7 22 17
f 7 17 10
f 7 10 9
f 7 9 8
f 10 17 23
f 10 23 24
f 10 24 19
f 10 19 16
f 11 16 18
f 13 18 16
f 13 16 19
f 13 19 14
f 14 19 20
f 14 20 21
f 14 21 15
f 17 22 26
f 17 26 23
f 19 24 20
f 20 24 25
f 22 25 26
f 23 26 24
f 24 26 25

