# https://github.com/mikedh/trimesh
v 5.93434353 -4.37317745 -0.94415853
v 5.93434353 -4.37317745 -0.17915115
v 5.93434353 -4.09558095 -0.94415853
v 6.04944110 -4.37317745 -0.94415853
v 5.97331223 -4.37317745 -0.12947907
v 6.10074199 -4.09558095 -0.08781553
v 5.93434353 -4.09558095 -0.31491517
v 6.04944110 -4.09558095 -0.94415853
v 7.41400742 -4.37317745 -0.94406322
v 6.01392557 -4.37317745 -0.09744485
v 6.05848459 -4.37317745 -0.06893822
v 6.10731910 -4.09558095 -0.08381126
v 7.41400742 -4.09558095 -0.94406322
v 7.49671341 -4.09558095 -0.94139366
v 7.48191512 -4.37317745 -0.94187035
v 6.07870903 -4.37317745 -0.06054830
v 6.14809632 -4.09558095 -0.06140636
v 7.51151169 -4.09558095 -0.94072629
v 7.50542797 -4.29923325 -0.94110767
v 7.51151169 -4.37317745 -0.94082160
v 6.14694565 -4.37317745 -0.03881081
v 6.24444963 -4.09558095 -0.02393778
v 7.57563788 -4.09558095 -0.90745267
v 7.51151169 -4.29923325 -0.94082160
v 7.58237916 -4.29923325 -0.90402043
v 7.56412771 -4.37317745 -0.91345910
v 6.17654222 -4.37317745 -0.03013490
v 6.34195419 -4.09558095 -0.00363039
v 7.58698299 -4.09558095 -0.90144624
v 7.58698299 -4.37317745 -0.90144624
v 6.24444963 -4.37317745 -0.01602458
v 6.27404620 -4.37317745 -0.01087621
v 6.34195419 -4.37317745 -0.00134224
v 6.43074389 -4.09558095 0.00790575
v 7.61411318 -4.09558095 -0.81668911
v 7.61411318 -4.37317745 -0.81668911
v 6.37697662 -4.37317745 0.00237600
v 6.47941364 -4.09558095 0.01276808
v 7.61411318 -4.09558095 -0.13434140
v 7.61411318 -4.37317745 -0.13443675
v 6.44011602 -4.37317745 0.00838243
v 6.48631939 -4.37317745 0.01200536
v 6.48977256 -4.09558095 0.01353080
v 7.61411318 -4.29923325 -0.13434140
v 7.59109344 -4.09558095 -0.05444657
v 7.58698299 -4.11039155 -0.04024090
v 7.58698299 -4.37317745 -0.04653336
v 6.49848712 -4.37317745 0.01276808
v 6.53696243 -4.09558095 0.01686770
v 7.58632514 -4.09558095 -0.03852478
v 7.51660892 -4.09558095 0.00924049
v 7.51151169 -4.37317745 -0.00239098
v 6.53400294 -4.37317745 0.01467486
v 6.63446669 -4.09558095 0.02230206
v 6.55176071 -4.09558095 0.01772576
v 7.47089864 -4.09558095 0.01229136
v 7.41400742 -4.37317745 0.00475950
v 7.44360399 -4.37317745 0.00266204
v 6.56655899 -4.37317745 0.01639098
v 6.63446669 -4.37317745 0.01934654
v 6.73197096 -4.09558095 0.02573430
v 7.44771472 -4.09558095 0.01334011
v 7.45231856 -4.14520320 0.01143330
v 7.41417189 -4.29923325 0.00771506
v 7.28674242 -4.37317745 0.01047989
v 6.66406326 -4.37317745 0.02029991
v 6.73197096 -4.37317745 0.02220672
v 6.74660478 -4.09558095 0.02611564
v 7.12149492 -4.09558095 0.02754573
v 7.12149492 -4.11039155 0.02716439
v 7.12149492 -4.20786962 0.02382749
v 7.41762505 -4.21471784 0.01057524
v 7.12149492 -4.29923325 0.02058594
v 7.12149492 -4.37317745 0.01772576
v 6.76156753 -4.37317745 0.02287409
v 6.82914630 -4.09558095 0.02792711
v 7.03878865 -4.09558095 0.02954789
v 7.02399036 -4.20786962 0.02697371
v 7.02399036 -4.30534772 0.02430418
v 7.02399036 -4.37317745 0.02192068
v 7.05375139 -4.37317745 0.02068128
v 6.82914630 -4.37317745 0.02401818
v 6.94128467 -4.09558095 0.02945254
v 7.02399036 -4.09558095 0.02983392
v 6.95624713 -4.37317745 0.02392284
v 6.85874286 -4.37317745 0.02439952
v 6.93273428 -4.29923325 0.02582965
v 6.92648639 -4.37317745 0.02430418
f 1 2 7
f 1 7 3
f 1 3 8
f 1 8 4
f 1 4 9
f 1 9 15
f 1 15 20
f 1 20 26
f 1 26 30
f 1 30 36
f 1 36 40
f 1 40 47
f 1 47 52
f 1 52 58
f 1 58 57
f 1 57 65
f 1 65 74
f 1 74 81
f 1 81 80
f 1 80 85
f 1 85 88
f 1 88 86
f 1 86 82
f 1 82 75
f 1 75 67
f 1 67 66
f 1 66 60
f 1 60 59
f 1 59 53
f 1 53 48
f 1 48 42
f 1 42 41
f 1 41 37
f 1 37 33
f 1 33 32
f 1 32 31
f 1 31 27
f 1 27 21
f 1 21 16
f 1 16 11
f 1 11 10
f 1 10 5
f 1 5 2
f 2 5 6
f 2 6 7
f 3 7 6
f 3 6 12
f 3 12 17
f 3 17 22
f 3 22 28
f 3 28 34
f 3 34 38
f 3 38 43
f 3 43 49
f 3 49 55
f 3 55 54
f 3 54 61
f 3 61 68
f 3 68 76
f 3 76 83
f 3 83 84
f 3 84 77
f 3 77 69
f 3 69 62
f 3 62 56
f 3 56 51
f 3 51 50
f 3 50 45
f 3 45 39
f 3 39 35
f 3 35 29
f 3 29 23
f 3 23 18
f 3 18 14
f 3 14 13
f 3 13 8
f 4 8 13
f 4 13 9
f 5 10 6
f 6 11 12
f 6 10 11
f 9 13 14
f 9 14 15
f 11 16 17
f 11 17 12
f 14 18 19
f 14 19 15
f 15 19 20
f 16 21 22
f 16 22 17
f 18 23 24
f 18 24 19
f 19 24 20
f 20 24 25
f 20 25 26
f 21 27 22
f 22 27 28
f 23 25 24
f 23 29 25
f 25 29 30
f 25 30 26
f 27 31 28
f 28 32 33
f 28 33 34
f 28 31 32
f 29 35 36
f 29 36 30
f 33 37 34
f 34 37 38
f 35 39 44
f 35 44 40
f 35 40 36
f 37 41 38
f 38 41 42
f 38 42 43
f 39 45 44
f 40 44 46
f 40 46 47
f 42 48 49
f 42 49 43
f 44 45 46
f 45 50 46
f 46 50 47
f 47 50 51
f 47 51 52
f 48 53 54
f 48 54 55
f 48 55 49
f 51 56 57
f 51 57 58
f 51 58 52
f 53 59 54
f 54 59 60
f 54 60 61
f 56 62 63
f 56 63 64
f 56 64 57
f 57 64 65
f 60 66 61
f 61 66 67
f 61 67 68
f 62 69 70
f 62 70 71
f 62 71 72
f 62 72 63
f 63 72 64
f 64 73 65
f 64 72 73
f 65 73 74
f 67 75 68
f 68 75 76
f 69 77 70
f 70 77 78
f 70 78 79
f 70 79 71
f 71 79 80
f 71 80 73
f 71 73 72
f 73 80 81
f 73 81 74
f 75 82 76
f 76 82 83
f 77 84 78
f 78 84 85
f 78 85 79
f 79 85 80
f 82 86 83
f 83 86 84
f 84 86 87
f 84 87 88
f 84 88 85
f 86 88 87

