# https://github.com/mikedh/trimesh
v 2.04102483 -6.96341533 0.03747117
v 2.04099548 -7.14354916 0.03249858
v 2.04099548 -7.16926251 0.03178301
v 2.04102483 -7.07364377 0.03431531
v 2.04102483 -6.96341533 0.03167058
v 1.74124844 -6.96341533 0.03461063
v 1.82035939 -7.16926251 0.03176712
v 1.91781019 -7.16926251 0.03268656
v 2.03028497 -7.16926251 0.03167001
v 2.04099548 -7.16809383 0.03167001
v 2.04102483 -7.07364377 0.03167058
v 2.04099548 -7.07364377 0.03167001
v 1.74124844 -6.96341533 0.03167058
v 1.74124844 -7.06687285 0.03167058
v 1.81231917 -7.16926251 0.03167001
v 1.79893837 -7.07364377 0.03167001
f 1 2 3
f 1 3 4
f 1 4 11
f 1 11 5
f 1 5 13
f 1 13 6
f 1 6 7
f 1 7 8
f 1 8 2
f 2 8 3
f 3 8 7
f 3 7 15
f 3 15 9
f 3 9 10
f 3 10 11
f 3 11 4
f 5 11 10
f 5 10 12
f 5 12 16
f 5 16 13
f 6 13 14
f 6 14 15
f 6 15 7
f 9 15 16
f 9 16 12
f 9 12 10
f 13 16 14
f 14 16 15

