# https://github.com/mikedh/trimesh
v 1.54251281 -7.56236081 0.03166976
v 1.59799518 -7.66746587 0.03166976
v 1.66177312 -7.62027251 0.05923270
v 1.66177312 -7.52282317 0.07331398
v 1.54251281 -7.54453330 0.03303939
v 1.54251281 -7.23069422 0.03166976
v 1.66177312 -7.70940974 0.03166976
v 1.75936746 -7.62027251 0.07734712
v 1.75931865 -7.55754834 0.08944653
v 1.75931865 -7.52282317 0.09614950
v 1.73067472 -7.52282317 0.08944653
v 1.54251281 -7.23069422 0.03767844
v 1.54251281 -7.42542874 0.03555141
v 1.54251281 -7.52282317 0.03408080
v 1.61770923 -7.16933719 0.03167608
v 1.81231241 -7.16933719 0.03166976
v 1.66543288 -7.71159717 0.03166976
v 1.85662024 -7.62027251 0.06553803
v 1.85662024 -7.52282317 0.08596881
v 1.75365815 -7.72783873 0.03166976
v 1.75482930 -7.72789336 0.03166976
v 1.76888292 -7.72614353 0.03166976
v 1.85662024 -7.71471414 0.03166976
v 1.85662024 -7.42542874 0.08128558
v 1.75931865 -7.42542874 0.09011558
v 1.61770923 -7.16933719 0.03236405
v 2.03028940 -7.16933719 0.03166976
v 1.99208121 -7.62027251 0.03166976
v 1.95416576 -7.65652901 0.03166976
v 2.03302209 -7.52282317 0.03166976
v 2.03668186 -7.44046703 0.03166976
v 2.04097601 -7.16933719 0.03178337
v 1.91776311 -7.16933719 0.03269225
v 2.04097601 -7.17338399 0.03166976
f 1 2 3
f 1 3 4
f 1 4 5
f 1 5 14
f 1 14 13
f 1 13 12
f 1 12 6
f 1 6 16
f 1 16 27
f 1 27 34
f 1 34 31
f 1 31 30
f 1 30 28
f 1 28 29
f 1 29 23
f 1 23 22
f 1 22 21
f 1 21 20
f 1 20 17
f 1 17 7
f 1 7 2
f 2 7 3
f 3 7 8
f 3 8 9
f 3 9 10
f 3 10 11
f 3 11 4
f 4 11 12
f 4 12 13
f 4 13 14
f 4 14 5
f 6 12 26
f 6 26 15
f 6 15 16
f 7 17 8
f 8 18 19
f 8 19 10
f 8 10 9
f 8 17 20
f 8 20 21
f 8 21 22
f 8 22 23
f 8 23 18
f 10 19 24
f 10 24 25
f 10 25 12
f 10 12 11
f 12 25 26
f 15 26 33
f 15 33 32
f 15 32 27
f 15 27 16
f 18 28 19
f 18 23 29
f 18 29 28
f 19 30 31
f 19 31 32
f 19 32 24
f 19 28 30
f 24 32 25
f 25 32 33
f 25 33 26
f 27 32 34
f 31 34 32

