# https://github.com/mikedh/trimesh
v 0.21566906 -7.32800060 0.03169647
v 0.53477971 -7.36173115 0.21105137
v 0.22346163 -7.23054283 0.03169647
v 0.22216307 -7.42519192 0.03169647
v 0.53348085 -7.42519192 0.21204080
v 0.58517242 -7.32866718 0.22821938
v 0.58932848 -7.42519192 0.24271325
v 0.35996365 -6.93816893 0.03169647
v 0.24203417 -7.49918537 0.03169647
v 0.53698763 -7.47972049 0.20963406
v 0.68699692 -7.42519192 0.27654117
v 0.68699692 -7.32786752 0.26282280
v 0.78440544 -7.13308476 0.25180534
v 0.78401578 -7.03602682 0.22653467
v 0.72349270 -7.06869038 0.21238844
v 0.61933039 -7.23054283 0.21549044
v 0.41711000 -6.84071086 0.03169647
v 0.39438140 -6.87590778 0.03169647
v 0.59322491 -7.51638379 0.22348613
v 0.24904772 -7.52264999 0.03169647
v 0.31229841 -7.70796676 0.03169647
v 0.34502764 -7.78262678 0.03169647
v 0.37827641 -7.83182247 0.03169647
v 0.79284759 -7.42159231 0.29598219
v 0.83103174 -7.38666199 0.30486038
v 0.83103174 -7.37332993 0.30486038
v 0.68699692 -7.52278336 0.24881030
v 0.88155433 -7.13308476 0.27263693
v 0.88155433 -7.03549362 0.24955907
v 0.81635550 -6.97536557 0.21399294
v 0.58932848 -6.65779393 0.03172322
v 0.58997791 -6.65779393 0.03169647
v 0.62816206 -7.58157812 0.21158620
v 0.42801984 -7.88328434 0.03169647
v 0.78440544 -7.52278336 0.26194037
v 0.87532024 -7.42159231 0.29932490
v 0.83869458 -7.38666199 0.30486038
v 0.83869458 -7.37332993 0.30486038
v 0.59374431 -7.99087497 0.03169647
v 0.67777545 -8.01873914 0.03169647
v 0.87532024 -7.33573332 0.29686466
v 0.97922277 -7.13308476 0.26212754
v 0.97922277 -7.03549362 0.24450492
v 1.54250424 -6.65779393 0.06996349
v 1.07650141 -6.65779393 0.07964388
v 0.88155433 -6.96736625 0.21877965
v 0.78544453 -6.65779393 0.06295724
v 1.54250424 -6.65779393 0.03169647
v 0.48152966 -7.92274759 0.03169647
v 0.52607779 -7.95287823 0.03169647
v 0.88155433 -7.52278336 0.26514931
v 0.68699692 -8.01967217 0.03169647
v 0.97922277 -7.42519192 0.27092546
v 0.97922277 -7.32786752 0.27073829
v 1.07650141 -7.13308476 0.24172381
v 1.07650141 -7.03549362 0.23027849
v 1.14092093 -7.03549362 0.21492888
v 1.14702528 -7.13308476 0.21918079
v 1.54250424 -7.52264999 0.03407646
v 1.06078622 -6.65779393 0.07924277
v 0.97909289 -6.65779393 0.07630121
v 0.88155433 -6.65779393 0.07095293
v 1.54250424 -7.56237969 0.03169647
v 0.98078126 -7.52624960 0.23533260
v 0.78440544 -8.01580610 0.03169647
v 0.83791526 -8.01007310 0.03169647
v 0.88155433 -8.00447377 0.03169647
v 0.97909289 -7.97927589 0.03169647
v 1.54250424 -7.54438133 0.03306029
v 1.13572593 -7.32786752 0.21329764
v 1.35080416 -7.71756582 0.03169647
f 1 2 3
f 1 3 8
f 1 8 18
f 1 18 17
f 1 17 32
f 1 32 48
f 1 48 63
f 1 63 71
f 1 71 68
f 1 68 67
f 1 67 66
f 1 66 65
f 1 65 52
f 1 52 40
f 1 40 39
f 1 39 50
f 1 50 49
f 1 49 34
f 1 34 23
f 1 23 22
f 1 22 21
f 1 21 20
f 1 20 9
f 1 9 4
f 1 4 5
f 1 5 2
f 2 6 3
f 2 5 7
f 2 7 6
f 3 6 8
f 4 9 10
f 4 10 5
f 5 10 7
f 6 7 11
f 6 11 12
f 6 12 13
f 6 13 14
f 6 14 15
f 6 15 16
f 6 16 17
f 6 17 18
f 6 18 8
f 7 10 19
f 7 19 11
f 9 20 10
f 10 20 21
f 10 21 22
f 10 22 23
f 10 23 19
f 11 24 25
f 11 25 26
f 11 26 12
f 11 19 27
f 11 27 24
f 12 26 13
f 13 28 29
f 13 29 14
f 13 26 28
f 14 29 30
f 14 30 31
f 14 31 17
f 14 17 15
f 15 17 16
f 17 31 32
f 19 33 27
f 19 23 34
f 19 34 33
f 24 27 35
f 24 35 36
f 24 36 25
f 25 37 38
f 25 38 26
f 25 36 37
f 26 38 28
f 27 33 39
f 27 39 40
f 27 40 35
f 28 38 41
f 28 41 42
f 28 42 43
f 28 43 29
f 29 43 44
f 29 44 45
f 29 45 46
f 29 46 30
f 30 46 47
f 30 47 31
f 31 47 62
f 31 62 61
f 31 61 60
f 31 60 45
f 31 45 44
f 31 44 48
f 31 48 32
f 33 34 49
f 33 49 50
f 33 50 39
f 35 51 36
f 35 40 52
f 35 52 51
f 36 51 53
f 36 53 54
f 36 54 55
f 36 55 41
f 36 41 38
f 36 38 37
f 41 55 42
f 42 55 56
f 42 56 43
f 43 56 44
f 44 56 57
f 44 57 55
f 44 55 58
f 44 58 59
f 44 59 69
f 44 69 63
f 44 63 48
f 45 60 46
f 46 60 61
f 46 61 62
f 46 62 47
f 51 64 53
f 51 52 65
f 51 65 66
f 51 66 67
f 51 67 68
f 51 68 64
f 53 64 63
f 53 63 69
f 53 69 70
f 53 70 58
f 53 58 55
f 53 55 54
f 55 57 56
f 58 70 69
f 58 69 59
f 63 64 71
f 64 68 71

