# https://github.com/mikedh/trimesh
v -0.78685770 -5.57372500 -0.94416049
v -0.78685770 -5.42911288 -0.94416049
v -0.77572412 -5.57385249 -0.94416049
v -0.78685770 -5.57385249 -0.83146371
v -0.78685770 -5.42911288 0.03079341
v -0.67802721 -5.42911288 -0.94416049
v -0.67719239 -5.57385249 -0.94416049
v -0.78685770 -5.57385249 0.02459088
v -0.78156928 -5.42911288 0.03100368
v 1.66169009 -5.57385249 0.12982367
v 2.05637469 -5.42911288 -0.94405538
v 2.05637469 -5.57385249 -0.94405538
v -0.77572412 -5.42911288 0.03121394
v 1.69425573 -5.57385249 0.12814162
v 2.05637469 -5.42911288 0.09145208
v 2.05164301 -5.42911288 0.09145208
v 1.70789433 -5.42911288 0.08882389
v 1.66169009 -5.42911288 0.08829824
v 0.97920302 -5.42911288 0.07547266
v 0.88150595 -5.42911288 0.07358038
v 0.78408726 -5.42911288 0.07168806
v 0.58925002 -5.42911288 0.06769323
v 0.39441279 -5.42911288 0.06348810
v 0.34319849 -5.42911288 0.06233173
v 0.29699424 -5.42911288 0.06128044
v 0.14808273 -5.42911288 0.05781122
v -0.04675436 -5.42911288 0.05297536
v -0.19065581 -5.42911288 0.04919076
v -0.38549291 -5.42911288 0.04372411
v -0.48318982 -5.42911288 0.04078054
v -0.53440441 -5.42911288 0.03920364
v -0.58060866 -5.42911288 0.03773185
v -0.67802721 -5.42911288 0.03457801
v 2.05637469 -5.57385249 0.03626006
v 1.75910871 -5.57385249 0.12067755
v 2.05637469 -5.57379583 0.08535467
v 2.05164301 -5.57385249 0.08524956
v 2.05052953 -5.57385249 0.08545979
f 1 2 6
f 1 6 7
f 1 7 3
f 1 3 4
f 1 4 8
f 1 8 5
f 1 5 2
f 2 5 9
f 2 9 13
f 2 13 33
f 2 33 32
f 2 32 31
f 2 31 30
f 2 30 29
f 2 29 28
f 2 28 27
f 2 27 26
f 2 26 25
f 2 25 24
f 2 24 23
f 2 23 22
f 2 22 21
f 2 21 20
f 2 20 19
f 2 19 18
f 2 18 17
f 2 17 16
f 2 16 15
f 2 15 11
f 2 11 6
f 3 7 12
f 3 12 34
f 3 34 37
f 3 37 38
f 3 38 35
f 3 35 14
f 3 14 10
f 3 10 8
f 3 8 4
f 5 8 10
f 5 10 9
f 6 11 7
f 7 11 12
f 9 10 13
f 10 14 15
f 10 15 16
f 10 16 17
f 10 17 18
f 10 18 19
f 10 19 20
f 10 20 21
f 10 21 22
f 10 22 23
f 10 23 24
f 10 24 25
f 10 25 26
f 10 26 27
f 10 27 28
f 10 28 29
f 10 29 30
f 10 30 31
f 10 31 32
f 10 32 33
f 10 33 13
f 11 15 36
f 11 36 34
f 11 34 12
f 14 35 15
f 15 35 36
f 34 36 37
f 35 38 36
f 36 38 37

