# https://github.com/mikedh/trimesh
v -2.04320606 -0.86293015 -0.94416100
v -2.14068272 -0.86293015 -0.94089489
v -2.04320606 -0.50286444 -0.94416100
v -1.06045190 -0.86293015 -0.94406206
v -2.21627897 -0.86293015 -0.90150392
v -2.14068272 -0.50286444 -0.94089489
v -2.14068272 -0.41406515 -0.90318641
v -2.04320606 -0.41271544 -0.90476996
v -1.06045190 -0.41989840 -0.90793705
v -1.06045190 -0.50286444 -0.94406206
v -1.06045190 -0.86293015 0.06694121
v -2.21627897 -0.50286444 -0.90150392
v -2.22449869 -0.86293015 -0.87557307
v -2.20736478 -0.42833488 -0.88952826
v -2.14068272 -0.37376331 -0.81668453
v -2.04320606 -0.37087095 -0.81668453
v -1.06045190 -0.37424537 -0.82381054
v -1.06045190 -0.41271544 -0.90476996
v -1.16580075 -0.86293015 0.06238845
v -1.06045190 -0.69000775 0.06298230
v -1.06832409 -0.79534237 0.06506073
v -1.16580075 -0.69781747 0.05862753
v -2.24302153 -0.50286444 -0.81668453
v -2.24302153 -0.86293015 -0.81668453
v -2.21627897 -0.41541515 -0.81668453
v -2.14068272 -0.37357066 -0.71919668
v -2.04320606 -0.37048536 -0.71919668
v -1.06045190 -0.37087095 -0.81668453
v -1.26327712 -0.79534237 0.05635114
v -1.26327712 -0.86293015 0.05783572
v -1.06045190 -0.60038934 0.06090387
v -1.16580075 -0.50286444 0.05407476
v -1.26327712 -0.69781747 0.05407476
v -2.24302153 -0.50286444 -0.13436870
v -2.24302153 -0.86293015 -0.13436870
v -2.21627897 -0.41541515 -0.13436870
v -2.14068272 -0.37357066 -0.23185653
v -2.04320606 -0.37048536 -0.23185653
v -1.06045190 -0.37048536 -0.71919668
v -1.36086972 -0.79534237 0.05150149
v -1.36086972 -0.86293015 0.05298610
v -1.06045190 -0.50286444 0.05852855
v -1.06832409 -0.50286444 0.05823162
v -1.26327712 -0.50286444 0.04952203
v -1.65318377 -0.43580696 0.01943444
v -1.75066043 -0.44265256 0.01626730
v -1.36086972 -0.69781747 0.04922514
v -2.23491804 -0.86293015 -0.10754719
v -2.21627897 -0.86293015 -0.04608530
v -2.21627897 -0.50286444 -0.05053905
v -2.20736478 -0.42833488 -0.06261369
v -2.14068272 -0.37366683 -0.13436870
v -2.04320606 -0.37058153 -0.13436870
v -1.94572940 -0.37048536 -0.13436870
v -1.06045190 -0.37048536 -0.13436870
v -1.45834638 -0.69781747 0.04407855
v -1.45834638 -0.86293015 0.04783951
v -1.42847813 -0.86293015 0.04942309
v -1.06045190 -0.41719868 0.03467617
v -1.16580075 -0.41864487 0.03239982
v -1.26327712 -0.42047693 0.03012344
v -1.36086972 -0.42293546 0.02774812
v -1.45834638 -0.42616547 0.02507587
v -1.55582275 -0.43040783 0.02230464
v -1.36086972 -0.50286444 0.04467241
v -1.82660420 -0.44901610 0.01379300
v -2.14068272 -0.41392073 -0.04766885
v -2.14068272 -0.86293015 -0.00016211
v -2.14068272 -0.79534237 -0.00174566
v -2.14068272 -0.50286444 -0.00867375
v -1.55582275 -0.38856333 -0.03678189
v -1.45834638 -0.38436921 -0.03678189
v -1.36086972 -0.38109097 -0.03678189
v -1.26327712 -0.37863243 -0.03678189
v -1.16580075 -0.37680037 -0.03678189
v -1.06832409 -0.37545066 -0.03678189
v -1.06045190 -0.37540243 -0.03678189
v -1.45834638 -0.50286444 0.03952583
v -1.55582275 -0.69781747 0.03853610
v -1.55582275 -0.86293015 0.04229705
v -1.65318377 -0.39401070 -0.03678189
v -1.89155009 -0.46960085 0.01151666
v -1.55582275 -0.50286444 0.03388439
v -2.05154143 -0.86293015 0.00924028
v -2.04320606 -0.60038934 0.00389577
v -2.04320606 -0.50286444 0.00142144
v -1.55582275 -0.60038934 0.03625975
v -1.65318377 -0.50286444 0.02804505
v -1.65318377 -0.69781747 0.03259778
v -1.65318377 -0.79534237 0.03487412
v -1.65318377 -0.86293015 0.03635873
v -1.90266363 -0.53463362 0.01230843
v -1.85473570 -0.50243061 0.01488171
v -1.75066043 -0.50286444 0.02180976
v -2.03105053 -0.86293015 0.01082382
v -2.04320606 -0.69781747 0.00617212
v -1.97849175 -0.69781747 0.01082382
v -1.91366180 -0.60038934 0.01310021
v -1.75066043 -0.69781747 0.02636249
v -1.75066043 -0.79534237 0.02863887
v -1.72079217 -0.86293015 0.03210289
v -1.84825274 -0.60038934 0.01765293
v -2.00488679 -0.86293015 0.01270430
v -1.99944582 -0.82822037 0.01230843
v -1.94769745 -0.86293015 0.01676218
v -1.81826884 -0.86293015 0.02566969
v -1.84825274 -0.79534237 0.02210669
f 1 2 6
f 1 6 3
f 1 3 10
f 1 10 4
f 1 4 11
f 1 11 19
f 1 19 30
f 1 30 41
f 1 41 58
f 1 58 57
f 1 57 80
f 1 80 91
f 1 91 101
f 1 101 106
f 1 106 105
f 1 105 103
f 1 103 95
f 1 95 84
f 1 84 68
f 1 68 49
f 1 49 48
f 1 48 35
f 1 35 24
f 1 24 13
f 1 13 5
f 1 5 2
f 2 5 12
f 2 12 6
f 3 6 7
f 3 7 8
f 3 8 9
f 3 9 10
f 4 10 9
f 4 9 18
f 4 18 17
f 4 17 28
f 4 28 39
f 4 39 55
f 4 55 77
f 4 77 59
f 4 59 42
f 4 42 31
f 4 31 20
f 4 20 11
f 5 13 12
f 6 12 14
f 6 14 7
f 7 14 15
f 7 15 16
f 7 16 8
f 8 16 17
f 8 17 18
f 8 18 9
f 11 20 21
f 11 21 22
f 11 22 19
f 12 13 23
f 12 23 14
f 13 24 23
f 14 23 25
f 14 25 15
f 15 25 26
f 15 26 27
f 15 27 16
f 16 27 39
f 16 39 28
f 16 28 17
f 19 22 29
f 19 29 30
f 20 31 22
f 20 22 21
f 22 32 44
f 22 44 33
f 22 33 29
f 22 31 32
f 23 24 35
f 23 35 34
f 23 34 36
f 23 36 25
f 25 36 37
f 25 37 26
f 26 37 38
f 26 38 27
f 27 38 54
f 27 54 55
f 27 55 39
f 29 33 47
f 29 47 40
f 29 40 41
f 29 41 30
f 31 42 43
f 31 43 32
f 32 43 45
f 32 45 46
f 32 46 44
f 33 44 65
f 33 65 47
f 34 35 48
f 34 48 49
f 34 49 50
f 34 50 51
f 34 51 36
f 36 51 52
f 36 52 37
f 37 52 53
f 37 53 38
f 38 53 54
f 40 47 56
f 40 56 57
f 40 57 58
f 40 58 41
f 42 59 60
f 42 60 61
f 42 61 62
f 42 62 63
f 42 63 43
f 43 63 64
f 43 64 45
f 44 46 66
f 44 66 65
f 45 64 67
f 45 67 46
f 46 67 66
f 47 65 78
f 47 78 56
f 49 68 50
f 50 68 69
f 50 69 70
f 50 70 51
f 51 70 67
f 51 67 52
f 52 67 71
f 52 71 72
f 52 72 73
f 52 73 53
f 53 73 74
f 53 74 75
f 53 75 76
f 53 76 77
f 53 77 54
f 54 77 55
f 56 78 79
f 56 79 80
f 56 80 57
f 59 77 76
f 59 76 75
f 59 75 74
f 59 74 73
f 59 73 60
f 60 73 72
f 60 72 61
f 61 72 62
f 62 72 71
f 62 71 63
f 63 71 81
f 63 81 67
f 63 67 64
f 65 66 78
f 66 67 70
f 66 70 82
f 66 82 83
f 66 83 78
f 67 81 71
f 68 84 69
f 69 84 70
f 70 84 85
f 70 85 86
f 70 86 82
f 78 83 87
f 78 87 79
f 79 87 88
f 79 88 89
f 79 89 90
f 79 90 80
f 80 90 91
f 82 86 85
f 82 85 92
f 82 92 93
f 82 93 94
f 82 94 88
f 82 88 83
f 83 88 87
f 84 95 96
f 84 96 85
f 85 96 97
f 85 97 98
f 85 98 92
f 88 94 99
f 88 99 89
f 89 99 100
f 89 100 90
f 90 100 101
f 90 101 91
f 92 98 102
f 92 102 93
f 93 102 94
f 94 102 99
f 95 103 104
f 95 104 96
f 96 104 97
f 97 104 105
f 97 105 98
f 98 105 102
f 99 102 100
f 100 102 106
f 100 106 101
f 102 107 106
f 102 105 107
f 103 105 104
f 105 106 107

