# https://github.com/mikedh/trimesh
v 5.17146482 -6.24724820 0.01862056
v 5.08900742 -6.41746624 0.03166974
v 5.10687328 -6.41746624 0.02973433
v 5.12611340 -6.41746624 0.02631992
v 5.17146482 -6.41746624 0.01820644
v 5.17146482 -6.24724820 -0.05466273
v 5.02579014 -6.24724820 0.03166974
v 5.04640453 -6.28272145 0.03166974
v 0.63561990 -6.41746624 0.03166974
v 5.17146482 -6.41746624 -0.05466273
v -1.84840994 -6.24724820 -0.05466273
v 0.39237050 -6.24724820 0.03166974
v 0.29685738 -6.24724820 0.02951460
v 0.29685738 -6.41746624 0.02391968
v -1.76457799 -6.41746624 -0.05466273
v -1.74258919 -6.24724820 -0.04762261
v 0.19928279 -6.24724820 0.02725803
v 0.19928279 -6.41746624 0.02166311
v -1.71785216 -6.41746624 -0.05162864
v -1.65326077 -6.24724820 -0.04191782
v 0.10995379 -6.24724820 0.02512824
v 0.13469111 -6.41746624 0.02012493
v -1.65326077 -6.41746624 -0.04750429
v -1.55568589 -6.24724820 -0.03601865
v 0.10239541 -6.41746624 0.01933895
v 0.01237921 -6.24724820 0.02272800
v -1.55568589 -6.41746624 -0.04160511
v -1.45811160 -6.24724820 -0.03046599
v 0.00482054 -6.41746624 0.01693871
v -0.09275375 -6.24724820 0.02004042
v -0.05908394 -6.41746624 0.01531600
v -1.45811160 -6.41746624 -0.03605245
v -1.36053672 -6.24724820 -0.02525983
v -0.09206684 -6.41746624 0.01446241
v -0.19032863 -6.24724820 0.01745426
v -1.36053672 -6.41746624 -0.03084630
v -1.26296185 -6.24724820 -0.02041709
v -0.19307715 -6.41746624 0.01178326
v -0.27965763 -6.24724820 0.01501176
v -0.21300434 -6.41746624 0.01124236
v -1.26296185 -6.41746624 -0.02600357
v -1.16538756 -6.24724820 -0.01591244
v -0.29340027 -6.24724820 0.01462299
v -0.28996453 -6.41746624 0.00912103
v -1.16538756 -6.41746624 -0.02149890
v -1.06781268 -6.24724820 -0.01170357
v -0.38066766 -6.24724820 0.01212132
v -0.38547780 -6.41746624 0.00639117
v -1.06781268 -6.41746624 -0.01729849
v -0.97023839 -6.41746624 -0.01334316
v -0.97023839 -6.24724820 -0.00775670
v -0.40540498 -6.24724820 0.01139449
v -0.48305238 -6.41746624 0.00349231
v -0.93725549 -6.41746624 -0.01207543
v -0.86510514 -6.24724820 -0.00371687
v -0.48305238 -6.24724820 0.00907877
v -0.57994005 -6.24724820 0.00606157
v -0.58062697 -6.41746624 0.00044974
v -0.87266351 -6.41746624 -0.00960757
v -0.84036811 -6.41746624 -0.00841592
v -0.76753026 -6.24724820 -0.00020947
v -0.67820155 -6.24724820 0.00284154
v -0.67820155 -6.41746624 -0.00275338
v -0.77508922 -6.41746624 -0.00608329
v -0.74279323 -6.41746624 -0.00495923
f 1 2 3
f 1 3 4
f 1 4 5
f 1 5 10
f 1 10 6
f 1 6 11
f 1 11 16
f 1 16 20
f 1 20 24
f 1 24 28
f 1 28 33
f 1 33 37
f 1 37 42
f 1 42 46
f 1 46 51
f 1 51 55
f 1 55 61
f 1 61 62
f 1 62 57
f 1 57 56
f 1 56 52
f 1 52 47
f 1 47 43
f 1 43 39
f 1 39 35
f 1 35 30
f 1 30 26
f 1 26 21
f 1 21 17
f 1 17 13
f 1 13 12
f 1 12 7
f 1 7 8
f 1 8 2
f 2 8 7
f 2 7 12
f 2 12 9
f 2 9 14
f 2 14 18
f 2 18 22
f 2 22 25
f 2 25 29
f 2 29 31
f 2 31 34
f 2 34 38
f 2 38 40
f 2 40 44
f 2 44 48
f 2 48 53
f 2 53 58
f 2 58 63
f 2 63 65
f 2 65 64
f 2 64 60
f 2 60 59
f 2 59 54
f 2 54 50
f 2 50 49
f 2 49 45
f 2 45 41
f 2 41 36
f 2 36 32
f 2 32 27
f 2 27 23
f 2 23 19
f 2 19 15
f 2 15 10
f 2 10 5
f 2 5 4
f 2 4 3
f 6 10 15
f 6 15 11
f 9 12 13
f 9 13 14
f 11 15 16
f 13 17 18
f 13 18 14
f 15 19 16
f 16 19 20
f 17 21 22
f 17 22 18
f 19 23 20
f 20 23 27
f 20 27 24
f 21 25 22
f 21 26 29
f 21 29 25
f 24 27 32
f 24 32 28
f 26 30 31
f 26 31 29
f 28 32 36
f 28 36 33
f 30 34 31
f 30 35 34
f 33 36 41
f 33 41 37
f 34 35 38
f 35 39 40
f 35 40 38
f 37 41 45
f 37 45 42
f 39 43 44
f 39 44 40
f 42 45 46
f 43 47 48
f 43 48 44
f 45 49 46
f 46 49 50
f 46 50 51
f 47 52 48
f 48 52 53
f 50 54 51
f 51 54 55
f 52 56 53
f 53 56 57
f 53 57 58
f 54 59 55
f 55 59 60
f 55 60 61
f 57 62 58
f 58 62 63
f 60 64 61
f 61 64 65
f 61 65 62
f 62 65 63

