# https://github.com/mikedh/trimesh
v 0.97995284 -5.57385249 0.06929183
v 0.97995284 -5.57385249 0.03167341
v 0.97812296 -5.57385249 0.06925867
v 0.97995284 -6.32738087 0.04141774
v 0.97995284 -6.32738087 0.03167341
v -0.57776308 -5.57385249 0.03167341
v 0.88159487 -5.57385249 0.06740262
v 0.78415177 -5.57385249 0.06546554
v 0.68670881 -5.57385249 0.06349900
v 0.68670881 -6.32738087 0.03542605
v 0.51454423 -6.32738087 0.03167341
v -0.52423786 -5.61390401 0.03167341
v -0.48321743 -5.57385249 0.03462692
v 0.68564140 -5.57385249 0.06347689
v 0.58911331 -5.57385249 0.06147352
v 0.49060279 -5.57385249 0.05936705
v 0.58911331 -6.32738087 0.03333062
v 0.39315984 -5.57385249 0.05723478
v 0.29663175 -5.57385249 0.05505833
v 0.19934120 -5.57385249 0.05280454
v 0.10174569 -5.57385249 0.05047709
v 0.10083068 -5.57385249 0.05045501
v 0.00430274 -5.57385249 0.04807231
v 0.49167035 -6.31255513 0.03167341
v -0.48321743 -5.64451424 0.03167341
v -0.38562192 -5.71539725 0.03167341
v -0.38668919 -5.57385249 0.03749939
v -0.09314022 -5.57385249 0.04558652
v 0.39422725 -6.24860561 0.03167341
v -0.28817897 -5.78487884 0.03167341
v -0.19073572 -5.85310646 0.03167341
v -0.28924624 -5.57385249 0.04029454
v -0.19073572 -5.57385249 0.04300129
v 0.19934120 -6.11945246 0.03167341
v 0.29663175 -6.18413960 0.03167341
v 0.33948235 -6.21246331 0.03167341
v -0.09314022 -5.92103900 0.03167341
v 0.00430274 -5.98771772 0.03167341
v -0.28817897 -5.57385249 0.04032399
v 0.10174569 -6.05380644 0.03167341
f 1 2 6
f 1 6 13
f 1 13 27
f 1 27 32
f 1 32 39
f 1 39 33
f 1 33 28
f 1 28 23
f 1 23 22
f 1 22 21
f 1 21 20
f 1 20 19
f 1 19 18
f 1 18 16
f 1 16 15
f 1 15 14
f 1 14 9
f 1 9 8
f 1 8 7
f 1 7 3
f 1 3 4
f 1 4 5
f 1 5 2
f 2 5 11
f 2 11 24
f 2 24 29
f 2 29 36
f 2 36 35
f 2 35 34
f 2 34 40
f 2 40 38
f 2 38 37
f 2 37 31
f 2 31 30
f 2 30 26
f 2 26 25
f 2 25 12
f 2 12 6
f 3 7 4
f 4 7 8
f 4 8 9
f 4 9 10
f 4 10 17
f 4 17 11
f 4 11 5
f 6 12 13
f 9 14 10
f 10 14 15
f 10 15 16
f 10 16 17
f 11 17 18
f 11 18 19
f 11 19 20
f 11 20 21
f 11 21 22
f 11 22 23
f 11 23 24
f 12 25 13
f 13 25 26
f 13 26 27
f 16 18 17
f 23 28 24
f 24 28 29
f 26 30 27
f 27 30 31
f 27 31 32
f 28 33 34
f 28 34 35
f 28 35 36
f 28 36 29
f 31 37 32
f 32 37 38
f 32 38 39
f 33 38 40
f 33 40 34
f 33 39 38

