# https://github.com/mikedh/trimesh
v -1.11311702 -8.68715094 -0.13510661
v -1.06864285 -8.69099202 -0.13510661
v -1.11311702 -8.68475924 -0.12994211
v -1.11311702 -7.95640462 -0.13510661
v -0.97160553 -8.69606513 -0.13510661
v -0.97077188 -8.69577514 -0.13427388
v -1.06825697 -8.69062968 -0.13427388
v -0.95542732 -8.68990499 -0.12573257
v -0.95542732 -8.65461059 -0.08155158
v -0.97077188 -8.65395825 -0.08184954
v -1.11311702 -8.66294479 -0.10357714
v -1.11311702 -7.95640462 -0.06354456
v -0.95542732 -7.95640462 -0.13510661
v -0.97077188 -8.69606513 -0.13510661
v -0.95542732 -8.69671718 -0.13497674
v -0.95542732 -8.69642748 -0.13427388
v -0.95542732 -8.64475407 -0.08043616
v -1.06825697 -8.64881250 -0.08382060
v -1.11311702 -8.64620345 -0.08476794
v -1.11172780 -7.95640462 -0.06348344
v -1.11311702 -7.95778165 -0.06358276
v -0.95542732 -8.63547754 -0.13510661
v -0.95542732 -7.95640462 -0.05707365
v -0.95542732 -8.59532737 -0.07602036
v -1.11311702 -8.63337583 -0.08398868
v -1.06825697 -7.95640462 -0.06161169
v -1.11311702 -8.05525802 -0.06634073
v -0.97077188 -7.95640462 -0.05766191
v -0.95542732 -8.01039709 -0.05859396
v -0.97077188 -8.59532737 -0.07660862
v -0.95542732 -8.49785100 -0.07297208
v -1.06825697 -8.59532737 -0.08055840
v -1.11311702 -8.59112395 -0.08236140
v -1.01424271 -7.95640462 -0.05941906
v -1.06825697 -8.01039709 -0.06313965
v -0.97077188 -8.01039709 -0.05918223
v -1.11311702 -8.10787346 -0.06783813
v -1.06825697 -8.10787346 -0.06590526
v -0.95542732 -8.09258149 -0.06092410
v -0.97077188 -8.49785100 -0.07356034
v -0.95542732 -8.48248698 -0.07249841
v -1.06825697 -8.49785100 -0.07751012
v -1.11311702 -8.54017552 -0.08076468
v -0.97077188 -8.10787346 -0.06195548
v -1.11311702 -8.20542218 -0.07065721
v -1.06825697 -8.20542218 -0.06872434
v -0.95542732 -8.10787346 -0.06135958
v -0.97077188 -8.40030228 -0.07056554
v -0.95542732 -8.40030228 -0.06997727
v -1.11311702 -8.49785100 -0.07944300
v -1.06825697 -8.40030228 -0.07451532
v -0.97077188 -8.20542218 -0.06477457
v -1.11311702 -8.30289855 -0.07352214
v -1.06825697 -8.30289855 -0.07158927
v -0.95542732 -8.20542218 -0.06418631
v -0.97077188 -8.30289855 -0.06763949
v -0.95542732 -8.30289855 -0.06705123
v -1.11311702 -8.40030228 -0.07644819
f 1 2 3
f 1 3 11
f 1 11 19
f 1 19 25
f 1 25 33
f 1 33 43
f 1 43 50
f 1 50 58
f 1 58 53
f 1 53 45
f 1 45 37
f 1 37 27
f 1 27 21
f 1 21 12
f 1 12 4
f 1 4 13
f 1 13 22
f 1 22 14
f 1 14 5
f 1 5 2
f 2 5 6
f 2 6 7
f 2 7 3
f 3 7 8
f 3 8 9
f 3 9 10
f 3 10 11
f 4 12 20
f 4 20 26
f 4 26 34
f 4 34 28
f 4 28 23
f 4 23 13
f 5 14 15
f 5 15 6
f 6 15 16
f 6 16 8
f 6 8 7
f 8 16 15
f 8 15 22
f 8 22 13
f 8 13 23
f 8 23 29
f 8 29 39
f 8 39 47
f 8 47 55
f 8 55 57
f 8 57 49
f 8 49 41
f 8 41 31
f 8 31 24
f 8 24 17
f 8 17 9
f 9 17 10
f 10 17 18
f 10 18 11
f 11 18 19
f 12 21 20
f 14 22 15
f 17 19 18
f 17 24 19
f 19 24 25
f 20 21 27
f 20 27 26
f 23 28 36
f 23 36 29
f 24 30 25
f 24 31 40
f 24 40 30
f 25 30 32
f 25 32 33
f 26 27 35
f 26 35 36
f 26 36 34
f 27 37 38
f 27 38 35
f 28 34 36
f 29 36 39
f 30 40 42
f 30 42 32
f 31 41 40
f 32 42 43
f 32 43 33
f 35 38 36
f 36 38 44
f 36 44 39
f 37 45 46
f 37 46 38
f 38 46 52
f 38 52 44
f 39 44 47
f 40 41 48
f 40 48 51
f 40 51 42
f 41 49 48
f 42 50 43
f 42 51 58
f 42 58 50
f 44 52 47
f 45 53 54
f 45 54 46
f 46 54 56
f 46 56 52
f 47 52 55
f 48 49 57
f 48 57 56
f 48 56 54
f 48 54 51
f 51 54 53
f 51 53 58
f 52 56 57
f 52 57 55

