# https://github.com/mikedh/trimesh
v -2.04290009 -5.78869653 -0.94416100
v -2.04290009 -5.68139677 -0.94416100
v 2.65688555 -5.78869653 -0.94389978
v -2.13988946 -5.78869653 -0.94085240
v 2.64772118 -5.68139677 -0.94389978
v -2.13988946 -5.68139677 -0.94085240
v 5.55893065 -5.68139677 -0.94372565
v 5.55893065 -5.78869653 -0.94372565
v -2.21549501 -5.78869653 -0.90149753
v -2.21549501 -5.68139677 -0.90149753
v 5.55893065 -5.68139677 -0.05475831
v 5.55893065 -5.78869653 -0.05475831
v -2.24298841 -5.78869653 -0.81669303
v -2.23993333 -5.68139677 -0.82635762
v 2.59960838 -5.68139677 -0.05467125
v 2.59960838 -5.78869653 -0.05467125
v -2.24298841 -5.68139677 -0.81669303
v -2.24298841 -5.78869653 -0.23185522
v -2.14141671 -5.68139677 -0.05467125
v -2.08337598 -5.78869653 -0.05467125
v -2.24298841 -5.68139677 -0.23185522
v -2.23458795 -5.78869653 -0.15514804
v -2.23382433 -5.68139677 -0.13433871
v -2.20709455 -5.68139677 -0.07182368
v -2.20480368 -5.78869653 -0.07400040
v -2.15363587 -5.78869653 -0.06172378
v -2.13988946 -5.78869653 -0.05885052
v -2.13988946 -5.68612315 -0.05467125
v -2.23153287 -5.78869653 -0.13433871
v -2.21014963 -5.68139677 -0.07870208
f 1 2 3
f 1 3 8
f 1 8 12
f 1 12 16
f 1 16 20
f 1 20 27
f 1 27 26
f 1 26 25
f 1 25 29
f 1 29 22
f 1 22 18
f 1 18 13
f 1 13 9
f 1 9 4
f 1 4 6
f 1 6 2
f 2 5 3
f 2 6 10
f 2 10 14
f 2 14 17
f 2 17 21
f 2 21 23
f 2 23 30
f 2 30 24
f 2 24 19
f 2 19 15
f 2 15 11
f 2 11 7
f 2 7 5
f 3 5 7
f 3 7 8
f 4 9 10
f 4 10 6
f 7 11 12
f 7 12 8
f 9 13 14
f 9 14 10
f 11 15 16
f 11 16 12
f 13 17 14
f 13 18 21
f 13 21 17
f 15 19 28
f 15 28 20
f 15 20 16
f 18 22 23
f 18 23 21
f 19 24 25
f 19 25 26
f 19 26 27
f 19 27 28
f 20 28 27
f 22 29 23
f 23 29 30
f 24 30 25
f 25 30 29

