# https://github.com/mikedh/trimesh
v 2.24735937 -4.23786900 -0.94415970
v 2.24735937 -4.23786900 0.09749785
v 2.24735937 -4.09567844 -0.94415970
v 5.56783321 -4.23786900 -0.94405320
v 2.24735937 -4.09558095 0.09430289
v 3.19221226 -4.23786900 0.12859528
v 3.33424896 -4.09558095 0.13668910
v 3.23706599 -4.09558095 0.13328120
v 3.22211472 -4.09558095 0.13274872
v 2.24735937 -4.09558095 -0.90038899
v 2.32959114 -4.09558095 -0.94405320
v 5.56783321 -4.09558095 -0.94405320
v 5.56783321 -4.23786900 -0.25820568
v 3.22211472 -4.23786900 0.12955373
v 3.31929776 -4.23786900 0.13264215
v 3.41713081 -4.09558095 0.13924505
v 5.56783321 -4.09558095 -0.28940961
v 5.43782259 -4.09558095 -0.08099290
v 5.43099704 -4.09558095 -0.07023659
v 5.48852664 -4.23786900 -0.13381596
v 3.38722834 -4.23786900 0.13455913
v 3.43175700 -4.09558095 0.13967103
v 5.36664188 -4.09558095 -0.02870236
v 5.43912261 -4.23786900 -0.06618968
v 3.48441138 -4.23786900 0.13700859
v 3.51463885 -4.09558095 0.14190750
v 5.30358645 -4.09558095 0.00005210
v 5.36664188 -4.23786900 -0.02412297
v 3.51463885 -4.23786900 0.13775413
v 3.61182189 -4.09558095 0.14382448
v 5.29351056 -4.09558095 0.00452503
v 5.29416086 -4.23786900 0.00527053
v 3.58191942 -4.23786900 0.13881908
v 3.61182189 -4.20784031 0.14020358
v 3.70965494 -4.11037244 0.14318551
v 3.70965494 -4.09558095 0.14361149
v 5.27953459 -4.09558095 0.00878497
v 5.24475653 -4.09558095 0.01890227
v 5.24540684 -4.23786900 0.01858278
v 3.61182189 -4.23786900 0.13913856
v 3.67975247 -4.23786900 0.13892557
v 3.70965494 -4.20784031 0.13988402
v 3.80683798 -4.09558095 0.14212049
v 5.18332657 -4.09558095 0.03295999
v 5.17130035 -4.09558095 0.03562247
v 5.17130035 -4.23786900 0.03477048
v 3.70965494 -4.23786900 0.13881908
v 3.80683798 -4.20784031 0.13828660
v 3.90402101 -4.20784031 0.13658261
v 3.90402101 -4.11037244 0.13988402
v 3.90402101 -4.09558095 0.14031008
v 5.07411746 -4.09558095 0.05287515
v 5.07411746 -4.23786900 0.05138419
v 3.80683798 -4.23786900 0.13722158
v 3.90402101 -4.23786900 0.13551766
v 4.00152899 -4.20784031 0.13466563
v 4.01648026 -4.09558095 0.13818011
v 4.99123568 -4.09558095 0.06427043
v 4.97628456 -4.23786900 0.06437692
v 4.00152899 -4.23786900 0.13360068
v 4.06880963 -4.23786900 0.13221617
v 4.09903703 -4.20784031 0.13264215
v 4.09903703 -4.11037244 0.13594364
v 4.09903703 -4.09558095 0.13636962
v 4.97628456 -4.09558095 0.06618741
v 4.89372764 -4.09558095 0.07534622
v 4.87877651 -4.23786900 0.07492024
v 4.09903703 -4.23786900 0.13157721
v 4.19622007 -4.23786900 0.12870177
v 4.19622007 -4.20784031 0.12955373
v 4.19622007 -4.09558095 0.13242916
v 4.87877651 -4.09558095 0.07694372
v 4.78159333 -4.09558095 0.08599604
v 4.78159333 -4.23786900 0.08375957
v 4.29405311 -4.23786900 0.12188588
v 4.68376043 -4.23786900 0.09153395
v 4.69871155 -4.09558095 0.09270543
f 1 2 5
f 1 5 10
f 1 10 3
f 1 3 12
f 1 12 4
f 1 4 13
f 1 13 20
f 1 20 24
f 1 24 28
f 1 28 32
f 1 32 39
f 1 39 46
f 1 46 53
f 1 53 59
f 1 59 67
f 1 67 74
f 1 74 76
f 1 76 75
f 1 75 69
f 1 69 68
f 1 68 61
f 1 61 60
f 1 60 55
f 1 55 54
f 1 54 47
f 1 47 41
f 1 41 40
f 1 40 33
f 1 33 29
f 1 29 25
f 1 25 21
f 1 21 15
f 1 15 14
f 1 14 6
f 1 6 2
f 2 6 7
f 2 7 8
f 2 8 9
f 2 9 5
f 3 10 11
f 3 11 12
f 4 12 17
f 4 17 13
f 5 9 8
f 5 8 7
f 5 7 16
f 5 16 22
f 5 22 26
f 5 26 30
f 5 30 36
f 5 36 43
f 5 43 51
f 5 51 57
f 5 57 64
f 5 64 71
f 5 71 77
f 5 77 73
f 5 73 72
f 5 72 66
f 5 66 65
f 5 65 58
f 5 58 52
f 5 52 45
f 5 45 44
f 5 44 38
f 5 38 37
f 5 37 31
f 5 31 27
f 5 27 23
f 5 23 19
f 5 19 18
f 5 18 17
f 5 17 12
f 5 12 11
f 5 11 10
f 6 14 7
f 7 14 15
f 7 15 16
f 13 17 18
f 13 18 19
f 13 19 20
f 15 21 22
f 15 22 16
f 19 23 24
f 19 24 20
f 21 25 26
f 21 26 22
f 23 27 28
f 23 28 24
f 25 29 26
f 26 29 30
f 27 31 28
f 28 31 32
f 29 33 30
f 30 33 34
f 30 34 35
f 30 35 36
f 31 37 32
f 32 38 39
f 32 37 38
f 33 40 34
f 34 40 41
f 34 41 42
f 34 42 35
f 35 43 36
f 35 42 43
f 38 44 39
f 39 44 45
f 39 45 46
f 41 47 42
f 42 47 54
f 42 54 48
f 42 48 43
f 43 48 49
f 43 49 50
f 43 50 51
f 45 52 46
f 46 52 53
f 48 54 55
f 48 55 49
f 49 55 60
f 49 60 56
f 49 56 57
f 49 57 50
f 50 57 51
f 52 58 53
f 53 58 59
f 56 60 61
f 56 61 62
f 56 62 57
f 57 62 63
f 57 63 64
f 58 65 59
f 59 65 66
f 59 66 67
f 61 68 62
f 62 68 69
f 62 69 63
f 63 69 64
f 64 69 70
f 64 70 71
f 66 72 67
f 67 73 74
f 67 72 73
f 69 75 70
f 70 75 71
f 71 75 76
f 71 76 77
f 73 77 74
f 74 77 76

