# https://github.com/mikedh/trimesh
v -2.04245812 -6.79323710 -0.94416100
v -2.13990340 -6.79323710 -0.94089976
v -2.04245812 -6.64267195 -0.94416100
v 5.02665736 -6.79323710 -0.94403562
v -2.21612264 -6.79323710 -0.90157635
v -2.13990340 -6.64267195 -0.94089976
v 5.01797418 -6.64267195 -0.94403562
v 7.41358145 -6.64267195 -0.94397286
v 7.41358145 -6.79323710 -0.94397286
v -2.21612264 -6.64267195 -0.90157635
v -2.24313776 -6.79323710 -0.81665787
v 7.51102643 -6.64267195 -0.94077431
v 7.51102643 -6.79323710 -0.94077431
v -2.24313776 -6.64267195 -0.81665787
v -2.24313776 -6.79323710 -0.30344673
v 7.58628155 -6.64267195 -0.90145089
v 7.58628155 -6.79323710 -0.90145089
v -2.24313776 -6.64267195 -0.30344673
v 7.61329551 -6.79323710 -0.30344673
v 7.61329551 -6.64267195 -0.81659511
v 7.61329551 -6.79323710 -0.81659511
v 7.61329551 -6.64267195 -0.30344673
f 1 2 6
f 1 6 3
f 1 3 4
f 1 4 9
f 1 9 13
f 1 13 17
f 1 17 21
f 1 21 19
f 1 19 15
f 1 15 11
f 1 11 5
f 1 5 2
f 2 5 10
f 2 10 6
f 3 6 10
f 3 10 14
f 3 14 18
f 3 18 22
f 3 22 20
f 3 20 16
f 3 16 12
f 3 12 8
f 3 8 7
f 3 7 4
f 4 7 8
f 4 8 9
f 5 11 14
f 5 14 10
f 8 12 13
f 8 13 9
f 11 15 18
f 11 18 14
f 12 16 17
f 12 17 13
f 15 19 22
f 15 22 18
f 16 20 21
f 16 21 17
f 19 21 20
f 19 20 22

