# https://github.com/mikedh/trimesh
v 1.40655634 -6.76333020 0.03166974
v 1.40655634 -7.65148612 0.03166974
v 1.40655634 -6.76333020 -0.05466273
v 0.50003885 -6.76333020 0.03166974
v 1.40655634 -8.20378132 -0.00568606
v 1.35083497 -7.71775586 0.03166974
v 1.40655634 -8.20378132 -0.05466273
v -0.06423085 -6.76333020 -0.05466273
v -0.06423085 -6.76333020 0.00450648
v 0.49183191 -6.76770114 0.03166974
v 1.36912070 -8.20378132 -0.00628613
v 0.97921464 -7.97959203 0.03166974
v 0.88159414 -8.00483088 0.03166974
v 0.83782315 -8.01032997 0.03166974
v 0.78411748 -8.01611091 0.03166974
v 0.68664097 -8.01991799 0.03166974
v -0.06423085 -8.20378132 -0.05466273
v -0.06423085 -7.23046147 -0.00820463
v 0.22200761 -7.42546390 0.03166974
v 0.21567225 -7.32789222 0.03166974
v 0.22344740 -7.23046147 0.03166974
v 0.35994331 -6.93788765 0.03166974
v 0.39435540 -6.87570685 0.03166974
v 0.41710462 -6.84045690 0.03166974
v 0.68664097 -8.20378132 -0.01761120
v 0.67757001 -8.01893092 0.03166974
v -0.06322286 -8.20378132 -0.03615387
v 0.00588898 -8.20378132 -0.03439594
v 0.49341568 -8.20378132 -0.02208206
v 0.59103617 -8.20378132 -0.01964800
v -0.06423085 -8.20378132 -0.03618767
v -0.06423085 -7.39655918 -0.01283607
v -0.06423085 -7.49384872 -0.01561663
v -0.06423085 -7.78642282 -0.02405971
v 0.24187726 -7.49934780 0.03166974
v 0.59377192 -7.99115392 0.03166974
v 0.52595589 -7.95308425 0.03166974
v 0.48146515 -7.92305124 0.03166974
v 0.42804744 -7.88357143 0.03166974
v 0.37822920 -7.83210665 0.03166974
v 0.34496923 -7.78289760 0.03166974
v 0.31228504 -7.70816812 0.03166974
v 0.24907649 -7.52275372 0.03166974
f 1 2 5
f 1 5 7
f 1 7 3
f 1 3 8
f 1 8 9
f 1 9 4
f 1 4 10
f 1 10 24
f 1 24 23
f 1 23 22
f 1 22 21
f 1 21 20
f 1 20 19
f 1 19 35
f 1 35 43
f 1 43 42
f 1 42 41
f 1 41 40
f 1 40 39
f 1 39 38
f 1 38 37
f 1 37 36
f 1 36 26
f 1 26 16
f 1 16 15
f 1 15 14
f 1 14 13
f 1 13 12
f 1 12 6
f 1 6 2
f 2 6 5
f 3 7 17
f 3 17 8
f 4 9 10
f 5 11 25
f 5 25 30
f 5 30 29
f 5 29 28
f 5 28 27
f 5 27 31
f 5 31 17
f 5 17 7
f 5 6 12
f 5 12 13
f 5 13 14
f 5 14 15
f 5 15 16
f 5 16 11
f 8 17 31
f 8 31 34
f 8 34 33
f 8 33 32
f 8 32 18
f 8 18 9
f 9 18 19
f 9 19 20
f 9 20 21
f 9 21 22
f 9 22 23
f 9 23 24
f 9 24 10
f 11 16 25
f 16 26 27
f 16 27 28
f 16 28 29
f 16 29 30
f 16 30 25
f 18 32 19
f 19 32 33
f 19 33 34
f 19 34 31
f 19 31 35
f 26 36 31
f 26 31 27
f 31 36 37
f 31 37 38
f 31 38 39
f 31 39 40
f 31 40 41
f 31 41 42
f 31 42 43
f 31 43 35

