# https://github.com/mikedh/trimesh
v 5.75864530 -5.27843825 0.03427825
v 5.75864530 -5.28032770 0.03427825
v 5.75864530 -5.18095266 0.03340257
v 5.37276424 -5.18284211 0.04984604
v 5.37276424 -5.28032770 0.04926228
v 5.75860752 -5.28283898 0.03418094
v 5.75864530 -5.28283898 -0.93793156
v 5.75864530 -5.12996163 0.03106738
v 5.75758761 -5.12996163 0.03116469
v 5.38802425 -5.03852699 0.04430003
v 5.38802425 -5.08535644 0.04614869
v 5.37276424 -5.12996163 0.04828926
v 5.37276424 -5.28269551 0.04916497
v 5.46179338 -5.28283898 0.04546762
v 5.75864530 -5.28283898 -0.94396407
v 5.75864530 -5.12996163 -0.94396407
v 5.75860752 -5.03852699 0.02629974
v 5.75860752 -5.08346699 0.02892681
v 5.75860752 -5.08535644 0.02902411
v 5.75668102 -5.08535644 0.02912142
v 5.38802425 -5.03852699 -0.94415868
v 5.37276424 -5.12996163 -0.94415868
v 5.46107566 -5.28283898 0.04546762
v 5.37276424 -5.28283898 -0.91399608
v 5.56426934 -5.28283898 -0.94415868
v 5.75860752 -5.12993769 -0.94406141
v 5.75860752 -5.03852699 -0.94406141
v 5.52819707 -5.03852699 -0.94415868
v 5.37276424 -5.28283898 -0.94415868
v 5.56177652 -5.12996163 -0.94415868
f 1 2 7
f 1 7 15
f 1 15 16
f 1 16 8
f 1 8 3
f 1 3 4
f 1 4 2
f 2 4 5
f 2 5 6
f 2 6 7
f 3 8 9
f 3 9 10
f 3 10 11
f 3 11 12
f 3 12 4
f 4 12 22
f 4 22 29
f 4 29 24
f 4 24 13
f 4 13 5
f 5 13 6
f 6 13 14
f 6 14 23
f 6 23 24
f 6 24 29
f 6 29 25
f 6 25 15
f 6 15 7
f 8 16 27
f 8 27 17
f 8 17 18
f 8 18 19
f 8 19 9
f 9 19 20
f 9 20 10
f 10 12 11
f 10 20 18
f 10 18 17
f 10 17 27
f 10 27 28
f 10 28 21
f 10 21 22
f 10 22 12
f 13 23 14
f 13 24 23
f 15 25 26
f 15 26 27
f 15 27 16
f 18 20 19
f 21 28 30
f 21 30 25
f 21 25 29
f 21 29 22
f 25 30 27
f 25 27 26
f 27 30 28

