# https://github.com/mikedh/trimesh
v 0.50380191 -2.19185440 -0.94416020
v 0.50380191 -2.12833638 -0.94416020
v 0.58929521 -2.19185440 -0.94416020
v 0.50380191 -2.19185440 0.13607178
v 0.50380191 -2.12833638 0.13531622
v 0.58929521 -2.12833638 -0.94416020
v 2.05789511 -2.19185440 -0.94405226
v 0.58929521 -2.19185440 0.13790668
v 0.50380191 -2.16035647 0.13574794
v 0.52388222 -2.12833638 0.13574794
v 2.05789511 -2.12833638 -0.94405226
v 2.05789511 -2.19185440 0.08361447
v 0.58929521 -2.12833638 0.13715112
v 0.78431754 -2.19185440 0.14190038
v 2.05789511 -2.12833638 0.06990649
v 2.04542097 -2.19185440 0.09203352
v 0.78431754 -2.12833638 0.14114482
v 0.88182864 -2.19185440 0.14384322
v 0.81626353 -2.12833638 0.14179243
v 1.97148898 -2.12833638 0.12203996
v 2.00830286 -2.19185440 0.11372884
v 0.88182864 -2.12833638 0.14308766
v 1.07685097 -2.19185440 0.14751308
v 0.97933987 -2.16035647 0.14535434
v 1.95551598 -2.12833638 0.13110670
v 1.95840638 -2.19185440 0.13661145
v 1.01128572 -2.12833638 0.14557024
v 1.14287256 -2.19185440 0.14870036
v 1.07685097 -2.16035647 0.14718924
v 1.85663578 -2.12833638 0.15701154
v 1.85663578 -2.19185440 0.15852266
v 1.20630806 -2.12833638 0.14913215
v 1.24038365 -2.19185440 0.15042738
v 1.27187316 -2.16035647 0.15064320
v 1.75912469 -2.12833638 0.15765915
v 1.75912469 -2.19185440 0.15841471
v 1.30366703 -2.12833638 0.15075115
v 1.27187316 -2.19185440 0.15096705
v 1.46659126 -2.16035647 0.15388134
v 1.66161352 -2.12833638 0.15636392
v 1.72763504 -2.19185440 0.15798292
v 1.40117813 -2.12833638 0.15237022
v 1.46659126 -2.19185440 0.15420519
v 1.46659126 -2.12833638 0.15344963
v 1.56410235 -2.19185440 0.15571624
v 1.56410235 -2.12833638 0.15496068
f 1 2 6
f 1 6 3
f 1 3 7
f 1 7 12
f 1 12 16
f 1 16 21
f 1 21 26
f 1 26 31
f 1 31 36
f 1 36 41
f 1 41 45
f 1 45 43
f 1 43 38
f 1 38 33
f 1 33 28
f 1 28 23
f 1 23 18
f 1 18 14
f 1 14 8
f 1 8 4
f 1 4 9
f 1 9 5
f 1 5 2
f 2 5 10
f 2 10 13
f 2 13 17
f 2 17 19
f 2 19 22
f 2 22 27
f 2 27 32
f 2 32 37
f 2 37 42
f 2 42 44
f 2 44 46
f 2 46 40
f 2 40 35
f 2 35 30
f 2 30 25
f 2 25 20
f 2 20 15
f 2 15 11
f 2 11 6
f 3 6 11
f 3 11 7
f 4 8 9
f 5 9 10
f 7 11 15
f 7 15 12
f 8 13 9
f 8 14 17
f 8 17 13
f 9 13 10
f 12 15 16
f 14 18 19
f 14 19 17
f 15 20 16
f 16 20 21
f 18 22 19
f 18 23 29
f 18 29 24
f 18 24 22
f 20 25 21
f 21 25 26
f 22 24 27
f 23 28 29
f 24 29 27
f 25 30 26
f 26 30 31
f 27 29 32
f 28 33 34
f 28 34 29
f 29 34 32
f 30 35 31
f 31 35 36
f 32 34 39
f 32 39 37
f 33 38 34
f 34 38 43
f 34 43 39
f 35 40 36
f 36 40 41
f 37 39 42
f 39 44 42
f 39 43 45
f 39 45 46
f 39 46 44
f 40 46 45
f 40 45 41

