# https://github.com/mikedh/trimesh
v 3.90297546 -8.20378132 -0.00407002
v 3.90297546 -8.20663387 -0.00415354
v 3.90297546 -8.20378132 -0.05466523
v 3.80666545 -8.20378132 -0.00235808
v 3.90297546 -8.30414395 -0.00702271
v 3.90297546 -8.68614963 -0.05466523
v -0.06437469 -8.20378132 -0.05466523
v 3.71074379 -8.20378132 -0.00083103
v 3.70919039 -8.20539777 -0.00084892
v 3.70919039 -8.30286020 -0.00371808
v 3.80666545 -8.30286020 -0.00527495
v 3.90297546 -8.40037027 -0.00990977
v 3.80666545 -8.40037027 -0.00819781
v 3.90297546 -8.68458054 -0.05156939
v 3.80666545 -8.68472321 -0.05066271
v 3.80200525 -8.68676768 -0.05466523
v -0.06437469 -8.62353588 -0.05466523
v -0.06437469 -8.20378132 -0.03618564
v 3.70919039 -8.20378132 -0.00080716
v 3.61171532 -8.20378132 0.00063039
v 3.61171532 -8.30286020 -0.00228053
v 3.70919039 -8.40037027 -0.00664094
v 3.90297546 -8.49783299 -0.01290421
v 3.80666545 -8.49783299 -0.01119225
v 3.90297546 -8.59534307 -0.01596425
v 3.80666545 -8.59534307 -0.01425231
v 3.70919039 -8.59534307 -0.01268946
v 3.61171532 -8.59534307 -0.01125786
v 3.51385206 -8.59534307 -0.01001118
v 3.41637699 -8.59534307 -0.00893748
v 3.70919039 -8.68491354 -0.04988129
v 3.31890193 -8.59534307 -0.00800096
v 3.70336528 -8.68729071 -0.05466523
v -0.03330695 -8.62691146 -0.05466523
v -0.06437469 -8.61298141 -0.05219572
v -0.06320949 -8.20378132 -0.03615581
v -0.06437469 -8.30286020 -0.03909656
v 3.51579381 -8.20378132 0.00186516
v 3.51385206 -8.30286020 -0.00102787
v 3.61171532 -8.40037027 -0.00520338
v 3.70919039 -8.49783299 -0.00963538
v 3.61171532 -8.49783299 -0.00819781
v 3.51385206 -8.49783299 -0.00694517
v 3.41637699 -8.49783299 -0.00588340
v 3.31890193 -8.49783299 -0.00494092
v 3.61171532 -8.68500855 -0.04917145
v 3.51385206 -8.68515122 -0.04854513
v 3.61171532 -8.68771843 -0.05466523
v 3.22142701 -8.59534307 -0.00723149
v 3.22142701 -8.49783299 -0.00416548
v 0.05601276 -8.63447071 -0.05466523
v 0.39426285 -8.59534307 -0.03714600
v 0.29678779 -8.59534307 -0.03933515
v 0.19931272 -8.59534307 -0.04158992
v 0.10183781 -8.59534307 -0.04392224
v 0.00436260 -8.59534307 -0.04632615
v -0.06437469 -8.59534307 -0.04807389
v 0.00436260 -8.30286020 -0.03734284
v 0.00436260 -8.20539777 -0.03447964
v 0.00591600 -8.20378132 -0.03439613
v -0.06437469 -8.37151205 -0.04115448
v 3.41637699 -8.20378132 0.00295079
v 3.41637699 -8.30286020 0.00003986
v 3.51385206 -8.40037027 -0.00395670
v 3.41637699 -8.40037027 -0.00288895
v 3.31890193 -8.40037027 -0.00194648
v 3.12395195 -8.59534307 -0.00662305
v 3.41637699 -8.68524624 -0.04800232
v 3.50725010 -8.68814645 -0.05466523
v 3.22142701 -8.40037027 -0.00117103
v 3.12395195 -8.40037027 -0.00056857
v 3.12395195 -8.49783299 -0.00356897
v 0.14610916 -8.64122158 -0.05466523
v 0.68707624 -8.59534307 -0.03091853
v 0.58960118 -8.59534307 -0.03293470
v 0.49212626 -8.59534307 -0.03501649
v 0.59115458 -8.20378132 -0.01965659
v 0.10183781 -8.49783299 -0.04086816
v 0.00436260 -8.49783299 -0.04326609
v -0.06437469 -8.56643719 -0.04716721
v 0.00436260 -8.40037027 -0.04027166
v 0.49329117 -8.20378132 -0.02208435
v -0.06437469 -8.40037027 -0.04202537
v 3.31890193 -8.20378132 0.00389922
v 3.31890193 -8.30286020 0.00098233
v 3.02647689 -8.49783299 -0.00307984
v 3.02647689 -8.59534307 -0.00613988
v 3.31890193 -8.68529390 -0.04753704
v 3.22142701 -8.68538891 -0.04715528
v 3.31890193 -8.68876449 -0.05466523
v 3.40899834 -8.68847915 -0.05466523
v 3.22142701 -8.30286020 0.00175778
v 3.12395195 -8.30286020 0.00236024
v 3.02647689 -8.40037027 -0.00008540
v 0.23698227 -8.64730704 -0.05466523
v 0.88202622 -8.59534307 -0.02701144
v 0.78455131 -8.59534307 -0.02895007
v 0.68707624 -8.20378132 -0.01762253
v -0.06437469 -8.46892682 -0.04413102
v -0.06437469 -8.49783299 -0.04501981
v 3.22298027 -8.20378132 0.00465678
v 3.22142701 -8.20539777 0.00462696
v 2.92900190 -8.49783299 -0.00276370
v 3.12395195 -8.68543657 -0.04685107
v 2.92900190 -8.59534307 -0.00582374
v 3.12395195 -8.68914485 -0.05466523
v 3.12395195 -8.20378132 0.00527118
v 3.02803029 -8.20378132 0.00574837
v 3.02647689 -8.30286020 0.00284341
v 2.92900190 -8.40037027 0.00023074
v 0.32902057 -8.65282211 -0.05466523
v 1.07697635 -8.59534307 -0.02330121
v 0.97950143 -8.59534307 -0.02513247
v 1.17445141 -8.59534307 -0.02152961
v 1.27192648 -8.59534307 -0.01981764
v 1.27192648 -8.49783299 -0.01675760
v 1.27192648 -8.40037027 -0.01376316
v 1.36940139 -8.40037027 -0.01212279
v 1.36940139 -8.30286020 -0.00919396
v 1.36940139 -8.20378132 -0.00628304
v 3.22142701 -8.20378132 0.00466871
v 2.83152683 -8.49783299 -0.00260861
v 2.83152683 -8.59534307 -0.00566269
v 3.02647689 -8.68543657 -0.04661246
v 2.92900190 -8.68548393 -0.04645141
v 3.02647689 -8.68928724 -0.05466523
v 3.02647689 -8.20378132 0.00575435
v 2.92900190 -8.30286020 0.00315957
v 2.83152683 -8.40037027 0.00038584
v 0.42105873 -8.65776650 -0.05466523
v 1.36940139 -8.59534307 -0.01817727
v 1.36940139 -8.49783299 -0.01511723
v 1.46687646 -8.40037027 -0.01055996
v 1.46687646 -8.30286020 -0.00763114
v 1.46687646 -8.20378132 -0.00472021
v 2.73405184 -8.49783299 -0.00256685
v 2.83152683 -8.68548393 -0.04636790
v 2.73405184 -8.59534307 -0.00562689
v 2.73405184 -8.68947756 -0.05466523
v 2.92900190 -8.68938254 -0.05466523
v 2.92900190 -8.20378132 0.00607049
v 2.83152683 -8.20539777 0.00617786
v 2.83152683 -8.30286020 0.00330869
v 2.73405184 -8.40037027 0.00042759
v 0.51387359 -8.66228316 -0.05466523
v 1.46687646 -8.59534307 -0.01662040
v 1.46687646 -8.49783299 -0.01356036
v 1.56435152 -8.40037027 -0.00908064
v 1.56435152 -8.30286020 -0.00615181
v 1.46842986 -8.20378132 -0.00469635
v 2.63657678 -8.49783299 -0.00268018
v 2.73405184 -8.68548393 -0.04635000
v 2.63657678 -8.59534307 -0.00574619
v 2.63657678 -8.68548393 -0.04640965
v 2.62725644 -8.68942991 -0.05466523
v 2.83308023 -8.20378132 0.00621961
v 2.73405184 -8.20378132 0.00626734
v 2.73405184 -8.30286020 0.00335044
v 2.63657678 -8.40037027 0.00031425
v 0.60746515 -8.66637180 -0.05466523
v 1.56435152 -8.59534307 -0.01514108
v 1.56435152 -8.49783299 -0.01208104
v 1.66182651 -8.49783299 -0.01068522
v 1.66182651 -8.40037027 -0.00769079
v 1.66182651 -8.30286020 -0.00476794
v 1.66182651 -8.20539777 -0.00189875
v 1.56590492 -8.20378132 -0.00321703
v 2.53910179 -8.40037027 0.00005776
v 2.53910179 -8.49783299 -0.00294264
v 2.53910179 -8.59534307 -0.00600269
v 2.44162673 -8.68543657 -0.04672580
v 2.53910179 -8.68548393 -0.04654088
v 2.43269474 -8.68923987 -0.05466523
v 2.63657678 -8.20378132 0.00614804
v 2.63657678 -8.20539777 0.00610627
v 2.63657678 -8.30286020 0.00323712
v 0.70105671 -8.67012775 -0.05466523
v 1.66182651 -8.59534307 -0.01375123
v 1.75930150 -8.59534307 -0.01244491
v 1.75930150 -8.49783299 -0.00938485
v 1.75930150 -8.40037027 -0.00639041
v 1.75930150 -8.30286020 -0.00346756
v 1.66337991 -8.20378132 -0.00183316
v 1.75930150 -8.20539777 -0.00059839
v 2.53910179 -8.30286020 0.00298061
v 2.44162673 -8.30286020 0.00260481
v 2.44162673 -8.40037027 -0.00032400
v 2.44162673 -8.49783299 -0.00331844
v 2.44162673 -8.59534307 -0.00637848
v 2.24667667 -8.68534126 -0.04730441
v 2.34415170 -8.68538891 -0.04698230
v 2.34415170 -8.68909720 -0.05466523
v 2.54065512 -8.20378132 0.00589749
v 2.53910179 -8.20539777 0.00584978
v 0.79503662 -8.67355069 -0.05466523
v 1.85677656 -8.59534307 -0.01124593
v 0.88901653 -8.67673624 -0.05466523
v 1.85677656 -8.49783299 -0.00819185
v 1.85677656 -8.40037027 -0.00519741
v 1.85677656 -8.30286020 -0.00227456
v 1.75930150 -8.20378132 -0.00055664
v 1.85677656 -8.20539777 0.00059461
v 2.44162673 -8.20378132 0.00551573
v 2.34415170 -8.20539777 0.00494906
v 2.34415170 -8.30286020 0.00207989
v 2.34415170 -8.40037027 -0.00084296
v 2.34415170 -8.49783299 -0.00383738
v 2.34415170 -8.59534307 -0.00689148
v 2.05172662 -8.68519859 -0.04811565
v 2.14920165 -8.68529390 -0.04768020
v 2.14104636 -8.68866948 -0.05466523
v 2.24667667 -8.68890717 -0.05466523
v 2.53910179 -8.20378132 0.00589153
v 1.95386328 -8.59534307 -0.01014837
v 0.98377314 -8.67963616 -0.05466523
v 1.07852975 -8.68239369 -0.05466523
v 1.95386328 -8.49783299 -0.00709428
v 1.95386328 -8.40037027 -0.00409986
v 1.95386328 -8.30286020 -0.00117701
v 1.95386328 -8.20378132 0.00173989
v 1.85677656 -8.20378132 0.00063636
v 1.85832997 -8.20378132 0.00065425
v 2.34570510 -8.20378132 0.00500275
v 2.24823007 -8.20378132 0.00437642
v 2.24667667 -8.30286020 0.00145356
v 2.24667667 -8.40037027 -0.00146929
v 2.24667667 -8.49783299 -0.00446371
v 2.24667667 -8.59534307 -0.00752377
v 1.85677656 -8.68500855 -0.04915952
v 1.95386328 -8.68510357 -0.04861074
v 2.04395968 -8.68838414 -0.05466523
v 1.95386328 -8.68809879 -0.05466523
v 1.13445162 -8.68386747 -0.05466523
v 2.05172662 -8.59534307 -0.00916414
v 2.05172662 -8.49783299 -0.00611006
v 2.05172662 -8.40037027 -0.00311562
v 2.05172662 -8.30286020 -0.00019277
v 2.05172662 -8.20378132 0.00271815
v 2.24667667 -8.20378132 0.00436450
v 2.14920165 -8.30286020 0.00069602
v 2.14920165 -8.40037027 -0.00223280
v 2.14920165 -8.49783299 -0.00522725
v 2.14920165 -8.59534307 -0.00828133
v 1.56435152 -8.68467585 -0.05111008
v 1.66182651 -8.68477086 -0.05041814
v 1.75930150 -8.68491354 -0.04976199
v 1.75386467 -8.68733807 -0.05466523
v 1.85056303 -8.68771843 -0.05466523
v 1.17445141 -8.68415282 -0.05466523
v 1.17445141 -8.68396249 -0.05430733
v 1.27192648 -8.68415282 -0.05344837
v 1.36940139 -8.68434285 -0.05262519
v 2.14920165 -8.20378132 0.00360694
v 1.46687646 -8.68448552 -0.05184378
v 1.36707129 -8.68538891 -0.05466523
v 1.46687646 -8.68595931 -0.05466523
v 1.56007967 -8.68643497 -0.05466523
v 1.65716638 -8.68691035 -0.05466523
v 1.27037308 -8.68477086 -0.05466523
f 1 2 5
f 1 5 12
f 1 12 23
f 1 23 25
f 1 25 14
f 1 14 6
f 1 6 3
f 1 3 7
f 1 7 18
f 1 18 36
f 1 36 60
f 1 60 82
f 1 82 77
f 1 77 98
f 1 98 120
f 1 120 135
f 1 135 150
f 1 150 167
f 1 167 183
f 1 183 201
f 1 201 221
f 1 221 222
f 1 222 220
f 1 220 238
f 1 238 253
f 1 253 239
f 1 239 224
f 1 224 223
f 1 223 203
f 1 203 213
f 1 213 193
f 1 193 174
f 1 174 157
f 1 157 156
f 1 156 141
f 1 141 127
f 1 127 108
f 1 108 107
f 1 107 121
f 1 121 101
f 1 101 84
f 1 84 62
f 1 62 38
f 1 38 20
f 1 20 19
f 1 19 8
f 1 8 4
f 1 4 2
f 2 4 5
f 3 6 16
f 3 16 33
f 3 33 48
f 3 48 69
f 3 69 91
f 3 91 90
f 3 90 106
f 3 106 126
f 3 126 140
f 3 140 139
f 3 139 155
f 3 155 173
f 3 173 192
f 3 192 212
f 3 212 211
f 3 211 231
f 3 231 232
f 3 232 248
f 3 248 247
f 3 247 258
f 3 258 257
f 3 257 256
f 3 256 255
f 3 255 259
f 3 259 249
f 3 249 233
f 3 233 216
f 3 216 215
f 3 215 197
f 3 197 195
f 3 195 177
f 3 177 160
f 3 160 145
f 3 145 130
f 3 130 111
f 3 111 95
f 3 95 73
f 3 73 51
f 3 51 34
f 3 34 17
f 3 17 7
f 4 8 9
f 4 9 10
f 4 10 11
f 4 11 5
f 5 11 13
f 5 13 12
f 6 14 15
f 6 15 16
f 7 17 35
f 7 35 57
f 7 57 80
f 7 80 100
f 7 100 99
f 7 99 83
f 7 83 61
f 7 61 37
f 7 37 18
f 8 19 9
f 9 19 20
f 9 20 21
f 9 21 10
f 10 21 40
f 10 40 22
f 10 22 13
f 10 13 11
f 12 13 24
f 12 24 23
f 13 22 41
f 13 41 24
f 14 25 26
f 14 26 27
f 14 27 28
f 14 28 29
f 14 29 30
f 14 30 15
f 15 31 16
f 15 30 32
f 15 32 31
f 16 31 33
f 17 34 35
f 18 37 36
f 20 38 21
f 21 38 39
f 21 39 40
f 22 40 42
f 22 42 41
f 23 24 26
f 23 26 25
f 24 41 27
f 24 27 26
f 27 41 42
f 27 42 28
f 28 42 43
f 28 43 29
f 29 43 30
f 30 44 45
f 30 45 32
f 30 43 44
f 31 46 47
f 31 47 48
f 31 48 33
f 31 32 49
f 31 49 46
f 32 45 50
f 32 50 49
f 34 51 52
f 34 52 53
f 34 53 54
f 34 54 55
f 34 55 56
f 34 56 35
f 35 56 57
f 36 37 58
f 36 58 59
f 36 59 60
f 37 61 58
f 38 62 63
f 38 63 39
f 39 64 40
f 39 63 65
f 39 65 64
f 40 64 43
f 40 43 42
f 43 64 65
f 43 65 44
f 44 65 66
f 44 66 45
f 45 66 70
f 45 70 50
f 46 49 47
f 47 49 67
f 47 67 68
f 47 68 69
f 47 69 48
f 49 50 67
f 50 70 71
f 50 71 72
f 50 72 67
f 51 73 74
f 51 74 75
f 51 75 76
f 51 76 52
f 52 76 77
f 52 77 53
f 53 77 54
f 54 77 55
f 55 78 79
f 55 79 56
f 55 77 78
f 56 79 57
f 57 79 80
f 58 61 81
f 58 81 82
f 58 82 59
f 59 82 60
f 61 83 81
f 62 84 63
f 63 84 85
f 63 85 66
f 63 66 65
f 66 85 92
f 66 92 70
f 67 72 86
f 67 86 87
f 67 87 88
f 67 88 68
f 68 88 89
f 68 89 90
f 68 90 91
f 68 91 69
f 70 92 93
f 70 93 71
f 71 93 109
f 71 109 94
f 71 94 86
f 71 86 72
f 73 95 96
f 73 96 97
f 73 97 74
f 74 97 98
f 74 98 75
f 75 98 77
f 75 77 76
f 77 82 79
f 77 79 78
f 79 81 99
f 79 99 100
f 79 100 80
f 79 82 81
f 81 83 99
f 84 101 102
f 84 102 92
f 84 92 85
f 86 94 110
f 86 110 103
f 86 103 105
f 86 105 87
f 87 104 89
f 87 89 88
f 87 105 104
f 89 104 90
f 90 104 106
f 92 102 93
f 93 107 108
f 93 108 109
f 93 102 107
f 94 109 128
f 94 128 110
f 95 111 112
f 95 112 113
f 95 113 96
f 96 113 98
f 96 98 97
f 98 113 112
f 98 112 114
f 98 114 115
f 98 115 116
f 98 116 117
f 98 117 118
f 98 118 119
f 98 119 120
f 101 121 102
f 102 121 107
f 103 110 129
f 103 129 122
f 103 122 123
f 103 123 105
f 104 105 124
f 104 124 125
f 104 125 126
f 104 126 106
f 105 123 125
f 105 125 124
f 108 127 109
f 109 127 141
f 109 141 128
f 110 128 129
f 111 130 115
f 111 115 114
f 111 114 112
f 115 131 132
f 115 132 116
f 115 130 131
f 116 132 118
f 116 118 117
f 118 132 133
f 118 133 134
f 118 134 119
f 119 134 135
f 119 135 120
f 122 129 144
f 122 144 136
f 122 136 123
f 123 137 125
f 123 136 138
f 123 138 137
f 125 137 139
f 125 139 140
f 125 140 126
f 128 141 142
f 128 142 143
f 128 143 129
f 129 143 158
f 129 158 144
f 130 145 131
f 131 146 147
f 131 147 132
f 131 145 146
f 132 147 133
f 133 147 162
f 133 162 148
f 133 148 149
f 133 149 134
f 134 149 167
f 134 167 150
f 134 150 135
f 136 151 138
f 136 144 159
f 136 159 151
f 137 138 152
f 137 152 139
f 138 151 153
f 138 153 154
f 138 154 152
f 139 152 154
f 139 154 155
f 141 156 142
f 142 157 143
f 142 156 157
f 143 157 158
f 144 158 176
f 144 176 159
f 145 160 146
f 146 161 162
f 146 162 147
f 146 160 161
f 148 162 163
f 148 163 164
f 148 164 149
f 149 164 165
f 149 165 166
f 149 166 167
f 151 159 168
f 151 168 169
f 151 169 170
f 151 170 153
f 153 170 171
f 153 171 172
f 153 172 154
f 154 172 155
f 155 172 173
f 157 174 175
f 157 175 176
f 157 176 158
f 159 176 185
f 159 185 168
f 160 177 161
f 161 178 163
f 161 163 162
f 161 177 178
f 163 178 179
f 163 179 180
f 163 180 181
f 163 181 164
f 164 181 182
f 164 182 165
f 165 182 184
f 165 184 166
f 166 183 167
f 166 184 183
f 168 185 186
f 168 186 187
f 168 187 188
f 168 188 169
f 169 188 189
f 169 189 170
f 170 189 190
f 170 190 191
f 170 191 171
f 171 191 192
f 171 192 173
f 171 173 172
f 174 193 175
f 175 193 194
f 175 194 185
f 175 185 176
f 177 195 178
f 178 195 179
f 179 196 180
f 179 195 197
f 179 197 196
f 180 196 198
f 180 198 199
f 180 199 181
f 181 199 200
f 181 200 182
f 182 200 202
f 182 202 184
f 183 184 201
f 184 202 221
f 184 221 201
f 185 194 186
f 186 203 204
f 186 204 205
f 186 205 206
f 186 206 187
f 186 194 203
f 187 206 207
f 187 207 188
f 188 207 208
f 188 208 189
f 189 208 209
f 189 209 210
f 189 210 190
f 190 210 211
f 190 211 212
f 190 212 191
f 191 212 192
f 193 213 194
f 194 213 203
f 196 214 217
f 196 217 198
f 196 197 215
f 196 215 216
f 196 216 214
f 198 217 218
f 198 218 199
f 199 218 219
f 199 219 200
f 200 219 220
f 200 220 202
f 202 220 222
f 202 222 221
f 203 223 204
f 204 224 225
f 204 225 205
f 204 223 224
f 205 225 226
f 205 226 206
f 206 226 227
f 206 227 207
f 207 227 208
f 208 227 228
f 208 228 229
f 208 229 230
f 208 230 209
f 209 231 210
f 209 230 232
f 209 232 231
f 210 231 211
f 214 216 233
f 214 233 234
f 214 234 235
f 214 235 217
f 217 235 236
f 217 236 218
f 218 236 237
f 218 237 219
f 219 237 220
f 220 237 238
f 224 239 225
f 225 239 253
f 225 253 240
f 225 240 226
f 226 240 241
f 226 241 242
f 226 242 227
f 227 242 243
f 227 243 228
f 228 243 244
f 228 244 245
f 228 245 246
f 228 246 229
f 229 246 247
f 229 247 248
f 229 248 230
f 230 248 232
f 233 249 250
f 233 250 234
f 234 243 242
f 234 242 235
f 234 250 251
f 234 251 252
f 234 252 243
f 235 242 241
f 235 241 236
f 236 241 240
f 236 240 237
f 237 240 253
f 237 253 238
f 243 252 254
f 243 254 244
f 244 254 252
f 244 252 255
f 244 255 256
f 244 256 257
f 244 257 258
f 244 258 246
f 244 246 245
f 246 258 247
f 249 259 251
f 249 251 250
f 251 259 255
f 251 255 252

