# https://github.com/mikedh/trimesh
v 1.70685416 -5.28286288 -0.94415984
v 1.70685416 -5.13013840 -0.94415984
v 1.76212035 -5.28286288 -0.94415984
v 1.70685416 -5.28286288 -0.16730149
v 1.70685416 -5.12995876 -0.92058641
v 1.75960820 -5.12995876 -0.94415984
v 4.49959214 -5.28286288 -0.94408378
v 4.53368489 -5.12995876 -0.94408378
v 1.70685416 -5.12995876 -0.16730149
v 5.36770247 -5.28286288 -0.16730149
v 5.37236761 -5.28286288 -0.94400773
v 5.37236761 -5.12995876 -0.94400773
v 5.37236761 -5.12995876 -0.16730149
v 5.37236761 -5.28286288 -0.91404664
v 5.37236761 -5.28272812 -0.16730149
f 1 2 6
f 1 6 3
f 1 3 7
f 1 7 11
f 1 11 14
f 1 14 10
f 1 10 4
f 1 4 9
f 1 9 5
f 1 5 2
f 2 5 6
f 3 6 8
f 3 8 7
f 4 10 15
f 4 15 13
f 4 13 9
f 5 9 13
f 5 13 12
f 5 12 8
f 5 8 6
f 7 8 11
f 8 12 11
f 10 14 15
f 11 12 13
f 11 13 15
f 11 15 14

