# https://github.com/mikedh/trimesh
v 3.28899677 -6.47363596 -0.37507815
v 3.28899677 -6.47363596 -0.11750680
v 3.28899677 -6.35596712 -0.37507815
v 7.61369011 -6.47363596 -0.37507815
v 3.28899677 -6.35596712 -0.11750680
v 7.56754310 -6.47363596 -0.11750680
v 7.61369011 -6.35596712 -0.37507815
v 7.61369011 -6.47363596 -0.23179526
v 7.58024403 -6.35596712 -0.11750680
v 7.57389328 -6.47363596 -0.12181815
v 7.57516366 -6.45494212 -0.11750680
v 7.61369011 -6.35596712 -0.23179526
v 7.61284338 -6.35596712 -0.22834114
v 7.58913498 -6.35596712 -0.13399580
v 7.60733935 -6.47363596 -0.20917961
v 7.57982038 -6.37590490 -0.11750680
v 7.58320729 -6.47363596 -0.12817171
v 7.57812692 -6.44228375 -0.11750680
v 7.58236115 -6.44871079 -0.12517142
f 1 2 5
f 1 5 3
f 1 3 7
f 1 7 4
f 1 4 8
f 1 8 15
f 1 15 17
f 1 17 10
f 1 10 6
f 1 6 2
f 2 6 11
f 2 11 18
f 2 18 16
f 2 16 9
f 2 9 5
f 3 5 9
f 3 9 14
f 3 14 13
f 3 13 12
f 3 12 7
f 4 7 12
f 4 12 8
f 6 10 11
f 8 13 14
f 8 14 15
f 8 12 13
f 9 16 14
f 10 17 11
f 11 17 18
f 14 16 19
f 14 19 17
f 14 17 15
f 16 18 19
f 17 19 18

