# https://github.com/mikedh/trimesh
v 4.48930427 -6.07976562 0.08945342
v 4.42586122 -6.29835760 0.21106895
v 4.48930427 -6.35284985 0.24023833
v 4.53794395 -6.08968635 0.08945342
v 4.39182354 -6.08757766 0.08945342
v 4.42203453 -6.48560581 0.31129515
v 4.28940846 -6.11896939 0.08945342
v 4.47137914 -6.48560581 0.31129515
v 4.53885025 -6.30372535 0.20726317
v 4.58668432 -6.10300997 0.08945342
v 4.49554795 -6.56938110 0.33550261
v 4.23583427 -6.15740633 0.08945342
v 4.19363964 -6.19383034 0.08945342
v 4.39041369 -6.45200951 0.28361912
v 4.28759572 -6.44419747 0.23797416
v 4.35698025 -6.51915431 0.29913120
v 4.39041369 -6.55011468 0.31977377
v 4.49806547 -6.53861236 0.32620501
v 4.53633273 -6.49993584 0.30406904
v 4.49806547 -6.45200951 0.28923139
v 4.57752038 -6.35308958 0.22248620
v 4.61337066 -6.11158870 0.08945342
v 4.58668432 -6.56938110 0.31991829
v 4.39071588 -6.56938110 0.32333866
v 4.14238175 -6.25115015 0.08945342
v 4.09968355 -6.31019539 0.08945342
v 4.23120196 -6.47256985 0.21839138
v 4.30028444 -6.55011468 0.27950022
v 4.32082779 -6.56938110 0.29532542
v 4.34137127 -6.56938110 0.30563469
v 4.36010202 -6.56938110 0.31286079
v 4.58668432 -6.56497195 0.31823221
v 4.58668432 -6.51623071 0.29693926
v 4.58668432 -6.45033204 0.26738447
v 4.69272474 -6.15299704 0.08945342
v 4.59957427 -6.56938110 0.31632932
v 4.07632035 -6.34820098 0.08945342
v 4.21941968 -6.54781422 0.22850795
v 4.21891626 -6.56938110 0.22911013
v 4.66493074 -6.56938110 0.29388019
v 4.65264489 -6.38577522 0.21506737
v 4.74579536 -6.19119441 0.08945342
v 4.04057076 -6.45033204 0.08945342
v 4.02284699 -6.54781422 0.08945342
v 4.02465973 -6.56938110 0.08945342
v 4.69181844 -6.56938110 0.28323372
v 4.79181669 -6.24300279 0.08945342
v 5.05163106 -6.56938110 0.08945342
f 1 2 3
f 1 3 4
f 1 4 10
f 1 10 22
f 1 22 35
f 1 35 42
f 1 42 47
f 1 47 48
f 1 48 45
f 1 45 44
f 1 44 43
f 1 43 37
f 1 37 26
f 1 26 25
f 1 25 13
f 1 13 12
f 1 12 7
f 1 7 5
f 1 5 2
f 2 6 3
f 2 5 7
f 2 7 6
f 3 6 8
f 3 8 9
f 3 9 4
f 4 9 10
f 6 11 8
f 6 7 12
f 6 12 13
f 6 13 14
f 6 14 15
f 6 15 16
f 6 16 17
f 6 17 11
f 8 11 18
f 8 18 19
f 8 19 20
f 8 20 9
f 9 21 22
f 9 22 10
f 9 20 19
f 9 19 21
f 11 23 18
f 11 17 24
f 11 24 31
f 11 31 30
f 11 30 29
f 11 29 39
f 11 39 45
f 11 45 48
f 11 48 46
f 11 46 40
f 11 40 36
f 11 36 23
f 13 15 14
f 13 25 15
f 15 25 26
f 15 26 27
f 15 27 16
f 16 28 29
f 16 29 30
f 16 30 17
f 16 27 28
f 17 30 31
f 17 31 24
f 18 23 19
f 19 23 32
f 19 32 33
f 19 33 34
f 19 34 21
f 21 34 35
f 21 35 22
f 23 36 32
f 26 37 27
f 27 37 38
f 27 38 28
f 28 38 29
f 29 38 39
f 32 36 33
f 33 36 40
f 33 40 34
f 34 40 41
f 34 41 35
f 35 41 42
f 37 43 38
f 38 43 44
f 38 44 39
f 39 44 45
f 40 46 41
f 41 46 42
f 42 46 47
f 46 48 47

