# https://github.com/mikedh/trimesh
v 3.90424643 -1.55836695 0.17011876
v 3.96916878 -1.71564579 0.30977084
v 3.92013218 -1.55945195 0.17011876
v 3.80678618 -1.57940644 0.17011876
v 3.84734351 -1.71734389 0.30818370
v 3.90424643 -1.71390032 0.31123101
v 4.00170653 -1.77966097 0.31686532
v 4.03419327 -1.75329064 0.29781970
v 4.13236862 -1.63894042 0.17011876
v 4.06427931 -1.59535133 0.17011876
v 4.00170653 -1.57596287 0.17011876
v 3.90424643 -1.77036788 0.33226055
v 3.71014317 -1.63450599 0.17011876
v 3.67479603 -1.67252829 0.17011876
v 3.78441318 -1.77036788 0.28466235
v 3.83319437 -1.77036788 0.31684945
v 4.00170653 -1.83971391 0.31597653
v 4.05064099 -1.81933460 0.30459676
v 4.05064099 -1.81824960 0.30459676
v 4.16526405 -1.71951389 0.17011876
v 3.83390954 -1.84207249 0.31726213
v 3.90424643 -1.85674379 0.32548349
v 3.65288278 -1.77036788 0.17011876
v 3.65252523 -1.81617404 0.17011876
v 3.66013606 -1.91990993 0.17011876
v 4.00170653 -1.88844498 0.27820270
v 4.09150480 -1.96816940 0.17011876
v 3.90424643 -1.90552193 0.29445498
v 4.10054597 -1.95755507 0.17011876
v 4.15183001 -1.86782972 0.17011876
v 4.17430522 -1.77036788 0.17011876
v 3.75141568 -2.01850413 0.17011876
v 4.00170653 -2.02364611 0.17011876
v 3.84499380 -2.03553401 0.17011876
v 3.90424643 -2.04025146 0.17011876
f 1 2 3
f 1 3 11
f 1 11 10
f 1 10 9
f 1 9 20
f 1 20 31
f 1 31 30
f 1 30 29
f 1 29 27
f 1 27 33
f 1 33 35
f 1 35 34
f 1 34 32
f 1 32 25
f 1 25 24
f 1 24 23
f 1 23 14
f 1 14 13
f 1 13 4
f 1 4 5
f 1 5 6
f 1 6 2
f 2 7 8
f 2 8 9
f 2 9 10
f 2 10 11
f 2 11 3
f 2 6 12
f 2 12 7
f 4 13 5
f 5 13 14
f 5 14 15
f 5 15 16
f 5 16 12
f 5 12 6
f 7 17 18
f 7 18 19
f 7 19 8
f 7 12 17
f 8 19 20
f 8 20 9
f 12 16 21
f 12 21 22
f 12 22 17
f 14 23 15
f 15 23 24
f 15 24 25
f 15 25 21
f 15 21 16
f 17 26 27
f 17 27 18
f 17 22 28
f 17 28 26
f 18 27 29
f 18 29 30
f 18 30 31
f 18 31 19
f 19 31 20
f 21 28 22
f 21 25 32
f 21 32 28
f 26 33 27
f 26 28 33
f 28 34 35
f 28 35 33
f 28 32 34

