# https://github.com/mikedh/trimesh
v 2.14924578 -6.49620270 0.04987137
v 2.14924578 -6.49620270 0.03166976
v 2.14909308 -6.49620270 0.06029007
v 2.14924578 -6.54786739 0.05606491
v 2.14924578 -6.65764472 0.03166976
v 0.65825943 -6.49620270 0.03166976
v 2.14924578 -6.65764472 0.04944151
v 1.94492998 -6.49620270 0.08944775
v 0.59000144 -6.65764472 0.03166976
v 0.58923797 -6.65724954 0.03166976
v 0.58923797 -6.65764472 0.03169804
v 0.78515512 -6.65764472 0.06295415
v 0.88181585 -6.65764472 0.07094069
v 1.37809867 -6.49620270 0.08944775
v 1.87636654 -6.54663464 0.08944775
v 1.85880578 -6.55878813 0.08944775
v 1.75909113 -6.59505930 0.08944775
v 1.75909113 -6.65764472 0.07001874
v 0.97923992 -6.65764472 0.07630277
v 1.05238432 -6.65764472 0.07892724
v 1.06108842 -6.65764472 0.07923832
v 1.07681683 -6.65764472 0.07962294
v 1.40008775 -6.51968809 0.08944775
v 1.66166699 -6.60383067 0.08944775
v 1.66166699 -6.65764472 0.07224162
v 1.62959946 -6.60133363 0.08944775
v 1.54225369 -6.58917999 0.08944775
v 1.45597679 -6.55570632 0.08944775
f 1 2 6
f 1 6 14
f 1 14 8
f 1 8 3
f 1 3 4
f 1 4 7
f 1 7 5
f 1 5 2
f 2 5 9
f 2 9 10
f 2 10 6
f 3 7 4
f 3 8 7
f 5 7 18
f 5 18 25
f 5 25 22
f 5 22 21
f 5 21 20
f 5 20 19
f 5 19 13
f 5 13 12
f 5 12 11
f 5 11 9
f 6 10 11
f 6 11 12
f 6 12 13
f 6 13 14
f 7 8 15
f 7 15 16
f 7 16 17
f 7 17 18
f 8 14 23
f 8 23 28
f 8 28 27
f 8 27 26
f 8 26 24
f 8 24 17
f 8 17 16
f 8 16 15
f 9 11 10
f 13 19 14
f 14 19 20
f 14 20 21
f 14 21 22
f 14 22 23
f 17 24 18
f 18 24 25
f 22 25 24
f 22 24 26
f 22 26 27
f 22 27 28
f 22 28 23

