# https://github.com/mikedh/trimesh
v 5.95146756 -6.76363356 -0.02651583
v 5.95146756 -6.76363356 -0.05465785
v 5.62041233 -6.76363356 0.03166972
v 5.62803202 -6.77153786 0.03166972
v 5.67515390 -6.83703018 0.03166972
v 5.70322612 -6.88502028 0.03166972
v 5.73430664 -6.94354946 0.03166972
v 5.76919657 -7.01205312 0.03166972
v 5.77942298 -7.03237810 0.03166972
v 5.78944890 -7.09184844 0.03166972
v 5.79165464 -7.13306355 0.03166972
v 5.79205563 -7.36473334 0.03166972
v 5.79185513 -7.42533285 0.03166972
v 5.95146756 -7.13306355 -0.02774968
v 5.95146756 -7.84275266 -0.05465785
v 3.90337652 -6.76363356 -0.05465785
v 3.90337652 -6.76363356 0.03166972
v 5.95146756 -7.62030448 -0.03893888
v 5.95146756 -7.52300681 -0.03613313
v 5.95146756 -7.42533285 -0.03386825
v 5.78423545 -7.52281852 0.03166972
v 5.95146756 -7.71779015 -0.04460109
v 5.76157688 -7.60863624 0.03166972
v 5.75977243 -7.61315290 0.03166972
v 5.70924184 -7.71760186 0.03166972
v 5.75876966 -8.10773340 -0.05464940
v 5.75656421 -8.11036832 -0.05464940
v 5.55384040 -8.30289332 -0.05465785
v 3.90297546 -8.68606130 -0.05465785
v 3.90297546 -7.94155578 -0.02406502
v 3.90297546 -7.94155578 0.00341782
v 3.90337652 -6.97949504 0.03166972
v 5.65851077 -7.77368441 0.03166972
v 5.29557304 -8.59516262 -0.05465785
v 5.46380763 -8.40602482 -0.05465785
v 3.90457971 -8.68606130 -0.05465785
v 3.90297546 -8.68455584 -0.05155631
v 3.90297546 -8.10905086 -0.00134013
v 3.90337652 -7.42665001 0.01992274
v 4.03852557 -7.48630836 0.03166972
v 5.47363305 -7.94136778 0.03166972
v 5.42270148 -8.01024773 0.03166126
v 5.36655645 -8.04355840 0.03166126
v 5.26830280 -8.06971778 0.03166126
v 5.17165311 -8.09079563 0.03166126
v 5.26870379 -8.59516262 -0.05371133
v 5.26870379 -8.59967928 -0.05465785
v 4.20435407 -8.68380297 -0.05465785
v 4.00203139 -8.68417955 -0.05246902
v 3.90457971 -8.59516262 -0.01596890
v 3.90297546 -8.59516262 -0.01595201
v 4.09968355 -8.68399126 -0.05348315
v 3.90297546 -8.22667350 -0.00474589
v 3.90297546 -8.30289332 -0.00698543
v 3.90297546 -8.40019099 -0.00991794
v 3.90297546 -8.49767666 -0.01289272
v 4.06318937 -7.55876410 0.03166972
v 5.06116751 -8.09738262 0.03166126
v 5.07400065 -8.09700633 0.03166126
v 4.47004047 -7.94136778 0.03166972
v 4.00203139 -8.59516262 -0.01787039
v 4.09968355 -8.59516262 -0.01989864
v 4.19693487 -8.59516262 -0.02208747
v 4.29458719 -8.59516262 -0.02438615
v 4.39203886 -8.59516262 -0.02682851
v 4.48949068 -8.59516262 -0.02939764
v 4.58694249 -8.59516262 -0.03206817
v 4.68459466 -8.59516262 -0.03486547
v 4.78184598 -8.59516262 -0.03776418
v 4.87929765 -8.59516262 -0.04077276
v 4.97634848 -8.59516262 -0.04387430
v 5.07400065 -8.59516262 -0.04706880
v 5.17145261 -8.59516262 -0.05035626
v 5.17145261 -8.61417043 -0.05465785
v 4.29458719 -8.68041547 -0.05465785
v 4.39203886 -8.67646339 -0.05465785
v 4.48949068 -8.67194673 -0.05465785
v 4.58694249 -8.66686549 -0.05465785
v 4.97634848 -8.09738262 0.03166126
v 4.96531994 -8.09719433 0.03166126
v 4.87929765 -8.09154851 0.03166126
v 4.87729256 -8.09136022 0.03166126
v 4.78986666 -8.08063315 0.03166126
v 4.70544862 -8.06124875 0.03166126
v 4.65010558 -8.03979461 0.03166126
v 4.32265970 -7.86872375 0.03166972
v 4.22139804 -7.79231593 0.03166972
v 4.13036279 -7.68636123 0.03166972
v 4.46121767 -7.93741541 0.03166972
v 4.68459466 -8.66084308 -0.05465785
v 4.78184598 -8.65406809 -0.05465785
v 4.87929765 -8.64616393 -0.05465785
v 4.97634848 -8.63713032 -0.05465785
v 5.07400065 -8.62659125 -0.05465785
v 4.40086166 -7.90899799 0.03166972
f 1 2 16
f 1 16 17
f 1 17 3
f 1 3 4
f 1 4 5
f 1 5 6
f 1 6 7
f 1 7 8
f 1 8 9
f 1 9 10
f 1 10 11
f 1 11 12
f 1 12 13
f 1 13 14
f 1 14 20
f 1 20 19
f 1 19 18
f 1 18 22
f 1 22 15
f 1 15 2
f 2 15 28
f 2 28 35
f 2 35 34
f 2 34 47
f 2 47 74
f 2 74 94
f 2 94 93
f 2 93 92
f 2 92 91
f 2 91 90
f 2 90 78
f 2 78 77
f 2 77 76
f 2 76 75
f 2 75 48
f 2 48 36
f 2 36 29
f 2 29 16
f 3 17 32
f 3 32 40
f 3 40 57
f 3 57 88
f 3 88 87
f 3 87 86
f 3 86 95
f 3 95 89
f 3 89 60
f 3 60 41
f 3 41 33
f 3 33 25
f 3 25 24
f 3 24 23
f 3 23 21
f 3 21 13
f 3 13 12
f 3 12 11
f 3 11 10
f 3 10 9
f 3 9 8
f 3 8 7
f 3 7 6
f 3 6 5
f 3 5 4
f 13 18 19
f 13 19 20
f 13 20 14
f 13 21 18
f 15 22 21
f 15 21 23
f 15 23 24
f 15 24 25
f 15 25 26
f 15 26 27
f 15 27 28
f 16 29 30
f 16 30 31
f 16 31 17
f 17 31 32
f 18 21 22
f 25 33 27
f 25 27 26
f 27 33 34
f 27 34 35
f 27 35 28
f 29 36 37
f 29 37 51
f 29 51 56
f 29 56 55
f 29 55 54
f 29 54 53
f 29 53 38
f 29 38 31
f 29 31 30
f 31 38 39
f 31 39 32
f 32 39 40
f 33 41 42
f 33 42 34
f 34 42 43
f 34 43 44
f 34 44 45
f 34 45 46
f 34 46 47
f 36 48 37
f 37 49 50
f 37 50 51
f 37 48 52
f 37 52 49
f 38 53 39
f 39 53 54
f 39 54 55
f 39 55 56
f 39 56 40
f 40 56 51
f 40 51 57
f 41 58 59
f 41 59 45
f 41 45 44
f 41 44 43
f 41 43 42
f 41 60 79
f 41 79 58
f 45 59 51
f 45 51 50
f 45 50 61
f 45 61 62
f 45 62 63
f 45 63 64
f 45 64 65
f 45 65 66
f 45 66 67
f 45 67 68
f 45 68 69
f 45 69 70
f 45 70 71
f 45 71 72
f 45 72 73
f 45 73 46
f 46 73 47
f 47 73 72
f 47 72 74
f 48 75 50
f 48 50 52
f 49 52 50
f 50 75 76
f 50 76 77
f 50 77 78
f 50 78 61
f 51 59 58
f 51 58 79
f 51 79 80
f 51 80 81
f 51 81 82
f 51 82 83
f 51 83 84
f 51 84 85
f 51 85 86
f 51 86 87
f 51 87 88
f 51 88 57
f 60 89 85
f 60 85 84
f 60 84 83
f 60 83 82
f 60 82 81
f 60 81 80
f 60 80 79
f 61 78 62
f 62 78 90
f 62 90 63
f 63 90 91
f 63 91 64
f 64 91 92
f 64 92 65
f 65 92 66
f 66 92 93
f 66 93 67
f 67 93 68
f 68 93 94
f 68 94 69
f 69 94 70
f 70 94 74
f 70 74 71
f 71 74 72
f 85 89 95
f 85 95 86

