# https://github.com/mikedh/trimesh
v 6.18481047 -6.79323710 -0.05467121
v 6.60654324 -6.79342656 -0.05467121
v 6.82917303 -6.79342656 -0.06424871
v 7.31487537 -6.79342656 -0.08549331
v 7.41092706 -6.79342656 -0.08975964
v 7.46128592 -6.79342656 -0.09315531
v 7.51164506 -6.79342656 -0.09689923
v 7.58708644 -6.79342656 -0.14243581
v 7.61352971 -6.79342656 -0.23185473
v 7.61411318 -6.79342656 -0.32928390
v 6.18481047 -6.79323710 -0.94398448
v 5.62774987 -6.79323710 -0.05467121
v 5.97365249 -7.81521102 -0.05467121
v 7.41384354 -7.91254181 -0.12145244
v 7.51125628 -8.01044067 -0.12859199
v 7.58105880 -8.59480463 -0.16568300
v 7.58358678 -8.39995359 -0.16254856
v 7.58533661 -8.20491310 -0.15976237
v 7.58650297 -8.01044067 -0.15715034
v 7.58708644 -7.91254181 -0.15593139
v 7.61352971 -8.01044067 -0.23202887
v 7.61352971 -7.51848434 -0.23185473
v 7.61411318 -6.79342656 -0.81669100
v 7.61411318 -6.84057691 -0.32928390
v 5.80721480 -6.79323710 -0.94415861
v 7.58708644 -6.79342656 -0.90149520
v 7.51164506 -6.79342656 -0.94076290
v 7.46420269 -6.79342656 -0.94233018
v 7.41403793 -6.79342656 -0.94398448
v 5.62774987 -6.79323710 -0.94415861
v 5.62774987 -8.21627449 -0.05467121
v 5.75899456 -8.10758231 -0.05467121
v 6.73195469 -8.59480463 -0.11187494
v 7.02399850 -8.49728439 -0.12145244
v 7.02399850 -8.39995359 -0.11849212
v 7.02399850 -8.30224389 -0.11553180
v 7.51125628 -8.39995359 -0.13991084
v 7.12141094 -8.10739285 -0.11405162
v 7.51125628 -8.10739285 -0.13137818
v 7.51125628 -8.49728439 -0.14287116
v 7.51125628 -8.59480463 -0.14600561
v 7.57386480 -8.66524642 -0.17195189
v 7.57503174 -8.66316330 -0.17378032
v 7.60808554 -8.59480463 -0.23202887
v 7.61041884 -8.39995359 -0.23202887
v 7.61352971 -8.59480463 -0.32954511
v 7.61411318 -7.51848434 -0.81669100
v 7.61411318 -8.49728439 -0.71908765
v 5.75685566 -8.59518325 -0.94415861
v 7.41403793 -7.51848434 -0.94398448
v 7.41384354 -8.59480463 -0.94398448
v 7.58708644 -7.51848434 -0.90149520
v 7.51164506 -7.51848434 -0.94076290
v 7.50697847 -7.51848434 -0.94093710
v 7.44864775 -6.97293943 -0.94285255
v 5.62774987 -8.59518325 -0.94415861
v 5.62774987 -8.49785246 -0.06372629
v 5.65944321 -8.19449839 -0.05467121
v 5.75685566 -8.11004375 -0.05467121
v 6.08798120 -8.63116166 -0.08601572
v 6.53732390 -8.59480463 -0.10360347
v 7.12141094 -8.59480463 -0.12885321
v 6.02303938 -8.64649983 -0.08470971
v 7.51145067 -8.66316330 -0.16202615
v 7.51145067 -8.67698671 -0.16533472
v 7.51145067 -8.71732023 -0.23185473
v 7.58397557 -8.67925899 -0.23185473
v 7.58864216 -8.66316330 -0.23185473
v 7.58961384 -8.66316330 -0.25057436
v 7.59291939 -8.66316330 -0.32937096
v 7.61411318 -8.59480463 -0.81660390
v 6.18481047 -8.63040414 -0.92883460
v 7.51125628 -8.59480463 -0.94058885
v 7.51145067 -8.66316330 -0.91185630
v 7.51145067 -8.68399300 -0.90306248
v 7.41384354 -8.68531830 -0.90471678
v 7.58708644 -8.59480463 -0.90132115
v 5.62774987 -8.65634647 -0.91751578
v 5.62774987 -8.59518325 -0.06686074
v 5.75685566 -8.59518325 -0.07173655
v 5.95187552 -8.59518325 -0.07939855
v 5.65944321 -8.59518325 -0.06799263
v 5.95187552 -8.65047632 -0.08322953
v 7.41384354 -8.67888009 -0.16315804
v 7.41384354 -8.72072865 -0.23185473
v 5.75685566 -8.65956543 -0.07939855
v 5.65944321 -8.66335275 -0.07757012
v 5.62774987 -8.66448889 -0.07696064
v 7.51145067 -8.72432652 -0.32937096
v 7.58708644 -8.68247796 -0.32937096
v 7.58708644 -8.68247796 -0.81660390
v 7.57814261 -8.66960152 -0.88939278
v 6.18481047 -8.68550776 -0.90471678
v 7.57230908 -8.66316330 -0.89383324
v 7.51145067 -8.72413706 -0.81660390
v 7.41384354 -8.72716687 -0.81660390
v 6.18481047 -8.72735632 -0.81677802
v 5.62774987 -8.68550776 -0.90471678
v 7.31662549 -8.68039513 -0.16098132
v 7.31662549 -8.72224340 -0.23185473
v 7.41384354 -8.72735632 -0.32937096
v 5.62774987 -8.70633746 -0.13433850
v 7.21901807 -8.68153127 -0.15889170
v 7.51145067 -8.72432652 -0.71908765
v 7.41384354 -8.72735632 -0.71908765
v 6.18481047 -8.72773494 -0.71917471
v 5.62774987 -8.72735632 -0.81677802
v 7.21901807 -8.72337954 -0.23185473
v 7.02419289 -8.72489459 -0.23185473
v 6.92658576 -8.72546266 -0.23185473
v 6.43952238 -8.72735632 -0.23185473
v 6.18481047 -8.72773494 -0.23185473
v 5.62774987 -8.72773494 -0.23185473
v 5.62774987 -8.72773494 -0.71917471
f 1 2 3
f 1 3 4
f 1 4 5
f 1 5 6
f 1 6 7
f 1 7 8
f 1 8 9
f 1 9 10
f 1 10 23
f 1 23 11
f 1 11 25
f 1 25 30
f 1 30 12
f 1 12 31
f 1 31 58
f 1 58 59
f 1 59 32
f 1 32 13
f 1 13 2
f 2 13 3
f 3 13 4
f 4 13 5
f 5 13 14
f 5 14 15
f 5 15 6
f 6 15 7
f 7 15 16
f 7 16 17
f 7 17 18
f 7 18 19
f 7 19 20
f 7 20 8
f 8 20 21
f 8 21 22
f 8 22 9
f 9 22 24
f 9 24 10
f 10 24 48
f 10 48 71
f 10 71 47
f 10 47 23
f 11 23 26
f 11 26 27
f 11 27 28
f 11 28 29
f 11 29 25
f 12 30 56
f 12 56 78
f 12 78 98
f 12 98 107
f 12 107 114
f 12 114 113
f 12 113 102
f 12 102 88
f 12 88 79
f 12 79 57
f 12 57 31
f 13 32 33
f 13 33 34
f 13 34 35
f 13 35 36
f 13 36 37
f 13 37 38
f 13 38 14
f 14 38 15
f 15 39 16
f 15 38 39
f 16 39 37
f 16 37 40
f 16 40 41
f 16 41 42
f 16 42 43
f 16 43 44
f 16 44 17
f 17 44 18
f 18 44 45
f 18 45 19
f 19 45 20
f 20 45 21
f 21 45 46
f 21 46 24
f 21 24 22
f 23 47 52
f 23 52 26
f 24 46 48
f 25 49 56
f 25 56 30
f 25 29 50
f 25 50 51
f 25 51 49
f 26 52 53
f 26 53 27
f 27 53 54
f 27 54 55
f 27 55 28
f 28 55 29
f 29 55 50
f 31 57 58
f 32 59 60
f 32 60 61
f 32 61 33
f 33 62 34
f 33 61 60
f 33 60 62
f 34 62 40
f 34 40 37
f 34 37 35
f 35 37 36
f 37 39 38
f 40 62 41
f 41 62 60
f 41 60 63
f 41 63 64
f 41 64 42
f 42 64 65
f 42 65 66
f 42 66 67
f 42 67 43
f 43 67 68
f 43 68 44
f 44 68 46
f 44 46 45
f 46 68 69
f 46 69 70
f 46 70 71
f 46 71 48
f 47 71 52
f 49 72 56
f 49 51 72
f 50 55 54
f 50 54 51
f 51 54 73
f 51 73 74
f 51 74 75
f 51 75 76
f 51 76 72
f 52 71 77
f 52 77 53
f 53 77 73
f 53 73 54
f 56 72 78
f 57 79 58
f 58 79 59
f 59 80 81
f 59 81 60
f 59 79 82
f 59 82 80
f 60 81 80
f 60 80 82
f 60 82 63
f 63 82 79
f 63 79 83
f 63 83 65
f 63 65 64
f 65 84 85
f 65 85 66
f 65 83 86
f 65 86 87
f 65 87 88
f 65 88 84
f 66 89 67
f 66 85 89
f 67 89 90
f 67 90 70
f 67 70 69
f 67 69 68
f 70 90 71
f 71 90 91
f 71 91 92
f 71 92 77
f 72 93 78
f 72 76 93
f 73 77 92
f 73 92 94
f 73 94 74
f 74 94 92
f 74 92 75
f 75 92 95
f 75 95 96
f 75 96 76
f 76 96 97
f 76 97 93
f 78 93 98
f 79 88 86
f 79 86 83
f 84 99 85
f 84 88 99
f 85 100 101
f 85 101 89
f 85 99 102
f 85 102 100
f 86 88 87
f 88 102 103
f 88 103 99
f 89 104 91
f 89 91 90
f 89 101 105
f 89 105 104
f 91 104 95
f 91 95 92
f 93 97 107
f 93 107 98
f 95 104 105
f 95 105 96
f 96 105 106
f 96 106 97
f 97 106 114
f 97 114 107
f 99 103 102
f 100 108 101
f 100 102 108
f 101 108 109
f 101 109 110
f 101 110 111
f 101 111 112
f 101 112 106
f 101 106 105
f 102 113 112
f 102 112 111
f 102 111 110
f 102 110 109
f 102 109 108
f 106 112 113
f 106 113 114

