# https://github.com/mikedh/trimesh
v 3.81941941 -6.32741312 0.05196417
v 3.81941941 -6.35288894 0.05134198
v 3.81941941 -6.32741312 0.03166976
v 2.65850488 -6.32741312 0.08944775
v 3.81941941 -6.54783659 0.04585548
v 2.64035793 -6.34936502 0.08944775
v 2.63741519 -6.35288894 0.08944775
v 3.81941941 -6.65766027 0.03166976
v 2.14924578 -6.32741312 0.03166976
v 2.50629937 -6.32741312 0.08944775
v 3.81941941 -6.63266957 0.04317444
v 2.63676122 -6.35327685 0.08944775
v 3.81941941 -6.65766027 0.04233733
v 2.14924578 -6.65766027 0.03166976
v 2.14924578 -6.32741312 0.07443056
v 2.46722618 -6.32741312 0.08809027
v 2.53196667 -6.35288894 0.08944775
v 2.53932353 -6.35693007 0.08944775
v 2.63676122 -6.45036269 0.08337865
v 2.63676122 -6.54783659 0.07479822
v 2.63676122 -6.64534275 0.06587274
v 2.63676122 -6.65766027 0.06470756
v 2.23458551 -6.65766027 0.05315198
v 2.14924578 -6.65762801 0.04944151
v 2.44188584 -6.45036269 0.08025078
v 2.44188584 -6.35288894 0.08631421
v 2.44188584 -6.32741312 0.08720224
v 2.53670776 -6.35553997 0.08944775
v 2.53932353 -6.45036269 0.08350309
v 2.53932353 -6.54783659 0.07483215
v 2.53932353 -6.64534275 0.06578791
v 2.53932353 -6.65766027 0.06460010
v 2.33202323 -6.65766027 0.05768258
v 2.44188584 -6.54783659 0.07200406
v 2.44188584 -6.64534275 0.06342361
v 2.44188584 -6.65766027 0.06230369
v 2.52706209 -6.65766027 0.06436819
v 2.42946092 -6.65766027 0.06190210
f 1 2 5
f 1 5 11
f 1 11 13
f 1 13 8
f 1 8 3
f 1 3 9
f 1 9 15
f 1 15 27
f 1 27 16
f 1 16 10
f 1 10 4
f 1 4 2
f 2 4 6
f 2 6 7
f 2 7 5
f 3 8 14
f 3 14 9
f 4 10 17
f 4 17 28
f 4 28 18
f 4 18 12
f 4 12 7
f 4 7 6
f 5 7 11
f 7 12 13
f 7 13 11
f 8 13 22
f 8 22 32
f 8 32 37
f 8 37 36
f 8 36 38
f 8 38 33
f 8 33 23
f 8 23 14
f 9 14 24
f 9 24 15
f 10 16 17
f 12 18 19
f 12 19 13
f 13 19 20
f 13 20 21
f 13 21 22
f 14 23 24
f 15 24 25
f 15 25 26
f 15 26 27
f 16 27 26
f 16 26 17
f 17 26 25
f 17 25 28
f 18 28 25
f 18 25 29
f 18 29 19
f 19 29 20
f 20 29 30
f 20 30 21
f 21 30 31
f 21 31 22
f 22 31 32
f 23 33 24
f 24 33 34
f 24 34 25
f 25 34 29
f 29 34 35
f 29 35 30
f 30 35 36
f 30 36 37
f 30 37 31
f 31 37 32
f 33 38 34
f 34 38 35
f 35 38 36

