# https://github.com/mikedh/trimesh
v 5.07962933 -5.96243965 0.03167541
v 4.69278329 -6.15296929 0.08944775
v 4.69636067 -6.15769051 0.08944775
v 5.00290159 -6.15769051 0.03166976
v 5.07913594 -5.96286010 0.03166976
v 5.07888910 -5.96243965 0.03166976
v 4.58669667 -5.96243965 0.05543708
v 4.48912179 -6.07976213 0.08944775
v 4.53797083 -6.08968242 0.08944775
v 4.58669667 -6.10296668 0.08944775
v 4.61334174 -6.11152985 0.08944775
v 4.23550084 -6.15769051 0.08944775
v 3.81954269 -6.15769051 0.03166976
v 3.81954269 -5.96243965 0.03166976
v 4.48912179 -5.96243965 0.05958306
v 4.39179347 -6.08756066 0.08944775
v 4.39179347 -5.96243965 0.06055593
v 3.81954269 -5.96243965 0.06444739
v 4.23587088 -6.15736551 0.08944775
v 3.81954269 -6.15769051 0.05748461
v 4.28940758 -6.11896517 0.08944775
f 1 2 3
f 1 3 4
f 1 4 5
f 1 5 6
f 1 6 14
f 1 14 18
f 1 18 17
f 1 17 15
f 1 15 7
f 1 7 8
f 1 8 9
f 1 9 10
f 1 10 11
f 1 11 2
f 2 11 10
f 2 10 9
f 2 9 8
f 2 8 16
f 2 16 21
f 2 21 19
f 2 19 12
f 2 12 3
f 3 12 20
f 3 20 13
f 3 13 4
f 4 13 14
f 4 14 6
f 4 6 5
f 7 15 8
f 8 15 17
f 8 17 18
f 8 18 16
f 12 19 18
f 12 18 20
f 13 20 18
f 13 18 14
f 16 18 21
f 18 19 21

