# https://github.com/mikedh/trimesh
v -0.23392644 -2.94023572 0.12258159
v -0.23392644 -2.84281630 0.12247720
v -0.38603831 -2.06314829 0.11986671
v -0.38575529 -2.94023572 0.11830041
v -0.23392644 -3.03765513 0.12101531
v -0.23392644 -2.78848619 0.12237274
v -0.23392644 -2.69075440 0.12216389
v -0.38575529 -2.06283593 0.11986671
v -0.38603831 -1.96541651 0.11944901
v -0.38603831 -2.94054808 0.11819599
v -0.38603831 -2.94335821 0.11809160
v -0.38603831 -3.04639788 0.11412369
v -0.28827340 -3.03765513 0.11871811
v -0.23392644 -3.12914208 0.11475020
v -0.23392644 -2.06283593 0.11944901
v -0.28827340 -2.06283593 0.11965786
v -0.38575529 -1.96541651 0.11944901
v -0.38575529 -1.86799709 0.11788275
v -0.38603831 -1.86830917 0.11788275
v -0.38603831 -3.06294687 0.11266182
v -0.36839416 -3.09448330 0.11067786
v -0.23392644 -3.17691512 0.10848505
v -0.23392644 -1.96541651 0.11861369
v -0.28827340 -1.96541651 0.11903135
v -0.28827340 -1.86799709 0.11746505
v -0.23392644 -0.69802668 0.09083829
v -0.23392644 -0.54627716 0.08728807
v -0.23392644 -0.50287548 0.08624386
v -0.38575529 -1.77057767 0.11537671
v -0.38603831 -1.77088975 0.11537671
v -0.38603831 -3.11852586 0.10618786
v -0.23392644 -3.23499217 0.09772994
v -0.38603831 -3.13288901 0.10409948
v -0.23392644 -1.86799709 0.11715182
v -0.23392644 -1.81366698 0.11600322
v -0.38603831 -0.41357437 0.04635590
v -0.28827340 -0.50287548 0.08478199
v -0.23392644 -0.41326201 0.04854871
v -0.38575529 -0.50287548 0.08196271
v -0.38603831 -0.50349992 0.08196271
v -0.38603831 -3.22968399 0.08050084
v -0.38575529 -3.23280634 0.07976990
v -0.23392644 -3.56034810 0.01095794
v -0.38603831 -0.37173366 -0.03686585
v -0.23392644 -0.37142158 -0.03686585
v -0.38603831 -3.23311870 0.07956105
v -0.25527801 -3.56034810 0.00030722
v -0.23392644 -3.56034810 -0.94416042
v -0.38603831 -0.37079714 -0.13428854
v -0.23392644 -0.37079714 -0.13428854
v -0.38603831 -3.56034810 -0.06704287
v -0.23392644 -0.50287548 -0.94416042
v -0.38575529 -3.56034810 -0.94416042
v -0.38603831 -0.37079714 -0.71924238
v -0.23392644 -0.37079714 -0.77354016
v -0.38603831 -3.56034810 -0.07101079
v -0.38603831 -0.50287548 -0.94416042
v -0.23392644 -0.41294964 -0.90479451
v -0.38603831 -3.56003588 -0.94416042
v -0.38603831 -0.37110951 -0.81676952
v -0.23392644 -0.37110951 -0.81676952
v -0.38603831 -0.41294964 -0.90479451
v -0.23392644 -0.39421526 -0.86584630
f 1 2 3
f 1 3 4
f 1 4 5
f 1 5 14
f 1 14 22
f 1 22 32
f 1 32 43
f 1 43 48
f 1 48 52
f 1 52 58
f 1 58 63
f 1 63 61
f 1 61 55
f 1 55 50
f 1 50 45
f 1 45 38
f 1 38 28
f 1 28 27
f 1 27 26
f 1 26 35
f 1 35 34
f 1 34 23
f 1 23 15
f 1 15 7
f 1 7 6
f 1 6 2
f 2 6 3
f 3 6 7
f 3 7 8
f 3 8 9
f 3 9 19
f 3 19 30
f 3 30 40
f 3 40 36
f 3 36 44
f 3 44 49
f 3 49 54
f 3 54 60
f 3 60 62
f 3 62 57
f 3 57 59
f 3 59 56
f 3 56 51
f 3 51 46
f 3 46 41
f 3 41 33
f 3 33 31
f 3 31 20
f 3 20 12
f 3 12 11
f 3 11 10
f 3 10 4
f 4 10 11
f 4 11 12
f 4 12 13
f 4 13 5
f 5 13 12
f 5 12 14
f 7 15 16
f 7 16 8
f 8 16 17
f 8 17 9
f 9 17 18
f 9 18 19
f 12 20 14
f 14 20 21
f 14 21 22
f 15 23 24
f 15 24 17
f 15 17 16
f 17 24 25
f 17 25 18
f 18 25 26
f 18 26 27
f 18 27 28
f 18 28 29
f 18 29 30
f 18 30 19
f 20 31 21
f 21 31 22
f 22 31 33
f 22 33 32
f 23 34 24
f 24 34 25
f 25 34 35
f 25 35 26
f 28 36 37
f 28 37 29
f 28 38 36
f 29 37 39
f 29 39 30
f 30 39 40
f 32 33 41
f 32 41 42
f 32 42 43
f 36 40 39
f 36 39 37
f 36 38 44
f 38 45 44
f 41 46 42
f 42 46 43
f 43 47 51
f 43 51 56
f 43 56 53
f 43 53 48
f 43 46 47
f 44 45 49
f 45 50 49
f 46 51 47
f 48 53 59
f 48 59 57
f 48 57 52
f 49 50 55
f 49 55 54
f 52 57 62
f 52 62 58
f 53 56 59
f 54 55 60
f 55 61 60
f 58 62 63
f 60 63 62
f 60 61 63

