# https://github.com/mikedh/trimesh
v 3.90429379 -1.55846139 0.17011876
v 3.92027252 -1.55955510 0.17011876
v 3.62703025 -0.50321196 0.12736259
v 3.80682330 -1.57924547 0.17011876
v 4.00170028 -1.57596374 0.17011876
v 4.06420928 -1.59528915 0.17011876
v 3.70935282 -0.50321196 0.12616282
v 4.19664125 -0.44596450 0.11252883
v 4.09917084 -0.44341211 0.11361956
v 4.00170028 -0.44085972 0.11460119
v 3.90429379 -0.43867171 0.11558285
v 3.80682330 -0.43684866 0.11645541
v 3.62703025 -0.49263745 0.12594467
v 3.62703025 -1.77067792 0.16117490
v 3.65297969 -1.77067792 0.17011876
v 3.67483867 -1.67259164 0.17011876
v 3.71018371 -1.63430492 0.17011876
v 4.13227883 -1.63904532 0.17011876
v 4.27992257 -0.50321196 0.11471026
v 4.19664125 -0.50321196 0.11667355
v 4.09917084 -0.50321196 0.11885499
v 4.00170028 -0.50321196 0.12092736
v 3.90429379 -0.50321196 0.12278161
v 3.80682330 -0.50321196 0.12452675
v 4.27992257 -0.44851690 0.11154720
v 4.27992257 -0.40658407 0.06071972
v 4.19664125 -0.40403168 0.06071972
v 4.00170028 -0.39892661 0.06071972
v 3.90429379 -0.39673917 0.06071972
v 3.70935282 -0.43538999 0.11721892
v 3.62703025 -0.43429627 0.11776429
v 3.62703025 -1.78745123 0.16128394
v 3.65259628 -1.81625715 0.17011876
v 4.16519504 -1.71962925 0.17011876
v 4.17427093 -1.77067792 0.17011876
v 4.27992257 -0.79564805 0.12158180
v 4.27992257 -0.45690340 0.11209257
v 4.27992257 -0.37559014 -0.02261117
v 4.27992257 -0.37048536 -0.03679054
v 3.70935282 -0.39345745 0.06071972
v 3.62703025 -0.42773282 0.10892947
v 3.62703025 -1.84870946 0.16139301
v 3.62709417 -2.74534327 0.16346537
v 3.62709417 -2.82738573 0.16357445
v 3.62709417 -2.94005760 0.16368352
v 3.62709417 -3.03777921 0.16346537
v 3.66020216 -1.92017755 0.17011876
v 4.27992257 -1.77067792 0.14361432
v 4.27992257 -1.68717693 0.14208729
v 4.15177291 -1.86803516 0.17011876
v 4.27985864 -3.33021529 0.14884975
v 4.27985864 -3.24671431 0.14961327
v 4.27985864 -3.23249354 0.14972234
v 4.27985864 -3.13513645 0.15037678
v 4.27985864 -3.03777921 0.15081304
v 4.27985864 -2.94005760 0.15103119
v 4.27985864 -2.74534327 0.15081304
v 4.27985864 -2.66184213 0.15048586
v 4.27985864 -2.55026427 0.14994049
v 4.27985864 -2.35518542 0.14841349
v 4.27992257 -0.37048536 -0.71925313
v 3.62703025 -0.37048536 -0.03679054
v 3.62703025 -0.38871705 0.04544966
v 3.62703025 -0.39236344 0.06071972
v 3.62703025 -1.95117148 0.16095675
v 3.62709417 -3.13513645 0.16302912
v 3.75147285 -2.01862879 0.17011876
v 4.27992257 -2.14552114 0.14623206
v 4.10044907 -1.95773493 0.17011876
v 4.09917084 -3.42757246 0.15179471
v 4.19657732 -3.42757246 0.14961327
v 4.19657732 -3.52492962 0.14819535
v 4.27985864 -3.34407140 0.14863160
v 4.27992257 -0.37085002 -0.80247495
v 3.62703025 -0.37048536 -0.71925313
v 3.62703025 -2.14552114 0.15888439
v 3.62709417 -3.33021529 0.16150208
v 3.62709417 -3.23249354 0.16237467
v 3.62709417 -3.21717905 0.16248375
v 3.90429379 -2.04050658 0.17011876
v 3.84504450 -2.03576647 0.17011876
v 4.27985864 -3.44179316 0.14634109
v 4.27985864 -3.58946973 0.14088752
v 4.27992257 -2.14552114 -0.94394111
v 4.09143710 -1.96830916 0.17011876
v 3.70941674 -3.33021529 0.16030231
v 3.80688723 -3.42757246 0.15757550
v 3.90435772 -3.42757246 0.15583036
v 4.00163635 -3.42757246 0.15386707
v 4.09917084 -3.52492962 0.15037678
v 4.13189527 -3.58983440 0.14852253
v 4.19651340 -3.62265138 0.14645017
v 4.27992257 -0.37121469 -0.81676335
v 3.62703025 -0.37121469 -0.81676335
v 3.62703025 -2.14552114 -0.94415926
v 3.62709417 -3.58946973 0.15768458
v 3.62709417 -3.52492962 0.15888439
v 3.62709417 -3.42757246 0.16030231
v 3.62709417 -3.41225790 0.16052046
v 4.00170028 -2.02373357 0.17011876
v 4.19651340 -3.65765623 0.14557761
v 4.19644947 -3.72000847 0.14394154
v 4.19644947 -4.09521635 0.13227084
v 4.27973079 -4.09521635 0.12539930
v 4.27985864 -3.58946973 -0.94405015
v 4.27992257 -0.50321196 -0.94394111
v 3.70941674 -3.42757246 0.15910253
v 3.70941674 -3.52492962 0.15768458
v 3.80688723 -3.52492962 0.15604851
v 3.90435772 -3.52492962 0.15430336
v 4.00163635 -3.52492962 0.15244915
v 4.03455271 -3.58946973 0.15059489
v 4.09917084 -3.65765623 0.14786812
v 4.09917084 -3.81773023 0.14426873
v 4.27992257 -0.41278285 -0.90478434
v 3.62703025 -0.41278285 -0.90478434
v 3.62703025 -0.50321196 -0.94415926
v 3.62709417 -3.58946973 -0.94415926
v 3.62722195 -4.09521635 0.13630649
v 3.62722195 -4.09485168 0.14361432
v 3.62722195 -4.08245426 0.14405062
v 3.62722195 -4.01244456 0.14623206
v 3.62722195 -3.81773023 0.15201285
v 3.62715810 -3.65765623 0.15615758
v 3.62715810 -3.62265138 0.15703013
v 3.62715810 -3.60733675 0.15735736
v 3.64479862 -3.58946973 0.15746643
v 4.09917084 -3.90961787 0.14186918
v 4.09917084 -4.01244456 0.13881515
v 4.09917084 -4.09521635 0.13619742
v 4.27973079 -4.09521635 -0.94405015
v 3.64677996 -3.65765623 -0.94415926
v 4.27985864 -2.14552114 -0.94405015
v 4.27992257 -0.49008506 -0.93837846
v 3.70941674 -3.58946973 0.15648480
v 3.80688723 -3.58946973 0.15495777
v 3.90435772 -3.58946973 0.15321263
v 3.93721000 -3.58946973 0.15255822
v 4.00157257 -3.62265138 0.15059489
v 4.00157257 -3.72000847 0.14852253
v 4.00157257 -3.81773023 0.14623206
v 4.00719704 -3.90961787 0.14383247
v 3.62722195 -4.09521635 -0.94415926
v 3.70954459 -4.09521635 0.14350525
v 3.70954459 -4.01244456 0.14612298
v 3.63169597 -3.90961787 0.14928605
v 3.62722195 -3.65765623 0.15615758
v 3.70954459 -3.90961787 0.14906790
v 3.70954459 -3.81773023 0.15146748
v 3.70948067 -3.62265138 0.15583036
v 3.70948067 -3.65765623 0.15506684
v 4.00157257 -4.01244456 0.14088752
v 4.00157257 -4.09521635 0.13826978
v 3.80695116 -3.65765623 0.15353985
v 3.90448557 -3.65765623 0.15179471
v 3.90448557 -3.72000847 0.15037678
v 3.90448557 -3.81773023 0.14808627
v 3.90448557 -3.90961787 0.14579576
v 3.90448557 -4.01244456 0.14285081
v 3.72411718 -4.09521635 0.14328710
v 3.80701501 -4.01244456 0.14459595
v 3.80701501 -3.90961787 0.14754090
v 3.80701501 -3.81773023 0.14983141
v 3.80701501 -3.72000847 0.15212193
v 3.91905808 -4.09521635 0.13990585
v 3.80701501 -4.09521635 0.14197825
f 1 2 3
f 1 3 4
f 1 4 17
f 1 17 16
f 1 16 15
f 1 15 33
f 1 33 47
f 1 47 67
f 1 67 81
f 1 81 80
f 1 80 100
f 1 100 85
f 1 85 69
f 1 69 50
f 1 50 35
f 1 35 34
f 1 34 18
f 1 18 6
f 1 6 5
f 1 5 2
f 2 5 3
f 3 5 6
f 3 6 7
f 3 7 8
f 3 8 9
f 3 9 10
f 3 10 11
f 3 11 12
f 3 12 13
f 3 13 31
f 3 31 41
f 3 41 64
f 3 64 63
f 3 63 62
f 3 62 75
f 3 75 94
f 3 94 116
f 3 116 117
f 3 117 95
f 3 95 76
f 3 76 65
f 3 65 42
f 3 42 32
f 3 32 14
f 3 14 15
f 3 15 16
f 3 16 17
f 3 17 4
f 6 18 19
f 6 19 20
f 6 20 21
f 6 21 22
f 6 22 23
f 6 23 24
f 6 24 7
f 7 24 25
f 7 25 8
f 8 25 26
f 8 26 9
f 9 26 10
f 10 26 27
f 10 27 11
f 11 27 28
f 11 28 12
f 12 28 29
f 12 29 30
f 12 30 13
f 13 30 31
f 14 32 15
f 15 32 33
f 18 34 19
f 19 34 35
f 19 35 36
f 19 36 49
f 19 49 48
f 19 48 68
f 19 68 84
f 19 84 106
f 19 106 134
f 19 134 115
f 19 115 93
f 19 93 74
f 19 74 61
f 19 61 39
f 19 39 38
f 19 38 26
f 19 26 25
f 19 25 37
f 19 37 20
f 20 37 21
f 21 37 22
f 22 37 25
f 22 25 23
f 23 25 24
f 26 38 27
f 27 38 28
f 28 38 39
f 28 39 29
f 29 40 41
f 29 41 31
f 29 31 30
f 29 39 40
f 32 42 43
f 32 43 33
f 33 43 44
f 33 44 45
f 33 45 46
f 33 46 47
f 35 48 49
f 35 49 36
f 35 50 51
f 35 51 52
f 35 52 53
f 35 53 54
f 35 54 55
f 35 55 56
f 35 56 57
f 35 57 58
f 35 58 59
f 35 59 60
f 35 60 48
f 39 61 75
f 39 75 62
f 39 62 63
f 39 63 64
f 39 64 40
f 40 64 41
f 42 65 46
f 42 46 45
f 42 45 44
f 42 44 43
f 46 65 66
f 46 66 47
f 47 66 67
f 48 60 59
f 48 59 68
f 50 69 70
f 50 70 71
f 50 71 51
f 51 71 72
f 51 72 73
f 51 73 68
f 51 68 52
f 52 68 53
f 53 68 54
f 54 68 55
f 55 68 56
f 56 68 57
f 57 68 58
f 58 68 59
f 61 74 75
f 65 76 77
f 65 77 78
f 65 78 79
f 65 79 66
f 66 79 80
f 66 80 81
f 66 81 67
f 68 73 82
f 68 82 83
f 68 83 105
f 68 105 84
f 69 85 77
f 69 77 86
f 69 86 87
f 69 87 88
f 69 88 89
f 69 89 70
f 70 89 111
f 70 111 90
f 70 90 72
f 70 72 71
f 72 90 91
f 72 91 92
f 72 92 73
f 73 92 82
f 74 93 94
f 74 94 75
f 76 95 118
f 76 118 96
f 76 96 97
f 76 97 98
f 76 98 99
f 76 99 77
f 77 99 86
f 77 85 78
f 78 85 100
f 78 100 79
f 79 100 80
f 82 92 101
f 82 101 102
f 82 102 103
f 82 103 104
f 82 104 83
f 83 104 131
f 83 131 105
f 84 105 133
f 84 133 106
f 86 99 107
f 86 107 87
f 87 107 108
f 87 108 109
f 87 109 110
f 87 110 88
f 88 110 111
f 88 111 89
f 90 111 91
f 91 112 113
f 91 113 92
f 91 111 112
f 92 113 114
f 92 114 101
f 93 115 116
f 93 116 94
f 95 117 132
f 95 132 143
f 95 143 118
f 96 118 143
f 96 143 119
f 96 119 120
f 96 120 121
f 96 121 122
f 96 122 123
f 96 123 124
f 96 124 125
f 96 125 126
f 96 126 97
f 97 108 107
f 97 107 98
f 97 126 127
f 97 127 108
f 98 107 99
f 101 114 128
f 101 128 102
f 102 128 129
f 102 129 103
f 103 129 130
f 103 130 153
f 103 153 165
f 103 165 166
f 103 166 160
f 103 160 144
f 103 144 119
f 103 119 143
f 103 143 131
f 103 131 104
f 105 131 132
f 105 132 133
f 106 117 134
f 106 133 117
f 108 127 135
f 108 135 136
f 108 136 109
f 109 136 137
f 109 137 110
f 110 137 111
f 111 137 138
f 111 138 112
f 112 138 139
f 112 139 113
f 113 139 140
f 113 140 114
f 114 141 142
f 114 142 128
f 114 140 141
f 115 134 117
f 115 117 116
f 117 133 132
f 119 144 120
f 120 144 121
f 121 144 145
f 121 145 122
f 122 145 146
f 122 146 123
f 123 147 124
f 123 146 145
f 123 145 148
f 123 148 149
f 123 149 147
f 124 147 125
f 125 150 126
f 125 147 149
f 125 149 151
f 125 151 150
f 126 150 127
f 127 150 135
f 128 142 129
f 129 152 153
f 129 153 130
f 129 142 152
f 131 143 132
f 135 150 136
f 136 150 154
f 136 154 155
f 136 155 137
f 137 139 138
f 137 155 139
f 139 155 140
f 140 155 156
f 140 156 157
f 140 157 141
f 141 157 158
f 141 158 142
f 142 158 159
f 142 159 152
f 144 160 145
f 145 160 161
f 145 161 162
f 145 162 148
f 148 162 149
f 149 162 163
f 149 163 164
f 149 164 154
f 149 154 151
f 150 151 154
f 152 159 153
f 153 159 165
f 154 164 155
f 155 164 156
f 156 164 163
f 156 163 157
f 157 163 162
f 157 162 158
f 158 162 161
f 158 161 159
f 159 161 166
f 159 166 165
f 160 166 161

