# https://github.com/mikedh/trimesh
v 7.61411260 -6.47363596 -0.45666897
v 7.61314732 -6.55104902 -0.43876975
v 7.61411260 -6.55103245 -0.45666897
v 7.61411260 -6.47363596 -0.52978476
v -2.24295993 -6.47363596 -0.45666897
v 7.61314732 -6.64264086 -0.43876975
v -2.24199465 -6.55104902 -0.43876975
v 7.61411260 -6.55103245 -0.52426512
v 7.61411260 -6.55086697 -0.52978476
v 7.61314732 -6.55104902 -0.54017884
v -2.24295993 -6.47363596 -0.52978476
v -2.24295993 -6.55101589 -0.45666897
v 7.61314732 -6.64264086 -0.54017884
v -2.24199465 -6.64264086 -0.43876975
v -2.24199465 -6.55104902 -0.54017884
v -2.24295993 -6.55101589 -0.52978476
v -2.24199465 -6.64264086 -0.54017884
f 1 2 6
f 1 6 3
f 1 3 8
f 1 8 9
f 1 9 4
f 1 4 11
f 1 11 5
f 1 5 7
f 1 7 2
f 2 7 14
f 2 14 6
f 3 6 13
f 3 13 8
f 4 9 13
f 4 13 10
f 4 10 15
f 4 15 11
f 5 11 16
f 5 16 12
f 5 12 14
f 5 14 7
f 6 14 17
f 6 17 13
f 8 13 9
f 10 13 17
f 10 17 15
f 11 15 17
f 11 17 16
f 12 16 17
f 12 17 14

