# https://github.com/mikedh/trimesh
v 1.54252007 -7.23068405 0.03166974
v 1.59854124 -7.23068405 0.03166974
v 1.54252007 -7.23068405 0.03766769
v 1.54252007 -6.74468735 0.03166974
v 1.54252007 -7.23035105 0.03770141
v 1.61769833 -7.19186122 0.03166974
v 1.54252007 -7.13281860 0.04376198
v 1.54252007 -6.74468735 0.05627816
v 1.61769833 -6.74468735 0.03166974
v 1.61769833 -6.74468735 0.05516528
v 1.54252007 -6.76462209 0.05573617
f 1 2 3
f 1 3 5
f 1 5 7
f 1 7 11
f 1 11 8
f 1 8 4
f 1 4 9
f 1 9 6
f 1 6 2
f 2 5 3
f 2 6 7
f 2 7 5
f 4 8 10
f 4 10 9
f 6 9 10
f 6 10 7
f 7 10 11
f 8 11 10

