# https://github.com/mikedh/trimesh
v -0.78713578 -5.42908361 -0.94416057
v -0.78713578 -5.42908361 0.03076248
v -0.78713578 -5.12995818 -0.94416057
v -0.67803621 -5.42908361 -0.94416057
v -0.78152221 -5.42908361 0.03096708
v -0.77566455 -5.28032618 0.03782049
v -0.78713578 -5.18290175 0.04170748
v -0.78713578 -5.12995818 0.04303725
v -0.67803621 -5.12995818 -0.94416057
v 1.70628899 -5.42908361 -0.94395600
v -0.72929090 -5.42908361 0.03280830
v -0.77566455 -5.18290175 0.04211664
v -0.63190693 -5.42908361 0.03608156
v -0.58065195 -5.18290175 0.04866317
v -0.77566455 -5.12995818 0.04344641
v 1.70628899 -5.12995818 -0.94395600
v 1.70628899 -5.42908361 0.08886303
v -0.58065195 -5.42908361 0.03771817
v -0.48302390 -5.18290175 0.05173188
v -0.23504834 -5.12995818 0.06104022
v 1.70628899 -5.12995818 0.10083092
v 1.66138005 -5.42908361 0.08824930
v -0.53452268 -5.42908361 0.03915022
v -0.38539556 -5.42908361 0.04375330
v -0.38539556 -5.18290175 0.05469826
v -0.13766408 -5.12995818 0.06390436
v 1.66138005 -5.12995818 0.10021719
v 1.46661175 -5.12995818 0.09735309
v 1.42194681 -5.12995818 0.09663704
v 1.22693450 -5.12995818 0.09336378
v 1.12955024 -5.12995818 0.09162485
v 1.07634290 -5.42908361 0.07730430
v -0.28801160 -5.42908361 0.04651512
v -0.28801160 -5.18290175 0.05746008
v -0.09299900 -5.12995818 0.06513181
v 0.93429385 -5.12995818 0.08794242
v 0.88157467 -5.42908361 0.07362187
v -0.19062734 -5.42908361 0.04917462
v -0.14425398 -5.42908361 0.05040211
v -0.04686972 -5.42908361 0.05295936
v 0.00438497 -5.42908361 0.05428913
v 0.00438497 -5.12995818 0.06758679
v 0.88157467 -5.12995818 0.08691953
v 0.73269150 -5.42908361 0.07065545
v 0.05075833 -5.42908361 0.05541430
v 0.05734823 -5.12995818 0.06891656
v 0.68656222 -5.12995818 0.08303251
v 0.58917811 -5.42908361 0.06768907
v 0.14814259 -5.42908361 0.05776696
v 0.15497657 -5.12995818 0.07126922
v 0.64214136 -5.12995818 0.08211190
v 0.39440973 -5.12995818 0.07679286
v 0.34315490 -5.42908361 0.06226771
v 0.58917811 -5.12995818 0.08098673
v 0.19964136 -5.42908361 0.05899445
v 0.34974480 -5.12995818 0.07576997
v 0.29702562 -5.42908361 0.06124482
f 1 2 7
f 1 7 8
f 1 8 3
f 1 3 9
f 1 9 4
f 1 4 10
f 1 10 17
f 1 17 22
f 1 22 32
f 1 32 37
f 1 37 44
f 1 44 48
f 1 48 53
f 1 53 57
f 1 57 55
f 1 55 49
f 1 49 45
f 1 45 41
f 1 41 40
f 1 40 39
f 1 39 38
f 1 38 33
f 1 33 24
f 1 24 23
f 1 23 18
f 1 18 13
f 1 13 11
f 1 11 5
f 1 5 2
f 2 5 6
f 2 6 7
f 3 8 15
f 3 15 20
f 3 20 26
f 3 26 35
f 3 35 42
f 3 42 46
f 3 46 50
f 3 50 56
f 3 56 52
f 3 52 54
f 3 54 51
f 3 51 47
f 3 47 43
f 3 43 36
f 3 36 31
f 3 31 30
f 3 30 29
f 3 29 28
f 3 28 27
f 3 27 21
f 3 21 16
f 3 16 9
f 4 9 16
f 4 16 10
f 5 11 6
f 6 12 7
f 6 11 13
f 6 13 14
f 6 14 12
f 7 12 15
f 7 15 8
f 10 16 21
f 10 21 17
f 12 14 15
f 13 18 14
f 14 18 19
f 14 19 20
f 14 20 15
f 17 21 27
f 17 27 22
f 18 23 19
f 19 24 25
f 19 25 20
f 19 23 24
f 20 25 26
f 22 27 28
f 22 28 29
f 22 29 30
f 22 30 31
f 22 31 32
f 24 33 34
f 24 34 25
f 25 34 26
f 26 34 35
f 31 36 32
f 32 36 37
f 33 38 34
f 34 38 35
f 35 38 39
f 35 39 40
f 35 40 41
f 35 41 42
f 36 43 37
f 37 43 44
f 41 45 46
f 41 46 42
f 43 47 44
f 44 47 48
f 45 49 46
f 46 49 50
f 47 51 48
f 48 52 53
f 48 51 54
f 48 54 52
f 49 55 50
f 50 55 57
f 50 57 56
f 52 56 57
f 52 57 53

