# https://github.com/mikedh/trimesh
v 4.27998664 -2.84283548 0.15100300
v 4.27998664 -2.95454962 0.15100300
v 4.29424722 -2.84283548 0.15068141
v 4.27998664 -2.74526990 0.15089578
v 4.29424722 -2.94010641 0.15068141
v 4.27998664 -3.03767199 0.15089578
v 4.29424722 -3.03767199 0.15057419
v 4.39173390 -2.84283548 0.14832276
v 4.29424722 -2.74526990 0.15057419
v 4.27998664 -2.66185289 0.15057419
v 4.39173390 -2.94010641 0.14832276
v 4.27998664 -3.13523756 0.15046697
v 4.29424722 -3.13523756 0.15014531
v 4.39173390 -3.03767199 0.14810832
v 4.48065640 -2.84283548 0.14596411
v 4.39173390 -2.74526990 0.14810832
v 4.48065640 -2.64770432 0.14542800
v 4.39173390 -2.64770432 0.14767951
v 4.29424722 -2.64770432 0.15014531
v 4.29424722 -2.55013875 0.14960927
v 4.27998664 -2.56458210 0.15003808
v 4.48065640 -2.94865448 0.14596411
v 4.27998664 -3.23280314 0.14982371
v 4.29424722 -3.23280314 0.14950205
v 4.39173390 -3.13523756 0.14725062
v 4.48065640 -2.74526990 0.14574967
v 4.48065640 -2.55013875 0.14489197
v 4.39173390 -2.55013875 0.14714340
v 4.29424722 -2.45257317 0.14896602
v 4.27998664 -2.46701652 0.14939483
v 4.48065640 -3.04622005 0.14435594
v 4.27998664 -3.24695156 0.14971649
v 4.27998664 -3.33007379 0.14896602
v 4.29424722 -3.33007379 0.14853713
v 4.48065640 -2.46141602 0.14424872
v 4.39173390 -2.45257317 0.14650014
v 4.27998664 -2.45257317 0.14928761
v 4.27998664 -1.77049864 0.14371268
v 4.29424722 -3.42763951 0.14607133
v 4.48065640 -3.14378563 0.14081792
v 4.27998664 -3.34451714 0.14875157
v 4.27998664 -3.44208271 0.14639292
v 4.48065640 -2.35530238 0.14339102
v 4.48065640 -1.96562979 0.13878094
v 4.48065640 -1.87661228 0.13749443
v 4.48065640 -1.77049864 0.13577903
v 4.48065640 -1.67293306 0.13417086
v 4.48065640 -1.58421019 0.13266990
v 4.48065640 -1.47809655 0.13074014
v 4.48065640 -1.38907904 0.12902474
v 4.27998664 -1.68737627 0.14210451
v 4.48065640 -2.25773680 0.14242610
v 4.48065640 -2.16017123 0.14135403
v 4.27998664 -3.64811993 0.13910260
v 4.29424722 -3.64811993 0.13781602
v 4.48065640 -3.64811993 0.11926849
v 4.48065640 -1.29151346 0.12709490
v 4.48065640 -1.18539982 0.12495070
v 4.48065640 -1.08812888 0.12291371
v 4.48065640 -0.99911137 0.12098389
v 4.48065640 -0.90154580 0.11883968
v 4.48065640 -0.69786658 0.11422960
v 4.35496281 -0.63714619 0.11605218
v 4.29424722 -0.89299773 0.12344974
v 4.29424722 -0.63714619 0.11755313
v 4.27998664 -0.63714619 0.11787476
v 4.27998664 -3.64811993 -0.94405189
v 4.48065640 -3.64811993 -0.94405189
v 4.48065640 -0.63714619 0.11272861
v 4.45254771 -0.63714619 0.11347912
v 4.39173390 -0.63714619 0.11508726
v 4.27998664 -0.63714619 -0.94405189
v 4.48065640 -0.63714619 -0.94405189
f 1 2 5
f 1 5 3
f 1 3 9
f 1 9 4
f 1 4 10
f 1 10 21
f 1 21 30
f 1 30 37
f 1 37 38
f 1 38 51
f 1 51 66
f 1 66 72
f 1 72 67
f 1 67 54
f 1 54 42
f 1 42 41
f 1 41 33
f 1 33 32
f 1 32 23
f 1 23 12
f 1 12 6
f 1 6 2
f 2 6 7
f 2 7 5
f 3 5 11
f 3 11 8
f 3 8 9
f 4 9 10
f 5 7 11
f 6 12 13
f 6 13 7
f 7 13 14
f 7 14 11
f 8 11 22
f 8 22 15
f 8 15 26
f 8 26 16
f 8 16 9
f 9 16 10
f 10 16 17
f 10 17 18
f 10 18 19
f 10 19 20
f 10 20 21
f 11 14 22
f 12 23 24
f 12 24 13
f 13 24 14
f 14 24 25
f 14 25 22
f 15 22 31
f 15 31 40
f 15 40 56
f 15 56 68
f 15 68 73
f 15 73 69
f 15 69 62
f 15 62 61
f 15 61 60
f 15 60 59
f 15 59 58
f 15 58 57
f 15 57 50
f 15 50 49
f 15 49 48
f 15 48 47
f 15 47 46
f 15 46 45
f 15 45 44
f 15 44 53
f 15 53 52
f 15 52 43
f 15 43 35
f 15 35 27
f 15 27 17
f 15 17 26
f 16 26 17
f 17 27 28
f 17 28 18
f 18 28 20
f 18 20 19
f 20 28 36
f 20 36 29
f 20 29 30
f 20 30 21
f 22 25 31
f 23 32 24
f 24 32 33
f 24 33 34
f 24 34 25
f 25 34 31
f 27 35 36
f 27 36 28
f 29 37 30
f 29 36 38
f 29 38 37
f 31 34 39
f 31 39 40
f 33 41 34
f 34 41 42
f 34 42 39
f 35 43 36
f 36 43 38
f 38 44 45
f 38 45 46
f 38 46 47
f 38 47 48
f 38 48 49
f 38 49 50
f 38 50 51
f 38 43 52
f 38 52 53
f 38 53 44
f 39 42 54
f 39 54 40
f 40 54 55
f 40 55 56
f 50 57 51
f 51 57 58
f 51 58 59
f 51 59 60
f 51 60 61
f 51 61 62
f 51 62 63
f 51 63 64
f 51 64 65
f 51 65 66
f 54 67 68
f 54 68 56
f 54 56 55
f 62 69 70
f 62 70 71
f 62 71 63
f 63 71 70
f 63 70 69
f 63 69 73
f 63 73 72
f 63 72 66
f 63 66 65
f 63 65 64
f 67 72 73
f 67 73 68

