# https://github.com/mikedh/trimesh
v -2.04317671 -6.47363596 -0.94416100
v -2.11742674 -6.47363596 -0.94165256
v -2.13764333 -6.35596712 -0.94100524
v -2.04317671 -6.35596712 -0.94416100
v -0.36556543 -6.47363596 -0.94408008
v -2.14058393 -6.47363596 -0.94084339
v -2.14058393 -6.35596712 -0.94084339
v -0.36556543 -6.35596712 -0.94408008
v -0.36556543 -6.47363596 -0.11750682
v -2.21630396 -6.47363596 -0.90151743
v -2.21391487 -6.35596712 -0.90281208
v -0.36556543 -6.35596712 -0.11750682
v -2.20472580 -6.47363596 -0.11750682
v -2.21630396 -6.35596712 -0.90151743
v -2.24313718 -6.47363596 -0.81671577
v -2.20968820 -6.35596712 -0.11750682
v -2.20729853 -6.44292868 -0.11750682
v -2.21262880 -6.47363596 -0.12810702
v -2.24313718 -6.35596712 -0.81671577
v -2.24313718 -6.47363596 -0.23184338
v -2.21850999 -6.35596712 -0.13401400
v -2.20766640 -6.43191743 -0.11750682
v -2.24313718 -6.35596712 -0.23184338
v -2.21942878 -6.35596712 -0.13741254
f 1 2 3
f 1 3 4
f 1 4 8
f 1 8 5
f 1 5 9
f 1 9 13
f 1 13 18
f 1 18 20
f 1 20 15
f 1 15 10
f 1 10 6
f 1 6 2
f 2 6 3
f 3 6 7
f 3 7 11
f 3 11 14
f 3 14 19
f 3 19 23
f 3 23 24
f 3 24 21
f 3 21 16
f 3 16 12
f 3 12 8
f 3 8 4
f 5 8 12
f 5 12 9
f 6 10 11
f 6 11 7
f 9 12 16
f 9 16 22
f 9 22 17
f 9 17 13
f 10 14 11
f 10 15 19
f 10 19 14
f 13 17 18
f 15 20 23
f 15 23 19
f 16 21 18
f 16 18 22
f 17 22 18
f 18 21 20
f 20 21 24
f 20 24 23

