# https://github.com/mikedh/trimesh
v 2.09675154 -4.09552857 -0.94415970
v 2.09675154 -3.56037549 -0.94415970
v 2.24683725 -4.09552857 -0.94415970
v 2.09675154 -4.09552857 0.09704297
v 2.24683725 -3.56037549 -0.94415970
v 2.09675154 -3.56037549 0.10536654
v 2.43781448 -3.51199522 -0.25319546
v 2.43826386 -3.51199522 -0.94405160
v 2.43781448 -4.09552857 -0.94405160
v 3.62696632 -4.09547144 -0.94394351
v 2.43781448 -4.09552857 0.09639438
v 3.62636716 -4.09547144 0.14374145
v 3.61168816 -4.09547144 0.14374145
v 3.52885650 -4.09547144 0.14222804
v 3.51402756 -4.09547144 0.14190376
v 3.43149549 -4.09547144 0.13963370
v 3.41666669 -4.09547144 0.13920129
v 3.33383497 -4.09547144 0.13671504
v 3.41666669 -3.52541836 0.15833470
v 3.41666669 -3.51199522 0.15876710
v 3.31915589 -3.51199522 0.15541604
v 3.23497612 -3.51199522 0.15206501
v 2.63688023 -3.51199522 -0.94405160
v 3.62696632 -3.51199522 -0.94394351
v 3.22164516 -3.51199522 0.15152451
v 3.12413443 -3.51199522 0.14698438
v 3.02677345 -3.51199522 0.14179566
v 2.43781448 -3.51199522 0.10709610
v 3.62696632 -4.09547144 0.13660695
v 3.62696632 -4.09507161 0.14374145
v 3.62696632 -4.08256242 0.14417382
v 3.61168816 -4.01276233 0.14633579
v 3.51402756 -3.72042450 0.15411885
v 3.51402756 -3.62292140 0.15714560
v 3.51402756 -3.52541836 0.15984807
v 3.51402756 -3.51199522 0.16017239
v 3.62696632 -3.51199522 0.15909138
v 3.62696632 -4.01276233 0.14633579
v 3.61168816 -3.91531636 0.14936254
v 3.61168816 -3.81781333 0.15228120
v 3.61168816 -3.72042450 0.15509176
v 3.61168816 -3.62292140 0.15736182
v 3.61168816 -3.52541836 0.15909138
v 3.61168816 -3.51199522 0.15930757
v 3.62696632 -3.52541836 0.15887520
v 3.62696632 -3.91531636 0.14925445
v 3.62696632 -3.81781333 0.15217310
v 3.62696632 -3.72042450 0.15487554
v 3.62696632 -3.62292140 0.15714560
f 1 2 5
f 1 5 3
f 1 3 9
f 1 9 11
f 1 11 4
f 1 4 6
f 1 6 2
f 2 6 28
f 2 28 7
f 2 7 8
f 2 8 23
f 2 23 5
f 3 5 24
f 3 24 10
f 3 10 9
f 4 11 12
f 4 12 13
f 4 13 14
f 4 14 15
f 4 15 16
f 4 16 17
f 4 17 18
f 4 18 19
f 4 19 20
f 4 20 21
f 4 21 22
f 4 22 6
f 5 23 24
f 6 22 25
f 6 25 26
f 6 26 27
f 6 27 28
f 7 28 27
f 7 27 26
f 7 26 25
f 7 25 22
f 7 22 21
f 7 21 20
f 7 20 36
f 7 36 44
f 7 44 37
f 7 37 24
f 7 24 23
f 7 23 8
f 9 10 29
f 9 29 11
f 10 24 37
f 10 37 45
f 10 45 49
f 10 49 48
f 10 48 47
f 10 47 46
f 10 46 38
f 10 38 31
f 10 31 30
f 10 30 29
f 11 29 12
f 12 29 30
f 12 30 31
f 12 31 13
f 13 32 33
f 13 33 14
f 13 31 32
f 14 33 15
f 15 33 19
f 15 19 16
f 16 19 17
f 17 19 18
f 19 33 20
f 20 33 34
f 20 34 35
f 20 35 36
f 31 38 39
f 31 39 32
f 32 39 33
f 33 39 34
f 34 39 40
f 34 40 41
f 34 41 35
f 35 41 36
f 36 41 42
f 36 42 43
f 36 43 44
f 37 44 43
f 37 43 45
f 38 46 39
f 39 46 47
f 39 47 40
f 40 47 41
f 41 47 48
f 41 48 49
f 41 49 42
f 42 49 45
f 42 45 43

