# https://github.com/mikedh/trimesh
v 0.50373638 -2.19185440 0.13610128
v 0.50373638 -2.15640846 0.13567831
v 0.49167791 -2.16035036 0.13546685
v -0.23385438 -2.12833638 0.11939404
v 0.46012361 -2.19185440 0.13514961
v 0.50373638 -2.19185440 -0.94405465
v 0.50373638 -2.14830075 0.13557258
v 0.42618647 -2.12833638 0.13366922
v -0.23385438 -2.12833638 -0.94416042
v -0.23385438 -2.16035036 0.11960550
v 0.39412686 -2.19185440 0.13366922
v -0.15919261 -2.19185440 -0.94416042
v 0.50373638 -2.12833638 -0.94405465
v 0.50373638 -2.12833638 0.13525535
v 0.49167791 -2.12833638 0.13504385
v -0.16431918 -2.12833638 -0.94416042
v -0.23385438 -2.19185440 -0.94416042
v -0.23385438 -2.19185440 0.11939404
f 1 2 3
f 1 3 4
f 1 4 5
f 1 5 11
f 1 11 18
f 1 18 17
f 1 17 12
f 1 12 6
f 1 6 13
f 1 13 14
f 1 14 7
f 1 7 2
f 2 7 8
f 2 8 3
f 3 8 4
f 4 9 17
f 4 17 18
f 4 18 10
f 4 10 5
f 4 8 15
f 4 15 14
f 4 14 13
f 4 13 16
f 4 16 9
f 5 10 11
f 6 12 13
f 7 14 15
f 7 15 8
f 9 16 12
f 9 12 17
f 10 18 11
f 12 16 13

