# https://github.com/mikedh/trimesh
v 4.48070826 -2.93992204 0.14589492
v 4.48070826 -2.94858532 0.14578821
v 4.48930805 -2.93992204 0.14557478
v 4.58685997 -2.84270181 0.14301371
v 4.48930805 -2.84270181 0.14557478
v 4.48070826 -2.65628290 0.14546807
v 4.48065640 -3.27682373 0.13394327
v 4.48070826 -3.04580541 0.14440094
v 4.78170462 -2.74483985 0.13597077
v 4.87915280 -2.64761977 0.13319628
v 4.68425629 -2.74483985 0.14002579
v 4.58685997 -2.74483985 0.14280028
v 4.58685997 -2.64729883 0.14248015
v 4.58685997 -2.55007860 0.14194658
v 4.48930805 -2.55007860 0.14461436
v 4.48070826 -2.55007860 0.14482779
v 4.48070826 -3.14334658 0.14087949
v 4.48070826 -2.45221664 0.14418751
v 4.48070826 -2.36333889 0.14344056
v 4.48070826 -2.26579772 0.14248015
v 4.48070826 -2.16825670 0.14141305
v 4.48070826 -2.15959342 0.14130634
v 4.48070826 -1.96483217 0.13874527
v 4.48070826 -1.86729129 0.13735800
v 4.48070826 -1.77905484 0.13597077
v 4.48070826 -1.68215555 0.13437012
v 4.48070826 -1.47873116 0.13074192
v 4.48070826 -1.38953233 0.12903455
v 4.48070826 -1.28364911 0.12690033
v 4.48070826 -1.19412949 0.12508625
v 4.48070826 -0.99070511 0.12081781
v 4.48070826 -0.80460699 0.11665605
v 4.48070826 -0.69840269 0.11420172
v 4.48070826 -0.54631551 0.11068024
v 4.48070826 -0.50332064 0.10961315
v 4.48070826 -0.42118069 0.06991660
v 4.48070826 -0.40321255 0.03278113
v 4.48070826 -0.37433544 -0.02836433
v 4.48070826 -0.37080586 -0.03690121
v 4.48065640 -3.27682373 -0.94405233
v 4.48065640 -3.64837825 0.11921712
v 5.00980908 -2.64761977 0.12700704
v 5.00980908 -2.61425040 0.12796742
v 5.00980908 -2.55007860 0.12882112
v 4.74191709 -2.68708534 0.13810499
v 4.74191709 -2.64729883 0.13799828
v 4.68425629 -2.64729883 0.13970565
v 4.68425629 -2.55007860 0.13917212
v 4.58685997 -2.45221664 0.14130634
v 4.48930805 -2.45221664 0.14397409
v 4.58685997 -2.35499655 0.14045264
v 4.58685997 -2.25745538 0.13949222
v 4.48930805 -2.25745538 0.14216001
v 4.48930805 -2.15959342 0.14109291
v 4.48930805 -1.96483217 0.13853184
v 4.48930805 -1.86729129 0.13714458
v 4.58685997 -1.77103358 0.13287614
v 4.58685997 -1.67349241 0.13127548
v 4.58685997 -1.57595154 0.12956811
v 4.58685997 -1.38118999 0.12593991
v 4.58685997 -1.28364911 0.12401912
v 4.48930805 -1.28364911 0.12668690
v 4.58685997 -1.08824599 0.11996411
v 4.48930805 -1.08824599 0.12263189
v 4.58685997 -0.89316394 0.11569567
v 4.48930805 -0.79562277 0.11622923
v 4.48930805 -0.69840269 0.11398830
v 4.53593406 -0.55433706 0.10939972
v 4.51344999 -0.50332064 0.10865273
v 5.00980908 -0.47251820 0.07984075
v 5.00980908 -0.41283835 0.05209585
v 4.86376626 -0.41251727 0.05444350
v 4.74202068 -0.41251727 0.05615087
v 4.58685997 -0.41283835 0.05849851
v 5.00980908 -0.37080586 -0.03700792
v 4.74191709 -0.37080586 -0.03690121
v 4.58685997 -0.40128722 0.03278113
v 4.61312585 -0.40128722 0.03278113
v 4.48070826 -0.37080586 -0.71899855
v 4.48065640 -3.64837825 -0.94405233
v 4.48070826 -0.37144773 -0.81663928
v 4.48070826 -0.41315914 -0.90456917
v 4.48070826 -0.50364143 -0.94394554
v 4.74191709 -0.50332064 -0.94405233
v 4.75611214 -3.64837825 0.09990243
v 4.78170462 -3.64837825 0.09798163
v 4.85361220 -3.64837825 0.09253935
v 5.00980908 -2.71211236 0.12401912
v 5.00991267 -3.27682373 0.09702122
v 4.97665286 -2.55007860 0.12999496
v 5.00980908 -2.51670924 0.12871441
v 4.86376626 -2.56547982 0.13372984
v 4.74191709 -2.55007860 0.13746472
v 4.74191709 -2.49232409 0.13703786
v 4.68425629 -2.35499655 0.13767814
v 4.68425629 -2.25745538 0.13671776
v 4.58685997 -2.15959342 0.13842513
v 4.58685997 -1.96483217 0.13586406
v 4.58685997 -1.86729129 0.13437012
v 4.68425629 -1.77103358 0.13010168
v 4.68425629 -1.67349241 0.12850099
v 4.68425629 -1.57595154 0.12679362
v 4.68425629 -1.38118999 0.12316545
v 4.68425629 -1.28364911 0.12124462
v 4.68425629 -1.08824599 0.11718961
v 4.68425629 -0.89316394 0.11292117
v 4.56302895 -0.61947124 0.11014667
v 4.68425629 -0.60086152 0.10619837
v 4.74191709 -0.60086152 0.10449100
v 4.74191709 -0.54342780 0.10299703
v 4.78170462 -0.50332064 0.10075609
v 4.74191709 -0.50332064 0.10192993
v 4.97665286 -0.50332064 0.09478028
v 5.00980908 -0.50332064 0.09371319
v 5.00980908 -0.39839951 0.02221674
v 5.00980908 -0.37080586 -0.71910526
v 4.74191709 -0.37080586 -0.77683598
v 5.00991267 -3.64837825 -0.94405233
v 4.74191709 -0.37112665 -0.81653249
v 4.74191709 -0.41315914 -0.90467589
v 5.00980908 -0.50332064 -0.94405233
v 4.87920467 -3.64837825 0.09051185
v 4.95111225 -3.64837825 0.08442932
v 5.00991267 -3.39457888 0.09147226
v 5.00991267 -3.27682373 -0.94405233
v 5.00980908 -0.69808160 0.09830177
v 5.00980908 -0.76225341 0.09979571
v 5.00980908 -0.86011537 0.10203665
v 5.00980908 -0.89316394 0.10278364
v 5.00980908 -1.16236438 0.10865273
v 5.00980908 -1.44632446 0.11420172
v 5.00980908 -1.54322376 0.11601581
v 5.00980908 -1.73862689 0.11932383
v 5.00980908 -1.83456351 0.12092452
v 5.00980908 -1.86697021 0.12145805
v 5.00980908 -2.02932477 0.12369898
v 5.00980908 -2.06173146 0.12412583
v 5.00980908 -2.15959342 0.12540639
v 5.00980908 -2.25745538 0.12647348
v 5.00980908 -2.32098546 0.12711376
v 5.00980908 -2.41916821 0.12796742
v 4.97665286 -2.45253757 0.12935469
v 4.86376626 -2.45253757 0.13298285
v 4.78170462 -2.45253757 0.13554392
v 4.74191709 -2.35499655 0.13597077
v 4.74191709 -2.25745538 0.13501036
v 4.74191709 -2.20002167 0.13437012
v 4.74191709 -2.10215971 0.13319628
v 4.68425629 -2.06205255 0.13437012
v 4.68425629 -1.96483217 0.13308956
v 4.68425629 -1.86729129 0.13159562
v 4.74191709 -1.77103358 0.12839427
v 4.74191709 -1.67349241 0.12679362
v 4.74191709 -1.57595154 0.12508625
v 4.74191709 -1.51787594 0.12401912
v 4.74191709 -1.38118999 0.12145805
v 4.74191709 -1.28364911 0.11953726
v 4.74191709 -1.22557352 0.11836345
v 4.74191709 -1.08824599 0.11548224
v 4.74191709 -0.93583802 0.11217418
v 4.74191709 -0.89765590 0.11132051
v 4.71891492 -0.76482033 0.10897287
v 4.68555152 -0.69423151 0.10833259
v 4.65389769 -0.72407129 0.10993325
v 4.62794258 -0.65893682 0.10918630
v 4.74191709 -0.69679843 0.10673194
v 4.87915280 -0.60086152 0.10022257
v 4.78170462 -0.69808160 0.10555810
v 5.00980908 -0.37112665 -0.81653249
v 5.00991267 -3.64837825 0.07877362
v 5.00980908 -0.41315914 -0.90467589
v 4.97670472 -3.64837825 0.08197497
v 5.00991267 -3.58966107 0.08186825
v 4.86376626 -0.79594356 0.10523796
v 4.86376626 -0.89765590 0.10758560
v 4.97540950 -1.08503748 0.10811917
v 4.87915280 -1.18578715 0.11324131
v 4.87915280 -1.28396991 0.11526882
v 4.97665286 -1.47905195 0.11590909
v 4.86376626 -1.57691391 0.12135134
v 4.86376626 -1.67413429 0.12305874
v 4.97665286 -1.77071250 0.12103123
v 4.86376626 -1.86664942 0.12604663
v 4.87915280 -1.96451138 0.12700704
v 4.97665286 -1.96451138 0.12391241
v 4.87915280 -2.06173146 0.12839427
v 4.86376626 -2.25745538 0.13116877
v 4.97665286 -2.25745538 0.12754061
v 4.97665286 -2.35499655 0.12850099
v 4.74191709 -2.00493962 0.13191576
v 4.74191709 -1.86729129 0.12988825
v 4.78170462 -1.47937274 0.12209833
v 4.87915280 -1.47905195 0.11900369
f 1 2 3
f 1 3 4
f 1 4 5
f 1 5 6
f 1 6 7
f 1 7 2
f 2 8 3
f 2 7 8
f 3 8 4
f 4 8 9
f 4 9 10
f 4 10 11
f 4 11 12
f 4 12 6
f 4 6 5
f 6 12 13
f 6 13 14
f 6 14 15
f 6 15 16
f 6 16 7
f 7 17 8
f 7 16 18
f 7 18 19
f 7 19 20
f 7 20 21
f 7 21 22
f 7 22 23
f 7 23 24
f 7 24 25
f 7 25 26
f 7 26 27
f 7 27 28
f 7 28 29
f 7 29 30
f 7 30 31
f 7 31 32
f 7 32 33
f 7 33 34
f 7 34 35
f 7 35 36
f 7 36 37
f 7 37 38
f 7 38 39
f 7 39 79
f 7 79 40
f 7 40 80
f 7 80 41
f 7 41 17
f 8 42 43
f 8 43 9
f 8 17 42
f 9 43 10
f 10 43 44
f 10 44 11
f 11 44 45
f 11 45 46
f 11 46 47
f 11 47 13
f 11 13 12
f 13 47 48
f 13 48 14
f 14 48 49
f 14 49 50
f 14 50 15
f 15 50 18
f 15 18 16
f 17 41 42
f 18 50 19
f 19 50 49
f 19 49 51
f 19 51 52
f 19 52 20
f 20 52 53
f 20 53 54
f 20 54 21
f 21 54 22
f 22 54 55
f 22 55 23
f 23 55 56
f 23 56 24
f 24 56 25
f 25 56 57
f 25 57 58
f 25 58 26
f 26 58 59
f 26 59 27
f 27 60 28
f 27 59 60
f 28 60 61
f 28 61 62
f 28 62 29
f 29 62 30
f 30 62 61
f 30 61 63
f 30 63 64
f 30 64 31
f 31 64 63
f 31 63 65
f 31 65 66
f 31 66 32
f 32 66 67
f 32 67 33
f 33 67 34
f 34 67 68
f 34 68 35
f 35 69 70
f 35 70 71
f 35 71 36
f 35 68 69
f 36 71 72
f 36 72 73
f 36 73 74
f 36 74 37
f 37 74 38
f 38 75 76
f 38 76 39
f 38 74 77
f 38 77 78
f 38 78 75
f 39 76 75
f 39 75 116
f 39 116 117
f 39 117 79
f 40 79 81
f 40 81 82
f 40 82 83
f 40 83 84
f 40 84 121
f 40 121 125
f 40 125 118
f 40 118 80
f 41 80 118
f 41 118 170
f 41 170 172
f 41 172 123
f 41 123 122
f 41 122 87
f 41 87 86
f 41 86 85
f 41 85 42
f 42 85 86
f 42 86 87
f 42 87 88
f 42 88 89
f 42 89 43
f 43 89 44
f 44 90 45
f 44 89 91
f 44 91 90
f 45 90 46
f 46 90 92
f 46 92 93
f 46 93 48
f 46 48 47
f 48 93 94
f 48 94 49
f 49 94 95
f 49 95 51
f 51 95 96
f 51 96 52
f 52 96 97
f 52 97 54
f 52 54 53
f 54 97 98
f 54 98 55
f 55 98 56
f 56 99 57
f 56 98 99
f 57 100 101
f 57 101 58
f 57 99 151
f 57 151 100
f 58 101 102
f 58 102 59
f 59 102 103
f 59 103 60
f 60 103 104
f 60 104 61
f 61 104 105
f 61 105 63
f 63 105 106
f 63 106 65
f 65 106 107
f 65 107 66
f 66 107 68
f 66 68 67
f 68 107 108
f 68 108 109
f 68 109 110
f 68 110 111
f 68 111 112
f 68 112 69
f 69 112 70
f 70 112 111
f 70 111 113
f 70 113 114
f 70 114 89
f 70 89 71
f 71 115 72
f 71 89 115
f 72 115 73
f 73 115 75
f 73 75 74
f 74 75 78
f 74 78 77
f 75 115 89
f 75 89 125
f 75 125 116
f 79 117 81
f 81 117 119
f 81 119 82
f 82 119 120
f 82 120 84
f 82 84 83
f 84 120 171
f 84 171 121
f 87 122 88
f 88 122 123
f 88 123 124
f 88 124 89
f 89 124 173
f 89 173 170
f 89 170 118
f 89 118 125
f 89 114 126
f 89 126 127
f 89 127 128
f 89 128 129
f 89 129 130
f 89 130 131
f 89 131 132
f 89 132 133
f 89 133 134
f 89 134 135
f 89 135 136
f 89 136 137
f 89 137 138
f 89 138 139
f 89 139 140
f 89 140 141
f 89 141 91
f 90 91 92
f 91 141 142
f 91 142 143
f 91 143 92
f 92 143 93
f 93 143 144
f 93 144 94
f 94 144 145
f 94 145 95
f 95 145 146
f 95 146 96
f 96 146 147
f 96 147 97
f 97 148 149
f 97 149 98
f 97 147 148
f 98 150 151
f 98 151 99
f 98 149 150
f 100 151 191
f 100 191 152
f 100 152 153
f 100 153 101
f 101 153 154
f 101 154 102
f 102 154 155
f 102 155 103
f 103 156 157
f 103 157 104
f 103 155 156
f 104 157 158
f 104 158 105
f 105 158 159
f 105 159 160
f 105 160 106
f 106 160 161
f 106 161 162
f 106 162 163
f 106 163 164
f 106 164 107
f 107 164 165
f 107 165 108
f 108 165 163
f 108 163 166
f 108 166 109
f 109 167 113
f 109 113 111
f 109 111 110
f 109 166 168
f 109 168 167
f 113 167 114
f 114 167 126
f 116 125 169
f 116 169 117
f 117 169 119
f 119 169 171
f 119 171 120
f 121 171 125
f 123 172 173
f 123 173 124
f 125 171 169
f 126 167 127
f 127 174 175
f 127 175 128
f 127 167 174
f 128 175 129
f 129 175 176
f 129 176 130
f 130 176 177
f 130 177 178
f 130 178 131
f 131 178 179
f 131 179 132
f 132 180 181
f 132 181 182
f 132 182 133
f 132 179 180
f 133 182 134
f 134 182 135
f 135 183 184
f 135 184 185
f 135 185 136
f 135 182 183
f 136 186 137
f 136 185 186
f 137 186 138
f 138 186 147
f 138 147 187
f 138 187 188
f 138 188 139
f 139 188 140
f 140 188 187
f 140 187 189
f 140 189 142
f 140 142 141
f 142 189 143
f 143 189 145
f 143 145 144
f 145 189 187
f 145 187 146
f 146 187 147
f 147 186 148
f 148 186 190
f 148 190 150
f 148 150 149
f 150 190 191
f 150 191 151
f 152 191 182
f 152 182 181
f 152 181 153
f 153 181 154
f 154 181 180
f 154 180 192
f 154 192 155
f 155 192 156
f 156 178 157
f 156 192 178
f 157 178 158
f 158 177 159
f 158 178 177
f 159 177 176
f 159 176 175
f 159 175 160
f 160 175 161
f 161 175 168
f 161 168 166
f 161 166 162
f 162 166 163
f 163 165 164
f 167 168 174
f 168 175 174
f 170 173 172
f 178 192 193
f 178 193 179
f 179 193 180
f 180 193 192
f 182 191 183
f 183 191 184
f 184 191 190
f 184 190 186
f 184 186 185

