# https://github.com/mikedh/trimesh
v 3.15357844 -8.59536399 -0.94415940
v 3.15357844 -8.62250696 -0.93231813
v 3.15357844 -8.57520812 -0.94415940
v 5.62774987 -8.59536399 -0.94407238
v 5.62774987 -8.65641330 -0.91751651
v 3.15357844 -8.68554233 -0.90480461
v 5.62774987 -8.68554233 -0.90480461
v 3.15357844 -8.57520812 -0.05467121
v 5.62774987 -8.57520812 -0.94407238
v 3.15357844 -8.69812849 -0.87833591
v 5.62774987 -8.72734673 -0.81677875
v 3.15357844 -8.68911057 -0.05467121
v 5.31363475 -8.57520812 -0.05467121
v 5.62774987 -8.57520812 -0.06616420
v 3.15357844 -8.72734673 -0.81677875
v 5.62774987 -8.72773494 -0.71926239
v 3.15357844 -8.72746616 -0.78743672
v 3.15357844 -8.72722731 -0.13433857
v 3.22187486 -8.72719738 -0.13433857
v 3.31947581 -8.72713781 -0.13433857
v 3.51443545 -8.72695853 -0.13433857
v 3.61179421 -8.72685392 -0.13433857
v 3.70939517 -8.72671967 -0.13433857
v 3.80675393 -8.72657032 -0.13433857
v 3.22187486 -8.68899114 -0.05467121
v 5.29571310 -8.59536399 -0.05467121
v 5.36667355 -8.59536399 -0.05719618
v 5.38677508 -8.57520812 -0.05728324
v 5.58173450 -8.57520812 -0.06442283
v 5.56163298 -8.59536399 -0.06433577
v 5.62774987 -8.59536399 -0.06686074
v 5.62774987 -8.72773494 -0.23185489
v 3.15357844 -8.72773494 -0.71926239
v 3.15357844 -8.72773494 -0.23185489
v 3.90435481 -8.72639133 -0.13433857
v 3.31947581 -8.68875229 -0.05467121
v 4.00195569 -8.72619723 -0.13433857
v 4.09931453 -8.72597319 -0.13433857
v 5.26907252 -8.59984287 -0.05467121
v 5.62774987 -8.66456531 -0.07696064
v 5.46403224 -8.57520812 -0.06006944
v 5.62774987 -8.70636971 -0.13433857
v 5.56163298 -8.70865419 -0.13433857
v 5.46403224 -8.71159537 -0.13433857
v 5.36667355 -8.71414834 -0.13433857
v 5.26907252 -8.71634333 -0.13433857
v 5.17171384 -8.71819456 -0.13433857
v 5.07411281 -8.71977702 -0.13433857
v 4.97651193 -8.72109099 -0.13433857
v 4.87915309 -8.72216611 -0.13433857
v 4.78155221 -8.72304684 -0.13433857
v 4.68419352 -8.72376339 -0.13433857
v 4.58659264 -8.72433088 -0.13433857
v 4.48923381 -8.72476383 -0.13433857
v 4.39163293 -8.72513722 -0.13433857
v 4.29427409 -8.72545074 -0.13433857
v 4.19691541 -8.72573434 -0.13433857
v 3.41683450 -8.68846840 -0.05467121
v 5.17171384 -8.61437005 -0.05467121
v 5.56163298 -8.66684951 -0.07574169
v 5.07411281 -8.62670225 -0.05467121
v 5.46403224 -8.66979097 -0.07391326
v 5.36667355 -8.67232912 -0.07217190
v 5.26907252 -8.67452382 -0.07043053
v 5.17171384 -8.67638988 -0.06877623
v 5.07411281 -8.67795781 -0.06712196
v 4.97651193 -8.67927149 -0.06555472
v 4.87915309 -8.68036142 -0.06398748
v 4.78155221 -8.68124244 -0.06250734
v 4.68419352 -8.68195899 -0.06102716
v 4.58659264 -8.68251137 -0.05963409
v 4.48923381 -8.68295943 -0.05832807
v 4.39163293 -8.68331771 -0.05702206
v 4.29427409 -8.68363124 -0.05580310
v 4.20393884 -8.68390002 -0.05467121
v 4.19691541 -8.68395959 -0.05467121
v 4.09931453 -8.68478074 -0.05467121
v 4.00195569 -8.68551241 -0.05467121
v 3.90435481 -8.68616939 -0.05467121
v 3.80675393 -8.68676652 -0.05467121
v 3.70939517 -8.68727415 -0.05467121
v 3.61179421 -8.68773703 -0.05467121
v 3.51443545 -8.68814005 -0.05467121
v 4.97651193 -8.63725788 -0.05467121
v 4.87915309 -8.64635048 -0.05467121
v 4.78155221 -8.65420378 -0.05467121
v 4.68419352 -8.66101190 -0.05467121
v 4.58659264 -8.66693929 -0.05467121
v 4.48923381 -8.67208998 -0.05467121
v 4.39163293 -8.67662902 -0.05467121
v 4.29427409 -8.68061539 -0.05467121
f 1 2 6
f 1 6 10
f 1 10 15
f 1 15 17
f 1 17 33
f 1 33 34
f 1 34 18
f 1 18 12
f 1 12 8
f 1 8 3
f 1 3 9
f 1 9 4
f 1 4 5
f 1 5 2
f 2 5 7
f 2 7 6
f 3 8 13
f 3 13 28
f 3 28 41
f 3 41 29
f 3 29 14
f 3 14 9
f 4 9 14
f 4 14 31
f 4 31 40
f 4 40 42
f 4 42 32
f 4 32 16
f 4 16 11
f 4 11 7
f 4 7 5
f 6 7 10
f 7 11 10
f 8 12 25
f 8 25 36
f 8 36 58
f 8 58 83
f 8 83 82
f 8 82 81
f 8 81 80
f 8 80 79
f 8 79 78
f 8 78 77
f 8 77 76
f 8 76 75
f 8 75 91
f 8 91 90
f 8 90 89
f 8 89 88
f 8 88 87
f 8 87 86
f 8 86 85
f 8 85 84
f 8 84 61
f 8 61 59
f 8 59 39
f 8 39 26
f 8 26 13
f 10 11 15
f 11 16 17
f 11 17 15
f 12 18 19
f 12 19 20
f 12 20 21
f 12 21 22
f 12 22 23
f 12 23 24
f 12 24 25
f 13 26 27
f 13 27 28
f 14 29 30
f 14 30 31
f 16 32 34
f 16 34 33
f 16 33 17
f 18 34 32
f 18 32 19
f 19 32 20
f 20 32 21
f 21 32 22
f 22 32 23
f 23 32 24
f 24 35 25
f 24 32 35
f 25 35 37
f 25 37 38
f 25 38 57
f 25 57 36
f 26 39 40
f 26 40 27
f 27 40 30
f 27 30 41
f 27 41 28
f 29 41 30
f 30 40 31
f 32 42 43
f 32 43 44
f 32 44 45
f 32 45 46
f 32 46 47
f 32 47 48
f 32 48 49
f 32 49 50
f 32 50 51
f 32 51 52
f 32 52 53
f 32 53 54
f 32 54 55
f 32 55 56
f 32 56 57
f 32 57 38
f 32 38 37
f 32 37 35
f 36 57 56
f 36 56 58
f 39 59 40
f 40 60 42
f 40 59 61
f 40 61 60
f 42 60 62
f 42 62 63
f 42 63 64
f 42 64 43
f 43 64 65
f 43 65 44
f 44 65 66
f 44 66 45
f 45 66 67
f 45 67 46
f 46 67 68
f 46 68 47
f 47 68 69
f 47 69 70
f 47 70 48
f 48 70 71
f 48 71 49
f 49 71 72
f 49 72 73
f 49 73 50
f 50 73 74
f 50 74 75
f 50 75 51
f 51 75 76
f 51 76 77
f 51 77 78
f 51 78 52
f 52 78 79
f 52 79 80
f 52 80 53
f 53 80 81
f 53 81 82
f 53 82 54
f 54 82 83
f 54 83 55
f 55 83 58
f 55 58 56
f 60 61 62
f 61 84 62
f 62 84 63
f 63 84 64
f 64 84 85
f 64 85 65
f 65 85 86
f 65 86 66
f 66 86 67
f 67 86 87
f 67 87 68
f 68 87 88
f 68 88 69
f 69 88 70
f 70 88 89
f 70 89 71
f 71 89 90
f 71 90 72
f 72 90 73
f 73 90 91
f 73 91 74
f 74 91 75

