# https://github.com/mikedh/trimesh
v 2.56763657 -2.74553243 0.16906485
v 2.56763657 -2.71701767 0.16895589
v 2.53920338 -2.74553243 0.16895589
v 2.56763657 -2.84274889 0.16590477
v 2.43764537 -2.64802047 0.16819310
v 2.56763657 -2.61965346 0.16852003
v 2.44172906 -2.74553243 0.16852003
v 2.17773929 -2.81423412 0.16437919
v 2.17773929 -2.84274889 0.16307158
v 2.56763657 -2.94011309 0.15849491
v 2.24678041 -2.64787285 0.16699445
v 2.43764537 -2.55050865 0.16764828
v 2.56763657 -2.55050865 0.16808414
v 2.17773929 -2.74553243 0.16677652
v 2.17773929 -3.56034825 0.10401054
v 2.56763657 -3.51188778 0.11251008
v 2.17773929 -2.64787285 0.16644963
v 2.24678041 -2.55050865 0.16644963
v 2.56763657 -2.45299653 0.16743035
v 2.53920338 -2.45299653 0.16732135
v 2.17773929 -3.56034825 -0.94415970
v 2.40482316 -3.56034825 0.10488226
v 2.43764537 -3.56034825 0.10488226
v 2.56763657 -3.51188778 -0.94405073
v 2.17773929 -2.55050865 0.16590477
v 2.53920338 -2.35548471 0.16634063
v 2.56763657 -2.32711756 0.16623166
v 2.56763657 -2.42462953 0.16721238
v 2.24678041 -3.56034825 -0.94415970
v 2.17773929 -2.06442623 -0.94415970
v 2.43764537 -3.56034825 -0.94405073
v 2.24823069 -2.06442623 -0.94415970
v 2.56763657 -2.05098144 -0.94405073
v 2.56763657 -2.22960559 0.16328950
v 2.56763657 -2.05098144 0.15587965
v 2.17773929 -2.45299653 0.15980252
v 2.17773929 -2.06442623 0.02064946
v 2.43764537 -2.05098144 -0.02653401
v 2.43798886 -2.05098144 -0.94405073
v 2.53920338 -2.05098144 0.15315542
v 2.17773929 -2.35843955 0.12929127
v 2.46810133 -2.05098144 0.12613118
v 2.43764537 -2.05098144 0.10194014
f 1 2 3
f 1 3 4
f 1 4 10
f 1 10 16
f 1 16 24
f 1 24 33
f 1 33 35
f 1 35 34
f 1 34 27
f 1 27 28
f 1 28 19
f 1 19 13
f 1 13 6
f 1 6 2
f 2 5 3
f 2 6 5
f 3 7 4
f 3 5 7
f 4 7 8
f 4 8 9
f 4 9 10
f 5 11 7
f 5 6 12
f 5 12 11
f 6 13 12
f 7 11 14
f 7 14 8
f 8 14 17
f 8 17 25
f 8 25 36
f 8 36 41
f 8 41 37
f 8 37 30
f 8 30 21
f 8 21 15
f 8 15 9
f 9 15 16
f 9 16 10
f 11 17 14
f 11 12 18
f 11 18 25
f 11 25 17
f 12 13 19
f 12 19 20
f 12 20 18
f 15 21 29
f 15 29 31
f 15 31 23
f 15 23 22
f 15 22 16
f 16 22 23
f 16 23 31
f 16 31 24
f 18 20 26
f 18 26 27
f 18 27 25
f 19 28 20
f 20 28 27
f 20 27 26
f 21 30 32
f 21 32 29
f 24 31 29
f 24 29 32
f 24 32 33
f 25 27 34
f 25 34 35
f 25 35 36
f 30 37 43
f 30 43 38
f 30 38 39
f 30 39 33
f 30 33 32
f 33 39 38
f 33 38 43
f 33 43 42
f 33 42 40
f 33 40 35
f 35 40 36
f 36 40 41
f 37 42 43
f 37 41 42
f 40 42 41

