# https://github.com/mikedh/trimesh
v -2.24303374 -3.43801862 -0.54908511
v -1.18380347 -3.43801862 -0.54908511
v -2.24303374 -3.43801862 -0.13430242
v -2.24303374 -0.99142631 -0.54908511
v -1.18380347 -3.43801862 0.08090439
v -1.18380347 -0.99142631 -0.54908511
v -2.22716847 -3.43801862 -0.04695672
v -2.22613171 -3.33024973 -0.03682787
v -2.22665009 -3.23277873 -0.03682787
v -2.22706503 -3.13530788 -0.03682787
v -2.22737594 -3.03783703 -0.03682787
v -2.22747938 -2.94012646 -0.03682787
v -2.24303374 -0.99142631 -0.13430242
v -1.27349830 -3.43801862 0.07809085
v -1.18380347 -3.34821126 0.08453077
v -1.26333640 -3.42772072 0.07884110
v -1.18380347 -0.99142631 0.06439812
v -2.22519839 -3.43801862 -0.03682787
v -2.22530183 -3.42772072 -0.03682787
v -2.19989707 -3.23277873 0.01900588
v -2.20031200 -3.13530788 0.01931850
v -2.20051947 -3.03783703 0.01950606
v -2.20072636 -2.94012646 0.01963112
v -2.22747938 -2.84265561 -0.03682787
v -2.22447254 -2.16059851 -0.03682787
v -2.21659163 -0.99142631 -0.04533109
v -2.22737594 -2.74518462 -0.03682787
v -2.22716847 -2.64771377 -0.03682787
v -2.22685756 -2.55024277 -0.03682787
v -2.22582021 -2.35530093 -0.03682787
v -2.22519839 -2.25782993 -0.03682787
v -1.37097032 -3.43801862 0.07483959
v -1.18380347 -3.33024973 0.08521856
v -1.26333640 -0.99142631 0.06077174
v -1.18380347 -1.00842975 0.06477325
v -2.20124532 -3.43801862 0.01225330
v -2.19927466 -3.33024973 0.01850566
v -2.14068795 -3.13530788 0.03019761
v -2.14068795 -3.03783703 0.03057277
v -2.14068795 -2.94012646 0.03082285
v -2.20072636 -2.84265561 0.01963112
v -2.22353922 -2.06288823 -0.03682787
v -2.21628071 -0.99142631 -0.04433072
v -2.19958615 -2.45277192 0.01869326
v -2.19896375 -2.35530093 0.01831809
v -2.19834192 -2.25782993 0.01781791
v -2.20051947 -2.74518462 0.01950606
v -2.20031200 -2.64771377 0.01931850
v -2.20000051 -2.55024277 0.01906839
v -1.46844233 -3.43801862 0.07108815
v -1.26333640 -3.33024973 0.08246749
v -1.18380347 -3.25074019 0.08753191
v -1.36080841 -0.99142631 0.05589487
v -1.26333640 -1.08793943 0.06283502
v -1.18380347 -1.08793943 0.06646140
v -2.19844537 -3.43801862 0.01788042
v -2.19854881 -3.42772072 0.01794296
v -2.14068795 -3.23277873 0.02957237
v -2.04321594 -3.13530788 0.03732532
v -2.04321594 -3.03783703 0.03770049
v -2.04321594 -2.94012646 0.03788805
v -2.14068795 -2.84265561 0.03082285
v -2.22260590 -1.96541709 -0.03682787
v -2.14151754 -0.99142631 0.00256212
v -2.19761607 -2.16059851 0.01725521
v -2.19678620 -2.06288823 0.01669248
v -2.19585288 -1.96541709 0.01600473
v -2.19481611 -1.86794624 0.01531695
v -2.19367532 -1.77047539 0.01450414
v -2.19097939 -1.57553340 0.01287854
v -2.19004607 -1.50871680 0.01225330
v -2.18579470 -1.44357652 0.01144049
v -2.14068795 -2.64771377 0.03026015
v -2.14068795 -2.55024277 0.02975993
v -2.14068795 -2.45277192 0.02907218
v -2.14068795 -2.74518462 0.03063528
v -1.56601808 -3.43801862 0.06614878
v -1.36080841 -3.33024973 0.07846597
v -1.45828042 -3.33024973 0.07371417
v -1.55585617 -3.42772072 0.06689908
v -1.18380347 -3.23277873 0.08796959
v -1.45828042 -0.99142631 0.05070543
v -1.36080841 -1.08793943 0.05795816
v -1.26333640 -1.18541028 0.06489830
v -1.18380347 -1.18541028 0.06852469
v -2.14659849 -3.43801862 0.02644621
v -2.14068795 -3.33024973 0.02869706
v -2.04321594 -3.23277873 0.03663757
v -1.94574393 -3.23277873 0.04364023
v -1.94574393 -3.13530788 0.04426547
v -1.94574393 -3.03783703 0.04470314
v -1.94574393 -2.94012646 0.04489071
v -2.04321594 -2.84265561 0.03788805
v -2.14058422 -0.99142631 0.00312481
v -2.14068795 -2.35530093 0.02825938
v -2.14068795 -2.25782993 0.02725901
v -2.14068795 -2.16059851 0.02619610
v -2.14068795 -2.06288823 0.02494562
v -2.14068795 -1.96541709 0.02363263
v -2.14068795 -1.86794624 0.02219458
v -2.14068795 -1.77047539 0.02069399
v -2.14068795 -1.67300454 0.01906839
v -2.14068795 -1.57553340 0.01738023
v -2.14825766 -1.47686510 0.01500433
v -2.12865970 -1.38059170 0.01462920
v -2.11538692 -1.28288113 0.01362883
v -2.10169920 -1.18541028 0.01262842
v -2.09381858 -1.13032846 0.01206573
v -2.08417506 -1.06542761 0.01137795
v -2.07328701 -0.99142631 0.01056514
v -2.04321594 -2.64771377 0.03732532
v -2.04321594 -2.55024277 0.03682514
v -2.04321594 -2.45277192 0.03613739
v -2.04321594 -2.74518462 0.03770049
v -1.65332789 -3.43801862 0.06089679
v -1.65332789 -3.42772072 0.06108436
v -1.26333640 -3.23277873 0.08459332
v -1.36080841 -3.23277873 0.07977896
v -1.45828042 -3.23277873 0.07458948
v -1.55585617 -3.33024973 0.06814956
v -1.18380347 -3.15326934 0.08884494
v -1.45942092 -0.99142631 0.05064288
v -1.45828042 -1.08793943 0.05276871
v -1.36080841 -1.18541028 0.06002144
v -1.36080841 -1.28288113 0.06202221
v -1.26333640 -1.28288113 0.06683653
v -1.18380347 -1.30108202 0.07090059
v -1.18380347 -1.20361117 0.06889981
v -2.14068795 -3.43801862 0.02738403
v -2.04321594 -3.33024973 0.03576222
v -1.94574393 -3.33024973 0.04276491
v -1.84816847 -3.23277873 0.05039281
v -1.84816847 -3.13530788 0.05101805
v -1.84816847 -3.03783703 0.05145569
v -1.84816847 -2.94012646 0.05164329
v -1.94574393 -2.84265561 0.04489071
v -2.04321594 -2.35530093 0.03532458
v -2.04321594 -2.25782993 0.03432418
v -2.04321594 -2.16059851 0.03326130
v -2.04321594 -2.06288823 0.03207333
v -2.04321594 -1.86794624 0.02932230
v -2.04321594 -1.77047539 0.02775920
v -2.04321594 -1.67300454 0.02613359
v -2.04321594 -1.57553340 0.02444543
v -2.04321594 -1.47806255 0.02269477
v -2.04321594 -1.38059170 0.02081905
v -2.04321594 -1.28288113 0.01888082
v -2.04321594 -1.18541028 0.01688005
v -2.02465503 -0.99142631 0.01412901
v -1.94574393 -2.64771377 0.04432798
v -1.94574393 -2.55024277 0.04382779
v -1.94574393 -2.45277192 0.04307750
v -1.94574393 -2.74518462 0.04470314
v -1.66349009 -3.43801862 0.06027155
v -1.65332789 -3.33024973 0.06220978
v -1.75069646 -3.33024973 0.05601993
v -1.75069646 -3.43801862 0.05470694
v -1.26333640 -3.13530788 0.08528107
v -1.36080841 -3.13530788 0.08046675
v -1.55585617 -3.23277873 0.06902487
v -1.45828042 -3.13530788 0.07521476
v -1.65332789 -3.23277873 0.06314764
v -1.18380347 -3.13530788 0.08896996
v -1.55585617 -0.99142631 0.04514082
v -1.55585617 -1.08793943 0.04720410
v -1.45828042 -1.18541028 0.05483199
v -1.45828042 -1.28288113 0.05683273
v -1.36080841 -1.38059170 0.06396044
v -1.26333640 -1.38059170 0.06877480
v -1.18380347 -1.38059170 0.07246369
v -2.04321594 -3.43801862 0.03444923
v -1.94574393 -3.42772072 0.04157694
v -1.84816847 -3.43801862 0.04820447
v -1.84816847 -3.33024973 0.04951746
v -1.75069646 -3.23277873 0.05689528
v -1.75069646 -3.13530788 0.05752052
v -1.75069646 -3.03783703 0.05795816
v -1.75069646 -2.94012646 0.05814576
v -1.84816847 -2.84265561 0.05164329
v -1.94574393 -2.35530093 0.04226469
v -1.94574393 -2.25782993 0.04132683
v -1.94574393 -2.16059851 0.04026395
v -1.94574393 -2.06288823 0.03901347
v -1.94574393 -1.96541709 0.03770049
v -1.94574393 -1.86794624 0.03626240
v -1.94574393 -1.77047539 0.03476185
v -1.94574393 -1.67300454 0.03313624
v -1.94574393 -1.57553340 0.03144809
v -1.94574393 -1.38059170 0.02782171
v -1.94574393 -1.28288113 0.02588348
v -1.94574393 -1.18541028 0.02388270
v -1.94678098 -0.99142631 0.01969363
v -1.94574393 -1.08793943 0.02181942
v -1.84816847 -2.64771377 0.05108056
v -1.84816847 -2.55024277 0.05058037
v -1.84816847 -2.45277192 0.04989259
v -1.84816847 -2.74518462 0.05145569
v -1.26333640 -3.03783703 0.08571874
v -1.36080841 -3.03783703 0.08084188
v -1.45828042 -3.03783703 0.07565240
v -1.55585617 -3.13530788 0.06965011
v -1.65332789 -3.13530788 0.06377288
v -1.18380347 -3.05579849 0.08928258
v -1.65436494 -0.99142631 0.03920104
v -1.65332789 -1.08793943 0.04132683
v -1.55585617 -1.18541028 0.04926738
v -1.55585617 -1.28288113 0.05126812
v -1.55585617 -1.38059170 0.05320635
v -1.45828042 -1.47806255 0.06058417
v -1.36080841 -1.57553340 0.06758683
v -1.26333640 -1.47806255 0.07065048
v -1.18380347 -1.47806255 0.07433941
v -1.95590612 -3.43801862 0.04070159
v -1.65332789 -3.03783703 0.06414801
v -1.65332789 -2.94012646 0.06439812
v -1.75069646 -2.84265561 0.05814576
v -1.84816847 -2.35530093 0.04907978
v -1.84816847 -2.25782993 0.04807941
v -1.84816847 -2.16059851 0.04701650
v -1.84816847 -2.06288823 0.04582856
v -1.84816847 -1.86794624 0.04307750
v -1.84816847 -1.77047539 0.04151443
v -1.84816847 -1.67300454 0.03988879
v -1.84816847 -1.57553340 0.03820067
v -1.84816847 -1.38059170 0.03457429
v -1.84816847 -1.28288113 0.03263606
v -1.84816847 -1.18541028 0.03063528
v -1.84930897 -0.99142631 0.02644621
v -1.84816847 -1.08793943 0.02857200
v -1.75069646 -2.64771377 0.05758303
v -1.75069646 -2.55024277 0.05708284
v -1.75069646 -2.45277192 0.05639509
v -1.75069646 -2.74518462 0.05795816
v -1.18380347 -3.03783703 0.08934512
v -1.18380347 -2.95832750 0.08953269
v -1.26333640 -2.94012646 0.08590631
v -1.36080841 -2.94012646 0.08102944
v -1.55585617 -3.03783703 0.07008778
v -1.45828042 -2.94012646 0.07583996
v -1.75173322 -0.99142631 0.03294868
v -1.75069646 -1.08793943 0.03507447
v -1.65332789 -1.18541028 0.04339012
v -1.65332789 -1.28288113 0.04539089
v -1.65332789 -1.47806255 0.04914233
v -1.55585617 -1.57553340 0.05683273
v -1.45828042 -1.57553340 0.06239734
v -1.36080841 -1.67300454 0.06927498
v -1.26333640 -1.67300454 0.07415184
v -1.18380347 -1.57553340 0.07609007
v -1.55585617 -2.94012646 0.07027535
v -1.65332789 -2.84265561 0.06439812
v -1.75069646 -2.35530093 0.05558225
v -1.75069646 -2.25782993 0.05458188
v -1.75069646 -2.16059851 0.05351897
v -1.75069646 -2.06288823 0.05233104
v -1.75069646 -1.96541709 0.05101805
v -1.75069646 -1.86794624 0.04958000
v -1.75069646 -1.67300454 0.04645380
v -1.75069646 -1.47806255 0.04295248
v -1.75069646 -1.38059170 0.04107676
v -1.75069646 -1.28288113 0.03913853
v -1.75069646 -1.18541028 0.03713776
v -1.65332789 -2.64771377 0.06383539
v -1.65332789 -2.55024277 0.06327269
v -1.65332789 -2.45277192 0.06258494
v -1.65332789 -2.74518462 0.06421055
v -1.18380347 -2.84265561 0.08953269
v -1.26333640 -2.84265561 0.08590631
v -1.36080841 -2.84265561 0.08102944
v -1.45828042 -2.84265561 0.07583996
v -1.65332789 -1.57553340 0.05095550
v -1.55585617 -1.67300454 0.05852089
v -1.45828042 -1.67300454 0.06408550
v -1.36080841 -1.77047539 0.07090059
v -1.18380347 -1.59349486 0.07640269
v -1.26333640 -1.77047539 0.07577745
v -1.18380347 -1.69096600 0.07809085
v -1.55585617 -2.84265561 0.07027535
v -1.65332789 -2.35530093 0.06177210
v -1.65332789 -2.25782993 0.06083428
v -1.65332789 -2.16059851 0.05970882
v -1.65332789 -2.06288823 0.05852089
v -1.65332789 -1.96541709 0.05720790
v -1.65332789 -1.86794624 0.05576985
v -1.65332789 -1.77047539 0.05426926
v -1.65332789 -1.67300454 0.05264366
v -1.55585617 -2.64771377 0.06971266
v -1.55585617 -2.55024277 0.06921243
v -1.55585617 -2.45277192 0.06852469
v -1.55585617 -2.74518462 0.07008778
v -1.18380347 -2.76338565 0.08940763
v -1.26333640 -2.74518462 0.08571874
v -1.36080841 -2.74518462 0.08084188
v -1.45828042 -2.74518462 0.07565240
v -1.55585617 -1.77047539 0.06014650
v -1.45828042 -1.77047539 0.06571111
v -1.36080841 -1.86794624 0.07240118
v -1.26333640 -1.86794624 0.07727804
v -1.18380347 -1.86794624 0.08096693
v -1.18380347 -1.78843685 0.07971645
v -1.55585617 -2.35530093 0.06771188
v -1.55585617 -2.25782993 0.06671151
v -1.55585617 -2.16059851 0.06564860
v -1.55585617 -2.06288823 0.06439812
v -1.55585617 -1.96541709 0.06308513
v -1.55585617 -1.86794624 0.06164709
v -1.45828042 -2.64771377 0.07527727
v -1.45828042 -2.55024277 0.07477708
v -1.45828042 -2.45277192 0.07408930
v -1.18380347 -2.66567522 0.08909501
v -1.18380347 -2.64771377 0.08903250
v -1.26333640 -2.64771377 0.08534357
v -1.36080841 -2.64771377 0.08052926
v -1.45828042 -1.86794624 0.06721170
v -1.36080841 -1.96541709 0.07383922
v -1.26333640 -1.96541709 0.07871609
v -1.18380347 -2.06288823 0.08371797
v -1.45828042 -2.35530093 0.07327649
v -1.45828042 -2.25782993 0.07227612
v -1.45828042 -2.16059851 0.07121321
v -1.45828042 -2.06288823 0.06996273
v -1.45828042 -1.96541709 0.06864974
v -1.36080841 -2.55024277 0.07996656
v -1.36080841 -2.45277192 0.07927878
v -1.18380347 -2.56820423 0.08859483
v -1.26333640 -2.55024277 0.08484339
v -1.36080841 -2.06288823 0.07515221
v -1.26333640 -2.06288823 0.08002907
v -1.26333640 -2.16059851 0.08127955
v -1.18380347 -2.16059851 0.08490594
v -1.36080841 -2.35530093 0.07846597
v -1.36080841 -2.25782993 0.07752812
v -1.36080841 -2.16059851 0.07640269
v -1.26333640 -2.45277192 0.08415564
v -1.18380347 -2.55024277 0.08846977
v -1.26333640 -2.25782993 0.08234247
v -1.18380347 -2.25782993 0.08603136
v -1.26333640 -2.35530093 0.08328029
v -1.18380347 -2.45277192 0.08778202
v -1.18380347 -2.35530093 0.08696922
v -1.18380347 -2.27579153 0.08621893
f 1 2 5
f 1 5 14
f 1 14 32
f 1 32 50
f 1 50 77
f 1 77 115
f 1 115 154
f 1 154 157
f 1 157 173
f 1 173 213
f 1 213 171
f 1 171 129
f 1 129 86
f 1 86 56
f 1 56 36
f 1 36 18
f 1 18 7
f 1 7 3
f 1 3 13
f 1 13 4
f 1 4 6
f 1 6 2
f 2 6 17
f 2 17 35
f 2 35 55
f 2 55 85
f 2 85 128
f 2 128 127
f 2 127 170
f 2 170 212
f 2 212 249
f 2 249 275
f 2 275 277
f 2 277 300
f 2 300 299
f 2 299 317
f 2 317 330
f 2 330 337
f 2 337 341
f 2 341 340
f 2 340 339
f 2 339 335
f 2 335 325
f 2 325 311
f 2 311 310
f 2 310 291
f 2 291 267
f 2 267 235
f 2 235 234
f 2 234 203
f 2 203 163
f 2 163 121
f 2 121 81
f 2 81 52
f 2 52 33
f 2 33 15
f 2 15 5
f 3 7 8
f 3 8 9
f 3 9 10
f 3 10 11
f 3 11 12
f 3 12 24
f 3 24 13
f 4 13 26
f 4 26 43
f 4 43 64
f 4 64 94
f 4 94 110
f 4 110 149
f 4 149 192
f 4 192 228
f 4 228 240
f 4 240 204
f 4 204 164
f 4 164 122
f 4 122 82
f 4 82 53
f 4 53 34
f 4 34 17
f 4 17 6
f 5 15 16
f 5 16 14
f 7 18 19
f 7 19 8
f 8 20 21
f 8 21 9
f 8 19 20
f 9 21 10
f 10 21 11
f 11 21 22
f 11 22 23
f 11 23 12
f 12 23 41
f 12 41 24
f 13 25 26
f 13 24 27
f 13 27 28
f 13 28 29
f 13 29 30
f 13 30 31
f 13 31 25
f 14 16 32
f 15 33 16
f 16 33 32
f 17 34 35
f 18 36 19
f 19 36 37
f 19 37 20
f 20 37 38
f 20 38 21
f 21 38 39
f 21 39 40
f 21 40 22
f 22 40 23
f 23 40 62
f 23 62 41
f 24 41 27
f 25 42 43
f 25 43 26
f 25 31 44
f 25 44 45
f 25 45 46
f 25 46 42
f 27 41 28
f 28 41 47
f 28 47 48
f 28 48 29
f 29 48 49
f 29 49 30
f 30 49 44
f 30 44 31
f 32 33 51
f 32 51 50
f 33 52 51
f 34 53 83
f 34 83 54
f 34 54 35
f 35 54 55
f 36 56 57
f 36 57 37
f 37 58 38
f 37 57 58
f 38 59 60
f 38 60 39
f 38 58 59
f 39 60 40
f 40 60 61
f 40 61 93
f 40 93 62
f 41 62 47
f 42 63 43
f 42 46 63
f 43 63 46
f 43 46 65
f 43 65 66
f 43 66 67
f 43 67 68
f 43 68 69
f 43 69 70
f 43 70 71
f 43 71 72
f 43 72 64
f 44 49 73
f 44 73 45
f 45 73 74
f 45 74 46
f 46 74 75
f 46 75 65
f 47 76 48
f 47 62 76
f 48 76 49
f 49 76 73
f 50 51 78
f 50 78 79
f 50 79 80
f 50 80 77
f 51 52 81
f 51 81 78
f 53 82 123
f 53 123 83
f 54 83 124
f 54 124 84
f 54 84 85
f 54 85 55
f 56 86 87
f 56 87 58
f 56 58 57
f 58 87 130
f 58 130 88
f 58 88 59
f 59 88 89
f 59 89 90
f 59 90 91
f 59 91 60
f 60 91 92
f 60 92 61
f 61 92 136
f 61 136 93
f 62 93 114
f 62 114 76
f 64 72 94
f 65 75 66
f 66 75 95
f 66 95 67
f 67 95 68
f 68 95 69
f 69 95 96
f 69 96 70
f 70 96 97
f 70 97 71
f 71 97 98
f 71 98 99
f 71 99 100
f 71 100 101
f 71 101 102
f 71 102 103
f 71 103 72
f 72 103 104
f 72 104 105
f 72 105 106
f 72 106 107
f 72 107 108
f 72 108 109
f 72 109 110
f 72 110 94
f 73 76 114
f 73 114 111
f 73 111 112
f 73 112 74
f 74 112 113
f 74 113 75
f 75 113 137
f 75 137 95
f 77 80 116
f 77 116 115
f 78 81 117
f 78 117 79
f 79 117 118
f 79 118 119
f 79 119 160
f 79 160 120
f 79 120 80
f 80 120 116
f 81 121 117
f 82 122 123
f 83 123 166
f 83 166 124
f 84 124 125
f 84 125 126
f 84 126 127
f 84 127 128
f 84 128 85
f 86 129 87
f 87 129 171
f 87 171 130
f 88 130 131
f 88 131 89
f 89 131 174
f 89 174 132
f 89 132 133
f 89 133 90
f 90 133 134
f 90 134 91
f 91 134 135
f 91 135 92
f 92 135 179
f 92 179 136
f 93 136 153
f 93 153 114
f 95 137 138
f 95 138 96
f 96 138 139
f 96 139 97
f 97 139 140
f 97 140 98
f 98 140 99
f 99 140 141
f 99 141 100
f 100 141 101
f 101 142 143
f 101 143 102
f 101 141 142
f 102 143 144
f 102 144 103
f 103 144 145
f 103 145 104
f 104 145 105
f 105 146 147
f 105 147 106
f 105 145 146
f 106 147 107
f 107 147 148
f 107 148 108
f 108 148 149
f 108 149 109
f 109 149 110
f 111 150 151
f 111 151 112
f 111 114 153
f 111 153 150
f 112 151 113
f 113 151 152
f 113 152 180
f 113 180 137
f 115 116 154
f 116 120 155
f 116 155 156
f 116 156 157
f 116 157 154
f 117 121 158
f 117 158 159
f 117 159 118
f 118 159 119
f 119 159 161
f 119 161 201
f 119 201 160
f 120 160 162
f 120 162 155
f 121 163 158
f 122 164 165
f 122 165 123
f 123 165 206
f 123 206 166
f 124 166 167
f 124 167 125
f 125 167 168
f 125 168 169
f 125 169 126
f 126 169 127
f 127 169 170
f 130 171 131
f 131 171 172
f 131 172 173
f 131 173 174
f 132 175 176
f 132 176 133
f 132 174 156
f 132 156 175
f 133 176 177
f 133 177 134
f 134 177 178
f 134 178 135
f 135 178 216
f 135 216 179
f 136 179 197
f 136 197 153
f 137 180 181
f 137 181 138
f 138 181 182
f 138 182 139
f 139 182 140
f 140 182 183
f 140 183 184
f 140 184 141
f 141 184 185
f 141 185 186
f 141 186 142
f 142 186 187
f 142 187 143
f 143 187 188
f 143 188 144
f 144 188 145
f 145 188 189
f 145 189 146
f 146 189 190
f 146 190 147
f 147 190 191
f 147 191 148
f 148 191 149
f 149 191 193
f 149 193 192
f 150 194 195
f 150 195 151
f 150 153 197
f 150 197 194
f 151 195 196
f 151 196 152
f 152 196 217
f 152 217 180
f 155 162 156
f 156 162 175
f 156 174 173
f 156 173 157
f 158 163 198
f 158 198 159
f 159 198 199
f 159 199 200
f 159 200 161
f 160 201 202
f 160 202 162
f 161 200 238
f 161 238 201
f 162 202 176
f 162 176 175
f 163 203 198
f 164 204 205
f 164 205 165
f 165 205 242
f 165 242 206
f 166 206 207
f 166 207 167
f 167 207 208
f 167 208 209
f 167 209 168
f 168 209 246
f 168 246 210
f 168 210 211
f 168 211 169
f 169 211 212
f 169 212 170
f 171 213 172
f 172 213 173
f 176 202 177
f 177 202 214
f 177 214 215
f 177 215 178
f 178 215 251
f 178 251 216
f 179 216 233
f 179 233 197
f 180 217 181
f 181 217 218
f 181 218 219
f 181 219 182
f 182 219 220
f 182 220 183
f 183 220 184
f 184 221 185
f 184 220 221
f 185 221 186
f 186 222 223
f 186 223 187
f 186 221 222
f 187 223 224
f 187 224 188
f 188 224 225
f 188 225 189
f 189 225 226
f 189 226 190
f 190 226 227
f 190 227 191
f 191 227 229
f 191 229 193
f 192 193 228
f 193 229 228
f 194 230 231
f 194 231 195
f 194 197 233
f 194 233 230
f 195 231 232
f 195 232 196
f 196 232 252
f 196 252 217
f 198 203 234
f 198 234 235
f 198 235 236
f 198 236 237
f 198 237 199
f 199 237 239
f 199 239 200
f 200 239 250
f 200 250 238
f 201 238 202
f 202 238 214
f 204 240 241
f 204 241 205
f 205 241 262
f 205 262 242
f 206 242 243
f 206 243 207
f 207 243 208
f 208 243 244
f 208 244 271
f 208 271 245
f 208 245 246
f 208 246 209
f 210 246 273
f 210 273 247
f 210 247 248
f 210 248 211
f 211 248 249
f 211 249 212
f 214 238 215
f 215 250 278
f 215 278 251
f 215 238 250
f 216 251 266
f 216 266 233
f 217 252 253
f 217 253 218
f 218 253 254
f 218 254 219
f 219 254 255
f 219 255 220
f 220 255 256
f 220 256 221
f 221 256 257
f 221 257 258
f 221 258 222
f 222 258 223
f 223 258 224
f 224 258 259
f 224 259 225
f 225 259 260
f 225 260 261
f 225 261 226
f 226 261 262
f 226 262 227
f 227 262 241
f 227 241 229
f 228 229 241
f 228 241 240
f 230 263 231
f 230 233 266
f 230 266 263
f 231 264 265
f 231 265 232
f 231 263 264
f 232 265 279
f 232 279 252
f 235 267 268
f 235 268 236
f 236 268 269
f 236 269 237
f 237 269 270
f 237 270 239
f 239 270 278
f 239 278 250
f 242 262 261
f 242 261 243
f 243 261 260
f 243 260 259
f 243 259 244
f 244 259 271
f 245 271 286
f 245 286 272
f 245 272 273
f 245 273 246
f 247 273 296
f 247 296 274
f 247 274 276
f 247 276 248
f 248 275 249
f 248 276 300
f 248 300 277
f 248 277 275
f 251 278 290
f 251 290 266
f 252 279 280
f 252 280 253
f 253 280 254
f 254 281 282
f 254 282 255
f 254 280 281
f 255 282 283
f 255 283 256
f 256 283 284
f 256 284 257
f 257 284 285
f 257 285 258
f 258 285 286
f 258 286 271
f 258 271 259
f 263 287 288
f 263 288 264
f 263 266 290
f 263 290 287
f 264 288 289
f 264 289 265
f 265 289 301
f 265 301 279
f 267 291 268
f 268 291 292
f 268 292 293
f 268 293 269
f 269 293 294
f 269 294 270
f 270 294 290
f 270 290 278
f 272 286 285
f 272 285 295
f 272 295 296
f 272 296 273
f 274 296 314
f 274 314 297
f 274 297 298
f 274 298 276
f 276 298 299
f 276 299 300
f 279 301 280
f 280 301 302
f 280 302 303
f 280 303 281
f 281 303 282
f 282 303 304
f 282 304 305
f 282 305 283
f 283 305 306
f 283 306 284
f 284 306 295
f 284 295 285
f 287 307 308
f 287 308 288
f 287 290 294
f 287 294 307
f 288 308 309
f 288 309 289
f 289 309 318
f 289 318 301
f 291 310 292
f 292 310 311
f 292 311 312
f 292 312 313
f 292 313 293
f 293 313 294
f 294 313 307
f 295 306 314
f 295 314 296
f 297 314 322
f 297 322 315
f 297 315 316
f 297 316 298
f 298 316 299
f 299 316 317
f 301 318 319
f 301 319 302
f 302 319 320
f 302 320 303
f 303 320 321
f 303 321 304
f 304 321 322
f 304 322 305
f 305 322 314
f 305 314 306
f 307 313 308
f 308 323 324
f 308 324 309
f 308 313 323
f 309 324 331
f 309 331 318
f 311 325 326
f 311 326 312
f 312 326 313
f 313 326 323
f 315 322 321
f 315 321 327
f 315 327 328
f 315 328 316
f 316 328 317
f 317 328 329
f 317 329 330
f 318 331 332
f 318 332 319
f 319 332 320
f 320 333 327
f 320 327 321
f 320 332 333
f 323 326 334
f 323 334 324
f 324 334 331
f 325 335 326
f 326 335 339
f 326 339 334
f 327 333 329
f 327 329 328
f 329 333 332
f 329 332 336
f 329 336 337
f 329 337 330
f 331 338 336
f 331 336 332
f 331 334 338
f 334 339 340
f 334 340 338
f 336 338 341
f 336 341 337
f 338 340 341

