# https://github.com/mikedh/trimesh
v 4.27998664 -0.63712033 -0.94415904
v 4.27998664 -0.50287606 -0.94415904
v 4.39173390 -0.63712033 -0.94415904
v 4.27998664 -0.63712033 0.11794448
v 4.39173390 -0.50287606 -0.94415904
v 4.27998664 -0.41269277 -0.90475645
v 4.48065640 -0.63712033 -0.94405509
v 4.35496281 -0.63712033 0.11607312
v 4.39173390 -0.60034197 0.11430571
v 4.39173390 -0.50287606 0.11201851
v 4.29424722 -0.50287606 0.11440970
v 4.27998664 -0.50287606 0.11472160
v 4.48065640 -0.41269277 -0.90475645
v 4.48065640 -0.49494111 -0.94062430
v 4.48065640 -0.50287606 -0.94405509
v 4.27998664 -0.40658465 -0.89196878
v 4.48065640 -0.40901209 -0.89706303
v 4.48065640 -0.63712033 0.11274625
v 4.39173390 -0.63712033 0.11513744
v 4.48065640 -0.60908647 0.11212246
v 4.48065640 -0.54604935 0.11066694
v 4.48065640 -0.50287606 0.10962731
v 4.44231388 -0.45398634 0.10941937
v 4.27998664 -0.45662271 0.11212246
v 4.39173390 -0.45210721 0.11014715
v 4.27998664 -0.37087676 -0.81669826
v 4.48065640 -0.37087676 -0.81669826
v 4.48065640 -0.42075820 0.06991279
v 4.48057780 -0.42057543 0.06980883
v 4.29424722 -0.44871390 0.11139472
v 4.27998664 -0.44827020 0.11149867
v 4.27998664 -0.37048536 -0.71917939
v 4.48065640 -0.37048536 -0.71917939
v 4.48065640 -0.42018403 0.06897711
v 4.39173390 -0.41029119 0.06065994
v 4.29424722 -0.40689788 0.06065994
v 4.27998664 -0.41256202 0.06824937
v 4.27998664 -0.37048536 -0.03685897
v 4.48065640 -0.37048536 -0.03685897
v 4.48065640 -0.37400913 -0.02822990
v 4.27998664 -0.40645418 0.06065994
v 4.27998664 -0.37536639 -0.02261582
f 1 2 5
f 1 5 3
f 1 3 7
f 1 7 18
f 1 18 19
f 1 19 8
f 1 8 4
f 1 4 12
f 1 12 24
f 1 24 31
f 1 31 37
f 1 37 41
f 1 41 42
f 1 42 38
f 1 38 32
f 1 32 26
f 1 26 16
f 1 16 6
f 1 6 2
f 2 6 13
f 2 13 5
f 3 5 15
f 3 15 7
f 4 8 9
f 4 9 10
f 4 10 11
f 4 11 12
f 5 13 14
f 5 14 15
f 6 16 17
f 6 17 13
f 7 15 14
f 7 14 13
f 7 13 17
f 7 17 27
f 7 27 33
f 7 33 39
f 7 39 40
f 7 40 34
f 7 34 28
f 7 28 22
f 7 22 21
f 7 21 20
f 7 20 18
f 8 19 9
f 9 20 21
f 9 21 10
f 9 19 20
f 10 21 22
f 10 22 23
f 10 23 11
f 11 23 12
f 12 23 25
f 12 25 24
f 16 26 27
f 16 27 17
f 18 20 19
f 22 28 23
f 23 28 29
f 23 29 25
f 24 30 31
f 24 25 30
f 25 29 30
f 26 32 33
f 26 33 27
f 28 34 29
f 29 34 35
f 29 35 36
f 29 36 37
f 29 37 31
f 29 31 30
f 32 38 39
f 32 39 33
f 34 40 35
f 35 40 36
f 36 41 37
f 36 40 41
f 38 42 39
f 39 42 41
f 39 41 40

