# https://github.com/mikedh/trimesh
v 5.05163077 -6.56952319 0.08945342
v 4.87853098 -6.56952319 0.17569347
v 5.06537936 -6.57265193 0.08945342
v 4.02479281 -6.56952319 0.08945342
v 5.26912367 -6.64048858 0.08945342
v 4.85186208 -6.56952319 0.18855814
v 4.03009344 -6.64546609 0.08945342
v 4.16675121 -6.64546609 0.18855814
v 4.16973292 -6.56994975 0.18855814
v 4.17039557 -6.56952319 0.18855814
v 5.34714271 -6.66708266 0.08945342
v 5.33190334 -6.77673054 0.18855814
v 4.03589123 -6.68457514 0.08945342
v 4.17751823 -6.74288348 0.18855814
v 5.36039457 -6.67362462 0.08945342
v 5.35658458 -6.79422302 0.18855814
v 5.46839548 -6.74601207 0.08945342
v 5.46442015 -6.74331004 0.08945342
v 4.04549858 -6.74288348 0.08945342
v 4.20236510 -6.84044295 0.18855814
v 4.05046796 -6.76620673 0.08945342
v 5.42168331 -6.84143845 0.18855814
v 5.52024265 -6.78298802 0.08945342
v 4.24841461 -7.52279120 0.08945342
v 4.40942237 -7.51212515 0.18855814
v 5.46309485 -6.87343690 0.18855814
v 5.54442701 -6.95407284 0.18855814
v 5.56413887 -6.83646095 0.08945342
v 5.48876985 -6.89476929 0.18855814
v 5.49655516 -6.90173780 0.18855814
v 4.25454352 -7.54156365 0.08945342
v 4.41306644 -7.52264911 0.18855814
v 5.59412074 -7.03485116 0.18855814
v 5.64182667 -6.93828704 0.08945342
v 5.60936011 -6.89462691 0.08945342
v 4.28949476 -7.62390613 0.08945342
v 4.43460049 -7.56972217 0.18855814
v 4.29164819 -7.62888363 0.08945342
v 5.59445199 -7.03542010 0.18855814
v 5.65275917 -6.95720172 0.08945342
v 4.46855782 -7.62035097 0.18855814
v 4.32510865 -7.68477441 0.08945342
v 5.61350106 -7.11122063 0.18855814
v 5.69118886 -7.03527772 0.08945342
v 5.68920134 -7.03115362 0.08945342
v 4.46905470 -7.62106200 0.18855814
v 4.37281457 -7.73696736 0.08945342
v 4.52106750 -7.68619647 0.18855814
v 4.50549672 -7.66699747 0.18855814
v 5.61847044 -7.13297958 0.18855814
v 5.70990696 -7.11506054 0.08945342
v 4.42499299 -7.78276045 0.08945342
v 4.53879156 -7.70283553 0.18855814
v 5.62874073 -7.33449839 0.18855814
v 5.71239165 -7.13297958 0.08945342
v 4.59295778 -7.88927973 0.08945342
v 4.63370667 -7.77266334 0.18855814
v 4.58682888 -7.73881598 0.18822830
v 4.58815404 -7.73924283 0.18855814
v 5.63023137 -7.36990989 0.18855814
v 5.71553884 -7.32781435 0.08945342
v 5.63255043 -7.42523173 0.18855814
v 4.67909354 -7.93606832 0.08945342
v 4.68008744 -7.79797774 0.18855814
v 5.71653289 -7.39764186 0.08945342
v 5.63139075 -7.46249215 0.18855814
v 5.71686415 -7.42523173 0.08945342
v 4.74104508 -7.96508025 0.08945342
v 4.68870103 -7.80252839 0.18855814
v 5.62724980 -7.50600976 0.18855814
v 5.70609698 -7.52279120 0.08945342
v 4.78841975 -7.98470611 0.08945342
v 4.78179397 -7.84249085 0.18855814
v 5.61963011 -7.54255915 0.18855814
v 5.68257541 -7.62035097 0.08945342
v 4.80100881 -7.98883021 0.08945342
v 4.86229770 -7.86808972 0.18855814
v 5.62327418 -7.68306788 0.12195471
v 5.63602887 -7.62035097 0.14010697
v 5.56960513 -7.62618160 0.18855814
v 5.64414573 -7.70368895 0.08945342
v 4.87919363 -8.00603821 0.08945342
v 4.87919363 -7.87335170 0.18855814
v 5.56877670 -7.62703501 0.18855814
v 5.46375736 -7.71577735 0.18855814
v 5.42416800 -7.74834444 0.18855814
v 5.39418613 -7.77195231 0.18855814
v 5.36933926 -7.92170473 0.08945342
v 4.89956800 -8.00930918 0.08945342
v 4.97212079 -7.89169729 0.18855814
v 4.91480738 -7.88088915 0.18855814
v 5.35492831 -7.79968427 0.18855814
v 5.29281086 -7.95100113 0.10345322
v 5.27690898 -7.97915966 0.08945342
v 4.97659329 -8.01798423 0.08945342
v 4.98139704 -7.89255070 0.18855814
v 5.27044897 -7.84149535 0.18855814
v 5.26912367 -7.84206429 0.18855814
v 5.25156523 -7.98925706 0.08945342
v 4.98984500 -8.01883764 0.08945342
v 5.07415857 -7.89695927 0.18855814
v 5.18265651 -7.87335170 0.18855814
v 5.14737402 -7.88586666 0.18855814
v 5.17172401 -8.01243807 0.08945342
v 5.07415857 -8.02225100 0.08945342
v 5.07415857 -7.97915966 0.12359434
v 5.09834294 -7.89439933 0.18855814
f 1 2 3
f 1 3 5
f 1 5 11
f 1 11 15
f 1 15 18
f 1 18 17
f 1 17 23
f 1 23 28
f 1 28 35
f 1 35 34
f 1 34 40
f 1 40 45
f 1 45 44
f 1 44 51
f 1 51 55
f 1 55 61
f 1 61 65
f 1 65 67
f 1 67 71
f 1 71 75
f 1 75 81
f 1 81 88
f 1 88 94
f 1 94 99
f 1 99 104
f 1 104 105
f 1 105 100
f 1 100 95
f 1 95 89
f 1 89 82
f 1 82 76
f 1 76 72
f 1 72 68
f 1 68 63
f 1 63 56
f 1 56 52
f 1 52 47
f 1 47 42
f 1 42 38
f 1 38 36
f 1 36 31
f 1 31 24
f 1 24 21
f 1 21 19
f 1 19 13
f 1 13 7
f 1 7 4
f 1 4 10
f 1 10 6
f 1 6 2
f 2 5 3
f 2 6 5
f 4 7 8
f 4 8 9
f 4 9 10
f 5 6 11
f 6 10 9
f 6 9 8
f 6 8 14
f 6 14 20
f 6 20 25
f 6 25 32
f 6 32 37
f 6 37 41
f 6 41 46
f 6 46 49
f 6 49 48
f 6 48 53
f 6 53 59
f 6 59 57
f 6 57 64
f 6 64 69
f 6 69 73
f 6 73 77
f 6 77 83
f 6 83 91
f 6 91 90
f 6 90 96
f 6 96 101
f 6 101 107
f 6 107 103
f 6 103 102
f 6 102 98
f 6 98 97
f 6 97 92
f 6 92 87
f 6 87 86
f 6 86 85
f 6 85 84
f 6 84 80
f 6 80 74
f 6 74 70
f 6 70 66
f 6 66 62
f 6 62 60
f 6 60 54
f 6 54 50
f 6 50 43
f 6 43 39
f 6 39 33
f 6 33 27
f 6 27 30
f 6 30 29
f 6 29 26
f 6 26 22
f 6 22 16
f 6 16 12
f 6 12 11
f 7 13 14
f 7 14 8
f 11 12 15
f 12 16 17
f 12 17 18
f 12 18 15
f 13 19 14
f 14 19 21
f 14 21 20
f 16 22 23
f 16 23 17
f 20 21 24
f 20 24 25
f 22 26 23
f 23 27 28
f 23 26 29
f 23 29 30
f 23 30 27
f 24 31 25
f 25 31 32
f 27 33 34
f 27 34 35
f 27 35 28
f 31 36 32
f 32 36 38
f 32 38 37
f 33 39 34
f 34 39 40
f 37 38 42
f 37 42 41
f 39 43 44
f 39 44 45
f 39 45 40
f 41 42 46
f 42 47 48
f 42 48 49
f 42 49 46
f 43 50 51
f 43 51 44
f 47 52 53
f 47 53 48
f 50 54 55
f 50 55 51
f 52 56 57
f 52 57 58
f 52 58 53
f 53 58 59
f 54 60 55
f 55 60 62
f 55 62 61
f 56 63 64
f 56 64 57
f 57 59 58
f 61 62 65
f 62 66 67
f 62 67 65
f 63 68 69
f 63 69 64
f 66 70 67
f 67 70 71
f 68 72 73
f 68 73 69
f 70 74 71
f 71 74 75
f 72 76 73
f 73 76 77
f 74 78 79
f 74 79 75
f 74 80 78
f 75 79 81
f 76 82 83
f 76 83 77
f 78 81 79
f 78 80 84
f 78 84 85
f 78 85 86
f 78 86 87
f 78 87 88
f 78 88 81
f 82 89 90
f 82 90 91
f 82 91 83
f 87 92 88
f 88 92 93
f 88 93 94
f 89 95 90
f 90 95 96
f 92 97 94
f 92 94 93
f 94 97 98
f 94 98 99
f 95 100 96
f 96 100 101
f 98 102 99
f 99 102 103
f 99 103 104
f 100 105 106
f 100 106 101
f 101 106 104
f 101 104 107
f 103 107 104
f 104 106 105

