# https://github.com/mikedh/trimesh
v 5.72840191 -4.09558095 -0.94415861
v 5.72840191 -3.84506091 -0.94415861
v 5.75676878 -4.09558095 -0.94415861
v 5.72840191 -4.09558095 -0.36390658
v 5.78396580 -3.84506091 -0.94415861
v 5.72840191 -3.84506091 -0.26098945
v 5.95821640 -4.09558095 -0.94407899
v 5.95821640 -4.09558095 -0.29648909
v 5.95821640 -3.84506091 -0.13108942
v 5.95821640 -3.84506091 -0.94407899
f 1 2 5
f 1 5 3
f 1 3 7
f 1 7 8
f 1 8 4
f 1 4 6
f 1 6 2
f 2 6 9
f 2 9 10
f 2 10 5
f 3 5 7
f 4 8 9
f 4 9 6
f 5 10 7
f 7 10 9
f 7 9 8

