# https://github.com/mikedh/trimesh
v 5.94369009 -6.76337800 -0.05466736
v 5.95171338 -7.84297436 -0.05466736
v 5.94369009 -6.76337800 -0.02574680
v 5.94369009 -6.41746624 -0.05466736
v 5.97368620 -7.81520637 -0.05466736
v 5.95180462 -7.71780991 -0.04460804
v 5.95171338 -7.71780991 -0.04460804
v 5.95171338 -7.62027368 -0.03895348
v 5.94369009 -6.41746624 -0.01574845
v 6.87512012 -6.41746624 -0.05466736
v 5.95171338 -7.52273745 -0.03614525
v 5.95189586 -6.41746624 -0.01606851
v 5.95171338 -7.42534069 -0.03388572
v 5.95171338 -7.13287148 -0.02776248
v 6.82916867 -6.41746624 -0.05267455
v 5.98480932 -6.41746624 -0.01738308
v 6.73161268 -6.41746624 -0.04846792
v 6.53659224 -6.41746624 -0.04014231
v 6.43921902 -6.41746624 -0.03602332
v 6.34184551 -6.41746624 -0.03196530
v 6.24428952 -6.41746624 -0.02791109
v 6.14691602 -6.41746624 -0.02391021
v 6.04926908 -6.41746624 -0.01997412
f 1 2 3
f 1 3 9
f 1 9 4
f 1 4 10
f 1 10 5
f 1 5 2
f 2 5 6
f 2 6 7
f 2 7 3
f 3 7 8
f 3 8 9
f 4 9 12
f 4 12 16
f 4 16 23
f 4 23 22
f 4 22 21
f 4 21 20
f 4 20 19
f 4 19 18
f 4 18 17
f 4 17 15
f 4 15 10
f 5 10 6
f 6 8 7
f 6 10 8
f 8 11 9
f 8 10 11
f 9 11 13
f 9 13 14
f 9 14 12
f 10 15 14
f 10 14 13
f 10 13 11
f 12 14 16
f 14 15 17
f 14 17 18
f 14 18 19
f 14 19 20
f 14 20 21
f 14 21 22
f 14 22 23
f 14 23 16

