# https://github.com/mikedh/trimesh
v -0.36556543 -6.46249802 -0.37507815
v -0.36556543 -6.37402751 -0.37507815
v -0.36520774 -6.47363596 -0.37507815
v -0.36556543 -6.47363596 -0.11750680
v -0.36556543 -6.35596712 -0.11750680
v -0.36485004 -6.35596712 -0.37507815
v 3.28899663 -6.47363596 -0.37507815
v 3.28899663 -6.47363596 -0.11750680
v 3.28899663 -6.35596712 -0.11750680
v 3.28899663 -6.35596712 -0.37507815
f 1 2 6
f 1 6 10
f 1 10 7
f 1 7 3
f 1 3 4
f 1 4 5
f 1 5 2
f 2 5 6
f 3 7 8
f 3 8 4
f 4 8 9
f 4 9 5
f 5 9 10
f 5 10 6
f 7 10 9
f 7 9 8

