# https://github.com/mikedh/trimesh
v -2.23514934 -5.90463443 -0.17368451
v -2.23514934 -5.87657223 -0.17368451
v -2.23322284 -5.96248265 -0.17368451
v -2.22744277 -5.96248265 -0.13427358
v -2.23129576 -5.87657223 -0.14551554
v 7.60624854 -5.87657223 -0.17368451
v 7.60432205 -5.96248265 -0.17368451
v -2.22936927 -5.87657223 -0.13427358
v -2.20046949 -5.96248265 -0.07728325
v -2.20239599 -5.87657223 -0.07566394
v 7.60046847 -5.87657223 -0.13432018
v 7.59854197 -5.96248265 -0.13463472
v -2.13977933 -5.96248265 -0.06547046
v -2.13977933 -5.87657223 -0.06222019
v -2.14652265 -5.87657223 -0.06358320
v 7.57349519 -5.87657223 -0.07574549
v 7.57156870 -5.96248265 -0.07755119
v -2.04248282 -5.96248265 -0.05837579
v -2.03670304 -5.87657223 -0.05469449
v 7.51087853 -5.87657223 -0.06373465
v 7.51087853 -5.96248265 -0.06696162
v -1.99142630 -5.96248265 -0.05467119
v -2.00876623 -5.92892921 -0.05467119
v -2.00202291 -5.87657223 -0.05467119
v 7.30568892 -5.87657223 -0.05467119
v 7.23247565 -5.96248265 -0.05467119
f 1 2 6
f 1 6 7
f 1 7 3
f 1 3 4
f 1 4 5
f 1 5 2
f 2 5 8
f 2 8 10
f 2 10 15
f 2 15 14
f 2 14 19
f 2 19 24
f 2 24 25
f 2 25 20
f 2 20 16
f 2 16 11
f 2 11 6
f 3 7 12
f 3 12 17
f 3 17 21
f 3 21 26
f 3 26 22
f 3 22 18
f 3 18 13
f 3 13 9
f 3 9 4
f 4 8 5
f 4 9 10
f 4 10 8
f 6 11 7
f 7 11 12
f 9 13 14
f 9 14 15
f 9 15 10
f 11 16 12
f 12 16 17
f 13 18 19
f 13 19 14
f 16 20 17
f 17 20 21
f 18 22 19
f 19 22 23
f 19 23 24
f 20 25 21
f 21 25 26
f 22 26 25
f 22 25 24
f 22 24 23

