# https://github.com/mikedh/trimesh
v 4.58325033 -5.42910576 -0.94415890
v 4.58325033 -5.35598795 -0.94415890
v 4.78138659 -5.42910576 -0.94415890
v 1.70649530 -5.42910576 -0.94407746
v 1.70649530 -5.35598795 -0.94407746
v 4.78138659 -5.35598795 -0.94415890
v 5.06331193 -5.42910576 -0.94407746
v 1.70649530 -5.42910576 -0.11256843
v 1.70649530 -5.35598795 -0.11256843
v 5.06331193 -5.35598795 -0.94407746
v 5.06331193 -5.42910576 -0.11256843
v 5.06298330 -5.35598795 -0.11256843
v 5.06331193 -5.35598795 -0.44325081
v 5.06331193 -5.40781311 -0.11256843
f 1 2 6
f 1 6 3
f 1 3 7
f 1 7 11
f 1 11 8
f 1 8 4
f 1 4 5
f 1 5 2
f 2 5 9
f 2 9 12
f 2 12 13
f 2 13 10
f 2 10 6
f 3 6 10
f 3 10 7
f 4 8 9
f 4 9 5
f 7 10 13
f 7 13 14
f 7 14 11
f 8 11 14
f 8 14 12
f 8 12 9
f 12 14 13

