# https://github.com/mikedh/trimesh
v 2.12575646 -5.66917630 0.08945494
v 2.12575646 -5.87800766 0.08945494
v 2.12575646 -5.96808940 0.10530791
v 2.37320660 -5.84496156 0.08945340
v 2.25134559 -5.75841842 0.08945340
v 2.12575646 -5.97552617 0.08945650
v 2.25134559 -5.94580872 0.08945340
v 2.12575646 -5.97552617 0.10289932
v 2.51043204 -5.94251014 0.08945340
v 2.37316894 -5.95465506 0.08945340
v 2.16782034 -5.97552617 0.08945650
f 1 2 6
f 1 6 8
f 1 8 3
f 1 3 4
f 1 4 5
f 1 5 7
f 1 7 2
f 2 7 6
f 3 8 9
f 3 9 4
f 4 9 10
f 4 10 7
f 4 7 5
f 6 7 10
f 6 10 11
f 6 11 8
f 8 11 9
f 9 11 10

