# https://github.com/mikedh/trimesh
v 5.37081915 -6.80481410 0.18856787
v 5.35687050 -6.80481410 0.19766832
v 5.31474357 -6.98829881 0.40035672
v 5.42168157 -6.84138266 0.18856787
v 4.19323371 -6.80481410 0.18856787
v 5.32967813 -6.80481410 0.21431544
v 5.34588104 -7.05330950 0.42591938
v 5.52622437 -6.97022824 0.21993853
v 5.49663681 -6.90168884 0.18856787
v 5.48888753 -6.89473863 0.18856787
v 5.46310415 -6.87335350 0.18856787
v 5.30826235 -6.80481410 0.22589447
v 5.24979187 -6.97343602 0.41515420
v 5.27501183 -7.03160372 0.45303576
v 4.20225090 -6.84042043 0.18856787
v 4.23437443 -6.84042043 0.21697901
v 4.22986591 -6.80481410 0.22086335
v 5.36292894 -7.13286219 0.44027294
v 5.51368471 -7.08282093 0.30520896
v 5.23513887 -7.07490863 0.50493792
v 5.29656825 -7.13286219 0.48903059
v 5.53918653 -7.04432761 0.25375073
v 5.59413469 -7.03481135 0.18856787
v 5.54454033 -6.95408243 0.18856787
v 5.27247571 -6.80481410 0.23817640
v 5.25148271 -6.87656128 0.31734288
v 5.17173708 -6.86437176 0.32925486
v 5.17173708 -6.91312999 0.37797554
v 5.17173708 -6.96188808 0.42628931
v 5.17173708 -7.01556469 0.47504700
v 4.40950474 -7.51223470 0.18856787
v 4.30115791 -6.83806810 0.27028692
v 4.33750840 -6.80481410 0.30687369
v 4.53940830 -7.46946444 0.30347025
v 5.30628994 -7.23037836 0.49361779
v 5.31333458 -7.30586797 0.49705824
v 5.31854775 -7.37066509 0.49994377
v 5.35729328 -7.33420346 0.46461479
v 5.37617295 -7.22267993 0.43816425
v 5.42379490 -7.32789483 0.40897627
v 5.41914545 -7.24994582 0.40509193
v 5.41505942 -7.18493513 0.40157752
v 5.41167802 -7.13286219 0.39876602
v 5.51650269 -7.13286219 0.30816844
v 5.61850937 -7.13286219 0.18856787
v 5.61343714 -7.11126334 0.18856787
v 5.59441654 -7.03545294 0.18856787
v 5.46423128 -7.13286219 0.35370768
v 5.24781917 -7.13286219 0.50985804
v 5.17173708 -7.06432278 0.51170775
v 5.17173708 -7.13286219 0.52839185
v 5.20301519 -6.80481410 0.25974371
v 5.17173708 -6.81561367 0.28001624
v 4.97814974 -6.80481410 0.32141220
v 4.95870651 -6.80481410 0.32603641
v 4.68424655 -6.80481410 0.38985052
v 5.07409799 -7.00390982 0.48462834
v 4.41316799 -7.52271333 0.18856787
v 4.63563840 -7.37569055 0.40187347
v 4.33934002 -6.80481410 0.30820546
v 4.43458378 -7.56976082 0.18856787
v 4.66663495 -7.52282026 0.37908535
v 4.64352832 -7.42530408 0.39588048
v 5.25754086 -7.23037836 0.51422331
v 5.26923495 -7.42530408 0.52580234
v 5.32150636 -7.42530408 0.50238531
v 5.37025544 -7.42530408 0.46217318
v 5.42914899 -7.42530408 0.41341549
v 5.47254398 -7.32789483 0.36624854
v 5.47789808 -7.42530408 0.37031786
v 5.52087028 -7.23037836 0.31294063
v 5.57694586 -7.42530408 0.26089053
v 5.62865356 -7.33463118 0.18856787
v 5.52495632 -7.32789483 0.31749085
v 5.52819678 -7.42530408 0.32159715
v 5.17173708 -7.23037836 0.53704845
v 5.17173708 -7.32789483 0.54555699
v 5.17173708 -7.42530408 0.55391750
v 5.07409799 -7.05266791 0.51895848
v 5.07409799 -7.13286219 0.54256046
v 5.17173708 -6.80481410 0.26888113
v 4.59111613 -6.80481410 0.38563322
v 4.69227740 -7.42530408 0.43183834
v 4.38822989 -6.80481410 0.33365711
v 4.76821885 -7.42530408 0.48059607
v 4.46853908 -7.62033673 0.18856787
v 4.73158665 -7.57307538 0.40298328
v 4.71538388 -7.52282026 0.41496922
v 5.32207007 -7.48015693 0.50282923
v 5.42633102 -7.48806952 0.41101089
v 5.52397011 -7.49202566 0.31708394
v 5.61343714 -7.48999427 0.21094901
v 5.63259866 -7.42530408 0.18856787
v 5.63034440 -7.36991658 0.18856787
v 5.17173708 -7.51640471 0.52872485
v 5.26923495 -7.49801349 0.51474118
v 5.07409799 -7.23037836 0.55069911
v 5.07409799 -7.32789483 0.55872669
v 5.07409799 -7.42530408 0.56645839
v 4.97659997 -7.05512732 0.51514813
v 4.97659997 -7.13286219 0.53464381
v 4.48925037 -6.80481410 0.36943002
v 4.82246281 -7.48111931 0.50401303
v 4.81696793 -7.42530408 0.50552981
v 4.46910265 -7.62108496 0.18856787
v 4.71749736 -7.68010810 0.31464233
v 4.78174457 -7.58355401 0.41197276
v 4.87924274 -7.49501972 0.51429726
v 4.50559392 -7.66706314 0.18856787
v 4.52109219 -7.68620287 0.18856787
v 4.53870380 -7.70288319 0.18856787
v 5.33390509 -7.58547876 0.41607906
v 5.36053404 -7.51661857 0.44604393
v 5.26923495 -7.54677158 0.48092899
v 5.39899772 -7.55308021 0.38729795
v 5.56961936 -7.62621734 0.18856787
v 5.60611064 -7.55489803 0.20284741
v 5.61963651 -7.54260158 0.18856787
v 5.62724486 -7.50603301 0.18856787
v 5.63147153 -7.46251423 0.18856787
v 5.17173708 -7.56516280 0.49324789
v 5.07282993 -7.53137443 0.52868780
v 5.10439004 -7.56965389 0.49746519
v 4.97659997 -7.32789483 0.54992220
v 4.97659997 -7.42530408 0.55687705
v 4.98406725 -7.52560046 0.52458157
v 4.87924274 -7.42530408 0.52698613
v 4.87924274 -7.32789483 0.52114112
v 4.58815738 -7.73934483 0.18856787
v 4.63366585 -7.77259883 0.18856787
v 4.68001974 -7.79804718 0.18856787
v 4.68861415 -7.80253798 0.18856787
v 4.78174457 -7.84252833 0.18856787
v 4.78174457 -7.74116265 0.28120003
v 4.78174457 -7.69240456 0.32496358
v 5.02154488 -7.57307538 0.50097959
v 5.33644121 -7.68246029 0.31811976
v 5.39420734 -7.77206418 0.18856787
v 5.40209726 -7.75698752 0.19777928
v 5.40153384 -7.65711916 0.29418485
v 5.56877409 -7.62707279 0.18856787
v 5.26923495 -7.60055542 0.43217134
v 5.14736240 -7.88594018 0.18856787
v 5.09833160 -7.89438712 0.18856787
v 5.03943834 -7.57307538 0.50097959
v 5.07409799 -7.89706039 0.18856787
v 4.86233548 -7.86819026 0.18856787
v 4.97209130 -7.89171415 0.18856787
v 4.98139021 -7.89246266 0.18856787
v 4.87924274 -7.87332293 0.18856787
v 4.91488874 -7.88091443 0.18856787
v 5.33700463 -7.77954904 0.22016046
v 5.35489809 -7.79965085 0.18856787
v 5.42421769 -7.74843365 0.18856787
v 5.46366757 -7.71582123 0.18856787
v 5.18272654 -7.87342986 0.18856787
v 5.26923495 -7.84210061 0.18856787
v 5.27050301 -7.84156596 0.18856787
f 1 2 3
f 1 3 4
f 1 4 11
f 1 11 10
f 1 10 9
f 1 9 24
f 1 24 23
f 1 23 47
f 1 47 46
f 1 46 45
f 1 45 73
f 1 73 94
f 1 94 93
f 1 93 120
f 1 120 119
f 1 119 118
f 1 118 116
f 1 116 141
f 1 141 155
f 1 155 154
f 1 154 138
f 1 138 153
f 1 153 158
f 1 158 157
f 1 157 156
f 1 156 143
f 1 143 144
f 1 144 146
f 1 146 149
f 1 149 148
f 1 148 151
f 1 151 150
f 1 150 147
f 1 147 133
f 1 133 132
f 1 132 131
f 1 131 130
f 1 130 129
f 1 129 111
f 1 111 110
f 1 110 109
f 1 109 105
f 1 105 86
f 1 86 61
f 1 61 58
f 1 58 31
f 1 31 15
f 1 15 5
f 1 5 17
f 1 17 33
f 1 33 60
f 1 60 84
f 1 84 102
f 1 102 82
f 1 82 56
f 1 56 55
f 1 55 54
f 1 54 81
f 1 81 52
f 1 52 25
f 1 25 12
f 1 12 6
f 1 6 2
f 2 6 3
f 3 7 8
f 3 8 9
f 3 9 10
f 3 10 11
f 3 11 4
f 3 6 12
f 3 12 13
f 3 13 14
f 3 14 7
f 5 15 16
f 5 16 17
f 7 18 19
f 7 19 8
f 7 14 20
f 7 20 21
f 7 21 18
f 8 19 22
f 8 22 23
f 8 23 24
f 8 24 9
f 12 25 13
f 13 25 26
f 13 26 27
f 13 27 28
f 13 28 29
f 13 29 30
f 13 30 20
f 13 20 14
f 15 31 16
f 16 32 33
f 16 33 17
f 16 31 34
f 16 34 32
f 18 21 35
f 18 35 36
f 18 36 37
f 18 37 38
f 18 38 39
f 18 39 40
f 18 40 41
f 18 41 42
f 18 42 43
f 18 43 19
f 19 44 45
f 19 45 46
f 19 46 47
f 19 47 23
f 19 23 22
f 19 43 48
f 19 48 44
f 20 49 21
f 20 30 50
f 20 50 51
f 20 51 49
f 21 49 35
f 25 52 26
f 26 52 27
f 27 52 53
f 27 53 54
f 27 54 28
f 28 54 29
f 29 54 55
f 29 55 56
f 29 56 30
f 30 56 57
f 30 57 50
f 31 58 34
f 32 34 59
f 32 59 33
f 33 59 60
f 34 58 61
f 34 61 62
f 34 62 63
f 34 63 59
f 35 49 64
f 35 64 36
f 36 64 65
f 36 65 37
f 37 65 66
f 37 66 67
f 37 67 38
f 38 67 68
f 38 68 40
f 38 40 39
f 40 68 69
f 40 69 44
f 40 44 41
f 41 48 42
f 41 44 48
f 42 48 43
f 44 69 70
f 44 70 71
f 44 71 45
f 45 72 73
f 45 71 74
f 45 74 75
f 45 75 72
f 49 51 76
f 49 76 77
f 49 77 78
f 49 78 65
f 49 65 64
f 50 57 79
f 50 79 80
f 50 80 51
f 51 80 76
f 52 81 53
f 53 81 54
f 56 82 79
f 56 79 57
f 59 63 83
f 59 83 60
f 60 83 85
f 60 85 84
f 61 86 87
f 61 87 88
f 61 88 62
f 62 88 83
f 62 83 63
f 65 78 89
f 65 89 66
f 66 89 67
f 67 89 68
f 68 89 90
f 68 90 70
f 68 70 69
f 70 91 75
f 70 75 74
f 70 74 71
f 70 90 91
f 72 92 93
f 72 93 94
f 72 94 73
f 72 75 92
f 75 91 92
f 76 80 77
f 77 80 78
f 78 95 96
f 78 96 89
f 78 80 97
f 78 97 98
f 78 98 99
f 78 99 95
f 79 100 80
f 79 82 100
f 80 100 101
f 80 101 97
f 82 102 100
f 83 88 103
f 83 103 85
f 84 85 104
f 84 104 102
f 85 103 104
f 86 105 87
f 87 106 107
f 87 107 108
f 87 108 103
f 87 103 88
f 87 105 109
f 87 109 110
f 87 110 111
f 87 111 106
f 89 112 113
f 89 113 90
f 89 96 114
f 89 114 112
f 90 113 115
f 90 115 116
f 90 116 117
f 90 117 91
f 91 117 92
f 92 117 118
f 92 118 119
f 92 119 120
f 92 120 93
f 95 121 114
f 95 114 96
f 95 99 122
f 95 122 123
f 95 123 121
f 97 101 98
f 98 101 99
f 99 101 124
f 99 124 125
f 99 125 126
f 99 126 122
f 100 102 101
f 101 102 124
f 102 104 127
f 102 127 128
f 102 128 125
f 102 125 124
f 103 108 125
f 103 125 127
f 103 127 104
f 106 108 107
f 106 111 129
f 106 129 130
f 106 130 131
f 106 131 132
f 106 132 133
f 106 133 134
f 106 134 135
f 106 135 136
f 106 136 108
f 108 136 126
f 108 126 125
f 112 137 138
f 112 138 139
f 112 139 140
f 112 140 141
f 112 141 116
f 112 116 115
f 112 115 113
f 112 114 142
f 112 142 137
f 114 121 142
f 116 118 117
f 121 143 142
f 121 123 144
f 121 144 143
f 122 126 136
f 122 136 145
f 122 145 123
f 123 145 146
f 123 146 144
f 125 128 127
f 133 147 134
f 134 147 136
f 134 136 135
f 136 148 149
f 136 149 146
f 136 146 145
f 136 147 150
f 136 150 151
f 136 151 148
f 137 142 152
f 137 152 153
f 137 153 138
f 138 154 139
f 139 154 140
f 140 154 155
f 140 155 141
f 142 143 156
f 142 156 157
f 142 157 158
f 142 158 152
f 152 158 153

