# https://github.com/mikedh/trimesh
v -1.41976269 -4.30540916 0.05112175
v -1.41437519 -4.40292900 0.05112175
v -1.23367794 -4.40292900 0.22741068
v -1.23299655 -4.30540916 0.22670092
v -1.40075169 -4.20788931 0.05112175
v -1.41115506 -4.45337904 0.05112175
v -1.22946696 -4.50036433 0.22286373
v -1.16568394 -4.40292900 0.26879912
v -1.16568394 -4.30540916 0.26744610
v -1.22519409 -4.24076216 0.21836112
v -1.35728028 -4.11070751 0.05112175
v -1.39499254 -4.53450473 0.05112175
v -1.21832030 -4.66067207 0.21099728
v -1.22364592 -4.59779966 0.21660889
v -1.16568394 -4.50036433 0.26043713
v -1.06833775 -4.40292900 0.27769340
v -1.06833775 -4.30540916 0.27636258
v -1.06833775 -4.50036433 0.26959761
v -1.16568394 -4.22098774 0.23477455
v -1.34978728 -4.09558095 0.05112175
v -1.33857902 -4.76360028 0.05112175
v -1.17008089 -4.69405192 0.22789866
v -1.16568394 -4.59779966 0.24894774
v -1.31671924 -4.84776819 0.05112175
v -1.20544009 -4.72574163 0.19784437
v -1.06833775 -4.59779966 0.25844093
v -0.98814493 -4.40292900 0.23630500
v -0.98888792 -4.30540916 0.23561739
v -0.99254158 -4.50036433 0.23202417
v -1.00083946 -4.23324112 0.22439417
v -1.06833775 -4.21541035 0.23929931
v -0.99873398 -4.59779966 0.22610205
v -1.06833775 -4.16665044 0.19207748
v -1.16568394 -4.17222784 0.18293923
v -1.25621853 -4.09558095 0.07199340
v -0.78719796 -4.09558095 0.05112175
v -1.14048054 -4.76148764 0.21831677
v -1.06833775 -4.69531951 0.23914407
v -1.21770109 -4.94106275 0.05112175
v -1.00969467 -4.69531951 0.21598783
v -0.78713607 -4.40292900 0.06389761
v -0.78713607 -4.31850757 0.06647052
v -0.78713607 -4.22073422 0.06864418
v -0.78713607 -4.12177778 0.06953139
v -0.78713607 -4.69523501 0.05220860
v -0.78713607 -4.59720812 0.05713260
v -0.78713607 -4.50036433 0.06057055
v -0.78713607 -4.09558095 0.06797877
v -0.78713607 -4.70250250 0.05112175
v -0.95588177 -4.09558095 0.08002268
v -1.06827585 -4.09558095 0.08700946
v -1.16574612 -4.09558095 0.08350498
v -0.78713607 -4.09727107 0.05112175
v -1.06833775 -4.75895246 0.21663109
v -1.16407417 -4.94883727 0.05112175
v -1.13329729 -4.95297808 0.05112175
v -1.06846182 -4.95889348 0.05112175
v -1.01780687 -4.74644558 0.20849091
v -0.93457960 -4.89035917 0.05112175
v -0.97086777 -4.92289397 0.05112175
f 1 2 3
f 1 3 4
f 1 4 5
f 1 5 11
f 1 11 20
f 1 20 36
f 1 36 53
f 1 53 49
f 1 49 59
f 1 59 60
f 1 60 57
f 1 57 56
f 1 56 55
f 1 55 39
f 1 39 24
f 1 24 21
f 1 21 12
f 1 12 6
f 1 6 2
f 2 6 3
f 3 6 7
f 3 7 8
f 3 8 4
f 4 8 9
f 4 9 10
f 4 10 5
f 5 10 11
f 6 12 13
f 6 13 14
f 6 14 7
f 7 14 15
f 7 15 8
f 8 16 17
f 8 17 9
f 8 15 18
f 8 18 16
f 9 17 19
f 9 19 10
f 10 19 20
f 10 20 11
f 12 21 13
f 13 22 23
f 13 23 14
f 13 21 24
f 13 24 25
f 13 25 22
f 14 23 15
f 15 23 26
f 15 26 18
f 16 27 28
f 16 28 17
f 16 18 29
f 16 29 27
f 17 28 30
f 17 30 31
f 17 31 19
f 18 26 32
f 18 32 29
f 19 31 33
f 19 33 34
f 19 34 20
f 20 35 52
f 20 52 51
f 20 51 50
f 20 50 48
f 20 48 36
f 20 34 35
f 22 25 37
f 22 37 23
f 23 37 38
f 23 38 26
f 24 39 37
f 24 37 25
f 26 40 32
f 26 38 40
f 27 41 42
f 27 42 43
f 27 43 44
f 27 44 28
f 27 29 45
f 27 45 46
f 27 46 47
f 27 47 41
f 28 44 48
f 28 48 30
f 29 32 45
f 30 48 31
f 31 48 33
f 32 40 49
f 32 49 45
f 33 48 50
f 33 50 51
f 33 51 52
f 33 52 35
f 33 35 34
f 36 48 53
f 37 54 38
f 37 39 55
f 37 55 56
f 37 56 57
f 37 57 54
f 38 54 58
f 38 58 40
f 40 58 49
f 41 47 46
f 41 46 45
f 41 45 49
f 41 49 53
f 41 53 48
f 41 48 44
f 41 44 43
f 41 43 42
f 49 58 59
f 54 57 60
f 54 60 58
f 58 60 59

