# https://github.com/mikedh/trimesh
v -1.85911347 -6.64265727 -0.43875980
v -2.24217248 -6.64265727 -0.43872220
v -1.85911347 -6.55104204 -0.43875980
v 7.61314848 -6.64265727 -0.43875980
v -2.24217248 -6.64265727 -0.23182716
v -2.24217248 -6.55104204 -0.43872220
v 7.61314848 -6.55104204 -0.43875980
v 7.61314848 -6.64265727 -0.23182716
v -2.21515562 -6.64265727 -0.13930150
v -2.21515562 -6.55104204 -0.13712089
v -2.24217248 -6.55104204 -0.23182716
v 7.61314848 -6.55104204 -0.23182716
v 7.58709632 -6.55104204 -0.13723368
v 7.58709632 -6.64265727 -0.13937670
v -2.21419092 -6.64265727 -0.13794803
v -2.16787625 -6.55104204 -0.08997454
v 7.51376537 -6.55104204 -0.08786912
v 7.51087069 -6.64265727 -0.09159119
v -2.13892970 -6.64265727 -0.08959857
v -2.16498157 -6.55104204 -0.08835788
v 7.47227538 -6.55104204 -0.08512455
v 7.44043413 -6.64265727 -0.08651563
v -2.12638626 -6.64265727 -0.08824509
v -2.10129938 -6.62246175 -0.08478618
v -2.11673750 -6.55104204 -0.08369588
v 7.31306946 -6.55104204 -0.07809397
v 7.11816321 -6.55104204 -0.06952189
v 7.12395229 -6.64265727 -0.07260483
v -2.06559875 -6.64265727 -0.08279356
v -2.04919563 -6.64265727 -0.08159046
v -2.04244156 -6.55104204 -0.07828195
v 7.02360448 -6.55104204 -0.06538624
v 7.02360448 -6.64265727 -0.06820602
v -1.94209346 -6.64265727 -0.07388311
v -1.94884782 -6.55104204 -0.07151453
v 6.82580326 -6.55104204 -0.05677659
v 6.71194702 -6.64265727 -0.05467118
v -1.84464034 -6.64265727 -0.06711570
v -1.84753502 -6.55104204 -0.06448392
v 6.77659420 -6.55104204 -0.05467118
v -1.65455817 -6.64265727 -0.05467118
v -1.74718721 -6.64265727 -0.06061146
v -1.74911691 -6.55104204 -0.05797969
v -1.69797815 -6.55104204 -0.05467118
f 1 2 6
f 1 6 3
f 1 3 7
f 1 7 4
f 1 4 8
f 1 8 14
f 1 14 18
f 1 18 22
f 1 22 28
f 1 28 33
f 1 33 37
f 1 37 41
f 1 41 42
f 1 42 38
f 1 38 34
f 1 34 30
f 1 30 29
f 1 29 23
f 1 23 19
f 1 19 15
f 1 15 9
f 1 9 5
f 1 5 2
f 2 5 11
f 2 11 6
f 3 6 11
f 3 11 10
f 3 10 16
f 3 16 20
f 3 20 25
f 3 25 31
f 3 31 35
f 3 35 39
f 3 39 43
f 3 43 44
f 3 44 40
f 3 40 36
f 3 36 32
f 3 32 27
f 3 27 26
f 3 26 21
f 3 21 17
f 3 17 13
f 3 13 12
f 3 12 7
f 4 7 12
f 4 12 8
f 5 9 10
f 5 10 11
f 8 13 14
f 8 12 13
f 9 15 10
f 10 15 16
f 13 17 14
f 14 17 18
f 15 19 16
f 16 19 20
f 17 21 22
f 17 22 18
f 19 23 20
f 20 23 24
f 20 24 25
f 21 26 22
f 22 26 27
f 22 27 28
f 23 29 24
f 24 29 25
f 25 29 30
f 25 30 31
f 27 32 33
f 27 33 28
f 30 34 35
f 30 35 31
f 32 36 33
f 33 36 37
f 34 38 35
f 35 38 39
f 36 40 37
f 37 40 44
f 37 44 41
f 38 42 39
f 39 42 43
f 41 44 42
f 42 44 43

