# https://github.com/mikedh/trimesh
v -2.24291635 -8.59524311 -0.81669303
v -2.21615112 -8.59524311 -0.90149753
v -2.20719218 -8.66965615 -0.88956916
v -2.21615112 -8.68272087 -0.81669303
v -2.24291635 -8.59524311 -0.32928465
v -2.24291635 -6.79323725 -0.81669303
v -2.22234438 -7.30560762 -0.88199422
v -2.14061066 -8.59524311 -0.94085240
v -2.21615112 -6.79323725 -0.90149753
v -2.15808570 -7.30560762 -0.93179728
v -2.14061066 -8.68404647 -0.90306473
v -2.14061066 -8.72437708 -0.81669303
v -2.21615112 -8.68272087 -0.32928465
v -2.21305420 -8.67950191 -0.23185522
v -2.23727575 -8.59524311 -0.23185522
v -2.23849209 -8.49754067 -0.23185522
v -2.23948759 -8.40021685 -0.23185522
v -2.24125718 -8.20519031 -0.23185522
v -2.24203126 -8.10767703 -0.23185522
v -2.24269493 -8.01035321 -0.23185522
v -2.24291635 -7.91284023 -0.23185522
v -2.24291635 -6.79323725 -0.23185522
v -2.22909090 -6.79323725 -0.86057546
v -2.22234438 -7.30541817 -0.88199422
v -2.04306106 -8.59524311 -0.94416100
v -2.14061066 -6.79323725 -0.94085240
v -2.15808570 -7.30541817 -0.93179728
v -2.04306106 -8.68537177 -0.90480613
v -2.04306106 -8.72721713 -0.81669303
v -2.04306106 -8.72740659 -0.71926359
v -2.14061066 -8.72437708 -0.32928465
v -2.20298934 -8.66549050 -0.17186515
v -2.14061066 -8.71793944 -0.23185522
v -2.21050994 -8.59524311 -0.16550917
v -2.21272236 -8.40021685 -0.16246179
v -2.21449195 -8.20519031 -0.15958853
v -2.21581928 -8.01035321 -0.15680234
v -2.21615112 -7.91284023 -0.15575751
v -2.21615112 -6.79323725 -0.14234900
v -2.22997598 -6.79323725 -0.18814692
v -1.11324342 -8.59524311 -0.94407390
v -1.11324342 -8.68537177 -0.90480613
v -2.04306106 -6.79323725 -0.94416100
v -1.11324342 -8.70809310 -0.85726685
v -1.11324342 -8.72721713 -0.81669303
v -2.04306106 -8.72740659 -0.32928465
v -1.11324342 -8.72740659 -0.71926359
v -2.04306106 -8.72229425 -0.23185522
v -2.14061066 -8.67779799 -0.16463850
v -2.14061066 -8.59524311 -0.14443866
v -2.04306106 -8.68044860 -0.16098161
v -2.14061066 -8.49754067 -0.14130418
v -2.14061066 -8.30270358 -0.13538354
v -2.14061066 -8.20519031 -0.13251029
v -2.14061066 -8.01035321 -0.12693794
v -2.14061066 -6.79323725 -0.09541920
v -2.17965287 -6.79323725 -0.11927590
v -1.11324342 -6.79323725 -0.94407390
v -1.45842716 -8.72740659 -0.23185522
v -1.65341593 -8.72645990 -0.23185522
v -1.75063369 -8.72589183 -0.23185522
v -1.84818329 -8.72494515 -0.23185522
v -1.94562218 -8.72380901 -0.23185522
v -1.11324342 -8.72740659 -0.23185522
v -1.45842716 -8.68556093 -0.14200075
v -1.55586634 -8.68518232 -0.14478691
v -1.65341593 -8.68461425 -0.14783432
v -1.75063369 -8.68404647 -0.15088171
v -1.84818329 -8.68328894 -0.15419031
v -1.94562218 -8.68215280 -0.15749888
v -1.11324342 -8.64598784 -0.08479688
v -1.12751083 -8.64523032 -0.08514513
v -1.94562218 -8.59524311 -0.13033357
v -2.04306106 -8.59524311 -0.13729907
v -2.04306106 -8.49754067 -0.13425165
v -1.94562218 -8.40021685 -0.12423881
v -2.04306106 -8.30270358 -0.12833102
v -2.04306106 -8.20519031 -0.12545776
v -1.94562218 -8.10767703 -0.11561904
v -2.04306106 -7.91284023 -0.11709922
v -2.06739333 -6.79323725 -0.08732185
v -2.11019555 -6.79323725 -0.09193647
v -1.11324342 -6.79323725 -0.05467125
v -1.11324342 -8.70752532 -0.17917890
v -1.11324342 -8.68461425 -0.12998532
v -1.11324342 -8.66283960 -0.10360361
v -1.11324342 -8.63330144 -0.08401324
v -1.19254389 -8.61285210 -0.08671237
v -1.36087757 -8.59524311 -0.09437437
v -1.45842716 -8.59524311 -0.09942434
v -1.55586634 -8.59524311 -0.10490963
v -1.65341593 -8.59524311 -0.11083030
v -1.75063369 -8.59524311 -0.11701212
v -1.84818329 -8.59524311 -0.12354227
v -1.84818329 -8.30270358 -0.11457422
v -1.84818329 -8.49754067 -0.12049485
v -1.84818329 -8.20519031 -0.11170096
v -1.84818329 -7.91284023 -0.10334242
v -1.94562218 -7.81532696 -0.10734757
v -1.94562218 -6.79323725 -0.07861502
v -1.58086198 -6.79323725 -0.05467125
v -1.11324342 -7.63885638 -0.05467125
v -1.11324342 -8.59088801 -0.08235894
v -1.16234991 -8.58634374 -0.08436153
v -1.21565924 -8.54790650 -0.08549342
v -1.36087757 -8.49754067 -0.09106580
v -1.45842716 -8.49754067 -0.09628990
v -1.55586634 -8.49754067 -0.10186225
v -1.65341593 -8.40021685 -0.10473550
v -1.75063369 -8.49754067 -0.11396474
v -1.75063369 -8.30270358 -0.10804411
v -1.75063369 -8.20519031 -0.10517085
v -1.75063369 -7.91284023 -0.09681227
v -1.84818329 -6.79323725 -0.07182368
v -1.89850640 -6.79323725 -0.07530641
v -1.55719338 -6.84170985 -0.05467125
v -1.65341593 -6.79323725 -0.05911171
v -1.60099111 -7.85641509 -0.08575461
v -1.52036359 -7.98895719 -0.08479688
v -1.14111457 -7.59568571 -0.05467125
v -1.16588908 -7.91284023 -0.06459703
v -1.11324342 -7.86020183 -0.06085307
v -1.11324342 -8.44509173 -0.07783142
v -1.16588908 -8.49754067 -0.08174946
v -1.16588908 -8.30270358 -0.07582883
v -1.23191765 -8.49754067 -0.08470981
v -1.28058188 -8.49754067 -0.08706066
v -1.32161452 -8.36745973 -0.08505807
v -1.38908084 -8.30270358 -0.08662531
v -1.45842716 -8.30270358 -0.09036923
v -1.55586634 -8.30270358 -0.09594161
v -1.65341593 -8.10767703 -0.09611574
v -1.65341593 -7.91284023 -0.09063045
v -1.75063369 -6.79323725 -0.06529357
v -1.45842716 -7.03654665 -0.05467125
v -1.45842716 -7.91284023 -0.07913743
v -1.55586634 -8.20519031 -0.09306835
v -1.49072257 -8.10767703 -0.08645118
v -1.16588908 -7.55686956 -0.05467125
v -1.11324342 -7.91284023 -0.06233325
v -1.26343868 -7.71800314 -0.06363927
v -1.26343868 -8.10767703 -0.07460987
v -1.16588908 -8.20519031 -0.07295557
v -1.11324342 -8.34757846 -0.07487110
v -1.26343868 -8.30270358 -0.08035638
v -1.26686744 -8.40002740 -0.08340376
v -1.34030590 -8.30270358 -0.08410030
v -1.36795621 -8.21030264 -0.08279429
v -1.44194792 -8.10767703 -0.08375205
v -1.36087757 -7.22134853 -0.05467125
v -1.36087757 -7.81532696 -0.07121420
v -1.46661172 -8.01679114 -0.08253310
v -1.36087757 -8.01035321 -0.07669953
v -1.26343868 -7.39478960 -0.05467125
v -1.11324342 -8.20519031 -0.07069179
v -1.35578993 -7.23043706 -0.05467125
v -1.36087757 -8.10767703 -0.07948568
v -1.11324342 -8.25006518 -0.07199784
f 1 2 3
f 1 3 4
f 1 4 13
f 1 13 5
f 1 5 21
f 1 21 22
f 1 22 6
f 1 6 24
f 1 24 7
f 1 7 2
f 2 8 3
f 2 7 24
f 2 24 9
f 2 9 27
f 2 27 10
f 2 10 8
f 3 8 11
f 3 11 12
f 3 12 4
f 4 12 31
f 4 31 13
f 5 13 14
f 5 14 15
f 5 15 16
f 5 16 17
f 5 17 18
f 5 18 19
f 5 19 20
f 5 20 21
f 6 22 40
f 6 40 39
f 6 39 57
f 6 57 56
f 6 56 82
f 6 82 81
f 6 81 100
f 6 100 115
f 6 115 114
f 6 114 134
f 6 134 117
f 6 117 101
f 6 101 83
f 6 83 58
f 6 58 43
f 6 43 26
f 6 26 9
f 6 9 23
f 6 23 24
f 8 25 11
f 8 10 27
f 8 27 26
f 8 26 43
f 8 43 25
f 9 24 23
f 9 26 27
f 11 28 29
f 11 29 12
f 11 25 28
f 12 29 30
f 12 30 46
f 12 46 31
f 13 31 14
f 14 32 15
f 14 31 33
f 14 33 32
f 15 34 35
f 15 35 36
f 15 36 16
f 15 32 34
f 16 36 37
f 16 37 17
f 17 37 18
f 18 37 19
f 19 37 38
f 19 38 20
f 20 38 39
f 20 39 21
f 21 39 40
f 21 40 22
f 25 41 42
f 25 42 28
f 25 43 58
f 25 58 41
f 28 44 29
f 28 42 44
f 29 44 45
f 29 45 47
f 29 47 30
f 30 47 64
f 30 64 59
f 30 59 46
f 31 46 48
f 31 48 33
f 32 33 49
f 32 49 50
f 32 50 34
f 33 48 51
f 33 51 49
f 34 50 52
f 34 52 53
f 34 53 54
f 34 54 55
f 34 55 56
f 34 56 35
f 35 56 36
f 36 56 37
f 37 56 38
f 38 56 57
f 38 57 39
f 41 58 83
f 41 83 102
f 41 102 122
f 41 122 140
f 41 140 155
f 41 155 158
f 41 158 144
f 41 144 123
f 41 123 103
f 41 103 87
f 41 87 71
f 41 71 86
f 41 86 85
f 41 85 84
f 41 84 64
f 41 64 47
f 41 47 45
f 41 45 44
f 41 44 42
f 46 59 60
f 46 60 61
f 46 61 62
f 46 62 63
f 46 63 48
f 48 63 65
f 48 65 66
f 48 66 67
f 48 67 68
f 48 68 69
f 48 69 70
f 48 70 51
f 49 51 71
f 49 71 72
f 49 72 73
f 49 73 74
f 49 74 50
f 50 74 52
f 51 70 71
f 52 75 76
f 52 76 53
f 52 74 75
f 53 76 77
f 53 77 78
f 53 78 54
f 54 78 79
f 54 79 55
f 55 79 80
f 55 80 81
f 55 81 82
f 55 82 56
f 59 64 84
f 59 84 60
f 60 84 61
f 61 84 85
f 61 85 62
f 62 85 63
f 63 85 65
f 65 85 86
f 65 86 66
f 66 86 71
f 66 71 67
f 67 71 68
f 68 71 69
f 69 71 70
f 71 87 72
f 72 87 88
f 72 88 89
f 72 89 90
f 72 90 91
f 72 91 92
f 72 92 93
f 72 93 94
f 72 94 73
f 73 94 76
f 73 76 74
f 74 76 75
f 76 95 97
f 76 97 79
f 76 79 78
f 76 78 77
f 76 94 96
f 76 96 95
f 79 97 98
f 79 98 99
f 79 99 80
f 80 99 81
f 81 99 100
f 83 101 116
f 83 116 135
f 83 135 150
f 83 150 156
f 83 156 154
f 83 154 139
f 83 139 120
f 83 120 102
f 87 103 88
f 88 103 104
f 88 104 105
f 88 105 89
f 89 105 106
f 89 106 90
f 90 106 107
f 90 107 91
f 91 107 108
f 91 108 109
f 91 109 92
f 92 109 93
f 93 109 110
f 93 110 96
f 93 96 94
f 95 96 110
f 95 110 111
f 95 111 112
f 95 112 97
f 97 112 113
f 97 113 98
f 98 113 134
f 98 134 114
f 98 114 115
f 98 115 99
f 99 115 100
f 101 117 118
f 101 118 119
f 101 119 116
f 102 120 121
f 102 121 122
f 103 123 124
f 103 124 104
f 104 124 105
f 105 124 125
f 105 125 126
f 105 126 127
f 105 127 106
f 106 127 128
f 106 128 129
f 106 129 107
f 107 129 130
f 107 130 131
f 107 131 108
f 108 131 109
f 109 131 137
f 109 137 132
f 109 132 112
f 109 112 111
f 109 111 110
f 112 132 113
f 113 133 117
f 113 117 134
f 113 132 133
f 116 119 136
f 116 136 135
f 117 133 118
f 118 133 132
f 118 132 137
f 118 137 119
f 119 137 138
f 119 138 136
f 120 139 121
f 121 140 122
f 121 139 141
f 121 141 142
f 121 142 143
f 121 143 155
f 121 155 140
f 123 144 125
f 123 125 124
f 125 143 142
f 125 142 145
f 125 145 146
f 125 146 126
f 125 144 158
f 125 158 143
f 126 146 127
f 127 146 128
f 128 146 145
f 128 145 142
f 128 142 147
f 128 147 129
f 129 147 148
f 129 148 149
f 129 149 130
f 130 149 138
f 130 138 131
f 131 138 137
f 135 136 151
f 135 151 150
f 136 138 152
f 136 152 149
f 136 149 153
f 136 153 151
f 138 149 152
f 139 154 141
f 141 154 156
f 141 156 150
f 141 150 151
f 141 151 153
f 141 153 142
f 142 153 157
f 142 157 148
f 142 148 147
f 143 158 155
f 148 157 153
f 148 153 149

