# https://github.com/mikedh/trimesh
v 5.00287457 -6.15769051 0.03166976
v 4.69641675 -6.15769051 0.08944775
v 4.74579391 -6.19119863 0.08944775
v 4.79185461 -6.24299262 0.08944775
v 4.83644153 -6.30151206 0.08944775
v 5.03112506 -6.20086816 0.03166976
v 3.81954218 -6.15769051 0.03166976
v 4.23544040 -6.15769051 0.08944775
v 4.90154070 -6.40217993 0.08944775
v 5.02486075 -6.40217993 0.04830461
v 5.07423805 -6.40217993 0.03170368
v 5.07423805 -6.40191668 0.03166976
v 3.81954218 -6.40217993 0.03166976
v 3.81954218 -6.15769051 0.05748461
v 4.19367857 -6.19380753 0.08944775
v 4.06016364 -6.40217993 0.08944775
v 4.98187081 -6.40217993 0.03166976
v 3.81954218 -6.40217993 0.04980916
v 3.81954218 -6.15788200 0.05747895
v 4.07637701 -6.34820796 0.08944775
v 4.09959173 -6.31017635 0.08944775
v 4.14245904 -6.25113025 0.08944775
f 1 2 3
f 1 3 4
f 1 4 5
f 1 5 6
f 1 6 12
f 1 12 17
f 1 17 13
f 1 13 7
f 1 7 14
f 1 14 8
f 1 8 2
f 2 8 15
f 2 15 22
f 2 22 21
f 2 21 20
f 2 20 16
f 2 16 9
f 2 9 5
f 2 5 4
f 2 4 3
f 5 9 6
f 6 10 11
f 6 11 12
f 6 9 10
f 7 13 18
f 7 18 19
f 7 19 14
f 8 14 15
f 9 16 18
f 9 18 13
f 9 13 17
f 9 17 11
f 9 11 10
f 11 17 12
f 14 19 16
f 14 16 20
f 14 20 21
f 14 21 22
f 14 22 15
f 16 19 18

