# https://github.com/mikedh/trimesh
v -2.04307210 -6.64265727 -0.94413151
v -2.04578780 -6.64265727 -0.94404296
v -2.04307210 -6.55104204 -0.94413151
v 0.83931234 -6.64265727 -0.94413151
v -2.14053947 -6.64265727 -0.94088472
v -2.13752216 -6.55104204 -0.94100284
v 0.83931234 -6.55104204 -0.94413151
v 0.83931234 -6.64265727 -0.64262622
v -2.14265193 -6.64265727 -0.93979268
v -2.14053947 -6.55104204 -0.94088472
v 0.83931234 -6.55104204 -0.64262622
v -2.24313718 -6.64265727 -0.64262622
v -2.21628071 -6.64265727 -0.90156952
v -2.21628071 -6.55104204 -0.90156952
v -2.24313718 -6.55104204 -0.64262622
v -2.24313718 -6.64265727 -0.81677025
v -2.24313718 -6.55104204 -0.81677025
f 1 2 3
f 1 3 7
f 1 7 4
f 1 4 8
f 1 8 12
f 1 12 16
f 1 16 13
f 1 13 9
f 1 9 5
f 1 5 2
f 2 5 6
f 2 6 3
f 3 6 10
f 3 10 14
f 3 14 17
f 3 17 15
f 3 15 11
f 3 11 7
f 4 7 11
f 4 11 8
f 5 9 10
f 5 10 6
f 8 11 15
f 8 15 12
f 9 13 14
f 9 14 10
f 12 15 17
f 12 17 16
f 13 16 17
f 13 17 14

