# https://github.com/mikedh/trimesh
v 4.52467597 -5.57385249 -0.94415897
v 4.52467597 -5.57385249 -0.58242007
v 4.52467597 -5.42911288 -0.94415897
v 4.54050085 -5.42911288 -0.94415897
v 5.75864530 -5.57385249 -0.94405967
v 4.58580069 -5.57385249 0.06231518
v 4.52467597 -5.57348412 0.06400323
v 4.52467597 -5.42911288 0.07025897
v 5.75864530 -5.42911288 -0.94405967
v 5.75864530 -5.57385249 -0.93492428
v 4.58676713 -5.57385249 0.06231518
v 4.63303342 -5.42911288 0.06718075
v 5.75864530 -5.42911288 0.02885211
v 5.75864530 -5.57382416 0.02259641
v 5.75671270 -5.57385249 0.02269571
v 4.68328607 -5.57385249 0.05953488
v 4.68425251 -5.42911288 0.06569128
v 5.65922732 -5.42911288 0.03262542
v 5.65814000 -5.57385249 0.02646898
v 4.78185862 -5.57385249 0.05655596
v 4.78185862 -5.57284660 0.05665527
v 4.78185862 -5.42911288 0.06281166
v 5.56162106 -5.42911288 0.03629938
v 5.56162106 -5.57284660 0.03014298
v 5.46316924 -5.57385249 0.03371768
v 4.87934415 -5.57385249 0.05357705
v 4.82800417 -5.42911288 0.06142153
v 4.87934415 -5.42911288 0.05983279
v 5.51040211 -5.42911288 0.03818603
v 5.41291644 -5.42911288 0.04176073
v 5.36665031 -5.42911288 0.04344877
v 5.36665031 -5.57385249 0.03719307
v 4.97682952 -5.57385249 0.05049887
v 4.92548955 -5.42911288 0.05834331
v 5.31543107 -5.42911288 0.04523612
v 5.26819848 -5.57385249 0.04066847
v 5.07334846 -5.57385249 0.04732135
v 5.12058119 -5.42911288 0.05198831
v 5.02309581 -5.42911288 0.05516583
v 5.17071310 -5.57385249 0.04404456
f 1 2 7
f 1 7 8
f 1 8 3
f 1 3 4
f 1 4 5
f 1 5 10
f 1 10 15
f 1 15 19
f 1 19 25
f 1 25 32
f 1 32 36
f 1 36 40
f 1 40 37
f 1 37 33
f 1 33 26
f 1 26 20
f 1 20 16
f 1 16 11
f 1 11 6
f 1 6 2
f 2 6 7
f 3 8 12
f 3 12 17
f 3 17 22
f 3 22 27
f 3 27 28
f 3 28 34
f 3 34 39
f 3 39 38
f 3 38 35
f 3 35 31
f 3 31 30
f 3 30 29
f 3 29 23
f 3 23 18
f 3 18 13
f 3 13 9
f 3 9 4
f 4 9 5
f 5 9 13
f 5 13 14
f 5 14 10
f 6 11 7
f 7 11 8
f 8 11 12
f 10 14 15
f 11 16 12
f 12 16 17
f 13 18 19
f 13 19 15
f 13 15 14
f 16 20 21
f 16 21 22
f 16 22 17
f 18 23 19
f 19 23 24
f 19 24 25
f 20 26 21
f 21 27 22
f 21 26 28
f 21 28 27
f 23 29 24
f 24 29 25
f 25 29 30
f 25 30 31
f 25 31 32
f 26 33 28
f 28 33 34
f 31 35 36
f 31 36 32
f 33 37 38
f 33 38 39
f 33 39 34
f 35 38 36
f 36 38 40
f 37 40 38

