# https://github.com/mikedh/trimesh
v -0.78713607 -5.03851802 -0.94416057
v -0.78713607 -5.03851802 0.04438642
v -0.78713607 -4.87898085 -0.94416057
v -0.67786478 -5.03851802 -0.94416057
v -0.78680104 -4.66810175 0.05300687
v -0.78713607 -4.87698665 0.04511347
v -0.14357433 -5.03851802 0.06692421
v 0.29753369 -4.66810175 0.09475893
v 0.22714406 -4.66810175 0.09226625
v -0.78713607 -4.87698665 -0.91798767
v -0.78680104 -4.66810175 -0.94416057
v -0.67786478 -4.87698665 -0.94416057
v 2.63714892 -5.03851802 -0.94405669
v -0.04569929 -5.03851802 0.07014390
v 0.29753369 -4.69540435 0.09372031
v 0.32468392 -4.66810175 0.09548594
v -0.73585203 -4.66810175 -0.94416057
v 2.63714892 -4.87705915 -0.94405669
v 2.63714892 -5.03851802 0.09704385
v 0.05150539 -5.03851802 0.07274042
v 0.10211879 -4.98782871 0.07637556
v 0.19999383 -4.87698665 0.08364580
v 0.29753369 -4.79286707 0.08966973
v 0.39473837 -4.66810175 0.09725157
v 2.24631912 -4.66810175 -0.94405669
v 2.63714892 -4.87698665 -0.89347649
v 2.60027815 -4.66810175 -0.94384893
v 2.63714892 -5.03826420 0.10587202
v 2.63647857 -5.03851802 0.10587202
v 0.10211879 -5.03851802 0.07398676
v 0.19999383 -5.03851802 0.07637556
v 0.29719851 -5.03851802 0.07866048
v 0.29719851 -4.98782871 0.08094543
v 0.31027079 -4.87698665 0.08624232
v 0.21306640 -4.87698665 0.08395740
v 0.39473837 -4.79286707 0.09185080
v 0.39473837 -4.69540435 0.09610911
v 0.42188861 -4.66810175 0.09787474
v 2.63714892 -4.87698665 0.10763765
v 2.60027815 -4.66810175 0.10784538
v 2.63714892 -4.98782871 0.10659904
v 1.71202882 -4.93960498 0.10940328
v 1.70867692 -4.93960498 0.10940328
v 1.85649507 -5.03851802 0.10566430
v 1.46633570 -4.66810175 0.11688128
v 0.49194291 -5.03851802 0.08302263
v 0.49194291 -4.98782871 0.08530758
v 0.49227823 -4.87698665 0.09029290
v 0.58948277 -4.79286707 0.09610911
v 0.49227823 -4.66810175 0.09943264
v 2.63714892 -4.89036599 0.10753377
v 1.56387556 -4.87698665 0.11013029
v 1.61013153 -5.03851802 0.10358707
v 1.66510243 -5.03851802 0.10431412
v 1.75526814 -5.03851802 0.10535270
v 1.46633570 -4.69540435 0.11605038
v 1.46633570 -4.79286707 0.11241525
v 1.36879584 -4.66810175 0.11605038
v 0.58948277 -5.03851802 0.08509986
v 0.58948277 -4.87698665 0.09237013
v 0.58948277 -4.66810175 0.10150987
v 0.70043024 -4.87698665 0.09465505
v 0.88210235 -4.79286707 0.10202916
v 0.88210235 -4.69540435 0.10628747
v 1.46633570 -4.87698665 0.10867627
v 1.51326209 -5.03851802 0.10213304
v 1.36879584 -4.69540435 0.11501177
v 1.27125613 -4.69540435 0.11345386
v 1.37784602 -4.79565896 0.11085734
v 1.27125613 -4.66810175 0.11459632
v 0.92802315 -5.03851802 0.09185080
v 0.78489767 -4.98782871 0.09133151
v 0.88210235 -4.66810175 0.10742993
v 0.88210235 -4.87698665 0.09829018
v 0.97830137 -4.79286707 0.10389867
v 1.07617640 -4.72611527 0.10867627
v 1.27125613 -4.81465838 0.10826082
v 1.36846067 -5.03851802 0.09984809
v 1.46633570 -5.03851802 0.10140599
v 1.20354805 -4.66810175 0.11345386
v 1.20187203 -4.75229387 0.10981873
v 1.02556301 -5.03851802 0.09372031
v 0.97863654 -4.98782871 0.09517434
v 1.07617640 -4.89032975 0.10140599
v 1.08857834 -4.87698665 0.10223689
v 1.31818245 -5.03851802 0.09901720
v 1.17371627 -4.89032975 0.10317162
v 1.07617640 -5.03851802 0.09465505
v 1.27125613 -5.03851802 0.09818630
f 1 2 6
f 1 6 10
f 1 10 3
f 1 3 11
f 1 11 17
f 1 17 12
f 1 12 4
f 1 4 13
f 1 13 19
f 1 19 29
f 1 29 44
f 1 44 55
f 1 55 54
f 1 54 53
f 1 53 66
f 1 66 79
f 1 79 78
f 1 78 86
f 1 86 89
f 1 89 88
f 1 88 82
f 1 82 71
f 1 71 59
f 1 59 46
f 1 46 32
f 1 32 31
f 1 31 30
f 1 30 20
f 1 20 14
f 1 14 7
f 1 7 2
f 2 5 6
f 2 7 8
f 2 8 9
f 2 9 5
f 3 10 11
f 4 12 18
f 4 18 13
f 5 11 10
f 5 10 6
f 5 9 8
f 5 8 16
f 5 16 24
f 5 24 38
f 5 38 50
f 5 50 61
f 5 61 73
f 5 73 80
f 5 80 70
f 5 70 58
f 5 58 45
f 5 45 40
f 5 40 27
f 5 27 25
f 5 25 17
f 5 17 11
f 7 14 8
f 8 14 15
f 8 15 16
f 12 17 18
f 13 18 26
f 13 26 39
f 13 39 51
f 13 51 41
f 13 41 28
f 13 28 19
f 14 20 21
f 14 21 22
f 14 22 15
f 15 22 23
f 15 23 24
f 15 24 16
f 17 25 18
f 18 25 27
f 18 27 26
f 19 28 29
f 20 30 21
f 21 30 31
f 21 31 32
f 21 32 33
f 21 33 34
f 21 34 35
f 21 35 22
f 22 35 23
f 23 34 36
f 23 36 37
f 23 37 24
f 23 35 34
f 24 37 38
f 26 27 40
f 26 40 39
f 28 41 29
f 29 42 43
f 29 43 44
f 29 41 45
f 29 45 42
f 32 46 34
f 32 34 33
f 34 46 47
f 34 47 48
f 34 48 36
f 36 48 49
f 36 49 37
f 37 50 38
f 37 49 50
f 39 45 51
f 39 40 45
f 41 51 45
f 42 45 43
f 43 52 53
f 43 53 54
f 43 54 55
f 43 55 44
f 43 45 56
f 43 56 57
f 43 57 52
f 45 58 56
f 46 59 47
f 47 59 60
f 47 60 48
f 48 60 49
f 49 61 50
f 49 60 62
f 49 62 63
f 49 63 64
f 49 64 61
f 52 57 65
f 52 65 53
f 53 65 66
f 56 58 57
f 57 58 67
f 57 67 68
f 57 68 69
f 57 69 65
f 58 70 67
f 59 71 72
f 59 72 62
f 59 62 60
f 61 64 73
f 62 72 74
f 62 74 63
f 63 74 75
f 63 75 64
f 64 75 76
f 64 76 73
f 65 69 77
f 65 77 78
f 65 78 79
f 65 79 66
f 67 70 68
f 68 70 80
f 68 80 81
f 68 81 77
f 68 77 69
f 71 82 83
f 71 83 72
f 72 83 74
f 73 76 80
f 74 83 75
f 75 83 84
f 75 84 85
f 75 85 76
f 76 85 81
f 76 81 80
f 77 86 78
f 77 81 87
f 77 87 86
f 81 85 87
f 82 88 83
f 83 88 84
f 84 88 89
f 84 89 87
f 84 87 85
f 86 87 89

