# https://github.com/mikedh/trimesh
v 3.90297539 -7.84838918 0.00606493
v 3.90297539 -7.91413822 0.00420127
v 3.90297539 -7.84838918 -0.05467118
v 3.87120810 -7.84838918 0.00662125
v 3.80669611 -7.91288585 0.00593281
v 3.80669611 -8.01036135 0.00317904
v 3.90297539 -8.01164859 0.00143359
v 3.90297539 -8.20374674 -0.05467118
v 1.40655663 -7.84838918 -0.05467118
v 3.80669611 -7.84838918 0.00774085
v 3.77370703 -7.84838918 0.00826936
v 3.70601828 -7.84838918 0.00934722
v 3.70919504 -7.91288585 0.00748355
v 3.70919504 -8.01036135 0.00473673
v 3.80669611 -8.10783685 0.00041135
v 3.90297539 -8.10908922 -0.00133410
v 3.90297539 -8.20374674 -0.00407398
v 1.40655663 -8.20374674 -0.05467118
v 1.40655663 -7.84838918 0.00633615
v 3.61169397 -7.84838918 0.01073801
v 3.61169397 -7.91288585 0.00892302
v 3.61169397 -8.01036135 0.00616925
v 3.61169397 -8.10783685 0.00340852
v 3.70919504 -8.10783685 0.00196904
v 3.80669611 -8.20374674 -0.00236329
v 1.40655663 -8.20374674 -0.00568730
v 1.46691438 -8.20374674 -0.00472069
v 1.56441545 -8.20374674 -0.00323949
v 1.56588160 -8.20374674 -0.00321863
v 1.66338275 -8.20374674 -0.00183479
v 1.76088382 -8.20374674 -0.00053439
v 1.85691873 -8.20374674 0.00064083
v 1.95441980 -8.20374674 0.00173956
v 1.95441980 -8.10783685 0.00451420
v 2.00451438 -7.86366110 0.01195497
v 2.01966491 -7.84838918 0.01252520
v 3.55182489 -7.84838918 0.01153077
v 3.53471938 -7.85245952 0.01164204
v 3.61169397 -8.20374674 0.00063388
v 3.51419282 -8.10783685 0.00466023
v 3.70919504 -8.20374674 -0.00080560
v 2.05192094 -8.20374674 0.00272008
v 2.05192094 -8.10783685 0.00549472
v 2.05192094 -8.01036135 0.00825545
v 2.06951511 -7.87448028 0.01226094
v 2.05558637 -7.84838918 0.01285899
v 3.53936230 -7.84838918 0.01169071
v 3.53129833 -7.84838918 0.01178807
v 3.48340302 -7.84838918 0.01234439
v 3.46971865 -7.86588747 0.01201755
v 3.51419282 -8.01036135 0.00742096
v 3.51419282 -8.20374674 0.00188559
v 3.41669176 -8.10783685 0.00572420
v 3.41815798 -8.20374674 0.00293565
v 2.05338710 -8.20374674 0.00273399
v 2.14942197 -8.10783685 0.00637788
v 2.14942197 -8.01036135 0.00914555
v 2.14942197 -7.88724717 0.01262256
v 2.10470346 -7.84838918 0.01331100
v 3.41669176 -7.84838918 0.01306065
v 3.41669176 -7.87569778 0.01229572
v 3.41669176 -8.01036135 0.00849189
v 3.31919069 -8.10783685 0.00667690
v 3.32065684 -8.20374674 0.00388139
v 2.15088816 -8.20374674 0.00361713
v 2.24692308 -8.10783685 0.00713586
v 2.24692308 -8.01036135 0.00990354
v 2.14942197 -7.84838918 0.01370738
v 2.24692308 -7.90071027 0.01299807
v 2.24692308 -7.84838918 0.01447231
v 3.31919069 -7.84838918 0.01400639
v 3.31919069 -7.89250014 0.01276859
v 3.31919069 -7.94123789 0.01139169
v 3.31919069 -8.01036135 0.00943763
v 3.31919069 -8.20374674 0.00389530
v 3.22168958 -7.95494450 0.01178111
v 3.22168958 -8.10783685 0.00744879
v 3.22168958 -8.20374674 0.00467414
v 2.24838927 -8.20374674 0.00437513
v 2.34442415 -8.10783685 0.00776867
v 2.31510054 -7.95741436 0.01185065
v 2.30654778 -7.84838918 0.01485477
v 3.22168958 -7.84838918 0.01477828
v 3.22168958 -7.90620675 0.01315801
v 3.16988451 -7.96106686 0.01194801
v 3.12418851 -8.10783685 0.00804682
v 3.12418851 -8.20374674 0.00527218
v 2.34442415 -8.20374674 0.00499403
v 2.44192525 -8.10783685 0.00829021
v 2.38010124 -7.96444128 0.01204537
v 2.34637908 -8.00229040 0.01077279
v 2.34637908 -7.92012169 0.01309543
v 2.34491289 -7.84838918 0.01509817
v 3.19407650 -7.84838918 0.01495213
v 3.12663215 -7.84838918 0.01536242
v 3.13200815 -7.92227861 0.01325537
v 3.13200815 -8.00409951 0.01094664
v 3.10488377 -7.96739844 0.01212882
v 3.02668741 -8.10783685 0.00852665
v 3.02815360 -8.20374674 0.00574505
v 2.44192525 -8.20374674 0.00551557
v 2.44339143 -8.20374674 0.00552253
v 2.53942634 -8.10783685 0.00866574
v 2.53942634 -8.02525058 0.01100923
v 2.44192525 -8.01860606 0.01082146
v 2.41162416 -7.84838918 0.01545978
v 2.44192525 -7.96983344 0.01219836
v 2.44192525 -7.91288585 0.01380474
v 2.44192525 -7.84838918 0.01561972
v 3.02668741 -7.84838918 0.01585616
v 3.02668741 -7.91288585 0.01404117
v 3.02668741 -7.97404296 0.01231657
v 3.02668741 -8.02278042 0.01093969
v 3.02668741 -8.20374674 0.00575200
v 2.92918634 -8.02831176 0.01109963
v 2.92918634 -8.10783685 0.00883958
v 2.93065251 -8.20374674 0.00606493
v 2.54089252 -8.20374674 0.00589804
v 2.63692743 -8.10783685 0.00892302
v 2.63692743 -8.02977276 0.01114135
v 2.53942634 -7.91288585 0.01418720
v 2.50643725 -7.84838918 0.01587005
v 2.92918634 -7.84838918 0.01616909
v 2.92918634 -7.91288585 0.01436105
v 2.92918634 -7.97960888 0.01247651
v 2.83168525 -8.03106000 0.01117612
v 2.83168525 -8.10783685 0.00899952
v 2.83168525 -8.20374674 0.00622488
v 2.63692743 -8.20374674 0.00614838
v 2.73418415 -8.10783685 0.00904125
v 2.73418415 -8.03179050 0.01119699
v 2.73418415 -7.98308762 0.01257387
v 2.63692743 -7.98103530 0.01251824
v 2.53942634 -7.84838918 0.01599524
v 2.63692743 -7.91288585 0.01443755
v 2.63692743 -7.84838918 0.01625254
v 2.89619724 -7.84838918 0.01622472
v 2.83168525 -7.91288585 0.01451404
v 2.83168525 -7.98232225 0.01255302
v 2.73565034 -8.20374674 0.00626661
v 2.73418415 -8.20374674 0.00626661
v 2.73418415 -7.91288585 0.01455576
v 2.70119506 -7.84838918 0.01632903
v 2.83168525 -7.84838918 0.01632208
v 2.79869615 -7.84838918 0.01634292
v 2.73418415 -7.84838918 0.01636379
f 1 2 7
f 1 7 16
f 1 16 17
f 1 17 8
f 1 8 3
f 1 3 9
f 1 9 19
f 1 19 36
f 1 36 46
f 1 46 59
f 1 59 68
f 1 68 70
f 1 70 82
f 1 82 93
f 1 93 106
f 1 106 109
f 1 109 122
f 1 122 134
f 1 134 136
f 1 136 143
f 1 143 146
f 1 146 145
f 1 145 144
f 1 144 137
f 1 137 123
f 1 123 110
f 1 110 95
f 1 95 94
f 1 94 83
f 1 83 71
f 1 71 60
f 1 60 49
f 1 49 48
f 1 48 47
f 1 47 37
f 1 37 20
f 1 20 12
f 1 12 11
f 1 11 10
f 1 10 4
f 1 4 5
f 1 5 6
f 1 6 2
f 2 6 7
f 3 8 18
f 3 18 9
f 4 10 5
f 5 10 11
f 5 11 12
f 5 12 13
f 5 13 14
f 5 14 6
f 6 15 7
f 6 14 24
f 6 24 15
f 7 15 16
f 8 17 25
f 8 25 41
f 8 41 39
f 8 39 52
f 8 52 54
f 8 54 64
f 8 64 75
f 8 75 78
f 8 78 87
f 8 87 100
f 8 100 114
f 8 114 117
f 8 117 128
f 8 128 140
f 8 140 141
f 8 141 129
f 8 129 118
f 8 118 102
f 8 102 101
f 8 101 88
f 8 88 79
f 8 79 65
f 8 65 55
f 8 55 42
f 8 42 33
f 8 33 32
f 8 32 31
f 8 31 30
f 8 30 29
f 8 29 28
f 8 28 27
f 8 27 26
f 8 26 18
f 9 18 26
f 9 26 19
f 12 20 21
f 12 21 13
f 13 21 14
f 14 21 22
f 14 22 23
f 14 23 24
f 15 25 16
f 15 24 41
f 15 41 25
f 16 25 17
f 19 26 27
f 19 27 28
f 19 28 29
f 19 29 30
f 19 30 31
f 19 31 32
f 19 32 33
f 19 33 34
f 19 34 35
f 19 35 36
f 20 37 21
f 21 37 38
f 21 38 22
f 22 38 23
f 23 39 41
f 23 41 24
f 23 38 40
f 23 40 52
f 23 52 39
f 33 42 43
f 33 43 34
f 34 43 35
f 35 43 44
f 35 44 45
f 35 45 36
f 36 45 46
f 37 47 38
f 38 48 49
f 38 49 50
f 38 50 51
f 38 51 40
f 38 47 48
f 40 51 50
f 40 50 53
f 40 53 54
f 40 54 52
f 42 55 43
f 43 55 65
f 43 65 56
f 43 56 57
f 43 57 44
f 44 57 45
f 45 57 58
f 45 58 59
f 45 59 46
f 49 60 50
f 50 60 61
f 50 61 62
f 50 62 53
f 53 62 63
f 53 63 54
f 54 63 64
f 56 65 79
f 56 79 66
f 56 66 67
f 56 67 57
f 57 67 58
f 58 68 59
f 58 67 69
f 58 69 70
f 58 70 68
f 60 71 61
f 61 71 72
f 61 72 62
f 62 72 73
f 62 73 74
f 62 74 63
f 63 75 64
f 63 74 76
f 63 76 77
f 63 77 78
f 63 78 75
f 66 79 80
f 66 80 81
f 66 81 67
f 67 81 69
f 69 81 70
f 70 81 82
f 71 83 84
f 71 84 72
f 72 84 76
f 72 76 73
f 73 76 74
f 76 84 85
f 76 85 77
f 77 85 86
f 77 86 87
f 77 87 78
f 79 88 80
f 80 88 101
f 80 101 89
f 80 89 90
f 80 90 91
f 80 91 81
f 81 91 92
f 81 92 82
f 82 92 93
f 83 94 85
f 83 85 84
f 85 94 95
f 85 95 96
f 85 96 97
f 85 97 86
f 86 98 99
f 86 99 100
f 86 100 87
f 86 97 98
f 89 101 102
f 89 102 118
f 89 118 103
f 89 103 104
f 89 104 105
f 89 105 90
f 90 106 93
f 90 93 92
f 90 92 91
f 90 105 107
f 90 107 108
f 90 108 109
f 90 109 106
f 95 110 98
f 95 98 96
f 96 98 97
f 98 110 111
f 98 111 112
f 98 112 113
f 98 113 99
f 99 114 100
f 99 113 115
f 99 115 116
f 99 116 117
f 99 117 114
f 103 118 119
f 103 119 120
f 103 120 104
f 104 120 121
f 104 121 105
f 105 121 107
f 107 121 108
f 108 121 109
f 109 121 122
f 110 123 124
f 110 124 111
f 111 124 112
f 112 124 125
f 112 125 113
f 113 125 115
f 115 125 126
f 115 126 127
f 115 127 116
f 116 127 117
f 117 127 128
f 118 129 119
f 119 129 141
f 119 141 130
f 119 130 120
f 120 130 131
f 120 131 132
f 120 132 133
f 120 133 121
f 121 134 122
f 121 133 135
f 121 135 136
f 121 136 134
f 123 137 124
f 124 137 138
f 124 138 139
f 124 139 125
f 125 139 126
f 126 139 132
f 126 132 131
f 126 131 130
f 126 130 127
f 127 130 140
f 127 140 128
f 130 141 140
f 132 139 138
f 132 138 142
f 132 142 133
f 133 142 135
f 135 142 136
f 136 142 143
f 137 144 138
f 138 144 145
f 138 145 142
f 142 146 143
f 142 145 146

