# https://github.com/mikedh/trimesh
v -2.04244098 -6.24761897 -0.94416100
v -2.13989440 -6.24761897 -0.94086911
v -2.04244098 -6.15787241 -0.94416100
v 7.05640955 -6.24761897 -0.94407971
v -2.21612032 -6.24761897 -0.90156974
v -2.14085910 -6.15761700 -0.94074721
v -2.13989440 -6.15787241 -0.94086911
v -2.04244098 -6.15761700 -0.94412032
v 0.98053863 -6.15761700 -0.94412032
v 7.02263862 -6.15761700 -0.94407971
v 7.05640955 -6.15787241 -0.94407971
v 7.41245170 -6.24761897 -0.94403911
v -2.21612032 -6.15787241 -0.90156974
v -2.24313660 -6.24761897 -0.81679371
v -2.21612032 -6.15761700 -0.90136655
v 7.41245170 -6.15761700 -0.94403911
v 7.50893983 -6.15761700 -0.94082850
v 7.50990482 -6.24761897 -0.94078782
v -2.24313660 -6.15761700 -0.81679371
v -2.24313660 -6.24761897 -0.72734398
v 7.58516575 -6.15761700 -0.90161042
v 7.50990482 -6.15787241 -0.94078782
v 7.58613045 -6.24761897 -0.90152913
v -2.24313660 -6.15787241 -0.72734398
v -2.24217190 -6.15787241 -0.52897773
v -2.24217190 -6.15761700 -0.62184126
v -2.24217190 -6.24761897 -0.52897773
v 7.58613045 -6.15787241 -0.90152913
v 7.61218204 -6.15761700 -0.81699690
v 7.61314790 -6.24761897 -0.81679371
v -2.23734723 -6.15761700 -0.52897773
v 7.61411260 -6.24761897 -0.52897773
v 7.61314790 -6.15787241 -0.81679371
v 7.61411260 -6.15761700 -0.71954101
v 7.61411260 -6.24732825 -0.72734398
v 7.61411260 -6.24761897 -0.72701886
v 7.60928793 -6.15761700 -0.52897773
v 7.61411260 -6.15787241 -0.52897773
v 7.61411260 -6.15787241 -0.72734398
v 7.61411260 -6.15761700 -0.62208509
f 1 2 7
f 1 7 3
f 1 3 11
f 1 11 4
f 1 4 12
f 1 12 18
f 1 18 23
f 1 23 30
f 1 30 36
f 1 36 32
f 1 32 27
f 1 27 20
f 1 20 14
f 1 14 5
f 1 5 2
f 2 5 6
f 2 6 7
f 3 8 9
f 3 9 10
f 3 10 11
f 3 7 8
f 4 11 16
f 4 16 12
f 5 13 6
f 5 14 19
f 5 19 13
f 6 13 15
f 6 15 19
f 6 19 26
f 6 26 31
f 6 31 37
f 6 37 40
f 6 40 34
f 6 34 29
f 6 29 21
f 6 21 17
f 6 17 16
f 6 16 10
f 6 10 9
f 6 9 8
f 6 8 7
f 10 16 11
f 12 16 17
f 12 17 18
f 13 19 15
f 14 20 24
f 14 24 19
f 17 21 22
f 17 22 18
f 18 22 28
f 18 28 23
f 19 24 25
f 19 25 26
f 20 27 25
f 20 25 24
f 21 28 22
f 21 29 28
f 23 28 33
f 23 33 30
f 25 31 26
f 25 27 32
f 25 32 38
f 25 38 37
f 25 37 31
f 28 29 33
f 29 34 33
f 30 33 39
f 30 39 35
f 30 35 36
f 32 36 35
f 32 35 39
f 32 39 34
f 32 34 40
f 32 40 38
f 33 34 39
f 37 38 40

