# https://github.com/mikedh/trimesh
v 7.58059214 -6.35596712 -0.11750066
v 7.56238370 -6.35596712 -0.08413923
v 7.57771663 -6.44228375 -0.11750066
v -2.20971610 -6.35596712 -0.11750066
v 7.56046679 -6.41511260 -0.08510488
v 7.51159189 -6.35596712 -0.08059642
v 7.57484229 -6.45494212 -0.11750066
v -2.20779948 -6.43136462 -0.11750066
v -2.19246654 -6.35596712 -0.08536937
v 7.54800849 -6.47363596 -0.08643959
v 7.51255020 -6.44871079 -0.08365947
v 7.49146683 -6.47363596 -0.08348725
v 7.50296682 -6.47363596 -0.08399776
v 7.41096716 -6.35596712 -0.07616176
v 7.55375834 -6.47363596 -0.09454623
v 7.56717466 -6.47363596 -0.11750066
v -2.20684175 -6.44292868 -0.11750066
v -2.18959104 -6.41602253 -0.08507413
v -2.19150765 -6.35596712 -0.08409617
v 7.41575871 -6.47363596 -0.08015357
v 7.12155129 -6.35596712 -0.06342980
v -2.20396625 -6.47363596 -0.11750066
v -2.18767471 -6.47363596 -0.09551804
v -2.17329979 -6.47363596 -0.08559694
v -2.14550797 -6.44925212 -0.08248468
v -2.14071643 -6.35596712 -0.07911409
v 7.12155129 -6.47363596 -0.06721248
v 7.02092656 -6.35596712 -0.05903819
v 7.00080150 -6.47363596 -0.06194132
v -2.13879981 -6.47363596 -0.08276147
v -2.06117507 -6.47363596 -0.07709667
v -2.04296663 -6.35596712 -0.07201619
v 6.92413507 -6.35596712 -0.05483111
v 6.90305170 -6.47363596 -0.05770348
v -2.04296663 -6.47363596 -0.07579272
v -1.94521683 -6.47363596 -0.06881167
v -1.94521683 -6.35596712 -0.06504128
v 6.92030184 -6.35596712 -0.05467120
v 6.83309372 -6.47363596 -0.05467120
v -1.87142561 -6.47363596 -0.06365737
v -1.85130055 -6.35596712 -0.05848464
v -1.79380059 -6.35596712 -0.05467120
v -1.73725922 -6.47363596 -0.05467120
v -1.75067583 -6.47363596 -0.05552614
v -1.75067583 -6.44653381 -0.05467120
f 1 2 3
f 1 3 7
f 1 7 16
f 1 16 22
f 1 22 17
f 1 17 8
f 1 8 4
f 1 4 9
f 1 9 19
f 1 19 26
f 1 26 32
f 1 32 37
f 1 37 41
f 1 41 42
f 1 42 38
f 1 38 33
f 1 33 28
f 1 28 21
f 1 21 14
f 1 14 6
f 1 6 2
f 2 5 3
f 2 6 5
f 3 5 7
f 4 8 9
f 5 10 7
f 5 6 11
f 5 11 10
f 6 12 13
f 6 13 11
f 6 14 12
f 7 10 15
f 7 15 16
f 8 17 18
f 8 18 9
f 9 18 19
f 10 11 13
f 10 13 12
f 10 12 20
f 10 20 27
f 10 27 29
f 10 29 34
f 10 34 39
f 10 39 43
f 10 43 44
f 10 44 40
f 10 40 36
f 10 36 35
f 10 35 31
f 10 31 30
f 10 30 24
f 10 24 23
f 10 23 22
f 10 22 16
f 10 16 15
f 12 14 20
f 14 21 20
f 17 22 18
f 18 22 23
f 18 23 24
f 18 24 25
f 18 25 26
f 18 26 19
f 20 21 27
f 21 28 29
f 21 29 27
f 24 30 25
f 25 30 26
f 26 30 31
f 26 31 32
f 28 33 29
f 29 33 34
f 31 35 32
f 32 35 36
f 32 36 37
f 33 38 39
f 33 39 34
f 36 40 37
f 37 40 41
f 38 42 45
f 38 45 43
f 38 43 39
f 40 44 41
f 41 44 42
f 42 44 45
f 43 45 44

