# https://github.com/mikedh/trimesh
v 6.09369938 -2.06531713 -0.94415839
v 6.14936060 -2.06531713 -0.94415839
v 6.09369938 -2.06531713 -0.02043297
v 6.09369938 -1.28183565 -0.94415839
v 7.41662025 -2.06531713 -0.94405865
v 6.14697936 -1.28183565 -0.94415839
v 7.41379240 -0.50316518 -0.94405865
v 6.43704263 -2.06531713 0.06695185
v 6.09369938 -1.57512282 0.07193957
v 6.09369938 -0.50316518 -0.94405865
v 7.51157155 -2.06531713 -0.94086649
v 7.51157155 -0.50316518 -0.94086649
v 7.41379240 -0.41275699 -0.90475543
v 7.51157155 -0.41408404 -0.90315931
v 6.43942387 -2.06531713 0.06725111
v 6.09369938 -1.53083113 0.07393464
v 6.09369938 -0.41275699 -0.90475543
v 7.51365524 -2.06531713 -0.93986895
v 7.57824606 -0.42835057 -0.88949303
v 7.58687781 -0.50316518 -0.90146353
v 7.58702658 -1.77070291 -0.90156334
v 6.09369938 -0.39003072 -0.85687334
v 7.41379240 -0.37111968 -0.81667233
v 7.51157155 -0.37393968 -0.81667233
v 6.53452423 -2.06531713 0.06595432
v 6.09369938 -1.47774757 0.07493218
v 7.58702658 -2.06531713 -0.90156334
v 7.58687781 -0.41574321 -0.81667233
v 7.61411318 -0.50316518 -0.81667233
v 7.58791980 -2.06531713 -0.89936865
v 6.09369938 -0.37111968 -0.81667233
v 6.09369938 -0.37078784 -0.76360301
v 7.41379240 -0.37062192 -0.71921230
v 7.51157155 -0.37377377 -0.71921230
v 6.82949876 -2.06531713 0.05338523
v 6.53675641 -2.06282866 0.06585454
v 6.43942387 -1.67266399 0.06415872
v 6.24431190 -1.47774757 0.06874741
v 6.24431190 -1.28183565 0.06495674
v 6.09369938 -1.38020640 0.07303684
v 7.58687781 -0.41574321 -0.13435246
v 7.61411318 -0.50316518 -0.13435246
v 7.61411318 -1.28183565 -0.81677207
v 7.61411318 -2.06531713 -0.81667233
v 7.61411318 -1.77070291 -0.81677207
v 6.09369938 -0.37062192 -0.71921230
v 7.41379240 -0.37062192 -0.23191223
v 7.51157155 -0.37377377 -0.23191223
v 7.21912704 -2.06531713 0.03632724
v 7.12149666 -2.06282866 0.04061667
v 6.82949876 -1.96528750 0.05198870
v 6.73201716 -1.86774633 0.05478180
v 6.53675641 -1.86774633 0.06306141
v 6.63423801 -1.77020516 0.05747519
v 6.73201716 -1.67266399 0.05168942
v 6.53675641 -1.57512282 0.05827321
v 6.43942387 -1.38020640 0.05877198
v 6.09369938 -1.28183565 0.07104177
v 6.09369938 -1.33574879 0.07213908
v 6.53794718 -1.28183565 0.05268695
v 6.24431190 -1.18545590 0.06296167
v 6.09369938 -1.23820762 0.07014397
v 7.57824606 -0.42835057 -0.06282857
v 7.51157155 -0.37393968 -0.13435246
v 7.58687781 -0.50316518 -0.05065855
v 7.59446815 -2.06282866 -0.03679272
v 7.61411318 -2.06531713 -0.13435246
v 6.09369938 -0.37062192 -0.13435246
v 7.31660864 -0.37062192 -0.13435246
v 7.41379240 -0.37078784 -0.13435246
v 7.51157155 -2.06531713 0.02345894
v 7.51157155 -1.96528750 0.02206237
v 7.31660864 -1.96528750 0.03064124
v 7.21912704 -1.86774633 0.03353415
v 6.82949876 -1.86774633 0.05059214
v 6.73201716 -1.77070291 0.05328549
v 6.82964753 -1.67266399 0.04749976
v 6.73201716 -1.47774757 0.04819804
v 6.53675641 -1.47774757 0.05647762
v 6.82964753 -1.28266523 0.04021768
v 6.82964753 -0.99053919 0.03403291
v 6.53675641 -1.18545590 0.05069188
v 6.43942387 -0.89299802 0.04849729
v 6.24431190 -0.99053919 0.05877198
v 6.14697936 -0.89299802 0.06066731
v 6.09369938 -0.94591595 0.06395921
v 6.09369938 -1.18545590 0.06904670
v 7.51157155 -0.50316518 -0.01035780
v 7.51157155 -0.41408404 -0.04856370
v 6.43942387 -0.38439042 -0.03689245
v 6.53675641 -0.38754226 -0.03689245
v 7.41379240 -0.41259107 -0.04487281
v 7.56083320 -1.50976374 0.01198720
v 7.56321473 -1.67266399 0.01368302
v 7.56574446 -1.86774633 0.01517933
v 7.56678645 -1.96528750 0.01597735
v 7.56753032 -2.06282866 0.01657589
v 7.59446815 -2.06531713 -0.03679272
v 6.09369938 -0.37393968 -0.08138290
v 6.09369938 -0.37709152 -0.03689245
v 6.14697936 -0.37775490 -0.03689245
v 6.24431190 -0.37974561 -0.03689245
v 6.34179350 -0.38190224 -0.03689245
v 7.56604201 -2.06531713 0.01677540
v 7.56440492 -1.77070291 0.01448104
v 7.51157155 -1.86774633 0.02066581
v 7.51157155 -1.77020516 0.01916951
v 7.02416412 -1.77070291 0.04061667
v 7.02416412 -1.67266399 0.03902063
v 7.02416412 -1.57512282 0.03732481
v 6.82964753 -1.47774757 0.04400835
v 6.92653375 -1.38020640 0.03792332
v 7.02416412 -1.28183565 0.03173855
v 7.02416412 -1.08774882 0.02764863
v 7.02416412 -0.99053919 0.02555379
v 6.73201716 -0.89299802 0.03612776
v 6.53675641 -0.99053919 0.04650218
v 6.34179350 -0.89299802 0.05258721
v 6.53675641 -0.69808160 0.03991843
v 6.53675641 -0.50316518 0.03542948
v 6.24431190 -0.69808160 0.05218818
v 6.09369938 -0.69808160 0.05837295
v 6.09369938 -0.75099953 0.05957004
v 7.00169124 -0.45107684 0.01298474
v 7.41379240 -0.50316518 -0.00277647
v 7.55354070 -1.44490211 0.01138866
v 6.43942387 -0.42619394 0.02505502
v 6.53675641 -0.42934578 0.02296017
v 6.63423801 -0.43282946 0.02096506
v 6.73201716 -0.43697651 0.01887025
v 6.82964753 -0.44145540 0.01677540
v 6.92653375 -0.44659795 0.01458082
v 6.09369938 -0.41889476 0.03223732
v 6.14697936 -0.41972434 0.03104027
v 6.24431190 -0.42154914 0.02904520
v 6.34179350 -0.42353985 0.02714987
v 7.56753032 -2.06531713 0.01657589
v 6.09369938 -0.39981808 0.00111398
v 7.51157155 -1.67266399 0.01757343
v 7.41379240 -1.47774757 0.01837148
v 7.02416412 -1.47774757 0.03552922
v 7.12209205 -1.28183565 0.02744912
v 7.41230409 -1.08061555 0.01049086
v 7.41379240 -0.89299802 0.00630121
v 6.92653375 -0.89299802 0.02764863
v 6.82964753 -0.69808160 0.02744912
v 6.73201716 -0.69808160 0.03163881
v 6.82964753 -0.50316518 0.02286040
v 7.06687743 -0.46550900 0.01148840
v 6.24431190 -0.50316518 0.04759950
v 6.09369938 -0.50316518 0.05368452
v 7.21748995 -0.69244159 0.01039112
v 7.41379240 -0.69808160 0.00181226
v 7.51722696 -1.47741574 0.01378276
v 7.49058697 -1.38020640 0.01318425
v 6.09369938 -0.46501125 0.04430760
v 7.42153151 -1.28183565 0.01428153
f 1 2 5
f 1 5 11
f 1 11 18
f 1 18 27
f 1 27 30
f 1 30 44
f 1 44 67
f 1 67 98
f 1 98 137
f 1 137 104
f 1 104 71
f 1 71 49
f 1 49 35
f 1 35 25
f 1 25 15
f 1 15 8
f 1 8 3
f 1 3 9
f 1 9 16
f 1 16 26
f 1 26 40
f 1 40 59
f 1 59 58
f 1 58 62
f 1 62 87
f 1 87 86
f 1 86 123
f 1 123 122
f 1 122 151
f 1 151 156
f 1 156 133
f 1 133 138
f 1 138 100
f 1 100 99
f 1 99 68
f 1 68 46
f 1 46 32
f 1 32 31
f 1 31 22
f 1 22 17
f 1 17 10
f 1 10 4
f 1 4 6
f 1 6 2
f 2 6 7
f 2 7 5
f 3 8 9
f 4 10 7
f 4 7 6
f 5 7 12
f 5 12 11
f 7 10 17
f 7 17 13
f 7 13 14
f 7 14 12
f 8 15 9
f 9 15 16
f 11 12 18
f 12 14 19
f 12 19 20
f 12 20 21
f 12 21 18
f 13 17 22
f 13 22 23
f 13 23 14
f 14 23 24
f 14 24 19
f 15 25 26
f 15 26 16
f 18 21 27
f 19 24 28
f 19 28 29
f 19 29 20
f 20 29 30
f 20 30 21
f 21 30 27
f 22 31 23
f 23 31 32
f 23 32 33
f 23 33 24
f 24 33 34
f 24 34 28
f 25 35 36
f 25 36 26
f 26 37 38
f 26 38 39
f 26 39 40
f 26 36 37
f 28 41 42
f 28 42 29
f 28 34 48
f 28 48 41
f 29 42 67
f 29 67 44
f 29 44 45
f 29 45 43
f 29 43 30
f 30 43 45
f 30 45 44
f 32 46 33
f 33 46 68
f 33 68 69
f 33 69 47
f 33 47 48
f 33 48 34
f 35 49 50
f 35 50 51
f 35 51 36
f 36 51 52
f 36 52 53
f 36 53 37
f 37 53 54
f 37 54 55
f 37 55 56
f 37 56 57
f 37 57 38
f 38 57 39
f 39 58 59
f 39 59 40
f 39 57 60
f 39 60 61
f 39 61 62
f 39 62 58
f 41 63 42
f 41 48 64
f 41 64 63
f 42 63 65
f 42 65 66
f 42 66 98
f 42 98 67
f 47 69 70
f 47 70 64
f 47 64 48
f 49 71 50
f 50 72 73
f 50 73 74
f 50 74 75
f 50 75 51
f 50 71 72
f 51 75 52
f 52 75 76
f 52 76 54
f 52 54 53
f 54 76 77
f 54 77 55
f 55 77 111
f 55 111 78
f 55 78 56
f 56 78 79
f 56 79 57
f 57 79 78
f 57 78 60
f 60 80 81
f 60 81 82
f 60 82 61
f 60 78 80
f 61 82 83
f 61 83 84
f 61 84 85
f 61 85 86
f 61 86 87
f 61 87 62
f 63 88 65
f 63 64 89
f 63 89 88
f 64 70 90
f 64 90 91
f 64 91 92
f 64 92 89
f 65 88 93
f 65 93 94
f 65 94 95
f 65 95 96
f 65 96 97
f 65 97 66
f 66 97 137
f 66 137 98
f 68 99 69
f 69 99 100
f 69 100 70
f 70 100 101
f 70 101 102
f 70 102 103
f 70 103 90
f 71 104 97
f 71 97 96
f 71 96 105
f 71 105 94
f 71 94 93
f 71 93 72
f 72 106 74
f 72 74 73
f 72 93 106
f 74 106 107
f 74 107 108
f 74 108 75
f 75 108 76
f 76 108 77
f 77 109 110
f 77 110 111
f 77 108 109
f 78 111 80
f 80 111 112
f 80 112 113
f 80 113 114
f 80 114 81
f 81 115 145
f 81 145 116
f 81 116 82
f 81 114 115
f 82 116 117
f 82 117 83
f 83 118 84
f 83 117 116
f 83 116 119
f 83 119 120
f 83 120 121
f 83 121 118
f 84 118 85
f 85 118 121
f 85 121 122
f 85 122 123
f 85 123 86
f 88 89 124
f 88 124 125
f 88 125 126
f 88 126 93
f 89 92 127
f 89 127 128
f 89 128 129
f 89 129 130
f 89 130 131
f 89 131 132
f 89 132 124
f 90 103 133
f 90 133 134
f 90 134 135
f 90 135 91
f 91 135 136
f 91 136 92
f 92 136 127
f 93 126 107
f 93 107 106
f 94 105 95
f 95 105 96
f 97 104 137
f 100 138 101
f 101 138 102
f 102 138 133
f 102 133 103
f 107 126 139
f 107 139 109
f 107 109 108
f 109 139 110
f 110 140 141
f 110 141 111
f 110 139 140
f 111 141 112
f 112 142 113
f 112 141 142
f 113 142 114
f 114 142 143
f 114 143 115
f 115 144 145
f 115 143 144
f 116 145 146
f 116 146 147
f 116 147 120
f 116 120 119
f 120 148 149
f 120 149 150
f 120 150 121
f 120 147 146
f 120 146 148
f 121 150 122
f 122 150 151
f 124 149 125
f 124 132 131
f 124 131 151
f 124 151 149
f 125 149 148
f 125 148 152
f 125 152 153
f 125 153 126
f 126 154 139
f 126 153 144
f 126 144 155
f 126 155 154
f 127 129 128
f 127 136 151
f 127 151 129
f 129 151 130
f 130 151 131
f 133 156 136
f 133 136 134
f 134 136 135
f 136 156 151
f 139 154 140
f 140 154 155
f 140 155 141
f 141 155 142
f 142 157 143
f 142 155 157
f 143 157 155
f 143 155 144
f 144 153 152
f 144 152 145
f 145 152 146
f 146 152 148
f 149 151 150

