# https://github.com/mikedh/trimesh
v -0.58079317 -1.96547666 0.12118733
v -0.58079317 -1.86804097 0.12014450
v -0.67826751 -1.86804097 0.11868455
v -0.67826751 -1.96547666 0.11951879
v -0.38604616 -2.94042851 0.11816312
v -0.38604616 -2.06350773 0.11983166
v -0.38604616 -1.96587358 0.11931023
v -0.38604616 -1.86843789 0.11785028
v -0.38604616 -1.77100249 0.11524323
v -0.38604616 -1.67356651 0.11180190
v -0.38604616 -1.43583160 0.10252079
v -0.58079317 -1.77060557 0.11555607
v -0.43124822 -1.43583160 0.10168652
v -0.44124828 -1.43583160 0.10147797
v -0.53937902 -1.43662544 0.09876663
v -0.68129789 -1.76485049 0.11284473
v -0.90195382 -1.43662544 0.08520993
v -0.74559058 -1.79382319 0.11107195
v -0.76210556 -1.86804097 0.11284473
v -0.76821689 -1.96547666 0.11326185
v -0.48326828 -2.94023005 0.11524323
v -0.90195382 -3.03766574 0.10085225
v -0.90195382 -3.06643999 0.10064370
v -0.87321647 -3.03766574 0.10199936
v -0.77574214 -3.03766574 0.10523213
v -0.64245966 -2.99996147 0.10971628
v -0.87321647 -3.13510129 0.10022658
v -0.38604616 -2.94340514 0.11805884
v -0.38604616 -1.43583160 -0.94405640
v -0.46569241 -1.43583160 0.10074797
v -0.58079317 -1.43662544 0.09751525
v -0.63685364 -1.43662544 0.09563815
v -0.67826751 -1.43662544 0.09417820
v -0.77574214 -1.43662544 0.09042404
v -0.88973146 -1.43662544 0.08573133
v -0.90195382 -1.43662544 -0.94416064
v -0.90195382 -1.77060557 0.09668097
v -0.90195382 -1.86804097 0.09960087
v -0.90195382 -1.96547666 0.10106085
v -0.90195382 -1.99444937 0.10116513
v -0.90195382 -2.94023005 0.10106085
v -0.90195382 -3.13510129 0.09939231
v -0.90195382 -3.16387568 0.09855807
v -0.38604616 -3.04619884 0.11399184
v -0.89665087 -1.43662544 -0.94416064
v -0.46569241 -1.43583160 -0.94405640
v -0.38604616 -3.46312809 -0.94405640
v -0.90195382 -3.45737330 -0.94416064
v -0.90195382 -3.23253698 0.09553387
v -0.90195382 -3.26150968 0.09417820
v -0.90195382 -3.45638106 0.08437566
v -0.88195370 -3.45737330 0.08427138
v -0.38604616 -3.06286812 0.11263617
v -0.38604616 -3.46312809 -0.05379839
v -0.46569241 -3.46312809 -0.94405640
v -0.90195382 -3.45737330 0.08427138
v -0.46569241 -3.46312809 -0.02678926
v -0.87321647 -3.45737330 0.08416710
v -0.38604616 -3.11843215 0.10606640
v -0.80533783 -3.45737330 0.08208144
v -0.57857087 -3.45737330 0.03724005
v -0.41483406 -3.46312809 -0.04326586
v -0.38604616 -3.31647847 0.03765721
v -0.42124816 -3.46312809 -0.04097164
v -0.67826751 -3.45737330 0.07019328
v -0.70781294 -3.45737330 0.07373888
v -0.77574214 -3.45737330 0.08093433
v -0.38604616 -3.13272004 0.10398074
v -0.60230833 -3.45737330 0.04568693
v -0.38604616 -3.23293390 0.07957867
v -0.38604616 -3.22956035 0.08041294
f 1 2 3
f 1 3 4
f 1 4 5
f 1 5 6
f 1 6 7
f 1 7 2
f 2 7 8
f 2 8 9
f 2 9 10
f 2 10 11
f 2 11 12
f 2 12 3
f 3 12 11
f 3 11 13
f 3 13 14
f 3 14 15
f 3 15 16
f 3 16 17
f 3 17 18
f 3 18 19
f 3 19 20
f 3 20 4
f 4 21 5
f 4 20 22
f 4 22 23
f 4 23 24
f 4 24 25
f 4 25 21
f 5 21 26
f 5 26 25
f 5 25 27
f 5 27 28
f 5 28 44
f 5 44 53
f 5 53 59
f 5 59 68
f 5 68 71
f 5 71 70
f 5 70 63
f 5 63 54
f 5 54 47
f 5 47 29
f 5 29 11
f 5 11 10
f 5 10 9
f 5 9 8
f 5 8 7
f 5 7 6
f 11 29 46
f 11 46 30
f 11 30 14
f 11 14 13
f 14 30 15
f 15 30 31
f 15 31 16
f 16 31 32
f 16 32 33
f 16 33 34
f 16 34 35
f 16 35 17
f 17 36 48
f 17 48 56
f 17 56 51
f 17 51 50
f 17 50 49
f 17 49 43
f 17 43 42
f 17 42 23
f 17 23 22
f 17 22 41
f 17 41 40
f 17 40 39
f 17 39 38
f 17 38 37
f 17 37 19
f 17 19 18
f 17 35 30
f 17 30 46
f 17 46 36
f 19 37 38
f 19 38 39
f 19 39 20
f 20 39 40
f 20 40 41
f 20 41 22
f 21 25 26
f 23 25 24
f 23 42 25
f 25 42 27
f 27 42 43
f 27 43 28
f 28 43 44
f 29 45 36
f 29 36 46
f 29 47 45
f 30 35 34
f 30 34 33
f 30 33 32
f 30 32 31
f 36 45 48
f 43 49 44
f 44 49 50
f 44 50 51
f 44 51 52
f 44 52 53
f 45 47 48
f 47 54 62
f 47 62 64
f 47 64 57
f 47 57 55
f 47 55 48
f 48 55 57
f 48 57 56
f 51 56 52
f 52 56 57
f 52 57 58
f 52 58 53
f 53 58 60
f 53 60 59
f 54 61 62
f 54 63 61
f 57 64 65
f 57 65 66
f 57 66 67
f 57 67 60
f 57 60 58
f 59 60 67
f 59 67 68
f 61 69 64
f 61 64 62
f 61 63 70
f 61 70 69
f 64 69 65
f 65 69 70
f 65 70 71
f 65 71 68
f 65 68 66
f 66 68 67

