# https://github.com/mikedh/trimesh
v 2.44271456 -4.29690591 -0.94415955
v 2.44240858 -4.29690591 -0.07508452
v 2.44271456 -4.23833707 -0.94415955
v 2.63726965 -4.29690591 -0.94415955
v 2.44240858 -4.23786900 -0.07508452
v 2.44240858 -4.29690591 0.10063936
v 2.44271456 -4.23786900 -0.86334984
v 2.47208128 -4.23786900 -0.94415955
v 2.63726965 -4.23786900 -0.94415955
v 5.56752753 -4.29690591 -0.94405349
v 2.44240858 -4.23786900 0.09936676
v 3.03555714 -4.29690591 0.12195529
v 3.09429080 -4.23786900 0.12503071
v 2.99701318 -4.23786900 0.12121295
v 5.56752753 -4.23786900 -0.94405349
v 5.56752753 -4.29690591 -0.21920570
v 3.13283475 -4.29690591 0.12534885
v 3.19187425 -4.23786900 0.12853033
v 5.56752753 -4.23786900 -0.25812584
v 5.49839333 -4.29690591 -0.11135344
v 5.48829825 -4.23786900 -0.13383591
v 3.23408908 -4.29690591 0.12863639
v 3.28945777 -4.23786900 0.13171181
v 5.44975437 -4.29690591 -0.06172232
v 5.43935361 -4.23786900 -0.06617640
v 3.33167260 -4.29690591 0.13149973
v 3.38734719 -4.23786900 0.13457515
v 5.36654831 -4.23786900 -0.02407479
v 5.36654831 -4.29690591 -0.01813599
v 3.42527927 -4.29690591 0.13393887
v 3.48462473 -4.23786900 0.13701429
v 5.29404899 -4.23786900 0.00530091
v 5.29833174 -4.29690591 0.00678563
v 3.52286279 -4.29690591 0.13616589
v 3.51460333 -4.23786900 0.13765061
v 5.24541032 -4.23786900 0.01855709
v 5.24938710 -4.29690591 0.01908735
v 3.61218685 -4.29690591 0.13722641
v 3.61218685 -4.23786900 0.13924135
v 3.58190228 -4.23786900 0.13881715
v 5.17138142 -4.23786900 0.03467660
v 5.17138142 -4.29690591 0.03531292
v 3.62075213 -4.29690591 0.13722641
v 3.67979170 -4.23786900 0.13892317
v 5.07410380 -4.23786900 0.05132638
v 5.07410380 -4.29690591 0.05132638
v 3.71007627 -4.29690591 0.13659009
v 3.71007627 -4.23786900 0.13871109
v 4.97621438 -4.23786900 0.06426438
v 4.97621438 -4.29690591 0.06394624
v 3.71802975 -4.29690591 0.13648407
v 3.80704792 -4.29690591 0.13510541
v 3.77706932 -4.23786900 0.13765061
v 4.87893691 -4.23786900 0.07486934
v 4.87893691 -4.29690591 0.07433908
v 3.87465277 -4.23786900 0.13595381
v 3.90432546 -4.29690591 0.13330255
v 3.90432546 -4.23786900 0.13542355
v 4.78135332 -4.23786900 0.08377750
v 4.78135332 -4.29690591 0.08303516
v 4.00955664 -4.29690591 0.13118159
v 3.97193038 -4.23786900 0.13415095
v 4.68407570 -4.23786900 0.09151912
v 4.68407570 -4.29690591 0.09077674
v 4.09888070 -4.29690591 0.12937873
v 4.09888070 -4.23786900 0.13149973
v 4.29374177 -4.23786900 0.12184923
v 4.29374177 -4.29690591 0.12078875
v 4.19615832 -4.29690591 0.12704565
v 4.19615832 -4.23786900 0.12874245
f 1 2 5
f 1 5 3
f 1 3 8
f 1 8 9
f 1 9 4
f 1 4 10
f 1 10 16
f 1 16 20
f 1 20 24
f 1 24 29
f 1 29 33
f 1 33 37
f 1 37 42
f 1 42 46
f 1 46 50
f 1 50 55
f 1 55 60
f 1 60 64
f 1 64 68
f 1 68 69
f 1 69 65
f 1 65 61
f 1 61 57
f 1 57 52
f 1 52 51
f 1 51 47
f 1 47 43
f 1 43 38
f 1 38 34
f 1 34 30
f 1 30 26
f 1 26 22
f 1 22 17
f 1 17 12
f 1 12 6
f 1 6 2
f 2 6 11
f 2 11 5
f 3 7 8
f 3 5 7
f 4 9 15
f 4 15 10
f 5 11 14
f 5 14 13
f 5 13 18
f 5 18 23
f 5 23 27
f 5 27 31
f 5 31 35
f 5 35 40
f 5 40 39
f 5 39 44
f 5 44 48
f 5 48 53
f 5 53 56
f 5 56 58
f 5 58 62
f 5 62 66
f 5 66 70
f 5 70 67
f 5 67 63
f 5 63 59
f 5 59 54
f 5 54 49
f 5 49 45
f 5 45 41
f 5 41 36
f 5 36 32
f 5 32 28
f 5 28 25
f 5 25 21
f 5 21 19
f 5 19 15
f 5 15 9
f 5 9 8
f 5 8 7
f 6 12 13
f 6 13 14
f 6 14 11
f 10 15 19
f 10 19 16
f 12 17 18
f 12 18 13
f 16 19 21
f 16 21 20
f 17 22 23
f 17 23 18
f 20 21 25
f 20 25 24
f 22 26 23
f 23 26 27
f 24 25 28
f 24 28 29
f 26 30 27
f 27 30 31
f 28 32 29
f 29 32 33
f 30 34 31
f 31 34 35
f 32 36 33
f 33 36 37
f 34 38 39
f 34 39 40
f 34 40 35
f 36 41 37
f 37 41 42
f 38 43 39
f 39 43 44
f 41 45 42
f 42 45 46
f 43 47 48
f 43 48 44
f 45 49 46
f 46 49 50
f 47 51 48
f 48 51 52
f 48 52 53
f 49 54 50
f 50 54 55
f 52 56 53
f 52 57 58
f 52 58 56
f 54 59 55
f 55 59 60
f 57 61 62
f 57 62 58
f 59 63 64
f 59 64 60
f 61 65 62
f 62 65 66
f 63 67 64
f 64 67 68
f 65 69 66
f 66 69 70
f 67 70 68
f 68 70 69

