# https://github.com/mikedh/trimesh
v 5.07418080 -6.40220391 0.03170368
v 5.09807023 -6.42643214 0.03166976
v 4.98193125 -6.40220391 0.03166976
v 5.02474830 -6.40220391 0.04830461
v 5.35993401 -6.57130440 0.03166976
v 3.91499674 -6.40220391 0.03166976
v 4.90144263 -6.40220391 0.08944775
v 5.36048523 -6.67352815 0.08944775
v 5.46614964 -6.63436448 0.03166976
v 3.91499674 -7.00957192 0.03166976
v 3.91499674 -6.40220391 0.05362708
v 4.06017047 -6.40220391 0.08944775
v 5.46449570 -6.74322606 0.08944775
v 5.53340733 -6.67485563 0.03166976
v 4.03848634 -7.48617324 0.03166976
v 4.05061470 -6.76612682 0.08944775
v 4.04565302 -6.74289423 0.08944775
v 3.91499674 -6.82968479 0.04163596
v 3.91499674 -6.45049461 0.05399475
v 4.02286632 -6.54790575 0.08944775
v 4.04069149 -6.45049461 0.08944775
v 5.52017640 -6.78305340 0.08944775
v 5.56979284 -6.70489212 0.03166976
v 4.06292698 -7.55885824 0.03166976
v 4.25459291 -7.54159968 0.08944775
v 4.24834488 -7.52284758 0.08944775
v 4.03591361 -6.68464662 0.08944775
v 3.91499674 -6.73210759 0.04641545
v 4.03003314 -6.64548295 0.08944775
v 3.91499674 -6.54790575 0.05383072
v 5.56409587 -6.83648855 0.08944775
v 5.59882744 -6.73476270 0.03166976
v 4.13018453 -7.68630602 0.03166976
v 4.29171328 -7.62888799 0.08944775
v 4.28950798 -7.62390961 0.08944775
v 3.91499674 -6.64548295 0.05026732
v 3.91499674 -6.63469631 0.05069718
v 5.60930200 -6.89473616 0.08944775
v 5.62822961 -6.77127126 0.03166976
v 4.22133150 -7.79234644 0.03166976
v 4.32515833 -7.68481248 0.08944775
v 5.64182812 -6.93821440 0.08944775
v 5.67545725 -6.83698645 0.03166976
v 4.32258560 -7.86884811 0.03166976
v 4.42494214 -7.78272151 0.08944775
v 4.37275326 -7.73692000 0.08944775
v 5.65267026 -6.95713242 0.08944775
v 5.70357306 -6.88477925 0.03166976
v 4.51223016 -7.96791886 0.03166976
v 4.67908802 -7.93605698 0.08944775
v 4.59290257 -7.88925968 0.08944775
v 5.68923940 -7.03114491 0.08944775
v 5.77965137 -7.03230662 0.03166976
v 5.76954438 -7.01189505 0.03166976
v 5.73518039 -6.94468632 0.03166976
v 4.64986949 -8.03960807 0.03166976
v 4.74101646 -7.96509769 0.08944775
v 5.69107699 -7.03529370 0.08944775
v 5.78975836 -7.09171594 0.03166976
v 5.70982096 -7.11511459 0.08944775
v 4.70518246 -8.06118134 0.03166976
v 4.78842760 -7.98467967 0.08944775
v 5.79196352 -7.13287090 0.03166976
v 5.71239369 -7.13287090 0.08944775
v 4.78971396 -8.08059741 0.03166976
v 4.80110732 -7.98882817 0.08944775
v 5.79233109 -7.36469964 0.03166976
v 5.71551763 -7.32785909 0.08944775
v 5.71662036 -7.39772322 0.08944775
v 5.71680400 -7.42527038 0.08944775
v 4.87700199 -8.09138375 0.03166976
v 4.89960490 -8.00923974 0.08944775
v 4.87920714 -8.00608673 0.08944775
v 5.79196352 -7.42527038 0.03166976
v 5.70614579 -7.52284758 0.08944775
v 5.78461290 -7.52284758 0.03166976
v 4.96557623 -8.09719201 0.03166976
v 4.98983309 -8.01886467 0.08944775
v 4.97660215 -8.01786916 0.08944775
v 5.68244030 -7.62025886 0.08944775
v 5.76182619 -7.60864234 0.03166976
v 4.97660215 -8.09735793 0.03166976
v 5.07418080 -8.02218359 0.08944775
v 5.68041878 -7.62473949 0.08944775
v 5.75998861 -7.61312297 0.03166976
v 5.06113366 -8.09735793 0.03166976
v 5.07418080 -8.09686017 0.03166976
v 5.16440913 -8.09121784 0.03166976
v 5.17157581 -8.09072008 0.03166976
v 5.17157581 -8.02151992 0.08283566
v 5.17157581 -8.01239274 0.08944775
v 5.64421721 -7.70373050 0.08944775
v 5.70945338 -7.71750393 0.03166976
v 5.20042677 -8.08457999 0.03166976
v 5.26860325 -8.06964456 0.03166976
v 5.36673341 -8.04359095 0.03166976
v 5.25151322 -7.98916001 0.08944775
v 5.65891844 -7.77392617 0.03166976
v 5.36930614 -7.92161959 0.08944775
v 5.42296532 -8.01023553 0.03166976
v 5.36673341 -8.01023553 0.04992795
v 5.27687266 -7.97920324 0.08944775
f 1 2 3
f 1 3 6
f 1 6 11
f 1 11 12
f 1 12 7
f 1 7 4
f 1 4 5
f 1 5 2
f 2 5 9
f 2 9 14
f 2 14 23
f 2 23 32
f 2 32 39
f 2 39 43
f 2 43 48
f 2 48 55
f 2 55 54
f 2 54 53
f 2 53 59
f 2 59 63
f 2 63 67
f 2 67 74
f 2 74 76
f 2 76 81
f 2 81 85
f 2 85 93
f 2 93 98
f 2 98 100
f 2 100 96
f 2 96 95
f 2 95 94
f 2 94 89
f 2 89 88
f 2 88 87
f 2 87 86
f 2 86 82
f 2 82 77
f 2 77 71
f 2 71 65
f 2 65 61
f 2 61 56
f 2 56 49
f 2 49 44
f 2 44 40
f 2 40 33
f 2 33 24
f 2 24 15
f 2 15 10
f 2 10 6
f 2 6 3
f 4 7 8
f 4 8 5
f 5 8 9
f 6 10 18
f 6 18 28
f 6 28 36
f 6 36 37
f 6 37 30
f 6 30 19
f 6 19 11
f 7 12 21
f 7 21 20
f 7 20 29
f 7 29 27
f 7 27 17
f 7 17 16
f 7 16 26
f 7 26 25
f 7 25 35
f 7 35 34
f 7 34 41
f 7 41 46
f 7 46 45
f 7 45 51
f 7 51 50
f 7 50 57
f 7 57 62
f 7 62 66
f 7 66 73
f 7 73 72
f 7 72 79
f 7 79 78
f 7 78 83
f 7 83 91
f 7 91 97
f 7 97 102
f 7 102 99
f 7 99 92
f 7 92 84
f 7 84 80
f 7 80 75
f 7 75 70
f 7 70 69
f 7 69 68
f 7 68 64
f 7 64 60
f 7 60 58
f 7 58 52
f 7 52 47
f 7 47 42
f 7 42 38
f 7 38 31
f 7 31 22
f 7 22 13
f 7 13 8
f 8 13 14
f 8 14 9
f 10 15 16
f 10 16 17
f 10 17 18
f 11 19 20
f 11 20 21
f 11 21 12
f 13 22 14
f 14 22 23
f 15 24 25
f 15 25 26
f 15 26 16
f 17 27 18
f 18 27 29
f 18 29 28
f 19 30 20
f 20 30 29
f 22 31 32
f 22 32 23
f 24 33 34
f 24 34 35
f 24 35 25
f 28 29 36
f 29 30 37
f 29 37 36
f 31 38 39
f 31 39 32
f 33 40 41
f 33 41 34
f 38 42 39
f 39 42 43
f 40 44 45
f 40 45 46
f 40 46 41
f 42 47 48
f 42 48 43
f 44 49 50
f 44 50 51
f 44 51 45
f 47 52 53
f 47 53 54
f 47 54 55
f 47 55 48
f 49 56 50
f 50 56 57
f 52 58 53
f 53 58 60
f 53 60 59
f 56 61 62
f 56 62 57
f 59 60 64
f 59 64 63
f 61 65 66
f 61 66 62
f 63 64 68
f 63 68 69
f 63 69 70
f 63 70 67
f 65 71 72
f 65 72 73
f 65 73 66
f 67 70 74
f 70 75 76
f 70 76 74
f 71 77 78
f 71 78 79
f 71 79 72
f 75 80 76
f 76 80 81
f 77 82 83
f 77 83 78
f 80 84 85
f 80 85 81
f 82 86 83
f 83 86 87
f 83 87 88
f 83 88 89
f 83 89 90
f 83 90 91
f 84 92 85
f 85 92 93
f 89 94 90
f 90 94 95
f 90 95 91
f 91 95 96
f 91 96 97
f 92 98 93
f 92 99 100
f 92 100 98
f 96 100 101
f 96 101 102
f 96 102 97
f 99 102 101
f 99 101 100

