# https://github.com/mikedh/trimesh
v -0.23392644 -3.43380001 -0.94416042
v -0.23392644 -3.30301537 -0.94416042
v -0.18479671 -3.43380001 -0.94416042
v -0.23392644 -3.43380001 0.02835233
v -0.23392644 -3.30301537 0.07418598
v -0.19062966 -3.30301537 -0.94416042
v 2.05789504 -3.30301537 -0.94405284
v 2.05789504 -3.42785933 -0.94405284
v 2.05767064 -3.43380001 -0.94405284
v -0.20588443 -3.43380001 0.04610479
v -0.23392644 -3.42152179 0.03523814
v -0.23392644 -3.33234752 0.06740776
v -0.19219992 -3.30301537 0.08967903
v 2.05789504 -3.30301537 0.12400049
v 2.05789504 -3.43380001 -0.94050240
v -0.19937880 -3.43380001 0.04933251
v -0.08608860 -3.43380001 0.09721038
v -0.19062966 -3.33036305 0.08386914
v -0.12243110 -3.30301537 0.10603282
v 1.59149943 -3.30301537 0.14885396
v 1.46071123 -3.43380001 0.14874638
v 1.56413040 -3.43380001 0.14315166
v 2.05767064 -3.43380001 0.11377938
v 2.05789504 -3.41766800 0.11496288
v 2.05789504 -3.43380001 0.09893184
v -0.06769303 -3.43380001 0.10151402
v -0.01048741 -3.43380001 0.11216550
v -0.07419895 -3.30301537 0.11345659
v 1.56413040 -3.30301537 0.15014505
v 1.49391308 -3.30301537 0.15326518
v 1.46654404 -3.33036305 0.15304998
v 1.36918201 -3.43380001 0.15186648
v 0.00387037 -3.43380001 0.11420972
v 0.00431901 -3.33036305 0.12044998
v 0.00431901 -3.30301537 0.12195627
v 1.46654404 -3.30301537 0.15391073
v 1.36918201 -3.42785933 0.15208168
v 1.27159566 -3.43380001 0.15186648
v 0.10190522 -3.43380001 0.12443086
v 0.10190522 -3.42785933 0.12464603
v 0.10190522 -3.33036305 0.12798133
v 0.10190522 -3.30301537 0.12851929
v 1.39655105 -3.30301537 0.15498661
v 1.36918201 -3.33036305 0.15434107
v 1.27159566 -3.42785933 0.15197410
v 1.07664728 -3.43380001 0.14842359
v 0.19926710 -3.43380001 0.12981038
v 0.19926710 -3.42785933 0.12991800
v 0.19926710 -3.33036305 0.13131667
v 0.19926710 -3.30301537 0.13163942
v 1.36918201 -3.30301537 0.15477144
v 1.27159566 -3.33036305 0.15315760
v 1.07664728 -3.42785933 0.14853118
v 1.07059015 -3.43380001 0.14831601
v 0.29685360 -3.43380001 0.13239255
v 0.29685360 -3.42785933 0.13250017
v 0.22663614 -3.30301537 0.13228497
v 1.29896470 -3.30301537 0.15380314
v 1.27159566 -3.30301537 0.15337277
v 1.20137834 -3.30301537 0.15218927
v 1.17423363 -3.33036305 0.15143614
v 1.00642996 -3.30301537 0.14863876
v 0.97906093 -3.42785933 0.14670213
v 0.97322812 -3.43380001 0.14648696
v 0.38838297 -3.43380001 0.13443680
v 0.39443995 -3.33036305 0.13583548
v 0.49180198 -3.42785933 0.13680377
v 0.49180198 -3.33036305 0.13798727
v 0.29685360 -3.30301537 0.13389884
v 1.07664728 -3.30301537 0.14992985
v 0.97906093 -3.30301537 0.14810080
v 0.88192322 -3.33036305 0.14594900
v 0.68675037 -3.33036305 0.14207574
v 0.68675037 -3.42785933 0.14089224
v 0.68091770 -3.43380001 0.14067707
v 0.48596932 -3.43380001 0.13658860
v 0.42158467 -3.30301537 0.13669619
v 0.58333135 -3.43380001 0.13863282
v 0.61675752 -3.30301537 0.14089224
v 0.68675037 -3.30301537 0.14229091
f 1 2 6
f 1 6 3
f 1 3 9
f 1 9 15
f 1 15 25
f 1 25 23
f 1 23 22
f 1 22 21
f 1 21 32
f 1 32 38
f 1 38 46
f 1 46 54
f 1 54 64
f 1 64 75
f 1 75 78
f 1 78 76
f 1 76 65
f 1 65 55
f 1 55 47
f 1 47 39
f 1 39 33
f 1 33 27
f 1 27 26
f 1 26 17
f 1 17 16
f 1 16 10
f 1 10 4
f 1 4 11
f 1 11 12
f 1 12 5
f 1 5 2
f 2 5 13
f 2 13 19
f 2 19 28
f 2 28 35
f 2 35 42
f 2 42 50
f 2 50 57
f 2 57 69
f 2 69 77
f 2 77 79
f 2 79 80
f 2 80 71
f 2 71 62
f 2 62 70
f 2 70 60
f 2 60 59
f 2 59 58
f 2 58 51
f 2 51 43
f 2 43 36
f 2 36 30
f 2 30 29
f 2 29 20
f 2 20 14
f 2 14 7
f 2 7 6
f 3 6 7
f 3 7 8
f 3 8 9
f 4 10 11
f 5 12 13
f 7 14 24
f 7 24 25
f 7 25 15
f 7 15 8
f 8 15 9
f 10 16 12
f 10 12 11
f 12 16 17
f 12 17 18
f 12 18 13
f 13 18 17
f 13 17 19
f 14 20 21
f 14 21 22
f 14 22 23
f 14 23 24
f 17 26 19
f 19 26 27
f 19 27 28
f 20 29 21
f 21 29 30
f 21 30 31
f 21 31 32
f 23 25 24
f 27 33 28
f 28 33 34
f 28 34 35
f 30 36 31
f 31 36 37
f 31 37 32
f 32 37 38
f 33 39 34
f 34 39 35
f 35 39 40
f 35 40 41
f 35 41 42
f 36 43 37
f 37 43 44
f 37 44 38
f 38 44 45
f 38 45 53
f 38 53 46
f 39 47 40
f 40 47 41
f 41 47 42
f 42 47 48
f 42 48 49
f 42 49 50
f 43 51 44
f 44 51 45
f 45 51 52
f 45 52 53
f 46 53 54
f 47 55 56
f 47 56 48
f 48 56 49
f 49 56 50
f 50 56 57
f 51 58 52
f 52 58 59
f 52 59 60
f 52 60 61
f 52 61 53
f 53 61 62
f 53 62 63
f 53 63 54
f 54 63 64
f 55 65 56
f 56 66 57
f 56 65 67
f 56 67 68
f 56 68 66
f 57 66 69
f 60 70 61
f 61 70 62
f 62 71 72
f 62 72 63
f 63 72 73
f 63 73 74
f 63 74 75
f 63 75 64
f 65 76 67
f 66 77 69
f 66 68 77
f 67 76 78
f 67 78 74
f 67 74 73
f 67 73 68
f 68 73 79
f 68 79 77
f 71 80 73
f 71 73 72
f 73 80 79
f 74 78 75

