# https://github.com/mikedh/trimesh
v 4.19827587 -6.35596697 -0.30188845
v 4.19827587 -6.35596697 -0.05467119
v 4.19827587 -6.24763844 -0.30188845
v 7.61411318 -6.35596697 -0.30188845
v 4.19827587 -6.24763844 -0.05467119
v 6.92057934 -6.35596697 -0.05467119
v 7.61411318 -6.24763844 -0.30188845
v 7.61411318 -6.35596697 -0.23175967
v 7.00317490 -6.24763844 -0.05467119
v 7.02390726 -6.35596697 -0.05917221
v 7.61411318 -6.24763844 -0.23175967
v 7.59204303 -6.25536927 -0.13428599
v 7.58936802 -6.35596697 -0.13399560
v 7.12155013 -6.35596697 -0.06343123
v 7.12155013 -6.24763844 -0.05984978
v 7.59204303 -6.24763844 -0.13428599
v 7.56763202 -6.24763844 -0.08658970
v 7.56529175 -6.25536927 -0.08247587
v 7.56261615 -6.35596697 -0.08414560
v 7.21919358 -6.35596697 -0.06771447
v 7.21919358 -6.24763844 -0.06413300
v 7.56529175 -6.24763844 -0.08235488
v 7.51145387 -6.24763844 -0.07700689
v 7.51145387 -6.35285988 -0.08049155
v 7.51145387 -6.35596697 -0.08061255
v 7.41414516 -6.35596697 -0.07630512
v 7.32419316 -6.24763844 -0.06875502
v 7.31650229 -6.24763844 -0.06841624
v 7.50844441 -6.35596697 -0.08046735
f 1 2 5
f 1 5 3
f 1 3 7
f 1 7 4
f 1 4 8
f 1 8 13
f 1 13 19
f 1 19 25
f 1 25 29
f 1 29 26
f 1 26 20
f 1 20 14
f 1 14 10
f 1 10 6
f 1 6 2
f 2 6 9
f 2 9 5
f 3 5 9
f 3 9 15
f 3 15 21
f 3 21 28
f 3 28 27
f 3 27 23
f 3 23 22
f 3 22 17
f 3 17 16
f 3 16 11
f 3 11 7
f 4 7 11
f 4 11 8
f 6 10 9
f 8 11 16
f 8 16 12
f 8 12 13
f 9 10 14
f 9 14 15
f 12 17 13
f 12 16 17
f 13 17 18
f 13 18 19
f 14 20 21
f 14 21 15
f 17 22 18
f 18 22 23
f 18 23 19
f 19 23 24
f 19 24 25
f 20 26 27
f 20 27 28
f 20 28 21
f 23 27 26
f 23 26 24
f 24 26 29
f 24 29 25

