# https://github.com/mikedh/trimesh
v 2.88990940 -5.68139677 -0.94407238
v -2.04112788 -5.68139677 -0.94398535
v 2.88990940 -5.57385249 -0.94407238
v 6.05731213 -5.68139677 -0.94398535
v -2.13857171 -5.68139677 -0.94076385
v -2.04112788 -5.57385249 -0.94398535
v 6.04766425 -5.57385249 -0.94398535
v 7.41284078 -5.57385249 -0.94389833
v 7.41187607 -5.68139677 -0.94389833
v -2.13857171 -5.57385249 -0.94076385
v -2.21382538 -5.68139677 -0.90140905
v 7.50931990 -5.57385249 -0.94067675
v 7.42345365 -5.68139677 -0.94355000
v -2.21382538 -5.57385249 -0.90140905
v -2.24180403 -5.68139677 -0.81651753
v 7.50931990 -5.68139677 -0.94067675
v 7.58457357 -5.57385249 -0.90140905
v -2.24180403 -5.57385249 -0.81651753
v -2.24276874 -5.68139677 -0.35113827
v 7.58457357 -5.68139677 -0.90140905
v 7.58553827 -5.57385249 -0.90053835
v -2.24276874 -5.57385249 -0.35113827
v -2.24276874 -5.68139677 -0.23185489
v 7.58843237 -5.68139677 -0.89183148
v 7.61158752 -5.57385249 -0.81651753
v -2.24276874 -5.57385249 -0.23185489
v -2.24180403 -5.68139677 -0.22062310
v -2.23505054 -5.57385249 -0.13529630
v 7.61158752 -5.68139677 -0.81651753
v 7.61351693 -5.57385249 -0.35113827
v -2.23312114 -5.68139677 -0.13433857
v -2.20900129 -5.57385249 -0.07025640
v 7.61351693 -5.68139677 -0.35113827
v 7.61351693 -5.57385249 -0.23089715
v -2.20610660 -5.68139677 -0.07182361
v -2.20803659 -5.57385249 -0.06964693
v 7.61351693 -5.68139677 -0.23185489
v 7.60579874 -5.57385249 -0.13433857
v -2.14050111 -5.68139677 -0.05467121
v -2.14243081 -5.67035392 -0.05467121
v -2.15400838 -5.59476973 -0.05467121
v -2.15593778 -5.57385249 -0.05467121
v 7.60386933 -5.68139677 -0.13433857
v 7.57878478 -5.57385249 -0.06964693
v 7.48037625 -5.68139677 -0.05467121
v 7.52186218 -5.57385249 -0.05467121
v 7.60097465 -5.68139677 -0.12746017
v 7.57685479 -5.68139677 -0.07191071
v 7.51028460 -5.68139677 -0.05606429
v 7.51028460 -5.64969987 -0.05467121
f 1 2 6
f 1 6 3
f 1 3 4
f 1 4 9
f 1 9 13
f 1 13 16
f 1 16 20
f 1 20 24
f 1 24 29
f 1 29 33
f 1 33 37
f 1 37 43
f 1 43 47
f 1 47 48
f 1 48 49
f 1 49 45
f 1 45 39
f 1 39 35
f 1 35 31
f 1 31 27
f 1 27 23
f 1 23 19
f 1 19 15
f 1 15 11
f 1 11 5
f 1 5 2
f 2 5 10
f 2 10 6
f 3 7 4
f 3 6 10
f 3 10 14
f 3 14 18
f 3 18 22
f 3 22 26
f 3 26 28
f 3 28 32
f 3 32 36
f 3 36 42
f 3 42 46
f 3 46 44
f 3 44 38
f 3 38 34
f 3 34 30
f 3 30 25
f 3 25 21
f 3 21 17
f 3 17 12
f 3 12 8
f 3 8 7
f 4 8 9
f 4 7 8
f 5 11 14
f 5 14 10
f 8 12 13
f 8 13 9
f 11 15 18
f 11 18 14
f 12 16 13
f 12 17 20
f 12 20 16
f 15 19 22
f 15 22 18
f 17 21 20
f 19 23 26
f 19 26 22
f 20 21 24
f 21 25 24
f 23 27 28
f 23 28 26
f 24 25 29
f 25 30 33
f 25 33 29
f 27 31 28
f 28 31 32
f 30 34 37
f 30 37 33
f 31 35 32
f 32 35 36
f 34 38 37
f 35 39 40
f 35 40 41
f 35 41 42
f 35 42 36
f 37 38 43
f 38 44 43
f 39 45 50
f 39 50 46
f 39 46 42
f 39 42 41
f 39 41 40
f 43 44 47
f 44 46 48
f 44 48 47
f 45 49 50
f 46 50 48
f 48 50 49

