# https://github.com/mikedh/trimesh
v 1.61771039 -7.16928256 0.03167034
v 1.62890921 -7.16928256 0.03167034
v 1.61771039 -7.16928256 0.03235811
v 1.61771039 -6.96342448 0.03167034
v 1.74124837 -7.06686733 0.03167034
v 1.61771039 -7.15582062 0.03313254
v 1.61771039 -6.96342448 0.03793525
v 1.74124837 -6.96342448 0.03167034
v 1.61771039 -7.13284678 0.03445399
v 1.74124837 -6.96342448 0.03461133
v 1.61771039 -6.98190432 0.03794878
v 1.61771039 -7.07938200 0.03584551
v 1.61771039 -7.03536896 0.03697582
f 1 2 3
f 1 3 6
f 1 6 9
f 1 9 12
f 1 12 13
f 1 13 11
f 1 11 7
f 1 7 4
f 1 4 8
f 1 8 5
f 1 5 2
f 2 5 3
f 3 5 6
f 4 7 10
f 4 10 8
f 5 9 6
f 5 8 10
f 5 10 9
f 7 11 10
f 9 10 12
f 10 11 13
f 10 13 12

