# https://github.com/mikedh/trimesh
v -2.23675795 -5.80727458 -0.17368451
v -2.23675795 -5.78869653 -0.17368451
v -2.23483087 -5.87656395 -0.17368451
v -2.23001318 -5.86534828 -0.13427358
v -2.23097672 -5.78869653 -0.13427358
v 7.60674833 -5.78869653 -0.17368451
v -2.23001318 -5.87656395 -0.13881697
v 7.60578479 -5.87656395 -0.17368451
v -2.20977886 -5.78869653 -0.08652146
v -2.22904964 -5.87656395 -0.13427358
v -2.20303409 -5.87656395 -0.07566394
v 7.60193063 -5.78869653 -0.13427358
v 7.60000355 -5.87656395 -0.13432018
v -2.20399763 -5.78869653 -0.07395144
v -2.14714912 -5.87656395 -0.06358320
v -2.14040435 -5.78869653 -0.05880683
v -2.15293036 -5.78869653 -0.06171925
v 7.59711294 -5.78869653 -0.12170355
v 7.57398801 -5.87656395 -0.07574549
v -2.14040435 -5.87656395 -0.06222019
v -2.07681079 -5.80173554 -0.05467119
v -2.08355556 -5.78869653 -0.05467119
v 7.57495154 -5.78869653 -0.07399804
v 7.51039415 -5.78869653 -0.06030964
v 7.51039415 -5.87656395 -0.06373465
v -2.05368585 -5.87656395 -0.05594100
v -2.03634215 -5.87656395 -0.05469449
v -2.04212339 -5.86534828 -0.05467119
v 7.38320702 -5.78869653 -0.05467119
v 7.41404026 -5.78869653 -0.05601090
v 7.41404026 -5.87656395 -0.05942427
v -2.00165475 -5.87656395 -0.05467119
v 7.30612390 -5.87656395 -0.05467119
f 1 2 6
f 1 6 8
f 1 8 3
f 1 3 4
f 1 4 5
f 1 5 2
f 2 5 9
f 2 9 14
f 2 14 17
f 2 17 16
f 2 16 22
f 2 22 29
f 2 29 30
f 2 30 24
f 2 24 23
f 2 23 18
f 2 18 12
f 2 12 6
f 3 7 4
f 3 8 13
f 3 13 19
f 3 19 25
f 3 25 31
f 3 31 33
f 3 33 32
f 3 32 27
f 3 27 26
f 3 26 20
f 3 20 15
f 3 15 11
f 3 11 10
f 3 10 7
f 4 9 5
f 4 7 10
f 4 10 11
f 4 11 9
f 6 12 8
f 8 12 13
f 9 11 14
f 11 15 16
f 11 16 17
f 11 17 14
f 12 18 13
f 13 18 19
f 15 20 16
f 16 20 21
f 16 21 22
f 18 23 19
f 19 24 25
f 19 23 24
f 20 26 21
f 21 26 27
f 21 27 28
f 21 28 32
f 21 32 33
f 21 33 29
f 21 29 22
f 24 30 31
f 24 31 25
f 27 32 28
f 29 33 30
f 30 33 31

