# https://github.com/mikedh/trimesh
v -2.24306396 -6.24761897 -0.52897773
v -2.24306396 -6.24761897 -0.23182238
v -2.24306396 -6.15787241 -0.52897773
v -0.19394568 -6.24761897 -0.52897773
v -2.24145941 -6.24761897 -0.22411611
v -2.22360779 -6.15761700 -0.13433350
v -2.24306396 -6.15761700 -0.23182238
v -2.24306396 -6.15761700 -0.52419614
v -2.23865132 -6.15761700 -0.52897773
v -0.19394568 -6.15761700 -0.52897773
v -0.19394568 -6.24761897 -0.05471760
v -2.22120069 -6.24761897 -0.13433350
v -2.21919516 -6.24761897 -0.13010899
v -2.19672982 -6.15761700 -0.08080748
v -0.19394568 -6.15761700 -0.05471760
v -1.84812343 -6.24761897 -0.05471760
v -2.19452380 -6.24761897 -0.08238587
v -2.19011116 -6.24761897 -0.08168951
v -2.14056794 -6.15787241 -0.07249770
v -2.14056794 -6.15761700 -0.07249770
v -1.89225067 -6.15761700 -0.05471760
v -1.89225067 -6.15787241 -0.05471760
v -1.94560474 -6.24761897 -0.06149539
v -2.14056794 -6.24761897 -0.07556164
v -2.13294593 -6.24761897 -0.07500456
v -2.04308634 -6.15787241 -0.06544136
v -2.04308634 -6.15761700 -0.06544136
v -1.94560474 -6.15761700 -0.05843146
v -1.94560474 -6.15787241 -0.05843146
v -2.04308634 -6.24761897 -0.06850531
f 1 2 7
f 1 7 8
f 1 8 3
f 1 3 9
f 1 9 10
f 1 10 4
f 1 4 11
f 1 11 16
f 1 16 23
f 1 23 30
f 1 30 25
f 1 25 24
f 1 24 18
f 1 18 17
f 1 17 13
f 1 13 12
f 1 12 5
f 1 5 2
f 2 5 6
f 2 6 7
f 3 8 9
f 4 10 15
f 4 15 11
f 5 12 6
f 6 12 13
f 6 13 14
f 6 14 20
f 6 20 27
f 6 27 28
f 6 28 21
f 6 21 15
f 6 15 10
f 6 10 9
f 6 9 8
f 6 8 7
f 11 15 21
f 11 21 22
f 11 22 16
f 13 17 14
f 14 17 18
f 14 18 19
f 14 19 20
f 16 22 23
f 18 24 19
f 19 24 25
f 19 25 26
f 19 26 27
f 19 27 20
f 21 28 29
f 21 29 22
f 22 29 23
f 23 29 26
f 23 26 30
f 25 30 26
f 26 29 28
f 26 28 27

