# https://github.com/mikedh/trimesh
v -2.24313718 -6.55103449 -0.23726809
v -2.24313718 -6.55103449 -0.23176248
v -2.24313718 -6.47363596 -0.23726809
v 3.18079929 -6.55103449 -0.23726809
v -2.24313718 -6.47363596 -0.23176248
v -2.21712221 -6.55103449 -0.14013333
v 3.18079929 -6.47363596 -0.23726809
v 3.18079929 -6.55103449 -0.05468907
v -2.21234345 -6.47363596 -0.12808533
v -2.21605988 -6.55103449 -0.13711239
v -2.21605988 -6.54785984 -0.13704089
v 3.18079929 -6.47363596 -0.05468907
v -1.69893850 -6.55103449 -0.05468907
v -2.18845199 -6.47363596 -0.09553428
v -2.16880754 -6.55103449 -0.08995718
v -2.18154973 -6.48103118 -0.08654297
v -1.73716507 -6.47363596 -0.05468907
v -1.70053113 -6.54785984 -0.05468907
v -1.74406704 -6.55103449 -0.05754912
v -2.17305513 -6.47363596 -0.08559558
v -2.16615316 -6.55103449 -0.08833051
v -2.16721491 -6.54785984 -0.08827688
v -2.11890052 -6.55103449 -0.08379017
v -2.11836965 -6.54785984 -0.08361141
v -1.75043814 -6.47363596 -0.05552920
v -1.75043814 -6.55103449 -0.05796026
v -2.13854498 -6.47363596 -0.08277127
v -2.11730789 -6.55103449 -0.08364716
v -2.04350913 -6.55103449 -0.07824881
v -2.06102978 -6.47363596 -0.07710478
v -1.77379902 -6.47363596 -0.05708437
v -1.84812866 -6.54785984 -0.06437752
v -1.84812866 -6.55103449 -0.06448476
v -2.04297825 -6.47363596 -0.07579988
v -1.94900444 -6.55103449 -0.07147403
v -1.84812866 -6.47363596 -0.06205372
v -1.87148925 -6.47363596 -0.06366249
v -1.85131392 -6.55103449 -0.06469928
v -1.94528802 -6.47363596 -0.06881061
f 1 2 5
f 1 5 3
f 1 3 7
f 1 7 4
f 1 4 8
f 1 8 13
f 1 13 19
f 1 19 26
f 1 26 33
f 1 33 38
f 1 38 35
f 1 35 29
f 1 29 28
f 1 28 23
f 1 23 21
f 1 21 15
f 1 15 10
f 1 10 6
f 1 6 2
f 2 6 5
f 3 5 9
f 3 9 14
f 3 14 20
f 3 20 27
f 3 27 30
f 3 30 34
f 3 34 39
f 3 39 37
f 3 37 36
f 3 36 31
f 3 31 25
f 3 25 17
f 3 17 12
f 3 12 7
f 4 7 12
f 4 12 8
f 5 6 9
f 6 10 11
f 6 11 9
f 8 12 17
f 8 17 18
f 8 18 13
f 9 11 10
f 9 10 14
f 10 15 16
f 10 16 14
f 13 18 19
f 14 16 20
f 15 21 22
f 15 22 16
f 16 22 23
f 16 23 24
f 16 24 20
f 17 25 18
f 18 25 19
f 19 25 26
f 20 24 27
f 21 23 22
f 23 28 24
f 24 28 29
f 24 29 30
f 24 30 27
f 25 31 26
f 26 31 32
f 26 32 33
f 29 34 30
f 29 35 34
f 31 36 32
f 32 37 35
f 32 35 38
f 32 38 33
f 32 36 37
f 34 35 39
f 35 37 39

