# https://github.com/mikedh/trimesh
v 1.90194027 -2.19185454 -0.59420722
v 1.90194027 -3.30290670 -0.59420722
v 1.90194027 -2.19185454 -0.94412563
v -0.23392644 -2.19185454 -0.59420722
v 1.90194027 -3.30290670 -0.94412563
v -0.23392644 -3.30290670 -0.59420722
v 1.49822467 -2.19185454 -0.94415984
v -0.23392644 -2.19185454 -0.94412563
v 1.46644597 -3.30290670 -0.94415984
v -0.23392644 -3.30290670 -0.94412563
v 1.33075901 -2.19185454 -0.94415984
v 1.33075901 -3.30290670 -0.94415984
f 1 2 5
f 1 5 3
f 1 3 7
f 1 7 11
f 1 11 8
f 1 8 4
f 1 4 6
f 1 6 2
f 2 6 10
f 2 10 12
f 2 12 9
f 2 9 5
f 3 5 7
f 4 8 10
f 4 10 6
f 5 9 7
f 7 9 12
f 7 12 11
f 8 11 12
f 8 12 10

