# https://github.com/mikedh/trimesh
v 7.58628736 -5.96248265 -0.90175309
v 7.59782775 -5.96286461 -0.86829307
v 7.59782775 -6.09862727 -0.86829307
v 7.58628736 -6.15760799 -0.90170108
v 7.56513019 -6.03189203 -0.91306980
v 7.51031366 -5.96248265 -0.94090855
v 7.56993858 -5.96248265 -0.86829307
v 7.59590474 -6.15760799 -0.86829307
v 7.51031366 -6.15760799 -0.94090114
v 7.41318249 -6.15760799 -0.94415359
v 7.41318249 -5.96248265 -0.94415359
v -2.19992438 -5.96248265 -0.86829307
v -2.22685175 -6.15760799 -0.86829307
v -1.94507503 -6.15760799 -0.94415359
v -1.94603682 -5.96248265 -0.94415359
v -2.21627316 -5.96248265 -0.90127045
v -2.22685175 -5.96286461 -0.86829307
v -2.21627316 -6.06035086 -0.90159712
v -2.21627316 -6.15760799 -0.90138181
v -2.04316799 -6.15760799 -0.94414618
v -2.04316799 -6.06035086 -0.94415359
v -2.04316799 -5.96286461 -0.94415359
v -2.04316799 -5.96248265 -0.94414618
v -2.21627316 -5.96286461 -0.90159712
v -2.14029916 -5.96248265 -0.94074525
v -2.14029916 -6.06035086 -0.94089373
v -2.14029916 -6.15760799 -0.94079719
v -2.14029916 -5.96286461 -0.94089373
f 1 2 3
f 1 3 4
f 1 4 5
f 1 5 6
f 1 6 11
f 1 11 15
f 1 15 23
f 1 23 25
f 1 25 16
f 1 16 12
f 1 12 7
f 1 7 2
f 2 7 12
f 2 12 17
f 2 17 13
f 2 13 8
f 2 8 3
f 3 8 4
f 4 8 13
f 4 13 19
f 4 19 27
f 4 27 20
f 4 20 14
f 4 14 10
f 4 10 9
f 4 9 5
f 5 9 6
f 6 9 10
f 6 10 11
f 10 14 21
f 10 21 22
f 10 22 15
f 10 15 11
f 12 16 17
f 13 17 24
f 13 24 18
f 13 18 19
f 14 20 21
f 15 22 23
f 16 24 17
f 16 25 24
f 18 24 28
f 18 28 26
f 18 26 27
f 18 27 19
f 20 27 26
f 20 26 21
f 21 26 28
f 21 28 22
f 22 28 23
f 23 28 25
f 24 25 28

