# https://github.com/mikedh/trimesh
v 2.56763656 -1.77027199 0.15910141
v 2.53922791 -1.77027199 0.15899346
v 2.56763656 -1.86774807 0.15899346
v 2.56763656 -1.67279620 0.15748154
v 2.53922791 -1.67279620 0.15737352
v 2.43767942 -1.67279620 0.15694158
v 2.53922791 -1.86774807 0.15834548
v 2.56763656 -2.05098144 0.15586167
v 2.56763656 -1.57532012 0.15575365
v 2.43767942 -1.57532012 0.15532164
v 2.43767942 -1.77053845 0.15294585
v 2.44175053 -1.77027199 0.15370177
v 2.53922791 -2.05098144 0.15316181
v 2.56763656 -2.05098144 -0.94415955
v 2.53922791 -1.47784433 0.15391774
v 2.56763656 -1.38023517 0.15208190
v 2.43767942 -1.48183913 0.15359375
v 2.43767942 -1.87893367 0.13361499
v 2.46812361 -2.05098144 0.12616347
v 2.56763656 -0.69057960 -0.94415955
v 2.43801020 -2.05098144 -0.94415955
v 2.56763656 -1.35200429 0.15154187
v 2.53922791 -1.28289246 0.15013797
v 2.43767942 -1.38023517 0.15164989
v 2.43767942 -2.05098144 0.10197292
v 2.43780664 -0.69057960 -0.94415955
v 2.56763656 -0.69057960 0.13728674
v 2.43767942 -2.05098144 -0.02653930
v 2.43767942 -1.96535723 -0.94415955
v 2.56763656 -1.25452850 0.14959801
v 2.43767942 -1.28702034 0.14981398
v 2.56763656 -1.18541638 0.14819411
v 2.44175053 -1.18541638 0.14776210
v 2.43767942 -0.69390869 -0.94415955
v 2.43767942 -0.69057960 -0.94081172
v 2.44175053 -0.69057960 0.13685480
v 2.53922791 -0.69790377 0.13739476
v 2.56763656 -0.86449168 0.14128255
v 2.43767942 -1.09193539 0.14571022
v 2.56763656 -1.08794059 0.14614223
v 2.44175053 -1.08794059 0.14571022
v 2.43767942 -0.69057960 0.13674678
v 2.43767942 -0.69790377 0.13696275
v 2.43767942 -0.70203165 0.13707077
v 2.43767942 -0.79537956 0.13923067
v 2.53922791 -0.89298872 0.14182251
v 2.56763656 -0.96196747 0.14344238
v 2.43767942 -0.99445960 0.14365834
v 2.53922791 -0.99046451 0.14398233
v 2.43767942 -0.89698352 0.14149852
f 1 2 3
f 1 3 8
f 1 8 14
f 1 14 20
f 1 20 27
f 1 27 38
f 1 38 47
f 1 47 40
f 1 40 32
f 1 32 30
f 1 30 22
f 1 22 16
f 1 16 9
f 1 9 4
f 1 4 5
f 1 5 2
f 2 5 10
f 2 10 6
f 2 6 7
f 2 7 3
f 3 7 8
f 4 9 10
f 4 10 5
f 6 11 12
f 6 12 13
f 6 13 8
f 6 8 7
f 6 10 17
f 6 17 24
f 6 24 31
f 6 31 39
f 6 39 48
f 6 48 50
f 6 50 45
f 6 45 44
f 6 44 43
f 6 43 42
f 6 42 35
f 6 35 34
f 6 34 29
f 6 29 28
f 6 28 25
f 6 25 18
f 6 18 11
f 8 13 19
f 8 19 25
f 8 25 28
f 8 28 21
f 8 21 14
f 9 15 10
f 9 16 15
f 10 15 17
f 11 18 19
f 11 19 13
f 11 13 12
f 14 21 29
f 14 29 34
f 14 34 26
f 14 26 20
f 15 16 22
f 15 22 23
f 15 23 24
f 15 24 17
f 18 25 19
f 20 26 35
f 20 35 42
f 20 42 36
f 20 36 27
f 21 28 29
f 22 30 23
f 23 31 24
f 23 30 32
f 23 32 33
f 23 33 31
f 26 34 35
f 27 36 37
f 27 37 38
f 31 33 39
f 32 40 41
f 32 41 33
f 33 41 48
f 33 48 39
f 36 42 43
f 36 43 44
f 36 44 45
f 36 45 37
f 37 45 38
f 38 45 46
f 38 46 49
f 38 49 47
f 40 47 49
f 40 49 41
f 41 49 48
f 45 50 46
f 46 50 48
f 46 48 49

