# https://github.com/mikedh/trimesh
v -2.04242093 -6.55101938 -0.94416100
v -2.13987406 -6.55101938 -0.94087564
v -2.04242093 -6.47363596 -0.94416100
v 7.41341785 -6.55101938 -0.94407993
v -2.21513470 -6.55101938 -0.90157250
v -2.19776659 -6.47363596 -0.91094201
v -2.13987406 -6.47363596 -0.94087564
v 7.41341785 -6.47363596 -0.94407993
v 7.41631254 -6.55101938 -0.94399879
v -2.23636219 -6.47363596 -0.83695975
v -2.21513470 -6.47363596 -0.90157250
v -2.24215156 -6.55101938 -0.81676059
v 7.43657504 -6.47363596 -0.94330926
v 7.51087098 -6.47363596 -0.94083504
v 7.51087098 -6.55101938 -0.94083504
v -2.24215156 -6.47363596 -0.81676059
v -2.24215156 -6.55101938 -0.69897301
v -2.24311626 -6.55100427 -0.62584252
v 7.58613162 -6.47363596 -0.90153196
v 7.58613162 -6.55101938 -0.90153196
v -2.24311626 -6.47363596 -0.62584252
v 1.17835351 -6.55101182 -0.52979533
v -2.24311626 -6.55100427 -0.52979533
v 7.61314848 -6.55101938 -0.69897301
v 7.61314848 -6.47363596 -0.81676059
v 7.61314848 -6.55101938 -0.81676059
v -2.24311626 -6.47363596 -0.52979533
v 7.60832381 -6.55101182 -0.52979533
v 7.61411318 -6.55101182 -0.61858217
v 7.61411318 -6.47363596 -0.62584252
v 7.61411318 -6.55089066 -0.62584252
v 7.61411318 -6.55101182 -0.62178645
v 7.61411318 -6.47363596 -0.52979533
v 7.61411318 -6.55083763 -0.52979533
f 1 2 7
f 1 7 3
f 1 3 8
f 1 8 4
f 1 4 9
f 1 9 15
f 1 15 20
f 1 20 26
f 1 26 24
f 1 24 17
f 1 17 12
f 1 12 5
f 1 5 2
f 2 5 6
f 2 6 7
f 3 7 6
f 3 6 11
f 3 11 10
f 3 10 16
f 3 16 21
f 3 21 27
f 3 27 33
f 3 33 30
f 3 30 25
f 3 25 19
f 3 19 14
f 3 14 13
f 3 13 8
f 4 8 9
f 5 10 11
f 5 11 6
f 5 12 10
f 8 13 9
f 9 13 14
f 9 14 15
f 10 12 16
f 12 17 23
f 12 23 18
f 12 18 21
f 12 21 16
f 14 19 20
f 14 20 15
f 17 22 23
f 17 24 28
f 17 28 22
f 18 23 27
f 18 27 21
f 19 25 26
f 19 26 20
f 22 28 34
f 22 34 33
f 22 33 27
f 22 27 23
f 24 26 32
f 24 32 29
f 24 29 28
f 25 30 31
f 25 31 26
f 26 31 32
f 28 29 34
f 29 32 31
f 29 31 30
f 29 30 33
f 29 33 34

