# https://github.com/mikedh/trimesh
v 1.70685408 -5.28286288 -0.16730146
v 1.70685408 -5.28286288 0.09394961
v 1.70685408 -5.12994383 -0.16730146
v 5.36806104 -5.28286288 -0.16730146
v 1.75817270 -5.28286288 0.09464869
v 1.71474923 -5.12994383 0.10094068
v 1.70685408 -5.13811746 0.10045668
v 1.70685408 -5.12994383 0.10080622
v 5.37236761 -5.12994383 -0.16730146
v 5.37236761 -5.28274309 -0.16730146
v 5.36662561 -5.28286288 0.04947561
v 1.75924927 -5.12994383 0.10153221
v 1.85435021 -5.28286288 0.09583181
v 5.37236761 -5.12994383 0.04831939
v 5.37236761 -5.28269819 0.04923360
v 5.36662561 -5.28034790 0.04958316
v 5.26901267 -5.28286288 0.05329381
v 1.85686236 -5.18286296 0.10032223
v 1.95447530 -5.18286296 0.10142466
v 1.85686236 -5.12994383 0.10255399
v 1.95196330 -5.28286288 0.09693425
v 5.37236761 -5.18286296 0.04982517
v 5.36662561 -5.12994383 0.04866895
v 5.37236761 -5.28034790 0.04931427
v 5.26901267 -5.18286296 0.05490714
v 4.97653241 -5.12994383 0.06886240
v 5.07414535 -5.18286296 0.06378043
v 4.97653241 -5.18286296 0.06762551
v 5.26901267 -5.28034790 0.05340136
v 5.17139944 -5.28286288 0.05673557
v 1.95447530 -5.28286288 0.09696114
v 2.04957624 -5.28286288 0.09792913
v 2.05208838 -5.28034790 0.09806357
v 2.14934261 -5.28034790 0.09895091
v 2.24695569 -5.28034790 0.09967691
v 2.05208838 -5.18286296 0.10209689
v 1.95447530 -5.12994383 0.10325309
v 5.26901267 -5.12994383 0.05393914
v 5.17139944 -5.12994383 0.05912867
v 5.07414535 -5.12994383 0.06429131
v 5.36662561 -5.18286296 0.05012094
v 4.87891918 -5.12994383 0.07276127
v 5.07091564 -5.28286288 0.06012356
v 5.07414535 -5.28286288 0.06001599
v 5.17139944 -5.28034790 0.05684312
v 4.78166510 -5.12994383 0.07614924
v 4.87891918 -5.18286296 0.07077150
v 4.97330241 -5.28286288 0.06329643
v 2.14683046 -5.28286288 0.09881645
v 2.24372583 -5.28286288 0.09954244
v 2.34456871 -5.28286288 0.10005334
v 2.34456871 -5.28034790 0.10013401
v 2.44182286 -5.28034790 0.10051045
v 2.99017851 -5.12994383 0.10731330
v 4.68405216 -5.12994383 0.07905322
v 4.78166510 -5.18286296 0.07378303
v 4.87568947 -5.28286288 0.06638863
v 2.53620609 -5.28286288 0.10075246
v 2.63704896 -5.28034790 0.10120957
v 2.92952921 -5.18286296 0.10537732
v 3.09353353 -5.12994383 0.10739397
v 4.63955198 -5.12994383 0.08034389
v 4.68405216 -5.18286296 0.07668702
v 4.77843539 -5.28286288 0.06940018
v 2.63381910 -5.28286288 0.10110200
v 2.73430311 -5.28034790 0.10150533
v 2.83191620 -5.28034790 0.10155911
v 3.02678344 -5.18286296 0.10537732
v 3.12439649 -5.18286296 0.10497397
v 3.18827562 -5.12994383 0.10696374
v 4.58643893 -5.12994383 0.08184966
v 4.58643893 -5.18286296 0.07948345
v 4.58320922 -5.28286288 0.07510060
v 4.68082216 -5.28286288 0.07230416
v 2.73107333 -5.28286288 0.10139779
v 2.92952921 -5.28034790 0.10139779
v 2.82868634 -5.28286288 0.10145156
v 2.83191620 -5.28286288 0.10145156
v 3.02678344 -5.28286288 0.10096756
v 2.92952921 -5.28286288 0.10129024
v 3.12439649 -5.28286288 0.10048357
v 3.22200954 -5.28286288 0.09989200
v 3.22200954 -5.12994383 0.10674865
v 4.54193889 -5.12994383 0.08308655
v 4.48918485 -5.12994383 0.08453854
v 4.48918485 -5.28286288 0.07768190
v 3.31675162 -5.28286288 0.09913913
v 3.27942894 -5.12994383 0.10629154
v 4.39157176 -5.12994383 0.08711985
v 4.39157176 -5.28286288 0.08026324
v 3.41436463 -5.28286288 0.09819802
v 3.41472349 -5.12994383 0.10505464
v 3.31926369 -5.12994383 0.10596886
v 4.29395868 -5.12994383 0.08953984
v 4.29395868 -5.28034790 0.08281766
v 4.29144668 -5.28286288 0.08276387
v 3.41687678 -5.28286288 0.09817112
v 3.51448979 -5.28286288 0.09709557
v 3.51448979 -5.12994383 0.10395221
v 4.24945864 -5.12994383 0.09061540
v 4.19347474 -5.28286288 0.08507632
v 3.61138509 -5.28286288 0.09585871
v 3.56688505 -5.12994383 0.10327999
v 4.19670460 -5.12994383 0.09185228
v 4.09909151 -5.18286296 0.09166406
v 4.09586165 -5.28286288 0.08725431
v 3.70576831 -5.28286288 0.09446047
v 3.70899817 -5.12994383 0.10126332
v 3.61138509 -5.12994383 0.10268844
v 4.09909151 -5.12994383 0.09403026
v 4.05459147 -5.12994383 0.09497137
v 4.00147843 -5.28286288 0.08921718
v 3.80409911 -5.28286288 0.09290093
v 3.80661126 -5.12994383 0.09970378
v 4.00147843 -5.12994383 0.09607381
v 3.90422427 -5.28034790 0.09123385
v 3.90099441 -5.28286288 0.09118005
v 3.85936530 -5.12994383 0.09876269
v 3.90422427 -5.12994383 0.09795603
f 1 2 7
f 1 7 8
f 1 8 3
f 1 3 9
f 1 9 10
f 1 10 4
f 1 4 11
f 1 11 17
f 1 17 30
f 1 30 44
f 1 44 43
f 1 43 48
f 1 48 57
f 1 57 64
f 1 64 74
f 1 74 73
f 1 73 86
f 1 86 90
f 1 90 96
f 1 96 101
f 1 101 106
f 1 106 112
f 1 112 117
f 1 117 113
f 1 113 107
f 1 107 102
f 1 102 98
f 1 98 97
f 1 97 91
f 1 91 87
f 1 87 82
f 1 82 81
f 1 81 79
f 1 79 80
f 1 80 78
f 1 78 77
f 1 77 75
f 1 75 65
f 1 65 58
f 1 58 51
f 1 51 50
f 1 50 49
f 1 49 32
f 1 32 31
f 1 31 21
f 1 21 13
f 1 13 5
f 1 5 2
f 2 5 6
f 2 6 7
f 3 8 6
f 3 6 12
f 3 12 20
f 3 20 37
f 3 37 54
f 3 54 61
f 3 61 70
f 3 70 83
f 3 83 88
f 3 88 93
f 3 93 92
f 3 92 99
f 3 99 103
f 3 103 109
f 3 109 108
f 3 108 114
f 3 114 118
f 3 118 119
f 3 119 115
f 3 115 111
f 3 111 110
f 3 110 104
f 3 104 100
f 3 100 94
f 3 94 89
f 3 89 85
f 3 85 84
f 3 84 71
f 3 71 62
f 3 62 55
f 3 55 46
f 3 46 42
f 3 42 26
f 3 26 40
f 3 40 39
f 3 39 38
f 3 38 23
f 3 23 14
f 3 14 9
f 4 10 11
f 5 12 6
f 5 13 12
f 6 8 7
f 9 14 22
f 9 22 24
f 9 24 15
f 9 15 10
f 10 15 11
f 11 15 16
f 11 16 29
f 11 29 17
f 12 13 18
f 12 18 19
f 12 19 20
f 13 21 19
f 13 19 18
f 14 23 22
f 15 24 16
f 16 24 25
f 16 25 26
f 16 26 27
f 16 27 28
f 16 28 29
f 17 29 45
f 17 45 30
f 19 21 31
f 19 31 32
f 19 32 33
f 19 33 34
f 19 34 35
f 19 35 36
f 19 36 37
f 19 37 20
f 22 23 38
f 22 38 39
f 22 39 40
f 22 40 41
f 22 41 24
f 24 41 25
f 25 40 26
f 25 41 40
f 26 42 27
f 27 42 28
f 28 43 44
f 28 44 30
f 28 30 45
f 28 45 29
f 28 42 46
f 28 46 47
f 28 47 48
f 28 48 43
f 32 49 34
f 32 34 33
f 34 49 50
f 34 50 35
f 35 50 51
f 35 51 36
f 36 51 52
f 36 52 53
f 36 53 54
f 36 54 37
f 46 55 63
f 46 63 56
f 46 56 47
f 47 56 64
f 47 64 57
f 47 57 48
f 51 58 53
f 51 53 52
f 53 58 65
f 53 65 59
f 53 59 54
f 54 59 60
f 54 60 61
f 55 62 63
f 56 63 74
f 56 74 64
f 59 65 75
f 59 75 66
f 59 66 60
f 60 67 68
f 60 68 61
f 60 66 67
f 61 68 69
f 61 69 70
f 62 71 72
f 62 72 73
f 62 73 74
f 62 74 63
f 66 75 77
f 66 77 67
f 67 76 68
f 67 77 78
f 67 78 80
f 67 80 76
f 68 79 69
f 68 76 80
f 68 80 79
f 69 81 70
f 69 79 81
f 70 81 82
f 70 82 83
f 71 84 72
f 72 84 73
f 73 84 85
f 73 85 86
f 82 87 83
f 83 87 88
f 85 89 90
f 85 90 86
f 87 91 92
f 87 92 93
f 87 93 88
f 89 94 95
f 89 95 90
f 90 95 96
f 91 97 92
f 92 97 98
f 92 98 99
f 94 100 95
f 95 100 101
f 95 101 96
f 98 102 99
f 99 102 103
f 100 104 101
f 101 104 105
f 101 105 106
f 102 107 108
f 102 108 109
f 102 109 103
f 104 110 105
f 105 110 111
f 105 111 106
f 106 111 112
f 107 113 108
f 108 113 114
f 111 115 112
f 112 115 116
f 112 116 117
f 113 117 114
f 114 117 118
f 115 119 116
f 116 119 117
f 117 119 118

