# https://github.com/mikedh/trimesh
v -0.38604616 -1.43567643 0.10270075
v -0.44124828 -1.43567643 0.10157355
v -0.46569241 -1.43630232 0.10085623
v -0.38604616 -1.43567643 -0.94395571
v -0.38604616 -0.99061212 0.09306830
v -0.38604616 -0.79583140 0.08876445
v -0.53937902 -1.43630232 0.09880679
v -0.46569241 -1.43630232 -0.94405814
v -0.42796533 -1.43567643 -0.94405814
v -0.38604616 -0.50298212 -0.94395571
v -0.38604616 -0.60084205 0.08415321
v -0.46569241 -0.69797148 0.08415321
v -0.46569241 -0.77788709 0.08599769
v -0.58079317 -1.43630232 0.09757712
v -0.89665087 -1.43630232 -0.94416064
v -0.90195382 -0.50298212 -0.94416064
v -0.46569241 -0.50298212 -0.94405814
v -0.38604616 -0.41273810 -0.90470865
v -0.38604616 -0.50329507 0.08179630
v -0.46569241 -0.58289744 0.08138641
v -0.48326828 -0.60052910 0.08128395
v -0.58079317 -0.50298212 0.07595535
v -0.67826751 -1.43630232 0.09429801
v -0.67826751 -0.60052910 0.07503311
v -0.67826751 -0.69797148 0.07728752
v -0.67826751 -0.79551846 0.07954193
v -0.90195382 -1.43630232 -0.94416064
v -0.90195382 -0.41284242 -0.90470865
v -0.46569241 -0.42911768 -0.91188172
v -0.46569241 -0.37841421 -0.83246531
v -0.38604616 -0.37090262 -0.81658211
v -0.46569241 -0.41273810 -0.90470865
v -0.38604616 -0.41357263 0.04634074
v -0.46569241 -0.41388587 0.04521357
v -0.58079317 -0.41430313 0.04336905
v -0.77574214 -0.41513765 0.04008990
v -0.87321647 -0.41565923 0.03834788
v -0.90195382 -0.41586815 0.03773303
v -0.46569241 -0.50298212 0.07943943
v -0.48326828 -0.50298212 0.07892708
v -0.77574214 -0.50298212 0.06939713
v -0.77574214 -1.43630232 0.09040404
v -0.77574214 -0.89296112 0.07841472
v -0.87321647 -0.79551846 0.07267624
v -0.90195382 -0.89296112 0.07380345
v -0.90195382 -0.99019486 0.07595535
v -0.90195382 -1.01898945 0.07657021
v -0.90195382 -1.43630232 0.08517791
v -0.90195382 -0.37100693 -0.81668460
v -0.46569241 -0.37090262 -0.81658211
v -0.38604616 -0.37058967 -0.71913051
v -0.38604616 -0.37173714 -0.03686710
v -0.67826751 -0.37288490 -0.03686710
v -0.77574214 -0.37330217 -0.03686710
v -0.87321647 -0.37392806 -0.03686710
v -0.90195382 -0.37413669 -0.03686710
v -0.90195382 -0.50298212 0.06478585
v -0.87321647 -0.60052910 0.06816743
v -0.87321647 -0.69797148 0.07042183
v -0.87321647 -1.43630232 0.08640758
v -0.90195382 -1.11643211 0.07861965
v -0.90195382 -1.21397909 0.08066913
v -0.90195382 -1.28273119 0.08210373
v -0.90195382 -0.72676606 0.07001195
v -0.90195382 -0.37058967 -0.71913051
v -0.38604616 -0.37058967 -0.13431866
v -0.90195382 -0.37058967 -0.13431866
v -0.90195382 -0.62921937 0.06775754
f 1 2 3
f 1 3 8
f 1 8 4
f 1 4 10
f 1 10 18
f 1 18 31
f 1 31 51
f 1 51 66
f 1 66 52
f 1 52 33
f 1 33 19
f 1 19 11
f 1 11 6
f 1 6 5
f 1 5 2
f 2 5 6
f 2 6 7
f 2 7 3
f 3 7 14
f 3 14 23
f 3 23 42
f 3 42 60
f 3 60 48
f 3 48 27
f 3 27 15
f 3 15 8
f 4 8 9
f 4 9 10
f 6 11 12
f 6 12 13
f 6 13 7
f 7 13 14
f 8 15 9
f 9 15 16
f 9 16 17
f 9 17 10
f 10 17 18
f 11 19 20
f 11 20 12
f 12 14 13
f 12 20 21
f 12 21 22
f 12 22 14
f 14 22 24
f 14 24 25
f 14 25 26
f 14 26 23
f 15 27 16
f 16 28 29
f 16 29 17
f 16 27 48
f 16 48 63
f 16 63 62
f 16 62 61
f 16 61 47
f 16 47 46
f 16 46 45
f 16 45 64
f 16 64 68
f 16 68 57
f 16 57 38
f 16 38 56
f 16 56 67
f 16 67 65
f 16 65 49
f 16 49 28
f 17 29 18
f 18 30 31
f 18 29 32
f 18 32 30
f 19 33 34
f 19 34 35
f 19 35 36
f 19 36 37
f 19 37 38
f 19 38 39
f 19 39 40
f 19 40 20
f 20 40 21
f 21 40 22
f 22 41 24
f 22 40 38
f 22 38 41
f 23 26 43
f 23 43 44
f 23 44 45
f 23 45 46
f 23 46 47
f 23 47 42
f 24 41 25
f 25 41 43
f 25 43 26
f 28 32 29
f 28 49 32
f 30 32 49
f 30 49 50
f 30 50 31
f 31 50 65
f 31 65 51
f 33 52 53
f 33 53 54
f 33 54 55
f 33 55 56
f 33 56 34
f 34 56 35
f 35 56 36
f 36 56 37
f 37 56 38
f 38 57 41
f 38 40 39
f 41 57 58
f 41 58 59
f 41 59 43
f 42 47 61
f 42 61 62
f 42 62 63
f 42 63 60
f 43 59 44
f 44 59 68
f 44 68 64
f 44 64 45
f 48 60 63
f 49 65 50
f 51 65 67
f 51 67 66
f 52 66 67
f 52 67 53
f 53 67 54
f 54 67 55
f 55 67 56
f 57 68 58
f 58 68 59

