# https://github.com/mikedh/trimesh
v -2.24302153 -0.99142631 -0.54914762
v -2.24302153 -0.99142631 -0.13431566
v -2.24302153 -0.86297809 -0.54914762
v -1.06045190 -0.99142631 -0.54914762
v -2.21627897 -0.99142631 -0.04428493
v -2.24302153 -0.86297809 -0.13431566
v -1.06045190 -0.86297809 -0.54914762
v -1.06045190 -0.99142631 0.06979839
v -2.14149313 -0.99142631 0.00254801
v -2.21627897 -0.89286465 -0.04567841
v -2.23491804 -0.86297809 -0.10753667
v -1.06045190 -0.86297809 0.06689027
v -1.06936579 -0.99142631 0.06943489
v -1.06045190 -0.89286465 0.06761732
v -2.14056678 -0.99142631 0.00309327
v -2.14068272 -0.99035758 0.00303268
v -2.21627897 -0.86297809 -0.04610252
v -1.06045190 -0.88505667 0.06743556
v -1.06241965 -0.86297809 0.06682968
v -1.16580075 -0.99142631 0.06525445
v -1.16580075 -0.99035758 0.06525445
v -1.06832409 -0.86297809 0.06658735
v -1.16580075 -0.86297809 0.06240691
v -2.07330561 -0.99142631 0.01060593
v -2.14068272 -0.86297809 -0.00011778
v -1.26327712 -0.99142631 0.06077110
v -1.26327712 -0.89286465 0.05859001
v -1.23340916 -0.86297809 0.05925645
v -2.02468322 -0.99142631 0.01411992
v -2.05825598 -0.89286465 0.00951537
v -2.05154143 -0.86297809 0.00933362
v -1.36086972 -0.99142631 0.05592422
v -1.26327712 -0.86297809 0.05786298
v -1.36086972 -0.86297809 0.05307668
v -1.36086972 -0.89286465 0.05374313
v -1.94677139 -0.99142631 0.01969383
v -1.94572940 -0.99035758 0.01975441
v -1.99192086 -0.86297809 0.01363522
v -2.00951765 -0.89286465 0.01302936
v -1.45834638 -0.99142631 0.05071384
v -1.45834638 -0.86297809 0.04786630
v -1.45834638 -0.89286465 0.04853272
v -1.84825274 -0.99142631 0.02654003
v -1.94572940 -0.89286465 0.01757332
v -1.84825274 -0.89286465 0.02435893
v -1.91586115 -0.86297809 0.01896679
v -1.55582275 -0.99035758 0.04513993
v -1.55582275 -0.99142631 0.04513993
v -1.55582275 -0.86297809 0.04229239
v -1.75181807 -0.99142631 0.03296215
v -1.75066043 -0.99035758 0.03302274
v -1.84825274 -0.86297809 0.02363190
v -1.75066043 -0.86297809 0.03017520
v -1.65318377 -0.86297809 0.03641554
v -1.65318377 -0.89286465 0.03708198
v -1.65422576 -0.99142631 0.03920249
v -1.55686475 -0.99142631 0.04507934
f 1 2 6
f 1 6 3
f 1 3 7
f 1 7 4
f 1 4 8
f 1 8 13
f 1 13 20
f 1 20 26
f 1 26 32
f 1 32 40
f 1 40 48
f 1 48 57
f 1 57 56
f 1 56 50
f 1 50 43
f 1 43 36
f 1 36 29
f 1 29 24
f 1 24 15
f 1 15 9
f 1 9 5
f 1 5 2
f 2 5 6
f 3 6 11
f 3 11 17
f 3 17 25
f 3 25 31
f 3 31 38
f 3 38 46
f 3 46 52
f 3 52 53
f 3 53 54
f 3 54 49
f 3 49 41
f 3 41 34
f 3 34 33
f 3 33 28
f 3 28 23
f 3 23 22
f 3 22 19
f 3 19 12
f 3 12 7
f 4 7 12
f 4 12 18
f 4 18 14
f 4 14 8
f 5 9 10
f 5 10 11
f 5 11 6
f 8 14 13
f 9 15 16
f 9 16 17
f 9 17 10
f 10 17 11
f 12 19 18
f 13 14 21
f 13 21 20
f 14 18 22
f 14 22 23
f 14 23 21
f 15 24 25
f 15 25 16
f 16 25 17
f 18 19 22
f 20 21 26
f 21 23 27
f 21 27 26
f 23 28 27
f 24 29 30
f 24 30 25
f 25 30 31
f 26 27 35
f 26 35 32
f 27 33 34
f 27 34 35
f 27 28 33
f 29 36 37
f 29 37 38
f 29 38 39
f 29 39 30
f 30 39 38
f 30 38 31
f 32 35 42
f 32 42 40
f 34 41 42
f 34 42 35
f 36 43 37
f 37 44 38
f 37 43 45
f 37 45 44
f 38 44 46
f 40 42 47
f 40 47 48
f 41 47 42
f 41 49 47
f 43 50 51
f 43 51 45
f 44 45 46
f 45 52 46
f 45 51 53
f 45 53 52
f 47 49 54
f 47 54 55
f 47 55 56
f 47 56 57
f 47 57 48
f 50 56 51
f 51 56 55
f 51 55 54
f 51 54 53

