# https://github.com/mikedh/trimesh
v 5.94369009 -6.60170571 -0.02165947
v 5.56932385 -6.70481948 0.03166974
v 5.59840785 -6.73475514 0.03166974
v 5.62078078 -6.76333020 0.03166974
v 5.94369009 -6.76333020 -0.02574157
v 5.94369009 -6.60170571 -0.05466273
v 5.40824200 -6.60170571 0.03166974
v 5.41271624 -6.60414245 0.03166974
v 5.46566439 -6.63425217 0.03166974
v 5.53352763 -6.67482047 0.03166974
v 0.50046250 -6.76333020 0.03166974
v 5.94369009 -6.76333020 -0.05466273
v -1.67488983 -6.60170571 -0.05466273
v 0.62201964 -6.60170571 0.03166974
v -0.48318169 -6.60170571 -0.00229700
v -0.53687544 -6.60170571 -0.00397886
v -0.58012892 -6.60170571 -0.00533955
v -0.63456887 -6.60170571 -0.00710593
v -0.67782235 -6.60170571 -0.00853424
v -0.77551520 -6.60170571 -0.01185570
v -0.87320863 -6.60170571 -0.01537998
v -0.87320863 -6.76333020 -0.02026498
v -1.59509452 -6.76333020 -0.05466273
v -1.65326309 -6.64577076 -0.05466273
v -1.65326309 -6.60170571 -0.05330204
v -0.92690238 -6.60170571 -0.01745062
v -0.97015587 -6.76333020 -0.02401745
v -1.55556966 -6.76333020 -0.05229631
v -1.55556966 -6.74285616 -0.05166244
v -1.55556966 -6.60170571 -0.04738596
v -1.62119550 -6.71089521 -0.05466273
v -0.97015587 -6.60170571 -0.01913247
v -0.99103700 -6.76333020 -0.02484571
v -1.45787624 -6.76333020 -0.04671830
v -1.45787624 -6.60170571 -0.04183331
v -1.06784929 -6.60170571 -0.02307934
v -1.06784929 -6.76333020 -0.02796432
v -1.38106452 -6.76333020 -0.04261084
v -1.36018339 -6.60170571 -0.03663561
v -1.16554272 -6.60170571 -0.02727975
v -1.08873043 -6.76333020 -0.02885175
v -1.36018339 -6.76333020 -0.04151214
v -1.31692991 -6.60170571 -0.03446356
v -1.26323557 -6.60170571 -0.03178442
v -1.26323557 -6.76333020 -0.03666941
v -1.16554272 -6.76333020 -0.03217319
f 1 2 3
f 1 3 4
f 1 4 5
f 1 5 12
f 1 12 6
f 1 6 13
f 1 13 25
f 1 25 30
f 1 30 35
f 1 35 39
f 1 39 43
f 1 43 44
f 1 44 40
f 1 40 36
f 1 36 32
f 1 32 26
f 1 26 21
f 1 21 20
f 1 20 19
f 1 19 18
f 1 18 17
f 1 17 16
f 1 16 15
f 1 15 14
f 1 14 7
f 1 7 8
f 1 8 9
f 1 9 10
f 1 10 2
f 2 10 9
f 2 9 8
f 2 8 7
f 2 7 14
f 2 14 11
f 2 11 4
f 2 4 3
f 4 11 22
f 4 22 27
f 4 27 33
f 4 33 37
f 4 37 41
f 4 41 46
f 4 46 45
f 4 45 42
f 4 42 38
f 4 38 34
f 4 34 28
f 4 28 23
f 4 23 12
f 4 12 5
f 6 12 23
f 6 23 31
f 6 31 24
f 6 24 13
f 11 14 15
f 11 15 16
f 11 16 17
f 11 17 18
f 11 18 19
f 11 19 20
f 11 20 21
f 11 21 22
f 13 24 25
f 21 26 22
f 22 26 27
f 23 28 29
f 23 29 30
f 23 30 25
f 23 25 31
f 24 31 25
f 26 32 27
f 27 32 33
f 28 34 29
f 29 34 30
f 30 34 35
f 32 36 33
f 33 36 37
f 34 38 35
f 35 38 39
f 36 40 41
f 36 41 37
f 38 42 39
f 39 42 43
f 40 44 45
f 40 45 46
f 40 46 41
f 42 45 43
f 43 45 44

