# https://github.com/mikedh/trimesh
v -1.40781028 -6.55102693 -0.35914903
v -1.40781028 -6.55102693 -0.23729790
v -1.40781028 -6.47363596 -0.35914903
v 7.61411260 -6.55102693 -0.35914903
v -1.40781028 -6.47363596 -0.23729790
v 7.61234708 -6.55102693 -0.23729790
v 7.61411260 -6.47363596 -0.35914903
v 7.61411260 -6.55102693 -0.32608606
v 7.61411260 -6.47363596 -0.23729790
v 7.61411260 -6.55085274 -0.23729790
f 1 2 5
f 1 5 3
f 1 3 7
f 1 7 4
f 1 4 8
f 1 8 6
f 1 6 2
f 2 6 10
f 2 10 9
f 2 9 5
f 3 5 9
f 3 9 7
f 4 7 9
f 4 9 10
f 4 10 8
f 6 8 10

