# https://github.com/mikedh/trimesh
v -1.11313243 -8.37632713 -0.89061566
v -1.11313243 -7.95641421 -0.89061566
v 3.05938613 -8.37632713 -0.89061566
v -1.11313243 -8.37632713 -0.67119782
v -1.11313243 -7.95641421 -0.13511429
v 3.05938613 -7.95641421 -0.89061566
v 3.05979467 -8.37628587 -0.67112387
v 3.05938613 -8.37632713 -0.67119782
v -1.11313243 -8.37628587 -0.13511429
v 3.05979467 -7.95641421 -0.13511429
v 3.05979467 -7.95641421 -0.21490931
v 3.05979467 -7.95645518 -0.67112387
v 3.05979467 -8.37628587 -0.13511429
f 1 2 6
f 1 6 3
f 1 3 8
f 1 8 4
f 1 4 9
f 1 9 5
f 1 5 2
f 2 5 10
f 2 10 11
f 2 11 6
f 3 6 12
f 3 12 7
f 3 7 13
f 3 13 8
f 4 8 13
f 4 13 9
f 5 9 13
f 5 13 10
f 6 11 12
f 7 12 11
f 7 11 10
f 7 10 13

