# https://github.com/mikedh/trimesh
v 5.75864530 -5.37596366 0.03105282
v 5.75816876 -5.35598795 0.03173890
v 5.56167046 -5.37786749 0.03850168
v 5.75667144 -5.37786749 0.03105282
v 5.75667144 -5.42910576 0.02889659
v 5.75864530 -5.42910576 0.02879856
v 5.75864530 -5.35598795 -0.17673096
v 5.68105339 -5.35598795 0.03467924
v 5.56167046 -5.42910576 0.03624742
v 5.56167046 -5.35598795 0.03918776
v 5.36680576 -5.35598795 0.04644060
v 5.46420397 -5.37786749 0.04212810
v 5.75864530 -5.42910576 -0.94406083
v 5.75864530 -5.35598795 -0.94406083
v 5.46420397 -5.42910576 0.03987384
v 5.23421863 -5.35598795 0.05124315
v 5.36680576 -5.37786749 0.04565649
v 5.41295247 -5.42910576 0.04173605
v 5.06331193 -5.42910576 -0.94415882
v 5.06331193 -5.35598795 -0.94415882
v 5.06331193 -5.35598795 0.05712383
v 5.23421863 -5.36385368 0.05094913
v 5.36680576 -5.42910576 0.04340223
v 5.06331193 -5.42910576 0.05379144
v 5.21801949 -5.42910576 0.04859683
f 1 2 3
f 1 3 4
f 1 4 5
f 1 5 6
f 1 6 13
f 1 13 14
f 1 14 7
f 1 7 2
f 2 8 3
f 2 7 14
f 2 14 20
f 2 20 21
f 2 21 16
f 2 16 11
f 2 11 10
f 2 10 8
f 3 9 5
f 3 5 4
f 3 8 10
f 3 10 11
f 3 11 12
f 3 12 15
f 3 15 9
f 5 9 15
f 5 15 18
f 5 18 23
f 5 23 25
f 5 25 24
f 5 24 19
f 5 19 13
f 5 13 6
f 11 16 17
f 11 17 12
f 12 17 18
f 12 18 15
f 13 19 20
f 13 20 14
f 16 21 22
f 16 22 17
f 17 23 18
f 17 22 23
f 19 24 21
f 19 21 20
f 21 24 25
f 21 25 22
f 22 25 23

