# https://github.com/mikedh/trimesh
v 7.25743003 -5.93372874 -0.05467118
v 7.21893904 -5.93372874 -0.05296141
v 6.87482054 -6.41738836 -0.05467118
v 5.12054821 -5.93372874 -0.05467118
v 7.12145627 -5.93372874 -0.04867436
v 6.86185083 -6.41738836 -0.05409844
v 5.17159092 -6.41738836 -0.05467118
v 5.12054821 -6.10429285 -0.05467118
v 5.12054821 -5.93372874 0.03137312
v 7.02397351 -5.93372874 -0.04442099
v 6.92649075 -5.93372874 -0.04017605
v 6.82900798 -5.93372874 -0.03593953
v 6.82900798 -6.41738836 -0.05267504
v 5.17159092 -6.41738836 0.01820875
v 5.12054821 -6.10429285 0.02577215
v 5.17200906 -5.93372874 0.02962967
v 6.73152493 -5.93372874 -0.03173670
v 6.76436777 -6.41738836 -0.04987877
v 5.19732113 -6.41738836 0.01718121
v 5.95187174 -5.93372874 0.00066468
v 5.85438898 -5.93372874 0.00450534
v 5.75837041 -5.93372874 0.00825335
v 5.68264341 -5.93372874 0.01115068
v 5.56507830 -5.93372874 0.01558934
v 5.49374416 -5.93372874 0.01822560
v 5.46445764 -5.93372874 0.01929525
v 5.39626140 -5.93372874 0.02177147
v 5.36697487 -5.93372874 0.02282427
v 5.26949182 -5.93372874 0.02626909
v 6.63404217 -5.93372874 -0.02756756
v 6.73152493 -6.41738836 -0.04846379
v 6.53655940 -5.93372874 -0.02340685
v 6.43907664 -5.93372874 -0.01928824
v 6.34159388 -5.93372874 -0.01522017
v 6.27318843 -5.93372874 -0.01238178
v 6.14704648 -5.93372874 -0.00718511
v 6.04956372 -5.93372874 -0.00324336
v 5.98115827 -5.93372874 -0.00050606
f 1 2 3
f 1 3 7
f 1 7 8
f 1 8 4
f 1 4 9
f 1 9 16
f 1 16 29
f 1 29 28
f 1 28 27
f 1 27 26
f 1 26 25
f 1 25 24
f 1 24 23
f 1 23 22
f 1 22 21
f 1 21 20
f 1 20 38
f 1 38 37
f 1 37 36
f 1 36 35
f 1 35 34
f 1 34 33
f 1 33 32
f 1 32 30
f 1 30 17
f 1 17 12
f 1 12 11
f 1 11 10
f 1 10 5
f 1 5 2
f 2 5 6
f 2 6 3
f 3 6 13
f 3 13 18
f 3 18 31
f 3 31 19
f 3 19 14
f 3 14 7
f 4 8 15
f 4 15 9
f 5 10 6
f 6 10 11
f 6 11 12
f 6 12 13
f 7 14 15
f 7 15 8
f 9 15 14
f 9 14 16
f 12 17 18
f 12 18 13
f 14 19 20
f 14 20 21
f 14 21 22
f 14 22 23
f 14 23 24
f 14 24 25
f 14 25 26
f 14 26 27
f 14 27 28
f 14 28 29
f 14 29 16
f 17 30 19
f 17 19 31
f 17 31 18
f 19 30 32
f 19 32 33
f 19 33 34
f 19 34 35
f 19 35 36
f 19 36 37
f 19 37 38
f 19 38 20

