# https://github.com/mikedh/trimesh
v 2.34753923 -4.66806087 -0.94415962
v 2.34753923 -4.66806087 0.10525990
v 2.34753923 -4.39618234 -0.94415962
v 5.75864559 -4.66806087 -0.94405407
v 2.34753923 -4.66566358 0.10525990
v 3.34656328 -4.66806087 0.12309495
v 3.51451427 -4.39594262 0.13322613
v 3.41701589 -4.39594262 0.13122100
v 3.32619552 -4.39594262 0.12911035
v 2.34753923 -4.39594262 -0.44509437
v 2.43502063 -4.39594262 -0.94405407
v 5.75864559 -4.39594262 -0.94405407
v 5.75864559 -4.66806087 -0.02064091
v 2.34753923 -4.59454419 0.10473222
v 3.41701589 -4.66806087 0.12393921
v 3.41701589 -4.59784711 0.12604990
v 3.52119221 -4.39594262 0.13333165
v 3.22869714 -4.39594262 0.12647203
v 2.34753923 -4.39594262 0.10146070
v 5.75864559 -4.39594262 -0.24658693
v 5.26915069 -4.66806087 0.03634689
v 5.75864559 -4.59784711 -0.04016448
v 5.28918451 -4.39594262 0.01513476
v 5.27048616 -4.39594262 0.01946160
v 5.17165223 -4.39594262 0.03782434
v 5.07415378 -4.39594262 0.05228236
v 4.97665547 -4.39594262 0.06399651
v 2.34753923 -4.50038425 0.10346583
v 3.44406166 -4.66806087 0.12425583
v 3.51451427 -4.50038425 0.13006013
v 3.61201258 -4.39594262 0.13396484
v 2.35121207 -4.39594262 0.10156625
v 2.34753923 -4.40286810 0.10167176
v 5.75864559 -4.44186391 -0.16986447
v 5.56765567 -4.39594262 -0.11171582
v 5.17165223 -4.66806087 0.04753339
v 5.75864559 -4.59638211 -0.04069216
v 5.33593009 -4.39594262 0.00342061
v 4.87915716 -4.39594262 0.07381107
v 5.07415378 -4.66806087 0.05745347
v 3.51451427 -4.66806087 0.12415028
v 3.51451427 -4.59784711 0.12689416
v 3.61201258 -4.50038425 0.13016568
v 3.70951089 -4.40286810 0.13269845
v 3.70951089 -4.39594262 0.13290952
v 5.75864559 -4.44282282 -0.16838702
v 5.48050829 -4.39594262 -0.05272292
v 5.75864559 -4.52813946 -0.07119118
v 5.35930318 -4.39594262 -0.00375562
v 4.78165871 -4.39594262 0.08225370
v 4.97665547 -4.66806087 0.06621271
v 3.54156005 -4.66806087 0.12404476
v 3.61201258 -4.59784711 0.12615541
v 3.70951089 -4.50038425 0.12879374
v 3.71618890 -4.39594262 0.13280400
v 3.80700927 -4.40286810 0.13111545
v 5.75864559 -4.47859561 -0.12058059
v 5.47349648 -4.39594262 -0.04976798
v 5.75864559 -4.52718054 -0.07203544
v 5.75864559 -4.47936807 -0.11963080
v 4.68416054 -4.39594262 0.08964104
v 4.68416054 -4.40286810 0.08964104
v 4.87915716 -4.66806087 0.07412769
v 3.61201258 -4.66806087 0.12320050
v 3.70951089 -4.66806087 0.12172302
v 3.80700927 -4.59784711 0.12320050
v 3.80700927 -4.50038425 0.12721073
v 3.81368721 -4.39594262 0.13122100
v 3.90450765 -4.50038425 0.12552222
v 3.90450765 -4.39594262 0.12963800
v 4.29416702 -4.39594262 0.11866256
v 4.78165871 -4.66806087 0.08119837
v 3.73655666 -4.66806087 0.12130089
v 3.83405505 -4.66806087 0.11971792
v 3.90450765 -4.66806087 0.11845149
v 4.00200596 -4.66806087 0.11655191
v 4.00200596 -4.59784711 0.11950685
v 4.00200596 -4.50038425 0.12351708
v 4.00200596 -4.39594262 0.12773841
v 4.19666871 -4.39594262 0.12351708
v 4.29416702 -4.50038425 0.11623533
v 4.35794161 -4.59784711 0.11064206
v 4.48916378 -4.66806087 0.10114412
v 4.68416054 -4.66806087 0.08795248
v 4.09917040 -4.66806087 0.11454678
v 4.09917040 -4.59784711 0.11750172
v 4.09917040 -4.50038425 0.12151195
v 4.09917040 -4.40286810 0.12541670
v 4.10584834 -4.39594262 0.12552222
v 4.19666871 -4.40286810 0.12330602
v 4.34558748 -4.64952188 0.10958674
v 4.36395182 -4.66806087 0.10810929
v 4.19666871 -4.50038425 0.11940130
v 4.22371449 -4.66806087 0.11169739
v 4.29416702 -4.59784711 0.11306933
v 4.33056197 -4.66806087 0.10916461
v 4.29416702 -4.66449158 0.11021993
v 4.28348237 -4.66806087 0.11032549
f 1 2 5
f 1 5 14
f 1 14 28
f 1 28 33
f 1 33 19
f 1 19 10
f 1 10 3
f 1 3 12
f 1 12 4
f 1 4 13
f 1 13 21
f 1 21 36
f 1 36 40
f 1 40 51
f 1 51 63
f 1 63 72
f 1 72 84
f 1 84 83
f 1 83 92
f 1 92 96
f 1 96 98
f 1 98 94
f 1 94 85
f 1 85 76
f 1 76 75
f 1 75 74
f 1 74 73
f 1 73 65
f 1 65 64
f 1 64 52
f 1 52 41
f 1 41 29
f 1 29 15
f 1 15 6
f 1 6 2
f 2 6 7
f 2 7 8
f 2 8 9
f 2 9 5
f 3 10 11
f 3 11 12
f 4 12 20
f 4 20 34
f 4 34 46
f 4 46 57
f 4 57 60
f 4 60 59
f 4 59 48
f 4 48 37
f 4 37 22
f 4 22 13
f 5 9 14
f 6 15 16
f 6 16 17
f 6 17 7
f 7 17 31
f 7 31 45
f 7 45 55
f 7 55 68
f 7 68 70
f 7 70 79
f 7 79 89
f 7 89 80
f 7 80 71
f 7 71 61
f 7 61 50
f 7 50 39
f 7 39 27
f 7 27 26
f 7 26 25
f 7 25 24
f 7 24 23
f 7 23 38
f 7 38 49
f 7 49 58
f 7 58 47
f 7 47 35
f 7 35 20
f 7 20 12
f 7 12 11
f 7 11 10
f 7 10 19
f 7 19 32
f 7 32 18
f 7 18 9
f 7 9 8
f 9 18 14
f 13 22 23
f 13 23 24
f 13 24 25
f 13 25 26
f 13 26 27
f 13 27 21
f 14 18 28
f 15 29 16
f 16 29 17
f 17 29 30
f 17 30 31
f 18 32 33
f 18 33 28
f 19 33 32
f 20 35 34
f 21 27 36
f 22 37 38
f 22 38 23
f 27 39 40
f 27 40 36
f 29 41 42
f 29 42 31
f 29 31 30
f 31 42 43
f 31 43 44
f 31 44 45
f 34 35 47
f 34 47 46
f 37 48 49
f 37 49 38
f 39 50 51
f 39 51 40
f 41 52 42
f 42 52 43
f 43 52 53
f 43 53 54
f 43 54 44
f 44 55 45
f 44 54 67
f 44 67 56
f 44 56 68
f 44 68 55
f 46 47 57
f 47 58 48
f 47 48 59
f 47 59 60
f 47 60 57
f 48 58 49
f 50 61 62
f 50 62 63
f 50 63 51
f 52 64 53
f 53 64 54
f 54 64 65
f 54 65 66
f 54 66 67
f 56 69 70
f 56 70 68
f 56 67 69
f 61 71 62
f 62 71 63
f 63 71 72
f 65 73 66
f 66 73 74
f 66 74 75
f 66 75 69
f 66 69 67
f 69 75 76
f 69 76 77
f 69 77 78
f 69 78 79
f 69 79 70
f 71 80 81
f 71 81 82
f 71 82 83
f 71 83 84
f 71 84 72
f 76 85 86
f 76 86 77
f 77 86 87
f 77 87 78
f 78 87 79
f 79 87 88
f 79 88 89
f 80 89 90
f 80 90 91
f 80 91 82
f 80 82 81
f 82 91 92
f 82 92 83
f 85 93 86
f 85 94 95
f 85 95 93
f 86 93 87
f 87 93 90
f 87 90 88
f 88 90 89
f 90 95 91
f 90 93 95
f 91 96 92
f 91 95 97
f 91 97 96
f 94 98 95
f 95 98 97
f 96 97 98

