# https://github.com/mikedh/trimesh
v 0.83961424 -6.64265727 -0.94416006
v 0.83961424 -6.64265727 -0.64265567
v 0.83961424 -6.55104204 -0.94416006
v 0.97953398 -6.64265727 -0.94416006
v 0.83961424 -6.55104204 -0.64265567
v 7.61411318 -6.64265727 -0.64265567
v 0.98284970 -6.55104204 -0.94416006
v 7.41384906 -6.64265727 -0.94413049
v 7.61411318 -6.55104204 -0.64265567
v 7.61411318 -6.64265727 -0.81676967
v 7.41384906 -6.55104204 -0.94413049
v 7.41716450 -6.55104204 -0.94404201
v 7.50867599 -6.64265727 -0.94097233
v 7.61411318 -6.55104204 -0.81676967
v 7.58692488 -6.64265727 -0.90156865
v 7.51132863 -6.55104204 -0.94088378
v 7.51132863 -6.64265727 -0.94088378
v 7.58692488 -6.55104204 -0.90156865
v 7.58493562 -6.64265727 -0.90266076
v 7.51398098 -6.55104204 -0.93961463
f 1 2 5
f 1 5 3
f 1 3 7
f 1 7 4
f 1 4 8
f 1 8 13
f 1 13 17
f 1 17 19
f 1 19 15
f 1 15 10
f 1 10 6
f 1 6 2
f 2 6 9
f 2 9 5
f 3 5 9
f 3 9 14
f 3 14 18
f 3 18 20
f 3 20 16
f 3 16 12
f 3 12 11
f 3 11 7
f 4 7 8
f 6 10 14
f 6 14 9
f 7 11 8
f 8 11 12
f 8 12 13
f 10 15 18
f 10 18 14
f 12 16 17
f 12 17 13
f 15 19 18
f 16 20 17
f 17 20 19
f 18 19 20

