# https://github.com/mikedh/trimesh
v -0.19381899 -6.15761700 -0.52897773
v -0.19229028 -6.24761897 -0.52897773
v -0.19305449 -6.24761897 -0.20797583
v -0.19305449 -6.24761897 -0.05467121
v -0.19305449 -6.15761700 -0.05467121
v 7.60952736 -6.15761700 -0.52897773
v 7.61411318 -6.24761897 -0.52897773
v 7.00268529 -6.24761897 -0.05467121
v 7.07299951 -6.15761700 -0.05467121
v 7.61411318 -6.15761700 -0.52447422
v 7.61411318 -6.15787241 -0.52897773
v 7.61411318 -6.24761897 -0.23179331
v 7.12879236 -6.24761897 -0.06019612
v 7.32368495 -6.24761897 -0.06878526
v 7.51093461 -6.15761700 -0.07398517
v 7.61411318 -6.15761700 -0.23202544
v 7.61411318 -6.15787241 -0.23179331
v 7.59347729 -6.15787241 -0.13434132
v 7.59194888 -6.24761897 -0.13434132
v 7.51093461 -6.24761897 -0.07704940
v 7.56519876 -6.24761897 -0.08238860
v 7.56749196 -6.15787241 -0.08085649
v 7.56749196 -6.15761700 -0.08099578
v 7.59347729 -6.15761700 -0.13461989
f 1 2 3
f 1 3 4
f 1 4 5
f 1 5 9
f 1 9 15
f 1 15 23
f 1 23 24
f 1 24 16
f 1 16 10
f 1 10 6
f 1 6 11
f 1 11 7
f 1 7 2
f 2 7 12
f 2 12 19
f 2 19 21
f 2 21 20
f 2 20 14
f 2 14 13
f 2 13 8
f 2 8 4
f 2 4 3
f 4 8 9
f 4 9 5
f 6 10 11
f 7 11 10
f 7 10 16
f 7 16 17
f 7 17 12
f 8 13 9
f 9 13 14
f 9 14 15
f 12 17 18
f 12 18 19
f 14 20 15
f 15 20 21
f 15 21 22
f 15 22 23
f 16 24 18
f 16 18 17
f 18 24 23
f 18 23 22
f 18 22 19
f 19 22 21

