# https://github.com/mikedh/trimesh
v -1.11313272 -7.14854555 -0.94416057
v -1.11313272 -7.06956093 -0.94416057
v -0.95477208 -7.14854555 -0.94416057
v -1.11313272 -7.14854555 -0.05475828
v -1.11313272 -6.79323710 -0.94398644
v 2.09696849 -6.79323710 -0.94407354
v -0.93629660 -7.06956093 -0.94416057
v 5.62774987 -7.14854555 -0.94407354
v -1.11313272 -7.06956093 -0.05467121
v 2.27314464 -7.14854555 -0.05467121
v -1.11313272 -6.79323710 -0.05467121
v 2.24741106 -6.79323710 -0.94407354
v 5.62774987 -7.06956093 -0.94407354
v 5.62774987 -7.14854555 -0.05467121
v 5.62708998 -6.79323710 -0.05467121
v 4.05602094 -6.79323710 -0.94398644
v 5.62708998 -6.79323710 -0.94389934
v 5.62774987 -7.06956093 -0.05467121
f 1 2 7
f 1 7 3
f 1 3 8
f 1 8 14
f 1 14 10
f 1 10 4
f 1 4 9
f 1 9 11
f 1 11 5
f 1 5 2
f 2 5 6
f 2 6 12
f 2 12 7
f 3 7 8
f 4 10 9
f 5 11 15
f 5 15 17
f 5 17 16
f 5 16 12
f 5 12 6
f 7 12 13
f 7 13 8
f 8 13 18
f 8 18 14
f 9 10 14
f 9 14 18
f 9 18 15
f 9 15 11
f 12 16 13
f 13 16 17
f 13 17 15
f 13 15 18

