# https://github.com/mikedh/trimesh
v 3.81941941 -6.65766056 0.04233274
v 3.81941941 -6.73021916 0.04008500
v 3.81941941 -6.65766056 0.03166974
v 2.63689841 -6.65766056 0.06470981
v 3.81941941 -6.92521287 0.03390454
v 3.81941941 -6.99244557 0.03166974
v 2.04102476 -6.65766056 0.03166974
v 2.53923988 -6.65766056 0.06460308
v 2.73438286 -7.29771857 0.03166974
v 2.76484673 -7.29727981 0.03166974
v 2.83186728 -7.29627733 0.03166974
v 2.92935173 -7.29076343 0.03166974
v 3.02666209 -7.27948485 0.03166974
v 3.12414652 -7.26231637 0.03166974
v 3.22163096 -7.24088721 0.03166974
v 3.31911536 -7.21306663 0.03166974
v 3.34557548 -7.20398100 0.03166974
v 3.41659986 -7.17935642 0.03166974
v 3.50033200 -7.14664840 0.03166974
v 3.51408422 -7.14125973 0.03166974
v 3.61156873 -7.09702296 0.03166974
v 2.04102476 -7.17327852 0.03166974
v 2.04102476 -6.65766056 0.04951902
v 2.52705436 -6.65766056 0.06437022
v 2.24678662 -7.23004711 0.03166974
v 2.32634087 -7.24828084 0.03166974
v 2.34427101 -7.25235350 0.03166974
v 2.40763590 -7.26450932 0.03166974
v 2.44175545 -7.27102599 0.03166974
v 2.53923988 -7.28449752 0.03166974
v 2.63689841 -7.29364562 0.03166974
v 2.66962533 -7.29502409 0.03166974
v 2.44175545 -6.65766056 0.06230360
f 1 2 5
f 1 5 6
f 1 6 3
f 1 3 7
f 1 7 23
f 1 23 33
f 1 33 24
f 1 24 8
f 1 8 4
f 1 4 2
f 2 4 5
f 3 6 21
f 3 21 20
f 3 20 19
f 3 19 18
f 3 18 17
f 3 17 16
f 3 16 15
f 3 15 14
f 3 14 13
f 3 13 12
f 3 12 11
f 3 11 10
f 3 10 9
f 3 9 32
f 3 32 31
f 3 31 30
f 3 30 29
f 3 29 28
f 3 28 27
f 3 27 26
f 3 26 25
f 3 25 22
f 3 22 7
f 4 8 9
f 4 9 10
f 4 10 11
f 4 11 12
f 4 12 13
f 4 13 14
f 4 14 15
f 4 15 16
f 4 16 17
f 4 17 18
f 4 18 19
f 4 19 20
f 4 20 21
f 4 21 6
f 4 6 5
f 7 22 23
f 8 24 22
f 8 22 25
f 8 25 26
f 8 26 27
f 8 27 28
f 8 28 29
f 8 29 30
f 8 30 31
f 8 31 32
f 8 32 9
f 22 24 33
f 22 33 23

