# https://github.com/mikedh/trimesh
v 4.85178231 -6.56940406 0.18856784
v 4.77776227 -6.56940406 0.23497167
v 5.33185278 -6.77671965 0.18856784
v 4.17039600 -6.56940406 0.18856784
v 4.76055369 -6.56940406 0.24466626
v 5.31959468 -6.79044848 0.20807518
v 5.35660463 -6.79406509 0.18856784
v 4.69195545 -6.56940406 0.28324744
v 4.16980672 -6.56986476 0.18856784
v 4.17016035 -6.56940406 0.18888311
v 5.30816152 -6.80470731 0.22586825
v 5.32973102 -6.80470731 0.21428210
v 5.35684028 -6.80470731 0.19767129
v 5.37086651 -6.80470731 0.18856784
v 4.66508184 -6.56940406 0.29388782
v 4.16674220 -6.64537369 0.18856784
v 4.21695330 -6.64537369 0.23128695
v 4.21895708 -6.56940406 0.22911950
v 5.27256579 -6.80470731 0.23818351
v 4.19326218 -6.80470731 0.18856784
v 4.59966594 -6.56940406 0.31633114
v 4.17746811 -6.74285805 0.18856784
v 4.22190364 -6.74285805 0.22762196
v 4.28437298 -6.74285805 0.27637061
v 4.28319427 -6.64537369 0.28003564
v 4.33670569 -6.58421556 0.30754295
v 4.32091162 -6.56940406 0.29532622
v 5.20302449 -6.80470731 0.25972040
v 4.20940988 -6.80470731 0.20285351
v 4.58681842 -6.56940406 0.31993704
v 5.17167199 -6.80470731 0.26886323
v 4.22980082 -6.80470731 0.22086335
v 4.33823788 -6.80394703 0.30768090
v 4.33305189 -6.74285805 0.31105034
v 4.33199101 -6.64537369 0.31095184
v 4.39174945 -6.64537369 0.33745424
v 4.39068857 -6.56940406 0.32334589
v 4.36016115 -6.56940406 0.31286315
v 4.34142038 -6.56940406 0.30563164
v 4.49547197 -6.56940406 0.33552321
v 4.58681842 -6.64537369 0.34933598
v 4.68429406 -6.80470731 0.38984820
v 4.95868733 -6.80470731 0.32602569
v 4.97813521 -6.80470731 0.32137544
v 4.33741295 -6.80470731 0.30685331
v 4.33929876 -6.80470731 0.30815381
v 4.38821332 -6.80470731 0.33363158
v 4.39174945 -6.74285805 0.34176950
v 4.48934292 -6.74285805 0.37126695
v 4.48934292 -6.64537369 0.35851822
v 4.58681842 -6.74285805 0.37755265
v 4.59117948 -6.80470731 0.38563148
v 4.48934292 -6.80470731 0.36941476
f 1 2 3
f 1 3 7
f 1 7 14
f 1 14 20
f 1 20 22
f 1 22 16
f 1 16 9
f 1 9 4
f 1 4 10
f 1 10 18
f 1 18 27
f 1 27 39
f 1 39 38
f 1 38 37
f 1 37 40
f 1 40 30
f 1 30 21
f 1 21 15
f 1 15 8
f 1 8 5
f 1 5 2
f 2 5 3
f 3 6 7
f 3 5 8
f 3 8 6
f 4 9 10
f 6 11 12
f 6 12 7
f 6 8 11
f 7 13 14
f 7 12 13
f 8 15 11
f 9 16 10
f 10 16 17
f 10 17 18
f 11 19 28
f 11 28 31
f 11 31 44
f 11 44 43
f 11 43 42
f 11 42 52
f 11 52 53
f 11 53 47
f 11 47 46
f 11 46 45
f 11 45 32
f 11 32 29
f 11 29 20
f 11 20 14
f 11 14 13
f 11 13 12
f 11 15 19
f 15 21 19
f 16 22 23
f 16 23 17
f 17 23 24
f 17 24 25
f 17 25 18
f 18 25 26
f 18 26 27
f 19 21 28
f 20 29 22
f 21 30 31
f 21 31 28
f 22 29 32
f 22 32 23
f 23 32 33
f 23 33 24
f 24 33 34
f 24 34 25
f 25 34 35
f 25 35 26
f 26 35 36
f 26 36 37
f 26 37 38
f 26 38 39
f 26 39 27
f 30 40 41
f 30 41 42
f 30 42 43
f 30 43 44
f 30 44 31
f 32 45 33
f 33 45 46
f 33 46 47
f 33 47 48
f 33 48 34
f 34 48 35
f 35 48 36
f 36 48 49
f 36 49 50
f 36 50 37
f 37 50 40
f 40 50 42
f 40 42 41
f 42 50 51
f 42 51 52
f 47 53 48
f 48 53 49
f 49 53 52
f 49 52 51
f 49 51 50

