# https://github.com/mikedh/trimesh
v 2.17770217 -2.74537988 0.16690336
v 2.17770217 -2.71692468 0.16679461
v 2.14923699 -2.74537988 0.16668586
v 2.05789511 -2.83677297 0.16374941
v 2.05789511 -2.84294066 0.16353184
v 2.17770217 -2.81448547 0.16440196
v 2.17770217 -2.61950425 0.16635955
v 2.05789511 -2.73921233 0.16581574
v 2.05789511 -2.74537988 0.16581574
v 2.14923699 -2.64795945 0.16625080
v 2.17770217 -2.84294066 0.16320560
v 2.05789511 -2.93419355 0.15722395
v 2.17770217 -2.55039866 0.16592456
v 2.14923699 -2.55039866 0.16570700
v 2.05789511 -2.55039866 0.16494570
v 2.05789511 -2.64179175 0.16538076
v 2.05789511 -3.55978759 0.10632563
v 2.17770217 -3.56020812 0.10404172
v 2.17770217 -2.45297823 0.15994291
v 2.05789511 -2.45297823 0.16255305
v 2.05789511 -3.56020812 0.10502052
v 2.11425077 -3.56020812 0.10491177
v 2.17770217 -3.56020812 -0.94415970
v 2.17770217 -2.35836109 0.12927340
v 2.05789511 -2.35527724 0.14536945
v 2.05789511 -3.56020812 -0.94415970
v 2.17770217 -2.12833652 -0.94415970
v 2.17770217 -2.12833652 0.02649787
v 2.05789511 -2.12833652 0.06989196
v 2.05789511 -2.27453728 0.11894145
v 2.05789511 -2.12833652 -0.94415970
f 1 2 3
f 1 3 4
f 1 4 5
f 1 5 6
f 1 6 11
f 1 11 18
f 1 18 23
f 1 23 27
f 1 27 28
f 1 28 24
f 1 24 19
f 1 19 13
f 1 13 7
f 1 7 2
f 2 7 10
f 2 10 3
f 3 8 9
f 3 9 4
f 3 10 16
f 3 16 8
f 4 9 8
f 4 8 16
f 4 16 15
f 4 15 20
f 4 20 25
f 4 25 30
f 4 30 29
f 4 29 31
f 4 31 26
f 4 26 21
f 4 21 17
f 4 17 12
f 4 12 5
f 5 11 6
f 5 12 11
f 7 13 14
f 7 14 15
f 7 15 10
f 10 15 16
f 11 12 17
f 11 17 18
f 13 19 20
f 13 20 14
f 14 20 15
f 17 21 22
f 17 22 18
f 18 22 21
f 18 21 26
f 18 26 23
f 19 24 25
f 19 25 20
f 23 26 31
f 23 31 27
f 24 28 29
f 24 29 30
f 24 30 25
f 27 31 29
f 27 29 28

