# https://github.com/mikedh/trimesh
v 5.75864559 -5.03851802 0.02635551
v 5.75864559 -4.98785261 0.02327878
v 5.49553380 -4.98785261 0.03577798
v 5.49553380 -5.03851802 0.03808553
v 5.75864559 -5.03851802 -0.94406250
v 5.75864559 -4.98630342 0.02318264
v 5.49553380 -4.89036323 0.02972067
v 5.49553380 -5.03851802 -0.94415868
v 5.56174950 -5.03851802 -0.94415868
v 5.75864559 -4.87702108 -0.94406250
v 5.75864559 -4.88419801 0.01472164
v 5.49553380 -4.87702108 0.02847077
v 5.49553380 -4.87702108 -0.94415868
v 5.56174950 -4.87702108 -0.94415868
v 5.75864559 -4.87702108 0.01395246
f 1 2 3
f 1 3 4
f 1 4 8
f 1 8 9
f 1 9 5
f 1 5 10
f 1 10 15
f 1 15 11
f 1 11 6
f 1 6 2
f 2 6 3
f 3 7 12
f 3 12 13
f 3 13 8
f 3 8 4
f 3 6 7
f 5 9 14
f 5 14 10
f 6 11 7
f 7 11 12
f 8 13 14
f 8 14 9
f 10 14 13
f 10 13 12
f 10 12 15
f 11 15 12

