# https://github.com/mikedh/trimesh
v 3.05979467 -8.37632771 -0.82280951
v 3.05979467 -8.72446367 -0.82280951
v 3.05979467 -8.37632771 -0.89061566
v -1.11313243 -8.37632771 -0.82280951
v 3.05979467 -8.69972112 -0.87498495
v -1.11313243 -8.72446367 -0.82280951
v 3.05979467 -8.69229147 -0.89061566
v -1.11313243 -8.37632771 -0.89061566
v -1.11313243 -8.70810501 -0.85730332
v -1.11313243 -8.69229147 -0.89061566
f 1 2 5
f 1 5 7
f 1 7 3
f 1 3 8
f 1 8 4
f 1 4 6
f 1 6 2
f 2 6 5
f 3 7 10
f 3 10 8
f 4 8 10
f 4 10 9
f 4 9 6
f 5 6 9
f 5 9 10
f 5 10 7

