# https://github.com/mikedh/trimesh
v 2.43766671 -1.67284880 0.15695720
v 2.43766671 -1.47770137 0.15350810
v 2.34423026 -1.57535790 0.15480151
v 2.24674793 -1.57535790 0.15415481
v 2.17773929 -1.57535790 0.15361591
v 2.17773929 -1.64433083 0.15264587
v 2.17773929 -1.67284880 0.15199916
v 2.43766671 -1.77050532 0.15286143
v 2.34423026 -1.47770137 0.15296920
v 2.43766671 -1.38021076 0.15167579
v 2.24674793 -1.47770137 0.15232249
v 2.17773929 -1.47770137 0.15178359
v 2.17773929 -1.74149019 0.13507712
v 2.43766671 -2.06430390 0.10101754
v 2.34423026 -1.38021076 0.15113689
v 2.43766671 -1.28271986 0.14973571
v 2.24674793 -1.38021076 0.15049018
v 2.17773929 -1.38021076 0.14995128
v 2.17773929 -1.76951040 0.12774786
v 2.17773929 -2.06430390 0.02071877
v 2.43766671 -2.06430390 -0.94405189
v 2.34423026 -1.28271986 0.14919677
v 2.43766671 -1.18953990 0.14779559
v 2.34423026 -1.18539488 0.14725669
v 2.24674793 -1.28271986 0.14855006
v 2.17773929 -1.35185872 0.14941234
v 2.17773929 -2.06430390 -0.94415970
v 2.24819833 -2.06430390 -0.94415970
v 2.43766671 -0.50295975 -0.94405189
v 2.43766671 -0.99455839 0.14369982
v 2.24674793 -1.18539488 0.14660998
v 2.34423026 -0.99041337 0.14305312
v 2.24674793 -1.08790427 0.14456210
v 2.17773929 -1.25436811 0.14747226
v 2.17773929 -0.50295975 -0.94415970
v 2.24674793 -0.50295975 -0.94415970
v 2.43766671 -0.49914627 -0.94243515
v 2.43766671 -0.89706778 0.14154414
v 2.17773929 -1.18539488 0.14607104
v 2.34423026 -0.79543215 0.13874178
v 2.24674793 -0.79543215 0.13809508
v 2.17773929 -1.08790427 0.14402316
v 2.17773929 -0.41276426 -0.90481870
v 2.43766671 -0.41276426 -0.90481870
v 2.43766671 -0.69794126 0.13701723
v 2.34423026 -0.50295975 0.13195139
v 2.17773929 -0.76691419 0.13690943
v 2.17773929 -0.79543215 0.13755614
v 2.24674793 -0.50295975 0.13130472
v 2.17773929 -0.38308604 -0.84241205
v 2.43766671 -0.41094062 -0.90115407
v 2.43766671 -0.50693885 0.13249033
v 2.43766671 -0.50295975 0.13238253
v 2.24674793 -0.43050488 0.11977186
v 2.17773929 -0.43083642 0.11944852
v 2.17773929 -0.57193298 0.13238253
v 2.17773929 -0.50295975 0.13076578
v 2.17773929 -0.37098252 -0.81675950
v 2.43766671 -0.37098252 -0.81675950
v 2.43766671 -0.43249443 0.12084970
v 2.34423026 -0.42984179 0.12009523
v 2.17773929 -0.38905469 0.06070647
v 2.17773929 -0.37048506 -0.71921539
v 2.43766671 -0.37048506 -0.71921539
v 2.43766671 -0.42950996 0.12031080
v 2.24674793 -0.38855723 0.06070647
v 2.17773929 -0.37048506 -0.03683765
v 2.43766671 -0.37048506 -0.03683765
v 2.43766671 -0.38938652 0.06318549
v 2.34423026 -0.38806006 0.06070647
v 2.43766671 -0.38772852 0.06070647
f 1 2 3
f 1 3 4
f 1 4 5
f 1 5 6
f 1 6 7
f 1 7 8
f 1 8 14
f 1 14 21
f 1 21 29
f 1 29 37
f 1 37 44
f 1 44 51
f 1 51 59
f 1 59 64
f 1 64 68
f 1 68 71
f 1 71 69
f 1 69 65
f 1 65 60
f 1 60 53
f 1 53 52
f 1 52 45
f 1 45 38
f 1 38 30
f 1 30 23
f 1 23 16
f 1 16 10
f 1 10 2
f 2 9 3
f 2 10 15
f 2 15 9
f 3 9 11
f 3 11 4
f 4 11 12
f 4 12 5
f 5 12 18
f 5 18 26
f 5 26 34
f 5 34 39
f 5 39 42
f 5 42 48
f 5 48 47
f 5 47 56
f 5 56 57
f 5 57 55
f 5 55 62
f 5 62 67
f 5 67 63
f 5 63 58
f 5 58 50
f 5 50 43
f 5 43 35
f 5 35 27
f 5 27 20
f 5 20 19
f 5 19 13
f 5 13 7
f 5 7 6
f 7 13 14
f 7 14 8
f 9 15 17
f 9 17 11
f 10 16 22
f 10 22 15
f 11 17 18
f 11 18 12
f 13 19 14
f 14 20 27
f 14 27 28
f 14 28 21
f 14 19 20
f 15 22 25
f 15 25 17
f 16 23 24
f 16 24 22
f 17 25 34
f 17 34 26
f 17 26 18
f 21 28 29
f 22 24 31
f 22 31 25
f 23 30 24
f 24 30 32
f 24 32 33
f 24 33 31
f 25 31 34
f 27 35 36
f 27 36 28
f 28 36 29
f 29 36 37
f 30 38 40
f 30 40 32
f 31 39 34
f 31 33 42
f 31 42 39
f 32 40 41
f 32 41 33
f 33 41 48
f 33 48 42
f 35 43 44
f 35 44 36
f 36 44 37
f 38 45 40
f 40 45 46
f 40 46 49
f 40 49 41
f 41 47 48
f 41 49 56
f 41 56 47
f 43 50 51
f 43 51 44
f 45 52 46
f 46 53 54
f 46 54 55
f 46 55 49
f 46 52 53
f 49 57 56
f 49 55 57
f 50 58 59
f 50 59 51
f 53 60 61
f 53 61 54
f 54 61 55
f 55 61 62
f 58 63 64
f 58 64 59
f 60 65 61
f 61 65 66
f 61 66 62
f 62 66 67
f 63 67 68
f 63 68 64
f 65 69 70
f 65 70 66
f 66 70 67
f 67 70 71
f 67 71 68
f 69 71 70

