# https://github.com/mikedh/trimesh
v 2.56763646 -3.25670928 -0.72925253
v 2.56771880 -3.25670928 -0.94408298
v 2.56763646 -3.25670928 -0.66964555
v 2.56763646 -0.37133266 -0.72925253
v 2.56771880 -0.50384774 -0.94408298
v 3.40876108 -3.25670928 -0.94408298
v 2.56771880 -3.25670928 -0.16153028
v 2.56763646 -0.37048506 -0.66964555
v 2.56763646 -0.37048506 -0.71921590
v 2.56771880 -0.37133266 -0.81667109
v 2.56771880 -0.41343228 -0.90477911
v 3.40876108 -0.49621875 -0.94086511
v 3.40876108 -0.50384774 -0.94408298
v 3.40876108 -3.25670928 -0.72925253
v 3.40867871 -3.25670928 -0.16153028
v 2.56771880 -0.37048506 -0.16153028
v 3.40859640 -0.37048506 -0.71921590
v 3.40876108 -0.37133266 -0.81667109
v 3.40876108 -0.41343228 -0.90477911
v 3.40876108 -0.37133266 -0.72925253
v 3.40867871 -0.37048506 -0.16153028
v 3.40867871 -0.37048506 -0.26986486
f 1 2 6
f 1 6 14
f 1 14 15
f 1 15 7
f 1 7 3
f 1 3 8
f 1 8 9
f 1 9 4
f 1 4 5
f 1 5 2
f 2 5 13
f 2 13 6
f 3 7 16
f 3 16 8
f 4 9 10
f 4 10 11
f 4 11 5
f 5 12 13
f 5 11 12
f 6 13 12
f 6 12 19
f 6 19 18
f 6 18 20
f 6 20 14
f 7 15 21
f 7 21 16
f 8 16 21
f 8 21 22
f 8 22 17
f 8 17 9
f 9 17 18
f 9 18 10
f 10 18 19
f 10 19 11
f 11 19 12
f 14 20 21
f 14 21 15
f 17 22 18
f 18 22 21
f 18 21 20

