# https://github.com/mikedh/trimesh
v 3.40876101 -3.25755659 0.16451332
v 3.31918161 -3.25755659 0.16462185
v 3.40876101 -3.33038143 0.16364495
v 3.40876101 -3.25755659 -0.94405102
v 3.22169808 -3.25755659 0.16277661
v 3.31918161 -3.33038143 0.16277661
v 3.40876101 -3.42783819 0.16136551
v 3.40876101 -3.51199522 -0.94405102
v 2.56763658 -3.25755659 -0.94405102
v 3.12421459 -3.25755659 0.15919465
v 3.31918161 -3.51199522 0.15550412
v 3.40876101 -3.51199522 0.15854336
v 2.56763658 -3.51199522 -0.94405102
v 2.56763658 -3.25755659 0.13086454
v 3.02673110 -3.25755659 0.15474431
v 3.22169808 -3.51199522 0.15148797
v 2.56763658 -3.51199522 0.11252051
v 2.92924763 -3.51199522 0.13585756
v 3.02673110 -3.51199522 0.14171899
v 3.04006922 -3.51199522 0.14247880
v 3.12421459 -3.51199522 0.14692910
v 2.92924763 -3.25755659 0.14996835
v 3.13755271 -3.51199522 0.14758039
f 1 2 3
f 1 3 7
f 1 7 12
f 1 12 8
f 1 8 4
f 1 4 9
f 1 9 14
f 1 14 22
f 1 22 15
f 1 15 10
f 1 10 5
f 1 5 2
f 2 5 6
f 2 6 7
f 2 7 3
f 4 8 13
f 4 13 9
f 5 10 11
f 5 11 12
f 5 12 6
f 6 12 7
f 8 12 11
f 8 11 16
f 8 16 23
f 8 23 21
f 8 21 20
f 8 20 19
f 8 19 18
f 8 18 17
f 8 17 13
f 9 13 17
f 9 17 14
f 10 15 16
f 10 16 11
f 14 17 18
f 14 18 19
f 14 19 20
f 14 20 21
f 14 21 22
f 15 22 21
f 15 21 23
f 15 23 16

