# https://github.com/mikedh/trimesh
v 3.18079929 -6.55103449 -0.23726809
v 3.18079929 -6.55103449 -0.05468907
v 3.18079929 -6.47363596 -0.23726809
v 7.61324553 -6.55103449 -0.23726809
v 3.18079929 -6.47363596 -0.05468907
v 6.77700826 -6.55103449 -0.05468907
v 7.61411318 -6.47363596 -0.23726809
v 7.61411318 -6.55086029 -0.23726809
v 7.61411318 -6.55103449 -0.23176248
v 6.83385706 -6.47363596 -0.05468907
v 6.82908353 -6.55103449 -0.05690561
v 6.77961209 -6.54785984 -0.05468907
v 7.61411318 -6.47363596 -0.23176248
v 7.58720790 -6.54785984 -0.13711239
v 7.58720790 -6.55103449 -0.13718390
v 6.92672408 -6.47363596 -0.05871103
v 7.02089286 -6.55103449 -0.06525342
v 6.92672408 -6.54785984 -0.06105270
v 7.60760377 -6.47363596 -0.20916801
v 7.58330202 -6.47363596 -0.12817471
v 7.54815145 -6.47363596 -0.08645360
v 7.54641557 -6.48012183 -0.08659659
v 7.51430293 -6.55103449 -0.08786575
v 7.11853340 -6.55103449 -0.06950774
v 7.00093052 -6.47363596 -0.06194646
v 7.50302000 -6.47363596 -0.08400467
v 7.47264295 -6.55103449 -0.08511295
v 7.21921159 -6.55103449 -0.07394084
v 7.21921159 -6.54785984 -0.07383359
v 7.29341832 -6.47363596 -0.07476310
v 7.19577778 -6.47363596 -0.07047302
v 7.12157105 -6.47363596 -0.06721970
v 7.49130323 -6.47363596 -0.08348629
v 7.48175618 -6.52551538 -0.08470181
v 7.31338037 -6.55103449 -0.07808792
f 1 2 5
f 1 5 3
f 1 3 7
f 1 7 8
f 1 8 4
f 1 4 9
f 1 9 15
f 1 15 23
f 1 23 27
f 1 27 35
f 1 35 28
f 1 28 24
f 1 24 17
f 1 17 11
f 1 11 6
f 1 6 2
f 2 6 12
f 2 12 10
f 2 10 5
f 3 5 10
f 3 10 16
f 3 16 25
f 3 25 32
f 3 32 31
f 3 31 30
f 3 30 33
f 3 33 26
f 3 26 21
f 3 21 20
f 3 20 19
f 3 19 13
f 3 13 7
f 4 8 9
f 6 11 12
f 7 13 9
f 7 9 8
f 9 13 14
f 9 14 15
f 10 12 11
f 10 11 16
f 11 17 18
f 11 18 16
f 13 19 14
f 14 19 20
f 14 20 15
f 15 20 21
f 15 21 22
f 15 22 23
f 16 18 17
f 16 17 24
f 16 24 25
f 21 26 27
f 21 27 22
f 22 27 23
f 24 28 29
f 24 29 30
f 24 30 31
f 24 31 32
f 24 32 25
f 26 33 34
f 26 34 27
f 27 34 35
f 28 35 29
f 29 35 34
f 29 34 30
f 30 34 33

