# https://github.com/mikedh/trimesh
v -2.24275944 -6.35596683 -0.30188845
v -2.24275944 -6.35596683 -0.23175967
v -2.24275944 -6.24764890 -0.30188845
v 1.61560883 -6.35596683 -0.30188845
v -2.24275944 -6.24764890 -0.23175967
v -2.21817176 -6.35596683 -0.13399560
v -2.22069335 -6.25537915 -0.13431018
v 4.19794142 -6.24764890 -0.30188845
v 4.19794142 -6.35595637 -0.30188845
v 1.61560883 -6.35596683 -0.05467119
v -2.22069335 -6.24764890 -0.13431018
v -2.19421463 -6.25537915 -0.08247587
v -2.19169304 -6.35596683 -0.08412141
v -2.19421463 -6.24764890 -0.08233068
v 4.19794142 -6.24764890 -0.05467119
v 4.19794142 -6.35595637 -0.05467119
v -1.79387759 -6.35596683 -0.05467119
v -2.18980141 -6.24764890 -0.08165310
v -2.14062606 -6.35596683 -0.07913640
v -2.13999552 -6.24764890 -0.07555495
v -1.84179185 -6.24764890 -0.05467119
v -1.81279096 -6.31787798 -0.05467119
v -1.84116131 -6.35596683 -0.05781706
v -2.04605803 -6.35596683 -0.07226388
v -2.13243017 -6.24764890 -0.07494997
v -1.84746558 -6.24764890 -0.05469539
v -1.84494399 -6.25273886 -0.05467119
v -1.84368290 -6.25537915 -0.05467119
v -1.84872666 -6.24764890 -0.05474378
v -1.94518574 -6.24764890 -0.06144691
v -1.94833845 -6.35596683 -0.06527036
v -2.03534055 -6.24764890 -0.06790806
f 1 2 5
f 1 5 3
f 1 3 8
f 1 8 9
f 1 9 4
f 1 4 10
f 1 10 17
f 1 17 23
f 1 23 31
f 1 31 24
f 1 24 19
f 1 19 13
f 1 13 6
f 1 6 2
f 2 6 7
f 2 7 11
f 2 11 5
f 3 5 11
f 3 11 14
f 3 14 18
f 3 18 20
f 3 20 25
f 3 25 32
f 3 32 30
f 3 30 29
f 3 29 26
f 3 26 21
f 3 21 15
f 3 15 8
f 4 9 16
f 4 16 10
f 6 12 7
f 6 13 12
f 7 12 14
f 7 14 11
f 8 15 16
f 8 16 9
f 10 16 15
f 10 15 21
f 10 21 27
f 10 27 28
f 10 28 22
f 10 22 17
f 12 13 18
f 12 18 14
f 13 19 20
f 13 20 18
f 17 22 23
f 19 24 25
f 19 25 20
f 21 26 27
f 22 28 29
f 22 29 23
f 23 29 30
f 23 30 31
f 24 31 30
f 24 30 32
f 24 32 25
f 26 29 27
f 27 29 28

