# https://github.com/mikedh/trimesh
v -0.78713607 -4.66806087 -0.94416057
v -0.78713607 -4.39594262 -0.94416057
v -0.67791127 -4.66806087 -0.94416057
v -0.78713607 -4.66806087 0.05311417
v -0.78713607 -4.39594262 0.06400421
v -0.67791127 -4.39594262 -0.94416057
v 2.34724953 -4.66806087 -0.94395121
v -0.78713607 -4.59734102 0.05688380
v 0.22687557 -4.66806087 0.09217167
v -0.78713607 -4.40286810 0.06379478
v 0.39316754 -4.39594262 0.10808786
v 2.34387467 -4.39594262 -0.94395121
v 2.34724953 -4.39618234 -0.94395121
v 2.34724953 -4.66806087 0.10515591
v -0.78713607 -4.50038425 0.06033929
v 0.29713546 -4.59784711 0.09740724
v 0.29713546 -4.66806087 0.09468476
v 0.29713546 -4.50038425 0.10086273
v 0.39470161 -4.50038425 0.10421351
v 0.47539291 -4.43395287 0.10871611
v 0.50730142 -4.39594262 0.11091506
v 2.34724953 -4.39594262 -0.44489493
v 1.56395997 -4.66806087 0.11573181
v 2.34724953 -4.66566358 0.10515591
v 1.36882780 -4.39594262 0.12494645
v 1.46639396 -4.59784711 0.11876844
v 0.39470161 -4.66806087 0.09730253
v 0.39470161 -4.59784711 0.10023448
v 0.50177880 -4.49079512 0.10704074
v 0.54043702 -4.45187923 0.10944912
v 0.58952679 -4.39594262 0.11269518
v 2.34724953 -4.39594262 0.10138631
v 1.46639396 -4.66806087 0.11667421
v 2.34724953 -4.59454419 0.10463237
v 1.27156864 -4.39594262 0.12557470
v 1.36882780 -4.50038425 0.12222393
v 2.34724953 -4.50038425 0.10337582
v 0.51926706 -4.66806087 0.10002505
v 0.66868416 -4.53389294 0.10882083
v 0.58952679 -4.46485119 0.10997266
v 0.78435212 -4.39594262 0.11667421
v 1.36882780 -4.59784711 0.11897787
v 1.36882780 -4.66806087 0.11615067
v 1.17369578 -4.39594262 0.12410876
v 1.27156864 -4.50038425 0.12170039
v 0.88161129 -4.66806087 0.10745957
v 0.78435212 -4.56218087 0.10997266
v 0.88161129 -4.50038425 0.11447526
v 0.69568359 -4.50102352 0.11070563
v 0.88161129 -4.40286810 0.11834961
v 0.88161129 -4.39594262 0.11855904
v 1.27156864 -4.59784711 0.11761661
v 1.27156864 -4.66806087 0.11457998
v 1.07674331 -4.39594262 0.12232864
v 0.97917730 -4.50038425 0.11636010
v 1.17369578 -4.50038425 0.11992027
v 1.17369578 -4.59784711 0.11594124
v 1.03409655 -4.66806087 0.11039152
v 0.97058666 -4.60703670 0.11175278
v 1.17216170 -4.66806087 0.11290461
v 1.07674331 -4.59784711 0.11416112
f 1 2 6
f 1 6 3
f 1 3 7
f 1 7 14
f 1 14 23
f 1 23 33
f 1 33 43
f 1 43 53
f 1 53 60
f 1 60 58
f 1 58 46
f 1 46 38
f 1 38 27
f 1 27 17
f 1 17 9
f 1 9 4
f 1 4 8
f 1 8 15
f 1 15 10
f 1 10 5
f 1 5 2
f 2 5 11
f 2 11 21
f 2 21 31
f 2 31 41
f 2 41 51
f 2 51 54
f 2 54 44
f 2 44 35
f 2 35 25
f 2 25 32
f 2 32 22
f 2 22 12
f 2 12 6
f 3 6 13
f 3 13 7
f 4 9 8
f 5 10 11
f 6 12 13
f 7 13 22
f 7 22 32
f 7 32 37
f 7 37 34
f 7 34 24
f 7 24 14
f 8 9 16
f 8 16 15
f 9 17 16
f 10 15 18
f 10 18 11
f 11 18 16
f 11 16 19
f 11 19 20
f 11 20 21
f 12 22 13
f 14 24 25
f 14 25 26
f 14 26 23
f 15 16 18
f 16 17 19
f 17 27 28
f 17 28 19
f 19 28 29
f 19 29 20
f 20 29 30
f 20 30 21
f 21 30 31
f 23 26 33
f 24 34 25
f 25 35 36
f 25 36 26
f 25 34 37
f 25 37 32
f 26 36 33
f 27 38 28
f 28 38 29
f 29 38 39
f 29 39 40
f 29 40 30
f 30 40 31
f 31 40 41
f 33 36 42
f 33 42 43
f 35 44 45
f 35 45 42
f 35 42 36
f 38 46 39
f 39 46 47
f 39 47 48
f 39 48 49
f 39 49 40
f 40 49 41
f 41 49 48
f 41 48 50
f 41 50 51
f 42 45 43
f 43 45 52
f 43 52 53
f 44 54 55
f 44 55 56
f 44 56 45
f 45 56 57
f 45 57 52
f 46 58 59
f 46 59 48
f 46 48 47
f 48 59 55
f 48 55 50
f 50 55 54
f 50 54 51
f 52 57 60
f 52 60 53
f 55 59 61
f 55 61 57
f 55 57 56
f 57 61 58
f 57 58 60
f 58 61 59

