# https://github.com/mikedh/trimesh
v 0.68607885 -1.88084360 0.13581993
v -0.23392644 -1.88084360 0.11731986
v 0.68607885 -1.88084360 -0.89680028
v 0.68607885 -1.73536666 0.13349419
v -0.23392644 -1.88084360 -0.94416042
v -0.23392644 -1.86783350 0.11710843
v 0.60205716 -1.88084360 -0.94405465
v 0.68607885 -1.88069570 -0.94405465
v 0.68607885 -1.67268143 0.13243705
v -0.17764194 -1.88084360 -0.94416042
v -0.23392644 -1.73536666 -0.94416042
v -0.23392644 -1.81342755 0.11605129
v 0.68607885 -1.57525329 0.13074562
v 0.68607885 -1.47782515 0.12894847
v 0.58908919 -1.47782515 0.12693988
v 0.68607885 -0.50295219 -0.94405465
v -0.19060990 -1.73536666 -0.94416042
v -0.23392644 -0.50295219 -0.94405465
v -0.19060990 -0.99053658 0.09860840
v -0.23392644 -0.89296054 0.09522551
v 0.58908919 -1.28267308 0.12313418
v 0.39411945 -1.28267308 0.11890559
v 0.39411945 -1.18524494 0.11689700
v 0.29667955 -1.08796471 0.11266841
v 0.19941994 -1.08885183 0.11044843
v 0.16690981 -1.05691790 0.10896840
v 0.10179974 -0.89296054 0.10378840
v 0.00435998 -0.99053658 0.10357697
v -0.09316985 -0.79538450 0.09681124
v 0.68607885 -1.28267308 0.12514277
v 0.68607885 -0.50236088 -0.94384326
v -0.23392644 -0.46303478 -0.92671749
v -0.23392644 -0.79538450 0.09300550
v 0.58908919 -1.18524494 0.12112560
v 0.49164943 -1.08796471 0.11700274
v 0.39411945 -0.99053658 0.11277414
v 0.29532882 -0.89148210 0.10833412
v 0.19932987 -0.89296054 0.10611411
v 0.10179974 -0.79538450 0.10156839
v 0.00435998 -0.60052823 0.09480266
v -0.09316985 -0.69810427 0.09459123
v 0.68607885 -1.18524494 0.12313418
v 0.68607885 -0.41276832 -0.90472884
v -0.23392644 -0.41276832 -0.90472884
v -0.23392644 -0.69810427 0.09078549
v 0.68607885 -1.08796471 0.12112560
v 0.58908919 -0.99053658 0.11700274
v 0.39294873 -0.89148210 0.11055413
v 0.39294873 -0.79449738 0.10833412
v 0.29667955 -0.60052823 0.10167412
v 0.19932987 -0.69810427 0.10167412
v 0.19932987 -0.79538450 0.10389410
v 0.10179974 -0.50295219 0.09490835
v 0.00435998 -0.50295219 0.09247695
v -0.09316985 -0.50295219 0.08993978
v -0.19060990 -0.60052823 0.08972835
v 0.68607885 -0.41247252 -0.90420029
v -0.23392644 -0.37092877 -0.81666862
v -0.23392644 -0.50295219 0.08623977
v 0.68607885 -0.99053658 0.11901128
v 0.68607885 -0.60451983 0.11023701
v 0.58908919 -0.79538450 0.11256271
v 0.55829038 -0.66587453 0.10896840
v 0.52334887 -0.73092532 0.10970842
v 0.39411945 -0.60052823 0.10389410
v 0.29667955 -0.50295219 0.09924268
v -0.23392644 -0.41335964 0.04849965
v -0.19060990 -0.50295219 0.08740265
v 0.68607885 -0.37092877 -0.81666862
v -0.23392644 -0.37048536 -0.71919973
v 0.68607885 -0.56001950 0.10917983
v 0.49164943 -0.60052823 0.10600841
v 0.39411945 -0.50295219 0.10135696
v 0.58908919 -0.50295219 0.10558556
v -0.19060990 -0.41321174 0.04913394
v -0.23392644 -0.37152037 -0.03691773
v 0.68607885 -0.37048536 -0.71919973
v -0.23392644 -0.37048536 -0.13438659
v 0.68607885 -0.50738749 0.10780557
v 0.68607885 -0.41291623 0.05938828
v 0.19932987 -0.41247252 0.05389112
v 0.10179974 -0.41247252 0.05272825
v 0.00435998 -0.41276832 0.05156538
v -0.09316985 -0.41291623 0.05029681
v 0.29667955 -0.41232491 0.05484253
v 0.68607885 -0.41232491 0.05907112
v -0.19060990 -0.37137247 -0.03691773
v 0.68607885 -0.37048536 -0.03691773
v 0.29667955 -0.37048536 -0.03691773
v -0.09316985 -0.37107667 -0.03691773
f 1 2 5
f 1 5 10
f 1 10 7
f 1 7 3
f 1 3 8
f 1 8 16
f 1 16 31
f 1 31 43
f 1 43 57
f 1 57 69
f 1 69 77
f 1 77 88
f 1 88 86
f 1 86 80
f 1 80 79
f 1 79 71
f 1 71 61
f 1 61 60
f 1 60 46
f 1 46 42
f 1 42 30
f 1 30 14
f 1 14 13
f 1 13 9
f 1 9 4
f 1 4 2
f 2 4 6
f 2 6 12
f 2 12 20
f 2 20 33
f 2 33 45
f 2 45 59
f 2 59 67
f 2 67 76
f 2 76 78
f 2 78 70
f 2 70 58
f 2 58 44
f 2 44 32
f 2 32 18
f 2 18 11
f 2 11 5
f 3 7 8
f 4 9 6
f 5 11 17
f 5 17 10
f 6 9 13
f 6 13 14
f 6 14 15
f 6 15 12
f 7 10 8
f 8 10 16
f 10 17 16
f 11 18 16
f 11 16 17
f 12 19 20
f 12 15 21
f 12 21 22
f 12 22 23
f 12 23 24
f 12 24 25
f 12 25 26
f 12 26 27
f 12 27 28
f 12 28 29
f 12 29 19
f 14 30 21
f 14 21 15
f 16 18 31
f 18 32 31
f 19 29 20
f 20 29 33
f 21 30 42
f 21 42 34
f 21 34 23
f 21 23 22
f 23 34 35
f 23 35 36
f 23 36 24
f 24 36 37
f 24 37 25
f 25 37 38
f 25 38 26
f 26 38 27
f 27 38 52
f 27 52 39
f 27 39 40
f 27 40 29
f 27 29 28
f 29 40 41
f 29 41 45
f 29 45 33
f 31 32 43
f 32 44 43
f 34 42 46
f 34 46 35
f 35 46 47
f 35 47 36
f 36 47 48
f 36 48 37
f 37 48 49
f 37 49 50
f 37 50 51
f 37 51 52
f 37 52 38
f 39 52 53
f 39 53 40
f 40 53 54
f 40 54 55
f 40 55 41
f 41 55 68
f 41 68 56
f 41 56 45
f 43 44 57
f 44 58 57
f 45 56 59
f 46 60 47
f 47 60 61
f 47 61 62
f 47 62 63
f 47 63 64
f 47 64 48
f 48 64 49
f 49 64 65
f 49 65 50
f 50 65 53
f 50 53 51
f 51 53 52
f 53 65 66
f 53 66 67
f 53 67 54
f 54 67 55
f 55 67 68
f 56 68 59
f 57 58 69
f 58 70 77
f 58 77 69
f 59 68 67
f 61 71 72
f 61 72 63
f 61 63 62
f 63 72 65
f 63 65 64
f 65 72 71
f 65 71 66
f 66 71 73
f 66 73 67
f 67 73 74
f 67 74 75
f 67 75 76
f 70 78 89
f 70 89 88
f 70 88 77
f 71 79 73
f 73 79 74
f 74 80 81
f 74 81 82
f 74 82 83
f 74 83 75
f 74 79 80
f 75 83 82
f 75 82 84
f 75 84 76
f 76 85 86
f 76 86 87
f 76 87 78
f 76 84 82
f 76 82 85
f 78 87 90
f 78 90 89
f 80 86 81
f 81 86 85
f 81 85 82
f 86 88 89
f 86 89 90
f 86 90 87

