# https://github.com/mikedh/trimesh
v -0.23392644 -2.34748786 -0.59419044
v -0.23392644 -2.34748786 0.11996324
v -0.23392644 -2.19188462 -0.59419044
v 1.90194027 -2.34748786 -0.59419044
v -0.09322187 -2.34748786 0.12366045
v -0.23392644 -2.19188462 0.11937167
v 1.90194027 -2.19188462 -0.59419044
v 1.90194027 -2.34748786 0.15959734
v 0.00462324 -2.34748786 0.12610060
v 0.10978584 -2.34748786 0.12868862
v 0.20721281 -2.34748786 0.13105487
v 0.29690416 -2.34748786 0.13312530
v 0.26533446 -2.19188462 0.13075906
v 1.90194027 -2.19188462 0.14680499
v 1.85657193 -2.34748786 0.16122411
v 1.90194027 -2.25787323 0.15471703
v 1.85657193 -2.19188462 0.15848819
v 1.85657193 -2.25787323 0.16004101
v 0.36276143 -2.19188462 0.13297740
v 0.39433113 -2.34748786 0.13526969
v 0.39433113 -2.25787323 0.13438236
v 1.75914496 -2.34748786 0.15996706
v 1.75914496 -2.19188462 0.15834029
v 1.75914496 -2.25787323 0.15907972
v 0.49175811 -2.25787323 0.13652675
v 0.46039747 -2.19188462 0.13512179
v 0.49970280 -2.34748786 0.13756195
v 1.66171798 -2.25787323 0.15782267
v 1.66945361 -2.34748786 0.15878396
v 1.72757526 -2.19188462 0.15797057
v 0.58939415 -2.25787323 0.13859719
v 0.68682112 -2.19188462 0.13992815
v 0.55782445 -2.19188462 0.13719223
v 0.68682112 -2.34748786 0.14155493
v 1.56408194 -2.19188462 0.15567828
v 1.56408194 -2.25787323 0.15641775
v 1.56408194 -2.34748786 0.15730505
v 0.88167507 -2.25787323 0.14451270
v 0.97910204 -2.19188462 0.14569580
v 0.97910204 -2.34748786 0.14732261
v 1.46644597 -2.19188462 0.15419941
v 1.47459966 -2.34748786 0.15590013
v 1.37675463 -2.34748786 0.15434731
v 1.17416505 -2.25787323 0.15005853
v 1.07652901 -2.19188462 0.14747048
v 1.07652901 -2.34748786 0.14909725
v 1.36901900 -2.19188462 0.15264659
v 1.27159203 -2.34748786 0.15264659
v 1.27159203 -2.19188462 0.15101982
v 1.33765837 -2.19188462 0.15212897
f 1 2 6
f 1 6 3
f 1 3 7
f 1 7 4
f 1 4 8
f 1 8 15
f 1 15 22
f 1 22 29
f 1 29 37
f 1 37 42
f 1 42 43
f 1 43 48
f 1 48 46
f 1 46 40
f 1 40 34
f 1 34 27
f 1 27 20
f 1 20 12
f 1 12 11
f 1 11 10
f 1 10 9
f 1 9 5
f 1 5 2
f 2 5 6
f 3 6 13
f 3 13 19
f 3 19 26
f 3 26 33
f 3 33 32
f 3 32 39
f 3 39 45
f 3 45 49
f 3 49 50
f 3 50 47
f 3 47 41
f 3 41 35
f 3 35 30
f 3 30 23
f 3 23 17
f 3 17 14
f 3 14 7
f 4 7 14
f 4 14 16
f 4 16 8
f 5 9 6
f 6 9 10
f 6 10 11
f 6 11 12
f 6 12 13
f 8 16 17
f 8 17 18
f 8 18 15
f 12 19 13
f 12 20 25
f 12 25 21
f 12 21 19
f 14 17 16
f 15 18 23
f 15 23 24
f 15 24 28
f 15 28 22
f 17 23 18
f 19 21 25
f 19 25 26
f 20 27 25
f 22 28 29
f 23 30 24
f 24 30 28
f 25 31 32
f 25 32 33
f 25 33 26
f 25 27 34
f 25 34 31
f 28 30 35
f 28 35 36
f 28 36 37
f 28 37 29
f 31 34 32
f 32 34 38
f 32 38 39
f 34 40 38
f 35 41 36
f 36 42 37
f 36 41 43
f 36 43 42
f 38 40 39
f 39 40 44
f 39 44 45
f 40 46 44
f 41 47 43
f 43 47 48
f 44 46 48
f 44 48 49
f 44 49 45
f 47 50 48
f 48 50 49

