# https://github.com/mikedh/trimesh
v 1.15509245 -6.15758896 -0.86829299
v 1.15509245 -5.96250168 -0.86829299
v 4.19556134 -6.15758896 -0.86829299
v 1.15509245 -6.15758896 -0.05467121
v 1.15509245 -5.96250168 -0.05467121
v 7.57112063 -5.96250168 -0.86829299
v 4.19556134 -6.15758896 -0.05467121
v 7.59704262 -6.15756993 -0.86829299
v 7.61348090 -6.15756993 -0.81692396
v 7.61411318 -6.15756993 -0.71944225
v 7.23286909 -5.96250168 -0.05467121
v 7.61348090 -5.96250168 -0.81692396
v 7.59767491 -5.96286461 -0.86829299
v 7.61411318 -6.15756993 -0.23203376
v 7.59388119 -6.15756993 -0.13455207
v 7.56732692 -6.15756993 -0.08095304
v 7.51105723 -6.15756993 -0.07394457
v 7.07354317 -6.15756993 -0.05467121
v 7.59767491 -6.09861405 -0.86829299
v 7.61411318 -6.06034141 -0.81676466
v 7.51105723 -5.96286461 -0.06701572
v 7.51105723 -5.96250168 -0.06701572
v 7.61411318 -5.96250168 -0.71952191
v 7.61411318 -5.96286461 -0.81676466
v 7.61411318 -6.06034141 -0.23179484
v 7.59893890 -5.96286461 -0.13431314
v 7.59641033 -6.06034141 -0.13431314
v 7.57175292 -5.96286461 -0.07736915
v 7.56985606 -6.06034141 -0.07920092
v 7.57175292 -5.96250168 -0.07768773
v 7.61411318 -5.96250168 -0.23219305
v 7.61411318 -5.96286461 -0.23179484
v 7.59893890 -5.96250168 -0.13471134
f 1 2 6
f 1 6 13
f 1 13 19
f 1 19 8
f 1 8 3
f 1 3 7
f 1 7 4
f 1 4 5
f 1 5 2
f 2 5 11
f 2 11 22
f 2 22 30
f 2 30 33
f 2 33 31
f 2 31 23
f 2 23 12
f 2 12 6
f 3 8 9
f 3 9 10
f 3 10 14
f 3 14 7
f 4 7 18
f 4 18 11
f 4 11 5
f 6 12 13
f 7 14 15
f 7 15 16
f 7 16 17
f 7 17 18
f 8 19 9
f 9 20 10
f 9 19 20
f 10 20 24
f 10 24 23
f 10 23 31
f 10 31 32
f 10 32 25
f 10 25 14
f 11 18 17
f 11 17 21
f 11 21 22
f 12 23 24
f 12 24 13
f 13 24 20
f 13 20 19
f 14 25 26
f 14 26 27
f 14 27 15
f 15 27 28
f 15 28 29
f 15 29 16
f 16 21 17
f 16 29 21
f 21 29 28
f 21 28 22
f 22 28 30
f 25 32 26
f 26 28 27
f 26 32 31
f 26 31 33
f 26 33 30
f 26 30 28

