# https://github.com/mikedh/trimesh
v 1.26351745 -6.06059770 0.15808041
v 1.27292285 -6.15810487 0.15808041
v 1.33322801 -6.06032907 0.28235709
v 1.26359649 -6.06032907 0.15822210
v 1.27236960 -5.96318017 0.15808041
v 1.33947183 -6.15783624 0.27005977
v 1.29718712 -6.24513588 0.15808041
v 1.38191476 -6.06032907 0.33599499
v 1.38792162 -5.96291154 0.33109306
v 1.33915569 -5.96291154 0.27073982
v 1.38823777 -6.15783624 0.33080972
v 1.27497778 -5.95351006 0.15808041
v 1.29766133 -6.24656855 0.15808041
v 1.40230628 -6.23671930 0.31862572
v 1.45028171 -6.06032907 0.38475925
v 1.46988287 -5.95583813 0.38373920
v 1.40199013 -5.88295394 0.31890906
v 1.29647580 -5.87489548 0.15808041
v 1.46996190 -6.16419339 0.38337086
v 1.32208382 -6.29617264 0.15808041
v 1.41977347 -6.30163454 0.30255985
v 1.45810639 -6.26367035 0.34290869
v 1.51959709 -6.20090404 0.40082512
v 1.50458007 -6.13589931 0.40711548
v 1.49904750 -6.06032907 0.40975061
v 1.50442200 -5.98359493 0.40720047
v 1.51864866 -5.91859020 0.40108014
v 1.45763218 -5.85645066 0.34350371
v 1.41898311 -5.81794920 0.30340988
v 1.29766133 -5.87265706 0.15808041
v 1.36381528 -6.35759592 0.15808041
v 1.40957771 -6.41051298 0.15808041
v 1.52797502 -6.39591824 0.29743124
v 1.48482084 -6.33091351 0.32301761
v 1.55698158 -6.25731305 0.38980287
v 1.58464446 -6.22615379 0.40932557
v 1.55698158 -6.16419339 0.41836441
v 1.56425294 -6.06032907 0.43207850
v 1.55642826 -5.95583813 0.41864776
v 1.58369603 -5.89360909 0.40960895
v 1.55642826 -5.86280781 0.39048292
v 1.48395145 -5.78884937 0.32347098
v 1.52568291 -5.72384464 0.29876297
v 1.45636746 -5.75885406 0.26861468
v 1.46261143 -5.66761462 0.15808041
v 1.36634443 -5.75822730 0.15808041
v 1.36342010 -5.76127156 0.15808041
v 1.36176035 -5.76386819 0.15808041
v 1.46395504 -6.45170049 0.15808041
v 1.59294336 -6.40836405 0.31120199
v 1.56196083 -6.35920758 0.33602332
v 1.46506154 -6.45241689 0.15808041
v 1.54030475 -6.49082871 0.15808041
v 1.56425294 -6.49996155 0.15808041
v 1.66178452 -6.28560713 0.39447811
v 1.66178452 -6.23680880 0.41334913
v 1.66178452 -6.15783624 0.43601699
v 1.66178452 -6.06032907 0.44752098
v 1.66178452 -5.96291154 0.43661201
v 1.66178452 -5.88250631 0.41374583
v 1.66178452 -5.83370797 0.39512983
v 1.56061723 -5.76100292 0.33701504
v 1.59065125 -5.71157790 0.31193870
v 1.56425294 -5.61801053 0.15808041
v 1.46348083 -5.66707742 0.15808041
v 1.66178452 -6.35285043 0.35625440
v 1.60796037 -6.50775137 0.15808041
v 1.66178452 -6.51634709 0.15808041
v 1.66178452 -6.41212464 0.31497053
v 1.75923707 -6.27110203 0.38892447
v 1.75923707 -6.22230370 0.40790885
v 1.75923707 -6.15783624 0.42428639
v 1.75923707 -6.06032907 0.43488361
v 1.75923707 -5.96291154 0.42482475
v 1.75923707 -5.89719054 0.40827718
v 1.75923707 -5.84839221 0.39005788
v 1.66178452 -5.76789734 0.35798284
v 1.66178452 -5.70736960 0.31604725
v 1.66178452 -5.60162499 0.15808041
v 1.73441948 -6.40890132 0.31171201
v 1.76382121 -6.36046111 0.33738338
v 1.75923707 -6.50309538 0.15808041
v 1.80823996 -6.20690306 0.40207186
v 1.85668961 -6.32733205 0.32052414
v 1.81875187 -6.15783624 0.40686046
v 1.82926377 -6.06032907 0.41167739
v 1.81930512 -5.96291154 0.40711548
v 1.80879321 -5.91312831 0.40232687
v 1.84744228 -5.87453735 0.36730499
v 1.85668961 -5.79198320 0.32171421
v 1.76532289 -5.75957033 0.33871511
v 1.73694862 -5.71104070 0.31244872
v 1.72042993 -5.60851941 0.15808041
v 1.79938781 -6.39806717 0.30017973
v 1.86143183 -6.45644597 0.15808041
v 1.84712614 -6.24576265 0.36617161
v 1.86751766 -6.15783624 0.38291749
v 1.90711515 -6.30602189 0.30596002
v 1.87802956 -6.06032907 0.38798944
v 1.86807091 -5.96291154 0.38320084
v 1.92173698 -5.86540451 0.31856906
v 1.90766840 -5.81391998 0.30652674
v 1.80191703 -5.72151657 0.30148313
v 1.75923707 -5.61416029 0.15808041
v 1.86135279 -6.37684650 0.26289105
v 1.86340772 -6.45537158 0.15808041
v 1.92094663 -6.25534326 0.31794567
v 1.94046875 -6.15783624 0.33415323
v 1.86633205 -6.45295402 0.15808041
v 1.95651323 -6.37245915 0.15808041
v 1.96441688 -6.36431120 0.15808041
v 1.96955435 -6.35714815 0.15808041
v 2.03349515 -6.25310484 0.15808041
v 2.03460172 -6.25113504 0.15808041
v 1.96939627 -6.25104540 0.25144376
v 1.94694976 -6.06032907 0.33925347
v 1.94078489 -5.96291154 0.33443657
v 1.98955068 -5.96291154 0.28153539
v 1.97026567 -5.86916510 0.25184046
v 2.00717595 -5.81383048 0.15808041
v 1.96971242 -5.75849586 0.15808041
v 1.96212484 -5.74998978 0.15808041
v 1.92047241 -5.70441484 0.15808041
v 2.03357418 -5.86737430 0.15808041
v 1.86419808 -5.66161560 0.15808041
v 1.78887591 -5.62499444 0.15808041
v 1.98923454 -6.15783624 0.28088367
v 1.99563651 -6.06032907 0.29258598
v 2.06297592 -6.15425464 0.15808041
v 2.06281785 -5.96765702 0.15808041
v 2.03420654 -5.86916510 0.15808041
v 2.07087964 -6.06032907 0.15808041
v 2.07072157 -6.05728488 0.15808041
v 2.06392442 -5.97661087 0.15808041
f 1 2 3
f 1 3 4
f 1 4 5
f 1 5 12
f 1 12 18
f 1 18 30
f 1 30 48
f 1 48 47
f 1 47 46
f 1 46 45
f 1 45 65
f 1 65 64
f 1 64 79
f 1 79 93
f 1 93 104
f 1 104 126
f 1 126 125
f 1 125 123
f 1 123 122
f 1 122 121
f 1 121 120
f 1 120 124
f 1 124 131
f 1 131 130
f 1 130 134
f 1 134 133
f 1 133 132
f 1 132 129
f 1 129 114
f 1 114 113
f 1 113 112
f 1 112 111
f 1 111 110
f 1 110 109
f 1 109 106
f 1 106 95
f 1 95 82
f 1 82 68
f 1 68 67
f 1 67 54
f 1 54 53
f 1 53 52
f 1 52 49
f 1 49 32
f 1 32 31
f 1 31 20
f 1 20 13
f 1 13 7
f 1 7 2
f 2 6 3
f 2 7 6
f 3 8 9
f 3 9 10
f 3 10 5
f 3 5 4
f 3 6 11
f 3 11 8
f 5 10 12
f 6 7 13
f 6 13 14
f 6 14 11
f 8 15 9
f 8 11 15
f 9 16 17
f 9 17 10
f 9 15 16
f 10 17 18
f 10 18 12
f 11 19 15
f 11 14 19
f 13 20 21
f 13 21 14
f 14 22 23
f 14 23 19
f 14 21 22
f 15 19 24
f 15 24 25
f 15 25 26
f 15 26 16
f 16 26 27
f 16 27 17
f 17 27 28
f 17 28 29
f 17 29 18
f 18 29 30
f 19 23 24
f 20 31 21
f 21 31 32
f 21 32 33
f 21 33 34
f 21 34 22
f 22 34 23
f 23 34 35
f 23 35 36
f 23 36 37
f 23 37 24
f 24 38 25
f 24 37 38
f 25 38 26
f 26 39 27
f 26 38 39
f 27 39 40
f 27 40 41
f 27 41 42
f 27 42 28
f 28 42 29
f 29 42 43
f 29 43 44
f 29 44 45
f 29 45 46
f 29 46 47
f 29 47 48
f 29 48 30
f 32 49 33
f 33 50 51
f 33 51 34
f 33 49 52
f 33 52 53
f 33 53 54
f 33 54 50
f 34 51 35
f 35 55 36
f 35 51 55
f 36 56 57
f 36 57 37
f 36 55 56
f 37 57 38
f 38 57 58
f 38 58 59
f 38 59 39
f 39 59 40
f 40 59 60
f 40 60 61
f 40 61 41
f 41 61 62
f 41 62 42
f 42 62 43
f 43 62 63
f 43 63 64
f 43 64 65
f 43 65 45
f 43 45 44
f 50 66 51
f 50 54 67
f 50 67 68
f 50 68 69
f 50 69 66
f 51 66 55
f 55 70 71
f 55 71 56
f 55 66 70
f 56 71 57
f 57 71 72
f 57 72 58
f 58 73 74
f 58 74 59
f 58 72 73
f 59 74 75
f 59 75 60
f 60 75 76
f 60 76 61
f 61 76 77
f 61 77 62
f 62 77 63
f 63 78 79
f 63 79 64
f 63 77 78
f 66 69 80
f 66 80 81
f 66 81 70
f 68 82 80
f 68 80 69
f 70 83 71
f 70 81 84
f 70 84 83
f 71 83 72
f 72 83 85
f 72 85 73
f 73 85 86
f 73 86 87
f 73 87 74
f 74 87 88
f 74 88 75
f 75 88 76
f 76 88 89
f 76 89 90
f 76 90 91
f 76 91 77
f 77 91 92
f 77 92 78
f 78 92 79
f 79 92 93
f 80 82 94
f 80 94 81
f 81 94 84
f 82 95 94
f 83 84 96
f 83 96 97
f 83 97 85
f 84 94 98
f 84 98 96
f 85 97 99
f 85 99 86
f 86 99 87
f 87 99 100
f 87 100 88
f 88 100 89
f 89 100 101
f 89 101 102
f 89 102 90
f 90 102 103
f 90 103 91
f 91 103 92
f 92 104 93
f 92 103 104
f 94 105 98
f 94 95 106
f 94 106 105
f 96 107 97
f 96 98 107
f 97 107 108
f 97 108 99
f 98 105 109
f 98 109 110
f 98 110 111
f 98 111 112
f 98 112 113
f 98 113 114
f 98 114 115
f 98 115 107
f 99 108 116
f 99 116 117
f 99 117 100
f 100 117 101
f 101 117 118
f 101 118 119
f 101 119 102
f 102 120 121
f 102 121 122
f 102 122 123
f 102 123 103
f 102 119 124
f 102 124 120
f 103 123 125
f 103 125 126
f 103 126 104
f 105 106 109
f 107 115 127
f 107 127 108
f 108 127 128
f 108 128 116
f 114 129 127
f 114 127 115
f 116 128 117
f 117 128 118
f 118 128 130
f 118 130 131
f 118 131 124
f 118 124 119
f 127 129 128
f 128 129 132
f 128 132 133
f 128 133 134
f 128 134 130

