# https://github.com/mikedh/trimesh
v 5.75864530 -4.20785560 -0.36018071
v 5.75864530 -4.09558095 -0.37015193
v 5.75815975 -4.27983764 -0.33438109
v 5.75864530 -4.27983764 -0.57578187
v 5.75864530 -4.09558095 -0.38367928
v 5.56785181 -4.09558095 -0.28919690
v 5.56785181 -4.27983764 -0.23187992
v 5.75864530 -4.27983764 -0.94415861
v 5.75864530 -4.09588758 -0.94415861
v 5.75672170 -4.09558095 -0.94415861
v 5.56785181 -4.09558095 -0.94415861
v 5.56785181 -4.27983764 -0.94415861
f 1 2 3
f 1 3 4
f 1 4 8
f 1 8 9
f 1 9 5
f 1 5 2
f 2 5 10
f 2 10 11
f 2 11 6
f 2 6 7
f 2 7 3
f 3 7 12
f 3 12 8
f 3 8 4
f 5 9 10
f 6 11 12
f 6 12 7
f 8 12 11
f 8 11 10
f 8 10 9

