# https://github.com/mikedh/trimesh
v 4.28012829 -3.91681921 -0.94415904
v 4.28012829 -3.91681921 0.12979167
v 4.28012829 -3.64841464 -0.94415904
v 4.39326798 -3.91681921 -0.94415904
v 4.28012829 -3.91534775 0.12989770
v 4.78174268 -3.91681921 0.09002750
v 4.28012829 -3.64841464 0.13912301
v 4.39185028 -3.64841464 -0.94415904
v 5.72840162 -3.64841464 -0.94405298
v 5.72840162 -3.91681921 -0.94405298
v 4.28012829 -3.72038331 0.13679015
v 4.87928676 -3.91681921 0.08133240
v 4.95131042 -3.64841464 0.08440750
v 4.87928676 -3.64841464 0.09055768
v 5.72840162 -3.64841464 -0.02958314
v 5.72840162 -3.91681921 -0.31323420
v 4.97683069 -3.91681921 0.07104675
v 5.04857089 -3.64841464 0.07507619
v 4.97683069 -3.64841464 0.08196865
v 5.43903050 -3.64841464 0.02099692
v 5.17163509 -3.91681921 0.04273466
v 5.27243997 -3.91681921 0.02131502
v 5.31369780 -3.91681921 0.01081729
v 5.35580613 -3.91681921 -0.00498235
v 5.72840162 -3.65125245 -0.03096161
v 5.72840162 -3.76339641 -0.11748844
v 5.46327472 -3.91681921 -0.06107634
v 5.07267331 -3.91681921 0.05874637
v 5.24365904 -3.64841464 0.05185392
v 5.14611497 -3.64841464 0.06426031
v 5.07423296 -3.64841464 0.07231920
v 5.34106103 -3.64841464 0.03732674
v 5.07423296 -3.91681921 0.05853429
v 5.35935054 -3.91681921 -0.00657291
v 5.72840162 -3.70916372 -0.06139445
v 5.72840162 -3.75483055 -0.10709675
v 5.45831232 -3.91681921 -0.05800125
v 5.72840162 -3.72561216 -0.07761824
f 1 2 5
f 1 5 11
f 1 11 7
f 1 7 3
f 1 3 8
f 1 8 4
f 1 4 10
f 1 10 16
f 1 16 27
f 1 27 37
f 1 37 34
f 1 34 24
f 1 24 23
f 1 23 22
f 1 22 21
f 1 21 33
f 1 33 28
f 1 28 17
f 1 17 12
f 1 12 6
f 1 6 2
f 2 6 5
f 3 7 14
f 3 14 13
f 3 13 19
f 3 19 18
f 3 18 31
f 3 31 30
f 3 30 29
f 3 29 32
f 3 32 20
f 3 20 15
f 3 15 9
f 3 9 8
f 4 8 9
f 4 9 10
f 5 6 11
f 6 12 13
f 6 13 14
f 6 14 7
f 6 7 11
f 9 15 25
f 9 25 35
f 9 35 38
f 9 38 36
f 9 36 26
f 9 26 16
f 9 16 10
f 12 17 18
f 12 18 19
f 12 19 13
f 15 20 21
f 15 21 22
f 15 22 23
f 15 23 24
f 15 24 25
f 16 26 27
f 17 28 29
f 17 29 30
f 17 30 31
f 17 31 18
f 20 32 21
f 21 32 33
f 24 34 35
f 24 35 25
f 26 36 27
f 27 36 38
f 27 38 35
f 27 35 37
f 28 33 29
f 29 33 32
f 34 37 35

