# https://github.com/mikedh/trimesh
v 0.95229265 -8.19350580 -0.05467119
v 0.95229265 -8.67862293 -0.05467119
v 0.95229265 -8.19350580 -0.13511424
v -0.70295718 -8.19350580 -0.05467119
v 0.95229265 -8.68346416 -0.05637203
v 0.88898835 -8.67669672 -0.05467119
v 0.95229265 -8.72526565 -0.13511424
v -0.95524077 -8.19350580 -0.13511424
v -0.77559830 -8.19350580 -0.05715157
v -0.69305998 -8.20537453 -0.05467119
v 0.95229265 -8.69502081 -0.07771904
v 0.88170543 -8.68325582 -0.05705708
v 0.78422804 -8.68299576 -0.05802560
v 0.19917645 -8.72188193 -0.13427170
v 0.29665398 -8.72261098 -0.13427170
v 0.39413137 -8.72323542 -0.13427170
v 0.58908629 -8.72417251 -0.13427170
v 0.79468532 -8.67352134 -0.05467119
v 0.68656382 -8.68268339 -0.05900988
v 0.95229265 -8.72526565 -0.13450793
v 0.88077182 -8.72510961 -0.13511424
v -0.95524077 -8.63546766 -0.13511424
v -0.95524077 -8.19350580 -0.06384466
v -0.77559830 -8.20537453 -0.05749803
v -0.87307584 -8.19350580 -0.06067922
v -0.77559830 -8.30287705 -0.06036425
v -0.67812077 -8.30287705 -0.05703345
v -0.68615075 -8.21333942 -0.05467119
v 0.88170543 -8.72510961 -0.13427170
v 0.68656382 -8.72453689 -0.13427170
v 0.10169891 -8.72104915 -0.13427170
v 0.19824284 -8.72193423 -0.13511424
v 0.29572022 -8.72266299 -0.13511424
v 0.39338445 -8.72323542 -0.13511424
v 0.49086198 -8.72375612 -0.13511424
v 0.58833937 -8.72417251 -0.13511424
v 0.70075597 -8.67008561 -0.05467119
v 0.58908629 -8.68231901 -0.06001779
v 0.00422138 -8.72011205 -0.13427170
v 0.78329429 -8.72484926 -0.13511424
v -0.95524077 -8.69668667 -0.13498038
v -0.87400945 -8.70038246 -0.13511424
v -0.95524077 -8.20537453 -0.06418325
v -0.94534358 -8.19350580 -0.06345882
v -0.87307584 -8.20537453 -0.06102568
v -0.87307584 -8.30287705 -0.06389190
v -0.77559830 -8.40037928 -0.06329347
v -0.67812077 -8.40037928 -0.05996267
v -0.59408861 -8.31625560 -0.05467119
v -0.60622641 -8.30287705 -0.05467119
v -0.64021295 -8.26492768 -0.05467119
v -0.67812077 -8.22255347 -0.05467119
v 0.68581690 -8.72453689 -0.13511424
v 0.10076530 -8.72110116 -0.13511424
v 0.60701317 -8.66638953 -0.05467119
v 0.49160890 -8.68190233 -0.06105718
v -0.09325586 -8.71896691 -0.13427170
v 0.00328777 -8.72016407 -0.13511424
v -0.95524077 -8.69647833 -0.13427170
v -0.77653220 -8.70413056 -0.13511424
v -0.87307584 -8.70017441 -0.13427170
v -0.95524077 -8.30287705 -0.06704946
v -0.87307584 -8.40037928 -0.06682111
v -0.87307584 -8.49782950 -0.06981332
v -0.77559830 -8.49782950 -0.06629354
v -0.67812077 -8.49782950 -0.06296274
v -0.58064324 -8.49782950 -0.05975793
v -0.58064324 -8.40037928 -0.05676573
v -0.58064324 -8.33083159 -0.05467119
v 0.51383073 -8.66227705 -0.05467119
v 0.29665398 -8.68080920 -0.06321472
v 0.39413137 -8.68138192 -0.06212021
v -0.19073340 -8.71766543 -0.13427170
v -0.09400293 -8.71901892 -0.13511424
v -0.67812077 -8.66534841 -0.07654578
v -0.77559830 -8.66212073 -0.07821512
v -0.95524077 -8.68986722 -0.12573604
v -0.67905467 -8.70730623 -0.13511424
v -0.67812077 -8.70714990 -0.13427170
v -0.77559830 -8.70392251 -0.13427170
v -0.58064324 -8.66810740 -0.07495518
v -0.95524077 -8.40037928 -0.06997867
v -0.95524077 -8.48252504 -0.07249843
v -0.87307584 -8.59533202 -0.07287639
v -0.77559830 -8.59533202 -0.06934874
v -0.95524077 -8.49782950 -0.07297088
v -0.95524077 -8.59533202 -0.07602608
v -0.67812077 -8.59533202 -0.06601007
v -0.58064324 -8.59533202 -0.06281313
v -0.48316599 -8.49782950 -0.05671848
v -0.48316599 -8.43135316 -0.05467119
v -0.51360435 -8.40037928 -0.05467119
v 0.42102168 -8.65774819 -0.05467119
v 0.19917645 -8.68008044 -0.06434074
v -0.28821093 -8.71610360 -0.13427170
v -0.28895799 -8.71620792 -0.13511424
v -0.19148046 -8.71771744 -0.13511424
v -0.12107994 -8.61839303 -0.05467119
v -0.20735328 -8.60881459 -0.05467119
v -0.87307584 -8.65837263 -0.07997894
v -0.29138544 -8.59788267 -0.05467119
v -0.95524077 -8.65462482 -0.08155378
v -0.58157714 -8.71006521 -0.13511424
v -0.58064324 -8.70990888 -0.13427170
v -0.38568846 -8.67253224 -0.07198660
v -0.48316599 -8.67050200 -0.07343546
v -0.03331305 -8.62693035 -0.05467119
v -0.95524077 -8.64473402 -0.08043565
v -0.48316599 -8.59533202 -0.05978156
v -0.38568846 -8.59533202 -0.05687597
v -0.39969377 -8.51183278 -0.05467119
v -0.41444615 -8.49782950 -0.05467119
v 0.32858617 -8.65280264 -0.05467119
v 0.10169891 -8.67924766 -0.06550612
v -0.38568846 -8.71433373 -0.13427170
v -0.38643552 -8.71449005 -0.13511424
v 0.00422138 -8.67831056 -0.06671087
v -0.30875209 -8.59533202 -0.05467119
v -0.48391277 -8.71240781 -0.13511424
v -0.48316599 -8.71230349 -0.13427170
v -0.19073340 -8.67586394 -0.06924637
v -0.28821093 -8.67430211 -0.07058499
v 0.05557457 -8.63447884 -0.05467119
v -0.38568846 -8.52505529 -0.05467119
v 0.23689771 -8.64733668 -0.05467119
v -0.09325586 -8.67716513 -0.06795500
v 0.14576919 -8.64124599 -0.05467119
f 1 2 5
f 1 5 11
f 1 11 20
f 1 20 7
f 1 7 3
f 1 3 8
f 1 8 23
f 1 23 44
f 1 44 25
f 1 25 9
f 1 9 4
f 1 4 10
f 1 10 28
f 1 28 52
f 1 52 51
f 1 51 50
f 1 50 49
f 1 49 69
f 1 69 92
f 1 92 91
f 1 91 112
f 1 112 111
f 1 111 124
f 1 124 118
f 1 118 101
f 1 101 99
f 1 99 98
f 1 98 107
f 1 107 123
f 1 123 127
f 1 127 125
f 1 125 113
f 1 113 93
f 1 93 70
f 1 70 55
f 1 55 37
f 1 37 18
f 1 18 6
f 1 6 2
f 2 6 5
f 3 7 21
f 3 21 40
f 3 40 53
f 3 53 36
f 3 36 35
f 3 35 34
f 3 34 33
f 3 33 32
f 3 32 54
f 3 54 58
f 3 58 74
f 3 74 97
f 3 97 96
f 3 96 116
f 3 116 119
f 3 119 103
f 3 103 78
f 3 78 60
f 3 60 42
f 3 42 22
f 3 22 8
f 4 9 10
f 5 6 12
f 5 12 13
f 5 13 14
f 5 14 15
f 5 15 16
f 5 16 17
f 5 17 11
f 6 18 19
f 6 19 13
f 6 13 12
f 7 20 21
f 8 22 41
f 8 41 59
f 8 59 77
f 8 77 102
f 8 102 108
f 8 108 87
f 8 87 86
f 8 86 83
f 8 83 82
f 8 82 62
f 8 62 43
f 8 43 23
f 9 24 10
f 9 25 45
f 9 45 24
f 10 24 26
f 10 26 27
f 10 27 28
f 11 29 20
f 11 17 30
f 11 30 29
f 13 19 31
f 13 31 14
f 14 31 54
f 14 54 32
f 14 32 33
f 14 33 15
f 15 33 16
f 16 34 35
f 16 35 17
f 16 33 34
f 17 35 36
f 17 36 53
f 17 53 30
f 18 37 38
f 18 38 19
f 19 38 39
f 19 39 31
f 20 29 21
f 21 29 40
f 22 42 41
f 23 43 44
f 24 45 46
f 24 46 26
f 25 44 43
f 25 43 45
f 26 46 63
f 26 63 47
f 26 47 48
f 26 48 27
f 27 48 49
f 27 49 50
f 27 50 51
f 27 51 52
f 27 52 28
f 29 30 40
f 30 53 40
f 31 39 58
f 31 58 54
f 37 55 56
f 37 56 38
f 38 56 39
f 39 57 58
f 39 56 57
f 41 42 59
f 42 60 80
f 42 80 61
f 42 61 59
f 43 62 46
f 43 46 45
f 46 62 82
f 46 82 63
f 47 63 64
f 47 64 65
f 47 65 66
f 47 66 48
f 48 66 67
f 48 67 68
f 48 68 49
f 49 68 69
f 55 70 71
f 55 71 72
f 55 72 56
f 56 72 57
f 57 73 97
f 57 97 74
f 57 74 58
f 57 72 71
f 57 71 73
f 59 61 75
f 59 75 76
f 59 76 77
f 60 78 79
f 60 79 80
f 61 80 81
f 61 81 75
f 63 82 83
f 63 83 64
f 64 84 85
f 64 85 65
f 64 83 86
f 64 86 87
f 64 87 84
f 65 88 66
f 65 85 88
f 66 88 67
f 67 88 89
f 67 89 90
f 67 90 91
f 67 91 68
f 68 91 92
f 68 92 69
f 70 93 94
f 70 94 71
f 71 94 73
f 73 95 96
f 73 96 97
f 73 94 95
f 75 81 98
f 75 98 99
f 75 99 76
f 76 100 77
f 76 99 101
f 76 101 100
f 77 100 102
f 78 103 104
f 78 104 79
f 79 104 105
f 79 105 106
f 79 106 80
f 80 106 81
f 81 106 107
f 81 107 98
f 84 87 108
f 84 108 85
f 85 108 88
f 88 108 89
f 89 108 102
f 89 102 109
f 89 109 90
f 90 109 110
f 90 110 111
f 90 111 112
f 90 112 91
f 93 113 114
f 93 114 94
f 94 114 95
f 95 115 116
f 95 116 96
f 95 114 117
f 95 117 115
f 100 101 118
f 100 118 102
f 102 118 110
f 102 110 109
f 103 119 120
f 103 120 104
f 104 120 121
f 104 121 122
f 104 122 105
f 105 122 123
f 105 123 107
f 105 107 106
f 110 118 124
f 110 124 111
f 113 125 126
f 113 126 117
f 113 117 114
f 115 117 126
f 115 126 120
f 115 120 116
f 116 120 119
f 120 126 121
f 121 126 125
f 121 125 127
f 121 127 122
f 122 127 123

