# https://github.com/mikedh/trimesh
v 2.63716838 -5.03851802 -0.94415955
v 2.63716838 -5.03851802 0.09710683
v 2.63716838 -4.87708432 -0.94415955
v 5.49553380 -5.03851802 -0.94405567
v 2.63716838 -5.03828091 0.10603849
v 2.68361410 -5.03851802 0.10655778
v 2.63716838 -4.87702108 -0.89358139
v 2.72110625 -4.87702108 -0.94405567
v 5.49553380 -4.87702108 -0.94405567
v 5.49553380 -5.03851802 0.03801242
v 2.63716838 -4.98785261 0.10666162
v 3.22193580 -4.87702108 0.11611260
v 3.13771812 -4.87702108 0.11497018
v 2.97291999 -5.03851802 0.10956963
v 3.22193580 -4.89036323 0.11580100
v 2.63716838 -4.87702108 0.10770020
v 5.49553380 -4.87702108 0.02845762
v 5.07416540 -5.03851802 0.06397657
v 5.49553380 -5.02225132 0.03728540
v 5.07416540 -4.87702108 0.06148400
v 4.97651774 -4.87702108 0.06844242
v 4.87914975 -4.87702108 0.07498539
v 4.78150209 -4.87702108 0.08132063
v 2.63716838 -4.89037903 0.10759635
v 3.23508603 -4.87702108 0.11621645
v 3.02692008 -5.03851802 0.11008889
v 3.12428807 -4.98785261 0.11226989
v 3.15002895 -5.03851802 0.11091974
v 3.33273384 -4.87702108 0.11683958
v 5.49553380 -4.89036323 0.02970389
v 5.17153339 -4.87702108 0.05421406
v 4.87914975 -4.98785261 0.07560852
v 4.97651774 -5.03851802 0.06968868
v 4.68413410 -4.87702108 0.08724043
v 5.49553380 -4.98785261 0.03572757
v 3.24375963 -5.03851802 0.11071206
v 3.31930379 -4.98785261 0.11237373
v 3.41695153 -4.89036323 0.11580100
v 3.41695153 -4.87702108 0.11632029
v 4.68413410 -4.89036323 0.08713659
v 4.78150209 -4.98785261 0.08090519
v 4.87914975 -5.03851802 0.07498539
v 4.58648629 -4.87702108 0.09222557
v 3.31930379 -5.03851802 0.11008889
v 3.33049549 -5.03851802 0.10998504
v 3.43010183 -4.87702108 0.11621645
v 3.44185309 -5.03119878 0.10915419
v 3.51431944 -5.03851802 0.10801176
v 3.51431944 -4.87702108 0.11528175
v 4.78150209 -5.03851802 0.07945120
v 4.58648629 -4.89036323 0.09191400
v 4.48911831 -4.87702108 0.09575668
v 3.43709664 -5.03851802 0.10884262
v 3.57363563 -5.03851802 0.10728479
v 3.61196725 -4.87702108 0.11403544
v 4.68413410 -4.98785261 0.08495559
v 4.68413410 -5.03851802 0.08298235
v 4.39147050 -4.87702108 0.09845697
v 4.48911831 -4.89036323 0.09523739
v 3.61196725 -5.03851802 0.10676550
v 3.71465126 -4.98323661 0.10780404
v 3.71465126 -4.89858353 0.11154291
v 3.80894151 -4.87702108 0.11102362
v 4.58648629 -4.98785261 0.08817517
v 4.58648629 -5.03851802 0.08589032
v 4.30753263 -4.87702108 0.10053410
v 4.29410266 -4.89036323 0.10032637
v 4.29410266 -4.98785261 0.09596440
v 4.39147050 -4.98785261 0.09347184
v 4.48911831 -4.98785261 0.09087542
v 4.53584384 -5.03851802 0.08734431
v 3.71185334 -5.03851802 0.10531151
v 3.75634045 -5.03851802 0.10458450
v 3.80698297 -5.03851802 0.10375364
v 3.80698297 -4.92616890 0.10884262
v 3.90435089 -4.98785261 0.10437677
v 3.90435089 -4.90658249 0.10801176
v 3.87693122 -4.87702108 0.10977732
v 4.20988497 -4.87702108 0.10281894
v 4.19673467 -4.89036323 0.10261122
v 4.19673467 -4.98785261 0.09824925
v 4.29410266 -5.03851802 0.09367956
v 4.39147050 -5.03851802 0.09118699
v 4.43847585 -5.03851802 0.08994072
v 4.48911831 -5.03851802 0.08859058
v 3.90435089 -5.03851802 0.10209193
v 3.95135610 -5.03851802 0.10115723
v 3.99164632 -4.87702108 0.10759635
v 3.93205045 -4.87702108 0.10873878
v 4.11111802 -4.87702108 0.10510379
v 4.09908686 -4.89036323 0.10479222
v 4.09908686 -4.98785261 0.10043025
v 4.14581225 -5.03851802 0.09710683
v 4.19673467 -5.03851802 0.09596440
v 4.04872408 -5.03851802 0.09918395
v 4.09908686 -5.03851802 0.09814541
f 1 2 5
f 1 5 11
f 1 11 24
f 1 24 16
f 1 16 7
f 1 7 3
f 1 3 9
f 1 9 4
f 1 4 10
f 1 10 18
f 1 18 33
f 1 33 42
f 1 42 50
f 1 50 57
f 1 57 65
f 1 65 71
f 1 71 85
f 1 85 84
f 1 84 83
f 1 83 82
f 1 82 94
f 1 94 93
f 1 93 96
f 1 96 95
f 1 95 87
f 1 87 86
f 1 86 74
f 1 74 73
f 1 73 72
f 1 72 60
f 1 60 54
f 1 54 48
f 1 48 53
f 1 53 45
f 1 45 44
f 1 44 36
f 1 36 28
f 1 28 26
f 1 26 14
f 1 14 6
f 1 6 2
f 2 6 5
f 3 7 8
f 3 8 9
f 4 9 17
f 4 17 30
f 4 30 35
f 4 35 19
f 4 19 10
f 5 6 12
f 5 12 13
f 5 13 11
f 6 14 15
f 6 15 12
f 7 16 13
f 7 13 12
f 7 12 25
f 7 25 29
f 7 29 39
f 7 39 46
f 7 46 49
f 7 49 55
f 7 55 63
f 7 63 78
f 7 78 89
f 7 89 88
f 7 88 90
f 7 90 79
f 7 79 66
f 7 66 58
f 7 58 52
f 7 52 43
f 7 43 34
f 7 34 23
f 7 23 22
f 7 22 21
f 7 21 20
f 7 20 31
f 7 31 17
f 7 17 9
f 7 9 8
f 10 19 20
f 10 20 21
f 10 21 22
f 10 22 23
f 10 23 18
f 11 13 24
f 12 15 25
f 13 16 24
f 14 26 15
f 15 26 27
f 15 27 28
f 15 28 29
f 15 29 25
f 17 31 30
f 18 32 33
f 18 23 34
f 18 34 32
f 19 35 20
f 20 35 31
f 26 28 27
f 28 36 29
f 29 36 37
f 29 37 38
f 29 38 39
f 30 31 35
f 32 34 40
f 32 40 41
f 32 41 42
f 32 42 33
f 34 43 40
f 36 44 37
f 37 44 45
f 37 45 38
f 38 46 39
f 38 45 47
f 38 47 48
f 38 48 49
f 38 49 46
f 40 43 41
f 41 50 42
f 41 43 51
f 41 51 50
f 43 52 51
f 45 53 47
f 47 53 48
f 48 54 49
f 49 54 55
f 50 51 56
f 50 56 57
f 51 52 56
f 52 58 59
f 52 59 56
f 54 60 55
f 55 60 61
f 55 61 62
f 55 62 63
f 56 59 57
f 57 64 65
f 57 59 64
f 58 66 67
f 58 67 68
f 58 68 69
f 58 69 70
f 58 70 59
f 59 70 71
f 59 71 64
f 60 72 61
f 61 73 74
f 61 74 75
f 61 75 63
f 61 63 62
f 61 72 73
f 63 75 76
f 63 76 77
f 63 77 78
f 64 71 65
f 66 79 80
f 66 80 67
f 67 80 81
f 67 81 68
f 68 81 94
f 68 94 82
f 68 82 83
f 68 83 69
f 69 83 84
f 69 84 70
f 70 84 85
f 70 85 71
f 74 86 75
f 75 86 76
f 76 86 87
f 76 87 88
f 76 88 77
f 77 88 89
f 77 89 78
f 79 90 80
f 80 90 91
f 80 91 92
f 80 92 81
f 81 92 93
f 81 93 94
f 87 95 88
f 88 95 92
f 88 92 91
f 88 91 90
f 92 95 96
f 92 96 93

