# https://github.com/mikedh/trimesh
v 5.55427713 -4.87702108 -0.94415868
v 5.55427713 -4.66808131 -0.94415868
v 5.56173903 -4.87702108 -0.94415868
v 5.55427713 -4.87702108 0.02433821
v 5.56173903 -4.66808131 -0.94415868
v 5.55427713 -4.66808131 -0.15881921
v 5.75864559 -4.87702108 -0.94406395
v 5.75864559 -4.87702108 0.01391000
v 5.55427713 -4.79328153 0.01656445
v 5.75864559 -4.66808131 -0.94406395
v 5.55427713 -4.66832676 -0.00144793
v 5.55941823 -4.66808131 -0.00230116
v 5.75864559 -4.87360522 0.01353076
v 5.55427713 -4.78671574 0.01580602
v 5.75864559 -4.82087428 0.00755826
v 5.75864559 -4.66808131 -0.02059794
v 5.75864559 -4.69536723 -0.01310857
v 5.75864559 -4.69346499 -0.01358257
v 5.55427713 -4.69896717 0.00433497
v 5.75864559 -4.80132004 0.00518820
v 5.75864559 -4.79197247 0.00357658
f 1 2 5
f 1 5 3
f 1 3 7
f 1 7 8
f 1 8 4
f 1 4 9
f 1 9 14
f 1 14 19
f 1 19 11
f 1 11 6
f 1 6 2
f 2 6 12
f 2 12 16
f 2 16 10
f 2 10 5
f 3 5 10
f 3 10 7
f 4 8 9
f 6 11 12
f 7 10 16
f 7 16 18
f 7 18 17
f 7 17 21
f 7 21 20
f 7 20 15
f 7 15 13
f 7 13 8
f 8 13 9
f 9 13 15
f 9 15 14
f 11 17 18
f 11 18 16
f 11 16 12
f 11 19 17
f 14 15 20
f 14 20 19
f 17 19 21
f 19 20 21

