# https://github.com/mikedh/trimesh
v -0.78708725 -4.39591324 -0.94416057
v -0.78708725 -4.09561033 -0.94416057
v -0.64006999 -4.39591324 -0.94416057
v -0.78708725 -4.39591324 0.06390948
v -0.78708725 -4.09561033 0.06781754
v -0.64006999 -4.09561033 -0.94416057
v 2.24711122 -4.39591324 -0.94394932
v 0.31182957 -4.09561033 0.11566494
v -0.78708725 -4.31842710 0.06633882
v 0.30440442 -4.39591324 0.10478575
v 0.35964737 -4.34197279 0.10901068
v 0.32994692 -4.27695026 0.11017254
v 0.39469377 -4.09561033 0.11883367
v -0.78708725 -4.12174280 0.06940189
v 0.29697942 -4.09561033 0.11503120
v 2.24651715 -4.09561033 -0.94394932
v 2.24711122 -4.09572791 -0.94394932
v 2.24711122 -4.39591324 0.10119453
v -0.78708725 -4.22068755 0.06855690
v 0.38994174 -4.39591324 0.10795445
v 0.39291183 -4.39591324 0.10806007
v 0.39469377 -4.20790057 0.11492558
v 0.49211130 -4.20790057 0.11756616
v 0.49211130 -4.11039620 0.12084051
v 0.49211130 -4.09561033 0.12126300
v 2.24711122 -4.09561033 -0.90032681
v 2.24711122 -4.39532534 0.10119453
v 1.36886878 -4.09561033 0.13119158
v 1.27145125 -4.09561033 0.13446593
v 1.36886878 -4.39591324 0.12485419
v 0.50725856 -4.39591324 0.11091190
v 0.42469133 -4.36889892 0.10996129
v 0.49211130 -4.30531677 0.11397497
v 0.58952883 -4.30531677 0.11608743
v 0.68724332 -4.20790057 0.12168550
v 0.58952883 -4.11039620 0.12295297
v 0.58952883 -4.09561033 0.12337547
v 2.24711122 -4.09561033 0.09422340
v 1.46628616 -4.09561033 0.12717790
v 1.17373675 -4.09561033 0.13488843
v 1.27145125 -4.11039620 0.13404344
v 1.27145125 -4.30531677 0.12844538
v 1.27145125 -4.39591324 0.12548793
v 0.59635990 -4.39591324 0.11281311
v 0.68724332 -4.39591324 0.11471433
v 0.78406678 -4.30531677 0.12010115
v 0.78406678 -4.11039620 0.12696665
v 1.07631937 -4.20790057 0.12929036
v 0.60437912 -4.09561033 0.12369234
v 1.07631937 -4.09561033 0.13309283
v 1.17373675 -4.20790057 0.13108596
v 1.17373675 -4.30531677 0.12749477
v 1.17373675 -4.39591324 0.12411483
v 0.79149193 -4.39591324 0.11682679
v 0.88178127 -4.39591324 0.11862239
v 0.97919880 -4.30531677 0.12390358
v 0.97919880 -4.11039620 0.13076909
v 0.99345502 -4.09561033 0.13150845
v 0.79921404 -4.09561033 0.12770602
v 1.07631937 -4.39591324 0.12231923
v 0.98573291 -4.39591324 0.12062926
f 1 2 6
f 1 6 3
f 1 3 7
f 1 7 18
f 1 18 30
f 1 30 43
f 1 43 53
f 1 53 60
f 1 60 61
f 1 61 55
f 1 55 54
f 1 54 45
f 1 45 44
f 1 44 31
f 1 31 21
f 1 21 20
f 1 20 10
f 1 10 4
f 1 4 9
f 1 9 19
f 1 19 14
f 1 14 5
f 1 5 2
f 2 5 15
f 2 15 8
f 2 8 13
f 2 13 25
f 2 25 37
f 2 37 49
f 2 49 59
f 2 59 58
f 2 58 50
f 2 50 40
f 2 40 29
f 2 29 28
f 2 28 39
f 2 39 38
f 2 38 26
f 2 26 16
f 2 16 6
f 3 6 17
f 3 17 7
f 4 8 9
f 4 10 11
f 4 11 12
f 4 12 13
f 4 13 8
f 5 14 15
f 6 16 17
f 7 17 26
f 7 26 38
f 7 38 27
f 7 27 18
f 8 15 14
f 8 14 19
f 8 19 9
f 10 20 11
f 11 20 21
f 11 21 22
f 11 22 13
f 11 13 12
f 13 22 23
f 13 23 24
f 13 24 25
f 16 26 17
f 18 27 28
f 18 28 29
f 18 29 30
f 21 31 32
f 21 32 22
f 22 32 23
f 23 33 34
f 23 34 35
f 23 35 36
f 23 36 24
f 23 32 33
f 24 36 37
f 24 37 25
f 27 38 39
f 27 39 28
f 29 40 41
f 29 41 30
f 30 41 42
f 30 42 43
f 31 44 34
f 31 34 33
f 31 33 32
f 34 44 45
f 34 45 46
f 34 46 35
f 35 47 36
f 35 46 48
f 35 48 47
f 36 47 49
f 36 49 37
f 40 50 48
f 40 48 51
f 40 51 43
f 40 43 42
f 40 42 41
f 43 51 52
f 43 52 53
f 45 54 46
f 46 54 55
f 46 55 56
f 46 56 48
f 47 57 58
f 47 58 59
f 47 59 49
f 47 48 57
f 48 52 51
f 48 50 57
f 48 56 52
f 50 58 57
f 52 56 60
f 52 60 53
f 55 61 56
f 56 61 60

