# https://github.com/mikedh/trimesh
v -2.24313718 -5.57385249 -0.81673052
v -2.21620052 -5.57385249 -0.90158681
v -2.24313718 -5.57385249 -0.23179731
v -2.24313718 -4.09558099 -0.81673052
v -2.22033362 -4.09558099 -0.88872679
v -2.21548803 -5.57385249 -0.90197647
v -2.21620052 -4.09558099 -0.90158681
v -2.23615356 -5.57385249 -0.13437338
v -2.23928884 -5.37778177 -0.13437338
v -2.24071439 -5.28025295 -0.13437338
v -2.24185459 -5.18272406 -0.13437338
v -2.24270946 -5.08533987 -0.13437338
v -2.24313718 -4.98781098 -0.13437338
v -2.24313718 -4.09558099 -0.13437338
v -2.14066383 -5.57385249 -0.94084862
v -2.15220828 -4.09558099 -0.93490576
v -2.20935927 -5.57385249 -0.06958647
v -2.21092720 -5.47531074 -0.06744313
v -2.21249513 -5.37778177 -0.06539725
v -2.21392010 -5.28025295 -0.06315650
v -2.21506031 -5.18272406 -0.06101316
v -2.21591517 -5.08533987 -0.05906469
v -2.21620052 -4.98781098 -0.05750591
v -2.21620052 -4.11048526 -0.04016443
v -2.21548803 -4.09558099 -0.03841082
v -2.04317904 -5.57385249 -0.94416100
v -2.14066383 -4.09558099 -0.94084862
v -2.14137661 -5.57385249 -0.05019910
v -2.16546276 -4.09558099 0.00903464
v -2.20878917 -4.09558099 -0.03012979
v -2.04218150 -5.57385249 -0.94416100
v -2.04317904 -4.09558099 -0.94416100
v -2.14066383 -5.57385249 -0.05000427
v -2.09890506 -4.17371982 0.01244447
v -2.11344241 -4.11048526 0.01351614
v -2.11786056 -4.09558099 0.01361356
v -2.14066383 -5.18272406 -0.03285765
v -2.14066383 -5.08533987 -0.02866843
v -0.78727845 -5.57370779 -0.94406359
v -0.87236393 -5.57385249 -0.94406359
v -0.78727845 -4.09558099 -0.94406359
v -2.04417686 -5.57385249 -0.04298974
v -1.31688894 -4.84788456 0.05112176
v -2.08322779 -4.23869085 0.01127539
v -2.10275311 -4.09558099 0.01478264
v -2.04317904 -4.69536909 -0.00402017
v -2.04317904 -4.59798492 0.00007164
v -2.04317904 -4.50045604 0.00416344
v -2.06626765 -4.30539830 0.01010631
v -0.78727845 -5.57385249 -0.83144155
v -0.78727845 -4.09558099 0.05112176
v -1.94569424 -5.57385249 -0.03597521
v -1.94569424 -5.57283956 -0.03587779
v -1.33869467 -4.76381295 0.05112176
v -1.75072464 -4.09558099 0.03933349
v -1.84820944 -4.09558099 0.03280606
v -1.94569424 -4.09558099 0.02608381
v -2.02835693 -4.09558099 0.02014094
v -1.84820944 -5.57385249 -0.02915554
v -1.75072464 -5.57385249 -0.02262815
v -1.65423767 -5.57385249 -0.01649042
v -1.21783621 -4.94107237 0.05112176
v -0.78727845 -5.57385249 0.02462245
v -1.34995378 -4.09558099 0.05112176
v -0.78727845 -4.70274887 0.05112176
v -1.39513318 -4.53475032 0.05112176
v -1.65323985 -4.09558099 0.04400982
v -1.55575505 -5.57385249 -0.01054756
v -1.45827025 -5.57385249 -0.00499442
v -1.36178328 -5.57385249 0.00016905
v -1.26429848 -5.57385249 0.00504025
v -1.16467565 -5.57385249 0.00961916
v -1.06747591 -5.57385249 0.01380842
v -0.97184409 -5.57385249 0.01770536
v -0.87336147 -5.57385249 0.02150489
v -1.16424822 -4.94888627 0.05112176
v -0.78727845 -5.19415548 0.04128196
v -1.06847373 -4.95887067 0.05112176
v -1.13346350 -4.95293791 0.05112176
v -1.35736512 -4.11077467 0.05112176
v -0.93464585 -4.89028213 0.05112176
v -0.78727845 -5.08533987 0.04439951
v -1.41138084 -4.45342802 0.05112176
v -1.41978943 -4.30539830 0.05112176
v -1.40083421 -4.20786944 0.05112176
v -1.41451611 -4.40292715 0.05112176
v -0.78727845 -5.18272406 0.04176907
v -0.97084627 -4.92283999 0.05112176
f 1 2 6
f 1 6 15
f 1 15 26
f 1 26 31
f 1 31 40
f 1 40 50
f 1 50 63
f 1 63 75
f 1 75 74
f 1 74 73
f 1 73 72
f 1 72 71
f 1 71 70
f 1 70 69
f 1 69 68
f 1 68 61
f 1 61 60
f 1 60 59
f 1 59 52
f 1 52 42
f 1 42 33
f 1 33 28
f 1 28 17
f 1 17 8
f 1 8 3
f 1 3 13
f 1 13 14
f 1 14 4
f 1 4 5
f 1 5 2
f 2 5 7
f 2 7 6
f 3 8 9
f 3 9 10
f 3 10 11
f 3 11 12
f 3 12 13
f 4 14 25
f 4 25 30
f 4 30 29
f 4 29 36
f 4 36 45
f 4 45 58
f 4 58 57
f 4 57 56
f 4 56 55
f 4 55 67
f 4 67 64
f 4 64 51
f 4 51 41
f 4 41 32
f 4 32 27
f 4 27 16
f 4 16 7
f 4 7 5
f 6 7 16
f 6 16 15
f 8 17 18
f 8 18 19
f 8 19 20
f 8 20 21
f 8 21 22
f 8 22 9
f 9 22 10
f 10 22 11
f 11 22 12
f 12 22 23
f 12 23 24
f 12 24 13
f 13 24 14
f 14 24 25
f 15 16 27
f 15 27 32
f 15 32 26
f 17 28 29
f 17 29 18
f 18 20 19
f 18 29 20
f 20 29 21
f 21 29 22
f 22 29 30
f 22 30 25
f 22 25 23
f 23 25 24
f 26 32 31
f 28 33 29
f 29 34 35
f 29 35 36
f 29 33 37
f 29 37 38
f 29 38 34
f 31 39 40
f 31 32 41
f 31 41 39
f 33 42 43
f 33 43 37
f 34 44 43
f 34 43 35
f 34 38 44
f 35 45 36
f 35 43 45
f 37 43 38
f 38 43 46
f 38 46 47
f 38 47 48
f 38 48 49
f 38 49 44
f 39 50 40
f 39 41 51
f 39 51 65
f 39 65 82
f 39 82 87
f 39 87 77
f 39 77 63
f 39 63 50
f 42 52 53
f 42 53 43
f 43 54 55
f 43 55 56
f 43 56 57
f 43 57 58
f 43 58 45
f 43 44 49
f 43 49 48
f 43 48 47
f 43 47 46
f 43 53 59
f 43 59 60
f 43 60 61
f 43 61 62
f 43 62 76
f 43 76 79
f 43 79 78
f 43 78 88
f 43 88 81
f 43 81 65
f 43 65 51
f 43 51 64
f 43 64 80
f 43 80 85
f 43 85 84
f 43 84 86
f 43 86 83
f 43 83 66
f 43 66 54
f 52 59 53
f 54 66 67
f 54 67 55
f 61 68 62
f 62 68 69
f 62 69 70
f 62 70 71
f 62 71 72
f 62 72 73
f 62 73 74
f 62 74 75
f 62 75 63
f 62 63 76
f 63 77 78
f 63 78 79
f 63 79 76
f 64 67 80
f 65 81 82
f 66 83 67
f 67 84 85
f 67 85 80
f 67 83 86
f 67 86 84
f 77 87 78
f 78 87 88
f 81 88 82
f 82 88 87

