# https://github.com/mikedh/trimesh
v 6.09369938 -4.09558091 -0.94415846
v 6.09369938 -4.09558091 -0.09841348
v 6.09369938 -3.49466655 -0.94415846
v 6.14683059 -4.09558091 -0.94415846
v 6.10069434 -4.09558091 -0.08786104
v 6.09369938 -3.72038447 -0.01515562
v 6.09369938 -3.49466655 0.02308490
v 6.21350481 -3.49466655 -0.94415846
v 7.41408995 -4.09558091 -0.94406163
v 6.10709391 -4.09558091 -0.08379495
v 6.09369938 -3.62608537 0.00410985
v 6.09369938 -3.52678594 0.01950286
v 6.34179350 -4.09558091 -0.00363507
v 6.43049429 -4.09558091 0.00788552
v 6.43793556 -4.09558091 0.00866000
v 6.47930933 -4.09558091 0.01282289
v 6.48957846 -4.09558091 0.01359738
v 6.53675641 -4.09558091 0.01688898
v 6.11096346 -3.49466655 0.02414985
v 7.41408995 -3.49466655 -0.94406163
v 7.51172032 -4.09558091 -0.94086685
v 6.14787229 -4.09558091 -0.06133470
v 6.09369938 -3.57661211 0.01233883
v 6.24431190 -4.09558091 -0.02377183
v 6.63423801 -4.09558091 0.02231041
v 6.14683059 -3.49466655 0.02618288
v 7.51172032 -3.49466655 -0.94086685
v 7.58717535 -4.09558091 -0.90156146
v 6.73186839 -4.09558091 0.02579562
v 6.34179350 -3.49466655 0.03508954
v 6.24431190 -3.49466655 0.03102345
v 7.58717535 -3.49466655 -0.90156146
v 7.60563020 -3.49466655 -0.84347453
v 7.61411318 -4.09558091 -0.81675456
v 6.82934999 -4.09558091 0.02792548
v 6.53675641 -3.49466655 0.04080140
v 6.43927510 -3.49466655 0.03838112
v 7.61411318 -3.49466655 -0.81675456
v 7.61411318 -4.09558091 -0.13433054
v 6.92668252 -4.09558091 0.02928085
v 6.63423801 -3.49466655 0.04244721
v 7.61411318 -3.49466655 -0.13433054
v 7.59565891 -3.49466655 -0.03684139
v 7.59402125 -3.62290868 -0.03684139
v 7.59253351 -3.72038447 -0.03684139
v 7.59134275 -4.09558091 -0.05446109
v 6.82934999 -3.49466655 0.04418981
v 6.73186839 -3.49466655 0.04351212
v 6.94141630 -4.09558091 0.02937765
v 7.56872109 -3.49466655 0.01737304
v 7.56842354 -3.52537405 0.01717941
v 7.59074707 -3.81780142 -0.03684139
v 7.58643149 -4.09558091 -0.03848719
v 7.56723277 -3.62290868 0.01630809
v 6.85985924 -3.49466655 0.04438344
v 7.02416412 -4.09558091 0.02976491
v 6.92668252 -3.49466655 0.04477066
v 7.51172032 -3.49466655 0.02502113
v 7.56574446 -3.72038447 0.01524318
v 7.56395860 -3.81780142 0.01408143
v 7.56187519 -3.91533605 0.01282289
v 7.56068443 -3.96957420 0.01204841
v 7.54178326 -4.03451885 0.01049940
v 7.51678064 -4.09558091 0.00924086
v 7.03889790 -4.09558091 0.02957128
v 7.02416412 -3.49466655 0.04477066
v 7.34741573 -3.49466655 0.03228200
v 7.41408995 -3.52537405 0.02889359
v 7.51172032 -3.52537405 0.02453707
v 7.51172032 -3.62290868 0.02279447
v 7.51172032 -3.72038447 0.02076144
v 7.51172032 -3.81780142 0.01843795
v 7.51172032 -3.91533605 0.01592087
v 7.51023201 -4.00634086 0.01330695
v 7.47674613 -4.08016832 0.01253246
v 7.47094194 -4.09558091 0.01224204
v 7.12164544 -4.09558091 0.02763505
v 7.12164544 -4.01281180 0.03015213
v 7.12164544 -3.91533605 0.03266926
v 7.12164544 -3.72038447 0.03750980
v 7.12164544 -3.62290868 0.03983329
v 7.12164544 -3.52537405 0.04167272
v 7.12164544 -3.49466655 0.04215678
v 7.21912704 -3.49466655 0.03789706
v 7.41408995 -3.62290868 0.02715099
v 7.41408995 -3.72038447 0.02511796
v 7.41408995 -3.81780142 0.02279447
v 7.21912704 -3.81780142 0.03141068
v 7.31660864 -3.91533605 0.02453707
v 7.21912704 -4.01281180 0.02598925
v 7.41408995 -4.01281180 0.01737304
v 7.13637950 -4.09558091 0.02705419
v 7.44802244 -4.09558091 0.01330695
v 7.21912704 -3.91533605 0.02879679
v 7.21912704 -3.72038447 0.03363737
v 7.21912704 -3.62290868 0.03567040
f 1 2 6
f 1 6 11
f 1 11 23
f 1 23 12
f 1 12 7
f 1 7 3
f 1 3 8
f 1 8 4
f 1 4 9
f 1 9 21
f 1 21 28
f 1 28 34
f 1 34 39
f 1 39 46
f 1 46 53
f 1 53 64
f 1 64 76
f 1 76 93
f 1 93 92
f 1 92 77
f 1 77 65
f 1 65 56
f 1 56 49
f 1 49 40
f 1 40 35
f 1 35 29
f 1 29 25
f 1 25 18
f 1 18 17
f 1 17 16
f 1 16 15
f 1 15 14
f 1 14 13
f 1 13 24
f 1 24 22
f 1 22 10
f 1 10 5
f 1 5 2
f 2 5 6
f 3 7 19
f 3 19 26
f 3 26 31
f 3 31 30
f 3 30 37
f 3 37 36
f 3 36 41
f 3 41 48
f 3 48 47
f 3 47 55
f 3 55 57
f 3 57 66
f 3 66 83
f 3 83 84
f 3 84 67
f 3 67 58
f 3 58 50
f 3 50 43
f 3 43 42
f 3 42 38
f 3 38 33
f 3 33 32
f 3 32 27
f 3 27 20
f 3 20 8
f 4 8 9
f 5 10 6
f 6 10 11
f 7 12 13
f 7 13 14
f 7 14 15
f 7 15 16
f 7 16 17
f 7 17 18
f 7 18 19
f 8 20 9
f 9 20 27
f 9 27 21
f 10 22 11
f 11 22 24
f 11 24 23
f 12 23 24
f 12 24 13
f 18 25 26
f 18 26 19
f 21 27 32
f 21 32 28
f 25 29 30
f 25 30 31
f 25 31 26
f 28 32 33
f 28 33 34
f 29 35 36
f 29 36 37
f 29 37 30
f 33 38 34
f 34 38 42
f 34 42 39
f 35 40 41
f 35 41 36
f 39 43 44
f 39 44 45
f 39 45 46
f 39 42 43
f 40 47 48
f 40 48 41
f 40 49 47
f 43 50 44
f 44 50 51
f 44 51 45
f 45 52 53
f 45 53 46
f 45 51 54
f 45 54 52
f 47 49 55
f 49 56 57
f 49 57 55
f 50 58 51
f 51 58 54
f 52 54 53
f 53 54 59
f 53 59 60
f 53 60 61
f 53 61 62
f 53 62 63
f 53 63 64
f 54 58 59
f 56 65 66
f 56 66 57
f 58 67 68
f 58 68 69
f 58 69 61
f 58 61 60
f 58 60 59
f 61 69 62
f 62 69 70
f 62 70 71
f 62 71 72
f 62 72 73
f 62 73 74
f 62 74 75
f 62 75 63
f 63 75 76
f 63 76 64
f 65 77 78
f 65 78 79
f 65 79 66
f 66 79 80
f 66 80 81
f 66 81 82
f 66 82 83
f 67 84 68
f 68 84 83
f 68 83 82
f 68 82 96
f 68 96 85
f 68 85 70
f 68 70 69
f 70 85 86
f 70 86 71
f 71 86 87
f 71 87 72
f 72 87 73
f 73 87 88
f 73 88 89
f 73 89 90
f 73 90 91
f 73 91 74
f 74 91 75
f 75 91 90
f 75 90 92
f 75 92 93
f 75 93 76
f 77 92 78
f 78 92 90
f 78 90 94
f 78 94 88
f 78 88 79
f 79 88 80
f 80 88 81
f 81 88 95
f 81 95 96
f 81 96 82
f 85 96 95
f 85 95 86
f 86 95 88
f 86 88 87
f 88 94 89
f 89 94 90

