# https://github.com/mikedh/trimesh
v 5.12033929 -5.93368138 0.03136551
v 5.12033929 -5.93368138 -0.05465429
v 5.11057227 -5.93368138 0.03166130
v 5.00871522 -6.10427978 0.03166130
v 5.02964459 -6.10427978 0.03075707
v 5.12033929 -6.10427978 0.02577113
v 5.12033929 -6.10427978 -0.05465429
v -2.00686152 -5.93368138 -0.05465429
v -0.07436864 -5.93368138 0.03166130
v 0.17748345 -6.10427978 0.03166130
v -1.91895749 -6.10427978 -0.05465429
v -1.94546817 -5.93368138 -0.05028527
v -0.09320530 -5.93368138 0.03117960
v 0.00446604 -6.10427978 0.02746129
v 0.00446604 -5.98779196 0.03166130
v 0.16422811 -6.09564556 0.03166130
v 0.10283476 -6.10427978 0.02986973
v -1.89174885 -6.10427978 -0.05276132
v -1.84779683 -5.93368138 -0.04351624
v -0.19017869 -5.93368138 0.02859368
v -0.13645937 -6.10427978 0.02381059
v -0.09250735 -6.10427978 0.02497678
v 0.02609307 -6.00252211 0.03166130
v -1.86733145 -6.10427978 -0.05108808
v -1.84709945 -6.10427978 -0.04971061
v -1.75012606 -6.10427978 -0.04319512
v -1.75012606 -5.93368138 -0.03699229
v -0.28784975 -5.93368138 0.02591480
v -0.28784975 -6.10427978 0.01971199
v -0.23413071 -6.10427978 0.02118241
v -1.69710411 -6.10427978 -0.03977257
v -1.72152209 -5.93368138 -0.03513314
v -0.38482343 -5.93368138 0.02311762
v -0.38900913 -6.10427978 0.01680493
v -1.65245472 -6.10427978 -0.03697539
v -1.65315209 -5.93368138 -0.03077257
v -0.45389080 -5.93368138 0.02108945
v -0.48319215 -5.93368138 0.02021902
v -0.48249419 -6.10427978 0.01400775
v -1.55548133 -6.10427978 -0.03107680
v -1.55478337 -5.93368138 -0.02487397
v -0.52714416 -6.10427978 0.01265563
v -0.55156156 -5.93368138 0.01808945
v -1.50176200 -6.10427978 -0.02801764
v -1.45780999 -5.93368138 -0.01931341
v -0.57318889 -6.10427978 0.01121058
v -0.58016554 -5.93368138 0.01717678
v -1.45711261 -6.10427978 -0.02551623
v -1.36013922 -6.10427978 -0.02031904
v -1.36013922 -5.93368138 -0.01410776
v -0.64783758 -5.93368138 0.01497113
v -0.67504593 -6.10427978 0.00786409
v -1.26316583 -6.10427978 -0.01546833
v -1.33153525 -5.93368138 -0.01266269
v -0.67365060 -5.93368138 0.01410072
v -0.77201961 -5.93368138 0.01077112
v -0.77480998 -6.10427978 0.00445000
v -1.16479653 -6.10427978 -0.01098100
v -1.16479653 -5.93368138 -0.00477818
v -1.23386449 -5.93368138 -0.00793030
v -1.26316583 -5.93368138 -0.00928241
v -0.78387962 -5.93368138 0.01034859
v -0.81945966 -6.10427978 0.00286126
v -1.06782314 -6.10427978 -0.00678099
v -1.06782314 -5.93368138 -0.00057817
v -0.87248103 -5.93368138 0.00714577
v -0.87248103 -6.10427978 0.00092605
v -0.97015238 -6.10427978 -0.00282606
v -0.96945442 -5.93368138 0.00337676
v -0.94154841 -5.93368138 0.00449225
f 1 2 8
f 1 8 12
f 1 12 19
f 1 19 27
f 1 27 32
f 1 32 36
f 1 36 41
f 1 41 45
f 1 45 50
f 1 50 54
f 1 54 61
f 1 61 60
f 1 60 59
f 1 59 65
f 1 65 69
f 1 69 70
f 1 70 66
f 1 66 62
f 1 62 56
f 1 56 55
f 1 55 51
f 1 51 47
f 1 47 43
f 1 43 38
f 1 38 37
f 1 37 33
f 1 33 28
f 1 28 20
f 1 20 13
f 1 13 9
f 1 9 3
f 1 3 4
f 1 4 5
f 1 5 6
f 1 6 7
f 1 7 2
f 2 7 11
f 2 11 8
f 3 9 15
f 3 15 23
f 3 23 16
f 3 16 10
f 3 10 4
f 4 10 17
f 4 17 14
f 4 14 22
f 4 22 21
f 4 21 30
f 4 30 29
f 4 29 34
f 4 34 39
f 4 39 42
f 4 42 46
f 4 46 52
f 4 52 57
f 4 57 63
f 4 63 67
f 4 67 68
f 4 68 64
f 4 64 58
f 4 58 53
f 4 53 49
f 4 49 48
f 4 48 44
f 4 44 40
f 4 40 35
f 4 35 31
f 4 31 26
f 4 26 25
f 4 25 24
f 4 24 18
f 4 18 11
f 4 11 7
f 4 7 6
f 4 6 5
f 8 11 12
f 9 13 14
f 9 14 15
f 10 16 17
f 11 18 12
f 12 18 19
f 13 20 21
f 13 21 22
f 13 22 14
f 14 17 23
f 14 23 15
f 16 23 17
f 18 24 19
f 19 24 25
f 19 25 26
f 19 26 27
f 20 28 29
f 20 29 30
f 20 30 21
f 26 31 32
f 26 32 27
f 28 33 34
f 28 34 29
f 31 35 36
f 31 36 32
f 33 37 34
f 34 37 38
f 34 38 39
f 35 40 36
f 36 40 41
f 38 42 39
f 38 43 42
f 40 44 45
f 40 45 41
f 42 43 46
f 43 47 46
f 44 48 45
f 45 48 49
f 45 49 50
f 46 47 51
f 46 51 52
f 49 53 54
f 49 54 50
f 51 55 52
f 52 55 56
f 52 56 57
f 53 58 59
f 53 59 60
f 53 60 61
f 53 61 54
f 56 62 63
f 56 63 57
f 58 64 65
f 58 65 59
f 62 66 63
f 63 66 67
f 64 68 65
f 65 68 69
f 66 70 68
f 66 68 67
f 68 70 69

