# https://github.com/mikedh/trimesh
v 5.72842400 -1.96439253 0.09739562
v 5.75677779 -1.96439253 0.09627412
v 5.72842400 -1.86701641 0.09596825
v 5.72842400 -1.96439253 -0.94415861
v 5.95818705 -1.96470461 0.00675918
v 5.85421086 -1.96439253 0.07516979
v 6.09369938 -1.57535673 0.07180536
v 6.09369938 -1.53072594 0.07384442
v 6.09369938 -1.47782457 0.07486396
v 5.95818705 -1.56864654 0.08200068
v 5.75677779 -1.86701641 0.09484679
v 5.72842400 -1.77010869 0.09443897
v 5.75677779 -1.96439253 -0.94415861
v 5.95818705 -1.96470461 -0.94405669
v 5.72842400 -0.50297253 -0.94415861
v 6.09369938 -1.96470461 -0.03534748
v 6.04921997 -1.47782457 0.07669911
v 6.09369938 -1.28276054 0.07109168
v 5.95171542 -1.47766854 0.08057332
v 5.75677779 -1.47766854 0.08821981
v 5.85421086 -1.57520070 0.08618075
v 5.72842400 -1.67273257 0.09280773
v 5.75677779 -1.77010869 0.09331747
v 5.75677779 -0.50297253 -0.94415861
v 6.09369938 -1.96470461 -0.94405669
v 5.72842400 -0.41277472 -0.90470269
v 5.95818705 -0.41870472 -0.90735344
v 5.95818705 -1.37373855 0.07833035
v 6.09369938 -1.23812975 0.07017408
v 6.04921997 -1.18507234 0.07088777
v 5.95818705 -1.27605035 0.07639325
v 5.72842400 -1.57520070 0.09107450
v 5.72842400 -1.31100566 0.08607880
v 5.72842400 -1.38013638 0.08740421
v 5.72842400 -1.60360185 0.09158428
v 6.09369938 -0.45397240 -0.92274841
v 6.09369938 -0.50312828 -0.94405669
v 5.72842400 -0.37110892 -0.81661516
v 5.95818705 -0.37376185 -0.82252838
v 6.09369938 -0.38999121 -0.85678465
v 6.09369938 -0.41277472 -0.90470269
v 6.09369938 -1.14106599 0.06813503
v 5.85421086 -1.18507234 0.07863621
v 6.09369938 -1.08816462 0.06701356
v 5.95818705 -0.99047643 0.07037799
v 5.95171542 -1.08800859 0.07272292
v 5.72842400 -1.18507234 0.08352997
v 5.72842400 -0.37095318 -0.78837408
v 6.09369938 -0.37110892 -0.81661516
v 5.85421086 -1.08800859 0.07659716
v 6.09369938 -0.94615800 0.06395496
v 6.04921997 -0.99047643 0.06670770
v 5.95818705 -0.79556843 0.06599402
v 5.85421086 -0.89294456 0.07231513
v 5.75677779 -1.08800859 0.08036941
v 5.72842400 -1.01887787 0.07996162
v 5.95818705 -0.37064110 -0.71924979
v 5.72842400 -0.37064110 -0.71924979
v 6.09369938 -0.37079685 -0.71914780
v 5.72842400 -0.99063246 0.07934990
v 5.72842400 -0.89294456 0.07720888
v 6.09369938 -0.65340577 0.05732798
v 5.95818705 -0.69163844 0.06364909
v 5.95818705 -0.37064110 -0.13434409
v 5.72842400 -0.37064110 -0.13434409
v 6.09369938 -0.37079685 -0.13434409
v 5.72842400 -0.69803656 0.07272292
v 6.09369938 -0.50312828 0.05375964
v 6.04921997 -0.50312828 0.05559478
v 5.95818705 -0.60050440 0.06150808
v 5.75677779 -0.50297253 0.06711552
v 5.72842400 -0.60066044 0.07047995
v 5.72842400 -0.37142129 -0.10610304
v 5.72842400 -0.37344978 -0.03687680
v 5.75677779 -0.37360581 -0.03687680
v 6.09369938 -0.37376185 -0.08132842
v 6.09369938 -0.46489589 0.04437991
v 5.95171542 -0.50297253 0.05946903
v 5.72842400 -0.50297253 0.06813503
v 5.72842400 -0.53137368 0.06884871
v 6.09369938 -0.41886076 0.03224749
v 5.72842400 -0.38562187 -0.01434514
v 5.85421086 -0.37438600 -0.03687680
v 5.95818705 -0.37532252 -0.03687680
v 6.04921997 -0.37625874 -0.03687680
v 6.09369938 -0.37703893 -0.03687680
v 6.04921997 -0.41823661 0.03316508
v 5.95818705 -0.41698802 0.03500023
v 5.72842400 -0.44086408 0.04815220
v 6.09369938 -0.39966640 0.00125370
v 5.72842400 -0.41542764 0.03938421
v 5.75677779 -0.41558368 0.03887447
v 5.85421086 -0.41605179 0.03693733
f 1 2 11
f 1 11 3
f 1 3 12
f 1 12 22
f 1 22 35
f 1 35 32
f 1 32 34
f 1 34 33
f 1 33 47
f 1 47 56
f 1 56 60
f 1 60 61
f 1 61 67
f 1 67 72
f 1 72 80
f 1 80 79
f 1 79 89
f 1 89 91
f 1 91 82
f 1 82 74
f 1 74 73
f 1 73 65
f 1 65 58
f 1 58 48
f 1 48 38
f 1 38 26
f 1 26 15
f 1 15 4
f 1 4 14
f 1 14 5
f 1 5 2
f 2 6 7
f 2 7 8
f 2 8 9
f 2 9 10
f 2 10 11
f 2 5 6
f 3 11 23
f 3 23 12
f 4 13 25
f 4 25 14
f 4 15 24
f 4 24 13
f 5 14 25
f 5 25 16
f 5 16 6
f 6 16 7
f 7 16 25
f 7 25 37
f 7 37 36
f 7 36 41
f 7 41 40
f 7 40 49
f 7 49 59
f 7 59 66
f 7 66 76
f 7 76 86
f 7 86 90
f 7 90 81
f 7 81 77
f 7 77 68
f 7 68 62
f 7 62 51
f 7 51 44
f 7 44 42
f 7 42 29
f 7 29 18
f 7 18 9
f 7 9 8
f 9 17 10
f 9 18 17
f 10 17 19
f 10 19 20
f 10 20 21
f 10 21 22
f 10 22 12
f 10 12 23
f 10 23 11
f 13 24 37
f 13 37 25
f 15 26 27
f 15 27 24
f 17 18 28
f 17 28 19
f 18 29 30
f 18 30 31
f 18 31 28
f 19 28 20
f 20 32 21
f 20 28 33
f 20 33 34
f 20 34 32
f 21 35 22
f 21 32 35
f 24 27 36
f 24 36 37
f 26 38 39
f 26 39 40
f 26 40 41
f 26 41 27
f 27 41 36
f 28 31 33
f 29 42 30
f 30 43 31
f 30 42 44
f 30 44 45
f 30 45 46
f 30 46 50
f 30 50 43
f 31 43 33
f 33 43 47
f 38 48 49
f 38 49 39
f 39 49 40
f 43 50 47
f 44 51 52
f 44 52 45
f 45 51 53
f 45 53 54
f 45 54 50
f 45 50 46
f 45 52 51
f 47 50 55
f 47 55 56
f 48 57 49
f 48 58 57
f 49 57 59
f 50 60 55
f 50 54 61
f 50 61 60
f 51 62 63
f 51 63 53
f 53 63 54
f 54 63 61
f 55 60 56
f 57 58 65
f 57 65 64
f 57 64 66
f 57 66 59
f 61 63 67
f 62 68 69
f 62 69 63
f 63 69 70
f 63 70 71
f 63 71 72
f 63 72 67
f 64 65 73
f 64 73 74
f 64 74 66
f 66 74 75
f 66 75 76
f 68 77 69
f 69 77 78
f 69 78 70
f 70 78 71
f 71 79 80
f 71 80 72
f 71 78 77
f 71 77 81
f 71 81 79
f 74 82 75
f 75 82 83
f 75 83 76
f 76 83 84
f 76 84 85
f 76 85 86
f 79 81 87
f 79 87 88
f 79 88 89
f 81 90 87
f 82 91 84
f 82 84 83
f 84 91 85
f 85 91 92
f 85 92 93
f 85 93 86
f 86 93 90
f 87 90 88
f 88 93 89
f 88 90 93
f 89 93 92
f 89 92 91

