# https://github.com/mikedh/trimesh
v -0.62586971 -5.12992883 -0.94416049
v -0.62586971 -5.03852695 -0.94416049
v -0.43843292 -5.12992883 -0.94416049
v -0.78712009 -5.12992883 -0.94405763
v -0.43223094 -5.03852695 -0.94416049
v -0.78712009 -5.03852695 -0.94405763
v 0.97940235 -5.12992883 -0.94405763
v -0.78712009 -5.12992883 0.04299777
v 0.97940235 -5.03852695 -0.94405763
v -0.78712009 -5.03852695 0.04433524
v 2.31041029 -5.12992883 -0.94395470
v -0.77540536 -5.12992883 0.04340929
v -0.78712009 -5.08534627 0.04433524
v 2.31041029 -5.03852695 -0.94395470
v -0.14349558 -5.03852695 0.06686653
v 2.73248754 -5.12992883 -0.94374897
v -0.33231056 -5.12992883 0.05781283
v -0.19035478 -5.08534627 0.06398580
v -0.04598696 -5.03852695 0.07015876
v 2.73248754 -5.03852695 -0.94374897
v 2.73248754 -5.12992883 0.10534460
v -0.23514655 -5.12992883 0.06089933
v -0.09284616 -5.08534627 0.06707229
v 0.05117676 -5.03852695 0.07273083
v 2.73248754 -5.03852695 0.10688783
v 1.85628949 -5.03852695 0.10565326
v 1.95379797 -5.08534627 0.10462441
v 1.95379797 -5.12992883 0.10308118
v -0.13763793 -5.12992883 0.06388293
v -0.09284616 -5.12992883 0.06511750
v 0.10182618 -5.03852695 0.07406830
v 1.75499100 -5.03852695 0.10524170
v 1.85628949 -5.08534627 0.10431579
v 1.85628949 -5.12992883 0.10246390
v 0.10182618 -5.12992883 0.06995300
v 0.19933452 -5.03852695 0.07643458
v 1.66540724 -5.03852695 0.10421289
v 1.75878101 -5.08534627 0.10338984
v 1.75878101 -5.12992883 0.10143505
v 0.25205122 -5.12992883 0.07345102
v 0.39435162 -5.12992883 0.07674324
v 0.39435162 -5.03852695 0.08085855
v 1.61062333 -5.03852695 0.10349271
v 1.61682524 -5.12992883 0.09948030
v 0.58936843 -5.12992883 0.08096141
v 0.49186010 -5.03852695 0.08301907
v 1.46660027 -5.03852695 0.10133219
v 1.46660027 -5.12992883 0.09721688
v 0.68687706 -5.12992883 0.08301907
v 0.73373625 -5.03852695 0.08806032
v 1.31878698 -5.03852695 0.09886301
v 1.36909164 -5.12992883 0.09567365
v 0.88223849 -5.12992883 0.08682575
v 0.78817562 -5.12816629 0.08507672
v 0.78817562 -5.03852695 0.08919203
v 1.22127850 -5.03852695 0.09721688
v 1.22713587 -5.12992883 0.09320444
v 0.93529967 -5.12992883 0.08785456
v 0.97940235 -5.08534627 0.09073526
v 1.02626155 -5.03852695 0.09371886
v 1.17441931 -5.03852695 0.09639380
v 1.17441931 -5.12992883 0.09227853
v 1.03246353 -5.12992883 0.08970645
v 1.07691083 -5.12992883 0.09052950
v 1.07691083 -5.03852695 0.09464481
f 1 2 5
f 1 5 3
f 1 3 7
f 1 7 11
f 1 11 16
f 1 16 21
f 1 21 28
f 1 28 34
f 1 34 39
f 1 39 44
f 1 44 48
f 1 48 52
f 1 52 57
f 1 57 62
f 1 62 64
f 1 64 63
f 1 63 58
f 1 58 53
f 1 53 49
f 1 49 45
f 1 45 41
f 1 41 40
f 1 40 35
f 1 35 30
f 1 30 29
f 1 29 22
f 1 22 17
f 1 17 12
f 1 12 8
f 1 8 4
f 1 4 6
f 1 6 2
f 2 6 10
f 2 10 15
f 2 15 19
f 2 19 24
f 2 24 31
f 2 31 36
f 2 36 42
f 2 42 46
f 2 46 50
f 2 50 55
f 2 55 60
f 2 60 65
f 2 65 61
f 2 61 56
f 2 56 51
f 2 51 47
f 2 47 43
f 2 43 37
f 2 37 32
f 2 32 26
f 2 26 25
f 2 25 20
f 2 20 14
f 2 14 9
f 2 9 5
f 3 5 7
f 4 8 13
f 4 13 10
f 4 10 6
f 5 9 7
f 7 9 14
f 7 14 11
f 8 12 13
f 10 13 15
f 11 14 20
f 11 20 16
f 12 17 18
f 12 18 19
f 12 19 13
f 13 19 15
f 16 20 25
f 16 25 21
f 17 22 18
f 18 22 23
f 18 23 19
f 19 23 24
f 21 25 26
f 21 26 27
f 21 27 28
f 22 29 23
f 23 30 31
f 23 31 24
f 23 29 30
f 26 32 33
f 26 33 27
f 27 33 28
f 28 33 34
f 30 35 31
f 31 35 36
f 32 37 38
f 32 38 33
f 33 38 34
f 34 38 39
f 35 40 36
f 36 40 41
f 36 41 42
f 37 43 38
f 38 43 39
f 39 43 44
f 41 45 46
f 41 46 42
f 43 47 44
f 44 47 48
f 45 49 46
f 46 49 50
f 47 51 52
f 47 52 48
f 49 53 54
f 49 54 55
f 49 55 50
f 51 56 52
f 52 56 57
f 53 58 55
f 53 55 54
f 55 58 59
f 55 59 60
f 56 61 62
f 56 62 57
f 58 63 59
f 59 63 60
f 60 63 64
f 60 64 65
f 61 65 64
f 61 64 62

