# https://github.com/mikedh/trimesh
v 2.05789511 -2.74536840 0.16585897
v 1.95424073 -2.74536840 0.16477241
v 1.90194027 -2.79757646 0.16422914
v 1.90194027 -2.84282342 0.16401183
v 1.95424073 -2.84282342 0.16412047
v 2.05789511 -2.83662361 0.16379452
v 2.05789511 -2.64171373 0.16542434
v 2.05172778 -2.64791339 0.16542434
v 1.90194027 -2.74536840 0.16412047
v 1.90194027 -2.64791339 0.16379452
v 1.90194027 -2.70023012 0.16401183
v 1.90194027 -2.89514015 0.16249065
v 2.05789511 -2.84282342 0.16357721
v 2.05789511 -2.55045838 0.16488108
v 2.05172778 -2.55045838 0.16488108
v 1.95424073 -2.55045838 0.16390316
v 1.90194027 -2.60266643 0.16357721
v 1.90194027 -2.94027843 0.16020889
v 1.95424073 -2.94027843 0.15923100
v 2.05789511 -2.93418745 0.15716656
v 2.05789511 -2.45289469 0.16259932
v 2.05172778 -2.45289469 0.16270796
v 1.95424073 -2.45289469 0.16325126
v 1.90194027 -2.55045838 0.16325126
v 1.90194027 -2.99259516 0.15662330
v 2.05789511 -2.94027843 0.15673193
v 2.05789511 -2.35522204 0.14532318
v 2.05172778 -2.35543968 0.14662705
v 1.95843878 -2.19185454 0.13663077
v 1.95424073 -2.25787584 0.14858282
v 1.90194027 -2.19185454 0.14673569
v 1.90194027 -2.25787584 0.15466749
v 1.95424073 -2.35543968 0.15966563
v 1.90194027 -2.35543968 0.16053488
v 1.90194027 -2.45289469 0.16259932
v 1.90194027 -3.30290670 0.13141536
v 2.05789511 -3.30290670 0.12402682
v 2.05789511 -2.27451723 0.11892004
v 2.00834252 -2.19185454 0.11370459
v 1.90194027 -2.19185454 -0.94415977
v 1.90194027 -3.30290670 -0.94415977
v 2.05789511 -3.30290670 -0.94405109
v 2.05789511 -2.19185454 0.08360719
v 2.04549936 -2.19185454 0.09197361
v 2.00921264 -2.19185454 0.11326997
v 1.98571868 -2.19185454 -0.94415977
v 1.95424073 -3.30290670 -0.94415977
v 2.05789511 -2.19185454 -0.94405109
f 1 2 3
f 1 3 4
f 1 4 5
f 1 5 6
f 1 6 13
f 1 13 20
f 1 20 26
f 1 26 37
f 1 37 42
f 1 42 48
f 1 48 43
f 1 43 38
f 1 38 27
f 1 27 21
f 1 21 14
f 1 14 7
f 1 7 8
f 1 8 2
f 2 9 3
f 2 8 10
f 2 10 11
f 2 11 9
f 3 9 11
f 3 11 10
f 3 10 17
f 3 17 24
f 3 24 35
f 3 35 34
f 3 34 32
f 3 32 31
f 3 31 40
f 3 40 41
f 3 41 36
f 3 36 25
f 3 25 18
f 3 18 12
f 3 12 4
f 4 12 5
f 5 12 13
f 5 13 6
f 7 14 15
f 7 15 8
f 8 15 16
f 8 16 10
f 10 16 17
f 12 18 13
f 13 18 19
f 13 19 20
f 14 21 22
f 14 22 23
f 14 23 15
f 15 23 16
f 16 24 17
f 16 23 35
f 16 35 24
f 18 25 19
f 19 25 26
f 19 26 20
f 21 27 28
f 21 28 29
f 21 29 30
f 21 30 31
f 21 31 32
f 21 32 33
f 21 33 22
f 22 33 34
f 22 34 23
f 23 34 35
f 25 36 26
f 26 36 37
f 27 38 29
f 27 29 28
f 29 31 30
f 29 38 39
f 29 39 45
f 29 45 44
f 29 44 43
f 29 43 48
f 29 48 46
f 29 46 40
f 29 40 31
f 32 34 33
f 36 41 47
f 36 47 42
f 36 42 37
f 38 43 44
f 38 44 45
f 38 45 39
f 40 46 47
f 40 47 41
f 42 47 46
f 42 46 48

