# https://github.com/mikedh/trimesh
v -0.37837446 -3.67477285 -0.94416042
v -0.37837446 -3.67477285 -0.01816559
v -0.37837446 -3.56034825 -0.94416042
v -0.19059189 -3.67477285 -0.94416042
v -0.24704783 -3.67477285 0.03700046
v -0.18332292 -3.56034825 0.04630794
v -0.19156124 -3.56034825 0.04242981
v -0.37837446 -3.56034825 -0.06402420
v -0.15545846 -3.56034825 -0.94416042
v 2.09671809 -3.67477285 -0.94396646
v -0.23275223 -3.67477285 0.04213895
v -0.22087944 -3.67477285 0.04630794
v 2.09671809 -3.56034825 0.04630794
v 2.09671809 -3.56034825 -0.94396646
v 2.09671809 -3.67477285 0.04630794
f 1 2 8
f 1 8 3
f 1 3 9
f 1 9 4
f 1 4 10
f 1 10 15
f 1 15 12
f 1 12 11
f 1 11 5
f 1 5 2
f 2 5 6
f 2 6 7
f 2 7 8
f 3 8 7
f 3 7 6
f 3 6 13
f 3 13 14
f 3 14 9
f 4 9 10
f 5 11 6
f 6 11 12
f 6 12 15
f 6 15 13
f 9 14 10
f 10 14 13
f 10 13 15

