# https://github.com/mikedh/trimesh
v 5.51933896 -5.57385256 0.03166974
v 5.46409471 -5.57385256 0.03370642
v 4.48933682 -5.96238269 0.05957852
v 4.58684588 -5.96238269 0.05543898
v 5.07954957 -5.96238269 0.03167446
v 5.07888401 -5.96238269 0.03166974
v 3.81958576 -5.57385256 0.03166974
v 5.36658580 -5.57385256 0.03722692
v 5.26824468 -5.57385256 0.04070490
v 5.17173389 -5.57385256 0.04403165
v 5.07422483 -5.57385256 0.04731586
v 5.07322656 -5.57385256 0.04734893
v 4.97571736 -5.57385256 0.05054338
v 4.87820830 -5.57385256 0.05364802
v 4.78169765 -5.57385256 0.05662036
v 4.68418859 -5.57385256 0.05952182
v 4.58684588 -5.57385256 0.06231931
v 4.58584747 -5.57385256 0.06234766
v 4.48933682 -5.57385256 0.06500338
v 4.39082921 -5.57385256 0.06760241
v 4.29431855 -5.57385256 0.07001714
v 4.19680949 -5.57385256 0.07231373
v 4.09930043 -5.57385256 0.07449692
v 4.00179137 -5.57385256 0.07652415
v 3.90428217 -5.57385256 0.07843325
v 3.81958576 -5.57385256 0.07994541
v 4.39182761 -5.96238269 0.06055197
v 3.81958576 -5.96238269 0.03166974
v 3.81958576 -5.96238269 0.06445051
f 1 2 3
f 1 3 4
f 1 4 5
f 1 5 6
f 1 6 28
f 1 28 7
f 1 7 26
f 1 26 25
f 1 25 24
f 1 24 23
f 1 23 22
f 1 22 21
f 1 21 20
f 1 20 19
f 1 19 18
f 1 18 17
f 1 17 16
f 1 16 15
f 1 15 14
f 1 14 13
f 1 13 12
f 1 12 11
f 1 11 10
f 1 10 9
f 1 9 8
f 1 8 2
f 2 8 3
f 3 8 9
f 3 9 10
f 3 10 11
f 3 11 12
f 3 12 13
f 3 13 14
f 3 14 15
f 3 15 16
f 3 16 17
f 3 17 18
f 3 18 19
f 3 19 20
f 3 20 21
f 3 21 22
f 3 22 23
f 3 23 24
f 3 24 25
f 3 25 26
f 3 26 27
f 3 27 29
f 3 29 28
f 3 28 6
f 3 6 5
f 3 5 4
f 7 28 29
f 7 29 26
f 26 29 27

