# https://github.com/mikedh/trimesh
v -0.38604616 -3.46333628 -0.05387305
v -0.38604616 -3.56033815 -0.06706327
v -0.38604616 -3.46333628 -0.94405996
v -0.46569241 -3.45745429 -0.02507617
v -0.57857087 -3.45745429 0.03735071
v -0.58518721 -3.56034825 0.03362524
v -0.46569241 -3.56034825 -0.03887049
v -0.38604616 -3.56033815 -0.07099010
v -0.55387394 -3.56034825 0.01479650
v -0.38604616 -3.56023747 -0.94405996
v -0.90195382 -3.45745429 -0.94416064
v -0.46569241 -3.45745429 -0.94405996
v -0.60230833 -3.45745429 0.04580855
v -0.67826751 -3.56034825 0.06524140
v -0.46569241 -3.56034825 -0.94405996
v -0.44831878 -3.56033815 -0.94405996
v -0.90195382 -3.56034825 -0.94416064
v -0.90195382 -3.45745429 0.08447291
v -0.67826751 -3.45745429 0.07027582
v -0.70781294 -3.45745429 0.07390061
v -0.77574214 -3.56034825 0.07651852
v -0.90195382 -3.56034825 0.08014331
v -0.87321647 -3.56034825 0.08004262
v -0.88195370 -3.45745429 0.08437223
v -0.77574214 -3.45745429 0.08104949
v -0.80533783 -3.45745429 0.08215708
v -0.87321647 -3.45745429 0.08427154
f 1 2 8
f 1 8 10
f 1 10 3
f 1 3 12
f 1 12 4
f 1 4 5
f 1 5 6
f 1 6 2
f 2 7 15
f 2 15 8
f 2 6 9
f 2 9 7
f 3 10 17
f 3 17 11
f 3 11 12
f 4 12 11
f 4 11 18
f 4 18 24
f 4 24 27
f 4 27 26
f 4 26 25
f 4 25 20
f 4 20 19
f 4 19 13
f 4 13 5
f 5 13 6
f 6 13 14
f 6 14 21
f 6 21 23
f 6 23 22
f 6 22 17
f 6 17 15
f 6 15 7
f 6 7 9
f 8 15 16
f 8 16 10
f 10 16 17
f 11 17 22
f 11 22 18
f 13 19 14
f 14 19 20
f 14 20 21
f 15 17 16
f 18 22 23
f 18 23 24
f 20 25 21
f 21 25 26
f 21 26 23
f 23 26 27
f 23 27 24

