# https://github.com/mikedh/trimesh
v 2.43780664 -0.69057960 -0.94415955
v 2.43767942 -0.60034139 -0.94415955
v 2.56763656 -0.69057960 -0.94415955
v 2.43767942 -0.69057960 -0.94087782
v 2.43767942 -0.50286531 -0.94415955
v 2.56763656 -0.50286531 -0.94415955
v 2.56763656 -0.69057960 0.13732234
v 2.43767942 -0.69057960 0.13679306
v 2.43767942 -0.41269016 -0.90477904
v 2.56763656 -0.41269016 -0.90477904
v 2.56763656 -0.60034139 0.13520515
v 2.44902761 -0.69057960 0.13689890
v 2.43767942 -0.50286531 0.13245270
v 2.56763656 -0.38304943 -0.84242658
v 2.43767942 -0.37086077 -0.81670218
v 2.56763656 -0.50286531 0.13287614
v 2.43767942 -0.42945301 0.12038451
v 2.56763656 -0.37086077 -0.81670218
v 2.43767942 -0.37051616 -0.71920366
v 2.56763656 -0.37061030 -0.74757459
v 2.56763656 -0.42907700 0.12059623
v 2.44175053 -0.42942162 0.12038451
v 2.43767942 -0.38765529 0.06067855
v 2.56763656 -0.37051616 -0.71920366
v 2.43767942 -0.37051616 -0.03681994
v 2.56763656 -0.38724791 0.06067855
v 2.53922791 -0.38731067 0.06067855
v 2.44175053 -0.38762391 0.06067855
v 2.56763656 -0.37051616 -0.03681994
f 1 2 5
f 1 5 6
f 1 6 3
f 1 3 7
f 1 7 12
f 1 12 8
f 1 8 4
f 1 4 2
f 2 4 8
f 2 8 13
f 2 13 17
f 2 17 23
f 2 23 25
f 2 25 19
f 2 19 15
f 2 15 9
f 2 9 5
f 3 6 10
f 3 10 14
f 3 14 18
f 3 18 20
f 3 20 24
f 3 24 29
f 3 29 26
f 3 26 21
f 3 21 16
f 3 16 11
f 3 11 7
f 5 9 10
f 5 10 6
f 7 11 12
f 8 12 13
f 9 14 10
f 9 15 14
f 11 16 13
f 11 13 12
f 13 16 17
f 14 15 18
f 15 19 20
f 15 20 18
f 16 21 17
f 17 21 22
f 17 22 28
f 17 28 23
f 19 24 20
f 19 25 29
f 19 29 24
f 21 26 27
f 21 27 28
f 21 28 22
f 23 28 25
f 25 28 27
f 25 27 26
f 25 26 29

