# https://github.com/mikedh/trimesh
v -2.04244098 -5.86537531 -0.94416100
v -2.04340597 -5.96248265 -0.94408560
v -2.11963160 -5.78871353 -0.94159677
v -2.04244098 -5.78871353 -0.94416100
v 7.41245170 -5.96248265 -0.94408560
v -2.14085910 -5.96248265 -0.94061631
v -2.13989440 -5.86537531 -0.94084259
v -2.13989440 -5.78871353 -0.94084259
v 7.41245170 -5.78871353 -0.94408560
v 7.51086982 -5.96248265 -0.94084259
v -2.21612032 -5.96248265 -0.90117238
v -2.21612032 -5.86537531 -0.90154954
v -2.21612032 -5.78871353 -0.90154954
v 7.51086982 -5.78871353 -0.94076711
v 7.52727264 -5.78871353 -0.93239572
v 7.58613045 -5.96248265 -0.90162495
v -2.24313660 -5.96248265 -0.81670356
v -2.24313660 -5.78871353 -0.81670356
v 7.58613045 -5.78871353 -0.90147407
v 7.59577979 -5.78871353 -0.87304131
v 7.59577979 -5.89803364 -0.87304131
v 7.61411260 -5.86537531 -0.81662816
v 7.61314790 -5.96248265 -0.81692985
v -2.24313660 -5.96248265 -0.23183227
v -2.24313660 -5.78871353 -0.23183227
v 7.61411260 -5.78871353 -0.81662816
v 7.61411260 -5.96248265 -0.71956440
v -2.23348843 -5.96248265 -0.17368454
v -2.23541783 -5.90459927 -0.17368454
v -2.23638253 -5.80728795 -0.17368454
v -2.23638253 -5.78871353 -0.17368454
v 7.61411260 -5.78871353 -0.23183227
v 7.61411260 -5.96248265 -0.23228480
v 7.60446326 -5.96248265 -0.17368454
v 7.60542797 -5.78871353 -0.17368454
v 7.61411260 -5.86537531 -0.23183227
v 7.60542797 -5.86537531 -0.17368454
f 1 2 3
f 1 3 4
f 1 4 9
f 1 9 5
f 1 5 2
f 2 6 7
f 2 7 3
f 2 5 10
f 2 10 16
f 2 16 23
f 2 23 27
f 2 27 33
f 2 33 34
f 2 34 28
f 2 28 24
f 2 24 17
f 2 17 11
f 2 11 6
f 3 8 13
f 3 13 18
f 3 18 25
f 3 25 31
f 3 31 35
f 3 35 32
f 3 32 26
f 3 26 20
f 3 20 19
f 3 19 15
f 3 15 14
f 3 14 9
f 3 9 4
f 3 7 8
f 5 9 10
f 6 11 12
f 6 12 13
f 6 13 8
f 6 8 7
f 9 14 10
f 10 14 15
f 10 15 16
f 11 17 12
f 12 17 18
f 12 18 13
f 15 19 16
f 16 19 20
f 16 20 21
f 16 21 22
f 16 22 23
f 17 24 25
f 17 25 18
f 20 26 22
f 20 22 21
f 22 26 32
f 22 32 36
f 22 36 33
f 22 33 27
f 22 27 23
f 24 28 29
f 24 29 30
f 24 30 31
f 24 31 25
f 28 34 37
f 28 37 35
f 28 35 31
f 28 31 30
f 28 30 29
f 32 35 37
f 32 37 36
f 33 36 37
f 33 37 34

