# https://github.com/mikedh/trimesh
v -0.37837446 -4.09558095 -0.94416042
v -0.37837446 -4.09558095 0.07893850
v -0.37837446 -3.81733759 -0.94416042
v -0.19059189 -4.09558095 -0.94416042
v -0.37837446 -4.08950733 0.07883211
v -0.37086316 -4.09558095 0.07936415
v 0.19926856 -3.81788235 0.11894737
v 0.10840620 -3.81733759 0.11266941
v 0.05970390 -3.81733759 0.10894517
v -0.37837446 -3.81733759 0.05350736
v -0.19059189 -3.81733759 -0.94416042
v 2.09671809 -4.09558095 -0.94405400
v -0.37837446 -4.01283788 0.07734242
v 0.02045131 -4.09558095 0.10085828
v 0.11591750 -4.09558095 0.10607217
v 0.29691520 -3.91536010 0.12118191
v 0.29739988 -3.81733759 0.12416128
v 0.19926856 -3.81733759 0.11894737
v 0.00445936 -3.81733759 0.10383763
v -0.37837446 -4.00570204 0.07702319
v -0.37837446 -3.81788235 0.05372017
v -0.09318729 -3.81733759 0.09330339
v 2.09671809 -3.81733759 -0.94405400
v 2.09671809 -4.09558095 0.09702763
v 0.17431156 -4.09558095 0.10905156
v 0.29691520 -4.01283788 0.11798972
v 0.39431980 -4.01283788 0.12160753
v 0.39431980 -3.91536010 0.12458690
v 0.39431980 -3.81733759 0.12724709
v -0.37837446 -3.91536010 0.07106442
v -0.37837446 -3.90822429 0.07010676
v 2.09671809 -3.81733759 0.09660201
v 1.56414318 -3.81733759 0.12820475
v 1.46649639 -3.81733759 0.13373790
v 1.36909193 -3.81788235 0.13852618
v 1.56414318 -4.09558095 0.12267159
v 0.23149423 -4.09558095 0.11192456
v 0.29691520 -4.09558095 0.11511676
v 0.39431980 -4.09558095 0.11884099
v 0.49196659 -4.09558095 0.12128834
v 0.49196659 -4.01283788 0.12394851
v 0.58937105 -3.91536010 0.12884321
v 0.58937105 -3.81788235 0.13139698
v 0.58937105 -3.81733759 0.13139698
v 1.36909193 -3.81733759 0.13852618
v 1.27217201 -3.81733759 0.14225045
v 1.36909193 -4.09558095 0.13118413
v 1.46649639 -4.09558095 0.12714067
v 0.58937105 -4.09558095 0.12341647
v 0.60415146 -4.09558095 0.12373567
v 0.68677565 -4.01283788 0.12799190
v 0.68677565 -3.91536010 0.13086494
v 0.68677565 -3.81788235 0.13341864
v 0.68677565 -3.81733759 0.13341864
v 1.17404054 -3.81733759 0.14288884
v 1.27168734 -3.81788235 0.14225045
v 1.27168734 -4.09558095 0.13437629
v 0.70155591 -4.09558095 0.12575740
v 0.78442244 -4.01283788 0.13001363
v 0.78490711 -3.81733759 0.13544037
v 0.88158470 -4.01283788 0.13192894
v 0.88158470 -3.91536010 0.13469556
v 0.88158470 -3.81788235 0.13735568
v 1.07663595 -3.81733759 0.14107995
v 1.17404054 -3.91536010 0.14022872
v 1.17404054 -4.01283788 0.13746210
v 1.17404054 -4.09558095 0.13480198
v 0.89636497 -4.09558095 0.12958802
v 0.88158470 -3.81733759 0.13735568
v 0.97923149 -4.01283788 0.13384433
v 0.97923149 -3.91536010 0.13661087
v 1.09141636 -4.09558095 0.13331229
v 0.99401176 -4.09558095 0.13150333
f 1 2 5
f 1 5 13
f 1 13 20
f 1 20 30
f 1 30 31
f 1 31 21
f 1 21 10
f 1 10 3
f 1 3 11
f 1 11 4
f 1 4 12
f 1 12 24
f 1 24 36
f 1 36 48
f 1 48 47
f 1 47 57
f 1 57 67
f 1 67 72
f 1 72 73
f 1 73 68
f 1 68 58
f 1 58 50
f 1 50 49
f 1 49 40
f 1 40 39
f 1 39 38
f 1 38 37
f 1 37 25
f 1 25 15
f 1 15 14
f 1 14 6
f 1 6 2
f 2 6 7
f 2 7 8
f 2 8 9
f 2 9 5
f 3 10 22
f 3 22 19
f 3 19 9
f 3 9 8
f 3 8 18
f 3 18 17
f 3 17 29
f 3 29 44
f 3 44 54
f 3 54 60
f 3 60 69
f 3 69 64
f 3 64 55
f 3 55 46
f 3 46 45
f 3 45 34
f 3 34 33
f 3 33 32
f 3 32 23
f 3 23 11
f 4 11 23
f 4 23 12
f 5 9 13
f 6 14 7
f 7 14 15
f 7 15 16
f 7 16 17
f 7 17 18
f 7 18 8
f 9 19 20
f 9 20 13
f 10 21 22
f 12 23 32
f 12 32 24
f 15 25 16
f 16 26 27
f 16 27 28
f 16 28 17
f 16 25 26
f 17 28 29
f 19 22 30
f 19 30 20
f 21 31 22
f 22 31 30
f 24 32 33
f 24 33 34
f 24 34 35
f 24 35 36
f 25 37 26
f 26 38 39
f 26 39 27
f 26 37 38
f 27 39 40
f 27 40 41
f 27 41 28
f 28 41 42
f 28 42 29
f 29 42 43
f 29 43 44
f 34 45 35
f 35 46 47
f 35 47 48
f 35 48 36
f 35 45 46
f 40 49 41
f 41 49 50
f 41 50 58
f 41 58 51
f 41 51 52
f 41 52 42
f 42 52 53
f 42 53 43
f 43 53 54
f 43 54 44
f 46 55 56
f 46 56 57
f 46 57 47
f 51 58 59
f 51 59 52
f 52 60 53
f 52 59 61
f 52 61 62
f 52 62 63
f 52 63 60
f 53 60 54
f 55 64 71
f 55 71 65
f 55 65 56
f 56 65 57
f 57 65 66
f 57 66 67
f 58 68 61
f 58 61 59
f 60 63 69
f 61 68 73
f 61 73 70
f 61 70 71
f 61 71 62
f 62 71 63
f 63 71 64
f 63 64 69
f 65 71 70
f 65 70 66
f 66 70 73
f 66 73 72
f 66 72 67

