# https://github.com/mikedh/trimesh
v 7.61411318 -2.06562572 -0.13438286
v 7.61411318 -2.06562572 -0.81676219
v 7.59431937 -2.06562572 -0.03691457
v 7.59521201 -2.16061130 -0.03691457
v 7.59610523 -2.25811498 -0.03691457
v 7.59670033 -2.35547876 -0.03691457
v 7.59774232 -2.55048627 -0.03691457
v 7.59818864 -2.74549364 -0.03691457
v 7.59833741 -2.84271765 -0.03691457
v 7.61411318 -3.49460764 -0.13438286
v 7.61411318 -3.49460764 -0.81676219
v 7.58717535 -2.06562572 -0.90149085
v 7.59372370 -2.06562572 -0.03549905
v 7.56991185 -2.35547876 0.01818940
v 7.57080449 -2.55048627 0.01899829
v 7.57139958 -2.74549364 0.01940273
v 7.57154894 -2.84271765 0.01950381
v 7.59833741 -2.94022133 -0.03691457
v 7.59803986 -3.13522885 -0.03691457
v 7.59759355 -3.23273253 -0.03691457
v 7.59699787 -3.33009631 -0.03691457
v 7.59625401 -3.42760006 -0.03691457
v 7.59551014 -3.49460764 -0.03691457
v 7.58717535 -3.49460764 -0.90149085
v 7.51172032 -2.06562572 -0.94082189
v 7.56767909 -2.06562572 0.01657168
v 7.56842354 -2.16061130 0.01717832
v 7.51172032 -2.55048627 0.02819912
v 7.51172032 -2.64798996 0.02870468
v 7.51172032 -2.74549364 0.02910909
v 7.51172032 -2.84271765 0.02921021
v 7.57154894 -2.94022133 0.01950381
v 7.57139958 -3.03772502 0.01940273
v 7.57110204 -3.13522885 0.01920049
v 7.57080449 -3.23273253 0.01889717
v 7.57006063 -3.33009631 0.01839164
v 7.56931618 -3.42760006 0.01778496
v 7.56872109 -3.49460764 0.01738056
v 7.51172032 -3.49460764 -0.94082189
v 7.41662025 -2.06562572 -0.94405741
v 7.56619078 -2.06562572 0.01677392
v 7.51172032 -2.35547876 0.02668252
v 7.51172032 -2.45298259 0.02749136
v 7.12164544 -2.55048627 0.04538751
v 7.41408995 -2.64798996 0.03305230
v 7.02416412 -2.74549364 0.05054405
v 7.21912704 -2.84271765 0.04215206
v 7.51172032 -2.94022133 0.02921021
v 7.51172032 -3.03772502 0.02900800
v 7.51172032 -3.13522885 0.02860356
v 7.51172032 -3.23273253 0.02799692
v 7.51172032 -3.33009631 0.02708692
v 7.51172032 -3.42760006 0.02587363
v 7.51172032 -3.49460764 0.02496367
v 7.41408995 -3.49460764 -0.94405741
v 6.21350481 -3.49460764 -0.94415846
v 6.14936060 -2.06562572 -0.94415846
v 7.51172032 -2.06562572 0.02344703
v 7.51172032 -2.16061130 0.02466035
v 7.41408995 -2.25811498 0.03001909
v 7.12164544 -2.35547876 0.04387090
v 7.12164544 -2.45298259 0.04467975
v 7.12164544 -2.64798996 0.04589307
v 6.82934999 -2.45298259 0.05741940
v 6.73186839 -2.64798996 0.06287922
v 6.82934999 -2.64798996 0.05863268
v 6.63438678 -2.74549364 0.06732800
v 6.73186839 -2.84271765 0.06328366
v 6.92668252 -2.84271765 0.05489171
v 6.82934999 -2.94022133 0.05913824
v 7.21912704 -2.94022133 0.04215206
v 7.21912704 -3.03772502 0.04194986
v 7.21912704 -3.13522885 0.04154542
v 7.41408995 -3.23273253 0.03234458
v 7.41408995 -3.33009631 0.03143458
v 7.21912704 -3.42760006 0.03881549
v 7.12164544 -3.49460764 0.04215206
v 6.09369938 -3.49460764 -0.94415846
v 6.09369938 -2.06562572 -0.94415846
v 7.21912704 -2.06562572 0.03638888
v 6.92668252 -2.16061130 0.05034181
v 7.12164544 -2.25811498 0.04285982
v 6.73186839 -2.25811498 0.05984601
v 6.63438678 -2.35547876 0.06490139
v 6.63438678 -2.45298259 0.06571027
v 6.63438678 -2.55048627 0.06641803
v 6.43942387 -2.64798996 0.07531555
v 6.53690547 -2.74549364 0.07147345
v 6.92668252 -3.13522885 0.05418394
v 6.92668252 -3.03772502 0.05468947
v 7.02416412 -3.03772502 0.05054405
v 6.73186839 -2.94022133 0.06298034
v 7.02416412 -3.13522885 0.05013961
v 7.02416412 -3.23273253 0.04953297
v 7.12164544 -3.33009631 0.04427535
v 7.12164544 -3.42760006 0.04306202
v 7.02416412 -3.33009631 0.04831964
v 7.02416412 -3.42760006 0.04629748
v 7.02416412 -3.49460764 0.04467975
v 6.09369938 -3.49460764 0.02314370
v 6.09369938 -2.06562572 -0.02043391
v 6.92668252 -2.06562572 0.04912853
v 6.63438678 -2.06562572 0.06176706
v 6.73186839 -2.16061130 0.05873380
v 6.43942387 -2.25811498 0.07228230
v 6.30190805 -2.45298259 0.07976433
v 6.30175927 -2.35547876 0.07895544
v 6.30175927 -2.49299124 0.08006765
v 6.30190805 -2.55048627 0.08047205
v 6.24431190 -2.55048627 0.08289866
v 6.14683059 -2.55048627 0.08684188
v 6.09369938 -2.55048627 0.08876292
v 6.92668252 -3.49460764 0.04478087
v 6.09369938 -2.64798996 0.08633635
v 6.14683059 -3.49460764 0.02607584
v 6.09369938 -3.42760006 0.03194014
v 6.09369938 -2.17180241 0.03608556
v 6.43689386 -2.06562572 0.06692356
v 6.53690547 -2.06562572 0.06581139
v 6.43942387 -2.16061130 0.07117010
v 6.09369938 -2.35547876 0.08754964
v 6.24431190 -2.35547876 0.08138205
v 6.24431190 -2.45298259 0.08219090
v 6.14683059 -2.45298259 0.08623523
v 6.09369938 -2.45298259 0.08835852
v 6.86000831 -3.49460764 0.04437643
v 6.09369938 -2.74549364 0.08148314
v 6.09369938 -2.79823243 0.07875324
v 6.09369938 -2.84271765 0.07642775
v 6.09369938 -2.94022133 0.07106901
v 6.24431190 -3.49460764 0.03082793
v 6.09369938 -3.33009631 0.04255650
v 6.34194227 -3.49460764 0.03507447
v 6.09369938 -2.25811498 0.07571999
v 6.43942387 -2.06562572 0.06712580
v 6.53437546 -2.06562572 0.06591247
v 6.82934999 -3.49460764 0.04417423
v 6.09369938 -3.03772502 0.06530583
v 6.73186839 -3.49460764 0.04346646
v 6.09369938 -3.23273253 0.05125181
v 6.43942387 -3.49460764 0.03830996
v 6.09369938 -3.13522885 0.05883492
v 6.63438678 -3.49460764 0.04235426
v 6.53690547 -3.49460764 0.04073653
f 1 2 12
f 1 12 25
f 1 25 40
f 1 40 57
f 1 57 79
f 1 79 101
f 1 101 118
f 1 118 135
f 1 135 136
f 1 136 119
f 1 119 103
f 1 103 102
f 1 102 80
f 1 80 58
f 1 58 41
f 1 41 26
f 1 26 13
f 1 13 3
f 1 3 4
f 1 4 5
f 1 5 6
f 1 6 7
f 1 7 8
f 1 8 9
f 1 9 18
f 1 18 10
f 1 10 11
f 1 11 2
f 2 11 24
f 2 24 12
f 3 13 4
f 4 13 5
f 5 13 14
f 5 14 15
f 5 15 6
f 6 15 7
f 7 15 16
f 7 16 8
f 8 16 17
f 8 17 9
f 9 17 32
f 9 32 18
f 10 18 19
f 10 19 20
f 10 20 21
f 10 21 22
f 10 22 23
f 10 23 38
f 10 38 54
f 10 54 77
f 10 77 99
f 10 99 113
f 10 113 126
f 10 126 137
f 10 137 139
f 10 139 143
f 10 143 144
f 10 144 141
f 10 141 133
f 10 133 131
f 10 131 115
f 10 115 100
f 10 100 78
f 10 78 56
f 10 56 55
f 10 55 39
f 10 39 24
f 10 24 11
f 12 24 39
f 12 39 25
f 13 26 27
f 13 27 14
f 14 27 28
f 14 28 29
f 14 29 15
f 15 29 30
f 15 30 16
f 16 30 17
f 17 30 31
f 17 31 48
f 17 48 32
f 18 32 19
f 19 32 33
f 19 33 34
f 19 34 35
f 19 35 20
f 20 35 21
f 21 35 22
f 22 35 36
f 22 36 37
f 22 37 23
f 23 37 38
f 25 39 40
f 26 41 42
f 26 42 43
f 26 43 27
f 27 43 28
f 28 43 62
f 28 62 44
f 28 44 45
f 28 45 29
f 29 45 30
f 30 45 46
f 30 46 47
f 30 47 31
f 31 47 71
f 31 71 48
f 32 48 33
f 33 48 49
f 33 49 34
f 34 49 35
f 35 49 50
f 35 50 51
f 35 51 36
f 36 51 37
f 37 51 38
f 38 51 52
f 38 52 53
f 38 53 54
f 39 55 40
f 40 55 56
f 40 56 57
f 41 58 59
f 41 59 42
f 42 59 60
f 42 60 61
f 42 61 62
f 42 62 43
f 44 63 45
f 44 62 64
f 44 64 65
f 44 65 66
f 44 66 63
f 45 63 46
f 46 63 66
f 46 66 65
f 46 65 67
f 46 67 68
f 46 68 69
f 46 69 47
f 47 69 70
f 47 70 71
f 48 71 72
f 48 72 49
f 49 72 73
f 49 73 50
f 50 73 74
f 50 74 51
f 51 74 75
f 51 75 52
f 52 75 53
f 53 75 76
f 53 76 54
f 54 76 77
f 56 78 79
f 56 79 57
f 58 80 59
f 59 80 81
f 59 81 82
f 59 82 60
f 60 82 61
f 61 64 62
f 61 82 83
f 61 83 64
f 64 83 84
f 64 84 85
f 64 85 86
f 64 86 65
f 65 86 87
f 65 87 88
f 65 88 67
f 67 88 68
f 68 88 70
f 68 70 69
f 70 89 90
f 70 90 91
f 70 91 71
f 70 88 92
f 70 92 89
f 71 91 72
f 72 91 93
f 72 93 73
f 73 93 94
f 73 94 74
f 74 94 75
f 75 94 95
f 75 95 76
f 76 95 96
f 76 96 77
f 77 96 97
f 77 97 98
f 77 98 99
f 78 100 116
f 78 116 132
f 78 132 140
f 78 140 142
f 78 142 138
f 78 138 130
f 78 130 129
f 78 129 128
f 78 128 127
f 78 127 114
f 78 114 112
f 78 112 125
f 78 125 121
f 78 121 134
f 78 134 117
f 78 117 101
f 78 101 79
f 80 102 81
f 81 102 103
f 81 103 104
f 81 104 83
f 81 83 82
f 83 105 84
f 83 104 120
f 83 120 105
f 84 106 85
f 84 105 107
f 84 107 106
f 85 106 108
f 85 108 86
f 86 108 109
f 86 109 87
f 87 109 110
f 87 110 111
f 87 111 88
f 88 111 112
f 88 112 92
f 89 97 94
f 89 94 93
f 89 93 90
f 89 92 112
f 89 112 97
f 90 93 91
f 94 97 96
f 94 96 95
f 97 112 98
f 98 112 99
f 99 112 114
f 99 114 113
f 100 115 116
f 101 117 118
f 103 119 120
f 103 120 104
f 105 120 121
f 105 121 122
f 105 122 107
f 106 107 122
f 106 122 123
f 106 123 108
f 108 123 110
f 108 110 109
f 110 123 124
f 110 124 111
f 111 124 125
f 111 125 112
f 113 114 127
f 113 127 128
f 113 128 129
f 113 129 130
f 113 130 126
f 115 131 116
f 116 131 133
f 116 133 132
f 117 134 118
f 118 134 135
f 119 136 120
f 120 136 121
f 121 125 124
f 121 124 122
f 121 136 135
f 121 135 134
f 122 124 123
f 126 130 137
f 130 138 139
f 130 139 137
f 132 133 141
f 132 141 140
f 138 142 143
f 138 143 139
f 140 141 144
f 140 144 142
f 142 144 143

