# https://github.com/mikedh/trimesh
v 3.05979467 -7.95633227 -0.06201783
v 3.05979467 -7.95633227 -0.13511424
v 3.05940167 -7.95633227 -0.05467119
v 3.05979467 -8.06632913 -0.05467119
v 3.05979467 -8.19348255 -0.13511424
v -0.95542732 -7.95633227 -0.13511424
v -0.89293502 -7.95633227 -0.05467119
v 3.05979467 -8.19348255 -0.05467119
v -0.95542732 -8.19348255 -0.13511424
v -0.95542732 -7.95633227 -0.05707282
v -0.95542732 -7.99503335 -0.05815947
v -0.95542732 -8.01037907 -0.05859255
v -0.87289045 -8.01037907 -0.05543498
v -0.87289045 -7.98340202 -0.05467119
v -0.70310043 -8.19348255 -0.05467119
v -0.95542732 -8.19348255 -0.06384466
v -0.95542732 -8.10783917 -0.06136428
v -0.87289045 -8.10783917 -0.05820671
v -0.85205959 -8.01037907 -0.05467119
v -0.77541844 -8.10783917 -0.05467119
v -0.77541844 -8.19348255 -0.05715157
v -0.95542732 -8.19002329 -0.06374229
v -0.87289045 -8.19348255 -0.06067922
f 1 2 6
f 1 6 10
f 1 10 7
f 1 7 3
f 1 3 4
f 1 4 8
f 1 8 5
f 1 5 2
f 2 5 9
f 2 9 6
f 3 7 14
f 3 14 19
f 3 19 20
f 3 20 15
f 3 15 8
f 3 8 4
f 5 8 15
f 5 15 21
f 5 21 23
f 5 23 16
f 5 16 9
f 6 9 16
f 6 16 22
f 6 22 17
f 6 17 12
f 6 12 11
f 6 11 10
f 7 10 11
f 7 11 12
f 7 12 13
f 7 13 14
f 12 17 18
f 12 18 13
f 13 18 19
f 13 19 14
f 15 20 21
f 16 23 22
f 17 22 23
f 17 23 18
f 18 23 20
f 18 20 19
f 20 23 21

