# https://github.com/mikedh/trimesh
v 5.75864559 -4.37317745 -0.94415853
v 5.75864559 -4.09590708 -0.94415853
v 5.93417936 -4.37317745 -0.94408371
v 5.75864559 -4.37317745 -0.28070219
v 5.75864559 -4.09558095 -0.38367685
v 5.83948813 -4.09558095 -0.94408371
v 5.93417936 -4.09558095 -0.94408371
v 5.93417936 -4.37317745 -0.17907557
v 5.75864559 -4.09558095 -0.37027142
v 5.93417936 -4.09558095 -0.31492721
f 1 2 7
f 1 7 3
f 1 3 8
f 1 8 4
f 1 4 9
f 1 9 5
f 1 5 2
f 2 5 6
f 2 6 7
f 3 7 10
f 3 10 8
f 4 8 9
f 5 9 10
f 5 10 7
f 5 7 6
f 8 10 9

