# https://github.com/mikedh/trimesh
v 2.56763658 -0.50795120 -0.16144311
v 2.56763658 -0.50795120 0.13301961
v 2.56763658 -0.37048536 -0.16144311
v 3.40876101 -0.50795120 -0.16144311
v 2.56763658 -0.50285107 0.13290421
v 2.63679716 -0.50795120 0.13322159
v 2.56763658 -0.37048536 -0.03676173
v 3.40876101 -0.37048536 -0.16144311
v 3.40876101 -0.50795120 0.13010531
v 2.56763658 -0.42906480 0.12061208
v 2.63679716 -0.50285107 0.13307732
v 2.73428065 -0.50795120 0.13333702
v 2.56763658 -0.38725285 0.06070963
v 2.63679716 -0.38710495 0.06070963
v 2.73428065 -0.38702417 0.06070963
v 3.40876101 -0.37048536 -0.03676173
v 3.37648609 -0.50795120 0.13042269
v 3.40876101 -0.50285107 0.12998988
v 2.63679716 -0.42891661 0.12069864
v 2.73428065 -0.50285107 0.13319275
v 2.82665943 -0.50795120 0.13330815
v 2.83176414 -0.50285107 0.13316388
v 2.73428065 -0.42883583 0.12075635
v 2.83176414 -0.38703754 0.06070963
v 3.02673110 -0.38742806 0.06070963
v 3.12421459 -0.38780465 0.06070963
v 3.40876101 -0.37200592 -0.02879783
v 2.92924763 -0.38717236 0.06070963
v 3.31918161 -0.50795120 0.13097093
v 3.31918161 -0.50285107 0.13085550
v 3.40876101 -0.43739465 0.12006385
v 2.92924763 -0.50795120 0.13313504
v 2.92924763 -0.50285107 0.13301961
v 2.83176414 -0.42884949 0.12072750
v 2.92924763 -0.42898402 0.12066980
v 3.02673110 -0.42923972 0.12049665
v 3.22169808 -0.38830269 0.06070963
v 3.40876101 -0.38968872 0.06070963
v 3.31918161 -0.38894863 0.06070963
v 3.22169808 -0.50795120 0.13175002
v 3.22169808 -0.50285107 0.13160575
v 3.40876101 -0.43150038 0.11914048
v 3.02162639 -0.50795120 0.13284650
v 3.02673110 -0.50285107 0.13270223
v 3.12421459 -0.42961660 0.12026583
v 3.40876101 -0.39310702 0.06552835
v 3.22169808 -0.43011435 0.11994842
v 3.12421459 -0.50795120 0.13235594
v 3.12421459 -0.50285107 0.13221167
v 3.31918161 -0.43077366 0.11957330
f 1 2 5
f 1 5 10
f 1 10 13
f 1 13 7
f 1 7 3
f 1 3 8
f 1 8 4
f 1 4 9
f 1 9 17
f 1 17 29
f 1 29 40
f 1 40 48
f 1 48 43
f 1 43 32
f 1 32 21
f 1 21 12
f 1 12 6
f 1 6 2
f 2 6 5
f 3 7 16
f 3 16 8
f 4 8 16
f 4 16 27
f 4 27 38
f 4 38 46
f 4 46 42
f 4 42 31
f 4 31 18
f 4 18 9
f 5 6 11
f 5 11 10
f 6 12 20
f 6 20 11
f 7 13 14
f 7 14 15
f 7 15 16
f 9 18 17
f 10 11 19
f 10 19 13
f 11 20 19
f 12 21 22
f 12 22 20
f 13 19 14
f 14 19 23
f 14 23 15
f 15 23 24
f 15 24 16
f 16 25 26
f 16 26 27
f 16 24 28
f 16 28 25
f 17 18 30
f 17 30 29
f 18 31 30
f 19 20 23
f 20 22 23
f 21 32 33
f 21 33 22
f 22 34 23
f 22 33 35
f 22 35 34
f 23 34 24
f 24 34 28
f 25 36 26
f 25 28 35
f 25 35 36
f 26 36 37
f 26 37 27
f 27 37 39
f 27 39 38
f 28 34 35
f 29 30 40
f 30 41 40
f 30 31 41
f 31 42 41
f 32 43 33
f 33 43 44
f 33 44 45
f 33 45 36
f 33 36 35
f 36 45 37
f 37 45 39
f 38 39 47
f 38 47 46
f 39 45 47
f 40 41 49
f 40 49 48
f 41 42 49
f 42 46 50
f 42 50 49
f 43 48 44
f 44 48 49
f 44 49 50
f 44 50 47
f 44 47 45
f 46 47 50

