# https://github.com/mikedh/trimesh
v 3.90297539 -6.76343655 0.03166130
v 3.90297539 -6.97935629 0.03166130
v 3.90297539 -6.76343655 -0.05465429
v 1.40655663 -6.76343655 0.03166130
v 3.90297539 -7.42532152 0.01995705
v 3.51394853 -7.14132279 0.03166130
v 3.90297539 -7.84834589 -0.05465429
v 1.40655663 -6.76343655 -0.05465429
v 1.40655663 -7.65154336 0.03166130
v 3.90297539 -7.42659597 0.01992325
v 3.50026415 -7.14673935 0.03166130
v 3.90297539 -7.84834589 0.00604719
v 2.14697836 -7.84834589 -0.05465429
v 1.40655663 -7.84823954 -0.05465429
v 1.40655663 -7.84823954 0.00632605
v 1.66558202 -7.71165674 0.03166130
v 3.90297539 -7.52430683 0.01688099
v 3.41644738 -7.17945115 0.03166130
v 3.41644738 -7.71781688 0.01668663
v 3.41644738 -7.84834589 0.01304438
v 3.48315865 -7.84834589 0.01233451
v 3.53129833 -7.84834589 0.01178522
v 3.61144960 -7.84834589 0.01072042
v 3.87096373 -7.84834589 0.00661339
v 2.14697836 -7.84834589 0.01367817
v 2.14942197 -7.84834589 0.01370353
v 2.01942053 -7.84823954 0.01252042
v 1.75477474 -7.72790643 0.03166130
v 1.75379726 -7.72780037 0.03166130
v 3.70601828 -7.84834589 0.00933451
v 3.77346266 -7.84834589 0.00826126
v 3.80669611 -7.84834589 0.00772888
v 3.31894631 -7.21322499 0.03166130
v 3.31894631 -7.71781688 0.01763310
v 3.31894631 -7.81531533 0.01492043
v 3.31894631 -7.84834589 0.01399085
v 2.24692308 -7.84834589 0.01445564
v 1.76894779 -7.72610111 0.03166130
v 2.30679216 -7.84834589 0.01484437
v 2.34540163 -7.84834589 0.01508945
v 2.44192525 -7.84834589 0.01560494
v 2.53942634 -7.84834589 0.01598523
v 2.60393833 -7.84834589 0.01615423
v 2.63692743 -7.84834589 0.01623874
v 2.73418415 -7.84834589 0.01635705
v 2.83168525 -7.84834589 0.01630635
v 2.92918634 -7.84834589 0.01616268
v 3.02644307 -7.84834589 0.01584156
v 3.09095506 -7.84834589 0.01552888
v 3.12638778 -7.84834589 0.01535142
v 3.22168958 -7.84834589 0.01476831
v 1.85667436 -7.71463046 0.03166130
f 1 2 5
f 1 5 10
f 1 10 17
f 1 17 12
f 1 12 7
f 1 7 3
f 1 3 8
f 1 8 4
f 1 4 9
f 1 9 16
f 1 16 29
f 1 29 28
f 1 28 38
f 1 38 52
f 1 52 33
f 1 33 18
f 1 18 11
f 1 11 6
f 1 6 2
f 2 6 5
f 3 7 13
f 3 13 14
f 3 14 8
f 4 8 14
f 4 14 15
f 4 15 9
f 5 6 10
f 6 11 10
f 7 12 24
f 7 24 32
f 7 32 31
f 7 31 30
f 7 30 23
f 7 23 22
f 7 22 21
f 7 21 20
f 7 20 36
f 7 36 51
f 7 51 50
f 7 50 49
f 7 49 48
f 7 48 47
f 7 47 46
f 7 46 45
f 7 45 44
f 7 44 43
f 7 43 42
f 7 42 41
f 7 41 40
f 7 40 39
f 7 39 37
f 7 37 26
f 7 26 25
f 7 25 13
f 9 15 16
f 10 11 18
f 10 18 19
f 10 19 20
f 10 20 21
f 10 21 22
f 10 22 23
f 10 23 17
f 12 17 24
f 13 25 15
f 13 15 14
f 15 25 26
f 15 26 27
f 15 27 28
f 15 28 29
f 15 29 16
f 17 23 30
f 17 30 31
f 17 31 32
f 17 32 24
f 18 33 34
f 18 34 19
f 19 34 35
f 19 35 20
f 20 35 36
f 26 37 28
f 26 28 27
f 28 37 39
f 28 39 40
f 28 40 41
f 28 41 42
f 28 42 43
f 28 43 44
f 28 44 45
f 28 45 46
f 28 46 47
f 28 47 48
f 28 48 49
f 28 49 50
f 28 50 51
f 28 51 38
f 33 52 34
f 34 52 35
f 35 52 36
f 36 52 51
f 38 51 52

