# https://github.com/mikedh/trimesh
v 5.75868045 -5.28027199 0.03428477
v 5.85425328 -5.28027199 0.03102839
v 6.11589855 -5.21363460 0.02365366
v 6.11589855 -5.18284276 0.02422834
v 6.11589855 -5.11608784 0.02403678
v 5.75868045 -5.18284276 0.03342278
v 5.75868045 -5.37593838 0.03112417
v 5.95171454 -5.28027199 0.02767624
v 6.04921067 -5.28027199 0.02394100
v 6.11589855 -5.28027199 0.02125927
v 6.11589855 -5.08529600 0.02336636
v 6.11589855 -5.01865861 0.02087618
v 5.75868045 -5.08529600 0.02911287
v 5.75868045 -5.57373495 0.02260015
v 5.85428815 -5.57385249 0.01886488
v 5.96182095 -5.57385249 0.01465077
v 6.01466042 -5.57385249 0.01254369
v 6.11589855 -5.57385249 0.00842536
v 6.11589855 -4.98774920 0.01943956
v 6.11589855 -4.91641078 0.01589584
v 5.75868045 -5.08341556 0.02901709
v 5.75868045 -5.57385249 -0.93486834
v 5.85327405 -5.57385249 0.01886488
v 6.11589855 -5.57385249 -0.16703551
v 6.11589855 -4.89067255 0.01436343
v 5.75868045 -4.98774920 0.02327058
v 5.75868045 -5.57385249 -0.94415861
v 6.05022477 -5.57385249 -0.94406279
v 6.11589855 -5.57349988 -0.94406279
v 5.75868045 -4.98622137 0.02317480
v 6.11589855 -4.84695281 0.01158596
v 5.75868045 -4.37320459 -0.94415861
v 6.11589855 -4.37320459 -0.94406279
v 6.11589855 -4.81604340 0.00957465
v 6.11589855 -4.72625336 0.00229570
v 5.75868045 -4.88890964 0.01512964
v 5.75868045 -4.37320459 -0.28062535
v 6.11589855 -4.37320459 -0.04856113
v 6.11589855 -4.62870660 -0.00766495
v 5.75868045 -4.87363126 0.01359723
v 6.01371635 -4.37320459 -0.09740668
v 5.75868045 -4.44289764 -0.16837638
v 6.11589855 -4.43373058 -0.03582297
v 6.07841061 -4.37320459 -0.06053308
v 5.75868045 -4.52822168 -0.07116415
v 5.75868045 -4.59650440 -0.04070753
v 5.75868045 -4.59791473 -0.04013288
v 5.75868045 -4.69346355 -0.01350724
v 5.75868045 -4.69546149 -0.01302838
v 6.11589855 -4.53127738 -0.02011577
v 5.75868045 -4.80135262 0.00516899
v 5.75868045 -4.82097950 0.00756338
v 6.05826782 -4.37320459 -0.06896132
v 5.75868045 -4.47862561 -0.12058435
v 5.75868045 -4.79206805 0.00363658
v 5.75868045 -4.52716396 -0.07202614
v 5.75868045 -4.47944830 -0.11962662
f 1 2 3
f 1 3 4
f 1 4 5
f 1 5 6
f 1 6 13
f 1 13 21
f 1 21 26
f 1 26 30
f 1 30 36
f 1 36 40
f 1 40 52
f 1 52 51
f 1 51 55
f 1 55 49
f 1 49 48
f 1 48 47
f 1 47 46
f 1 46 45
f 1 45 56
f 1 56 57
f 1 57 54
f 1 54 42
f 1 42 37
f 1 37 32
f 1 32 27
f 1 27 22
f 1 22 14
f 1 14 7
f 1 7 2
f 2 7 8
f 2 8 3
f 3 8 9
f 3 9 10
f 3 10 18
f 3 18 24
f 3 24 29
f 3 29 33
f 3 33 38
f 3 38 43
f 3 43 50
f 3 50 39
f 3 39 35
f 3 35 34
f 3 34 31
f 3 31 25
f 3 25 20
f 3 20 19
f 3 19 12
f 3 12 11
f 3 11 5
f 3 5 4
f 5 11 6
f 6 11 12
f 6 12 13
f 7 14 9
f 7 9 8
f 9 14 15
f 9 15 16
f 9 16 17
f 9 17 10
f 10 17 18
f 12 19 13
f 13 19 20
f 13 20 21
f 14 22 23
f 14 23 15
f 15 23 22
f 15 22 27
f 15 27 28
f 15 28 24
f 15 24 18
f 15 18 17
f 15 17 16
f 20 25 21
f 21 25 26
f 24 28 29
f 25 30 26
f 25 31 30
f 27 32 33
f 27 33 29
f 27 29 28
f 30 31 34
f 30 34 35
f 30 35 36
f 32 37 41
f 32 41 53
f 32 53 44
f 32 44 38
f 32 38 33
f 35 39 40
f 35 40 36
f 37 42 41
f 38 44 45
f 38 45 46
f 38 46 47
f 38 47 48
f 38 48 49
f 38 49 43
f 39 50 51
f 39 51 52
f 39 52 40
f 41 42 54
f 41 54 53
f 43 49 55
f 43 55 51
f 43 51 50
f 44 53 45
f 45 53 56
f 53 54 57
f 53 57 56

