# https://github.com/mikedh/trimesh
v 2.44238948 -4.39592715 0.10269799
v 2.44238948 -4.30469751 0.10085347
v 2.24735937 -4.39535465 0.10126336
v 2.24735937 -4.39592715 0.10126336
v 2.44238948 -4.39592715 -0.94405727
v 2.44238948 -4.23788447 0.09941888
v 2.44172125 -4.23788447 0.09941888
v 2.24735937 -4.30536285 0.09921391
v 2.24735937 -4.39592715 -0.94415970
v 2.44238948 -4.23833319 -0.94405727
v 2.44238948 -4.23788447 -0.86341145
v 2.24735937 -4.23788447 0.09747190
v 2.24735937 -4.23788447 -0.94415970
v 2.44172125 -4.23788447 -0.94405727
f 1 2 3
f 1 3 4
f 1 4 9
f 1 9 5
f 1 5 10
f 1 10 11
f 1 11 6
f 1 6 2
f 2 6 7
f 2 7 3
f 3 7 8
f 3 8 12
f 3 12 13
f 3 13 9
f 3 9 4
f 5 9 13
f 5 13 10
f 6 11 14
f 6 14 13
f 6 13 12
f 6 12 7
f 7 12 8
f 10 13 14
f 10 14 11

