# https://github.com/mikedh/trimesh
v 2.37319276 -5.95473308 0.08945342
v 2.37319276 -5.94252525 0.08945342
v 2.53927903 -5.96292563 0.08945167
v 2.43929746 -6.25777797 0.08945385
v 2.43847296 -6.25534457 0.08945385
v 2.44177101 -6.25534457 0.08972641
v 2.44177101 -6.15780398 0.09083985
v 2.53927903 -6.15776345 0.09392073
v 2.44635963 -5.94252525 0.08945385
v 2.44632378 -5.94252525 0.08945342
v 2.53927903 -6.06046622 0.09215278
v 2.63667951 -5.97010423 0.08945385
v 2.68163356 -6.01552858 0.08945385
v 2.70755205 -6.06046622 0.08945385
v 2.71669343 -6.07794648 0.08945385
v 2.73418752 -6.13071157 0.08945385
v 2.73909876 -6.15285597 0.08945385
v 2.73942141 -6.15776345 0.08945385
v 2.73418752 -6.19134493 0.08945385
v 2.71801982 -6.25530404 0.08945385
v 2.63732478 -6.35276341 0.08945385
v 2.63667951 -6.35316905 0.08945385
v 2.53927903 -6.35685976 0.08945385
v 2.53662624 -6.35544031 0.08945385
v 2.53193007 -6.35276341 0.08945385
v 2.44177101 -6.26309109 0.08945385
v 2.51049266 -5.94252525 0.08945385
v 2.53927903 -6.35276341 0.08971154
v 2.53927903 -6.25530404 0.09311659
v 2.63667951 -6.25530404 0.09284404
v 2.63667951 -6.15776345 0.09363505
v 2.63667951 -6.06046622 0.09188504
v 2.73418752 -6.15776345 0.08980822
v 2.63667951 -6.35276341 0.08947966
f 1 2 3
f 1 3 4
f 1 4 5
f 1 5 6
f 1 6 7
f 1 7 8
f 1 8 2
f 2 9 27
f 2 27 10
f 2 10 3
f 2 8 11
f 2 11 9
f 3 12 13
f 3 13 14
f 3 14 15
f 3 15 16
f 3 16 17
f 3 17 18
f 3 18 19
f 3 19 20
f 3 20 21
f 3 21 22
f 3 22 23
f 3 23 24
f 3 24 25
f 3 25 26
f 3 26 4
f 3 10 27
f 3 27 12
f 4 6 5
f 4 26 6
f 6 26 28
f 6 28 29
f 6 29 7
f 7 29 8
f 8 29 30
f 8 30 31
f 8 31 32
f 8 32 11
f 9 11 27
f 11 32 27
f 12 27 32
f 12 32 13
f 13 32 14
f 14 32 31
f 14 31 15
f 15 31 33
f 15 33 16
f 16 33 17
f 17 33 18
f 18 33 19
f 19 33 20
f 20 33 30
f 20 30 21
f 21 34 22
f 21 30 34
f 22 34 23
f 23 34 28
f 23 28 24
f 24 28 25
f 25 28 26
f 28 34 29
f 29 34 30
f 30 33 31

