# https://github.com/mikedh/trimesh
v 4.28011405 -4.09558095 -0.94415904
v 4.28011405 -4.09558095 0.12545411
v 4.28011405 -3.91684543 -0.94415904
v 4.39184868 -4.09558095 -0.94415904
v 4.28011405 -3.91684543 0.12986966
v 4.69902348 -4.09558095 0.09265295
v 4.39325011 -3.91684543 -0.94415904
v 5.58156190 -4.09558095 -0.94405385
v 4.78183712 -3.91684543 0.09002465
v 4.78183712 -4.09558095 0.08602960
v 5.58156190 -3.91684543 -0.94405385
v 5.58156190 -4.09558095 -0.30401016
v 4.87930230 -3.91684543 0.08129868
v 4.79661608 -4.09558095 0.08466289
v 5.58156190 -3.91684543 -0.22694839
v 5.50460897 -3.91684543 -0.10299775
v 5.43823055 -4.09558095 -0.08092004
v 4.87930230 -4.09558095 0.07698825
v 4.97523878 -3.91684543 0.07120600
v 5.46320207 -3.91684543 -0.06105006
v 5.43109583 -4.09558095 -0.07019656
v 4.89408141 -4.09558095 0.07541128
v 4.97664022 -4.09558095 0.06626481
v 5.07270397 -3.91684543 0.05869528
v 5.45823328 -3.91684543 -0.05800123
v 5.36662851 -4.09558095 -0.02866941
v 5.37733059 -4.09558095 -0.03529272
v 4.99141932 -4.09558095 0.06426727
v 5.07423282 -4.09558095 0.05291303
v 5.07423282 -3.91684543 0.05848502
v 5.35923925 -3.91684543 -0.00659170
v 5.30381775 -4.09558095 0.00013676
v 5.17169815 -4.09558095 0.03567136
v 5.17169815 -3.91684543 0.04271521
v 5.35579916 -3.91684543 -0.00501473
v 5.29362533 -4.09558095 0.00465742
v 5.18367439 -4.09558095 0.03293795
v 5.27247600 -3.91684543 0.02126829
v 5.26827142 -3.91684543 0.02221447
v 5.31375533 -3.91684543 0.01075508
v 5.25221844 -4.09558095 0.01674760
v 5.24482889 -4.09558095 0.01885026
f 1 2 5
f 1 5 3
f 1 3 7
f 1 7 4
f 1 4 8
f 1 8 12
f 1 12 17
f 1 17 21
f 1 21 27
f 1 27 26
f 1 26 32
f 1 32 36
f 1 36 41
f 1 41 42
f 1 42 37
f 1 37 33
f 1 33 29
f 1 29 28
f 1 28 23
f 1 23 22
f 1 22 18
f 1 18 14
f 1 14 10
f 1 10 6
f 1 6 2
f 2 6 5
f 3 5 9
f 3 9 13
f 3 13 19
f 3 19 24
f 3 24 30
f 3 30 34
f 3 34 39
f 3 39 38
f 3 38 40
f 3 40 35
f 3 35 31
f 3 31 25
f 3 25 20
f 3 20 16
f 3 16 15
f 3 15 11
f 3 11 7
f 4 7 8
f 5 6 9
f 6 10 9
f 7 11 8
f 8 11 15
f 8 15 12
f 9 10 13
f 10 14 13
f 12 15 16
f 12 16 17
f 13 14 18
f 13 18 19
f 16 20 21
f 16 21 17
f 18 22 19
f 19 22 23
f 19 23 24
f 20 25 26
f 20 26 27
f 20 27 21
f 23 28 24
f 24 28 29
f 24 29 30
f 25 31 26
f 26 31 32
f 29 33 34
f 29 34 30
f 31 35 32
f 32 35 36
f 33 37 38
f 33 38 39
f 33 39 34
f 35 40 36
f 36 40 41
f 37 42 38
f 38 42 40
f 40 42 41

