# https://github.com/mikedh/trimesh
v 5.55893123 -5.78869653 -0.94407165
v 5.55893123 -5.78869653 -0.05467121
v 5.55893123 -5.68139677 -0.94407165
v 7.41414748 -5.78869653 -0.94407165
v 5.55893123 -5.68139677 -0.05467121
v 7.38397151 -5.78869653 -0.05467121
v 7.41414748 -5.68139677 -0.94407165
v 7.43506929 -5.78869653 -0.94346218
v 7.48194273 -5.68139677 -0.05467121
v 7.51171625 -5.78869653 -0.06033062
v 7.42521191 -5.68139677 -0.94372340
v 7.51171625 -5.68139677 -0.94085007
v 7.51171625 -5.78869653 -0.94085007
v 7.49904235 -5.68139677 -0.05545482
v 7.57609175 -5.78869653 -0.07400032
v 7.51171625 -5.68139677 -0.05606429
v 7.52781020 -5.78869653 -0.93249161
v 7.58715618 -5.68139677 -0.90158238
v 7.60284768 -5.78869653 -0.13433850
v 7.57810368 -5.68139677 -0.07191067
v 7.58715618 -5.78869653 -0.90158238
v 7.59299029 -5.78869653 -0.88338512
v 7.61391211 -5.68139677 -0.81677810
v 7.60506068 -5.68139677 -0.13433850
v 7.61391211 -5.78869653 -0.23185475
v 7.61391211 -5.78869653 -0.81677810
v 7.61391211 -5.68139677 -0.23185475
f 1 2 5
f 1 5 3
f 1 3 7
f 1 7 4
f 1 4 8
f 1 8 13
f 1 13 17
f 1 17 21
f 1 21 22
f 1 22 26
f 1 26 25
f 1 25 19
f 1 19 15
f 1 15 10
f 1 10 6
f 1 6 2
f 2 6 9
f 2 9 5
f 3 5 9
f 3 9 14
f 3 14 16
f 3 16 20
f 3 20 24
f 3 24 27
f 3 27 23
f 3 23 18
f 3 18 12
f 3 12 11
f 3 11 7
f 4 7 8
f 6 10 9
f 7 11 8
f 8 11 12
f 8 12 13
f 9 10 14
f 10 15 16
f 10 16 14
f 12 17 13
f 12 18 17
f 15 19 20
f 15 20 16
f 17 18 21
f 18 22 21
f 18 23 22
f 19 24 20
f 19 25 24
f 22 23 26
f 23 27 25
f 23 25 26
f 24 25 27

