# https://github.com/mikedh/trimesh
v -1.11313243 -7.95633227 -0.94416057
v -1.11313243 -7.95633227 -0.06363923
v -1.11313243 -7.59972641 -0.94416057
v -0.67770380 -7.95633227 -0.94416057
v -1.11313243 -7.86018324 -0.06094010
v -1.06820089 -7.95633227 -0.06172374
v -1.06820089 -7.70868505 -0.05475828
v -1.11313243 -7.59972641 -0.05475828
v -1.11272388 -7.14855311 -0.94416057
v -0.67770380 -7.59972641 -0.94416057
v 1.51006035 -7.59972641 -0.94407354
v 1.50965195 -7.95633227 -0.94407354
v -1.11313243 -7.63878722 -0.05475828
v -0.97057661 -7.95633227 -0.05780566
v -0.97057661 -7.85029941 -0.05475828
v -1.06452456 -7.71414084 -0.05475828
v -0.74101667 -7.95633227 -0.05467121
v -1.11272388 -7.14855311 -0.05475828
v -0.74101667 -7.59972641 -0.05467121
v -0.95464626 -7.14855311 -0.94416057
v 1.51006035 -7.14855311 -0.94407354
v 3.05979467 -7.95633227 -0.94398644
v -0.89296728 -7.95633227 -0.05475828
v 1.43040886 -7.95633227 -0.05467121
v 0.07102141 -7.14855311 -0.05467121
v 3.05979467 -7.14855311 -0.94398644
v 3.05979467 -7.95633227 -0.06207199
v 3.05938613 -7.95633227 -0.05475828
v 3.05979467 -7.95577873 -0.05475828
v 1.51006035 -7.59972641 -0.05467121
v 1.51006035 -7.14855311 -0.05467121
v 3.05979467 -7.14855311 -0.05475828
f 1 2 5
f 1 5 13
f 1 13 8
f 1 8 3
f 1 3 9
f 1 9 20
f 1 20 10
f 1 10 4
f 1 4 12
f 1 12 22
f 1 22 27
f 1 27 28
f 1 28 24
f 1 24 17
f 1 17 23
f 1 23 14
f 1 14 6
f 1 6 2
f 2 6 7
f 2 7 5
f 3 8 18
f 3 18 9
f 4 10 21
f 4 21 11
f 4 11 12
f 5 7 13
f 6 14 15
f 6 15 16
f 6 16 7
f 7 16 17
f 7 17 13
f 8 13 17
f 8 17 19
f 8 19 18
f 9 18 25
f 9 25 31
f 9 31 32
f 9 32 26
f 9 26 21
f 9 21 20
f 10 20 21
f 11 21 26
f 11 26 22
f 11 22 12
f 14 23 15
f 15 23 17
f 15 17 16
f 17 24 30
f 17 30 31
f 17 31 25
f 17 25 19
f 18 19 25
f 22 26 32
f 22 32 29
f 22 29 27
f 24 28 29
f 24 29 30
f 27 29 28
f 29 32 31
f 29 31 30

