# https://github.com/mikedh/trimesh
v 2.44240858 -4.39594262 -0.94415955
v 2.44240858 -4.29690591 -0.94415955
v 2.63700683 -4.39594262 -0.94415955
v 2.44240858 -4.39594262 0.10267928
v 2.44240858 -4.29690591 0.10066798
v 2.63700683 -4.29690591 -0.94415955
v 5.31471335 -4.39594262 -0.94405364
v 3.13142228 -4.39594262 0.12363938
v 3.23041849 -4.29690591 0.12861474
v 3.13283650 -4.29690591 0.12543897
v 3.03525450 -4.29690591 0.12194563
v 5.31471335 -4.29690591 -0.94405364
v 5.33196697 -4.39594262 0.00433635
v 3.22872147 -4.39594262 0.12649756
v 3.32771769 -4.29690591 0.13147293
v 5.31471335 -4.29690591 0.00052546
v 5.28925715 -4.39594262 0.01513396
v 5.33140123 -4.39345120 0.00433635
v 5.30849074 -4.38023790 0.00973516
v 3.32630340 -4.39594262 0.12903818
v 3.42897666 -4.29690591 0.13411939
v 3.41681430 -4.29690591 0.13380183
v 5.29830849 -4.29690591 0.00677110
v 5.24937606 -4.29690591 0.01915661
v 5.27030659 -4.39594262 0.01947417
v 3.42388539 -4.39594262 0.13136705
v 3.51439630 -4.29690591 0.13602486
v 5.17159325 -4.29690591 0.03535302
v 5.17159325 -4.39594262 0.03778777
v 3.51439630 -4.39594262 0.13327252
v 3.61226109 -4.29690591 0.13729517
v 5.07401111 -4.29690591 0.05133771
v 5.07401111 -4.39594262 0.05229046
v 3.61226109 -4.39594262 0.13390767
v 3.61876658 -4.39594262 0.13390767
v 3.70927741 -4.29690591 0.13666001
v 4.97671199 -4.29690591 0.06393495
v 4.97671199 -4.39594262 0.06404079
v 3.70927741 -4.39594262 0.13295496
v 3.71776279 -4.29690591 0.13655413
v 4.87912999 -4.29690591 0.07430912
v 4.87912999 -4.39594262 0.07377980
v 3.80685941 -4.39594262 0.13136705
v 3.81534478 -4.29690591 0.13496626
v 4.78154800 -4.29690591 0.08309538
v 4.78154800 -4.39594262 0.08224854
v 3.90387573 -4.30537870 0.13306080
v 3.91094689 -4.39594262 0.12946162
v 3.90387573 -4.29690591 0.13337839
v 4.69641123 -4.29690591 0.08976449
v 4.29392090 -4.29690591 0.12078116
v 4.29392090 -4.30537870 0.12067532
v 4.68396601 -4.39594262 0.08965865
v 4.00117492 -4.30537870 0.13115533
v 4.00117492 -4.39594262 0.12766199
v 4.00117492 -4.29690591 0.13147293
v 4.19662178 -4.29690591 0.12702684
v 4.29392090 -4.39594262 0.11866398
v 4.09875692 -4.30537870 0.12914402
v 4.09875692 -4.39594262 0.12565069
v 4.09875692 -4.29690591 0.12946162
v 4.19662178 -4.30537870 0.12681512
v 4.19662178 -4.39594262 0.12353350
f 1 2 6
f 1 6 3
f 1 3 7
f 1 7 13
f 1 13 17
f 1 17 25
f 1 25 29
f 1 29 33
f 1 33 38
f 1 38 42
f 1 42 46
f 1 46 53
f 1 53 58
f 1 58 63
f 1 63 60
f 1 60 55
f 1 55 48
f 1 48 43
f 1 43 39
f 1 39 35
f 1 35 34
f 1 34 30
f 1 30 26
f 1 26 20
f 1 20 14
f 1 14 8
f 1 8 4
f 1 4 5
f 1 5 2
f 2 5 11
f 2 11 10
f 2 10 9
f 2 9 15
f 2 15 22
f 2 22 21
f 2 21 27
f 2 27 31
f 2 31 36
f 2 36 40
f 2 40 44
f 2 44 49
f 2 49 56
f 2 56 61
f 2 61 57
f 2 57 51
f 2 51 50
f 2 50 45
f 2 45 41
f 2 41 37
f 2 37 32
f 2 32 28
f 2 28 24
f 2 24 23
f 2 23 16
f 2 16 12
f 2 12 6
f 3 6 12
f 3 12 7
f 4 8 9
f 4 9 10
f 4 10 11
f 4 11 5
f 7 12 13
f 8 14 15
f 8 15 9
f 12 16 13
f 13 16 18
f 13 18 19
f 13 19 17
f 14 20 21
f 14 21 22
f 14 22 15
f 16 23 18
f 17 24 25
f 17 19 24
f 18 23 19
f 19 23 24
f 20 26 21
f 21 26 27
f 24 28 25
f 25 28 29
f 26 30 27
f 27 30 31
f 28 32 29
f 29 32 33
f 30 34 31
f 31 34 35
f 31 35 36
f 32 37 33
f 33 37 38
f 35 39 36
f 36 39 40
f 37 41 38
f 38 41 42
f 39 43 44
f 39 44 40
f 41 45 42
f 42 45 46
f 43 47 44
f 43 48 47
f 44 47 49
f 45 50 46
f 46 50 51
f 46 51 52
f 46 52 53
f 47 48 54
f 47 54 56
f 47 56 49
f 48 55 54
f 51 57 52
f 52 57 58
f 52 58 53
f 54 55 60
f 54 60 59
f 54 59 61
f 54 61 56
f 57 61 62
f 57 62 58
f 58 62 63
f 59 60 63
f 59 63 61
f 61 63 62

