# https://github.com/mikedh/trimesh
v -0.23392644 -3.56033590 -0.94416042
v -0.23392644 -3.43381287 -0.94416042
v -0.15563309 -3.56033590 -0.94416042
v -0.23392644 -3.56033590 0.01098642
v -0.23392644 -3.43381287 0.02836833
v -0.18479671 -3.43381287 -0.94416042
v 2.05789504 -3.43402339 -0.94405313
v 2.05789504 -3.56033590 -0.94405313
v -0.19152695 -3.56033590 0.04242409
v -0.20588443 -3.43381287 0.04607212
v 2.05767064 -3.43381287 -0.94405313
v 2.05789504 -3.43381287 -0.94051235
v 2.05789504 -3.56033590 0.10508481
v -0.13319943 -3.56033590 0.07053558
v -0.19937880 -3.43381287 0.04939830
v 2.05789504 -3.43381287 0.09886165
v 2.05789504 -3.55989001 0.10637234
v 2.05654896 -3.56033590 0.10637234
v -0.09304316 -3.56033590 0.08781019
v -0.08608860 -3.43381287 0.09725220
v 2.05789504 -3.43612902 0.11356118
v 2.05767064 -3.43381287 0.11377576
v 2.05789504 -3.43741713 0.11356118
v 1.56413040 -3.56033590 0.13727352
v -0.04660559 -3.56033590 0.09939812
v -0.06769303 -3.43381287 0.10143674
v 1.56413040 -3.43381287 0.14317476
v 1.52913390 -3.56033590 0.13931218
v -0.01609575 -3.56033590 0.10562128
v -0.03336971 -3.45354377 0.10787449
v -0.01048741 -3.43381287 0.11216632
v 1.46071123 -3.43381287 0.14875419
v 1.46654404 -3.56033590 0.14285288
v 0.01508705 -3.56033590 0.10991311
v 0.00387037 -3.43381287 0.11420494
v 1.36918201 -3.43381287 0.15186571
v 1.36918201 -3.52535778 0.14886148
v 1.36918201 -3.56033590 0.14757388
v 1.43154762 -3.56033590 0.14456965
v 0.03258534 -3.56033590 0.11227361
v 0.07969588 -3.56033590 0.11742379
v 0.09741849 -3.43381287 0.12396885
v 1.36312488 -3.43381287 0.15197301
v 1.33418544 -3.56033590 0.14843231
v 0.10190522 -3.56033590 0.11956971
v 0.10190522 -3.43381287 0.12439803
v 1.27159566 -3.43381287 0.15186571
v 1.27159566 -3.52535778 0.15025630
v 1.27159566 -3.56033590 0.14929066
v 0.19926710 -3.56033590 0.12675857
v 0.19926710 -3.52535778 0.12772421
v 0.19926710 -3.43381287 0.12987009
v 1.07664728 -3.43381287 0.14843231
v 1.17423363 -3.52535778 0.14886148
v 1.17423363 -3.56033590 0.14821772
v 1.23659924 -3.56033590 0.14907607
v 0.29685360 -3.56033590 0.13040656
v 0.29685360 -3.52535778 0.13105040
v 0.29685360 -3.43381287 0.13233792
v 1.07059015 -3.43381287 0.14832501
v 1.13923706 -3.56033590 0.14757388
v 0.97906093 -3.52535778 0.14521342
v 0.35944353 -3.56033590 0.13180146
v 0.39443995 -3.43381287 0.13459110
v 0.45680556 -3.56033590 0.13394733
v 0.49180198 -3.52535778 0.13534223
v 0.97322812 -3.43381287 0.14650094
v 0.94406436 -3.56033590 0.14392589
v 0.68675037 -3.52535778 0.13941947
v 0.78433686 -3.56033590 0.14081429
v 0.88192322 -3.56033590 0.14274558
v 0.58333135 -3.43381287 0.13866834
v 0.65175394 -3.56033590 0.13813187
v 0.68091770 -3.43381287 0.14070700
f 1 2 6
f 1 6 3
f 1 3 8
f 1 8 13
f 1 13 18
f 1 18 24
f 1 24 28
f 1 28 33
f 1 33 39
f 1 39 38
f 1 38 44
f 1 44 49
f 1 49 56
f 1 56 55
f 1 55 61
f 1 61 68
f 1 68 71
f 1 71 70
f 1 70 73
f 1 73 65
f 1 65 63
f 1 63 57
f 1 57 50
f 1 50 45
f 1 45 41
f 1 41 40
f 1 40 34
f 1 34 29
f 1 29 25
f 1 25 19
f 1 19 14
f 1 14 9
f 1 9 4
f 1 4 5
f 1 5 2
f 2 5 10
f 2 10 15
f 2 15 20
f 2 20 26
f 2 26 31
f 2 31 35
f 2 35 42
f 2 42 46
f 2 46 52
f 2 52 59
f 2 59 64
f 2 64 72
f 2 72 74
f 2 74 67
f 2 67 60
f 2 60 53
f 2 53 47
f 2 47 43
f 2 43 36
f 2 36 32
f 2 32 27
f 2 27 22
f 2 22 16
f 2 16 12
f 2 12 11
f 2 11 6
f 3 6 7
f 3 7 8
f 4 9 5
f 5 9 10
f 6 11 7
f 7 12 16
f 7 16 21
f 7 21 23
f 7 23 17
f 7 17 13
f 7 13 8
f 7 11 12
f 9 14 15
f 9 15 10
f 13 17 18
f 14 19 15
f 15 19 20
f 16 22 21
f 17 23 24
f 17 24 18
f 19 25 20
f 20 25 26
f 21 22 23
f 22 27 24
f 22 24 23
f 24 27 28
f 25 29 30
f 25 30 26
f 26 30 31
f 27 32 33
f 27 33 28
f 29 34 35
f 29 35 31
f 29 31 30
f 32 36 37
f 32 37 38
f 32 38 39
f 32 39 33
f 34 40 35
f 35 40 41
f 35 41 42
f 36 43 44
f 36 44 37
f 37 44 38
f 41 45 42
f 42 45 46
f 43 47 48
f 43 48 49
f 43 49 44
f 45 50 46
f 46 50 51
f 46 51 52
f 47 53 54
f 47 54 48
f 48 54 55
f 48 55 56
f 48 56 49
f 50 57 51
f 51 57 52
f 52 57 58
f 52 58 59
f 53 60 54
f 54 61 55
f 54 60 62
f 54 62 68
f 54 68 61
f 57 63 58
f 58 64 59
f 58 63 65
f 58 65 66
f 58 66 64
f 60 67 62
f 62 67 74
f 62 74 69
f 62 69 70
f 62 70 71
f 62 71 68
f 64 66 72
f 65 73 66
f 66 73 69
f 66 69 72
f 69 74 72
f 69 73 70

