# https://github.com/mikedh/trimesh
v 5.00992183 -2.54988944 0.12897956
v 5.00992183 -2.51684392 0.12876940
v 5.00992183 -2.61437651 0.12813915
v 5.07427277 -2.54988944 0.12666856
v 5.37556159 -2.45171525 0.11584893
v 5.22555026 -2.45171525 0.12110117
v 5.07427277 -2.45203605 0.12624839
v 5.00992183 -2.41931132 0.12813915
v 5.00992183 -2.64742218 0.12719377
v 5.72840162 -2.54924785 0.10072244
v 5.52972258 -2.51267318 0.10986135
v 5.59147130 -2.45235698 0.10797056
v 5.36677060 -2.35514518 0.11532368
v 5.22555026 -2.35514518 0.12026080
v 5.07427277 -2.35514518 0.12540799
v 5.00992183 -2.22392533 0.12624839
v 5.00992183 -2.71190911 0.12414748
v 5.00992183 -3.39431649 0.09137345
v 5.00992183 -3.49184909 0.08664645
v 5.00992183 -3.58906075 0.08181437
v 5.72840162 -2.64710138 0.09578536
v 5.72840162 -2.45235698 0.10261327
v 5.65919797 -2.45235698 0.10534443
v 5.72840162 -2.35418266 0.10187794
v 5.65919797 -2.35418266 0.10450406
v 5.59147130 -2.35418266 0.10702514
v 5.51481271 -2.29964145 0.10933614
v 5.37556159 -2.25761258 0.11406314
v 5.26936513 -2.25761258 0.11784476
v 5.10444380 -2.25761258 0.12341211
v 5.10458444 -2.22713369 0.12309699
v 5.10444380 -2.16007999 0.12236169
v 5.00992183 -2.16007999 0.12551303
v 5.00992183 -3.64841457 0.07876808
v 5.72840162 -2.77318783 0.08916753
v 5.72840162 -2.28552485 0.10114265
v 5.59147130 -2.26114173 0.10607973
v 5.37556159 -2.14564259 0.11280260
v 5.17181902 -2.16007999 0.12005072
v 5.26936513 -2.06222660 0.11553376
v 5.07427277 -2.06222660 0.12215161
v 5.00992183 -2.12671353 0.12509286
v 5.00992183 -3.64841457 -0.40202228
v 5.04874335 -3.64841457 0.07488142
v 5.72840162 -3.32982941 0.04525877
v 5.72840162 -3.23229682 0.05639351
v 5.72840162 -3.16331821 0.06290630
v 5.72840162 -3.13476422 0.06553242
v 5.72840162 -3.03723163 0.07320071
v 5.72840162 -2.96825302 0.07782267
v 5.72840162 -2.93969903 0.07971349
v 5.72840162 -2.84216643 0.08538591
v 5.72840162 -2.18767146 0.10009219
v 5.72840162 -2.16007999 0.09977706
v 5.59147130 -2.16007999 0.10492427
v 5.65919797 -2.06254739 0.10124769
v 5.59147130 -2.06254739 0.10376877
v 5.37556159 -2.06222660 0.11175218
v 5.26936513 -1.96629811 0.11416818
v 5.10444380 -1.96597732 0.11984063
v 5.00992183 -2.02918093 0.12383236
v 5.10458444 -3.64841457 -0.50370569
v 5.00992183 -3.64809363 -0.94415882
v 5.07427277 -3.64841457 0.07215025
v 5.72840162 -3.35806261 0.04116202
v 5.10458444 -3.64841457 0.06889388
v 5.14628960 -3.64841457 0.06427188
v 5.72840162 -2.06254739 0.09851652
v 5.72840162 -1.89667777 0.09620553
v 5.59147130 -1.86844457 0.10103760
v 5.51917334 -1.96886474 0.10513435
v 5.37556159 -1.96726048 0.11038660
v 5.34138182 -1.86844457 0.11017648
v 5.22555026 -1.86844457 0.11427326
v 5.07427277 -1.86844457 0.11942043
v 5.00992183 -1.86844457 0.12152134
v 5.59147130 -3.64841457 -0.94405378
v 5.29489455 -3.64809363 -0.94415882
v 5.00992183 -0.50363010 -0.94415882
v 5.72840162 -3.42736201 0.03097266
v 5.22555026 -3.64841457 0.05397747
v 5.72840162 -3.50083229 0.01742187
v 5.72840162 -3.45142433 0.02656078
v 5.72840162 -1.86844457 0.09578536
v 5.72840162 -1.77123292 0.09431473
v 5.65919797 -1.67337938 0.09536515
v 5.46410575 -1.77123292 0.10418894
v 5.32682384 -1.80010770 0.10965127
v 5.22555026 -1.70257496 0.11164714
v 5.17181902 -1.77123292 0.11458839
v 5.10444380 -1.77059133 0.11689938
v 5.00992183 -1.57616772 0.11668926
v 5.72840162 -3.64841457 -0.94405378
v 5.26936513 -0.50363010 -0.94415882
v 5.72840162 -0.50330902 -0.94405378
v 5.00992183 -0.41347674 -0.90476698
v 5.10444380 -0.44106807 -0.91695222
v 5.59147130 -0.50330902 -0.94405378
v 5.24383571 -3.64841457 0.05156147
v 5.72840162 -3.51494889 0.01437558
v 5.72840162 -1.67337938 0.09263399
v 5.72840162 -1.47895606 0.08916753
v 5.65919797 -1.47895606 0.09179365
v 5.59147130 -1.44847703 0.09378949
v 5.56165186 -1.57616772 0.09725598
v 5.37556159 -1.66503791 0.10565956
v 5.31205461 -1.73497904 0.10912606
v 5.29700440 -1.67305859 0.10860081
v 5.22555026 -1.61081735 0.11007143
v 5.10458444 -1.64418380 0.11479847
v 5.07427277 -1.57616772 0.11458839
v 5.10458444 -1.39810655 0.11028155
v 5.00992183 -1.33233630 0.11206730
v 5.72840162 -3.64841457 -0.02963822
v 5.72840162 -0.41379753 -0.90466194
v 5.00992183 -0.37112694 -0.81673938
v 5.51917334 -0.39486847 -0.86611050
v 5.10444380 -0.41347674 -0.90476698
v 5.34131150 -3.64841457 0.03727536
v 5.72840162 -3.54959866 0.00618209
v 5.72840162 -1.38078174 0.08727670
v 5.65919797 -1.38078174 0.08990282
v 5.46410575 -1.38078174 0.09725598
v 5.51917334 -1.47959765 0.09704590
v 5.46410575 -1.57616772 0.10082748
v 5.37556159 -1.47927686 0.10229814
v 5.26598926 -1.57360109 0.10797056
v 5.22555026 -1.44109793 0.10692010
v 5.10444380 -1.57488455 0.11353793
v 5.09255822 -1.28356979 0.10839073
v 5.00992183 -1.16261660 0.10870585
v 5.22555026 -1.18571654 0.10187794
v 5.43899824 -3.64841457 0.02088837
v 5.72840162 -3.62242720 -0.01724293
v 5.72840162 -0.37112694 -0.81663434
v 5.00992183 -0.37080615 -0.71915273
v 5.22555026 -0.37080615 -0.77272561
v 5.72840162 -0.37080615 -0.78816722
v 5.10444380 -0.37112694 -0.81673938
v 5.59147130 -1.28324900 0.09053311
v 5.72840162 -1.18571654 0.08339004
v 5.26936513 -1.38078174 0.10418894
v 5.46410575 -1.18571654 0.09326428
v 5.37556159 -1.18571654 0.09652065
v 5.37556159 -1.27458673 0.09830644
v 5.26936513 -1.47927686 0.10607973
v 5.10458444 -1.19052901 0.10607973
v 5.10444380 -1.05802585 0.10334856
v 5.07427277 -0.89343969 0.10072244
v 5.00992183 -0.95760569 0.10418894
v 5.22555026 -1.03460511 0.09862156
v 5.00992183 -0.37080615 -0.03699138
v 5.72840162 -0.37080615 -0.13447300
v 5.65919797 -1.18571654 0.08601616
v 5.72840162 -0.99065135 0.07929329
v 5.59147130 -1.08882568 0.08654141
v 5.51917334 -0.83857754 0.08381024
v 5.37556159 -0.99097214 0.09231886
v 5.26936513 -0.89376048 0.09399957
v 5.22555026 -0.83953992 0.09431473
v 5.22555026 -0.74200747 0.09210878
v 5.10444380 -0.69837450 0.09526011
v 5.00992183 -0.69837450 0.09841148
v 5.37556159 -0.88445635 0.09000787
v 5.00992183 -0.41283487 0.05229677
v 5.26936513 -0.37144773 -0.03688633
v 5.65919797 -0.37305169 -0.03688633
v 5.72840162 -0.37401436 -0.03688633
v 5.59147130 -0.89376048 0.08233962
v 5.72840162 -0.60180442 0.07046954
v 5.56165186 -0.69869529 0.07897816
v 5.51917334 -0.69869529 0.08055383
v 5.37556159 -0.50330902 0.08128916
v 5.37556159 -0.79590695 0.08801203
v 5.26936513 -0.79590695 0.09179365
v 5.10444380 -0.57068351 0.09231886
v 5.07427277 -0.50330902 0.09168861
v 5.00992183 -0.50330902 0.09368444
v 5.37556159 -0.41411832 0.04599406
v 5.72840162 -0.38331850 -0.01934381
v 5.00992183 -0.47250948 0.08002862
v 5.72840162 -0.53154222 0.06878883
v 5.65919797 -0.50363010 0.07078467
v 5.59147130 -0.50363010 0.07330575
v 5.51917334 -0.50330902 0.07593187
v 5.72840162 -0.44138886 0.04809498
v 5.17181902 -0.50330902 0.08832716
v 5.72840162 -0.41604308 0.03948131
v 5.56165186 -0.41475991 0.04252761
v 5.65919797 -0.41540149 0.04063678
v 5.72840162 -0.50363010 0.06805350
f 1 2 8
f 1 8 16
f 1 16 33
f 1 33 42
f 1 42 61
f 1 61 76
f 1 76 92
f 1 92 113
f 1 113 131
f 1 131 150
f 1 150 163
f 1 163 178
f 1 178 181
f 1 181 165
f 1 165 152
f 1 152 136
f 1 136 116
f 1 116 96
f 1 96 79
f 1 79 63
f 1 63 43
f 1 43 34
f 1 34 20
f 1 20 19
f 1 19 18
f 1 18 17
f 1 17 9
f 1 9 3
f 1 3 4
f 1 4 5
f 1 5 6
f 1 6 7
f 1 7 2
f 2 7 8
f 3 9 10
f 3 10 11
f 3 11 4
f 4 11 12
f 4 12 5
f 5 12 13
f 5 13 6
f 6 13 14
f 6 14 15
f 6 15 7
f 7 15 8
f 8 15 16
f 9 17 10
f 10 17 18
f 10 18 19
f 10 19 20
f 10 20 21
f 10 21 35
f 10 35 52
f 10 52 51
f 10 51 50
f 10 50 49
f 10 49 48
f 10 48 47
f 10 47 46
f 10 46 45
f 10 45 65
f 10 65 80
f 10 80 83
f 10 83 82
f 10 82 100
f 10 100 120
f 10 120 134
f 10 134 114
f 10 114 93
f 10 93 95
f 10 95 115
f 10 115 135
f 10 135 138
f 10 138 153
f 10 153 168
f 10 168 180
f 10 180 188
f 10 188 186
f 10 186 191
f 10 191 182
f 10 182 170
f 10 170 155
f 10 155 141
f 10 141 121
f 10 121 102
f 10 102 101
f 10 101 85
f 10 85 84
f 10 84 69
f 10 69 68
f 10 68 54
f 10 54 53
f 10 53 36
f 10 36 24
f 10 24 22
f 10 22 11
f 11 22 23
f 11 23 12
f 12 23 24
f 12 24 25
f 12 25 26
f 12 26 27
f 12 27 13
f 13 27 28
f 13 28 29
f 13 29 14
f 14 29 15
f 15 29 30
f 15 30 16
f 16 30 31
f 16 31 32
f 16 32 33
f 20 34 21
f 21 34 35
f 22 24 23
f 24 36 37
f 24 37 25
f 25 37 27
f 25 27 26
f 27 37 28
f 28 37 38
f 28 38 29
f 29 39 32
f 29 32 31
f 29 31 30
f 29 38 40
f 29 40 39
f 32 39 40
f 32 40 41
f 32 41 33
f 33 41 42
f 34 43 62
f 34 62 77
f 34 77 93
f 34 93 114
f 34 114 133
f 34 133 119
f 34 119 99
f 34 99 81
f 34 81 67
f 34 67 66
f 34 66 64
f 34 64 44
f 34 44 45
f 34 45 46
f 34 46 47
f 34 47 48
f 34 48 49
f 34 49 50
f 34 50 51
f 34 51 52
f 34 52 35
f 36 53 37
f 37 53 54
f 37 54 55
f 37 55 38
f 38 56 57
f 38 57 58
f 38 58 40
f 38 55 56
f 40 58 59
f 40 59 60
f 40 60 41
f 41 61 42
f 41 60 61
f 43 63 62
f 44 64 45
f 45 64 66
f 45 66 67
f 45 67 65
f 54 68 56
f 54 56 55
f 56 68 69
f 56 69 70
f 56 70 57
f 57 70 71
f 57 71 58
f 58 71 70
f 58 70 72
f 58 72 59
f 59 72 73
f 59 73 74
f 59 74 60
f 60 74 75
f 60 75 76
f 60 76 61
f 62 63 77
f 63 78 93
f 63 93 77
f 63 79 94
f 63 94 78
f 65 67 80
f 67 81 82
f 67 82 83
f 67 83 80
f 69 84 70
f 70 84 85
f 70 85 86
f 70 86 87
f 70 87 73
f 70 73 72
f 73 87 88
f 73 88 74
f 74 88 89
f 74 89 90
f 74 90 91
f 74 91 75
f 75 91 76
f 76 91 92
f 78 94 95
f 78 95 93
f 79 96 97
f 79 97 98
f 79 98 95
f 79 95 94
f 81 99 82
f 82 99 100
f 85 101 86
f 86 101 102
f 86 102 103
f 86 103 104
f 86 104 105
f 86 105 106
f 86 106 87
f 87 106 107
f 87 107 88
f 88 107 89
f 89 107 108
f 89 108 109
f 89 109 110
f 89 110 91
f 89 91 90
f 91 110 92
f 92 110 111
f 92 111 112
f 92 112 113
f 95 98 97
f 95 97 115
f 96 116 117
f 96 117 118
f 96 118 97
f 97 118 115
f 99 119 120
f 99 120 100
f 102 121 104
f 102 104 103
f 104 121 122
f 104 122 123
f 104 123 124
f 104 124 105
f 105 124 123
f 105 123 125
f 105 125 106
f 106 109 108
f 106 108 107
f 106 125 126
f 106 126 127
f 106 127 109
f 109 127 128
f 109 128 112
f 109 112 129
f 109 129 110
f 110 129 111
f 111 129 112
f 112 130 131
f 112 131 113
f 112 128 132
f 112 132 130
f 114 134 133
f 115 118 117
f 115 117 135
f 116 136 137
f 116 137 138
f 116 138 139
f 116 139 117
f 117 139 135
f 119 133 134
f 119 134 120
f 121 140 122
f 121 141 140
f 122 140 123
f 123 142 128
f 123 128 126
f 123 126 125
f 123 140 143
f 123 143 144
f 123 144 145
f 123 145 142
f 126 128 146
f 126 146 127
f 127 146 128
f 128 142 132
f 130 132 147
f 130 147 131
f 131 147 148
f 131 148 149
f 131 149 150
f 132 142 145
f 132 145 144
f 132 144 151
f 132 151 148
f 132 148 147
f 135 139 138
f 136 152 153
f 136 153 138
f 136 138 137
f 140 141 154
f 140 154 143
f 141 155 154
f 143 154 156
f 143 156 144
f 144 156 157
f 144 157 158
f 144 158 151
f 148 151 159
f 148 159 160
f 148 160 149
f 149 160 161
f 149 161 162
f 149 162 163
f 149 163 150
f 151 158 164
f 151 164 159
f 152 165 166
f 152 166 153
f 153 166 167
f 153 167 168
f 154 155 156
f 155 169 156
f 155 170 169
f 156 169 157
f 157 171 172
f 157 172 173
f 157 173 174
f 157 174 164
f 157 164 158
f 157 169 170
f 157 170 171
f 159 164 174
f 159 174 175
f 159 175 160
f 160 175 161
f 161 175 173
f 161 173 176
f 161 176 162
f 162 176 163
f 163 176 177
f 163 177 178
f 165 179 180
f 165 180 167
f 165 167 166
f 165 181 179
f 167 180 168
f 170 182 183
f 170 183 171
f 171 183 184
f 171 184 172
f 172 184 173
f 173 184 183
f 173 183 185
f 173 185 186
f 173 186 187
f 173 187 176
f 173 175 174
f 176 187 177
f 177 187 188
f 177 188 178
f 178 188 189
f 178 189 181
f 179 181 189
f 179 189 180
f 180 189 190
f 180 190 188
f 182 191 183
f 183 191 186
f 183 186 185
f 186 188 187
f 188 190 189

