# https://github.com/mikedh/trimesh
v 0.68616879 -1.88069570 -0.89670337
v 0.68616879 -1.88069570 0.13572440
v 0.68616879 -1.88054780 -0.94416013
v 0.68704472 -1.88069570 -0.94416013
v 0.88195605 -1.88069570 0.13970605
v 0.68616879 -1.86827749 0.13561682
v 0.68616879 -0.50301786 -0.94416013
v 0.69974681 -1.88069570 -0.94416013
v 0.96649046 -1.88069570 0.14132025
v 0.88195605 -1.77026269 0.13798426
v 0.78428137 -1.77026269 0.13604727
v 0.68616879 -1.67269131 0.13238845
v 0.68616879 -0.41283835 -0.90477417
v 2.17771390 -0.43915290 -0.91628869
v 0.68704472 -0.50301786 -0.94416013
v 2.17771390 -1.88069570 -0.94394496
v 0.70602492 -1.78948117 -0.94416013
v 1.16125564 -1.88069570 0.14497903
v 0.97933857 -1.77026269 0.13981367
v 0.88195605 -1.67269131 0.13637009
v 0.78428137 -1.67269131 0.13443306
v 0.68616879 -1.57526782 0.13077428
v 0.68616879 -0.41254255 -0.90423618
v 2.17771390 -0.41283835 -0.90477417
v 2.17771390 -0.50301786 -0.94394496
v 0.70733889 -1.10840388 -0.94416013
v 2.17771390 -1.88069570 0.06728332
v 1.27192444 -1.88069570 0.14691606
v 1.27192444 -1.77026269 0.14519428
v 1.17424976 -1.77026269 0.14347249
v 0.97933857 -1.67269131 0.13819950
v 1.07686710 -1.57526782 0.13841471
v 0.88195605 -1.57526782 0.13464830
v 0.97933857 -1.47769643 0.13475593
v 0.68616879 -1.38012533 0.12711546
v 0.68616879 -0.37100083 -0.81653249
v 2.17771390 -0.38312352 -0.84225180
v 2.02966903 -1.88069570 0.12313385
v 2.17771390 -1.76952348 0.12776115
v 1.35631284 -1.88069570 0.14831499
v 1.36930696 -1.77026269 0.14680844
v 1.27192444 -1.67269131 0.14358007
v 1.17424976 -1.67269131 0.14185828
v 1.17424976 -1.57526782 0.14013650
v 1.07686710 -1.38012533 0.13475593
v 0.97933857 -1.38012533 0.13292652
v 0.68616879 -1.28270156 0.12517847
v 0.68616879 -0.37070532 -0.71914384
v 2.17771390 -0.37100083 -0.81653249
v 1.95506254 -1.88069570 0.14358007
v 2.17771390 -1.74143498 0.13507875
v 1.94104641 -1.88069570 0.14691606
v 1.36930696 -1.88069570 0.14853023
v 1.36930696 -1.67269131 0.14519428
v 1.46668962 -1.86768618 0.14992919
v 1.36930696 -1.47769643 0.14175070
v 1.27192444 -1.57526782 0.14185828
v 1.17424976 -1.38012533 0.13647771
v 1.17424976 -1.18513046 0.13260369
v 1.07686710 -1.28270156 0.13281890
v 0.97933857 -1.28270156 0.13098949
v 0.88195605 -1.18513046 0.12711546
v 0.78428137 -1.18513046 0.12517847
v 0.68616879 -1.18513046 0.12313385
v 0.68616879 -0.37070532 -0.03688494
v 2.17771390 -0.37070532 -0.71914384
v 2.17771390 -1.67269131 0.15208143
v 1.85665794 -1.88069570 0.15520214
v 1.56407214 -1.88069570 0.15154336
v 1.56407214 -1.67269131 0.14820740
v 1.46668962 -1.57526782 0.14508665
v 1.56407214 -1.77026269 0.14982157
v 1.46668962 -1.38012533 0.14142784
v 1.27192444 -1.38012533 0.13819950
v 1.27192444 -1.18513046 0.13432548
v 1.17424976 -1.08800249 0.13055904
v 1.07686710 -0.99057900 0.12668502
v 0.97933857 -0.99057900 0.12485564
v 0.97933857 -1.18513046 0.12894487
v 0.88195605 -1.08800249 0.12507085
v 0.78428137 -1.08800249 0.12313385
v 0.68616879 -0.99057900 0.11904459
v 1.85665794 -0.39199354 0.06071900
v 1.95418654 -0.39095852 0.06071900
v 2.05171514 -0.39007169 0.06071900
v 2.17771390 -0.38903667 0.06071900
v 2.17771390 -0.37070532 -0.03688494
v 0.68616879 -0.40899466 0.05124916
v 1.27192444 -0.40115937 0.06071900
v 1.46668962 -0.39761118 0.06071900
v 1.56407214 -0.39598514 0.06071900
v 1.66145472 -0.39450670 0.06071900
v 1.75912934 -0.39317617 0.06071900
v 2.17771390 -1.64415911 0.15261946
v 1.84366389 -1.88069570 0.15520214
v 2.17771390 -1.57526782 0.15358797
v 1.66145472 -1.88069570 0.15294232
v 1.66145472 -1.67269131 0.14960633
v 1.56407214 -1.47769643 0.14476383
v 1.66145472 -1.77026269 0.15122053
v 1.56407214 -1.38012533 0.14293442
v 1.46668962 -1.28270156 0.13949084
v 1.36930696 -1.18513046 0.13593965
v 1.27192444 -1.08800249 0.13228083
v 1.17424976 -0.89300761 0.12625457
v 1.07686710 -0.89300761 0.12453278
v 0.97933857 -0.89300761 0.12270341
v 0.68616879 -0.89300761 0.11689235
v 2.05171514 -0.43190893 0.11893697
v 2.17771390 -0.43087420 0.11947504
v 0.68616879 -0.41254255 0.05921241
v 1.17424976 -0.40322911 0.06071900
v 1.56407214 -0.43782266 0.11592384
v 1.66145472 -0.43634423 0.11667711
v 1.75912934 -0.43501369 0.11732280
v 1.85665794 -0.43383077 0.11786087
v 1.95418654 -0.43279604 0.11850652
v 1.95418654 -1.67269131 0.15326515
v 1.85665794 -1.77026269 0.15369560
v 1.75912934 -1.88069570 0.15423366
v 2.17771390 -1.47769643 0.15186619
v 2.14909773 -1.57526782 0.15337277
v 1.75912934 -1.67269131 0.15089767
v 1.66145472 -1.47769643 0.14616275
v 1.75912934 -1.77026269 0.15251187
v 1.66145472 -1.28270156 0.14239635
v 1.56407214 -1.28270156 0.14099739
v 1.56407214 -1.18513046 0.13895277
v 1.46668962 -0.99057900 0.13335696
v 1.36930696 -1.08800249 0.13389503
v 1.27192444 -0.89300761 0.12797636
v 1.17424976 -0.79558412 0.12410233
v 1.07686710 -0.69801274 0.12012073
v 0.88195605 -0.79558412 0.11861414
v 0.78428137 -0.79558412 0.11667711
v 0.68616879 -0.69801274 0.11248026
v 2.17771390 -0.50301786 0.13077428
v 2.14909773 -0.43117000 0.11936742
v 0.68616879 -0.50730497 0.10785297
v 0.76340328 -0.47818146 0.10882148
v 0.82851960 -0.45393666 0.10946713
v 0.97933857 -0.44994506 0.11097372
v 1.07686710 -0.44743190 0.11183461
v 1.17424976 -0.44506634 0.11280309
v 1.27192444 -0.44299660 0.11366398
v 1.36930696 -0.44107475 0.11441729
v 1.95418654 -0.50301786 0.12862205
v 2.14909773 -0.50301786 0.13055904
v 2.05171514 -1.57526782 0.15251187
v 1.95418654 -1.57526782 0.15154336
v 1.85665794 -1.47769643 0.14863785
v 2.17771390 -1.35174074 0.14939112
v 2.14909773 -1.38012533 0.14971395
v 2.05171514 -1.38012533 0.14885306
v 1.75912934 -1.47769643 0.14745409
v 1.75912934 -1.28270156 0.14368769
v 1.66145472 -1.18513046 0.14035174
v 1.56407214 -0.99057900 0.13486351
v 1.46668962 -0.89300761 0.13120473
v 1.27192444 -0.79558412 0.12582412
v 1.17424976 -0.60044135 0.11958266
v 0.88195605 -0.60044135 0.11409443
v 1.07686710 -0.50301786 0.11549339
v 0.97933857 -0.50301786 0.11366398
v 0.88195605 -0.50301786 0.11183461
v 0.68616879 -0.55993465 0.10925193
v 2.17771390 -0.57205705 0.13238845
v 0.69054873 -0.50745287 0.10796059
v 0.79128940 -0.50745287 0.11011282
v 1.17424976 -0.50301786 0.11721518
v 1.36930696 -0.50301786 0.12065876
v 1.56407214 -0.50301786 0.12367189
v 1.66145472 -0.50301786 0.12507085
v 1.75912934 -0.50301786 0.12636219
v 1.85665794 -0.50301786 0.12754591
v 1.95418654 -0.60044135 0.13098949
v 2.05171514 -0.60044135 0.13195800
v 2.14909773 -0.60044135 0.13281890
v 1.95418654 -1.38012533 0.14788454
v 1.85665794 -1.38012533 0.14680844
v 2.17771390 -1.18513046 0.14605517
v 2.14909773 -1.18513046 0.14583993
v 2.05171514 -1.18513046 0.14497903
v 1.85665794 -1.28270156 0.14487141
v 1.75912934 -1.18513046 0.14164308
v 1.66145472 -0.99057900 0.13626247
v 1.56407214 -0.89300761 0.13271127
v 1.46668962 -0.69801274 0.12679264
v 1.36930696 -0.79558412 0.12743833
v 1.27192444 -0.60044135 0.12130445
v 2.17771390 -0.66948054 0.13464830
v 1.36930696 -0.60044135 0.12291861
v 1.56407214 -0.60044135 0.12593174
v 1.66145472 -0.60044135 0.12733070
v 1.75912934 -0.60044135 0.12862205
v 1.85665794 -0.89300761 0.13658530
v 1.95418654 -0.69801274 0.13324934
v 2.05171514 -0.79558412 0.13647771
v 2.14909773 -0.79558412 0.13733861
v 1.95418654 -1.28270156 0.14594755
v 2.17771390 -1.08800249 0.14401052
v 2.14909773 -1.08800249 0.14379531
v 1.85665794 -1.18513046 0.14282680
v 2.05171514 -1.08800249 0.14293442
v 1.95418654 -0.99057900 0.13981367
v 1.75912934 -0.99057900 0.13755381
v 1.75912934 -0.89300761 0.13540158
v 1.66145472 -0.79558412 0.13185038
v 2.17771390 -0.76705192 0.13690816
v 1.85665794 -0.99057900 0.13873757
v 1.95418654 -0.89300761 0.13766143
v 2.05171514 -0.89300761 0.13862995
v 2.14909773 -0.89300761 0.13949084
v 2.17771390 -0.79558412 0.13755381
v 2.17771390 -0.89300761 0.13970605
f 1 2 6
f 1 6 12
f 1 12 22
f 1 22 35
f 1 35 47
f 1 47 64
f 1 64 82
f 1 82 108
f 1 108 136
f 1 136 166
f 1 166 139
f 1 139 111
f 1 111 88
f 1 88 65
f 1 65 48
f 1 48 36
f 1 36 23
f 1 23 13
f 1 13 7
f 1 7 3
f 1 3 4
f 1 4 8
f 1 8 16
f 1 16 27
f 1 27 38
f 1 38 50
f 1 50 52
f 1 52 68
f 1 68 95
f 1 95 120
f 1 120 97
f 1 97 69
f 1 69 53
f 1 53 40
f 1 40 28
f 1 28 18
f 1 18 9
f 1 9 5
f 1 5 2
f 2 5 6
f 3 7 15
f 3 15 26
f 3 26 17
f 3 17 8
f 3 8 4
f 5 9 10
f 5 10 11
f 5 11 6
f 6 11 12
f 7 13 14
f 7 14 15
f 8 17 16
f 9 18 19
f 9 19 10
f 10 19 31
f 10 31 20
f 10 20 21
f 10 21 11
f 11 21 12
f 12 21 22
f 13 23 24
f 13 24 14
f 14 25 15
f 14 24 37
f 14 37 49
f 14 49 66
f 14 66 87
f 14 87 86
f 14 86 110
f 14 110 137
f 14 137 167
f 14 167 191
f 14 191 209
f 14 209 214
f 14 214 215
f 14 215 201
f 14 201 181
f 14 181 152
f 14 152 121
f 14 121 96
f 14 96 94
f 14 94 67
f 14 67 51
f 14 51 39
f 14 39 27
f 14 27 16
f 14 16 25
f 15 25 26
f 16 17 26
f 16 26 25
f 18 28 29
f 18 29 30
f 18 30 19
f 19 30 43
f 19 43 31
f 20 31 32
f 20 32 33
f 20 33 22
f 20 22 21
f 22 33 34
f 22 34 46
f 22 46 35
f 23 36 37
f 23 37 24
f 27 39 38
f 28 40 29
f 29 41 54
f 29 54 42
f 29 42 43
f 29 43 30
f 29 40 41
f 31 43 32
f 32 43 44
f 32 44 58
f 32 58 45
f 32 45 46
f 32 46 34
f 32 34 33
f 35 46 61
f 35 61 47
f 36 48 66
f 36 66 49
f 36 49 37
f 38 39 50
f 39 51 52
f 39 52 50
f 40 53 41
f 41 53 55
f 41 55 54
f 42 54 56
f 42 56 57
f 42 57 44
f 42 44 43
f 44 57 56
f 44 56 58
f 45 58 59
f 45 59 60
f 45 60 61
f 45 61 46
f 47 61 62
f 47 62 63
f 47 63 64
f 48 65 87
f 48 87 66
f 51 67 52
f 52 67 68
f 53 69 55
f 54 55 70
f 54 70 71
f 54 71 56
f 55 69 72
f 55 72 70
f 56 73 74
f 56 74 58
f 56 71 99
f 56 99 101
f 56 101 73
f 58 74 75
f 58 75 59
f 59 75 104
f 59 104 76
f 59 76 77
f 59 77 78
f 59 78 79
f 59 79 61
f 59 61 60
f 61 79 62
f 62 79 78
f 62 78 80
f 62 80 81
f 62 81 63
f 63 81 82
f 63 82 64
f 65 83 84
f 65 84 85
f 65 85 86
f 65 86 87
f 65 88 89
f 65 89 90
f 65 90 91
f 65 91 92
f 65 92 93
f 65 93 83
f 67 94 68
f 68 94 96
f 68 96 95
f 69 97 100
f 69 100 72
f 70 98 124
f 70 124 99
f 70 99 71
f 70 72 100
f 70 100 98
f 73 101 127
f 73 127 102
f 73 102 103
f 73 103 75
f 73 75 74
f 75 103 130
f 75 130 104
f 76 104 131
f 76 131 105
f 76 105 106
f 76 106 77
f 77 106 107
f 77 107 78
f 78 107 108
f 78 108 82
f 78 82 80
f 80 82 81
f 83 93 109
f 83 109 110
f 83 110 84
f 84 110 85
f 85 110 86
f 88 111 89
f 89 111 112
f 89 112 113
f 89 113 114
f 89 114 115
f 89 115 90
f 90 115 91
f 91 115 116
f 91 116 117
f 91 117 92
f 92 117 93
f 93 117 109
f 95 118 119
f 95 119 120
f 95 96 118
f 96 121 122
f 96 122 118
f 97 120 125
f 97 125 100
f 98 100 125
f 98 125 123
f 98 123 155
f 98 155 124
f 99 124 101
f 101 124 126
f 101 126 127
f 102 127 128
f 102 128 103
f 103 128 158
f 103 158 129
f 103 129 130
f 104 130 159
f 104 159 131
f 105 131 160
f 105 160 132
f 105 132 106
f 106 132 133
f 106 133 107
f 107 134 108
f 107 133 134
f 108 134 135
f 108 135 136
f 109 117 137
f 109 137 138
f 109 138 110
f 110 138 137
f 111 139 140
f 111 140 141
f 111 141 142
f 111 142 143
f 111 143 144
f 111 144 145
f 111 145 146
f 111 146 113
f 111 113 112
f 113 146 147
f 113 147 148
f 113 148 114
f 114 148 115
f 115 148 117
f 115 117 116
f 117 148 137
f 118 123 125
f 118 125 119
f 118 122 149
f 118 149 150
f 118 150 151
f 118 151 155
f 118 155 123
f 119 125 120
f 121 152 153
f 121 153 154
f 121 154 149
f 121 149 122
f 124 155 156
f 124 156 126
f 126 156 185
f 126 185 157
f 126 157 128
f 126 128 127
f 128 157 186
f 128 186 158
f 129 158 187
f 129 187 159
f 129 159 130
f 131 159 189
f 131 189 160
f 132 160 190
f 132 190 161
f 132 161 133
f 133 162 134
f 133 161 163
f 133 163 164
f 133 164 165
f 133 165 162
f 134 162 136
f 134 136 135
f 136 162 165
f 136 165 166
f 137 148 167
f 139 166 168
f 139 168 140
f 140 168 166
f 140 166 169
f 140 169 165
f 140 165 141
f 141 165 164
f 141 164 163
f 141 163 170
f 141 170 171
f 141 171 172
f 141 172 173
f 141 173 174
f 141 174 142
f 142 174 144
f 142 144 143
f 144 174 175
f 144 175 145
f 145 175 147
f 145 147 146
f 147 175 176
f 147 176 148
f 148 176 177
f 148 177 178
f 148 178 191
f 148 191 167
f 149 154 179
f 149 179 150
f 150 179 180
f 150 180 151
f 151 180 155
f 152 181 182
f 152 182 153
f 153 182 183
f 153 183 154
f 154 183 179
f 155 180 156
f 156 180 184
f 156 184 203
f 156 203 185
f 157 185 206
f 157 206 186
f 158 186 187
f 159 187 188
f 159 188 189
f 160 189 188
f 160 188 192
f 160 192 190
f 161 190 171
f 161 171 170
f 161 170 163
f 165 169 166
f 171 190 192
f 171 192 188
f 171 188 172
f 172 188 193
f 172 193 194
f 172 194 173
f 173 194 195
f 173 195 174
f 174 195 176
f 174 176 175
f 176 195 207
f 176 207 196
f 176 196 197
f 176 197 198
f 176 198 177
f 177 198 199
f 177 199 178
f 178 199 209
f 178 209 191
f 179 183 200
f 179 200 184
f 179 184 180
f 181 201 202
f 181 202 182
f 182 202 204
f 182 204 183
f 183 203 184
f 183 184 200
f 183 204 205
f 183 205 210
f 183 210 203
f 185 203 210
f 185 210 206
f 186 206 207
f 186 207 208
f 186 208 187
f 187 208 194
f 187 194 193
f 187 193 188
f 194 208 207
f 194 207 195
f 196 207 206
f 196 206 210
f 196 210 205
f 196 205 211
f 196 211 197
f 197 211 198
f 198 211 212
f 198 212 213
f 198 213 199
f 199 213 215
f 199 215 214
f 199 214 209
f 201 215 213
f 201 213 202
f 202 213 212
f 202 212 204
f 204 212 211
f 204 211 205

