# https://github.com/mikedh/trimesh
v -2.22650538 -6.15758896 -0.86829299
v -2.24280477 -6.15758896 -0.81668504
v -2.22650538 -5.96286461 -0.86829299
v -2.02426159 -6.15758896 -0.86829299
v -2.24280477 -5.96250168 -0.81668504
v -2.24280477 -6.15758896 -0.23187447
v -2.20055957 -5.96250168 -0.86829299
v 1.15509259 -6.15756993 -0.86829299
v -2.02426159 -6.15758896 -0.06406899
v -2.24280477 -5.96250168 -0.23187447
v -2.22583997 -6.06034141 -0.13431314
v -2.22816862 -5.96286461 -0.13431314
v -2.22351132 -6.15758896 -0.13431314
v 1.15509259 -5.96250168 -0.86829299
v 1.15509259 -6.15756993 -0.05467121
v -1.89220417 -6.15756993 -0.05467121
v -1.99133042 -5.96250168 -0.05467121
v -2.04322204 -6.15758896 -0.06542287
v -2.22816862 -5.96250168 -0.13431314
v -2.20122498 -5.96286461 -0.07736915
v -2.19656827 -6.15758896 -0.08079377
v 1.15509259 -5.96250168 -0.05467121
v -2.04322204 -5.96286461 -0.05841441
v -2.04322204 -5.96250168 -0.05841441
v -2.14068475 -6.15758896 -0.07251099
v -2.20122498 -5.96250168 -0.07736915
v -2.14068475 -5.96286461 -0.06558218
v -2.14068475 -5.96250168 -0.06558218
f 1 2 5
f 1 5 3
f 1 3 7
f 1 7 14
f 1 14 8
f 1 8 4
f 1 4 9
f 1 9 18
f 1 18 25
f 1 25 21
f 1 21 13
f 1 13 6
f 1 6 2
f 2 6 10
f 2 10 5
f 3 5 7
f 4 8 15
f 4 15 9
f 5 10 19
f 5 19 26
f 5 26 28
f 5 28 24
f 5 24 17
f 5 17 22
f 5 22 14
f 5 14 7
f 6 11 12
f 6 12 19
f 6 19 10
f 6 13 11
f 8 14 22
f 8 22 15
f 9 15 16
f 9 16 17
f 9 17 18
f 11 13 20
f 11 20 12
f 12 20 26
f 12 26 19
f 13 21 20
f 15 22 17
f 15 17 16
f 17 23 18
f 17 24 23
f 18 23 25
f 20 21 27
f 20 27 28
f 20 28 26
f 21 25 27
f 23 24 28
f 23 28 27
f 23 27 25

