# https://github.com/mikedh/trimesh
v 5.62774987 -7.14872513 -0.05467121
v 5.62774987 -8.21617831 -0.05467121
v 5.62774987 -7.14872513 -0.94407238
v 3.06004631 -7.14872513 -0.05467121
v 5.55384824 -8.30275879 -0.05467121
v 5.62774987 -8.57520783 -0.06616420
v 5.62774987 -7.48192013 -0.94407238
v 3.13998073 -7.14872513 -0.94415940
v 3.06004631 -7.14872513 -0.94415940
v 3.05979496 -7.48192013 -0.05467121
v 5.46411069 -8.40609688 -0.05467121
v 5.62774987 -8.57520783 -0.72466061
v 5.48421977 -8.57520783 -0.06085304
v 5.62749853 -8.57520783 -0.94398528
v 3.12439609 -7.48192013 -0.94415940
v 3.06004631 -7.48192013 -0.94415940
v 3.05979496 -7.48192013 -0.94398528
v 3.05979496 -8.57520783 -0.05467121
v 5.31354234 -8.57520783 -0.05467121
v 3.05979496 -8.57520783 -0.94398528
f 1 2 6
f 1 6 12
f 1 12 7
f 1 7 3
f 1 3 8
f 1 8 9
f 1 9 4
f 1 4 10
f 1 10 18
f 1 18 19
f 1 19 11
f 1 11 5
f 1 5 2
f 2 5 6
f 3 7 8
f 4 9 17
f 4 17 10
f 5 11 6
f 6 11 13
f 6 13 19
f 6 19 18
f 6 18 20
f 6 20 14
f 6 14 12
f 7 12 14
f 7 14 15
f 7 15 8
f 8 15 16
f 8 16 9
f 9 16 20
f 9 20 17
f 10 17 20
f 10 20 18
f 11 19 13
f 14 20 16
f 14 16 15

