# https://github.com/mikedh/trimesh
v -2.24302153 -3.56034825 -0.54914762
v -2.24302153 -3.56034825 -0.13430374
v -2.24302153 -3.43801862 -0.54914762
v -1.06045190 -3.56034825 -0.54914762
v -2.23109759 -3.56034825 -0.07182612
v -2.22716150 -3.43801862 -0.04697145
v -2.24302153 -3.43801862 -0.13430374
v -1.06045190 -3.43801862 -0.54914762
v -1.06045190 -3.56034825 0.07909942
v -2.22391987 -3.56034825 -0.03680644
v -2.22438304 -3.52535931 -0.03680644
v -2.22519316 -3.43801862 -0.03680644
v -1.06045190 -3.43801862 0.08405797
v -1.06045190 -3.55753427 0.07922339
v -1.06832409 -3.56034825 0.07903746
v -2.20678596 -3.56034825 -0.00215864
v -2.19845118 -3.43801862 0.01786146
v -2.20122905 -3.43801862 0.01222111
v -1.06832409 -3.43801862 0.08393401
v -1.07851157 -3.43801862 0.08368608
v -1.16580075 -3.56034825 0.07662015
v -2.19706166 -3.56034825 0.01693173
v -2.19752483 -3.52535931 0.01724166
v -2.14658687 -3.43801862 0.02641493
v -1.16580075 -3.43801862 0.08145473
v -1.17598823 -3.43801862 0.08114484
v -1.26327712 -3.56034825 0.07358305
v -2.16071044 -3.56034825 0.02257207
v -2.14068272 -3.43801862 0.02734469
v -1.27346489 -3.43801862 0.07810773
v -1.49330808 -3.56034825 0.06608326
v -2.14068272 -3.56034825 0.02542325
v -2.14068272 -3.52535931 0.02604307
v -2.05339354 -3.43801862 0.03372879
v -1.37094155 -3.43801862 0.07482270
v -1.55582275 -3.56034825 0.06372795
v -2.04320606 -3.56034825 0.03248917
v -2.04320606 -3.52535931 0.03310897
v -1.94572940 -3.52535931 0.04011293
v -1.94572940 -3.43801862 0.04141455
v -1.45834638 -3.43801862 0.07147567
v -1.55582275 -3.52535931 0.06484364
v -1.59078474 -3.56034825 0.06224040
v -1.98069139 -3.56034825 0.03701383
v -1.94572940 -3.56034825 0.03949310
v -1.88321473 -3.56034825 0.04383182
v -1.84825274 -3.52535931 0.04686892
v -1.85832457 -3.43801862 0.04748875
v -1.46853386 -3.43801862 0.07104181
v -1.55582275 -3.43801862 0.06670309
v -1.65318377 -3.52535931 0.05963716
v -1.65318377 -3.56034825 0.05889340
v -1.84825274 -3.56034825 0.04624910
v -1.84825274 -3.43801862 0.04817054
v -1.78573807 -3.56034825 0.05046385
v -1.75066043 -3.52535931 0.05337702
v -1.56601052 -3.43801862 0.06614526
v -1.65318377 -3.43801862 0.06093878
v -1.68814576 -3.56034825 0.05678602
v -1.75066043 -3.43801862 0.05467864
v -1.75066043 -3.56034825 0.05275720
f 1 2 7
f 1 7 3
f 1 3 8
f 1 8 4
f 1 4 9
f 1 9 15
f 1 15 21
f 1 21 27
f 1 27 31
f 1 31 36
f 1 36 43
f 1 43 52
f 1 52 59
f 1 59 61
f 1 61 55
f 1 55 53
f 1 53 46
f 1 46 45
f 1 45 44
f 1 44 37
f 1 37 32
f 1 32 28
f 1 28 22
f 1 22 16
f 1 16 10
f 1 10 5
f 1 5 2
f 2 5 6
f 2 6 7
f 3 7 6
f 3 6 12
f 3 12 18
f 3 18 17
f 3 17 24
f 3 24 29
f 3 29 34
f 3 34 40
f 3 40 48
f 3 48 54
f 3 54 60
f 3 60 58
f 3 58 57
f 3 57 50
f 3 50 49
f 3 49 41
f 3 41 35
f 3 35 30
f 3 30 26
f 3 26 25
f 3 25 20
f 3 20 19
f 3 19 13
f 3 13 8
f 4 8 13
f 4 13 14
f 4 14 9
f 5 10 11
f 5 11 12
f 5 12 6
f 9 14 15
f 10 16 11
f 11 16 17
f 11 17 18
f 11 18 12
f 13 19 15
f 13 15 14
f 15 19 20
f 15 20 21
f 16 22 23
f 16 23 17
f 17 23 24
f 20 25 21
f 21 25 26
f 21 26 30
f 21 30 27
f 22 28 29
f 22 29 24
f 22 24 23
f 27 30 31
f 28 32 33
f 28 33 29
f 29 33 34
f 30 35 31
f 31 35 36
f 32 37 38
f 32 38 33
f 33 38 34
f 34 38 39
f 34 39 40
f 35 41 36
f 36 42 43
f 36 41 42
f 37 44 38
f 38 44 39
f 39 44 45
f 39 45 46
f 39 46 47
f 39 47 48
f 39 48 40
f 41 49 42
f 42 50 43
f 42 49 50
f 43 50 51
f 43 51 52
f 46 53 47
f 47 54 48
f 47 53 55
f 47 55 56
f 47 56 60
f 47 60 54
f 50 57 51
f 51 58 60
f 51 60 56
f 51 56 59
f 51 59 52
f 51 57 58
f 55 61 56
f 56 61 59

