# https://github.com/mikedh/trimesh
v 2.60041588 -4.87702108 -0.94405494
v 2.60041588 -4.87702108 0.10731406
v 2.60041588 -4.66808131 -0.94405494
v 5.55427713 -4.87702108 -0.94405494
v 3.24924760 -4.66808131 0.12132813
v 2.60041588 -4.82917868 0.10762781
v 3.13763930 -4.87702108 0.11494861
v 3.34668801 -4.66808131 0.12310603
v 2.60041588 -4.66808131 0.10804616
v 5.55427713 -4.66808131 -0.94405494
v 5.55427713 -4.87702108 0.02427548
v 3.05407758 -4.66808131 0.11735400
v 2.60041588 -4.73494613 0.10804616
v 2.60041588 -4.79285199 0.10783698
v 3.23507971 -4.87702108 0.11630819
v 3.41694920 -4.66808131 0.12394270
v 5.55427713 -4.66808131 -0.15884868
v 5.17145494 -4.87702108 0.05418609
v 5.55427713 -4.79328153 0.01653637
v 5.17145494 -4.66808131 0.04749282
v 5.07401445 -4.66808131 0.05742815
v 4.97657397 -4.66808131 0.06621311
v 4.87913363 -4.66808131 0.07405679
v 3.33280924 -4.87702108 0.11683108
v 3.41694920 -4.69536723 0.12321064
v 3.44412842 -4.66808131 0.12415188
v 5.55427713 -4.66832676 -0.00145185
v 5.49297938 -4.66808131 0.00733310
v 5.07401445 -4.87702108 0.06150688
v 5.55427713 -4.78671574 0.01580427
v 5.26918440 -4.66808131 0.03630247
v 4.78169329 -4.66808131 0.08127302
v 3.41694920 -4.87702108 0.11630819
v 3.41694920 -4.79285199 0.11975940
v 3.51438961 -4.66808131 0.12415188
v 5.55427713 -4.69896717 0.00430018
v 5.48777464 -4.66808131 0.00827434
v 4.97657397 -4.87702108 0.06840933
v 5.44180140 -4.66808131 0.01454929
v 5.36691385 -4.66808131 0.02406631
v 4.68396368 -4.66808131 0.08796628
v 3.43024966 -4.87702108 0.11620359
v 3.54156876 -4.66808131 0.12404731
v 4.87913363 -4.87702108 0.07499803
v 4.48908286 -4.66808131 0.10114368
v 3.51438961 -4.87702108 0.11526235
v 3.51438961 -4.79285199 0.11902734
v 3.61182995 -4.66808131 0.12321064
v 4.78169329 -4.87702108 0.08137759
v 4.36417410 -4.66808131 0.10804616
v 4.48908286 -4.69536723 0.10093454
v 3.61182995 -4.87702108 0.11400737
v 3.61182995 -4.79285199 0.11777232
v 3.70927044 -4.69536723 0.12059607
v 3.70927044 -4.66808131 0.12174648
v 4.68396368 -4.87702108 0.08723422
v 4.33063374 -4.66808131 0.10909197
v 4.48908286 -4.87702108 0.09581000
v 4.58652320 -4.87702108 0.09214959
v 3.71360753 -4.87702108 0.11254321
v 3.73355824 -4.87702108 0.11222946
v 3.80699997 -4.69536723 0.11902734
v 3.73673878 -4.66808131 0.12132813
v 4.29044319 -4.66808131 0.11013781
v 4.39164252 -4.79285199 0.10218952
v 4.39164252 -4.87702108 0.09842454
v 3.80873476 -4.87702108 0.11097448
v 3.80699997 -4.79285199 0.11473943
v 3.80699997 -4.66808131 0.12017775
v 3.90444038 -4.79285199 0.11306613
v 3.90444038 -4.69536723 0.11724943
v 4.22365172 -4.66808131 0.11170654
v 4.15888424 -4.74997996 0.10971946
v 4.29420203 -4.79285199 0.10459492
v 4.30750256 -4.87702108 0.10051619
v 3.87697197 -4.87702108 0.10982407
v 3.90444038 -4.66808131 0.11839985
v 3.93190880 -4.87702108 0.10877822
v 3.99176080 -4.87702108 0.10762781
v 4.02674691 -4.83073319 0.10898740
v 4.00188072 -4.69536723 0.11536692
v 3.93161953 -4.66808131 0.11787692
v 4.09903209 -4.66808131 0.11453029
v 4.09903209 -4.69536723 0.11337988
v 4.09903209 -4.76472745 0.11034695
v 4.11117599 -4.87702108 0.10511784
v 4.21006207 -4.87702108 0.10281702
v 4.02906002 -4.66808131 0.11599441
f 1 2 6
f 1 6 14
f 1 14 13
f 1 13 9
f 1 9 3
f 1 3 10
f 1 10 4
f 1 4 11
f 1 11 18
f 1 18 29
f 1 29 38
f 1 38 44
f 1 44 49
f 1 49 56
f 1 56 59
f 1 59 58
f 1 58 66
f 1 66 75
f 1 75 87
f 1 87 86
f 1 86 79
f 1 79 78
f 1 78 76
f 1 76 67
f 1 67 61
f 1 61 60
f 1 60 52
f 1 52 46
f 1 46 42
f 1 42 33
f 1 33 24
f 1 24 15
f 1 15 7
f 1 7 2
f 2 5 6
f 2 7 8
f 2 8 5
f 3 9 12
f 3 12 5
f 3 5 8
f 3 8 16
f 3 16 26
f 3 26 35
f 3 35 43
f 3 43 48
f 3 48 55
f 3 55 63
f 3 63 69
f 3 69 77
f 3 77 82
f 3 82 88
f 3 88 83
f 3 83 72
f 3 72 64
f 3 64 57
f 3 57 50
f 3 50 45
f 3 45 41
f 3 41 32
f 3 32 23
f 3 23 22
f 3 22 21
f 3 21 20
f 3 20 31
f 3 31 40
f 3 40 39
f 3 39 37
f 3 37 28
f 3 28 17
f 3 17 10
f 4 10 17
f 4 17 27
f 4 27 36
f 4 36 30
f 4 30 19
f 4 19 11
f 5 12 13
f 5 13 14
f 5 14 6
f 7 15 8
f 8 15 16
f 9 13 12
f 11 19 20
f 11 20 21
f 11 21 22
f 11 22 23
f 11 23 18
f 15 24 25
f 15 25 16
f 16 25 26
f 17 28 27
f 18 23 29
f 19 30 31
f 19 31 20
f 23 32 29
f 24 33 34
f 24 34 35
f 24 35 25
f 25 35 26
f 27 28 37
f 27 37 36
f 29 32 38
f 30 36 39
f 30 39 40
f 30 40 31
f 32 41 38
f 33 42 43
f 33 43 34
f 34 43 35
f 36 37 39
f 38 41 45
f 38 45 44
f 42 46 47
f 42 47 43
f 43 47 48
f 44 45 49
f 45 50 51
f 45 51 49
f 46 52 53
f 46 53 47
f 47 53 48
f 48 53 54
f 48 54 55
f 49 51 56
f 50 57 58
f 50 58 59
f 50 59 56
f 50 56 51
f 52 60 53
f 53 60 54
f 54 60 61
f 54 61 62
f 54 62 63
f 54 63 55
f 57 64 65
f 57 65 58
f 58 65 66
f 61 67 68
f 61 68 62
f 62 69 63
f 62 68 70
f 62 70 71
f 62 71 77
f 62 77 69
f 64 72 73
f 64 73 74
f 64 74 65
f 65 74 75
f 65 75 66
f 67 76 68
f 68 76 70
f 70 78 79
f 70 79 80
f 70 80 81
f 70 81 71
f 70 76 78
f 71 82 77
f 71 81 88
f 71 88 82
f 72 83 84
f 72 84 73
f 73 84 85
f 73 85 80
f 73 80 86
f 73 86 87
f 73 87 75
f 73 75 74
f 79 86 80
f 80 85 84
f 80 84 81
f 81 84 88
f 83 88 84

