# https://github.com/mikedh/trimesh
v -2.24302153 -3.56034825 -0.81677701
v -2.21616623 -3.56034825 -0.90155346
v -2.24302153 -3.56034825 -0.67156035
v -2.24302153 -0.86297809 -0.81677701
v -2.18907905 -3.56034825 -0.91566956
v -2.21616623 -0.86297809 -0.90155346
v -2.17148400 -3.56034825 -0.67156035
v -2.24302153 -0.86297809 -0.67156035
v -2.14057695 -3.56034825 -0.94088632
v -2.14057695 -0.86297809 -0.94088632
v -1.06045190 -3.56034825 -0.74811800
v -1.06056754 -3.55982013 -0.67156035
v -2.17148400 -0.86297809 -0.67156035
v -2.10561845 -3.56034825 -0.94206045
v -2.07297494 -0.86297809 -0.94315453
v -1.06045190 -3.56034825 -0.94411516
v -1.06045190 -0.86297809 -0.74811800
v -1.06056754 -0.86377019 -0.67156035
v -2.04310988 -3.56034825 -0.94411516
v -2.04310988 -0.86297809 -0.94411516
v -1.06045190 -0.86297809 -0.94411516
f 1 2 5
f 1 5 9
f 1 9 14
f 1 14 19
f 1 19 16
f 1 16 11
f 1 11 7
f 1 7 3
f 1 3 8
f 1 8 4
f 1 4 6
f 1 6 2
f 2 6 5
f 3 7 12
f 3 12 18
f 3 18 13
f 3 13 8
f 4 8 13
f 4 13 17
f 4 17 21
f 4 21 20
f 4 20 15
f 4 15 10
f 4 10 6
f 5 6 10
f 5 10 9
f 7 11 12
f 9 10 14
f 10 15 14
f 11 16 21
f 11 21 17
f 11 17 18
f 11 18 12
f 13 18 17
f 14 15 19
f 15 20 19
f 16 19 20
f 16 20 21

