# https://github.com/mikedh/trimesh
v 3.05979474 -8.72773494 -0.71926239
v 3.05979474 -8.72748127 -0.78369284
v 3.15356933 -8.72773494 -0.71926239
v 3.05979474 -8.72773494 -0.23185489
v 3.15356933 -8.72746616 -0.78743672
v 3.05979474 -8.72734673 -0.81677875
v 3.15356933 -8.72773494 -0.23185489
v 3.05979474 -8.72727205 -0.13433857
v 3.15356933 -8.72734673 -0.81677875
v 3.05979474 -8.68554233 -0.90480461
v 3.15356933 -8.69812849 -0.87833591
v 3.15356933 -8.72722731 -0.13433857
v 3.12422977 -8.72724212 -0.13433857
v 3.05979474 -8.68925992 -0.05467121
v 3.05979474 -8.59536399 -0.94415940
v 3.15356933 -8.62250696 -0.93231813
v 3.15356933 -8.68554233 -0.90480461
v 3.15356933 -8.68911057 -0.05467121
v 3.12422977 -8.68917013 -0.05467121
v 3.05979474 -8.57520812 -0.05467121
v 3.15356933 -8.59536399 -0.94415940
v 3.05979474 -8.57520812 -0.94415940
v 3.15356933 -8.57520812 -0.05467121
v 3.15356933 -8.57520812 -0.94415940
f 1 2 3
f 1 3 7
f 1 7 4
f 1 4 8
f 1 8 14
f 1 14 20
f 1 20 22
f 1 22 15
f 1 15 10
f 1 10 6
f 1 6 2
f 2 5 3
f 2 6 5
f 3 5 9
f 3 9 11
f 3 11 17
f 3 17 16
f 3 16 21
f 3 21 24
f 3 24 23
f 3 23 18
f 3 18 12
f 3 12 7
f 4 7 8
f 5 6 9
f 6 10 11
f 6 11 9
f 7 12 13
f 7 13 8
f 8 13 14
f 10 15 16
f 10 16 17
f 10 17 11
f 12 18 19
f 12 19 14
f 12 14 13
f 14 19 18
f 14 18 23
f 14 23 20
f 15 21 16
f 15 22 24
f 15 24 21
f 20 23 24
f 20 24 22

