# https://github.com/mikedh/trimesh
v -1.11313243 -8.72446716 -0.82274225
v -1.11313243 -8.72735661 -0.81668446
v -1.11313243 -8.37632742 -0.82274225
v 3.05979467 -8.72446716 -0.82274225
v -1.11313243 -8.72773494 -0.71922109
v 3.05979467 -8.72735661 -0.81668446
v -1.11313243 -8.37632742 -0.13518152
v 3.05979467 -8.37632742 -0.82274225
v -1.11313243 -8.72773494 -0.23190445
v 3.05979467 -8.72773494 -0.71922109
v -1.11313243 -8.68718000 -0.13518152
v 3.05979467 -8.37632742 -0.13518152
v -0.28884031 -8.71621170 -0.13518152
v -0.38646458 -8.71445751 -0.13518152
v -0.48408885 -8.71239357 -0.13518152
v -0.58130458 -8.71005446 -0.13518152
v -0.67892885 -8.70730274 -0.13518152
v -0.77655312 -8.70413811 -0.13518152
v -0.87376914 -8.70038885 -0.13518152
v -1.11313243 -8.70768106 -0.17926887
v 3.05979467 -8.72773494 -0.23190445
v 2.63580298 -8.72728774 -0.13518152
v 2.44055444 -8.72725346 -0.13518152
v 2.24571444 -8.72718459 -0.13518152
v 2.05046590 -8.72701257 -0.13518152
v 1.66037728 -8.72663425 -0.13518152
v 1.36832134 -8.72618705 -0.13518152
v 1.17348134 -8.72580873 -0.13518152
v 1.07585707 -8.72560242 -0.13518152
v 0.88101692 -8.72508637 -0.13518152
v 0.68617692 -8.72453602 -0.13518152
v 0.58855265 -8.72419198 -0.13518152
v 0.49133678 -8.72374479 -0.13518152
v 0.39371251 -8.72326331 -0.13518152
v 0.29649678 -8.72264410 -0.13518152
v 0.19887251 -8.72192174 -0.13518152
v 0.10124823 -8.72109622 -0.13518152
v 0.00403251 -8.72016755 -0.13518152
v -0.09359177 -8.71903228 -0.13518152
v -0.19121604 -8.71772529 -0.13518152
v -1.06860943 -8.69096384 -0.13518152
v 3.05979467 -8.72725346 -0.13518152
v -0.97139341 -8.69605467 -0.13518152
v 2.92908435 -8.72728774 -0.13518152
f 1 2 5
f 1 5 9
f 1 9 20
f 1 20 11
f 1 11 7
f 1 7 3
f 1 3 8
f 1 8 4
f 1 4 6
f 1 6 2
f 2 6 10
f 2 10 5
f 3 7 12
f 3 12 8
f 4 8 12
f 4 12 42
f 4 42 21
f 4 21 10
f 4 10 6
f 5 10 21
f 5 21 9
f 7 11 41
f 7 41 43
f 7 43 19
f 7 19 18
f 7 18 17
f 7 17 16
f 7 16 15
f 7 15 14
f 7 14 13
f 7 13 40
f 7 40 39
f 7 39 38
f 7 38 37
f 7 37 36
f 7 36 35
f 7 35 34
f 7 34 33
f 7 33 32
f 7 32 31
f 7 31 30
f 7 30 29
f 7 29 28
f 7 28 27
f 7 27 26
f 7 26 25
f 7 25 24
f 7 24 23
f 7 23 22
f 7 22 44
f 7 44 42
f 7 42 12
f 9 13 14
f 9 14 15
f 9 15 16
f 9 16 17
f 9 17 18
f 9 18 19
f 9 19 20
f 9 21 44
f 9 44 22
f 9 22 23
f 9 23 24
f 9 24 25
f 9 25 26
f 9 26 27
f 9 27 28
f 9 28 29
f 9 29 30
f 9 30 31
f 9 31 32
f 9 32 33
f 9 33 34
f 9 34 35
f 9 35 36
f 9 36 37
f 9 37 38
f 9 38 39
f 9 39 40
f 9 40 13
f 11 20 41
f 19 43 20
f 20 43 41
f 21 42 44

