# https://github.com/mikedh/trimesh
v 1.70649515 -5.35598781 -0.94415984
v 1.70649515 -5.28287000 -0.94415984
v 1.75927571 -5.35598781 -0.94415984
v 1.70649515 -5.35598781 0.09061598
v 1.70649515 -5.28287000 0.09389121
v 1.76191477 -5.28287000 -0.94415984
v 3.50384982 -5.35598781 -0.94405749
v 1.71845876 -5.35598781 0.09082065
v 1.75681267 -5.28287000 0.09460768
v 3.50384982 -5.28287000 -0.94405749
v 3.50384982 -5.35598781 0.09389121
v 1.78126763 -5.35598781 0.09163949
v 1.85674388 -5.28287000 0.09583590
v 3.50384982 -5.28287000 0.09716647
v 3.50384982 -5.29075083 0.09685940
v 3.41658591 -5.35598781 0.09491475
v 1.85674388 -5.35598781 0.09256064
v 1.95438798 -5.28287000 0.09696176
v 3.41412280 -5.28287000 0.09819001
v 3.50384982 -5.28842451 0.09696176
v 3.31911775 -5.28287000 0.09911116
v 3.34110967 -5.35598781 0.09563119
v 1.95438798 -5.35598781 0.09368653
v 2.04851332 -5.28287000 0.09788295
v 3.22164966 -5.28287000 0.09982760
v 3.24346564 -5.35598781 0.09645002
v 3.31911775 -5.35598781 0.09583590
v 2.14932423 -5.35598781 0.09552884
v 2.14615739 -5.28287000 0.09880410
v 3.12418150 -5.28287000 0.10044173
v 3.14599748 -5.35598781 0.09706411
v 2.17114021 -5.35598781 0.09573354
v 2.24362551 -5.28287000 0.09952058
v 3.02671338 -5.28287000 0.10095350
v 3.04852935 -5.35598781 0.09757588
v 2.24679236 -5.35598781 0.09624532
v 2.34426048 -5.35598781 0.09685940
v 2.34109368 -5.28287000 0.10003231
v 2.92906931 -5.28287000 0.10126053
v 3.02671338 -5.35598781 0.09767824
v 2.44190457 -5.35598781 0.09737118
v 2.46372053 -5.35598781 0.09747353
v 2.53937269 -5.35598781 0.09778059
v 2.53602993 -5.28287000 0.10074879
v 2.82913807 -5.28287000 0.10146524
v 2.83160116 -5.35598781 0.09819001
v 2.92906931 -5.35598781 0.09798530
v 2.65848087 -5.35598781 0.09808766
v 2.73096620 -5.28287000 0.10136288
v 2.73413303 -5.35598781 0.09819001
f 1 2 6
f 1 6 3
f 1 3 7
f 1 7 11
f 1 11 16
f 1 16 22
f 1 22 27
f 1 27 26
f 1 26 31
f 1 31 35
f 1 35 40
f 1 40 47
f 1 47 46
f 1 46 50
f 1 50 48
f 1 48 43
f 1 43 42
f 1 42 41
f 1 41 37
f 1 37 36
f 1 36 32
f 1 32 28
f 1 28 23
f 1 23 17
f 1 17 12
f 1 12 8
f 1 8 4
f 1 4 5
f 1 5 2
f 2 5 9
f 2 9 13
f 2 13 18
f 2 18 24
f 2 24 29
f 2 29 33
f 2 33 38
f 2 38 44
f 2 44 49
f 2 49 45
f 2 45 39
f 2 39 34
f 2 34 30
f 2 30 25
f 2 25 21
f 2 21 19
f 2 19 14
f 2 14 10
f 2 10 6
f 3 6 7
f 4 8 5
f 5 8 9
f 6 10 7
f 7 10 14
f 7 14 20
f 7 20 15
f 7 15 11
f 8 12 9
f 9 12 13
f 11 15 16
f 12 17 13
f 13 17 23
f 13 23 18
f 14 19 20
f 15 20 19
f 15 19 16
f 16 19 21
f 16 21 22
f 18 23 24
f 21 25 26
f 21 26 27
f 21 27 22
f 23 28 24
f 24 28 29
f 25 30 31
f 25 31 26
f 28 32 29
f 29 32 33
f 30 34 35
f 30 35 31
f 32 36 33
f 33 36 37
f 33 37 38
f 34 39 47
f 34 47 40
f 34 40 35
f 37 41 38
f 38 41 42
f 38 42 43
f 38 43 44
f 39 45 46
f 39 46 47
f 43 48 49
f 43 49 44
f 45 49 50
f 45 50 46
f 48 50 49

