# https://github.com/mikedh/trimesh
v 3.05979467 -8.19350551 -0.05467119
v 3.05979467 -8.68924510 -0.05467119
v 3.05979467 -8.19350551 -0.13511424
v 0.95229279 -8.19350551 -0.05467119
v 3.02658127 -8.68929711 -0.05467119
v 3.05979467 -8.72723399 -0.13427170
v 3.05979467 -8.72723399 -0.13511424
v 0.95229279 -8.19350551 -0.13511424
v 0.95229279 -8.67863717 -0.05467119
v 3.02658127 -8.72728629 -0.13427170
v 2.92921045 -8.68940172 -0.05467119
v 3.02658127 -8.72728629 -0.13511424
v 0.95229279 -8.72530081 -0.13511424
v 0.95229279 -8.68344469 -0.05637203
v 0.98364950 -8.67963005 -0.05467119
v 2.83163325 -8.68945402 -0.05467119
v 2.53910804 -8.72728629 -0.13427170
v 2.73405606 -8.72733859 -0.13511424
v 0.95229279 -8.72530081 -0.13450793
v 1.36859447 -8.72618909 -0.13511424
v 0.95229279 -8.69499292 -0.07771904
v 0.97931736 -8.68354930 -0.05611217
v 1.07833856 -8.68239950 -0.05467119
v 2.72497915 -8.68945402 -0.05467119
v 2.73323090 -8.72733859 -0.13511424
v 2.62740195 -8.68940172 -0.05467119
v 2.24658282 -8.72712967 -0.13427170
v 2.24575763 -8.72718198 -0.13511424
v 2.34333479 -8.72723399 -0.13511424
v 1.27184250 -8.72597988 -0.13427170
v 1.17426530 -8.72577095 -0.13427170
v 0.97931736 -8.72535282 -0.13427170
v 1.17426530 -8.68417635 -0.05467119
v 1.46596537 -8.72634571 -0.13511424
v 1.07689441 -8.68375822 -0.05519877
v 1.13445060 -8.68386282 -0.05467119
v 2.53003109 -8.68934942 -0.05467119
v 2.05163472 -8.72702507 -0.13427170
v 2.05080957 -8.72702507 -0.13511424
v 1.66173869 -8.72660693 -0.13427170
v 2.43286650 -8.68924510 -0.05467119
v 2.33549561 -8.68908819 -0.05467119
v 2.14116648 -8.68867006 -0.05467119
v 2.05163472 -8.68840883 -0.05467119
v 1.95426390 -8.68809531 -0.05467119
v 1.85049787 -8.68772948 -0.05467119
v 1.65699393 -8.68689350 -0.05467119
v 1.46348998 -8.68595291 -0.05467119
v 1.27039850 -8.68480341 -0.05467119
v 1.66091346 -8.72660693 -0.13511424
f 1 2 6
f 1 6 7
f 1 7 3
f 1 3 8
f 1 8 4
f 1 4 9
f 1 9 15
f 1 15 23
f 1 23 36
f 1 36 33
f 1 33 49
f 1 49 48
f 1 48 47
f 1 47 46
f 1 46 45
f 1 45 44
f 1 44 43
f 1 43 42
f 1 42 41
f 1 41 37
f 1 37 26
f 1 26 24
f 1 24 16
f 1 16 11
f 1 11 5
f 1 5 2
f 2 5 10
f 2 10 6
f 3 7 12
f 3 12 18
f 3 18 25
f 3 25 29
f 3 29 28
f 3 28 39
f 3 39 50
f 3 50 34
f 3 34 20
f 3 20 13
f 3 13 8
f 4 8 13
f 4 13 19
f 4 19 21
f 4 21 14
f 4 14 9
f 5 11 10
f 6 10 12
f 6 12 7
f 9 14 15
f 10 11 16
f 10 16 24
f 10 24 17
f 10 17 25
f 10 25 18
f 10 18 12
f 13 20 19
f 14 21 22
f 14 22 15
f 15 22 23
f 17 24 26
f 17 26 27
f 17 27 28
f 17 28 29
f 17 29 25
f 19 20 30
f 19 30 31
f 19 31 32
f 19 32 33
f 19 33 21
f 20 34 30
f 21 33 22
f 22 33 35
f 22 35 23
f 23 35 36
f 26 37 38
f 26 38 27
f 27 38 28
f 28 38 39
f 30 34 40
f 30 40 41
f 30 41 42
f 30 42 31
f 31 42 32
f 32 42 43
f 32 43 44
f 32 44 45
f 32 45 46
f 32 46 47
f 32 47 48
f 32 48 49
f 32 49 33
f 33 36 35
f 34 50 40
f 37 41 40
f 37 40 38
f 38 40 50
f 38 50 39

