# https://github.com/mikedh/trimesh
v 2.56763660 -3.25755644 -0.07720904
v 2.56771894 -3.25755644 -0.16139246
v 2.56763660 -3.25755644 0.13091833
v 2.56763660 -0.50796457 -0.07720904
v 3.40867871 -3.25755644 -0.16139246
v 2.56771894 -0.50796457 -0.16139246
v 2.92924765 -3.25755644 0.14995672
v 2.56763660 -2.93996461 0.15853697
v 2.56763660 -0.50796457 0.13302291
v 3.40876101 -3.25755644 0.02533286
v 3.40867871 -0.50796457 -0.16139246
v 3.02664880 -3.25755644 0.15484583
v 2.56763660 -2.84253386 0.16598395
v 2.63317450 -0.50796457 0.13318480
v 2.56763660 -0.57229038 0.13454468
v 2.63679718 -0.60055060 0.13538650
v 3.40876101 -3.25755644 0.16455931
v 3.40876101 -0.50796457 0.02533286
v 3.12413229 -3.25755644 0.15921691
v 3.22161577 -3.25755644 0.16281086
v 3.22161577 -3.23252593 0.16387937
v 3.31918161 -3.25755644 0.16472119
v 2.56763660 -2.74483404 0.16902752
v 2.72917596 -0.50796457 0.13331432
v 2.56763660 -0.69798135 0.13745872
v 2.63679718 -0.69798135 0.13765301
v 2.73428067 -0.60055060 0.13548366
v 3.40876101 -3.23252593 0.16498020
v 3.31918161 -3.23252593 0.16536877
v 3.40876101 -0.50796457 0.13010887
v 3.22161577 -3.13509518 0.16672865
v 2.63679718 -2.74483404 0.16922176
v 2.56763660 -2.71684289 0.16893039
v 2.92924765 -2.93996461 0.16821805
v 2.83176416 -2.84253386 0.16928656
v 2.73428067 -0.50796457 0.13331432
v 2.56763660 -0.79568118 0.13969283
v 2.73428067 -0.69798135 0.13775013
v 2.63679718 -0.79568118 0.13988707
v 2.73428067 -0.89311193 0.14221834
v 2.83176416 -0.60055060 0.13545127
v 3.40876101 -3.13509518 0.16566018
v 3.31918161 -3.13509518 0.16653440
v 3.31918161 -0.50796457 0.13095069
v 3.31918161 -0.60055060 0.13312004
v 3.40876101 -0.69798135 0.13454468
v 3.22161577 -3.03739536 0.16773236
v 3.12413229 -3.03739536 0.16786188
v 2.73428067 -2.74483404 0.16935129
v 2.63679718 -2.64740329 0.16886559
v 2.56763660 -2.64740329 0.16867135
v 3.02664880 -2.93996461 0.16893039
v 2.92924765 -2.84253386 0.16931889
v 2.83176416 -0.50796457 0.13328192
v 2.56763660 -0.89311193 0.14189453
v 2.83176416 -0.69798135 0.13771773
v 2.63679718 -0.89311193 0.14208882
v 2.83176416 -0.89311193 0.14215358
v 2.83176416 -0.79568118 0.13995184
v 2.63679718 -0.99054268 0.14425816
v 2.73428067 -0.99054268 0.14435528
v 2.83176416 -0.99054268 0.14432292
v 2.92924765 -0.60055060 0.13532174
v 3.40876101 -3.04573887 0.16604871
v 3.31918161 -3.03739536 0.16695530
v 3.22161577 -0.50796457 0.13172776
v 3.22161577 -0.60055060 0.13389710
v 3.31918161 -0.69798135 0.13538650
v 3.40876101 -0.79568118 0.13677878
v 3.22161577 -2.93996461 0.16792664
v 3.12413229 -2.93996461 0.16850946
v 2.83176416 -2.74483404 0.16928656
v 2.83176416 -2.64740329 0.16893039
v 2.73428067 -2.64740329 0.16896275
v 2.73428067 -2.54997254 0.16844470
v 2.63679718 -2.54997254 0.16831518
v 2.56763660 -2.54997254 0.16815329
v 3.02664880 -2.84253386 0.16899512
v 2.92924765 -2.74483404 0.16912464
v 2.92414294 -0.50796457 0.13315240
v 2.56763660 -0.99054268 0.14406387
v 2.92924765 -0.69798135 0.13758825
v 2.92924765 -0.89311193 0.14202405
v 2.92924765 -0.79568118 0.13982235
v 2.56763660 -1.15741303 0.14762550
v 2.63679718 -1.18567325 0.14840256
v 2.73428067 -1.08824250 0.14645986
v 2.92924765 -0.99054268 0.14416104
v 2.83176416 -1.08824250 0.14642750
v 3.02664880 -0.60055060 0.13499797
v 3.40876101 -3.03739536 0.16608111
v 3.40876101 -2.94803904 0.16627536
v 3.31918161 -2.93996461 0.16714954
v 3.11902758 -0.50796457 0.13237534
v 3.12413229 -0.60055060 0.13451228
v 3.22161577 -0.69798135 0.13616360
v 3.31918161 -0.79568118 0.13762061
v 3.31918161 -0.89311193 0.13982235
v 3.40876101 -0.90118636 0.13914241
v 3.22161577 -2.84253386 0.16792664
v 3.12413229 -2.84253386 0.16850946
v 2.92924765 -2.64740329 0.16876847
v 2.92924765 -2.54997254 0.16825045
v 2.83176416 -2.54997254 0.16837994
v 2.83176416 -2.45281100 0.16770000
v 2.73428067 -2.45281100 0.16773236
v 2.63679718 -2.45281100 0.16763524
v 2.56763660 -2.45281100 0.16744099
v 3.12413229 -2.74483404 0.16834758
v 3.02664880 -2.74483404 0.16880087
v 3.02154409 -0.50796457 0.13282863
v 3.02664880 -0.69798135 0.13726444
v 3.02664880 -0.89311193 0.14170025
v 3.02664880 -0.79568118 0.13949854
v 2.56763660 -1.18567325 0.14820828
v 2.56763660 -1.25484378 0.14963295
v 2.63679718 -1.28310400 0.15037762
v 2.73428067 -1.28310400 0.15050714
v 2.73428067 -1.18567325 0.14849972
v 3.02664880 -0.99054268 0.14383723
v 2.92924765 -1.08824250 0.14626558
v 2.83176416 -1.18567325 0.14846732
v 3.40876101 -2.84253386 0.16627536
v 3.31918161 -2.84253386 0.16714954
v 3.12413229 -0.69798135 0.13677878
v 3.22161577 -0.79568118 0.13839767
v 3.22161577 -0.89311193 0.14059941
v 3.31918161 -0.99054268 0.14199169
v 3.40876101 -0.99054268 0.14111747
v 3.22161577 -2.74483404 0.16773236
v 3.02664880 -2.64740329 0.16844470
v 3.02664880 -2.54997254 0.16792664
v 2.92924765 -2.45281100 0.16757051
v 2.83176416 -2.35484197 0.16689054
v 2.73428067 -2.35484197 0.16692290
v 2.63679718 -2.35484197 0.16679341
v 2.56763660 -2.42428156 0.16721434
v 3.22161577 -2.64740329 0.16737619
v 3.12413229 -2.64740329 0.16795901
v 3.12413229 -0.89311193 0.14121459
v 3.12413229 -0.79568118 0.13901289
v 2.56763660 -1.35227453 0.15157565
v 2.63679718 -1.38080382 0.15232031
v 2.83176416 -1.38080382 0.15238511
v 2.83176416 -1.28310400 0.15044242
v 2.73428067 -1.38080382 0.15241748
v 3.12413229 -0.99054268 0.14335157
v 3.02664880 -1.08824250 0.14594181
v 2.92924765 -1.18567325 0.14830544
v 3.40876101 -2.74483404 0.16608111
v 3.31918161 -2.74483404 0.16695530
v 3.22161577 -0.99054268 0.14276876
v 3.31918161 -1.08824250 0.14409627
v 3.40876101 -1.08824250 0.14322205
v 3.12413229 -2.54997254 0.16744099
v 3.02664880 -2.45281100 0.16724670
v 2.92924765 -2.35484197 0.16672865
v 2.83176416 -2.25768043 0.16591919
v 2.73428067 -2.25768043 0.16595159
v 2.63679718 -2.25768043 0.16585446
v 2.56763660 -2.35484197 0.16653440
v 3.31918161 -2.64740329 0.16659913
v 3.31918161 -2.54997254 0.16608111
v 3.22161577 -2.54997254 0.16682577
v 2.56763660 -1.38080382 0.15212607
v 2.63679718 -1.47823457 0.15416589
v 2.73428067 -1.47823457 0.15429541
v 2.92924765 -1.38080382 0.15222319
v 2.83176416 -1.47823457 0.15423065
v 2.92924765 -1.47823457 0.15410113
v 2.92924765 -1.28310400 0.15028050
v 3.12413229 -1.08824250 0.14545615
v 3.02664880 -1.18567325 0.14798163
v 3.12413229 -1.18567325 0.14752834
v 3.02664880 -1.28310400 0.14998912
v 3.40876101 -2.64740329 0.16572494
v 3.22161577 -1.18567325 0.14691316
v 3.31918161 -1.18567325 0.14613609
v 3.40876101 -1.18567325 0.14526187
v 3.12413229 -2.45281100 0.16676105
v 3.12413229 -2.35484197 0.16595159
v 3.02664880 -2.35484197 0.16640488
v 3.02664880 -2.25768043 0.16546589
v 2.92924765 -2.25768043 0.16575730
v 2.83176416 -2.16024968 0.16485072
v 2.73428067 -2.16024968 0.16488308
v 2.56763660 -2.32658174 0.16624296
v 2.63679718 -2.16024968 0.16478595
v 3.40876101 -2.54997254 0.16520685
v 3.31918161 -2.45281100 0.16540117
v 3.22161577 -2.45281100 0.16614583
v 2.56763660 -1.47823457 0.15397164
v 2.56763660 -1.54740510 0.15526676
v 2.63679718 -1.57566532 0.15594670
v 2.73428067 -1.57566532 0.15604382
v 2.83176416 -1.57566532 0.15601146
v 3.02664880 -1.38080382 0.15189942
v 2.92924765 -1.57566532 0.15584957
v 3.02664880 -1.57566532 0.15555817
v 3.02664880 -1.47823457 0.15377736
v 3.12413229 -1.28310400 0.14950343
v 3.12413229 -1.38080382 0.15144613
v 3.22161577 -1.28310400 0.14888825
v 3.31918161 -1.28310400 0.14814355
v 3.40876101 -1.28310400 0.14726933
v 3.22161577 -2.35484197 0.16533637
v 3.12413229 -2.25768043 0.16498020
v 3.02664880 -2.16024968 0.16436506
v 2.92924765 -2.16024968 0.16468883
v 2.83176416 -2.06281908 0.16362032
v 2.73428067 -2.06281908 0.16365272
v 2.63679718 -2.06281908 0.16355560
v 2.56763660 -1.77079589 0.15908739
v 3.40876101 -2.45281100 0.16452691
v 3.31918161 -2.35484197 0.16455931
v 2.56763660 -1.67336514 0.15746846
v 2.63679718 -1.67336514 0.15766275
v 2.73428067 -1.67336514 0.15775987
v 2.83176416 -1.67336514 0.15772751
v 2.92924765 -1.67336514 0.15756559
v 3.02664880 -1.67336514 0.15724182
v 3.12413229 -1.57566532 0.15507247
v 3.12413229 -1.47823457 0.15329170
v 3.22161577 -1.38080382 0.15083095
v 3.31918161 -1.38080382 0.15005385
v 3.40876101 -1.38833982 0.14934155
v 3.40876101 -1.29117843 0.14743121
v 3.22161577 -2.25768043 0.16436506
v 3.12413229 -2.16024968 0.16387937
v 3.02664880 -2.06281908 0.16313467
v 2.92924765 -2.06281908 0.16345847
v 2.83176416 -1.96484989 0.16229284
v 2.73428067 -1.96484989 0.16232520
v 2.63679718 -1.96484989 0.16222808
v 2.63679718 -1.86822664 0.16080344
v 2.63679718 -1.77079589 0.15928164
v 3.40876101 -2.35484197 0.16368512
v 3.40876101 -2.25768043 0.16274613
v 3.31918161 -2.25768043 0.16358796
v 2.73428067 -1.77079589 0.15937880
v 2.83176416 -1.77079589 0.15934643
v 2.92924765 -1.77079589 0.15918451
v 3.12413229 -1.67336514 0.15675616
v 3.02664880 -1.77079589 0.15886074
v 3.22161577 -1.57566532 0.15445730
v 3.22161577 -1.67336514 0.15617334
v 3.22161577 -1.47823457 0.15267648
v 3.31918161 -1.47823457 0.15189942
v 3.40876101 -1.47823457 0.15105760
v 3.31918161 -2.16024968 0.16251949
v 3.22161577 -2.16024968 0.16326419
v 3.12413229 -2.06281908 0.16264901
v 3.02664880 -1.96484989 0.16180715
v 2.92924765 -1.96484989 0.16213092
v 2.83176416 -1.86822664 0.16086820
v 2.73428067 -1.86822664 0.16090056
v 3.40876101 -2.16024968 0.16164526
v 2.92924765 -1.86822664 0.16070631
v 3.12413229 -1.77079589 0.15837505
v 3.02664880 -1.86822664 0.16038254
v 3.31918161 -1.57566532 0.15368023
v 3.31918161 -1.67336514 0.15539628
v 3.22161577 -1.77079589 0.15779223
v 3.40876101 -1.57566532 0.15283841
v 3.40876101 -2.07035508 0.16051203
v 3.31918161 -2.06281908 0.16128913
v 3.22161577 -2.06281908 0.16203380
v 3.22161577 -1.96484989 0.16073868
v 3.12413229 -1.96484989 0.16132149
v 3.12413229 -1.86822664 0.15989685
v 3.31918161 -1.77079589 0.15701517
v 3.40876101 -1.67336514 0.15452206
v 3.22161577 -1.86822664 0.15931404
v 3.40876101 -2.06281908 0.16041487
v 3.40876101 -1.97292433 0.15921691
v 3.31918161 -1.96484989 0.15996158
v 3.40876101 -1.77079589 0.15614098
v 3.31918161 -1.86822664 0.15853697
v 3.40876101 -1.77887033 0.15627047
v 3.40876101 -1.87630108 0.15779223
f 1 2 5
f 1 5 10
f 1 10 17
f 1 17 22
f 1 22 20
f 1 20 19
f 1 19 12
f 1 12 7
f 1 7 3
f 1 3 8
f 1 8 13
f 1 13 23
f 1 23 33
f 1 33 51
f 1 51 77
f 1 77 108
f 1 108 137
f 1 137 161
f 1 161 187
f 1 187 213
f 1 213 216
f 1 216 193
f 1 193 192
f 1 192 165
f 1 165 142
f 1 142 116
f 1 116 115
f 1 115 85
f 1 85 81
f 1 81 55
f 1 55 37
f 1 37 25
f 1 25 15
f 1 15 9
f 1 9 4
f 1 4 6
f 1 6 2
f 2 6 11
f 2 11 5
f 3 7 8
f 4 9 14
f 4 14 24
f 4 24 36
f 4 36 54
f 4 54 80
f 4 80 111
f 4 111 94
f 4 94 66
f 4 66 44
f 4 44 30
f 4 30 18
f 4 18 11
f 4 11 6
f 5 11 18
f 5 18 10
f 7 12 8
f 8 12 13
f 9 15 16
f 9 16 14
f 10 18 30
f 10 30 46
f 10 46 69
f 10 69 99
f 10 99 129
f 10 129 154
f 10 154 179
f 10 179 205
f 10 205 227
f 10 227 226
f 10 226 249
f 10 249 264
f 10 264 272
f 10 272 277
f 10 277 279
f 10 279 280
f 10 280 275
f 10 275 274
f 10 274 265
f 10 265 257
f 10 257 238
f 10 238 237
f 10 237 214
f 10 214 189
f 10 189 176
f 10 176 150
f 10 150 123
f 10 123 92
f 10 92 91
f 10 91 64
f 10 64 42
f 10 42 28
f 10 28 17
f 12 19 13
f 13 19 20
f 13 20 21
f 13 21 22
f 13 22 23
f 14 16 24
f 15 25 26
f 15 26 16
f 16 27 24
f 16 26 38
f 16 38 27
f 17 28 29
f 17 29 22
f 20 22 21
f 22 29 31
f 22 31 23
f 23 32 33
f 23 31 34
f 23 34 35
f 23 35 32
f 24 27 36
f 25 37 39
f 25 39 26
f 26 39 40
f 26 40 38
f 27 41 54
f 27 54 36
f 27 38 56
f 27 56 41
f 28 42 43
f 28 43 29
f 29 43 31
f 30 44 45
f 30 45 46
f 31 43 47
f 31 47 48
f 31 48 34
f 32 49 50
f 32 50 33
f 32 35 49
f 33 50 51
f 34 48 52
f 34 52 35
f 35 52 53
f 35 53 49
f 37 55 57
f 37 57 39
f 38 40 56
f 39 57 40
f 40 58 59
f 40 59 56
f 40 57 60
f 40 60 61
f 40 61 62
f 40 62 58
f 41 63 54
f 41 56 82
f 41 82 63
f 42 64 43
f 43 64 65
f 43 65 47
f 44 66 67
f 44 67 45
f 45 67 96
f 45 96 68
f 45 68 46
f 46 68 97
f 46 97 69
f 47 65 93
f 47 93 70
f 47 70 71
f 47 71 52
f 47 52 48
f 49 72 73
f 49 73 74
f 49 74 50
f 49 53 72
f 50 74 75
f 50 75 76
f 50 76 77
f 50 77 51
f 52 71 78
f 52 78 53
f 53 78 110
f 53 110 79
f 53 79 72
f 54 63 80
f 55 81 60
f 55 60 57
f 56 59 84
f 56 84 82
f 58 83 84
f 58 84 59
f 58 62 83
f 60 81 85
f 60 85 86
f 60 86 87
f 60 87 61
f 61 87 89
f 61 89 62
f 62 88 83
f 62 89 121
f 62 121 88
f 63 90 111
f 63 111 80
f 63 82 112
f 63 112 90
f 64 91 65
f 65 91 92
f 65 92 93
f 66 94 67
f 67 95 125
f 67 125 96
f 67 94 95
f 68 96 126
f 68 126 97
f 69 97 98
f 69 98 99
f 70 93 124
f 70 124 100
f 70 100 101
f 70 101 71
f 71 101 78
f 72 79 102
f 72 102 73
f 73 102 103
f 73 103 104
f 73 104 75
f 73 75 74
f 75 104 105
f 75 105 106
f 75 106 107
f 75 107 76
f 76 107 77
f 77 107 108
f 78 101 109
f 78 109 110
f 79 110 131
f 79 131 102
f 82 84 114
f 82 114 112
f 83 88 120
f 83 120 113
f 83 113 114
f 83 114 84
f 85 115 86
f 86 115 116
f 86 116 117
f 86 117 118
f 86 118 119
f 86 119 87
f 87 119 122
f 87 122 89
f 88 121 148
f 88 148 120
f 89 122 149
f 89 149 121
f 90 112 125
f 90 125 95
f 90 95 94
f 90 94 111
f 92 123 124
f 92 124 93
f 96 125 141
f 96 141 126
f 97 126 127
f 97 127 98
f 98 127 152
f 98 152 128
f 98 128 99
f 99 128 129
f 100 124 151
f 100 151 130
f 100 130 109
f 100 109 101
f 102 131 132
f 102 132 103
f 103 132 156
f 103 156 133
f 103 133 105
f 103 105 104
f 105 133 134
f 105 134 135
f 105 135 106
f 106 135 107
f 107 135 136
f 107 136 137
f 107 137 108
f 109 130 138
f 109 138 139
f 109 139 131
f 109 131 110
f 112 114 141
f 112 141 125
f 113 140 141
f 113 141 114
f 113 120 147
f 113 147 140
f 116 142 117
f 117 142 143
f 117 143 118
f 118 144 145
f 118 145 122
f 118 122 119
f 118 143 146
f 118 146 144
f 120 148 172
f 120 172 147
f 121 149 173
f 121 173 148
f 122 145 171
f 122 171 149
f 123 150 151
f 123 151 124
f 126 141 140
f 126 140 127
f 127 140 152
f 128 152 153
f 128 153 154
f 128 154 129
f 130 151 162
f 130 162 138
f 131 139 155
f 131 155 132
f 132 155 180
f 132 180 156
f 133 156 182
f 133 182 157
f 133 157 134
f 134 157 184
f 134 184 158
f 134 158 159
f 134 159 135
f 135 159 160
f 135 160 136
f 136 160 137
f 137 160 161
f 138 162 163
f 138 163 164
f 138 164 155
f 138 155 139
f 140 147 152
f 142 165 143
f 143 165 192
f 143 192 166
f 143 166 167
f 143 167 146
f 144 168 171
f 144 171 145
f 144 146 167
f 144 167 169
f 144 169 170
f 144 170 168
f 147 172 152
f 148 173 174
f 148 174 172
f 149 171 175
f 149 175 173
f 150 176 162
f 150 162 151
f 152 172 174
f 152 174 177
f 152 177 153
f 153 177 178
f 153 178 179
f 153 179 154
f 155 164 191
f 155 191 180
f 156 180 181
f 156 181 182
f 157 182 183
f 157 183 184
f 158 184 209
f 158 209 185
f 158 185 186
f 158 186 159
f 159 186 188
f 159 188 160
f 160 187 161
f 160 188 187
f 162 176 189
f 162 189 163
f 163 189 214
f 163 214 190
f 163 190 191
f 163 191 164
f 166 192 193
f 166 193 194
f 166 194 167
f 167 194 195
f 167 195 196
f 167 196 169
f 168 170 200
f 168 200 197
f 168 197 175
f 168 175 171
f 169 196 170
f 170 196 198
f 170 198 199
f 170 199 200
f 173 175 174
f 174 175 201
f 174 201 203
f 174 203 177
f 175 197 202
f 175 202 201
f 177 203 204
f 177 204 178
f 178 204 205
f 178 205 179
f 180 191 206
f 180 206 181
f 181 206 228
f 181 228 207
f 181 207 183
f 181 183 182
f 183 207 229
f 183 229 208
f 183 208 209
f 183 209 184
f 185 209 231
f 185 231 210
f 185 210 211
f 185 211 186
f 186 211 212
f 186 212 188
f 187 188 212
f 187 212 213
f 190 214 237
f 190 237 215
f 190 215 206
f 190 206 191
f 193 216 217
f 193 217 194
f 194 217 218
f 194 218 195
f 195 218 219
f 195 219 196
f 196 219 220
f 196 220 198
f 197 200 202
f 198 220 199
f 199 220 221
f 199 221 243
f 199 243 222
f 199 222 223
f 199 223 200
f 200 223 202
f 201 202 224
f 201 224 203
f 202 223 247
f 202 247 224
f 203 224 204
f 204 224 225
f 204 225 226
f 204 226 227
f 204 227 205
f 206 215 239
f 206 239 228
f 207 228 251
f 207 251 229
f 208 229 252
f 208 252 230
f 208 230 231
f 208 231 209
f 210 231 254
f 210 254 232
f 210 232 233
f 210 233 211
f 211 233 234
f 211 234 212
f 212 234 213
f 213 234 235
f 213 235 236
f 213 236 217
f 213 217 216
f 215 237 238
f 215 238 239
f 217 236 240
f 217 240 218
f 218 240 241
f 218 241 219
f 219 241 242
f 219 242 220
f 220 242 244
f 220 244 221
f 221 244 259
f 221 259 243
f 222 245 247
f 222 247 223
f 222 243 246
f 222 246 245
f 224 247 248
f 224 248 225
f 225 248 249
f 225 249 226
f 228 239 250
f 228 250 251
f 229 251 267
f 229 267 252
f 230 252 269
f 230 269 253
f 230 253 254
f 230 254 231
f 232 254 258
f 232 258 255
f 232 255 256
f 232 256 233
f 233 256 235
f 233 235 234
f 235 256 240
f 235 240 236
f 238 250 239
f 238 257 250
f 240 256 255
f 240 255 241
f 241 255 258
f 241 258 242
f 242 258 260
f 242 260 244
f 243 259 263
f 243 263 246
f 244 260 270
f 244 270 259
f 245 246 262
f 245 262 261
f 245 261 248
f 245 248 247
f 246 263 271
f 246 271 262
f 248 261 264
f 248 264 249
f 250 257 265
f 250 265 266
f 250 266 267
f 250 267 251
f 252 267 268
f 252 268 269
f 253 269 270
f 253 270 260
f 253 260 258
f 253 258 254
f 259 270 273
f 259 273 263
f 261 262 264
f 262 271 277
f 262 277 272
f 262 272 264
f 263 273 278
f 263 278 271
f 265 274 266
f 266 274 275
f 266 275 276
f 266 276 268
f 266 268 267
f 268 276 278
f 268 278 273
f 268 273 270
f 268 270 269
f 271 278 280
f 271 280 279
f 271 279 277
f 275 280 278
f 275 278 276

