# https://github.com/mikedh/trimesh
v -1.06046381 -2.94012646 0.09494542
v -1.16575193 -2.94012646 0.09040599
v -1.16575193 -3.03783703 0.09021686
v -1.06046381 -3.02993389 0.09475629
v -1.06046381 -2.83499205 0.09488237
v -1.06826365 -2.84265561 0.09456713
v -1.16575193 -2.84265561 0.09040599
v -1.18379097 -2.94012646 0.08958639
v -1.18379097 -3.03783703 0.08933421
v -1.18379097 -3.05579849 0.08927115
v -1.18379097 -3.13530788 0.08895592
v -1.16575193 -3.13530788 0.08977552
v -1.06046381 -3.12740489 0.09437801
v -1.06046381 -2.74518462 0.09475629
v -1.16575193 -2.74518462 0.09021686
v -1.18379097 -2.84265561 0.08958639
v -1.18379097 -3.15326934 0.08882981
v -1.06826365 -3.13530788 0.09399972
v -1.06046381 -3.13530788 0.09431495
v -1.06046381 -2.64771377 0.09437801
v -1.06826365 -2.64771377 0.09406277
v -1.18379097 -2.74518462 0.08939723
v -1.16575193 -2.64771377 0.08983857
v -1.18379097 -3.23277873 0.08794716
v -1.16575193 -3.23277873 0.08870370
v -1.06046381 -3.22487574 0.09261267
v -1.06046381 -2.55024277 0.09381055
v -1.06826365 -2.55024277 0.09349532
v -1.16575193 -2.55024277 0.08933421
v -1.18379097 -2.64771377 0.08901897
v -1.18379097 -3.25074019 0.08756887
v -1.06826365 -3.23277873 0.09217132
v -1.06046381 -3.23277873 0.09236049
v -1.06046381 -2.45277192 0.09311703
v -1.06826365 -2.45277192 0.09280179
v -1.18379097 -2.56820423 0.08857763
v -1.16575193 -2.45277192 0.08864068
v -1.18379097 -2.45277192 0.08782105
v -1.18379097 -2.47073338 0.08794716
v -1.18379097 -3.33024973 0.08523612
v -1.16575193 -3.33024973 0.08586659
v -1.06826365 -3.33024973 0.08845152
v -1.06046381 -3.32234673 0.08895592
v -1.06046381 -2.34739793 0.09229743
v -1.16575193 -2.35530093 0.08782105
v -1.18379097 -2.35530093 0.08700146
v -1.18379097 -3.34821126 0.08454259
v -1.18379097 -3.43801862 0.08088585
v -1.17591849 -3.43801862 0.08113803
v -1.16575193 -3.43801862 0.08145326
v -1.07843021 -3.43801862 0.08365991
v -1.06826365 -3.43801862 0.08391212
v -1.06046381 -3.43801862 0.08403820
v -1.06046381 -2.05522467 0.08977552
v -1.16575193 -2.25782993 0.08687535
v -1.18379097 -2.27579153 0.08618182
v -1.18379097 -3.43801862 -0.54914762
v -1.06046381 -3.43801862 -0.54914762
v -1.06046381 -1.95775353 0.08876676
v -1.18379097 -2.25782993 0.08599270
v -1.18379097 -0.99142631 -0.54914762
v -1.06046381 -0.99142631 -0.54914762
v -1.06046381 -1.86794624 0.08737971
v -1.18379097 -1.86794624 0.08094886
v -1.18379097 -2.06288823 0.08372296
v -1.18379097 -2.16059851 0.08492088
v -1.18379097 -0.99142631 0.06443044
v -1.06046381 -0.99142631 0.06978948
v -1.18379097 -1.47806255 0.07432889
v -1.18379097 -1.57553340 0.07609423
v -1.18379097 -1.59349486 0.07640947
v -1.18379097 -1.69096600 0.07811175
v -1.18379097 -1.77047539 0.07943574
v -1.06046381 -1.37268842 0.07767040
v -1.06826365 -1.28288113 0.07558985
v -1.16575193 -1.38059170 0.07332013
v -1.16575193 -0.99142631 0.06525006
v -1.18379097 -1.00842975 0.06480873
v -1.06826365 -0.99142631 0.06947424
v -1.06046381 -1.08027587 0.07168090
v -1.18379097 -1.39855316 0.07281575
v -1.06046381 -1.28288113 0.07590509
v -1.16575193 -1.28288113 0.07136567
v -1.06826365 -1.18541028 0.07357233
v -1.18379097 -1.28288113 0.07054605
v -1.16575193 -1.08793943 0.06733063
v -1.18379097 -1.08793943 0.06651100
v -1.06046381 -1.18541028 0.07388757
v -1.18379097 -1.20361117 0.06890681
v -1.18379097 -1.10614032 0.06688929
f 1 2 3
f 1 3 4
f 1 4 13
f 1 13 19
f 1 19 26
f 1 26 33
f 1 33 43
f 1 43 53
f 1 53 58
f 1 58 62
f 1 62 68
f 1 68 80
f 1 80 88
f 1 88 82
f 1 82 74
f 1 74 63
f 1 63 59
f 1 59 54
f 1 54 44
f 1 44 34
f 1 34 27
f 1 27 20
f 1 20 14
f 1 14 5
f 1 5 6
f 1 6 7
f 1 7 2
f 2 8 3
f 2 7 16
f 2 16 8
f 3 9 10
f 3 10 11
f 3 11 12
f 3 12 13
f 3 13 4
f 3 8 9
f 5 14 6
f 6 14 7
f 7 14 15
f 7 15 22
f 7 22 16
f 8 16 22
f 8 22 30
f 8 30 36
f 8 36 39
f 8 39 38
f 8 38 46
f 8 46 56
f 8 56 60
f 8 60 66
f 8 66 65
f 8 65 64
f 8 64 73
f 8 73 72
f 8 72 71
f 8 71 70
f 8 70 69
f 8 69 81
f 8 81 85
f 8 85 89
f 8 89 90
f 8 90 87
f 8 87 78
f 8 78 67
f 8 67 61
f 8 61 57
f 8 57 48
f 8 48 47
f 8 47 40
f 8 40 31
f 8 31 24
f 8 24 17
f 8 17 11
f 8 11 10
f 8 10 9
f 11 17 12
f 12 18 13
f 12 17 18
f 13 18 19
f 14 20 21
f 14 21 15
f 15 21 23
f 15 23 30
f 15 30 22
f 17 24 18
f 18 24 25
f 18 25 19
f 19 25 26
f 20 27 28
f 20 28 21
f 21 28 29
f 21 29 23
f 23 29 30
f 24 31 25
f 25 32 26
f 25 31 32
f 26 32 33
f 27 34 35
f 27 35 28
f 28 35 37
f 28 37 29
f 29 36 30
f 29 37 38
f 29 38 39
f 29 39 36
f 31 40 32
f 32 40 41
f 32 41 42
f 32 42 43
f 32 43 33
f 34 44 35
f 35 44 37
f 37 44 45
f 37 45 46
f 37 46 38
f 40 47 41
f 41 47 48
f 41 48 49
f 41 49 50
f 41 50 42
f 42 50 51
f 42 51 52
f 42 52 43
f 43 52 53
f 44 54 45
f 45 54 46
f 46 54 55
f 46 55 56
f 48 57 58
f 48 58 53
f 48 53 52
f 48 52 51
f 48 51 50
f 48 50 49
f 54 59 55
f 55 60 56
f 55 59 60
f 57 61 62
f 57 62 58
f 59 63 64
f 59 64 65
f 59 65 66
f 59 66 60
f 61 67 77
f 61 77 79
f 61 79 68
f 61 68 62
f 63 69 70
f 63 70 71
f 63 71 72
f 63 72 73
f 63 73 64
f 63 74 75
f 63 75 76
f 63 76 69
f 67 78 77
f 68 79 80
f 69 76 81
f 74 82 75
f 75 83 76
f 75 82 88
f 75 88 84
f 75 84 86
f 75 86 83
f 76 83 85
f 76 85 81
f 77 78 86
f 77 86 79
f 78 87 86
f 79 86 84
f 79 84 80
f 80 84 88
f 83 89 85
f 83 86 90
f 83 90 89
f 86 87 90

