# https://github.com/mikedh/trimesh
v -0.36478438 -6.47363596 -0.94416042
v -0.36556543 -6.45956091 -0.44290017
v -0.36556543 -6.45472331 -0.55474931
v -0.36478438 -6.35596712 -0.94416042
v -0.16638602 -6.47363596 -0.94416042
v -0.36478438 -6.47363596 -0.37516681
v -0.36556543 -6.35891570 -0.44290017
v -0.36556543 -6.35596712 -0.55474931
v -0.18591338 -6.35596712 -0.94416042
v 7.41337107 -6.35596712 -0.94404899
v 7.41337107 -6.47363596 -0.94404899
v -0.36478438 -6.35596712 -0.37516681
v 7.61333154 -6.47363596 -0.37516681
v -0.36556543 -6.35596712 -0.45610148
v 7.41649531 -6.35596712 -0.94399334
v 7.43680401 -6.47363596 -0.94332488
v 7.61333154 -6.35596712 -0.37516681
v 7.61411260 -6.47363596 -0.44290017
v 7.51100813 -6.35596712 -0.94081833
v 7.51100813 -6.47363596 -0.94081833
v 7.61411260 -6.35596712 -0.44290017
v 7.61411260 -6.47363596 -0.81671475
v 7.58677436 -6.35596712 -0.90154852
v 7.58677436 -6.47363596 -0.90154852
v 7.61411260 -6.35596712 -0.81671475
f 1 2 3
f 1 3 8
f 1 8 4
f 1 4 9
f 1 9 5
f 1 5 11
f 1 11 16
f 1 16 20
f 1 20 24
f 1 24 22
f 1 22 18
f 1 18 13
f 1 13 6
f 1 6 2
f 2 7 14
f 2 14 8
f 2 8 3
f 2 6 12
f 2 12 7
f 4 8 14
f 4 14 12
f 4 12 17
f 4 17 21
f 4 21 25
f 4 25 23
f 4 23 19
f 4 19 15
f 4 15 10
f 4 10 9
f 5 9 10
f 5 10 11
f 6 13 17
f 6 17 12
f 7 12 14
f 10 15 11
f 11 15 16
f 13 18 21
f 13 21 17
f 15 19 16
f 16 19 20
f 18 22 25
f 18 25 21
f 19 23 24
f 19 24 20
f 22 24 23
f 22 23 25

