# https://github.com/mikedh/trimesh
v -1.12967531 -6.35595622 -0.94416057
v -2.04244389 -6.35595622 -0.94409766
v -1.12967531 -6.24764890 -0.94416057
v -0.96661175 -6.35595622 -0.94416057
v 6.37895658 -6.35596683 -0.94403482
v -2.13989585 -6.35595622 -0.94082857
v -2.05016295 -6.24764890 -0.94384624
v -2.04244389 -6.24764890 -0.94409766
v -0.96950644 -6.24764890 -0.94416057
v 6.37895658 -6.24764890 -0.94409766
v 6.37895658 -6.35595622 -0.94409766
v 7.41329901 -6.35596683 -0.94403482
v -2.24217248 -6.35596683 -0.64767699
v -2.21612090 -6.35595622 -0.90153632
v -2.13989585 -6.24764890 -0.94082857
v 7.41329901 -6.24764890 -0.94403482
v 7.41715839 -6.35596683 -0.94397199
v -2.24217248 -6.35596683 -0.30190524
v -2.24313718 -6.35595622 -0.81666506
v -2.21612090 -6.24764890 -0.90153632
v 7.51171596 -6.24764890 -0.94076566
v 7.51171596 -6.35596683 -0.94076566
v -2.24217248 -6.24764890 -0.30190524
v -2.24313718 -6.35595622 -0.64767699
v 7.61302760 -6.35596683 -0.30190524
v -2.24313718 -6.24764890 -0.81666506
v 7.58697602 -6.24764890 -0.90147348
v 7.58697602 -6.35596683 -0.90147348
v -2.24313718 -6.24764890 -0.64767699
v 7.61302760 -6.24764890 -0.30190524
v 7.61399230 -6.35596683 -0.64767699
v 7.61399230 -6.24764890 -0.81666506
v 7.61399230 -6.35596683 -0.81666506
v 7.61399230 -6.24764890 -0.64767699
f 1 2 8
f 1 8 3
f 1 3 9
f 1 9 4
f 1 4 12
f 1 12 5
f 1 5 2
f 2 6 7
f 2 7 8
f 2 5 6
f 3 8 7
f 3 7 15
f 3 15 20
f 3 20 26
f 3 26 29
f 3 29 23
f 3 23 30
f 3 30 34
f 3 34 32
f 3 32 27
f 3 27 21
f 3 21 16
f 3 16 10
f 3 10 9
f 4 10 11
f 4 11 12
f 4 9 10
f 5 12 17
f 5 17 22
f 5 22 28
f 5 28 33
f 5 33 31
f 5 31 25
f 5 25 18
f 5 18 13
f 5 13 6
f 6 14 20
f 6 20 15
f 6 15 7
f 6 13 14
f 10 16 12
f 10 12 11
f 12 16 17
f 13 18 24
f 13 24 19
f 13 19 14
f 14 19 26
f 14 26 20
f 16 21 17
f 17 21 22
f 18 23 29
f 18 29 24
f 18 25 30
f 18 30 23
f 19 24 29
f 19 29 26
f 21 27 28
f 21 28 22
f 25 31 34
f 25 34 30
f 27 32 33
f 27 33 28
f 31 33 32
f 31 32 34

