# https://github.com/mikedh/trimesh
v 7.61411318 -4.37320459 -0.13428877
v 7.61411318 -4.37320459 -0.81673342
v 7.58727531 -4.37320459 -0.04658923
v 7.61411318 -4.98774920 -0.13428877
v 7.61411318 -5.57385249 -0.81673342
v 7.58727531 -4.37320459 -0.90158862
v 7.51160206 -4.37320459 -0.00240762
v 7.58727531 -4.98774920 -0.05749242
v 7.61381970 -5.08529600 -0.13428877
v 7.61411318 -5.57385249 -0.23184859
v 7.58727531 -5.57385249 -0.90158862
v 7.51248220 -5.57385249 -0.94046085
v 7.56425092 -4.37320459 -0.91353472
v 7.51160206 -5.08529600 -0.03018705
v 7.58023648 -5.57385249 -0.06962815
v 7.58199619 -5.47524797 -0.06754231
v 7.58346242 -5.37781875 -0.06536167
v 7.58610256 -5.18284276 -0.06109523
v 7.58698241 -5.08529600 -0.05910419
v 7.44384807 -4.37320459 0.00271212
v 7.61293985 -5.18284276 -0.13428877
v 7.61030029 -5.37781875 -0.13428877
v 7.60707377 -5.57385249 -0.13428877
v 7.51160206 -4.37320459 -0.94084012
v 7.51160206 -5.57385249 -0.94084012
v 7.41422419 -4.40293874 0.00375503
v 7.41422419 -4.50036796 -0.00013218
v 7.41422419 -4.59791473 -0.00420902
v 7.51160206 -5.18284276 -0.03435870
v 7.51160206 -5.57385249 -0.05151937
v 7.41422419 -4.37320459 0.00489276
v 7.48197818 -4.37320459 -0.94188306
v 7.41510405 -5.57385249 -0.94406366
v 7.24293249 -4.37320459 0.01247758
v 7.21242846 -4.49390403 0.00906441
v 7.14540788 -4.52211032 0.01086581
v 7.31669930 -4.59791473 0.00015225
v 7.41422419 -4.69546149 -0.00838070
v 7.41422419 -4.89043751 -0.01691362
v 7.31669930 -4.79289073 -0.00828587
v 7.21917469 -5.57385249 -0.03862518
v 7.41422419 -4.37320459 -0.94406366
v 6.14786909 -5.57385249 -0.94415846
v 6.21459649 -4.37320459 -0.94415846
v 7.12164979 -4.37320459 0.01778696
v 7.12164979 -4.40293874 0.01664922
v 7.02412519 -4.40293874 0.02091570
v 7.02412519 -4.50036796 0.01702849
v 7.08029346 -4.55689807 0.01228795
v 7.31669930 -4.69546149 -0.00401943
v 7.01943215 -4.59286109 0.01342568
v 7.12164979 -4.89043751 -0.00401943
v 6.92660029 -5.57385249 -0.02582578
v 6.14684250 -5.57385249 -0.94415846
v 6.11589855 -4.37320459 -0.94415846
v 7.05374936 -4.37320459 0.02072607
v 7.02412519 -4.37320459 0.02195860
v 6.92660029 -4.50036796 0.02091570
v 6.82936887 -4.69546149 0.01731289
v 6.92660029 -4.59791473 0.01721809
v 7.02412519 -4.89043751 0.00024705
v 6.82438265 -4.88538387 0.00915921
v 6.82834257 -5.57385249 -0.02155934
v 6.11589855 -5.57385249 -0.16699833
v 6.11589855 -5.57349988 -0.94415846
v 6.11589855 -4.37320459 -0.04858027
v 6.95637120 -4.37320459 0.02385481
v 6.11589855 -5.21363460 0.02366521
v 6.24436711 -5.18284276 0.02034683
v 6.53679477 -4.98774920 0.01683886
v 6.75516214 -4.91464792 0.01086581
v 6.78859921 -4.84965590 0.01228795
v 6.73184427 -5.57385249 -0.01738766
v 6.11589855 -5.57385249 0.00840074
v 6.11589855 -4.43373058 -0.03587567
v 6.14684250 -4.37320459 -0.03871997
v 6.92660029 -4.37320459 0.02432888
v 6.11589855 -5.18284276 0.02423408
v 6.11589855 -5.28027199 0.02120014
v 6.11589855 -5.31118136 0.01987280
v 6.13071049 -5.57385249 0.00783187
v 6.24436711 -5.57385249 0.00318616
v 6.53679477 -5.57385249 -0.00904437
v 6.59076340 -5.04145868 0.01219315
v 6.11589855 -4.53127738 -0.02004236
v 6.17646667 -4.37320459 -0.03009226
v 6.85899305 -4.37320459 0.02442368
v 6.11589855 -5.11608784 0.02404444
v 6.11589855 -4.62870660 -0.00762220
v 6.24436711 -4.37320459 -0.01596552
v 6.82936887 -4.37320459 0.02404444
v 6.11589855 -5.08529600 0.02338077
v 6.76146844 -4.37320459 0.02281191
v 6.73184427 -4.37320459 0.02224304
v 6.11589855 -4.72625336 0.00223806
v 6.27399128 -4.37320459 -0.01084574
v 6.11589855 -5.01865861 0.02082090
v 6.66394354 -4.37320459 0.02034683
v 6.63431966 -4.37320459 0.01939873
v 6.56641894 -4.37320459 0.01636479
v 6.11589855 -4.81604340 0.00953848
v 6.34174526 -4.37320459 -0.00136472
v 6.11589855 -4.98774920 0.01939873
v 6.53386173 -4.37320459 0.01475302
v 6.49851821 -4.37320459 0.01285681
v 6.11589855 -4.84695281 0.01162428
v 6.43985654 -4.37320459 0.00840074
v 6.37679559 -4.37320459 0.00242769
v 6.11589855 -4.91641078 0.01589076
v 6.48634583 -4.37320459 0.01200351
v 6.11589855 -4.89067255 0.01437379
v 6.46434774 -4.37320459 0.01039174
f 1 2 6
f 1 6 13
f 1 13 24
f 1 24 32
f 1 32 42
f 1 42 44
f 1 44 55
f 1 55 66
f 1 66 76
f 1 76 86
f 1 86 90
f 1 90 96
f 1 96 102
f 1 102 108
f 1 108 107
f 1 107 112
f 1 112 110
f 1 110 105
f 1 105 104
f 1 104 100
f 1 100 99
f 1 99 98
f 1 98 94
f 1 94 93
f 1 93 91
f 1 91 87
f 1 87 77
f 1 77 67
f 1 67 57
f 1 57 56
f 1 56 45
f 1 45 34
f 1 34 31
f 1 31 20
f 1 20 7
f 1 7 3
f 1 3 4
f 1 4 10
f 1 10 5
f 1 5 2
f 2 5 11
f 2 11 6
f 3 7 8
f 3 8 9
f 3 9 4
f 4 9 10
f 5 10 23
f 5 23 15
f 5 15 30
f 5 30 41
f 5 41 53
f 5 53 63
f 5 63 73
f 5 73 83
f 5 83 82
f 5 82 81
f 5 81 74
f 5 74 64
f 5 64 54
f 5 54 43
f 5 43 33
f 5 33 25
f 5 25 12
f 5 12 11
f 6 11 12
f 6 12 13
f 7 14 15
f 7 15 16
f 7 16 17
f 7 17 18
f 7 18 19
f 7 19 8
f 7 20 14
f 8 19 9
f 9 19 21
f 9 21 10
f 10 21 22
f 10 22 23
f 12 24 13
f 12 25 24
f 14 20 26
f 14 26 27
f 14 27 28
f 14 28 38
f 14 38 29
f 14 29 15
f 15 23 16
f 15 29 30
f 16 23 17
f 17 23 18
f 18 23 19
f 19 23 22
f 19 22 21
f 20 31 26
f 24 25 32
f 25 33 32
f 26 31 34
f 26 34 35
f 26 35 27
f 27 35 36
f 27 36 37
f 27 37 28
f 28 37 50
f 28 50 38
f 29 38 39
f 29 39 30
f 30 39 40
f 30 40 41
f 32 33 42
f 33 43 44
f 33 44 42
f 34 45 46
f 34 46 35
f 35 46 47
f 35 47 36
f 36 47 48
f 36 48 49
f 36 49 37
f 37 49 51
f 37 51 50
f 38 50 39
f 39 50 40
f 40 50 52
f 40 52 41
f 41 52 61
f 41 61 53
f 43 54 65
f 43 65 55
f 43 55 44
f 45 56 47
f 45 47 46
f 47 56 57
f 47 57 58
f 47 58 59
f 47 59 60
f 47 60 48
f 48 60 49
f 49 60 51
f 50 51 59
f 50 59 52
f 51 60 59
f 52 59 61
f 53 61 62
f 53 62 63
f 54 64 65
f 55 65 64
f 55 64 74
f 55 74 80
f 55 80 79
f 55 79 68
f 55 68 78
f 55 78 88
f 55 88 92
f 55 92 97
f 55 97 103
f 55 103 109
f 55 109 111
f 55 111 106
f 55 106 101
f 55 101 95
f 55 95 89
f 55 89 85
f 55 85 75
f 55 75 66
f 57 67 68
f 57 68 58
f 58 68 69
f 58 69 59
f 59 69 70
f 59 70 71
f 59 71 72
f 59 72 62
f 59 62 61
f 62 72 71
f 62 71 63
f 63 71 73
f 66 75 76
f 67 77 78
f 67 78 68
f 68 79 69
f 69 79 80
f 69 80 81
f 69 81 82
f 69 82 70
f 70 83 84
f 70 84 71
f 70 82 83
f 71 84 83
f 71 83 73
f 74 81 80
f 75 85 86
f 75 86 76
f 77 87 78
f 78 87 88
f 85 89 90
f 85 90 86
f 87 91 88
f 88 91 93
f 88 93 94
f 88 94 92
f 89 95 96
f 89 96 90
f 92 94 98
f 92 98 99
f 92 99 100
f 92 100 97
f 95 101 102
f 95 102 96
f 97 100 104
f 97 104 105
f 97 105 103
f 101 106 107
f 101 107 108
f 101 108 102
f 103 105 109
f 105 110 109
f 106 111 107
f 107 111 112
f 109 110 112
f 109 112 111

