# https://github.com/mikedh/trimesh
v 3.50384982 -5.35598781 -0.94415926
v 3.50384982 -5.28287000 -0.94415926
v 3.61176988 -5.35598781 -0.94415926
v 3.50384982 -5.35598781 0.09396330
v 3.50384982 -5.28287000 0.09722527
v 3.61508030 -5.28287000 -0.94415926
v 5.75847444 -5.35598781 -0.94405727
v 3.53629204 -5.35598781 0.09355556
v 3.61176988 -5.35598781 0.09253619
v 3.60868015 -5.28287000 0.09579816
v 5.75847444 -5.28287000 -0.94405727
v 5.75847444 -5.35598781 -0.17678037
v 3.63361876 -5.35598781 0.09223036
v 3.70931729 -5.28287000 0.09437105
v 5.75847444 -5.28287000 0.03402456
v 5.75803306 -5.35598781 0.03178196
v 3.73116611 -5.35598781 0.09080325
v 3.80686464 -5.35598781 0.08958002
v 3.90441205 -5.28287000 0.09110908
v 5.75648808 -5.28287000 0.03412651
v 5.75406064 -5.28287000 0.03422843
v 5.36320905 -5.28287000 0.04951895
v 5.26654425 -5.28287000 0.05329058
v 5.46406682 -5.35598781 0.04289305
v 3.90441205 -5.35598781 0.08784711
v 3.92626079 -5.35598781 0.08743937
v 3.99864897 -5.28287000 0.08927422
v 5.16899698 -5.28287000 0.05675642
v 5.26919253 -5.35598781 0.04992669
v 5.36651926 -5.35598781 0.04646085
v 4.00173878 -5.35598781 0.08591030
v 4.09950688 -5.35598781 0.08387157
v 4.19683346 -5.28287000 0.08499289
v 5.09594673 -5.35598781 0.05594093
v 5.17164526 -5.35598781 0.05339253
v 5.07409785 -5.28287000 0.05991647
v 4.99839931 -5.35598781 0.05920290
v 4.19683346 -5.35598781 0.08173092
v 4.29107039 -5.28287000 0.08275029
v 4.97412284 -5.28287000 0.06317844
v 4.87613404 -5.28287000 0.06633849
v 4.87922385 -5.35598781 0.06297457
v 4.29438088 -5.35598781 0.07938636
v 4.38861780 -5.28287000 0.08030377
v 4.77924870 -5.28287000 0.06929463
v 4.80374601 -5.35598781 0.06531912
v 4.39192830 -5.35598781 0.07693989
v 4.58680229 -5.35598781 0.07174111
v 4.48704798 -5.28287000 0.07765342
v 4.68170143 -5.28287000 0.07214885
v 4.70619859 -5.35598781 0.06827527
v 4.58371263 -5.28287000 0.07500308
f 1 2 6
f 1 6 3
f 1 3 7
f 1 7 12
f 1 12 16
f 1 16 24
f 1 24 30
f 1 30 29
f 1 29 35
f 1 35 34
f 1 34 37
f 1 37 42
f 1 42 46
f 1 46 51
f 1 51 48
f 1 48 47
f 1 47 43
f 1 43 38
f 1 38 32
f 1 32 31
f 1 31 26
f 1 26 25
f 1 25 18
f 1 18 17
f 1 17 13
f 1 13 9
f 1 9 8
f 1 8 4
f 1 4 5
f 1 5 2
f 2 5 10
f 2 10 14
f 2 14 19
f 2 19 27
f 2 27 33
f 2 33 39
f 2 39 44
f 2 44 49
f 2 49 52
f 2 52 50
f 2 50 45
f 2 45 41
f 2 41 40
f 2 40 36
f 2 36 28
f 2 28 23
f 2 23 22
f 2 22 21
f 2 21 20
f 2 20 15
f 2 15 11
f 2 11 6
f 3 6 7
f 4 8 5
f 5 8 9
f 5 9 10
f 6 11 7
f 7 11 15
f 7 15 12
f 9 13 10
f 10 13 14
f 12 15 16
f 13 17 14
f 14 17 18
f 14 18 19
f 15 20 16
f 16 20 21
f 16 21 22
f 16 22 23
f 16 23 24
f 18 25 19
f 19 25 26
f 19 26 27
f 23 28 35
f 23 35 29
f 23 29 30
f 23 30 24
f 26 31 27
f 27 31 32
f 27 32 33
f 28 34 35
f 28 36 37
f 28 37 34
f 32 38 33
f 33 38 39
f 36 40 37
f 37 40 41
f 37 41 42
f 38 43 39
f 39 43 47
f 39 47 44
f 41 45 46
f 41 46 42
f 44 47 48
f 44 48 49
f 45 50 51
f 45 51 46
f 48 52 49
f 48 51 52
f 50 52 51

