# https://github.com/mikedh/trimesh
v -0.02480121 -0.17505158 0.05677415
v -0.02761724 -0.17466928 0.05677415
v -0.02949906 -0.17423638 0.05529902
v -0.02761724 -0.17442753 0.05503560
v -0.02480121 -0.17465242 0.05466681
v -0.02224483 -0.17455684 0.05473267
v -0.02224483 -0.17471988 0.05685318
v -0.02264368 -0.17451186 0.05865759
v -0.02480121 -0.17460182 0.05881564
v -0.02761724 -0.17444439 0.05856539
v -0.02944820 -0.17430947 0.05834149
v -0.03110516 -0.17408458 0.05677415
v -0.03324662 -0.17304450 0.05395559
v -0.03324662 -0.17356736 0.05677415
v -0.03043595 -0.17359547 0.05420584
v -0.02224483 -0.17375288 0.05333656
v -0.04345340 -0.16580890 0.04403792
v -0.02761724 -0.16916527 0.04603990
v -0.02480121 -0.16926648 0.04600038
v -0.02224483 -0.17458494 0.05778831
v -0.02224483 -0.17443315 0.05848637
v -0.02224483 -0.16968251 0.07339580
v -0.02224483 -0.16959255 0.07365921
v -0.02465934 -0.16909219 0.07367238
v -0.02761724 -0.16887855 0.07269774
v -0.02914036 -0.16866491 0.07235530
v -0.04958871 -0.16611250 0.04697502
v -0.04958871 -0.16593821 0.04656673
v -0.04958871 -0.16335768 0.04137740
v -0.04532986 -0.16567959 0.04428817
v -0.03521945 -0.17183576 0.05888149
v -0.03611619 -0.17221244 0.05669513
v -0.03767947 -0.17157714 0.05570731
v -0.04365684 -0.16893477 0.05303363
v -0.04365684 -0.16893477 0.05180874
v -0.04958871 -0.16629240 0.04821309
v -0.02224483 -0.17047522 0.04818675
v -0.04958871 -0.16314404 0.04100862
v -0.04731875 -0.16333519 0.04078472
v -0.04958871 -0.16246377 0.03987593
v -0.04958871 -0.16111447 0.03786078
v -0.02761724 -0.16815331 0.04463061
v -0.02761724 -0.16046232 0.03530563
v -0.02480121 -0.16810832 0.04460427
v -0.02224483 -0.16905284 0.04609258
v -0.02224483 -0.16915965 0.04622428
v -0.02224483 -0.16883358 0.07552948
v -0.02362340 -0.16867053 0.07521338
v -0.02224483 -0.16509490 0.08193052
v -0.02224483 -0.16343077 0.08409054
v -0.02344138 -0.16298662 0.08353737
v -0.02224483 -0.15747137 0.09059696
v -0.02224483 -0.15601526 0.09212478
v -0.02224483 -0.12525693 0.12428805
v -0.02224483 -0.12230535 0.12735686
v -0.04856348 -0.12336792 0.10021169
v -0.04958871 -0.15480652 0.06500595
v -0.04958871 -0.15519444 0.06457131
v -0.04958871 -0.15668991 0.06274056
v -0.04958871 -0.16180037 0.05627366
v -0.04958871 -0.16526356 0.05175605
v -0.04860363 -0.16566835 0.05241460
v -0.04931031 -0.16614623 0.05053116
v -0.04958871 -0.16613499 0.04980676
v -0.04958871 -0.16626991 0.04889797
v -0.04958871 -0.16002380 0.03638564
v -0.04958871 -0.15785367 0.03351440
v -0.04901051 -0.15735894 0.03280317
v -0.02248575 -0.15749387 0.03267145
v -0.02480121 -0.16029365 0.03549002
v -0.04958871 -0.13137936 0.00756777
v -0.02953653 -0.14903265 0.02425527
v -0.02224483 -0.15049439 0.02557236
v -0.02224483 -0.15189991 0.02698164
v -0.02224483 -0.15802796 0.03334317
v -0.02224483 -0.16667470 0.07927001
v -0.02224483 -0.12218728 0.12747540
v -0.04958871 -0.11761654 0.10507175
v -0.04958871 -0.12281696 0.09965852
v -0.04958871 -0.16579766 0.05078141
v -0.04958871 -0.15730834 0.03285585
v -0.02224483 -0.15711157 0.03234219
v -0.04958871 -0.13046297 0.00681703
v -0.02224483 -0.14908326 0.02424210
v -0.02224483 -0.11761654 0.13203252
v -0.04958871 -0.11761654 -0.00252111
v -0.04958871 -0.12036574 -0.00066402
v -0.02224483 -0.13800216 0.01541761
v -0.02224483 -0.13947514 0.01651080
v -0.02224483 -0.14895395 0.02413673
v -0.02224483 -0.11761654 0.00374822
v -0.04718491 -0.11761654 -0.00224453
v -0.04731875 -0.11878031 -0.00149379
v -0.04731875 -0.12018583 -0.00053231
v -0.02224483 -0.12990076 0.00980683
v -0.02224483 -0.12060186 0.00467019
v -0.04329547 -0.11761654 -0.00157281
v -0.04450272 -0.11761654 -0.00182306
v -0.02224483 -0.12466100 0.00657995
v -0.02224483 -0.12205236 0.00514433
f 1 2 3
f 1 3 4
f 1 4 5
f 1 5 6
f 1 6 7
f 1 7 8
f 1 8 9
f 1 9 10
f 1 10 11
f 1 11 2
f 2 12 3
f 2 11 12
f 3 13 4
f 3 12 14
f 3 14 13
f 4 13 15
f 4 15 5
f 5 16 6
f 5 15 17
f 5 17 18
f 5 18 19
f 5 19 16
f 6 16 37
f 6 37 46
f 6 46 45
f 6 45 75
f 6 75 82
f 6 82 74
f 6 74 73
f 6 73 84
f 6 84 90
f 6 90 89
f 6 89 88
f 6 88 95
f 6 95 99
f 6 99 100
f 6 100 96
f 6 96 91
f 6 91 85
f 6 85 77
f 6 77 55
f 6 55 54
f 6 54 53
f 6 53 52
f 6 52 50
f 6 50 49
f 6 49 76
f 6 76 47
f 6 47 23
f 6 23 22
f 6 22 21
f 6 21 20
f 6 20 7
f 7 20 8
f 8 20 21
f 8 21 22
f 8 22 9
f 9 22 23
f 9 23 10
f 10 23 11
f 11 14 12
f 11 23 24
f 11 24 25
f 11 25 26
f 11 26 14
f 13 14 27
f 13 27 28
f 13 28 29
f 13 29 30
f 13 30 17
f 13 17 15
f 14 31 32
f 14 32 33
f 14 33 34
f 14 34 35
f 14 35 36
f 14 36 27
f 14 26 31
f 16 19 37
f 17 30 38
f 17 38 39
f 17 39 18
f 18 39 40
f 18 40 41
f 18 41 42
f 18 42 19
f 19 42 43
f 19 43 44
f 19 44 45
f 19 45 46
f 19 46 37
f 23 47 24
f 24 47 25
f 25 47 48
f 25 48 26
f 26 48 49
f 26 49 50
f 26 50 51
f 26 51 52
f 26 52 53
f 26 53 54
f 26 54 55
f 26 55 56
f 26 56 57
f 26 57 58
f 26 58 59
f 26 59 60
f 26 60 61
f 26 61 62
f 26 62 31
f 27 36 65
f 27 65 64
f 27 64 80
f 27 80 61
f 27 61 60
f 27 60 59
f 27 59 58
f 27 58 57
f 27 57 79
f 27 79 78
f 27 78 86
f 27 86 87
f 27 87 83
f 27 83 71
f 27 71 81
f 27 81 67
f 27 67 66
f 27 66 41
f 27 41 40
f 27 40 38
f 27 38 29
f 27 29 28
f 29 38 30
f 31 62 34
f 31 34 32
f 32 34 33
f 34 62 63
f 34 63 64
f 34 64 65
f 34 65 36
f 34 36 35
f 38 40 39
f 41 66 42
f 42 66 67
f 42 67 68
f 42 68 43
f 43 69 70
f 43 70 44
f 43 68 71
f 43 71 72
f 43 72 73
f 43 73 74
f 43 74 69
f 44 70 45
f 45 70 69
f 45 69 75
f 47 76 48
f 48 76 49
f 50 52 51
f 55 77 78
f 55 78 56
f 56 78 79
f 56 79 57
f 61 80 62
f 62 80 63
f 63 80 64
f 67 81 68
f 68 81 71
f 69 82 75
f 69 74 82
f 71 83 84
f 71 84 73
f 71 73 72
f 77 85 78
f 78 85 91
f 78 91 97
f 78 97 98
f 78 98 92
f 78 92 86
f 83 87 88
f 83 88 89
f 83 89 90
f 83 90 84
f 86 92 93
f 86 93 87
f 87 93 94
f 87 94 88
f 88 94 95
f 91 96 97
f 92 98 95
f 92 95 93
f 93 95 94
f 95 98 99
f 96 100 97
f 97 100 98
f 98 100 99

