# https://github.com/mikedh/trimesh
v 0.02625330 -0.00669756 0.19217972
v 0.02586476 -0.00672552 0.19229340
v 0.02586476 -0.00821345 0.19227446
v 0.02610252 -0.00821345 0.19219867
v 0.02625330 -0.00821345 0.19214181
v 0.02625330 -0.00350168 0.19128914
v 0.01179030 0.00420418 0.19204708
v 0.01179030 0.00171822 0.19257763
v 0.02586476 -0.00391013 0.19149757
v 0.02304928 -0.00821345 0.19202813
v -0.00228126 0.00420418 0.19246394
v 0.00616516 -0.00391013 0.19159232
v 0.00612456 -0.00692731 0.19096702
v 0.02625330 -0.00821345 0.00176801
v 0.02625330 -0.00184478 0.19072069
v 0.00897773 0.00420418 0.19225551
v 0.02586476 0.00420418 0.18869322
v 0.00695384 -0.00821345 0.19056911
v -0.00336859 0.00420418 0.19231235
v 0.00334969 -0.00633044 0.19085333
v -0.00336859 -0.00821345 0.00296176
v 0.02625330 -0.00400009 0.00053637
v 0.02625330 0.00420418 0.18856058
v 0.00334969 -0.00773814 0.19030383
v 0.00334969 -0.00821345 0.19007645
v -0.00336859 -0.00400981 0.18990591
v -0.00067780 -0.00510995 0.19041752
v 0.00119821 -0.00586121 0.19064490
v -0.00336859 0.00420418 0.00612613
v 0.02625330 0.00420418 -0.00099843
v 0.02625330 0.00171822 -0.00067632
v 0.02625330 -0.00090389 -0.00031630
v -0.00336859 -0.00821345 0.18806793
v 0.00036894 -0.00677050 0.19011435
v 0.00264219 -0.00821345 0.18992486
v -0.00336859 -0.00674740 0.18882586
v -0.00228126 -0.00672552 0.18924273
v -0.00228126 -0.00821345 0.18850374
v -0.00136789 -0.00821345 0.18882586
v 0.00032545 -0.00821345 0.18939431
f 1 2 3
f 1 3 4
f 1 4 5
f 1 5 14
f 1 14 22
f 1 22 32
f 1 32 31
f 1 31 30
f 1 30 23
f 1 23 15
f 1 15 6
f 1 6 2
f 2 7 8
f 2 8 3
f 2 6 9
f 2 9 7
f 3 10 18
f 3 18 25
f 3 25 35
f 3 35 40
f 3 40 39
f 3 39 38
f 3 38 33
f 3 33 21
f 3 21 14
f 3 14 5
f 3 5 4
f 3 8 11
f 3 11 12
f 3 12 13
f 3 13 10
f 6 7 9
f 6 15 7
f 7 16 8
f 7 15 17
f 7 17 23
f 7 23 30
f 7 30 29
f 7 29 19
f 7 19 11
f 7 11 16
f 8 16 11
f 10 13 18
f 11 19 20
f 11 20 12
f 12 20 13
f 13 20 18
f 14 21 22
f 15 23 17
f 18 20 24
f 18 24 25
f 19 26 27
f 19 27 28
f 19 28 20
f 19 29 21
f 19 21 33
f 19 33 36
f 19 36 26
f 20 28 24
f 21 29 30
f 21 30 31
f 21 31 32
f 21 32 22
f 24 28 34
f 24 34 35
f 24 35 25
f 26 36 37
f 26 37 27
f 27 37 34
f 27 34 28
f 33 38 36
f 34 37 39
f 34 39 40
f 34 40 35
f 36 38 37
f 37 38 39

