# https://github.com/mikedh/trimesh
v 0.02625330 0.06337848 0.12552892
v 0.02625330 0.09225356 0.09947618
v 0.02586218 0.09235788 0.09958153
v 0.02371955 0.09292295 0.10013841
v -0.03042430 0.06337848 0.14580221
v 0.02625330 0.06337848 -0.00044537
v 0.02625330 0.09369666 0.09804636
v 0.02586218 0.09381837 0.09816677
v 0.02304786 0.09580915 0.09735403
v 0.02288631 0.09420088 0.09911496
v 0.02184050 0.09326199 0.10045447
v -0.03176769 0.07634466 0.13421318
v -0.03301755 0.06337848 0.14652464
v 0.02530102 0.06337848 -0.00175479
v 0.02434024 0.06497806 -0.00062598
v 0.02179799 0.07364102 0.01006001
v 0.02625330 0.06357842 -0.00008415
v 0.02625330 0.09498762 0.09628543
v 0.02507145 0.09660025 0.09545764
v -0.00580959 0.09631772 0.10632424
v 0.02304786 0.09703492 0.09595432
v 0.01741921 0.09940821 0.09530714
v -0.03323862 0.07651853 0.13440884
v -0.03323862 0.06337848 0.14658485
v 0.02491840 0.06337848 -0.00220630
v 0.01675601 0.06859016 -0.00515624
v 0.01590577 0.07061572 -0.00321470
v 0.02173847 0.07638813 0.01580938
v 0.02226563 0.07401484 0.01174569
v 0.02418719 0.07318462 0.01371733
v 0.00990301 0.09004544 0.02783488
v 0.01055770 0.09054531 0.02970116
v 0.02457831 0.07364972 0.01559867
v 0.02625330 0.07115906 0.01588463
v 0.02625330 0.09600475 0.09335055
v 0.02534353 0.09684367 0.09335055
v 0.02292882 0.09826938 0.09338065
v 0.01344004 0.10461555 0.08942232
v 0.01667099 0.10191191 0.09240235
v 0.01460488 0.10121644 0.09422349
v -0.00601365 0.09897354 0.10337431
v -0.00838585 0.10192495 0.10069528
v 0.01752974 0.10090782 0.09335055
v -0.04169009 0.08508152 0.12607076
v -0.03605294 0.07668371 0.13455934
v -0.01073253 0.10214663 0.10090599
v -0.04076332 0.07367145 0.13713301
v -0.03605294 0.06474769 0.14520018
v -0.03605294 0.06337848 0.14626878
v -0.03886727 0.07667936 0.13452924
v 0.02243568 0.06337848 -0.00468967
v 0.01612683 0.06795990 -0.00661615
v 0.01403522 0.07119818 -0.00431340
v 0.02215510 0.07671413 0.01737465
v 0.02296283 0.07478420 0.01475583
v 0.01024311 0.09596129 0.04142566
v 0.02356651 0.07541447 0.01737465
v 0.00802396 0.09061051 0.02685659
v 0.00788792 0.09334023 0.03260595
v 0.00850860 0.09374013 0.03426153
v 0.02418719 0.07599258 0.02018912
v 0.02444227 0.07630120 0.02161895
v 0.02625330 0.07454513 0.02331967
v 0.02625330 0.09571352 0.09053607
v 0.02516497 0.09670457 0.09053607
v 0.02339646 0.09811290 0.09053607
v 0.02023353 0.10023408 0.09053607
v 0.01840550 0.10142074 0.09053607
v 0.01179056 0.10480681 0.08979858
v 0.01179056 0.10401571 0.09119830
v 0.01460488 0.10226833 0.09282377
v 0.01344004 0.10461555 0.08863968
v 0.00310102 0.10775821 0.08490711
v 0.00274391 0.10754956 0.08678844
v -0.00510388 0.10256391 0.09881395
v -0.00510388 0.10148593 0.10022871
v -0.00939764 0.10445038 0.09756474
v -0.01049446 0.10372882 0.09879890
v -0.04450441 0.08515540 0.12620621
v -0.04169009 0.07661851 0.13446904
v -0.04326305 0.07648376 0.13433359
v -0.03731131 0.06337848 0.14562160
v -0.04264237 0.07321070 0.13683199
v 0.02088823 0.06337848 -0.00616464
v 0.01988493 0.06337848 -0.00681182
v 0.01805690 0.06337848 -0.00715798
v 0.01758926 0.06337848 -0.00717303
v 0.01460488 0.06797293 -0.00661615
v 0.00897624 0.07344542 -0.00371137
v 0.01179056 0.07175456 -0.00449401
v 0.00897624 0.07455817 -0.00231166
v 0.01106785 0.07404092 -0.00184508
v 0.02149190 0.07904830 0.02182966
v 0.02392361 0.07860060 0.02581808
v 0.00917180 0.09668284 0.04249425
v 0.00747130 0.10162938 0.05540775
v 0.01071925 0.09628294 0.04330699
v 0.00837256 0.09626990 0.04058282
v 0.00713970 0.09061051 0.02685659
v 0.00760734 0.07914394 0.00467187
v 0.00725023 0.09334023 0.03260595
v 0.00560075 0.10175108 0.05516694
v 0.02434024 0.07898310 0.02783488
v 0.02625330 0.07751392 0.03149220
v 0.02625330 0.09513976 0.08772159
v 0.02625330 0.09510498 0.08755603
v 0.02625330 0.09453123 0.08510277
v 0.02184050 0.09895181 0.08869988
v -0.00791821 0.10509369 0.09587906
v 0.01321048 0.10165546 0.07218927
v 0.01184158 0.10228138 0.07109057
v 0.00787942 0.10186844 0.05728909
v 0.00894223 0.10419392 0.07337828
v 0.00268440 0.10764520 0.08295052
v 0.00052476 0.10777994 0.08490711
v 0.00052476 0.10749740 0.08677339
v -0.00791821 0.10578046 0.09335055
v -0.01127669 0.10455035 0.09774535
v -0.04606888 0.08488591 0.12592024
v -0.01234800 0.10455035 0.09774535
v -0.04645999 0.07209359 0.13477005
v -0.04458944 0.07219792 0.13624502
v -0.03848466 0.06337848 0.14486906
v 0.01485146 0.06337848 -0.00702253
v 0.01315096 0.06791643 -0.00657100
v 0.00897624 0.07204144 -0.00423815
v 0.00684211 0.07157634 -0.00396723
v 0.00600887 0.07234571 -0.00313945
v 0.00616191 0.07416697 -0.00164943
v 0.00707168 0.07674021 0.00105970
v 0.00753932 0.07914394 0.00467187
v 0.00841507 0.07674021 0.00105970
v 0.00920581 0.07600997 0.00026201
v 0.00638298 0.10217271 0.05652150
v 0.00616191 0.10308551 0.05959184
v 0.01048968 0.09893008 0.05235246
v 0.02625330 0.09436170 0.08445559
v 0.02625330 0.09264911 0.07834501
v 0.02462082 0.09054965 0.06622920
v 0.00452093 0.09055400 0.02973127
v 0.00454644 0.09340108 0.03531507
v 0.00625544 0.09375316 0.03433678
v -0.00336938 0.07899615 0.01618565
v 0.00616191 0.09487026 0.03707600
v 0.00456345 0.10175108 0.05516694
v 0.02625330 0.09191452 0.07587669
v 0.02625330 0.08566397 0.05638604
v 0.02625330 0.08507282 0.05454986
v 0.00493755 0.10452427 0.06604859
v 0.00052476 0.10755391 0.08308597
v 0.00447842 0.10452427 0.06604859
v -0.00088665 0.10728008 0.08349234
v -0.01078355 0.10494590 0.09356126
v -0.01233100 0.10455035 0.09616503
v -0.04856010 0.08174325 0.12551388
v -0.04450441 0.08587696 0.12432487
v -0.04632395 0.08504240 0.12432487
v -0.04918079 0.08245176 0.12364759
v -0.04906175 0.07131989 0.13195558
v -0.04852610 0.06927695 0.13386701
v -0.04711468 0.06927695 0.13540218
v -0.04560974 0.06927695 0.13681694
v -0.04916378 0.07986548 0.12622126
v -0.04060177 0.06337848 0.14292753
v 0.01441783 0.06337848 -0.00696232
v 0.00333909 0.06337848 -0.00500574
v 0.00333909 0.06364798 -0.00497563
v 0.00118796 0.06563441 -0.00399734
v 0.00600887 0.06944646 -0.00434350
v 0.00414682 0.06861624 -0.00402744
v -0.00228956 0.06646029 -0.00253742
v -0.00393054 0.06802944 -0.00107750
v -0.00495934 0.06850757 0.00060817
v -0.00672786 0.06803813 0.00163163
v -0.00935513 0.07351497 0.01311530
v -0.01000132 0.07398007 0.01456017
v 0.00393426 0.10213794 0.05677736
v 0.00333909 0.10354626 0.06240632
v -0.00420262 0.07946559 0.01805193
v -0.00875145 0.07599693 0.01675757
v -0.00939764 0.07638379 0.01862386
v 0.00197019 0.10162068 0.05825233
v 0.00472499 0.09603083 0.04122999
v 0.00308401 0.10259434 0.05935103
v 0.00052476 0.10296381 0.06522080
v -0.01176133 0.10419392 0.09276357
v -0.01218646 0.10448515 0.09464490
v -0.01374241 0.10372013 0.09616503
v -0.05011606 0.08049141 0.12426467
v -0.04625593 0.08497285 0.12149534
v -0.04765884 0.08406004 0.12149534
v -0.04952088 0.08265171 0.12149534
v -0.03711576 0.09018453 0.11023742
v -0.05159549 0.07923956 0.12301546
v -0.05093230 0.08111733 0.12149534
v -0.05396769 0.07850497 0.11868086
v -0.05203762 0.07970900 0.12149534
v -0.05110235 0.07772256 0.12501720
v -0.05145945 0.07607951 0.12560418
v -0.05438431 0.07355843 0.12295526
v -0.05140844 0.06364798 0.13112779
v -0.04937634 0.06337848 0.13374661
v -0.04889170 0.06337848 0.13431853
v -0.04106941 0.06337848 0.14246095
v 0.00064380 0.06337848 -0.00431340
v 0.00036322 0.06364798 -0.00420804
v -0.00068259 0.06458686 -0.00368127
v -0.00510388 0.06364798 -0.00229661
v -0.00677037 0.06529537 -0.00106245
v -0.00495934 0.06632554 -0.00142367
v -0.01162529 0.06337848 0.00099949
v -0.01349584 0.06337848 0.00235405
v -0.01457566 0.06337848 0.00333235
v -0.01172732 0.07040708 0.01073729
v -0.01140423 0.07300641 0.01456017
v -0.01207592 0.07344107 0.01618565
v -0.00093766 0.10169457 0.06370068
v -0.00668535 0.10177716 0.07468769
v -0.00946566 0.10176846 0.08033170
v -0.03477757 0.09047142 0.10296794
v -0.03512617 0.09067136 0.10460846
v -0.03697121 0.09006283 0.10742294
v -0.05089829 0.08149550 0.11868086
v -0.05255627 0.08009151 0.11868086
v -0.05448634 0.07660112 0.12032139
v -0.05484344 0.07466249 0.12135988
v -0.05487745 0.07709664 0.11868086
v -0.05521756 0.07727920 0.11586638
v -0.05662897 0.07527972 0.11586638
v -0.05721564 0.07360190 0.11743165
v -0.05678201 0.07209359 0.11917754
v -0.05552364 0.07209359 0.12149534
v -0.05140844 0.06337848 0.13112779
v -0.05973237 0.06364798 0.11651356
v 0.00038022 0.06337848 -0.00423815
v -0.00215352 0.06364798 -0.00336521
v -0.00510388 0.06337848 -0.00232671
v -0.00734004 0.06337848 -0.00133336
v -0.00726352 0.06364798 -0.00131831
v -0.01619113 0.06337848 0.00552976
v -0.01245854 0.07102431 0.01261863
v -0.02784804 0.06337848 0.02274775
v -0.02809462 0.06337848 0.02313906
v -0.02854525 0.06337848 0.02390665
v -0.02641962 0.06520844 0.02405715
v -0.05091530 0.06337848 0.06522080
v -0.05242023 0.06337848 0.06803528
v -0.02932748 0.09065832 0.09151436
v -0.03162315 0.09021496 0.09523188
v -0.04322904 0.08204753 0.09738413
v -0.03653759 0.08962381 0.10460846
v -0.03871422 0.08865450 0.10742294
v -0.05372111 0.07868318 0.11586638
v -0.05628887 0.07468857 0.11850025
v -0.05501350 0.07685758 0.11305190
v -0.05642491 0.07542317 0.11305190
v -0.05746221 0.07401484 0.11305190
v -0.05735168 0.07387140 0.11586638
v -0.05792985 0.07209359 0.11586638
v -0.06006397 0.06538665 0.11484294
v -0.05945179 0.06638205 0.11582123
v -0.05973237 0.06337848 0.11651356
v -0.06013199 0.06364798 0.11509880
v -0.05978339 0.06337848 0.11637811
v -0.00185593 0.06337848 -0.00348562
v -0.00207700 0.06337848 -0.00341036
v -0.00220454 0.06337848 -0.00336521
v -0.01652273 0.06337848 0.00598127
v -0.05296439 0.06337848 0.07047349
v -0.05736868 0.06834241 0.09959658
v -0.05736018 0.07379315 0.11095986
v -0.05586374 0.07500588 0.11002671
v -0.05464789 0.07650984 0.11097491
v -0.04353514 0.08228225 0.09897951
v -0.05832096 0.07209359 0.11305190
v -0.05920522 0.06927695 0.11305190
v -0.06020001 0.06337848 0.11490314
v -0.06016600 0.06568223 0.11305190
v -0.06054011 0.06364798 0.11305190
v -0.06057412 0.06337848 0.11305190
v -0.05578722 0.06337848 0.08410942
v -0.05705409 0.06337848 0.09053607
v -0.06014900 0.06556052 0.11092975
v -0.05893314 0.06927695 0.11023742
v -0.05784482 0.07227616 0.11011702
v -0.06060813 0.06337848 0.11279604
v -0.06047209 0.06337848 0.10966550
v -0.06043808 0.06381749 0.11008692
v -0.06054861 0.06337848 0.11011702
f 1 2 3
f 1 3 4
f 1 4 5
f 1 5 13
f 1 13 24
f 1 24 49
f 1 49 82
f 1 82 123
f 1 123 164
f 1 164 204
f 1 204 203
f 1 203 202
f 1 202 233
f 1 233 262
f 1 262 264
f 1 264 277
f 1 277 280
f 1 280 286
f 1 286 289
f 1 289 287
f 1 287 282
f 1 282 281
f 1 281 269
f 1 269 247
f 1 247 246
f 1 246 244
f 1 244 243
f 1 243 242
f 1 242 268
f 1 268 240
f 1 240 213
f 1 213 212
f 1 212 211
f 1 211 238
f 1 238 237
f 1 237 267
f 1 267 266
f 1 266 265
f 1 265 235
f 1 235 205
f 1 205 166
f 1 166 165
f 1 165 124
f 1 124 87
f 1 87 86
f 1 86 85
f 1 85 84
f 1 84 51
f 1 51 25
f 1 25 14
f 1 14 6
f 1 6 17
f 1 17 34
f 1 34 63
f 1 63 104
f 1 104 148
f 1 148 147
f 1 147 146
f 1 146 138
f 1 138 137
f 1 137 107
f 1 107 106
f 1 106 105
f 1 105 64
f 1 64 35
f 1 35 18
f 1 18 7
f 1 7 2
f 2 7 8
f 2 8 3
f 3 8 4
f 4 8 9
f 4 9 10
f 4 10 11
f 4 11 12
f 4 12 5
f 5 12 13
f 6 14 15
f 6 15 16
f 6 16 17
f 7 18 19
f 7 19 8
f 8 19 9
f 9 20 10
f 9 19 21
f 9 21 22
f 9 22 20
f 10 20 11
f 11 20 12
f 12 23 24
f 12 24 13
f 12 20 23
f 14 25 26
f 14 26 15
f 15 26 27
f 15 27 16
f 16 28 29
f 16 29 30
f 16 30 17
f 16 27 31
f 16 31 32
f 16 32 28
f 17 30 33
f 17 33 34
f 18 35 19
f 19 35 36
f 19 36 37
f 19 37 38
f 19 38 39
f 19 39 21
f 20 22 40
f 20 40 41
f 20 41 42
f 20 42 23
f 21 39 43
f 21 43 40
f 21 40 22
f 23 44 45
f 23 45 24
f 23 42 46
f 23 46 44
f 24 47 48
f 24 48 49
f 24 45 50
f 24 50 47
f 25 51 52
f 25 52 26
f 26 52 53
f 26 53 27
f 27 53 31
f 28 54 55
f 28 55 29
f 28 32 56
f 28 56 54
f 29 55 30
f 30 55 57
f 30 57 33
f 31 58 59
f 31 59 32
f 31 53 58
f 32 59 60
f 32 60 56
f 33 57 61
f 33 61 62
f 33 62 63
f 33 63 34
f 35 64 36
f 36 64 65
f 36 65 66
f 36 66 67
f 36 67 68
f 36 68 38
f 36 38 37
f 38 69 70
f 38 70 71
f 38 71 39
f 38 68 72
f 38 72 73
f 38 73 74
f 38 74 69
f 39 71 40
f 39 40 43
f 40 71 75
f 40 75 76
f 40 76 41
f 41 76 42
f 42 76 75
f 42 75 77
f 42 77 78
f 42 78 46
f 44 79 45
f 44 46 78
f 44 78 79
f 45 79 50
f 47 49 48
f 47 50 80
f 47 80 81
f 47 81 49
f 49 81 83
f 49 83 82
f 50 79 80
f 51 84 52
f 52 84 85
f 52 85 86
f 52 86 87
f 52 87 88
f 52 88 89
f 52 89 90
f 52 90 53
f 53 90 89
f 53 89 91
f 53 91 92
f 53 92 58
f 54 93 94
f 54 94 57
f 54 57 55
f 54 56 93
f 56 95 96
f 56 96 97
f 56 97 94
f 56 94 93
f 56 60 59
f 56 59 98
f 56 98 95
f 57 94 61
f 58 99 101
f 58 101 59
f 58 92 100
f 58 100 131
f 58 131 99
f 59 101 145
f 59 145 102
f 59 102 98
f 61 94 103
f 61 103 62
f 62 103 63
f 63 103 104
f 64 105 65
f 65 105 106
f 65 106 107
f 65 107 108
f 65 108 66
f 66 108 72
f 66 72 67
f 67 72 68
f 69 109 77
f 69 77 70
f 69 74 109
f 70 77 71
f 71 77 75
f 72 108 110
f 72 110 111
f 72 111 112
f 72 112 113
f 72 113 73
f 73 114 115
f 73 115 74
f 73 113 114
f 74 115 116
f 74 116 117
f 74 117 109
f 77 118 78
f 77 109 118
f 78 118 79
f 79 119 81
f 79 81 80
f 79 118 120
f 79 120 119
f 81 121 122
f 81 122 83
f 81 119 121
f 82 83 122
f 82 122 123
f 87 124 125
f 87 125 88
f 88 125 89
f 89 126 127
f 89 127 128
f 89 128 129
f 89 129 130
f 89 130 91
f 89 125 126
f 91 130 131
f 91 131 100
f 91 100 132
f 91 132 133
f 91 133 92
f 92 133 100
f 94 97 103
f 95 98 96
f 96 134 135
f 96 135 112
f 96 112 136
f 96 136 97
f 96 98 134
f 97 136 137
f 97 137 138
f 97 138 139
f 97 139 103
f 98 102 134
f 99 140 141
f 99 141 142
f 99 142 101
f 99 131 143
f 99 143 140
f 100 133 132
f 101 142 144
f 101 144 145
f 102 145 134
f 103 139 146
f 103 146 147
f 103 147 148
f 103 148 104
f 107 137 136
f 107 136 108
f 108 136 110
f 109 117 120
f 109 120 118
f 110 136 112
f 110 112 111
f 112 135 113
f 113 135 149
f 113 149 114
f 114 150 115
f 114 149 151
f 114 151 150
f 115 150 152
f 115 152 117
f 115 117 116
f 117 152 153
f 117 153 154
f 117 154 120
f 119 155 121
f 119 120 156
f 119 156 157
f 119 157 158
f 119 158 155
f 120 154 157
f 120 157 156
f 121 159 160
f 121 160 161
f 121 161 162
f 121 162 122
f 121 155 163
f 121 163 159
f 122 162 123
f 123 162 164
f 124 165 125
f 125 165 166
f 125 166 167
f 125 167 168
f 125 168 169
f 125 169 127
f 125 127 126
f 127 170 171
f 127 171 172
f 127 172 128
f 127 169 170
f 128 172 129
f 129 172 130
f 130 173 174
f 130 174 175
f 130 175 176
f 130 176 131
f 130 172 173
f 131 176 143
f 134 145 135
f 135 145 177
f 135 177 178
f 135 178 151
f 135 151 149
f 138 146 139
f 140 143 179
f 140 179 141
f 141 179 180
f 141 180 181
f 141 181 182
f 141 182 183
f 141 183 142
f 142 183 144
f 143 176 180
f 143 180 179
f 144 183 145
f 145 183 177
f 150 151 178
f 150 178 152
f 152 178 184
f 152 184 185
f 152 185 153
f 153 186 187
f 153 187 154
f 153 185 186
f 154 187 188
f 154 188 157
f 155 158 189
f 155 189 163
f 157 190 191
f 157 191 192
f 157 192 158
f 157 188 193
f 157 193 190
f 158 194 189
f 158 192 195
f 158 195 196
f 158 196 197
f 158 197 194
f 159 163 198
f 159 198 199
f 159 199 200
f 159 200 160
f 160 201 202
f 160 202 203
f 160 203 161
f 160 200 201
f 161 203 204
f 161 204 164
f 161 164 162
f 163 189 198
f 166 205 167
f 167 205 206
f 167 206 168
f 168 206 207
f 168 207 171
f 168 171 170
f 168 170 169
f 171 207 208
f 171 208 209
f 171 209 210
f 171 210 172
f 172 210 209
f 172 209 211
f 172 211 212
f 172 212 213
f 172 213 174
f 172 174 173
f 174 213 214
f 174 214 175
f 175 214 176
f 176 214 215
f 176 215 216
f 176 216 180
f 177 182 184
f 177 184 178
f 177 183 182
f 180 216 181
f 181 216 182
f 182 217 184
f 182 216 217
f 184 217 185
f 185 217 218
f 185 218 186
f 186 219 220
f 186 220 187
f 186 218 219
f 187 220 221
f 187 221 222
f 187 222 188
f 188 222 193
f 189 194 198
f 190 193 191
f 191 223 192
f 191 193 222
f 191 222 223
f 192 223 224
f 192 224 195
f 194 197 225
f 194 225 226
f 194 226 198
f 195 224 196
f 196 227 197
f 196 224 228
f 196 228 229
f 196 229 227
f 197 227 225
f 198 226 200
f 198 200 199
f 200 226 230
f 200 230 231
f 200 231 232
f 200 232 201
f 201 233 202
f 201 232 234
f 201 234 262
f 201 262 233
f 205 235 206
f 206 235 236
f 206 236 207
f 207 236 208
f 208 237 238
f 208 238 239
f 208 239 209
f 208 236 237
f 209 239 211
f 211 239 238
f 213 240 241
f 213 241 214
f 214 241 215
f 215 241 216
f 216 241 242
f 216 242 243
f 216 243 244
f 216 244 245
f 216 245 246
f 216 246 247
f 216 247 218
f 216 218 217
f 218 247 248
f 218 248 219
f 219 248 249
f 219 249 220
f 220 250 251
f 220 251 221
f 220 249 250
f 221 251 222
f 222 251 252
f 222 252 253
f 222 253 223
f 223 253 224
f 224 253 228
f 225 227 254
f 225 254 226
f 226 254 230
f 227 229 230
f 227 230 254
f 228 253 255
f 228 255 256
f 228 256 257
f 228 257 229
f 229 258 230
f 229 257 258
f 230 258 259
f 230 259 260
f 230 260 261
f 230 261 231
f 231 261 234
f 231 234 232
f 234 261 260
f 234 260 263
f 234 263 277
f 234 277 264
f 234 264 262
f 235 265 236
f 236 265 266
f 236 266 267
f 236 267 237
f 240 268 241
f 241 268 242
f 244 246 245
f 247 269 270
f 247 270 271
f 247 271 272
f 247 272 273
f 247 273 250
f 247 250 248
f 248 250 249
f 250 273 255
f 250 255 274
f 250 274 251
f 251 274 252
f 252 274 255
f 252 255 253
f 255 273 272
f 255 272 271
f 255 271 256
f 256 271 257
f 257 271 275
f 257 275 258
f 258 275 259
f 259 275 276
f 259 276 260
f 260 277 263
f 260 276 278
f 260 278 279
f 260 279 280
f 260 280 277
f 269 281 270
f 270 281 282
f 270 282 283
f 270 283 284
f 270 284 285
f 270 285 271
f 271 285 275
f 275 285 284
f 275 284 276
f 276 284 283
f 276 283 278
f 278 283 286
f 278 286 279
f 279 286 280
f 282 287 288
f 282 288 283
f 283 288 289
f 283 289 286
f 287 289 288

