# https://github.com/mikedh/trimesh
v -0.04958871 -0.16629585 0.04820184
v -0.04958871 -0.16627043 0.04890180
v -0.05164382 -0.16581934 0.04713131
v -0.05164382 -0.16581934 0.04680192
v -0.04958871 -0.16611160 0.04698034
v -0.04958871 -0.16613066 0.04980763
v -0.06576971 -0.16023462 0.04150418
v -0.04958871 -0.16594005 0.04656860
v -0.06576971 -0.16023462 0.04085911
v -0.06421067 -0.16057135 0.04029640
v -0.06421067 -0.16000589 0.03889648
v -0.06155321 -0.16080643 0.03963761
v -0.06260044 -0.16010119 0.03852591
v -0.04958871 -0.16335418 0.04138065
v -0.04958871 -0.16401494 0.04269823
v -0.04958871 -0.16579393 0.05078209
v -0.06319493 -0.16039346 0.04456479
v -0.06507286 -0.15974540 0.04338446
v -0.06574216 -0.15741366 0.04702152
v -0.07417911 -0.15180352 0.04429029
v -0.07174999 -0.15490403 0.04203944
v -0.07209251 -0.15525983 0.03988466
v -0.07201771 -0.15530430 0.03707109
v -0.06882875 -0.15756614 0.03804554
v -0.07165157 -0.15496757 0.03494376
v -0.06421067 -0.15889402 0.03707109
v -0.07052559 -0.15147949 0.02765593
v -0.06865159 -0.15173364 0.02714811
v -0.06072250 -0.16022826 0.03833376
v -0.05013595 -0.16310004 0.04105126
v -0.06139572 -0.15245793 0.02605014
v -0.04958871 -0.16314452 0.04101008
v -0.04958871 -0.16526023 0.05175654
v -0.05449026 -0.15741366 0.05831696
v -0.05473435 -0.15489768 0.06140503
v -0.08252157 -0.13763523 0.05537987
v -0.07437990 -0.15210849 0.04269823
v -0.07349801 -0.15377310 0.03988466
v -0.07434053 -0.15214661 0.03756518
v -0.07354919 -0.15308692 0.03681032
v -0.07450194 -0.15236899 0.03988466
v -0.07400194 -0.14597102 0.02469139
v -0.07364762 -0.14545638 0.02300325
v -0.07180117 -0.14960521 0.02632463
v -0.07145472 -0.15188612 0.02952249
v -0.06421067 -0.15215932 0.02643443
v -0.07169093 -0.14635222 0.02112296
v -0.06983662 -0.14661907 0.02068377
v -0.06983662 -0.14558345 0.01928384
v -0.06421067 -0.15124441 0.02503451
v -0.04958871 -0.16245834 0.03987093
v -0.06139572 -0.15151126 0.02465022
v -0.05013595 -0.16084455 0.03748283
v -0.04958871 -0.16370998 0.05377408
v -0.05295090 -0.15682914 0.06029332
v -0.07710035 -0.13503029 0.06405390
v -0.05275405 -0.15528524 0.06236576
v -0.05436427 -0.11229112 0.11165124
v -0.05726189 -0.11238007 0.10896120
v -0.08980499 -0.11832694 0.07124565
v -0.08980499 -0.11870180 0.07077901
v -0.08980499 -0.12032830 0.06833601
v -0.08980499 -0.12238682 0.06505580
v -0.08980499 -0.12350505 0.06239321
v -0.08264756 -0.13791478 0.05396623
v -0.07565548 -0.15027868 0.04269823
v -0.07404919 -0.15166375 0.03568489
v -0.07567516 -0.15027868 0.03988466
v -0.07477753 -0.14487821 0.02570702
v -0.07674208 -0.14845523 0.04269823
v -0.07448226 -0.14405226 0.02300325
v -0.07416336 -0.14346773 0.02141118
v -0.07259644 -0.14452241 0.02032693
v -0.07444289 -0.13255878 0.00977261
v -0.07365155 -0.13153587 0.00789233
v -0.07162401 -0.14370282 0.01839174
v -0.06336028 -0.14624422 0.01854271
v -0.07177362 -0.13235547 0.00717864
v -0.04958871 -0.16111139 0.03785340
v -0.05858078 -0.15153667 0.02460904
v -0.06139572 -0.14631410 0.01847409
v -0.04958871 -0.16179757 0.05625825
v -0.04958871 -0.15668936 0.06273632
v -0.05029737 -0.15654959 0.06243438
v -0.05013595 -0.15503110 0.06441074
v -0.04958871 -0.11287564 0.11379230
v -0.04958871 -0.10573431 0.12197223
v -0.05442727 -0.10952734 0.11453343
v -0.05624221 -0.11152870 0.11082776
v -0.04958871 -0.15480237 0.06501463
v -0.05732882 -0.10965442 0.11180221
v -0.08980499 -0.10307220 0.08785257
v -0.08980499 -0.11684658 0.07292007
v -0.08980499 -0.12368929 0.06122660
v -0.08266331 -0.13796561 0.05115266
v -0.07598225 -0.14183489 0.02581682
v -0.08254520 -0.13770511 0.04958804
v -0.08832862 -0.12397520 0.05192124
v -0.08700974 -0.10138852 0.00609439
v -0.08621840 -0.10138852 0.00329454
v -0.08504518 -0.10138852 0.00059077
v -0.07686019 -0.11226571 -0.00653237
v -0.07444682 -0.11852390 -0.00450110
v -0.07265156 -0.11621758 -0.00757544
v -0.06983662 -0.11490876 -0.00923612
v -0.06702561 -0.11361265 -0.01066350
v -0.07447438 -0.11585543 -0.00706763
v -0.07265156 -0.11762806 -0.00625786
v -0.05013595 -0.15982799 0.03608291
v -0.04958871 -0.16002495 0.03638485
v -0.05939574 -0.14621245 0.01861134
v -0.05576584 -0.14987206 0.02333264
v -0.04958871 -0.15730565 0.03285760
v -0.04958871 -0.15785205 0.03351638
v -0.06421067 -0.11204333 -0.01199480
v -0.04958871 -0.15518994 0.06454799
v -0.04958871 -0.10471775 0.12290551
v -0.05439577 -0.10668733 0.11730583
v -0.08980499 -0.10155371 0.08945836
v -0.08980499 -0.12332079 0.05946984
v -0.08980499 -0.12304124 0.05834441
v -0.08980499 -0.12222799 0.05664255
v -0.08980499 -0.10264651 0.02266013
v -0.08778138 -0.10138852 0.01006083
v -0.08359243 -0.10138852 -0.00229142
v -0.08263181 -0.10138852 -0.00392466
v -0.07950978 -0.10603292 -0.00613435
v -0.07730901 -0.11038507 -0.00695783
v -0.07506493 -0.11369524 -0.00749310
v -0.07269487 -0.11386043 -0.00893419
v -0.06983662 -0.11350464 -0.01018313
v -0.06726576 -0.11115384 -0.01207714
v -0.05752173 -0.14594560 0.01887210
v -0.05576584 -0.14851241 0.02191899
v -0.05295090 -0.13230464 0.00719236
v -0.05123831 -0.13210768 0.00739823
v -0.04958871 -0.13138338 0.00756293
v -0.06421067 -0.11063921 -0.01269477
v -0.06139572 -0.11013728 -0.01257124
v -0.05938787 -0.10973066 -0.01235164
v -0.06139572 -0.11154776 -0.01154188
v -0.04958871 -0.10368849 0.12367410
v -0.05123043 -0.10338987 0.12257612
v -0.05754929 -0.10138852 0.11887045
v -0.06536814 -0.10138852 0.11191201
v -0.08980499 -0.10138852 0.08960933
v -0.08980499 -0.10164901 0.02108179
v -0.08980499 -0.10138852 0.02072494
v -0.08247827 -0.10138852 -0.00410308
v -0.07976569 -0.10415229 -0.00661471
v -0.07776964 -0.10806605 -0.00724604
v -0.07353738 -0.11088064 -0.00912633
v -0.07178543 -0.11302812 -0.00966159
v -0.06836418 -0.10864421 -0.01215950
v -0.06648624 -0.11039778 -0.01253006
v -0.06983662 -0.11088064 -0.01107524
v -0.05750992 -0.10933039 -0.01207714
v -0.04958871 -0.10488929 -0.01301042
v -0.04958871 -0.13046848 0.00682180
v -0.06421067 -0.10806605 -0.01344962
v -0.06139572 -0.10806605 -0.01338100
v -0.04958871 -0.10171255 -0.01493189
v -0.04958871 -0.10138852 0.12522499
v -0.04997454 -0.10138852 0.12504657
v -0.05665560 -0.10138852 0.11961158
v -0.08167119 -0.10138852 -0.00496774
v -0.07976569 -0.10314208 -0.00661471
v -0.07559249 -0.10525145 -0.00872831
v -0.07410037 -0.10678264 -0.00940083
v -0.07521060 -0.10785638 -0.00871459
v -0.06852167 -0.10525145 -0.01224185
v -0.06726576 -0.10785003 -0.01265359
v -0.07265156 -0.10525145 -0.01021059
v -0.06992323 -0.10525145 -0.01155561
v -0.06421067 -0.10525145 -0.01339472
v -0.04958871 -0.10138852 -0.01498679
v -0.06702561 -0.10525145 -0.01276339
v -0.07951372 -0.10138852 -0.00661471
v -0.07917908 -0.10138852 -0.00680685
v -0.07853735 -0.10138852 -0.00714997
v -0.07418304 -0.10352329 -0.00944201
v -0.07418304 -0.10525145 -0.00944201
v -0.06854135 -0.10357412 -0.01224185
v -0.06684845 -0.10255756 -0.01239282
v -0.06139572 -0.10138852 -0.01320258
v -0.07658461 -0.10138852 -0.00809698
v -0.06753742 -0.10138852 -0.01200852
v -0.06684845 -0.10138852 -0.01215950
v -0.07065944 -0.10138852 -0.01084193
v -0.06970670 -0.10138852 -0.01125366
v -0.06798624 -0.10138852 -0.01187128
v -0.06420673 -0.10138852 -0.01266731
f 1 2 3
f 1 3 4
f 1 4 5
f 1 5 8
f 1 8 15
f 1 15 14
f 1 14 32
f 1 32 51
f 1 51 79
f 1 79 110
f 1 110 114
f 1 114 113
f 1 113 137
f 1 137 159
f 1 159 158
f 1 158 162
f 1 162 176
f 1 176 163
f 1 163 142
f 1 142 117
f 1 117 87
f 1 87 86
f 1 86 90
f 1 90 116
f 1 116 83
f 1 83 82
f 1 82 54
f 1 54 33
f 1 33 16
f 1 16 6
f 1 6 2
f 2 6 3
f 3 6 7
f 3 7 9
f 3 9 4
f 4 8 5
f 4 9 10
f 4 10 11
f 4 11 12
f 4 12 13
f 4 13 14
f 4 14 15
f 4 15 8
f 6 16 7
f 7 17 18
f 7 18 19
f 7 19 20
f 7 20 21
f 7 21 22
f 7 22 9
f 7 16 17
f 9 22 23
f 9 23 24
f 9 24 25
f 9 25 11
f 9 11 10
f 11 26 13
f 11 13 12
f 11 25 27
f 11 27 28
f 11 28 26
f 13 29 30
f 13 30 14
f 13 26 31
f 13 31 29
f 14 30 32
f 16 33 19
f 16 19 17
f 17 19 18
f 19 33 34
f 19 34 35
f 19 35 36
f 19 36 20
f 20 37 22
f 20 22 21
f 20 36 37
f 22 37 38
f 22 38 23
f 23 39 40
f 23 40 25
f 23 25 24
f 23 38 41
f 23 41 39
f 25 40 42
f 25 42 43
f 25 43 44
f 25 44 45
f 25 45 27
f 26 28 46
f 26 46 31
f 27 45 44
f 27 44 47
f 27 47 28
f 28 47 48
f 28 48 49
f 28 49 50
f 28 50 46
f 29 51 32
f 29 32 30
f 29 31 51
f 31 46 50
f 31 50 52
f 31 52 53
f 31 53 51
f 33 54 55
f 33 55 34
f 34 55 35
f 35 56 36
f 35 55 57
f 35 57 58
f 35 58 59
f 35 59 56
f 36 56 60
f 36 60 61
f 36 61 62
f 36 62 63
f 36 63 64
f 36 64 65
f 36 65 37
f 37 66 41
f 37 41 38
f 37 65 66
f 39 67 40
f 39 41 68
f 39 68 69
f 39 69 42
f 39 42 67
f 40 67 42
f 41 66 70
f 41 70 68
f 42 69 71
f 42 71 43
f 43 71 72
f 43 72 47
f 43 47 44
f 47 72 73
f 47 73 74
f 47 74 75
f 47 75 76
f 47 76 49
f 47 49 48
f 49 77 52
f 49 52 50
f 49 76 78
f 49 78 77
f 51 53 79
f 52 80 53
f 52 77 81
f 52 81 80
f 53 80 79
f 54 82 55
f 55 82 83
f 55 83 84
f 55 84 57
f 56 59 60
f 57 84 83
f 57 83 85
f 57 85 58
f 58 86 87
f 58 87 88
f 58 88 89
f 58 89 59
f 58 85 90
f 58 90 86
f 59 89 91
f 59 91 92
f 59 92 93
f 59 93 60
f 60 93 92
f 60 92 119
f 60 119 146
f 60 146 148
f 60 148 147
f 60 147 123
f 60 123 122
f 60 122 121
f 60 121 120
f 60 120 94
f 60 94 64
f 60 64 63
f 60 63 62
f 60 62 61
f 64 94 65
f 65 94 95
f 65 95 70
f 65 70 66
f 68 96 69
f 68 70 95
f 68 95 97
f 68 97 98
f 68 98 96
f 69 96 71
f 71 96 99
f 71 99 100
f 71 100 72
f 72 100 74
f 72 74 73
f 74 100 101
f 74 101 102
f 74 102 103
f 74 103 75
f 75 103 76
f 76 103 78
f 77 78 104
f 77 104 105
f 77 105 106
f 77 106 81
f 78 103 107
f 78 107 108
f 78 108 104
f 79 80 109
f 79 109 110
f 80 81 111
f 80 111 112
f 80 112 113
f 80 113 114
f 80 114 109
f 81 106 115
f 81 115 111
f 83 116 85
f 85 116 90
f 87 117 118
f 87 118 88
f 88 118 91
f 88 91 89
f 91 118 119
f 91 119 92
f 94 120 95
f 95 120 121
f 95 121 97
f 96 98 99
f 97 121 98
f 98 121 122
f 98 122 123
f 98 123 124
f 98 124 99
f 99 124 148
f 99 148 146
f 99 146 145
f 99 145 144
f 99 144 165
f 99 165 164
f 99 164 163
f 99 163 176
f 99 176 185
f 99 185 192
f 99 192 188
f 99 188 187
f 99 187 191
f 99 191 190
f 99 190 189
f 99 189 186
f 99 186 180
f 99 180 179
f 99 179 178
f 99 178 166
f 99 166 149
f 99 149 126
f 99 126 125
f 99 125 101
f 99 101 100
f 101 125 102
f 102 125 126
f 102 126 127
f 102 127 128
f 102 128 129
f 102 129 107
f 102 107 103
f 104 108 107
f 104 107 130
f 104 130 131
f 104 131 105
f 105 131 106
f 106 131 132
f 106 132 115
f 107 129 130
f 109 114 110
f 111 133 134
f 111 134 112
f 111 115 135
f 111 135 136
f 111 136 133
f 112 134 113
f 113 134 136
f 113 136 137
f 115 132 138
f 115 138 139
f 115 139 140
f 115 140 141
f 115 141 136
f 115 136 135
f 117 142 143
f 117 143 144
f 117 144 118
f 118 144 145
f 118 145 146
f 118 146 119
f 123 147 124
f 124 147 148
f 126 149 150
f 126 150 127
f 127 150 128
f 128 150 151
f 128 151 130
f 128 130 129
f 130 152 153
f 130 153 131
f 130 151 152
f 131 153 132
f 132 154 155
f 132 155 138
f 132 153 156
f 132 156 154
f 133 136 134
f 136 141 140
f 136 140 157
f 136 157 158
f 136 158 159
f 136 159 137
f 138 155 160
f 138 160 161
f 138 161 162
f 138 162 139
f 139 158 140
f 139 162 158
f 140 158 157
f 142 163 164
f 142 164 143
f 143 164 165
f 143 165 144
f 149 166 150
f 150 166 167
f 150 167 168
f 150 168 169
f 150 169 170
f 150 170 151
f 151 170 152
f 152 170 156
f 152 156 153
f 154 171 172
f 154 172 155
f 154 156 170
f 154 170 169
f 154 169 173
f 154 173 174
f 154 174 171
f 155 172 160
f 160 175 176
f 160 176 162
f 160 162 161
f 160 172 177
f 160 177 175
f 166 178 167
f 167 178 179
f 167 179 180
f 167 180 181
f 167 181 168
f 168 181 182
f 168 182 169
f 169 182 173
f 171 183 177
f 171 177 172
f 171 174 183
f 173 182 181
f 173 181 183
f 173 183 174
f 175 177 183
f 175 183 184
f 175 184 185
f 175 185 176
f 180 186 183
f 180 183 181
f 183 187 188
f 183 188 184
f 183 186 189
f 183 189 190
f 183 190 191
f 183 191 187
f 184 188 192
f 184 192 185

