# https://github.com/mikedh/trimesh
v -0.00337782 0.00420418 0.19229701
v -0.00512352 0.00420418 0.19208383
v -0.01636434 -0.00582960 0.18783984
v -0.00337782 -0.00400981 0.18989401
v -0.00337782 0.00420418 0.00614271
v -0.02763286 0.00420418 0.18900257
v -0.01802691 -0.00545762 0.18770419
v -0.01636434 -0.00723730 0.18723909
v -0.01354721 -0.00821345 0.18721971
v -0.00337782 -0.00674740 0.18882817
v -0.00337782 -0.00821345 0.00296456
v -0.01354721 -0.00391013 0.00098790
v -0.01636434 -0.00391013 0.00040653
v -0.01636434 -0.00160287 0.00139486
v -0.01630892 0.00420418 0.00397227
v -0.02773446 0.00154925 0.18822742
v -0.02792843 0.00420418 0.18892506
v -0.03442168 -0.00503337 0.18477797
v -0.02350415 -0.00256079 0.18768481
v -0.03254668 -0.00563146 0.18497175
v -0.03338720 -0.00663192 0.18427412
v -0.03330407 -0.00821345 0.18344081
v -0.01644746 -0.00821345 0.18669648
v -0.00337782 -0.00821345 0.18807239
v -0.01354721 -0.00821345 0.00032902
v -0.01354721 -0.00672552 0.00036777
v -0.01636434 -0.00672552 -0.00029111
v -0.05294086 -0.00109717 -0.00302354
v -0.05575799 0.00171822 -0.00263596
v -0.05294086 0.00171822 -0.00228715
v -0.05294086 0.00383584 -0.00139571
v -0.01884895 0.00420418 0.00360406
v -0.02686623 -0.00011130 0.18785921
v -0.02999740 0.00420418 0.18822742
v -0.02962794 0.00237466 0.18799488
v -0.03493893 -0.00315766 0.18493300
v -0.03595494 -0.00402197 0.18437101
v -0.03882749 -0.00647389 0.18243311
v -0.03799621 -0.00821345 0.18221994
v -0.03756209 -0.00821345 0.18239435
v -0.03522526 -0.00821345 0.18299509
v -0.01636434 -0.00821345 -0.00036862
v -0.05575799 -0.00821345 -0.00501958
v -0.05869519 -0.00821345 -0.00534901
v -0.05575799 -0.00672552 -0.00470951
v -0.05575799 -0.00109717 -0.00333361
v -0.05842733 -0.00108623 -0.00358553
v -0.06139225 -0.00021827 -0.00362429
v -0.06523464 0.00039440 -0.00377933
v -0.05575799 0.00412516 -0.00151198
v -0.05575799 0.00420418 -0.00147322
v -0.05355047 0.00420418 -0.00122130
v -0.05294086 0.00420418 -0.00114379
v -0.03011748 0.00420418 0.18814991
v -0.04030533 -0.00515493 0.18202616
v -0.04030533 -0.00536766 0.18202616
v -0.03973267 -0.00724459 0.18173547
v -0.03934474 -0.00821345 0.18154168
v -0.06139225 -0.00821345 -0.00560095
v -0.06425557 -0.00096831 -0.00405063
v -0.06257452 -0.00821345 -0.00563970
v -0.06689720 -0.00099384 -0.00408938
v -0.06588119 0.00039440 -0.00377933
v -0.06127217 0.00420418 -0.00162827
v -0.05844581 0.00420418 -0.00160889
v -0.05688484 0.00420418 -0.00153136
v -0.03167845 0.00420418 0.18712282
v -0.04282689 -0.00672552 0.17871234
v -0.04020373 -0.00327922 0.18192925
v -0.09080125 -0.00821345 0.11421917
v -0.09067194 -0.00821345 0.11439358
v -0.04119203 -0.00821345 0.18026266
v -0.04034228 -0.00821345 0.18096032
v -0.04270682 -0.00821345 0.17873172
v -0.04198637 -0.00821345 0.17958440
v -0.06537318 -0.00821345 -0.00563970
v -0.06892922 -0.00186302 -0.00395374
v -0.06775620 0.00001391 -0.00358553
v -0.06983440 -0.00821345 -0.00550405
v -0.07266078 -0.00821345 -0.00503896
v -0.06420014 0.00400360 -0.00157011
v -0.06239903 0.00420418 -0.00157011
v -0.06139225 0.00420418 -0.00162827
v -0.03982504 -0.00109717 0.18154168
v -0.03979732 0.00420418 0.17871234
v -0.04016678 0.00289009 0.17908055
v -0.04327948 -0.00821345 0.17797595
v -0.04325177 0.00070925 0.17658066
v -0.04346421 -0.00109717 0.17683259
v -0.09370151 0.00017681 0.10592497
v -0.09652788 -0.00821345 0.10596373
v -0.07267001 -0.00668905 -0.00447697
v -0.07174636 -0.00474648 -0.00403125
v -0.07453578 -0.00760199 -0.00408938
v -0.06919709 0.00113107 -0.00170578
v -0.06638919 0.00353315 -0.00133757
v -0.07394465 -0.00821345 -0.00453510
v -0.06423709 0.00420418 -0.00131819
v -0.04061014 0.00101316 0.17960378
v -0.04109967 0.00420418 0.17729769
v -0.04174622 0.00179967 0.17784030
v -0.04287308 0.00258496 0.17607680
v -0.09134620 0.00368389 0.10646758
v -0.09419104 0.00084054 0.10406459
v -0.09462516 -0.00089538 0.10483975
v -0.04350116 0.00420418 0.17423581
v -0.09653711 -0.00821345 0.10594435
v -0.07481288 -0.00821345 -0.00418628
v -0.07609675 -0.00821345 -0.00230652
v -0.07108133 0.00009293 -0.00058180
v -0.06826420 0.00300800 -0.00056242
v -0.06684178 0.00420418 0.00040653
v -0.04133058 0.00420418 0.17702638
v -0.04250362 0.00420418 0.17563110
v -0.09059805 0.00420418 0.10701019
v -0.09117071 0.00420418 0.10596373
v -0.09169719 0.00414583 0.10460720
v -0.09429264 0.00098763 0.10179726
v -0.09533637 -0.00109717 0.10179726
v -0.09751618 -0.00821345 0.10315378
v -0.09715596 -0.00821345 0.10441341
v -0.07812878 -0.00821345 0.00151113
v -0.07420327 -0.00229942 0.00164678
v -0.07152468 0.00054271 0.00129797
v -0.06720200 0.00400603 0.00042591
v -0.08436341 0.00420418 0.04294335
v -0.06711888 0.00420418 0.00096852
v -0.09165101 0.00420418 0.10460720
v -0.09166024 0.00420418 0.10451031
v -0.09176185 0.00420418 0.10179726
v -0.09154941 0.00389905 0.09615798
v -0.08887082 0.00407532 0.06803910
v -0.08873228 0.00390756 0.06522916
v -0.09028401 0.00212424 0.06803910
v -0.09134620 -0.00199673 0.04833070
v -0.09700817 -0.00821345 0.09055746
v -0.09772862 -0.00821345 0.10179726
v -0.09223290 -0.00391013 0.04833070
v -0.09381235 -0.00799585 0.04943530
v -0.07880304 -0.00821345 0.00329401
v -0.09109682 -0.00500663 0.04110235
v -0.09051492 -0.00312483 0.04271080
v -0.07710353 -0.00500176 0.00422418
v -0.09118919 -0.00218151 0.04633467
v -0.09004386 -0.00118591 0.04544324
v -0.08852907 0.00071654 0.04552075
v -0.08550874 0.00331920 0.04367975
v -0.08515775 0.00420418 0.04552075
v -0.09130002 0.00420418 0.09615798
v -0.08876922 0.00420418 0.06803910
v -0.08874151 0.00420418 0.06774842
v -0.08849212 0.00420418 0.06522916
v -0.08839052 0.00420418 0.06445400
v -0.08683879 0.00420418 0.05352426
v -0.09015469 -0.00058904 0.04833070
v -0.09383082 -0.00821345 0.04928027
v -0.09166949 -0.00375088 0.04544324
v -0.09279633 -0.00672552 0.04552075
v -0.09322121 -0.00821345 0.04552075
v -0.09374769 -0.00821345 0.04869890
v -0.09268550 -0.00821345 0.04280770
v -0.09224215 -0.00672552 0.04271080
v -0.09138316 -0.00453253 0.04271080
v -0.08630307 0.00420418 0.05071431
v -0.08717131 0.00212424 0.04552075
f 1 2 3
f 1 3 4
f 1 4 10
f 1 10 24
f 1 24 11
f 1 11 5
f 1 5 15
f 1 15 32
f 1 32 53
f 1 53 52
f 1 52 51
f 1 51 66
f 1 66 65
f 1 65 64
f 1 64 83
f 1 83 82
f 1 82 98
f 1 98 112
f 1 112 127
f 1 127 126
f 1 126 148
f 1 148 164
f 1 164 154
f 1 154 153
f 1 153 152
f 1 152 151
f 1 151 150
f 1 150 149
f 1 149 130
f 1 130 129
f 1 129 128
f 1 128 116
f 1 116 115
f 1 115 106
f 1 106 114
f 1 114 113
f 1 113 100
f 1 100 85
f 1 85 67
f 1 67 54
f 1 54 34
f 1 34 17
f 1 17 6
f 1 6 2
f 2 6 3
f 3 6 7
f 3 7 8
f 3 8 9
f 3 9 4
f 4 9 10
f 5 11 12
f 5 12 13
f 5 13 14
f 5 14 15
f 6 16 7
f 6 17 18
f 6 18 16
f 7 16 19
f 7 19 20
f 7 20 8
f 8 20 21
f 8 21 22
f 8 22 23
f 8 23 9
f 9 23 22
f 9 22 41
f 9 41 40
f 9 40 39
f 9 39 58
f 9 58 73
f 9 73 72
f 9 72 75
f 9 75 74
f 9 74 87
f 9 87 71
f 9 71 70
f 9 70 91
f 9 91 107
f 9 107 121
f 9 121 120
f 9 120 137
f 9 137 136
f 9 136 156
f 9 156 160
f 9 160 159
f 9 159 161
f 9 161 140
f 9 140 122
f 9 122 109
f 9 109 108
f 9 108 97
f 9 97 80
f 9 80 79
f 9 79 76
f 9 76 61
f 9 61 59
f 9 59 44
f 9 44 43
f 9 43 42
f 9 42 25
f 9 25 11
f 9 11 24
f 9 24 10
f 11 25 26
f 11 26 12
f 12 26 27
f 12 27 13
f 13 27 28
f 13 28 29
f 13 29 30
f 13 30 31
f 13 31 14
f 14 32 15
f 14 31 32
f 16 33 19
f 16 18 20
f 16 20 33
f 17 34 35
f 17 35 18
f 18 36 37
f 18 37 38
f 18 38 39
f 18 39 40
f 18 40 21
f 18 21 20
f 18 35 34
f 18 34 36
f 19 33 20
f 21 40 41
f 21 41 22
f 25 42 26
f 26 42 27
f 27 42 43
f 27 43 44
f 27 44 45
f 27 45 28
f 28 45 46
f 28 46 29
f 29 46 47
f 29 47 48
f 29 48 49
f 29 49 50
f 29 50 31
f 29 31 30
f 31 50 51
f 31 51 52
f 31 52 53
f 31 53 32
f 34 54 55
f 34 55 56
f 34 56 37
f 34 37 36
f 37 56 38
f 38 56 57
f 38 57 39
f 39 57 58
f 44 59 47
f 44 47 45
f 45 47 46
f 47 59 48
f 48 59 60
f 48 60 49
f 49 60 59
f 49 59 61
f 49 61 62
f 49 62 63
f 49 63 83
f 49 83 64
f 49 64 65
f 49 65 66
f 49 66 50
f 50 66 51
f 54 67 55
f 55 68 56
f 55 67 69
f 55 69 70
f 55 70 71
f 55 71 68
f 56 72 73
f 56 73 57
f 56 68 74
f 56 74 75
f 56 75 72
f 57 73 58
f 61 76 62
f 62 77 78
f 62 78 63
f 62 76 79
f 62 79 80
f 62 80 77
f 63 78 81
f 63 81 82
f 63 82 83
f 67 84 69
f 67 85 86
f 67 86 84
f 68 87 74
f 68 71 87
f 69 84 88
f 69 88 89
f 69 89 70
f 70 90 91
f 70 89 88
f 70 88 90
f 77 80 92
f 77 92 93
f 77 93 78
f 78 93 94
f 78 94 95
f 78 95 96
f 78 96 81
f 80 97 94
f 80 94 92
f 81 96 98
f 81 98 82
f 84 86 99
f 84 99 88
f 85 100 86
f 86 100 99
f 88 99 101
f 88 101 102
f 88 102 90
f 90 103 104
f 90 104 105
f 90 105 91
f 90 102 106
f 90 106 103
f 91 105 107
f 92 94 93
f 94 97 108
f 94 108 109
f 94 109 110
f 94 110 95
f 95 110 111
f 95 111 96
f 96 111 112
f 96 112 98
f 99 100 113
f 99 113 101
f 101 113 102
f 102 113 114
f 102 114 106
f 103 115 116
f 103 116 104
f 103 106 115
f 104 117 118
f 104 118 119
f 104 119 120
f 104 120 105
f 104 116 117
f 105 120 121
f 105 121 107
f 109 122 123
f 109 123 110
f 110 124 111
f 110 123 124
f 111 125 112
f 111 124 126
f 111 126 125
f 112 125 127
f 116 128 117
f 117 128 129
f 117 129 118
f 118 129 130
f 118 130 131
f 118 131 132
f 118 132 133
f 118 133 134
f 118 134 135
f 118 135 119
f 119 136 137
f 119 137 120
f 119 135 138
f 119 138 139
f 119 139 136
f 122 140 141
f 122 141 142
f 122 142 143
f 122 143 123
f 123 143 142
f 123 142 144
f 123 144 145
f 123 145 146
f 123 146 147
f 123 147 124
f 124 147 126
f 125 126 127
f 126 147 148
f 130 149 131
f 131 149 150
f 131 150 132
f 132 150 151
f 132 151 133
f 133 151 152
f 133 152 135
f 133 135 134
f 135 152 153
f 135 153 154
f 135 154 155
f 135 155 144
f 135 144 138
f 136 139 156
f 138 144 157
f 138 157 158
f 138 158 139
f 139 158 159
f 139 159 160
f 139 160 156
f 140 161 162
f 140 162 141
f 141 162 163
f 141 163 142
f 142 163 144
f 144 155 146
f 144 146 145
f 144 163 157
f 146 155 154
f 146 154 164
f 146 164 165
f 146 165 147
f 147 165 148
f 148 165 164
f 157 163 162
f 157 162 158
f 158 162 159
f 159 162 161

