# https://github.com/mikedh/trimesh
v -0.04958871 -0.10138852 -0.01497292
v -0.06139572 -0.10138852 -0.01320201
v -0.04958871 -0.10098978 -0.01504520
v -0.04958871 -0.10138852 0.12521871
v -0.04958871 -0.09960954 -0.01502713
v -0.06684845 -0.10138852 -0.01215390
v -0.08263181 -0.07872200 -0.00940717
v -0.08263181 -0.07812390 -0.00940717
v -0.07265156 -0.02361999 -0.01013000
v -0.04958871 -0.09064569 0.14384949
v -0.04964777 -0.10138852 0.12520064
v -0.06702561 -0.02643413 -0.01065405
v -0.06421067 -0.02643413 -0.01079861
v -0.05858078 -0.02643413 -0.01079861
v -0.05576584 -0.02643413 -0.01069019
v -0.04958871 -0.02924828 -0.01047334
v -0.06753742 -0.10138852 -0.01200934
v -0.08672628 -0.08272468 -0.00772661
v -0.08917114 -0.08272468 -0.00689537
v -0.08980499 -0.08272468 -0.00667852
v -0.08672628 -0.07991054 -0.00790732
v -0.08980499 -0.06301800 -0.00749170
v -0.07610036 -0.02305256 -0.00951561
v -0.07600193 -0.02305256 -0.00953368
v -0.08980499 -0.02676385 -0.00680502
v -0.07324211 -0.02305256 -0.01000351
v -0.07265156 -0.02305256 -0.01009386
v -0.07039961 -0.02305256 -0.01025650
v -0.06983662 -0.02361999 -0.01032878
v -0.05754929 -0.10138852 0.11887594
v -0.05665560 -0.10138852 0.11961683
v -0.04997454 -0.10138852 0.12505608
v -0.04958871 -0.09023163 0.14439161
v -0.07974601 -0.07572383 0.13985589
v -0.08980499 -0.09745485 0.09590821
v -0.08980499 -0.10138852 0.08961965
v -0.06536814 -0.10138852 0.11190069
v -0.06702561 -0.02361999 -0.01047334
v -0.06758860 -0.02305256 -0.01040106
v -0.06477366 -0.02305256 -0.01032878
v -0.05559655 -0.02341295 -0.00987702
v -0.05366743 -0.02305256 -0.00953368
v -0.04958871 -0.02619642 -0.00982279
v -0.04958871 -0.02663350 -0.00993123
v -0.06798624 -0.10138852 -0.01186479
v -0.08980499 -0.08358350 -0.00657010
v -0.07682870 -0.02305256 -0.00935297
v -0.08980499 -0.02634212 -0.00662431
v -0.08859635 -0.02435611 -0.00678694
v -0.08687194 -0.02349730 -0.00713029
v -0.04958871 -0.08881305 0.14571076
v -0.07265156 -0.07233459 0.14766239
v -0.07440745 -0.07030257 0.14840328
v -0.07628539 -0.06944376 0.14780694
v -0.07956884 -0.07276399 0.14254840
v -0.08866721 -0.06771080 0.14030765
v -0.08827351 -0.07862232 0.12583311
v -0.08980499 -0.07881402 0.12371885
v -0.08980499 -0.10138852 0.02073456
v -0.05529340 -0.02305256 -0.00973245
v -0.04958871 -0.02305256 -0.00872049
v -0.04958871 -0.02317525 -0.00877470
v -0.04958871 -0.02374268 -0.00899155
v -0.06970670 -0.10138852 -0.01125038
v -0.08881287 -0.08469535 -0.00676887
v -0.08980499 -0.08515543 -0.00624483
v -0.08667510 -0.02305256 -0.00705800
v -0.08980499 -0.02434078 -0.00557622
v -0.08871051 -0.02305256 -0.00575691
v -0.08732470 -0.02305256 -0.00676887
v -0.04958871 -0.08823795 0.14592761
v -0.07085630 -0.07284067 0.14822257
v -0.05942724 -0.03883324 0.16224535
v -0.06139572 -0.04050485 0.16117919
v -0.07713185 -0.06757278 0.14838521
v -0.08894279 -0.06583215 0.14061486
v -0.08980499 -0.06583215 0.13963904
v -0.08980499 -0.06813254 0.13822953
v -0.08980499 -0.06825523 0.13810304
v -0.08980499 -0.07829260 0.12447782
v -0.07970663 -0.06445958 0.14825871
v -0.08980499 -0.09655769 0.00329644
v -0.08965145 -0.09679540 0.00329644
v -0.08844674 -0.09862805 0.00329644
v -0.08778138 -0.10138852 0.01005485
v -0.04958871 -0.02305256 0.16956393
v -0.07065944 -0.10138852 -0.01083475
v -0.08966720 -0.08559250 -0.00620869
v -0.08980499 -0.08559250 -0.00613641
v -0.08980499 -0.02379635 -0.00508830
v -0.08913571 -0.02305256 -0.00501602
v -0.04958871 -0.02312157 0.16954586
v -0.06028943 -0.03695458 0.16251641
v -0.08861603 -0.06301800 0.14030765
v -0.08980499 -0.06301800 0.13898850
v -0.08980499 -0.06495033 0.13944027
v -0.07973025 -0.06301800 0.14827678
v -0.07972238 -0.06146141 0.14827678
v -0.07129724 -0.04159370 0.15393288
v -0.07112795 -0.03971505 0.15377024
v -0.06374610 -0.04050485 0.16016724
v -0.08980499 -0.09480173 0.00042322
v -0.08819870 -0.09829066 0.00176045
v -0.08621840 -0.10138852 0.00329644
v -0.08700974 -0.10138852 0.00609739
v -0.05154933 -0.02305256 0.16858813
v -0.05183673 -0.02536062 0.16819057
v -0.07658461 -0.10138852 -0.00808802
v -0.07853735 -0.10138852 -0.00714836
v -0.08980499 -0.08810760 -0.00517867
v -0.07917908 -0.10138852 -0.00680502
v -0.07951372 -0.10138852 -0.00660624
v -0.08980499 -0.02305256 -0.00324511
v -0.06034061 -0.03487657 0.16258869
v -0.08980499 -0.04033616 0.13266379
v -0.06515555 -0.04050485 0.15915528
v -0.06365162 -0.03769071 0.16022145
v -0.06506105 -0.03769071 0.15899264
v -0.05189579 -0.02305256 0.16828093
v -0.06536420 -0.02305256 0.15348111
v -0.08980499 -0.03782107 0.13192290
v -0.08815540 -0.03905561 0.13418172
v -0.08980499 -0.09441833 -0.00004662
v -0.08771052 -0.09752386 -0.00011890
v -0.08504518 -0.10138852 0.00060392
v -0.08359243 -0.10138852 -0.00228736
v -0.08980499 -0.08835297 -0.00507023
v -0.08167119 -0.10138852 -0.00496181
v -0.08980499 -0.09035431 -0.00418478
v -0.08980499 -0.02305256 0.12341165
v -0.07417124 -0.02305256 0.14272911
v -0.08980106 -0.02881887 0.12740525
v -0.08980499 -0.02882654 0.12740525
v -0.08980499 -0.03075887 0.12854370
v -0.08980499 -0.03261451 0.12951951
v -0.08980499 -0.03411744 0.13027848
v -0.08980499 -0.03487657 0.13065796
v -0.08980499 -0.09313012 -0.00149226
v -0.08980499 -0.09240932 -0.00228736
v -0.08676564 -0.09683374 -0.00237771
v -0.08263181 -0.10138852 -0.00391372
v -0.08269874 -0.10138852 -0.00380530
v -0.08247827 -0.10138852 -0.00411250
v -0.08980499 -0.09058435 -0.00405828
v -0.08980499 -0.02703224 0.12617645
v -0.08980499 -0.09200292 -0.00268491
v -0.08517510 -0.09802995 -0.00357038
v -0.08265937 -0.10128883 -0.00396793
f 1 2 3
f 1 3 5
f 1 5 16
f 1 16 44
f 1 44 43
f 1 43 63
f 1 63 62
f 1 62 61
f 1 61 86
f 1 86 92
f 1 92 71
f 1 71 51
f 1 51 33
f 1 33 10
f 1 10 4
f 1 4 11
f 1 11 32
f 1 32 31
f 1 31 30
f 1 30 37
f 1 37 36
f 1 36 59
f 1 59 85
f 1 85 105
f 1 105 104
f 1 104 125
f 1 125 126
f 1 126 142
f 1 142 141
f 1 141 143
f 1 143 128
f 1 128 112
f 1 112 111
f 1 111 109
f 1 109 108
f 1 108 87
f 1 87 64
f 1 64 45
f 1 45 17
f 1 17 6
f 1 6 2
f 2 5 3
f 2 6 7
f 2 7 8
f 2 8 9
f 2 9 5
f 4 10 11
f 5 9 12
f 5 12 13
f 5 13 14
f 5 14 15
f 5 15 16
f 6 17 7
f 7 17 18
f 7 18 19
f 7 19 20
f 7 20 21
f 7 21 22
f 7 22 8
f 8 23 24
f 8 24 9
f 8 22 25
f 8 25 23
f 9 26 27
f 9 27 28
f 9 28 29
f 9 29 12
f 9 24 26
f 10 30 31
f 10 31 32
f 10 32 11
f 10 33 34
f 10 34 35
f 10 35 36
f 10 36 37
f 10 37 30
f 12 29 38
f 12 38 13
f 13 38 14
f 14 38 39
f 14 39 40
f 14 40 15
f 15 40 41
f 15 41 42
f 15 42 43
f 15 43 44
f 15 44 16
f 17 45 18
f 18 45 19
f 19 45 20
f 20 46 66
f 20 66 89
f 20 89 110
f 20 110 127
f 20 127 129
f 20 129 144
f 20 144 146
f 20 146 139
f 20 139 138
f 20 138 123
f 20 123 102
f 20 102 82
f 20 82 59
f 20 59 36
f 20 36 35
f 20 35 58
f 20 58 80
f 20 80 79
f 20 79 78
f 20 78 77
f 20 77 96
f 20 96 95
f 20 95 115
f 20 115 121
f 20 121 137
f 20 137 136
f 20 136 135
f 20 135 134
f 20 134 133
f 20 133 145
f 20 145 130
f 20 130 113
f 20 113 90
f 20 90 68
f 20 68 48
f 20 48 25
f 20 25 22
f 20 22 21
f 20 45 46
f 23 25 47
f 23 47 67
f 23 67 70
f 23 70 69
f 23 69 91
f 23 91 113
f 23 113 130
f 23 130 131
f 23 131 120
f 23 120 119
f 23 119 106
f 23 106 86
f 23 86 61
f 23 61 42
f 23 42 60
f 23 60 40
f 23 40 39
f 23 39 28
f 23 28 27
f 23 27 26
f 23 26 24
f 25 48 49
f 25 49 50
f 25 50 47
f 28 39 38
f 28 38 29
f 33 51 52
f 33 52 34
f 34 52 53
f 34 53 54
f 34 54 55
f 34 55 56
f 34 56 57
f 34 57 35
f 35 57 58
f 40 60 41
f 41 60 42
f 42 61 62
f 42 62 63
f 42 63 43
f 45 64 65
f 45 65 46
f 46 65 66
f 47 50 67
f 48 68 49
f 49 68 69
f 49 69 70
f 49 70 67
f 49 67 50
f 51 71 72
f 51 72 52
f 52 72 53
f 53 72 73
f 53 73 74
f 53 74 75
f 53 75 54
f 54 75 56
f 54 56 55
f 56 76 77
f 56 77 78
f 56 78 79
f 56 79 80
f 56 80 57
f 56 75 81
f 56 81 76
f 57 80 58
f 59 82 83
f 59 83 84
f 59 84 85
f 64 87 88
f 64 88 65
f 65 88 66
f 66 88 89
f 68 90 69
f 69 90 91
f 71 92 72
f 72 92 73
f 73 92 93
f 73 93 74
f 74 93 75
f 75 93 81
f 76 94 95
f 76 95 96
f 76 96 77
f 76 81 97
f 76 97 98
f 76 98 99
f 76 99 100
f 76 100 94
f 81 93 101
f 81 101 97
f 82 102 103
f 82 103 83
f 83 103 84
f 84 103 104
f 84 104 105
f 84 105 85
f 86 106 107
f 86 107 93
f 86 93 92
f 87 108 88
f 88 108 109
f 88 109 89
f 89 109 111
f 89 111 112
f 89 112 110
f 90 113 91
f 93 114 101
f 93 107 106
f 93 106 114
f 94 100 95
f 95 100 115
f 97 101 116
f 97 116 98
f 98 116 99
f 99 116 117
f 99 117 118
f 99 118 100
f 100 118 119
f 100 119 120
f 100 120 121
f 100 121 122
f 100 122 115
f 101 114 116
f 102 123 124
f 102 124 103
f 103 125 104
f 103 124 126
f 103 126 125
f 106 119 118
f 106 118 117
f 106 117 114
f 110 112 127
f 112 128 129
f 112 129 127
f 114 117 116
f 115 122 121
f 120 131 132
f 120 132 133
f 120 133 134
f 120 134 135
f 120 135 136
f 120 136 137
f 120 137 121
f 123 138 124
f 124 138 139
f 124 139 140
f 124 140 141
f 124 141 142
f 124 142 126
f 128 143 144
f 128 144 129
f 130 145 131
f 131 145 132
f 132 145 133
f 139 146 147
f 139 147 140
f 140 147 141
f 141 147 148
f 141 148 143
f 143 148 147
f 143 147 144
f 144 147 146

