# https://github.com/mikedh/trimesh
v 0.05510997 -0.02304546 -0.01496296
v 0.02625612 -0.02304546 0.00116565
v 0.03841463 0.03383732 -0.01789925
v 0.05510997 -0.01855677 -0.01582287
v 0.05510997 -0.02304546 0.17042165
v 0.02625612 0.04112434 -0.01060048
v 0.03593716 0.04112434 -0.01771049
v 0.02625612 -0.02304546 0.18923487
v 0.03817168 0.03549217 -0.01804606
v 0.03994291 0.03549217 -0.01863332
v 0.05510997 -0.01604253 -0.01620040
v 0.05510997 -0.01801699 -0.01590677
v 0.05510997 -0.02302415 0.17042165
v 0.05510149 -0.02304546 0.17044262
v 0.02625612 0.04345392 -0.01099898
v 0.02625612 0.04393687 -0.01106189
v 0.02625612 0.04618832 -0.01097800
v 0.02625612 0.04674940 -0.01093605
v 0.02625612 0.04905768 -0.01072632
v 0.02625612 0.04950512 -0.01066340
v 0.03276194 0.04554911 -0.01510977
v 0.03766319 0.04310590 -0.01808801
v 0.03734398 0.04112434 -0.01825579
v 0.03772252 0.03830470 -0.01821385
v 0.02641997 -0.02304546 0.18929778
v 0.02769119 -0.02175283 0.19038841
v 0.02625612 -0.02096447 0.19005283
v 0.03994291 0.03830470 -0.01890598
v 0.04716626 0.03267964 -0.02056288
v 0.04857308 0.03267964 -0.02098235
v 0.05510997 0.02876624 -0.02201005
v 0.05510997 0.02329742 0.16582846
v 0.04134973 -0.02220028 0.18766186
v 0.04264920 -0.02304546 0.18610982
v 0.02892851 0.04950512 -0.01173305
v 0.02976186 0.04875937 -0.01242517
v 0.02625612 0.04950512 0.13956966
v 0.03994291 0.04309880 -0.01810898
v 0.05119744 0.03490267 -0.02096137
v 0.04886404 0.03495239 -0.02089846
v 0.03994291 0.04112434 -0.01869625
v 0.03688634 0.04400080 -0.01735394
v 0.03712646 0.04629486 -0.01586482
v 0.03994291 0.04451217 -0.01716518
v 0.02841154 -0.02304546 0.19005283
v 0.02956976 -0.02246306 0.19055619
v 0.02865166 -0.02080822 0.19070301
v 0.02625612 -0.00953677 0.19225505
v 0.02625612 -0.01851415 0.19059814
v 0.05119744 0.03267964 -0.02135987
v 0.05510997 0.02986000 -0.02190518
v 0.05510997 0.02986000 0.16513634
v 0.03828468 -0.02299574 0.19030451
v 0.03837225 -0.02304546 0.19024159
v 0.04046552 -0.02304546 0.18850079
v 0.04136385 -0.02304546 0.18766186
v 0.05510997 0.03267964 0.16461200
v 0.02940592 0.04950512 -0.01187986
v 0.03431282 0.04598236 -0.01542438
v 0.02625612 0.03169241 0.17438564
v 0.05242063 0.04950512 0.14269471
v 0.05119744 0.03630894 -0.02010146
v 0.05297714 0.03431318 -0.02079359
v 0.05510997 0.03246657 -0.02119209
v 0.05510997 0.03160718 -0.02159058
v 0.03149637 0.04902926 -0.01278172
v 0.03994291 0.04601787 -0.01575995
v 0.03149637 0.04950512 -0.01240419
v 0.03325630 0.04950512 -0.01255101
v 0.03712646 0.04770112 -0.01441765
v 0.04189777 0.04562013 -0.01531951
v 0.02904150 -0.02304546 0.19019964
v 0.03198508 -0.02304546 0.19066106
v 0.03418005 -0.02304546 0.19089177
v 0.03149637 -0.01798148 0.19145805
v 0.03149637 -0.01516894 0.19189849
v 0.02868274 -0.00953677 0.19221309
v 0.02625612 -0.00669583 0.19217115
v 0.03821970 -0.02304546 0.19034646
v 0.04455885 0.02897931 0.17390325
v 0.03558969 -0.01438768 0.19032548
v 0.03451622 -0.01526127 0.19110151
v 0.05510997 0.03304186 0.16446518
v 0.02625612 0.03103189 0.17560210
v 0.05401389 0.04950512 0.14286249
v 0.05119744 0.03762998 -0.01869625
v 0.05298844 0.03992404 -0.01523561
v 0.05510997 0.03795669 -0.01607455
v 0.05510997 0.03645809 -0.01762659
v 0.05510997 0.03463989 -0.01949323
v 0.05510997 0.03355323 -0.02043704
v 0.04008698 0.04752356 -0.01357871
v 0.03575354 0.04950512 -0.01211056
v 0.03712646 0.04869545 -0.01299146
v 0.04111808 0.04807755 -0.01202668
v 0.04280174 0.04628065 -0.01368358
v 0.05510997 0.04287152 -0.01022295
v 0.05510997 0.04192691 -0.01146039
v 0.05510997 0.04061297 -0.01309632
v 0.03704171 -0.02304546 0.19078690
v 0.03149637 -0.01234931 0.19189849
v 0.03155852 -0.00960070 0.19120637
v 0.02890026 -0.00650407 0.19135318
v 0.02741152 0.00902879 0.18774575
v 0.02625612 -0.00622708 0.19204531
v 0.04275372 0.03071939 0.17279165
v 0.04275372 0.02931312 0.17417590
v 0.02868274 0.02791396 0.17893688
v 0.02625612 0.02733156 0.17994361
v 0.02868274 0.02650059 0.17962901
v 0.02625612 0.02456874 0.18120202
v 0.03367156 -0.01234931 0.19097566
v 0.05510997 0.03508734 0.16322774
v 0.05510997 0.03572655 0.16274536
v 0.02625612 0.03091825 0.17579086
v 0.05510997 0.04950512 0.14286249
v 0.05510997 0.03933455 -0.01456447
v 0.03924515 0.04839005 -0.01263490
v 0.03702476 0.04950512 -0.01160721
v 0.04275372 0.04852500 -0.01003419
v 0.04428483 0.04821959 -0.00948888
v 0.04275372 0.04771533 -0.01146039
v 0.04275372 0.04950512 -0.00820950
v 0.05229351 0.04807755 -0.00355338
v 0.05510997 0.04950512 0.00173193
v 0.02625612 0.00934129 0.18785062
v 0.02625612 0.02941255 0.17797211
v 0.02697365 0.02834010 0.17910468
v 0.05510997 0.03682031 0.16157084
v 0.05267770 0.03691974 0.16234686
v 0.02625612 0.02756594 0.17979679
v 0.04275372 0.03659304 0.16467491
v 0.05510997 0.03747373 0.16071093
v 0.03775077 0.04950512 -0.01129260
v 0.04012936 0.04950512 -0.00986641
v 0.04289214 0.04950512 -0.00810463
v 0.05481335 0.04950512 0.00148025
v 0.02625612 0.02911425 0.17832865
v 0.04178477 0.03425636 0.16817749
f 1 2 3
f 1 3 4
f 1 4 12
f 1 12 11
f 1 11 31
f 1 31 51
f 1 51 65
f 1 65 64
f 1 64 91
f 1 91 90
f 1 90 89
f 1 89 88
f 1 88 117
f 1 117 99
f 1 99 98
f 1 98 97
f 1 97 125
f 1 125 116
f 1 116 133
f 1 133 129
f 1 129 114
f 1 114 113
f 1 113 83
f 1 83 57
f 1 57 52
f 1 52 32
f 1 32 13
f 1 13 5
f 1 5 14
f 1 14 34
f 1 34 56
f 1 56 55
f 1 55 54
f 1 54 79
f 1 79 100
f 1 100 74
f 1 74 73
f 1 73 72
f 1 72 45
f 1 45 25
f 1 25 8
f 1 8 2
f 2 6 7
f 2 7 3
f 2 8 27
f 2 27 49
f 2 49 48
f 2 48 78
f 2 78 105
f 2 105 126
f 2 126 111
f 2 111 109
f 2 109 131
f 2 131 138
f 2 138 127
f 2 127 115
f 2 115 84
f 2 84 60
f 2 60 37
f 2 37 20
f 2 20 19
f 2 19 18
f 2 18 17
f 2 17 16
f 2 16 15
f 2 15 6
f 3 7 9
f 3 9 10
f 3 10 11
f 3 11 12
f 3 12 4
f 5 13 14
f 6 15 7
f 7 15 16
f 7 16 17
f 7 17 18
f 7 18 19
f 7 19 20
f 7 20 21
f 7 21 22
f 7 22 23
f 7 23 24
f 7 24 9
f 8 25 26
f 8 26 27
f 9 24 10
f 10 24 28
f 10 28 29
f 10 29 11
f 11 29 30
f 11 30 31
f 13 32 14
f 14 32 33
f 14 33 34
f 20 35 36
f 20 36 21
f 20 37 61
f 20 61 85
f 20 85 116
f 20 116 125
f 20 125 137
f 20 137 136
f 20 136 123
f 20 123 135
f 20 135 134
f 20 134 119
f 20 119 93
f 20 93 69
f 20 69 68
f 20 68 58
f 20 58 35
f 21 36 22
f 22 38 39
f 22 39 40
f 22 40 41
f 22 41 23
f 22 36 42
f 22 42 43
f 22 43 44
f 22 44 38
f 23 41 40
f 23 40 30
f 23 30 28
f 23 28 24
f 25 45 26
f 26 46 47
f 26 47 48
f 26 48 49
f 26 49 27
f 26 45 46
f 28 30 29
f 30 40 50
f 30 50 31
f 31 50 51
f 32 52 33
f 33 53 54
f 33 54 55
f 33 55 56
f 33 56 34
f 33 52 57
f 33 57 53
f 35 58 36
f 36 58 59
f 36 59 42
f 37 60 61
f 38 62 39
f 38 44 62
f 39 62 63
f 39 63 64
f 39 64 65
f 39 65 51
f 39 51 50
f 39 50 40
f 42 59 66
f 42 66 43
f 43 67 44
f 43 66 68
f 43 68 69
f 43 69 70
f 43 70 67
f 44 67 71
f 44 71 62
f 45 72 46
f 46 72 73
f 46 73 74
f 46 74 75
f 46 75 48
f 46 48 47
f 48 75 76
f 48 76 77
f 48 77 78
f 53 79 54
f 53 57 80
f 53 80 81
f 53 81 82
f 53 82 79
f 57 83 80
f 58 68 66
f 58 66 59
f 60 84 85
f 60 85 61
f 62 86 87
f 62 87 88
f 62 88 89
f 62 89 90
f 62 90 91
f 62 91 63
f 62 71 86
f 63 91 64
f 67 70 92
f 67 92 71
f 69 93 70
f 70 93 94
f 70 94 92
f 71 87 86
f 71 92 95
f 71 95 96
f 71 96 97
f 71 97 98
f 71 98 99
f 71 99 87
f 74 76 75
f 74 100 76
f 76 101 77
f 76 100 101
f 77 101 102
f 77 102 103
f 77 103 104
f 77 104 78
f 78 104 105
f 79 82 100
f 80 106 107
f 80 107 108
f 80 108 109
f 80 109 110
f 80 110 111
f 80 111 104
f 80 104 102
f 80 102 112
f 80 112 81
f 80 83 113
f 80 113 114
f 80 114 106
f 81 112 82
f 82 112 101
f 82 101 100
f 84 115 116
f 84 116 85
f 87 99 117
f 87 117 88
f 92 94 118
f 92 118 95
f 93 119 94
f 94 119 118
f 95 120 121
f 95 121 122
f 95 122 96
f 95 118 123
f 95 123 120
f 96 122 97
f 97 122 121
f 97 121 124
f 97 124 125
f 101 112 102
f 102 104 103
f 104 126 105
f 104 111 126
f 106 127 128
f 106 128 107
f 106 114 129
f 106 129 130
f 106 130 127
f 107 128 108
f 108 128 131
f 108 131 109
f 109 111 110
f 115 127 132
f 115 132 116
f 116 132 130
f 116 130 133
f 118 119 134
f 118 134 135
f 118 135 123
f 120 123 121
f 121 123 136
f 121 136 124
f 124 136 137
f 124 137 125
f 127 138 128
f 127 130 139
f 127 139 132
f 128 138 131
f 129 133 130
f 130 132 139

