# https://github.com/mikedh/trimesh
v 0.13017343 -0.04722430 0.11978043
v 0.12719311 -0.06583782 0.11306070
v 0.13015236 -0.04722430 0.11869074
v 0.12982590 -0.04722430 0.12149567
v 0.12978378 -0.04894978 0.12149567
v 0.12862535 -0.05604945 0.12575352
v 0.12651911 -0.06865090 0.11586563
v 0.12411802 -0.07980752 0.11586563
v 0.12411802 -0.07980752 0.11576473
v 0.12386526 -0.07980752 0.11306070
v 0.12768807 -0.06020847 0.10460554
v 0.12818304 -0.05739539 0.10460554
v 0.13006811 -0.04722430 0.11695532
v 0.12959421 -0.04722430 0.12242392
v 0.12869906 -0.05457913 0.12583423
v 0.12590831 -0.06583782 0.12880060
v 0.12584512 -0.06742934 0.12865935
v 0.12402323 -0.07980752 0.11869074
v 0.12461298 -0.07709651 0.11869074
v 0.12521325 -0.07428024 0.11869074
v 0.12596096 -0.07076549 0.11869074
v 0.12639274 -0.06865090 0.11869074
v 0.12385473 -0.07980752 0.11295980
v 0.12277002 -0.07980752 0.10458537
v 0.12240143 -0.07980752 0.10180061
v 0.12017936 -0.05607497 0.05811229
v 0.12401270 -0.04722430 0.06913022
v 0.12904660 -0.04722430 0.10192169
v 0.12942572 -0.04722430 0.10470644
v 0.12429704 -0.04722430 0.07084547
v 0.12904660 -0.04722430 0.12355397
v 0.12918350 -0.04894978 0.12391719
v 0.12869906 -0.05241031 0.12583423
v 0.12492890 -0.06583782 0.13021316
v 0.12389685 -0.07146716 0.12954724
v 0.12338083 -0.07428024 0.12896204
v 0.12271737 -0.07772482 0.12791271
v 0.12235931 -0.07980752 0.12704500
v 0.12305436 -0.07885707 0.12603603
v 0.12335977 -0.06790776 0.13164589
v 0.12291746 -0.07980752 0.12508760
v 0.11831535 -0.07980752 0.08491049
v 0.11937899 -0.06020847 0.05958539
v 0.11936846 -0.05716575 0.05702261
v 0.11865235 -0.05457913 0.05395534
v 0.11978970 -0.05457913 0.05649794
v 0.11995820 -0.05176605 0.05607418
v 0.12153788 -0.04722430 0.05958539
v 0.12327552 -0.04722430 0.06584099
v 0.12342295 -0.04722430 0.06640601
v 0.12381261 -0.04722430 0.06810108
v 0.12863588 -0.04722430 0.12409881
v 0.12855163 -0.05053493 0.12567280
v 0.12351774 -0.06583782 0.13174679
v 0.06990361 -0.06865090 0.17668624
v 0.12097973 -0.07980752 0.12900239
v 0.12301224 -0.07584625 0.12857863
v 0.12091654 -0.07980752 0.12906293
v 0.07136745 -0.07146716 0.17559654
v 0.07255747 -0.07334255 0.17396201
v 0.07298925 -0.07980752 0.17141942
v 0.11070131 -0.07980752 0.05958539
v 0.10976405 -0.07980752 0.05657866
v 0.10947971 -0.07980752 0.05577149
v 0.11774666 -0.06222100 0.05754727
v 0.11811526 -0.06020528 0.05667956
v 0.11746231 -0.05619298 0.05240153
v 0.11732542 -0.05007884 0.04979839
v 0.11952643 -0.04722430 0.05407642
v 0.11981077 -0.04722430 0.05472216
v 0.12005299 -0.04894978 0.05569077
v 0.12063219 -0.04722430 0.05676027
v 0.12751957 -0.04722430 0.12500688
v 0.12813038 -0.04894978 0.12530957
v 0.05692923 -0.04904546 0.18302254
v 0.05878271 -0.05176605 0.18255842
v 0.05908812 -0.05457913 0.18274004
v 0.06809226 -0.06865090 0.17797771
v 0.06996680 -0.07146716 0.17668624
v 0.06964034 -0.07298852 0.17644409
v 0.07091461 -0.07980752 0.17236785
v 0.10884784 -0.07980752 0.05419750
v 0.10740506 -0.07980752 0.05115041
v 0.10735241 -0.07980752 0.05104951
v 0.10334004 -0.07578884 0.04118180
v 0.10366650 -0.07428024 0.04071768
v 0.06911378 -0.07980752 -0.01425091
v 0.11116469 -0.05755805 0.04265490
v 0.11198612 -0.05672561 0.04354279
v 0.11152275 -0.05457913 0.04164593
v 0.11575627 -0.04722430 0.04669077
v 0.11738860 -0.04820026 0.04965714
v 0.11811526 -0.04722430 0.05104951
v 0.11043804 -0.05457913 0.03989033
v 0.11231259 -0.04722430 0.04104055
v 0.05622364 -0.04722430 0.18269969
v 0.05582346 -0.04722430 0.18300238
v 0.05485460 -0.04894978 0.18453600
v 0.05656064 -0.05199569 0.18411224
v 0.05544434 -0.05308647 0.18483869
v 0.05544434 -0.05319172 0.18483869
v 0.06809226 -0.07146716 0.17749340
v 0.06809226 -0.07321816 0.17658534
v 0.06809226 -0.07980752 0.17281179
v 0.10636248 -0.07980752 0.04933427
v 0.06905059 -0.07980752 -0.01435179
v 0.11704107 -0.04722430 0.04897104
v 0.11740966 -0.04722430 0.04963696
v 0.10921643 -0.05457913 0.03803382
v 0.11050122 -0.04722430 0.03839705
v 0.05443335 -0.04722430 0.18403153
v 0.05305377 -0.04722430 0.18502031
v 0.05522318 -0.05121109 0.18477816
v 0.05345395 -0.04894978 0.18512121
v 0.05418060 -0.05199569 0.18500013
v 0.05402263 -0.05329697 0.18489922
v 0.06506982 -0.06839574 0.17892614
v 0.06528044 -0.07146716 0.17771537
v 0.06528044 -0.07980752 0.17289251
v 0.06770261 -0.07980752 -0.01586525
v 0.06434317 -0.07595469 -0.02086973
v 0.06673374 -0.07331703 -0.01790337
v 0.10983776 -0.04722430 0.03748898
v 0.05126347 -0.04722430 0.18518175
v 0.05120028 -0.04894978 0.18524228
v 0.05228499 -0.05331930 0.18489922
v 0.05128453 -0.05438776 0.18415260
v 0.05964627 -0.07090264 0.17696874
v 0.03746765 -0.07980752 0.16806965
v 0.06246862 -0.07980752 0.17261001
v 0.06762888 -0.07980752 -0.01592579
v 0.02258713 -0.07980752 -0.01745943
v 0.06353227 -0.07595469 -0.02086973
v 0.02258713 -0.07243356 -0.02091010
v 0.06434317 -0.07492450 -0.02086973
v 0.06506982 -0.07980752 -0.01628903
v 0.06456432 -0.07980752 -0.01632938
v 0.06673374 -0.07262493 -0.01790337
v 0.08594257 -0.04722430 0.00818854
v 0.04887290 -0.04722430 0.18502031
v 0.04971539 -0.05048390 0.18485887
v 0.05128453 -0.05155873 0.18500013
v 0.05039991 -0.05235928 0.18469744
v 0.04557664 -0.05176605 0.18372882
v 0.04353360 -0.05389340 0.18241717
v 0.04568195 -0.05473222 0.18259879
v 0.04838847 -0.05457913 0.18334542
v 0.04481840 -0.05577197 0.18189251
v 0.03149649 -0.07980752 0.16679834
v 0.02258713 -0.07672015 -0.01975987
v 0.02258713 -0.07980752 0.16235889
v 0.02258713 -0.07651603 -0.01990112
v 0.02370343 -0.07545076 -0.02058723
v 0.02258713 -0.07476822 -0.02076883
v 0.02258713 -0.07440463 -0.02086973
v 0.02258713 -0.06467049 -0.01751996
v 0.06085735 -0.04722430 -0.01790337
v 0.06161560 -0.04722430 -0.01790337
v 0.06252127 -0.04722430 -0.01754015
v 0.06485919 -0.04722430 -0.01610741
v 0.06759729 -0.04722430 -0.01314104
v 0.07285234 -0.04722430 -0.00716794
v 0.07497963 -0.04722430 -0.00472625
v 0.04557664 -0.04722430 0.18435438
v 0.04276482 -0.04722430 0.18366829
v 0.02258713 -0.04722430 0.17755394
v 0.02258713 -0.05688827 0.17382076
v 0.02328219 -0.06000754 0.17283198
v 0.02394565 -0.06498943 0.17107636
v 0.02875838 -0.07980752 0.16587010
v 0.02690490 -0.07888259 0.16536560
v 0.02258713 -0.06338196 0.17105620
v 0.02258713 -0.06302474 -0.01679350
v 0.02258713 -0.06267709 -0.01659171
v 0.02258713 -0.06095480 -0.01554238
v 0.02297678 -0.04722430 -0.00658275
v 0.02258713 -0.04722430 -0.00644150
v 0.02258713 -0.06271217 0.17139924
v 0.02302944 -0.06297052 0.17154049
v 0.02278722 -0.04722430 -0.00652221
f 1 2 3
f 1 3 13
f 1 13 29
f 1 29 28
f 1 28 30
f 1 30 27
f 1 27 51
f 1 51 50
f 1 50 49
f 1 49 48
f 1 48 72
f 1 72 70
f 1 70 69
f 1 69 93
f 1 93 108
f 1 108 107
f 1 107 91
f 1 91 95
f 1 95 110
f 1 110 123
f 1 123 139
f 1 139 163
f 1 163 162
f 1 162 161
f 1 161 160
f 1 160 159
f 1 159 158
f 1 158 157
f 1 157 176
f 1 176 180
f 1 180 177
f 1 177 166
f 1 166 165
f 1 165 164
f 1 164 140
f 1 140 124
f 1 124 112
f 1 112 111
f 1 111 97
f 1 97 96
f 1 96 73
f 1 73 52
f 1 52 31
f 1 31 14
f 1 14 4
f 1 4 5
f 1 5 6
f 1 6 2
f 2 6 7
f 2 7 8
f 2 8 9
f 2 9 10
f 2 10 11
f 2 11 12
f 2 12 3
f 3 12 13
f 4 14 15
f 4 15 5
f 5 15 6
f 6 15 16
f 6 16 17
f 6 17 18
f 6 18 19
f 6 19 20
f 6 20 21
f 6 21 22
f 6 22 7
f 7 20 19
f 7 19 8
f 7 22 21
f 7 21 20
f 8 19 18
f 8 18 41
f 8 41 38
f 8 38 56
f 8 56 58
f 8 58 61
f 8 61 81
f 8 81 104
f 8 104 119
f 8 119 130
f 8 130 129
f 8 129 149
f 8 149 170
f 8 170 151
f 8 151 132
f 8 132 137
f 8 137 136
f 8 136 131
f 8 131 120
f 8 120 106
f 8 106 87
f 8 87 105
f 8 105 84
f 8 84 83
f 8 83 82
f 8 82 64
f 8 64 63
f 8 63 62
f 8 62 42
f 8 42 25
f 8 25 24
f 8 24 23
f 8 23 10
f 8 10 9
f 10 23 11
f 11 23 24
f 11 24 25
f 11 25 26
f 11 26 27
f 11 27 12
f 12 28 29
f 12 29 13
f 12 27 30
f 12 30 28
f 14 31 32
f 14 32 33
f 14 33 15
f 15 33 34
f 15 34 16
f 16 34 17
f 17 35 36
f 17 36 37
f 17 37 38
f 17 38 39
f 17 39 18
f 17 34 40
f 17 40 35
f 18 39 41
f 25 42 43
f 25 43 26
f 26 43 44
f 26 44 45
f 26 45 46
f 26 46 47
f 26 47 48
f 26 48 49
f 26 49 50
f 26 50 51
f 26 51 27
f 31 52 53
f 31 53 32
f 32 53 33
f 33 54 34
f 33 53 55
f 33 55 54
f 34 54 40
f 35 40 36
f 36 56 57
f 36 57 37
f 36 40 56
f 37 57 56
f 37 56 38
f 38 41 39
f 40 58 56
f 40 54 59
f 40 59 60
f 40 60 61
f 40 61 58
f 42 62 43
f 43 62 63
f 43 63 64
f 43 64 65
f 43 65 66
f 43 66 44
f 44 66 67
f 44 67 45
f 45 47 46
f 45 67 68
f 45 68 47
f 47 69 70
f 47 70 71
f 47 71 72
f 47 72 48
f 47 68 69
f 52 73 74
f 52 74 53
f 53 74 75
f 53 75 76
f 53 76 55
f 54 55 59
f 55 76 77
f 55 77 78
f 55 78 79
f 55 79 59
f 59 79 80
f 59 80 61
f 59 61 60
f 61 80 81
f 64 82 65
f 65 82 83
f 65 83 66
f 66 83 84
f 66 84 67
f 67 84 85
f 67 85 86
f 67 86 87
f 67 87 88
f 67 88 89
f 67 89 90
f 67 90 68
f 68 91 92
f 68 92 93
f 68 93 69
f 68 90 94
f 68 94 95
f 68 95 91
f 70 72 71
f 73 96 75
f 73 75 74
f 75 96 97
f 75 97 98
f 75 98 76
f 76 98 99
f 76 99 77
f 77 99 100
f 77 100 78
f 78 100 101
f 78 101 102
f 78 102 79
f 79 102 80
f 80 102 103
f 80 103 81
f 81 103 104
f 84 105 85
f 85 105 87
f 85 87 86
f 87 106 94
f 87 94 90
f 87 90 89
f 87 89 88
f 91 107 92
f 92 108 93
f 92 107 108
f 94 109 95
f 94 106 109
f 95 109 110
f 97 111 98
f 98 112 113
f 98 113 99
f 98 111 112
f 99 113 100
f 100 113 114
f 100 114 101
f 101 114 115
f 101 115 116
f 101 116 117
f 101 117 102
f 102 117 118
f 102 118 103
f 103 118 104
f 104 118 119
f 106 120 121
f 106 121 122
f 106 122 123
f 106 123 110
f 106 110 109
f 112 124 114
f 112 114 113
f 114 124 125
f 114 125 115
f 115 125 116
f 116 125 126
f 116 126 117
f 117 126 118
f 118 126 127
f 118 127 128
f 118 128 129
f 118 129 130
f 118 130 119
f 120 131 121
f 121 132 133
f 121 133 134
f 121 134 135
f 121 135 138
f 121 138 122
f 121 131 136
f 121 136 137
f 121 137 132
f 122 138 123
f 123 138 139
f 124 140 125
f 125 140 141
f 125 141 142
f 125 142 126
f 126 142 143
f 126 143 144
f 126 144 145
f 126 145 146
f 126 146 147
f 126 147 127
f 127 147 148
f 127 148 149
f 127 149 129
f 127 129 128
f 132 150 133
f 132 151 172
f 132 172 178
f 132 178 167
f 132 167 166
f 132 166 177
f 132 177 175
f 132 175 174
f 132 174 173
f 132 173 156
f 132 156 134
f 132 134 155
f 132 155 154
f 132 154 152
f 132 152 150
f 133 150 152
f 133 152 153
f 133 153 154
f 133 154 155
f 133 155 134
f 134 156 157
f 134 157 158
f 134 158 135
f 135 158 159
f 135 159 160
f 135 160 161
f 135 161 138
f 138 161 162
f 138 162 163
f 138 163 139
f 140 164 141
f 141 143 142
f 141 164 144
f 141 144 143
f 144 164 165
f 144 165 166
f 144 166 145
f 145 148 146
f 145 166 167
f 145 167 168
f 145 168 169
f 145 169 149
f 145 149 148
f 146 148 147
f 149 169 170
f 151 170 171
f 151 171 169
f 151 169 172
f 152 154 153
f 156 173 157
f 157 173 174
f 157 174 175
f 157 175 176
f 167 178 179
f 167 179 168
f 168 179 169
f 169 179 178
f 169 178 172
f 169 171 170
f 175 177 180
f 175 180 176

