# https://github.com/mikedh/trimesh
v 0.12412693 -0.07981107 0.11587956
v 0.12411699 -0.07981107 0.11576776
v 0.12402754 -0.07981107 0.11869333
v 0.12410706 -0.07991393 0.11587956
v 0.12136381 -0.09117250 0.10179208
v 0.12386851 -0.07981107 0.11304716
v 0.12400767 -0.07991393 0.11869333
v 0.12291434 -0.07981107 0.12508488
v 0.12355046 -0.08273035 0.11587956
v 0.12069788 -0.09346040 0.10179208
v 0.12106563 -0.09117250 0.09897831
v 0.12146320 -0.08835963 0.09897831
v 0.12308331 -0.08454648 0.11304716
v 0.12270561 -0.08595469 0.11304716
v 0.12385857 -0.07981107 0.11295399
v 0.12330198 -0.08273744 0.11852562
v 0.12301374 -0.08425916 0.11746347
v 0.12237762 -0.07981107 0.12700420
v 0.12227823 -0.08273035 0.12432087
v 0.12264598 -0.08583408 0.11587956
v 0.12044940 -0.09302765 0.09897831
v 0.12056867 -0.09343912 0.10460585
v 0.11985303 -0.09484732 0.10460585
v 0.11876966 -0.09680179 0.10179208
v 0.11145433 -0.10920962 0.08209569
v 0.11221966 -0.10780141 0.08209569
v 0.11198112 -0.10754602 0.07976641
v 0.12049910 -0.09102707 0.09636952
v 0.12093643 -0.08835963 0.09616454
v 0.12239750 -0.07991393 0.10179208
v 0.12276526 -0.07981107 0.10454995
v 0.12252671 -0.08533749 0.11852562
v 0.12235774 -0.07981107 0.12706010
v 0.12140357 -0.08273035 0.12713464
v 0.12057861 -0.08455002 0.12713464
v 0.12185083 -0.08554322 0.12150710
v 0.12158247 -0.08835963 0.11587956
v 0.12030031 -0.09281482 0.10941348
v 0.11756701 -0.09838026 0.10361824
v 0.11771609 -0.09852924 0.10179208
v 0.10957581 -0.10992260 0.08490946
v 0.11004295 -0.11025248 0.08209569
v 0.10622627 -0.11527520 0.07016978
v 0.10622627 -0.11527520 0.06893992
v 0.11148415 -0.10831575 0.07902104
v 0.10424835 -0.11604493 0.06239930
v 0.10356254 -0.11604493 0.06008866
v 0.11170281 -0.10660249 0.07790299
v 0.11608605 -0.09117250 0.07928192
v 0.12026055 -0.08999486 0.09452473
v 0.11737816 -0.08987426 0.08338145
v 0.11707998 -0.08835963 0.08177891
v 0.11812360 -0.08554322 0.08490946
v 0.11831244 -0.07981107 0.08490946
v 0.12239750 -0.07981107 0.10181071
v 0.12097618 -0.07981107 0.12899807
v 0.12020091 -0.08417403 0.12856948
v 0.12036988 -0.08710041 0.12314692
v 0.12074757 -0.08746221 0.12150710
v 0.12099605 -0.08557160 0.12419043
v 0.12097618 -0.08839511 0.11848836
v 0.12049910 -0.09015803 0.11587956
v 0.12025062 -0.08984588 0.11742620
v 0.06045583 -0.11604493 0.15344618
v 0.10919811 -0.10968494 0.08666108
v 0.10489440 -0.11604493 0.07098969
v 0.10536155 -0.11604493 0.06899582
v 0.10536155 -0.11604493 0.06849270
v 0.10487453 -0.11604493 0.06523171
v 0.08499594 -0.11604493 0.00610528
v 0.10947642 -0.07981107 0.05578415
v 0.10976466 -0.07981107 0.05658542
v 0.11633453 -0.08835963 0.07928192
v 0.11070889 -0.07981107 0.05958553
v 0.11828263 -0.07981107 0.08479766
v 0.12091654 -0.07981107 0.12905397
v 0.07516598 -0.09278644 0.16799952
v 0.07483798 -0.09466287 0.16773864
v 0.07591143 -0.09680179 0.16608020
v 0.07557349 -0.09882010 0.16565161
v 0.07447023 -0.10069653 0.16425404
v 0.05953147 -0.11604493 0.15460150
v 0.09916937 -0.11604493 0.08203979
v 0.09918925 -0.11604493 0.08200252
v 0.08403183 -0.11604493 0.00370145
v 0.10885024 -0.07981107 0.05420024
v 0.07298927 -0.07981107 0.17140959
v 0.07291970 -0.08273035 0.17133506
v 0.07287994 -0.08554322 0.17122325
v 0.07277061 -0.08835963 0.17109281
v 0.07254200 -0.09008354 0.17092510
v 0.07382418 -0.09696495 0.16751504
v 0.07360551 -0.09969979 0.16600566
v 0.07260164 -0.10115766 0.16524165
v 0.07021621 -0.10432879 0.16280058
v 0.05720568 -0.11604493 0.15583137
v 0.08336590 -0.11604493 0.00230390
v 0.10735934 -0.07981107 0.05105105
v 0.07091196 -0.07981107 0.17235993
v 0.07091196 -0.08554322 0.17181954
v 0.07091196 -0.08835963 0.17146549
v 0.07091196 -0.09035312 0.17098100
v 0.07091196 -0.09398892 0.16963933
v 0.07296939 -0.09613848 0.16829768
v 0.07091196 -0.09641870 0.16855855
v 0.07091196 -0.09782336 0.16770138
v 0.07091196 -0.09961466 0.16650879
v 0.07091196 -0.10133146 0.16535346
v 0.06808920 -0.10301280 0.16455218
v 0.05766288 -0.11502691 0.15665128
v 0.05658944 -0.11604493 0.15586863
v 0.05578436 -0.11512977 0.15670717
v 0.08222288 -0.11604493 0.00012369
v 0.07946969 -0.10524394 -0.00514981
v 0.08616877 -0.10806036 0.00798733
v 0.10632566 -0.07981107 0.04928080
v 0.07922121 -0.10242753 -0.00514981
v 0.07806825 -0.10050498 -0.00675236
v 0.07265134 -0.08354619 -0.00980837
v 0.06808920 -0.07981107 0.17280716
v 0.06545529 -0.07981107 0.17288169
v 0.06808920 -0.08835963 0.17152140
v 0.06808920 -0.09045599 0.17096238
v 0.06808920 -0.09186419 0.17053379
v 0.06808920 -0.09398892 0.16962071
v 0.06527638 -0.10169682 0.16553981
v 0.06808920 -0.10160459 0.16550254
v 0.06527638 -0.10310503 0.16458946
v 0.05447237 -0.11604493 0.15581273
v 0.05537685 -0.11512977 0.15670717
v 0.08119913 -0.11604493 -0.00164657
v 0.07842607 -0.10524394 -0.00708776
v 0.06911295 -0.07981107 -0.01426195
v 0.07820740 -0.10242753 -0.00693869
v 0.07541446 -0.09680179 -0.00969656
v 0.07523555 -0.09496438 -0.00952885
v 0.07195559 -0.08554322 -0.01165315
v 0.06527638 -0.07981107 0.17288169
v 0.06246356 -0.07981107 0.17260219
v 0.06630013 -0.09022188 0.17090647
v 0.06310962 -0.10142369 0.16537210
v 0.04554688 -0.11604493 0.15359526
v 0.04557670 -0.11044402 0.15734075
v 0.04276388 -0.10992260 0.15702397
v 0.08099041 -0.11604493 -0.00187018
v 0.07836643 -0.10739349 -0.00692005
v 0.07547410 -0.10242753 -0.00962201
v 0.07557349 -0.09961466 -0.00978972
v 0.06931174 -0.08214508 -0.01474644
v 0.06905331 -0.07981107 -0.01435512
v 0.06952046 -0.08402150 -0.01500732
v 0.03747618 -0.07981107 0.16807406
v 0.03851981 -0.08132924 0.16794361
v 0.04584506 -0.10778368 0.15877557
v 0.04276388 -0.11604493 0.15284989
v 0.04276388 -0.10806036 0.15784386
v 0.04124317 -0.10953951 0.15674445
v 0.02622490 -0.11604493 0.14800499
v 0.03987155 -0.11604493 0.15204862
v 0.07928085 -0.11604493 -0.00296960
v 0.07656742 -0.10822352 -0.00727411
v 0.07525543 -0.10402728 -0.00943568
v 0.07898267 -0.11604493 -0.00315593
v 0.06952046 -0.08420241 -0.01500732
v 0.06770157 -0.07981107 -0.01586450
v 0.06762206 -0.07981107 -0.01592040
v 0.03163188 -0.07981107 0.16682557
v 0.03150267 -0.07991393 0.16675103
v 0.02875942 -0.07986073 0.16583795
v 0.03293392 -0.10945083 0.15385614
v 0.02259706 -0.11354066 0.14791182
v 0.02556891 -0.11604493 0.14774411
v 0.07820740 -0.11522200 -0.00378951
v 0.07371484 -0.10806036 -0.00775860
v 0.07445035 -0.10402728 -0.00943568
v 0.02259706 -0.07981107 -0.01744840
v 0.06808920 -0.08429818 -0.01506322
v 0.07676620 -0.11604493 -0.00337955
v 0.06456075 -0.07981107 -0.01633035
v 0.06506766 -0.07981107 -0.01629309
v 0.03150267 -0.07981107 0.16678829
v 0.02875942 -0.07981107 0.16585659
v 0.02866003 -0.07981107 0.16581933
v 0.02259706 -0.10247009 0.15275672
v 0.02259706 -0.11378187 0.14778137
v 0.02262688 -0.11604493 0.14657015
v 0.07371484 -0.10995098 -0.00684552
v 0.07158783 -0.10992969 -0.00678962
v 0.02259706 -0.08468127 -0.01536136
v 0.02259706 -0.08434429 -0.01551043
v 0.02259706 -0.07981107 0.16235335
v 0.07299921 -0.11604493 -0.00313731
v 0.02259706 -0.11604493 0.14655152
v 0.06200635 -0.11604493 -0.00220559
v 0.05965074 -0.11604493 -0.00200061
v 0.02259706 -0.10506304 -0.00324912
v 0.02259706 -0.11604493 0.00409278
v 0.05272306 -0.11604493 -0.00090120
v 0.02259706 -0.10744316 -0.00173974
f 1 2 6
f 1 6 15
f 1 15 31
f 1 31 55
f 1 55 54
f 1 54 75
f 1 75 74
f 1 74 72
f 1 72 71
f 1 71 86
f 1 86 98
f 1 98 116
f 1 116 133
f 1 133 150
f 1 150 165
f 1 165 166
f 1 166 180
f 1 180 179
f 1 179 176
f 1 176 191
f 1 191 183
f 1 183 182
f 1 182 181
f 1 181 167
f 1 167 152
f 1 152 139
f 1 139 138
f 1 138 121
f 1 121 120
f 1 120 99
f 1 99 87
f 1 87 76
f 1 76 56
f 1 56 33
f 1 33 18
f 1 18 8
f 1 8 3
f 1 3 7
f 1 7 4
f 1 4 5
f 1 5 2
f 2 5 6
f 3 8 7
f 4 7 9
f 4 9 5
f 5 10 11
f 5 11 12
f 5 12 6
f 5 9 13
f 5 13 14
f 5 14 10
f 6 12 15
f 7 16 17
f 7 17 9
f 7 8 16
f 8 18 19
f 8 19 16
f 9 17 20
f 9 20 14
f 9 14 13
f 10 21 11
f 10 14 20
f 10 20 22
f 10 22 23
f 10 23 24
f 10 24 25
f 10 25 26
f 10 26 27
f 10 27 21
f 11 28 29
f 11 29 12
f 11 21 27
f 11 27 28
f 12 29 30
f 12 30 31
f 12 31 15
f 16 32 17
f 16 19 32
f 17 32 20
f 18 33 34
f 18 34 19
f 19 34 35
f 19 35 36
f 19 36 32
f 20 32 37
f 20 37 22
f 22 37 38
f 22 38 23
f 23 39 40
f 23 40 24
f 23 38 39
f 24 40 25
f 25 41 42
f 25 42 43
f 25 43 44
f 25 44 26
f 25 40 39
f 25 39 41
f 26 44 45
f 26 45 27
f 27 45 44
f 27 44 46
f 27 46 47
f 27 47 48
f 27 48 49
f 27 49 28
f 28 50 29
f 28 49 50
f 29 50 51
f 29 51 52
f 29 52 53
f 29 53 54
f 29 54 30
f 30 55 31
f 30 54 55
f 32 36 37
f 33 56 57
f 33 57 34
f 34 57 35
f 35 57 58
f 35 58 59
f 35 59 60
f 35 60 36
f 36 60 59
f 36 59 61
f 36 61 37
f 37 61 62
f 37 62 38
f 38 62 39
f 39 62 63
f 39 63 58
f 39 58 64
f 39 64 65
f 39 65 41
f 41 65 66
f 41 66 42
f 42 66 43
f 43 66 67
f 43 67 68
f 43 68 44
f 44 68 69
f 44 69 46
f 46 69 68
f 46 68 67
f 46 67 66
f 46 66 84
f 46 84 83
f 46 83 64
f 46 64 82
f 46 82 96
f 46 96 111
f 46 111 129
f 46 129 142
f 46 142 155
f 46 155 159
f 46 159 158
f 46 158 172
f 46 172 186
f 46 186 193
f 46 193 197
f 46 197 198
f 46 198 195
f 46 195 194
f 46 194 192
f 46 192 178
f 46 178 163
f 46 163 160
f 46 160 145
f 46 145 131
f 46 131 113
f 46 113 97
f 46 97 85
f 46 85 70
f 46 70 47
f 47 49 48
f 47 70 49
f 49 71 72
f 49 72 73
f 49 73 52
f 49 52 51
f 49 51 50
f 49 70 71
f 52 73 53
f 53 73 74
f 53 74 75
f 53 75 54
f 56 76 57
f 57 76 77
f 57 77 78
f 57 78 79
f 57 79 80
f 57 80 81
f 57 81 58
f 58 63 59
f 58 81 64
f 59 63 62
f 59 62 61
f 64 81 82
f 64 83 65
f 65 83 84
f 65 84 66
f 70 85 86
f 70 86 71
f 72 74 73
f 76 87 88
f 76 88 89
f 76 89 90
f 76 90 77
f 77 90 91
f 77 91 78
f 78 91 92
f 78 92 80
f 78 80 79
f 80 92 93
f 80 93 94
f 80 94 81
f 81 94 95
f 81 95 82
f 82 95 96
f 85 97 98
f 85 98 86
f 87 99 88
f 88 99 89
f 89 99 90
f 90 99 100
f 90 100 91
f 91 100 101
f 91 101 102
f 91 102 103
f 91 103 104
f 91 104 92
f 92 104 93
f 93 104 105
f 93 105 106
f 93 106 94
f 94 106 107
f 94 107 108
f 94 108 109
f 94 109 110
f 94 110 96
f 94 96 95
f 96 110 112
f 96 112 111
f 97 113 114
f 97 114 115
f 97 115 98
f 98 115 114
f 98 114 117
f 98 117 118
f 98 118 119
f 98 119 116
f 99 120 100
f 100 120 101
f 101 120 121
f 101 121 122
f 101 122 102
f 102 122 123
f 102 123 124
f 102 124 103
f 103 125 105
f 103 105 104
f 103 124 125
f 105 125 126
f 105 126 127
f 105 127 106
f 106 127 107
f 107 127 108
f 108 127 109
f 109 127 126
f 109 126 128
f 109 128 112
f 109 112 110
f 111 112 130
f 111 130 129
f 112 128 126
f 112 126 130
f 113 131 132
f 113 132 114
f 114 132 117
f 116 119 133
f 117 132 134
f 117 134 118
f 118 134 135
f 118 135 136
f 118 136 119
f 119 136 137
f 119 137 133
f 121 138 122
f 122 138 139
f 122 139 140
f 122 140 123
f 123 140 124
f 124 140 125
f 125 140 141
f 125 141 126
f 126 141 130
f 129 130 142
f 130 143 144
f 130 144 142
f 130 141 143
f 131 145 146
f 131 146 132
f 132 146 147
f 132 147 148
f 132 148 135
f 132 135 134
f 133 137 149
f 133 149 150
f 135 148 151
f 135 151 136
f 136 151 149
f 136 149 137
f 139 152 153
f 139 153 140
f 140 153 154
f 140 154 141
f 141 154 143
f 142 144 155
f 143 154 144
f 144 154 156
f 144 156 157
f 144 157 158
f 144 158 159
f 144 159 155
f 145 160 146
f 146 161 162
f 146 162 147
f 146 160 163
f 146 163 161
f 147 162 164
f 147 164 148
f 148 164 151
f 149 151 165
f 149 165 150
f 151 164 166
f 151 166 165
f 152 167 153
f 153 167 168
f 153 168 154
f 154 168 156
f 156 168 157
f 157 168 169
f 157 169 170
f 157 170 158
f 158 171 172
f 158 170 171
f 161 163 173
f 161 173 162
f 162 173 174
f 162 174 175
f 162 175 176
f 162 176 177
f 162 177 164
f 163 178 173
f 164 177 179
f 164 179 180
f 164 180 166
f 167 181 168
f 168 181 182
f 168 182 169
f 169 182 183
f 169 183 171
f 169 171 170
f 171 184 191
f 171 191 176
f 171 176 190
f 171 190 189
f 171 189 196
f 171 196 199
f 171 199 197
f 171 197 193
f 171 193 185
f 171 185 186
f 171 186 172
f 171 183 184
f 173 178 187
f 173 187 174
f 174 187 188
f 174 188 189
f 174 189 190
f 174 190 176
f 174 176 175
f 176 179 177
f 178 192 188
f 178 188 187
f 183 191 184
f 185 193 186
f 188 192 194
f 188 194 195
f 188 195 189
f 189 195 196
f 195 198 199
f 195 199 196
f 197 199 198

