# https://github.com/mikedh/trimesh
v 0.02258712 -0.02305256 0.18797535
v 0.02258712 -0.02305256 0.07420438
v 0.00519117 -0.02305256 0.18310868
v 0.00519117 -0.02440241 0.18280800
v 0.00519117 -0.02636823 0.18231799
v 0.00519117 -0.02767877 0.18197276
v 0.01460603 -0.04614426 0.17740677
v 0.01742078 -0.04614426 0.17789677
v 0.02258712 -0.06272259 0.17139304
v 0.00519117 -0.02305256 0.07420438
v 0.02258712 -0.15031902 0.07420438
v 0.01200072 -0.04875224 0.17574742
v 0.01307861 -0.04767759 0.17643789
v 0.00519117 -0.08283936 0.15984443
v 0.01460603 -0.04942061 0.17602584
v 0.01262225 -0.14351733 0.13430833
v 0.02258712 -0.13374071 0.13925296
v 0.00519117 -0.15693725 0.07420438
v 0.02258712 -0.14836632 0.12758186
v 0.02171188 -0.14890365 0.12867324
v 0.01924961 -0.15189167 0.07420438
v 0.00616347 -0.08251173 0.16014512
v 0.00519117 -0.13607346 0.13552221
v 0.00753935 -0.13481535 0.13699224
v 0.01074575 -0.14295381 0.13407446
v 0.01172827 -0.14452645 0.13342854
v 0.01410540 -0.14865465 0.13114555
v 0.01486826 -0.14761933 0.13201420
v 0.01598190 -0.14887744 0.13135715
v 0.02258712 -0.14543072 0.13387401
v 0.00617029 -0.15659651 0.07420438
v 0.00519117 -0.15660962 0.07929378
v 0.02258712 -0.14826148 0.12953075
v 0.02258712 -0.14814353 0.12983144
v 0.02023554 -0.14858912 0.13061100
v 0.02023554 -0.14910023 0.12920779
v 0.01742078 -0.15012246 0.12714753
v 0.01745484 -0.15263869 0.07420438
v 0.00519117 -0.13824896 0.13439742
v 0.00756149 -0.14043756 0.13417469
v 0.00519117 -0.14544382 0.13008758
v 0.00519117 -0.14701647 0.12912983
v 0.00519117 -0.14830081 0.12828346
v 0.01179298 -0.14676747 0.13191397
v 0.00616347 -0.14864155 0.12841710
v 0.00616347 -0.15012246 0.12700275
v 0.01179298 -0.14816975 0.13076691
v 0.01607556 -0.14887744 0.13135715
v 0.02258712 -0.14578456 0.13364014
v 0.01486826 -0.14948029 0.13012099
v 0.00519117 -0.15651788 0.08060789
v 0.02258712 -0.14713442 0.13218125
v 0.01795206 -0.14877260 0.13116782
v 0.01717728 -0.14933613 0.13012099
v 0.01460603 -0.15065976 0.12714753
v 0.01460603 -0.15097430 0.12432998
v 0.00519117 -0.13954640 0.13364014
v 0.00519117 -0.14898228 0.12773777
v 0.00519117 -0.14995208 0.12681343
v 0.00519117 -0.15043698 0.12622320
v 0.02258712 -0.14689852 0.13247080
v 0.00519117 -0.15164268 0.12395134
v 0.00630140 -0.15153783 0.12432998
v 0.00519117 -0.15545634 0.09252400
v 0.00545340 -0.15182615 0.12339451
v 0.00519117 -0.15189167 0.12316065
v 0.00519117 -0.15330706 0.11307093
v 0.00519117 -0.15182615 0.12339451
f 1 2 10
f 1 10 3
f 1 3 4
f 1 4 5
f 1 5 6
f 1 6 7
f 1 7 8
f 1 8 9
f 1 9 17
f 1 17 30
f 1 30 49
f 1 49 61
f 1 61 52
f 1 52 34
f 1 34 33
f 1 33 19
f 1 19 11
f 1 11 2
f 2 11 21
f 2 21 38
f 2 38 31
f 2 31 18
f 2 18 10
f 3 10 18
f 3 18 32
f 3 32 51
f 3 51 64
f 3 64 67
f 3 67 66
f 3 66 68
f 3 68 62
f 3 62 60
f 3 60 59
f 3 59 58
f 3 58 43
f 3 43 42
f 3 42 41
f 3 41 57
f 3 57 39
f 3 39 23
f 3 23 14
f 3 14 6
f 3 6 5
f 3 5 4
f 6 12 13
f 6 13 7
f 6 14 12
f 7 13 15
f 7 15 8
f 8 15 9
f 9 15 16
f 9 16 17
f 11 19 20
f 11 20 21
f 12 14 13
f 13 14 15
f 14 22 15
f 14 23 24
f 14 24 16
f 14 16 22
f 15 22 16
f 16 24 25
f 16 25 26
f 16 26 27
f 16 27 28
f 16 28 29
f 16 29 30
f 16 30 17
f 18 31 20
f 18 20 32
f 19 33 20
f 20 33 34
f 20 34 35
f 20 35 36
f 20 36 37
f 20 37 32
f 20 31 38
f 20 38 21
f 23 39 40
f 23 40 25
f 23 25 24
f 25 41 42
f 25 42 43
f 25 43 26
f 25 40 41
f 26 43 44
f 26 44 27
f 27 45 46
f 27 46 29
f 27 29 28
f 27 44 47
f 27 47 45
f 29 48 49
f 29 49 30
f 29 46 50
f 29 50 48
f 32 37 51
f 34 52 35
f 35 53 54
f 35 54 36
f 35 52 53
f 36 54 55
f 36 55 37
f 37 55 56
f 37 56 51
f 39 57 40
f 40 57 41
f 43 58 45
f 43 45 44
f 44 45 47
f 45 58 59
f 45 59 46
f 46 59 60
f 46 60 50
f 48 50 54
f 48 54 53
f 48 53 61
f 48 61 49
f 50 55 54
f 50 60 62
f 50 62 63
f 50 63 55
f 51 56 64
f 52 61 53
f 55 63 65
f 55 65 66
f 55 66 67
f 55 67 56
f 56 67 64
f 62 68 63
f 63 68 65
f 65 68 66

