# https://github.com/mikedh/trimesh
v 0.06828848 -0.02305256 -0.02180123
v 0.06808923 -0.02079993 -0.02255769
v 0.07235687 -0.01384445 -0.02346933
v 0.07017164 -0.02305256 -0.02121932
v 0.06533198 -0.02305256 -0.02135511
v 0.06917864 -0.01434833 -0.02358571
v 0.07653132 0.00735791 -0.02698012
v 0.07090433 -0.01425941 -0.02356631
v 0.07107465 -0.02086909 -0.02158787
v 0.07028090 -0.02305256 -0.02118053
v 0.07844340 0.00546097 -0.02653399
v 0.07936569 0.00744684 -0.02674736
v 0.08142882 0.01016382 -0.02672796
v 0.08091465 0.00844471 -0.02641761
v 0.07263645 -0.01998977 -0.02090899
v 0.06372840 -0.02305256 -0.02044346
v 0.05840671 -0.02079993 -0.01772794
v 0.06500741 -0.02096789 -0.02143269
v 0.06898582 -0.01235258 -0.02370209
v 0.07440392 0.00735791 -0.02647580
v 0.06022881 0.02424274 -0.02372149
v 0.07653132 0.01297961 -0.02709650
v 0.07934642 0.01297961 -0.02771718
v 0.07934642 0.01016382 -0.02727106
v 0.07212228 -0.02186697 -0.02044346
v 0.07151170 -0.02305256 -0.02026890
v 0.08232219 0.01292033 -0.02707710
v 0.08380365 0.01381940 -0.02653399
v 0.07278428 -0.02305256 -0.01920208
v 0.05868951 -0.02305256 -0.01757277
v 0.05511600 -0.01801378 -0.01592406
v 0.05701202 -0.01818174 -0.01718483
v 0.05511600 0.02876776 -0.02199519
v 0.05882127 0.02424274 -0.02319778
v 0.06061444 0.02194072 -0.02366330
v 0.06246225 0.02424274 -0.02416761
v 0.07653132 0.01579539 -0.02715468
v 0.05891125 0.02705853 -0.02327537
v 0.06031879 0.02705853 -0.02362451
v 0.07945246 0.01598311 -0.02709650
v 0.08216151 0.01522235 -0.02692192
v 0.08380365 0.01471847 -0.02653399
v 0.07323418 -0.02305256 -0.01873656
v 0.08794275 0.01558791 -0.02224735
v 0.08794275 0.01357240 -0.02151028
v 0.08794275 0.01333528 -0.02141329
v 0.07586289 -0.02305256 -0.01588527
v 0.07551261 -0.02305256 -0.01629259
v 0.07435251 -0.02305256 -0.01757277
v 0.05683206 -0.02305256 -0.01627320
v 0.05648178 -0.02305256 -0.01602104
v 0.05511600 -0.01855718 -0.01582707
v 0.05511600 -0.01604768 -0.01619561
v 0.05511600 0.02986443 -0.02189820
v 0.07653132 0.01787018 -0.02663098
v 0.06073334 0.02856028 -0.02350813
v 0.07858158 0.01757378 -0.02657278
v 0.08794275 0.01957941 -0.02042406
v 0.08794275 0.01827525 -0.02149088
v 0.08794275 0.00765431 -0.01827105
v 0.07743433 -0.02305256 -0.01392621
v 0.05511600 -0.02305256 -0.01497363
v 0.05511600 0.03160330 -0.02158787
v 0.06122181 0.02856028 -0.02350813
v 0.05511600 0.03246286 -0.02119993
v 0.08794275 0.01966833 -0.02034648
v 0.06133429 0.03143534 -0.02081200
v 0.08794275 0.02264219 -0.01765035
v 0.08794275 -0.01238222 -0.00605120
v 0.08673122 -0.01437796 -0.00702102
v 0.07828593 -0.02305256 -0.01280121
v 0.05511600 -0.02305256 0.17043838
v 0.05511600 0.03354965 -0.02044346
v 0.05511600 0.03463644 -0.01949303
v 0.05511600 0.03742259 -0.01662233
v 0.05511600 0.03795611 -0.01605983
v 0.05511600 0.03916146 -0.01476027
v 0.06114790 0.03414245 -0.01788312
v 0.08794275 0.02393646 -0.01631199
v 0.08794275 -0.02305256 0.00056304
v 0.07831486 -0.02305256 -0.01276242
v 0.08366547 -0.02305256 0.14830688
v 0.08794275 0.05238083 0.14101376
v 0.06015812 0.03268022 0.16174871
v 0.05511600 0.02330415 0.16582199
v 0.05511600 0.04061381 -0.01309216
v 0.05824603 0.04253052 -0.00936801
v 0.08794275 0.02400562 -0.01623440
v 0.08794275 -0.02305256 0.14384566
v 0.08562254 -0.02305256 0.14634782
v 0.08643557 -0.02305256 0.14549437
v 0.08794275 0.05253891 0.14099436
v 0.05847420 0.03431041 0.16240820
v 0.05875057 0.03268022 0.16258276
v 0.05526704 0.02986443 0.16504613
v 0.05511600 0.02986443 0.16512372
v 0.05511600 0.04192785 -0.01144345
v 0.08794275 0.02533942 -0.01444992
v 0.05511600 0.04286644 -0.01024085
v 0.05511600 0.04891297 0.00066003
v 0.05511600 0.04979228 0.00226994
v 0.06959640 0.04539570 0.00459754
v 0.08794275 0.05464334 0.14023789
v 0.05511600 0.03303589 0.16446423
v 0.05511600 0.03268022 0.16461940
v 0.05683206 0.03268022 0.16366897
v 0.05511600 0.03068447 0.16498794
v 0.08794275 0.02541846 -0.01431414
v 0.05511600 0.05018748 0.00306521
v 0.05511600 0.05086919 0.00444236
v 0.05511600 0.05112608 0.00502426
v 0.05511600 0.05357631 0.01082384
v 0.05580692 0.05400114 0.01260833
v 0.06973459 0.06239910 0.04948125
v 0.08406074 0.03996173 0.00987340
v 0.08414429 0.03727439 0.00403503
v 0.08794275 0.05612532 0.13940384
v 0.05511600 0.03508104 0.16324225
v 0.08794275 0.03404365 0.00207598
v 0.05511600 0.05409994 0.01225919
v 0.06808923 0.06347601 0.05114935
v 0.07011058 0.06265597 0.05114935
v 0.08794275 0.03939858 0.01431522
v 0.08593747 0.03944798 0.01126996
v 0.08794275 0.03468585 0.00341434
v 0.08794275 0.03457717 0.00318158
v 0.08794275 0.05815071 0.13789090
v 0.05511600 0.03572324 0.16273794
v 0.05511600 0.07097488 0.06292308
v 0.05802108 0.07061921 0.06414507
v 0.05956682 0.07031293 0.06513429
v 0.06246225 0.06920637 0.06523128
v 0.08794275 0.04367660 0.02847474
v 0.06418473 0.06801090 0.06348558
v 0.07054441 0.06298201 0.05396186
v 0.08794275 0.06397000 0.11025076
v 0.08794275 0.06393049 0.11007619
v 0.08794275 0.05812108 0.08491882
v 0.08794275 0.05807167 0.08472485
v 0.08794275 0.03838095 0.01185186
v 0.08794275 0.05932643 0.13690168
v 0.05511600 0.03681991 0.16157414
v 0.05511600 0.07133057 0.06426145
v 0.05511600 0.07154792 0.06519248
v 0.05683206 0.07279279 0.07364940
v 0.05964716 0.07185420 0.07364940
v 0.06442575 0.06820850 0.06523128
v 0.06129572 0.07082669 0.07163215
v 0.08005661 0.06758607 0.10741886
v 0.06902439 0.06480980 0.05958687
v 0.08216151 0.06650915 0.10741886
v 0.08779171 0.06404904 0.11025076
v 0.08122315 0.06812946 0.11587578
v 0.08794275 0.06409844 0.11306327
v 0.08794275 0.06030455 0.13583486
v 0.05964716 0.07451191 0.11564301
v 0.05683206 0.07579630 0.11376155
v 0.05511600 0.07557894 0.11352879
v 0.05511600 0.07260508 0.07085629
v 0.05511600 0.07310895 0.07357181
v 0.05511600 0.07768337 0.10460635
v 0.06120896 0.07638910 0.10571196
v 0.08101105 0.06799114 0.11391672
v 0.07934642 0.06904830 0.11868828
v 0.08130349 0.06815910 0.11868828
v 0.08271104 0.06735883 0.11868828
v 0.06527414 0.07491698 0.11025076
v 0.08794275 0.06409844 0.12431329
v 0.08794275 0.06036382 0.13575728
v 0.06527414 0.07353379 0.11734992
v 0.06380553 0.07349427 0.11729173
v 0.05964716 0.07592474 0.11368396
v 0.05683206 0.07668549 0.11234560
v 0.05511600 0.07658670 0.11213223
v 0.05511600 0.07788096 0.10741886
v 0.05964716 0.07695225 0.10741886
v 0.06140820 0.07643849 0.10741886
v 0.08193335 0.06738846 0.12427450
v 0.08249894 0.06738846 0.12150078
v 0.06290251 0.07594450 0.11025076
v 0.06132464 0.07640886 0.11195766
v 0.08477094 0.06589660 0.12431329
v 0.08794275 0.06389096 0.12712580
v 0.06683272 0.07354367 0.11736931
v 0.08794275 0.06198413 0.13333271
v 0.05964716 0.07657682 0.11226801
v 0.05683206 0.07729805 0.11025076
v 0.05511600 0.07734745 0.11025076
v 0.05964716 0.07693250 0.11025076
v 0.06149496 0.07645826 0.11025076
v 0.08216151 0.06632143 0.12712580
v 0.08446886 0.06555080 0.12712580
v 0.08794275 0.06309069 0.12993830
v 0.08794275 0.06200390 0.13327452
v 0.08392255 0.06518523 0.12867752
f 1 2 3
f 1 3 4
f 1 4 10
f 1 10 26
f 1 26 29
f 1 29 43
f 1 43 49
f 1 49 48
f 1 48 47
f 1 47 61
f 1 61 71
f 1 71 81
f 1 81 80
f 1 80 89
f 1 89 91
f 1 91 90
f 1 90 82
f 1 82 72
f 1 72 62
f 1 62 51
f 1 51 50
f 1 50 30
f 1 30 16
f 1 16 5
f 1 5 2
f 2 6 7
f 2 7 8
f 2 8 3
f 2 5 6
f 3 9 10
f 3 10 4
f 3 8 11
f 3 11 12
f 3 12 13
f 3 13 14
f 3 14 15
f 3 15 9
f 5 16 17
f 5 17 18
f 5 18 6
f 6 18 19
f 6 19 7
f 7 19 20
f 7 20 21
f 7 21 22
f 7 22 23
f 7 23 24
f 7 24 11
f 7 11 8
f 9 15 10
f 10 15 25
f 10 25 26
f 11 24 12
f 12 24 27
f 12 27 13
f 13 27 28
f 13 28 14
f 14 28 15
f 15 29 25
f 15 28 29
f 16 30 17
f 17 30 31
f 17 31 32
f 17 32 33
f 17 33 18
f 18 33 34
f 18 34 35
f 18 35 19
f 19 35 21
f 19 21 20
f 21 36 37
f 21 37 22
f 21 35 34
f 21 34 33
f 21 33 38
f 21 38 39
f 21 39 36
f 22 37 23
f 23 37 40
f 23 40 41
f 23 41 27
f 23 27 24
f 25 29 26
f 27 41 42
f 27 42 28
f 28 43 29
f 28 42 44
f 28 44 45
f 28 45 46
f 28 46 47
f 28 47 48
f 28 48 49
f 28 49 43
f 30 50 31
f 31 51 52
f 31 52 62
f 31 62 72
f 31 72 85
f 31 85 96
f 31 96 107
f 31 107 105
f 31 105 104
f 31 104 118
f 31 118 128
f 31 128 142
f 31 142 158
f 31 158 174
f 31 174 188
f 31 188 175
f 31 175 161
f 31 161 160
f 31 160 159
f 31 159 144
f 31 144 143
f 31 143 129
f 31 129 120
f 31 120 112
f 31 112 111
f 31 111 110
f 31 110 109
f 31 109 101
f 31 101 100
f 31 100 99
f 31 99 97
f 31 97 86
f 31 86 77
f 31 77 76
f 31 76 75
f 31 75 74
f 31 74 73
f 31 73 65
f 31 65 63
f 31 63 54
f 31 54 33
f 31 33 53
f 31 53 32
f 31 50 51
f 32 53 33
f 33 54 38
f 36 39 37
f 37 55 40
f 37 39 56
f 37 56 55
f 38 54 56
f 38 56 39
f 40 55 57
f 40 57 41
f 41 57 58
f 41 58 42
f 42 58 59
f 42 59 44
f 44 59 58
f 44 58 66
f 44 66 68
f 44 68 79
f 44 79 88
f 44 88 98
f 44 98 108
f 44 108 119
f 44 119 126
f 44 126 125
f 44 125 140
f 44 140 123
f 44 123 133
f 44 133 139
f 44 139 138
f 44 138 137
f 44 137 136
f 44 136 154
f 44 154 168
f 44 168 183
f 44 183 193
f 44 193 194
f 44 194 185
f 44 185 169
f 44 169 155
f 44 155 141
f 44 141 127
f 44 127 117
f 44 117 103
f 44 103 92
f 44 92 83
f 44 83 89
f 44 89 80
f 44 80 69
f 44 69 60
f 44 60 46
f 44 46 45
f 46 60 47
f 47 60 61
f 51 62 52
f 54 63 56
f 55 56 64
f 55 64 57
f 56 63 65
f 56 65 64
f 57 66 58
f 57 64 67
f 57 67 68
f 57 68 66
f 60 69 70
f 60 70 61
f 61 70 71
f 64 65 73
f 64 73 74
f 64 74 67
f 67 74 75
f 67 75 76
f 67 76 77
f 67 77 78
f 67 78 79
f 67 79 68
f 69 80 70
f 70 81 71
f 70 80 81
f 72 82 83
f 72 83 84
f 72 84 85
f 77 86 78
f 78 86 87
f 78 87 88
f 78 88 79
f 82 90 83
f 83 90 91
f 83 91 89
f 83 92 84
f 84 93 94
f 84 94 95
f 84 95 85
f 84 92 93
f 85 95 96
f 86 97 87
f 87 98 88
f 87 97 99
f 87 99 100
f 87 100 101
f 87 101 102
f 87 102 98
f 92 103 93
f 93 104 105
f 93 105 106
f 93 106 94
f 93 103 104
f 94 106 95
f 95 107 96
f 95 106 107
f 98 102 108
f 101 109 102
f 102 109 110
f 102 110 111
f 102 111 112
f 102 112 113
f 102 113 114
f 102 114 115
f 102 115 116
f 102 116 108
f 103 117 104
f 104 117 118
f 105 107 106
f 108 116 119
f 112 120 113
f 113 120 114
f 114 121 122
f 114 122 123
f 114 123 124
f 114 124 115
f 114 120 121
f 115 124 125
f 115 125 116
f 116 125 126
f 116 126 119
f 117 127 118
f 118 127 128
f 120 129 130
f 120 130 121
f 121 130 131
f 121 131 132
f 121 132 122
f 122 133 123
f 122 132 134
f 122 134 135
f 122 135 136
f 122 136 137
f 122 137 138
f 122 138 139
f 122 139 133
f 123 140 124
f 124 140 125
f 127 141 128
f 128 141 142
f 129 143 130
f 130 143 144
f 130 144 145
f 130 145 131
f 131 145 146
f 131 146 132
f 132 147 134
f 132 146 148
f 132 148 149
f 132 149 147
f 134 147 150
f 134 150 135
f 135 150 136
f 136 151 152
f 136 152 153
f 136 153 154
f 136 150 151
f 141 155 142
f 142 155 156
f 142 156 157
f 142 157 158
f 144 159 145
f 145 159 160
f 145 160 161
f 145 161 162
f 145 162 146
f 146 162 148
f 147 149 151
f 147 151 150
f 148 162 149
f 149 152 151
f 149 162 163
f 149 163 152
f 152 163 153
f 153 164 165
f 153 165 166
f 153 166 154
f 153 163 162
f 153 162 167
f 153 167 164
f 154 166 168
f 155 169 170
f 155 170 171
f 155 171 156
f 156 171 157
f 157 171 170
f 157 170 172
f 157 172 173
f 157 173 174
f 157 174 158
f 161 175 176
f 161 176 162
f 162 176 177
f 162 177 167
f 164 178 179
f 164 179 165
f 164 167 180
f 164 180 181
f 164 181 178
f 165 179 166
f 166 179 168
f 167 177 180
f 168 182 183
f 168 179 182
f 169 184 170
f 169 185 184
f 170 184 172
f 172 184 186
f 172 186 173
f 173 186 187
f 173 187 188
f 173 188 174
f 175 188 187
f 175 187 189
f 175 189 176
f 176 189 190
f 176 190 177
f 177 190 180
f 178 184 191
f 178 191 192
f 178 192 183
f 178 183 182
f 178 182 179
f 178 181 184
f 180 190 181
f 181 190 189
f 181 189 186
f 181 186 184
f 183 192 193
f 184 185 191
f 185 194 192
f 185 192 195
f 185 195 191
f 186 189 187
f 191 195 192
f 192 194 193

