# https://github.com/mikedh/trimesh
v 0.13516088 -0.02305256 0.10743465
v 0.13513665 -0.02305256 0.11024223
v 0.13041588 -0.04613354 0.11868938
v 0.12972715 -0.04613354 0.10461486
v 0.13445830 -0.02305256 0.09616771
v 0.13479056 -0.02305256 0.11175588
v 0.12983097 -0.04722430 0.12150917
v 0.13017015 -0.04722430 0.11977579
v 0.13015977 -0.04722430 0.11868938
v 0.13314659 -0.02305256 0.08153168
v 0.13424719 -0.02305256 0.09361648
v 0.12942951 -0.04722430 0.10471252
v 0.13283164 -0.02305256 0.07872410
v 0.13462097 -0.02305256 0.11226857
v 0.12959563 -0.04722430 0.12243689
v 0.12905572 -0.04722430 0.10192935
v 0.12430034 -0.04722430 0.07085067
v 0.12401308 -0.04722430 0.06912950
v 0.12413767 -0.04613354 0.06803089
v 0.12504445 -0.03768905 0.05958373
v 0.13239902 -0.02305256 0.07639259
v 0.12868539 -0.03930507 0.08322843
v 0.13404990 -0.02305256 0.11339160
v 0.12905226 -0.04722430 0.12354771
v 0.12381581 -0.04722430 0.06809192
v 0.12418267 -0.04050230 0.05958373
v 0.12342817 -0.04037453 0.05698367
v 0.12415844 -0.03768905 0.05677616
v 0.12867501 -0.02812304 0.06644399
v 0.13185565 -0.02305256 0.07436625
v 0.13381802 -0.02305256 0.11367236
v 0.13183835 -0.03206017 0.11768842
v 0.12864386 -0.04722430 0.12409702
v 0.12342472 -0.04722430 0.06640737
v 0.12154540 -0.04722430 0.05958373
v 0.12327935 -0.04722430 0.06583365
v 0.12063171 -0.04722430 0.05676395
v 0.11981491 -0.04722430 0.05471319
v 0.12310284 -0.03935003 0.05515264
v 0.12530057 -0.02305256 0.05636112
v 0.12574703 -0.02305256 0.05727664
v 0.12617619 -0.02305256 0.05822877
v 0.12904187 -0.02305256 0.06566275
v 0.11467191 -0.03958663 0.03830717
v 0.13269320 -0.02305256 0.11485642
v 0.13168952 -0.03013893 0.11748090
v 0.12752597 -0.04722430 0.12501254
v 0.11953112 -0.04722430 0.05406623
v 0.11811904 -0.04722430 0.05105113
v 0.11436735 -0.04146293 0.03880765
v 0.11514953 -0.04051650 0.03979641
v 0.11711536 -0.02305256 0.04040675
v 0.10363140 -0.02361568 0.01840997
v 0.10371447 -0.02305256 0.01828791
v 0.11496610 -0.02305256 0.03630524
v 0.11536064 -0.02305256 0.03698883
v 0.13241287 -0.02305256 0.11501511
v 0.12621080 -0.04722430 0.12598909
v 0.11741300 -0.04722430 0.04963514
v 0.11231499 -0.04722430 0.04102930
v 0.11050836 -0.04722430 0.03840482
v 0.10984385 -0.04722430 0.03747710
v 0.10727926 -0.04722430 0.03443759
v 0.10891631 -0.04192904 0.03283849
v 0.11704960 -0.04722430 0.04896376
v 0.11576212 -0.04722430 0.04669328
v 0.10330953 -0.02509684 0.01872735
v 0.09980356 -0.03207674 0.01806818
v 0.09980356 -0.02305256 0.01406433
v 0.10346527 -0.02305256 0.01800715
v 0.09980356 -0.02305256 0.13193383
v 0.12614158 -0.04698533 0.12595246
v 0.11317330 -0.04722430 0.13250755
v 0.10512654 -0.04722430 0.03203284
v 0.10619252 -0.04208993 0.02990884
v 0.09980356 -0.04315940 0.02354906
v 0.09980356 -0.04722430 0.13876967
v 0.10461778 -0.04722430 0.03147132
v 0.10237161 -0.04722430 0.02899332
v 0.10192860 -0.04722430 0.02850505
v 0.09980356 -0.04722430 0.02629561
f 1 2 3
f 1 3 4
f 1 4 5
f 1 5 11
f 1 11 10
f 1 10 13
f 1 13 21
f 1 21 30
f 1 30 43
f 1 43 42
f 1 42 41
f 1 41 40
f 1 40 52
f 1 52 56
f 1 56 55
f 1 55 54
f 1 54 70
f 1 70 69
f 1 69 71
f 1 71 57
f 1 57 45
f 1 45 31
f 1 31 23
f 1 23 14
f 1 14 6
f 1 6 2
f 2 6 7
f 2 7 8
f 2 8 3
f 3 9 4
f 3 8 9
f 4 10 11
f 4 11 5
f 4 9 12
f 4 12 13
f 4 13 10
f 6 14 15
f 6 15 7
f 7 15 24
f 7 24 33
f 7 33 47
f 7 47 58
f 7 58 73
f 7 73 77
f 7 77 81
f 7 81 80
f 7 80 79
f 7 79 78
f 7 78 74
f 7 74 63
f 7 63 62
f 7 62 61
f 7 61 60
f 7 60 66
f 7 66 65
f 7 65 59
f 7 59 49
f 7 49 48
f 7 48 38
f 7 38 37
f 7 37 35
f 7 35 36
f 7 36 34
f 7 34 25
f 7 25 18
f 7 18 17
f 7 17 16
f 7 16 12
f 7 12 9
f 7 9 8
f 12 16 13
f 13 17 18
f 13 18 19
f 13 19 20
f 13 20 21
f 13 16 22
f 13 22 17
f 14 23 24
f 14 24 15
f 16 17 22
f 18 25 19
f 19 25 20
f 20 26 27
f 20 27 28
f 20 28 29
f 20 29 30
f 20 30 21
f 20 25 26
f 23 31 32
f 23 32 24
f 24 32 33
f 25 34 26
f 26 35 27
f 26 34 36
f 26 36 35
f 27 35 37
f 27 37 38
f 27 38 39
f 27 39 28
f 28 40 41
f 28 41 42
f 28 42 43
f 28 43 29
f 28 39 44
f 28 44 40
f 29 43 30
f 31 45 46
f 31 46 32
f 32 46 33
f 33 46 47
f 38 48 39
f 39 48 49
f 39 49 50
f 39 50 51
f 39 51 44
f 40 44 52
f 44 51 50
f 44 50 53
f 44 53 54
f 44 54 55
f 44 55 56
f 44 56 52
f 45 57 58
f 45 58 46
f 46 58 47
f 49 59 50
f 50 60 61
f 50 61 62
f 50 62 63
f 50 63 64
f 50 64 53
f 50 59 65
f 50 65 66
f 50 66 60
f 53 67 68
f 53 68 69
f 53 69 70
f 53 70 54
f 53 64 67
f 57 71 72
f 57 72 58
f 58 72 73
f 63 74 64
f 64 74 75
f 64 75 68
f 64 68 67
f 68 75 76
f 68 76 81
f 68 81 77
f 68 77 71
f 68 71 69
f 71 77 73
f 71 73 72
f 74 78 75
f 75 79 76
f 75 78 79
f 76 79 80
f 76 80 81

