# https://github.com/mikedh/trimesh
v 0.78583132 1.09700555 0.06562958
v 0.90396955 1.12064916 0.06562958
v 0.78583132 1.64585290 0.09458448
v 0.78583132 2.69405377 0.06562958
v 0.92283546 1.12679643 0.06562958
v 0.78583132 1.70433147 0.09671891
v 1.19280700 2.57063413 0.13376462
v 0.78583132 2.68491151 0.08393234
v 1.19280700 2.69216240 0.10296211
v 1.19280700 2.70713671 0.06562958
v 0.97613773 1.15311969 0.06562958
v 0.78583132 2.68049811 0.09243670
v 1.62738127 2.57063413 0.07941001
v 1.62738127 2.64282588 0.07733561
v 1.19280700 2.64282588 0.12566711
v 1.62738127 1.56735605 0.06562958
v 1.62738127 1.63213961 0.06845771
v 1.62738127 1.63371586 0.06851774
v 1.62738127 1.77652343 0.07341359
v 1.62738127 1.84871517 0.07527455
v 1.62738127 1.85029153 0.07530122
v 1.62738127 1.92074963 0.07626172
v 1.62738127 1.92232577 0.07627507
v 1.62738127 1.99294137 0.07671528
v 1.26489277 2.68964036 0.10032742
v 1.26489277 2.70445694 0.06562958
v 1.24923982 2.70524512 0.06562958
v 1.62738127 2.66410517 0.06562958
f 1 2 3
f 1 3 6
f 1 6 12
f 1 12 8
f 1 8 4
f 1 4 10
f 1 10 27
f 1 27 26
f 1 26 28
f 1 28 16
f 1 16 11
f 1 11 5
f 1 5 2
f 2 5 3
f 3 5 7
f 3 7 6
f 4 8 9
f 4 9 10
f 5 11 7
f 6 7 12
f 7 13 14
f 7 14 15
f 7 15 12
f 7 11 16
f 7 16 17
f 7 17 18
f 7 18 19
f 7 19 20
f 7 20 21
f 7 21 22
f 7 22 23
f 7 23 24
f 7 24 13
f 8 12 9
f 9 25 26
f 9 26 27
f 9 27 10
f 9 12 15
f 9 15 25
f 13 24 23
f 13 23 22
f 13 22 21
f 13 21 20
f 13 20 19
f 13 19 18
f 13 18 17
f 13 17 16
f 13 16 28
f 13 28 14
f 14 28 25
f 14 25 15
f 25 28 26

