# https://github.com/mikedh/trimesh
v 0.14478845 0.17508428 -0.42355634
v 1.00641953 0.17508428 -0.42355634
v 0.14478845 0.17508428 0.04522448
v 0.14478845 1.67039152 -0.42355634
v 1.00641953 0.17508428 0.04718772
v 1.00641953 1.67039152 -0.42355634
v 0.16899442 0.17508428 0.04651735
v 0.14478845 0.81222916 0.06562291
v 0.14478845 1.67039152 -0.19989186
v 1.00641953 0.21840953 0.04800172
v 0.96306814 0.17508428 0.04737925
v 1.00641953 1.67039152 0.06562291
v 0.18198297 0.17508428 0.04666098
v 0.24119060 0.17508428 0.04680463
v 0.18198297 0.82715881 0.06562291
v 0.14478845 1.36638277 0.06562291
v 0.47768373 1.67039152 0.06562291
v 0.14478845 1.40224325 0.04120226
v 1.00641953 1.18415320 0.06562291
v 0.97605672 1.15297660 0.06562291
v 0.92275295 1.12663010 0.06562291
f 1 2 5
f 1 5 11
f 1 11 14
f 1 14 13
f 1 13 7
f 1 7 3
f 1 3 8
f 1 8 16
f 1 16 18
f 1 18 9
f 1 9 4
f 1 4 6
f 1 6 2
f 2 6 12
f 2 12 19
f 2 19 10
f 2 10 5
f 3 7 8
f 4 9 17
f 4 17 12
f 4 12 6
f 5 10 8
f 5 8 11
f 7 13 8
f 8 13 14
f 8 14 11
f 8 10 15
f 8 15 21
f 8 21 20
f 8 20 19
f 8 19 12
f 8 12 17
f 8 17 16
f 9 18 17
f 10 19 20
f 10 20 21
f 10 21 15
f 16 17 18

