# https://github.com/mikedh/trimesh
v 1.00641953 0.17480273 0.04719864
v 1.00641953 -0.17301895 0.04852819
v 1.00641953 0.17480273 -0.42355634
v 0.96267922 0.17480273 0.04738858
v 1.00641953 -0.21498280 0.04867064
v -2.05585608 -0.67855730 0.06153877
v 1.00641953 -2.55538603 -0.42355634
v -3.57218591 0.17480273 -0.42355634
v -3.57218591 0.17480273 0.05113980
v 1.00641953 -0.24511796 0.04871813
v -3.28331779 -1.32801221 0.05783503
v -3.57218591 -2.04984779 0.05783503
v -3.57218591 -2.12222846 0.05774006
v -3.57218591 -2.19432747 0.05750264
v -3.50019664 -2.19432747 0.05740767
v 1.00641953 -0.28708191 0.04843322
v 1.00641953 -2.62748525 -0.42350886
v -3.57218591 -2.55538603 -0.42355634
v -3.61547070 0.17480273 -0.41876046
v -3.62640578 0.17480273 0.03528019
v -3.62640578 0.04355994 0.03566008
v -3.62822829 -2.04984779 0.03888896
v -3.62822829 -2.12222846 0.03879402
v -3.57218591 -2.55538603 0.05208949
v -3.62777256 -2.19432747 0.03850910
v -3.62640578 -2.62748525 0.03528019
v -3.50019664 -2.55538603 0.05185207
v 1.00641953 -2.62748525 0.02070267
v 1.00641953 -2.33880735 0.02483375
v 1.00641953 -2.26670813 0.02573594
v 1.00641953 -2.64550984 -0.42151453
v -3.57218591 -2.62748525 -0.42350886
v -3.61547070 -2.62748525 -0.41876046
v -3.63551834 0.17480273 -0.37787686
v -3.64599769 0.17480273 -0.01690455
v -3.64645342 0.04355994 -0.01690455
v -3.64782020 -1.97774879 -0.01690455
v -3.64782020 -2.19432747 -0.01690455
v -3.64645342 -2.55538603 -0.01690455
v -3.57218591 -2.62748525 0.05085491
v -3.62048250 -2.67536334 0.03000948
v -3.64599769 -2.62748525 -0.01690455
v 1.00641953 -2.64888956 0.02008537
v 1.00641953 -2.67057575 -0.41871299
v -3.57218591 -2.67057575 -0.41871299
v -3.61319245 -2.66832246 -0.41714602
v -3.63506261 -2.62748525 -0.37787686
v -3.63551834 -2.55538603 -0.37787686
v -3.64827594 0.17480273 -0.30565391
v -3.64645342 0.17480273 -0.02991514
v -3.64827594 0.17480273 -0.08912751
v -3.64827594 -2.55538603 -0.08912751
v -3.57218591 -2.68071469 0.03485286
v -3.35576258 -2.68043281 0.03399814
v 1.00641953 -2.66437963 0.01961053
v -3.62686152 -2.68212278 -0.01690455
v -3.57218591 -2.70014758 -0.01690455
v -3.64782020 -2.62748525 -0.08912751
v 1.00641953 -2.67874327 -0.40157130
v -3.57218591 -2.68972698 -0.37787686
v -3.62184971 -2.67677165 -0.37787686
v -3.64782020 -2.62748525 -0.30565391
v -3.64827594 -2.55538603 -0.30565391
v -3.35576258 -2.69958426 -0.01690455
v 1.00641953 -2.68353087 -0.01690455
v -3.62777256 -2.68268610 -0.08912751
v -3.57218591 -2.70211899 -0.08912751
v -2.77802657 -2.70211899 -0.08912751
v 1.00641953 -2.70183733 -0.08912751
v 1.00641953 -2.68972698 -0.37787686
v -3.57218591 -2.70211899 -0.30565391
v -3.62777256 -2.68268610 -0.30565391
v 1.00641953 -2.69423313 -0.05883281
v -2.05585608 -2.70211899 -0.16130297
v 1.00641953 -2.70183733 -0.30565391
v -2.41716898 -2.70211899 -0.30565391
f 1 2 5
f 1 5 10
f 1 10 16
f 1 16 30
f 1 30 29
f 1 29 28
f 1 28 43
f 1 43 55
f 1 55 65
f 1 65 73
f 1 73 69
f 1 69 75
f 1 75 70
f 1 70 59
f 1 59 44
f 1 44 31
f 1 31 17
f 1 17 7
f 1 7 3
f 1 3 8
f 1 8 19
f 1 19 34
f 1 34 49
f 1 49 51
f 1 51 50
f 1 50 35
f 1 35 20
f 1 20 9
f 1 9 4
f 1 4 2
f 2 4 6
f 2 6 5
f 3 7 18
f 3 18 8
f 4 9 6
f 5 6 10
f 6 9 11
f 6 11 12
f 6 12 13
f 6 13 14
f 6 14 15
f 6 15 16
f 6 16 10
f 7 17 32
f 7 32 18
f 8 18 33
f 8 33 19
f 9 20 12
f 9 12 11
f 12 20 21
f 12 21 22
f 12 22 23
f 12 23 13
f 13 23 14
f 14 24 15
f 14 23 25
f 14 25 26
f 14 26 24
f 15 24 27
f 15 27 28
f 15 28 29
f 15 29 30
f 15 30 16
f 17 31 32
f 18 32 33
f 19 33 48
f 19 48 34
f 20 35 36
f 20 36 22
f 20 22 21
f 22 36 37
f 22 37 38
f 22 38 23
f 23 26 25
f 23 38 39
f 23 39 26
f 24 40 27
f 24 26 40
f 26 41 40
f 26 39 42
f 26 42 41
f 27 40 28
f 28 40 43
f 31 44 45
f 31 45 32
f 32 45 46
f 32 46 33
f 33 47 48
f 33 46 47
f 34 48 63
f 34 63 49
f 35 50 36
f 36 50 51
f 36 51 37
f 37 51 52
f 37 52 38
f 38 52 39
f 39 52 58
f 39 58 42
f 40 41 53
f 40 53 54
f 40 54 55
f 40 55 43
f 41 42 56
f 41 56 57
f 41 57 53
f 42 58 56
f 44 59 45
f 45 60 46
f 45 59 60
f 46 60 61
f 46 61 47
f 47 61 62
f 47 62 63
f 47 63 48
f 49 63 52
f 49 52 51
f 52 63 62
f 52 62 58
f 53 57 64
f 53 64 54
f 54 64 65
f 54 65 55
f 56 66 67
f 56 67 57
f 56 58 66
f 57 67 68
f 57 68 69
f 57 69 64
f 58 62 72
f 58 72 66
f 59 70 60
f 60 71 61
f 60 70 76
f 60 76 71
f 61 72 62
f 61 71 72
f 64 69 73
f 64 73 65
f 66 72 71
f 66 71 67
f 67 71 76
f 67 76 74
f 67 74 68
f 68 74 69
f 69 74 75
f 70 75 76
f 74 76 75

