# https://github.com/mikedh/trimesh
v 1.00622587 2.71730104 -0.01692848
v 1.00622587 2.69946989 0.05528004
v 1.00622587 2.71730104 -0.30566682
v -0.97191996 2.71730104 -0.01692848
v -0.90103673 2.70684837 0.05528004
v 1.00622587 2.69639571 0.06126550
v -0.90103673 2.70213437 0.06562291
v 1.00622587 2.70510612 -0.37787532
v -0.97191996 2.71730104 -0.30566682
v -0.97191996 2.69711288 0.05829671
v -0.97191996 2.69690804 0.05896708
v 1.00622587 2.69414113 0.06562291
v -0.96746566 2.69434598 0.06562291
v 1.00622587 2.68594284 -0.41872009
v -0.97191996 2.70510612 -0.37787532
v -0.97191996 2.68174137 0.06562291
v 1.00622587 1.67049394 0.06562291
v 1.00622587 2.64279984 -0.42350846
v -0.97191996 2.68522567 -0.41881584
v -0.97191996 2.68594284 -0.41872009
v -0.97191996 1.87052982 0.06562291
v 1.00622587 1.67049394 -0.42355634
v -0.71414516 1.67049394 0.06562291
v 1.00622587 2.57065586 -0.42355634
v -0.97191996 2.64279984 -0.42350846
v -0.97191996 1.67049394 0.06083454
v -0.90103673 1.79428669 0.06562291
v -0.97191996 1.67049394 -0.42355634
v -0.84990787 1.75534527 0.06562291
v -0.90103673 1.67049394 0.06260624
v -0.97191996 2.57065586 -0.42355634
f 1 2 6
f 1 6 12
f 1 12 17
f 1 17 22
f 1 22 24
f 1 24 18
f 1 18 14
f 1 14 8
f 1 8 3
f 1 3 9
f 1 9 4
f 1 4 5
f 1 5 2
f 2 5 7
f 2 7 6
f 3 8 15
f 3 15 9
f 4 9 15
f 4 15 20
f 4 20 19
f 4 19 25
f 4 25 31
f 4 31 28
f 4 28 26
f 4 26 21
f 4 21 16
f 4 16 11
f 4 11 10
f 4 10 5
f 5 10 11
f 5 11 7
f 6 7 12
f 7 11 13
f 7 13 16
f 7 16 21
f 7 21 27
f 7 27 29
f 7 29 23
f 7 23 17
f 7 17 12
f 8 14 20
f 8 20 15
f 11 16 13
f 14 18 19
f 14 19 20
f 17 23 30
f 17 30 26
f 17 26 28
f 17 28 22
f 18 24 31
f 18 31 25
f 18 25 19
f 21 26 27
f 22 28 31
f 22 31 24
f 23 29 30
f 26 30 27
f 27 30 29

