# https://github.com/mikedh/trimesh
v 2.70884409 2.01369263 0.06562293
v 2.70884409 1.99305434 0.06857159
v 2.72248281 2.00667886 0.06562293
v 2.24829524 1.89160792 0.06562293
v 2.70884409 1.92087055 0.07214882
v 2.74011557 1.95211321 0.06562293
v 2.72735368 1.99305434 0.06562293
v 2.24829524 1.84868698 0.06777309
v 2.24829524 1.87130530 0.06562293
v 2.70884409 1.87573484 0.06562293
v 2.74586348 1.92087055 0.06562293
v 2.24829524 1.82116940 0.06836462
v 2.24829524 1.77650342 0.06905707
v 2.24829524 1.70431985 0.06737832
v 2.24829524 1.67089588 0.06562356
v 2.27576742 1.67988946 0.06562356
v 2.66310589 1.87130530 0.06562293
f 1 2 3
f 1 3 7
f 1 7 6
f 1 6 11
f 1 11 10
f 1 10 17
f 1 17 9
f 1 9 4
f 1 4 2
f 2 5 6
f 2 6 7
f 2 7 3
f 2 4 8
f 2 8 5
f 4 9 15
f 4 15 14
f 4 14 13
f 4 13 12
f 4 12 8
f 5 10 11
f 5 11 6
f 5 8 12
f 5 12 13
f 5 13 14
f 5 14 15
f 5 15 16
f 5 16 10
f 9 17 15
f 10 16 15
f 10 15 17

