# https://github.com/mikedh/trimesh
v -1.62751342 2.64273594 0.06562294
v -1.62740078 2.63832188 0.06562294
v -1.52789404 2.68593272 0.09678155
v -1.54738966 2.69618011 0.06562294
v -1.61669508 2.57809869 0.06562294
v -1.52642893 2.64273594 0.09603469
v -1.47864767 2.69286946 0.10369375
v -1.47864767 2.64273594 0.10844834
v -1.47864767 2.70800407 0.06562294
v -1.60170711 2.51945207 0.06562294
v -1.40641235 2.69665306 0.10799435
v -1.40641235 2.64273594 0.11548747
v -0.48673534 1.10799162 0.06562294
v -1.40641235 2.71210289 0.06562294
v -0.82886736 2.68687862 0.09720137
v -0.82886736 2.70122505 0.06562294
v -0.82886736 2.64273594 0.09838757
v -0.47636767 1.10168555 0.06562294
v -0.47636767 1.11823901 0.06615990
v -0.47636767 1.63218534 0.08148293
v -0.47636767 2.67064040 0.06779032
v -0.47636767 2.67410877 0.06562294
v -0.47636767 2.64273594 0.08469008
v -0.47636767 2.57068900 0.08563220
f 1 2 3
f 1 3 4
f 1 4 9
f 1 9 14
f 1 14 16
f 1 16 22
f 1 22 18
f 1 18 13
f 1 13 10
f 1 10 5
f 1 5 2
f 2 5 6
f 2 6 3
f 3 7 4
f 3 6 8
f 3 8 7
f 4 7 9
f 5 10 6
f 6 10 8
f 7 11 9
f 7 8 12
f 7 12 11
f 8 10 13
f 8 13 12
f 9 11 14
f 11 15 16
f 11 16 14
f 11 12 15
f 12 17 15
f 12 13 18
f 12 18 19
f 12 19 20
f 12 20 17
f 15 21 22
f 15 22 16
f 15 17 23
f 15 23 21
f 17 24 23
f 17 20 24
f 18 22 21
f 18 21 23
f 18 23 24
f 18 24 20
f 18 20 19

