# https://github.com/mikedh/trimesh
v -0.47636767 1.10161552 0.06562857
v -0.47636767 1.11819135 0.06615975
v -0.47636767 1.69582214 0.06562857
v -0.41187034 1.05450065 0.06562857
v -0.10687109 1.34322588 0.12323364
v -0.17901501 1.41547476 0.11974703
v -0.25122544 1.55988256 0.11991091
v -0.47636767 1.63204128 0.08148494
v -0.47636767 1.69582214 0.06702998
v -0.15082237 1.69582214 0.06562857
v -0.03472717 0.78063949 0.06562857
v -0.03472717 1.34322588 0.12335231
v -0.25122544 1.69582214 0.12067943
v -0.02481985 0.77568476 0.06562857
v -0.32343585 1.69582214 0.11000493
v -0.47636767 1.69573209 0.08143407
v -0.47623469 1.69582214 0.08144538
v 0.20291558 1.36872020 0.06562857
v -0.15740508 1.69582214 0.07288995
v 0.05809580 0.78631494 0.06562857
v 0.10969366 0.79649465 0.06562857
v 0.18190407 0.82703374 0.06562857
v 0.20291558 0.83685310 0.06562857
v 0.20291558 1.19890834 0.09918915
v 0.20291558 1.21989834 0.10089005
v 0.20291558 1.27106717 0.10064706
v -0.19523908 1.69582214 0.10608886
v 0.20291558 1.28737264 0.09873142
v 0.20291558 1.31620019 0.09456673
v -0.15920036 1.69582214 0.07484515
v 0.20291558 1.35232457 0.07839390
v 0.20291558 1.32674021 0.09038507
f 1 2 8
f 1 8 16
f 1 16 9
f 1 9 3
f 1 3 10
f 1 10 18
f 1 18 23
f 1 23 22
f 1 22 21
f 1 21 20
f 1 20 14
f 1 14 11
f 1 11 4
f 1 4 5
f 1 5 6
f 1 6 7
f 1 7 2
f 2 7 8
f 3 9 17
f 3 17 15
f 3 15 13
f 3 13 27
f 3 27 30
f 3 30 19
f 3 19 10
f 4 11 5
f 5 12 13
f 5 13 7
f 5 7 6
f 5 11 14
f 5 14 12
f 7 13 15
f 7 15 8
f 8 15 16
f 9 16 17
f 10 19 18
f 12 14 20
f 12 20 21
f 12 21 22
f 12 22 23
f 12 23 24
f 12 24 25
f 12 25 26
f 12 26 13
f 13 26 28
f 13 28 29
f 13 29 27
f 15 17 16
f 18 19 30
f 18 30 27
f 18 27 31
f 18 31 32
f 18 32 29
f 18 29 28
f 18 28 26
f 18 26 25
f 18 25 24
f 18 24 23
f 27 29 32
f 27 32 31

