# https://github.com/mikedh/trimesh
v 0.20291559 0.83683712 0.06562294
v 0.39857117 1.34324299 0.14205910
v 0.20291559 1.19897451 0.09919535
v 0.20291559 1.36869104 0.06562294
v 0.61511042 1.02083849 0.06562294
v 0.50949406 1.42847958 0.16428295
v 0.50498636 1.42847958 0.16428295
v 0.20291559 1.21988166 0.10089521
v 0.50498636 1.45354925 0.16428295
v 0.20291559 1.35232479 0.07839126
v 0.46989502 1.80319914 0.06562294
v 0.78583121 1.09708796 0.06562294
v 0.78583121 1.64578103 0.09458831
v 0.78583121 1.70424518 0.09672281
v 0.61511042 1.63206366 0.14020469
v 0.50949406 1.45354925 0.16428295
v 0.78583121 1.10162886 0.06586439
v 0.20291559 1.27115603 0.10065376
v 0.61511042 1.77642671 0.13461251
v 0.61511042 1.80319914 0.13175364
v 0.54293067 1.80319914 0.12309009
v 0.20291559 1.31628131 0.09457865
v 0.20291559 1.28752229 0.09874141
v 0.20291559 1.32668760 0.09038694
v 0.49848163 1.80319914 0.09878969
v 0.78583121 1.80319914 0.06562294
v 0.78583121 1.74587024 0.09586322
v 0.61511042 1.70424518 0.13831165
v 0.78583121 1.80319914 0.09305264
f 1 2 3
f 1 3 8
f 1 8 18
f 1 18 23
f 1 23 22
f 1 22 24
f 1 24 10
f 1 10 4
f 1 4 11
f 1 11 26
f 1 26 12
f 1 12 5
f 1 5 6
f 1 6 7
f 1 7 2
f 2 8 3
f 2 7 9
f 2 9 8
f 4 10 11
f 5 12 6
f 6 13 14
f 6 14 15
f 6 15 16
f 6 16 9
f 6 9 7
f 6 12 17
f 6 17 13
f 8 9 18
f 9 16 19
f 9 19 20
f 9 20 21
f 9 21 22
f 9 22 23
f 9 23 18
f 10 24 25
f 10 25 11
f 11 25 21
f 11 21 20
f 11 20 29
f 11 29 26
f 12 26 29
f 12 29 27
f 12 27 14
f 12 14 13
f 12 13 17
f 14 27 15
f 15 27 28
f 15 28 16
f 16 28 19
f 19 28 29
f 19 29 20
f 21 25 22
f 22 25 24
f 27 29 28

