# https://github.com/mikedh/trimesh
v 3.37346954 3.54298888 -0.50262992
v 3.32977235 3.54298888 -0.50262992
v 3.36806298 3.54240221 -0.41715115
v 3.37346954 3.52975776 -0.50262992
v 3.37346954 3.54298888 -1.27173741
v 3.32977235 3.52975776 -0.50262992
v 3.33027286 3.54240221 -0.41715115
v 3.32977235 3.54298888 -1.27173741
v 3.36806298 3.53102962 -0.41715115
v 3.35285274 3.54083763 -0.37229494
v 3.37346954 3.52975776 -1.27173741
v 3.36806298 3.54240221 -1.35721619
v 3.33027286 3.53102962 -0.41715115
v 3.32977235 3.52975776 -1.27173741
v 3.33159457 3.54083763 -0.37229494
v 3.33027286 3.54240221 -1.35721619
v 3.35285274 3.53449277 -0.37229494
v 3.36806298 3.53102962 -1.35721619
v 3.35285274 3.54083763 -1.40207239
v 3.33159457 3.53449277 -0.37229494
v 3.33027286 3.53102962 -1.35721619
v 3.33159457 3.54083763 -1.40207239
v 3.35285274 3.53449277 -1.40207239
v 3.33159457 3.53449277 -1.40207239
f 1 2 7
f 1 7 3
f 1 3 9
f 1 9 4
f 1 4 11
f 1 11 5
f 1 5 8
f 1 8 2
f 2 6 13
f 2 13 7
f 2 8 14
f 2 14 6
f 3 7 15
f 3 15 10
f 3 10 17
f 3 17 9
f 4 9 13
f 4 13 6
f 4 6 14
f 4 14 11
f 5 11 18
f 5 18 12
f 5 12 16
f 5 16 8
f 7 13 20
f 7 20 15
f 8 16 21
f 8 21 14
f 9 17 20
f 9 20 13
f 10 15 20
f 10 20 17
f 11 14 21
f 11 21 18
f 12 18 23
f 12 23 19
f 12 19 22
f 12 22 16
f 16 22 24
f 16 24 21
f 18 21 24
f 18 24 23
f 19 23 24
f 19 24 22

