# https://github.com/mikedh/trimesh
v -4.29017989 1.98600366 -1.27171601
v -4.29017989 2.02906343 -1.27171601
v -4.28932405 1.98677499 -1.35722443
v -4.25266613 1.98600366 -1.27171601
v -4.29017989 1.98600366 -0.50265119
v -4.25266613 2.02906343 -1.27171601
v -4.28932405 2.02787901 -1.35722443
v -4.29017989 2.02906343 -0.50265119
v -4.25365009 1.98677499 -1.35722443
v -4.28344474 1.99184979 -1.40901984
v -4.25266613 1.98600366 -0.50265119
v -4.28932405 1.98677499 -0.41714277
v -4.25365009 2.02787901 -1.35722443
v -4.25266613 2.02906343 -0.50265119
v -4.28344474 2.01794867 -1.40901984
v -4.28932405 2.02787901 -0.41714277
v -4.26088855 1.99184979 -1.40901984
v -4.25365009 1.98677499 -0.41714277
v -4.28344474 1.99184979 -0.36534736
v -4.26088855 2.01794867 -1.40901984
v -4.25365009 2.02787901 -0.41714277
v -4.28344474 2.01794867 -0.36534736
v -4.26088855 1.99184979 -0.36534736
v -4.26088855 2.01794867 -0.36534736
f 1 2 7
f 1 7 3
f 1 3 9
f 1 9 4
f 1 4 11
f 1 11 5
f 1 5 8
f 1 8 2
f 2 6 13
f 2 13 7
f 2 8 14
f 2 14 6
f 3 7 15
f 3 15 10
f 3 10 17
f 3 17 9
f 4 9 13
f 4 13 6
f 4 6 14
f 4 14 11
f 5 11 18
f 5 18 12
f 5 12 16
f 5 16 8
f 7 13 20
f 7 20 15
f 8 16 21
f 8 21 14
f 9 17 20
f 9 20 13
f 10 15 20
f 10 20 17
f 11 14 21
f 11 21 18
f 12 18 23
f 12 23 19
f 12 19 22
f 12 22 16
f 16 22 24
f 16 24 21
f 18 21 24
f 18 24 23
f 19 23 24
f 19 24 22

