# https://github.com/mikedh/trimesh
v -3.33067406 2.00787225 -0.50266542
v -3.37280986 2.00787225 -0.50266542
v -3.33116082 2.00649609 -0.41720578
v -3.33067406 1.99744375 -0.50266542
v -3.33067406 2.00787225 -1.27170178
v -3.37280986 1.99744375 -0.50266542
v -3.36562030 2.00649609 -0.41720578
v -3.37280986 2.00787225 -1.27170178
v -3.33116082 1.99801336 -0.41720578
v -3.33217967 2.00356612 -0.37301642
v -3.33067406 1.99744375 -1.27170178
v -3.33116082 2.00649609 -1.35716149
v -3.36562030 1.99801336 -0.41720578
v -3.37280986 1.99744375 -1.27170178
v -3.35004047 2.00356612 -0.37301642
v -3.36562030 2.00649609 -1.35716149
v -3.33217967 1.99920886 -0.37301642
v -3.33116082 1.99801336 -1.35716149
v -3.33217967 2.00356612 -1.40135085
v -3.35004047 1.99920886 -0.37301642
v -3.36562030 1.99801336 -1.35716149
v -3.35004047 2.00356612 -1.40135085
v -3.33217967 1.99920886 -1.40135085
v -3.35004047 1.99920886 -1.40135085
f 1 2 7
f 1 7 3
f 1 3 9
f 1 9 4
f 1 4 11
f 1 11 5
f 1 5 8
f 1 8 2
f 2 6 13
f 2 13 7
f 2 8 14
f 2 14 6
f 3 7 15
f 3 15 10
f 3 10 17
f 3 17 9
f 4 9 13
f 4 13 6
f 4 6 14
f 4 14 11
f 5 11 18
f 5 18 12
f 5 12 16
f 5 16 8
f 7 13 20
f 7 20 15
f 8 16 21
f 8 21 14
f 9 17 20
f 9 20 13
f 10 15 20
f 10 20 17
f 11 14 21
f 11 21 18
f 12 18 23
f 12 23 19
f 12 19 22
f 12 22 16
f 16 22 24
f 16 24 21
f 18 21 24
f 18 24 23
f 19 23 24
f 19 24 22

