# https://github.com/mikedh/trimesh
v 0.24180484 -0.33366335 -0.02063689
v 0.24180484 -0.26785800 -0.02063689
v 0.27079514 -0.33366335 -0.02063689
v 0.22505920 -0.33366335 -0.01691431
v 0.15485814 -0.33364482 -0.01102509
v 0.21066082 -0.14434556 -0.00665252
v 0.27079514 -0.26785800 -0.02063689
v 0.14036303 -0.14434556 -0.00637677
v 0.15314004 -0.14434556 -0.00645556
v 0.19858558 -0.14438262 -0.00665252
v 0.34789285 -0.25216182 -0.00706614
v 0.34789285 -0.29569231 -0.00702676
v 0.34789285 -0.30560667 -0.00698737
v 0.34789285 -0.32009830 -0.00690858
v 0.34789285 -0.33143957 -0.00328446
v 0.28204759 -0.33366335 -0.01742641
v 0.19972293 -0.33366335 -0.01094632
v 0.14007263 -0.33364482 -0.00535258
v 0.10931582 -0.30558814 -0.00103909
v 0.10931582 -0.29980631 -0.00222086
v 0.10931582 -0.29081853 -0.00235874
v 0.31050550 -0.14434556 -0.00665252
v 0.34252068 -0.14434556 -0.00633738
v 0.34789285 -0.18439213 -0.00681010
v 0.34789285 -0.22317855 -0.00698737
v 0.34789285 -0.23309291 -0.00702676
v 0.13864489 -0.14434556 -0.00606163
v 0.34789285 -0.33366335 0.00199417
v 0.19957775 -0.33366335 -0.01080845
v 0.13922568 -0.33364482 -0.00391474
v 0.10931582 -0.31461297 0.00583493
v 0.10931582 -0.31385318 0.00510617
v 0.10070099 -0.18437359 0.02220257
v 0.10070099 -0.17510784 0.01997689
v 0.10070099 -0.16061621 0.01818451
v 0.10070099 -0.14434556 0.01637245
v 0.11810004 -0.14434556 -0.00038909
v 0.12489991 -0.14434556 -0.00328446
v 0.12589208 -0.14434556 -0.00367839
v 0.34252068 -0.14434556 0.18054122
v 0.34789285 -0.18439213 0.05785290
v 0.34789285 -0.33366335 0.18052153
v 0.19957775 -0.33366335 0.18052153
v 0.10931582 -0.33364482 0.09549255
v 0.12584368 -0.33316301 0.03654149
v 0.11822101 -0.32793713 0.02852510
v 0.10070099 -0.18437359 0.03725055
v 0.10070099 -0.14434556 0.04136709
v 0.34786865 -0.18439213 0.18054122
v 0.11592212 -0.14434556 0.18054122
v 0.34789285 -0.26785800 0.18052153
v 0.34786865 -0.26783947 0.18054122
v 0.11468800 -0.26783947 0.18054122
v 0.11306663 -0.33364482 0.18052153
v 0.10931582 -0.33364482 0.17628682
v 0.10070099 -0.17510784 0.03914140
v 0.10070099 -0.14542039 0.04140648
v 0.10931582 -0.30558814 0.17870947
v 0.10963043 -0.14434556 0.15830409
v 0.11057419 -0.30558814 0.18052153
v 0.11088875 -0.32009830 0.18052153
v 0.11098556 -0.32165495 0.18052153
v 0.10931582 -0.32632489 0.17772465
v 0.10070099 -0.16007880 0.04117012
v 0.10070099 -0.15385221 0.04154435
v 0.10931582 -0.30681121 0.17868977
v 0.10931582 -0.32033921 0.17821706
v 0.10931582 -0.32117312 0.17815797
v 0.10931582 -0.32593572 0.17776404
f 1 2 7
f 1 7 3
f 1 3 16
f 1 16 28
f 1 28 42
f 1 42 43
f 1 43 29
f 1 29 17
f 1 17 4
f 1 4 5
f 1 5 2
f 2 6 22
f 2 22 7
f 2 5 8
f 2 8 9
f 2 9 10
f 2 10 6
f 3 7 11
f 3 11 12
f 3 12 13
f 3 13 14
f 3 14 15
f 3 15 16
f 4 17 5
f 5 17 18
f 5 18 19
f 5 19 20
f 5 20 21
f 5 21 8
f 6 10 9
f 6 9 8
f 6 8 27
f 6 27 39
f 6 39 38
f 6 38 37
f 6 37 36
f 6 36 48
f 6 48 59
f 6 59 50
f 6 50 40
f 6 40 23
f 6 23 22
f 7 22 23
f 7 23 24
f 7 24 25
f 7 25 26
f 7 26 11
f 8 21 27
f 11 26 25
f 11 25 24
f 11 24 41
f 11 41 51
f 11 51 42
f 11 42 28
f 11 28 15
f 11 15 14
f 11 14 13
f 11 13 12
f 15 28 16
f 17 29 18
f 18 29 30
f 18 30 31
f 18 31 32
f 18 32 19
f 19 32 33
f 19 33 34
f 19 34 20
f 20 34 35
f 20 35 36
f 20 36 21
f 21 36 37
f 21 37 38
f 21 38 39
f 21 39 27
f 23 40 41
f 23 41 24
f 29 43 55
f 29 55 44
f 29 44 30
f 30 44 45
f 30 45 46
f 30 46 31
f 31 44 33
f 31 33 32
f 31 46 44
f 33 44 55
f 33 55 47
f 33 47 56
f 33 56 64
f 33 64 65
f 33 65 57
f 33 57 48
f 33 48 36
f 33 36 35
f 33 35 34
f 40 49 41
f 40 50 53
f 40 53 52
f 40 52 49
f 41 49 51
f 42 51 49
f 42 49 52
f 42 52 53
f 42 53 43
f 43 53 54
f 43 54 55
f 44 46 45
f 47 55 56
f 48 57 58
f 48 58 59
f 50 59 58
f 50 58 60
f 50 60 53
f 53 60 61
f 53 61 62
f 53 62 54
f 54 62 63
f 54 63 55
f 55 63 56
f 56 63 64
f 57 65 58
f 58 65 66
f 58 66 60
f 60 66 61
f 61 66 67
f 61 67 68
f 61 68 69
f 61 69 62
f 62 69 63
f 63 69 64
f 64 69 68
f 64 68 67
f 64 67 65
f 65 67 66

