# https://github.com/mikedh/trimesh
v 0.40995126 -0.14437484 0.05649522
v 0.39694298 -0.00216004 0.03135113
v 0.39694298 -0.05656327 0.04365546
v 0.39659577 -0.05648345 0.04365546
v 0.38684342 -0.05516627 0.04365546
v 0.38273879 -0.05504653 0.04365546
v 0.37236147 -0.05488687 0.04365546
v 0.34256433 -0.14437484 0.05649522
v 0.40995898 -0.14505338 0.05649522
v 0.42138558 -0.20412662 0.02531917
v 0.42138558 -0.18995703 0.02177868
v 0.39694298 -0.00216004 0.02619337
v 0.38064018 0.00702029 -0.02150497
v 0.38062475 0.00694046 -0.00699331
v 0.38025442 0.00662115 0.00126785
v 0.35784095 -0.00208021 0.03131835
v 0.42138558 -0.18536688 0.00748557
v 0.35784095 -0.05492678 0.04365546
v 0.34256433 -0.14437484 -0.00635953
v 0.34256433 -0.18436902 0.05649522
v 0.41025216 -0.18436902 0.05649522
v 0.42138558 -0.21861553 0.02516620
v 0.39694298 -0.00227976 0.02303534
v 0.38057075 0.00698036 -0.03600570
v 0.37815580 0.00702029 -0.02150497
v 0.37824838 0.00694046 -0.00699331
v 0.37877303 0.00662115 0.00126785
v 0.37817123 0.00698036 -0.03600570
v 0.37865731 0.00666104 -0.04486788
v 0.35784095 -0.00283856 0.02176775
v 0.42138558 -0.18544670 0.00558419
v 0.37496159 -0.20412662 -0.04988358
v 0.34256433 -0.18436902 -0.00637044
v 0.37129674 -0.01557123 -0.03600570
v 0.37682102 -0.00108234 -0.04762159
v 0.37543996 -0.01557123 -0.04956668
v 0.34793430 -0.33364868 0.05104242
v 0.40030692 -0.33364868 0.05104242
v 0.40135623 -0.33332937 0.05104242
v 0.40924143 -0.32853964 0.05104242
v 0.41003613 -0.32007780 0.05104242
v 0.41039103 -0.30562881 0.05104242
v 0.41067650 -0.29113990 0.05104242
v 0.42138558 -0.22867394 0.02472911
v 0.38151974 -0.00108234 -0.04762159
v 0.38021582 0.00666104 -0.04486788
v 0.42138558 -0.18608533 -0.00678568
v 0.42138558 -0.18700336 -0.01212922
v 0.42138558 -0.18955788 -0.02148313
v 0.38684342 -0.21861553 -0.05486651
v 0.37497702 -0.21861553 -0.04988358
v 0.37550939 -0.37811326 -0.04982895
v 0.34793430 -0.32003788 -0.00692775
v 0.34793430 -0.33141348 -0.00329982
v 0.34793430 -0.33364868 0.00196720
v 0.38252275 -0.01557123 -0.04956668
v 0.39195878 -0.21861553 -0.05512877
v 0.37404346 -0.39256227 -0.02150497
v 0.37429807 -0.39256227 -0.00700425
v 0.36868892 -0.37986950 0.00727796
v 0.37830238 -0.40050520 -0.00700425
v 0.37881932 -0.40022582 0.00072148
v 0.38009238 -0.40022582 0.00072148
v 0.38979845 -0.37943043 0.00787896
v 0.42138558 -0.31620611 0.00648024
v 0.42138558 -0.27545356 0.02062038
v 0.42138558 -0.26208225 0.02279495
v 0.42138558 -0.25338092 0.02340689
v 0.42138558 -0.24755343 0.02380028
v 0.42138558 -0.23306452 0.02453241
v 0.42138558 -0.24811223 -0.02148313
v 0.38290852 -0.37811326 -0.04982895
v 0.37683645 -0.39256227 -0.04791663
v 0.37406661 -0.39256227 -0.03599479
v 0.37815580 -0.40074469 -0.03599479
v 0.37817123 -0.40066486 -0.02150497
v 0.38044729 -0.40050520 -0.00700425
v 0.42138558 -0.31409065 -0.00322334
v 0.38060932 -0.40066486 -0.02150497
v 0.38067875 -0.40074469 -0.03599479
v 0.38034699 -0.40042537 -0.04509734
v 0.42138558 -0.30163738 -0.01168118
v 0.42138558 -0.30570864 -0.01080700
v 0.38181292 -0.39256227 -0.04791663
v 0.37864188 -0.40042537 -0.04509734
v 0.42138558 -0.31225459 -0.00629396
f 1 2 3
f 1 3 4
f 1 4 5
f 1 5 6
f 1 6 7
f 1 7 8
f 1 8 20
f 1 20 21
f 1 21 9
f 1 9 10
f 1 10 11
f 1 11 2
f 2 12 13
f 2 13 14
f 2 14 15
f 2 15 16
f 2 16 7
f 2 7 6
f 2 6 5
f 2 5 4
f 2 4 3
f 2 11 17
f 2 17 12
f 7 16 18
f 7 18 8
f 8 18 16
f 8 16 19
f 8 19 33
f 8 33 20
f 9 21 10
f 10 22 44
f 10 44 70
f 10 70 69
f 10 69 68
f 10 68 67
f 10 67 66
f 10 66 65
f 10 65 78
f 10 78 86
f 10 86 83
f 10 83 82
f 10 82 71
f 10 71 49
f 10 49 48
f 10 48 47
f 10 47 31
f 10 31 17
f 10 17 11
f 10 21 22
f 12 23 24
f 12 24 13
f 12 17 23
f 13 24 28
f 13 28 25
f 13 25 26
f 13 26 14
f 14 26 27
f 14 27 15
f 15 27 16
f 16 27 26
f 16 26 25
f 16 25 28
f 16 28 29
f 16 29 30
f 16 30 19
f 17 31 23
f 19 32 33
f 19 30 34
f 19 34 35
f 19 35 36
f 19 36 32
f 20 33 55
f 20 55 37
f 20 37 38
f 20 38 21
f 21 38 39
f 21 39 40
f 21 40 41
f 21 41 42
f 21 42 43
f 21 43 22
f 22 43 44
f 23 45 46
f 23 46 24
f 23 31 47
f 23 47 48
f 23 48 49
f 23 49 45
f 24 46 29
f 24 29 28
f 29 46 45
f 29 45 35
f 29 35 30
f 30 35 34
f 32 50 51
f 32 51 33
f 32 36 50
f 33 51 52
f 33 52 53
f 33 53 54
f 33 54 55
f 35 45 56
f 35 56 36
f 36 56 57
f 36 57 50
f 37 55 58
f 37 58 59
f 37 59 60
f 37 60 61
f 37 61 62
f 37 62 63
f 37 63 38
f 38 63 39
f 39 63 40
f 40 63 64
f 40 64 65
f 40 65 41
f 41 65 66
f 41 66 67
f 41 67 68
f 41 68 42
f 42 68 69
f 42 69 43
f 43 69 70
f 43 70 44
f 45 49 56
f 49 71 57
f 49 57 56
f 50 57 52
f 50 52 51
f 52 72 84
f 52 84 73
f 52 73 54
f 52 54 53
f 52 57 72
f 54 73 74
f 54 74 55
f 55 74 58
f 57 71 72
f 58 74 75
f 58 75 76
f 58 76 61
f 58 61 59
f 59 61 60
f 61 76 79
f 61 79 77
f 61 77 63
f 61 63 62
f 63 77 65
f 63 65 64
f 65 77 79
f 65 79 80
f 65 80 81
f 65 81 78
f 71 82 72
f 72 82 83
f 72 83 84
f 73 84 81
f 73 81 85
f 73 85 74
f 74 85 75
f 75 80 79
f 75 79 76
f 75 85 81
f 75 81 80
f 78 81 86
f 81 84 86
f 83 86 84

