# https://github.com/mikedh/trimesh
v 1.00559246 -0.33068561 0.25355633
v 1.00563702 -0.33068561 0.25305701
v 1.07236229 -0.34602043 0.23706803
v 1.00559246 -0.33068561 0.25829984
v 1.00559246 -0.33014545 0.25405565
v 1.01669848 -0.07350485 0.26012343
v 1.01113990 -0.33068561 0.23989025
v 1.08005964 -0.34602043 0.24313581
v 1.11939299 -0.34809108 0.30917585
v 1.07236229 -0.34602043 0.27266061
v 1.02494166 -0.33068561 0.22684289
v 1.03984624 -0.33068561 0.21896237
v 1.05355888 -0.33068561 0.22292434
v 1.11939299 -0.32006228 0.26670138
v 1.01015963 -0.33068561 0.26900258
v 1.01669848 -0.07350485 0.26305420
v 1.03934497 -0.04646636 0.21299229
v 1.11939299 -0.34632052 0.29793038
v 1.11939299 -0.34728083 0.30063320
v 1.11939299 -0.33077564 0.27029429
v 1.11939299 -0.34809108 0.31090175
v 1.02817211 -0.33068561 0.29656268
v 1.04651877 -0.31673124 0.21774665
v 1.04678611 -0.31673124 0.21774665
v 1.03944522 -0.04646636 0.21294887
v 1.11939299 -0.31469059 0.26734181
v 1.04904740 -0.04646636 0.21433827
v 1.11938184 -0.08793939 0.26823189
v 1.11938184 -0.08085716 0.26862266
v 1.03934497 -0.05886026 0.30570235
v 1.03934497 -0.05856016 0.30568063
v 1.03934497 -0.04646636 0.30321662
v 1.11938184 -0.04157483 0.29752875
v 1.11939299 -0.33503699 0.32273337
v 1.04239718 -0.33068561 0.30547439
v 1.04139463 -0.04646636 0.21299229
v 1.11939299 -0.29911570 0.26957788
v 1.06551150 -0.04646636 0.22884016
v 1.11938184 -0.05060767 0.27465788
v 1.11938184 -0.05237821 0.27415856
v 1.11938184 -0.05958048 0.27230241
v 1.11938184 -0.06663269 0.27101070
v 1.11939299 -0.28429105 0.27182480
v 1.11938184 -0.07398500 0.32335209
v 1.08854788 -0.28510130 0.31998714
v 1.08854788 -0.28267054 0.31998714
v 1.11938184 -0.06195122 0.32239688
v 1.11938184 -0.05429882 0.31856517
v 1.11938184 -0.04406561 0.31252995
v 1.11938184 -0.04385554 0.28969165
v 1.11939299 -0.26364456 0.31021790
v 1.11939299 -0.26436479 0.30111080
v 1.11939299 -0.33203604 0.32310244
v 1.11938184 -0.04616627 0.28258182
v 1.11939299 -0.27942952 0.27292113
v 1.11938184 -0.10342425 0.32359091
v 1.11939299 -0.30646801 0.32384056
v 1.11939299 -0.29212350 0.32350406
v 1.11939299 -0.32528392 0.32331953
v 1.11939299 -0.26469489 0.31194380
f 1 2 3
f 1 3 10
f 1 10 4
f 1 4 5
f 1 5 6
f 1 6 2
f 2 7 3
f 2 6 7
f 3 8 9
f 3 9 21
f 3 21 10
f 3 7 11
f 3 11 12
f 3 12 13
f 3 13 14
f 3 14 8
f 4 10 15
f 4 15 16
f 4 16 5
f 5 16 6
f 6 16 32
f 6 32 17
f 6 17 7
f 7 17 11
f 8 18 19
f 8 19 9
f 8 14 20
f 8 20 18
f 9 19 18
f 9 18 20
f 9 20 14
f 9 14 26
f 9 26 37
f 9 37 43
f 9 43 55
f 9 55 52
f 9 52 51
f 9 51 60
f 9 60 58
f 9 58 57
f 9 57 59
f 9 59 53
f 9 53 34
f 9 34 21
f 10 21 22
f 10 22 15
f 11 17 12
f 12 23 24
f 12 24 13
f 12 17 25
f 12 25 23
f 13 24 14
f 14 24 27
f 14 27 28
f 14 28 29
f 14 29 26
f 15 22 30
f 15 30 16
f 16 30 31
f 16 31 32
f 17 32 33
f 17 33 25
f 21 34 35
f 21 35 22
f 22 35 30
f 23 25 24
f 24 25 36
f 24 36 27
f 25 33 36
f 26 29 37
f 27 36 33
f 27 33 38
f 27 38 39
f 27 39 40
f 27 40 41
f 27 41 42
f 27 42 29
f 27 29 28
f 29 42 43
f 29 43 37
f 30 44 31
f 30 35 45
f 30 45 46
f 30 46 44
f 31 44 47
f 31 47 32
f 32 47 48
f 32 48 49
f 32 49 33
f 33 50 38
f 33 49 51
f 33 51 52
f 33 52 50
f 34 53 35
f 35 53 45
f 38 50 54
f 38 54 39
f 39 54 55
f 39 55 40
f 40 55 41
f 41 55 43
f 41 43 42
f 44 46 56
f 44 56 57
f 44 57 58
f 44 58 47
f 45 53 59
f 45 59 57
f 45 57 46
f 46 57 56
f 47 58 60
f 47 60 48
f 48 60 49
f 49 60 51
f 50 52 54
f 52 55 54

