# https://github.com/mikedh/trimesh
v 1.30046562 0.13903730 0.18205615
v 1.23785234 0.13903730 0.18853947
v 1.30046562 0.14395721 0.18205615
v 1.31497391 0.13903730 0.18259643
v 1.15413093 0.13074074 0.28935976
v 1.13009265 0.13074074 0.28935976
v 1.23537737 0.13903730 0.18882135
v 1.23537737 0.14395721 0.18879786
v 1.24502115 0.15206233 0.18830457
v 1.25705451 0.15300801 0.18767033
v 1.27142056 0.15394209 0.18691864
v 1.28595729 0.15466152 0.18616695
v 1.30046562 0.15519529 0.18543875
v 1.31497391 0.15496322 0.18569714
v 1.31497391 0.14395721 0.18259643
v 1.32945376 0.13903730 0.18569714
v 1.39684623 0.13903730 0.20275109
v 1.40410039 0.13903730 0.20554643
v 1.41243555 0.13903730 0.21280493
v 1.19390071 0.13074074 0.40401584
v 1.12537034 0.13074074 0.29755787
v 1.12525654 0.14396011 0.29755787
v 1.13009265 0.14396011 0.28935976
v 1.13151504 0.13903730 0.28696375
v 1.13316498 0.13903730 0.28452076
v 1.14366215 0.13903730 0.26901717
v 1.16075922 0.13903730 0.24395304
v 1.16289279 0.13903730 0.24148656
v 1.16718839 0.13903730 0.23669455
v 1.17441408 0.13903730 0.23018774
v 1.17779936 0.13903730 0.22772126
v 1.19902130 0.13903730 0.21233512
v 1.21614677 0.13903730 0.19995574
v 1.22018632 0.13903730 0.19748926
v 1.22803788 0.13903730 0.19272074
v 1.23054130 0.13903730 0.19138179
v 1.22803788 0.14395721 0.19269725
v 1.21771139 0.15358529 0.20105979
v 1.22803788 0.15528521 0.19800605
v 1.24112383 0.15538384 0.19459996
v 1.25705451 0.15759723 0.19605636
v 1.27142056 0.15852841 0.19605636
v 1.28595729 0.15924784 0.19605636
v 1.30046562 0.15977869 0.19605636
v 1.31497391 0.15954373 0.19605636
v 1.32945376 0.15797724 0.19605636
v 1.37300711 0.15500383 0.20000273
v 1.32945376 0.15338803 0.18724750
v 1.33838631 0.15192017 0.18837504
v 1.32945376 0.14395721 0.18569714
v 1.39684623 0.14395721 0.20275109
v 1.40410039 0.14395721 0.20556992
v 1.41243555 0.14395721 0.21280493
v 1.41243555 0.13903730 0.22095606
v 1.19518086 0.13074074 0.41186158
v 1.12505742 0.13074074 0.29884983
v 1.12181438 0.14396011 0.31202788
v 1.12946682 0.15488488 0.29755787
v 1.13225467 0.15305733 0.28809129
v 1.13151504 0.14395721 0.28696375
v 1.14366215 0.14395721 0.26901717
v 1.16075922 0.14395721 0.24395304
v 1.16718839 0.14395721 0.23669455
v 1.17441408 0.14395721 0.23018774
v 1.18439921 0.14395721 0.22292924
v 1.19902130 0.14395721 0.21233512
v 1.21614677 0.14395721 0.19995574
v 1.19168182 0.15130809 0.21773789
v 1.17535287 0.15293838 0.23089245
v 1.21315980 0.15626282 0.20984515
v 1.22803788 0.15986572 0.21054986
v 1.34396205 0.16037339 0.21054986
v 1.35847034 0.16026894 0.21054986
v 1.24254617 0.16037339 0.21054986
v 1.37300711 0.15959014 0.21054986
v 1.38745853 0.15767846 0.21054986
v 1.38745853 0.15327779 0.20183497
v 1.39613503 0.15182155 0.20293901
v 1.41138296 0.15360850 0.21447274
v 1.41243555 0.14395721 0.22114398
v 1.32225652 0.15112533 0.30481636
v 1.19324640 0.13074074 0.42203287
v 1.19381535 0.13074074 0.42123420
v 1.19518086 0.13074074 0.41348242
v 1.12224109 0.13074074 0.31202788
v 1.12773152 0.15578707 0.31202788
v 1.12440311 0.13074074 0.34103839
v 1.12551258 0.13074074 0.35553188
v 1.12417551 0.14396011 0.34103839
v 1.13034869 0.15522140 0.37002538
v 1.12960901 0.15559852 0.35553188
v 1.12895474 0.15577257 0.34103839
v 1.14098810 0.15947120 0.29755787
v 1.13581063 0.15543605 0.28935976
v 1.14064674 0.15585088 0.28315832
v 1.14522682 0.15404654 0.27127224
v 1.16144193 0.15291228 0.24489265
v 1.17031760 0.15510535 0.23986574
v 1.19902130 0.15811069 0.22504337
v 1.18454145 0.15938128 0.23953687
v 1.21355803 0.16032697 0.22504337
v 1.37300711 0.16037339 0.22504337
v 1.14579577 0.16037628 0.30721237
v 1.19902130 0.16037339 0.23953687
v 1.38745853 0.15950602 0.22504337
v 1.40136942 0.15470212 0.21000958
v 1.41138296 0.15360850 0.22034531
v 1.39707383 0.15335032 0.23441599
v 1.38211034 0.15304572 0.24851016
v 1.36717533 0.15269181 0.26258084
v 1.33724840 0.15180994 0.29079267
v 1.32225652 0.15126748 0.30481636
v 1.19338868 0.14396011 0.42203287
v 1.18841033 0.13074074 0.42203287
v 1.12815819 0.15578707 0.32208173
v 1.14098810 0.16017902 0.35553188
v 1.14098810 0.16035888 0.34103839
v 1.14098810 0.16037628 0.32654488
v 1.14098810 0.16037628 0.31202788
v 1.12693496 0.13074074 0.37002538
v 1.12545570 0.14396011 0.35553188
v 1.12693496 0.14396011 0.37002538
v 1.13114520 0.15436274 0.37606239
v 1.14098810 0.15980190 0.37002538
v 1.14076050 0.15740576 0.28935976
v 1.14579577 0.15971488 0.29274236
v 1.17000468 0.15936097 0.25405387
v 1.15831272 0.15477465 0.25405387
v 1.17000468 0.16037339 0.26854737
v 1.20508064 0.16037628 0.37603890
v 1.20508064 0.16037628 0.37848190
v 1.30046562 0.16037339 0.29758136
v 1.37300711 0.15946541 0.23953687
v 1.40193838 0.15562462 0.22511384
v 1.38714561 0.15543316 0.23937244
v 1.25278735 0.15373904 0.36549177
v 1.23779542 0.15348666 0.37956244
v 1.22286042 0.15319367 0.39363312
v 1.35221189 0.15228569 0.27667500
v 1.20786849 0.15283686 0.40770380
v 1.19293348 0.15250616 0.42161005
v 1.18841033 0.14396011 0.42203287
v 1.18118460 0.14396011 0.41902613
v 1.18118460 0.13074074 0.41895564
v 1.15555331 0.16037339 0.36997840
v 1.17000468 0.16037628 0.38451889
v 1.15555331 0.16020802 0.28304087
v 1.12884094 0.13074074 0.37606239
v 1.12884094 0.14396011 0.37606239
v 1.13174264 0.15373033 0.38043158
v 1.13563991 0.15629182 0.37606239
v 1.15555331 0.15976419 0.38451889
v 1.18451301 0.16037628 0.39903589
v 1.14087430 0.15823542 0.37606239
v 1.28595729 0.16033857 0.31202788
v 1.35847034 0.15919852 0.25405387
v 1.27144900 0.16025155 0.32654488
v 1.25702607 0.16012971 0.34103839
v 1.24254617 0.15998176 0.35553188
v 1.22803788 0.15979611 0.37000189
v 1.21352959 0.15956693 0.38454238
v 1.20508064 0.15941899 0.39297540
v 1.34396205 0.15889103 0.26854737
v 1.32945376 0.15854002 0.28304087
v 1.32319526 0.15835726 0.28935976
v 1.31497391 0.15812519 0.29758136
v 1.25736742 0.15619900 0.35597820
v 1.24254617 0.15592922 0.37018981
v 1.22781033 0.15560431 0.38444842
v 1.20508064 0.15499222 0.40636487
v 1.19828167 0.15480367 0.41291865
v 1.20508064 0.15340834 0.40923067
v 1.18465525 0.15565073 0.41428109
v 1.18951976 0.15250616 0.42161005
v 1.19902130 0.15930005 0.39903589
v 1.17000468 0.14396011 0.41242535
v 1.16212472 0.15184765 0.40671720
v 1.17000468 0.13074074 0.41235488
v 1.13074692 0.13074074 0.38198193
v 1.13074692 0.14396011 0.38198193
v 1.13660714 0.14396011 0.38928743
v 1.14536901 0.15345766 0.39377407
v 1.14073206 0.15590891 0.38496521
v 1.17000468 0.15856323 0.39903589
v 1.20508064 0.15753631 0.39889495
v 1.17000468 0.15397691 0.40937161
v 1.16181176 0.14396011 0.40692864
v 1.16181176 0.13074074 0.40692864
v 1.14386131 0.14396011 0.39476066
v 1.13660714 0.13074074 0.38928743
v 1.15660586 0.15477175 0.39877750
v 1.14386131 0.13074074 0.39476066
f 1 2 3
f 1 3 15
f 1 15 4
f 1 4 5
f 1 5 6
f 1 6 2
f 2 7 8
f 2 8 3
f 2 6 7
f 3 8 9
f 3 9 10
f 3 10 11
f 3 11 12
f 3 12 13
f 3 13 14
f 3 14 15
f 4 15 50
f 4 50 16
f 4 16 5
f 5 16 17
f 5 17 18
f 5 18 19
f 5 19 20
f 5 20 55
f 5 55 84
f 5 84 83
f 5 83 82
f 5 82 114
f 5 114 144
f 5 144 178
f 5 178 188
f 5 188 192
f 5 192 190
f 5 190 179
f 5 179 148
f 5 148 120
f 5 120 88
f 5 88 87
f 5 87 85
f 5 85 56
f 5 56 21
f 5 21 6
f 6 21 22
f 6 22 23
f 6 23 60
f 6 60 24
f 6 24 25
f 6 25 26
f 6 26 27
f 6 27 28
f 6 28 29
f 6 29 30
f 6 30 31
f 6 31 32
f 6 32 33
f 6 33 34
f 6 34 35
f 6 35 36
f 6 36 7
f 7 36 8
f 8 36 37
f 8 37 38
f 8 38 9
f 9 38 39
f 9 39 40
f 9 40 10
f 10 40 11
f 11 40 41
f 11 41 12
f 12 41 42
f 12 42 13
f 13 42 43
f 13 43 44
f 13 44 45
f 13 45 14
f 14 45 46
f 14 46 47
f 14 47 48
f 14 48 15
f 15 48 49
f 15 49 50
f 16 50 51
f 16 51 17
f 17 51 18
f 18 51 52
f 18 52 53
f 18 53 19
f 19 53 80
f 19 80 54
f 19 54 84
f 19 84 55
f 19 55 20
f 21 56 22
f 22 56 57
f 22 57 58
f 22 58 59
f 22 59 23
f 23 59 60
f 24 60 25
f 25 60 61
f 25 61 26
f 26 61 62
f 26 62 27
f 27 62 28
f 28 62 63
f 28 63 29
f 29 63 64
f 29 64 30
f 30 64 31
f 31 64 65
f 31 65 32
f 32 65 66
f 32 66 67
f 32 67 33
f 33 67 34
f 34 67 37
f 34 37 35
f 35 37 36
f 37 67 38
f 38 67 68
f 38 68 69
f 38 69 70
f 38 70 39
f 39 70 71
f 39 71 41
f 39 41 40
f 41 71 42
f 42 71 43
f 43 71 44
f 44 72 73
f 44 73 45
f 44 71 74
f 44 74 72
f 45 73 75
f 45 75 47
f 45 47 46
f 47 75 76
f 47 76 77
f 47 77 48
f 48 77 49
f 49 77 78
f 49 78 50
f 50 78 51
f 51 78 52
f 52 79 53
f 52 78 79
f 53 79 107
f 53 107 80
f 54 80 81
f 54 81 82
f 54 82 83
f 54 83 84
f 56 85 57
f 57 86 58
f 57 85 87
f 57 87 88
f 57 88 89
f 57 89 90
f 57 90 91
f 57 91 92
f 57 92 86
f 58 86 93
f 58 93 94
f 58 94 59
f 59 94 95
f 59 95 96
f 59 96 97
f 59 97 60
f 60 97 61
f 61 97 62
f 62 97 63
f 63 69 64
f 63 97 69
f 64 69 68
f 64 68 65
f 65 68 66
f 66 68 67
f 69 97 98
f 69 98 70
f 70 99 71
f 70 98 99
f 71 99 100
f 71 100 101
f 71 101 74
f 72 102 73
f 72 74 103
f 72 103 102
f 73 102 75
f 74 101 104
f 74 104 103
f 75 102 105
f 75 105 76
f 76 105 79
f 76 79 106
f 76 106 77
f 77 106 78
f 78 106 79
f 79 105 107
f 80 107 108
f 80 108 109
f 80 109 110
f 80 110 111
f 80 111 112
f 80 112 81
f 81 113 82
f 81 112 113
f 82 113 142
f 82 142 114
f 86 92 115
f 86 115 116
f 86 116 117
f 86 117 118
f 86 118 119
f 86 119 93
f 88 120 121
f 88 121 89
f 89 121 90
f 90 121 122
f 90 122 123
f 90 123 124
f 90 124 91
f 91 124 92
f 92 124 116
f 92 116 115
f 93 125 94
f 93 119 126
f 93 126 127
f 93 127 125
f 94 125 95
f 95 125 127
f 95 127 128
f 95 128 96
f 96 128 97
f 97 128 98
f 98 127 100
f 98 100 99
f 98 128 127
f 100 104 101
f 100 127 129
f 100 129 104
f 102 103 130
f 102 130 131
f 102 131 132
f 102 132 105
f 103 129 119
f 103 119 118
f 103 118 146
f 103 146 153
f 103 153 131
f 103 131 130
f 103 104 129
f 105 132 133
f 105 133 134
f 105 134 107
f 107 134 108
f 108 134 135
f 108 135 136
f 108 136 137
f 108 137 138
f 108 138 109
f 109 138 110
f 110 139 111
f 110 138 140
f 110 140 139
f 111 139 140
f 111 140 141
f 111 141 112
f 112 141 113
f 113 141 174
f 113 174 142
f 114 142 143
f 114 143 144
f 116 124 145
f 116 145 117
f 117 145 118
f 118 145 146
f 119 129 147
f 119 147 126
f 120 122 121
f 120 148 149
f 120 149 122
f 122 149 150
f 122 150 123
f 123 150 151
f 123 151 124
f 124 152 153
f 124 153 146
f 124 146 145
f 124 151 154
f 124 154 152
f 126 147 127
f 127 147 129
f 131 153 132
f 132 155 133
f 132 153 155
f 133 156 134
f 133 155 157
f 133 157 158
f 133 158 159
f 133 159 160
f 133 160 161
f 133 161 162
f 133 162 156
f 134 156 163
f 134 163 164
f 134 164 135
f 135 164 165
f 135 165 166
f 135 166 167
f 135 167 168
f 135 168 169
f 135 169 136
f 136 169 170
f 136 170 171
f 136 171 137
f 137 171 138
f 138 171 172
f 138 172 140
f 140 172 141
f 141 173 174
f 141 172 171
f 141 171 175
f 141 175 173
f 142 174 143
f 143 176 178
f 143 178 144
f 143 174 177
f 143 177 176
f 148 179 180
f 148 180 149
f 149 180 150
f 150 180 181
f 150 181 182
f 150 182 183
f 150 183 154
f 150 154 151
f 152 154 183
f 152 183 184
f 152 184 153
f 153 173 175
f 153 175 162
f 153 162 161
f 153 161 160
f 153 160 159
f 153 159 158
f 153 158 157
f 153 157 155
f 153 184 173
f 156 162 175
f 156 175 163
f 163 175 164
f 164 175 165
f 165 175 166
f 166 175 167
f 167 175 168
f 168 175 169
f 169 175 185
f 169 185 170
f 170 185 171
f 171 185 175
f 173 184 186
f 173 186 174
f 174 186 177
f 176 177 187
f 176 187 188
f 176 188 178
f 177 186 182
f 177 182 189
f 177 189 187
f 179 190 181
f 179 181 180
f 181 190 192
f 181 192 189
f 181 189 182
f 182 186 191
f 182 191 183
f 183 191 184
f 184 191 186
f 187 189 192
f 187 192 188

