# https://github.com/mikedh/trimesh
v 0.66239433 -0.40105734 0.54276149
v 0.67591418 -0.40044858 0.54276149
v 0.67865139 -0.36743249 0.56733836
v 0.65429350 -0.36743249 0.56733836
v 0.66119195 -0.40104440 0.54276149
v 0.64790482 -0.40097315 0.51507628
v 0.64790482 -0.40089544 0.50058173
v 0.66906560 -0.40041619 0.50006806
v 0.67591418 -0.40040324 0.52034464
v 0.68457464 -0.35492679 0.56733836
v 0.65429350 -0.36362443 0.56733836
v 0.63590318 -0.36516579 0.52034464
v 0.63866810 -0.37813131 0.52740425
v 0.64500692 -0.37813131 0.54276149
v 0.63933856 -0.39262522 0.52578421
v 0.64777738 -0.39262522 0.54276149
v 0.65278637 -0.40077887 0.54276149
v 0.63923328 -0.40077887 0.51507628
v 0.63752667 -0.40077239 0.50006806
v 0.64737843 -0.40088247 0.50006806
v 0.66906560 -0.33554974 0.50006806
v 0.68457464 -0.35470012 0.54276806
v 0.68457464 -0.33529717 0.56733836
v 0.65429904 -0.34913051 0.56733836
v 0.65086921 -0.34913051 0.55857971
v 0.63590318 -0.35743311 0.52034464
v 0.62796859 -0.36363739 0.50006806
v 0.62797413 -0.37572860 0.50006806
v 0.62858363 -0.37812483 0.50162222
v 0.62803508 -0.38002886 0.50006806
v 0.64022511 -0.40024134 0.52355175
v 0.63984832 -0.40044858 0.52034464
v 0.63073351 -0.39242447 0.50006806
v 0.64790482 -0.33491507 0.50006806
v 0.66906560 -0.33552384 0.50058173
v 0.67591418 -0.33537489 0.52034464
v 0.68457464 -0.33554974 0.54276806
v 0.68263531 -0.33525185 0.56733836
v 0.67162550 -0.33523241 0.52034464
v 0.66238879 -0.33495393 0.52958403
v 0.65456501 -0.34477198 0.56733836
v 0.63867365 -0.34913051 0.52740425
v 0.62806832 -0.34913051 0.50006806
v 0.62797967 -0.37812483 0.50006806
v 0.64060189 -0.33672196 0.50006806
v 0.64790482 -0.33489564 0.50058173
v 0.66906560 -0.33534898 0.50841181
v 0.67689492 -0.33518060 0.56733836
v 0.66238879 -0.33494746 0.53128964
v 0.66238879 -0.33493450 0.54276806
v 0.66239987 -0.33493450 0.54407198
v 0.65505815 -0.34107402 0.56733836
v 0.65467583 -0.34120354 0.56705518
v 0.63317151 -0.33861951 0.50006806
v 0.63933856 -0.34025153 0.52571837
v 0.64790482 -0.33548499 0.51507628
v 0.66211728 -0.33782292 0.56733836
v 0.66239987 -0.33632043 0.55857971
v 0.65301909 -0.33959743 0.55857971
v 0.63834673 -0.33946789 0.52034464
v 0.63737707 -0.33870369 0.51507628
v 0.65039824 -0.33826331 0.54407198
f 1 2 3
f 1 3 4
f 1 4 5
f 1 5 6
f 1 6 7
f 1 7 8
f 1 8 9
f 1 9 2
f 2 10 3
f 2 9 10
f 3 10 23
f 3 23 38
f 3 38 48
f 3 48 57
f 3 57 52
f 3 52 41
f 3 41 24
f 3 24 11
f 3 11 4
f 4 11 26
f 4 26 12
f 4 12 13
f 4 13 14
f 4 14 15
f 4 15 16
f 4 16 17
f 4 17 5
f 5 17 18
f 5 18 6
f 6 18 19
f 6 19 7
f 7 19 20
f 7 20 8
f 8 20 19
f 8 19 33
f 8 33 30
f 8 30 44
f 8 44 28
f 8 28 27
f 8 27 43
f 8 43 54
f 8 54 45
f 8 45 34
f 8 34 21
f 8 21 37
f 8 37 22
f 8 22 9
f 9 22 10
f 10 22 37
f 10 37 23
f 11 24 25
f 11 25 26
f 12 26 27
f 12 27 13
f 13 15 14
f 13 27 28
f 13 28 29
f 13 29 30
f 13 30 15
f 15 30 31
f 15 31 16
f 16 31 17
f 17 31 32
f 17 32 18
f 18 33 19
f 18 32 33
f 21 34 35
f 21 35 36
f 21 36 37
f 23 37 36
f 23 36 39
f 23 39 40
f 23 40 38
f 24 41 25
f 25 41 42
f 25 42 26
f 26 42 27
f 27 42 43
f 28 44 29
f 29 44 30
f 30 33 31
f 31 33 32
f 34 45 46
f 34 46 35
f 35 46 47
f 35 47 36
f 36 47 39
f 38 40 49
f 38 49 50
f 38 50 51
f 38 51 48
f 39 47 46
f 39 46 40
f 40 46 49
f 41 52 53
f 41 53 42
f 42 53 43
f 43 53 55
f 43 55 54
f 45 54 56
f 45 56 46
f 46 56 51
f 46 51 50
f 46 50 49
f 48 51 58
f 48 58 57
f 51 56 58
f 52 57 59
f 52 59 53
f 53 59 55
f 54 55 60
f 54 60 61
f 54 61 56
f 55 59 60
f 56 61 58
f 57 58 59
f 58 61 62
f 58 62 59
f 59 62 61
f 59 61 60

