# https://github.com/mikedh/trimesh
v 4.28666651 -0.13382718 0.04107775
v 4.27978254 0.12091304 1.23009122
v 4.28291571 -0.13382718 1.39999420
v 4.27033443 -0.20613356 1.39999420
v 4.27033443 -0.20613356 -1.40248334
v 4.28661892 -0.13382718 -0.04356701
v 4.27978254 0.12091304 -1.23258062
v 4.26910020 0.20585777 1.39999420
v 4.26881518 0.20585777 1.48494544
v 4.28229860 -0.13382718 1.48494544
v 4.26976490 -0.20561675 1.48494544
v 4.20457861 -0.22760465 1.48494544
v 4.20457861 -0.22901414 1.23009122
v 4.20457861 -0.23094043 0.38088352
v 4.20457861 -0.23089344 -0.38337279
v 4.20457861 -0.22901414 -1.23258062
v 4.20457861 -0.22760465 -1.48743483
v 4.26976490 -0.20561675 -1.48743483
v 4.28229860 -0.13382718 -1.48743483
v 4.28291571 -0.13382718 -1.40248334
v 4.26881518 0.20585777 -1.48743483
v 4.26910020 0.20585777 -1.40248334
v 4.24802002 0.24898789 1.39999420
v 4.24792535 0.24894090 1.48494544
v 4.24802002 0.24903487 -0.29842133
v 4.24759275 0.24870599 1.52788137
v 4.25775315 0.20585777 1.53769524
v 4.26430501 0.12091304 1.54474880
v 4.26506439 -0.13382718 1.54536237
v 4.26178845 -0.19551547 1.54137541
v 3.86488073 -0.22431586 1.48494544
v 3.86488073 -0.22534949 1.39999420
v 4.20457861 -0.20279779 1.54842922
v 3.86488073 -0.22563137 0.89028545
v 3.86488073 -0.22567836 0.63573783
v 3.86488073 -0.22572535 0.04107775
v 3.86488073 -0.22572535 -0.04356701
v 3.86488073 -0.22567836 -0.63822710
v 3.86488073 -0.22563137 -0.89277472
v 3.86488073 -0.22534949 -1.40248334
v 3.86488073 -0.22431586 -1.48743483
v 4.20457861 -0.20279779 -1.55091836
v 4.26178845 -0.19551547 -1.54386455
v 4.26506439 -0.13382718 -1.54785151
v 4.26430501 0.12091304 -1.54723819
v 4.25775315 0.20585777 -1.54018438
v 4.24759275 0.24870599 -1.53037050
v 4.24792535 0.24894090 -1.48743483
v 4.24802002 0.24903487 -1.40248334
v 4.24403205 0.24898789 1.39999420
v 4.24341493 0.24894090 1.48494544
v 4.24203819 0.24903487 -0.29842133
v 4.24422215 0.24870599 1.52788137
v 4.21136790 0.21107284 1.54413548
v 4.20457861 0.12091304 1.56161648
v 4.20457861 -0.13382718 1.56529665
v 3.94981703 -0.20063659 1.54689580
v 3.86488073 -0.19993184 1.54566890
v 3.81341554 -0.19048832 1.53800177
v 3.80881020 -0.19767668 1.48494544
v 3.80871528 -0.19786461 1.39999420
v 3.80871528 -0.19786461 -1.40248334
v 3.80881020 -0.19767668 -1.48743483
v 3.81341554 -0.19048832 -1.54049117
v 3.86488073 -0.19993184 -1.54815829
v 3.94981703 -0.20063659 -1.54938493
v 4.20457861 -0.13382718 -1.56778604
v 4.20457861 0.12091304 -1.56410587
v 4.21136790 0.21107284 -1.54662487
v 4.24422215 0.24870599 -1.53037050
v 4.24341493 0.24894090 -1.48743483
v 4.24403205 0.24903487 -1.40248334
v 4.24151574 0.24898789 1.23009122
v 3.86488073 0.23268489 1.48494544
v 3.86488073 0.23418834 0.04107775
v 3.86488073 0.23376549 0.89028545
v 3.86488073 0.23348359 1.31504271
v 4.24080371 0.24903487 -0.38337279
v 3.86488073 0.19763579 1.54474880
v 3.94981703 0.19744786 1.54597569
v 3.86488073 0.12091304 1.55732299
v 3.86488073 -0.13382718 1.55946974
v 3.81308319 -0.13382718 1.53861535
v 3.80505966 -0.13382718 1.48494544
v 3.80164122 -0.13382718 0.04107775
v 3.80164122 -0.13382718 -0.04356701
v 3.80510699 -0.13382718 -1.48743483
v 3.81308319 -0.13382718 -1.54110449
v 3.86488073 -0.13382718 -1.56195913
v 3.86488073 0.12091304 -1.55981213
v 3.94981703 0.19744786 -1.54846483
v 3.86488073 0.19763579 -1.54723819
v 3.86488073 0.23268489 -1.48743483
v 3.86488073 0.23348359 -1.31753185
v 3.86488073 0.23376549 -0.89277472
v 4.24151574 0.24903487 -1.23258062
v 3.81056688 0.19538061 1.48494544
v 3.81455510 0.18457460 1.53677513
v 3.81047196 0.19556856 1.39999420
v 3.86488073 0.23418834 -0.04356701
v 4.24142082 0.24903487 -1.14762913
v 3.81393773 0.12091304 1.53769524
v 3.80705352 0.12091304 1.23009122
v 3.80705352 0.12091304 -1.23258062
v 3.81056688 0.19538061 -1.48743483
v 3.81455510 0.18457460 -1.53926453
v 3.81393773 0.12091304 -1.54018438
v 3.81047196 0.19556856 -1.40248334
f 1 2 3
f 1 3 4
f 1 4 5
f 1 5 6
f 1 6 7
f 1 7 2
f 2 8 9
f 2 9 10
f 2 10 3
f 2 7 22
f 2 22 8
f 3 10 4
f 4 10 11
f 4 11 12
f 4 12 13
f 4 13 14
f 4 14 5
f 5 15 16
f 5 16 17
f 5 17 18
f 5 18 19
f 5 19 20
f 5 20 6
f 5 14 15
f 6 20 7
f 7 20 19
f 7 19 21
f 7 21 22
f 8 23 24
f 8 24 9
f 8 22 49
f 8 49 25
f 8 25 23
f 9 24 26
f 9 26 27
f 9 27 28
f 9 28 10
f 10 28 29
f 10 29 30
f 10 30 11
f 11 30 12
f 12 31 32
f 12 32 13
f 12 30 33
f 12 33 31
f 13 32 14
f 14 32 34
f 14 34 35
f 14 35 36
f 14 36 37
f 14 37 15
f 15 37 38
f 15 38 39
f 15 39 40
f 15 40 16
f 16 40 17
f 17 40 41
f 17 41 42
f 17 42 43
f 17 43 18
f 18 43 19
f 19 43 44
f 19 44 45
f 19 45 21
f 21 45 46
f 21 46 47
f 21 47 48
f 21 48 22
f 22 48 49
f 23 50 51
f 23 51 24
f 23 25 52
f 23 52 50
f 24 51 53
f 24 53 26
f 25 49 72
f 25 72 96
f 25 96 101
f 25 101 78
f 25 78 52
f 26 53 54
f 26 54 27
f 27 54 55
f 27 55 28
f 28 55 56
f 28 56 29
f 29 56 30
f 30 56 33
f 31 33 57
f 31 57 58
f 31 58 59
f 31 59 60
f 31 60 32
f 32 60 61
f 32 61 34
f 33 56 57
f 34 61 35
f 35 61 36
f 36 61 62
f 36 62 37
f 37 62 38
f 38 62 39
f 39 62 40
f 40 62 63
f 40 63 41
f 41 63 64
f 41 64 65
f 41 65 66
f 41 66 42
f 42 66 67
f 42 67 43
f 43 67 44
f 44 67 45
f 45 67 68
f 45 68 46
f 46 68 69
f 46 69 47
f 47 69 70
f 47 70 71
f 47 71 48
f 48 71 72
f 48 72 49
f 50 73 51
f 50 52 73
f 51 74 53
f 51 73 75
f 51 75 76
f 51 76 77
f 51 77 74
f 52 78 73
f 53 79 54
f 53 74 79
f 54 79 80
f 54 80 55
f 55 81 56
f 55 80 81
f 56 81 82
f 56 82 58
f 56 58 57
f 58 82 59
f 59 82 83
f 59 83 84
f 59 84 60
f 60 84 85
f 60 85 61
f 61 85 86
f 61 86 62
f 62 86 63
f 63 87 64
f 63 86 87
f 64 88 89
f 64 89 65
f 64 87 88
f 65 89 67
f 65 67 66
f 67 89 90
f 67 90 68
f 68 90 91
f 68 91 69
f 69 91 92
f 69 92 70
f 70 92 93
f 70 93 71
f 71 93 94
f 71 94 72
f 72 94 95
f 72 95 96
f 73 78 75
f 74 97 98
f 74 98 79
f 74 77 97
f 75 99 76
f 75 78 100
f 75 100 108
f 75 108 99
f 76 99 77
f 77 99 97
f 78 101 100
f 79 81 80
f 79 98 81
f 81 98 102
f 81 102 82
f 82 102 83
f 83 102 84
f 84 102 98
f 84 98 97
f 84 97 103
f 84 103 85
f 85 103 104
f 85 104 86
f 86 104 87
f 87 104 105
f 87 105 106
f 87 106 107
f 87 107 88
f 88 107 89
f 89 107 90
f 90 92 91
f 90 107 106
f 90 106 92
f 92 106 93
f 93 106 105
f 93 105 94
f 94 105 108
f 94 108 95
f 95 108 100
f 95 100 96
f 96 100 101
f 97 99 103
f 99 108 104
f 99 104 103
f 104 108 105

