# https://github.com/mikedh/trimesh
v -1.20684959 2.80320146 0.61813211
v -1.20948048 2.81746286 0.61813211
v -1.20843208 2.77039697 0.61813211
v -1.22884617 2.81746286 -0.73455567
v -1.40673716 2.81746286 0.61813211
v -1.21476204 2.72641892 0.61813211
v -1.24221813 2.72641892 -0.72025908
v -1.23216930 2.81746286 -0.78351064
v -1.40893282 2.80320146 0.61813211
v -1.38952764 2.81746286 -0.75347333
v -1.23082428 2.68583107 0.61813211
v -1.27634041 2.65789696 -0.72025908
v -1.28822888 2.66900688 -0.79708516
v -1.26617302 2.72641892 -0.79708516
v -1.23996308 2.66367485 0.61813211
v -1.24480942 2.81746286 -0.80993762
v -1.39716314 2.72641892 0.61813211
v -1.37641283 2.72641892 -0.72025908
v -1.38555162 2.81746286 -0.78394385
v -1.34300260 2.65789696 -0.72025908
v -1.26817082 2.65485695 0.61813211
v -1.33127240 2.66900688 -0.79708516
v -1.30342069 2.68274323 -0.83766431
v -1.25191082 2.81746286 -0.81860223
v -1.38195142 2.68404831 0.61813211
v -1.38329656 2.81746286 -0.79896245
v -1.35271509 2.72641892 -0.79708516
v -1.35192384 2.65648041 0.61813211
v -1.31637723 2.68274323 -0.83766431
v -1.28358029 2.81746286 -0.85715967
v -1.33594079 2.81746286 -0.85687088
f 1 2 5
f 1 5 9
f 1 9 17
f 1 17 25
f 1 25 28
f 1 28 21
f 1 21 15
f 1 15 11
f 1 11 6
f 1 6 3
f 1 3 4
f 1 4 2
f 2 4 8
f 2 8 16
f 2 16 24
f 2 24 30
f 2 30 31
f 2 31 26
f 2 26 19
f 2 19 10
f 2 10 5
f 3 6 4
f 4 7 8
f 4 6 7
f 5 10 9
f 6 11 7
f 7 12 13
f 7 13 14
f 7 14 8
f 7 11 15
f 7 15 12
f 8 14 16
f 9 10 18
f 9 18 17
f 10 19 18
f 12 20 22
f 12 22 13
f 12 15 21
f 12 21 20
f 13 22 29
f 13 29 23
f 13 23 14
f 14 23 16
f 16 23 24
f 17 18 25
f 18 19 26
f 18 26 27
f 18 27 22
f 18 22 20
f 18 20 25
f 20 21 28
f 20 28 25
f 22 27 29
f 23 29 30
f 23 30 24
f 26 31 29
f 26 29 27
f 29 31 30

