# https://github.com/mikedh/trimesh
v -3.80591274 -2.92809391 -1.53427266
v -3.80591274 -2.90278072 -1.53427266
v -1.65816525 -2.92809391 -1.53427266
v -1.65816525 -2.94635891 -1.48830449
v -3.80591274 -2.94635891 -1.48829236
v -3.85129017 -2.92485843 -1.53174111
v -3.85129017 -2.90798572 -1.53174111
v -3.80591274 -2.87616245 -1.48829236
v -1.65816525 -2.87616245 -1.48830449
v 0.16680823 -2.90278072 -1.53427266
v 0.16680823 -2.92808590 -1.53427266
v -0.50399277 -2.94635891 -1.48830449
v -2.57716277 -2.95097042 -1.41152115
v -3.80591274 -2.95080448 -1.41152115
v -3.86391712 -2.93665272 -1.41152115
v -3.85957661 -2.93237331 -1.48829236
v -3.85957661 -2.89728298 -1.48829236
v -3.86391712 -2.89177745 -1.41152115
v -3.80591274 -2.87042758 -1.41152115
v -2.57716277 -2.87016643 -1.41152115
v -0.42783714 -2.87616245 -1.48830449
v 0.16680823 -2.87616245 -1.48829236
v 0.16680823 -2.94151760 -1.50046578
v 0.16680823 -2.94635090 -1.48829236
v -2.57716277 -2.95093105 -1.41070965
v -0.27355291 -2.95040897 -1.41152115
v -3.80591274 -2.95075687 -1.41070965
v -3.86391712 -2.93665272 -1.41070965
v -3.86391712 -2.89177745 -1.41070965
v -3.80591274 -2.87048274 -1.41070965
v -2.57716277 -2.87022182 -1.41070965
v -0.27355291 -2.87100505 -1.41152115
v 0.16680823 -2.88783016 -1.41559112
v -0.27355291 -2.87107623 -1.41072178
v 0.16680823 -2.94185772 -1.43075638
v -0.27355291 -2.95036137 -1.41072178
v -1.26594391 -2.94068699 -1.41052791
v -1.27067902 -2.94068699 -1.41052791
v -1.35827783 -2.94064762 -1.41052791
v -1.37287752 -2.93935810 -1.41052791
v -1.37287752 -2.88784595 -1.41052791
v -1.35393732 -2.88588420 -1.41052791
v -1.26594391 -2.88580524 -1.41052791
v -1.26120881 -2.88580524 -1.41052791
v 0.16680823 -2.93936611 -1.41559112
v -0.19581891 -2.88648547 -1.41072178
v -1.24424156 -2.88805171 -1.41052791
v -0.19581891 -2.94029949 -1.41072178
v -1.24424156 -2.93920795 -1.41052791
f 1 2 10
f 1 10 11
f 1 11 3
f 1 3 12
f 1 12 4
f 1 4 5
f 1 5 6
f 1 6 7
f 1 7 2
f 2 7 8
f 2 8 9
f 2 9 21
f 2 21 10
f 3 11 12
f 4 13 5
f 4 12 13
f 5 13 14
f 5 14 15
f 5 15 16
f 5 16 6
f 6 16 17
f 6 17 7
f 7 17 8
f 8 17 18
f 8 18 19
f 8 19 20
f 8 20 9
f 9 20 21
f 10 21 22
f 10 22 33
f 10 33 45
f 10 45 35
f 10 35 24
f 10 24 23
f 10 23 11
f 11 23 12
f 12 23 24
f 12 24 13
f 13 25 14
f 13 24 26
f 13 26 25
f 14 25 27
f 14 27 28
f 14 28 15
f 15 28 29
f 15 29 18
f 15 18 17
f 15 17 16
f 18 29 19
f 19 30 31
f 19 31 20
f 19 29 30
f 20 31 32
f 20 32 22
f 20 22 21
f 22 32 34
f 22 34 33
f 24 35 36
f 24 36 26
f 25 26 36
f 25 36 37
f 25 37 38
f 25 38 27
f 27 38 39
f 27 39 40
f 27 40 28
f 28 40 41
f 28 41 29
f 29 41 30
f 30 41 42
f 30 42 43
f 30 43 31
f 31 43 44
f 31 44 34
f 31 34 32
f 33 34 46
f 33 46 48
f 33 48 45
f 34 44 47
f 34 47 46
f 35 45 36
f 36 45 48
f 36 48 49
f 36 49 37
f 37 49 47
f 37 47 44
f 37 44 43
f 37 43 42
f 37 42 41
f 37 41 40
f 37 40 39
f 37 39 38
f 46 47 49
f 46 49 48

