# https://github.com/mikedh/trimesh
v 0.18199140 2.72641480 0.57163717
v 0.17307753 2.81744524 0.68246760
v 0.17433106 2.81744524 0.66195223
v 0.17864869 2.81744524 0.60029798
v 0.18199140 2.80319894 0.57163717
v 0.18589120 2.71461686 0.57163717
v 0.18199140 2.72641480 0.66210387
v 0.17934506 2.81744524 0.73887931
v 0.18213067 2.81744524 0.57163717
v 0.20399747 2.66011551 0.57163717
v 0.20399747 2.66011551 0.66210387
v 0.20929008 2.66614769 0.73887931
v 0.19257661 2.72641480 0.73887931
v 0.21848249 2.67746658 0.78248794
v 0.21472196 2.72641480 0.78510921
v 0.20803655 2.81744524 0.78534748
v 1.37282703 2.81744524 0.57163717
v 0.25372011 2.64624183 0.57163717
v 0.26444460 2.63621795 0.66210387
v 0.26444460 2.64377586 0.73887931
v 0.26444460 2.67217964 0.78510921
v 0.26444460 2.72641480 0.79292965
v 0.26444460 2.80319894 0.79292965
v 0.26444460 2.81744524 0.79286476
v 1.59595205 2.81744524 0.65794451
v 1.37296642 2.81696619 0.57163717
v 0.26444460 2.64358062 0.57163717
v 1.26265738 2.64278228 0.66210387
v 1.59595205 2.64448539 0.73887931
v 1.33953937 2.64338562 0.73887931
v 1.26265738 2.64338562 0.73887931
v 1.59595205 2.67217964 0.78510921
v 1.59595205 2.72641480 0.79292965
v 1.59595205 2.80319894 0.79292965
v 1.59595205 2.80802469 0.79290802
v 1.59595205 2.81744524 0.79286476
v 1.59595205 2.80319894 0.65766287
v 1.37449833 2.80319894 0.57163717
v 1.34232498 2.66231552 0.57163717
v 1.33953937 2.64398872 0.66210387
v 1.59595205 2.65495285 0.69932177
v 1.59595205 2.72641480 0.65766287
v 1.37240921 2.72641480 0.57163717
v 1.35054241 2.67932945 0.57163717
v 1.59595205 2.70402535 0.66492014
v 1.59595205 2.66032837 0.67908805
f 1 2 3
f 1 3 4
f 1 4 5
f 1 5 9
f 1 9 17
f 1 17 26
f 1 26 38
f 1 38 43
f 1 43 44
f 1 44 39
f 1 39 27
f 1 27 18
f 1 18 10
f 1 10 6
f 1 6 7
f 1 7 2
f 2 7 8
f 2 8 16
f 2 16 24
f 2 24 36
f 2 36 25
f 2 25 17
f 2 17 9
f 2 9 4
f 2 4 3
f 4 9 5
f 6 10 11
f 6 11 7
f 7 11 12
f 7 12 13
f 7 13 8
f 8 13 14
f 8 14 15
f 8 15 16
f 10 18 19
f 10 19 11
f 11 19 20
f 11 20 12
f 12 14 13
f 12 20 14
f 14 20 21
f 14 21 22
f 14 22 15
f 15 22 16
f 16 22 23
f 16 23 24
f 17 25 26
f 18 27 19
f 19 27 28
f 19 28 29
f 19 29 30
f 19 30 31
f 19 31 20
f 20 31 21
f 21 31 30
f 21 30 32
f 21 32 33
f 21 33 22
f 22 33 34
f 22 34 23
f 23 34 35
f 23 35 24
f 24 35 36
f 25 36 35
f 25 35 34
f 25 34 33
f 25 33 32
f 25 32 29
f 25 29 41
f 25 41 46
f 25 46 45
f 25 45 42
f 25 42 37
f 25 37 38
f 25 38 26
f 27 39 40
f 27 40 28
f 28 40 29
f 29 39 41
f 29 32 30
f 29 40 39
f 37 42 38
f 38 42 43
f 39 44 42
f 39 42 45
f 39 45 46
f 39 46 41
f 42 44 43

