# https://github.com/mikedh/trimesh
v 0.34142174 -2.90281230 -1.53427266
v 0.34142174 -2.87618625 -1.48835141
v 0.41812269 -2.90278072 -1.53427266
v 0.41812269 -2.92809391 -1.53427266
v 0.34142174 -2.92811748 -1.53419656
v 0.41812269 -2.87616245 -1.48828812
v 2.26100949 -2.87616245 -1.48830071
v 3.79674863 -2.87616245 -1.48830071
v 2.18465245 -2.87631282 -1.48857960
v 0.34142174 -2.89055133 -1.41410179
v 2.56815728 -2.87016643 -1.41151611
v 3.79674863 -2.90278072 -1.53427266
v 0.34142174 -2.94636669 -1.48828812
v 3.79674863 -2.92809391 -1.53427266
v 3.79674863 -2.87042758 -1.41151611
v 3.85522017 -2.89177745 -1.41151611
v 3.85040495 -2.89728298 -1.48830071
v 3.84249388 -2.90798572 -1.53173768
v 0.34142174 -2.89116039 -1.41182029
v 2.56815728 -2.87033260 -1.41112323
v 0.34142174 -2.93670032 -1.41182029
v 2.18465245 -2.94636669 -1.48828812
v 2.56815728 -2.95097042 -1.41151611
v 2.56815728 -2.95095463 -1.41112323
v 3.84249388 -2.92485843 -1.53173768
v 3.79674863 -2.94635891 -1.48830071
v 3.79674863 -2.87059352 -1.41112323
v 3.85522017 -2.89200679 -1.41112323
v 3.85522017 -2.93665272 -1.41151611
v 3.85040495 -2.93237331 -1.48830071
v 1.25701807 -2.88649349 -1.40478572
v 1.25736197 -2.94028370 -1.40478572
v 1.25701807 -2.93994358 -1.40478572
v 3.79674863 -2.95080448 -1.41151611
v 3.79674863 -2.95077267 -1.41112323
v 1.34506938 -2.88654086 -1.40478572
v 3.85522017 -2.93665272 -1.41112323
v 1.34506938 -2.94025211 -1.40478572
f 1 2 3
f 1 3 12
f 1 12 14
f 1 14 4
f 1 4 5
f 1 5 13
f 1 13 21
f 1 21 19
f 1 19 10
f 1 10 2
f 2 6 7
f 2 7 8
f 2 8 9
f 2 9 3
f 2 10 11
f 2 11 6
f 3 9 12
f 4 13 5
f 4 14 22
f 4 22 13
f 6 11 7
f 7 11 8
f 8 15 16
f 8 16 17
f 8 17 18
f 8 18 12
f 8 12 9
f 8 11 15
f 10 19 11
f 11 20 27
f 11 27 15
f 11 19 20
f 12 18 25
f 12 25 14
f 13 22 23
f 13 23 24
f 13 24 21
f 14 25 26
f 14 26 22
f 15 27 16
f 16 28 37
f 16 37 29
f 16 29 30
f 16 30 17
f 16 27 28
f 17 30 25
f 17 25 18
f 19 21 33
f 19 33 31
f 19 31 20
f 20 31 27
f 21 24 32
f 21 32 33
f 22 26 23
f 23 26 34
f 23 34 24
f 24 34 35
f 24 35 32
f 25 30 26
f 26 30 29
f 26 29 34
f 27 31 36
f 27 36 28
f 28 36 38
f 28 38 37
f 29 37 34
f 31 33 32
f 31 32 38
f 31 38 36
f 32 35 38
f 34 37 35
f 35 37 38

