# https://github.com/mikedh/trimesh
v -3.70719302 -2.89363277 -0.87238317
v -3.70719302 -2.93733272 -0.87173464
v -3.70719302 -2.88146884 -0.87238317
v -2.73059944 -2.89115512 -0.86065601
v -2.73088623 -2.93665890 -0.86057493
v -3.70719302 -2.94156200 -0.79711592
v -2.73059944 -2.93671131 -0.86029123
v -3.70719302 -2.86509830 -0.79721048
v -2.73088623 -2.89092304 -0.86057493
v -2.73059944 -2.88768939 -0.79711592
v -3.70719302 -2.92485454 -0.73776408
v -2.73059944 -2.93859020 -0.79711592
v -3.70719302 -2.88818332 -0.74258733
v -2.73059944 -2.91514583 -0.75603034
v -3.70719302 -2.89390216 -0.73437293
v -2.73059944 -2.92034832 -0.75607085
f 1 2 6
f 1 6 11
f 1 11 15
f 1 15 13
f 1 13 8
f 1 8 3
f 1 3 4
f 1 4 5
f 1 5 2
f 2 5 7
f 2 7 6
f 3 8 9
f 3 9 4
f 4 9 10
f 4 10 14
f 4 14 16
f 4 16 12
f 4 12 7
f 4 7 5
f 6 7 12
f 6 12 11
f 8 13 10
f 8 10 9
f 10 13 14
f 11 12 16
f 11 16 15
f 13 15 14
f 14 15 16

