# https://github.com/mikedh/trimesh
v -0.91647359 2.90280398 -1.53427243
v -0.91647359 2.92811099 -1.53427243
v 1.80571987 2.90280398 -1.53427243
v 3.56078700 2.87823282 -1.49186440
v -0.91647359 2.87617426 -1.48828812
v -2.50066198 2.87625254 -1.48841504
v -2.50066198 2.90280398 -1.53424703
v -2.50066198 2.92810321 -1.53424703
v -2.50066198 2.94637301 -1.48828812
v 1.80571987 2.94638080 -1.48830082
v 1.80571987 2.92811099 -1.53427243
v 3.56078700 2.90280398 -1.53425973
v 3.56078700 2.87617426 -1.48830082
v 1.80571987 2.87617426 -1.48830082
v -2.50006872 2.87618204 -1.48828812
v 2.56221436 2.87065569 -1.41768848
v -2.50066198 2.87733263 -1.48204869
v -2.50066198 2.93743380 -1.41335129
v -0.27271166 2.95002849 -1.40471500
v -0.27271166 2.95044322 -1.41153785
v 2.56814766 2.95062335 -1.41768848
v 3.56078700 2.94638080 -1.48830082
v 3.56078700 2.92952777 -1.53069615
v 3.56078700 2.92811099 -1.53425973
v 3.56078700 2.89179041 -1.43007866
v 2.56814766 2.87065569 -1.41768848
v -0.27271166 2.87101572 -1.41153785
v -0.27271166 2.87156367 -1.40471500
v -2.50066198 2.89051463 -1.41162655
v -2.50066198 2.93714404 -1.41162655
v -1.35375707 2.94029071 -1.40546322
v -0.34450446 2.93594653 -1.40471500
v 0.26484445 2.95002849 -1.40471500
v 0.26484445 2.95044322 -1.41153785
v 2.57467423 2.95062335 -1.41768848
v 3.56078700 2.94562938 -1.48377343
v 3.56078700 2.93666659 -1.43007866
v 2.67316690 2.88841669 -1.41768848
v 1.34470317 2.88656939 -1.40471500
v 0.26484445 2.87156367 -1.40471500
v 0.26484445 2.87101572 -1.41153785
v -0.34094449 2.88997446 -1.40471500
v -1.35316369 2.88650667 -1.40546322
v -1.35375707 2.88681979 -1.40546322
v -0.34450446 2.89219759 -1.40471500
v 1.34470317 2.94025157 -1.40471500
v 2.67316690 2.93898356 -1.41768848
f 1 2 11
f 1 11 3
f 1 3 4
f 1 4 5
f 1 5 6
f 1 6 7
f 1 7 8
f 1 8 2
f 2 8 9
f 2 9 10
f 2 10 22
f 2 22 11
f 3 11 24
f 3 24 12
f 3 12 4
f 4 12 24
f 4 24 23
f 4 23 22
f 4 22 36
f 4 36 37
f 4 37 25
f 4 25 13
f 4 13 14
f 4 14 5
f 5 15 6
f 5 14 16
f 5 16 15
f 6 15 17
f 6 17 29
f 6 29 30
f 6 30 18
f 6 18 9
f 6 9 8
f 6 8 7
f 9 18 19
f 9 19 20
f 9 20 21
f 9 21 10
f 10 21 35
f 10 35 22
f 11 22 23
f 11 23 24
f 13 25 26
f 13 26 16
f 13 16 14
f 15 16 27
f 15 27 28
f 15 28 17
f 16 26 41
f 16 41 27
f 17 28 29
f 18 30 19
f 19 30 31
f 19 31 32
f 19 32 45
f 19 45 42
f 19 42 28
f 19 28 40
f 19 40 39
f 19 39 46
f 19 46 33
f 19 33 34
f 19 34 20
f 20 34 35
f 20 35 21
f 22 35 36
f 25 37 47
f 25 47 38
f 25 38 26
f 26 38 39
f 26 39 40
f 26 40 41
f 27 41 40
f 27 40 28
f 28 42 43
f 28 43 29
f 29 43 44
f 29 44 31
f 29 31 30
f 31 44 45
f 31 45 32
f 33 46 35
f 33 35 34
f 35 46 47
f 35 47 37
f 35 37 36
f 38 47 46
f 38 46 39
f 42 45 44
f 42 44 43

