# https://github.com/mikedh/trimesh
v 4.20457684 2.43817520 -0.38328169
v 3.86485846 2.44140278 -0.04348957
v 3.86485846 2.44229150 -1.40265800
v 4.20457684 2.44051406 -1.23276211
v 4.26058865 2.44519154 -1.48745306
v 4.26068230 2.44509789 -1.40265800
v 4.20457684 2.43817520 0.38079142
v 3.81660769 2.45080457 -1.40265800
v 3.86485846 2.44140278 0.04099929
v 3.81670134 2.45089797 -1.48745306
v 3.86485846 2.44341411 -1.48745306
v 4.20457684 2.44210444 -1.48745306
v 4.25600659 2.44907371 -1.53888104
v 4.27704627 2.49912343 -1.48745306
v 4.27816862 2.49912343 -1.40265800
v 4.27910366 2.49912343 -0.04348957
v 4.26068230 2.44509789 1.40016785
v 4.26058865 2.44519154 1.48496291
v 4.20457684 2.44051406 1.23027170
v 3.86485846 2.44229150 1.40016785
v 3.80777112 2.49912343 -0.04348957
v 3.80875299 2.49912343 -1.40265800
v 3.81660769 2.45080457 1.40016785
v 3.80982826 2.49912343 -1.48745306
v 3.81866508 2.45286272 -1.53459540
v 3.86485846 2.45066409 -1.53735040
v 4.20457684 2.44813841 -1.54010566
v 4.20457684 2.49912343 -1.55816657
v 4.26128980 2.49912343 -1.54408502
v 4.26372131 2.83880511 -1.54684028
v 4.27849566 2.83880511 -1.48745306
v 4.28059963 2.83880511 -1.23276211
v 4.28256336 2.83880511 -0.38328169
v 4.27910366 2.49912343 0.04099929
v 4.27816862 2.49912343 1.40016785
v 4.27704627 2.49912343 1.48496291
v 4.25600659 2.44907371 1.53639089
v 4.20457684 2.44210444 1.48496291
v 3.86485846 2.44341411 1.48496291
v 3.81670134 2.45089797 1.48496291
v 3.80491917 2.83880511 -0.38328169
v 3.80777112 2.49912343 0.04099929
v 3.80716337 2.83880511 -1.23276211
v 3.80870642 2.83880511 -1.48745306
v 3.80875299 2.49912343 1.40016785
v 3.81445714 2.83880511 -1.53979938
v 3.81674817 2.49912343 -1.53704437
v 3.86485846 2.49912343 -1.55081964
v 4.20457684 2.83880511 -1.56490119
v 4.26002772 2.89414007 -1.54255438
v 4.26671374 2.90073547 -1.48745306
v 4.26685397 2.90092253 -1.40265800
v 4.28256336 2.83880511 0.38079142
v 4.28059963 2.83880511 1.23027170
v 4.27849566 2.83880511 1.48496291
v 4.26372131 2.83880511 1.54434987
v 4.26128980 2.49912343 1.54159487
v 4.20457684 2.49912343 1.55567642
v 4.20457684 2.44813841 1.53761525
v 3.86485846 2.45066409 1.53486025
v 3.81866508 2.45286272 1.53210525
v 3.80982826 2.49912343 1.48496291
v 3.81151154 2.89418689 -1.40265800
v 3.81160519 2.89404666 -1.48745306
v 3.80491917 2.83880511 0.38079142
v 3.81525195 2.88974330 -1.53857502
v 3.80870642 2.83880511 1.48496291
v 3.80716337 2.83880511 1.23027170
v 3.86485846 2.83880511 -1.55755426
v 4.20457684 2.89769519 -1.54684028
v 3.86485846 2.89493538 -1.54377899
v 4.20457684 2.91191469 -1.48745306
v 4.20457684 2.91397285 -1.23276211
v 4.20457684 2.91603100 -0.38328169
v 4.26685397 2.90092253 1.40016785
v 4.26671374 2.90073547 1.48496291
v 4.26002772 2.89414007 1.54006423
v 4.20457684 2.83880511 1.56241104
v 3.86485846 2.49912343 1.54832949
v 3.81674817 2.49912343 1.53455397
v 3.81445714 2.83880511 1.53730923
v 3.86485846 2.91214858 -0.04348957
v 3.86485846 2.91135352 -1.40265800
v 3.81151154 2.89418689 1.40016785
v 3.86485846 2.91018408 -1.48745306
v 3.81160519 2.89404666 1.48496291
v 3.81525195 2.88974330 1.53608461
v 4.20457684 2.91603100 0.38079142
v 4.20457684 2.91397285 1.23027170
v 4.20457684 2.91191469 1.48496291
v 4.20457684 2.89764837 1.54434987
v 3.86485846 2.89493538 1.54128859
v 3.86485846 2.83880511 1.55506411
v 3.86485846 2.91214858 0.04099929
v 3.86485846 2.91135352 1.40016785
v 3.86485846 2.91018408 1.48496291
f 1 2 3
f 1 3 4
f 1 4 5
f 1 5 6
f 1 6 17
f 1 17 7
f 1 7 9
f 1 9 2
f 2 8 3
f 2 9 23
f 2 23 8
f 3 8 10
f 3 10 11
f 3 11 12
f 3 12 4
f 4 12 5
f 5 12 13
f 5 13 14
f 5 14 15
f 5 15 6
f 6 15 16
f 6 16 34
f 6 34 17
f 7 17 18
f 7 18 19
f 7 19 20
f 7 20 9
f 8 21 22
f 8 22 10
f 8 23 42
f 8 42 21
f 9 20 23
f 10 24 25
f 10 25 11
f 10 22 24
f 11 25 26
f 11 26 27
f 11 27 12
f 12 27 13
f 13 27 28
f 13 28 29
f 13 29 14
f 14 29 30
f 14 30 31
f 14 31 15
f 15 31 32
f 15 32 33
f 15 33 16
f 16 33 53
f 16 53 34
f 17 34 35
f 17 35 18
f 18 35 36
f 18 36 37
f 18 37 38
f 18 38 19
f 19 38 20
f 20 38 39
f 20 39 40
f 20 40 23
f 21 41 22
f 21 42 65
f 21 65 41
f 22 43 44
f 22 44 24
f 22 41 43
f 23 40 45
f 23 45 42
f 24 44 46
f 24 46 47
f 24 47 25
f 25 47 48
f 25 48 26
f 26 48 28
f 26 28 27
f 28 48 69
f 28 69 49
f 28 49 29
f 29 49 30
f 30 49 50
f 30 50 31
f 31 50 51
f 31 51 32
f 32 51 33
f 33 51 52
f 33 52 75
f 33 75 53
f 34 53 35
f 35 54 55
f 35 55 36
f 35 53 54
f 36 55 56
f 36 56 57
f 36 57 37
f 37 57 58
f 37 58 59
f 37 59 38
f 38 59 39
f 39 59 60
f 39 60 61
f 39 61 40
f 40 61 62
f 40 62 45
f 41 63 64
f 41 64 43
f 41 65 84
f 41 84 63
f 42 45 65
f 43 64 44
f 44 64 66
f 44 66 46
f 45 62 67
f 45 67 68
f 45 68 65
f 46 66 69
f 46 69 47
f 47 69 48
f 49 70 50
f 49 69 71
f 49 71 70
f 50 70 72
f 50 72 51
f 51 72 73
f 51 73 52
f 52 73 74
f 52 74 88
f 52 88 75
f 53 75 76
f 53 76 54
f 54 76 55
f 55 76 77
f 55 77 56
f 56 78 57
f 56 77 78
f 57 78 58
f 58 78 93
f 58 93 79
f 58 79 60
f 58 60 59
f 60 79 61
f 61 79 80
f 61 80 62
f 62 80 81
f 62 81 67
f 63 82 83
f 63 83 64
f 63 84 94
f 63 94 82
f 64 85 66
f 64 83 85
f 65 68 86
f 65 86 84
f 66 71 69
f 66 85 71
f 67 81 87
f 67 87 86
f 67 86 68
f 70 71 85
f 70 85 72
f 72 85 83
f 72 83 73
f 73 83 74
f 74 83 82
f 74 82 94
f 74 94 88
f 75 88 89
f 75 89 76
f 76 90 77
f 76 89 90
f 77 91 78
f 77 90 91
f 78 91 92
f 78 92 93
f 79 93 80
f 80 93 81
f 81 93 87
f 84 86 95
f 84 95 94
f 86 87 96
f 86 96 95
f 87 93 92
f 87 92 96
f 88 94 95
f 88 95 89
f 89 95 90
f 90 95 96
f 90 96 91
f 91 96 92

