# https://github.com/mikedh/trimesh
v 4.28442838 -2.85176339 0.04099924
v 4.27882573 -2.51205033 0.38079306
v 4.27807244 -2.51205033 1.23027752
v 4.28099146 -2.85176339 1.48496999
v 4.26686714 -2.91388663 1.39986840
v 4.28442838 -2.85176339 -0.04349003
v 4.26069951 -2.45801998 1.39986840
v 4.27882573 -2.51205033 -0.38328384
v 4.26060535 -2.45811338 1.48496999
v 4.27604795 -2.51205033 1.48496999
v 4.26131157 -2.51205033 1.54160221
v 4.26371270 -2.85176339 1.54435721
v 4.26004038 -2.90710367 1.54007157
v 4.26667881 -2.91369957 1.48496999
v 4.20457886 -2.92693796 1.23027752
v 4.20457886 -2.92899637 0.38079306
v 4.26686714 -2.91388663 -1.40235906
v 4.28099146 -2.85176339 -1.48746065
v 4.27807244 -2.51205033 -1.23276843
v 4.20457886 -2.45109652 0.38079306
v 4.26069951 -2.45801998 -1.40235906
v 4.20457886 -2.45348222 1.23027752
v 4.20457886 -2.45502602 1.48496999
v 4.25599141 -2.46199605 1.53639823
v 4.20457886 -2.51205033 1.55568376
v 4.20457886 -2.85176339 1.56241838
v 4.20457886 -2.91061197 1.54435721
v 4.20457886 -2.92487981 1.48496999
v 3.86488782 -2.92427155 1.39986840
v 3.86488782 -2.92506687 0.04099924
v 4.20457886 -2.92899637 -0.38328384
v 4.20457886 -2.92693796 -1.23276843
v 4.26667881 -2.91369957 -1.48746065
v 4.26004038 -2.90710367 -1.54256248
v 4.26371270 -2.85176339 -1.54684812
v 4.26126449 -2.51205033 -1.54409287
v 4.27604795 -2.51205033 -1.48746065
v 4.26060535 -2.45811338 -1.48746065
v 3.86488782 -2.45432436 0.04099924
v 3.86488782 -2.45521308 1.39986840
v 4.20457886 -2.45109652 -0.38328384
v 3.86488782 -2.45633594 1.48496999
v 4.20457886 -2.46110733 1.53762259
v 3.86488782 -2.51205033 1.54833683
v 3.86488782 -2.46358668 1.53486759
v 3.86488782 -2.85176339 1.55507145
v 3.86488782 -2.90789873 1.54129618
v 3.86488782 -2.92310212 1.48496999
v 3.81159203 -2.90701001 1.48496999
v 3.81149787 -2.90710367 1.39986840
v 3.86488782 -2.92506687 -0.04349003
v 3.86488782 -2.92427155 -1.40235906
v 4.20457886 -2.92487981 -1.48746065
v 4.20457886 -2.91061197 -1.54684812
v 4.20457886 -2.85176339 -1.56490929
v 4.20457886 -2.51205033 -1.55817442
v 4.25599141 -2.46199605 -1.53888889
v 4.20457886 -2.45502602 -1.48746065
v 4.20457886 -2.45348222 -1.23276843
v 3.81658263 -2.46372691 1.39986840
v 3.86488782 -2.45432436 -0.04349003
v 3.81667679 -2.46382057 1.48496999
v 3.86488782 -2.45521308 -1.40235906
v 3.81865419 -2.46578532 1.53211233
v 3.81677095 -2.51205033 1.53425528
v 3.81446398 -2.85176339 1.53731657
v 3.81526436 -2.90265956 1.53609195
v 3.80613063 -2.85176339 1.48496999
v 3.80349408 -2.85176339 0.04099924
v 3.81149787 -2.90710367 -1.40235906
v 3.81159203 -2.90701001 -1.48746065
v 3.86488782 -2.92310212 -1.48746065
v 3.86488782 -2.90789873 -1.54378684
v 3.86488782 -2.85176339 -1.55756236
v 3.86488782 -2.51205033 -1.55082774
v 3.86488782 -2.46358668 -1.53735825
v 4.20457886 -2.46110733 -1.54011350
v 3.86488782 -2.45633594 -1.48746065
v 3.80834344 -2.51205033 0.38079306
v 3.80872008 -2.51205033 1.23027752
v 3.81658263 -2.46372691 -1.40235906
v 3.81041500 -2.51205033 1.48496999
v 3.81667679 -2.46382057 -1.48746065
v 3.80349408 -2.85176339 -0.04349003
v 3.80613063 -2.85176339 -1.48746065
v 3.81526436 -2.90265956 -1.53858286
v 3.81446398 -2.85176339 -1.53980722
v 3.81677095 -2.51205033 -1.53674619
v 3.81865419 -2.46578532 -1.53460325
v 3.80834344 -2.51205033 -0.38328384
v 3.80872008 -2.51205033 -1.23276843
v 3.81041500 -2.51205033 -1.48746065
f 1 2 3
f 1 3 4
f 1 4 5
f 1 5 17
f 1 17 6
f 1 6 8
f 1 8 2
f 2 7 3
f 2 8 21
f 2 21 7
f 3 7 9
f 3 9 10
f 3 10 4
f 4 10 11
f 4 11 12
f 4 12 13
f 4 13 14
f 4 14 5
f 5 14 15
f 5 15 16
f 5 16 31
f 5 31 17
f 6 17 18
f 6 18 19
f 6 19 8
f 7 20 9
f 7 21 41
f 7 41 20
f 8 19 21
f 9 22 23
f 9 23 24
f 9 24 10
f 9 20 22
f 10 24 11
f 11 24 25
f 11 25 26
f 11 26 12
f 12 26 13
f 13 26 27
f 13 27 28
f 13 28 14
f 14 28 15
f 15 28 29
f 15 29 16
f 16 29 30
f 16 30 51
f 16 51 31
f 17 31 32
f 17 32 33
f 17 33 18
f 18 33 34
f 18 34 35
f 18 35 36
f 18 36 37
f 18 37 19
f 19 37 38
f 19 38 21
f 20 39 40
f 20 40 22
f 20 41 61
f 20 61 39
f 21 38 41
f 22 40 23
f 23 40 42
f 23 42 43
f 23 43 24
f 24 43 25
f 25 44 46
f 25 46 26
f 25 43 45
f 25 45 44
f 26 46 47
f 26 47 27
f 27 47 48
f 27 48 28
f 28 48 29
f 29 48 49
f 29 49 50
f 29 50 30
f 30 50 70
f 30 70 51
f 31 51 52
f 31 52 32
f 32 52 53
f 32 53 33
f 33 53 34
f 34 54 55
f 34 55 35
f 34 53 54
f 35 55 36
f 36 55 56
f 36 56 57
f 36 57 37
f 37 57 38
f 38 57 58
f 38 58 59
f 38 59 41
f 39 60 40
f 39 61 81
f 39 81 60
f 40 60 62
f 40 62 42
f 41 59 63
f 41 63 61
f 42 62 64
f 42 64 45
f 42 45 43
f 44 45 64
f 44 64 65
f 44 65 46
f 46 65 66
f 46 66 67
f 46 67 47
f 47 67 48
f 48 67 49
f 49 67 68
f 49 68 69
f 49 69 50
f 50 69 84
f 50 84 70
f 51 70 52
f 52 70 71
f 52 71 72
f 52 72 53
f 53 72 54
f 54 73 55
f 54 72 73
f 55 74 75
f 55 75 56
f 55 73 74
f 56 75 76
f 56 76 77
f 56 77 57
f 57 77 58
f 58 77 78
f 58 78 63
f 58 63 59
f 60 79 80
f 60 80 62
f 60 81 90
f 60 90 79
f 61 63 81
f 62 82 64
f 62 80 82
f 63 78 83
f 63 83 81
f 64 82 65
f 65 82 68
f 65 68 66
f 66 68 67
f 68 82 80
f 68 80 69
f 69 80 79
f 69 79 90
f 69 90 84
f 70 84 71
f 71 85 86
f 71 86 72
f 71 84 85
f 72 86 73
f 73 86 74
f 74 86 87
f 74 87 88
f 74 88 75
f 75 88 89
f 75 89 76
f 76 89 78
f 76 78 77
f 78 89 83
f 81 83 91
f 81 91 90
f 83 89 92
f 83 92 91
f 84 90 91
f 84 91 85
f 85 91 92
f 85 92 88
f 85 88 87
f 85 87 86
f 88 92 89

