# https://github.com/mikedh/trimesh
v -3.80286883 2.83882941 0.04099931
v -3.81082553 2.89416968 1.39986840
v -3.81091969 2.89407602 1.48496999
v -3.80545828 2.83882941 1.48496999
v -3.80804774 2.49911609 1.23027765
v -3.80767110 2.49911609 0.38079312
v -3.80286883 2.83882941 -0.04348996
v -3.86421548 2.91213314 0.04099931
v -3.86421548 2.91133782 1.39986840
v -3.81082553 2.89416968 -1.40235906
v -3.86421548 2.91016839 1.48496999
v -3.81459202 2.88972558 1.53609208
v -3.81379164 2.83882941 1.53731657
v -3.81609861 2.49911609 1.53425541
v -3.80974266 2.49911609 1.48496999
v -3.81600445 2.45088658 1.48496999
v -3.81591029 2.45079293 1.39986840
v -3.80767110 2.49911609 -0.38328378
v -3.80804774 2.49911609 -1.23276831
v -3.80545828 2.83882941 -1.48746065
v -3.81091969 2.89407602 -1.48746065
v -4.20390627 2.91606239 0.38079312
v -3.86421548 2.91213314 -0.04348996
v -4.20390627 2.91400423 1.23027765
v -4.20390627 2.91194583 1.48496999
v -3.86421548 2.91133782 -1.40235906
v -4.20390627 2.89767823 1.54435734
v -3.86421548 2.89496500 1.54129618
v -3.86421548 2.83882941 1.55507158
v -3.86421548 2.49911609 1.54833696
v -3.81798185 2.45285108 1.53211246
v -3.86421548 2.44340170 1.48496999
v -3.86421548 2.44227910 1.39986840
v -3.86421548 2.44139013 0.04099931
v -3.81591029 2.45079293 -1.40235906
v -3.81600445 2.45088658 -1.48746065
v -3.80974266 2.49911609 -1.48746065
v -3.81609861 2.49911609 -1.53674607
v -3.81379164 2.83882941 -1.53980722
v -3.81459202 2.88972558 -1.53858274
v -3.86421548 2.91016839 -1.48746065
v -4.26619480 2.90095265 1.39986840
v -4.20390627 2.91606239 -0.38328378
v -4.26600647 2.90076559 1.48496999
v -4.25936804 2.89416968 1.54007170
v -4.20390627 2.91194583 -1.48746065
v -4.20390627 2.91400423 -1.23276831
v -4.20390627 2.83882941 1.56241851
v -4.20390627 2.49911609 1.55568376
v -3.86421548 2.45065244 1.53486759
v -4.20390627 2.44817335 1.53762272
v -4.20390627 2.44209179 1.48496999
v -4.20390627 2.44054823 1.23027765
v -4.20390627 2.43820911 0.38079312
v -3.86421548 2.44139013 -0.04348996
v -3.86421548 2.44227910 -1.40235906
v -3.86421548 2.44340170 -1.48746065
v -3.81798185 2.45285108 -1.53460312
v -3.86421548 2.49911609 -1.55082762
v -3.86421548 2.83882941 -1.55756224
v -3.86421548 2.89496500 -1.54378684
v -4.20390627 2.89767823 -1.54684800
v -4.28375604 2.83882941 0.04099931
v -4.28031912 2.83882941 1.48496999
v -4.26619480 2.90095265 -1.40235906
v -4.26304036 2.83882941 1.54435734
v -4.25936804 2.89416968 -1.54256235
v -4.26600647 2.90076559 -1.48746065
v -4.26063923 2.49911609 1.54160221
v -4.25531907 2.44906206 1.53639823
v -4.25993301 2.44517939 1.48496999
v -4.26002717 2.44508574 1.39986840
v -4.20390627 2.43820911 -0.38328378
v -4.20390627 2.44054823 -1.23276831
v -4.20390627 2.44209179 -1.48746065
v -4.20390627 2.44817335 -1.54011338
v -3.86421548 2.45065244 -1.53735825
v -4.20390627 2.49911609 -1.55817442
v -4.20390627 2.83882941 -1.56490916
v -4.27815339 2.49911609 0.38079312
v -4.27740009 2.49911609 1.23027765
v -4.28375604 2.83882941 -0.04348996
v -4.27537561 2.49911609 1.48496999
v -4.28031912 2.83882941 -1.48746065
v -4.26304036 2.83882941 -1.54684800
v -4.26002717 2.44508574 -1.40235906
v -4.25993301 2.44517939 -1.48746065
v -4.25531907 2.44906206 -1.53888889
v -4.26059215 2.49911609 -1.54409287
v -4.27815339 2.49911609 -0.38328378
v -4.27740009 2.49911609 -1.23276831
v -4.27537561 2.49911609 -1.48746065
f 1 2 3
f 1 3 4
f 1 4 5
f 1 5 6
f 1 6 18
f 1 18 7
f 1 7 10
f 1 10 2
f 2 8 9
f 2 9 3
f 2 10 23
f 2 23 8
f 3 11 12
f 3 12 4
f 3 9 11
f 4 12 13
f 4 13 14
f 4 14 15
f 4 15 5
f 5 15 16
f 5 16 17
f 5 17 6
f 6 17 35
f 6 35 18
f 7 18 19
f 7 19 20
f 7 20 21
f 7 21 10
f 8 22 9
f 8 23 43
f 8 43 22
f 9 24 25
f 9 25 11
f 9 22 24
f 10 21 26
f 10 26 23
f 11 25 27
f 11 27 28
f 11 28 12
f 12 28 29
f 12 29 13
f 13 29 14
f 14 29 30
f 14 30 31
f 14 31 15
f 15 31 16
f 16 31 32
f 16 32 33
f 16 33 17
f 17 33 34
f 17 34 55
f 17 55 35
f 18 35 19
f 19 35 36
f 19 36 37
f 19 37 20
f 20 37 38
f 20 38 39
f 20 39 40
f 20 40 21
f 21 40 41
f 21 41 26
f 22 42 24
f 22 43 65
f 22 65 42
f 23 26 43
f 24 42 44
f 24 44 25
f 25 44 45
f 25 45 27
f 26 41 46
f 26 46 47
f 26 47 43
f 27 48 28
f 27 45 48
f 28 48 29
f 29 48 49
f 29 49 30
f 30 49 50
f 30 50 31
f 31 50 32
f 32 50 51
f 32 51 52
f 32 52 33
f 33 52 53
f 33 53 54
f 33 54 34
f 34 54 73
f 34 73 55
f 35 55 56
f 35 56 36
f 36 56 57
f 36 57 58
f 36 58 37
f 37 58 38
f 38 58 59
f 38 59 60
f 38 60 39
f 39 60 40
f 40 60 61
f 40 61 41
f 41 61 62
f 41 62 46
f 42 63 64
f 42 64 44
f 42 65 82
f 42 82 63
f 43 47 65
f 44 64 45
f 45 66 48
f 45 64 66
f 46 62 67
f 46 67 68
f 46 68 47
f 47 68 65
f 48 66 69
f 48 69 49
f 49 69 70
f 49 70 51
f 49 51 50
f 51 70 52
f 52 70 71
f 52 71 53
f 53 71 54
f 54 71 72
f 54 72 86
f 54 86 73
f 55 73 56
f 56 74 75
f 56 75 57
f 56 73 74
f 57 75 76
f 57 76 77
f 57 77 58
f 58 77 59
f 59 78 79
f 59 79 60
f 59 77 78
f 60 79 61
f 61 79 62
f 62 79 67
f 63 80 81
f 63 81 64
f 63 82 90
f 63 90 80
f 64 81 83
f 64 83 69
f 64 69 66
f 65 68 84
f 65 84 82
f 67 79 85
f 67 85 84
f 67 84 68
f 69 83 70
f 70 83 71
f 71 83 81
f 71 81 72
f 72 81 80
f 72 80 90
f 72 90 86
f 73 86 87
f 73 87 74
f 74 87 75
f 75 87 88
f 75 88 76
f 76 88 78
f 76 78 77
f 78 88 89
f 78 89 79
f 79 89 85
f 82 84 91
f 82 91 90
f 84 85 89
f 84 89 92
f 84 92 91
f 86 90 91
f 86 91 87
f 87 91 92
f 87 92 88
f 88 92 89

