# https://github.com/mikedh/trimesh
v -0.12705197 2.43610793 -0.04353447
v -0.19572625 2.44272080 -1.40253397
v -0.19558881 2.44286255 -1.48741408
v -0.12705197 2.43898924 -1.40253397
v 0.12771634 2.43932008 -1.23277400
v 0.12771634 2.43908366 -0.29848094
v -0.12705197 2.43610793 0.04103913
v -0.22848282 2.49911964 -0.89294748
v -0.22779562 2.49911964 -1.40253397
v -0.19572625 2.44272080 1.40003875
v -0.12705197 2.43988682 -1.48741408
v -0.22623798 2.49911964 -1.48741408
v -0.18679263 2.44753876 -1.54042561
v 0.19698621 2.44295696 -1.48741408
v 0.19716945 2.44286255 -1.40253397
v 0.12771634 2.43908366 0.29598560
v 0.12771634 2.43932008 1.23027854
v -0.12705197 2.43898924 1.40003875
v -0.19558881 2.44286255 1.48491861
v -0.23283510 2.83878739 -0.38336095
v -0.22848282 2.49911964 0.89045214
v -0.23049861 2.83878739 -1.48741408
v -0.22779562 2.49911964 1.40003875
v -0.12705197 2.44697202 -1.54134495
v 0.12771634 2.44706643 -1.54134495
v -0.20058247 2.83878739 -1.55084419
v -0.19746716 2.49911964 -1.54839269
v -0.12705197 2.49911964 -1.56218188
v 0.18796095 2.44758610 -1.54042561
v 0.22846001 2.49911964 -1.48741408
v 0.22887233 2.49911964 -1.40253397
v 0.22923884 2.49911964 -1.31765411
v 0.22955953 2.49911964 -0.89294748
v 0.23001767 2.49911964 -0.04353447
v 0.19716945 2.44286255 1.40003875
v 0.19698621 2.44295696 1.48491861
v -0.12705197 2.43988682 1.48491861
v -0.18679263 2.44753876 1.53793039
v -0.22623798 2.49911964 1.48491861
v -0.20411010 2.90378283 -1.40253397
v -0.23283510 2.83878739 0.38086561
v -0.20378941 2.90340491 -1.48741408
v -0.19215281 2.89575297 -1.54379646
v -0.23049861 2.83878739 1.48491861
v 0.12771634 2.49911964 -1.56187560
v -0.12705197 2.83878739 -1.56647182
v -0.19760459 2.58404834 -1.54931203
v 0.19886454 2.49911964 -1.54839269
v 0.20207149 2.83878739 -1.55084419
v 0.23272065 2.83878739 -1.48741408
v 0.23473644 2.83878739 -1.23277400
v 0.23519458 2.83878739 -0.38336095
v 0.23001767 2.49911964 0.04103913
v 0.22955953 2.49911964 0.89045214
v 0.22923884 2.49911964 1.31515864
v 0.22887233 2.49911964 1.40003875
v 0.22846001 2.49911964 1.48491861
v 0.18796095 2.44758610 1.53793039
v 0.12771634 2.44706643 1.53884974
v -0.12705197 2.44697202 1.53884974
v -0.12705197 2.49911964 1.55968666
v -0.19746716 2.49911964 1.54589747
v -0.20058247 2.83878739 1.54834898
v -0.12705197 2.91861464 -0.04353447
v -0.12705197 2.91568624 -1.40253397
v -0.20411010 2.90378283 1.40003875
v -0.12705197 2.91431634 -1.48741408
v -0.12705197 2.89887045 -1.54777987
v -0.19215281 2.89575297 1.54130099
v -0.20378941 2.90340491 1.48491861
v 0.12771634 2.83878739 -1.56616554
v 0.12771634 2.89882337 -1.54777987
v 0.19895618 2.58404834 -1.54931203
v 0.19345857 2.89570564 -1.54379646
v 0.20537006 2.90326342 -1.48741408
v 0.20564493 2.90364133 -1.40253397
v 0.23519458 2.83878739 0.38086561
v 0.23473644 2.83878739 1.23027854
v 0.23272065 2.83878739 1.48491861
v 0.20207149 2.83878739 1.54834898
v 0.19886454 2.49911964 1.54589747
v 0.12771634 2.49911964 1.55938013
v -0.12705197 2.83878739 1.56397661
v -0.19760459 2.58404834 1.54681682
v 0.12771634 2.91493041 -1.23277400
v -0.12705197 2.91861464 0.04103913
v -0.12705197 2.91568624 1.40003875
v -0.12705197 2.89887045 1.54528466
v -0.12705197 2.91431634 1.48491861
v 0.20564493 2.90364133 1.40003875
v 0.20537006 2.90326342 1.48491861
v 0.19345857 2.89570564 1.54130099
v 0.12771634 2.83878739 1.56367008
v 0.19895618 2.58404834 1.54681682
v 0.12771634 2.89882337 1.54528466
v 0.12771634 2.91493041 1.23027854
f 1 2 3
f 1 3 4
f 1 4 5
f 1 5 6
f 1 6 16
f 1 16 7
f 1 7 10
f 1 10 2
f 2 8 9
f 2 9 3
f 2 10 21
f 2 21 8
f 3 11 4
f 3 9 12
f 3 12 13
f 3 13 11
f 4 11 5
f 5 11 14
f 5 14 15
f 5 15 6
f 6 15 35
f 6 35 16
f 7 16 17
f 7 17 18
f 7 18 19
f 7 19 10
f 8 20 9
f 8 21 41
f 8 41 20
f 9 22 12
f 9 20 22
f 10 19 23
f 10 23 21
f 11 13 24
f 11 24 25
f 11 25 14
f 12 22 26
f 12 26 27
f 12 27 13
f 13 27 28
f 13 28 24
f 14 25 29
f 14 29 30
f 14 30 31
f 14 31 32
f 14 32 15
f 15 32 33
f 15 33 34
f 15 34 53
f 15 53 35
f 16 35 17
f 17 35 36
f 17 36 37
f 17 37 18
f 18 37 19
f 19 37 38
f 19 38 39
f 19 39 23
f 20 40 22
f 20 41 66
f 20 66 40
f 21 23 41
f 22 40 42
f 22 42 43
f 22 43 26
f 23 39 44
f 23 44 41
f 24 28 25
f 25 28 45
f 25 45 29
f 26 46 47
f 26 47 27
f 26 43 46
f 27 47 46
f 27 46 28
f 28 46 71
f 28 71 45
f 29 45 48
f 29 48 30
f 30 48 49
f 30 49 50
f 30 50 51
f 30 51 31
f 31 51 32
f 32 51 33
f 33 51 52
f 33 52 34
f 34 52 77
f 34 77 53
f 35 53 54
f 35 54 55
f 35 55 36
f 36 55 56
f 36 56 57
f 36 57 58
f 36 58 59
f 36 59 37
f 37 59 60
f 37 60 38
f 38 60 61
f 38 61 62
f 38 62 39
f 39 62 63
f 39 63 44
f 40 64 65
f 40 65 42
f 40 66 86
f 40 86 64
f 41 44 66
f 42 67 43
f 42 65 67
f 43 68 46
f 43 67 68
f 44 63 69
f 44 69 70
f 44 70 66
f 45 71 48
f 46 68 72
f 46 72 71
f 48 71 73
f 48 73 49
f 49 73 71
f 49 71 74
f 49 74 50
f 50 74 75
f 50 75 51
f 51 75 76
f 51 76 52
f 52 76 90
f 52 90 77
f 53 77 78
f 53 78 54
f 54 78 55
f 55 78 56
f 56 78 57
f 57 79 80
f 57 80 81
f 57 81 58
f 57 78 79
f 58 81 82
f 58 82 59
f 59 82 61
f 59 61 60
f 61 82 93
f 61 93 83
f 61 83 62
f 62 83 84
f 62 84 63
f 63 84 83
f 63 83 69
f 64 85 65
f 64 86 96
f 64 96 85
f 65 85 67
f 66 70 87
f 66 87 86
f 67 75 72
f 67 72 68
f 67 85 75
f 69 83 88
f 69 88 89
f 69 89 70
f 70 89 87
f 71 72 74
f 72 75 74
f 75 85 76
f 76 85 96
f 76 96 90
f 77 90 78
f 78 90 91
f 78 91 79
f 79 91 92
f 79 92 80
f 80 93 94
f 80 94 81
f 80 92 93
f 81 94 93
f 81 93 82
f 83 93 95
f 83 95 88
f 86 87 96
f 87 89 96
f 88 95 89
f 89 91 96
f 89 95 91
f 90 96 91
f 91 95 92
f 92 95 93

