# https://github.com/mikedh/trimesh
v -0.12703985 -0.23239828 -0.04347683
v -0.20879159 -0.20902635 -0.38314972
v -0.20851147 -0.20831667 -1.40247436
v -0.12703985 -0.23026926 -1.40247436
v 0.12769319 -0.22847143 -1.23263795
v 0.12769319 -0.22847143 1.23014349
v -0.12703985 -0.23235096 0.04098237
v -0.20879159 -0.20902635 0.38065527
v -0.23923258 -0.13384821 -0.04347683
v -0.23517066 -0.13384821 -1.40247436
v -0.23470378 -0.13384821 -1.48754557
v -0.20781114 -0.20689733 -1.48754557
v -0.12703985 -0.22818755 -1.48754557
v 0.12769319 -0.22222628 -1.48754557
v 0.20673702 -0.20604572 -1.48754557
v 0.20725058 -0.20685002 -1.40247436
v 0.20809098 -0.20845861 -1.14756673
v 0.20809098 -0.20845861 1.14507228
v 0.20725058 -0.20685002 1.39997990
v 0.20673702 -0.20604572 1.48505112
v 0.12769319 -0.22222628 1.48505112
v -0.12703985 -0.22818755 1.48505112
v -0.12703985 -0.23026926 1.39997990
v -0.20851147 -0.20831667 1.39997990
v -0.23923258 -0.13384821 0.04098237
v -0.23008160 0.12092477 -1.23263795
v -0.22475910 0.12092477 -1.48754557
v -0.20188168 0.12092477 -1.55058398
v -0.20258201 -0.13384821 -1.54997193
v -0.19436481 -0.19530598 -1.54262766
v -0.12703985 -0.20263929 -1.54966590
v 0.12769319 -0.20254467 -1.54966590
v 0.19389765 -0.19511674 -1.54232163
v 0.23302269 -0.13384821 -1.48754557
v 0.23773824 -0.13384821 -0.04347683
v 0.23773824 -0.13384821 0.04098237
v 0.23302269 -0.13384821 1.48505112
v 0.19389765 -0.19511674 1.53982718
v 0.12769319 -0.20254467 1.54717145
v -0.12703985 -0.20268659 1.54717145
v -0.19436481 -0.19530598 1.54013321
v -0.20781114 -0.20689733 1.48505112
v -0.23470378 -0.13384821 1.48505112
v -0.23517066 -0.13384821 1.39997990
v -0.23008160 0.12092477 1.23014349
v -0.21313365 0.20584910 -0.97773026
v -0.21285350 0.20584910 -1.40247436
v -0.21243332 0.20584910 -1.48754557
v -0.19053634 0.20584910 -1.54201561
v -0.13007460 0.21110068 -1.54813589
v -0.11956966 0.11340223 -1.55486811
v -0.12703985 -0.13384821 -1.56404854
v 0.12769319 -0.13384821 -1.56404854
v 0.20206815 -0.13384821 -1.54966590
v 0.20169463 0.12092477 -1.55058398
v 0.22415187 0.12092477 -1.48754557
v 0.23008130 0.12092477 -1.23263795
v 0.23008130 0.12092477 1.23014349
v 0.22415187 0.12092477 1.48505112
v 0.20169463 0.12092477 1.54808953
v 0.20206815 -0.13384821 1.54717145
v 0.12769319 -0.13384821 1.56155409
v -0.12703985 -0.13384821 1.56155409
v -0.20262871 -0.13384821 1.54747747
v -0.20188168 0.12092477 1.54808953
v -0.22475910 0.12092477 1.48505112
v -0.21243332 0.20584910 1.48505112
v -0.21285350 0.20584910 1.39997990
v -0.21313365 0.20584910 0.97523580
v -0.17578275 0.25084243 -1.40247436
v -0.17559600 0.25074781 -1.48754557
v -0.17344831 0.24989619 -1.53222325
v 0.16084211 0.24994351 -1.53222325
v 0.13058789 0.21110068 -1.54813589
v 0.11984951 0.11302373 -1.55486811
v 0.19067614 0.20584910 -1.54232163
v 0.21210620 0.20584910 -1.48754557
v 0.21257308 0.20584910 -1.40247436
v 0.21336678 0.20584910 -1.23263795
v 0.21336678 0.20584910 1.23014349
v 0.21257308 0.20584910 1.39997990
v 0.21210620 0.20584910 1.48505112
v 0.19067614 0.20584910 1.53982718
v 0.13058789 0.21110068 1.54564144
v 0.11984951 0.11302373 1.55237365
v -0.11956966 0.11340223 1.55237365
v -0.13007460 0.21110068 1.54564144
v -0.19053634 0.20584910 1.53952115
v -0.17344831 0.24989619 1.52972879
v -0.17559600 0.25074781 1.48505112
v -0.17578275 0.25084243 1.39997990
v 0.15687356 0.25093705 -0.97773026
v 0.15696697 0.25093705 -1.06280148
v 0.15720041 0.25093705 -1.23263795
v 0.16476395 0.25093705 -1.40247436
v 0.16000170 0.25084243 -1.48754557
v 0.17414837 0.24994351 -1.53222325
v 0.17624936 0.25084243 -1.48754557
v 0.17643610 0.25093705 -1.40247436
v 0.17643610 0.25088974 1.39997990
v 0.17624936 0.25084243 1.48505112
v 0.17643610 0.25093705 -0.72312860
v 0.17414837 0.24994351 1.52972879
v 0.16084211 0.24994351 1.52972879
v 0.16004841 0.25084243 1.48505112
v 0.16476395 0.25088974 1.39997990
v 0.16560435 0.25093705 -0.72312860
f 1 2 3
f 1 3 4
f 1 4 5
f 1 5 6
f 1 6 7
f 1 7 8
f 1 8 2
f 2 9 3
f 2 8 25
f 2 25 9
f 3 10 11
f 3 11 12
f 3 12 4
f 3 9 10
f 4 12 13
f 4 13 5
f 5 13 14
f 5 14 15
f 5 15 16
f 5 16 17
f 5 17 18
f 5 18 6
f 6 18 19
f 6 19 20
f 6 20 21
f 6 21 22
f 6 22 23
f 6 23 7
f 7 23 24
f 7 24 8
f 8 24 25
f 9 26 10
f 9 25 45
f 9 45 26
f 10 26 11
f 11 27 28
f 11 28 29
f 11 29 30
f 11 30 12
f 11 26 27
f 12 30 13
f 13 30 31
f 13 31 32
f 13 32 14
f 14 32 33
f 14 33 15
f 15 33 34
f 15 34 16
f 16 34 17
f 17 34 35
f 17 35 36
f 17 36 18
f 18 36 37
f 18 37 19
f 19 37 20
f 20 37 38
f 20 38 21
f 21 38 39
f 21 39 22
f 22 39 40
f 22 40 41
f 22 41 42
f 22 42 23
f 23 42 24
f 24 42 43
f 24 43 44
f 24 44 25
f 25 44 45
f 26 46 47
f 26 47 48
f 26 48 27
f 26 45 69
f 26 69 46
f 27 48 28
f 28 49 50
f 28 50 51
f 28 51 52
f 28 52 29
f 28 48 49
f 29 52 30
f 30 52 31
f 31 52 53
f 31 53 32
f 32 53 33
f 33 53 54
f 33 54 34
f 34 54 55
f 34 55 56
f 34 56 57
f 34 57 35
f 35 57 58
f 35 58 36
f 36 58 37
f 37 58 59
f 37 59 60
f 37 60 61
f 37 61 38
f 38 61 62
f 38 62 39
f 39 62 40
f 40 62 63
f 40 63 41
f 41 63 64
f 41 64 43
f 41 43 42
f 43 64 65
f 43 65 66
f 43 66 45
f 43 45 44
f 45 66 67
f 45 67 68
f 45 68 69
f 46 70 47
f 46 69 91
f 46 91 70
f 47 70 71
f 47 71 48
f 48 71 72
f 48 72 49
f 49 72 50
f 50 72 73
f 50 73 97
f 50 97 74
f 50 74 51
f 51 75 53
f 51 53 52
f 51 74 75
f 53 75 55
f 53 55 54
f 55 75 74
f 55 74 76
f 55 76 77
f 55 77 56
f 56 77 57
f 57 77 78
f 57 78 79
f 57 79 80
f 57 80 58
f 58 80 81
f 58 81 82
f 58 82 59
f 59 82 60
f 60 83 84
f 60 84 85
f 60 85 62
f 60 62 61
f 60 82 83
f 62 85 86
f 62 86 63
f 63 86 65
f 63 65 64
f 65 86 87
f 65 87 88
f 65 88 67
f 65 67 66
f 67 88 89
f 67 89 90
f 67 90 68
f 68 90 91
f 68 91 69
f 70 92 93
f 70 93 94
f 70 94 95
f 70 95 96
f 70 96 71
f 70 91 92
f 71 96 72
f 72 96 73
f 73 96 98
f 73 98 97
f 74 97 76
f 76 97 77
f 77 97 98
f 77 98 78
f 78 98 79
f 79 98 99
f 79 99 102
f 79 102 80
f 80 100 101
f 80 101 81
f 80 102 100
f 81 101 82
f 82 101 103
f 82 103 83
f 83 103 84
f 84 103 104
f 84 104 87
f 84 87 86
f 84 86 85
f 87 104 89
f 87 89 88
f 89 104 105
f 89 105 90
f 90 105 91
f 91 105 106
f 91 106 107
f 91 107 92
f 92 107 102
f 92 102 99
f 92 99 95
f 92 95 94
f 92 94 93
f 95 99 98
f 95 98 96
f 100 106 105
f 100 105 101
f 100 102 107
f 100 107 106
f 101 105 104
f 101 104 103

