# https://github.com/mikedh/trimesh
v -4.20389842 -0.23094097 0.38088339
v -3.86417776 -0.22572598 0.04107768
v -3.86417776 -0.22567899 0.63573771
v -3.86417776 -0.22563201 0.89028533
v -3.86417776 -0.22530313 1.39999395
v -4.20389842 -0.22901469 1.23009110
v -4.26965551 -0.20613455 1.39999395
v -4.26965551 -0.20613455 -1.40248334
v -4.20389842 -0.23089398 -0.38337279
v -3.86417776 -0.22572598 -0.04356707
v -3.80804825 -0.19781876 1.39999395
v -3.80814165 -0.19767780 1.48494531
v -3.86417776 -0.22426953 1.48494531
v -4.20389842 -0.22760527 1.48494531
v -4.26909459 -0.20561774 1.48494531
v -4.28110583 -0.13382947 1.23009110
v -4.28185356 -0.13382947 0.29593197
v -4.28185356 -0.13382947 -0.29842136
v -4.28110583 -0.13382947 -1.23258049
v -4.26909459 -0.20561774 -1.48743471
v -4.20389842 -0.22760527 -1.48743471
v -4.20389842 -0.22901469 -1.23258049
v -3.86417776 -0.22530313 -1.40248334
v -3.86417776 -0.22563201 -0.89277472
v -3.86417776 -0.22567899 -0.63822710
v -3.80804825 -0.19781876 -1.40248334
v -3.80444959 -0.13382947 0.29593197
v -3.80907644 0.11611398 1.40336746
v -3.80987100 0.19537237 1.48494531
v -3.81323603 0.12090614 1.53769499
v -3.81239464 -0.13382947 1.53861497
v -3.81276851 -0.19044260 1.53800165
v -3.80477687 -0.13382947 0.46583485
v -3.80636573 0.12090614 0.63573771
v -3.86417776 -0.19993295 1.54566878
v -3.94914292 -0.20063768 1.54689554
v -4.20389842 -0.20279882 1.54842897
v -4.26114953 -0.19551666 1.54137516
v -4.26437433 -0.13382947 1.54536212
v -4.27680576 0.12090614 1.48494531
v -4.27867533 0.12090614 1.39999395
v -4.28115241 0.12090614 0.04107768
v -4.28115241 0.12090614 -0.04356707
v -4.27867533 0.12090614 -1.40248334
v -4.27680576 0.12090614 -1.48743471
v -4.26437433 -0.13382947 -1.54785151
v -4.26114953 -0.19551666 -1.54386455
v -4.20389842 -0.20279882 -1.55091836
v -3.86417776 -0.22426953 -1.48743471
v -3.80814165 -0.19767780 -1.48743471
v -3.80444959 -0.13382947 -0.29842136
v -3.80482345 0.12090614 0.04107768
v -3.80977759 0.19556029 1.39999395
v -3.86417776 0.23441430 1.39999395
v -3.86417776 0.23281690 1.48494531
v -3.81389010 0.18456654 1.53677488
v -3.86417776 0.12090614 1.55732274
v -3.86417776 -0.13382947 1.55946948
v -4.20389842 -0.13382947 1.56529653
v -4.26362660 0.12090614 1.54474867
v -4.25708334 0.20584934 1.53769499
v -4.26816005 0.20584934 1.48494531
v -4.26844051 0.20584934 1.39999395
v -4.26844051 0.20584934 -1.40248334
v -4.26816005 0.20584934 -1.48743471
v -4.25708334 0.20584934 -1.54018438
v -4.26362660 0.12090614 -1.54723806
v -4.20389842 -0.13382947 -1.56778592
v -3.94914292 -0.20063768 -1.54938493
v -3.86417776 -0.19993295 -1.54815817
v -3.81276851 -0.19044260 -1.54049104
v -3.81239464 -0.13382947 -1.54110436
v -3.81323603 0.12090614 -1.54018438
v -3.80987100 0.19537237 -1.48743471
v -3.80907644 0.11611398 -1.40585685
v -3.80636573 0.12090614 -0.63822710
v -3.80477687 -0.13382947 -0.46832424
v -3.80482345 0.12090614 -0.04356707
v -3.86417776 0.23497807 0.89028533
v -3.80977759 0.19556029 -1.40248334
v -4.24278259 0.24893169 1.48494531
v -4.24357689 0.24869676 1.52788111
v -3.86417776 0.19762749 1.54474867
v -4.20389842 0.12090614 1.56161636
v -3.94914292 0.19743957 1.54597544
v -4.21072189 0.21106430 1.54413535
v -4.24689510 0.24869676 1.52788111
v -4.24726921 0.24893169 1.48494531
v -4.24736236 0.24897868 1.39999395
v -4.24736236 0.24902564 -0.63822710
v -4.24736236 0.24902564 -1.40248334
v -4.24726921 0.24893169 -1.48743471
v -4.24689510 0.24869676 -1.53037050
v -4.21072189 0.21106430 -1.54662474
v -4.20389842 0.12090614 -1.56410575
v -3.86417776 0.12090614 -1.55981213
v -3.86417776 -0.13382947 -1.56195887
v -3.81389010 0.18456654 -1.53926427
v -3.86417776 0.23281690 -1.48743471
v -3.86417776 0.23441430 -1.40248334
v -4.24021211 0.24897868 0.38088339
v -4.24081961 0.24897868 1.14513961
v -4.24091301 0.24897868 1.23009110
v -3.86417776 0.23497807 -0.89277472
v -4.24081961 0.24902564 -1.14762900
v -4.24339009 0.24897868 1.39999395
v -4.24339009 0.24902564 -0.63822710
v -4.24339009 0.24902564 -1.40248334
v -4.24278259 0.24893169 -1.48743471
v -4.24357689 0.24869676 -1.53037050
v -3.86417776 0.19762749 -1.54723806
v -3.94914292 0.19743957 -1.54846483
v -4.24091301 0.24902564 -1.23258049
f 1 2 3
f 1 3 4
f 1 4 5
f 1 5 6
f 1 6 7
f 1 7 8
f 1 8 9
f 1 9 10
f 1 10 2
f 2 11 3
f 2 10 26
f 2 26 11
f 3 11 4
f 4 11 5
f 5 11 12
f 5 12 13
f 5 13 14
f 5 14 6
f 6 14 7
f 7 14 15
f 7 15 16
f 7 16 17
f 7 17 18
f 7 18 8
f 8 18 19
f 8 19 20
f 8 20 21
f 8 21 22
f 8 22 9
f 9 22 23
f 9 23 24
f 9 24 25
f 9 25 10
f 10 25 26
f 11 27 12
f 11 26 51
f 11 51 27
f 12 28 29
f 12 29 30
f 12 30 31
f 12 31 32
f 12 32 13
f 12 27 33
f 12 33 34
f 12 34 28
f 13 32 35
f 13 35 36
f 13 36 37
f 13 37 14
f 14 37 38
f 14 38 15
f 15 38 39
f 15 39 40
f 15 40 16
f 16 40 41
f 16 41 42
f 16 42 17
f 17 42 43
f 17 43 18
f 18 43 19
f 19 44 45
f 19 45 20
f 19 43 44
f 20 45 46
f 20 46 47
f 20 47 21
f 21 47 48
f 21 48 49
f 21 49 23
f 21 23 22
f 23 49 50
f 23 50 26
f 23 26 24
f 24 26 25
f 26 50 51
f 27 52 33
f 27 51 78
f 27 78 52
f 28 34 29
f 29 34 52
f 29 52 53
f 29 53 54
f 29 54 55
f 29 55 56
f 29 56 30
f 30 56 57
f 30 57 58
f 30 58 31
f 31 58 32
f 32 58 35
f 33 52 34
f 35 58 59
f 35 59 36
f 36 59 37
f 37 59 38
f 38 59 39
f 39 59 60
f 39 60 40
f 40 60 61
f 40 61 62
f 40 62 41
f 41 62 63
f 41 63 42
f 42 63 64
f 42 64 43
f 43 64 44
f 44 64 65
f 44 65 45
f 45 65 66
f 45 66 67
f 45 67 46
f 46 67 68
f 46 68 47
f 47 68 48
f 48 68 69
f 48 69 49
f 49 69 70
f 49 70 71
f 49 71 50
f 50 71 72
f 50 72 73
f 50 73 74
f 50 74 75
f 50 75 76
f 50 76 77
f 50 77 51
f 51 77 78
f 52 78 80
f 52 80 53
f 53 79 54
f 53 80 104
f 53 104 79
f 54 81 82
f 54 82 55
f 54 79 81
f 55 82 83
f 55 83 56
f 56 83 57
f 57 84 59
f 57 59 58
f 57 83 85
f 57 85 84
f 59 84 60
f 60 84 61
f 61 84 86
f 61 86 87
f 61 87 62
f 62 87 88
f 62 88 63
f 63 88 89
f 63 89 90
f 63 90 91
f 63 91 64
f 64 91 92
f 64 92 65
f 65 92 93
f 65 93 66
f 66 93 94
f 66 94 95
f 66 95 67
f 67 95 68
f 68 95 96
f 68 96 97
f 68 97 70
f 68 70 69
f 70 97 71
f 71 97 72
f 72 97 73
f 73 97 96
f 73 96 98
f 73 98 74
f 74 99 100
f 74 100 80
f 74 80 78
f 74 78 76
f 74 76 75
f 74 98 99
f 76 78 77
f 79 101 102
f 79 102 103
f 79 103 81
f 79 104 105
f 79 105 101
f 80 100 104
f 81 106 89
f 81 89 88
f 81 88 87
f 81 87 82
f 81 103 106
f 82 87 86
f 82 86 83
f 83 86 85
f 84 85 86
f 89 106 107
f 89 107 90
f 90 107 105
f 90 105 113
f 90 113 108
f 90 108 91
f 91 108 109
f 91 109 92
f 92 109 110
f 92 110 93
f 93 110 94
f 94 111 112
f 94 112 95
f 94 110 111
f 95 112 96
f 96 112 111
f 96 111 98
f 98 111 99
f 99 111 110
f 99 110 100
f 100 110 109
f 100 109 104
f 101 105 102
f 102 105 103
f 103 105 107
f 103 107 106
f 104 109 108
f 104 108 113
f 104 113 105

