# https://github.com/mikedh/trimesh
v -4.20390450 -2.92896498 -0.38328201
v -4.26618163 -2.91385676 -1.40265838
v -4.20390450 -2.92690708 -1.23276236
v -3.86418612 -2.92428750 -1.40265838
v -3.86418612 -2.92508282 -0.04348988
v -4.20390450 -2.92896498 0.38079110
v -4.28189102 -2.85173909 -0.38328201
v -4.26604140 -2.91366970 -1.48745344
v -4.26618163 -2.91385676 1.40016747
v -4.20390450 -2.92484893 -1.48745344
v -3.86418612 -2.92311832 -1.48745344
v -3.81093285 -2.90698065 -1.48745344
v -3.81083920 -2.90712113 -1.40265838
v -3.86418612 -2.92508282 0.04099897
v -3.86418612 -2.92428750 1.40016747
v -4.20390450 -2.92690708 1.23027145
v -4.27843132 -2.51205716 -0.04348988
v -4.27749628 -2.51205716 -1.40265838
v -4.27992729 -2.85173909 -1.23276236
v -4.28189102 -2.85173909 0.38079110
v -4.27782332 -2.85173909 -1.48745344
v -4.25935538 -2.90707430 -1.54255476
v -4.26604140 -2.91366970 1.48496253
v -4.20390450 -2.91062918 -1.54684053
v -3.86418612 -2.90786937 -1.54377925
v -3.81457961 -2.90267754 -1.53857527
v -3.80803408 -2.85173909 -1.48745344
v -3.80649103 -2.85173909 -1.23276236
v -3.80424683 -2.85173909 -0.38328201
v -3.81083920 -2.90712113 1.40016747
v -3.81093285 -2.90698065 1.48496253
v -3.86418612 -2.92311832 1.48496253
v -4.20390450 -2.92484893 1.48496253
v -4.26000996 -2.45803187 -1.40265838
v -4.27843132 -2.51205716 0.04099897
v -4.25991631 -2.45812527 -1.48745344
v -4.27637393 -2.51205716 -1.48745344
v -4.27992729 -2.85173909 1.23027145
v -4.27749628 -2.51205716 1.40016747
v -4.26304897 -2.85173909 -1.54684053
v -4.20390450 -2.85173909 -1.56490157
v -4.25935538 -2.90707430 1.54006385
v -4.27782332 -2.85173909 1.48496253
v -3.86418612 -2.85173909 -1.55755464
v -3.81378480 -2.85173909 -1.53979976
v -3.80915592 -2.51205716 -1.48745344
v -3.80808065 -2.51205716 -1.40265838
v -3.80709878 -2.51205716 -0.04348988
v -3.80424683 -2.85173909 0.38079110
v -3.80803408 -2.85173909 1.48496253
v -3.81457961 -2.90267754 1.53608436
v -3.80649103 -2.85173909 1.23027145
v -3.86418612 -2.90786937 1.54128834
v -4.20390450 -2.91058235 1.54434962
v -4.20390450 -2.45115576 -0.38328201
v -4.26000996 -2.45803187 1.40016747
v -4.20390450 -2.45344779 -1.23276236
v -4.20390450 -2.45503817 -1.48745344
v -4.25533425 -2.46200769 -1.53888142
v -4.26061746 -2.51205716 -1.54408540
v -4.27637393 -2.51205716 1.48496253
v -4.25991631 -2.45812527 1.48496253
v -4.20390450 -2.51205716 -1.55816695
v -4.20390450 -2.85173909 1.56241066
v -4.26304897 -2.85173909 1.54434962
v -3.86418612 -2.51205716 -1.55082002
v -3.81607583 -2.51205716 -1.53704463
v -3.81799274 -2.46579645 -1.53459578
v -3.81602900 -2.46383196 -1.48745344
v -3.81593535 -2.46373830 -1.40265838
v -3.80709878 -2.51205716 0.04099897
v -3.80808065 -2.51205716 1.40016747
v -3.80915592 -2.51205716 1.48496253
v -3.81378480 -2.85173909 1.53730885
v -3.86418612 -2.85173909 1.55506373
v -3.86418612 -2.45433651 -0.04348988
v -3.86418612 -2.45522523 -1.40265838
v -4.20390450 -2.45115576 0.38079110
v -3.86418612 -2.45634784 -1.48745344
v -4.20390450 -2.46107215 -1.54010591
v -4.26061746 -2.51205716 1.54159449
v -4.25533425 -2.46200769 1.53639051
v -4.20390450 -2.45503817 1.48496253
v -4.20390450 -2.45344779 1.23027145
v -3.86418612 -2.46359807 -1.53735078
v -4.20390450 -2.51205716 1.55567604
v -3.81593535 -2.46373830 1.40016747
v -3.81602900 -2.46383196 1.48496253
v -3.81799274 -2.46579645 1.53210487
v -3.81607583 -2.51205716 1.53455372
v -3.86418612 -2.51205716 1.54832911
v -3.86418612 -2.45433651 0.04099897
v -3.86418612 -2.45522523 1.40016747
v -4.20390450 -2.46107215 1.53761500
v -3.86418612 -2.45634784 1.48496253
v -3.86418612 -2.46359807 1.53485987
f 1 2 3
f 1 3 4
f 1 4 5
f 1 5 14
f 1 14 6
f 1 6 9
f 1 9 2
f 2 7 8
f 2 8 3
f 2 9 20
f 2 20 7
f 3 8 10
f 3 10 4
f 4 10 11
f 4 11 12
f 4 12 13
f 4 13 5
f 5 13 30
f 5 30 14
f 6 14 15
f 6 15 16
f 6 16 9
f 7 17 18
f 7 18 19
f 7 19 8
f 7 20 35
f 7 35 17
f 8 21 22
f 8 22 10
f 8 19 21
f 9 16 23
f 9 23 20
f 10 22 24
f 10 24 11
f 11 24 25
f 11 25 26
f 11 26 12
f 12 26 27
f 12 27 28
f 12 28 29
f 12 29 13
f 13 29 49
f 13 49 30
f 14 30 15
f 15 30 31
f 15 31 32
f 15 32 33
f 15 33 16
f 16 33 23
f 17 34 18
f 17 35 56
f 17 56 34
f 18 34 36
f 18 36 37
f 18 37 21
f 18 21 19
f 20 23 38
f 20 38 39
f 20 39 35
f 21 37 40
f 21 40 22
f 22 40 41
f 22 41 24
f 23 33 42
f 23 42 43
f 23 43 38
f 24 41 25
f 25 41 44
f 25 44 26
f 26 44 45
f 26 45 27
f 27 45 46
f 27 46 47
f 27 47 28
f 28 47 29
f 29 47 48
f 29 48 71
f 29 71 49
f 30 49 31
f 31 50 51
f 31 51 32
f 31 49 52
f 31 52 50
f 32 51 53
f 32 53 54
f 32 54 33
f 33 54 42
f 34 55 36
f 34 56 78
f 34 78 55
f 35 39 56
f 36 57 58
f 36 58 59
f 36 59 37
f 36 55 57
f 37 59 60
f 37 60 40
f 38 43 39
f 39 43 61
f 39 61 62
f 39 62 56
f 40 60 41
f 41 63 66
f 41 66 44
f 41 60 63
f 42 54 64
f 42 64 65
f 42 65 43
f 43 65 61
f 44 66 67
f 44 67 45
f 45 67 46
f 46 67 68
f 46 68 69
f 46 69 47
f 47 69 70
f 47 70 48
f 48 70 87
f 48 87 71
f 49 71 72
f 49 72 52
f 50 72 73
f 50 73 74
f 50 74 51
f 50 52 72
f 51 74 75
f 51 75 53
f 53 75 64
f 53 64 54
f 55 76 77
f 55 77 57
f 55 78 92
f 55 92 76
f 56 62 78
f 57 77 58
f 58 77 79
f 58 79 80
f 58 80 59
f 59 80 63
f 59 63 60
f 61 65 81
f 61 81 82
f 61 82 62
f 62 82 83
f 62 83 84
f 62 84 78
f 63 80 85
f 63 85 66
f 64 75 91
f 64 91 86
f 64 86 81
f 64 81 65
f 66 85 68
f 66 68 67
f 68 85 79
f 68 79 69
f 69 79 77
f 69 77 70
f 70 77 76
f 70 76 92
f 70 92 87
f 71 87 72
f 72 87 88
f 72 88 73
f 73 88 89
f 73 89 90
f 73 90 74
f 74 90 75
f 75 90 91
f 78 84 93
f 78 93 92
f 79 85 80
f 81 86 82
f 82 86 94
f 82 94 83
f 83 94 95
f 83 95 93
f 83 93 84
f 86 91 96
f 86 96 94
f 87 92 93
f 87 93 88
f 88 93 95
f 88 95 89
f 89 96 91
f 89 91 90
f 89 95 96
f 94 96 95

