# https://github.com/mikedh/trimesh
v 0.12772537 -2.90688699 -0.04353114
v -0.19049828 -2.90401580 -1.40251346
v -0.19035817 -2.90392164 -1.48739231
v 0.19040792 -2.90401580 -1.48739231
v 0.19059476 -2.90410997 -1.40251346
v 0.12772537 -2.90688699 0.04104137
v -0.22618343 -2.85172365 -1.23275552
v -0.19049828 -2.90401580 1.40002357
v -0.22398815 -2.85172365 -1.48739231
v -0.18330522 -2.90062698 -1.53795208
v 0.18358850 -2.90067406 -1.53825836
v 0.22319714 -2.85172365 -1.48739231
v 0.22403790 -2.85172365 -1.23275552
v 0.22459838 -2.85172365 -0.97781233
v 0.19059476 -2.90410997 1.40002357
v 0.19040792 -2.90401580 1.48490266
v -0.19035817 -2.90392164 1.48490266
v -0.23912161 -2.51203691 -0.04353114
v -0.22851885 -2.76681368 -1.23275552
v -0.23473105 -2.51203691 -1.48739231
v -0.22618343 -2.85172365 1.23026588
v -0.23916835 -2.51203691 0.04104137
v -0.19932614 -2.76681368 -1.54959604
v -0.19629010 -2.85172365 -1.54653172
v -0.12702170 -2.85172365 -1.55817593
v 0.12772537 -2.85172365 -1.55817593
v 0.19619975 -2.85172365 -1.54653172
v 0.19928248 -2.76681368 -1.54959604
v 0.23422029 -2.51203691 -1.48739231
v 0.23800367 -2.51203691 -0.04353114
v 0.22459838 -2.85172365 0.97532256
v 0.22403790 -2.85172365 1.23026588
v 0.22319714 -2.85172365 1.48490266
v 0.18358850 -2.90067406 1.53576871
v -0.18330522 -2.90062698 1.53546218
v -0.22398815 -2.85172365 1.48490266
v -0.20665936 -2.44444797 -1.40251346
v -0.20637909 -2.44491852 -1.48739231
v -0.19386128 -2.45348475 -1.54377393
v -0.20222207 -2.51203691 -1.55082167
v -0.23473105 -2.51203691 1.48490266
v -0.22851885 -2.76681368 1.23026588
v -0.20665936 -2.44444797 1.40002357
v -0.20675277 -2.44425964 0.80556469
v -0.20675277 -2.44425964 -0.80805446
v -0.12702170 -2.51203691 -1.56614276
v 0.12772537 -2.51203691 -1.56644930
v 0.20199158 -2.51203691 -1.55082167
v 0.19381763 -2.45348475 -1.54377393
v 0.20591506 -2.44501269 -1.48739231
v 0.20624204 -2.44454213 -1.40251346
v 0.20642887 -2.44421256 -1.14757015
v 0.20656898 -2.44383591 -0.38335333
v 0.23800367 -2.51203691 0.04104137
v 0.23426702 -2.51203691 1.48490266
v 0.19928248 -2.76681368 1.54710639
v 0.19619975 -2.85172365 1.54404207
v 0.12772537 -2.85172365 1.55568604
v -0.12702170 -2.85172365 1.55568604
v -0.19629010 -2.85172365 1.54404207
v -0.19932614 -2.76681368 1.54710639
v -0.12702170 -2.42966856 -1.23275552
v -0.12702170 -2.43541093 -1.48739231
v -0.12702170 -2.44901331 -1.54898323
v -0.20222207 -2.51203691 1.54833202
v -0.19386128 -2.45348475 1.54128429
v -0.20637909 -2.44491852 1.48490266
v -0.12702170 -2.42966856 1.23026588
v 0.12772537 -2.44906039 -1.54898323
v 0.12772537 -2.43046893 -1.48739231
v 0.12772537 -2.42896259 -1.40251346
v 0.12772537 -2.42609141 -0.04353114
v 0.20656898 -2.44383591 0.38086356
v 0.20642887 -2.44421256 1.14508050
v 0.20624204 -2.44454213 1.40002357
v 0.20591506 -2.44501269 1.48490266
v 0.19381763 -2.45348475 1.54128429
v 0.20199158 -2.51203691 1.54833202
v 0.12772537 -2.51203691 1.56395940
v -0.12702170 -2.51203691 1.56365312
v -0.12702170 -2.44901331 1.54649333
v -0.12702170 -2.43541093 1.48490266
v 0.12772537 -2.43046893 1.48490266
v 0.12772537 -2.42896259 1.40002357
v 0.12772537 -2.42609141 0.04104137
v 0.12772537 -2.44906039 1.54649333
f 1 2 3
f 1 3 4
f 1 4 5
f 1 5 15
f 1 15 6
f 1 6 8
f 1 8 2
f 2 7 3
f 2 8 21
f 2 21 7
f 3 9 10
f 3 10 4
f 3 7 9
f 4 10 11
f 4 11 12
f 4 12 13
f 4 13 5
f 5 13 14
f 5 14 31
f 5 31 15
f 6 15 16
f 6 16 17
f 6 17 8
f 7 18 19
f 7 19 20
f 7 20 9
f 7 21 22
f 7 22 18
f 8 17 21
f 9 20 23
f 9 23 24
f 9 24 10
f 10 24 25
f 10 25 11
f 11 25 26
f 11 26 27
f 11 27 12
f 12 27 28
f 12 28 29
f 12 29 13
f 13 29 30
f 13 30 14
f 14 30 54
f 14 54 31
f 15 31 32
f 15 32 16
f 16 32 33
f 16 33 34
f 16 34 35
f 16 35 17
f 17 35 36
f 17 36 21
f 18 37 20
f 18 20 19
f 18 22 37
f 20 37 38
f 20 38 39
f 20 39 40
f 20 40 23
f 21 36 41
f 21 41 42
f 21 42 22
f 22 42 41
f 22 41 43
f 22 43 44
f 22 44 45
f 22 45 37
f 23 40 46
f 23 46 25
f 23 25 24
f 25 46 47
f 25 47 26
f 26 47 28
f 26 28 27
f 28 47 48
f 28 48 29
f 29 48 49
f 29 49 50
f 29 50 51
f 29 51 30
f 30 51 52
f 30 52 53
f 30 53 73
f 30 73 54
f 31 54 32
f 32 54 55
f 32 55 33
f 33 55 56
f 33 56 57
f 33 57 34
f 34 57 58
f 34 58 59
f 34 59 35
f 35 59 60
f 35 60 36
f 36 60 61
f 36 61 41
f 37 62 38
f 37 45 62
f 38 63 39
f 38 62 63
f 39 64 46
f 39 46 40
f 39 63 64
f 41 61 65
f 41 65 66
f 41 66 67
f 41 67 43
f 43 67 68
f 43 68 44
f 44 68 62
f 44 62 45
f 46 64 47
f 47 64 69
f 47 69 49
f 47 49 48
f 49 69 70
f 49 70 50
f 50 70 71
f 50 71 51
f 51 71 72
f 51 72 52
f 52 72 53
f 53 72 85
f 53 85 73
f 54 73 74
f 54 74 75
f 54 75 55
f 55 75 76
f 55 76 77
f 55 77 78
f 55 78 56
f 56 78 79
f 56 79 58
f 56 58 57
f 58 79 59
f 59 79 80
f 59 80 61
f 59 61 60
f 61 80 65
f 62 72 71
f 62 71 70
f 62 70 63
f 62 68 85
f 62 85 72
f 63 70 64
f 64 70 69
f 65 80 66
f 66 80 81
f 66 81 82
f 66 82 67
f 67 82 68
f 68 82 83
f 68 83 84
f 68 84 85
f 73 85 74
f 74 85 75
f 75 84 76
f 75 85 84
f 76 83 77
f 76 84 83
f 77 86 79
f 77 79 78
f 77 83 86
f 79 86 81
f 79 81 80
f 81 83 82
f 81 86 83

