# https://github.com/mikedh/trimesh
v 3.40704373 2.46559891 -1.01307641
v 3.43959511 2.46559891 -0.95763444
v 3.40708894 2.46559891 -1.08529718
v 3.42360265 -2.27608574 -1.01309890
v 3.45207658 -2.34626627 -0.96091822
v 3.50458463 2.46559891 -0.93422061
v 3.50458463 -2.34626627 -0.93494035
v 3.40731544 2.46559891 -1.08570203
v 3.45214462 -2.34626627 -1.13745536
v 3.42367047 -2.27608574 -1.08529718
v 3.42412369 -2.34626627 -1.01309890
v 3.57680044 -0.00109442 -0.94299236
v 3.57680044 2.34643252 -0.94299236
v 3.57680044 2.46559891 -0.94386953
v 3.50712179 -2.34626627 -0.93521024
v 3.57677762 -2.34626627 -0.94299236
v 3.43961772 2.46559891 -1.14071666
v 3.50458463 -2.34626627 -1.16334329
v 3.45114775 -2.34626627 -1.13561105
v 3.42421412 -2.34626627 -1.08529718
v 3.61995325 -0.00109442 -0.96899273
v 3.58543096 2.36150519 -0.94818793
v 3.57831813 -2.34626627 -0.94391452
v 3.61993043 2.46559891 -0.96906021
v 3.60441358 2.46559891 -0.95997357
v 3.45875902 2.46559891 -1.14984828
v 3.57677762 -2.34626627 -1.15522379
v 3.50458463 2.46559891 -1.16399554
v 3.63182304 2.46559891 -0.99721978
v 3.61995325 2.41896849 -0.96899273
v 3.61993043 -2.34626627 -0.96899273
v 3.62058754 -2.34626627 -0.97054466
v 3.61836731 -2.34626627 -1.13025803
v 3.53049900 2.46559891 -1.16107163
v 3.57680044 -0.00109442 -1.15522379
v 3.63846004 2.46559891 -1.01307641
v 3.63834679 -2.34626627 -1.01309890
v 3.61988521 -2.34626627 -1.12933587
v 3.61988521 2.36150519 -1.12935837
v 3.57680044 2.46559891 -1.15432412
v 3.57680044 2.34643252 -1.15522379
v 3.63827875 -2.34626627 -1.08529718
v 3.63836961 2.46559891 -1.08529718
v 3.61988521 2.41896849 -1.12935837
v 3.61988521 2.46559891 -1.12926840
f 1 2 6
f 1 6 14
f 1 14 25
f 1 25 24
f 1 24 29
f 1 29 36
f 1 36 43
f 1 43 45
f 1 45 40
f 1 40 34
f 1 34 28
f 1 28 26
f 1 26 17
f 1 17 8
f 1 8 3
f 1 3 4
f 1 4 5
f 1 5 2
f 2 5 7
f 2 7 6
f 3 8 9
f 3 9 10
f 3 10 4
f 4 10 11
f 4 11 5
f 5 11 20
f 5 20 19
f 5 19 9
f 5 9 18
f 5 18 27
f 5 27 33
f 5 33 38
f 5 38 42
f 5 42 37
f 5 37 32
f 5 32 31
f 5 31 23
f 5 23 16
f 5 16 15
f 5 15 7
f 6 12 13
f 6 13 14
f 6 7 15
f 6 15 16
f 6 16 12
f 8 17 9
f 9 19 10
f 9 17 18
f 10 19 20
f 10 20 11
f 12 21 22
f 12 22 13
f 12 16 23
f 12 23 21
f 13 22 24
f 13 24 25
f 13 25 14
f 17 26 18
f 18 26 28
f 18 28 27
f 21 29 30
f 21 30 22
f 21 23 31
f 21 31 32
f 21 32 29
f 22 30 24
f 24 30 29
f 27 28 34
f 27 34 35
f 27 35 33
f 29 32 36
f 32 37 36
f 33 35 39
f 33 39 38
f 34 40 41
f 34 41 35
f 35 41 44
f 35 44 39
f 36 37 42
f 36 42 43
f 38 39 43
f 38 43 42
f 39 44 43
f 40 45 41
f 41 45 44
f 43 44 45

