# https://github.com/mikedh/trimesh
v -3.63724003 -2.49330610 -1.01309634
v -3.61616464 -2.54352933 -0.97179887
v -3.61853946 -2.49330610 -0.96907494
v -3.61859415 -2.42107996 -0.96891336
v -3.61859415 -2.34574523 -0.96891336
v -3.63631163 -2.34574523 -1.01122653
v -3.63707640 -2.34574523 -1.01309634
v -3.63704884 -2.34574523 -1.08530343
v -3.63715822 -2.49330610 -1.08530343
v -3.62460031 -2.56670653 -1.08673464
v -3.62460031 -2.56677564 -1.01164204
v -3.57535113 -2.49330610 -0.94391327
v -3.60674611 -2.59168002 -0.98659578
v -3.55861630 -2.62086747 -0.96401952
v -3.57974637 -2.56677564 -0.95580159
v -3.57535113 -2.34881936 -0.94292065
v -3.61676491 -2.34574523 -0.96780532
v -3.61933136 -2.34574523 -1.12754735
v -3.61848520 -2.49330610 -1.12925557
v -3.61610996 -2.54342555 -1.12653165
v -3.61853946 -2.42107996 -1.12941716
v -3.60674611 -2.59157624 -1.11175782
v -3.61613708 -2.60832895 -1.06360437
v -3.61613708 -2.60832895 -1.03474923
v -3.50314285 -2.56549759 -0.93119392
v -3.57627931 -2.63869067 -1.01083410
v -3.52891405 -2.66901817 -0.98694205
v -3.48078424 -2.67827522 -0.97198355
v -3.50415306 -2.64207592 -0.95591700
v -3.57535113 -2.34574523 -0.94292065
v -3.61853946 -2.34574523 -1.12941716
v -3.57535113 -2.49330610 -1.15430183
v -3.57535113 -2.34881936 -1.15531753
v -3.57974637 -2.56670653 -1.14252894
v -3.55856161 -2.62083281 -1.13438024
v -3.52883202 -2.66898350 -1.11141155
v -3.57627931 -2.63865622 -1.08749642
v -3.54581273 -2.67841345 -1.06325811
v -3.54581273 -2.67841345 -1.03509550
v -3.43093457 -2.56549759 -0.93269439
v -3.50314285 -2.34574523 -0.93500280
v -3.57229358 -2.34574523 -0.94257439
v -3.43093457 -2.63775818 -0.94359009
v -3.35867182 -2.63775818 -0.94338233
v -3.35834413 -2.63775818 -0.94338233
v -3.50415306 -2.68646157 -1.01184980
v -3.43093457 -2.69855097 -1.01309634
v -3.43093457 -2.68052043 -0.96942121
v -3.57535113 -2.34574523 -1.15531753
v -3.50314285 -2.56549759 -1.16702118
v -3.50409838 -2.64204126 -1.14239043
v -3.48067508 -2.67824056 -1.12634698
v -3.50409838 -2.68642690 -1.08652689
v -3.42064254 -2.56553204 -0.93297140
v -3.50090432 -2.34574523 -0.93608775
v -3.35834413 -2.56553204 -0.93472579
v -3.35867182 -2.68055488 -0.96935195
v -3.35834413 -2.68055488 -0.96935195
v -3.43093457 -2.69851652 -1.08530343
v -3.42064254 -2.69858563 -1.01309634
v -3.50314285 -2.34574523 -1.16328155
v -3.43093457 -2.56549759 -1.16552071
v -3.35867182 -2.63775818 -1.15480968
v -3.42064254 -2.63775818 -1.15464809
v -3.43093457 -2.63775818 -1.15460193
v -3.43093457 -2.68048576 -1.12890931
v -3.45072696 -2.34574523 -0.96099551
v -3.35834413 -2.51230379 -0.96092625
v -3.35867182 -2.69862008 -1.01309634
v -3.35834413 -2.69862008 -1.01309634
v -3.35834413 -2.68058954 -1.12879389
v -3.35867182 -2.69855097 -1.08530343
v -3.45302017 -2.34574523 -1.13848921
v -3.35834413 -2.56580849 -1.16348930
v -3.35867182 -2.56553204 -1.16353547
v -3.42064254 -2.56553204 -1.16524369
v -3.35834413 -2.63793086 -1.15469426
v -3.35867182 -2.68048576 -1.12897857
v -3.44952577 -2.34574523 -0.96318850
v -3.35834413 -2.48100936 -1.01341952
v -3.42288107 -2.34574523 -1.01309634
v -3.35834413 -2.69855097 -1.08530343
v -3.45083633 -2.34574523 -1.13738118
v -3.35834413 -2.51271826 -1.13777361
v -3.35834413 -2.48121649 -1.08553427
v -3.42296310 -2.34574523 -1.08530343
v -3.42288107 -2.34574523 -1.01614344
f 1 2 3
f 1 3 4
f 1 4 5
f 1 5 6
f 1 6 7
f 1 7 8
f 1 8 9
f 1 9 10
f 1 10 11
f 1 11 2
f 2 12 3
f 2 11 13
f 2 13 14
f 2 14 15
f 2 15 12
f 3 12 16
f 3 16 4
f 4 16 17
f 4 17 5
f 5 17 30
f 5 30 42
f 5 42 41
f 5 41 55
f 5 55 67
f 5 67 79
f 5 79 81
f 5 81 87
f 5 87 86
f 5 86 83
f 5 83 73
f 5 73 61
f 5 61 49
f 5 49 31
f 5 31 18
f 5 18 8
f 5 8 7
f 5 7 6
f 8 18 9
f 9 19 20
f 9 20 10
f 9 18 21
f 9 21 19
f 10 22 23
f 10 23 11
f 10 20 22
f 11 23 24
f 11 24 13
f 12 15 25
f 12 25 16
f 13 24 26
f 13 26 27
f 13 27 14
f 14 27 28
f 14 28 29
f 14 29 25
f 14 25 15
f 16 30 17
f 16 25 30
f 18 31 21
f 19 32 20
f 19 21 33
f 19 33 32
f 20 32 34
f 20 34 35
f 20 35 22
f 21 31 49
f 21 49 33
f 22 35 36
f 22 36 37
f 22 37 23
f 23 37 38
f 23 38 39
f 23 39 24
f 24 39 26
f 25 40 41
f 25 41 42
f 25 42 30
f 25 29 43
f 25 43 44
f 25 44 45
f 25 45 40
f 26 39 27
f 27 39 46
f 27 46 28
f 28 46 47
f 28 47 48
f 28 48 43
f 28 43 29
f 32 50 34
f 32 33 50
f 33 49 50
f 34 50 35
f 35 50 51
f 35 51 52
f 35 52 36
f 36 52 53
f 36 53 38
f 36 38 37
f 38 53 46
f 38 46 39
f 40 45 54
f 40 54 41
f 41 54 56
f 41 56 55
f 43 48 44
f 44 48 57
f 44 57 58
f 44 58 45
f 45 58 70
f 45 70 82
f 45 82 71
f 45 71 77
f 45 77 74
f 45 74 84
f 45 84 85
f 45 85 80
f 45 80 68
f 45 68 56
f 45 56 54
f 46 53 59
f 46 59 47
f 47 59 60
f 47 60 48
f 48 60 57
f 49 61 50
f 50 61 62
f 50 62 63
f 50 63 64
f 50 64 65
f 50 65 51
f 51 65 52
f 52 66 59
f 52 59 53
f 52 65 66
f 55 56 67
f 56 68 67
f 57 60 69
f 57 69 70
f 57 70 58
f 59 66 71
f 59 71 72
f 59 72 69
f 59 69 60
f 61 73 74
f 61 74 75
f 61 75 76
f 61 76 62
f 62 76 63
f 63 74 77
f 63 77 78
f 63 78 66
f 63 66 64
f 63 76 75
f 63 75 74
f 64 66 65
f 66 78 71
f 67 68 79
f 68 80 81
f 68 81 79
f 69 72 82
f 69 82 70
f 71 82 72
f 71 78 77
f 73 83 74
f 74 83 84
f 80 85 86
f 80 86 87
f 80 87 81
f 83 86 84
f 84 86 85

