# https://github.com/mikedh/trimesh
v -3.50316374 2.34696260 -0.93496010
v -3.50072497 2.35041545 -0.93616710
v -3.50316374 2.35041545 -0.93500480
v -3.57538321 2.35041545 -0.94291735
v -3.57538321 2.34696260 -0.94289500
v -3.50316374 2.05806403 -0.93496010
v -3.45070758 2.35041545 -0.96097764
v -3.47726163 -0.00128600 -0.94781240
v -3.61860965 2.35041545 -0.96889018
v -3.57538321 -0.00128600 -0.94289500
v -3.53968341 -0.00128600 -0.93898342
v -3.50316374 -0.00128600 -0.93498244
v -3.44929884 2.35041545 -0.96336928
v -3.45072846 -0.00128600 -0.96097764
v -3.63711128 2.35041545 -1.01307977
v -3.61860965 -0.00128600 -0.96889018
v -3.42234539 2.27468025 -1.01307977
v -3.42276588 2.35041545 -1.01307977
v -3.42234539 -0.00128600 -1.01307977
v -3.63704798 2.35041545 -1.08529856
v -3.63711128 -0.00128600 -1.01307977
v -3.42240848 2.27468025 -1.08529856
v -3.42276588 2.35041545 -1.01719251
v -3.42236649 -0.00128600 -1.04877566
v -3.61856745 2.35041545 -1.12944344
v -3.63704798 -0.00128600 -1.08529856
v -3.45077066 2.35041545 -1.13740069
v -3.42282897 2.35041545 -1.08529856
v -3.42240848 -0.00128600 -1.08529856
v -3.57735950 2.35041545 -1.15414222
v -3.57538321 2.34696260 -1.15532687
v -3.59672299 -0.00128600 -1.14254161
v -3.61856745 -0.00128600 -1.12944344
v -3.50316374 2.34696260 -1.16328412
v -3.50316374 2.35041545 -1.16326178
v -3.43643197 -0.00128600 -1.11104788
v -3.45079155 -0.00128600 -1.13740069
v -3.50316374 -0.00128600 -1.16330648
v -3.50316374 0.03531549 -1.16330648
v -3.57538321 2.35041545 -1.15530452
v -3.50648568 2.35041545 -1.16290413
v -3.57538321 -0.00128600 -1.15532687
f 1 2 3
f 1 3 4
f 1 4 5
f 1 5 10
f 1 10 6
f 1 6 2
f 2 7 13
f 2 13 18
f 2 18 23
f 2 23 28
f 2 28 27
f 2 27 35
f 2 35 41
f 2 41 40
f 2 40 30
f 2 30 25
f 2 25 20
f 2 20 15
f 2 15 9
f 2 9 4
f 2 4 3
f 2 6 8
f 2 8 7
f 4 9 5
f 5 9 16
f 5 16 10
f 6 10 11
f 6 11 12
f 6 12 8
f 7 8 14
f 7 14 13
f 8 12 11
f 8 11 10
f 8 10 16
f 8 16 21
f 8 21 26
f 8 26 33
f 8 33 32
f 8 32 42
f 8 42 38
f 8 38 37
f 8 37 36
f 8 36 29
f 8 29 24
f 8 24 19
f 8 19 14
f 9 15 21
f 9 21 16
f 13 17 18
f 13 14 19
f 13 19 17
f 15 20 26
f 15 26 21
f 17 22 23
f 17 23 18
f 17 19 24
f 17 24 22
f 20 25 33
f 20 33 26
f 22 27 28
f 22 28 23
f 22 24 29
f 22 29 27
f 25 30 31
f 25 31 32
f 25 32 33
f 27 34 35
f 27 29 36
f 27 36 37
f 27 37 38
f 27 38 39
f 27 39 34
f 30 40 31
f 31 40 41
f 31 41 34
f 31 34 39
f 31 39 38
f 31 38 42
f 31 42 32
f 34 41 35

