# https://github.com/mikedh/trimesh
v 0.20145844 2.56383869 -1.16354033
v 0.20145844 2.51104472 -1.13769197
v 0.20145844 2.61591763 -1.15726864
v 3.02971577 2.56383869 -1.16354033
v 0.20145844 2.48219853 -1.08530087
v 3.02971577 2.51104472 -1.13769197
v 0.20145844 2.63605967 -1.15482715
v 3.02971577 2.63605967 -1.15482715
v 3.02971577 2.60492155 -1.15859017
v 0.20145844 2.48211434 -1.01308672
v 3.02971577 2.48219853 -1.08530087
v 0.20145844 2.67880362 -1.12900119
v 3.02971577 2.66038553 -1.14013345
v 0.20145844 2.51098164 -0.96067322
v 1.98728907 2.48211434 -1.01308672
v 3.02971577 2.48213544 -1.01308672
v 0.20145844 2.69181797 -1.09748589
v 3.02971577 2.67880362 -1.12900119
v 0.20145844 2.52569927 -0.95343837
v 3.02971577 2.51098164 -0.96067322
v 3.02971577 2.49456115 -0.99050859
v 0.20145844 2.69684298 -1.08530087
v 3.02971577 2.69684298 -1.08530087
v 0.20145844 2.56383869 -0.93471285
v 3.02971577 2.56383869 -0.93471285
v 0.20145844 2.69690607 -1.01308672
v 3.02971577 2.69690607 -1.01308672
v 0.20145844 2.63605967 -0.94338124
v 3.02971577 2.63605967 -0.94338124
v 0.20145844 2.67886670 -0.96931921
v 3.02971577 2.67886670 -0.96931921
f 1 2 5
f 1 5 10
f 1 10 14
f 1 14 19
f 1 19 24
f 1 24 28
f 1 28 30
f 1 30 26
f 1 26 22
f 1 22 17
f 1 17 12
f 1 12 7
f 1 7 3
f 1 3 4
f 1 4 6
f 1 6 2
f 2 6 11
f 2 11 5
f 3 7 8
f 3 8 9
f 3 9 4
f 4 9 8
f 4 8 13
f 4 13 18
f 4 18 23
f 4 23 27
f 4 27 31
f 4 31 29
f 4 29 25
f 4 25 20
f 4 20 21
f 4 21 16
f 4 16 11
f 4 11 6
f 5 11 15
f 5 15 10
f 7 12 13
f 7 13 8
f 10 15 20
f 10 20 14
f 11 16 15
f 12 17 18
f 12 18 13
f 14 20 19
f 15 16 21
f 15 21 20
f 17 22 23
f 17 23 18
f 19 20 25
f 19 25 24
f 22 26 27
f 22 27 23
f 24 25 29
f 24 29 28
f 26 30 31
f 26 31 27
f 28 29 31
f 28 31 30

