# https://github.com/mikedh/trimesh
v 0.04380558 -0.05485956 0.29479814
v 0.04377126 -0.05491812 0.29479814
v 0.04380558 -0.06510580 0.29479814
v 0.04380558 -0.04977391 0.27930523
v -0.00002255 -0.04985590 0.18279386
v 0.00503124 -0.05405372 0.20575556
v -0.00002255 -0.05731219 0.20290965
v 0.04372836 -0.05500011 0.29479814
v 0.04380558 -0.07063418 0.27498777
v 0.04376268 -0.06504255 0.29479814
v -0.00002255 -0.06269767 0.20290965
v -0.00002255 -0.06468883 0.19896701
v -0.00002255 -0.07013991 0.18294656
v 0.04380558 -0.04859562 0.27253056
v -0.00002255 -0.04985590 0.17875403
v -0.00002255 -0.05436294 0.19507989
v 0.04380558 -0.04803341 0.26502010
v 0.00890953 -0.05811099 0.22215083
v 0.04372836 -0.05520391 0.29479814
v 0.04380558 -0.07191321 0.26557541
v 0.00890953 -0.06189419 0.22215083
v -0.00002255 -0.07013991 0.17880958
v 0.04380558 -0.07196474 0.26507564
v 0.04380558 -0.04807323 0.25530234
v 0.00040217 -0.04985590 0.17875403
v 0.04377984 -0.05500011 0.15298808
v -0.00002255 -0.05573801 0.16521859
v -0.00002255 -0.07003918 0.17850417
v 0.04378413 -0.06500741 0.15298808
v 0.00039359 -0.07013991 0.17880958
v 0.04380558 -0.07192960 0.25499693
v 0.04380558 -0.07196474 0.26482576
v 0.04380558 -0.05495325 0.15500104
v 0.04380558 -0.06304437 0.15298808
v 0.04377984 -0.05702640 0.15298808
v -0.00002255 -0.05876222 0.15884650
v -0.00002255 -0.06349882 0.16252536
v -0.00002255 -0.06123359 0.15884650
v 0.04380558 -0.06504723 0.15494549
f 1 2 8
f 1 8 19
f 1 19 10
f 1 10 3
f 1 3 9
f 1 9 20
f 1 20 23
f 1 23 32
f 1 32 31
f 1 31 39
f 1 39 34
f 1 34 33
f 1 33 24
f 1 24 17
f 1 17 14
f 1 14 4
f 1 4 5
f 1 5 6
f 1 6 7
f 1 7 2
f 2 7 8
f 3 10 11
f 3 11 12
f 3 12 13
f 3 13 9
f 4 14 5
f 5 15 27
f 5 27 36
f 5 36 38
f 5 38 37
f 5 37 28
f 5 28 22
f 5 22 13
f 5 13 12
f 5 12 11
f 5 11 7
f 5 7 16
f 5 16 6
f 5 14 17
f 5 17 15
f 6 16 7
f 7 18 8
f 7 11 21
f 7 21 18
f 8 18 21
f 8 21 19
f 9 13 20
f 10 19 21
f 10 21 11
f 13 22 32
f 13 32 23
f 13 23 20
f 15 17 24
f 15 24 25
f 15 25 26
f 15 26 27
f 22 28 29
f 22 29 30
f 22 30 31
f 22 31 32
f 24 33 26
f 24 26 25
f 26 33 34
f 26 34 29
f 26 29 35
f 26 35 38
f 26 38 36
f 26 36 27
f 28 37 29
f 29 37 38
f 29 38 35
f 29 34 39
f 29 39 31
f 29 31 30

