# https://github.com/mikedh/trimesh
v 0.04380558 -0.06163338 0.84160098
v 0.04377555 -0.05500166 0.84160098
v 0.04378842 -0.06501600 0.84160098
v 0.04380558 -0.06504880 0.83499083
v 0.04380558 -0.05495013 0.83506253
v 0.00040646 -0.04985511 0.82124001
v -0.00002255 -0.04985511 0.82124001
v -0.00002255 -0.04995818 0.82155547
v -0.00002255 -0.05645169 0.83752877
v -0.00002255 -0.05870990 0.84121382
v 0.04377555 -0.05840068 0.84160098
v 0.04380558 -0.04807713 0.74497242
v -0.00002255 -0.06128434 0.84121382
v -0.00002255 -0.06429918 0.83474708
v -0.00002255 -0.07014146 0.82118267
v 0.00039359 -0.07014146 0.82118267
v 0.04380558 -0.07193585 0.74472867
v 0.04380558 -0.04804902 0.73523644
v -0.00002255 -0.04985511 0.81719649
v -0.00002255 -0.07014146 0.81705311
v 0.04380558 -0.07197802 0.73492099
v 0.04380558 -0.04804902 0.73497835
v -0.00002255 -0.05532727 0.80106544
v 0.04380558 -0.04809821 0.73449083
v 0.04380558 -0.04937255 0.72501294
v 0.04380558 -0.05425674 0.69513108
v -0.00002255 -0.06565083 0.80492255
v 0.04380129 -0.06573984 0.69513108
v 0.04380558 -0.07023282 0.72068265
v 0.04380558 -0.07140644 0.72742185
v -0.00002255 -0.05731140 0.79709363
v 0.04380558 -0.06443271 0.69513108
v 0.04341518 -0.05491499 0.69513108
v -0.00002255 -0.06269689 0.79707929
v 0.04336799 -0.06499960 0.69513108
v -0.00002255 -0.05948293 0.79707929
v 0.04336799 -0.05500166 0.69513108
f 1 2 11
f 1 11 3
f 1 3 4
f 1 4 17
f 1 17 21
f 1 21 30
f 1 30 29
f 1 29 32
f 1 32 26
f 1 26 25
f 1 25 24
f 1 24 22
f 1 22 18
f 1 18 12
f 1 12 5
f 1 5 2
f 2 6 7
f 2 7 8
f 2 8 9
f 2 9 10
f 2 10 13
f 2 13 11
f 2 5 12
f 2 12 6
f 3 11 13
f 3 13 14
f 3 14 15
f 3 15 16
f 3 16 17
f 3 17 4
f 6 12 7
f 7 12 18
f 7 18 22
f 7 22 19
f 7 19 23
f 7 23 31
f 7 31 36
f 7 36 34
f 7 34 27
f 7 27 20
f 7 20 15
f 7 15 14
f 7 14 13
f 7 13 10
f 7 10 9
f 7 9 8
f 15 20 21
f 15 21 17
f 15 17 16
f 19 22 24
f 19 24 25
f 19 25 26
f 19 26 23
f 20 27 28
f 20 28 29
f 20 29 30
f 20 30 21
f 23 26 31
f 26 32 28
f 26 28 35
f 26 35 37
f 26 37 33
f 26 33 31
f 27 34 28
f 28 32 29
f 28 34 35
f 31 33 37
f 31 37 36
f 34 36 37
f 34 37 35

