# https://github.com/mikedh/trimesh
v 4.84244566 -0.24106356 1.27738567
v 4.86893794 -0.24106356 1.20409920
v 4.83759391 -0.14481546 1.27263325
v 4.78178558 -0.24106356 1.27738567
v 4.84244566 -3.99747772 1.27738567
v 4.86948110 -0.24106356 1.10755109
v 4.85899271 -0.14481546 1.20409920
v 4.86893794 -3.99747772 1.20409920
v 4.78731341 -0.14481546 1.27263325
v 4.82733518 -0.08847516 1.26262831
v 4.74662790 -0.24106356 1.20409920
v 4.78178558 -3.99747772 1.27738567
v 4.83380438 -4.06907692 1.26913152
v 4.86948110 -0.24106356 -1.10755109
v 4.85928267 -0.14481546 1.10755109
v 4.86948110 -2.93796634 1.10755109
v 4.83276627 -0.08456262 1.20409920
v 4.84272356 -4.08081442 1.20409920
v 4.86946904 -3.99747772 1.10755109
v 4.80073439 -0.08847516 1.26262831
v 4.75787650 -0.14481546 1.20409920
v 4.74619354 -0.24106356 1.10755109
v 4.74662790 -3.99747772 1.20409920
v 4.79336002 -4.06907692 1.26913152
v 4.86893794 -0.24106356 -1.20409920
v 4.85899271 -0.14481546 -1.20409920
v 4.85928267 -0.14481546 -1.10755109
v 4.86948110 -2.93796634 -1.10755109
v 4.83279039 -0.08417132 1.10755109
v 4.79281685 -0.08456262 1.20409920
v 4.78156854 -4.08081442 1.20409920
v 4.84298882 -4.08120572 1.10755109
v 4.86946904 -3.99747772 -1.10755109
v 4.75762300 -0.14481546 1.10755109
v 4.74619354 -0.24106356 -1.10755109
v 4.74619354 -3.99747772 1.10755109
v 4.84244566 -0.24106356 -1.27738567
v 4.83759391 -0.14481546 -1.27263325
v 4.86893794 -3.99747772 -1.20409920
v 4.82733518 -0.08847516 -1.26262831
v 4.83276627 -0.08456262 -1.20409920
v 4.83279039 -0.08417132 -1.10755109
v 4.79279273 -0.08417132 1.10755109
v 4.78135122 -4.08120572 1.10755109
v 4.84298882 -4.08120572 -1.10755109
v 4.84272356 -4.08081442 -1.20409920
v 4.75762300 -0.14481546 -1.10755109
v 4.75787650 -0.14481546 -1.20409920
v 4.74662790 -0.24106356 -1.20409920
v 4.74619354 -3.99747772 -1.10755109
v 4.78178558 -0.24106356 -1.27738567
v 4.84244566 -3.99747772 -1.27738567
v 4.78731341 -0.14481546 -1.27263325
v 4.83380438 -4.06907692 -1.26913152
v 4.80073439 -0.08847516 -1.26262831
v 4.79281685 -0.08456262 -1.20409920
v 4.79279273 -0.08417132 -1.10755109
v 4.78135122 -4.08120572 -1.10755109
v 4.78156854 -4.08081442 -1.20409920
v 4.74662790 -3.99747772 -1.20409920
v 4.78178558 -3.99747772 -1.27738567
v 4.79336002 -4.06907692 -1.26913152
f 1 2 3
f 1 3 9
f 1 9 4
f 1 4 12
f 1 12 5
f 1 5 8
f 1 8 2
f 2 6 7
f 2 7 3
f 2 8 16
f 2 16 6
f 3 7 10
f 3 10 20
f 3 20 9
f 4 9 11
f 4 11 23
f 4 23 12
f 5 12 24
f 5 24 13
f 5 13 8
f 6 14 27
f 6 27 15
f 6 15 7
f 6 16 28
f 6 28 14
f 7 15 17
f 7 17 10
f 8 13 18
f 8 18 19
f 8 19 16
f 9 20 21
f 9 21 11
f 10 17 30
f 10 30 20
f 11 21 22
f 11 22 36
f 11 36 23
f 12 23 24
f 13 24 31
f 13 31 18
f 14 25 26
f 14 26 27
f 14 28 39
f 14 39 25
f 15 29 17
f 15 27 42
f 15 42 29
f 16 19 33
f 16 33 28
f 17 29 43
f 17 43 30
f 18 31 44
f 18 44 32
f 18 32 19
f 19 32 45
f 19 45 33
f 20 30 21
f 21 30 34
f 21 34 22
f 22 34 47
f 22 47 35
f 22 35 50
f 22 50 36
f 23 36 31
f 23 31 24
f 25 37 38
f 25 38 26
f 25 39 52
f 25 52 37
f 26 38 40
f 26 40 41
f 26 41 27
f 27 41 42
f 28 33 39
f 29 42 57
f 29 57 43
f 30 43 34
f 31 36 44
f 32 44 58
f 32 58 45
f 33 45 46
f 33 46 39
f 34 43 57
f 34 57 47
f 35 47 48
f 35 48 49
f 35 49 60
f 35 60 50
f 36 50 58
f 36 58 44
f 37 51 53
f 37 53 38
f 37 52 61
f 37 61 51
f 38 53 55
f 38 55 40
f 39 46 54
f 39 54 52
f 40 55 56
f 40 56 41
f 41 56 57
f 41 57 42
f 45 58 59
f 45 59 46
f 46 59 62
f 46 62 54
f 47 57 56
f 47 56 48
f 48 56 55
f 48 55 53
f 48 53 49
f 49 53 51
f 49 51 61
f 49 61 60
f 50 60 59
f 50 59 58
f 52 54 62
f 52 62 61
f 59 60 62
f 60 61 62

