# https://github.com/mikedh/trimesh
v 0.18996603 4.32372793 -1.07485209
v 0.18996603 4.33865812 -1.07485209
v 0.20725613 4.30864961 -1.07485209
v 0.18996603 4.32372793 -0.17706020
v 0.18996603 4.33865812 -0.17706020
v 0.20702869 4.34509027 -0.17706020
v 0.22340880 4.35120089 -1.07485209
v 0.24092642 4.27961835 -1.07485209
v 0.22363632 4.29448652 -0.17706020
v 0.24092642 4.35771946 -0.17706020
v 0.24092642 4.35771946 -1.07485209
v 0.33715959 4.24662874 -1.07485209
v 0.24092642 4.27961835 -0.17706020
v 0.33715959 4.37297118 -0.17706020
v 0.33715959 4.37297118 -1.07485209
v 0.33715959 4.24662874 -0.17706020
v 2.51389448 4.24662874 -1.07485209
v 2.51389448 4.37297118 -0.17706020
v 2.51389448 4.37297118 -1.07485209
v 2.51389448 4.24662874 -0.17706020
f 1 2 7
f 1 7 11
f 1 11 15
f 1 15 19
f 1 19 17
f 1 17 12
f 1 12 8
f 1 8 3
f 1 3 4
f 1 4 5
f 1 5 2
f 2 5 6
f 2 6 7
f 3 8 9
f 3 9 4
f 4 9 13
f 4 13 16
f 4 16 20
f 4 20 18
f 4 18 14
f 4 14 10
f 4 10 6
f 4 6 5
f 6 10 7
f 7 10 11
f 8 12 16
f 8 16 13
f 8 13 9
f 10 14 15
f 10 15 11
f 12 17 20
f 12 20 16
f 14 18 19
f 14 19 15
f 17 19 18
f 17 18 20

