# https://github.com/mikedh/trimesh
v 4.86948168 2.36819681 -0.13566835
v 4.86948168 2.36819681 -1.08844711
v 4.74619383 2.36819681 -0.13566835
v 4.86948168 0.42467828 -0.13566835
v 4.74619383 2.36819681 -1.08844711
v 4.86948168 0.41417037 -1.08844711
v 4.74618177 0.26035224 -1.08844711
v 4.74618177 0.24984432 -0.13566835
v 4.86946962 0.24090139 -0.13566835
v 4.86946962 0.24090139 -1.08844711
v 4.74618177 0.24090139 -1.08844711
v 4.74618177 0.24090139 -0.13566835
v 4.85928324 0.14454154 -0.13566835
v 4.85928324 0.14454154 -1.08844711
v 4.75762358 0.14454154 -1.08844711
v 4.75762358 0.14454154 -0.13566835
v 4.83279096 0.08440044 -0.13566835
v 4.83279096 0.08440044 -1.08844711
v 4.78572066 0.09647333 -1.08844711
v 4.78957077 0.08976614 -0.13566835
v 4.79278125 0.08440044 -0.13566835
v 4.79278125 0.08440044 -1.08844711
f 1 2 5
f 1 5 3
f 1 3 8
f 1 8 12
f 1 12 16
f 1 16 20
f 1 20 21
f 1 21 17
f 1 17 13
f 1 13 9
f 1 9 4
f 1 4 6
f 1 6 2
f 2 6 10
f 2 10 14
f 2 14 18
f 2 18 22
f 2 22 19
f 2 19 15
f 2 15 11
f 2 11 7
f 2 7 5
f 3 5 7
f 3 7 8
f 4 9 6
f 6 9 10
f 7 11 12
f 7 12 8
f 9 13 14
f 9 14 10
f 11 15 16
f 11 16 12
f 13 17 18
f 13 18 14
f 15 19 20
f 15 20 16
f 17 21 22
f 17 22 18
f 19 22 20
f 20 22 21

