# https://github.com/mikedh/trimesh
v 4.84299055 4.08121192 -1.08846556
v 4.84299055 4.08121192 -1.10779928
v 4.78135208 4.08121192 -1.08846556
v 4.86948282 3.99748392 -1.08846556
v 4.84271265 4.08082091 -1.20411585
v 4.78135208 4.08121192 -1.10779928
v 4.86948282 3.99748392 -1.10779928
v 4.75325442 4.01430772 -1.08846556
v 4.86948282 3.41960404 -1.08846556
v 4.83379347 4.06908312 -1.26917258
v 4.78156940 4.08082091 -1.20411585
v 4.86893966 3.99748392 -1.20411585
v 4.74619383 3.99748392 -1.10779928
v 4.86948282 3.41960404 -1.10779928
v 4.74619383 3.99748392 -1.08846556
v 4.86947077 0.24106919 -1.08846556
v 4.79336116 4.06908312 -1.26917258
v 4.84244738 3.99748392 -1.27763572
v 4.74662848 3.99748392 -1.20411585
v 4.86893966 0.24106919 -1.20411585
v 4.74618177 0.24106919 -1.10779928
v 4.74618177 0.26024049 -1.08846556
v 4.86947077 0.24106919 -1.10779928
v 4.86743131 0.22150644 -1.08846556
v 4.78178644 3.99748392 -1.27763572
v 4.84244738 0.24106919 -1.27763572
v 4.74662848 0.24106919 -1.20411585
v 4.85899443 0.14482109 -1.20411585
v 4.83759563 0.14482109 -1.27283938
v 4.75787707 0.14482109 -1.20411585
v 4.75762358 0.14482109 -1.10779928
v 4.75533033 0.16399239 -1.08846556
v 4.74618177 0.24106919 -1.08846556
v 4.85928439 0.14482109 -1.10779928
v 4.85928439 0.14482109 -1.08846556
v 4.78178644 0.24106919 -1.27763572
v 4.78731428 0.14482109 -1.27283938
v 4.83276742 0.08456810 -1.20411585
v 4.82733633 0.08848065 -1.26280214
v 4.80073554 0.08848065 -1.26280214
v 4.79281800 0.08456810 -1.20411585
v 4.79278182 0.08417694 -1.10779928
v 4.75762358 0.14482109 -1.08846556
v 4.78572124 0.09630574 -1.08846556
v 4.83279211 0.08417694 -1.10779928
v 4.83279211 0.08417694 -1.08846556
v 4.79278182 0.08417694 -1.08846556
f 1 2 6
f 1 6 3
f 1 3 8
f 1 8 15
f 1 15 22
f 1 22 33
f 1 33 32
f 1 32 43
f 1 43 44
f 1 44 47
f 1 47 46
f 1 46 35
f 1 35 24
f 1 24 16
f 1 16 9
f 1 9 4
f 1 4 7
f 1 7 2
f 2 5 11
f 2 11 6
f 2 7 5
f 3 6 8
f 4 9 14
f 4 14 7
f 5 10 17
f 5 17 11
f 5 7 12
f 5 12 10
f 6 11 13
f 6 13 8
f 7 14 20
f 7 20 12
f 8 13 15
f 9 16 23
f 9 23 14
f 10 12 18
f 10 18 25
f 10 25 17
f 11 17 19
f 11 19 13
f 12 20 26
f 12 26 18
f 13 19 21
f 13 21 22
f 13 22 15
f 14 23 20
f 16 24 23
f 17 25 19
f 18 26 36
f 18 36 25
f 19 25 36
f 19 36 27
f 19 27 21
f 20 23 28
f 20 28 29
f 20 29 26
f 21 27 30
f 21 30 31
f 21 31 32
f 21 32 33
f 21 33 22
f 23 24 34
f 23 34 28
f 24 35 34
f 26 29 37
f 26 37 36
f 27 36 37
f 27 37 30
f 28 34 38
f 28 38 39
f 28 39 29
f 29 39 40
f 29 40 37
f 30 37 40
f 30 40 41
f 30 41 42
f 30 42 31
f 31 43 32
f 31 42 44
f 31 44 43
f 34 35 46
f 34 46 45
f 34 45 38
f 38 45 42
f 38 42 41
f 38 41 40
f 38 40 39
f 42 45 46
f 42 46 47
f 42 47 44

