# https://github.com/mikedh/trimesh
v 4.84299055 4.08121192 -0.13566835
v 4.78135208 4.08121192 -0.13566835
v 4.86948282 3.99753961 -0.13566835
v 4.84299055 4.08121192 -1.08844711
v 4.78135208 4.08121192 -1.08844711
v 4.74940431 4.00525303 -0.13566835
v 4.86948282 3.99753961 -1.08844711
v 4.86948282 3.41082869 -0.13566835
v 4.74619412 3.99753961 -1.08844711
v 4.74619412 3.99753961 -0.13566835
v 4.86948282 3.41971571 -1.08844711
v 4.86947077 2.36836446 -0.13566835
v 4.86947077 2.36836446 -1.08844711
v 4.74619412 2.36836446 -1.08844711
v 4.74619412 2.36836446 -0.13566835
f 1 2 6
f 1 6 10
f 1 10 15
f 1 15 12
f 1 12 8
f 1 8 3
f 1 3 7
f 1 7 4
f 1 4 5
f 1 5 2
f 2 5 6
f 3 8 11
f 3 11 7
f 4 7 11
f 4 11 13
f 4 13 14
f 4 14 9
f 4 9 5
f 5 9 6
f 6 9 10
f 8 12 13
f 8 13 11
f 9 14 15
f 9 15 10
f 12 15 14
f 12 14 13

