# https://github.com/mikedh/trimesh
v 0.19017238 -4.33862895 -0.42584254
v 0.21796888 -4.34916758 -0.37676114
v 0.18973802 -4.33862895 -0.37676114
v 0.19017238 -4.32369934 -0.42584254
v 0.24142221 -4.35771470 -0.42584254
v 0.24098785 -4.35771470 -0.37676114
v 0.22187770 -4.35063947 -0.08393635
v 0.18973802 -4.32369934 -0.37676114
v 0.18973802 -4.33862895 1.10766069
v 0.24142221 -4.27966497 -0.42584254
v 0.33784156 -4.37297819 -0.42584254
v 0.24098785 -4.35771470 1.10799342
v 0.33740720 -4.37297819 -0.37676114
v 0.29484371 -4.36626182 -0.27909742
v 0.25271459 -4.35958248 -0.13268503
v 0.24185658 -4.35786312 1.10799342
v 0.18973802 -4.32369934 1.10766069
v 0.23534174 -4.28443950 -0.23034874
v 0.24098785 -4.27966497 -0.37676114
v 0.24142221 -4.35762800 1.20382704
v 0.19017238 -4.33862895 1.15790673
v 0.19017238 -4.33813430 1.22379235
v 0.33002378 -4.24923675 -0.42584254
v 4.47865886 -4.37297819 -0.42584254
v 0.33740720 -4.37297819 1.10766069
v 0.33219530 -4.37218670 1.00633663
v 0.19017238 -4.32517123 1.22379235
v 0.19017238 -4.32369934 1.15790673
v 0.24142221 -4.27970201 1.20382704
v 0.24098785 -4.27966497 1.10766069
v 0.21796888 -4.29941848 0.95592422
v 0.27660228 -4.26735760 -0.08393635
v 0.27920816 -4.26647941 -0.27909742
v 0.33740720 -4.24661451 -0.37676114
v 0.24098785 -4.35394211 1.22379235
v 0.19104095 -4.33731783 1.25507135
v 0.19060659 -4.33860426 1.20382704
v 0.33784156 -4.37286680 1.20382704
v 0.33784156 -4.24661451 -0.42584254
v 4.57507806 -4.35771470 -0.42584254
v 4.57551271 -4.35771470 -0.37676114
v 4.47909322 -4.37297819 -0.32801246
v 0.33784156 -4.37294116 1.15790673
v 4.47909322 -4.37297819 1.10766069
v 0.19060659 -4.32371168 1.20382704
v 0.19104095 -4.32747193 1.25507135
v 0.22144348 -4.29834249 1.22379235
v 0.33740720 -4.24661451 1.10766069
v 0.24098785 -4.28869439 1.22379235
v 0.33784156 -4.24672590 1.20382704
v 0.29614665 -4.26067827 0.95592422
v 0.24098785 -4.34618648 1.26522041
v 4.47865886 -4.37286680 1.20382704
v 0.33740720 -4.36746155 1.22379235
v 4.47865886 -4.24661451 -0.42584254
v 4.57942138 -4.35616846 -0.42584254
v 4.62676241 -4.33862895 -0.42584254
v 4.60634917 -4.34624849 -0.27909742
v 4.57551271 -4.35771470 1.00633663
v 4.53729240 -4.36378800 -0.27909742
v 4.47865886 -4.37294116 1.15790673
v 4.57507806 -4.35769001 1.15790673
v 4.57507806 -4.35762800 1.20382704
v 0.24098785 -4.30733488 1.26522041
v 0.33784156 -4.24665154 1.15790673
v 4.47909322 -4.24661451 1.10766069
v 0.30613609 -4.26644237 1.22379235
v 4.47865886 -4.24672590 1.20382704
v 0.33740720 -4.25928045 1.22379235
v 0.33740720 -4.35384306 1.27387203
v 4.57551271 -4.35394211 1.22379235
v 4.51036433 -4.36422093 1.22379235
v 4.47909322 -4.36746155 1.22379235
v 4.47909322 -4.24661451 -0.32801246
v 4.56769479 -4.27705508 -0.42584254
v 4.62676241 -4.32369934 -0.42584254
v 4.62676241 -4.33862895 1.10799342
v 4.59853154 -4.34915524 0.95592422
v 4.62632804 -4.33862895 1.15790673
v 4.62589397 -4.33860426 1.20382704
v 4.62632804 -4.33813430 1.22379235
v 4.59505694 -4.34974893 1.22379235
v 0.33740720 -4.29082199 1.27387203
v 4.47865886 -4.24665154 1.15790673
v 4.57507806 -4.27970201 1.20382704
v 4.52817169 -4.26343659 1.05857928
v 4.48430498 -4.24835855 1.00633663
v 4.47909322 -4.25928045 1.22379235
v 4.57551271 -4.30733488 1.26522041
v 4.57551271 -4.28869439 1.22379235
v 4.47909322 -4.35384306 1.27387203
v 4.57551271 -4.34618648 1.26522041
v 4.52165656 -4.26113588 -0.27909742
v 4.57551271 -4.27966497 -0.37676114
v 4.57507806 -4.27966497 -0.42584254
v 4.59766310 -4.29865168 -0.18143370
v 4.62676241 -4.32369934 1.10766069
v 4.62676241 -4.32384776 1.10799342
v 4.62632804 -4.32517123 1.22379235
v 4.62502525 -4.33731783 1.25507135
v 4.47909322 -4.29082199 1.27387203
v 4.62502525 -4.32747193 1.25507135
v 4.62589397 -4.32371168 1.20382704
v 4.62632804 -4.32369934 1.15790673
v 4.57551271 -4.27966497 1.00633663
v 4.53642368 -4.26620725 0.85776140
v 4.56378583 -4.27560788 -0.13268503
v 4.57551271 -4.27965263 -0.08393635
v 4.59462286 -4.29604178 -0.08393635
v 4.57551271 -4.27965263 0.85776140
f 1 2 3
f 1 3 8
f 1 8 4
f 1 4 10
f 1 10 23
f 1 23 39
f 1 39 55
f 1 55 75
f 1 75 95
f 1 95 76
f 1 76 57
f 1 57 56
f 1 56 40
f 1 40 24
f 1 24 11
f 1 11 5
f 1 5 2
f 2 6 7
f 2 7 3
f 2 5 6
f 3 7 9
f 3 9 17
f 3 17 8
f 4 8 19
f 4 19 10
f 5 11 13
f 5 13 6
f 6 12 7
f 6 13 14
f 6 14 15
f 6 15 16
f 6 16 12
f 7 12 9
f 8 17 18
f 8 18 19
f 9 12 20
f 9 20 21
f 9 21 22
f 9 22 27
f 9 27 17
f 10 19 23
f 11 24 42
f 11 42 44
f 11 44 25
f 11 25 13
f 12 16 20
f 13 25 26
f 13 26 14
f 14 26 15
f 15 26 16
f 16 26 25
f 16 25 20
f 17 27 28
f 17 28 29
f 17 29 30
f 17 30 31
f 17 31 18
f 18 31 30
f 18 30 19
f 19 30 32
f 19 32 33
f 19 33 34
f 19 34 23
f 20 35 36
f 20 36 22
f 20 22 37
f 20 37 21
f 20 25 38
f 20 38 35
f 21 37 22
f 22 36 46
f 22 46 27
f 23 34 39
f 24 40 41
f 24 41 42
f 25 43 38
f 25 44 61
f 25 61 43
f 27 45 28
f 27 46 47
f 27 47 29
f 27 29 45
f 28 45 29
f 29 48 30
f 29 47 49
f 29 49 50
f 29 50 48
f 30 48 51
f 30 51 32
f 32 51 34
f 32 34 33
f 34 51 48
f 34 48 66
f 34 66 74
f 34 74 55
f 34 55 39
f 35 52 36
f 35 38 52
f 36 52 64
f 36 64 46
f 38 53 73
f 38 73 54
f 38 54 52
f 38 43 61
f 38 61 53
f 40 56 41
f 41 56 57
f 41 57 58
f 41 58 59
f 41 59 60
f 41 60 42
f 42 60 44
f 44 60 59
f 44 59 62
f 44 62 63
f 44 63 53
f 44 53 61
f 46 64 47
f 47 64 49
f 48 50 65
f 48 65 84
f 48 84 66
f 49 64 67
f 49 67 50
f 50 68 84
f 50 84 65
f 50 67 69
f 50 69 88
f 50 88 68
f 52 54 70
f 52 70 83
f 52 83 64
f 53 63 71
f 53 71 72
f 53 72 73
f 54 73 91
f 54 91 70
f 55 74 75
f 57 76 97
f 57 97 98
f 57 98 77
f 57 77 58
f 58 77 78
f 58 78 59
f 59 78 77
f 59 77 62
f 62 77 63
f 63 77 79
f 63 79 80
f 63 80 81
f 63 81 82
f 63 82 71
f 64 83 69
f 64 69 67
f 66 84 68
f 66 68 85
f 66 85 86
f 66 86 87
f 66 87 74
f 68 88 89
f 68 89 90
f 68 90 85
f 69 83 101
f 69 101 88
f 70 91 101
f 70 101 83
f 71 82 92
f 71 92 72
f 72 91 73
f 72 92 91
f 74 87 93
f 74 93 94
f 74 94 75
f 75 94 95
f 76 94 96
f 76 96 97
f 76 95 94
f 77 81 79
f 77 98 99
f 77 99 81
f 79 81 80
f 81 99 102
f 81 102 100
f 81 100 82
f 82 100 92
f 85 90 102
f 85 102 99
f 85 99 103
f 85 103 104
f 85 104 97
f 85 97 105
f 85 105 86
f 86 105 87
f 87 105 106
f 87 106 93
f 88 101 89
f 89 101 91
f 89 91 92
f 89 92 100
f 89 100 102
f 89 102 90
f 93 106 107
f 93 107 94
f 94 108 96
f 94 107 108
f 96 108 109
f 96 109 97
f 97 109 110
f 97 110 105
f 97 104 99
f 97 99 98
f 99 104 103
f 105 110 106
f 106 110 107
f 107 110 108
f 108 110 109

