# https://github.com/mikedh/trimesh
v -4.79278039 -0.08417103 -1.09512652
v -4.79278039 -0.08417103 -1.10781069
v -4.83279011 -0.08417103 -1.09512652
v -4.75762215 -0.14481518 -1.09512652
v -4.79281657 -0.08456233 -1.20412109
v -4.83279011 -0.08417103 -1.10781069
v -4.75762215 -0.14481518 -1.10781069
v -4.75787564 -0.14481518 -1.20412109
v -4.85580692 -0.13659878 -1.09512652
v -4.75612557 -0.15733528 -1.09512652
v -4.80073411 -0.08847473 -1.26280774
v -4.83276599 -0.08456233 -1.20412109
v -4.74619269 -0.24106327 -1.10781069
v -4.74662705 -0.24106327 -1.20412109
v -4.78731285 -0.14481518 -1.27284785
v -4.85899300 -0.14481518 -1.20412109
v -4.85928238 -0.14481518 -1.10781069
v -4.85928238 -0.14481518 -1.09512652
v -4.74619269 -0.24106327 -1.09512652
v -4.82733490 -0.08847473 -1.26280774
v -4.74619269 -3.99747772 -1.10781069
v -4.78178501 -0.24106327 -1.27763572
v -4.74662705 -3.99747772 -1.20412109
v -4.83759420 -0.14481518 -1.27284785
v -4.86893823 -0.24106327 -1.20412109
v -4.86946934 -0.24106327 -1.10781069
v -4.86946934 -0.24106327 -1.09512652
v -4.74619269 -3.99747772 -1.09512652
v -4.78135065 -4.08120572 -1.10781069
v -4.78156797 -4.08081442 -1.20412109
v -4.84244595 -0.24106327 -1.27763572
v -4.78178501 -3.99747772 -1.27763572
v -4.79335973 -4.06907692 -1.26918549
v -4.86948139 -1.30057480 -1.10781069
v -4.86893823 -3.99747772 -1.20412109
v -4.86948139 -1.30057480 -1.09512652
v -4.78135065 -4.08120572 -1.09512652
v -4.84298912 -4.08120572 -1.10781069
v -4.84271122 -4.08081442 -1.20412109
v -4.84244595 -3.99747772 -1.27763572
v -4.83379204 -4.06907692 -1.26918549
v -4.86948139 -3.99747772 -1.10781069
v -4.86948139 -3.99747772 -1.09512652
v -4.84298912 -4.08120572 -1.09512652
f 1 2 6
f 1 6 3
f 1 3 9
f 1 9 18
f 1 18 27
f 1 27 36
f 1 36 43
f 1 43 44
f 1 44 37
f 1 37 28
f 1 28 19
f 1 19 10
f 1 10 4
f 1 4 7
f 1 7 2
f 2 5 12
f 2 12 6
f 2 7 8
f 2 8 5
f 3 6 9
f 4 10 7
f 5 11 20
f 5 20 12
f 5 8 11
f 6 12 9
f 7 10 13
f 7 13 8
f 8 13 14
f 8 14 15
f 8 15 11
f 9 12 16
f 9 16 17
f 9 17 18
f 10 19 13
f 11 15 24
f 11 24 20
f 12 20 16
f 13 19 28
f 13 28 21
f 13 21 23
f 13 23 14
f 14 22 15
f 14 23 32
f 14 32 22
f 15 22 31
f 15 31 24
f 16 24 25
f 16 25 26
f 16 26 17
f 16 20 24
f 17 26 27
f 17 27 18
f 21 28 37
f 21 37 29
f 21 29 30
f 21 30 23
f 22 32 40
f 22 40 31
f 23 30 33
f 23 33 32
f 24 31 25
f 25 34 26
f 25 31 40
f 25 40 35
f 25 35 42
f 25 42 34
f 26 34 36
f 26 36 27
f 29 37 44
f 29 44 38
f 29 38 39
f 29 39 30
f 30 39 41
f 30 41 33
f 32 33 41
f 32 41 40
f 34 42 43
f 34 43 36
f 35 40 41
f 35 41 39
f 35 39 42
f 38 44 43
f 38 43 42
f 38 42 39

