# https://github.com/mikedh/trimesh
v -4.62632748 4.32370870 -1.07485209
v -4.62676184 4.32370870 1.00603117
v -4.62632748 4.33864979 -1.07485209
v -4.57507749 4.27964017 -1.07485209
v -4.62676184 4.33864979 1.00603117
v -4.57551185 4.27965251 1.00603117
v -4.62676184 4.32370870 1.10764985
v -4.57507749 4.35769707 -1.07485209
v -4.47865829 4.24664109 -1.07485209
v -4.48039574 4.24707401 1.10650029
v -4.62676184 4.33864979 1.10764985
v -4.57551185 4.35769707 1.00603117
v -4.57551185 4.27965251 1.10764985
v -4.62632748 4.32374573 1.20398063
v -4.57551185 4.27971423 1.20398063
v -4.57030010 4.35855058 1.00603117
v -4.47865829 4.37297205 -1.07485209
v -1.36500971 4.24661640 -1.07485209
v -4.47865829 4.24664109 1.10764985
v -4.47865829 4.24672779 1.20398063
v -4.62632748 4.33862510 1.20398063
v -4.57551185 4.35766004 1.20398063
v -4.57551185 4.35769707 1.10764985
v -4.62545875 4.32746866 1.25501996
v -4.57551185 4.30735773 1.26513572
v -4.47865829 4.37297205 1.10764985
v -0.33740591 4.37297205 -1.07485209
v -1.36153526 4.24661640 0.17974740
v -0.33740591 4.24661640 -1.07485209
v -1.35198018 4.24661640 1.05684048
v -1.30246750 4.24661640 1.10650029
v -1.30116456 4.24661640 1.10764985
v -4.47865829 4.29082101 1.27387217
v -0.33784013 4.24672779 1.20398063
v -4.62545875 4.33733867 1.25501996
v -4.57551185 4.34620675 1.26513572
v -4.47865829 4.37292267 1.20398063
v -0.70266991 4.37293501 1.18351895
v -0.33784013 4.37297205 1.10764985
v -0.33740591 4.37297205 1.00580129
v -0.33610283 4.37278659 1.10650029
v -0.24619847 4.35847622 -0.04303196
v -0.24142093 4.35769707 -1.07485209
v -0.24142093 4.27965251 -1.07485209
v -0.32307330 4.25147705 0.92809290
v -0.33740591 4.24661640 1.00580129
v -0.33784013 4.24661640 1.10764985
v -4.47865829 4.35382572 1.27387217
v -0.33784013 4.29082101 1.27387217
v -0.24142093 4.27970189 1.20398063
v -0.24142093 4.30732040 1.26513572
v -0.33784013 4.37292267 1.20398063
v -0.25531918 4.35993577 0.92809290
v -0.24142093 4.35766004 1.20398063
v -0.24142093 4.35769707 1.10764985
v -0.18973658 4.33864979 -1.07485209
v -0.24663268 4.27780942 1.00580129
v -0.22361371 4.29471705 -1.07485209
v -0.23838069 4.28191589 -0.04303196
v -0.24142093 4.27965251 1.10764985
v -0.24663268 4.27780942 1.00603117
v -0.33784013 4.35382572 1.27387217
v -0.23403737 4.28574993 0.92809290
v -0.18973658 4.32370870 1.10764985
v -0.19017095 4.32373339 1.20398063
v -0.19147388 4.32746866 1.25501996
v -0.24142093 4.34620675 1.26513572
v -0.19147388 4.33733867 1.25501996
v -0.19017095 4.33862510 1.20398063
v -0.18973658 4.33864979 1.10764985
v -0.18973658 4.32370870 -1.07485209
f 1 2 5
f 1 5 3
f 1 3 8
f 1 8 17
f 1 17 27
f 1 27 43
f 1 43 56
f 1 56 71
f 1 71 58
f 1 58 44
f 1 44 29
f 1 29 18
f 1 18 9
f 1 9 4
f 1 4 2
f 2 4 6
f 2 6 13
f 2 13 7
f 2 7 11
f 2 11 5
f 3 5 12
f 3 12 8
f 4 9 10
f 4 10 6
f 5 11 23
f 5 23 12
f 6 10 13
f 7 14 21
f 7 21 11
f 7 13 15
f 7 15 14
f 8 12 16
f 8 16 17
f 9 18 19
f 9 19 10
f 10 19 20
f 10 20 15
f 10 15 13
f 11 21 22
f 11 22 23
f 12 23 16
f 14 24 35
f 14 35 21
f 14 15 24
f 15 25 24
f 15 20 25
f 16 26 17
f 16 23 26
f 17 26 39
f 17 39 40
f 17 40 27
f 18 28 19
f 18 29 46
f 18 46 47
f 18 47 32
f 18 32 31
f 18 31 30
f 18 30 28
f 19 28 30
f 19 30 31
f 19 31 32
f 19 32 20
f 20 33 25
f 20 32 47
f 20 47 34
f 20 34 49
f 20 49 33
f 21 35 22
f 22 35 36
f 22 36 37
f 22 37 26
f 22 26 23
f 24 25 36
f 24 36 35
f 25 33 48
f 25 48 36
f 26 37 38
f 26 38 39
f 27 40 41
f 27 41 42
f 27 42 43
f 29 44 45
f 29 45 46
f 33 49 62
f 33 62 48
f 34 47 46
f 34 46 50
f 34 50 51
f 34 51 49
f 36 48 37
f 37 48 62
f 37 62 52
f 37 52 38
f 38 52 39
f 39 52 41
f 39 41 40
f 41 53 42
f 41 52 54
f 41 54 55
f 41 55 53
f 42 53 55
f 42 55 43
f 43 55 70
f 43 70 56
f 44 57 45
f 44 58 59
f 44 59 60
f 44 60 61
f 44 61 57
f 45 57 61
f 45 61 60
f 45 60 50
f 45 50 46
f 49 51 67
f 49 67 62
f 50 60 63
f 50 63 64
f 50 64 65
f 50 65 66
f 50 66 51
f 51 66 68
f 51 68 67
f 52 62 67
f 52 67 54
f 54 67 68
f 54 68 69
f 54 69 70
f 54 70 55
f 56 70 64
f 56 64 71
f 58 71 59
f 59 71 64
f 59 64 63
f 59 63 60
f 64 70 69
f 64 69 65
f 65 69 68
f 65 68 66

