# https://github.com/mikedh/trimesh
v 0.18996603 4.32372793 -0.17697232
v 0.18996603 4.33865812 -0.17697232
v 0.22363632 4.29448652 -0.17697232
v 0.18996603 4.32372793 1.00616639
v 0.18996603 4.33865812 1.00616639
v 0.19269608 4.33970942 1.00616639
v 0.20702869 4.34509027 -0.17697232
v 0.24092642 4.27961835 -0.17697232
v 0.24092642 4.27961835 1.00616639
v 0.24092642 4.35771946 1.00616639
v 0.24092642 4.35771946 -0.17697232
v 0.33715959 4.24662874 -0.17697232
v 0.33715959 4.24662874 1.00616639
v 0.24615892 4.35856063 1.00616639
v 0.33715959 4.37297118 -0.17697232
v 2.51389448 4.24662874 -0.17697232
v 2.51389448 4.24662874 1.00616639
v 0.33715959 4.37297118 1.00616639
v 2.51389448 4.37297118 -0.17697232
v 2.51389448 4.37297118 1.00616639
f 1 2 7
f 1 7 11
f 1 11 15
f 1 15 19
f 1 19 16
f 1 16 12
f 1 12 8
f 1 8 3
f 1 3 4
f 1 4 5
f 1 5 2
f 2 5 6
f 2 6 7
f 3 8 9
f 3 9 4
f 4 9 13
f 4 13 17
f 4 17 20
f 4 20 18
f 4 18 14
f 4 14 10
f 4 10 6
f 4 6 5
f 6 10 7
f 7 10 11
f 8 12 13
f 8 13 9
f 10 14 11
f 11 14 15
f 12 16 17
f 12 17 13
f 14 18 15
f 15 18 20
f 15 20 19
f 16 19 20
f 16 20 17

