# https://github.com/mikedh/trimesh
v 0.33784429 4.29081642 -1.27384274
v 0.33784429 4.24669047 -1.20412640
v 0.24142509 4.30732643 -1.26527194
v 0.33784429 4.35383921 -1.27384274
v 4.47865743 4.29081642 -1.27384274
v 4.47822335 4.24669047 -1.20412640
v 0.33740993 4.24666578 -1.17420624
v 0.24142509 4.27972313 -1.20412640
v 0.24142509 4.28868940 -1.22401484
v 0.22188057 4.29832342 -1.22401484
v 0.19147819 4.32748502 -1.25522064
v 0.24142509 4.34623345 -1.26527194
v 0.33784429 4.36748009 -1.22401484
v 4.47865743 4.35383921 -1.27384274
v 4.57507691 4.30732643 -1.26527194
v 4.47865743 4.25929267 -1.22401484
v 4.57507691 4.28868940 -1.22401484
v 4.57507691 4.27972313 -1.20412640
v 4.47909207 4.24666578 -1.17420624
v 0.33740993 4.24662874 -1.12445607
v 0.31308802 4.25490227 -1.12445607
v 0.24099072 4.27969844 -1.17420624
v 0.20581080 4.31005978 -1.17420624
v 0.19060946 4.32376238 -1.20412640
v 0.19060946 4.32520929 -1.22401484
v 0.19147819 4.33735388 -1.25522064
v 0.24142509 4.35395060 -1.22401484
v 0.33784429 4.37289712 -1.20412640
v 4.47865743 4.36748009 -1.22401484
v 4.57507691 4.34623345 -1.26527194
v 4.62502353 4.32748502 -1.25522064
v 4.62589225 4.32520929 -1.22401484
v 4.62545817 4.32376238 -1.20412640
v 4.62632661 4.32373769 -1.17420624
v 4.57551099 4.27969844 -1.17420624
v 4.50906010 4.25693053 -1.17420624
v 4.55900700 4.27392285 -1.12445607
v 4.47909207 4.24662874 -1.12445607
v 0.33740993 4.24662874 -1.07486186
v 0.24099072 4.27962409 -1.07486186
v 0.24099072 4.27962409 -1.10780129
v 0.24099072 4.27963643 -1.12445607
v 0.18974089 4.32372535 -1.12445607
v 0.19017525 4.32373769 -1.17420624
v 0.19060946 4.33813304 -1.22401484
v 0.19017525 4.32375004 -1.17422569
v 0.24142509 4.35766061 -1.20412640
v 0.33784429 4.37293415 -1.17422569
v 4.47822335 4.37289712 -1.20412640
v 0.33740993 4.37293415 -1.17420624
v 4.50992853 4.36424004 -1.22401484
v 4.57507691 4.35395060 -1.22401484
v 4.59462114 4.34974566 -1.22401484
v 4.62502353 4.33735388 -1.25522064
v 4.62589225 4.33813304 -1.22401484
v 4.62676097 4.32372535 -1.12445607
v 4.62632661 4.32375004 -1.17422569
v 4.57551099 4.27966141 -1.12445607
v 4.47909207 4.24662874 -1.07486186
v 4.57507691 4.27962409 -1.07486186
v 0.19017525 4.32372535 -1.07486186
v 0.18974089 4.33864003 -1.12445607
v 0.19017525 4.33862768 -1.17422569
v 0.19060946 4.33862768 -1.20412640
v 0.30744176 4.36819752 -1.17420624
v 0.24099072 4.35767296 -1.17420624
v 0.33740993 4.37297118 -1.12445607
v 4.47822335 4.37293415 -1.17422569
v 4.47909207 4.37293415 -1.17420624
v 4.57507691 4.35766061 -1.20412640
v 4.62545817 4.33862768 -1.20412640
v 4.62632661 4.33862768 -1.17422569
v 4.62676097 4.33864003 -1.12445607
v 4.62589225 4.32372535 -1.07486186
v 4.59288398 4.29473686 -1.07486186
v 0.19017525 4.33862768 -1.07486186
v 0.24099072 4.35771028 -1.07486186
v 0.24099072 4.35771028 -1.12445607
v 0.25749486 4.36033194 -1.12445607
v 0.33740993 4.37297118 -1.07486186
v 4.47909207 4.37297118 -1.12445607
v 4.50341398 4.36913744 -1.12445607
v 4.57551099 4.35767296 -1.17420624
v 4.61069106 4.34456404 -1.17420624
v 4.62589225 4.33862768 -1.07486186
v 4.57551099 4.35771028 -1.12445607
v 4.60895390 4.34514511 -1.07486186
v 4.47909207 4.37297118 -1.07486186
v 4.54250272 4.36292921 -1.07486186
v 4.57507691 4.35771028 -1.07486186
f 1 2 3
f 1 3 12
f 1 12 4
f 1 4 14
f 1 14 5
f 1 5 6
f 1 6 2
f 2 6 19
f 2 19 7
f 2 7 22
f 2 22 8
f 2 8 9
f 2 9 3
f 3 10 11
f 3 11 26
f 3 26 12
f 3 9 10
f 4 12 13
f 4 13 29
f 4 29 14
f 5 14 30
f 5 30 15
f 5 15 16
f 5 16 6
f 6 16 15
f 6 15 17
f 6 17 18
f 6 18 19
f 7 20 21
f 7 21 22
f 7 19 38
f 7 38 20
f 8 22 23
f 8 23 24
f 8 24 25
f 8 25 10
f 8 10 9
f 10 25 11
f 11 25 45
f 11 45 26
f 12 27 28
f 12 28 13
f 12 26 27
f 13 28 49
f 13 49 29
f 14 29 30
f 15 30 54
f 15 54 31
f 15 31 17
f 17 31 18
f 18 31 32
f 18 32 33
f 18 33 34
f 18 34 35
f 18 35 36
f 18 36 19
f 19 36 37
f 19 37 38
f 20 39 21
f 20 38 59
f 20 59 39
f 21 39 40
f 21 40 41
f 21 41 42
f 21 42 22
f 22 42 43
f 22 43 23
f 23 43 44
f 23 44 24
f 24 44 25
f 25 44 46
f 25 46 43
f 25 43 62
f 25 62 45
f 26 45 47
f 26 47 27
f 27 47 28
f 28 48 68
f 28 68 49
f 28 47 50
f 28 50 48
f 29 51 30
f 29 49 51
f 30 51 52
f 30 52 53
f 30 53 54
f 31 54 55
f 31 55 32
f 32 55 73
f 32 73 56
f 32 56 57
f 32 57 34
f 32 34 33
f 34 57 56
f 34 56 35
f 35 56 58
f 35 58 37
f 35 37 36
f 37 59 38
f 37 58 60
f 37 60 59
f 39 59 60
f 39 60 75
f 39 75 74
f 39 74 85
f 39 85 87
f 39 87 90
f 39 90 89
f 39 89 88
f 39 88 80
f 39 80 77
f 39 77 76
f 39 76 61
f 39 61 40
f 40 61 43
f 40 43 41
f 41 43 42
f 43 46 44
f 43 61 76
f 43 76 62
f 45 62 63
f 45 63 64
f 45 64 47
f 47 65 50
f 47 64 66
f 47 66 65
f 48 50 67
f 48 67 81
f 48 81 68
f 49 68 69
f 49 69 70
f 49 70 51
f 50 65 67
f 51 70 52
f 52 70 53
f 53 55 54
f 53 70 55
f 55 70 71
f 55 71 72
f 55 72 73
f 56 74 75
f 56 75 58
f 56 73 85
f 56 85 74
f 58 75 60
f 62 76 77
f 62 77 78
f 62 78 66
f 62 66 63
f 63 66 64
f 65 79 67
f 65 66 79
f 66 78 79
f 67 79 80
f 67 80 88
f 67 88 81
f 68 81 69
f 69 81 82
f 69 82 83
f 69 83 70
f 70 83 84
f 70 84 71
f 71 84 72
f 72 84 73
f 73 84 83
f 73 83 86
f 73 86 87
f 73 87 85
f 77 80 79
f 77 79 78
f 81 88 82
f 82 88 89
f 82 89 86
f 82 86 83
f 86 90 87
f 86 89 90

