# https://github.com/mikedh/trimesh
v 4.84244738 3.99748392 1.27763572
v 4.86893966 3.99748392 1.20403769
v 4.83379347 4.06908312 1.26905846
v 4.78178644 3.99748392 1.27763572
v 4.84244738 0.24106919 1.27763572
v 4.86948282 3.99748392 1.10775148
v 4.84271265 4.08082091 1.20403769
v 4.86893966 0.24106919 1.20403769
v 4.79336116 4.06908312 1.26905846
v 4.74662848 3.99748392 1.20403769
v 4.78178644 0.24106919 1.27763572
v 4.83759563 0.14482109 1.27279373
v 4.86948282 3.99748392 -0.13566839
v 4.84299055 4.08121192 1.10775148
v 4.86948282 3.41960404 1.10775148
v 4.78156940 4.08082091 1.20403769
v 4.85899443 0.14482109 1.20403769
v 4.86947077 0.24106919 1.10775148
v 4.74619383 3.99748392 1.10775148
v 4.74618177 0.24106919 1.10775148
v 4.74662848 0.24106919 1.20403769
v 4.78731428 0.14482109 1.27279373
v 4.82733633 0.08848065 1.26269477
v 4.84299055 4.08121192 -0.13566839
v 4.86948282 3.41060533 -0.13566839
v 4.78135208 4.08121192 1.10775148
v 4.83276742 0.08456810 1.20403769
v 4.85928439 0.14482109 1.10775148
v 4.86854118 0.23207034 -0.13566839
v 4.86947077 0.24106919 -0.13566839
v 4.74940431 4.00530902 -0.13566839
v 4.74619383 3.99748392 -0.13566839
v 4.74618177 0.24967674 -0.13566839
v 4.74618177 0.24106919 -0.13566839
v 4.75657342 0.15342864 -0.13566839
v 4.75762358 0.14482109 1.10775148
v 4.75787707 0.14482109 1.20403769
v 4.80073554 0.08848065 1.26269477
v 4.78135208 4.08121192 -0.13566839
v 4.79281800 0.08456810 1.20403769
v 4.83279211 0.08417694 1.10775148
v 4.85928439 0.14482109 -0.13566839
v 4.75762358 0.14482109 -0.13566839
v 4.79278182 0.08417694 1.10775148
v 4.83279211 0.08417694 -0.13566839
v 4.79278182 0.08417694 -0.13566839
f 1 2 3
f 1 3 9
f 1 9 4
f 1 4 11
f 1 11 5
f 1 5 8
f 1 8 2
f 2 6 7
f 2 7 3
f 2 8 15
f 2 15 6
f 3 7 16
f 3 16 9
f 4 9 10
f 4 10 21
f 4 21 11
f 5 11 22
f 5 22 12
f 5 12 8
f 6 13 24
f 6 24 14
f 6 14 7
f 6 15 25
f 6 25 13
f 7 14 26
f 7 26 16
f 8 12 17
f 8 17 18
f 8 18 15
f 9 16 10
f 10 16 19
f 10 19 20
f 10 20 21
f 11 21 22
f 12 22 38
f 12 38 23
f 12 23 17
f 13 25 30
f 13 30 29
f 13 29 42
f 13 42 45
f 13 45 46
f 13 46 43
f 13 43 35
f 13 35 34
f 13 34 33
f 13 33 32
f 13 32 31
f 13 31 39
f 13 39 24
f 14 24 39
f 14 39 26
f 15 18 25
f 16 26 19
f 17 23 27
f 17 27 28
f 17 28 18
f 18 28 29
f 18 29 30
f 18 30 25
f 19 26 31
f 19 31 32
f 19 32 33
f 19 33 20
f 20 33 34
f 20 34 35
f 20 35 36
f 20 36 37
f 20 37 21
f 21 37 22
f 22 37 38
f 23 38 40
f 23 40 27
f 26 39 31
f 27 40 44
f 27 44 41
f 27 41 28
f 28 41 45
f 28 45 42
f 28 42 29
f 35 43 36
f 36 43 46
f 36 46 44
f 36 44 37
f 37 44 40
f 37 40 38
f 41 44 46
f 41 46 45

