# https://github.com/mikedh/trimesh
v 2.51389448 4.24662874 -1.07485209
v 2.51389448 4.24662874 1.00616639
v 2.51389448 4.37297118 -1.07485209
v 4.47930107 4.24662874 -1.07485209
v 2.51389448 4.37297118 1.00616639
v 4.47930107 4.24662874 1.00616639
v 4.47930107 4.37297118 -1.07485209
v 4.57547194 4.27961835 -1.07485209
v 4.57030153 4.27779995 1.00616639
v 4.47930107 4.37297118 1.00616639
v 4.54258770 4.36293955 -1.07485209
v 4.59305164 4.29470901 -1.07485209
v 4.57547194 4.27961835 1.00616639
v 4.57547194 4.35771946 1.00616639
v 4.57547194 4.35771946 -1.07485209
v 4.62676327 4.32372793 -1.07485209
v 4.62676327 4.32372793 1.00616639
v 4.57836749 4.35666816 1.00616639
v 4.62676327 4.33865812 -1.07485209
v 4.62676327 4.33865812 1.00616639
f 1 2 5
f 1 5 3
f 1 3 7
f 1 7 11
f 1 11 15
f 1 15 19
f 1 19 16
f 1 16 12
f 1 12 8
f 1 8 4
f 1 4 6
f 1 6 2
f 2 6 9
f 2 9 13
f 2 13 17
f 2 17 20
f 2 20 18
f 2 18 14
f 2 14 10
f 2 10 5
f 3 5 10
f 3 10 7
f 4 8 9
f 4 9 6
f 7 10 11
f 8 12 13
f 8 13 9
f 10 14 11
f 11 14 15
f 12 16 17
f 12 17 13
f 14 18 15
f 15 18 19
f 16 19 20
f 16 20 17
f 18 20 19

