# https://github.com/mikedh/trimesh
v -4.74618091 -0.66710549 1.08884135
v -4.86946934 -0.66710549 1.08884135
v -4.74618091 -3.13043096 1.08884135
v -4.74618091 -0.66710549 -1.09512652
v -4.86946934 -0.66710549 -1.09512652
v -4.86948139 -1.30106686 1.08884135
v -4.74619297 -3.99765801 1.08884135
v -4.74618091 -3.13043096 -1.09512652
v -4.86948139 -1.30106686 -1.09512652
v -4.86948139 -3.99765801 1.08884135
v -4.78135093 -4.08120572 1.08884135
v -4.76220892 -4.03575573 -0.29302713
v -4.74619297 -3.99765801 -1.09512652
v -4.86948139 -3.99765801 -1.09512652
v -4.84297706 -4.08120572 -0.29324092
v -4.84296500 -4.08120572 1.08884135
v -4.78135093 -4.08120572 -1.09512652
v -4.76220892 -4.03575573 -0.29324092
v -4.84297706 -4.08120572 -1.09512652
f 1 2 6
f 1 6 10
f 1 10 16
f 1 16 11
f 1 11 7
f 1 7 3
f 1 3 8
f 1 8 4
f 1 4 5
f 1 5 2
f 2 5 9
f 2 9 6
f 3 7 13
f 3 13 8
f 4 8 13
f 4 13 17
f 4 17 19
f 4 19 14
f 4 14 9
f 4 9 5
f 6 9 14
f 6 14 10
f 7 11 12
f 7 12 18
f 7 18 13
f 10 14 19
f 10 19 15
f 10 15 16
f 11 16 15
f 11 15 19
f 11 19 17
f 11 17 18
f 11 18 12
f 13 18 17

