# https://github.com/mikedh/trimesh
v -4.47865829 4.29080953 -1.27387217
v -4.47822393 4.24669075 -1.20409044
v -4.47865829 4.25928176 -1.22400020
v -4.57507749 4.30733390 -1.26528098
v -4.47865829 4.35385242 -1.27387217
v -0.33784013 4.29080953 -1.27387217
v -4.47822393 4.24666578 -1.17422577
v -4.47909237 4.24665343 -1.12445126
v -4.50341456 4.25491576 -1.12445126
v -4.57464313 4.27972715 -1.20409044
v -4.57507749 4.28869456 -1.22400020
v -4.50992940 4.26641872 -1.22400020
v -0.33784013 4.24669075 -1.20409044
v -4.59462201 4.29832974 -1.22400020
v -4.62502439 4.32748244 -1.25520915
v -4.57507749 4.34623345 -1.26528098
v -4.47865829 4.36748268 -1.22400020
v -0.33784013 4.35385242 -1.27387217
v -0.24142093 4.30733390 -1.26528098
v -4.47822393 4.24664109 -1.12447071
v -4.47909237 4.24664109 -1.10779483
v -0.33784013 4.24666578 -1.17422577
v -0.96630295 4.24664109 -1.14252984
v -1.30116456 4.24661640 -1.10779483
v -4.47909237 4.24664109 -1.07485209
v -4.57551185 4.27962840 -1.07485209
v -4.57551185 4.27962840 -1.10779483
v -4.57551185 4.27964074 -1.12445126
v -4.62676184 4.32372248 -1.10779483
v -4.62589311 4.32375951 -1.17422577
v -4.62502439 4.32375951 -1.20409044
v -4.62589311 4.32520671 -1.22400020
v -0.24142093 4.28869456 -1.22400020
v -0.24142093 4.27972715 -1.20409044
v -0.25749070 4.27393864 -1.12445126
v -4.62502439 4.33735274 -1.25520915
v -4.57507749 4.35395146 -1.22400020
v -4.47822393 4.37291262 -1.20409044
v -0.33784013 4.36748268 -1.22400020
v -0.24142093 4.34623345 -1.26528098
v -0.19147388 4.32748244 -1.25520915
v -1.36457549 4.24661640 -1.07485209
v -0.33784013 4.24662874 -1.12447071
v -0.33784013 4.24661640 -1.10779483
v -4.62676184 4.32372248 -1.07485209
v -4.62676184 4.33865151 -1.10779483
v -4.62589311 4.33813189 -1.22400020
v -0.19060531 4.32519437 -1.22400020
v -0.19060531 4.32375951 -1.20409044
v -0.19017095 4.32374717 -1.17422577
v -0.18973658 4.32371013 -1.10779483
v -0.24142093 4.27967777 -1.17422577
v -0.33784013 4.24661640 -1.07485209
v -0.24142093 4.27962840 -1.12447071
v -0.24142093 4.27962840 -1.07485209
v -4.57464313 4.35767439 -1.20409044
v -4.55900787 4.36033367 -1.12445126
v -4.47909237 4.37296200 -1.12445126
v -4.47822393 4.37293731 -1.17422577
v -0.33784013 4.37291262 -1.20409044
v -0.24142093 4.35767439 -1.20409044
v -0.22187641 4.34975829 -1.22400020
v -0.19147388 4.33735274 -1.25520915
v -4.62676184 4.33865151 -1.07485209
v -4.62589311 4.33860185 -1.17422577
v -4.57551185 4.35771143 -1.12445126
v -0.19060531 4.33813189 -1.22400020
v -0.19017095 4.33861419 -1.17422577
v -0.18973658 4.33865151 -1.10779483
v -0.18973658 4.32371013 -1.07485209
v -4.51210092 4.36775484 -1.07485209
v -4.57551185 4.35771143 -1.07485209
v -4.47909237 4.37296200 -1.07485209
v -4.47822393 4.37297434 -1.12447071
v -0.96630295 4.37296200 -1.14282203
v -0.96630295 4.37294965 -1.15893299
v -0.33784013 4.37293731 -1.17422577
v -0.31308386 4.36914002 -1.12445126
v -0.24142093 4.35771143 -1.12447071
v -0.19060531 4.33861419 -1.20409044
v -0.18973658 4.33865151 -1.07485209
v -0.33784013 4.37296200 -1.07485209
v -0.96630295 4.37297434 -1.12447071
v -0.33784013 4.37296200 -1.12447071
v -0.24142093 4.35771143 -1.07485209
f 1 2 3
f 1 3 4
f 1 4 16
f 1 16 5
f 1 5 18
f 1 18 6
f 1 6 13
f 1 13 2
f 2 7 8
f 2 8 9
f 2 9 10
f 2 10 11
f 2 11 12
f 2 12 3
f 2 13 22
f 2 22 7
f 3 12 4
f 4 11 14
f 4 14 15
f 4 15 36
f 4 36 16
f 4 12 11
f 5 16 17
f 5 17 39
f 5 39 18
f 6 18 40
f 6 40 19
f 6 19 13
f 7 20 21
f 7 21 8
f 7 22 23
f 7 23 24
f 7 24 20
f 8 21 9
f 9 21 25
f 9 25 26
f 9 26 27
f 9 27 28
f 9 28 10
f 10 28 29
f 10 29 30
f 10 30 31
f 10 31 32
f 10 32 14
f 10 14 11
f 13 19 33
f 13 33 34
f 13 34 35
f 13 35 22
f 14 32 15
f 15 32 47
f 15 47 36
f 16 36 37
f 16 37 38
f 16 38 17
f 17 38 60
f 17 60 39
f 18 39 40
f 19 40 63
f 19 63 41
f 19 41 33
f 20 42 21
f 20 24 42
f 21 42 25
f 22 35 43
f 22 43 23
f 23 43 44
f 23 44 24
f 24 44 53
f 24 53 42
f 25 42 53
f 25 53 55
f 25 55 70
f 25 70 81
f 25 81 85
f 25 85 82
f 25 82 73
f 25 73 71
f 25 71 72
f 25 72 64
f 25 64 45
f 25 45 26
f 26 45 29
f 26 29 27
f 27 29 28
f 29 45 64
f 29 64 46
f 29 46 47
f 29 47 32
f 29 32 30
f 30 32 31
f 33 41 34
f 34 41 48
f 34 48 49
f 34 49 50
f 34 50 51
f 34 51 52
f 34 52 35
f 35 53 44
f 35 44 43
f 35 52 54
f 35 54 55
f 35 55 53
f 36 47 56
f 36 56 37
f 37 56 38
f 38 56 57
f 38 57 58
f 38 58 59
f 38 59 77
f 38 77 60
f 39 60 40
f 40 60 61
f 40 61 62
f 40 62 63
f 41 63 67
f 41 67 48
f 46 65 47
f 46 64 72
f 46 72 66
f 46 66 56
f 46 56 65
f 47 65 56
f 48 67 68
f 48 68 50
f 48 50 49
f 50 68 69
f 50 69 51
f 51 69 81
f 51 81 70
f 51 70 55
f 51 55 54
f 51 54 52
f 56 66 57
f 57 71 58
f 57 66 72
f 57 72 71
f 58 71 73
f 58 73 74
f 58 74 59
f 59 74 75
f 59 75 76
f 59 76 77
f 60 77 78
f 60 78 61
f 61 79 69
f 61 69 68
f 61 68 80
f 61 80 67
f 61 67 62
f 61 78 79
f 62 67 63
f 67 80 68
f 69 79 85
f 69 85 81
f 73 82 83
f 73 83 74
f 74 83 75
f 75 83 77
f 75 77 76
f 77 83 84
f 77 84 78
f 78 84 82
f 78 82 85
f 78 85 79
f 82 84 83

