# https://github.com/mikedh/trimesh
v -0.53024575 -4.35384134 -1.27387188
v -0.53024575 -4.29081739 -1.27387188
v -0.33740720 -4.35384134 -1.27387188
v -4.47909294 -4.37291561 -1.20406826
v -4.47909294 -4.35384134 -1.27377930
v -0.33740720 -4.29081739 -1.27387188
v -4.47909294 -4.29081739 -1.27377930
v -4.47909294 -4.24674398 -1.20406826
v -0.33740720 -4.37291561 -1.20406826
v -0.24098800 -4.34619682 -1.26516959
v -4.47909294 -4.37296499 -1.10769492
v -4.57551214 -4.35766360 -1.20406826
v -4.57551214 -4.34619682 -1.26516959
v -1.20431215 -4.37297733 -1.10769492
v -0.33740720 -4.24674398 -1.20406826
v -0.24098800 -4.30738052 -1.26516959
v -4.57551214 -4.30738052 -1.26516959
v -4.57551214 -4.27968449 -1.20406826
v -4.47909294 -4.24660790 -1.10769492
v -0.24098800 -4.35766360 -1.20406826
v -0.33740720 -4.37297733 -1.10769492
v -0.19104096 -4.33735257 -1.25507867
v -1.24730985 -4.37297733 -0.95531201
v -1.24948136 -4.37297733 -0.57268844
v -4.47909294 -4.37296499 -0.32809816
v -4.52426245 -4.36585243 -0.57268844
v -4.56639143 -4.35918515 -0.90587555
v -4.57551214 -4.35767594 -0.90587555
v -4.59853125 -4.34916557 -0.95531201
v -4.62676212 -4.33865134 -1.10769492
v -4.62632776 -4.33863900 -1.20406826
v -4.62545904 -4.33735257 -1.25517126
v -0.33740720 -4.24662025 -1.10769492
v -0.24098800 -4.27962277 -1.10769492
v -0.24098800 -4.27975885 -1.20406826
v -0.19104096 -4.32749375 -1.25507867
v -4.62545904 -4.32749375 -1.25517126
v -4.57768394 -4.28147821 -1.10362154
v -4.57551214 -4.27962277 -1.10769492
v -4.62632776 -4.32375819 -1.20406826
v -4.62676212 -4.32367149 -1.10769492
v -4.47909294 -4.24660790 -0.32809816
v -4.43566088 -4.24660790 -0.95531201
v -4.53555468 -4.26587997 -0.95531201
v -4.49081953 -4.25057859 -0.80728031
v -4.48691086 -4.24923015 -0.42595279
v -0.23881634 -4.35690914 -1.10362154
v -0.24098800 -4.35768829 -0.70905534
v -0.28268276 -4.36433088 -0.85653167
v -0.28094546 -4.36404638 -0.95531201
v -0.19017238 -4.33862665 -1.20406826
v -0.18973802 -4.33865134 -1.10769492
v -0.32568061 -4.37113424 -0.80728031
v -0.33740720 -4.37297733 -0.32809816
v -1.24861279 -4.37297733 -0.47483381
v -4.57551214 -4.35767594 -0.32809816
v -4.52252500 -4.36612459 -0.37707176
v -4.52339372 -4.36598851 -0.47483381
v -1.24774421 -4.37297733 -0.37707176
v -1.20431215 -4.37297733 -0.32809816
v -4.59853125 -4.34916557 -0.37707176
v -4.62676212 -4.33865134 -0.32809816
v -0.33740720 -4.24662025 -0.32809816
v -0.24533118 -4.27807653 -0.62166204
v -0.29267220 -4.26190929 -1.05409242
v -4.43392344 -4.24660790 -0.57268844
v -0.24098800 -4.27962277 -0.32809816
v -0.21796889 -4.29937714 -0.95531201
v -0.18973802 -4.32367149 -1.10769492
v -0.19017238 -4.32377054 -1.20406826
v -4.57551214 -4.27962277 -0.32809816
v -4.60461173 -4.30459723 -0.85653167
v -4.62676212 -4.32367149 -0.32809816
v -4.43566088 -4.24660790 -0.37707176
v -4.48821366 -4.24972508 -0.32809816
v -4.53425188 -4.26545939 -0.47483381
v -0.24098800 -4.35767594 -0.32809816
v -0.24098800 -4.35768829 -0.62166204
v -0.21101983 -4.34659271 -0.95531201
v -0.18973802 -4.33865134 -0.32809816
v -0.18973802 -4.32367149 -0.32809816
f 1 2 6
f 1 6 3
f 1 3 9
f 1 9 4
f 1 4 5
f 1 5 7
f 1 7 2
f 2 7 8
f 2 8 15
f 2 15 6
f 3 6 16
f 3 16 10
f 3 10 9
f 4 11 12
f 4 12 13
f 4 13 5
f 4 9 21
f 4 21 14
f 4 14 11
f 5 13 17
f 5 17 7
f 6 15 16
f 7 17 8
f 8 17 18
f 8 18 19
f 8 19 15
f 9 10 20
f 9 20 21
f 10 16 36
f 10 36 22
f 10 22 20
f 11 23 24
f 11 24 25
f 11 25 26
f 11 26 27
f 11 27 12
f 11 14 23
f 12 27 28
f 12 28 29
f 12 29 30
f 12 30 31
f 12 31 32
f 12 32 13
f 13 32 37
f 13 37 17
f 14 21 54
f 14 54 60
f 14 60 59
f 14 59 55
f 14 55 24
f 14 24 23
f 15 33 34
f 15 34 35
f 15 35 16
f 15 19 33
f 16 35 36
f 17 37 18
f 18 38 39
f 18 39 19
f 18 37 40
f 18 40 41
f 18 41 38
f 19 42 74
f 19 74 66
f 19 66 43
f 19 43 33
f 19 39 44
f 19 44 45
f 19 45 46
f 19 46 42
f 20 47 48
f 20 48 49
f 20 49 50
f 20 50 21
f 20 22 51
f 20 51 52
f 20 52 47
f 21 50 49
f 21 49 53
f 21 53 54
f 22 36 70
f 22 70 51
f 24 55 25
f 25 56 57
f 25 57 58
f 25 58 26
f 25 55 59
f 25 59 60
f 25 60 54
f 25 54 77
f 25 77 80
f 25 80 81
f 25 81 67
f 25 67 63
f 25 63 42
f 25 42 75
f 25 75 71
f 25 71 73
f 25 73 62
f 25 62 56
f 26 58 27
f 27 58 57
f 27 57 56
f 27 56 28
f 28 56 61
f 28 61 29
f 29 61 62
f 29 62 30
f 30 41 40
f 30 40 31
f 30 62 73
f 30 73 41
f 31 40 37
f 31 37 32
f 33 63 64
f 33 64 65
f 33 65 34
f 33 43 66
f 33 66 63
f 34 65 64
f 34 64 67
f 34 67 68
f 34 68 69
f 34 69 35
f 35 69 70
f 35 70 36
f 38 71 39
f 38 41 72
f 38 72 71
f 39 71 44
f 41 73 72
f 42 46 75
f 42 63 74
f 44 76 46
f 44 46 45
f 44 71 76
f 46 76 71
f 46 71 75
f 47 77 78
f 47 78 48
f 47 52 79
f 47 79 77
f 48 78 49
f 49 54 53
f 49 78 77
f 49 77 54
f 51 70 69
f 51 69 52
f 52 69 81
f 52 81 80
f 52 80 79
f 56 62 61
f 63 67 64
f 63 66 74
f 67 81 68
f 68 81 69
f 71 72 73
f 77 79 80

