# https://github.com/mikedh/trimesh
v -4.78178501 -0.24106327 1.27761735
v -4.74662705 -0.24106327 1.20411858
v -4.78731285 -0.14481518 1.27283435
v -4.84244595 -0.24106327 1.27761735
v -4.78178501 -3.99747772 1.27761735
v -4.74619269 -0.24106327 1.10781306
v -4.75787564 -0.14481518 1.20411858
v -4.74662705 -3.99747772 1.20411858
v -4.80073411 -0.08847473 1.26280674
v -4.83759420 -0.14481518 1.27283435
v -4.86893823 -0.24106327 1.20411858
v -4.84244595 -3.99747772 1.27761735
v -4.79335973 -4.06907692 1.26917789
v -4.74619269 -0.24106327 1.08897672
v -4.75762215 -0.14481518 1.10781306
v -4.74619269 -3.99747772 1.10781306
v -4.79278039 -0.08417103 1.10781306
v -4.79281657 -0.08456233 1.20411858
v -4.78156797 -4.08081442 1.20411858
v -4.82733490 -0.08847473 1.26280674
v -4.85899300 -0.14481518 1.20411858
v -4.86946934 -0.24106327 1.10781306
v -4.86948139 -1.30057480 1.10781306
v -4.86893823 -3.99747772 1.20411858
v -4.83379204 -4.06907692 1.26917789
v -4.75762215 -0.14481518 1.08897672
v -4.74619269 -3.99747772 1.08897672
v -4.78135065 -4.08120572 1.10781306
v -4.79278039 -0.08417103 1.08897672
v -4.83279011 -0.08417103 1.10781306
v -4.83276599 -0.08456233 1.20411858
v -4.84271122 -4.08081442 1.20411858
v -4.85928238 -0.14481518 1.10781306
v -4.86127419 -0.16359533 1.08897672
v -4.86946934 -0.24106327 1.08897672
v -4.86948139 -1.30057480 1.08897672
v -4.86948139 -3.99747772 1.10781306
v -4.78135065 -4.08120572 1.08897672
v -4.84298912 -4.08120572 1.10781306
v -4.83279011 -0.08417103 1.08897672
v -4.85928238 -0.14481518 1.08897672
v -4.86948139 -3.99747772 1.08897672
v -4.86430351 -4.01391051 1.08897672
v -4.84298912 -4.08120572 1.08897672
f 1 2 3
f 1 3 10
f 1 10 4
f 1 4 12
f 1 12 5
f 1 5 8
f 1 8 2
f 2 6 7
f 2 7 3
f 2 8 16
f 2 16 6
f 3 9 20
f 3 20 10
f 3 7 9
f 4 10 11
f 4 11 24
f 4 24 12
f 5 12 25
f 5 25 13
f 5 13 8
f 6 14 26
f 6 26 15
f 6 15 7
f 6 16 27
f 6 27 14
f 7 15 17
f 7 17 18
f 7 18 9
f 8 13 19
f 8 19 16
f 9 18 31
f 9 31 20
f 10 20 21
f 10 21 11
f 11 21 22
f 11 22 23
f 11 23 37
f 11 37 24
f 12 24 25
f 13 25 32
f 13 32 19
f 14 27 38
f 14 38 44
f 14 44 43
f 14 43 42
f 14 42 36
f 14 36 35
f 14 35 34
f 14 34 41
f 14 41 40
f 14 40 29
f 14 29 26
f 15 26 29
f 15 29 17
f 16 19 28
f 16 28 38
f 16 38 27
f 17 29 40
f 17 40 30
f 17 30 31
f 17 31 18
f 19 32 39
f 19 39 28
f 20 31 21
f 21 33 22
f 21 31 33
f 22 33 34
f 22 34 35
f 22 35 36
f 22 36 23
f 23 36 42
f 23 42 37
f 24 37 32
f 24 32 25
f 28 39 44
f 28 44 38
f 30 40 41
f 30 41 33
f 30 33 31
f 32 37 39
f 33 41 34
f 37 42 43
f 37 43 39
f 39 43 44

