# https://github.com/mikedh/trimesh
v -4.62676212 -4.33856780 1.10826601
v -4.62632776 -4.33862981 1.15802867
v -4.62589340 -4.33812253 1.22401685
v -4.62676212 -4.32371341 1.10826601
v -4.57551214 -4.35770178 1.10826601
v -4.57551214 -4.35767709 1.15802867
v -4.59983434 -4.34856154 1.15802867
v -4.62589340 -4.33862981 1.20411176
v -4.62502497 -4.33734338 1.25521978
v -4.62589340 -4.32519764 1.22401685
v -4.57507778 -4.35765240 1.20411176
v -4.62632776 -4.32373810 1.15802867
v -4.60200585 -4.30263758 1.15802867
v -4.57551214 -4.27965693 1.15802867
v -4.57551214 -4.27983033 1.10826601
v -4.57464371 -4.35785021 1.10826601
v -4.47909294 -4.37292738 1.15802867
v -4.57551214 -4.35394182 1.22401685
v -4.57551214 -4.34621175 1.26528586
v -4.62502497 -4.32748571 1.25521978
v -4.62589340 -4.32375044 1.20411176
v -4.59462229 -4.29830861 1.22401685
v -4.57507778 -4.27970660 1.20411176
v -4.47865858 -4.37289034 1.20411176
v -4.52947420 -4.26387497 1.15802867
v -4.47952730 -4.24676925 1.10826601
v -4.47909294 -4.37295207 1.10826601
v -1.20431215 -4.37296441 1.10826601
v -0.96196092 -4.37293972 1.15802867
v -4.47909294 -4.36746069 1.22401685
v -4.47909294 -4.35384306 1.27386054
v -4.57551214 -4.30732511 1.26528586
v -4.57551214 -4.28869841 1.22401685
v -4.47865858 -4.24668283 1.20411176
v -0.33784156 -4.37289034 1.20411176
v -4.47909294 -4.24664580 1.15802867
v -4.38310810 -4.24662111 1.10826601
v -0.33740720 -4.37296441 1.10826601
v -0.33784156 -4.37293972 1.15802867
v -0.33784156 -4.36746069 1.22401685
v -4.47909294 -4.29080103 1.27386054
v -0.33784156 -4.35384306 1.27386054
v -4.47909294 -4.25927384 1.22401685
v -4.51036405 -4.26641051 1.22401685
v -0.33784156 -4.24668283 1.20411176
v -0.33740720 -4.37292738 1.15802867
v -0.28702594 -4.36498687 1.15802867
v -0.24142222 -4.35765240 1.20411176
v -0.24142222 -4.35394182 1.22401685
v -0.24142222 -4.34621175 1.26528586
v -2.21801741 -4.24664580 1.15802867
v -0.33784156 -4.24662111 1.10826601
v -0.24098800 -4.35770178 1.10826601
v -0.33784156 -4.29080103 1.27386054
v -0.24142222 -4.30732511 1.26528586
v -0.24142222 -4.28869841 1.22401685
v -0.24142222 -4.27971894 1.20411176
v -0.24098800 -4.27966957 1.15802867
v -0.33740720 -4.24665814 1.15802867
v -0.24098800 -4.35767709 1.15802867
v -0.21449429 -4.34775770 1.15802867
v -0.19060674 -4.33861747 1.20411176
v -0.19060674 -4.33813488 1.22401685
v -0.22187785 -4.34974893 1.22401685
v -0.19147532 -4.33734338 1.25521978
v -0.24142222 -4.27945913 1.10826601
v -0.18973802 -4.33864216 1.10826601
v -0.19147532 -4.32748571 1.25521978
v -0.19060674 -4.32520999 1.22401685
v -0.19060674 -4.32375044 1.20411176
v -0.19017238 -4.32373810 1.15802867
v -0.18973802 -4.32384949 1.10826601
v -0.19017238 -4.33862981 1.15802867
f 1 2 3
f 1 3 10
f 1 10 4
f 1 4 15
f 1 15 26
f 1 26 37
f 1 37 52
f 1 52 66
f 1 66 72
f 1 72 67
f 1 67 53
f 1 53 38
f 1 38 28
f 1 28 27
f 1 27 16
f 1 16 5
f 1 5 6
f 1 6 7
f 1 7 2
f 2 8 3
f 2 7 8
f 3 9 20
f 3 20 10
f 3 8 11
f 3 11 9
f 4 10 12
f 4 12 13
f 4 13 14
f 4 14 15
f 5 16 6
f 6 8 7
f 6 16 17
f 6 17 11
f 6 11 8
f 9 18 19
f 9 19 32
f 9 32 20
f 9 11 18
f 10 21 12
f 10 20 22
f 10 22 23
f 10 23 21
f 11 17 24
f 11 24 18
f 12 21 13
f 13 21 14
f 14 21 23
f 14 23 25
f 14 25 26
f 14 26 15
f 16 27 17
f 17 27 28
f 17 28 29
f 17 29 24
f 18 24 19
f 19 24 30
f 19 30 31
f 19 31 41
f 19 41 32
f 20 33 22
f 20 32 33
f 22 33 23
f 23 34 25
f 23 33 34
f 24 29 39
f 24 39 35
f 24 35 40
f 24 40 30
f 25 34 36
f 25 36 26
f 26 36 37
f 28 38 39
f 28 39 29
f 30 40 42
f 30 42 31
f 31 42 54
f 31 54 41
f 32 41 43
f 32 43 44
f 32 44 33
f 33 44 34
f 34 44 43
f 34 43 41
f 34 41 54
f 34 54 45
f 34 45 51
f 34 51 36
f 35 39 46
f 35 46 47
f 35 47 48
f 35 48 49
f 35 49 50
f 35 50 40
f 36 51 52
f 36 52 37
f 38 47 46
f 38 46 39
f 38 53 47
f 40 50 42
f 42 50 55
f 42 55 54
f 45 54 55
f 45 55 56
f 45 56 57
f 45 57 58
f 45 58 59
f 45 59 52
f 45 52 51
f 47 53 60
f 47 60 48
f 48 60 61
f 48 61 62
f 48 62 63
f 48 63 64
f 48 64 49
f 49 64 50
f 50 64 65
f 50 65 68
f 50 68 55
f 52 59 66
f 53 67 60
f 55 68 56
f 56 68 57
f 57 68 69
f 57 69 70
f 57 70 58
f 58 70 71
f 58 71 72
f 58 72 66
f 58 66 59
f 60 67 61
f 61 67 73
f 61 73 62
f 62 73 63
f 63 65 64
f 63 73 67
f 63 67 72
f 63 72 69
f 63 69 68
f 63 68 65
f 69 72 71
f 69 71 70

