# https://github.com/mikedh/trimesh
v 0.33784156 -4.35384306 -1.27385552
v 0.33784156 -4.37291647 -1.20404630
v 0.24142221 -4.34619883 -1.26513974
v 0.33784156 -4.29082199 -1.27385552
v 4.47909322 -4.35384306 -1.27385552
v 0.33784156 -4.37297819 -1.10775772
v 0.33740720 -4.37297819 -1.10360740
v 0.24098785 -4.35771470 -1.10360740
v 0.24142221 -4.35762800 -1.20404630
v 4.47909322 -4.37291647 -1.20404630
v 0.24142221 -4.30733488 -1.26513974
v 0.19147531 -4.33731783 -1.25509590
v 0.33784156 -4.24672590 -1.20404630
v 2.65147002 -4.24811109 -1.20628744
v 4.47909322 -4.29082199 -1.27385552
v 4.57551271 -4.34619883 -1.26513974
v 4.47909322 -4.37297819 -1.10775772
v 0.29223784 -4.36585358 -0.57269220
v 0.25010857 -4.35918659 -0.90588380
v 0.33740720 -4.37297819 -0.47482652
v 0.21796888 -4.34917993 -0.95519021
v 0.18973802 -4.33862895 -1.10360740
v 0.24533117 -4.35841978 -0.62174961
v 0.24098785 -4.35771470 -0.47482652
v 0.19060659 -4.33862895 -1.20404630
v 4.57551271 -4.35762800 -1.20404630
v 4.57551271 -4.35771470 -1.10775772
v 0.24142221 -4.27968966 -1.20404630
v 0.19147531 -4.32747193 -1.25509590
v 0.33740720 -4.24661451 -1.10360740
v 0.33784156 -4.24661451 -1.10775772
v 4.47909322 -4.24672590 -1.20404630
v 2.65190438 -4.24811109 -1.20628744
v 4.57551271 -4.30733488 -1.26513974
v 4.62545932 -4.33731783 -1.25509590
v 4.48604242 -4.37190219 -1.00466263
v 4.47909322 -4.37297819 -0.42585216
v 0.33784156 -4.37297819 -0.42585216
v 0.18973802 -4.33862895 -0.47482652
v 0.18973802 -4.32369934 -1.10360740
v 0.24142221 -4.35771470 -0.42585216
v 0.19060659 -4.32372403 -1.20404630
v 4.62632804 -4.33862895 -1.20404630
v 4.62676241 -4.33862895 -1.10775772
v 4.60548074 -4.34658237 -0.95519021
v 4.57551271 -4.35771470 -0.42585216
v 4.53555496 -4.36407250 -0.95519021
v 0.24098785 -4.27966497 -1.10360740
v 0.28355134 -4.26501986 -1.05413498
v 0.33045800 -4.24893990 -1.00466263
v 0.33740720 -4.24661451 -0.47482652
v 4.47909322 -4.24661451 -1.10775772
v 4.57551271 -4.27970201 -1.20404630
v 4.62545932 -4.32747193 -1.25509590
v 4.53425217 -4.36425796 -0.47482652
v 0.19017238 -4.33862895 -0.42585216
v 0.18973802 -4.32369934 -0.47482652
v 0.21101969 -4.30535571 -0.95519021
v 4.62632804 -4.32373637 -1.20404630
v 4.62676241 -4.32369934 -1.10775772
v 4.62676241 -4.33862895 -0.47482652
v 4.60287486 -4.34754727 -0.57269220
v 4.62632804 -4.33862895 -0.42585216
v 0.24098785 -4.27966497 -0.47482652
v 0.28094546 -4.26589806 -0.95519021
v 0.28137982 -4.26574964 -0.75813072
v 0.28224840 -4.26546513 -0.47482652
v 0.33784156 -4.24661451 -0.42585216
v 0.33002378 -4.24923675 -0.42585216
v 4.47909322 -4.24661451 -0.42585216
v 4.52426273 -4.26201408 -0.57277521
v 4.52382837 -4.26190269 -1.05413498
v 4.57551271 -4.27965263 -1.10775772
v 0.19017238 -4.32369934 -0.42585216
v 0.24142221 -4.27965263 -0.42585216
v 0.21362571 -4.30314170 -0.57269220
v 4.62676241 -4.32369934 -0.47482652
v 4.59853154 -4.29936911 -0.95519021
v 4.62632804 -4.32369934 -0.42585216
v 4.57551271 -4.27965263 -0.42585216
v 4.52426273 -4.26201408 -0.57269220
v 4.56639199 -4.27647373 -0.90588380
v 4.56943223 -4.27752503 -0.52380085
f 1 2 3
f 1 3 11
f 1 11 4
f 1 4 15
f 1 15 5
f 1 5 10
f 1 10 2
f 2 6 7
f 2 7 8
f 2 8 9
f 2 9 3
f 2 10 17
f 2 17 6
f 3 9 12
f 3 12 29
f 3 29 11
f 4 11 13
f 4 13 14
f 4 14 33
f 4 33 15
f 5 15 34
f 5 34 16
f 5 16 10
f 6 17 37
f 6 37 38
f 6 38 20
f 6 20 7
f 7 18 19
f 7 19 8
f 7 20 18
f 8 21 22
f 8 22 9
f 8 19 23
f 8 23 24
f 8 24 21
f 9 22 25
f 9 25 12
f 10 16 26
f 10 26 27
f 10 27 17
f 11 28 13
f 11 29 28
f 12 25 42
f 12 42 29
f 13 28 30
f 13 30 31
f 13 31 52
f 13 52 32
f 13 32 33
f 13 33 14
f 15 32 34
f 15 33 32
f 16 34 54
f 16 54 35
f 16 35 26
f 17 27 36
f 17 36 37
f 18 23 19
f 18 20 24
f 18 24 23
f 20 38 41
f 20 41 24
f 21 24 39
f 21 39 22
f 22 40 42
f 22 42 25
f 22 39 57
f 22 57 40
f 24 41 56
f 24 56 39
f 26 35 43
f 26 43 44
f 26 44 27
f 27 44 45
f 27 45 46
f 27 46 47
f 27 47 36
f 28 29 42
f 28 42 40
f 28 40 48
f 28 48 30
f 30 49 50
f 30 50 51
f 30 51 68
f 30 68 70
f 30 70 52
f 30 52 31
f 30 48 49
f 32 52 53
f 32 53 34
f 34 53 54
f 35 54 59
f 35 59 43
f 36 47 37
f 37 47 55
f 37 55 46
f 37 46 63
f 37 63 79
f 37 79 80
f 37 80 70
f 37 70 68
f 37 68 69
f 37 69 75
f 37 75 74
f 37 74 56
f 37 56 41
f 37 41 38
f 39 56 74
f 39 74 57
f 40 57 58
f 40 58 48
f 43 59 60
f 43 60 44
f 44 60 77
f 44 77 61
f 44 61 45
f 45 62 46
f 45 61 62
f 46 55 47
f 46 62 61
f 46 61 63
f 48 64 65
f 48 65 49
f 48 58 64
f 49 65 50
f 50 65 66
f 50 66 67
f 50 67 51
f 51 67 69
f 51 69 68
f 52 70 81
f 52 81 71
f 52 71 72
f 52 72 53
f 53 73 60
f 53 60 59
f 53 59 54
f 53 72 73
f 57 74 75
f 57 75 64
f 57 64 76
f 57 76 58
f 58 76 64
f 60 73 78
f 60 78 77
f 61 77 79
f 61 79 63
f 64 75 67
f 64 67 66
f 64 66 65
f 67 75 69
f 70 80 81
f 71 81 82
f 71 82 72
f 72 82 73
f 73 82 83
f 73 83 80
f 73 80 78
f 77 78 80
f 77 80 79
f 80 83 81
f 81 83 82

