# https://github.com/mikedh/trimesh
v -4.86946876 -0.66710556 -1.09512652
v -4.86946876 -0.24086036 -1.09512652
v -4.74619297 -0.66710556 -1.09512652
v -4.86946876 -0.66710556 1.08897657
v -4.85928238 -0.14454150 -1.09512652
v -4.86946876 -0.24086036 1.08897657
v -4.86127361 -0.16331454 1.08897657
v -4.74618091 -0.63880335 -1.09512652
v -4.74619297 -0.66710556 1.08897657
v -4.85580635 -0.13661001 -1.09512652
v -4.85928238 -0.14454150 1.08897657
v -4.74618091 -0.24086036 -1.09512652
v -4.74618091 -0.62613583 1.08897657
v -4.83279011 -0.08417101 -1.09512652
v -4.83279011 -0.08417101 1.08897657
v -4.75762243 -0.14454150 -1.09512652
v -4.74618091 -0.24086036 1.08897657
v -4.79278039 -0.08417101 -1.09512652
v -4.79278039 -0.08417101 1.08897657
v -4.76448981 -0.13272987 1.08897657
v -4.75762243 -0.14454150 1.08897657
f 1 2 5
f 1 5 10
f 1 10 14
f 1 14 18
f 1 18 16
f 1 16 12
f 1 12 8
f 1 8 3
f 1 3 9
f 1 9 4
f 1 4 6
f 1 6 2
f 2 6 7
f 2 7 5
f 3 8 9
f 4 9 13
f 4 13 17
f 4 17 21
f 4 21 20
f 4 20 19
f 4 19 15
f 4 15 11
f 4 11 7
f 4 7 6
f 5 7 11
f 5 11 10
f 8 12 17
f 8 17 13
f 8 13 9
f 10 11 15
f 10 15 14
f 12 16 21
f 12 21 17
f 14 15 19
f 14 19 18
f 16 18 20
f 16 20 21
f 18 19 20

