# https://github.com/mikedh/trimesh
v -4.78179764 3.99748421 1.27763572
v -4.74663968 3.99748421 1.20384950
v -4.79337208 4.06908340 1.26888147
v -4.84242184 3.99748421 1.27763572
v -4.78179764 0.24106976 1.27763572
v -4.74619297 3.99748421 1.10755232
v -4.78135093 4.08121220 1.10755232
v -4.78158032 4.08042990 1.20384950
v -4.74663968 0.24106976 1.20384950
v -4.83376792 4.06908340 1.26888147
v -4.86891411 3.99748421 1.20384950
v -4.84242184 0.24106976 1.27763572
v -4.78731313 0.14482166 1.27263325
v -4.74618091 3.99709291 1.09354547
v -4.74619297 3.99748421 -1.10778378
v -4.75127410 4.00961301 1.09354547
v -4.74619297 0.24106976 1.10755232
v -4.78135093 4.08121220 -1.10778378
v -4.84296500 4.08121220 1.10755232
v -4.84269973 4.08042990 1.20384950
v -4.75788827 0.14482166 1.20384950
v -4.86946934 3.99748421 1.10755232
v -4.86948139 2.93758153 1.10755232
v -4.86891411 0.24106976 1.20384950
v -4.83759420 0.14482166 1.27263325
v -4.80074645 0.08848122 1.26237826
v -4.74618091 3.61170951 1.09354547
v -4.74618091 3.99709291 -1.08602311
v -4.74662762 3.99748421 -1.20408097
v -4.74619297 0.24106976 -1.10778378
v -4.75763478 0.14482166 1.10755232
v -4.75762272 0.14482166 -1.08602311
v -4.74618091 1.10808509 -0.65856355
v -4.74618091 1.10847631 1.09304522
v -4.78156826 4.08042990 -1.20408097
v -4.84297706 4.08121220 -1.10778378
v -4.84297706 4.08121220 -1.08602311
v -4.79281685 0.08495997 1.20384950
v -4.86946934 3.99748421 -1.10778378
v -4.86948139 2.94501533 -0.03900980
v -4.86353125 4.01626450 -1.08602311
v -4.86948139 0.24106976 1.10755232
v -4.85896889 0.14482166 1.20384950
v -4.82732342 0.08848122 1.26237826
v -4.74618091 3.58979912 -1.08602311
v -4.78178558 3.99748421 -1.27761706
v -4.79336002 4.06908340 -1.26911286
v -4.74662762 0.24106976 -1.20408097
v -4.74618091 1.10808509 -1.08577298
v -4.75762272 0.14482166 -1.10778378
v -4.75787622 0.14482166 -1.20408097
v -4.78771161 0.09356752 1.09354547
v -4.79279274 0.08417752 -0.65856355
v -4.76551614 0.13112781 -1.08602311
v -4.84269973 4.08042990 -1.20408097
v -4.83275451 0.08495997 1.20384950
v -4.86892617 3.99748421 -1.20408097
v -4.86948139 2.93758153 -1.10778378
v -4.86948139 0.24106976 -1.10778378
v -4.86157620 0.16634047 -1.08577298
v -4.85927090 0.14482166 1.10755232
v -4.85543256 0.13582282 1.09354547
v -4.84243389 3.99748421 -1.27761706
v -4.78178558 0.24106976 -1.27761706
v -4.83377998 4.06908340 -1.26911286
v -4.78731313 0.14482166 -1.27261459
v -4.79279274 0.08417752 -1.10778378
v -4.80073439 0.08848122 -1.26260965
v -4.79281685 0.08495997 -1.20408097
v -4.83279068 0.08417752 -0.65856355
v -4.83279068 0.08495997 1.09304522
v -4.86892617 0.24106976 -1.20408097
v -4.85898094 0.14482166 -1.20408097
v -4.85927090 0.14482166 -1.10778378
v -4.85928296 0.14482166 -1.08577298
v -4.85928296 0.14482166 -0.65856355
v -4.83279068 0.08417752 -1.08577298
v -4.84243389 0.24106976 -1.27761706
v -4.83759420 0.14482166 -1.27261459
v -4.83277862 0.08417752 -1.10778378
v -4.82732342 0.08848122 -1.26260965
v -4.83275451 0.08495997 -1.20408097
f 1 2 3
f 1 3 10
f 1 10 4
f 1 4 12
f 1 12 5
f 1 5 9
f 1 9 2
f 2 6 7
f 2 7 8
f 2 8 3
f 2 9 17
f 2 17 6
f 3 8 20
f 3 20 10
f 4 10 11
f 4 11 24
f 4 24 12
f 5 12 25
f 5 25 13
f 5 13 9
f 6 14 28
f 6 28 15
f 6 15 16
f 6 16 7
f 6 17 27
f 6 27 14
f 7 18 36
f 7 36 37
f 7 37 19
f 7 19 20
f 7 20 8
f 7 16 18
f 9 13 21
f 9 21 17
f 10 20 11
f 11 20 22
f 11 22 23
f 11 23 42
f 11 42 24
f 12 24 25
f 13 25 44
f 13 44 26
f 13 26 21
f 14 27 34
f 14 34 33
f 14 33 49
f 14 49 45
f 14 45 28
f 15 29 18
f 15 18 16
f 15 28 45
f 15 45 30
f 15 30 48
f 15 48 29
f 17 21 31
f 17 31 32
f 17 32 50
f 17 50 30
f 17 30 49
f 17 49 33
f 17 33 34
f 17 34 27
f 18 35 55
f 18 55 36
f 18 29 35
f 19 37 22
f 19 22 20
f 21 26 38
f 21 38 31
f 22 39 40
f 22 40 23
f 22 37 41
f 22 41 39
f 23 40 58
f 23 58 59
f 23 59 42
f 24 42 43
f 24 43 25
f 25 43 44
f 26 44 56
f 26 56 38
f 29 46 47
f 29 47 35
f 29 48 64
f 29 64 46
f 30 45 49
f 30 50 51
f 30 51 48
f 31 38 52
f 31 52 53
f 31 53 54
f 31 54 32
f 32 54 50
f 35 47 65
f 35 65 55
f 36 55 39
f 36 39 41
f 36 41 37
f 38 56 70
f 38 70 53
f 38 53 52
f 39 55 57
f 39 57 58
f 39 58 40
f 42 59 60
f 42 60 61
f 42 61 43
f 43 61 62
f 43 62 56
f 43 56 44
f 46 63 65
f 46 65 47
f 46 64 78
f 46 78 63
f 48 51 66
f 48 66 64
f 50 54 67
f 50 67 51
f 51 68 66
f 51 67 69
f 51 69 68
f 53 70 77
f 53 77 80
f 53 80 67
f 53 67 54
f 55 65 57
f 56 71 70
f 56 62 71
f 57 65 63
f 57 63 78
f 57 78 72
f 57 72 59
f 57 59 58
f 59 72 73
f 59 73 74
f 59 74 60
f 60 75 76
f 60 76 61
f 60 74 75
f 61 76 62
f 62 77 70
f 62 70 71
f 62 76 75
f 62 75 77
f 64 66 79
f 64 79 78
f 66 68 81
f 66 81 79
f 67 80 82
f 67 82 69
f 68 69 82
f 68 82 81
f 72 78 79
f 72 79 73
f 73 79 81
f 73 81 82
f 73 82 80
f 73 80 74
f 74 80 77
f 74 77 75

