# https://github.com/mikedh/trimesh
v -4.62676241 -4.33865134 -0.32804544
v -4.62676241 -4.33865134 1.10769887
v -4.62676241 -4.32367149 -0.32804544
v -4.57464371 -4.35767594 -0.32804544
v -4.57507807 -4.35767594 0.85786361
v -4.62676241 -4.33853995 1.10826113
v -4.57507807 -4.35767594 1.10826113
v -4.62676241 -4.32367149 1.10826113
v -4.57507807 -4.27962277 0.85786361
v -4.57768394 -4.28203487 0.05366681
v -4.57464371 -4.27962277 -0.32804544
v -4.47865887 -4.37296499 -0.32804544
v -4.56335147 -4.35951903 -0.13262004
v -4.57464371 -4.35782437 1.10826113
v -4.57507807 -4.27982057 1.10826113
v -4.57507807 -4.27962277 1.10769887
v -4.52035349 -4.26065989 0.95613867
v -4.52209093 -4.26126593 0.85786361
v -4.53685776 -4.26646132 -0.27911884
v -4.47865887 -4.24660790 -0.32804544
v -1.26207668 -4.37297733 0.85786361
v -4.47909294 -4.37296499 0.85786361
v -4.53642340 -4.36391030 0.85786361
v -1.20474622 -4.37297733 -0.32804544
v -1.24730985 -4.37297733 -0.27911884
v -4.47909294 -4.37296499 1.10826113
v -4.47952759 -4.24676867 1.10826113
v -4.47909294 -4.24660790 1.10769887
v -4.52643396 -4.26278749 1.05863160
v -4.47909294 -4.24660790 0.85786361
v -4.43609553 -4.24660790 -0.27911884
v -0.33784142 -4.24662025 -0.32804544
v -1.25990516 -4.37297733 0.95613867
v -0.33784142 -4.37297733 -0.32804544
v -1.25339032 -4.37297733 1.05863160
v -1.20474622 -4.37297733 1.10769887
v -0.33740706 -4.37296499 1.10826113
v -4.38310810 -4.24662025 1.10826113
v -0.33827564 -4.24662025 1.10826113
v -0.33740706 -4.24662025 1.10769887
v -4.42958040 -4.24660790 1.05863160
v -0.33740706 -4.24662025 0.85786361
v -0.33219516 -4.24832726 1.00633060
v -0.24098772 -4.27962277 -0.13262004
v -0.29527794 -4.26112985 -0.27911884
v -0.24185644 -4.27962277 -0.32804544
v -0.33740706 -4.37297733 0.85786361
v -0.24185644 -4.35767594 -0.32804544
v -0.27964238 -4.36376188 -0.27911884
v -0.24098772 -4.35767594 -0.13262004
v -0.33740706 -4.37297733 1.10769887
v -0.24142208 -4.35767594 1.10826113
v -0.24142208 -4.27948669 1.10826113
v -0.24098772 -4.27962277 -0.08383397
v -0.18973788 -4.32367149 0.85786361
v -0.22187756 -4.29604982 -0.08383397
v -0.19017224 -4.32367149 -0.32804544
v -0.29614651 -4.36645847 0.95613867
v -0.19017224 -4.33865134 -0.32804544
v -0.23577596 -4.35564740 -0.23019217
v -0.18973788 -4.33865134 0.85786361
v -0.24098772 -4.35767594 -0.08383397
v -0.18973788 -4.33865134 1.10826113
v -0.18973788 -4.32381992 1.10826113
v -0.18973788 -4.32368384 1.10769887
v -0.18973788 -4.32367149 1.00633060
f 1 2 6
f 1 6 8
f 1 8 3
f 1 3 11
f 1 11 20
f 1 20 32
f 1 32 46
f 1 46 57
f 1 57 59
f 1 59 48
f 1 48 34
f 1 34 24
f 1 24 12
f 1 12 4
f 1 4 5
f 1 5 7
f 1 7 2
f 2 7 6
f 3 8 16
f 3 16 9
f 3 9 10
f 3 10 11
f 4 12 13
f 4 13 14
f 4 14 5
f 5 14 7
f 6 7 14
f 6 14 26
f 6 26 37
f 6 37 52
f 6 52 63
f 6 63 64
f 6 64 53
f 6 53 39
f 6 39 38
f 6 38 27
f 6 27 15
f 6 15 8
f 8 15 16
f 9 16 17
f 9 17 18
f 9 18 19
f 9 19 11
f 9 11 10
f 11 19 20
f 12 21 22
f 12 22 23
f 12 23 13
f 12 24 25
f 12 25 21
f 13 23 14
f 14 23 26
f 15 27 16
f 16 27 28
f 16 28 29
f 16 29 17
f 17 29 28
f 17 28 30
f 17 30 20
f 17 20 18
f 18 20 19
f 20 30 28
f 20 28 41
f 20 41 31
f 20 31 32
f 21 26 22
f 21 25 24
f 21 24 34
f 21 34 47
f 21 47 51
f 21 51 36
f 21 36 35
f 21 35 33
f 21 33 26
f 22 26 23
f 26 33 35
f 26 35 36
f 26 36 51
f 26 51 37
f 27 38 28
f 28 38 39
f 28 39 40
f 28 40 41
f 31 41 32
f 32 42 43
f 32 43 44
f 32 44 45
f 32 45 46
f 32 41 42
f 34 48 49
f 34 49 50
f 34 50 47
f 37 51 52
f 39 53 40
f 40 43 42
f 40 42 41
f 40 53 43
f 43 53 54
f 43 54 44
f 44 54 66
f 44 66 55
f 44 55 56
f 44 56 57
f 44 57 46
f 44 46 45
f 47 58 51
f 47 50 58
f 48 59 60
f 48 60 50
f 48 50 49
f 50 60 59
f 50 59 61
f 50 61 63
f 50 63 62
f 50 62 58
f 51 58 52
f 52 58 62
f 52 62 63
f 53 64 65
f 53 65 54
f 54 65 66
f 55 66 65
f 55 65 64
f 55 64 63
f 55 63 61
f 55 61 59
f 55 59 57
f 55 57 56

