# https://github.com/mikedh/trimesh
v 0.19017281 4.32372535 1.00617629
v 0.18973859 4.32372535 1.05701122
v 0.19017281 4.33862768 1.00617629
v 0.24142279 4.27962409 1.00617629
v 0.18973859 4.33856596 1.05701122
v 0.24098843 4.27962409 1.05701122
v 0.18973859 4.32372535 1.10781988
v 0.24098843 4.35771028 1.05701122
v 0.24142279 4.35771028 1.00617629
v 0.33784199 4.24662874 1.00617629
v 0.28702651 4.26383150 1.05701122
v 0.18973859 4.33865237 1.10781988
v 0.24098843 4.27962409 1.10781988
v 0.19017281 4.32377473 1.20411800
v 0.24098843 4.27971079 1.20411800
v 0.24098843 4.35771028 1.10781988
v 0.33740777 4.37297118 1.05701122
v 0.24663454 4.35855115 1.00617629
v 0.33740777 4.24662874 1.05701122
v 4.47865972 4.24662874 1.00617629
v 0.33610483 4.24706167 1.10658835
v 0.19017281 4.33864003 1.20411800
v 0.24098843 4.35766061 1.20411800
v 0.33740777 4.24670281 1.20411800
v 0.19104153 4.32749737 1.25521489
v 0.24098843 4.30732643 1.26525084
v 0.33740777 4.37297118 1.10781988
v 0.33784199 4.37297118 1.00617629
v 0.33740777 4.24662874 1.10781988
v 4.57507921 4.27962409 1.00617629
v 4.47909408 4.24662874 1.05701122
v 0.19104153 4.33735388 1.25521489
v 0.24098843 4.34623345 1.26525084
v 0.33740777 4.37292181 1.20411800
v 0.33740777 4.29081642 1.27387188
v 4.47909408 4.24670281 1.20411800
v 4.47909408 4.37297118 1.10781988
v 4.47865972 4.37297118 1.00617629
v 4.47909408 4.24662874 1.10781988
v 4.57551328 4.27962409 1.05701122
v 4.62632919 4.32372535 1.00617629
v 0.33740777 4.35385156 1.27387188
v 4.47909408 4.37292181 1.20411800
v 4.47909408 4.29081642 1.27387188
v 4.57551328 4.27962409 1.10781988
v 4.57551328 4.27971079 1.20411800
v 4.57551328 4.30732643 1.26525084
v 4.48039717 4.37278573 1.10658835
v 4.47909408 4.37297118 1.05701122
v 4.48430613 4.37213031 1.00617629
v 4.62676327 4.32372535 1.05701122
v 4.62632919 4.33862768 1.00617629
v 4.47909408 4.35385156 1.27387188
v 4.57551328 4.34623345 1.26525084
v 4.57551328 4.35766061 1.20411800
v 4.62676327 4.32372535 1.10781988
v 4.62632919 4.32377473 1.20411800
v 4.62546047 4.32749737 1.25521489
v 4.52947534 4.36501919 1.05701122
v 4.48039717 4.37278573 1.10656216
v 4.57551328 4.35771028 1.10781988
v 4.57551328 4.35771028 1.05701122
v 4.57507921 4.35771028 1.00617629
v 4.62676327 4.33864003 1.05701122
v 4.62546047 4.33735388 1.25521489
v 4.62632919 4.33862768 1.20411800
v 4.62676327 4.33865237 1.10781988
v 4.62676327 4.33865237 1.10658835
f 1 2 5
f 1 5 3
f 1 3 9
f 1 9 18
f 1 18 28
f 1 28 38
f 1 38 50
f 1 50 63
f 1 63 52
f 1 52 41
f 1 41 30
f 1 30 20
f 1 20 10
f 1 10 4
f 1 4 6
f 1 6 2
f 2 6 13
f 2 13 7
f 2 7 12
f 2 12 5
f 3 5 8
f 3 8 9
f 4 10 11
f 4 11 6
f 5 12 8
f 6 11 13
f 7 14 22
f 7 22 12
f 7 13 15
f 7 15 14
f 8 12 16
f 8 16 27
f 8 27 17
f 8 17 18
f 8 18 9
f 10 19 11
f 10 20 31
f 10 31 39
f 10 39 29
f 10 29 19
f 11 19 21
f 11 21 13
f 12 22 23
f 12 23 16
f 13 21 24
f 13 24 15
f 14 25 32
f 14 32 22
f 14 15 25
f 15 24 26
f 15 26 25
f 16 23 34
f 16 34 27
f 17 27 37
f 17 37 49
f 17 49 38
f 17 38 28
f 17 28 18
f 19 29 21
f 20 30 40
f 20 40 31
f 21 29 24
f 22 32 23
f 23 32 33
f 23 33 34
f 24 35 26
f 24 29 39
f 24 39 36
f 24 36 44
f 24 44 35
f 25 26 33
f 25 33 32
f 26 35 42
f 26 42 33
f 27 34 43
f 27 43 37
f 30 41 51
f 30 51 40
f 31 40 45
f 31 45 39
f 33 42 34
f 34 42 53
f 34 53 43
f 35 44 53
f 35 53 42
f 36 39 45
f 36 45 46
f 36 46 47
f 36 47 44
f 37 43 48
f 37 48 60
f 37 60 49
f 38 49 50
f 40 51 56
f 40 56 45
f 41 52 64
f 41 64 51
f 43 53 54
f 43 54 55
f 43 55 48
f 44 47 54
f 44 54 53
f 45 56 46
f 46 56 57
f 46 57 58
f 46 58 47
f 47 58 65
f 47 65 54
f 48 59 60
f 48 55 61
f 48 61 59
f 49 60 50
f 50 60 59
f 50 59 62
f 50 62 63
f 51 64 68
f 51 68 67
f 51 67 56
f 52 63 64
f 54 65 55
f 55 65 66
f 55 66 67
f 55 67 61
f 56 67 66
f 56 66 57
f 57 66 65
f 57 65 58
f 59 61 62
f 61 67 68
f 61 68 62
f 62 68 64
f 62 64 63

