# https://github.com/mikedh/trimesh
v 1.00641953 -2.70211878 -0.30566682
v 1.00641953 -2.70211878 -0.08908912
v 1.00641953 -2.68991762 -0.37787532
v 3.57529156 -2.70211878 -0.30566682
v 3.57529156 -2.70211878 -0.08908912
v 1.55395196 -2.68408214 -0.01692848
v 1.00641953 -2.68355195 -0.01692848
v 3.57529156 -2.68991762 -0.37787532
v 1.00641953 -2.67877727 -0.40157773
v 3.62473783 -2.67665567 -0.37787532
v 3.63095073 -2.68249072 -0.30566682
v 2.63659037 -2.68355195 -0.01692848
v 1.62617964 -2.68408214 -0.01692848
v 3.63095073 -2.68249072 -0.08908912
v 3.62421969 -2.67612505 -0.02909092
v 3.57658583 -2.67877727 -0.00979382
v 3.43083620 -2.68249072 -0.01779038
v 1.55395196 -2.66498470 0.02018133
v 1.00641953 -2.67559444 -0.00160571
v 3.57529156 -2.67028957 -0.41872009
v 3.61619461 -2.66816796 -0.41713991
v 1.00641953 -2.67028957 -0.41872009
v 3.63819947 -2.62732043 -0.37787532
v 3.65062569 -2.62732043 -0.30566682
v 3.55354535 -2.66392390 0.01931943
v 2.63659037 -2.66445451 0.01970249
v 1.62617964 -2.66498470 0.02008558
v 3.65062569 -2.62732043 -0.08908912
v 3.62732636 -2.62891185 -0.00979382
v 3.60169713 -2.65437539 0.01903212
v 1.33726892 -2.62732043 0.02228823
v 1.00641953 -2.66445451 0.01960674
v 3.57529156 -2.62732043 -0.42350846
v 3.61852450 -2.62732043 -0.41872009
v 1.00641953 -2.62732043 -0.42350846
v 3.63845810 -2.55517473 -0.37787532
v 3.65114340 -2.55517473 -0.30566682
v 3.43083620 -2.48302903 0.02841734
v 3.35860831 -2.48302903 0.02875253
v 3.63146843 -2.55517473 -0.01692848
v 3.65114340 -2.55517473 -0.08908912
v 3.64881351 -1.76104090 -0.01692848
v 3.61153483 -2.60610139 0.01931943
v 3.62887947 -1.76104090 0.03531258
v 3.57529156 -1.76104090 0.04900727
v 1.26504124 -2.62732043 0.02209669
v 1.00641953 -2.64853991 0.02008558
v 3.57529156 -2.55517473 -0.42355634
v 3.61852450 -2.55517473 -0.41876796
v 1.00641953 -2.55517473 -0.42355634
v 3.63845810 2.57035742 -0.37787532
v 3.65114340 2.57035742 -0.30566682
v 3.65114340 -0.75046975 -0.01692848
v 3.65088476 -1.32763588 -0.01692848
v 3.65062569 -1.39978157 -0.01692848
v 3.63120936 -1.32763588 0.03895174
v 3.57529156 -1.32763588 0.05839249
v 1.00641953 -2.62732043 0.02070805
v 3.57529156 2.57035742 -0.42355634
v 3.61852450 2.57035742 -0.41876796
v 1.00641953 2.57035742 -0.42355634
v 3.61852450 2.64250312 -0.41872009
v 3.63819947 2.64250312 -0.37787532
v 3.65062569 2.64250312 -0.30566682
v 3.65114340 2.57035742 -0.08908912
v 3.63120936 -0.60564774 0.04134591
v 3.65114340 0.04366412 -0.01692848
v 3.57529156 -0.53350199 0.06490467
v 3.57529156 -0.60564774 0.06466523
v 3.50306367 -0.60564774 0.06495254
v 3.50306367 -1.25549007 0.05882343
v 1.00641953 -2.33873764 0.02482605
v 3.57529156 2.64250312 -0.42350846
v 1.00641953 2.64250312 -0.42350846
v 3.61619461 2.68335022 -0.41713991
v 3.62473783 2.69183792 -0.37787532
v 3.65062569 2.64250312 -0.08908912
v 3.63095073 2.69767341 -0.30566682
v 3.65010799 0.83779797 -0.01692848
v 3.63120936 -0.53350199 0.04129804
v 3.63120936 0.04366412 0.03952633
v 3.63120936 -0.02848164 0.03976574
v 3.63120936 -0.38921045 0.04086707
v 3.50306367 -0.53350199 0.06543138
v 3.63017395 0.83779797 0.03732369
v 3.57529156 0.83779797 0.05633347
v 2.63969704 2.28177420 0.06562291
v 2.66196074 2.20962850 0.06562291
v 2.74014268 1.95181325 0.06562291
v 1.00641953 1.18420376 0.06562291
v 1.12058588 -0.24491892 0.05034801
v 1.00641953 -2.26659151 0.02573586
v 1.00641953 2.66743561 -0.42073120
v 3.57529156 2.68547225 -0.41872009
v 3.57529156 2.70509988 -0.37787532
v 3.57529156 2.71730104 -0.30566682
v 3.63095073 2.69767341 -0.08908912
v 3.62421969 2.69130731 -0.03196394
v 3.63095073 2.64250312 -0.02138165
v 3.64674225 1.19852684 -0.01692848
v 3.64907214 0.98208953 -0.01692848
v 2.74583809 1.92051509 0.06562291
v 2.70881805 1.87542392 0.06562291
v 2.27596990 1.67967536 0.06562291
v 2.20374222 1.64996829 0.06562291
v 3.62913854 0.98208953 0.03531258
v 3.62706772 1.19852684 0.03224801
v 3.61955991 1.70407756 0.02482605
v 3.61697095 1.84836896 0.02281494
v 3.57529156 0.98208953 0.05269431
v 3.57529156 2.64250312 0.00969484
v 2.63814370 2.28336561 0.06562291
v 1.00641953 2.69395996 0.06562291
v 1.04835820 -0.24491892 0.04962977
v 1.00641953 2.68547225 -0.41872009
v 1.00641953 2.70509988 -0.37787532
v 1.00641953 2.71730104 -0.30566682
v 3.57529156 2.71730104 -0.08908912
v 3.57529156 2.69767341 -0.02238721
v 2.56436269 2.69130731 0.02923134
v 2.34767965 2.69661218 0.03607870
v 2.27596990 2.64250312 0.05820093
v 2.49213501 2.37301734 0.06562291
v 1.19281356 2.70722191 0.06562291
v 1.00641953 2.69926483 0.05528004
v 1.00641953 2.71730104 -0.01692848
v 2.05928686 2.71730104 -0.01692848
v 2.27596990 2.71677085 -0.01692848
v 2.34767965 2.71570962 -0.01692848
v 2.27596990 2.69767341 0.03761100
v 1.19281356 2.71093537 0.05528004
v 1.24950835 2.70509988 0.06562291
v 1.26504124 2.70403908 0.06562291
v 2.05928686 2.64250312 0.06409064
v 1.99404885 2.64250312 0.06562291
f 1 2 7
f 1 7 19
f 1 19 32
f 1 32 47
f 1 47 58
f 1 58 72
f 1 72 92
f 1 92 90
f 1 90 113
f 1 113 125
f 1 125 126
f 1 126 117
f 1 117 116
f 1 116 115
f 1 115 93
f 1 93 74
f 1 74 61
f 1 61 50
f 1 50 35
f 1 35 22
f 1 22 9
f 1 9 3
f 1 3 8
f 1 8 4
f 1 4 5
f 1 5 2
f 2 5 13
f 2 13 6
f 2 6 7
f 3 9 8
f 4 8 10
f 4 10 11
f 4 11 14
f 4 14 5
f 5 12 13
f 5 14 15
f 5 15 16
f 5 16 17
f 5 17 12
f 6 13 18
f 6 18 7
f 7 18 19
f 8 9 20
f 8 20 21
f 8 21 10
f 9 22 20
f 10 21 23
f 10 23 24
f 10 24 11
f 11 24 28
f 11 28 14
f 12 17 16
f 12 16 25
f 12 25 26
f 12 26 27
f 12 27 18
f 12 18 13
f 14 28 15
f 15 28 29
f 15 29 30
f 15 30 16
f 16 30 25
f 18 27 26
f 18 26 25
f 18 25 31
f 18 31 32
f 18 32 19
f 20 22 35
f 20 35 33
f 20 33 21
f 21 33 34
f 21 34 23
f 23 34 36
f 23 36 37
f 23 37 24
f 24 37 41
f 24 41 28
f 25 30 38
f 25 38 39
f 25 39 31
f 28 40 29
f 28 41 42
f 28 42 40
f 29 43 30
f 29 40 42
f 29 42 44
f 29 44 43
f 30 43 45
f 30 45 38
f 31 46 32
f 31 39 45
f 31 45 46
f 32 46 47
f 33 35 50
f 33 50 48
f 33 48 49
f 33 49 34
f 34 49 36
f 36 49 60
f 36 60 51
f 36 51 52
f 36 52 37
f 37 52 65
f 37 65 67
f 37 67 53
f 37 53 41
f 38 45 39
f 41 53 54
f 41 54 55
f 41 55 42
f 42 55 56
f 42 56 44
f 43 44 45
f 44 56 57
f 44 57 45
f 45 57 46
f 46 58 47
f 46 57 58
f 48 50 61
f 48 61 59
f 48 59 60
f 48 60 49
f 51 60 62
f 51 62 63
f 51 63 52
f 52 63 64
f 52 64 77
f 52 77 65
f 53 66 54
f 53 67 66
f 54 66 56
f 54 56 55
f 56 66 68
f 56 68 69
f 56 69 57
f 57 69 70
f 57 70 71
f 57 71 72
f 57 72 58
f 59 61 74
f 59 74 73
f 59 73 62
f 59 62 60
f 62 73 75
f 62 75 63
f 63 75 76
f 63 76 64
f 64 76 78
f 64 78 97
f 64 97 77
f 65 77 101
f 65 101 79
f 65 79 67
f 66 80 68
f 66 67 80
f 67 79 81
f 67 81 82
f 67 82 83
f 67 83 80
f 68 84 69
f 68 80 83
f 68 83 82
f 68 82 81
f 68 81 85
f 68 85 86
f 68 86 87
f 68 87 88
f 68 88 89
f 68 89 84
f 69 84 70
f 70 84 90
f 70 90 71
f 71 90 91
f 71 91 92
f 71 92 72
f 73 93 94
f 73 94 75
f 73 74 93
f 75 94 95
f 75 95 76
f 76 95 96
f 76 96 78
f 77 97 98
f 77 98 99
f 77 99 100
f 77 100 101
f 78 96 118
f 78 118 97
f 79 101 85
f 79 85 81
f 84 89 102
f 84 102 103
f 84 103 104
f 84 104 105
f 84 105 90
f 85 101 100
f 85 100 99
f 85 99 106
f 85 106 86
f 86 106 107
f 86 107 108
f 86 108 109
f 86 109 110
f 86 110 87
f 87 111 112
f 87 112 123
f 87 123 135
f 87 135 133
f 87 133 132
f 87 132 124
f 87 124 113
f 87 113 90
f 87 90 105
f 87 105 104
f 87 104 103
f 87 103 102
f 87 102 89
f 87 89 88
f 87 110 111
f 90 92 114
f 90 114 91
f 91 114 92
f 93 115 94
f 94 115 116
f 94 116 95
f 95 116 117
f 95 117 96
f 96 117 126
f 96 126 127
f 96 127 118
f 97 118 98
f 98 118 119
f 98 119 111
f 98 111 99
f 99 111 109
f 99 109 108
f 99 108 107
f 99 107 106
f 109 111 110
f 111 119 120
f 111 120 121
f 111 121 122
f 111 122 112
f 112 122 123
f 113 124 125
f 118 127 128
f 118 128 129
f 118 129 119
f 119 130 121
f 119 121 120
f 119 129 131
f 119 131 124
f 119 124 130
f 121 130 132
f 121 132 133
f 121 133 122
f 122 133 134
f 122 134 123
f 123 134 135
f 124 131 125
f 124 132 130
f 125 131 126
f 126 131 127
f 127 131 128
f 128 131 129
f 133 135 134

