# https://github.com/mikedh/trimesh
v 2.42013951 2.37975332 0.06562294
v 2.39955457 2.35408364 0.06562294
v 2.42013951 2.35408364 0.06731519
v 2.49235427 2.35408364 0.06738508
v 2.49235427 2.37334999 0.06562294
v 2.41777519 2.27951122 0.06562294
v 2.42013951 2.28189125 0.06593334
v 2.49235427 2.28189125 0.07025861
v 2.56451740 2.28189125 0.06867163
v 2.63673217 2.28189125 0.06587025
v 2.63673217 2.28438446 0.06562294
v 2.49235427 2.21572434 0.06562294
v 2.50695138 2.20969886 0.06562294
v 2.56451740 2.20969886 0.06728660
v 2.63673217 2.20969886 0.06725711
v 2.66209716 2.20969886 0.06562294
v 2.63973899 2.28189125 0.06562294
v 2.63819685 2.28336454 0.06562294
v 2.54953492 2.19470110 0.06562294
v 2.56451740 2.19033783 0.06562294
v 2.63673217 2.18678684 0.06562294
f 1 2 3
f 1 3 4
f 1 4 5
f 1 5 11
f 1 11 18
f 1 18 17
f 1 17 16
f 1 16 21
f 1 21 20
f 1 20 19
f 1 19 13
f 1 13 12
f 1 12 6
f 1 6 2
f 2 6 7
f 2 7 3
f 3 7 8
f 3 8 4
f 4 8 9
f 4 9 10
f 4 10 5
f 5 10 11
f 6 12 7
f 7 12 8
f 8 12 13
f 8 13 14
f 8 14 15
f 8 15 9
f 9 15 10
f 10 15 16
f 10 16 17
f 10 17 18
f 10 18 11
f 13 19 14
f 14 19 20
f 14 20 21
f 14 21 15
f 15 21 16

