# https://github.com/mikedh/trimesh
v -0.47636767 1.69591230 0.06562294
v -0.15082237 1.69591230 0.06562294
v -0.47636767 1.69591230 0.06702706
v -0.47636767 2.67413265 0.06562294
v -0.15740508 1.69591230 0.07288593
v 0.20291558 2.01714077 0.06562294
v -0.47623469 1.69591230 0.08144615
v -0.47636767 1.70430156 0.08148179
v -0.47636767 2.67062082 0.06778972
v 0.20291558 2.68593595 0.07826726
v 0.19101349 2.69237413 0.06562294
v -0.15920036 1.69591230 0.07484602
v 0.20291558 2.02650552 0.07339912
v -0.19523908 1.69591230 0.10608620
v 0.20291558 2.69227666 0.06562294
v -0.32343585 1.69591230 0.11000635
v -0.32343585 1.77658518 0.11494578
v -0.25122544 1.84877133 0.13160292
v -0.32343585 1.84877133 0.11628576
v -0.47636767 2.57063327 0.08563716
v -0.47636767 2.64281942 0.08469633
v 0.20291558 2.68320455 0.07992084
v 0.20291558 2.03967452 0.08431144
v -0.25122544 1.69591230 0.12067634
v 0.20291558 2.04718577 0.08886597
v 0.20291558 2.07342652 0.10476047
v 0.20291558 2.13751615 0.13224440
v -0.25122544 1.77658518 0.12705551
v -0.17901501 1.99314385 0.13704837
v -0.25122544 1.92095748 0.13250812
v 0.20291558 2.20960483 0.13793220
v 0.18190407 2.20960483 0.13843113
v -0.39564626 2.64281942 0.08618599
v 0.20291558 2.66515801 0.09080466
v -0.32343585 2.64281942 0.08711970
f 1 2 5
f 1 5 12
f 1 12 14
f 1 14 24
f 1 24 16
f 1 16 7
f 1 7 3
f 1 3 8
f 1 8 20
f 1 20 21
f 1 21 9
f 1 9 4
f 1 4 11
f 1 11 15
f 1 15 6
f 1 6 2
f 2 6 5
f 3 7 8
f 4 9 10
f 4 10 11
f 5 6 12
f 6 13 14
f 6 14 12
f 6 15 10
f 6 10 22
f 6 22 34
f 6 34 31
f 6 31 27
f 6 27 26
f 6 26 25
f 6 25 23
f 6 23 13
f 7 16 17
f 7 17 18
f 7 18 19
f 7 19 8
f 8 19 20
f 9 21 10
f 10 15 11
f 10 21 22
f 13 23 14
f 14 23 25
f 14 25 26
f 14 26 27
f 14 27 24
f 16 24 28
f 16 28 18
f 16 18 17
f 18 29 30
f 18 30 19
f 18 28 31
f 18 31 29
f 19 30 20
f 20 30 21
f 21 32 33
f 21 33 34
f 21 34 22
f 21 30 29
f 21 29 32
f 24 27 28
f 27 31 28
f 29 31 32
f 31 34 32
f 32 34 35
f 32 35 33
f 33 35 34

