# https://github.com/mikedh/trimesh
v 3.88699166 -2.52050682 -0.90172529
v 3.88699166 -2.52050682 -1.11022768
v 3.87867758 -2.52050682 -0.81627462
v 3.88699166 -2.77666387 -0.90172529
v 3.88699166 -2.77666387 -1.11022768
v 3.56105038 -2.52050682 -1.11022768
v 3.85745279 -2.52050682 -0.76342323
v 3.87867758 -2.77666387 -0.81627462
v 3.88638338 -2.86207739 -0.90172529
v 3.88665378 -2.82438001 -1.11022768
v 3.87827198 -2.86207739 -0.81627462
v 3.56105038 -2.52050682 -0.90172529
v 3.19644517 -2.62303635 -1.11022768
v 3.80189005 -2.52050682 -0.75310479
v 3.85745279 -2.77666387 -0.76342323
v 3.85738531 -2.86207739 -0.76349319
v 3.88638338 -2.86207739 -1.11022768
v 3.86123821 -2.92139907 -0.81627462
v 3.86522631 -2.92536502 -0.90172529
v 3.85305908 -2.91321688 -0.76692100
v 3.56699879 -2.52050682 -0.81627462
v 3.19644517 -2.62303635 -0.90172529
v 3.19644517 -2.94698982 -1.11022768
v 3.80189005 -2.77666387 -0.75310479
v 3.71645056 -2.52050682 -0.75292993
v 3.80189005 -2.86207739 -0.75327971
v 3.86522631 -2.92536502 -1.11022768
v 3.80189005 -2.93834830 -0.81627462
v 3.80189005 -2.94644723 -0.90172529
v 3.80189005 -2.91751664 -0.76352820
v 3.58058527 -2.52050682 -0.76667618
v 3.19644517 -2.62349568 -0.89431002
v 3.19644517 -2.62850531 -0.81627462
v 3.19644517 -2.94698982 -0.90172529
v 3.71645056 -2.94698982 -1.11022768
v 3.71645056 -2.77666387 -0.75292993
v 3.63101081 -2.52050682 -0.75635774
v 3.19644517 -2.69125035 -0.75632276
v 3.19644517 -2.69868115 -0.75600796
v 3.19644517 -2.77666387 -0.75292993
v 3.71645056 -2.86207739 -0.75313980
v 3.80189005 -2.94644723 -1.11022768
v 3.71645056 -2.93872412 -0.81627462
v 3.71645056 -2.94698982 -0.90172529
v 3.76417230 -2.94669752 -1.11022768
v 3.71645056 -2.91764191 -0.76342323
v 3.19644517 -2.62959050 -0.81197236
v 3.19644517 -2.64123780 -0.76660623
v 3.19644517 -2.93872412 -0.81627462
v 3.19644517 -2.86207739 -0.75313980
v 3.19644517 -2.86691999 -0.75401423
v 3.19644517 -2.91764191 -0.76342323
f 1 2 6
f 1 6 12
f 1 12 21
f 1 21 31
f 1 31 37
f 1 37 25
f 1 25 14
f 1 14 7
f 1 7 3
f 1 3 8
f 1 8 4
f 1 4 5
f 1 5 2
f 2 5 10
f 2 10 17
f 2 17 27
f 2 27 42
f 2 42 45
f 2 45 35
f 2 35 23
f 2 23 13
f 2 13 6
f 3 7 15
f 3 15 8
f 4 9 10
f 4 10 5
f 4 8 11
f 4 11 9
f 6 13 22
f 6 22 12
f 7 14 24
f 7 24 15
f 8 15 16
f 8 16 11
f 9 17 10
f 9 11 18
f 9 18 19
f 9 19 27
f 9 27 17
f 11 16 20
f 11 20 18
f 12 22 21
f 13 23 34
f 13 34 49
f 13 49 52
f 13 52 51
f 13 51 50
f 13 50 40
f 13 40 39
f 13 39 38
f 13 38 48
f 13 48 47
f 13 47 33
f 13 33 32
f 13 32 22
f 14 25 36
f 14 36 24
f 15 24 16
f 16 24 26
f 16 26 20
f 18 20 28
f 18 28 29
f 18 29 19
f 19 29 42
f 19 42 27
f 20 26 30
f 20 30 28
f 21 22 32
f 21 32 33
f 21 33 31
f 23 35 44
f 23 44 34
f 24 36 26
f 25 37 38
f 25 38 39
f 25 39 40
f 25 40 36
f 26 36 41
f 26 41 30
f 28 30 43
f 28 43 44
f 28 44 29
f 29 44 45
f 29 45 42
f 30 41 46
f 30 46 43
f 31 33 47
f 31 47 48
f 31 48 37
f 34 44 43
f 34 43 49
f 35 45 44
f 36 40 50
f 36 50 41
f 37 48 38
f 41 50 51
f 41 51 46
f 43 46 52
f 43 52 49
f 46 51 52

