# https://github.com/mikedh/trimesh
v -3.89982040 -2.39030044 -1.36854126
v -3.89982040 2.77565685 -1.36854126
v -3.89978297 -2.77565634 -1.36854126
v -3.88691401 -2.77565634 -1.11026264
v -3.88665150 2.82296102 -1.11026264
v -3.88638873 2.86045827 -1.11026264
v -3.89952020 2.81257714 -1.36854126
v -3.88691401 2.77507988 -1.11026264
v -3.89861987 -2.86103422 -1.36854126
v -3.88638873 -2.86103422 -1.11026264
v -3.88672635 -2.81373005 -1.11026264
v -3.89861987 2.86103524 -1.36854126
v -3.87453290 2.89622462 -1.11026264
v -3.87494564 -2.92391445 -1.36854126
v -3.86519092 -2.92449091 -1.11026264
v -3.87700932 -2.88930153 -1.11026264
v -3.88852728 2.89045597 -1.36854126
v -3.86519092 2.92391496 -1.11026264
v -3.83896566 -2.93545176 -1.36854126
v -3.80185975 -2.94641260 -1.11026264
v -3.87494564 2.92333800 -1.36854126
v -3.80185975 2.94583614 -1.11026264
v -3.80182232 -2.94641260 -1.36854126
v -3.80185975 -2.94641260 -1.28394844
v -3.56185472 -2.94698957 -1.11026264
v -3.80185975 2.94583614 -1.28394844
v -3.80178490 2.94583614 -1.36854126
v -3.56189215 2.94583614 -1.11026264
v -3.71639302 2.94641311 -1.28394844
v -3.52527435 -2.94641260 -1.36854126
v -3.56185472 -2.94698957 -1.28394844
v -3.51653251 -2.94698957 -1.11026264
v -3.71639302 2.94641311 -1.36854126
v -3.54332074 2.94641311 -1.28394844
v -3.51653251 -2.59682356 -1.11026264
v -3.51653251 -2.94698957 -1.28394844
v -3.52527435 -2.58297839 -1.36854126
v -3.54332074 2.94641311 -1.36854126
v -3.51653251 -2.59682356 -1.28394844
f 1 2 7
f 1 7 12
f 1 12 17
f 1 17 21
f 1 21 27
f 1 27 33
f 1 33 38
f 1 38 37
f 1 37 30
f 1 30 23
f 1 23 19
f 1 19 14
f 1 14 9
f 1 9 3
f 1 3 4
f 1 4 8
f 1 8 2
f 2 5 6
f 2 6 7
f 2 8 5
f 3 9 10
f 3 10 11
f 3 11 4
f 4 11 10
f 4 10 16
f 4 16 15
f 4 15 20
f 4 20 25
f 4 25 32
f 4 32 35
f 4 35 28
f 4 28 22
f 4 22 18
f 4 18 13
f 4 13 6
f 4 6 5
f 4 5 8
f 6 12 7
f 6 13 12
f 9 14 15
f 9 15 16
f 9 16 10
f 12 13 18
f 12 18 17
f 14 19 20
f 14 20 15
f 17 18 21
f 18 22 21
f 19 23 24
f 19 24 20
f 20 24 31
f 20 31 25
f 21 22 26
f 21 26 27
f 22 28 34
f 22 34 29
f 22 29 33
f 22 33 26
f 23 30 36
f 23 36 31
f 23 31 24
f 25 31 36
f 25 36 32
f 26 33 27
f 28 35 34
f 29 34 38
f 29 38 33
f 30 37 39
f 30 39 36
f 32 36 39
f 32 39 35
f 34 35 39
f 34 39 38
f 37 38 39

