# https://github.com/mikedh/trimesh
v 0.00069345 2.94698982 -1.36854127
v 0.00069345 2.39450598 -1.36854127
v 0.00069345 2.94698982 -1.49975575
v -3.71609333 2.94698982 -1.36854127
v 0.00069345 1.25812848 -1.45294826
v -3.54607445 1.25812848 -1.36854127
v 0.00069345 2.93872412 -1.58517672
v -3.71609333 2.94698982 -1.49975575
v -3.80173550 2.94665907 -1.49975575
v -3.76207857 2.94665907 -1.36854127
v 0.00069345 1.25812848 -1.64850935
v -3.89961212 1.25812848 -1.36854127
v 0.00069345 2.91756374 -1.63801328
v -4.22868064 2.93872412 -1.58517672
v -3.80173550 2.94632858 -1.36854127
v 0.00069345 1.28094198 -1.64850935
v -4.22868064 1.25812848 -1.64850935
v -3.89961212 2.77654980 -1.36854127
v -4.27508778 1.25812848 -1.45500362
v 0.00069345 2.86201781 -1.64831753
v -4.22868064 2.91756374 -1.63801328
v -4.28057228 2.91326552 -1.63464251
v -4.28943150 2.92169672 -1.58517672
v -4.28436916 2.91673725 -1.49975575
v -4.22868064 2.92863968 -1.49975575
v -3.87472106 2.92450695 -1.36854127
v -4.27382232 2.90665280 -1.45577096
v 0.00069345 2.77654980 -1.64848195
v -4.22868064 2.77654980 -1.64848195
v -4.24175915 1.25812848 -1.64617994
v -3.89919022 2.81374558 -1.36854127
v -4.27466562 2.86201781 -1.45505843
v -4.27508778 2.77654980 -1.45500362
v -4.29322838 1.25812848 -1.48964336
v -4.22868064 2.86201781 -1.64831753
v -4.28563462 2.86201781 -1.63809550
v -4.30841641 2.86201781 -1.58517672
v -4.29786957 2.86201781 -1.49975575
v -3.88822148 2.89160914 -1.36854127
v -3.89834666 2.86201781 -1.36854127
v -4.28563462 2.77654980 -1.63817771
v -4.28563462 1.25812848 -1.63817771
v -4.29829122 2.77654980 -1.49975575
v -4.29829122 1.25812848 -1.49975575
v -4.30926022 2.77654980 -1.58517672
v -4.30926022 1.25812848 -1.58517672
f 1 2 5
f 1 5 11
f 1 11 16
f 1 16 28
f 1 28 20
f 1 20 13
f 1 13 7
f 1 7 3
f 1 3 8
f 1 8 4
f 1 4 10
f 1 10 15
f 1 15 26
f 1 26 39
f 1 39 40
f 1 40 31
f 1 31 18
f 1 18 12
f 1 12 6
f 1 6 2
f 2 6 5
f 3 7 14
f 3 14 8
f 4 8 9
f 4 9 10
f 5 6 12
f 5 12 19
f 5 19 34
f 5 34 44
f 5 44 46
f 5 46 42
f 5 42 30
f 5 30 17
f 5 17 11
f 7 13 21
f 7 21 14
f 8 14 9
f 9 15 10
f 9 14 15
f 11 17 16
f 12 18 33
f 12 33 19
f 13 20 35
f 13 35 21
f 14 21 22
f 14 22 23
f 14 23 24
f 14 24 25
f 14 25 15
f 15 25 27
f 15 27 26
f 16 17 29
f 16 29 28
f 17 30 29
f 18 31 32
f 18 32 33
f 19 33 34
f 20 28 29
f 20 29 35
f 21 35 22
f 22 36 37
f 22 37 23
f 22 35 36
f 23 37 24
f 24 37 38
f 24 38 27
f 24 27 25
f 26 27 39
f 27 38 32
f 27 32 40
f 27 40 39
f 29 30 41
f 29 41 36
f 29 36 35
f 30 42 41
f 31 40 32
f 32 38 33
f 33 38 43
f 33 43 34
f 34 43 44
f 36 41 45
f 36 45 37
f 37 45 38
f 38 45 43
f 41 42 46
f 41 46 45
f 43 45 46
f 43 46 44

