# https://github.com/mikedh/trimesh
v 0.12835313 -2.39804875 -0.98710598
v 0.12835313 -2.39804875 -1.11022768
v -0.12785841 -2.39804875 -0.98710598
v 0.12835313 -2.39815620 -0.90172529
v 3.19644517 -2.62303075 -0.90172529
v -0.12785841 -2.39804875 -1.11022768
v 3.19644517 -2.62303075 -1.11022768
v -0.17579734 -2.40449673 -1.11022768
v -0.21326213 -2.40954761 -0.98710598
v -0.12785841 -2.39815620 -0.90172529
v 0.12835313 -2.41003139 -0.81627462
v 3.19644517 -2.62851168 -0.81627462
v 3.19644517 -2.94698982 -1.11022768
v -0.21326213 -2.40954761 -1.11022768
v -0.21326213 -2.40965506 -0.90172529
v -0.91905229 -2.62303075 -0.90172529
v -0.12785841 -2.41003139 -0.81627462
v 0.12835313 -2.44974026 -0.76394791
v 3.19644517 -2.64124646 -0.76660623
v 3.19644517 -2.94698982 -0.90172529
v -0.91905229 -2.94698982 -1.11022768
v -0.91905229 -2.62303075 -1.11022768
v -0.21326213 -2.42233637 -0.81627462
v -0.91905229 -2.62442784 -0.87972428
v -0.91905229 -2.62851168 -0.81627462
v -0.21326213 -2.45629594 -0.76632640
v -0.12785841 -2.44974026 -0.76394791
v 3.19644517 -2.77665470 -0.75292993
v 3.19644517 -2.69863379 -0.75600796
v 3.19644517 -2.69121852 -0.75632276
v 3.19644517 -2.93871496 -0.81627462
v -0.91905229 -2.94698982 -0.90172529
v -0.91905229 -2.64124646 -0.76660623
v -0.91905229 -2.69121852 -0.75632276
v -0.91905229 -2.71319546 -0.75544830
v -0.91905229 -2.77665470 -0.75292993
v 3.19644517 -2.86209089 -0.75313980
v 3.19644517 -2.91759761 -0.76342323
v -0.91905229 -2.93871496 -0.81627462
v -0.91905229 -2.86209089 -0.75313980
v 3.19644517 -2.86687314 -0.75401423
v -0.91905229 -2.87638419 -0.75576311
v -0.91905229 -2.91759761 -0.76342323
f 1 2 6
f 1 6 3
f 1 3 10
f 1 10 4
f 1 4 5
f 1 5 7
f 1 7 2
f 2 7 13
f 2 13 21
f 2 21 22
f 2 22 14
f 2 14 8
f 2 8 6
f 3 6 8
f 3 8 9
f 3 9 15
f 3 15 10
f 4 10 17
f 4 17 11
f 4 11 12
f 4 12 5
f 5 12 19
f 5 19 30
f 5 30 29
f 5 29 28
f 5 28 37
f 5 37 41
f 5 41 38
f 5 38 31
f 5 31 20
f 5 20 13
f 5 13 7
f 8 14 9
f 9 14 22
f 9 22 16
f 9 16 15
f 10 15 17
f 11 17 27
f 11 27 18
f 11 18 19
f 11 19 12
f 13 20 32
f 13 32 21
f 15 23 17
f 15 16 24
f 15 24 25
f 15 25 23
f 16 22 21
f 16 21 32
f 16 32 39
f 16 39 43
f 16 43 42
f 16 42 40
f 16 40 36
f 16 36 35
f 16 35 34
f 16 34 33
f 16 33 25
f 16 25 24
f 17 23 26
f 17 26 27
f 18 27 36
f 18 36 28
f 18 28 29
f 18 29 30
f 18 30 19
f 20 31 39
f 20 39 32
f 23 25 33
f 23 33 26
f 26 33 34
f 26 34 27
f 27 34 35
f 27 35 36
f 28 36 40
f 28 40 37
f 31 38 43
f 31 43 39
f 37 40 41
f 38 41 42
f 38 42 43
f 40 42 41

