# https://github.com/mikedh/trimesh
v 0.12750797 -2.39408892 -1.36854126
v 3.54548831 -2.50427943 -1.36854126
v -0.12773083 -2.39408892 -1.36854126
v 0.12750797 -2.39809382 -1.11026264
v 3.56074712 -2.52132745 -1.11026264
v 3.56074712 -2.51759321 -1.28394844
v 3.54548831 -2.94698982 -1.36854126
v -3.52490363 -2.58367503 -1.36854126
v -0.12773083 -2.39809382 -1.11026264
v 3.56074712 -2.94693559 -1.11026264
v 3.56074712 -2.94693559 -1.28394844
v 3.54548831 -2.94698982 -1.28397372
v -3.52490363 -2.94698982 -1.36854126
v -3.52490363 -2.59341676 -1.28394844
v -3.51588705 -2.59742192 -1.11026264
v 3.50456694 -2.94698982 -1.28394844
v -3.51588705 -2.94693559 -1.11026264
v -3.52490363 -2.94698982 -1.28394844
f 1 2 7
f 1 7 13
f 1 13 8
f 1 8 3
f 1 3 9
f 1 9 4
f 1 4 2
f 2 5 6
f 2 6 11
f 2 11 7
f 2 4 5
f 3 8 9
f 4 9 15
f 4 15 17
f 4 17 10
f 4 10 5
f 5 10 11
f 5 11 6
f 7 11 10
f 7 10 12
f 7 12 16
f 7 16 18
f 7 18 13
f 8 13 18
f 8 18 14
f 8 14 15
f 8 15 9
f 10 16 12
f 10 17 18
f 10 18 16
f 14 18 17
f 14 17 15

