# https://github.com/mikedh/trimesh
v 1.86474206 -2.94641311 -1.49975585
v 1.86474206 -2.94641311 -1.36854127
v 1.86474206 -2.94122066 -1.55755274
v 3.80169348 -2.94641311 -1.49975585
v 3.80169348 -2.94641311 -1.36854127
v 1.86474206 2.94641311 -1.36854127
v 1.86474206 -2.93833583 -1.58517688
v 4.22885683 -2.93833583 -1.58517688
v 4.22885683 -2.92852790 -1.49975585
v 4.27384651 -2.90660443 -1.45577101
v 3.87492144 -2.92448938 -1.36854127
v 3.80169348 2.94641311 -1.36854127
v 1.86474206 2.94641311 -1.49975585
v 1.86474206 -2.91756629 -1.63801348
v 4.28964053 -2.92160480 -1.58517688
v 4.28437603 -2.91641236 -1.49975585
v 4.22885683 -2.91756629 -1.63801348
v 4.28078641 -2.91295081 -1.63464267
v 4.29777714 -2.86160329 -1.49975585
v 4.27480388 -2.86160329 -1.45505848
v 3.89861299 -2.86160329 -1.36854127
v 3.88856190 -2.89160405 -1.36854127
v 3.80169348 2.94641311 -1.49975585
v 3.83878615 2.93602821 -1.36854127
v 4.27384651 2.90660443 -1.45577101
v 4.22885683 2.92852790 -1.49975585
v 4.22885683 2.93833583 -1.58517688
v 1.86474206 2.94410524 -1.52735255
v 1.86474206 -2.86160329 -1.64831772
v 4.30854601 -2.86160329 -1.58517688
v 4.22885683 -2.86160329 -1.64831772
v 4.28557223 -2.86160329 -1.63809569
v 4.29849517 -2.77621676 -1.49975585
v 4.27504322 -2.77621676 -1.45500367
v 3.89980945 -2.77621676 -1.36854127
v 3.89933076 -2.81371758 -1.36854127
v 3.87492144 2.92448938 -1.36854127
v 3.89861299 2.86160329 -1.36854127
v 4.27480388 2.86160329 -1.45505848
v 4.29777714 2.86160329 -1.49975585
v 4.28437603 2.91641236 -1.49975585
v 4.28964053 2.92160480 -1.58517688
v 4.28078641 2.91295081 -1.63464267
v 4.22885683 2.91756629 -1.63801348
v 1.86474206 2.93833583 -1.58517688
v 1.86474206 -2.77621676 -1.64850955
v 4.30926403 -2.77621676 -1.58517688
v 4.22885683 -2.77621676 -1.64850955
v 4.28557223 -2.77621676 -1.63817790
v 4.29849517 2.77621676 -1.49975585
v 4.27504322 2.77621676 -1.45500367
v 3.89980945 2.77621676 -1.36854127
v 4.30854601 2.86160329 -1.58517688
v 4.28557223 2.86160329 -1.63809569
v 4.22885683 2.86160329 -1.64831772
v 1.86474206 2.89968108 -1.64135688
v 1.86474206 2.91756629 -1.63801348
v 1.86474206 -2.60544369 -1.64850955
v 4.30926403 2.77621676 -1.58517688
v 4.22885683 -2.60544369 -1.64850955
v 4.28557223 2.77621676 -1.63817790
v 4.22885683 2.77621676 -1.64848214
v 1.86474206 2.83391040 -1.64837253
v 1.86474206 2.86160329 -1.64831772
v 1.86474206 2.77621676 -1.64848214
f 1 2 6
f 1 6 13
f 1 13 28
f 1 28 45
f 1 45 57
f 1 57 56
f 1 56 64
f 1 64 63
f 1 63 65
f 1 65 58
f 1 58 46
f 1 46 29
f 1 29 14
f 1 14 7
f 1 7 3
f 1 3 4
f 1 4 5
f 1 5 2
f 2 5 11
f 2 11 22
f 2 22 21
f 2 21 36
f 2 36 35
f 2 35 52
f 2 52 38
f 2 38 37
f 2 37 24
f 2 24 12
f 2 12 6
f 3 7 8
f 3 8 4
f 4 8 5
f 5 8 9
f 5 9 10
f 5 10 11
f 6 12 23
f 6 23 13
f 7 14 17
f 7 17 8
f 8 15 16
f 8 16 9
f 8 17 18
f 8 18 15
f 9 16 10
f 10 16 19
f 10 19 20
f 10 20 21
f 10 21 22
f 10 22 11
f 12 24 25
f 12 25 26
f 12 26 27
f 12 27 23
f 13 23 28
f 14 29 31
f 14 31 17
f 15 18 30
f 15 30 16
f 16 30 19
f 17 31 18
f 18 31 32
f 18 32 30
f 19 30 47
f 19 47 33
f 19 33 20
f 20 33 34
f 20 34 35
f 20 35 36
f 20 36 21
f 23 27 28
f 24 37 25
f 25 38 39
f 25 39 40
f 25 40 41
f 25 41 26
f 25 37 38
f 26 41 27
f 27 41 42
f 27 42 43
f 27 43 44
f 27 44 57
f 27 57 45
f 27 45 28
f 29 46 48
f 29 48 31
f 30 32 47
f 31 48 32
f 32 48 49
f 32 49 47
f 33 47 59
f 33 59 50
f 33 50 51
f 33 51 34
f 34 51 52
f 34 52 35
f 38 52 39
f 39 51 50
f 39 50 40
f 39 52 51
f 40 50 59
f 40 59 53
f 40 53 41
f 41 53 42
f 42 53 43
f 43 53 54
f 43 54 55
f 43 55 44
f 44 55 56
f 44 56 57
f 46 58 60
f 46 60 48
f 47 49 61
f 47 61 59
f 48 60 61
f 48 61 49
f 53 59 54
f 54 59 61
f 54 61 62
f 54 62 55
f 55 62 63
f 55 63 64
f 55 64 56
f 58 65 62
f 58 62 60
f 60 62 61
f 62 65 63

