# https://github.com/mikedh/trimesh
v 0.00069345 1.25812848 -1.45294832
v 0.00069345 0.29328931 -1.36854127
v 0.00069345 1.25812848 -1.64848214
v -3.54607445 1.25812848 -1.36854127
v 0.00069345 -2.94698982 -1.36854127
v 0.00069345 -2.60575611 -1.64850955
v -4.22868064 1.25812848 -1.64848214
v -3.89961212 1.25812848 -1.36854127
v 0.00069345 -2.94698982 -1.49975585
v -3.71609333 -2.94698982 -1.36854127
v 0.00069345 -2.77657883 -1.64850955
v -4.22868064 -2.60575611 -1.64850955
v -4.24175915 1.25812848 -1.64618013
v -4.27508778 1.25812848 -1.45500367
v -3.89961212 -2.77657883 -1.36854127
v 0.00069345 -2.94287365 -1.54176753
v -3.71609333 -2.94698982 -1.49975585
v -3.80173550 -2.94616664 -1.36854127
v -3.80173550 -2.94657810 -1.49975585
v 0.00069345 -2.86178433 -1.64831772
v -4.22868064 -2.77657883 -1.64850955
v -4.28563462 -2.77657883 -1.63817790
v -4.28563462 1.25812848 -1.63817790
v -4.29322838 1.25812848 -1.48964346
v -4.27508778 -2.77657883 -1.45500367
v -4.27466562 -2.86178433 -1.45505848
v -3.89834666 -2.86178433 -1.36854127
v 0.00069345 -2.93834576 -1.58517688
v -4.22868064 -2.93834576 -1.58517688
v -3.83886101 -2.93628767 -1.36854127
v -4.27382232 -2.90665102 -1.45577101
v -4.22868064 -2.92846704 -1.49975585
v 0.00069345 -2.89018607 -1.64308339
v -4.22868064 -2.86178433 -1.64831772
v -4.28563462 -2.86178433 -1.63809569
v -4.30926022 -2.77657883 -1.58517688
v -4.30926022 1.25812848 -1.58517688
v -4.29829122 1.25812848 -1.49975585
v -4.29829122 -2.77657883 -1.49975585
v -4.29786957 -2.86178433 -1.49975585
v -3.87472106 -2.92435087 -1.36854127
v 0.00069345 -2.92805533 -1.61115669
v -4.28436916 -2.91652999 -1.49975585
v -4.28943150 -2.92146935 -1.58517688
v -4.28057228 -2.91323700 -1.63464267
v -4.22868064 -2.91735317 -1.63801348
v 0.00069345 -2.91735317 -1.63801348
v -4.30841641 -2.86178433 -1.58517688
f 1 2 5
f 1 5 9
f 1 9 16
f 1 16 28
f 1 28 42
f 1 42 47
f 1 47 33
f 1 33 20
f 1 20 11
f 1 11 6
f 1 6 3
f 1 3 7
f 1 7 13
f 1 13 23
f 1 23 37
f 1 37 38
f 1 38 24
f 1 24 14
f 1 14 8
f 1 8 4
f 1 4 2
f 2 4 8
f 2 8 15
f 2 15 27
f 2 27 41
f 2 41 30
f 2 30 18
f 2 18 10
f 2 10 5
f 3 6 12
f 3 12 7
f 5 10 17
f 5 17 9
f 6 11 21
f 6 21 12
f 7 12 13
f 8 14 25
f 8 25 15
f 9 17 16
f 10 18 19
f 10 19 17
f 11 20 34
f 11 34 21
f 12 21 13
f 13 21 22
f 13 22 23
f 14 24 25
f 15 25 26
f 15 26 27
f 16 17 29
f 16 29 28
f 17 19 29
f 18 30 31
f 18 31 32
f 18 32 29
f 18 29 19
f 20 33 34
f 21 34 35
f 21 35 22
f 22 35 36
f 22 36 37
f 22 37 23
f 24 38 39
f 24 39 25
f 25 39 40
f 25 40 26
f 26 40 31
f 26 31 27
f 27 31 41
f 28 29 42
f 29 32 43
f 29 43 44
f 29 44 45
f 29 45 46
f 29 46 42
f 30 41 31
f 31 40 43
f 31 43 32
f 33 47 46
f 33 46 34
f 34 46 45
f 34 45 35
f 35 45 48
f 35 48 36
f 36 48 40
f 36 40 39
f 36 39 38
f 36 38 37
f 40 48 43
f 42 46 47
f 43 48 44
f 44 48 45

