# https://github.com/mikedh/trimesh
v -3.88698810 -2.77663866 -1.11026264
v -3.88673628 -2.81435642 -1.11026264
v -3.88698810 -2.77663866 -0.90172526
v -3.88698810 -2.10020851 -1.11026264
v -3.88638389 -2.86210438 -1.11026264
v -3.88638389 -2.86210438 -0.90172526
v -3.87827733 -2.86210438 -0.81627459
v -3.87862972 -2.77663866 -0.81627459
v -3.87933476 -2.10020851 -0.82323515
v -3.88698810 -2.10020851 -0.90172526
v -3.56302801 -2.10020851 -1.11026264
v -3.86523624 -2.92535407 -1.11026264
v -3.86523624 -2.92535407 -0.90172526
v -3.86120817 -2.92137488 -0.81627459
v -3.85738150 -2.86210438 -0.76349312
v -3.85305144 -2.91316825 -0.76692097
v -3.85748233 -2.77663866 -0.76342320
v -3.87862972 -2.10020851 -0.81627459
v -3.37259936 -2.62294978 -1.11026264
v -3.56302801 -2.10020851 -0.90172526
v -3.82983934 -2.93712511 -1.11026264
v -3.80189438 -2.94640955 -0.90172526
v -3.80189438 -2.93836867 -0.81627459
v -3.80189438 -2.86210438 -0.75327965
v -3.80189438 -2.77663866 -0.75310476
v -3.80189438 -2.91747870 -0.76352813
v -3.85748233 -2.10020851 -0.76342320
v -3.37259936 -2.62294978 -0.90172526
v -3.37259936 -2.94698982 -1.11026264
v -3.56846591 -2.10020851 -0.81627459
v -3.37259936 -2.62842103 -0.81627459
v -3.80189438 -2.94640955 -1.11026264
v -3.75416144 -2.94674106 -1.11026264
v -3.71644827 -2.94698982 -0.90172526
v -3.71644827 -2.93870019 -0.81627459
v -3.71644827 -2.86210438 -0.75313974
v -3.71644827 -2.77663866 -0.75296485
v -3.71644827 -2.10020851 -0.75292987
v -3.80189438 -2.10020851 -0.75310476
v -3.71644827 -2.91756171 -0.76342320
v -3.37259936 -2.94698982 -0.90172526
v -3.71644827 -2.94698982 -1.11026264
v -3.58115434 -2.10020851 -0.76667612
v -3.37259936 -2.64118687 -0.76660616
v -3.37259936 -2.64085536 -0.76786538
v -3.37259936 -2.93870019 -0.81627459
v -3.37259936 -2.93820266 -0.81498043
v -3.37259936 -2.86210438 -0.75313974
v -3.37259936 -2.85994903 -0.75310476
v -3.37259936 -2.77663866 -0.75296485
v -3.63100215 -2.10020851 -0.75635768
v -3.37259936 -2.91756171 -0.76342320
v -3.58518242 -2.10020851 -0.76583664
v -3.37259936 -2.69117320 -0.75632270
v -3.37259936 -2.68992964 -0.75656755
v -3.37259936 -2.77448357 -0.75303480
f 1 2 3
f 1 3 10
f 1 10 4
f 1 4 11
f 1 11 19
f 1 19 29
f 1 29 42
f 1 42 33
f 1 33 32
f 1 32 21
f 1 21 12
f 1 12 5
f 1 5 2
f 2 5 6
f 2 6 3
f 3 6 7
f 3 7 8
f 3 8 9
f 3 9 10
f 4 10 9
f 4 9 18
f 4 18 27
f 4 27 39
f 4 39 38
f 4 38 51
f 4 51 53
f 4 53 43
f 4 43 30
f 4 30 20
f 4 20 11
f 5 12 13
f 5 13 6
f 6 13 14
f 6 14 7
f 7 15 8
f 7 14 16
f 7 16 15
f 8 15 17
f 8 17 27
f 8 27 18
f 8 18 9
f 11 20 28
f 11 28 19
f 12 21 13
f 13 21 22
f 13 22 14
f 14 22 23
f 14 23 16
f 15 16 24
f 15 24 25
f 15 25 17
f 16 23 26
f 16 26 24
f 17 25 39
f 17 39 27
f 19 28 31
f 19 31 45
f 19 45 44
f 19 44 55
f 19 55 54
f 19 54 56
f 19 56 50
f 19 50 49
f 19 49 48
f 19 48 52
f 19 52 47
f 19 47 46
f 19 46 41
f 19 41 29
f 20 30 31
f 20 31 28
f 21 32 22
f 22 32 33
f 22 33 34
f 22 34 23
f 23 34 35
f 23 35 26
f 24 26 36
f 24 36 37
f 24 37 25
f 25 37 38
f 25 38 39
f 26 35 40
f 26 40 36
f 29 41 34
f 29 34 42
f 30 43 44
f 30 44 45
f 30 45 31
f 33 42 34
f 34 41 46
f 34 46 35
f 35 46 47
f 35 47 40
f 36 40 52
f 36 52 48
f 36 48 49
f 36 49 37
f 37 49 50
f 37 50 38
f 38 50 51
f 40 47 52
f 43 53 54
f 43 54 55
f 43 55 44
f 50 56 51
f 51 56 54
f 51 54 53

