# https://github.com/mikedh/trimesh
v 0.00069345 -2.94641311 -1.49975585
v 0.00069345 -2.94641311 -1.36854127
v 0.00069345 -2.93833583 -1.58517688
v 1.86450285 -2.94122066 -1.55755274
v 1.86450285 -2.94641311 -1.49975585
v 1.86450285 -2.94641311 -1.36854127
v 0.00069345 2.94641311 -1.36854127
v 0.00069345 -2.91756629 -1.63801348
v 1.86450285 -2.93833583 -1.58517688
v 1.86450285 2.94641311 -1.36854127
v 0.00069345 2.94641311 -1.49975585
v 0.00069345 -2.86160329 -1.64831772
v 1.86450285 -2.91756629 -1.63801348
v 1.86450285 2.94641311 -1.49975585
v 1.86450285 2.94410524 -1.52735255
v 0.00069345 2.94237434 -1.54313776
v 1.86450285 -2.86160329 -1.64831772
v 0.00069345 -2.77621676 -1.64850955
v 1.86450285 2.93833583 -1.58517688
v 0.00069345 2.93833583 -1.58517688
v 1.86450285 -2.77621676 -1.64850955
v 0.00069345 -2.60544369 -1.64850955
v 1.86450285 2.91756629 -1.63801348
v 0.00069345 2.92795093 -1.61200623
v 1.86450285 -2.60544369 -1.64850955
v 0.00069345 2.77621676 -1.64848214
v 1.86450285 2.89968108 -1.64135688
v 0.00069345 2.91756629 -1.63801348
v 1.86450285 2.77621676 -1.64848214
v 0.00069345 2.86160329 -1.64831772
v 1.86450285 2.83391040 -1.64837253
v 1.86450285 2.86160329 -1.64831772
v 0.00069345 2.88929643 -1.64324781
f 1 2 7
f 1 7 11
f 1 11 16
f 1 16 20
f 1 20 24
f 1 24 28
f 1 28 33
f 1 33 30
f 1 30 26
f 1 26 22
f 1 22 18
f 1 18 12
f 1 12 8
f 1 8 3
f 1 3 4
f 1 4 5
f 1 5 6
f 1 6 2
f 2 6 10
f 2 10 7
f 3 8 13
f 3 13 9
f 3 9 4
f 4 9 13
f 4 13 17
f 4 17 21
f 4 21 25
f 4 25 29
f 4 29 31
f 4 31 32
f 4 32 27
f 4 27 23
f 4 23 19
f 4 19 15
f 4 15 14
f 4 14 10
f 4 10 6
f 4 6 5
f 7 10 14
f 7 14 11
f 8 12 17
f 8 17 13
f 11 15 16
f 11 14 15
f 12 18 21
f 12 21 17
f 15 19 20
f 15 20 16
f 18 22 25
f 18 25 21
f 19 23 24
f 19 24 20
f 22 26 29
f 22 29 25
f 23 27 28
f 23 28 24
f 26 30 31
f 26 31 29
f 27 32 30
f 27 30 33
f 27 33 28
f 30 32 31

