# https://github.com/mikedh/trimesh
v 3.56074712 2.94698982 -1.11026264
v 3.56074712 2.52126125 -1.11026264
v 3.56074712 2.94698982 -1.28395746
v 0.00062547 2.94698982 -1.11026264
v 3.56074712 2.51711885 -1.28395746
v 0.12817095 2.39807192 -1.11026264
v 0.00062547 2.94698982 -1.28395746
v 0.00062547 2.39973968 -1.11026264
v 0.12817095 2.39742647 -1.28395746
v 0.00062547 2.39893279 -1.28395746
f 1 2 5
f 1 5 3
f 1 3 7
f 1 7 4
f 1 4 8
f 1 8 6
f 1 6 2
f 2 6 5
f 3 5 9
f 3 9 10
f 3 10 7
f 4 7 10
f 4 10 8
f 5 6 9
f 6 8 10
f 6 10 9

