# https://github.com/mikedh/trimesh
v 3.45922869 2.60486647 -1.36854126
v 3.45922869 2.62044407 -1.28395746
v 3.45922869 2.94698957 -1.36854126
v 3.54557080 -2.94699008 -1.36854126
v 3.54557080 -2.94699008 -1.28399885
v 3.45922869 2.94698957 -1.28395746
v 3.54557080 -2.94641311 -1.28395746
v 3.71640090 2.94698957 -1.36854126
v 3.71648722 -2.94699008 -1.36854126
v 3.54565712 -2.94699008 -1.28395746
v 3.71640090 2.94698957 -1.28395746
v 3.80188063 2.94641311 -1.36854126
v 3.80188063 -2.94641311 -1.36854126
v 3.71648722 -2.94699008 -1.28395746
v 3.80188063 2.94641311 -1.28395746
v 3.83897075 2.93602821 -1.36854126
v 3.87493926 -2.92448938 -1.36854126
v 3.80188063 -2.94641311 -1.28395746
v 3.86536508 2.92506635 -1.28395746
v 3.87498255 2.92448938 -1.36854126
v 3.86532179 -2.92448938 -1.28395746
v 3.88856776 -2.89102733 -1.36854126
v 3.89865984 2.86160304 -1.36854126
v 3.88671336 2.86160304 -1.28395746
v 3.87554322 -2.89506559 -1.28395746
v 3.89861655 -2.86160355 -1.36854126
v 3.89982421 2.77621650 -1.36854126
v 3.88727404 2.77621650 -1.28395746
v 3.88671336 -2.86160355 -1.28395746
v 3.89952223 -2.81371783 -1.36854126
v 3.89982421 -2.77621701 -1.36854126
v 3.88727404 -2.77621701 -1.28395746
f 1 2 6
f 1 6 3
f 1 3 8
f 1 8 12
f 1 12 16
f 1 16 20
f 1 20 23
f 1 23 27
f 1 27 31
f 1 31 30
f 1 30 26
f 1 26 22
f 1 22 17
f 1 17 13
f 1 13 9
f 1 9 4
f 1 4 5
f 1 5 2
f 2 5 7
f 2 7 10
f 2 10 14
f 2 14 18
f 2 18 21
f 2 21 25
f 2 25 29
f 2 29 32
f 2 32 28
f 2 28 24
f 2 24 19
f 2 19 15
f 2 15 11
f 2 11 6
f 3 6 11
f 3 11 8
f 4 9 14
f 4 14 10
f 4 10 5
f 5 10 7
f 8 11 15
f 8 15 12
f 9 13 18
f 9 18 14
f 12 15 16
f 13 17 18
f 15 19 20
f 15 20 16
f 17 21 18
f 17 22 21
f 19 23 20
f 19 24 23
f 21 22 25
f 22 26 25
f 23 24 27
f 24 28 27
f 25 26 29
f 26 30 29
f 27 28 32
f 27 32 31
f 29 30 31
f 29 31 32

