# https://github.com/mikedh/trimesh
v -3.55943228 2.77654598 -0.75292968
v -3.55943228 2.76271278 -0.75313955
v -3.55943228 2.84818181 -0.75310454
v -3.71647704 2.77654598 -0.75292968
v -3.71647704 2.52013889 -0.75292968
v -3.71647704 -2.10012550 -0.75296465
v -3.63102889 -2.10012550 -0.75635749
v -3.58517885 -2.10012550 -0.76583645
v -3.58113907 -2.10012550 -0.76667593
v -3.55943228 2.67724375 -0.75583284
v -3.56950017 -2.10012550 -0.81225199
v -3.56847406 -2.10012550 -0.81627443
v -3.55943228 2.86201476 -0.75313955
v -3.71647704 2.86201476 -0.75313955
v -3.80189285 2.86201476 -0.75327946
v -3.80189285 2.77654598 -0.75310454
v -3.80189285 -2.10012550 -0.75310454
v -3.72340268 -2.10012550 -0.75296465
v -3.55943228 2.58485824 -0.76538176
v -3.56302342 -2.10012550 -0.90172513
v -3.55943228 2.91734732 -0.76342301
v -3.71647704 2.91734732 -0.76342301
v -3.80189285 2.91734732 -0.76352794
v -3.85303337 2.91290090 -0.76692078
v -3.85736189 2.86201476 -0.76349297
v -3.85749022 2.77654598 -0.76342301
v -3.85749022 -2.10012550 -0.76342301
v -3.55943228 2.55422781 -0.78941151
v -3.56302342 -2.10012550 -1.11022766
v -3.55943228 2.52409135 -0.90172513
v -3.55943228 2.53743033 -0.81627443
v -3.55943228 2.93859121 -0.81627443
v -3.71647704 2.93859121 -0.81627443
v -3.80189285 2.93809700 -0.81627443
v -3.86124152 2.92129977 -0.81627443
v -3.87826689 2.86201476 -0.81627443
v -3.87865162 2.77654598 -0.81627443
v -3.87865162 -2.10012550 -0.81627443
v -3.55943228 2.52409135 -1.11022766
v -3.88698810 -2.10012550 -1.11022766
v -3.55943228 2.94698982 -0.90172513
v -3.71647704 2.94698982 -0.90172513
v -3.80189285 2.94600165 -0.90172513
v -3.88641088 2.86201476 -0.90172513
v -3.86521740 2.92525197 -0.90172513
v -3.88698810 2.77654598 -0.90172513
v -3.88698810 -2.10012550 -0.90172513
v -3.55943228 2.94698982 -1.11022766
v -3.88698810 2.77654598 -1.11022766
v -3.71647704 2.94698982 -1.11022766
v -3.76418681 2.94649586 -1.11022766
v -3.80189285 2.94600165 -1.11022766
v -3.83729052 2.93463876 -1.11022766
v -3.88641088 2.86201476 -1.11022766
v -3.86521740 2.92525197 -1.11022766
f 1 2 10
f 1 10 19
f 1 19 28
f 1 28 31
f 1 31 30
f 1 30 39
f 1 39 48
f 1 48 41
f 1 41 32
f 1 32 21
f 1 21 13
f 1 13 3
f 1 3 4
f 1 4 5
f 1 5 6
f 1 6 7
f 1 7 8
f 1 8 9
f 1 9 2
f 2 9 11
f 2 11 12
f 2 12 10
f 3 13 14
f 3 14 4
f 4 14 15
f 4 15 16
f 4 16 17
f 4 17 5
f 5 17 18
f 5 18 6
f 6 18 17
f 6 17 27
f 6 27 38
f 6 38 47
f 6 47 40
f 6 40 29
f 6 29 20
f 6 20 12
f 6 12 11
f 6 11 9
f 6 9 8
f 6 8 7
f 10 12 20
f 10 20 19
f 13 21 22
f 13 22 14
f 14 22 23
f 14 23 15
f 15 23 24
f 15 24 25
f 15 25 16
f 16 25 26
f 16 26 27
f 16 27 17
f 19 20 28
f 20 29 39
f 20 39 30
f 20 30 31
f 20 31 28
f 21 32 33
f 21 33 22
f 22 33 23
f 23 33 34
f 23 34 24
f 24 34 35
f 24 35 36
f 24 36 25
f 25 36 37
f 25 37 26
f 26 37 38
f 26 38 27
f 29 40 49
f 29 49 54
f 29 54 55
f 29 55 53
f 29 53 52
f 29 52 51
f 29 51 50
f 29 50 48
f 29 48 39
f 32 41 42
f 32 42 33
f 33 42 34
f 34 42 43
f 34 43 35
f 35 44 36
f 35 43 45
f 35 45 44
f 36 44 46
f 36 46 37
f 37 46 47
f 37 47 38
f 40 47 46
f 40 46 49
f 41 48 50
f 41 50 42
f 42 50 51
f 42 51 43
f 43 51 52
f 43 52 53
f 43 53 45
f 44 54 49
f 44 49 46
f 44 45 55
f 44 55 54
f 45 53 55

