# https://github.com/mikedh/trimesh
v 3.45922639 2.62052428 -1.11019268
v 3.45922639 2.62052428 -0.90172513
v 3.45922639 2.94698982 -1.11019268
v 3.56105929 -2.52050682 -1.11022766
v 3.45922639 2.62641133 -0.81630941
v 3.56105929 -2.52050682 -0.98710589
v 3.56110130 -2.52050682 -0.90176011
v 3.45922639 2.94698982 -0.90172513
v 3.71640472 2.94698982 -1.11019268
v 3.56306925 -2.09984771 -1.11022766
v 3.88699166 -2.52050682 -1.11022766
v 3.45922639 2.63979105 -0.76720060
v 3.56708892 -2.52050682 -0.81630941
v 3.45922639 2.64032626 -0.76660597
v 3.71640472 2.94698982 -0.90172513
v 3.45922639 2.93842673 -0.81630941
v 3.80186561 2.94591940 -1.11019268
v 3.88699166 -2.09984771 -1.11022766
v 3.88699166 -2.52050682 -0.90176011
v 3.58065554 -2.52050682 -0.76671094
v 3.45922639 2.69063391 -0.75632251
v 3.71640472 2.93842673 -0.81630941
v 3.80186561 2.93789152 -0.81630941
v 3.80186561 2.94591940 -0.90172513
v 3.45922639 2.91701911 -0.76342301
v 3.82979427 2.93682110 -1.11019268
v 3.86517640 2.92504700 -1.11019268
v 3.88636352 2.86189458 -1.11019268
v 3.88669860 2.81372751 -1.11019268
v 3.88694991 2.77626437 -1.11019268
v 3.88699166 -2.09984771 -0.90176011
v 3.87865925 -2.52050682 -0.81630941
v 3.63106937 -2.52050682 -0.75639246
v 3.45922639 2.77626437 -0.75296465
v 3.71640472 2.91701911 -0.76342301
v 3.80186561 2.91701911 -0.76356292
v 3.85299160 2.91273769 -0.76692078
v 3.86119849 2.92076558 -0.81630941
v 3.86517640 2.92504700 -0.90172513
v 3.45922639 2.91648390 -0.76331807
v 3.88636352 2.86189458 -0.90172513
v 3.88694991 2.77626437 -0.90172513
v 3.87865925 -2.09984771 -0.81630941
v 3.85747188 -2.52050682 -0.76345799
v 3.71648849 -2.52050682 -0.75299963
v 3.71640472 2.77626437 -0.75296465
v 3.45922639 2.86189458 -0.75317449
v 3.71648849 -2.09984771 -0.75296465
v 3.71640472 2.86189458 -0.75317449
v 3.80186561 2.86189458 -0.75331441
v 3.87824040 2.86189458 -0.81630941
v 3.85734610 2.86189458 -0.76352794
v 3.87861724 2.77626437 -0.81630941
v 3.85747188 -2.09984771 -0.76345799
v 3.85742987 2.77626437 -0.76342301
v 3.80186561 -2.52050682 -0.75313955
v 3.85742987 -2.09984771 -0.76342301
v 3.80186561 -2.09984771 -0.75310454
v 3.80186561 2.77626437 -0.75310454
f 1 2 5
f 1 5 12
f 1 12 14
f 1 14 21
f 1 21 34
f 1 34 47
f 1 47 40
f 1 40 25
f 1 25 16
f 1 16 8
f 1 8 3
f 1 3 4
f 1 4 6
f 1 6 2
f 2 6 7
f 2 7 5
f 3 8 15
f 3 15 9
f 3 9 18
f 3 18 10
f 3 10 4
f 4 10 18
f 4 18 11
f 4 11 19
f 4 19 32
f 4 32 44
f 4 44 56
f 4 56 45
f 4 45 33
f 4 33 20
f 4 20 13
f 4 13 7
f 4 7 6
f 5 7 12
f 7 13 14
f 7 14 12
f 8 16 22
f 8 22 15
f 9 17 18
f 9 15 24
f 9 24 17
f 11 18 31
f 11 31 19
f 13 20 21
f 13 21 14
f 15 22 23
f 15 23 24
f 16 25 35
f 16 35 22
f 17 26 18
f 17 24 26
f 18 26 27
f 18 27 28
f 18 28 29
f 18 29 30
f 18 30 42
f 18 42 31
f 19 31 43
f 19 43 32
f 20 33 34
f 20 34 21
f 22 35 36
f 22 36 23
f 23 36 37
f 23 37 38
f 23 38 24
f 24 38 39
f 24 39 26
f 25 40 35
f 26 39 27
f 27 39 41
f 27 41 28
f 28 41 29
f 29 42 30
f 29 41 42
f 31 42 43
f 32 43 54
f 32 54 44
f 33 45 34
f 34 46 49
f 34 49 47
f 34 45 48
f 34 48 46
f 35 40 49
f 35 49 50
f 35 50 36
f 36 50 37
f 37 51 38
f 37 50 52
f 37 52 51
f 38 51 41
f 38 41 39
f 40 47 49
f 41 51 42
f 42 53 43
f 42 51 53
f 43 53 55
f 43 55 54
f 44 54 55
f 44 55 57
f 44 57 58
f 44 58 56
f 45 56 58
f 45 58 48
f 46 59 50
f 46 50 49
f 46 48 59
f 48 58 59
f 50 59 52
f 51 52 53
f 52 59 55
f 52 55 53
f 55 59 58
f 55 58 57

