# https://github.com/mikedh/trimesh
v 0.04997877 0.03437978 0.93970144
v 0.04997877 0.03437978 0.94003877
v 0.05001016 0.03437978 0.93939126
v 0.05046136 0.01499928 0.93470174
v 0.05046136 -0.00929797 0.93470174
v 0.04998269 -0.00929797 0.93970144
v 0.05538140 0.03437978 0.94589728
v 0.04998269 -0.00929797 0.94003683
v 0.05048686 0.03437978 0.93470368
v 0.05548733 0.03437978 0.92609429
v 0.05260946 -0.00929797 0.93117347
v 0.06461334 0.03437978 0.94589531
v 0.05284291 -0.00929797 0.94271600
v 0.05500082 -0.00929797 0.94473603
v 0.06499980 -0.00929797 0.94473603
v 0.06451330 0.03437978 0.92609429
v 0.05546183 -0.00929797 0.92649171
v 0.07001793 0.03437978 0.94003877
v 0.07001793 -0.00929797 0.94003683
v 0.06482325 0.03437978 0.92660025
v 0.06453880 -0.00929797 0.92649171
v 0.07001793 0.03437978 0.93970144
v 0.07001793 -0.00929797 0.93970144
v 0.06951377 0.03437978 0.93470368
v 0.06953927 0.01499928 0.93470368
v 0.06953927 -0.00929797 0.93470368
v 0.06668887 -0.00929797 0.93002191
v 0.06974525 -0.00929797 0.93684974
f 1 2 7
f 1 7 12
f 1 12 18
f 1 18 22
f 1 22 24
f 1 24 20
f 1 20 16
f 1 16 10
f 1 10 9
f 1 9 3
f 1 3 4
f 1 4 5
f 1 5 6
f 1 6 8
f 1 8 2
f 2 8 7
f 3 9 4
f 4 9 10
f 4 10 5
f 5 11 17
f 5 17 21
f 5 21 27
f 5 27 26
f 5 26 28
f 5 28 23
f 5 23 19
f 5 19 15
f 5 15 14
f 5 14 13
f 5 13 8
f 5 8 6
f 5 10 11
f 7 8 13
f 7 13 14
f 7 14 15
f 7 15 12
f 10 16 21
f 10 21 17
f 10 17 11
f 12 15 19
f 12 19 18
f 16 20 21
f 18 19 23
f 18 23 22
f 20 24 25
f 20 25 26
f 20 26 27
f 20 27 21
f 22 23 28
f 22 28 25
f 22 25 24
f 25 28 26

