# https://github.com/mikedh/trimesh
v 0.03518505 0.05527398 0.47381277
v 0.03518505 0.06471845 0.47374053
v 0.02955504 0.06082768 0.47072099
v 0.02955504 0.05917668 0.47072099
v 0.02786190 0.05710001 0.46498530
v 0.03518505 0.05508898 0.47353827
v 0.02786190 0.06289241 0.46498530
v 0.03518505 0.06644503 0.46955074
v 0.01998126 0.07000361 0.44000540
v -0.03265734 0.06129314 0.37119150
v -0.03265734 0.05869730 0.37119150
v 0.00967103 0.04987941 0.42071786
v 0.02943803 0.04984957 0.45147679
v 0.03518505 0.05183673 0.46359833
v -0.03424723 0.05677578 0.36500792
v 0.03518505 0.06810398 0.46550541
v 0.03322349 0.06969728 0.45818048
v 0.02939674 0.07016672 0.45150569
v 0.00972609 0.07010307 0.42063117
v -0.01001338 0.07000560 0.39003117
v -0.03424723 0.06319874 0.36500792
v -0.00054972 0.04984559 0.40148811
v -0.02033049 0.04987742 0.37072918
v 0.03053926 0.04984957 0.45147679
v -0.00001288 0.04984559 0.40150256
v 0.03518505 0.05134143 0.46026093
v -0.03512821 0.06589602 0.35567477
v -0.03512821 0.05405661 0.35551585
v 0.03518505 0.06981464 0.46023203
v 0.03059432 0.07016672 0.44848614
v -0.00059102 0.07016672 0.40150256
v -0.02027543 0.07010506 0.37064248
v 0.03518505 0.07008716 0.45568104
v -0.03512821 0.07008716 0.34444900
v -0.03512821 0.06929149 0.34824872
v -0.03053748 0.04985156 0.35147053
v -0.00054972 0.04984559 0.39851190
v 0.00055839 0.04984559 0.40150256
v 0.03053926 0.04984957 0.44851503
v 0.03518505 0.05073474 0.45568104
v -0.03512821 0.05086403 0.34511359
v 0.03518505 0.07008716 0.45563770
v 0.02027033 0.07010307 0.42935752
v 0.00059968 0.07016672 0.39849745
v -0.00001976 0.07016672 0.40004335
v -0.03059254 0.07016473 0.35149942
v -0.03512821 0.07008716 0.34434786
v -0.03512821 0.05074469 0.34437676
v -0.03053748 0.04985156 0.34855211
v -0.00001976 0.04984559 0.39851190
v 0.00055839 0.04984559 0.39854079
v 0.02031851 0.04987941 0.42927083
v 0.03518505 0.05402678 0.44459973
v 0.03518505 0.05086403 0.45490087
v 0.03518505 0.06927757 0.45178019
v 0.01001516 0.07000560 0.40996885
v -0.00972431 0.07010307 0.37938328
v -0.02940184 0.07016473 0.34847988
v -0.03512821 0.06981067 0.33982576
v -0.03512821 0.05131557 0.34008582
v -0.02945002 0.04985156 0.34855211
v -0.03512821 0.05185264 0.33641613
v -0.00966925 0.04987742 0.37928215
v 0.03421460 0.05678175 0.43497764
v 0.03518505 0.05408049 0.44444081
v -0.01999324 0.05000075 0.35999462
v 0.03518505 0.06591790 0.44442636
v 0.03421460 0.06319675 0.43497764
v -0.01998636 0.07000560 0.35999462
v -0.03322171 0.06969728 0.34181954
v -0.03512821 0.06807414 0.33455239
v -0.03512821 0.05510689 0.32653397
v 0.03263159 0.05869929 0.42880851
v 0.03518505 0.06583038 0.44442636
v 0.03263159 0.06129314 0.42880851
v -0.03512821 0.06467070 0.32628837
v -0.03512821 0.06663002 0.33104163
v -0.03512821 0.05531575 0.32621613
v -0.02786701 0.05710399 0.33501472
v -0.02956014 0.05917668 0.32927902
v -0.02956014 0.06082768 0.32927902
v -0.02786701 0.06289241 0.33501472
f 1 2 3
f 1 3 4
f 1 4 5
f 1 5 6
f 1 6 14
f 1 14 26
f 1 26 40
f 1 40 54
f 1 54 53
f 1 53 65
f 1 65 74
f 1 74 67
f 1 67 55
f 1 55 42
f 1 42 33
f 1 33 29
f 1 29 16
f 1 16 8
f 1 8 2
f 2 7 3
f 2 8 9
f 2 9 10
f 2 10 7
f 3 7 10
f 3 10 11
f 3 11 4
f 4 11 5
f 5 11 6
f 6 12 13
f 6 13 14
f 6 11 15
f 6 15 12
f 8 16 9
f 9 16 17
f 9 17 18
f 9 18 19
f 9 19 20
f 9 20 21
f 9 21 10
f 10 21 15
f 10 15 11
f 12 22 13
f 12 15 23
f 12 23 22
f 13 24 14
f 13 22 25
f 13 25 38
f 13 38 24
f 14 24 26
f 15 21 27
f 15 27 28
f 15 28 23
f 16 29 17
f 17 29 18
f 18 30 44
f 18 44 45
f 18 45 31
f 18 31 32
f 18 32 19
f 18 29 33
f 18 33 30
f 19 32 20
f 20 32 34
f 20 34 35
f 20 35 21
f 21 35 27
f 22 23 36
f 22 36 49
f 22 49 37
f 22 37 50
f 22 50 51
f 22 51 38
f 22 38 25
f 23 28 36
f 24 38 51
f 24 51 39
f 24 39 40
f 24 40 26
f 27 35 34
f 27 34 47
f 27 47 59
f 27 59 71
f 27 71 77
f 27 77 76
f 27 76 78
f 27 78 72
f 27 72 62
f 27 62 60
f 27 60 48
f 27 48 41
f 27 41 28
f 28 41 36
f 30 33 42
f 30 42 43
f 30 43 44
f 31 45 46
f 31 46 32
f 32 46 34
f 34 46 47
f 36 41 48
f 36 48 49
f 37 49 61
f 37 61 50
f 39 52 53
f 39 53 54
f 39 54 40
f 39 51 52
f 42 55 56
f 42 56 43
f 43 56 57
f 43 57 44
f 44 57 58
f 44 58 45
f 45 58 46
f 46 58 47
f 47 58 59
f 48 60 49
f 49 60 62
f 49 62 61
f 50 61 51
f 51 61 63
f 51 63 52
f 52 64 65
f 52 65 53
f 52 63 66
f 52 66 64
f 55 67 68
f 55 68 56
f 56 68 69
f 56 69 57
f 57 69 58
f 58 69 70
f 58 70 59
f 59 70 71
f 61 62 72
f 61 72 66
f 61 66 63
f 64 73 75
f 64 75 68
f 64 68 67
f 64 67 74
f 64 74 65
f 64 66 73
f 66 72 73
f 68 75 69
f 69 76 77
f 69 77 71
f 69 71 70
f 69 75 76
f 72 78 79
f 72 79 73
f 73 79 80
f 73 80 81
f 73 81 75
f 75 81 82
f 75 82 76
f 76 82 81
f 76 81 78
f 78 81 80
f 78 80 79

