# https://github.com/mikedh/trimesh
v 0.05772642 -0.03061829 0.42806733
v 0.05969099 -0.03061829 0.42806733
v 0.05485243 -0.03061829 0.43534343
v 0.04987840 -0.02032440 0.42927247
v 0.05000157 0.01999000 0.36000642
v 0.05296998 0.03811532 0.32436408
v 0.05733022 0.03811532 0.31740433
v 0.05917572 0.02955726 0.32929014
v 0.06226115 -0.03061829 0.42808239
v 0.06082621 0.02955726 0.32929014
v 0.04991740 -0.03061829 0.44846451
v 0.04984966 -0.03054429 0.44852477
v 0.04984760 -0.00054397 0.39849593
v 0.04987634 0.00966919 0.37928884
v 0.04985171 0.02944961 0.34854242
v 0.05060305 0.03811532 0.33192641
v 0.06267992 0.03811532 0.31740433
v 0.06395474 -0.03061829 0.43162252
v 0.06523777 0.03811532 0.32120055
v 0.06702580 0.03811532 0.32445446
v 0.07000242 0.01998327 0.35999136
v 0.04986813 -0.03061829 0.44864528
v 0.04984966 -0.03054429 0.45147739
v 0.04984760 -0.00054397 0.40149374
v 0.04984760 0.00056615 0.39849593
v 0.04985171 0.03053956 0.34854242
v 0.05060305 0.03811532 0.33417100
v 0.06521314 -0.03061829 0.43498188
v 0.07000447 -0.01001032 0.40997499
v 0.06809943 0.03811532 0.32806993
v 0.07016460 0.02939579 0.34848216
v 0.07081945 0.03811532 0.34155254
v 0.04986813 -0.03061829 0.45153764
v 0.04984966 -0.02944089 0.45147739
v 0.04984760 0.00056615 0.40149374
v 0.04985171 0.03053956 0.35147998
v 0.05086376 0.03811532 0.34507760
v 0.07015023 -0.03061829 0.44847957
v 0.07010301 -0.02027730 0.42936286
v 0.07016665 -0.03059811 0.44849464
v 0.07063880 0.03811532 0.34418881
v 0.07000242 -0.01998127 0.44001339
v 0.07016665 -0.02940052 0.45152258
v 0.05522400 -0.03061829 0.46468885
v 0.05709619 -0.02786653 0.46499014
v 0.05422426 -0.02518877 0.45498739
v 0.04987634 -0.00966719 0.42071591
v 0.04987634 0.02032640 0.37073226
v 0.05433717 0.03811532 0.35566787
v 0.07014817 -0.03061829 0.45239631
v 0.06566476 0.03811532 0.35566787
v 0.06365092 -0.03061829 0.46816873
v 0.06698064 -0.03061829 0.46069679
v 0.07001679 -0.03061829 0.45363159
v 0.05844080 -0.03061829 0.47130212
v 0.05917367 -0.02955526 0.47071461
v 0.05869741 0.03265216 0.37118420
v 0.06129015 0.03265216 0.37118420
v 0.06289342 -0.02786653 0.46499014
v 0.06083032 -0.02955526 0.47071461
v 0.06155907 -0.03061829 0.47128706
v 0.05981211 -0.03061829 0.47130212
f 1 2 9
f 1 9 18
f 1 18 28
f 1 28 38
f 1 38 50
f 1 50 54
f 1 54 53
f 1 53 52
f 1 52 61
f 1 61 62
f 1 62 55
f 1 55 44
f 1 44 33
f 1 33 22
f 1 22 11
f 1 11 3
f 1 3 4
f 1 4 5
f 1 5 6
f 1 6 7
f 1 7 8
f 1 8 10
f 1 10 2
f 2 10 9
f 3 11 4
f 4 11 12
f 4 12 13
f 4 13 14
f 4 14 5
f 5 14 15
f 5 15 16
f 5 16 6
f 6 16 27
f 6 27 37
f 6 37 49
f 6 49 51
f 6 51 41
f 6 41 32
f 6 32 30
f 6 30 20
f 6 20 19
f 6 19 17
f 6 17 7
f 7 17 10
f 7 10 8
f 9 10 17
f 9 17 19
f 9 19 20
f 9 20 21
f 9 21 18
f 11 22 12
f 12 22 33
f 12 33 23
f 12 23 24
f 12 24 13
f 13 24 35
f 13 35 25
f 13 25 26
f 13 26 15
f 13 15 14
f 15 26 16
f 16 26 36
f 16 36 27
f 18 21 29
f 18 29 28
f 20 30 21
f 21 30 31
f 21 31 32
f 21 32 29
f 23 33 34
f 23 34 35
f 23 35 24
f 25 35 36
f 25 36 26
f 27 36 37
f 28 29 38
f 29 32 39
f 29 39 40
f 29 40 38
f 30 32 31
f 32 41 42
f 32 42 43
f 32 43 40
f 32 40 39
f 33 44 34
f 34 44 45
f 34 45 46
f 34 46 47
f 34 47 35
f 35 48 36
f 35 47 48
f 36 48 37
f 37 48 47
f 37 47 49
f 38 40 50
f 40 43 50
f 41 51 42
f 42 52 53
f 42 53 54
f 42 54 43
f 42 51 52
f 43 54 50
f 44 55 45
f 45 55 56
f 45 56 57
f 45 57 49
f 45 49 46
f 46 49 47
f 49 57 58
f 49 58 51
f 51 58 59
f 51 59 52
f 52 59 60
f 52 60 61
f 55 62 60
f 55 60 56
f 56 60 58
f 56 58 57
f 58 60 59
f 60 62 61

