# https://github.com/mikedh/trimesh
v -0.00002595 -0.05871326 0.84123611
v -0.00002595 -0.06128266 0.84121978
v -0.00002595 -0.05645127 0.83755690
v -0.03473018 -0.04998550 0.94000241
v -0.03473018 -0.05539328 0.94623253
v -0.03473018 -0.05578522 0.94651049
v -0.03473018 -0.06421326 0.94651049
v -0.00002595 -0.06429780 0.83477706
v -0.03473018 -0.06480245 0.94585642
v -0.03473018 -0.07001298 0.94001874
v -0.00002595 -0.04995989 0.82158098
v -0.04365071 -0.04584065 0.93691188
v -0.04365071 -0.04672956 0.94266778
v -0.04365071 -0.05503720 0.96415436
v -0.00002595 -0.04985486 0.82127029
v -0.04365071 -0.06496640 0.96415436
v -0.00002595 -0.07013850 0.82120487
v -0.04365071 -0.07166272 0.94343632
v -0.04365071 -0.04770814 0.89369345
v -0.00002595 -0.04985486 0.81721500
v -0.00058535 -0.04985486 0.81721500
v -0.00002595 -0.07013850 0.81708416
v -0.04365071 -0.07185484 0.93612698
v -0.04365071 -0.07201111 0.89500159
v -0.04365071 -0.04823585 0.88584447
v -0.00002595 -0.05532924 0.80107552
v -0.04364644 -0.05500134 0.83562738
v -0.00057681 -0.07013850 0.81708416
v -0.00002595 -0.06565038 0.80493462
v -0.04365071 -0.07176519 0.88582811
v -0.04365071 -0.05458634 0.84318203
v -0.00002595 -0.05731200 0.79711834
v -0.00115329 -0.05803953 0.79775608
v -0.04364644 -0.06499714 0.83561102
v -0.00002595 -0.06269416 0.79711834
v -0.04365071 -0.06538396 0.84318203
v -0.00115329 -0.06196920 0.79775608
f 1 2 8
f 1 8 17
f 1 17 22
f 1 22 29
f 1 29 35
f 1 35 32
f 1 32 26
f 1 26 20
f 1 20 15
f 1 15 11
f 1 11 3
f 1 3 4
f 1 4 5
f 1 5 6
f 1 6 7
f 1 7 2
f 2 7 9
f 2 9 10
f 2 10 8
f 3 11 4
f 4 12 13
f 4 13 14
f 4 14 5
f 4 11 15
f 4 15 12
f 5 14 6
f 6 14 16
f 6 16 7
f 7 16 9
f 8 10 17
f 9 16 10
f 10 16 18
f 10 18 17
f 12 19 25
f 12 25 31
f 12 31 36
f 12 36 30
f 12 30 24
f 12 24 23
f 12 23 18
f 12 18 16
f 12 16 14
f 12 14 13
f 12 15 20
f 12 20 21
f 12 21 19
f 17 18 23
f 17 23 24
f 17 24 22
f 19 21 25
f 20 26 21
f 21 26 27
f 21 27 25
f 22 24 28
f 22 28 29
f 24 30 28
f 25 27 31
f 26 32 27
f 27 32 33
f 27 33 34
f 27 34 31
f 28 34 35
f 28 35 29
f 28 30 34
f 30 36 34
f 31 34 36
f 32 35 37
f 32 37 33
f 33 37 34
f 34 37 35

