# https://github.com/mikedh/trimesh
v -0.06563924 -0.03489512 0.73478372
v -0.05437873 -0.03489512 0.73481899
v -0.06573217 -0.03489512 0.73496012
v -0.06474575 0.03823331 0.86507249
v -0.06173576 -0.02901822 0.73808239
v -0.05826741 -0.02901822 0.73808239
v -0.04985636 -0.02946203 0.75780386
v -0.05163701 -0.03489512 0.74497962
v -0.05525532 0.03823331 0.86509010
v -0.06863443 -0.03489512 0.74570286
v -0.07015949 -0.02941908 0.75769803
v -0.06617575 0.03823331 0.86995876
v -0.04985636 -0.03043555 0.75780386
v -0.04930506 0.03823331 0.88555247
v -0.05107725 -0.03489512 0.75039509
v -0.06891958 -0.03489512 0.75034216
v -0.07015949 -0.03046418 0.75769803
v -0.07088400 0.03823331 0.88839251
v -0.07069390 0.03823331 0.88551718
v -0.05103501 -0.03489512 0.75471687
v -0.04985636 -0.03043555 0.76149064
v -0.04999788 0.03823331 0.89352572
v -0.04986481 0.02964344 0.88098371
v -0.04985847 0.01962192 0.86108583
v -0.04985636 0.00960757 0.84117034
v -0.04985636 -0.01041399 0.80133930
v -0.06905688 -0.03489512 0.75397599
v -0.07015949 -0.03046418 0.76150826
v -0.07012781 0.01965771 0.86099765
v -0.07011936 0.02968639 0.88089553
v -0.06830069 0.03823331 0.90195763
v -0.07015315 -0.02044266 0.78140613
v -0.05404288 -0.03489512 0.76540670
v -0.05650578 -0.03430815 0.77500284
v -0.05467445 -0.03489512 0.76754114
v -0.05058087 0.03823331 0.89924109
v -0.05264667 0.03823331 0.90590900
v -0.05562708 0.03823331 0.91497594
v -0.06895760 -0.03489512 0.75466394
v -0.06596030 -0.03489512 0.76538906
v -0.06527592 -0.03489512 0.76768225
v -0.06347416 -0.03430815 0.77500284
v -0.06437821 0.03821899 0.91497594
v -0.06641866 0.03823331 0.90878430
v -0.06735862 0.03823331 0.90583843
v -0.05835824 -0.03275481 0.78170604
v -0.06370862 -0.03489512 0.76768225
v -0.06427260 0.03823331 0.91497594
v -0.05678672 0.03717389 0.91497594
v -0.06163437 -0.03275481 0.78170604
v -0.06322069 0.03717389 0.91497594
f 1 2 8
f 1 8 15
f 1 15 20
f 1 20 33
f 1 33 35
f 1 35 47
f 1 47 41
f 1 41 40
f 1 40 39
f 1 39 27
f 1 27 16
f 1 16 10
f 1 10 3
f 1 3 4
f 1 4 5
f 1 5 6
f 1 6 2
f 2 7 8
f 2 6 9
f 2 9 7
f 3 10 11
f 3 11 4
f 4 11 12
f 4 12 19
f 4 19 18
f 4 18 31
f 4 31 45
f 4 45 44
f 4 44 48
f 4 48 38
f 4 38 37
f 4 37 36
f 4 36 22
f 4 22 14
f 4 14 9
f 4 9 6
f 4 6 5
f 7 13 8
f 7 9 14
f 7 14 13
f 8 13 15
f 10 16 17
f 10 17 11
f 11 17 18
f 11 18 19
f 11 19 12
f 13 20 15
f 13 14 21
f 13 21 20
f 14 22 23
f 14 23 24
f 14 24 25
f 14 25 26
f 14 26 21
f 16 27 17
f 17 28 18
f 17 27 28
f 18 29 30
f 18 30 31
f 18 28 32
f 18 32 29
f 20 21 33
f 21 34 35
f 21 35 33
f 21 26 34
f 22 36 23
f 23 36 37
f 23 37 38
f 23 38 34
f 23 34 24
f 24 34 25
f 25 34 26
f 27 39 28
f 28 39 40
f 28 40 41
f 28 41 42
f 28 42 32
f 29 32 42
f 29 42 30
f 30 42 43
f 30 43 44
f 30 44 45
f 30 45 31
f 34 46 50
f 34 50 42
f 34 42 41
f 34 41 47
f 34 47 35
f 34 38 46
f 38 48 43
f 38 43 51
f 38 51 49
f 38 49 46
f 42 50 43
f 43 48 44
f 43 50 51
f 46 49 51
f 46 51 50

