# https://github.com/mikedh/trimesh
v 0.03739074 -0.05427168 0.35563575
v 0.03265360 -0.05869585 0.37116767
v 0.03739074 -0.06572873 0.35563575
v 0.03739074 -0.05281603 0.35144484
v -0.00966828 -0.04987817 0.42070667
v -0.03858191 -0.05259319 0.47590819
v -0.03858191 -0.05472554 0.47977918
v 0.03265360 -0.06129025 0.37116767
v -0.03858191 -0.05713185 0.48328226
v -0.03822495 -0.05743852 0.48299433
v -0.02955384 -0.05917221 0.47070955
v 0.03739074 -0.07050046 0.34421474
v -0.03858191 -0.06741131 0.47584421
v -0.01998289 -0.07000162 0.44001361
v 0.02032367 -0.04987613 0.37071979
v 0.03739074 -0.05086359 0.34507851
v 0.00054966 -0.04984751 0.40149571
v -0.02944229 -0.04985159 0.45148260
v -0.03858191 -0.05124590 0.47158933
v -0.02955384 -0.06083025 0.47070955
v -0.03858191 -0.06287673 0.48329825
v -0.03858191 -0.05827469 0.48329825
v -0.03822495 -0.06257007 0.48299433
v 0.02939636 -0.07016517 0.34848562
v 0.03739074 -0.06994642 0.33744851
v -0.03858191 -0.07073148 0.45581746
v -0.03858191 -0.06960090 0.46930192
v -0.02939767 -0.07016313 0.45151459
v 0.03739074 -0.05040768 0.34221527
v 0.03053416 -0.04985159 0.35147683
v -0.00002296 -0.04984751 0.40149571
v 0.00054966 -0.04984751 0.39852049
v -0.03054291 -0.04985159 0.45148260
v -0.03858191 -0.05038315 0.46611876
v 0.01998158 -0.07000162 0.35998660
v 0.03739074 -0.06907548 0.33200994
v -0.03858191 -0.06562242 0.44433248
v 0.03739074 -0.05094333 0.33469725
v 0.03053416 -0.04985159 0.34854960
v -0.00002296 -0.04984751 0.39852049
v -0.03054291 -0.04985159 0.44852338
v -0.03858191 -0.05022981 0.45887266
v 0.03739074 -0.06644224 0.32490781
v -0.03858191 -0.05438412 0.44433248
v -0.03263260 -0.06129229 0.42881654
v 0.03739074 -0.06336945 0.31993312
v 0.03739074 -0.05274244 0.32741915
v 0.02944841 -0.04985159 0.34854960
v -0.00055840 -0.04984955 0.39852049
v -0.02032497 -0.04988021 0.42928042
v 0.00966697 -0.04987613 0.37929354
v -0.03858191 -0.05086564 0.45495369
v -0.03263260 -0.05869789 0.42881654
v -0.03858191 -0.05216590 0.45071480
v 0.01998902 -0.05000084 0.36000261
v 0.03739074 -0.05354999 0.32482782
v 0.03739074 -0.05482368 0.32254043
v 0.03739074 -0.05664527 0.31988513
v 0.02955996 -0.06082616 0.32929066
v 0.03739074 -0.06012696 0.31988513
v 0.02955996 -0.05917630 0.32929066
f 1 2 8
f 1 8 3
f 1 3 12
f 1 12 25
f 1 25 36
f 1 36 43
f 1 43 46
f 1 46 60
f 1 60 58
f 1 58 57
f 1 57 56
f 1 56 47
f 1 47 38
f 1 38 29
f 1 29 16
f 1 16 4
f 1 4 5
f 1 5 6
f 1 6 7
f 1 7 2
f 2 7 9
f 2 9 10
f 2 10 11
f 2 11 20
f 2 20 8
f 3 8 13
f 3 13 14
f 3 14 12
f 4 15 5
f 4 16 15
f 5 17 18
f 5 18 19
f 5 19 6
f 5 15 17
f 6 19 34
f 6 34 42
f 6 42 52
f 6 52 54
f 6 54 44
f 6 44 37
f 6 37 26
f 6 26 27
f 6 27 13
f 6 13 21
f 6 21 22
f 6 22 9
f 6 9 7
f 8 20 21
f 8 21 13
f 9 22 10
f 10 22 21
f 10 21 23
f 10 23 20
f 10 20 11
f 12 24 25
f 12 14 26
f 12 26 24
f 13 27 14
f 14 27 28
f 14 28 26
f 15 16 29
f 15 29 30
f 15 30 17
f 17 31 33
f 17 33 18
f 17 30 39
f 17 39 32
f 17 32 40
f 17 40 31
f 18 33 34
f 18 34 19
f 20 23 21
f 24 35 36
f 24 36 25
f 24 26 35
f 26 28 27
f 26 37 35
f 29 38 39
f 29 39 30
f 31 40 41
f 31 41 33
f 32 39 48
f 32 48 40
f 33 41 42
f 33 42 34
f 35 43 36
f 35 37 43
f 37 44 53
f 37 53 45
f 37 45 46
f 37 46 43
f 38 47 48
f 38 48 39
f 40 48 49
f 40 49 41
f 41 50 42
f 41 49 51
f 41 51 50
f 42 50 52
f 44 54 55
f 44 55 56
f 44 56 57
f 44 57 58
f 44 58 53
f 45 53 61
f 45 61 59
f 45 59 46
f 46 59 60
f 47 56 55
f 47 55 48
f 48 55 51
f 48 51 49
f 50 51 55
f 50 55 52
f 52 55 54
f 53 58 61
f 58 60 59
f 58 59 61

