# https://github.com/mikedh/trimesh
v -0.06518126 -0.03489512 0.64186026
v -0.06319404 -0.03423718 0.63499859
v -0.05677753 -0.03423718 0.63499859
v -0.05473573 -0.03489512 0.64211607
v -0.06933764 -0.03489512 0.65159601
v -0.06128364 -0.03264537 0.62882909
v -0.07000476 -0.01000641 0.60997454
v -0.07000273 0.01998315 0.55998665
v -0.06643060 0.03737979 0.52492590
v -0.04987787 -0.02032836 0.62928052
v -0.05870410 -0.03264537 0.62882909
v -0.05356523 0.03737979 0.52485067
v -0.04987584 0.00966827 0.57929263
v -0.05387252 -0.03489512 0.64462900
v -0.07008967 -0.03489512 0.65519238
v -0.06338003 0.03737979 0.51997527
v -0.06082272 0.02956226 0.52928969
v -0.07010382 -0.02027177 0.62937081
v -0.07016446 0.02939955 0.54849033
v -0.06906472 0.03737979 0.53204338
v -0.07010180 0.00971779 0.57938291
v -0.04985159 -0.03053712 0.64852631
v -0.04984754 -0.00054756 0.59849328
v -0.05918120 0.02956226 0.52928969
v -0.05663602 0.03737979 0.51993012
v -0.05482873 0.03737979 0.52256344
v -0.05276469 0.03737979 0.52740875
v -0.04984956 0.02944200 0.54853548
v -0.05086642 -0.03489512 0.65487637
v -0.07008967 -0.03489512 0.65549332
v -0.07016648 -0.03060080 0.64849621
v -0.06009293 0.03737979 0.51993012
v -0.07049803 0.03737979 0.54420179
v -0.06994209 0.03737979 0.53746049
v -0.04985159 -0.03053712 0.65146059
v -0.05077949 -0.03489512 0.65541808
v -0.04984754 0.00055609 0.59849328
v -0.04984754 -0.00054756 0.60147269
v -0.05095133 0.03737979 0.53475194
v -0.04984956 0.03053857 0.54853548
v -0.06979654 -0.03489512 0.65993235
v -0.07016648 -0.02939810 0.65152077
v -0.06572708 0.03737979 0.55562286
v -0.07000273 -0.01998170 0.64000940
v -0.04985159 -0.02945470 0.65146059
v -0.05190754 -0.03489512 0.66337822
v -0.05118381 -0.03489512 0.65845768
v -0.04984754 0.00055609 0.60147269
v -0.05040954 0.03737979 0.54224561
v -0.04984956 0.03053857 0.55146975
v -0.06969546 -0.03322550 0.65818682
v -0.06797307 -0.03489512 0.66518393
v -0.06128971 0.03257608 0.57118201
v -0.05427885 0.03737979 0.55562286
v -0.06734435 -0.03489512 0.66671878
v -0.06451211 -0.03489512 0.67358045
v -0.04987787 -0.00966682 0.62071848
v -0.05000118 -0.01999585 0.63999437
v -0.05517239 -0.03489512 0.67320427
v -0.04987989 0.02032274 0.57073058
v -0.05086642 0.03737979 0.54507454
v -0.05869804 0.03257608 0.57118201
v -0.06289282 -0.02786997 0.66498831
v -0.06082677 -0.02956082 0.67072141
v -0.05282331 0.03737979 0.55142460
v -0.05547563 -0.03489512 0.67365569
v -0.05710301 -0.02786997 0.66498831
v -0.05917715 -0.02956082 0.67072141
f 1 2 3
f 1 3 4
f 1 4 14
f 1 14 29
f 1 29 36
f 1 36 47
f 1 47 46
f 1 46 59
f 1 59 66
f 1 66 56
f 1 56 55
f 1 55 52
f 1 52 41
f 1 41 30
f 1 30 15
f 1 15 5
f 1 5 2
f 2 6 11
f 2 11 3
f 2 5 7
f 2 7 8
f 2 8 9
f 2 9 6
f 3 10 4
f 3 11 12
f 3 12 13
f 3 13 10
f 4 10 14
f 5 15 7
f 6 9 16
f 6 16 17
f 6 17 24
f 6 24 11
f 7 15 18
f 7 18 21
f 7 21 8
f 8 19 20
f 8 20 9
f 8 21 19
f 9 20 34
f 9 34 33
f 9 33 43
f 9 43 54
f 9 54 65
f 9 65 61
f 9 61 49
f 9 49 39
f 9 39 27
f 9 27 12
f 9 12 26
f 9 26 25
f 9 25 32
f 9 32 16
f 10 22 14
f 10 13 23
f 10 23 22
f 11 24 25
f 11 25 26
f 11 26 12
f 12 27 28
f 12 28 13
f 13 28 23
f 14 22 29
f 15 30 31
f 15 31 18
f 16 32 17
f 17 32 25
f 17 25 24
f 18 31 33
f 18 33 21
f 19 21 33
f 19 33 34
f 19 34 20
f 22 35 36
f 22 36 29
f 22 23 38
f 22 38 35
f 23 28 40
f 23 40 37
f 23 37 48
f 23 48 38
f 27 39 28
f 28 39 40
f 30 41 42
f 30 42 31
f 31 42 33
f 33 42 44
f 33 44 43
f 35 38 48
f 35 48 45
f 35 45 46
f 35 46 47
f 35 47 36
f 37 40 50
f 37 50 48
f 39 49 40
f 40 49 50
f 41 51 42
f 41 52 51
f 42 51 44
f 43 53 62
f 43 62 54
f 43 44 53
f 44 51 52
f 44 52 55
f 44 55 56
f 44 56 53
f 45 57 58
f 45 58 59
f 45 59 46
f 45 48 57
f 48 50 60
f 48 60 57
f 49 61 60
f 49 60 50
f 53 56 63
f 53 63 64
f 53 64 68
f 53 68 62
f 54 62 59
f 54 59 58
f 54 58 65
f 56 66 64
f 56 64 63
f 57 60 58
f 58 60 61
f 58 61 65
f 59 67 66
f 59 62 67
f 62 68 67
f 64 66 68
f 66 67 68

