# https://github.com/mikedh/trimesh
v -0.05500607 -0.07641246 0.89490896
v -0.05500607 -0.07640840 0.46513771
v -0.03507635 -0.07007270 0.11474216
v -0.03859288 -0.07093019 0.54106659
v -0.05500607 -0.07636776 0.93499076
v -0.06499319 -0.07623365 0.96492898
v -0.06499319 -0.07624178 0.03507102
v -0.05500607 -0.07637589 0.10518950
v -0.03507635 -0.07003205 0.05998671
v -0.03507635 -0.06780095 0.12508267
v -0.03859288 -0.07072293 0.54411951
v -0.04365524 -0.07166170 0.94336164
v -0.04365524 -0.07186083 0.93607405
v -0.04500682 -0.07262892 0.89490896
v -0.05500607 -0.07624990 0.97497407
v -0.06499319 -0.07583132 0.99496570
v -0.07213147 -0.07213718 0.99496570
v -0.07231357 -0.07230787 0.96492898
v -0.07232166 -0.07230787 0.95498240
v -0.07232975 -0.07231600 0.85492566
v -0.07230548 -0.07231600 0.03507102
v -0.07213147 -0.07213718 0.00503430
v -0.06499319 -0.07583132 0.00503430
v -0.05500607 -0.07624990 0.02502593
v -0.05500607 -0.07633931 0.06500924
v -0.07232975 -0.07231600 0.68494739
v -0.03507635 -0.06463106 0.05338848
v -0.05500607 -0.07609548 0.01507935
v -0.05500607 -0.07583132 0.00503430
v -0.04784351 -0.07212906 0.00503430
v -0.04855572 -0.07143006 -0.00136697
v -0.04412465 -0.06499276 0.00503430
v -0.03507635 -0.06492773 0.13473383
v -0.03859288 -0.06561860 0.55554331
v -0.04369570 -0.06499276 0.97497407
v -0.04386566 -0.06499276 0.98492065
v -0.04412465 -0.06499276 0.99496570
v -0.04784351 -0.07212906 0.99496570
v -0.05500607 -0.07583132 0.99496570
v -0.05500607 -0.07609548 0.98492065
v -0.06499319 -0.07286463 1.00235176
v -0.07143140 -0.07143006 1.00136697
v -0.07583415 -0.06499276 0.99496570
v -0.07625500 -0.06499276 0.96492898
v -0.07232571 -0.07230787 0.93499076
v -0.07622262 -0.06499276 0.03507102
v -0.07143140 -0.07143006 -0.00136697
v -0.07583415 -0.06499276 0.00503430
v -0.06499319 -0.07286463 -0.00235176
v -0.03507635 -0.06379795 0.05279759
v -0.05500607 -0.07286463 -0.00235176
v -0.04711107 -0.06499276 -0.00235176
v -0.04710702 -0.05500762 -0.00235176
v -0.04413274 -0.05500762 0.00503430
v -0.03507635 -0.05619430 0.05279759
v -0.03507635 -0.05507265 0.13473383
v -0.03859288 -0.05438990 0.55554331
v -0.04365524 -0.05504014 0.96414113
v -0.04413274 -0.05500762 0.99496570
v -0.04710702 -0.05500762 1.00235176
v -0.04711107 -0.06499276 1.00235176
v -0.04855572 -0.07143006 1.00136697
v -0.05500607 -0.07286463 1.00235176
v -0.06466541 -0.06466764 1.00294268
v -0.07286391 -0.06499276 1.00235176
v -0.07583010 -0.05500762 0.99496570
v -0.07609313 -0.05500762 0.98492065
v -0.07624286 -0.05500762 0.97497407
v -0.07639258 -0.05500762 0.93499076
v -0.07641686 -0.05500762 0.73497576
v -0.07641686 -0.05500762 0.66495574
v -0.07624286 -0.05500762 0.02502593
v -0.07638045 -0.05500762 0.33514275
v -0.07636830 -0.05500762 0.26512273
v -0.07631975 -0.05500762 0.06500924
v -0.07286391 -0.06499276 -0.00235176
v -0.07609313 -0.05500762 0.01507935
v -0.07583010 -0.05500762 0.00503430
v -0.06466541 -0.06467170 -0.00294268
v -0.05533385 -0.06467170 -0.00294268
v -0.05533385 -0.05532867 -0.00304115
v -0.05500607 -0.04711136 -0.00235176
v -0.04855167 -0.04855000 -0.00136697
v -0.03507635 -0.04995613 0.05998671
v -0.03507635 -0.05480849 0.05427483
v -0.03507635 -0.05221162 0.12547660
v -0.03859288 -0.05087052 0.54500584
v -0.04365524 -0.04672935 0.94267228
v -0.04785161 -0.04784694 0.99496570
v -0.04855167 -0.04855000 1.00136697
v -0.05500607 -0.04711136 1.00235176
v -0.05533385 -0.05532867 1.00304115
v -0.05533385 -0.06466764 1.00294268
v -0.06466541 -0.05532867 1.00294268
v -0.07285986 -0.05500762 1.00235176
v -0.07142735 -0.04855407 1.00136697
v -0.07213147 -0.04784288 0.99496570
v -0.07001103 -0.03489512 0.94001329
v -0.07008792 -0.03489512 0.65540308
v -0.07008792 -0.03489512 0.34469540
v -0.07001103 -0.03489512 0.05998671
v -0.07285986 -0.05500762 -0.00235176
v -0.06466541 -0.05532867 -0.00294268
v -0.07213147 -0.04784288 0.00503430
v -0.07142735 -0.04855407 -0.00136697
v -0.06499319 -0.04711136 -0.00235176
v -0.06499319 -0.04412436 0.00503430
v -0.05500607 -0.04412842 0.00503430
v -0.04998419 -0.03489512 0.05998671
v -0.04785161 -0.04784694 0.00503430
v -0.03507635 -0.04994800 0.06008521
v -0.03507635 -0.05050070 0.11956775
v -0.03859288 -0.05039097 0.53377900
v -0.04365524 -0.04584341 0.93686190
v -0.03507635 -0.04991549 0.11484066
v -0.04998419 -0.03489512 0.94001329
v -0.05500607 -0.04412842 0.99496570
v -0.06499319 -0.04711136 1.00235176
v -0.06499319 -0.04412436 0.99496570
v -0.06481109 -0.03489512 0.94592214
v -0.06461281 -0.03489512 0.05358544
v -0.06402200 -0.03489512 0.05319151
v -0.05598536 -0.03489512 0.05319151
v -0.03507635 -0.04991549 0.11474216
v -0.05539050 -0.03489512 0.94641456
v -0.05597727 -0.03489512 0.94680849
v -0.06401390 -0.03489512 0.94680849
f 1 2 3
f 1 3 4
f 1 4 5
f 1 5 6
f 1 6 7
f 1 7 2
f 2 7 8
f 2 8 3
f 3 8 9
f 3 9 27
f 3 27 50
f 3 50 55
f 3 55 85
f 3 85 84
f 3 84 111
f 3 111 124
f 3 124 115
f 3 115 112
f 3 112 86
f 3 86 56
f 3 56 33
f 3 33 10
f 3 10 11
f 3 11 4
f 4 11 12
f 4 12 13
f 4 13 14
f 4 14 5
f 5 14 15
f 5 15 6
f 6 15 16
f 6 16 17
f 6 17 18
f 6 18 19
f 6 19 20
f 6 20 7
f 7 21 22
f 7 22 23
f 7 23 24
f 7 24 25
f 7 25 8
f 7 20 26
f 7 26 21
f 8 25 9
f 9 25 24
f 9 24 28
f 9 28 29
f 9 29 30
f 9 30 31
f 9 31 32
f 9 32 27
f 10 33 11
f 11 33 34
f 11 34 35
f 11 35 12
f 12 35 36
f 12 36 37
f 12 37 38
f 12 38 39
f 12 39 13
f 13 39 40
f 13 40 15
f 13 15 14
f 15 40 16
f 16 40 39
f 16 39 63
f 16 63 41
f 16 41 42
f 16 42 17
f 17 42 43
f 17 43 44
f 17 44 18
f 18 44 19
f 19 44 45
f 19 45 20
f 20 45 44
f 20 44 26
f 21 46 22
f 21 26 46
f 22 47 23
f 22 46 48
f 22 48 47
f 23 29 28
f 23 28 24
f 23 47 49
f 23 49 51
f 23 51 29
f 26 44 46
f 27 32 50
f 29 51 31
f 29 31 30
f 31 51 52
f 31 52 32
f 32 52 53
f 32 53 54
f 32 54 55
f 32 55 50
f 33 56 57
f 33 57 34
f 34 57 35
f 35 58 59
f 35 59 36
f 35 57 58
f 36 59 37
f 37 59 60
f 37 60 61
f 37 61 62
f 37 62 38
f 38 62 39
f 39 62 63
f 41 63 93
f 41 93 64
f 41 64 65
f 41 65 42
f 42 65 43
f 43 65 95
f 43 95 66
f 43 66 67
f 43 67 68
f 43 68 44
f 44 68 69
f 44 69 70
f 44 70 71
f 44 71 46
f 46 72 48
f 46 71 73
f 46 73 74
f 46 74 75
f 46 75 72
f 47 48 76
f 47 76 49
f 48 72 77
f 48 77 78
f 48 78 102
f 48 102 76
f 49 79 80
f 49 80 51
f 49 76 79
f 51 80 52
f 52 80 81
f 52 81 53
f 53 81 82
f 53 82 83
f 53 83 54
f 54 83 84
f 54 84 85
f 54 85 55
f 56 86 87
f 56 87 57
f 57 87 88
f 57 88 58
f 58 88 59
f 59 89 90
f 59 90 60
f 59 88 89
f 60 90 91
f 60 91 92
f 60 92 61
f 61 92 93
f 61 93 63
f 61 63 62
f 64 93 92
f 64 92 94
f 64 94 65
f 65 94 95
f 66 95 96
f 66 96 97
f 66 97 98
f 66 98 67
f 67 98 68
f 68 98 69
f 69 98 99
f 69 99 70
f 70 99 100
f 70 100 71
f 71 100 73
f 72 75 101
f 72 101 77
f 73 100 74
f 74 100 75
f 75 100 101
f 76 102 103
f 76 103 79
f 77 101 78
f 78 104 105
f 78 105 102
f 78 101 104
f 79 81 80
f 79 103 81
f 81 103 106
f 81 106 82
f 82 106 107
f 82 107 108
f 82 108 83
f 83 108 109
f 83 109 110
f 83 110 84
f 84 109 111
f 84 110 109
f 86 112 87
f 87 113 114
f 87 114 88
f 87 112 115
f 87 115 113
f 88 114 116
f 88 116 89
f 89 116 90
f 90 117 91
f 90 116 117
f 91 118 92
f 91 117 119
f 91 119 118
f 92 118 94
f 94 118 95
f 95 118 96
f 96 118 119
f 96 119 98
f 96 98 97
f 98 119 120
f 98 120 127
f 98 127 126
f 98 126 125
f 98 125 116
f 98 116 109
f 98 109 123
f 98 123 122
f 98 122 121
f 98 121 101
f 98 101 100
f 98 100 99
f 101 121 107
f 101 107 105
f 101 105 104
f 102 105 106
f 102 106 103
f 105 107 106
f 107 121 122
f 107 122 123
f 107 123 108
f 108 123 109
f 109 124 111
f 109 116 115
f 109 115 124
f 113 115 114
f 114 115 116
f 116 125 117
f 117 125 126
f 117 126 119
f 119 127 120
f 119 126 127

