# https://github.com/mikedh/trimesh
v -0.03512821 0.06373028 0.94730094
v -0.03512821 0.05626047 0.94730094
v -0.03512821 0.06461096 0.94661158
v -0.04411976 0.06499526 0.99496579
v -0.03512821 0.05479134 0.94572526
v -0.04412784 0.05500350 0.99496579
v -0.03512821 0.06997112 0.94011182
v -0.04855289 0.07142825 1.00136703
v -0.04711020 0.06499526 1.00235188
v -0.04711020 0.05500350 1.00235188
v -0.03512821 0.07003918 0.94001335
v -0.03512821 0.04993556 0.94001335
v -0.04854885 0.04855049 1.00136703
v -0.05500659 0.07286137 1.00235188
v -0.04784569 0.07213280 0.99496579
v -0.05500659 0.07583167 0.99496579
v -0.05532989 0.06466700 1.00294274
v -0.05532989 0.05533176 1.00304121
v -0.05500659 0.04710937 1.00235188
v -0.03512821 0.07004318 0.93961942
v -0.05500659 0.07624800 0.97497413
v -0.05500659 0.07609187 0.98492071
v -0.04876707 0.03823848 0.94089967
v -0.03512821 0.04991955 0.93991488
v -0.04784973 0.04784995 0.99496579
v -0.05500256 0.04412705 0.99496579
v -0.06499630 0.07286137 1.00235188
v -0.06499630 0.07583568 0.99496579
v -0.06466897 0.06466700 1.00294274
v -0.06466897 0.05533176 1.00294274
v -0.06499630 0.04710937 1.00235188
v -0.06499630 0.04411905 0.99496579
v -0.03512821 0.07008321 0.65560007
v -0.05500659 0.07639611 0.93499082
v -0.06499630 0.07625600 0.96492904
v -0.05196362 0.03823848 0.94464195
v -0.05509550 0.03552438 0.13493073
v -0.05481666 0.03552438 0.13394591
v -0.05240006 0.03552438 0.12508264
v -0.04984606 0.03552438 0.11474213
v -0.04843570 0.03823848 0.93873310
v -0.04982585 0.03552438 0.11434820
v -0.04973290 0.03552438 0.06057754
v -0.03512821 0.04991955 0.06038058
v -0.05837287 0.03823848 0.95202804
v -0.07143384 0.07143226 1.00136703
v -0.07286441 0.06499526 1.00235188
v -0.07213296 0.07213680 0.99496579
v -0.07286441 0.05500350 1.00235188
v -0.07142576 0.04855449 1.00136703
v -0.06542062 0.04433922 0.99496579
v -0.07062966 0.03823848 0.94119513
v -0.06460835 0.03823848 0.94995993
v -0.06161790 0.03823848 0.95202804
v -0.05500659 0.07642013 0.73497580
v -0.03512821 0.07008321 0.34439993
v -0.06499630 0.07625200 0.78490570
v -0.07231885 0.07233296 0.70493907
v -0.07231885 0.07233296 0.80499583
v -0.07230673 0.07232495 0.95498246
v -0.07230673 0.07232095 0.96492904
v -0.06490739 0.03552438 0.13493073
v -0.04978544 0.03552438 0.05988818
v -0.03512821 0.04993556 0.05998665
v -0.07583465 0.06499526 0.99496579
v -0.07623472 0.06499526 0.96492904
v -0.07583465 0.05500350 0.99496579
v -0.07213296 0.04784194 0.99496579
v -0.07069835 0.03823848 0.93814221
v -0.07015684 0.03552438 0.11474213
v -0.06943752 0.03552438 0.11907527
v -0.07609328 0.05500350 0.98492071
v -0.05500659 0.07641613 0.66495577
v -0.06499630 0.07621998 0.03507096
v -0.03512821 0.07004318 0.06008512
v -0.05500659 0.07637209 0.26502420
v -0.05500659 0.07638010 0.33504423
v -0.07231885 0.07230493 0.03507096
v -0.07623876 0.06499526 0.03507096
v -0.05537030 0.03552438 0.05289602
v -0.05500659 0.04412705 0.00503421
v -0.04854885 0.04855049 -0.00136703
v -0.04784973 0.04784995 0.00503421
v -0.03512821 0.05539180 0.05338842
v -0.04412784 0.05500350 0.00503421
v -0.07624684 0.05500350 0.97497413
v -0.07641253 0.05500350 0.89490902
v -0.07637212 0.05500350 0.93499082
v -0.07088020 0.03823848 0.88821232
v -0.07638020 0.05500350 0.10509098
v -0.07012451 0.03552438 0.06028208
v -0.07640444 0.05500350 0.46513771
v -0.05500659 0.07631604 0.06500918
v -0.05500659 0.07624800 0.02502587
v -0.06499630 0.07583568 0.00503421
v -0.07213296 0.07213680 0.00503421
v -0.03512821 0.07003918 0.05998665
v -0.05500659 0.07583167 0.00503421
v -0.05500659 0.07609187 0.01507929
v -0.07583465 0.06499526 0.00503421
v -0.07624684 0.05500350 0.02502587
v -0.07633979 0.05500350 0.06500918
v -0.05674428 0.03552438 0.05191121
v -0.06499630 0.04411905 0.00503421
v -0.05500659 0.04710937 -0.00235188
v -0.04711020 0.05500350 -0.00235188
v -0.03512821 0.05626848 0.05269906
v -0.04411976 0.06499526 0.00503421
v -0.07011238 0.03552438 0.05988818
v -0.07609328 0.05500350 0.01507929
v -0.07583465 0.05500350 0.00503421
v -0.05500659 0.07286137 -0.00235188
v -0.06499630 0.07286137 -0.00235188
v -0.07143384 0.07143226 -0.00136703
v -0.03512821 0.06510735 0.05427474
v -0.04855289 0.07142825 -0.00136703
v -0.04784569 0.07213280 0.00503421
v -0.07286441 0.06499526 -0.00235188
v -0.06325053 0.03552438 0.05191121
v -0.07142576 0.04855449 -0.00136703
v -0.06499630 0.04710937 -0.00235188
v -0.06540041 0.03552438 0.05437323
v -0.05532989 0.05533176 -0.00304121
v -0.04711020 0.06499526 -0.00235188
v -0.03512821 0.06373428 0.05269906
v -0.07213296 0.04784194 0.00503421
v -0.07286441 0.05500350 -0.00235188
v -0.05532989 0.06466700 -0.00294274
v -0.06466897 0.06466700 -0.00294274
v -0.06466897 0.05533176 -0.00294274
f 1 2 5
f 1 5 12
f 1 12 24
f 1 24 44
f 1 44 64
f 1 64 84
f 1 84 107
f 1 107 125
f 1 125 115
f 1 115 97
f 1 97 75
f 1 75 56
f 1 56 33
f 1 33 20
f 1 20 11
f 1 11 7
f 1 7 3
f 1 3 4
f 1 4 2
f 2 4 6
f 2 6 5
f 3 7 4
f 4 8 9
f 4 9 10
f 4 10 6
f 4 7 11
f 4 11 8
f 5 6 12
f 6 10 13
f 6 13 12
f 8 14 9
f 8 11 15
f 8 15 16
f 8 16 14
f 9 14 17
f 9 17 18
f 9 18 10
f 10 18 19
f 10 19 13
f 11 20 21
f 11 21 22
f 11 22 16
f 11 16 15
f 12 23 24
f 12 13 25
f 12 25 23
f 13 19 26
f 13 26 23
f 13 23 25
f 14 27 29
f 14 29 17
f 14 16 28
f 14 28 27
f 16 22 28
f 17 29 18
f 18 29 30
f 18 30 31
f 18 31 19
f 19 31 32
f 19 32 26
f 20 33 34
f 20 34 21
f 21 35 28
f 21 28 22
f 21 34 35
f 23 26 36
f 23 36 37
f 23 37 38
f 23 38 39
f 23 39 40
f 23 40 41
f 23 41 24
f 24 41 42
f 24 42 43
f 24 43 44
f 26 32 45
f 26 45 36
f 27 28 46
f 27 46 47
f 27 47 29
f 28 35 48
f 28 48 46
f 29 47 49
f 29 49 30
f 30 49 31
f 31 49 50
f 31 50 32
f 32 50 51
f 32 51 52
f 32 52 53
f 32 53 54
f 32 54 45
f 33 55 34
f 33 56 55
f 34 55 35
f 35 55 57
f 35 57 58
f 35 58 59
f 35 59 60
f 35 60 61
f 35 61 48
f 36 45 37
f 37 62 71
f 37 71 70
f 37 70 91
f 37 91 109
f 37 109 122
f 37 122 119
f 37 119 103
f 37 103 80
f 37 80 63
f 37 63 43
f 37 43 42
f 37 42 40
f 37 40 39
f 37 39 38
f 37 45 54
f 37 54 62
f 40 42 41
f 43 63 64
f 43 64 44
f 46 48 65
f 46 65 47
f 47 65 67
f 47 67 49
f 48 61 66
f 48 66 65
f 49 67 50
f 50 67 68
f 50 68 51
f 51 68 52
f 52 69 70
f 52 70 71
f 52 71 62
f 52 62 53
f 52 68 67
f 52 67 72
f 52 72 69
f 53 62 54
f 55 56 73
f 55 73 74
f 55 74 57
f 56 75 76
f 56 76 77
f 56 77 73
f 57 74 78
f 57 78 58
f 58 78 79
f 58 79 59
f 59 79 66
f 59 66 60
f 60 66 61
f 63 80 81
f 63 81 82
f 63 82 83
f 63 83 64
f 64 83 82
f 64 82 85
f 64 85 84
f 65 86 72
f 65 72 67
f 65 66 86
f 66 87 88
f 66 88 86
f 66 79 87
f 69 89 70
f 69 72 86
f 69 86 89
f 70 90 91
f 70 89 87
f 70 87 92
f 70 92 90
f 73 77 74
f 74 77 76
f 74 76 93
f 74 93 94
f 74 94 95
f 74 95 96
f 74 96 78
f 75 97 98
f 75 98 99
f 75 99 94
f 75 94 93
f 75 93 76
f 78 96 79
f 79 96 100
f 79 100 101
f 79 101 102
f 79 102 90
f 79 90 92
f 79 92 87
f 80 103 81
f 81 104 105
f 81 105 82
f 81 103 104
f 82 105 106
f 82 106 85
f 84 85 107
f 85 106 108
f 85 108 107
f 86 88 89
f 87 89 88
f 90 102 91
f 91 102 101
f 91 101 110
f 91 110 111
f 91 111 109
f 94 99 95
f 95 99 98
f 95 98 112
f 95 112 113
f 95 113 114
f 95 114 96
f 96 114 100
f 97 115 108
f 97 108 116
f 97 116 117
f 97 117 98
f 98 117 116
f 98 116 112
f 100 114 118
f 100 118 127
f 100 127 111
f 100 111 110
f 100 110 101
f 103 119 104
f 104 120 121
f 104 121 105
f 104 119 122
f 104 122 109
f 104 109 120
f 105 121 123
f 105 123 106
f 106 123 124
f 106 124 108
f 107 108 125
f 108 124 116
f 108 115 125
f 109 111 126
f 109 126 120
f 111 127 120
f 111 120 126
f 112 116 124
f 112 124 128
f 112 128 129
f 112 129 113
f 113 129 118
f 113 118 114
f 118 129 130
f 118 130 127
f 120 127 121
f 121 127 130
f 121 130 123
f 123 130 129
f 123 129 128
f 123 128 124

