# https://github.com/mikedh/trimesh
v -0.03472781 -0.06454262 0.92466563
v -0.03472781 -0.06463090 0.92481542
v -0.03472781 -0.05545387 0.92466563
v 0.03443387 -0.06451124 0.92609292
v -0.03472781 -0.06955488 0.93470377
v 0.03443387 -0.06951172 0.93470377
v 0.01499738 -0.06953722 0.93470377
v -0.03472781 -0.05044357 0.93470377
v 0.01499738 -0.05046319 0.93470377
v 0.03443387 -0.05048870 0.93470377
v 0.03443387 -0.05520277 0.92655301
v 0.03443387 -0.05548722 0.92609292
v -0.03472781 -0.06956861 0.93483859
v 0.03443387 -0.07001785 0.93970039
v -0.03472781 -0.04999238 0.93956557
v 0.03443387 -0.04997864 0.93970039
v -0.03472781 -0.07001981 0.93970895
v 0.03443387 -0.07001785 0.94001922
v -0.03472781 -0.04998060 0.93969825
v 0.03443387 -0.04997864 0.94003850
v -0.03472781 -0.07001981 0.94003850
v 0.03443387 -0.06462109 0.94590175
v -0.03472781 -0.06421501 0.94652659
v 0.02499657 -0.07001589 0.94003636
v -0.03472781 -0.04998060 0.94002777
v 0.03443387 -0.05541463 0.94595096
v -0.02499264 -0.04998257 0.94003636
v -0.03472781 -0.05538913 0.94625482
v -0.03472781 -0.06485454 0.94581187
v 0.03443387 -0.06456028 0.94594881
v -0.03472781 -0.05578344 0.94652659
f 1 2 5
f 1 5 13
f 1 13 17
f 1 17 21
f 1 21 29
f 1 29 23
f 1 23 31
f 1 31 28
f 1 28 25
f 1 25 19
f 1 19 15
f 1 15 8
f 1 8 3
f 1 3 12
f 1 12 4
f 1 4 2
f 2 4 6
f 2 6 7
f 2 7 5
f 3 8 9
f 3 9 10
f 3 10 11
f 3 11 12
f 4 12 11
f 4 11 10
f 4 10 16
f 4 16 20
f 4 20 26
f 4 26 30
f 4 30 22
f 4 22 18
f 4 18 14
f 4 14 6
f 5 7 13
f 6 14 7
f 7 14 13
f 8 15 16
f 8 16 9
f 9 16 10
f 13 14 17
f 14 18 21
f 14 21 17
f 15 19 16
f 16 19 25
f 16 25 20
f 18 22 23
f 18 23 24
f 18 24 21
f 20 25 27
f 20 27 28
f 20 28 26
f 21 24 29
f 22 30 23
f 23 29 24
f 23 30 26
f 23 26 31
f 25 28 27
f 26 28 31

