# https://github.com/mikedh/trimesh
v 0.03518505 0.05633638 0.05252993
v 0.03518505 0.06366485 0.05252993
v 0.03518505 0.05471354 0.05427706
v -0.03512821 0.05539071 0.05330122
v -0.03512821 0.05626926 0.05269217
v 0.03518505 0.06463224 0.05321655
v -0.03512821 0.05677072 0.05269217
v -0.03512821 0.06373592 0.05269453
v 0.03518505 0.04991016 0.05990404
v -0.03512821 0.04993188 0.05992284
v 0.03518505 0.07005357 0.05988759
v -0.03512821 0.06510804 0.05422768
v -0.03512821 0.07004172 0.05991110
v 0.03518505 0.04989041 0.06002867
v -0.03512821 0.04991806 0.06034142
v 0.03518505 0.07005752 0.06037667
v -0.03512821 0.07004370 0.06001925
v 0.03518505 0.04989041 0.06036258
v -0.03512821 0.05042149 0.06527472
v 0.03518505 0.06960541 0.06527001
v -0.03512821 0.07004370 0.06035316
v 0.03518505 0.05043729 0.06535232
v -0.03512821 0.05546376 0.07397267
v 0.03518505 0.05047677 0.06558040
v 0.03518505 0.05561973 0.07655221
v 0.03518505 0.06437954 0.07655221
v -0.03512821 0.06951657 0.06533116
v -0.03512821 0.06943958 0.06550282
v -0.03512821 0.06430649 0.07397267
v -0.03512821 0.06453747 0.07397035
f 1 2 6
f 1 6 11
f 1 11 16
f 1 16 20
f 1 20 26
f 1 26 25
f 1 25 24
f 1 24 22
f 1 22 18
f 1 18 14
f 1 14 9
f 1 9 3
f 1 3 4
f 1 4 5
f 1 5 7
f 1 7 2
f 2 7 8
f 2 8 6
f 3 9 4
f 4 10 15
f 4 15 19
f 4 19 23
f 4 23 29
f 4 29 30
f 4 30 28
f 4 28 27
f 4 27 21
f 4 21 17
f 4 17 13
f 4 13 12
f 4 12 8
f 4 8 7
f 4 7 5
f 4 9 10
f 6 8 12
f 6 12 13
f 6 13 11
f 9 14 10
f 10 14 15
f 11 13 17
f 11 17 16
f 14 18 15
f 15 18 19
f 16 17 21
f 16 21 20
f 18 22 19
f 19 22 24
f 19 24 25
f 19 25 23
f 20 21 27
f 20 27 28
f 20 28 26
f 23 25 26
f 23 26 29
f 26 28 30
f 26 30 29

