# https://github.com/mikedh/trimesh
v 0.06326232 -0.00929797 0.81651238
v 0.06494799 -0.00929797 0.81987974
v 0.05674624 -0.00929797 0.81652457
v 0.05803832 -0.00114901 0.79773569
v 0.06196825 -0.00114901 0.79773569
v 0.06395409 -0.00294041 0.80499503
v 0.06585047 0.02508928 0.75449690
v 0.06600551 -0.00500544 0.81401125
v 0.07014018 -0.00057182 0.81706139
v 0.06997519 -0.00929797 0.83652130
v 0.05400503 -0.00500971 0.81408447
v 0.05606243 -0.00294041 0.80499503
v 0.05384998 -0.00929797 0.82488197
v 0.05621152 0.01724388 0.76500160
v 0.05629103 0.02733388 0.74500488
v 0.05818741 0.01896260 0.75797406
v 0.06181717 0.01896260 0.75797406
v 0.06371753 0.02733388 0.74500488
v 0.06380102 0.01724388 0.76500160
v 0.06559602 0.03437978 0.73563483
v 0.07016006 0.02942456 0.75769347
v 0.07014018 -0.00057182 0.82118520
v 0.07014813 0.00942840 0.79730868
v 0.06974063 -0.00929797 0.84135273
v 0.07014018 0.00039015 0.82118520
v 0.05000355 -0.00929797 0.83670431
v 0.04985446 -0.00058037 0.81720781
v 0.04985248 0.02946304 0.75779107
v 0.05415412 0.02511066 0.75454572
v 0.05471866 0.03437978 0.73511022
v 0.05826692 0.02902268 0.73808715
v 0.06173766 0.02902268 0.73808715
v 0.06529785 0.03437978 0.73504922
v 0.06849029 0.03437978 0.74615173
v 0.07016006 0.03046777 0.75769347
v 0.07016006 0.02942456 0.76150003
v 0.07015410 0.01942007 0.77751938
v 0.07014813 0.00942840 0.80128607
v 0.06318678 -0.00929797 0.85649362
v 0.06347502 0.03431138 0.77500606
v 0.07014813 0.01042030 0.80128607
v 0.05000355 -0.00929797 0.84059629
v 0.04985446 -0.00058037 0.82124618
v 0.04985248 0.02946304 0.76148784
v 0.04985248 0.03043784 0.75779107
v 0.05195360 0.03437978 0.74498047
v 0.06896538 0.03437978 0.75393569
v 0.07016006 0.03046777 0.76150003
v 0.06898724 0.03437978 0.75450912
v 0.07015410 0.01942007 0.78139916
v 0.06280115 -0.00810512 0.85499296
v 0.06120691 -0.00929797 0.85967797
v 0.06163628 0.03275940 0.78169197
v 0.06367976 0.03437978 0.77417642
v 0.05650571 0.03431138 0.77500606
v 0.07015410 0.02044190 0.78139916
v 0.05022022 -0.00929797 0.84140152
v 0.04985446 0.00040297 0.82124618
v 0.04985248 0.03043784 0.76148784
v 0.05102132 0.03437978 0.75467992
v 0.05102926 0.03437978 0.75389910
v 0.06897333 0.03437978 0.75461891
v 0.06645078 0.03437978 0.76494059
v 0.05879171 -0.00929797 0.85967797
v 0.05835637 0.03275940 0.78169197
v 0.05732271 0.03437978 0.77417642
v 0.05629699 0.03437978 0.77415201
v 0.05719151 -0.00810512 0.85499296
v 0.05628705 -0.00929797 0.85499296
v 0.05355579 0.03437978 0.76494059
f 1 2 10
f 1 10 24
f 1 24 39
f 1 39 52
f 1 52 64
f 1 64 69
f 1 69 57
f 1 57 42
f 1 42 26
f 1 26 13
f 1 13 3
f 1 3 4
f 1 4 5
f 1 5 6
f 1 6 2
f 2 6 7
f 2 7 8
f 2 8 9
f 2 9 10
f 3 11 12
f 3 12 4
f 3 13 11
f 4 12 14
f 4 14 15
f 4 15 16
f 4 16 17
f 4 17 5
f 5 17 18
f 5 18 19
f 5 19 6
f 6 19 20
f 6 20 7
f 7 20 21
f 7 21 8
f 8 21 9
f 9 22 10
f 9 21 23
f 9 23 38
f 9 38 22
f 10 22 25
f 10 25 24
f 11 13 26
f 11 26 27
f 11 27 28
f 11 28 29
f 11 29 12
f 12 29 14
f 14 29 15
f 15 29 30
f 15 30 31
f 15 31 16
f 16 31 32
f 16 32 17
f 17 32 18
f 18 32 33
f 18 33 20
f 18 20 19
f 20 33 30
f 20 30 46
f 20 46 61
f 20 61 60
f 20 60 70
f 20 70 67
f 20 67 66
f 20 66 54
f 20 54 63
f 20 63 62
f 20 62 49
f 20 49 47
f 20 47 34
f 20 34 21
f 21 34 35
f 21 35 48
f 21 48 36
f 21 36 50
f 21 50 37
f 21 37 23
f 22 38 41
f 22 41 25
f 23 37 50
f 23 50 38
f 24 25 40
f 24 40 39
f 25 41 40
f 26 42 43
f 26 43 27
f 27 43 44
f 27 44 28
f 28 44 59
f 28 59 45
f 28 45 46
f 28 46 30
f 28 30 29
f 30 33 31
f 31 33 32
f 34 47 35
f 35 47 49
f 35 49 48
f 36 48 56
f 36 56 50
f 38 50 56
f 38 56 41
f 39 51 52
f 39 40 53
f 39 53 51
f 40 54 66
f 40 66 55
f 40 55 65
f 40 65 53
f 40 41 56
f 40 56 48
f 40 48 54
f 42 57 58
f 42 58 43
f 43 58 59
f 43 59 44
f 45 59 60
f 45 60 61
f 45 61 46
f 48 49 62
f 48 62 63
f 48 63 54
f 51 53 52
f 52 53 65
f 52 65 64
f 55 66 67
f 55 67 59
f 55 59 58
f 55 58 57
f 55 57 68
f 55 68 65
f 57 69 68
f 59 67 70
f 59 70 60
f 64 65 68
f 64 68 69

