# https://github.com/mikedh/trimesh
v -0.03507635 -0.06380283 0.05274999
v -0.03507635 -0.06463286 0.05333912
v -0.03507635 -0.06330913 0.05274999
v 0.03438002 -0.06461713 0.05410412
v -0.03507635 -0.07003397 0.05993387
v 0.03438002 -0.07001626 0.05996129
v -0.03507635 -0.05619879 0.05275455
v 0.03438002 -0.05538843 0.05410638
v -0.03507635 -0.07003593 0.06033349
v 0.03438002 -0.07001626 0.06028098
v -0.03507635 -0.05480623 0.05425024
v 0.03438002 -0.04998142 0.05996129
v -0.03507635 -0.06957765 0.06528413
v 0.03438002 -0.06954421 0.06498727
v 0.01499669 -0.06953831 0.06529784
v -0.03507635 -0.04994995 0.05994073
v 0.03438002 -0.04998142 0.06029925
v -0.03507635 -0.04994208 0.05998868
v -0.03507635 -0.06444404 0.07607824
v 0.03438002 -0.06951274 0.06529784
v 0.03438002 -0.05001093 0.06060979
v -0.03507635 -0.04994208 0.06032208
v -0.03507635 -0.05555365 0.07607824
v 0.03438002 -0.06482168 0.07339969
v 0.03438002 -0.06451288 0.07390663
v 0.01499669 -0.05046134 0.06529555
v 0.03438002 -0.05048691 0.06529555
v -0.03507635 -0.05043971 0.06531611
v -0.03507635 -0.05045544 0.06541201
v 0.03438002 -0.05548874 0.07390663
f 1 2 5
f 1 5 9
f 1 9 13
f 1 13 19
f 1 19 23
f 1 23 29
f 1 29 28
f 1 28 22
f 1 22 18
f 1 18 16
f 1 16 11
f 1 11 7
f 1 7 3
f 1 3 4
f 1 4 2
f 2 4 6
f 2 6 5
f 3 7 8
f 3 8 4
f 4 8 12
f 4 12 17
f 4 17 21
f 4 21 27
f 4 27 30
f 4 30 25
f 4 25 24
f 4 24 20
f 4 20 14
f 4 14 10
f 4 10 6
f 5 6 9
f 6 10 9
f 7 11 8
f 8 11 12
f 9 10 13
f 10 14 15
f 10 15 13
f 11 16 12
f 12 16 18
f 12 18 22
f 12 22 17
f 13 15 19
f 14 20 15
f 15 20 19
f 17 22 21
f 19 20 24
f 19 24 25
f 19 25 30
f 19 30 23
f 21 26 27
f 21 22 26
f 22 28 26
f 23 30 27
f 23 27 26
f 23 26 29
f 26 28 29

