# https://github.com/mikedh/trimesh
v 0.05539066 0.03438390 0.05427474
v 0.06461602 0.03438390 0.05427474
v 0.04998297 0.03438390 0.06008512
v 0.05500324 0.04412682 0.00513270
v 0.06499536 0.04411859 0.00513270
v 0.07001159 0.03438390 0.06008512
v 0.04998297 0.03438390 0.06038058
v 0.03519253 0.04989111 0.06008512
v 0.04785218 0.04785037 0.00503421
v 0.04855437 0.04855393 -0.00136703
v 0.05486603 0.04422557 0.00493574
v 0.05500324 0.04422557 0.00483727
v 0.06499536 0.04422557 0.00483727
v 0.07142809 0.04855393 -0.00136703
v 0.06519310 0.04422557 0.00503421
v 0.07213029 0.04784214 0.00503421
v 0.07583091 0.05500121 0.00503421
v 0.07608920 0.05500121 0.01507929
v 0.07624658 0.05500121 0.02502587
v 0.07631519 0.05500121 0.06500918
v 0.07636765 0.05500121 0.26502420
v 0.07638379 0.05500121 0.33504423
v 0.07641608 0.05500121 0.66495577
v 0.07642011 0.05500121 0.73497580
v 0.07001159 0.03438390 0.93981639
v 0.04999104 0.03438390 0.93981639
v 0.03519253 0.04989111 0.93961942
v 0.03519253 0.04991169 0.05998665
v 0.04413136 0.05500121 0.00503421
v 0.04710963 0.05500121 -0.00235188
v 0.05500324 0.04710566 -0.00235188
v 0.06499536 0.04710978 -0.00235188
v 0.07286073 0.05500121 -0.00235188
v 0.07583091 0.06499924 0.00503421
v 0.07621833 0.06499924 0.03507096
v 0.07625869 0.06499924 0.96492904
v 0.07639186 0.05500121 0.93499082
v 0.07624658 0.05500121 0.97497413
v 0.07608920 0.05500121 0.98492071
v 0.07583091 0.05500121 0.99496579
v 0.07213029 0.04784214 0.99496579
v 0.07142809 0.04855393 1.00136703
v 0.06519310 0.04422557 0.99496579
v 0.06514468 0.04422557 0.99506426
v 0.06499133 0.04411859 0.99486730
v 0.06460794 0.03438390 0.94572526
v 0.05538662 0.03438390 0.94572526
v 0.05500324 0.04412682 0.99486730
v 0.05482164 0.04422557 0.99496579
v 0.04855437 0.04855393 1.00136703
v 0.04785218 0.04785037 0.99496579
v 0.03519253 0.04991169 0.94001335
v 0.03519253 0.05471321 0.05427474
v 0.04412329 0.06499924 0.00503421
v 0.03519253 0.05633017 0.05260056
v 0.04710963 0.06499924 -0.00235188
v 0.05533416 0.05533037 -0.00304121
v 0.06466848 0.05533037 -0.00294274
v 0.07286073 0.06499924 -0.00235188
v 0.07213029 0.07213363 0.00503421
v 0.07143212 0.07143006 -0.00136703
v 0.07230381 0.07231878 0.03507096
v 0.07233206 0.07231878 0.74492238
v 0.07233206 0.07231878 0.79495075
v 0.07232802 0.07231055 0.89490902
v 0.07232399 0.07230643 0.95498246
v 0.07231592 0.07230643 0.96492904
v 0.07213029 0.07213363 0.99496579
v 0.07583091 0.06499924 0.99496579
v 0.07286073 0.05500121 1.00235188
v 0.06499536 0.04710978 1.00235188
v 0.06499536 0.04422557 0.99516273
v 0.05500324 0.04422557 0.99516273
v 0.05500324 0.04710978 1.00235188
v 0.04710963 0.05500121 1.00235188
v 0.04413136 0.05500121 0.99496579
v 0.03519253 0.05004746 0.94021031
v 0.04855437 0.07143006 -0.00136703
v 0.03519253 0.06366616 0.05260056
v 0.03519253 0.06463306 0.05328995
v 0.03519253 0.07005174 0.05988818
v 0.05500324 0.07286188 -0.00235188
v 0.05533416 0.06467009 -0.00294274
v 0.06466848 0.06467009 -0.00294274
v 0.06499536 0.07286599 -0.00235188
v 0.06499536 0.07583249 0.00503421
v 0.06499536 0.07623981 0.03507096
v 0.06499536 0.07623570 0.96492904
v 0.06499536 0.07583249 0.99496579
v 0.07143212 0.07143006 1.00136703
v 0.07286073 0.06499924 1.00235188
v 0.06466848 0.05533037 1.00294274
v 0.05533416 0.05533037 1.00304121
v 0.04710963 0.06499924 1.00235188
v 0.04412329 0.06499924 0.99496579
v 0.03519253 0.05634251 0.94739944
v 0.03519253 0.05539209 0.94671005
v 0.04784411 0.07212952 0.00503421
v 0.05500324 0.07583249 0.00503421
v 0.05500324 0.07624804 0.02502587
v 0.05500324 0.07609169 0.01507929
v 0.03519253 0.07005585 0.06038058
v 0.05500324 0.07633856 0.06500918
v 0.05500324 0.07637970 0.10509098
v 0.05500324 0.07640851 0.46513771
v 0.05500324 0.07641262 0.89490902
v 0.05500324 0.07637148 0.93499082
v 0.05500324 0.07624804 0.97497413
v 0.05500324 0.07609169 0.98492071
v 0.05500324 0.07583249 0.99496579
v 0.06499536 0.07286599 1.00235188
v 0.06466848 0.06467009 1.00294274
v 0.05533416 0.06467009 1.00294274
v 0.05500324 0.07286188 1.00235188
v 0.04855437 0.07143006 1.00136703
v 0.03519253 0.07005174 0.94011182
v 0.03519253 0.06514324 0.94572526
v 0.03519253 0.06365383 0.94739944
v 0.03519253 0.07009288 0.11464363
v 0.03519253 0.07008877 0.88535637
v 0.03519253 0.07005996 0.93991488
v 0.04784411 0.07212952 0.99496579
f 1 2 6
f 1 6 25
f 1 25 46
f 1 46 47
f 1 47 26
f 1 26 7
f 1 7 3
f 1 3 4
f 1 4 5
f 1 5 2
f 2 5 6
f 3 7 27
f 3 27 8
f 3 8 9
f 3 9 10
f 3 10 11
f 3 11 4
f 4 11 12
f 4 12 5
f 5 12 13
f 5 13 14
f 5 14 15
f 5 15 6
f 6 15 14
f 6 14 16
f 6 16 17
f 6 17 18
f 6 18 19
f 6 19 20
f 6 20 21
f 6 21 22
f 6 22 23
f 6 23 24
f 6 24 25
f 7 26 27
f 8 28 9
f 8 27 52
f 8 52 77
f 8 77 97
f 8 97 96
f 8 96 118
f 8 118 117
f 8 117 116
f 8 116 121
f 8 121 120
f 8 120 119
f 8 119 102
f 8 102 81
f 8 81 80
f 8 80 79
f 8 79 55
f 8 55 53
f 8 53 28
f 9 28 10
f 10 28 29
f 10 29 30
f 10 30 31
f 10 31 12
f 10 12 11
f 12 31 13
f 13 31 32
f 13 32 14
f 14 32 33
f 14 33 17
f 14 17 16
f 17 34 18
f 17 33 59
f 17 59 34
f 18 34 19
f 19 35 20
f 19 34 35
f 20 35 21
f 21 35 22
f 22 35 23
f 23 35 24
f 24 36 37
f 24 37 25
f 24 35 36
f 25 37 38
f 25 38 39
f 25 39 40
f 25 40 41
f 25 41 42
f 25 42 43
f 25 43 44
f 25 44 45
f 25 45 46
f 26 47 48
f 26 48 49
f 26 49 50
f 26 50 51
f 26 51 52
f 26 52 27
f 28 53 29
f 29 54 30
f 29 53 55
f 29 55 54
f 30 56 57
f 30 57 31
f 30 54 56
f 31 57 32
f 32 57 58
f 32 58 33
f 33 58 84
f 33 84 59
f 34 60 35
f 34 59 61
f 34 61 60
f 35 60 62
f 35 62 36
f 36 38 37
f 36 62 63
f 36 63 64
f 36 64 65
f 36 65 66
f 36 66 67
f 36 67 68
f 36 68 69
f 36 69 38
f 38 69 39
f 39 69 40
f 40 69 91
f 40 91 70
f 40 70 42
f 40 42 41
f 42 71 44
f 42 44 43
f 42 70 71
f 44 71 72
f 44 72 45
f 45 72 73
f 45 73 48
f 45 48 47
f 45 47 46
f 48 73 50
f 48 50 49
f 50 73 74
f 50 74 75
f 50 75 76
f 50 76 52
f 50 52 51
f 52 76 77
f 54 78 56
f 54 55 79
f 54 79 80
f 54 80 81
f 54 81 78
f 56 78 82
f 56 82 83
f 56 83 57
f 57 83 84
f 57 84 58
f 59 84 85
f 59 85 61
f 60 61 86
f 60 86 87
f 60 87 62
f 61 85 86
f 62 87 63
f 63 87 64
f 64 87 88
f 64 88 65
f 65 88 66
f 66 88 67
f 67 88 68
f 68 89 90
f 68 90 69
f 68 88 89
f 69 90 91
f 70 91 112
f 70 112 92
f 70 92 71
f 71 74 73
f 71 73 72
f 71 92 93
f 71 93 74
f 74 93 75
f 75 93 94
f 75 94 95
f 75 95 76
f 76 95 96
f 76 96 97
f 76 97 77
f 78 81 98
f 78 98 99
f 78 99 82
f 81 100 101
f 81 101 99
f 81 99 98
f 81 102 100
f 82 99 85
f 82 85 83
f 83 85 84
f 85 99 86
f 86 99 101
f 86 101 100
f 86 100 87
f 87 100 103
f 87 103 104
f 87 104 105
f 87 105 106
f 87 106 88
f 88 106 107
f 88 107 108
f 88 108 89
f 89 108 109
f 89 109 110
f 89 110 111
f 89 111 90
f 90 111 91
f 91 111 112
f 92 112 93
f 93 112 113
f 93 113 94
f 94 113 114
f 94 114 115
f 94 115 95
f 95 115 116
f 95 116 117
f 95 117 118
f 95 118 96
f 100 102 103
f 102 119 104
f 102 104 103
f 104 119 105
f 105 119 106
f 106 119 120
f 106 120 121
f 106 121 107
f 107 121 108
f 108 121 109
f 109 121 110
f 110 121 116
f 110 116 122
f 110 122 115
f 110 115 114
f 110 114 111
f 111 114 113
f 111 113 112
f 115 122 116

