# https://github.com/mikedh/trimesh
v -0.00002255 -0.06269675 0.20290852
v -0.00002255 -0.06468855 0.19894969
v -0.00002255 -0.05731116 0.20288762
v -0.00115144 -0.05803798 0.20225045
v -0.00115144 -0.06196994 0.20225045
v -0.03507635 -0.06493479 0.13473156
v -0.02001996 -0.07000861 0.15004447
v -0.00057499 -0.07014166 0.18292651
v -0.00002255 -0.07014166 0.18292651
v -0.00002255 -0.05436219 0.19506404
v -0.00058528 -0.04985633 0.18278027
v -0.00294256 -0.05606207 0.19499090
v -0.03507635 -0.05507113 0.13472110
v -0.03299014 -0.05771428 0.14329675
v -0.03299014 -0.06229561 0.14329675
v -0.03507635 -0.06780631 0.12500691
v -0.03005298 -0.07002251 0.13012514
v -0.00057499 -0.07014166 0.17880058
v -0.03047502 -0.07010591 0.12500691
v -0.01057026 -0.07013372 0.16323698
v -0.01965968 -0.07012776 0.13899326
v -0.00002255 -0.07014166 0.17880058
v -0.00002255 -0.04985633 0.18278027
v -0.01060114 -0.04985633 0.16305941
v -0.03003925 -0.04998143 0.13010424
v -0.02000280 -0.04999732 0.15001312
v -0.03507635 -0.05220954 0.12540382
v -0.03507635 -0.07007811 0.11473912
v -0.02968926 -0.07011782 0.11908439
v -0.00544395 -0.06523068 0.15566409
v -0.00963696 -0.07013372 0.15889171
v -0.00002255 -0.07004037 0.17849767
v -0.00002255 -0.04985633 0.17874837
v -0.00961294 -0.04985633 0.15881857
v -0.01962537 -0.04985831 0.13890970
v -0.02964809 -0.04986427 0.11900082
v -0.03050591 -0.04988413 0.12500691
v -0.03507635 -0.04991391 0.11478090
v -0.03507635 -0.05049775 0.11952308
v -0.03507635 -0.07007811 0.11467645
v -0.03507635 -0.07006818 0.11460331
v -0.03298671 -0.06950023 0.11242023
v -0.03507635 -0.06622360 0.10020959
v -0.03507635 -0.06486727 0.09656417
v -0.02551685 -0.06509961 0.11586720
v -0.00002255 -0.06349903 0.16251624
v -0.00002255 -0.05573639 0.16521114
v -0.00543023 -0.05476532 0.15563273
v -0.02549626 -0.05490433 0.11583588
v -0.03507635 -0.05532532 0.09620902
v -0.03507635 -0.05382204 0.10004246
v -0.03507635 -0.05215196 0.10436684
v -0.03507635 -0.05030512 0.11001781
v -0.03507635 -0.04991391 0.11466599
v -0.01546324 -0.05483283 0.13573432
v -0.03507635 -0.06785397 0.10500401
v -0.03507635 -0.06466471 0.09625080
v -0.02970299 -0.06059971 0.09942618
v -0.02828931 -0.06257562 0.10500401
v -0.01821169 -0.06267689 0.12500691
v -0.00813749 -0.06277619 0.14500979
v -0.00002255 -0.06123319 0.15883946
v -0.00002255 -0.05876281 0.15882903
v -0.00813749 -0.05721783 0.14500979
v -0.02828931 -0.05743031 0.10500401
v -0.01821169 -0.05732308 0.12500691
v -0.02970299 -0.05940026 0.09942618
v -0.03507635 -0.05542064 0.09620902
v -0.01965282 -0.06069701 0.11932462
v -0.00960607 -0.06079233 0.13922307
v -0.00002255 -0.06039715 0.15882903
v -0.00960607 -0.05920565 0.13922307
v -0.01965282 -0.05930097 0.11932462
f 1 2 9
f 1 9 22
f 1 22 32
f 1 32 46
f 1 46 62
f 1 62 71
f 1 71 63
f 1 63 47
f 1 47 33
f 1 33 23
f 1 23 10
f 1 10 3
f 1 3 4
f 1 4 5
f 1 5 6
f 1 6 2
f 2 7 8
f 2 8 9
f 2 6 7
f 3 10 11
f 3 11 12
f 3 12 13
f 3 13 4
f 4 13 14
f 4 14 15
f 4 15 5
f 5 15 6
f 6 15 14
f 6 14 13
f 6 13 27
f 6 27 39
f 6 39 38
f 6 38 54
f 6 54 53
f 6 53 52
f 6 52 51
f 6 51 50
f 6 50 68
f 6 68 57
f 6 57 44
f 6 44 43
f 6 43 56
f 6 56 41
f 6 41 40
f 6 40 28
f 6 28 16
f 6 16 17
f 6 17 7
f 7 17 8
f 8 18 22
f 8 22 9
f 8 17 19
f 8 19 20
f 8 20 21
f 8 21 18
f 10 23 11
f 11 23 33
f 11 33 34
f 11 34 24
f 11 24 25
f 11 25 26
f 11 26 12
f 12 26 13
f 13 25 27
f 13 26 25
f 16 28 17
f 17 28 19
f 18 21 22
f 19 28 29
f 19 29 20
f 20 29 21
f 21 29 30
f 21 30 31
f 21 31 22
f 22 31 32
f 24 34 35
f 24 35 36
f 24 36 37
f 24 37 25
f 25 37 38
f 25 38 39
f 25 39 27
f 28 40 29
f 29 40 41
f 29 41 42
f 29 42 43
f 29 43 44
f 29 44 45
f 29 45 30
f 30 46 31
f 30 45 46
f 31 46 32
f 33 47 48
f 33 48 34
f 34 48 35
f 35 48 36
f 36 49 50
f 36 50 51
f 36 51 52
f 36 52 53
f 36 53 54
f 36 54 38
f 36 38 37
f 36 48 55
f 36 55 49
f 41 56 42
f 42 56 43
f 44 57 58
f 44 58 59
f 44 59 60
f 44 60 61
f 44 61 46
f 44 46 45
f 46 61 62
f 47 63 48
f 48 63 64
f 48 64 55
f 49 65 50
f 49 55 64
f 49 64 66
f 49 66 65
f 50 65 67
f 50 67 58
f 50 58 68
f 57 68 58
f 58 67 73
f 58 73 69
f 58 69 59
f 59 69 70
f 59 70 60
f 60 70 61
f 61 70 62
f 62 70 71
f 63 71 70
f 63 70 72
f 63 72 64
f 64 72 66
f 65 66 72
f 65 72 73
f 65 73 67
f 69 73 72
f 69 72 70

