# https://github.com/mikedh/trimesh
v 0.03518505 0.05561997 0.92344666
v 0.03518505 0.06438001 0.92344666
v 0.03518505 0.05034460 0.93473607
v -0.03512821 0.05056178 0.93449438
v -0.03512821 0.05546400 0.92602789
v 0.03518505 0.06952310 0.93442398
v -0.03512821 0.06453598 0.92603025
v -0.03512821 0.06951718 0.93466568
v -0.03512821 0.06954482 0.93471965
v 0.03518505 0.04989051 0.93963808
v -0.03512821 0.04992013 0.93965685
v -0.03512821 0.05048478 0.93466568
v 0.03518505 0.06956259 0.93464923
v -0.03512821 0.07004630 0.93964747
v 0.03518505 0.04991025 0.94009566
v -0.03512821 0.04992013 0.93999240
v 0.03518505 0.07006012 0.93962166
v -0.03512821 0.07004235 0.94008863
v 0.03518505 0.07006012 0.93995252
v 0.03518505 0.05539095 0.94675997
v -0.03512821 0.04993197 0.94007689
v -0.03512821 0.06461101 0.94669893
v 0.03518505 0.07005420 0.94011208
v 0.03518505 0.05634258 0.94741935
v -0.03512821 0.05626360 0.94730672
v -0.03512821 0.05478879 0.94573918
v -0.03512821 0.06373046 0.94730437
v 0.03518505 0.06365741 0.94741935
v 0.03518505 0.06514408 0.94576031
f 1 2 6
f 1 6 13
f 1 13 17
f 1 17 19
f 1 19 23
f 1 23 29
f 1 29 28
f 1 28 24
f 1 24 20
f 1 20 15
f 1 15 10
f 1 10 3
f 1 3 4
f 1 4 5
f 1 5 2
f 2 5 7
f 2 7 8
f 2 8 9
f 2 9 6
f 3 10 11
f 3 11 12
f 3 12 4
f 4 12 11
f 4 11 16
f 4 16 21
f 4 21 26
f 4 26 25
f 4 25 27
f 4 27 22
f 4 22 18
f 4 18 14
f 4 14 9
f 4 9 8
f 4 8 7
f 4 7 5
f 6 9 13
f 9 14 13
f 10 15 16
f 10 16 11
f 13 14 17
f 14 18 19
f 14 19 17
f 15 20 21
f 15 21 16
f 18 22 23
f 18 23 19
f 20 24 25
f 20 25 26
f 20 26 21
f 22 27 28
f 22 28 29
f 22 29 23
f 24 28 25
f 25 28 27

