# https://github.com/mikedh/trimesh
v -0.05837636 0.03823331 0.95218784
v -0.05195541 0.03823331 0.94473526
v -0.06162281 0.03823331 0.95218784
v -0.05597804 -0.03489512 0.94685158
v -0.05538500 -0.03489512 0.94643995
v -0.04876782 0.03823331 0.94102356
v -0.06460981 0.03823331 0.95013347
v -0.06401677 -0.03489512 0.94684792
v -0.05631817 -0.03489512 0.94685158
v -0.04998007 -0.03489512 0.94003278
v -0.04843206 0.03823331 0.93888539
v -0.07063176 0.03823331 0.94131130
v -0.07001910 -0.03489512 0.94003642
v -0.06494557 -0.03489512 0.94580981
v -0.04998007 -0.03489512 0.93970132
v -0.04843206 0.03823331 0.93866685
v -0.07070590 0.03823331 0.93836087
v -0.07001910 -0.03489512 0.93970132
v -0.05048807 -0.03489512 0.93470013
v -0.05366911 0.03823331 0.91994432
v -0.07040502 0.03823331 0.93511173
v -0.06951328 -0.03489512 0.93470013
v -0.05548748 -0.03489512 0.92607102
v -0.05562701 0.03823331 0.91497958
v -0.06437434 0.03823331 0.91500506
v -0.06437652 0.03821899 0.91497958
v -0.06456620 -0.03489512 0.92615846
v -0.05678475 0.03717389 0.91497958
v -0.06451169 -0.03489512 0.92607102
v -0.06427404 0.03823331 0.91497958
v -0.06322096 0.03717389 0.91497958
f 1 2 6
f 1 6 11
f 1 11 16
f 1 16 20
f 1 20 24
f 1 24 30
f 1 30 25
f 1 25 21
f 1 21 17
f 1 17 12
f 1 12 7
f 1 7 3
f 1 3 9
f 1 9 4
f 1 4 5
f 1 5 2
f 2 5 6
f 3 7 8
f 3 8 9
f 4 9 8
f 4 8 14
f 4 14 13
f 4 13 18
f 4 18 22
f 4 22 27
f 4 27 29
f 4 29 23
f 4 23 19
f 4 19 15
f 4 15 10
f 4 10 5
f 5 10 6
f 6 10 11
f 7 12 13
f 7 13 14
f 7 14 8
f 10 15 16
f 10 16 11
f 12 17 13
f 13 17 18
f 15 19 16
f 16 19 20
f 17 21 18
f 18 21 22
f 19 23 24
f 19 24 20
f 21 25 26
f 21 26 22
f 22 26 27
f 23 28 24
f 23 29 31
f 23 31 28
f 24 28 31
f 24 31 26
f 24 26 30
f 25 30 26
f 26 31 29
f 26 29 27

