# https://github.com/mikedh/trimesh
v 0.05879170 -0.00929797 0.14042291
v 0.06120691 -0.00929797 0.14042291
v 0.05683966 -0.00929797 0.14354268
v 0.05721734 -0.00813563 0.14500922
v 0.05836233 0.03275362 0.21832347
v 0.06277530 -0.00813563 0.14500922
v 0.06366783 -0.00929797 0.14500922
v 0.06163031 0.03275362 0.21832347
v 0.05022220 -0.00929797 0.15859482
v 0.05444036 0.03782269 0.23437554
v 0.06973864 -0.00929797 0.15864816
v 0.06555030 0.03782269 0.23437554
v 0.05000553 -0.00929797 0.16330111
v 0.04985445 0.00040660 0.17875323
v 0.05110280 0.03782269 0.24516135
v 0.05286004 0.03782269 0.23912182
v 0.06997122 -0.00929797 0.15952808
v 0.06888785 0.03782269 0.24518800
v 0.04985445 -0.00058046 0.17875323
v 0.05506652 -0.00929797 0.18008646
v 0.04985445 -0.00058046 0.18279290
v 0.04985445 0.03043818 0.23850852
v 0.05053627 0.03782269 0.24906769
v 0.07014018 0.00039276 0.17880657
v 0.07014018 -0.00057124 0.17880657
v 0.06997122 -0.00929797 0.16348776
v 0.06960943 0.03782269 0.25690709
v 0.07016006 0.03046585 0.23849520
v 0.07014813 0.01042020 0.19871166
v 0.05674623 -0.00929797 0.18347287
v 0.05606242 -0.00293742 0.19500530
v 0.05294154 0.03782269 0.26963942
v 0.05400502 -0.00500840 0.18592602
v 0.05205895 0.03782269 0.26711962
v 0.04985445 0.02946495 0.24220157
v 0.04985445 0.03043818 0.24220157
v 0.05033550 0.03782269 0.25502723
v 0.07014813 0.00942853 0.19871166
v 0.07014018 -0.00057124 0.18293956
v 0.06615857 -0.00929797 0.17512685
v 0.06600551 -0.00500379 0.18599266
v 0.06960943 0.03782269 0.25909358
v 0.07016006 0.03046585 0.24230823
v 0.07016006 0.02942344 0.23849520
v 0.06043961 -0.00929797 0.18348619
v 0.05803832 -0.00114779 0.20227137
v 0.05626319 0.03782269 0.27581227
v 0.05041303 0.03782269 0.25690709
v 0.07015409 0.01941906 0.21860343
v 0.07014813 0.00942853 0.20269802
v 0.07016006 0.02942344 0.24230823
v 0.06795358 0.03782269 0.26719961
v 0.06326231 -0.00929797 0.18348619
v 0.06395408 -0.00293742 0.19500530
v 0.06196824 -0.00114779 0.20227137
v 0.05826692 0.02902216 0.26192003
v 0.05818740 0.01896243 0.24202827
v 0.05684165 0.03782269 0.27661221
v 0.07015409 0.01941906 0.22248313
v 0.06416280 0.03782269 0.27499899
v 0.06181717 0.01896243 0.24202827
v 0.06173765 0.02902216 0.26192003
v 0.06316292 0.03782269 0.27661221
f 1 2 7
f 1 7 11
f 1 11 17
f 1 17 26
f 1 26 40
f 1 40 53
f 1 53 45
f 1 45 30
f 1 30 20
f 1 20 13
f 1 13 9
f 1 9 3
f 1 3 4
f 1 4 5
f 1 5 8
f 1 8 2
f 2 6 7
f 2 8 6
f 3 9 10
f 3 10 4
f 4 10 5
f 5 10 12
f 5 12 8
f 6 11 7
f 6 8 12
f 6 12 11
f 9 13 14
f 9 14 15
f 9 15 16
f 9 16 10
f 10 16 15
f 10 15 23
f 10 23 37
f 10 37 48
f 10 48 34
f 10 34 32
f 10 32 47
f 10 47 58
f 10 58 63
f 10 63 60
f 10 60 52
f 10 52 42
f 10 42 27
f 10 27 18
f 10 18 12
f 11 12 18
f 11 18 17
f 13 19 14
f 13 20 21
f 13 21 19
f 14 19 21
f 14 21 35
f 14 35 36
f 14 36 22
f 14 22 15
f 15 22 23
f 17 18 24
f 17 24 25
f 17 25 39
f 17 39 26
f 18 27 28
f 18 28 29
f 18 29 24
f 20 30 31
f 20 31 32
f 20 32 33
f 20 33 21
f 21 33 34
f 21 34 35
f 22 36 37
f 22 37 23
f 24 29 38
f 24 38 25
f 25 38 50
f 25 50 39
f 26 39 41
f 26 41 40
f 27 42 43
f 27 43 28
f 28 43 51
f 28 51 44
f 28 44 49
f 28 49 38
f 28 38 29
f 30 45 46
f 30 46 31
f 31 46 32
f 32 34 33
f 32 46 47
f 34 48 35
f 35 48 37
f 35 37 36
f 38 49 59
f 38 59 50
f 39 50 51
f 39 51 52
f 39 52 41
f 40 41 53
f 41 54 53
f 41 52 54
f 42 52 51
f 42 51 43
f 44 51 59
f 44 59 49
f 45 53 55
f 45 55 46
f 46 55 62
f 46 62 56
f 46 56 57
f 46 57 47
f 47 57 56
f 47 56 58
f 50 59 51
f 52 60 54
f 53 54 55
f 54 60 55
f 55 60 61
f 55 61 62
f 56 62 63
f 56 63 58
f 60 63 62
f 60 62 61

