# https://github.com/mikedh/trimesh
v -0.09308456 -2.72465364 -1.36673065
v -0.09058575 -2.72465364 -1.41044121
v -0.09182720 -2.95266686 -1.30608481
v -0.09306865 -2.72465364 -1.30608481
v -0.09306865 -2.49670453 -1.30608481
v -0.09306865 -2.49670453 -1.36673065
v -0.09058575 -2.42072146 -1.41044121
v -0.04958617 -2.72465364 -1.43834297
v -0.08958305 -2.77244738 -1.40853793
v -0.04958617 -2.57275171 -1.43835591
v -0.08994911 -2.95266686 -1.33200560
v 0.06766693 -2.95266686 -1.30608481
v -0.09282991 -2.42072146 -1.30608481
v -0.09282991 -2.42072146 -1.36673065
v -0.08958305 -2.36139581 -1.40853793
v -0.04958617 -2.42072146 -1.43733306
v -0.04958617 -2.49670453 -1.43835591
v 0.02639676 -2.72465364 -1.43799338
v 0.02787695 -2.79858661 -1.42297434
v -0.05117777 -2.79897099 -1.42311675
v -0.02690588 -2.84599584 -1.41295302
v -0.04961800 -2.95266686 -1.35089593
v 0.06655280 -2.95266686 -1.33181140
v 0.06949727 -2.72465364 -1.36673065
v 0.06905161 -2.78532474 -1.30608481
v -0.09109507 -2.36863531 -1.30608481
v -0.09037885 -2.35415631 -1.30608481
v -0.03585067 -2.29816201 -1.41752348
v -0.05654146 -2.33954911 -1.42504594
v 0.03317698 -2.34025378 -1.42490350
v 0.02639676 -2.42072146 -1.43697053
v 0.02639676 -2.49670453 -1.43799338
v 0.06720536 -2.72465364 -1.41007868
v 0.06626632 -2.77187080 -1.40829194
v 0.00354140 -2.84599584 -1.41295302
v 0.02634902 -2.95266686 -1.35066285
v 0.06951318 -2.72465364 -1.30608481
v 0.06949727 -2.49670453 -1.36673065
v -0.08159322 -2.34429002 -1.30608481
v -0.03585067 -2.29816201 -1.38960878
v 0.01235886 -2.29816201 -1.41752348
v 0.06626632 -2.36261306 -1.40829194
v 0.06720536 -2.42072146 -1.41007868
v 0.06949727 -2.49670453 -1.30608481
v 0.06925853 -2.42072146 -1.36673065
v 0.06944952 -2.48132857 -1.30608481
v -0.04960208 -2.32846557 -1.30608481
v 0.01235886 -2.29816201 -1.38960878
v 0.06698254 -2.35460474 -1.30608481
v 0.06925853 -2.42072146 -1.30608481
v 0.02642860 -2.32865776 -1.30608481
f 1 2 3
f 1 3 4
f 1 4 5
f 1 5 6
f 1 6 7
f 1 7 2
f 2 8 9
f 2 9 3
f 2 7 17
f 2 17 10
f 2 10 8
f 3 11 22
f 3 22 36
f 3 36 23
f 3 23 12
f 3 12 25
f 3 25 37
f 3 37 44
f 3 44 46
f 3 46 50
f 3 50 49
f 3 49 51
f 3 51 47
f 3 47 39
f 3 39 27
f 3 27 26
f 3 26 13
f 3 13 5
f 3 5 4
f 3 9 11
f 5 13 14
f 5 14 6
f 6 14 7
f 7 14 15
f 7 15 16
f 7 16 17
f 8 18 19
f 8 19 20
f 8 20 9
f 8 10 18
f 9 20 11
f 10 17 32
f 10 32 18
f 11 21 22
f 11 20 21
f 12 23 24
f 12 24 25
f 13 26 14
f 14 26 15
f 15 26 27
f 15 27 28
f 15 28 29
f 15 29 16
f 16 29 30
f 16 30 31
f 16 31 32
f 16 32 17
f 18 33 34
f 18 34 19
f 18 32 43
f 18 43 33
f 19 34 23
f 19 23 35
f 19 35 20
f 20 35 21
f 21 35 22
f 22 35 36
f 23 36 35
f 23 34 33
f 23 33 24
f 24 37 25
f 24 33 43
f 24 43 38
f 24 38 37
f 27 39 28
f 28 40 48
f 28 48 41
f 28 41 29
f 28 39 40
f 29 41 30
f 30 41 42
f 30 42 31
f 31 42 43
f 31 43 32
f 37 38 44
f 38 43 45
f 38 45 46
f 38 46 44
f 39 47 40
f 40 47 48
f 41 49 42
f 41 48 49
f 42 45 43
f 42 49 45
f 45 50 46
f 45 49 50
f 47 51 48
f 48 51 49

