# https://github.com/mikedh/trimesh
v -0.09358433 -4.09286893 -0.68270138
v -0.09358433 -3.94082713 -0.68270138
v -0.09223912 -4.47275304 -0.76512994
v -0.09356832 -5.00467896 -0.68270138
v -0.09058964 -5.00467896 -0.63875359
v -0.09058964 -3.94082713 -0.63875359
v -0.08958072 -3.89405641 -0.64073199
v -0.09118217 -3.86722555 -0.68507246
v -0.09089391 -3.77324424 -0.76512994
v -0.09131029 -3.79098471 -0.76512994
v -0.09118217 -5.08707761 -0.76512994
v -0.09063767 -5.13648736 -0.76512994
v -0.09058964 -5.13472785 -0.75868123
v -0.09118217 -5.07901352 -0.68445324
v -0.08958072 -5.05247598 -0.64073199
v -0.04959269 -5.00467896 -0.61085959
v -0.04959269 -3.94082713 -0.61085959
v -0.04786313 -3.86722555 -0.62913342
v -0.04062460 -3.71093198 -0.70629122
v -0.07769802 -3.71093198 -0.73928984
v -0.07845070 -3.71093198 -0.74037718
v -0.08612161 -3.71093198 -0.76512994
v -0.07419086 -5.17387458 -0.76512994
v -0.08958072 -5.12754374 -0.71092764
v -0.07503962 -5.10320535 -0.66027443
v -0.04965674 -5.07901352 -0.62842361
v 0.02636377 -5.07872042 -0.62855951
v 0.02639580 -5.00467896 -0.61119185
v 0.02639580 -3.94082713 -0.61119185
v 0.02458617 -3.86751887 -0.62928445
v -0.00196576 -3.82338719 -0.64133608
v -0.02135924 -3.82338719 -0.64133608
v 0.01715547 -3.71093198 -0.70630634
v 0.04039241 -3.71093198 -0.76512994
v -0.07172464 -5.17812656 -0.76512994
v -0.02180765 -5.19747998 -0.71699879
v -0.04842363 -5.15085582 -0.68863660
v -0.02436995 -5.12329198 -0.64014302
v 0.00101292 -5.12329198 -0.64014302
v 0.05168258 -5.10261893 -0.66081811
v 0.06627173 -5.05188932 -0.64097364
v 0.06720058 -5.00467896 -0.63910094
v 0.06720058 -3.94082713 -0.63910094
v 0.06627173 -3.89464284 -0.64097364
v 0.05498155 -3.71093198 -0.74193275
v 0.06191581 -3.71093198 -0.76494870
v 0.06178769 -3.71283804 -0.76512994
v -0.03698933 -5.20862276 -0.76512994
v -0.00153337 -5.19747998 -0.71699879
v 0.02508261 -5.15056249 -0.68890843
v 0.06627173 -5.12710386 -0.71148644
v 0.07000311 -5.00467896 -0.68270138
v 0.06776108 -5.07872042 -0.68477041
v 0.07001912 -4.92873122 -0.68270138
v 0.07000311 -3.94082713 -0.68270138
v 0.07001912 -4.77668964 -0.68270138
v 0.06776108 -3.86751887 -0.68535938
v 0.06752086 -3.77588327 -0.76512994
v 0.01356824 -5.20862276 -0.76512994
v 0.04947260 -5.17182197 -0.75868123
v 0.06720058 -5.13384833 -0.75868123
v 0.05075375 -5.17299482 -0.76512994
v 0.06627173 -5.13971282 -0.76512994
v 0.06724861 -5.13575438 -0.76512994
v 0.06771304 -5.08341205 -0.76512994
v 0.06867391 -4.47275304 -0.76512994
v 0.06878600 -4.47275304 -0.75868123
v 0.06787318 -3.79127803 -0.76512994
v 0.06782513 -3.78746615 -0.76512994
f 1 2 3
f 1 3 4
f 1 4 5
f 1 5 6
f 1 6 2
f 2 6 7
f 2 7 8
f 2 8 9
f 2 9 10
f 2 10 3
f 3 11 4
f 3 10 9
f 3 9 22
f 3 22 34
f 3 34 47
f 3 47 58
f 3 58 69
f 3 69 68
f 3 68 66
f 3 66 65
f 3 65 64
f 3 64 63
f 3 63 62
f 3 62 59
f 3 59 48
f 3 48 35
f 3 35 23
f 3 23 12
f 3 12 11
f 4 11 12
f 4 12 13
f 4 13 14
f 4 14 15
f 4 15 5
f 5 15 16
f 5 16 17
f 5 17 6
f 6 17 7
f 7 18 19
f 7 19 20
f 7 20 21
f 7 21 22
f 7 22 9
f 7 9 8
f 7 17 18
f 12 23 24
f 12 24 13
f 13 24 14
f 14 24 15
f 15 24 25
f 15 25 26
f 15 26 16
f 16 26 27
f 16 27 28
f 16 28 29
f 16 29 17
f 17 29 30
f 17 30 18
f 18 30 31
f 18 31 32
f 18 32 19
f 19 32 31
f 19 31 33
f 19 33 45
f 19 45 46
f 19 46 34
f 19 34 22
f 19 22 21
f 19 21 20
f 23 35 24
f 24 35 36
f 24 36 37
f 24 37 25
f 25 37 38
f 25 38 26
f 26 38 39
f 26 39 27
f 27 39 40
f 27 40 41
f 27 41 28
f 28 41 42
f 28 42 43
f 28 43 29
f 29 43 44
f 29 44 30
f 30 44 33
f 30 33 31
f 33 44 45
f 34 46 47
f 35 48 36
f 36 48 59
f 36 59 49
f 36 49 39
f 36 39 38
f 36 38 37
f 39 49 50
f 39 50 40
f 40 50 51
f 40 51 41
f 41 52 42
f 41 51 53
f 41 53 52
f 42 52 54
f 42 54 56
f 42 56 43
f 43 55 44
f 43 56 55
f 44 55 57
f 44 57 58
f 44 58 46
f 44 46 45
f 46 58 47
f 49 59 60
f 49 60 51
f 49 51 50
f 51 61 53
f 51 60 62
f 51 62 63
f 51 63 64
f 51 64 61
f 52 64 65
f 52 65 66
f 52 66 54
f 52 53 64
f 53 61 64
f 54 66 67
f 54 67 56
f 55 56 67
f 55 67 66
f 55 66 68
f 55 68 69
f 55 69 58
f 55 58 57
f 59 62 60

