# https://github.com/mikedh/trimesh
v -0.09308650 -1.81264488 -1.28995653
v -0.09307058 -1.88863127 -1.36671282
v -0.09307058 -1.88863127 -1.28995653
v -0.09305466 -1.65993766 -1.28995653
v -0.09307058 -1.66067215 -1.29072643
v -0.09307058 -1.73672529 -1.36671282
v -0.09058756 -2.04067075 -1.41043659
v -0.09300691 -1.96461763 -1.36671282
v -0.09300691 -1.96461763 -1.29072643
v -0.09300691 -1.96388312 -1.28995653
v -0.09292733 -1.43191179 -1.28995653
v -0.09294325 -1.43191179 -1.29072643
v -0.09297508 -1.66067215 -1.36671282
v -0.09058756 -1.73672529 -1.41043659
v -0.04958589 -1.96461763 -1.43835588
v -0.04958589 -2.04067075 -1.43652559
v -0.08958480 -2.08393893 -1.40853365
v -0.09093773 -2.03913503 -1.36727934
v -0.09092181 -2.03913503 -1.28995653
v -0.09299100 -1.96461763 -1.28995653
v 0.06824615 -1.43197856 -1.28995653
v 0.06826206 -1.43191179 -1.29072643
v -0.08995089 -1.43191179 -1.33212602
v -0.09047615 -1.66067215 -1.41023322
v -0.04958589 -1.73672529 -1.43835588
v 0.02640089 -1.96461763 -1.43799273
v 0.02640089 -2.04067075 -1.43616241
v 0.02640089 -2.10016447 -1.41952996
v -0.04958589 -2.10043158 -1.41970429
v -0.05563428 -2.11398625 -1.28995653
v -0.08958480 -2.08393893 -1.39299064
v -0.05776713 -2.11031379 -1.28995653
v 0.06951950 -1.73745976 -1.28995653
v 0.06939216 -1.66067215 -1.36671282
v 0.06824615 -1.43191179 -1.29120577
v -0.04998381 -1.43191179 -1.35086476
v -0.08944155 -1.61980777 -1.40824313
v -0.04958589 -1.66067215 -1.43704851
v 0.02640089 -1.66067215 -1.43669989
v 0.02640089 -1.73672529 -1.43799273
v 0.06719564 -2.04067075 -1.41008797
v 0.06627247 -2.08360506 -1.40828670
v 0.03224236 -2.11365238 -1.28995653
v 0.06950357 -1.88863127 -1.28995653
v 0.06950357 -1.88863127 -1.36671282
v 0.06950357 -1.73672529 -1.36671282
v 0.06710014 -1.66067215 -1.40987007
v 0.06657488 -1.43271303 -1.33179189
v 0.06624063 -1.43191179 -1.33221317
v 0.02563689 -1.43191179 -1.35096646
v -0.04958589 -1.60905750 -1.42024176
v 0.02640089 -1.60919106 -1.42005291
v 0.06612922 -1.62000809 -1.40801070
v 0.06719564 -1.73672529 -1.41008797
v 0.06943991 -1.96461763 -1.36671282
v 0.06627247 -2.08360506 -1.39365886
v 0.06751398 -2.03873434 -1.36768606
v 0.06211819 -2.07579279 -1.28995653
v 0.06943991 -1.96461763 -1.29072643
v 0.06942400 -1.96541890 -1.28995653
v 0.02644864 -1.43191179 -1.35096646
v 0.06794373 -2.02244205 -1.28995653
v 0.06751398 -2.03873434 -1.28995653
f 1 2 3
f 1 3 10
f 1 10 20
f 1 20 19
f 1 19 32
f 1 32 30
f 1 30 43
f 1 43 58
f 1 58 63
f 1 63 62
f 1 62 60
f 1 60 44
f 1 44 33
f 1 33 21
f 1 21 11
f 1 11 4
f 1 4 5
f 1 5 6
f 1 6 2
f 2 7 8
f 2 8 9
f 2 9 3
f 2 6 14
f 2 14 7
f 3 9 10
f 4 11 12
f 4 12 5
f 5 12 6
f 6 12 13
f 6 13 14
f 7 15 16
f 7 16 17
f 7 17 8
f 7 14 25
f 7 25 15
f 8 17 18
f 8 18 9
f 9 18 19
f 9 19 20
f 9 20 10
f 11 21 22
f 11 22 35
f 11 35 49
f 11 49 61
f 11 61 50
f 11 50 36
f 11 36 23
f 11 23 12
f 12 23 24
f 12 24 13
f 13 24 14
f 14 24 25
f 15 26 27
f 15 27 16
f 15 25 40
f 15 40 26
f 16 27 28
f 16 28 29
f 16 29 17
f 17 29 30
f 17 30 31
f 17 31 18
f 18 31 19
f 19 31 32
f 21 33 22
f 22 34 35
f 22 33 34
f 23 36 37
f 23 37 24
f 24 37 38
f 24 38 25
f 25 38 39
f 25 39 40
f 26 41 27
f 26 40 54
f 26 54 41
f 27 41 42
f 27 42 28
f 28 42 43
f 28 43 30
f 28 30 29
f 30 32 31
f 33 44 45
f 33 45 46
f 33 46 34
f 34 46 47
f 34 47 48
f 34 48 35
f 35 48 49
f 36 50 51
f 36 51 37
f 37 51 38
f 38 51 52
f 38 52 39
f 39 52 53
f 39 53 47
f 39 47 40
f 40 47 54
f 41 45 55
f 41 55 42
f 41 54 46
f 41 46 45
f 42 56 43
f 42 55 57
f 42 57 63
f 42 63 56
f 43 56 58
f 44 59 55
f 44 55 45
f 44 60 59
f 46 54 47
f 47 53 48
f 48 53 49
f 49 53 61
f 50 61 51
f 51 61 52
f 52 61 53
f 55 60 62
f 55 62 57
f 55 59 60
f 56 63 58
f 57 62 63

