# https://github.com/mikedh/trimesh
v 0.06758459 -4.47668022 -1.17523370
v 0.06836931 -4.47668022 -1.29072312
v -0.09163358 -4.47668022 -1.17523370
v 0.06880171 -4.85136691 -1.17523370
v 0.07001883 -4.85278416 -1.21471748
v 0.06667176 -4.47668022 -1.32966604
v 0.06950636 -4.70084021 -1.29072312
v 0.06950636 -4.70084021 -1.36670299
v -0.09237025 -4.47668022 -1.21863238
v -0.09358737 -4.85278416 -1.21471748
v -0.09229018 -4.85157937 -1.17523370
v 0.06880171 -4.93010272 -1.17523370
v 0.07001883 -4.92875613 -1.21471748
v 0.06657566 -4.47668022 -1.33182952
v 0.06720024 -4.70084021 -1.41007591
v 0.06950636 -4.92875613 -1.36670299
v -0.09294678 -4.47668022 -1.29072312
v -0.09307490 -4.92875613 -1.36670299
v -0.09357136 -4.92875613 -1.21471748
v -0.09229018 -4.92996092 -1.17523370
v -0.09307490 -4.70084021 -1.36670299
v 0.06744046 -5.11252067 -1.17523370
v 0.06944230 -5.00472834 -1.29072312
v 0.06944230 -5.00472834 -1.36670299
v 0.06718423 -5.13413576 -1.17523370
v 0.02639478 -4.47668022 -1.35112068
v 0.06627139 -4.65803495 -1.40829876
v 0.02639478 -4.64067207 -1.42115096
v 0.02639478 -4.77681218 -1.43799531
v 0.02639478 -4.70084021 -1.43778924
v 0.06720024 -5.00472834 -1.41007591
v -0.09278664 -4.47668022 -1.29293813
v -0.08958370 -4.65768069 -1.40853056
v -0.09059263 -4.70084021 -1.41043651
v -0.09059263 -5.00472834 -1.41043651
v -0.09301084 -5.00472834 -1.36670299
v -0.09301084 -5.00472834 -1.29072312
v -0.09059263 -5.13512786 -1.17523370
v 0.06720024 -5.13179708 -1.21471748
v 0.06617530 -5.12159182 -1.40809273
v 0.06713618 -5.08077121 -1.40994714
v 0.04208919 -5.17403540 -1.17523370
v -0.04568740 -4.47668022 -1.35135248
v -0.04959499 -4.64038848 -1.42133126
v -0.04959499 -4.70084021 -1.43814984
v -0.04959499 -4.77681218 -1.43833014
v 0.02639478 -5.00472834 -1.43799531
v -0.08995204 -4.47668022 -1.33208709
v -0.08787013 -4.47668022 -1.33352942
v -0.04959499 -5.00472834 -1.43833014
v -0.09051256 -5.08077121 -1.41028197
v -0.08950363 -5.12173361 -1.40832453
v -0.09057662 -5.13257672 -1.21471748
v -0.08314579 -5.15482965 -1.17523370
v 0.02639478 -5.08077121 -1.43632120
v 0.00919499 -5.20061144 -1.17523370
v 0.00592799 -5.19961911 -1.19689440
v 0.02639478 -5.13151372 -1.41968288
v -0.04959499 -4.47668022 -1.35135248
v -0.04959499 -5.08077121 -1.43668177
v -0.04959499 -5.13165529 -1.41986315
v -0.02935240 -5.19961911 -1.19689440
v -0.04680843 -5.19061887 -1.17523370
v -0.06554563 -5.17495660 -1.17523370
v -0.03266745 -5.20061144 -1.17523370
f 1 2 6
f 1 6 14
f 1 14 26
f 1 26 43
f 1 43 59
f 1 59 49
f 1 49 48
f 1 48 32
f 1 32 17
f 1 17 9
f 1 9 3
f 1 3 11
f 1 11 20
f 1 20 38
f 1 38 54
f 1 54 64
f 1 64 63
f 1 63 65
f 1 65 56
f 1 56 42
f 1 42 25
f 1 25 22
f 1 22 12
f 1 12 4
f 1 4 5
f 1 5 2
f 2 5 7
f 2 7 8
f 2 8 6
f 3 9 10
f 3 10 11
f 4 12 13
f 4 13 5
f 5 13 16
f 5 16 8
f 5 8 7
f 6 8 14
f 8 15 14
f 8 16 31
f 8 31 15
f 9 17 10
f 10 18 19
f 10 19 20
f 10 20 11
f 10 17 21
f 10 21 18
f 12 22 13
f 13 23 24
f 13 24 16
f 13 22 25
f 13 25 23
f 14 15 27
f 14 27 28
f 14 28 26
f 15 29 30
f 15 30 27
f 15 31 47
f 15 47 29
f 16 24 31
f 17 32 33
f 17 33 34
f 17 34 21
f 18 35 36
f 18 36 19
f 18 21 34
f 18 34 35
f 19 36 37
f 19 37 38
f 19 38 20
f 23 25 24
f 24 25 39
f 24 39 40
f 24 40 41
f 24 41 31
f 25 42 39
f 26 28 44
f 26 44 43
f 27 30 28
f 28 30 45
f 28 45 44
f 29 46 45
f 29 45 30
f 29 47 50
f 29 50 46
f 31 41 47
f 32 48 33
f 33 44 45
f 33 45 34
f 33 48 49
f 33 49 44
f 34 45 46
f 34 46 50
f 34 50 35
f 35 50 51
f 35 51 36
f 36 51 52
f 36 52 53
f 36 53 38
f 36 38 37
f 38 53 54
f 39 42 40
f 40 55 41
f 40 42 56
f 40 56 57
f 40 57 58
f 40 58 55
f 41 55 47
f 43 44 59
f 44 49 59
f 47 55 60
f 47 60 50
f 50 60 51
f 51 60 52
f 52 61 62
f 52 62 63
f 52 63 64
f 52 64 54
f 52 54 53
f 52 60 61
f 55 58 60
f 56 65 62
f 56 62 57
f 57 62 61
f 57 61 58
f 58 61 60
f 62 65 63

