# https://github.com/mikedh/trimesh
v -0.09349243 -0.67301386 -0.89305129
v -0.09347641 -0.67301386 -0.83468208
v -0.09325215 0.77079530 -0.89305129
v -0.09346040 -2.26860621 -0.89305129
v -0.09347641 -2.26860621 -0.83468208
v -0.09230705 0.69453000 -0.76512994
v -0.09222696 1.37867552 -0.76512994
v -0.09245122 2.21460441 -0.83468208
v -0.09322011 0.84706083 -0.89305129
v -0.09338030 -3.63615008 -0.89305129
v -0.09339632 -3.78793321 -0.83468208
v -0.09222696 -4.47207896 -0.76512994
v -0.09131390 2.21609981 -0.76512994
v -0.09166631 2.21460441 -0.89305129
v -0.09001639 2.33274153 -0.89305129
v -0.09096149 2.29086994 -0.89305129
v -0.09293178 -5.15622448 -0.89305129
v -0.09118575 -5.08668847 -0.76512994
v -0.09067315 2.23254941 -0.76512994
v -0.08935962 2.33124568 -0.85855072
v -0.05067464 2.34919046 -0.89305129
v -0.09062510 -5.13603661 -0.76512994
v -0.09016055 -5.21753603 -0.89305129
v -0.06531567 2.28488834 -0.76512994
v -0.08958389 2.26769127 -0.78179792
v -0.08275995 2.31853480 -0.80792067
v -0.05429485 2.34171392 -0.83380549
v -0.03209303 2.33647980 -0.78833487
v 0.01793314 2.34320887 -0.83468208
v 0.01658758 2.34545219 -0.89305129
v -0.08953583 -5.21155444 -0.86042916
v -0.07417396 -5.17342179 -0.76512994
v -0.07934798 -5.25267789 -0.89305129
v -0.06026980 2.29311303 -0.76512994
v -0.05262891 2.29909463 -0.76512994
v 0.00862632 2.33647980 -0.78833487
v 0.05592932 2.30283312 -0.83468208
v 0.02539782 2.33647980 -0.89305129
v -0.07172312 -5.17716028 -0.76512994
v -0.04333811 -5.28931559 -0.89305129
v -0.03537685 -5.28408147 -0.85784944
v -0.04492395 2.29909463 -0.76512994
v 0.02946655 2.29759923 -0.76512994
v 0.04116015 2.28488834 -0.76512994
v 0.06627736 2.26694357 -0.78261190
v 0.06600504 2.26470047 -0.83468208
v 0.06272122 2.26619587 -0.89305129
v 0.05458376 2.29535613 -0.89305129
v -0.03696269 -5.20856364 -0.76512994
v 0.02004760 -5.28931559 -0.89305129
v 0.01211838 -5.28408147 -0.85784944
v 0.06385854 2.25871888 -0.76512994
v 0.06731857 2.23105401 -0.76512994
v 0.06880830 2.21460441 -0.83468208
v 0.06786320 2.21460441 -0.89305129
v 0.06505994 2.25722348 -0.89305129
v 0.01356005 -5.20856364 -0.76512994
v 0.04535703 -5.26688417 -0.89305129
v 0.05073929 -5.17267409 -0.76512994
v 0.06786320 2.21535211 -0.76512994
v 0.06989757 0.75359822 -0.89305129
v 0.06980146 0.84706083 -0.89305129
v 0.06866413 1.37867552 -0.76512994
v 0.05600941 -5.25267789 -0.89305129
v 0.06626134 -5.13902741 -0.76512994
v 0.06352215 -5.24146240 -0.89305129
v 0.06630939 -5.21155444 -0.86077981
v 0.07005775 -0.67301386 -0.83468208
v 0.07015387 -0.67301386 -0.89305129
v 0.06874422 0.69453000 -0.76512994
v 0.06723848 -5.13528891 -0.76512994
v 0.06693412 -5.21678833 -0.89305129
v 0.07005775 -2.26860621 -0.83468208
v 0.07010581 -2.21028558 -0.89305129
v 0.06866413 -4.47207896 -0.76512994
v 0.06770301 -5.08294998 -0.76512994
v 0.06874422 -5.17566489 -0.89305129
v 0.06954516 -5.15622448 -0.89305129
v 0.06970534 -3.78793321 -0.83468208
v 0.06988155 -3.63615008 -0.89305129
f 1 2 3
f 1 3 9
f 1 9 14
f 1 14 16
f 1 16 15
f 1 15 21
f 1 21 30
f 1 30 38
f 1 38 48
f 1 48 47
f 1 47 56
f 1 56 55
f 1 55 62
f 1 62 61
f 1 61 69
f 1 69 74
f 1 74 80
f 1 80 78
f 1 78 77
f 1 77 72
f 1 72 66
f 1 66 64
f 1 64 58
f 1 58 50
f 1 50 40
f 1 40 33
f 1 33 23
f 1 23 17
f 1 17 10
f 1 10 4
f 1 4 5
f 1 5 2
f 2 6 7
f 2 7 8
f 2 8 3
f 2 5 6
f 3 8 9
f 4 10 11
f 4 11 5
f 5 11 12
f 5 12 6
f 6 12 18
f 6 18 22
f 6 22 32
f 6 32 39
f 6 39 49
f 6 49 57
f 6 57 59
f 6 59 65
f 6 65 71
f 6 71 76
f 6 76 75
f 6 75 70
f 6 70 63
f 6 63 60
f 6 60 53
f 6 53 52
f 6 52 44
f 6 44 43
f 6 43 42
f 6 42 35
f 6 35 34
f 6 34 24
f 6 24 19
f 6 19 13
f 6 13 7
f 7 13 8
f 8 14 9
f 8 13 15
f 8 15 16
f 8 16 14
f 10 17 11
f 11 17 12
f 12 17 18
f 13 19 20
f 13 20 15
f 15 20 21
f 17 22 18
f 17 23 22
f 19 24 25
f 19 25 20
f 20 25 26
f 20 26 27
f 20 27 21
f 21 27 28
f 21 28 29
f 21 29 30
f 22 23 31
f 22 31 32
f 23 33 31
f 24 34 26
f 24 26 25
f 26 35 28
f 26 28 27
f 26 34 35
f 28 36 29
f 28 35 42
f 28 42 36
f 29 36 37
f 29 37 38
f 29 38 30
f 31 33 32
f 32 33 39
f 33 40 41
f 33 41 39
f 36 42 43
f 36 43 44
f 36 44 45
f 36 45 37
f 37 45 46
f 37 46 47
f 37 47 48
f 37 48 38
f 39 41 49
f 40 50 51
f 40 51 41
f 41 51 57
f 41 57 49
f 44 52 45
f 45 52 53
f 45 53 54
f 45 54 46
f 46 54 55
f 46 55 56
f 46 56 47
f 50 58 51
f 51 58 59
f 51 59 57
f 53 60 54
f 54 61 62
f 54 62 55
f 54 60 63
f 54 63 61
f 58 64 59
f 59 64 66
f 59 66 67
f 59 67 65
f 61 68 69
f 61 63 68
f 63 70 68
f 65 67 71
f 66 72 67
f 67 72 71
f 68 70 73
f 68 73 69
f 69 73 74
f 70 75 73
f 71 72 77
f 71 77 78
f 71 78 76
f 73 75 79
f 73 79 78
f 73 78 80
f 73 80 74
f 75 76 78
f 75 78 79

