# https://github.com/mikedh/trimesh
v -0.09358433 1.91137043 -0.68270138
v -0.09358433 2.06347724 -0.68270138
v -0.09233520 1.37951609 -0.75868123
v -0.09356832 0.99947184 -0.68270138
v -0.09058964 0.99947184 -0.63876869
v -0.09058964 1.07545106 -0.63875359
v -0.09058964 2.06347724 -0.63875359
v -0.08958072 2.11630656 -0.64073199
v -0.09118217 2.14079195 -0.68134217
v -0.09118217 2.21677117 -0.75733711
v -0.09131029 2.21662281 -0.76512994
v -0.09222311 1.37951609 -0.76512994
v -0.09126224 0.91740819 -0.76512994
v -0.08991703 0.78325771 -0.76512994
v -0.08990102 0.78325771 -0.76472217
v -0.09118217 0.92720257 -0.68635616
v -0.08958072 0.95495260 -0.64076220
v -0.04959269 0.99947184 -0.61111634
v -0.04959269 1.07545106 -0.61085959
v -0.04959269 2.06347724 -0.61085959
v -0.05428491 2.14079195 -0.62630928
v -0.08275858 2.16705813 -0.65510943
v -0.08958072 2.19228556 -0.70576264
v -0.09066971 2.23324320 -0.76512994
v 0.03342614 0.78325771 -0.76512994
v -0.04235416 0.78325771 -0.70882844
v -0.04959269 0.93788712 -0.62803093
v 0.02639580 0.93818385 -0.62821216
v 0.02639580 0.99947184 -0.61146368
v 0.02639580 1.07545106 -0.61119185
v 0.02639580 2.06347724 -0.61119185
v 0.03094390 2.14034686 -0.62644518
v 0.00861978 2.18575627 -0.63662418
v -0.03208891 2.18575627 -0.63662418
v -0.03208891 2.26173550 -0.71231707
v -0.08275858 2.24303736 -0.73110436
v -0.06531886 2.28503376 -0.76512994
v 0.06649594 0.78325771 -0.76508461
v 0.06702441 0.85196538 -0.76512994
v 0.01915727 0.78325771 -0.70896434
v 0.06627173 0.95539791 -0.64098874
v 0.06720058 0.99947184 -0.63911606
v 0.06720058 1.07545106 -0.63910094
v 0.06720058 2.06347724 -0.63910094
v 0.06627173 2.11556452 -0.64097364
v 0.05928945 2.16616796 -0.65594005
v 0.00861978 2.26173550 -0.71231707
v -0.05263543 2.29913155 -0.76512994
v -0.05742374 2.29037592 -0.75970818
v -0.06027431 2.29364079 -0.76512994
v 0.06776108 0.92735093 -0.68658269
v 0.06766499 0.92111837 -0.76512994
v 0.07001912 0.99947184 -0.68270138
v 0.07000311 2.06347724 -0.68270138
v 0.07001912 1.37951609 -0.68270138
v 0.06776108 2.14034686 -0.68184054
v 0.06627173 2.19154375 -0.70659327
v 0.05928945 2.24214696 -0.73191990
v 0.03397063 2.28993084 -0.76011595
v 0.02947057 2.29838951 -0.76512994
v -0.04491647 2.29913155 -0.76512994
v 0.06867391 1.37951609 -0.76512994
v 0.06787318 2.21617750 -0.76512994
v 0.06776108 2.21632609 -0.75783551
v 0.06732868 2.23131404 -0.76512994
v 0.06386957 2.25876758 -0.76512994
v 0.04116111 2.28503376 -0.76512994
f 1 2 3
f 1 3 4
f 1 4 5
f 1 5 6
f 1 6 7
f 1 7 2
f 2 7 8
f 2 8 9
f 2 9 10
f 2 10 11
f 2 11 12
f 2 12 3
f 3 12 4
f 4 12 13
f 4 13 14
f 4 14 15
f 4 15 16
f 4 16 17
f 4 17 5
f 5 17 18
f 5 18 19
f 5 19 6
f 6 19 20
f 6 20 7
f 7 20 8
f 8 20 21
f 8 21 22
f 8 22 23
f 8 23 9
f 9 23 24
f 9 24 10
f 10 24 11
f 11 24 37
f 11 37 50
f 11 50 48
f 11 48 61
f 11 61 60
f 11 60 67
f 11 67 66
f 11 66 65
f 11 65 63
f 11 63 62
f 11 62 52
f 11 52 39
f 11 39 25
f 11 25 14
f 11 14 13
f 11 13 12
f 14 25 38
f 14 38 40
f 14 40 26
f 14 26 15
f 15 26 17
f 15 17 16
f 17 27 18
f 17 26 27
f 18 27 28
f 18 28 29
f 18 29 30
f 18 30 19
f 19 30 31
f 19 31 20
f 20 31 32
f 20 32 21
f 21 32 33
f 21 33 34
f 21 34 22
f 22 34 35
f 22 35 49
f 22 49 36
f 22 36 23
f 23 36 24
f 24 36 37
f 25 39 38
f 26 40 27
f 27 40 28
f 28 41 29
f 28 40 41
f 29 41 42
f 29 42 30
f 30 42 43
f 30 43 44
f 30 44 31
f 31 44 45
f 31 45 32
f 32 46 33
f 32 45 46
f 33 46 47
f 33 47 35
f 33 35 34
f 35 47 61
f 35 61 48
f 35 48 49
f 36 49 50
f 36 50 37
f 38 51 41
f 38 41 40
f 38 39 52
f 38 52 53
f 38 53 51
f 41 53 42
f 41 51 53
f 42 53 43
f 43 53 55
f 43 55 44
f 44 54 45
f 44 55 54
f 45 54 56
f 45 56 57
f 45 57 46
f 46 57 58
f 46 58 59
f 46 59 47
f 47 59 60
f 47 60 61
f 48 50 49
f 52 62 53
f 53 62 55
f 54 55 62
f 54 62 63
f 54 63 64
f 54 64 56
f 56 64 65
f 56 65 57
f 57 65 66
f 57 66 58
f 58 66 67
f 58 67 59
f 59 67 60
f 63 65 64

