# https://github.com/mikedh/trimesh
v -0.09358741 0.39133589 -1.21471432
v -0.09358741 0.46740300 -1.21471432
v -0.09307494 0.31541771 -1.31513455
v -0.09307494 -0.30264547 -1.30081032
v -0.09349132 -0.29252311 -1.21472801
v -0.09230623 -0.29564913 -1.17523368
v -0.09302689 0.54332106 -1.31513455
v -0.09304291 0.51890816 -1.31513455
v -0.09307494 0.46740300 -1.31513455
v -0.09229021 0.46844493 -1.17523368
v -0.09190586 0.69560409 -1.17523368
v -0.09297885 0.23935071 -1.31513455
v -0.09277065 -0.44450828 -1.30081032
v -0.09325110 -0.36844117 -1.21472801
v -0.09224217 -0.44450828 -1.17523368
v -0.09092896 0.61923913 -1.31513455
v -0.08982395 0.74100603 -1.17523368
v -0.08953568 0.73996410 -1.19048912
v -0.09086490 0.69590172 -1.21539904
v -0.09211405 0.16551651 -1.31513455
v -0.09208202 -0.52057528 -1.30081032
v -0.09208202 -0.52057528 -1.29069025
v -0.09269058 -0.44450828 -1.21472801
v -0.08998410 -0.64010922 -1.17523368
v -0.08953568 0.67104215 -1.26646506
v -0.08284154 0.72180323 -1.24117169
v -0.08380242 0.64543849 -1.31513455
v -0.07079848 0.77673227 -1.17523368
v -0.06030885 0.77673227 -1.21129075
v -0.05749027 0.77673227 -1.21986337
v -0.09116919 0.08691887 -1.31513455
v -0.08924743 -0.58458475 -1.30081032
v -0.08935952 -0.63847174 -1.21472801
v -0.05060394 -0.74371519 -1.17523368
v -0.05515212 0.69352000 -1.31513455
v -0.07087856 0.66925591 -1.31513455
v 0.04737400 0.77673227 -1.17523368
v 0.03416188 0.77673227 -1.21949363
v 0.00876256 0.74859786 -1.26191854
v -0.03217102 0.74859786 -1.26191854
v -0.07552282 0.08677005 -1.31513455
v -0.04957900 -0.60810448 -1.30081032
v -0.04352545 -0.74371519 -1.20870253
v -0.08795023 -0.63519685 -1.25337330
v 0.02724353 -0.74371519 -1.17523368
v -0.03183471 0.69352000 -1.31513455
v 0.06391719 0.75127721 -1.17523368
v 0.04713378 0.77673227 -1.17608273
v 0.06622331 0.73951743 -1.18970855
v 0.05943308 0.72091012 -1.24037742
v 0.03177569 0.69322215 -1.31513455
v 0.06726426 0.08677005 -1.31513455
v 0.02639474 -0.60780674 -1.30081032
v 0.02032517 -0.74371519 -1.20870253
v 0.06463785 -0.63504798 -1.25316789
v 0.06598309 -0.63802518 -1.21472801
v 0.06662368 -0.63966260 -1.17523368
v 0.06647954 0.74041054 -1.17523368
v 0.06710412 0.72701334 -1.17523368
v 0.06744043 0.69545505 -1.21491973
v 0.06750449 0.61864387 -1.31513455
v 0.06620730 0.67029785 -1.26562970
v 0.06052207 0.64246129 -1.31513455
v 0.05906474 0.64588494 -1.31513455
v 0.06784079 0.11624414 -1.31513455
v 0.06852943 -0.52057528 -1.30081032
v 0.06638346 -0.57490889 -1.30081032
v 0.06585497 -0.58428700 -1.30081032
v 0.05805581 -0.59217658 -1.30081032
v 0.06852943 -0.52057528 -1.29069025
v 0.06699202 -0.61614287 -1.17523368
v 0.06840131 0.69545505 -1.17523368
v 0.06883371 0.56758515 -1.31513455
v 0.06859349 0.18784544 -1.31513455
v 0.06865755 -0.51030399 -1.30081032
v 0.06913798 -0.44450828 -1.21472801
v 0.06867356 -0.44450828 -1.17523368
v 0.07001880 0.46740300 -1.21471432
v 0.06945828 0.54332106 -1.31513455
v 0.06880168 0.46859374 -1.17523368
v 0.06905791 0.23935071 -1.31513455
v 0.06921806 -0.44450828 -1.30081032
v 0.06968248 -0.36844117 -1.21472801
v 0.06894581 -0.40803774 -1.17523368
v 0.07001880 0.39133589 -1.21471432
v 0.06950633 0.46740300 -1.31513455
v 0.06950633 0.31541771 -1.31513455
v 0.06950633 -0.29252311 -1.30081032
v 0.06992271 -0.29252311 -1.21472801
f 1 2 9
f 1 9 3
f 1 3 4
f 1 4 5
f 1 5 6
f 1 6 2
f 2 7 8
f 2 8 9
f 2 6 10
f 2 10 11
f 2 11 7
f 3 12 4
f 3 9 8
f 3 8 7
f 3 7 16
f 3 16 27
f 3 27 36
f 3 36 35
f 3 35 46
f 3 46 51
f 3 51 64
f 3 64 63
f 3 63 61
f 3 61 73
f 3 73 79
f 3 79 86
f 3 86 87
f 3 87 81
f 3 81 74
f 3 74 65
f 3 65 52
f 3 52 41
f 3 41 31
f 3 31 20
f 3 20 12
f 4 13 5
f 4 12 13
f 5 13 14
f 5 14 15
f 5 15 6
f 6 15 24
f 6 24 34
f 6 34 45
f 6 45 57
f 6 57 71
f 6 71 77
f 6 77 84
f 6 84 80
f 6 80 72
f 6 72 59
f 6 59 58
f 6 58 47
f 6 47 37
f 6 37 28
f 6 28 17
f 6 17 11
f 6 11 10
f 7 11 16
f 11 17 18
f 11 18 19
f 11 19 16
f 12 20 21
f 12 21 13
f 13 21 22
f 13 22 23
f 13 23 14
f 14 23 15
f 15 23 24
f 16 19 18
f 16 18 25
f 16 25 26
f 16 26 27
f 17 28 18
f 18 26 25
f 18 28 29
f 18 29 30
f 18 30 26
f 20 31 21
f 21 32 33
f 21 33 24
f 21 24 22
f 21 31 32
f 22 24 23
f 24 33 34
f 26 30 35
f 26 35 36
f 26 36 27
f 28 37 48
f 28 48 38
f 28 38 30
f 28 30 29
f 30 38 39
f 30 39 40
f 30 40 35
f 31 41 42
f 31 42 32
f 32 42 43
f 32 43 44
f 32 44 33
f 33 44 34
f 34 43 54
f 34 54 45
f 34 44 43
f 35 40 39
f 35 39 46
f 37 47 48
f 38 48 47
f 38 47 49
f 38 49 50
f 38 50 51
f 38 51 39
f 39 51 46
f 41 52 42
f 42 53 54
f 42 54 43
f 42 52 53
f 45 54 55
f 45 55 56
f 45 56 57
f 47 58 49
f 49 58 59
f 49 59 60
f 49 60 61
f 49 61 62
f 49 62 50
f 50 62 61
f 50 61 63
f 50 63 64
f 50 64 51
f 52 65 66
f 52 66 67
f 52 67 68
f 52 68 69
f 52 69 53
f 53 69 54
f 54 69 68
f 54 68 55
f 55 68 56
f 56 68 67
f 56 67 66
f 56 66 57
f 57 66 70
f 57 70 71
f 59 72 60
f 60 72 61
f 61 72 73
f 65 74 75
f 65 75 66
f 66 75 70
f 70 75 76
f 70 76 71
f 71 76 77
f 72 78 79
f 72 79 73
f 72 80 78
f 74 81 75
f 75 82 76
f 75 81 82
f 76 82 83
f 76 83 84
f 76 84 77
f 78 80 84
f 78 84 85
f 78 85 87
f 78 87 86
f 78 86 79
f 81 87 82
f 82 88 89
f 82 89 83
f 82 87 88
f 83 89 84
f 84 89 85
f 85 89 88
f 85 88 87

