# https://github.com/mikedh/trimesh
v -0.09358737 -3.40865273 -1.21472213
v -0.09229018 -3.40979569 -1.17523368
v -0.09235424 -2.49867786 -1.17523368
v -0.09358737 -3.33265494 -1.21472213
v -0.09305888 -2.72467165 -1.30608481
v -0.09310693 -3.40865273 -1.28574501
v -0.09304287 -3.47965085 -1.28574501
v -0.09128125 -3.63550362 -1.17523368
v -0.09072074 -2.31939703 -1.17523368
v -0.09353933 -2.49682073 -1.21472213
v -0.09305888 -2.49682073 -1.30608481
v -0.09180974 -2.95266538 -1.30608481
v -0.09092893 -3.55779162 -1.28574501
v -0.09052856 -3.63436090 -1.21009828
v -0.08851071 -3.68135948 -1.18167633
v -0.08903919 -3.67464536 -1.17523368
v -0.09040044 -2.29896906 -1.17523368
v -0.09280265 -2.42082282 -1.29071468
v -0.09280265 -2.42082282 -1.30608481
v -0.09286671 -2.43625100 -1.30608481
v 0.06764865 -2.95266538 -1.30608481
v -0.05164486 -3.63164667 -1.28574501
v -0.09078480 -3.56264861 -1.28574501
v -0.08958370 -3.60750444 -1.26161388
v -0.05568057 -3.71950142 -1.21730944
v -0.08783809 -3.68764504 -1.17523368
v -0.08859078 -3.68193096 -1.17523368
v -0.09020827 -2.30011184 -1.21472213
v -0.06878060 -2.26025581 -1.17523368
v -0.09107306 -2.36868140 -1.30608481
v 0.06904193 -2.78538420 -1.30608481
v 0.06933020 -3.48993629 -1.28574501
v 0.06750452 -3.55950583 -1.28574501
v 0.06739242 -3.56164858 -1.28574501
v 0.06020182 -3.59407621 -1.28574501
v 0.02828452 -3.63136104 -1.28574501
v 0.00277309 -3.69707339 -1.25888567
v -0.02613344 -3.69707339 -1.25888567
v -0.04820171 -3.71950142 -1.21729664
v -0.07081446 -3.71950142 -1.17523368
v -0.08908724 -2.30368317 -1.25596535
v -0.09036841 -2.35425326 -1.30608481
v 0.04558040 -2.26025581 -1.17523368
v -0.05443142 -2.26025581 -1.21958934
v 0.06949034 -2.72467165 -1.30608481
v 0.06816112 -3.60264745 -1.17523368
v 0.06777677 -3.63521800 -1.17523368
v 0.06712017 -3.63407527 -1.20972684
v 0.06953839 -3.40865273 -1.28574501
v 0.07001883 -3.40865273 -1.21472213
v 0.06627139 -3.60707589 -1.26111434
v 0.03236826 -3.71950142 -1.21705327
v 0.04740607 -3.71950142 -1.17523368
v -0.04957897 -2.29211207 -1.26797968
v -0.08159236 -2.34425349 -1.30608481
v 0.03123122 -2.26025581 -1.21958934
v 0.06191539 -2.27996955 -1.17523368
v 0.06577493 -2.30396891 -1.25570918
v 0.06949034 -2.49682073 -1.30608481
v 0.06880171 -3.40993839 -1.17523368
v 0.06526247 -3.68093093 -1.17523368
v 0.06519841 -3.68050238 -1.18106154
v 0.07001883 -3.33265494 -1.21472213
v 0.06884975 -2.49824931 -1.17523368
v 0.02639478 -2.29225494 -1.26781317
v 0.02642681 -2.32868251 -1.30608481
v -0.04959498 -2.32853964 -1.30608481
v 0.06692799 -2.29968329 -1.17523368
v 0.06683190 -2.30039758 -1.21472213
v 0.06696002 -2.35468181 -1.30608481
v 0.06997079 -2.49682073 -1.21472213
v 0.06944230 -2.48139267 -1.30608481
v 0.06723227 -2.33096819 -1.17523368
v 0.06925013 -2.42082282 -1.30608481
v 0.06925013 -2.42082282 -1.29071468
f 1 2 3
f 1 3 4
f 1 4 11
f 1 11 5
f 1 5 6
f 1 6 7
f 1 7 8
f 1 8 2
f 2 8 16
f 2 16 27
f 2 27 26
f 2 26 40
f 2 40 53
f 2 53 61
f 2 61 47
f 2 47 46
f 2 46 60
f 2 60 64
f 2 64 73
f 2 73 68
f 2 68 57
f 2 57 43
f 2 43 29
f 2 29 17
f 2 17 9
f 2 9 3
f 3 9 10
f 3 10 4
f 4 10 11
f 5 11 20
f 5 20 19
f 5 19 30
f 5 30 42
f 5 42 55
f 5 55 67
f 5 67 66
f 5 66 70
f 5 70 74
f 5 74 72
f 5 72 59
f 5 59 45
f 5 45 31
f 5 31 21
f 5 21 12
f 5 12 7
f 5 7 6
f 7 13 8
f 7 12 13
f 8 14 15
f 8 15 16
f 8 13 14
f 9 17 18
f 9 18 10
f 10 18 19
f 10 19 20
f 10 20 11
f 12 21 22
f 12 22 23
f 12 23 13
f 13 23 14
f 14 23 24
f 14 24 15
f 15 25 26
f 15 26 27
f 15 27 16
f 15 24 25
f 17 28 19
f 17 19 18
f 17 29 28
f 19 28 30
f 21 31 32
f 21 32 33
f 21 33 34
f 21 34 35
f 21 35 36
f 21 36 22
f 22 24 23
f 22 36 37
f 22 37 38
f 22 38 25
f 22 25 24
f 25 39 52
f 25 52 53
f 25 53 40
f 25 40 26
f 25 38 37
f 25 37 39
f 28 29 41
f 28 41 42
f 28 42 30
f 29 43 56
f 29 56 44
f 29 44 41
f 31 45 32
f 32 46 47
f 32 47 48
f 32 48 33
f 32 45 49
f 32 49 50
f 32 50 46
f 33 48 51
f 33 51 34
f 34 51 35
f 35 51 52
f 35 52 36
f 36 52 37
f 37 52 39
f 41 44 54
f 41 54 55
f 41 55 42
f 43 57 58
f 43 58 56
f 44 56 54
f 45 59 63
f 45 63 50
f 45 50 49
f 46 50 60
f 47 61 62
f 47 62 48
f 48 62 51
f 50 63 64
f 50 64 60
f 51 62 52
f 52 62 53
f 53 62 61
f 54 56 65
f 54 65 66
f 54 66 67
f 54 67 55
f 56 58 65
f 57 68 69
f 57 69 58
f 58 69 70
f 58 70 66
f 58 66 65
f 59 71 63
f 59 72 71
f 63 71 64
f 64 71 73
f 68 74 69
f 68 73 71
f 68 71 75
f 68 75 74
f 69 74 70
f 71 72 74
f 71 74 75

