# https://github.com/mikedh/trimesh
v -0.09358737 -1.88850777 -1.21472671
v -0.09307490 -1.88850777 -1.28994614
v -0.09301084 -1.96374881 -1.28994614
v -0.09192184 -2.11630863 -1.17523368
v -0.09229018 -1.88969500 -1.17523368
v -0.09262649 -1.01321823 -1.17523368
v -0.09358737 -1.81267308 -1.21472671
v -0.09305888 -1.20465999 -1.30307295
v -0.09092893 -2.03913832 -1.28994614
v -0.09091292 -2.11601185 -1.21361300
v -0.09203395 -1.43201562 -1.30307295
v -0.09022429 -2.14895761 -1.17523368
v -0.09248235 -0.97671071 -1.17523368
v -0.09342723 -1.05269381 -1.21471419
v -0.09304287 -1.12867688 -1.30307295
v -0.05776248 -2.11022403 -1.28994614
v -0.05443142 -2.25981577 -1.21959451
v -0.08958370 -2.09018945 -1.26440583
v -0.08932746 -2.15979114 -1.18752208
v -0.05563253 -2.11393416 -1.28994614
v 0.06764865 -1.43201562 -1.30307295
v -0.08955167 -2.16038476 -1.17523368
v -0.09310693 -0.97671071 -1.21471419
v -0.09052856 -0.80307748 -1.17523368
v -0.09296280 -0.97671071 -1.30307295
v 0.02964576 -2.25981577 -1.21958199
v -0.06879661 -2.25981577 -1.17523368
v 0.03225616 -2.11363738 -1.28994614
v 0.06782482 -1.41346506 -1.30307295
v 0.06942628 -1.96538130 -1.28994614
v 0.06752053 -2.03854470 -1.28994614
v 0.06210757 -2.07564578 -1.28994614
v -0.09240228 -0.90072763 -1.29069696
v -0.09240228 -0.90072763 -1.30307295
v -0.09251438 -0.91319360 -1.30307295
v -0.09014421 -0.78096520 -1.17523368
v 0.03123122 -2.25981577 -1.21956948
v 0.04558040 -2.25981577 -1.17523368
v 0.06904193 -1.26832549 -1.30307295
v 0.06950636 -1.88850777 -1.28994614
v 0.07001883 -1.88850777 -1.21472671
v 0.06843338 -2.11601185 -1.17523368
v 0.06748850 -2.11556659 -1.21320005
v 0.06949034 -1.20465999 -1.30307295
v 0.06627139 -2.08959583 -1.26375513
v -0.08971181 -0.78215244 -1.21471419
v -0.09035240 -0.84730203 -1.30307295
v -0.05060391 -0.74401248 -1.17523368
v 0.06601516 -2.15949431 -1.18684634
v 0.06620733 -2.16008793 -1.17523368
v 0.07001883 -1.81267308 -1.21472671
v 0.06905795 -1.09216939 -1.17523368
v 0.06880171 -1.88999181 -1.17523368
v 0.06852947 -2.08054314 -1.17523368
v 0.06949034 -1.19234240 -1.30307295
v -0.08843063 -0.78526895 -1.25433236
v -0.08974384 -0.83617166 -1.30307295
v 0.02724356 -0.74401248 -1.17523368
v -0.04354143 -0.74401248 -1.20870766
v 0.06947433 -1.11635930 -1.30307295
v 0.06985869 -1.05269381 -1.21471419
v 0.06891381 -0.97671071 -1.17523368
v -0.04957897 -0.77532586 -1.26480626
v -0.04959498 -0.81020089 -1.30307295
v -0.08146424 -0.82726739 -1.30307295
v 0.02034122 -0.74401248 -1.20870766
v 0.04935986 -0.76152424 -1.17523368
v 0.06511833 -0.78541737 -1.25410710
v 0.06939425 -0.97671071 -1.30307295
v 0.06953839 -0.97671071 -1.21471419
v 0.06678386 -0.78126204 -1.17523368
v 0.02639478 -0.77562264 -1.26461854
v 0.02641079 -0.81034931 -1.30307295
v 0.06633545 -0.78244928 -1.21471419
v 0.06633545 -0.83646849 -1.30307295
v 0.06883374 -0.90072763 -1.30307295
v 0.06884975 -0.90072763 -1.29069696
f 1 2 3
f 1 3 4
f 1 4 5
f 1 5 6
f 1 6 7
f 1 7 8
f 1 8 2
f 2 8 3
f 3 9 10
f 3 10 4
f 3 8 11
f 3 11 9
f 4 10 12
f 4 12 22
f 4 22 27
f 4 27 38
f 4 38 50
f 4 50 42
f 4 42 54
f 4 54 53
f 4 53 52
f 4 52 62
f 4 62 71
f 4 71 67
f 4 67 58
f 4 58 48
f 4 48 36
f 4 36 24
f 4 24 13
f 4 13 6
f 4 6 5
f 6 13 14
f 6 14 7
f 7 14 15
f 7 15 8
f 8 15 25
f 8 25 35
f 8 35 34
f 8 34 47
f 8 47 57
f 8 57 65
f 8 65 64
f 8 64 73
f 8 73 75
f 8 75 76
f 8 76 69
f 8 69 60
f 8 60 55
f 8 55 44
f 8 44 39
f 8 39 29
f 8 29 21
f 8 21 11
f 9 11 16
f 9 16 17
f 9 17 18
f 9 18 10
f 10 19 12
f 10 18 19
f 11 20 16
f 11 21 20
f 12 19 22
f 13 23 14
f 13 24 23
f 14 23 25
f 14 25 15
f 16 20 17
f 17 26 37
f 17 37 38
f 17 38 27
f 17 27 18
f 17 20 26
f 18 27 19
f 19 27 22
f 20 21 28
f 20 28 26
f 21 29 30
f 21 30 31
f 21 31 32
f 21 32 28
f 23 24 33
f 23 33 34
f 23 34 35
f 23 35 25
f 24 36 33
f 26 28 37
f 28 32 37
f 29 39 30
f 30 40 41
f 30 41 42
f 30 42 43
f 30 43 31
f 30 39 44
f 30 44 40
f 31 43 45
f 31 45 32
f 32 45 38
f 32 38 37
f 33 36 34
f 34 36 46
f 34 46 47
f 36 48 46
f 38 45 49
f 38 49 50
f 40 44 41
f 41 44 55
f 41 55 51
f 41 51 52
f 41 52 53
f 41 53 54
f 41 54 42
f 42 50 49
f 42 49 43
f 43 49 45
f 46 48 56
f 46 56 57
f 46 57 47
f 48 58 66
f 48 66 59
f 48 59 56
f 51 55 60
f 51 60 61
f 51 61 52
f 52 61 62
f 56 59 63
f 56 63 64
f 56 64 65
f 56 65 57
f 58 67 68
f 58 68 66
f 59 66 63
f 60 69 61
f 61 69 70
f 61 70 62
f 62 70 71
f 63 66 72
f 63 72 73
f 63 73 64
f 66 68 72
f 67 71 74
f 67 74 68
f 68 74 75
f 68 75 73
f 68 73 72
f 69 76 70
f 70 76 77
f 70 77 71
f 71 77 76
f 71 76 74
f 74 76 75

