# https://github.com/mikedh/trimesh
v -0.09358433 0.46739167 -0.68270141
v -0.09358433 0.54336500 -0.68270141
v -0.09231919 0.69531167 -0.76512994
v -0.09356832 -0.44458382 -0.68270141
v -0.09058963 -0.44458382 -0.63875362
v -0.09058963 0.54336500 -0.63875362
v -0.09257542 0.61933834 -0.68270141
v -0.09225513 0.69531167 -0.75868123
v -0.08991702 0.78325748 -0.76512994
v -0.09227115 -0.44458382 -0.76512994
v -0.09345621 -0.52055716 -0.68270141
v -0.09046152 -0.52055716 -0.63917651
v -0.04959268 -0.44458382 -0.61085962
v -0.04959268 -0.21651602 -0.61084453
v -0.04959268 0.54336500 -0.61084453
v -0.08969282 0.61933834 -0.64065653
v -0.08841167 0.65895076 -0.64326923
v -0.08990101 0.78325748 -0.76472217
v 0.03342614 0.78325748 -0.76512994
v -0.09118217 -0.72660153 -0.76512994
v -0.08942058 -0.56283024 -0.64129084
v -0.09111811 -0.72660153 -0.76330256
v -0.04959268 -0.52055716 -0.61324578
v 0.02639580 -0.44458382 -0.61119188
v 0.02639580 0.54336500 -0.61119188
v 0.02639580 0.61933834 -0.61735363
v -0.04959268 0.61933834 -0.61703649
v -0.04959268 0.66914968 -0.63395108
v -0.04235416 0.78325748 -0.70882844
v 0.06649594 0.78325748 -0.76508463
v 0.06636783 0.76507691 -0.76512994
v 0.06776108 -0.72660153 -0.76512994
v -0.07303781 -0.72660153 -0.75239867
v -0.04959268 -0.72660153 -0.73827800
v -0.04959268 -0.57613293 -0.63016041
v 0.02639580 -0.57598513 -0.63032652
v 0.02639580 -0.52055716 -0.61357804
v 0.06708847 -0.52055716 -0.63950874
v 0.06720058 -0.44458382 -0.63910097
v 0.06720058 0.54336500 -0.63910097
v 0.06631979 0.61933834 -0.64098879
v 0.06510269 0.65865539 -0.64348065
v 0.02639580 0.66900177 -0.63410211
v 0.01915728 0.78325748 -0.70896437
v 0.06872195 0.70181514 -0.76512994
v 0.06901021 0.61933834 -0.68270141
v 0.06774507 -0.72660153 -0.76463156
v 0.06852978 -0.44458382 -0.76512994
v 0.06969883 -0.52055716 -0.68270141
v 0.02639580 -0.72660153 -0.73848942
v 0.06611160 -0.56268244 -0.64150225
v 0.07001912 -0.36846269 -0.68270141
v 0.07000311 0.54336500 -0.68270141
v 0.06873796 0.69531167 -0.76512994
v 0.06769703 -0.72660153 -0.76348380
f 1 2 3
f 1 3 4
f 1 4 5
f 1 5 6
f 1 6 2
f 2 6 7
f 2 7 3
f 3 7 8
f 3 8 9
f 3 9 19
f 3 19 31
f 3 31 45
f 3 45 54
f 3 54 48
f 3 48 32
f 3 32 20
f 3 20 10
f 3 10 4
f 4 10 11
f 4 11 5
f 5 11 12
f 5 12 13
f 5 13 14
f 5 14 15
f 5 15 6
f 6 15 16
f 6 16 7
f 7 16 17
f 7 17 18
f 7 18 9
f 7 9 8
f 9 18 29
f 9 29 44
f 9 44 30
f 9 30 19
f 10 20 11
f 11 21 12
f 11 20 22
f 11 22 21
f 12 21 23
f 12 23 13
f 13 23 37
f 13 37 24
f 13 24 14
f 14 24 25
f 14 25 15
f 15 25 26
f 15 26 27
f 15 27 16
f 16 27 17
f 17 28 29
f 17 29 18
f 17 27 28
f 19 30 31
f 20 32 47
f 20 47 55
f 20 55 50
f 20 50 34
f 20 34 33
f 20 33 22
f 21 22 33
f 21 33 34
f 21 34 35
f 21 35 23
f 23 35 36
f 23 36 37
f 24 37 38
f 24 38 39
f 24 39 40
f 24 40 25
f 25 40 41
f 25 41 26
f 26 41 42
f 26 42 43
f 26 43 27
f 27 43 28
f 28 43 44
f 28 44 29
f 30 45 31
f 30 44 42
f 30 42 46
f 30 46 45
f 32 48 49
f 32 49 47
f 34 50 35
f 35 50 36
f 36 51 37
f 36 50 51
f 37 51 38
f 38 51 49
f 38 49 52
f 38 52 39
f 39 52 40
f 40 53 46
f 40 46 41
f 40 52 53
f 41 46 42
f 42 44 43
f 45 53 54
f 45 46 53
f 47 49 55
f 48 52 49
f 48 54 52
f 49 51 55
f 50 55 51
f 52 54 53

