# https://github.com/mikedh/trimesh
v -0.09358742 -4.09282861 -1.21471608
v -0.09229021 -4.09394031 -1.17523368
v -0.09229021 -4.01559862 -1.17523368
v -0.09357139 -4.01678461 -1.21471608
v -0.09307494 -4.01678461 -1.30919322
v -0.09307494 -4.24469419 -1.30919322
v -0.09294683 -4.47660592 -1.29070429
v -0.09237030 -4.47660592 -1.21862367
v -0.09233826 -4.47275191 -1.21471608
v -0.09169767 -4.47275191 -1.17523368
v -0.09086490 -3.83349347 -1.17523368
v -0.09301089 -3.94081467 -1.29070429
v -0.09301089 -3.94081467 -1.30919322
v -0.09302690 -3.95926977 -1.30919322
v -0.09057665 -3.81192526 -1.17523368
v -0.09161760 -4.47660592 -1.30919322
v -0.09163361 -4.47660592 -1.17523368
v -0.09057665 -3.81422295 -1.21471608
v -0.09152152 -3.88982232 -1.30919322
v -0.07081450 -3.71950164 -1.17523368
v 0.06756854 -4.47660592 -1.30919322
v 0.06758455 -4.47660592 -1.17523368
v -0.08958374 -3.82119007 -1.25828965
v -0.09088093 -3.86966253 -1.30919322
v 0.04742205 -3.71950164 -1.17523368
v -0.05568061 -3.71950164 -1.21729929
v 0.06836928 -4.47660592 -1.29070429
v 0.06907392 -4.30228287 -1.30919322
v 0.06766463 -4.47275191 -1.17523368
v -0.04959502 -3.83890404 -1.30919322
v 0.06385313 -3.79339610 -1.17523368
v 0.06720021 -3.81489001 -1.21471608
v 0.06627135 -3.82156064 -1.25796182
v 0.03238424 -3.71950164 -1.21705014
v -0.04820174 -3.71950164 -1.21729929
v 0.06950632 -4.24469419 -1.30919322
v 0.06950632 -4.24469419 -1.29070429
v 0.07001879 -4.09282861 -1.21471608
v 0.06880167 -4.09416251 -1.17523368
v 0.01881979 -3.83934867 -1.30919322
v 0.06712013 -3.81311125 -1.17523368
v 0.06944226 -3.94081467 -1.30919322
v 0.06747246 -3.86981067 -1.30919322
v 0.06944226 -3.94081467 -1.29070429
v 0.02639474 -3.83942274 -1.30919322
v 0.06950632 -4.01678461 -1.30919322
v 0.07001879 -4.01678461 -1.21471608
v 0.06880167 -4.01545048 -1.17523368
f 1 2 3
f 1 3 4
f 1 4 5
f 1 5 6
f 1 6 7
f 1 7 8
f 1 8 9
f 1 9 10
f 1 10 2
f 2 10 17
f 2 17 22
f 2 22 29
f 2 29 39
f 2 39 48
f 2 48 41
f 2 41 31
f 2 31 25
f 2 25 20
f 2 20 15
f 2 15 11
f 2 11 3
f 3 11 4
f 4 12 13
f 4 13 14
f 4 14 5
f 4 11 15
f 4 15 12
f 5 14 13
f 5 13 19
f 5 19 24
f 5 24 30
f 5 30 40
f 5 40 45
f 5 45 43
f 5 43 42
f 5 42 46
f 5 46 36
f 5 36 28
f 5 28 21
f 5 21 16
f 5 16 6
f 6 16 7
f 7 16 21
f 7 21 27
f 7 27 22
f 7 22 17
f 7 17 8
f 8 17 10
f 8 10 9
f 12 15 13
f 13 15 18
f 13 18 19
f 15 20 18
f 18 20 23
f 18 23 24
f 18 24 19
f 20 25 34
f 20 34 35
f 20 35 26
f 20 26 23
f 21 28 27
f 22 27 29
f 23 26 24
f 24 26 30
f 25 31 32
f 25 32 33
f 25 33 34
f 26 35 30
f 27 28 36
f 27 36 37
f 27 37 38
f 27 38 29
f 29 38 39
f 30 35 34
f 30 34 40
f 31 41 32
f 32 42 43
f 32 43 33
f 32 41 44
f 32 44 42
f 33 43 34
f 34 43 45
f 34 45 40
f 36 46 47
f 36 47 38
f 36 38 37
f 38 47 48
f 38 48 39
f 41 48 47
f 41 47 44
f 42 44 47
f 42 47 46

