# https://github.com/mikedh/trimesh
v -0.09308459 0.39142876 -1.36672205
v -0.09058578 0.31542076 -1.41044534
v -0.09306867 0.31542076 -1.36672205
v -0.09306867 0.31542076 -1.31514661
v -0.09306867 0.46737332 -1.31514661
v -0.09306867 0.46737332 -1.36672205
v -0.09058578 0.61938953 -1.41044534
v -0.04958637 0.31542076 -1.43834385
v -0.09028338 0.23947608 -1.40984226
v -0.09276627 0.23947608 -1.36672205
v -0.09297317 0.23947608 -1.31514661
v -0.09303683 0.51895482 -1.31514661
v -0.09303683 0.54338154 -1.36672205
v -0.08958308 0.66335745 -1.40852756
v -0.04958637 0.61938953 -1.43670348
v -0.04958637 0.54338154 -1.43834385
v 0.02639623 0.31542076 -1.43799406
v -0.04958637 0.23947608 -1.43613656
v -0.08916927 0.19918811 -1.40773150
v -0.09117467 0.08707935 -1.31514661
v -0.09212963 0.16562523 -1.31514661
v -0.09302092 0.54338154 -1.31514661
v -0.09095185 0.61926269 -1.36596214
v -0.08958308 0.66335745 -1.39077288
v -0.01479417 0.73486090 -1.40647708
v -0.04390439 0.69133716 -1.41791149
v -0.00844372 0.73486090 -1.40647708
v 0.02069833 0.69114667 -1.41776675
v 0.02639623 0.61938953 -1.43635367
v 0.02639623 0.54338154 -1.43799406
v 0.06720465 0.31542076 -1.41008349
v 0.06688634 0.23947608 -1.40948042
v 0.02639623 0.23947608 -1.43578678
v 0.02639623 0.18929055 -1.41914179
v -0.04958637 0.18916359 -1.41932271
v -0.04958637 0.08682554 -1.35152440
v -0.08994914 0.08682554 -1.33208111
v -0.07552932 0.08682554 -1.31514661
v -0.09158849 0.59534357 -1.31514661
v -0.09092002 0.61926269 -1.31514661
v -0.08380560 0.64559275 -1.31514661
v -0.07088187 0.66938480 -1.31514661
v -0.05515694 0.69362125 -1.31514661
v -0.01479417 0.73486090 -1.40291891
v 0.06626562 0.66297669 -1.40829839
v -0.00844372 0.73486090 -1.40291891
v 0.06720465 0.61938953 -1.41008349
v 0.06949654 0.31542076 -1.36672205
v 0.06919414 0.23947608 -1.36672205
v 0.06585180 0.19931495 -1.40749027
v 0.02639623 0.08682554 -1.35127111
v 0.06725240 0.08682554 -1.31514661
v -0.03184012 0.69355761 -1.31514661
v 0.06626562 0.66297669 -1.39156894
v 0.06752297 0.61875508 -1.36643254
v 0.06946471 0.54338154 -1.36672205
v 0.03177581 0.69324050 -1.31514661
v 0.06949654 0.46737332 -1.36672205
v 0.06951246 0.31542076 -1.31514661
v 0.06906681 0.23947608 -1.31514661
v 0.06858933 0.18789470 -1.31514661
v 0.06784129 0.11632783 -1.31514661
v 0.06658393 0.08682554 -1.33183988
v 0.05907162 0.64584643 -1.31514661
v 0.06051997 0.64248371 -1.31514661
v 0.06750706 0.61875508 -1.31514661
v 0.06884399 0.56768119 -1.31514661
v 0.06946471 0.54338154 -1.31514661
v 0.06949654 0.49180005 -1.31514661
f 1 2 3
f 1 3 4
f 1 4 5
f 1 5 6
f 1 6 7
f 1 7 2
f 2 8 9
f 2 9 10
f 2 10 3
f 2 7 16
f 2 16 8
f 3 10 11
f 3 11 4
f 4 11 21
f 4 21 20
f 4 20 38
f 4 38 52
f 4 52 62
f 4 62 61
f 4 61 60
f 4 60 59
f 4 59 69
f 4 69 68
f 4 68 67
f 4 67 66
f 4 66 65
f 4 65 64
f 4 64 57
f 4 57 53
f 4 53 43
f 4 43 42
f 4 42 41
f 4 41 40
f 4 40 39
f 4 39 22
f 4 22 12
f 4 12 5
f 5 12 13
f 5 13 6
f 6 13 7
f 7 13 14
f 7 14 15
f 7 15 16
f 8 17 33
f 8 33 18
f 8 18 9
f 8 16 30
f 8 30 17
f 9 18 19
f 9 19 20
f 9 20 10
f 10 20 21
f 10 21 11
f 12 22 13
f 13 22 23
f 13 23 14
f 14 24 44
f 14 44 25
f 14 25 26
f 14 26 15
f 14 23 24
f 15 26 27
f 15 27 28
f 15 28 29
f 15 29 30
f 15 30 16
f 17 31 32
f 17 32 33
f 17 30 47
f 17 47 31
f 18 33 34
f 18 34 35
f 18 35 19
f 19 35 36
f 19 36 37
f 19 37 20
f 20 37 38
f 22 39 23
f 23 39 40
f 23 40 24
f 24 41 42
f 24 42 43
f 24 43 44
f 24 40 41
f 25 44 46
f 25 46 27
f 25 27 26
f 27 45 28
f 27 46 54
f 27 54 45
f 28 45 29
f 29 47 30
f 29 45 47
f 31 48 49
f 31 49 32
f 31 47 58
f 31 58 48
f 32 49 50
f 32 50 33
f 33 50 34
f 34 51 35
f 34 50 51
f 35 51 36
f 36 51 63
f 36 63 52
f 36 52 38
f 36 38 37
f 43 53 46
f 43 46 44
f 45 54 55
f 45 55 56
f 45 56 47
f 46 53 57
f 46 57 54
f 47 56 58
f 48 59 49
f 48 58 59
f 49 60 61
f 49 61 62
f 49 62 52
f 49 52 63
f 49 63 50
f 49 59 60
f 50 63 51
f 54 57 64
f 54 64 65
f 54 65 66
f 54 66 55
f 55 66 67
f 55 67 56
f 56 67 68
f 56 68 69
f 56 69 58
f 58 69 59

