# https://github.com/mikedh/trimesh
v -0.09306863 -0.44459028 -1.36672029
v -0.09058573 -0.52055863 -1.41044749
v -0.09209775 -0.52055863 -1.36672029
v -0.09208184 -0.52055863 -1.30081983
v -0.09278214 -0.44459028 -1.30081983
v -0.09306863 -0.30267367 -1.30081983
v -0.09306863 -0.21661399 -1.36672029
v -0.04958603 -0.44459028 -1.43834243
v -0.04958603 -0.52055863 -1.43717116
v -0.08958303 -0.56866959 -1.40853577
v -0.09058573 -0.21661399 -1.41044749
v -0.08924879 -0.58465921 -1.30081983
v -0.09306863 -0.21661399 -1.30081983
v -0.09305272 -0.15073685 -1.30081983
v -0.09220916 0.08676212 -1.30081983
v 0.02639711 -0.44459028 -1.43799239
v -0.04958603 -0.21661399 -1.43834243
v 0.02639711 -0.52055863 -1.43682112
v 0.02763856 -0.59467936 -1.42168894
v -0.05093890 -0.59503470 -1.42183702
v -0.02650779 -0.63923711 -1.41238613
v -0.08958303 -0.15834080 -1.40853577
v -0.02650779 -0.63923711 -1.39639232
v -0.04958603 -0.60811065 -1.30081983
v 0.06784246 0.08676212 -1.30081983
v -0.08994909 0.08676212 -1.33208049
v 0.06720582 -0.52055863 -1.41008400
v 0.02639711 -0.21661399 -1.43799239
v -0.05633443 -0.13602637 -1.42572778
v 0.03295451 -0.13673703 -1.42557968
v 0.06626676 -0.56803004 -1.40829344
v 0.00312787 -0.63923711 -1.41238613
v -0.08616108 -0.10767156 -1.39877523
v 0.00312787 -0.63923711 -1.39639232
v 0.02639711 -0.60796852 -1.30081983
v 0.06949773 -0.21661399 -1.36672029
v 0.06656918 0.08676212 -1.33183815
v 0.06949773 -0.21661399 -1.30081983
v -0.04958603 0.08676212 -1.35152078
v 0.06949773 -0.44459028 -1.36672029
v 0.06852685 -0.52055863 -1.36672029
v 0.06720582 -0.21661399 -1.41008400
v 0.06626676 -0.15954888 -1.40829344
v -0.03548443 -0.09203727 -1.41730006
v 0.01200901 -0.09203727 -1.41730006
v 0.02639711 0.08676212 -1.35126499
v 0.06266975 -0.10887964 -1.39740203
v 0.06637817 -0.57492333 -1.30081983
v 0.06585295 -0.58437495 -1.30081983
v 0.05807002 -0.59219209 -1.30081983
v 0.06949773 -0.29258245 -1.30081983
v -0.04893347 0.08676212 -1.35152078
v 0.06921124 -0.44459028 -1.30081983
v 0.06867008 -0.51046741 -1.30081983
v 0.06852685 -0.52055863 -1.30081983
f 1 2 3
f 1 3 4
f 1 4 5
f 1 5 6
f 1 6 13
f 1 13 7
f 1 7 11
f 1 11 2
f 2 8 9
f 2 9 10
f 2 10 3
f 2 11 17
f 2 17 8
f 3 10 12
f 3 12 4
f 4 12 24
f 4 24 35
f 4 35 50
f 4 50 49
f 4 49 48
f 4 48 55
f 4 55 54
f 4 54 53
f 4 53 51
f 4 51 38
f 4 38 25
f 4 25 15
f 4 15 14
f 4 14 13
f 4 13 6
f 4 6 5
f 7 13 14
f 7 14 15
f 7 15 11
f 8 16 18
f 8 18 9
f 8 17 28
f 8 28 16
f 9 18 19
f 9 19 20
f 9 20 10
f 10 20 21
f 10 21 12
f 11 15 22
f 11 22 17
f 12 21 23
f 12 23 24
f 15 25 37
f 15 37 46
f 15 46 52
f 15 52 39
f 15 39 26
f 15 26 22
f 16 27 18
f 16 28 42
f 16 42 27
f 17 22 29
f 17 29 30
f 17 30 28
f 18 27 31
f 18 31 19
f 19 32 20
f 19 31 32
f 20 32 21
f 21 32 34
f 21 34 23
f 22 33 29
f 22 26 33
f 23 34 24
f 24 34 35
f 25 36 37
f 25 38 36
f 26 39 29
f 26 29 33
f 27 40 41
f 27 41 31
f 27 42 36
f 27 36 40
f 28 30 43
f 28 43 42
f 29 39 44
f 29 44 45
f 29 45 30
f 30 45 46
f 30 46 37
f 30 37 47
f 30 47 43
f 31 41 48
f 31 48 49
f 31 49 32
f 32 49 50
f 32 50 34
f 34 50 35
f 36 42 37
f 36 38 51
f 36 51 40
f 37 42 43
f 37 43 47
f 39 52 45
f 39 45 44
f 40 53 54
f 40 54 41
f 40 51 53
f 41 55 48
f 41 54 55
f 45 52 46

