# https://github.com/mikedh/trimesh
v -0.09308454 1.22747270 -1.36672740
v -0.09058573 0.99946799 -1.41044950
v -0.09306863 1.07546941 -1.36672740
v -0.09306863 1.07546941 -1.30848635
v -0.09308454 1.30340278 -1.36672740
v -0.04958620 1.07546941 -1.43835585
v -0.04958620 0.99946799 -1.43733878
v -0.08943979 0.92346634 -1.40825004
v -0.09294131 0.99946799 -1.36672740
v -0.09058573 1.30340278 -1.41044950
v -0.09303679 1.05775476 -1.30848635
v -0.09306863 1.30340278 -1.30848635
v -0.09302088 1.36168955 -1.30848635
v -0.09168394 1.60712329 -1.30848635
v 0.02639664 1.07546941 -1.43798715
v 0.02639664 0.99946799 -1.43698279
v -0.04958620 1.30340278 -1.43835585
v -0.04958620 0.92346634 -1.43191006
v -0.08805510 0.88489404 -1.40560562
v -0.09292538 0.99946799 -1.30848635
v -0.09053798 0.92896638 -1.30848635
v -0.08994909 1.60712329 -1.33275664
v -0.08958303 1.34940359 -1.40852974
v 0.06755535 1.60712329 -1.30848635
v 0.06720519 0.99946799 -1.41008080
v 0.02639664 1.30340278 -1.43798715
v 0.06605924 0.92346634 -1.40789405
v 0.02639664 0.92346634 -1.43155408
v -0.04917238 1.37661862 -1.42215874
v 0.02590325 1.37633276 -1.42201888
v 0.02639664 0.87753687 -1.41592907
v -0.04958620 0.87739394 -1.41610705
v -0.08805510 0.88489404 -1.40354600
v -0.04958620 0.90582304 -1.30848635
v -0.04958620 1.60712329 -1.35548858
v 0.06951302 1.30340278 -1.30848635
v 0.06949709 1.30340278 -1.36672740
v 0.06658447 1.60712329 -1.33246422
v 0.06949709 1.07546941 -1.36672740
v 0.06936976 0.99946799 -1.36672740
v 0.06720519 1.30340278 -1.41008080
v 0.06626615 1.34897504 -1.40828817
v 0.06473822 0.88503696 -1.40536405
v -0.02356359 1.42354811 -1.41136487
v 0.00024671 1.42354811 -1.41136487
v 0.02639664 1.60712329 -1.35518345
v 0.02639664 0.87753687 -1.39062899
v -0.04958620 0.87739394 -1.39040014
v 0.02639664 0.90603732 -1.30848635
v 0.06949709 1.07546941 -1.30848635
v 0.06940160 1.01725398 -1.30848635
v 0.06936976 0.99946799 -1.30848635
v 0.06790550 0.94910963 -1.30848635
v 0.06473822 0.88503696 -1.40385113
v 0.06710969 0.92918065 -1.30848635
v 0.05327872 0.92125201 -1.30848635
f 1 2 3
f 1 3 4
f 1 4 12
f 1 12 5
f 1 5 10
f 1 10 2
f 2 6 7
f 2 7 8
f 2 8 9
f 2 9 3
f 2 10 17
f 2 17 6
f 3 9 4
f 4 9 11
f 4 11 20
f 4 20 21
f 4 21 34
f 4 34 49
f 4 49 56
f 4 56 55
f 4 55 53
f 4 53 52
f 4 52 51
f 4 51 50
f 4 50 36
f 4 36 24
f 4 24 14
f 4 14 13
f 4 13 12
f 5 12 13
f 5 13 14
f 5 14 10
f 6 15 16
f 6 16 7
f 6 17 26
f 6 26 15
f 7 18 8
f 7 16 28
f 7 28 18
f 8 18 19
f 8 19 9
f 9 20 11
f 9 19 21
f 9 21 20
f 10 14 22
f 10 22 23
f 10 23 17
f 14 24 38
f 14 38 46
f 14 46 35
f 14 35 22
f 15 25 16
f 15 26 41
f 15 41 25
f 16 25 27
f 16 27 28
f 17 23 29
f 17 29 30
f 17 30 26
f 18 28 31
f 18 31 32
f 18 32 19
f 19 32 48
f 19 48 33
f 19 33 21
f 21 33 34
f 22 35 23
f 23 35 29
f 24 36 37
f 24 37 38
f 25 39 40
f 25 40 27
f 25 41 37
f 25 37 39
f 26 30 42
f 26 42 41
f 27 43 28
f 27 40 43
f 28 43 31
f 29 44 45
f 29 45 30
f 29 35 44
f 30 45 46
f 30 46 42
f 31 43 54
f 31 54 47
f 31 47 48
f 31 48 32
f 33 48 34
f 34 48 49
f 35 46 45
f 35 45 44
f 36 39 37
f 36 50 39
f 37 41 38
f 38 41 42
f 38 42 46
f 39 50 51
f 39 51 40
f 40 51 52
f 40 52 53
f 40 53 43
f 43 53 55
f 43 55 54
f 47 54 49
f 47 49 48
f 49 54 56
f 54 55 56

