# https://github.com/mikedh/trimesh
v -0.09302310 -2.11690865 -1.01721121
v -0.09289586 -2.11690865 -1.13869795
v -0.09229147 -4.92937087 -1.17523368
v -0.09257776 -3.63609753 -1.01721121
v -0.09286405 0.69555358 -1.01721121
v -0.09284814 0.69555358 -1.13869795
v -0.09264138 -1.01399679 -1.17523368
v -0.09058966 -5.13380597 -1.17523368
v -0.09092366 -5.14861997 -1.01721121
v -0.09124176 2.21474258 -1.01721121
v -0.09229147 1.98808625 -1.17523368
v -0.08314622 -5.15380494 -1.17523368
v -0.08395737 -5.18121113 -1.01721121
v -0.08508661 -5.17676684 -1.01721121
v -0.09003299 2.25696277 -1.01721121
v -0.09081233 2.21474258 -1.13869795
v -0.09097138 2.18141074 -1.17523368
v -0.06553964 -5.17454481 -1.17523368
v -0.07624355 -5.17454481 -1.13869795
v -0.05302257 -5.22861629 -1.01721121
v -0.08882423 2.27399903 -1.01721121
v -0.08774270 2.25325916 -1.17523368
v -0.09041471 2.21326100 -1.17523368
v -0.04681971 -5.19009949 -1.17523368
v -0.03266446 -5.19972874 -1.17523368
v 0.00919692 -5.19972874 -1.17523368
v 0.02963456 -5.22787562 -1.01721121
v -0.07730917 2.30584929 -1.01721121
v -0.03762675 2.33769977 -1.01721121
v -0.03011969 2.33547774 -1.03229264
v -0.04748771 2.26288841 -1.17523368
v 0.04208801 -5.17306323 -1.17523368
v 0.05268059 -5.17306323 -1.13869795
v 0.04399658 -5.21306139 -1.01721121
v 0.00291453 2.33844045 -1.01721121
v -0.00063223 2.33547774 -1.03229264
v 0.02424284 2.26214774 -1.17523368
v 0.06718575 -5.13380597 -1.17523368
v 0.06060117 -5.17972955 -1.01721121
v 0.05465278 2.27622106 -1.01721121
v 0.06441832 2.25325916 -1.17523368
v 0.06744022 -5.11232542 -1.17523368
v 0.06755156 -5.14787929 -1.01721121
v 0.06454555 2.25325916 -1.01721121
v 0.06724937 2.21474258 -1.13869795
v 0.06693127 2.21326100 -1.17523368
v 0.06880803 -4.92937087 -1.17523368
v 0.06901480 -3.63609753 -1.01721121
v 0.06732889 2.21474258 -1.01721121
v 0.06877622 1.98808625 -1.17523368
v 0.06745613 2.15622658 -1.17523368
v 0.06906251 -1.09251167 -1.17523368
v 0.06933289 -2.11690865 -1.13869795
v 0.06946013 -2.11690865 -1.01721121
v 0.06930108 0.69555358 -1.01721121
v 0.06928518 0.69555358 -1.13869795
f 1 2 3
f 1 3 4
f 1 4 9
f 1 9 14
f 1 14 13
f 1 13 20
f 1 20 27
f 1 27 34
f 1 34 39
f 1 39 43
f 1 43 48
f 1 48 54
f 1 54 55
f 1 55 49
f 1 49 44
f 1 44 40
f 1 40 35
f 1 35 29
f 1 29 28
f 1 28 21
f 1 21 15
f 1 15 10
f 1 10 5
f 1 5 6
f 1 6 2
f 2 6 7
f 2 7 3
f 3 8 9
f 3 9 4
f 3 7 11
f 3 11 17
f 3 17 23
f 3 23 22
f 3 22 31
f 3 31 37
f 3 37 41
f 3 41 46
f 3 46 51
f 3 51 50
f 3 50 52
f 3 52 47
f 3 47 42
f 3 42 38
f 3 38 32
f 3 32 26
f 3 26 25
f 3 25 24
f 3 24 18
f 3 18 12
f 3 12 8
f 5 10 11
f 5 11 6
f 6 11 7
f 8 12 13
f 8 13 14
f 8 14 9
f 10 15 16
f 10 16 17
f 10 17 11
f 12 18 19
f 12 19 13
f 13 19 20
f 15 21 22
f 15 22 23
f 15 23 16
f 16 23 17
f 18 24 20
f 18 20 19
f 20 25 26
f 20 26 27
f 20 24 25
f 21 28 22
f 22 28 29
f 22 29 30
f 22 30 31
f 26 32 27
f 27 32 33
f 27 33 34
f 29 35 30
f 30 35 36
f 30 36 31
f 31 36 37
f 32 38 33
f 33 38 39
f 33 39 34
f 35 40 41
f 35 41 36
f 36 41 37
f 38 42 43
f 38 43 39
f 40 44 41
f 41 44 45
f 41 45 46
f 42 47 43
f 43 47 48
f 44 49 45
f 45 49 50
f 45 50 51
f 45 51 46
f 47 52 53
f 47 53 54
f 47 54 48
f 49 55 50
f 50 55 56
f 50 56 52
f 52 56 53
f 53 56 54
f 54 56 55

