# https://github.com/mikedh/trimesh
v -0.09311446 -3.33268087 -1.28575475
v -0.09308262 -3.40872363 -1.36671582
v -0.09309854 -3.40872363 -1.28575475
v -0.09282785 -2.95273334 -1.28575475
v -0.09293931 -2.95266686 -1.29072895
v -0.09306669 -3.18072843 -1.29072895
v -0.09308262 -3.18072843 -1.36671582
v -0.09058282 -3.56067596 -1.41043778
v -0.09301893 -3.48469991 -1.36671582
v -0.09303485 -3.47971449 -1.28575475
v -0.08542401 -2.95266686 -1.28575475
v -0.08994594 -2.95266686 -1.33201608
v -0.08959564 -3.13918413 -1.40852578
v -0.09058282 -3.18072843 -1.41043778
v -0.04958300 -3.48469991 -1.43834096
v -0.04958300 -3.56067596 -1.43616009
v -0.08959564 -3.60301802 -1.40852578
v -0.09300300 -3.48469991 -1.29072895
v -0.09093311 -3.55761835 -1.36895642
v -0.09093311 -3.55781767 -1.28575475
v 0.06477070 -2.95266686 -1.28575475
v -0.04961484 -2.95266686 -1.35089703
v -0.04958300 -3.12702003 -1.42105832
v -0.04958300 -3.18072843 -1.43787789
v -0.04958300 -3.25677119 -1.43834096
v 0.02639804 -3.48469991 -1.43799740
v 0.02639804 -3.56067596 -1.43580159
v 0.02639804 -3.61624579 -1.41916127
v -0.04958300 -3.61644511 -1.41934049
v -0.05165289 -3.63173342 -1.28575475
v -0.08959564 -3.60301802 -1.39578412
v -0.09078982 -3.56267013 -1.28575475
v 0.06832136 -2.95266686 -1.29074387
v 0.06822582 -2.95273334 -1.28575475
v 0.02635027 -2.95266686 -1.35067299
v 0.02639804 -3.12721936 -1.42087906
v 0.02639804 -3.18072843 -1.43751939
v 0.02639804 -3.25677119 -1.43799740
v 0.06720679 -3.56067596 -1.41007928
v 0.06626738 -3.60275210 -1.40828679
v 0.02830871 -3.63140113 -1.28575475
v 0.06949961 -3.18072843 -1.36671582
v 0.06656991 -2.95273334 -1.33179203
v 0.06655399 -2.95266686 -1.33182190
v 0.06832136 -2.95273334 -1.29072895
v 0.06954737 -3.26169001 -1.28575475
v 0.06927670 -3.18072843 -1.29072895
v 0.06626738 -3.13938357 -1.40828679
v 0.06720679 -3.18072843 -1.41007928
v 0.06949961 -3.40872363 -1.36671582
v 0.06943592 -3.48469991 -1.36671582
v 0.06626738 -3.60275210 -1.39630692
v 0.06750932 -3.55728606 -1.36927014
v 0.06750932 -3.55967911 -1.28575475
v 0.06021692 -3.59411086 -1.28575475
v 0.06953145 -3.40872363 -1.28575475
v 0.06945184 -3.48469991 -1.29072895
v 0.06932446 -3.49001738 -1.28575475
v 0.06739787 -3.56173964 -1.28575475
f 1 2 3
f 1 3 10
f 1 10 20
f 1 20 32
f 1 32 30
f 1 30 41
f 1 41 55
f 1 55 59
f 1 59 54
f 1 54 58
f 1 58 56
f 1 56 46
f 1 46 34
f 1 34 21
f 1 21 11
f 1 11 4
f 1 4 5
f 1 5 6
f 1 6 7
f 1 7 2
f 2 8 9
f 2 9 3
f 2 7 14
f 2 14 8
f 3 9 10
f 4 11 5
f 5 11 21
f 5 21 33
f 5 33 44
f 5 44 35
f 5 35 22
f 5 22 12
f 5 12 13
f 5 13 14
f 5 14 7
f 5 7 6
f 8 15 16
f 8 16 17
f 8 17 9
f 8 14 25
f 8 25 15
f 9 18 10
f 9 17 19
f 9 19 20
f 9 20 18
f 10 18 20
f 12 22 13
f 13 23 24
f 13 24 14
f 13 22 23
f 14 24 25
f 15 26 16
f 15 25 38
f 15 38 26
f 16 27 28
f 16 28 29
f 16 29 17
f 16 26 27
f 17 29 30
f 17 30 31
f 17 31 32
f 17 32 20
f 17 20 19
f 21 34 33
f 22 35 23
f 23 36 24
f 23 35 36
f 24 36 37
f 24 37 38
f 24 38 25
f 26 39 27
f 26 38 49
f 26 49 39
f 27 39 40
f 27 40 28
f 28 40 41
f 28 41 30
f 28 30 29
f 30 32 31
f 33 42 43
f 33 43 44
f 33 34 45
f 33 45 46
f 33 46 47
f 33 47 42
f 34 46 45
f 35 44 48
f 35 48 36
f 36 48 37
f 37 49 38
f 37 48 49
f 39 50 51
f 39 51 40
f 39 49 42
f 39 42 50
f 40 52 41
f 40 51 53
f 40 53 54
f 40 54 52
f 41 52 55
f 42 49 43
f 42 47 46
f 42 46 50
f 43 49 48
f 43 48 44
f 46 56 50
f 50 56 51
f 51 56 57
f 51 57 58
f 51 58 54
f 51 54 53
f 52 54 59
f 52 59 55
f 56 58 57

