# https://github.com/mikedh/trimesh
v -0.09308458 -4.16876072 -1.36671967
v -0.09058578 -4.24473564 -1.41043979
v -0.09306867 -4.24473564 -1.36671967
v -0.09306867 -4.24473564 -1.30919322
v -0.09306867 -4.01681065 -1.30919322
v -0.09306867 -4.01681065 -1.36671967
v -0.09058578 -3.94077073 -1.41043979
v -0.04958624 -4.16876072 -1.43835591
v -0.04958624 -4.24473564 -1.43821683
v -0.08958307 -4.28836312 -1.40853065
v -0.09160439 -4.47667999 -1.30919322
v -0.09302092 -3.95924598 -1.30919322
v -0.09300500 -3.94077073 -1.36671967
v -0.09037886 -3.86479558 -1.41004785
v -0.04958624 -3.94077073 -1.43835591
v 0.02639658 -4.24473564 -1.43786283
v 0.02639658 -4.16876072 -1.43798925
v 0.02047584 -4.31630274 -1.41887278
v -0.04368142 -4.31649708 -1.41902448
v -0.08788006 -4.47667999 -1.33354398
v -0.08994914 -4.47667999 -1.33211529
v 0.06757119 -4.47667999 -1.30919322
v -0.09300500 -3.94077073 -1.30919322
v -0.09152482 -3.88981824 -1.30919322
v -0.08931250 -3.82421507 -1.40799963
v -0.04958624 -3.86479558 -1.43658587
v 0.02639658 -3.86479558 -1.43623184
v 0.02639658 -3.94077073 -1.43798925
v 0.06720512 -4.24473564 -1.41008576
v 0.06626608 -4.28803899 -1.40829044
v -0.00880953 -4.36038369 -1.40630545
v 0.06658440 -4.47667999 -1.33186242
v 0.02639658 -4.47667999 -1.35113065
v -0.01441195 -4.36038369 -1.40630545
v -0.04958624 -4.47667999 -1.35138349
v 0.06949703 -4.24473564 -1.36671967
v 0.06906729 -4.30223553 -1.30919322
v -0.09088818 -3.86965755 -1.30919322
v -0.08931250 -3.82421507 -1.39976894
v -0.04958624 -3.81442658 -1.41977043
v 0.02639658 -3.81462115 -1.41959344
v 0.06599551 -3.82440964 -1.40775942
v 0.06699822 -3.86479558 -1.40968119
v 0.06720512 -3.94077073 -1.41008576
v 0.06951294 -4.24473564 -1.30919322
v 0.06949703 -4.01681065 -1.36671967
v -0.04958624 -3.83893054 -1.30919322
v -0.04958624 -3.81442658 -1.38281442
v 0.02639658 -3.81462115 -1.38307995
v 0.06747569 -3.86985212 -1.30919322
v 0.06943336 -3.94077073 -1.36671967
v 0.06599551 -3.82440964 -1.40012294
v 0.06949703 -3.99833540 -1.30919322
v 0.06944927 -3.94077073 -1.30919322
v 0.02639658 -3.83938423 -1.30919322
f 1 2 3
f 1 3 4
f 1 4 5
f 1 5 6
f 1 6 7
f 1 7 2
f 2 8 9
f 2 9 10
f 2 10 11
f 2 11 3
f 2 7 15
f 2 15 8
f 3 11 4
f 4 11 22
f 4 22 37
f 4 37 45
f 4 45 53
f 4 53 54
f 4 54 50
f 4 50 55
f 4 55 47
f 4 47 38
f 4 38 24
f 4 24 23
f 4 23 12
f 4 12 5
f 5 12 6
f 6 12 13
f 6 13 7
f 7 13 14
f 7 14 15
f 8 16 9
f 8 15 28
f 8 28 17
f 8 17 16
f 9 16 18
f 9 18 19
f 9 19 10
f 10 19 20
f 10 20 21
f 10 21 11
f 11 21 20
f 11 20 35
f 11 35 33
f 11 33 32
f 11 32 22
f 12 23 13
f 13 23 24
f 13 24 25
f 13 25 14
f 14 25 26
f 14 26 15
f 15 26 27
f 15 27 28
f 16 29 30
f 16 30 18
f 16 17 29
f 17 28 44
f 17 44 29
f 18 31 19
f 18 30 32
f 18 32 33
f 18 33 31
f 19 31 34
f 19 34 35
f 19 35 20
f 22 32 36
f 22 36 37
f 24 38 25
f 25 38 39
f 25 39 48
f 25 48 40
f 25 40 26
f 26 40 41
f 26 41 27
f 27 41 42
f 27 42 43
f 27 43 28
f 28 43 44
f 29 36 32
f 29 32 30
f 29 44 46
f 29 46 36
f 31 33 35
f 31 35 34
f 36 45 37
f 36 46 45
f 38 47 39
f 39 47 48
f 40 48 49
f 40 49 41
f 41 49 52
f 41 52 42
f 42 50 51
f 42 51 43
f 42 52 50
f 43 51 44
f 44 51 46
f 45 46 53
f 46 51 54
f 46 54 53
f 47 55 49
f 47 49 48
f 49 55 52
f 50 54 51
f 50 52 55

