# https://github.com/mikedh/trimesh
v -0.04749710 2.26340462 -1.17523368
v 0.02426479 2.26321187 -1.17523368
v -0.00560263 2.25518175 -1.25474214
v -0.01767772 2.25518175 -1.25474214
v -0.04563939 2.25980724 -1.20760884
v -0.08774205 2.25364014 -1.17752596
v -0.08775806 2.25364014 -1.17523368
v 0.02240708 2.25967859 -1.20724827
v 0.06274812 2.25415409 -1.17523368
v -0.04959503 2.19241874 -1.41937381
v 0.06627136 2.18111243 -1.40829879
v 0.02639475 2.19222621 -1.41919351
v -0.08958374 2.18136951 -1.40853056
v -0.09043252 2.21393938 -1.17523368
v 0.06444569 2.25351149 -1.17693358
v 0.06444569 2.25351149 -1.17523368
v -0.04959503 2.13948455 -1.43619243
v 0.06720021 2.13948455 -1.41007593
v 0.02639475 2.13948455 -1.43583183
v 0.06457381 2.25184145 -1.17523368
v 0.06667173 2.21226912 -1.20724827
v 0.06694397 2.21374663 -1.17523368
v 0.06944227 2.06348811 -1.36670302
v -0.09059267 2.13948455 -1.41043651
v -0.09301089 2.06348811 -1.36670302
v -0.09097702 2.18214032 -1.17523368
v -0.09301089 2.06348811 -1.29072312
v -0.04959503 2.06348811 -1.43835591
v 0.02639475 2.06348811 -1.43799531
v 0.06950633 1.98742735 -1.36670302
v 0.06720021 1.75950191 -1.41007593
v 0.06745645 2.15657268 -1.17523368
v 0.07000278 1.98742735 -1.21471748
v 0.06944227 2.06348811 -1.29072312
v -0.09307494 1.98742735 -1.36670302
v -0.09059267 1.75950191 -1.41043651
v -0.09358742 1.98742735 -1.21471748
v -0.09229023 1.98864776 -1.17523368
v -0.04959503 1.91149501 -1.43835591
v 0.02639475 1.83549834 -1.43799531
v 0.07001881 1.91149501 -1.21471748
v 0.06950633 1.75950191 -1.36670302
v 0.06627136 1.71780970 -1.40829879
v 0.02639475 1.75950191 -1.43760900
v 0.06880168 1.98884052 -1.17523368
v -0.09307494 1.75950191 -1.36670302
v -0.04959503 1.83549834 -1.43833014
v -0.04959503 1.75950191 -1.43796957
v -0.08958374 1.71755284 -1.40853056
v -0.09357141 1.91149501 -1.21471748
v -0.09229023 1.91033869 -1.17523368
v 0.06880168 1.91014593 -1.17523368
v 0.06724826 1.69731695 -1.17523368
v 0.06828921 1.60712329 -1.29072312
v 0.06950633 1.75950191 -1.29072312
v 0.06657563 1.60712329 -1.33244766
v 0.02639475 1.70476902 -1.42097066
v 0.02639475 1.60712329 -1.35516437
v -0.09294683 1.60712329 -1.29072312
v -0.04959503 1.70457627 -1.42115096
v -0.04959503 1.60712329 -1.35547343
v -0.08995208 1.60712329 -1.33273099
v -0.09116920 1.60712329 -1.21628858
v -0.09086492 1.69635339 -1.17523368
v 0.06455778 1.60712329 -1.17523368
v 0.06687992 1.60712329 -1.21850360
v 0.06691195 1.60712329 -1.21999744
v -0.08836662 1.60712329 -1.17523368
f 1 2 3
f 1 3 4
f 1 4 5
f 1 5 6
f 1 6 7
f 1 7 14
f 1 14 26
f 1 26 38
f 1 38 51
f 1 51 64
f 1 64 68
f 1 68 65
f 1 65 53
f 1 53 52
f 1 52 45
f 1 45 32
f 1 32 22
f 1 22 20
f 1 20 16
f 1 16 9
f 1 9 2
f 2 8 3
f 2 9 8
f 3 10 4
f 3 8 11
f 3 11 12
f 3 12 10
f 4 10 5
f 5 10 13
f 5 13 6
f 6 14 7
f 6 13 14
f 8 9 15
f 8 15 11
f 9 16 15
f 10 12 17
f 10 17 13
f 11 18 19
f 11 19 12
f 11 15 20
f 11 20 21
f 11 21 22
f 11 22 23
f 11 23 18
f 12 19 17
f 13 17 24
f 13 24 25
f 13 25 14
f 14 25 27
f 14 27 26
f 15 16 20
f 17 19 29
f 17 29 28
f 17 28 24
f 18 29 19
f 18 23 30
f 18 30 42
f 18 42 31
f 18 31 40
f 18 40 29
f 20 22 21
f 22 32 33
f 22 33 34
f 22 34 23
f 23 34 33
f 23 33 30
f 24 35 25
f 24 28 39
f 24 39 36
f 24 36 46
f 24 46 35
f 25 35 37
f 25 37 27
f 26 27 37
f 26 37 38
f 28 29 40
f 28 40 39
f 30 33 41
f 30 41 42
f 31 42 43
f 31 43 44
f 31 44 40
f 32 45 33
f 33 45 41
f 35 46 37
f 36 39 47
f 36 47 48
f 36 48 49
f 36 49 46
f 37 50 51
f 37 51 38
f 37 46 50
f 39 40 47
f 40 44 48
f 40 48 47
f 41 45 52
f 41 52 53
f 41 53 54
f 41 54 55
f 41 55 42
f 42 55 54
f 42 54 56
f 42 56 43
f 43 57 44
f 43 56 58
f 43 58 57
f 44 57 48
f 46 49 59
f 46 59 50
f 48 57 60
f 48 60 49
f 49 60 61
f 49 61 62
f 49 62 59
f 50 59 63
f 50 63 64
f 50 64 51
f 53 65 66
f 53 66 67
f 53 67 54
f 54 67 66
f 54 66 65
f 54 65 68
f 54 68 63
f 54 63 59
f 54 59 62
f 54 62 61
f 54 61 58
f 54 58 56
f 57 58 60
f 58 61 60
f 63 68 64

