# https://github.com/mikedh/trimesh
v -0.09355249 -3.63614237 -0.91071789
v -0.09300757 -2.11678967 -1.01718691
v -0.09350442 -5.15624328 -0.91071789
v -0.09347236 -2.26865016 -0.89307632
v -0.09347236 -0.67299319 -0.89307632
v -0.09348839 -0.67299319 -0.91071789
v -0.09257485 -3.63614237 -1.01718691
v -0.09344030 0.77080345 -0.91071789
v -0.09286333 0.69524712 -1.01718691
v -0.09050738 -5.22057824 -0.91071789
v -0.09015478 -5.21758586 -0.89307632
v -0.09295950 -5.15624328 -0.89307632
v -0.09339222 -3.63614237 -0.89307632
v -0.09092408 -5.14876244 -1.01718691
v -0.09324798 0.77080345 -0.89307632
v -0.09340825 0.84635956 -0.91071789
v -0.09124461 2.21459988 -1.01718691
v -0.08952973 -5.21160133 -0.96137056
v -0.08531464 -5.25873038 -0.91071789
v -0.07933658 -5.25274561 -0.89307632
v -0.08507424 -5.17718950 -1.01718691
v -0.09319991 0.84635956 -0.89307632
v -0.09166132 2.21459988 -0.89307632
v -0.09137283 2.21459988 -0.98669082
v -0.09119654 2.29090414 -0.91071789
v -0.09034711 2.33279680 -0.91071789
v -0.08949768 2.33204842 -0.96041072
v -0.09004260 2.25724047 -1.01718691
v -0.08395235 -5.18092981 -1.01718691
v -0.05300431 -5.22805909 -1.01718691
v -0.05992795 -5.23778416 -0.98972828
v -0.03542274 -5.28416528 -0.96743333
v -0.04729871 -5.29164589 -0.91071789
v -0.04332403 -5.28865374 -0.89307632
v -0.09095613 2.29165229 -0.89307632
v -0.09001053 2.33279680 -0.89307632
v -0.04959057 2.35075064 -0.91071789
v -0.08077901 2.30736190 -1.01107554
v -0.08882454 2.27369823 -1.01718691
v -0.05310047 2.34177372 -0.98611978
v -0.03761843 2.33803319 -1.01718691
v 0.02963066 -5.22805909 -1.01718691
v 0.01212922 -5.28416528 -0.96743333
v 0.02400520 -5.29164589 -0.91071789
v 0.02003051 -5.28865374 -0.89307632
v -0.06303718 2.34401795 -0.89307632
v -0.05066437 2.34850641 -0.89307632
v 0.01658472 2.34551425 -0.89307632
v 0.01618404 2.34626218 -0.91071789
v 0.01007777 2.34252165 -0.98669082
v -0.07730116 2.30586582 -1.01718691
v 0.00292975 2.33803319 -1.01718691
v 0.04399080 -5.21384556 -1.01718691
v 0.06200509 -5.25798222 -0.91071789
v 0.04536912 -5.26695914 -0.89307632
v 0.02538351 2.33653688 -0.89307632
v 0.04807767 2.29165229 -0.98669082
v 0.05464873 2.27594246 -1.01718691
v 0.06059472 -5.18018188 -1.01718691
v 0.06630031 -5.21160133 -0.96101821
v 0.06351163 -5.24152446 -0.89307632
v 0.05602704 -5.25274561 -0.89307632
v 0.06726193 -5.21983009 -0.91071789
v 0.06692537 -5.21683771 -0.89307632
v 0.05458462 2.29539260 -0.89307632
v 0.06453735 2.25350016 -1.01718691
v 0.06753439 -5.14801429 -1.01718691
v 0.07006665 -5.15624328 -0.91071789
v 0.06873642 -5.17569343 -0.89307632
v 0.06272630 2.26621739 -0.89307632
v 0.06622019 2.23030948 -1.01718691
v 0.06506625 2.25724047 -0.89307632
v 0.06899284 -3.63614237 -1.01718691
v 0.07009871 -2.21029985 -0.89307632
v 0.06987434 -3.63614237 -0.89307632
v 0.06953776 -5.15624328 -0.89307632
v 0.06944159 -2.11678967 -1.01718691
v 0.07017885 -0.67299319 -0.91071789
v 0.07014678 -0.74854936 -0.89307632
v 0.06734207 2.21459988 -1.01718691
v 0.06787095 2.21459988 -0.89307632
v 0.06929735 0.69524712 -1.01718691
v 0.07006665 0.77080345 -0.91071789
v 0.07014678 -0.67299319 -0.89307632
v 0.07001858 0.84635956 -0.91071789
v 0.06981022 0.84635956 -0.89307632
v 0.06990639 0.75284939 -0.89307632
f 1 2 3
f 1 3 4
f 1 4 5
f 1 5 6
f 1 6 2
f 2 7 3
f 2 6 8
f 2 8 9
f 2 9 17
f 2 17 28
f 2 28 39
f 2 39 51
f 2 51 41
f 2 41 52
f 2 52 58
f 2 58 66
f 2 66 71
f 2 71 80
f 2 80 82
f 2 82 77
f 2 77 73
f 2 73 67
f 2 67 59
f 2 59 53
f 2 53 42
f 2 42 30
f 2 30 29
f 2 29 21
f 2 21 14
f 2 14 7
f 3 10 11
f 3 11 12
f 3 12 13
f 3 13 4
f 3 7 14
f 3 14 10
f 4 13 12
f 4 12 11
f 4 11 20
f 4 20 34
f 4 34 45
f 4 45 55
f 4 55 62
f 4 62 61
f 4 61 64
f 4 64 69
f 4 69 76
f 4 76 75
f 4 75 74
f 4 74 79
f 4 79 84
f 4 84 87
f 4 87 86
f 4 86 81
f 4 81 72
f 4 72 70
f 4 70 65
f 4 65 56
f 4 56 48
f 4 48 47
f 4 47 46
f 4 46 36
f 4 36 35
f 4 35 23
f 4 23 22
f 4 22 15
f 4 15 5
f 5 15 8
f 5 8 6
f 8 15 16
f 8 16 9
f 9 16 17
f 10 14 18
f 10 18 19
f 10 19 11
f 11 19 20
f 14 21 18
f 15 22 16
f 16 22 23
f 16 23 24
f 16 24 17
f 17 24 25
f 17 25 26
f 17 26 27
f 17 27 28
f 18 21 29
f 18 29 19
f 19 29 30
f 19 30 31
f 19 31 32
f 19 32 33
f 19 33 34
f 19 34 20
f 23 35 25
f 23 25 24
f 25 35 26
f 26 36 37
f 26 37 27
f 26 35 36
f 27 38 39
f 27 39 28
f 27 37 40
f 27 40 41
f 27 41 38
f 30 32 31
f 30 42 43
f 30 43 32
f 32 43 44
f 32 44 33
f 33 44 45
f 33 45 34
f 36 46 37
f 37 47 48
f 37 48 49
f 37 49 50
f 37 50 40
f 37 46 47
f 38 41 51
f 38 51 39
f 40 50 41
f 41 50 52
f 42 53 43
f 43 54 44
f 43 53 54
f 44 54 55
f 44 55 45
f 48 56 49
f 49 56 57
f 49 57 50
f 50 57 58
f 50 58 52
f 53 59 60
f 53 60 54
f 54 61 62
f 54 62 55
f 54 60 63
f 54 63 64
f 54 64 61
f 56 65 57
f 57 65 58
f 58 65 66
f 59 67 60
f 60 67 68
f 60 68 63
f 63 68 64
f 64 68 69
f 65 70 66
f 66 70 72
f 66 72 71
f 67 73 68
f 68 74 75
f 68 75 76
f 68 76 69
f 68 73 77
f 68 77 78
f 68 78 79
f 68 79 74
f 71 72 80
f 72 81 80
f 77 82 78
f 78 82 83
f 78 83 84
f 78 84 79
f 80 81 85
f 80 85 82
f 81 86 85
f 82 85 83
f 83 85 87
f 83 87 84
f 85 86 87

