# https://github.com/mikedh/trimesh
v -0.09358433 -1.05264709 -0.68270141
v -0.09358433 -0.97673455 -0.68270141
v -0.09214303 -0.97673455 -0.76512994
v -0.09356832 -1.96464985 -0.68270141
v -0.09058963 -1.96464985 -0.63875362
v -0.09058963 -0.97673455 -0.63875362
v -0.09355230 -0.90067174 -0.68270141
v -0.09118217 -0.72674927 -0.76512994
v -0.09207897 -2.12308911 -0.76512994
v -0.09113412 -2.26243747 -0.76512994
v -0.09227115 -2.04056248 -0.68270141
v -0.08934051 -2.04056248 -0.64129084
v -0.04959268 -1.96464985 -0.61085962
v -0.04959268 -1.73661161 -0.61084453
v -0.04959268 -0.97673455 -0.61084453
v -0.09055760 -0.90067174 -0.63896507
v -0.08954869 -0.85767961 -0.64101897
v -0.09113412 -0.82926875 -0.68732272
v -0.09111811 -0.72674927 -0.76330256
v 0.06776108 -0.72674927 -0.76512994
v 0.05229114 -2.26243747 -0.76512994
v -0.09105405 -2.26243747 -0.76272868
v -0.08793124 -2.07919515 -0.64413007
v -0.04959268 -2.04056248 -0.61851651
v 0.02639580 -2.04056248 -0.61883365
v 0.02639580 -1.96464985 -0.61119188
v 0.02639580 -0.97673455 -0.61119188
v 0.02639580 -0.90067174 -0.61285313
v -0.04959268 -0.90067174 -0.61252088
v -0.04959268 -0.84354932 -0.62943550
v -0.04959268 -0.80551792 -0.66352146
v -0.07303781 -0.72674927 -0.75239867
v 0.06998709 -0.90067174 -0.68270141
v 0.06856180 -0.97673455 -0.76512994
v 0.06774507 -0.72674927 -0.76463156
v 0.06771304 -2.26243747 -0.76491849
v 0.06675217 -2.18562300 -0.76512994
v -0.06970681 -2.26243747 -0.73392854
v -0.04959268 -2.08866540 -0.63543111
v -0.04262641 -2.26243747 -0.70396550
v 0.02639580 -2.08851511 -0.63558213
v 0.06462225 -2.07904486 -0.64431128
v 0.06596747 -2.04056248 -0.64162307
v 0.06720058 -1.96464985 -0.63910097
v 0.06720058 -0.97673455 -0.63910097
v 0.06718456 -0.90067174 -0.63929732
v 0.06623971 -0.85798030 -0.64123042
v 0.02639580 -0.84369972 -0.62960161
v 0.02639580 -0.80581861 -0.66373288
v 0.02639580 -0.72674927 -0.73848942
v -0.04959268 -0.72674927 -0.73827800
v 0.07000311 -0.97673455 -0.68270141
v 0.06868992 -0.97673455 -0.75868123
v 0.06769703 -0.72674927 -0.76348380
v 0.06772905 -0.82956944 -0.68748886
v 0.06849775 -2.11662529 -0.76512994
v 0.06763297 -2.26243747 -0.76294010
v 0.07001912 -1.88858702 -0.68270141
v 0.06952267 -1.96464985 -0.68270141
v 0.06822550 -2.04056248 -0.68270141
v -0.03529179 -2.26243747 -0.70398060
v 0.01942952 -2.26243747 -0.70417692
f 1 2 3
f 1 3 4
f 1 4 5
f 1 5 6
f 1 6 2
f 2 6 7
f 2 7 3
f 3 7 8
f 3 8 20
f 3 20 34
f 3 34 56
f 3 56 37
f 3 37 21
f 3 21 10
f 3 10 9
f 3 9 4
f 4 9 10
f 4 10 11
f 4 11 5
f 5 11 12
f 5 12 13
f 5 13 14
f 5 14 15
f 5 15 6
f 6 15 16
f 6 16 7
f 7 16 17
f 7 17 18
f 7 18 19
f 7 19 8
f 8 19 32
f 8 32 51
f 8 51 50
f 8 50 54
f 8 54 35
f 8 35 20
f 10 21 36
f 10 36 57
f 10 57 62
f 10 62 61
f 10 61 40
f 10 40 38
f 10 38 22
f 10 22 11
f 11 22 12
f 12 22 23
f 12 23 13
f 13 23 24
f 13 24 25
f 13 25 26
f 13 26 14
f 14 26 27
f 14 27 15
f 15 27 28
f 15 28 29
f 15 29 16
f 16 29 17
f 17 30 31
f 17 31 19
f 17 19 18
f 17 29 30
f 19 31 32
f 20 33 34
f 20 35 33
f 21 37 36
f 22 38 23
f 23 39 24
f 23 38 40
f 23 40 39
f 24 39 41
f 24 41 25
f 25 41 42
f 25 42 26
f 26 42 43
f 26 43 44
f 26 44 45
f 26 45 27
f 27 45 46
f 27 46 28
f 28 46 47
f 28 47 48
f 28 48 29
f 29 48 30
f 30 48 31
f 31 48 49
f 31 49 50
f 31 50 51
f 31 51 32
f 33 47 46
f 33 46 45
f 33 45 52
f 33 52 53
f 33 53 34
f 33 35 54
f 33 54 55
f 33 55 47
f 34 53 56
f 36 37 56
f 36 56 58
f 36 58 59
f 36 59 60
f 36 60 57
f 39 40 61
f 39 61 41
f 41 61 62
f 41 62 42
f 42 62 57
f 42 57 43
f 43 57 60
f 43 60 44
f 44 60 59
f 44 59 58
f 44 58 45
f 45 58 52
f 47 55 54
f 47 54 49
f 47 49 48
f 49 54 50
f 52 58 53
f 53 58 56

