# https://github.com/mikedh/trimesh
v -0.09358710 1.07546261 -1.21471268
v -0.09307463 1.07546261 -1.30847366
v -0.09304260 1.05774615 -1.30847366
v -0.09293050 0.99947637 -1.30847366
v -0.09293050 0.99947637 -1.29071006
v -0.09046424 0.87635405 -1.17523368
v -0.09076851 0.90796761 -1.17523368
v -0.09233796 1.07562524 -1.17523368
v -0.09227390 1.11495929 -1.17523368
v -0.09169737 1.37940805 -1.17523368
v -0.09336289 1.15153040 -1.21471268
v -0.09294652 1.60712329 -1.29071006
v -0.09307463 1.30342180 -1.30847366
v -0.09052830 0.92901621 -1.30847366
v -0.09036815 0.87749179 -1.21471268
v -0.07079821 0.77688109 -1.17523368
v -0.09084859 1.59452656 -1.17523368
v -0.09116889 1.60712329 -1.21629079
v -0.09168135 1.60712329 -1.30847366
v -0.09302659 1.36169136 -1.30847366
v -0.04959478 0.90585475 -1.30847366
v -0.05749002 0.77688109 -1.21985134
v -0.08935923 0.88147401 -1.25680014
v -0.06030860 0.77688109 -1.21128256
v 0.04737408 0.77688109 -1.17523368
v -0.08836632 1.60712329 -1.17523368
v 0.06755257 1.60712329 -1.30847366
v 0.02639486 0.90601716 -1.30847366
v 0.03416197 0.77688109 -1.21949921
v 0.04713386 0.77688109 -1.17606839
v 0.06604719 0.88179905 -1.25652625
v 0.06699207 0.87806078 -1.21471268
v 0.06683191 0.87765443 -1.17523368
v 0.06455782 1.60712329 -1.17523368
v 0.06828926 1.60712329 -1.29071006
v 0.06950636 1.30342180 -1.30847366
v 0.05328350 0.92121441 -1.30847366
v 0.06712018 0.92917884 -1.30847366
v 0.06790490 0.94908970 -1.30847366
v 0.06936223 0.99947637 -1.30847366
v 0.06936223 0.99947637 -1.29071006
v 0.07001883 1.07546261 -1.21471268
v 0.06710417 0.89707761 -1.17523368
v 0.06687996 1.60712329 -1.21848191
v 0.06704011 1.59355145 -1.17523368
v 0.06691199 1.60712329 -1.21998176
v 0.06979463 1.15153040 -1.21471268
v 0.06950636 1.30342180 -1.29071006
v 0.06950636 1.07546261 -1.30847366
v 0.06867361 1.15185544 -1.17523368
v 0.06884976 1.07538152 -1.17523368
v 0.06788889 1.37940805 -1.17523368
f 1 2 3
f 1 3 4
f 1 4 5
f 1 5 6
f 1 6 7
f 1 7 8
f 1 8 9
f 1 9 10
f 1 10 11
f 1 11 12
f 1 12 13
f 1 13 2
f 2 13 20
f 2 20 19
f 2 19 27
f 2 27 36
f 2 36 49
f 2 49 40
f 2 40 39
f 2 39 38
f 2 38 37
f 2 37 28
f 2 28 21
f 2 21 14
f 2 14 4
f 2 4 3
f 4 14 15
f 4 15 6
f 4 6 5
f 6 15 16
f 6 16 25
f 6 25 33
f 6 33 43
f 6 43 51
f 6 51 50
f 6 50 52
f 6 52 45
f 6 45 34
f 6 34 26
f 6 26 17
f 6 17 10
f 6 10 9
f 6 9 8
f 6 8 7
f 10 17 11
f 11 17 12
f 12 17 18
f 12 18 26
f 12 26 34
f 12 34 44
f 12 44 46
f 12 46 35
f 12 35 27
f 12 27 19
f 12 19 20
f 12 20 13
f 14 21 22
f 14 22 23
f 14 23 15
f 15 23 16
f 16 24 22
f 16 22 29
f 16 29 30
f 16 30 25
f 16 23 24
f 17 26 18
f 21 28 22
f 22 24 23
f 22 28 29
f 25 30 31
f 25 31 32
f 25 32 33
f 27 35 36
f 28 37 29
f 29 37 38
f 29 38 31
f 29 31 30
f 31 38 32
f 32 38 39
f 32 39 40
f 32 40 41
f 32 41 33
f 33 41 42
f 33 42 43
f 34 45 44
f 35 46 45
f 35 45 47
f 35 47 48
f 35 48 36
f 36 42 49
f 36 48 42
f 40 49 42
f 40 42 41
f 42 47 50
f 42 50 51
f 42 51 43
f 42 48 47
f 44 45 46
f 45 52 47
f 47 52 50

