# https://github.com/mikedh/trimesh
v -0.09358433 -2.57280902 -0.68270141
v -0.09358433 -2.42081342 -0.68270141
v -0.09223912 -2.64880670 -0.76512994
v -0.09356832 -3.48464011 -0.68270141
v -0.09058963 -3.48464011 -0.63875362
v -0.09058963 -2.49681122 -0.63875362
v -0.09058963 -2.42081342 -0.63881404
v -0.08958072 -2.37685955 -0.64080756
v -0.09118217 -2.34878578 -0.68674883
v -0.09105405 -2.26243758 -0.76272868
v -0.09113412 -2.26243758 -0.76512994
v -0.09126224 -2.27264625 -0.76512994
v -0.09132630 -3.56659300 -0.76512994
v -0.09086187 -3.64769513 -0.76512994
v -0.09038145 -3.66683631 -0.76512994
v -0.09118217 -3.56432431 -0.67906176
v -0.08958072 -3.54135493 -0.64073205
v -0.04959268 -3.48464011 -0.61085962
v -0.04959268 -3.33264474 -0.61084453
v -0.04959268 -2.49681122 -0.61084453
v -0.04959268 -2.42081342 -0.61153922
v -0.04959268 -2.36083764 -0.62845385
v -0.04262641 -2.26243758 -0.70396550
v -0.08958072 -2.30086181 -0.71476365
v -0.06970681 -2.26243758 -0.73392854
v 0.05229114 -2.26243758 -0.76512994
v -0.08876399 -3.69987256 -0.76512994
v -0.08958072 -3.61721093 -0.70195690
v -0.08528886 -3.59211466 -0.65130366
v -0.05580628 -3.56432431 -0.62546359
v 0.03244926 -3.56375713 -0.62559949
v 0.02639580 -3.48464011 -0.61119188
v 0.02639580 -2.49681122 -0.61119188
v 0.02639580 -2.42081342 -0.61187148
v 0.02639580 -2.36112123 -0.62861996
v 0.01942952 -2.26243758 -0.70417692
v -0.03529179 -2.26243758 -0.70398060
v 0.06771304 -2.26243758 -0.76491849
v 0.06782514 -2.27051940 -0.76512994
v -0.08612160 -3.71093198 -0.76512994
v -0.07845069 -3.71093198 -0.74037721
v -0.07769801 -3.71093198 -0.73928984
v -0.04062460 -3.71093198 -0.70629125
v -0.03461919 -3.60870379 -0.63520457
v 0.01113405 -3.60870379 -0.63520457
v 0.06180371 -3.59098031 -0.65231552
v 0.06627174 -3.54036238 -0.64097367
v 0.06720058 -3.48464011 -0.63910097
v 0.06720058 -2.49681122 -0.63910097
v 0.06720058 -2.42081342 -0.63916139
v 0.06627174 -2.37714313 -0.64103409
v 0.06627174 -2.30114539 -0.71511103
v 0.06763297 -2.26243758 -0.76294010
v 0.06776108 -2.34906937 -0.68694516
v 0.07000311 -2.42081342 -0.68270141
v 0.06784115 -2.27292978 -0.76512994
v 0.04039242 -3.71093198 -0.76512994
v 0.01715547 -3.71093198 -0.70630637
v 0.05498156 -3.71093198 -0.74193275
v 0.06191581 -3.71093198 -0.76494870
v 0.06627174 -3.61621838 -0.70296873
v 0.06965079 -3.48464011 -0.68270141
v 0.06748884 -3.56375713 -0.67966585
v 0.07001912 -3.40864254 -0.68270141
v 0.06878601 -2.64880670 -0.75868123
v 0.06867391 -2.64880670 -0.76512994
v 0.06700840 -3.66258274 -0.76512994
v 0.06742478 -3.63932955 -0.76512994
v 0.06771304 -3.41105280 -0.76512994
f 1 2 3
f 1 3 4
f 1 4 5
f 1 5 6
f 1 6 2
f 2 6 7
f 2 7 8
f 2 8 9
f 2 9 10
f 2 10 11
f 2 11 12
f 2 12 3
f 3 12 11
f 3 11 26
f 3 26 39
f 3 39 56
f 3 56 66
f 3 66 69
f 3 69 68
f 3 68 67
f 3 67 57
f 3 57 40
f 3 40 27
f 3 27 15
f 3 15 14
f 3 14 13
f 3 13 4
f 4 13 14
f 4 14 15
f 4 15 16
f 4 16 17
f 4 17 5
f 5 17 18
f 5 18 19
f 5 19 20
f 5 20 6
f 6 20 7
f 7 21 8
f 7 20 21
f 8 21 22
f 8 22 23
f 8 23 24
f 8 24 10
f 8 10 9
f 10 25 23
f 10 23 37
f 10 37 36
f 10 36 53
f 10 53 38
f 10 38 26
f 10 26 11
f 10 24 25
f 15 27 16
f 16 27 28
f 16 28 17
f 17 28 29
f 17 29 30
f 17 30 18
f 18 30 31
f 18 31 32
f 18 32 19
f 19 32 33
f 19 33 20
f 20 33 34
f 20 34 21
f 21 34 35
f 21 35 22
f 22 35 36
f 22 36 37
f 22 37 23
f 23 25 24
f 26 38 39
f 27 40 29
f 27 29 28
f 29 40 41
f 29 41 42
f 29 42 43
f 29 43 44
f 29 44 30
f 30 44 45
f 30 45 31
f 31 45 46
f 31 46 47
f 31 47 32
f 32 47 48
f 32 48 49
f 32 49 33
f 33 49 50
f 33 50 34
f 34 50 51
f 34 51 35
f 35 51 36
f 36 52 53
f 36 51 52
f 38 53 54
f 38 54 55
f 38 55 39
f 39 55 56
f 40 57 60
f 40 60 59
f 40 59 58
f 40 58 43
f 40 43 42
f 40 42 41
f 43 58 45
f 43 45 44
f 45 58 46
f 46 58 59
f 46 59 60
f 46 60 61
f 46 61 47
f 47 62 48
f 47 61 63
f 47 63 62
f 48 62 64
f 48 64 49
f 49 55 50
f 49 64 55
f 50 55 51
f 51 55 54
f 51 54 53
f 51 53 52
f 55 64 65
f 55 65 66
f 55 66 56
f 57 67 60
f 60 67 61
f 61 67 63
f 62 68 64
f 62 63 67
f 62 67 68
f 64 68 69
f 64 69 66
f 64 66 65

