# https://github.com/mikedh/trimesh
v -0.09308458 -1.12860460 -1.36672850
v -0.09058576 -1.20463852 -1.41044121
v -0.09306867 -1.20463852 -1.36672850
v -0.09306867 -1.20463852 -1.30307295
v -0.09306867 -0.97666422 -1.36672850
v -0.09058576 -0.90063029 -1.41044121
v -0.04958611 -1.20463852 -1.43834266
v -0.08958306 -1.25766472 -1.40853433
v -0.09205004 -1.43184806 -1.30307295
v -0.04958611 -1.05269814 -1.43835591
v -0.09305275 -1.12860460 -1.30307295
v -0.09297317 -0.97666422 -1.30307295
v -0.09252752 -0.91299456 -1.30307295
v -0.09241611 -0.90063029 -1.36672850
v -0.08958306 -0.85008971 -1.40853433
v -0.04958611 -0.90063029 -1.43725678
v -0.04958611 -0.97666422 -1.43835591
v 0.02639695 -1.20463852 -1.43798512
v 0.03131500 -1.28150100 -1.42462368
v -0.05466332 -1.28207460 -1.42475610
v -0.08337581 -1.30833276 -1.39304089
v -0.08994912 -1.43184806 -1.33211322
v 0.06766718 -1.43184806 -1.30307295
v -0.09241611 -0.90063029 -1.30307295
v -0.09037886 -0.84722168 -1.30307295
v -0.08974222 -0.83606837 -1.30307295
v -0.03037548 -0.78081152 -1.41442713
v -0.05326271 -0.82472383 -1.42312731
v 0.02639695 -0.90063029 -1.43689924
v 0.02993030 -0.82516999 -1.42298164
v 0.02639695 -0.97666422 -1.43798512
v 0.06720561 -1.20463852 -1.41008366
v 0.06626656 -1.25677245 -1.40829596
v 0.05991608 -1.30744049 -1.39207419
v 0.06623473 -1.43184806 -1.33220592
v 0.00925540 -1.32796264 -1.41569840
v -0.03269922 -1.32796264 -1.41569840
v -0.04998401 -1.43184806 -1.35086428
v 0.06784225 -1.41349285 -1.30307295
v 0.06949752 -1.20463852 -1.36672850
v -0.08148180 -0.82720946 -1.30307295
v -0.03037548 -0.78081152 -1.39370300
v 0.00694758 -0.78081152 -1.41442713
v 0.06720561 -0.90063029 -1.41008366
v 0.06626656 -0.85079075 -1.40829596
v 0.02644470 -1.43184806 -1.35095697
v 0.02563298 -1.43184806 -1.35097022
v 0.06905187 -1.26824446 -1.30307295
v 0.06951343 -1.20463852 -1.30307295
v 0.06949752 -0.97666422 -1.36672850
v -0.04960202 -0.81012886 -1.30307295
v 0.00694758 -0.78081152 -1.39370300
v 0.06634615 -0.83638707 -1.30307295
v 0.06884496 -0.90063029 -1.36672850
v 0.06951343 -1.19227425 -1.30307295
v 0.06886087 -0.90063029 -1.30307295
v 0.06940202 -0.97666422 -1.30307295
v 0.06948160 -1.11624033 -1.30307295
v 0.02642878 -0.81032009 -1.30307295
f 1 2 3
f 1 3 4
f 1 4 5
f 1 5 6
f 1 6 2
f 2 7 8
f 2 8 9
f 2 9 3
f 2 6 17
f 2 17 10
f 2 10 7
f 3 9 4
f 4 11 5
f 4 9 23
f 4 23 39
f 4 39 48
f 4 48 49
f 4 49 55
f 4 55 58
f 4 58 57
f 4 57 56
f 4 56 53
f 4 53 59
f 4 59 51
f 4 51 41
f 4 41 26
f 4 26 25
f 4 25 24
f 4 24 13
f 4 13 12
f 4 12 11
f 5 12 13
f 5 13 14
f 5 14 6
f 5 11 12
f 6 14 15
f 6 15 16
f 6 16 17
f 7 18 19
f 7 19 20
f 7 20 8
f 7 10 18
f 8 20 21
f 8 21 22
f 8 22 9
f 9 22 38
f 9 38 47
f 9 47 46
f 9 46 35
f 9 35 23
f 10 17 31
f 10 31 18
f 13 24 14
f 14 24 25
f 14 25 15
f 15 25 26
f 15 26 27
f 15 27 28
f 15 28 16
f 16 29 17
f 16 28 30
f 16 30 29
f 17 29 31
f 18 32 33
f 18 33 19
f 18 31 44
f 18 44 32
f 19 33 34
f 19 34 35
f 19 35 36
f 19 36 20
f 20 36 37
f 20 37 22
f 20 22 21
f 22 37 38
f 23 35 40
f 23 40 39
f 26 41 27
f 27 42 52
f 27 52 43
f 27 43 28
f 27 41 42
f 28 43 30
f 29 44 31
f 29 30 45
f 29 45 44
f 30 43 45
f 32 40 33
f 32 44 50
f 32 50 40
f 33 40 35
f 33 35 34
f 35 46 36
f 36 46 47
f 36 47 37
f 37 47 38
f 39 40 48
f 40 49 48
f 40 50 55
f 40 55 49
f 41 51 42
f 42 51 52
f 43 53 45
f 43 52 53
f 44 45 54
f 44 54 50
f 45 53 54
f 50 54 56
f 50 56 57
f 50 57 58
f 50 58 55
f 51 59 52
f 52 59 53
f 53 56 54

