# https://github.com/mikedh/trimesh
v -3.50316223 2.56351659 -0.93114801
v -3.42050927 2.56351659 -0.93368816
v -3.42050927 2.57355155 -0.93493512
v -3.42050927 2.63534701 -0.94426438
v -3.43092575 2.63534701 -0.94431057
v -3.50401096 2.63957238 -0.95590286
v -3.55849056 2.61844575 -0.96398514
v -3.57968415 2.56457288 -0.95574122
v -3.57535630 2.49115782 -0.94384872
v -3.57535630 2.34644070 -0.94290194
v -3.57535630 -2.34841911 -0.94290194
v -3.50316223 -2.56549500 -0.93119419
v -3.43092575 -2.56549500 -0.93267209
v -3.42065783 -2.56549500 -0.93297229
v -3.42050927 2.50224928 -0.95276232
v -3.42065783 -2.63732542 -0.94354853
v -3.42050927 2.64168496 -0.94791296
v -3.43092575 2.67812842 -0.96941181
v -3.48050478 2.67601563 -0.97197504
v -3.60664814 2.58939652 -0.98691570
v -3.61615259 2.54133346 -0.97174412
v -3.52866257 2.66650860 -0.98742374
v -3.61854980 2.49115782 -0.96901924
v -3.61859200 2.41879926 -0.96890378
v -3.59725006 -0.00125330 -0.95604142
v -3.61859200 -2.42077767 -0.96890378
v -3.61852870 -2.49313623 -0.96906542
v -3.57535630 -2.49313623 -0.94389491
v -3.57974788 -2.56655129 -0.95578740
v -3.55861780 -2.62042416 -0.96400823
v -3.50418062 -2.64207893 -0.95590286
v -3.43092575 -2.63732542 -0.94357162
v -3.42050927 2.49432690 -0.95652635
v -3.42065783 -2.67429703 -0.96571705
v -3.42050927 2.67812842 -0.96938872
v -3.43092575 2.69714226 -1.01307918
v -3.50401096 2.68446636 -1.01213241
v -3.57616261 2.63640330 -1.01125490
v -3.61604622 2.60629779 -1.03506297
v -3.62442634 2.56457288 -1.01183221
v -3.63702774 2.49115782 -1.01307918
v -3.54567687 2.67601563 -1.03559410
v -3.63709147 2.41879926 -1.01307918
v -3.63724003 -2.49313623 -1.01310228
v -3.61615259 -2.54331208 -0.97179031
v -3.60675429 -2.59137493 -0.98659242
v -3.52893838 -2.66901537 -0.98693880
v -3.48078058 -2.67799403 -0.97197504
v -3.43092575 -2.68010683 -0.96941181
v -3.42050927 2.40348243 -1.01307918
v -3.42065783 -2.68010683 -0.96941181
v -3.42050927 2.69661411 -1.01307918
v -3.42050927 2.69661411 -1.08528854
v -3.43092575 2.69661411 -1.08528854
v -3.50396833 2.68446636 -1.08621223
v -3.54567687 2.67601563 -1.06275054
v -3.61604622 2.60629779 -1.06325857
v -3.62440524 2.56457288 -1.08651243
v -3.63696444 2.49115782 -1.08528854
v -3.63702774 2.41879926 -1.08528854
v -3.63715520 -2.49313623 -1.08528854
v -3.62459600 -2.56655129 -1.08672026
v -3.62461710 -2.56655129 -1.01164747
v -3.61613149 -2.60827641 -1.03476278
v -3.57628986 -2.63838171 -1.01083924
v -3.54580412 -2.67799403 -1.03510916
v -3.50418062 -2.68644477 -1.01185530
v -3.43092575 -2.69806438 -1.01310228
v -3.42065783 -2.69859252 -1.01310228
v -3.42050927 2.40506686 -1.08528854
v -3.42065783 -2.69806438 -1.08528854
v -3.42050927 2.67812842 -1.12893283
v -3.43092575 2.67812842 -1.12890974
v -3.48041994 2.67601563 -1.12634650
v -3.52857774 2.66650860 -1.11092090
v -3.57614130 2.63640330 -1.08708973
v -3.60662704 2.58939652 -1.11142893
v -3.61610996 2.54133346 -1.12657742
v -3.61848607 2.49115782 -1.12932540
v -3.61854980 2.41879926 -1.12941776
v -3.61854980 -2.42077767 -1.12941776
v -3.61848607 -2.49313623 -1.12925612
v -3.61610996 -2.54331208 -1.12653124
v -3.60673319 -2.59137493 -1.11175222
v -3.61613149 -2.60827641 -1.06360495
v -3.54580412 -2.67799403 -1.06325857
v -3.50411689 -2.68644477 -1.08651243
v -3.43092575 -2.69806438 -1.08528854
v -3.42050927 2.49432690 -1.14179519
v -3.42065783 -2.68274755 -1.12269793
v -3.42065783 -2.68010683 -1.12890974
v -3.42050927 2.67231862 -1.13251212
v -3.43092575 2.63534701 -1.15387242
v -3.50396833 2.63957238 -1.14239559
v -3.55846924 2.61844575 -1.13440568
v -3.57535630 2.49115782 -1.15435736
v -3.57966305 2.56457288 -1.14258033
v -3.57535630 2.34644070 -1.15532723
v -3.59671976 -0.00125330 -1.14253414
v -3.57535630 -2.34841911 -1.15532723
v -3.57535630 -2.49313623 -1.15431117
v -3.57974788 -2.56655129 -1.14253414
v -3.55857539 -2.62042416 -1.13438259
v -3.52885333 -2.66901537 -1.11140584
v -3.57626854 -2.63838171 -1.08748230
v -3.48067444 -2.67799403 -1.12634650
v -3.43092575 -2.68010683 -1.12890974
v -3.42050927 2.56351659 -1.16451793
v -3.42065783 -2.63732542 -1.15465756
v -3.42050927 2.63534701 -1.15391861
v -3.50316223 2.56351659 -1.16705807
v -3.50316223 -2.56549500 -1.16701189
v -3.50411689 -2.64155079 -1.14239559
v -3.43092575 -2.63732542 -1.15461137
v -3.42065783 -2.57553018 -1.16400990
v -3.42065783 -2.56549500 -1.16523379
v -3.43092575 -2.56549500 -1.16553399
f 1 2 3
f 1 3 4
f 1 4 5
f 1 5 6
f 1 6 7
f 1 7 8
f 1 8 9
f 1 9 10
f 1 10 11
f 1 11 12
f 1 12 13
f 1 13 14
f 1 14 2
f 2 15 33
f 2 33 50
f 2 50 70
f 2 70 89
f 2 89 108
f 2 108 110
f 2 110 92
f 2 92 72
f 2 72 53
f 2 53 52
f 2 52 35
f 2 35 17
f 2 17 4
f 2 4 3
f 2 14 16
f 2 16 15
f 4 17 5
f 5 17 18
f 5 18 19
f 5 19 6
f 6 19 7
f 7 20 21
f 7 21 8
f 7 19 22
f 7 22 20
f 8 21 9
f 9 21 23
f 9 23 10
f 10 23 24
f 10 24 25
f 10 25 11
f 11 26 27
f 11 27 28
f 11 28 12
f 11 25 26
f 12 28 29
f 12 29 30
f 12 30 31
f 12 31 32
f 12 32 16
f 12 16 13
f 13 16 14
f 15 16 33
f 16 32 34
f 16 34 33
f 17 35 18
f 18 35 36
f 18 36 19
f 19 36 37
f 19 37 22
f 20 22 38
f 20 38 39
f 20 39 40
f 20 40 21
f 21 41 23
f 21 40 41
f 22 37 42
f 22 42 38
f 23 41 24
f 24 41 43
f 24 43 44
f 24 44 26
f 24 26 25
f 26 44 27
f 27 44 45
f 27 45 28
f 28 45 29
f 29 45 30
f 30 45 46
f 30 46 47
f 30 47 48
f 30 48 31
f 31 48 32
f 32 48 49
f 32 49 34
f 33 34 50
f 34 49 51
f 34 51 50
f 35 52 36
f 36 52 53
f 36 53 54
f 36 54 55
f 36 55 37
f 37 55 56
f 37 56 42
f 38 42 39
f 39 42 56
f 39 56 57
f 39 57 40
f 40 57 58
f 40 58 41
f 41 59 60
f 41 60 43
f 41 58 59
f 43 60 44
f 44 61 62
f 44 62 63
f 44 63 45
f 44 60 61
f 45 63 46
f 46 63 64
f 46 64 65
f 46 65 47
f 47 66 67
f 47 67 48
f 47 65 66
f 48 67 68
f 48 68 49
f 49 68 69
f 49 69 51
f 50 51 69
f 50 69 71
f 50 71 70
f 53 72 54
f 54 72 73
f 54 73 74
f 54 74 55
f 55 74 75
f 55 75 56
f 56 75 76
f 56 76 57
f 57 76 77
f 57 77 58
f 58 77 78
f 58 78 59
f 59 79 80
f 59 80 60
f 59 78 79
f 60 80 61
f 61 81 82
f 61 82 83
f 61 83 62
f 61 80 81
f 62 84 85
f 62 85 63
f 62 83 84
f 63 85 64
f 64 85 86
f 64 86 66
f 64 66 65
f 66 86 67
f 67 87 88
f 67 88 68
f 67 86 87
f 68 88 69
f 69 88 71
f 70 71 90
f 70 90 91
f 70 91 89
f 71 88 90
f 72 92 73
f 73 92 93
f 73 93 74
f 74 93 94
f 74 94 95
f 74 95 75
f 75 95 77
f 75 77 76
f 77 95 78
f 78 96 79
f 78 95 97
f 78 97 96
f 79 96 98
f 79 98 80
f 80 98 99
f 80 99 81
f 81 99 100
f 81 100 82
f 82 100 101
f 82 101 83
f 83 101 102
f 83 102 103
f 83 103 84
f 84 103 104
f 84 104 105
f 84 105 85
f 85 105 86
f 86 105 104
f 86 104 87
f 87 104 106
f 87 106 88
f 88 106 107
f 88 107 90
f 89 91 109
f 89 109 108
f 90 107 91
f 91 107 109
f 92 110 93
f 93 110 111
f 93 111 94
f 94 111 95
f 95 111 97
f 96 97 111
f 96 111 98
f 98 111 100
f 98 100 99
f 100 112 101
f 100 111 112
f 101 112 102
f 102 112 103
f 103 112 113
f 103 113 106
f 103 106 104
f 106 113 114
f 106 114 107
f 107 114 109
f 108 111 110
f 108 109 115
f 108 115 116
f 108 116 111
f 109 114 112
f 109 112 115
f 111 116 117
f 111 117 112
f 112 117 115
f 112 114 113
f 115 117 116

