# https://github.com/mikedh/trimesh
v -3.50316374 -0.00128611 -0.93496021
v -3.45072846 -0.00128611 -0.96097775
v -3.57538321 -0.00128611 -0.94289511
v -3.50316374 -0.54288000 -0.93496021
v -3.42234539 -0.00128611 -1.01307988
v -3.45072846 -2.34574523 -0.96097775
v -3.42232429 -1.84293490 -1.01307988
v -3.61860965 -0.00128611 -0.96889030
v -3.57538321 -2.34574523 -0.94289511
v -3.50316374 -2.34574523 -0.93498256
v -3.50093511 -2.34574523 -0.93607780
v -3.42236628 -0.00128611 -1.04877577
v -3.44953007 -2.34574523 -0.96319058
v -3.42232429 -2.27643948 -1.01307988
v -3.42240848 -0.00128611 -1.08529867
v -3.63711128 -0.00128611 -1.01307988
v -3.61860965 -2.34574523 -0.96889030
v -3.42287095 -2.34574523 -1.01307988
v -3.42287095 -2.34574523 -1.01614209
v -3.42240848 -2.27643948 -1.08529867
v -3.43643175 -0.00128611 -1.11104799
v -3.63704841 -0.00128611 -1.08529867
v -3.63711128 -2.34574523 -1.01307988
v -3.42295514 -2.34574523 -1.08529867
v -3.45079155 -2.34574523 -1.13740080
v -3.45079155 -0.00128611 -1.13740080
v -3.61856745 -0.00128611 -1.12944355
v -3.63704841 -2.34574523 -1.08529867
v -3.50316374 -2.34574523 -1.16330659
v -3.50316374 -0.00128611 -1.16328424
v -3.50316374 -1.84293490 -1.16330659
v -3.59672299 -0.00128611 -1.14254173
v -3.61856745 -2.34574523 -1.12944355
v -3.57538321 -2.34574523 -1.15532698
v -3.57538321 -0.00128611 -1.15532698
v -3.57721223 -2.34574523 -1.15423174
f 1 2 5
f 1 5 12
f 1 12 15
f 1 15 21
f 1 21 26
f 1 26 30
f 1 30 35
f 1 35 32
f 1 32 27
f 1 27 22
f 1 22 16
f 1 16 8
f 1 8 3
f 1 3 9
f 1 9 4
f 1 4 6
f 1 6 2
f 2 6 14
f 2 14 7
f 2 7 5
f 3 8 17
f 3 17 9
f 4 9 10
f 4 10 11
f 4 11 6
f 5 7 12
f 6 11 10
f 6 10 9
f 6 9 17
f 6 17 23
f 6 23 28
f 6 28 33
f 6 33 36
f 6 36 34
f 6 34 29
f 6 29 25
f 6 25 24
f 6 24 19
f 6 19 18
f 6 18 13
f 6 13 14
f 7 14 20
f 7 20 15
f 7 15 12
f 8 16 23
f 8 23 17
f 13 18 14
f 14 18 19
f 14 19 20
f 15 20 21
f 16 22 28
f 16 28 23
f 19 24 20
f 20 24 25
f 20 25 21
f 21 25 26
f 22 27 33
f 22 33 28
f 25 29 31
f 25 31 26
f 26 31 30
f 27 32 33
f 29 34 35
f 29 35 31
f 30 31 35
f 32 35 36
f 32 36 33
f 34 36 35

