# https://github.com/mikedh/trimesh
v -3.42050927 2.69710824 -1.01307603
v -3.42050927 2.69702233 -1.08529590
v -3.42050927 2.67886907 -0.96939612
v -3.35862661 2.67886907 -0.96932832
v 3.30493856 2.67886907 -0.96932832
v 3.30493856 2.69687894 -1.01307603
v 3.30493856 2.69687894 -1.03018193
v 3.30493856 2.69685030 -1.08529590
v -3.42050927 2.69444125 -1.09160045
v -3.42050927 2.63605278 -0.94426830
v -3.28621078 2.63605278 -0.94336442
v 3.28782221 2.63605278 -0.94336442
v 3.30493856 2.64617623 -0.94951080
v 3.30493856 2.67881180 -1.12899842
v -3.35862661 2.67881180 -1.12899842
v -3.42050927 2.67881180 -1.12893062
v -3.42050927 2.57419424 -0.93493577
v 3.28782221 2.56381286 -0.93473239
v 3.30493856 2.56381286 -0.93489056
v 3.30493856 2.63605278 -0.94354520
v -3.42050927 2.56381286 -0.93369292
v 3.30493856 2.63605278 -1.15466856
v 3.28782221 2.63605278 -1.15482674
v -3.28621078 2.63605278 -1.15482674
v -3.42050927 2.67264588 -1.13254614
v 3.30493856 2.51090176 -0.96067369
v -3.42050927 2.50255652 -0.95276476
v -3.42050927 2.49467010 -0.95651585
v 3.30493856 2.61896076 -1.15672488
v 3.28782221 2.56381286 -1.16352655
v -3.42050927 2.56381286 -1.16449823
v -3.42050927 2.63605278 -1.15390026
v 3.30493856 2.48144948 -1.01307603
v -3.42050927 2.40416215 -1.01307603
v 3.30493856 2.56381286 -1.16334578
v 3.30493856 2.55125172 -1.15740279
v -3.42050927 2.49472737 -1.14181089
v 3.30493856 2.48150675 -1.06821260
v -3.42050927 2.40536657 -1.07130839
v 3.30493856 2.48153539 -1.08529590
v 3.30493856 2.51098788 -1.13769824
v -3.42050927 2.40571062 -1.08529590
v 3.30493856 2.50356027 -1.12529251
f 1 2 9
f 1 9 16
f 1 16 25
f 1 25 32
f 1 32 31
f 1 31 37
f 1 37 42
f 1 42 39
f 1 39 34
f 1 34 28
f 1 28 27
f 1 27 21
f 1 21 17
f 1 17 10
f 1 10 3
f 1 3 4
f 1 4 5
f 1 5 6
f 1 6 7
f 1 7 8
f 1 8 2
f 2 8 9
f 3 10 11
f 3 11 4
f 4 11 12
f 4 12 5
f 5 12 13
f 5 13 20
f 5 20 19
f 5 19 26
f 5 26 33
f 5 33 38
f 5 38 40
f 5 40 43
f 5 43 41
f 5 41 36
f 5 36 35
f 5 35 29
f 5 29 22
f 5 22 14
f 5 14 8
f 5 8 7
f 5 7 6
f 8 14 9
f 9 15 16
f 9 14 15
f 10 17 11
f 11 17 12
f 12 18 19
f 12 19 20
f 12 20 13
f 12 17 21
f 12 21 18
f 14 22 23
f 14 23 24
f 14 24 15
f 15 24 16
f 16 24 25
f 18 26 19
f 18 21 27
f 18 27 28
f 18 28 26
f 22 29 30
f 22 30 23
f 23 30 31
f 23 31 24
f 24 31 32
f 24 32 25
f 26 28 34
f 26 34 33
f 29 35 30
f 30 35 36
f 30 36 37
f 30 37 31
f 33 34 38
f 34 39 40
f 34 40 38
f 36 41 37
f 37 41 42
f 39 42 40
f 40 42 43
f 41 43 42

