# https://github.com/mikedh/trimesh
v 3.30497129 2.48138876 -1.08530958
v 3.30497129 2.48138876 -1.01307935
v 3.30497129 2.50331009 -1.12528097
v 3.42366358 -0.00128600 -1.08530958
v 3.42363107 -0.00128600 -1.04961011
v 3.42359835 -0.00128600 -1.01307935
v 3.30497129 2.51070540 -0.96068473
v 3.30497129 2.51096958 -1.13768111
v 3.43806343 -0.00128600 -1.11170317
v 3.30497129 2.55111479 -1.15740126
v 3.30497129 2.56379240 -1.16335887
v 3.45207141 -0.00128600 -0.96091564
v 3.30497129 2.56379240 -0.93489151
v 3.45213687 -0.00128600 -1.13745020
v 3.30497129 2.63589561 -1.15465337
v 3.50454436 2.56379240 -1.16705351
v 3.50454436 -0.00128600 -1.16333578
v 3.47865065 -0.00128600 -1.15056617
v 3.50454436 -0.00128600 -0.93491460
v 3.50454436 2.56379240 -0.93115069
v 3.30497129 2.63589561 -0.94355083
v 3.30497129 2.67868218 -1.12899871
v 3.36008905 2.67868218 -1.12899871
v 3.43234922 2.67868218 -1.12890634
v 3.43234922 2.63589561 -1.15386826
v 3.50536059 2.64012141 -1.14239178
v 3.55979260 2.61899241 -1.13437903
v 3.58104949 2.56458473 -1.14250724
v 3.57680453 2.49142523 -1.15423772
v 3.57680453 2.34695442 -1.15523066
v 3.57680453 -0.00128600 -1.15523066
v 3.54111528 -0.00128600 -1.15924858
v 3.57680453 -0.00128600 -0.94299663
v 3.57680453 2.34695442 -0.94299663
v 3.57680453 2.49142523 -0.94396647
v 3.58104949 2.56484890 -0.95578933
v 3.55982511 2.61899241 -0.96398681
v 3.50542582 2.64012141 -0.95590478
v 3.43234922 2.63589561 -0.94431285
v 3.30497129 2.64619625 -0.94950844
v 3.30497129 2.69241609 -1.09565457
v 3.43234922 2.69664189 -1.08530958
v 3.48185074 2.67630500 -1.12636627
v 3.60795514 2.58941160 -1.11110279
v 3.61752245 2.54134272 -1.12652791
v 3.53001328 2.66706107 -1.11105661
v 3.61984086 2.49142523 -1.12920653
v 3.61990588 2.41932202 -1.12934508
v 3.59861648 -0.00128600 -1.14213777
v 3.59812666 -0.00128600 -0.95583551
v 3.61993861 2.41932202 -0.96899767
v 3.61990588 2.49142523 -0.96911313
v 3.61755518 2.54134272 -0.97181483
v 3.60798786 2.58941160 -0.98723995
v 3.53011124 2.66706107 -0.98728614
v 3.48194870 2.67656939 -0.97197647
v 3.43234922 2.67868218 -0.96941332
v 3.36008905 2.67868218 -0.96932095
v 3.30497129 2.67868218 -0.96932095
v 3.30497129 2.69664189 -1.08530958
v 3.50542582 2.68449263 -1.01206333
v 3.50536059 2.68449263 -1.08632560
v 3.36008905 2.69690607 -1.01307935
v 3.43234922 2.69664189 -1.01307935
v 3.57755552 2.63668793 -1.08699526
v 3.61735925 2.60631480 -1.06293391
v 3.62584874 2.56458473 -1.08634870
v 3.63845272 2.49142523 -1.08530958
v 3.54715589 2.67656939 -1.06291082
v 3.61990588 -0.00128600 -1.12934508
v 3.61993861 -0.00128600 -0.96899767
v 3.63851817 2.49142523 -1.01307935
v 3.62588147 2.56484890 -1.01204023
v 3.61735925 2.60631480 -1.03540884
v 3.57755552 2.63668793 -1.01134749
v 3.54715589 2.67656939 -1.03545502
v 3.30497129 2.69690607 -1.01307935
v 3.63828952 -0.00128600 -1.08530958
v 3.62921224 -0.00128600 -1.10706178
v 3.63835497 -0.00128600 -1.01307935
f 1 2 7
f 1 7 13
f 1 13 21
f 1 21 40
f 1 40 59
f 1 59 77
f 1 77 60
f 1 60 41
f 1 41 22
f 1 22 15
f 1 15 11
f 1 11 10
f 1 10 8
f 1 8 3
f 1 3 4
f 1 4 5
f 1 5 6
f 1 6 2
f 2 6 7
f 3 8 4
f 4 9 14
f 4 14 18
f 4 18 17
f 4 17 32
f 4 32 31
f 4 31 49
f 4 49 70
f 4 70 79
f 4 79 78
f 4 78 80
f 4 80 71
f 4 71 50
f 4 50 33
f 4 33 19
f 4 19 12
f 4 12 6
f 4 6 5
f 4 8 10
f 4 10 11
f 4 11 9
f 6 12 13
f 6 13 7
f 9 11 14
f 11 15 16
f 11 16 17
f 11 17 18
f 11 18 14
f 12 19 13
f 13 20 21
f 13 19 20
f 15 22 23
f 15 23 24
f 15 24 25
f 15 25 16
f 16 25 26
f 16 26 27
f 16 27 28
f 16 28 29
f 16 29 30
f 16 30 31
f 16 31 32
f 16 32 17
f 19 33 20
f 20 34 35
f 20 35 36
f 20 36 37
f 20 37 38
f 20 38 39
f 20 39 21
f 20 33 34
f 21 39 40
f 22 41 23
f 23 41 42
f 23 42 24
f 24 42 43
f 24 43 25
f 25 43 26
f 26 43 27
f 27 44 45
f 27 45 28
f 27 43 46
f 27 46 44
f 28 45 29
f 29 47 30
f 29 45 47
f 30 47 48
f 30 48 49
f 30 49 31
f 33 50 34
f 34 51 52
f 34 52 35
f 34 50 51
f 35 52 53
f 35 53 36
f 36 53 37
f 37 53 54
f 37 54 55
f 37 55 56
f 37 56 38
f 38 56 39
f 39 56 57
f 39 57 40
f 40 57 58
f 40 58 59
f 41 60 42
f 42 61 62
f 42 62 43
f 42 60 77
f 42 77 63
f 42 63 64
f 42 64 61
f 43 62 46
f 44 46 65
f 44 65 66
f 44 66 67
f 44 67 45
f 45 67 68
f 45 68 47
f 46 62 69
f 46 69 65
f 47 68 48
f 48 68 70
f 48 70 49
f 50 71 51
f 51 72 52
f 51 71 72
f 52 72 53
f 53 73 54
f 53 72 73
f 54 73 74
f 54 74 75
f 54 75 55
f 55 75 76
f 55 76 61
f 55 61 56
f 56 61 64
f 56 64 57
f 57 64 63
f 57 63 58
f 58 63 77
f 58 77 59
f 61 69 62
f 61 76 69
f 65 69 66
f 66 74 73
f 66 73 67
f 66 69 76
f 66 76 74
f 67 73 68
f 68 73 72
f 68 72 80
f 68 80 78
f 68 78 79
f 68 79 70
f 71 80 72
f 74 76 75

