# https://github.com/mikedh/trimesh
v 3.35631862 -2.69857788 -1.01684532
v 3.43234944 -2.69884185 -1.01308160
v 3.35631862 -2.69857788 -1.01308160
v 3.35631862 -2.69831392 -1.08530802
v 3.43234944 -2.69857788 -1.08530802
v 3.35631862 -2.68141459 -0.97161144
v 3.50531602 -2.68643142 -1.08618545
v 3.50537114 -2.68643142 -1.01220417
v 3.48184966 -2.67824573 -0.97198089
v 3.43234944 -2.68035830 -0.96941786
v 3.35631862 -2.69752159 -1.08759396
v 3.35631862 -2.68035830 -1.12899484
v 3.36010090 -2.68035830 -1.12899484
v 3.43234944 -2.68035830 -1.12890248
v 3.48176677 -2.67824573 -1.12636255
v 3.36010090 -2.68035830 -0.96932551
v 3.35631862 -2.68035830 -0.96932551
v 3.52991423 -2.66873999 -1.11084588
v 3.54705836 -2.67798176 -1.06267954
v 3.54705836 -2.67798176 -1.03568699
v 3.52999713 -2.66873999 -0.98752065
v 3.55986839 -2.62068253 -0.96399165
v 3.50537114 -2.64180657 -0.95591005
v 3.43234944 -2.63758185 -0.94431872
v 3.35631862 -2.63995839 -0.94542705
v 3.35631862 -2.67824573 -1.13033408
v 3.35631862 -2.63758185 -1.15411708
v 3.43234944 -2.63758185 -1.15386309
v 3.50531602 -2.64180657 -1.14238721
v 3.55984061 -2.62041856 -1.13437488
v 3.57753700 -2.63837396 -1.08699361
v 3.60798808 -2.59110860 -1.11128459
v 3.61742987 -2.60800792 -1.06311825
v 3.61742987 -2.60800792 -1.03522519
v 3.57753700 -2.63837396 -1.01137292
v 3.60801564 -2.59137257 -0.98705884
v 3.61754010 -2.54305113 -0.97179616
v 3.58109837 -2.56655172 -0.95579459
v 3.50457063 -2.56549565 -0.93115725
v 3.35631862 -2.63758185 -0.94406473
v 3.35631862 -2.63388506 -1.15457888
v 3.50457063 -2.56549565 -1.16704764
v 3.58107081 -2.56655172 -1.14252575
v 3.61748499 -2.54305113 -1.12654728
v 3.62571224 -2.56655172 -1.08643944
v 3.62573980 -2.56655172 -1.01192708
v 3.63827359 -2.49314549 -1.01308160
v 3.61988693 -2.49314549 -0.96909460
v 3.57679161 -2.49314549 -0.94394928
v 3.35631862 -2.56549565 -0.93540588
v 3.57679161 -2.34870869 -0.94300258
v 3.57679161 -0.00128600 -0.94300258
v 3.50457063 -0.00128600 -0.93492098
v 3.35631862 -2.56549565 -1.16282211
v 3.57679161 -2.34870869 -1.15522541
v 3.57679161 -2.49314549 -1.15425562
v 3.50457063 -0.00128600 -1.16335319
v 3.54109526 -0.00128600 -1.15924312
v 3.57679161 -0.00128600 -1.15522541
v 3.61983182 -2.49314549 -1.12922575
v 3.63821804 -2.49314549 -1.08530802
v 3.63835626 -2.42079511 -1.01308160
v 3.61994205 -2.42079511 -0.96897915
v 3.35631862 -2.51215696 -0.96068974
v 3.45206129 -0.00128600 -0.96092064
v 3.42357036 -0.00128600 -1.01308160
v 3.61994205 -0.00128600 -0.96897915
v 3.35631862 -2.56259096 -1.16148288
v 3.42365325 -0.00128600 -1.08530802
v 3.43806429 -0.00128600 -1.11170022
v 3.45214397 -0.00128600 -1.13746898
v 3.61988693 -2.42079511 -1.12934120
v 3.59860162 -0.00128600 -1.14213322
v 3.63830115 -2.42079511 -1.08530802
v 3.63835626 -0.00128600 -1.01308160
v 3.35631862 -2.48258325 -1.01035695
v 3.35631862 -2.48099881 -1.08530802
v 3.35631862 -2.48099881 -1.01308160
v 3.35631862 -2.51242114 -1.13769988
v 3.61988693 -0.00128600 -1.12934120
v 3.63830115 -0.00128600 -1.08530802
f 1 2 3
f 1 3 6
f 1 6 17
f 1 17 25
f 1 25 40
f 1 40 50
f 1 50 64
f 1 64 76
f 1 76 78
f 1 78 77
f 1 77 79
f 1 79 68
f 1 68 54
f 1 54 41
f 1 41 27
f 1 27 26
f 1 26 12
f 1 12 11
f 1 11 4
f 1 4 5
f 1 5 2
f 2 6 3
f 2 5 7
f 2 7 8
f 2 8 9
f 2 9 10
f 2 10 6
f 4 11 5
f 5 11 12
f 5 12 13
f 5 13 14
f 5 14 15
f 5 15 7
f 6 16 17
f 6 10 16
f 7 15 18
f 7 18 19
f 7 19 8
f 8 19 20
f 8 20 21
f 8 21 9
f 9 21 22
f 9 22 23
f 9 23 24
f 9 24 10
f 10 25 16
f 10 24 25
f 12 26 13
f 13 26 14
f 14 26 27
f 14 27 28
f 14 28 15
f 15 29 30
f 15 30 18
f 15 28 29
f 16 25 17
f 18 31 19
f 18 30 32
f 18 32 31
f 19 31 33
f 19 33 34
f 19 34 20
f 20 34 35
f 20 35 21
f 21 35 36
f 21 36 22
f 22 36 37
f 22 37 38
f 22 38 39
f 22 39 23
f 23 39 24
f 24 39 40
f 24 40 25
f 27 41 42
f 27 42 28
f 28 42 29
f 29 42 30
f 30 42 43
f 30 43 44
f 30 44 32
f 31 32 33
f 32 45 33
f 32 44 45
f 33 45 46
f 33 46 34
f 34 46 36
f 34 36 35
f 36 46 37
f 37 46 47
f 37 47 48
f 37 48 49
f 37 49 38
f 38 49 39
f 39 50 40
f 39 49 51
f 39 51 52
f 39 52 53
f 39 53 50
f 41 54 42
f 42 55 56
f 42 56 43
f 42 54 57
f 42 57 58
f 42 58 59
f 42 59 55
f 43 56 44
f 44 56 60
f 44 60 61
f 44 61 45
f 45 61 47
f 45 47 46
f 47 61 74
f 47 74 62
f 47 62 63
f 47 63 48
f 48 63 51
f 48 51 49
f 50 53 65
f 50 65 66
f 50 66 64
f 51 63 67
f 51 67 52
f 52 67 75
f 52 75 81
f 52 81 80
f 52 80 73
f 52 73 59
f 52 59 58
f 52 58 57
f 52 57 71
f 52 71 70
f 52 70 69
f 52 69 66
f 52 66 65
f 52 65 53
f 54 68 69
f 54 69 70
f 54 70 71
f 54 71 57
f 55 72 60
f 55 60 56
f 55 59 73
f 55 73 72
f 60 72 61
f 61 72 74
f 62 74 81
f 62 81 75
f 62 75 67
f 62 67 63
f 64 66 76
f 66 69 77
f 66 77 78
f 66 78 76
f 68 79 69
f 69 79 77
f 72 73 80
f 72 80 81
f 72 81 74

