# https://github.com/mikedh/trimesh
v 3.50452929 -2.56555572 -1.16704764
v 3.50529169 -2.64195233 -1.14238721
v 3.43236580 -2.63776098 -1.15386309
v 3.28786549 -2.63776098 -1.15480979
v 3.28422618 -2.63776098 -1.15480979
v 3.28422618 -2.63413589 -1.15527159
v 3.28422618 -2.56557854 -1.16351483
v 3.50452929 -2.46738677 -1.16397663
v 3.57676211 -2.46738677 -1.15434798
v 3.57676211 -2.49332807 -1.15425562
v 3.58106004 -2.56662062 -1.14252575
v 3.55981306 -2.62065561 -1.13437488
v 3.48175708 -2.67831549 -1.12636255
v 3.43236580 -2.68051311 -1.12890248
v 3.36013298 -2.68051311 -1.12899484
v 3.28422618 -2.68051311 -1.12899484
v 3.28422618 -2.56290509 -1.16222177
v 3.43960975 -2.46738677 -1.14072471
v 3.28422618 -2.51278974 -1.13767679
v 3.60438666 -2.46738677 -1.13830023
v 3.61981072 -2.49332807 -1.12922575
v 3.61745355 -2.54319410 -1.12654728
v 3.60795664 -2.59133855 -1.11126151
v 3.52986622 -2.66879985 -1.11084588
v 3.50529169 -2.68651690 -1.08618545
v 3.43236580 -2.69875120 -1.08530802
v 3.28422618 -2.69854731 -1.08528493
v 3.40709820 -2.46738677 -1.08530802
v 3.28422618 -2.51133966 -1.13506759
v 3.28422618 -2.48394850 -1.08528493
v 3.61984516 -2.46738677 -1.12927193
v 3.63166457 -2.46738677 -1.10110178
v 3.63821546 -2.49332807 -1.08530802
v 3.62570276 -2.56662062 -1.08643944
v 3.57752451 -2.63850852 -1.08699361
v 3.61741910 -2.60819459 -1.06311825
v 3.54705793 -2.67817941 -1.06267954
v 3.50536102 -2.68651690 -1.01220417
v 3.43236580 -2.69884185 -1.01308160
v 3.28422618 -2.69859252 -1.01670677
v 3.40702887 -2.46738677 -1.01308160
v 3.28422618 -2.48392568 -1.08168284
v 3.28422618 -2.48385786 -1.01310469
v 3.63824990 -2.46738677 -1.08530802
v 3.63828478 -2.49332807 -1.01308160
v 3.62573764 -2.56664323 -1.01192708
v 3.61741910 -2.60819459 -1.03522519
v 3.54705793 -2.67817941 -1.03568699
v 3.52997021 -2.66882245 -0.98752065
v 3.48182641 -2.67836070 -0.97198089
v 3.43236580 -2.68055832 -0.96941786
v 3.36013298 -2.68055832 -0.96932551
v 3.28422618 -2.68055832 -0.96932551
v 3.28422618 -2.68146454 -0.97151908
v 3.28422618 -2.69859252 -1.01310469
v 3.43957509 -2.46738677 -0.95761873
v 3.28422618 -2.51269910 -0.96068974
v 3.63828478 -2.46738677 -1.01308160
v 3.61988004 -2.46738677 -0.96904842
v 3.61988004 -2.49332807 -0.96909460
v 3.61752288 -2.54328474 -0.97179616
v 3.60799131 -2.59142919 -0.98705884
v 3.57752451 -2.63850852 -1.01137292
v 3.55984772 -2.62067822 -0.96399165
v 3.50536102 -2.64197494 -0.95591005
v 3.43236580 -2.63776098 -0.94431872
v 3.28786549 -2.63776098 -0.94339511
v 3.28422618 -2.63991318 -0.94468816
v 3.45870777 -2.46738677 -0.94849806
v 3.28422618 -2.56557854 -0.93473625
v 3.50452929 -2.46738677 -0.93422826
v 3.57676211 -2.46738677 -0.94385692
v 3.57676211 -2.49332807 -0.94394928
v 3.58109449 -2.56664323 -0.95579459
v 3.50452929 -2.56555572 -0.93115725
v 3.28422618 -2.63776098 -0.94339511
v 3.53045530 -2.46738677 -0.93713764
f 1 2 3
f 1 3 4
f 1 4 5
f 1 5 6
f 1 6 7
f 1 7 8
f 1 8 9
f 1 9 10
f 1 10 11
f 1 11 12
f 1 12 2
f 2 13 3
f 2 12 13
f 3 13 14
f 3 14 4
f 4 14 15
f 4 15 16
f 4 16 5
f 5 16 27
f 5 27 40
f 5 40 55
f 5 55 54
f 5 54 53
f 5 53 68
f 5 68 76
f 5 76 70
f 5 70 57
f 5 57 43
f 5 43 42
f 5 42 30
f 5 30 29
f 5 29 19
f 5 19 17
f 5 17 7
f 5 7 6
f 7 17 8
f 8 18 28
f 8 28 41
f 8 41 56
f 8 56 69
f 8 69 71
f 8 71 77
f 8 77 72
f 8 72 59
f 8 59 58
f 8 58 44
f 8 44 32
f 8 32 31
f 8 31 20
f 8 20 9
f 8 17 19
f 8 19 18
f 9 20 10
f 10 20 21
f 10 21 22
f 10 22 11
f 11 22 12
f 12 22 23
f 12 23 24
f 12 24 13
f 13 24 25
f 13 25 26
f 13 26 14
f 14 26 15
f 15 26 16
f 16 26 27
f 18 19 29
f 18 29 30
f 18 30 28
f 20 31 21
f 21 31 32
f 21 32 33
f 21 33 22
f 22 33 34
f 22 34 23
f 23 35 24
f 23 34 36
f 23 36 35
f 24 35 37
f 24 37 25
f 25 38 39
f 25 39 26
f 25 37 38
f 26 39 27
f 27 39 40
f 28 30 42
f 28 42 43
f 28 43 41
f 32 44 33
f 33 44 45
f 33 45 34
f 34 45 46
f 34 46 36
f 35 36 37
f 36 46 47
f 36 47 48
f 36 48 37
f 37 48 38
f 38 48 49
f 38 49 50
f 38 50 39
f 39 50 51
f 39 51 52
f 39 52 53
f 39 53 54
f 39 54 55
f 39 55 40
f 41 43 56
f 43 57 56
f 44 58 45
f 45 58 59
f 45 59 60
f 45 60 61
f 45 61 46
f 46 61 62
f 46 62 47
f 47 62 63
f 47 63 48
f 48 63 49
f 49 63 62
f 49 62 64
f 49 64 50
f 50 64 65
f 50 65 66
f 50 66 51
f 51 66 67
f 51 67 68
f 51 68 52
f 52 68 53
f 56 57 69
f 57 70 71
f 57 71 69
f 59 72 60
f 60 72 73
f 60 73 61
f 61 73 74
f 61 74 64
f 61 64 62
f 64 74 75
f 64 75 65
f 65 75 66
f 66 75 67
f 67 76 68
f 67 75 76
f 70 76 75
f 70 75 71
f 71 75 77
f 72 75 73
f 72 77 75
f 73 75 74

