# https://github.com/mikedh/trimesh
v 3.50457300 -2.46738677 -1.16399455
v 3.43960631 -2.46738677 -1.14071600
v 3.50457300 -2.34627832 -1.16334230
v 3.57427254 -2.34627832 -1.15551531
v 3.57680884 -2.34627832 -1.15522292
v 3.57680884 -2.34881548 -1.15522292
v 3.57680884 -2.46738677 -1.15434576
v 3.40706612 -2.46738677 -1.08529727
v 3.45212868 -2.34627832 -1.13745475
v 3.50273881 -2.34627832 -1.16244265
v 3.61990114 -2.34627832 -1.12935785
v 3.61990114 -2.42104185 -1.12935785
v 3.61985593 -2.46738677 -1.12926789
v 3.60441229 -2.46738677 -1.13828693
v 3.40704351 -2.46738677 -1.01307751
v 3.42411745 -2.34627832 -1.01307751
v 3.42418527 -2.34627832 -1.08529727
v 3.45113225 -2.34627832 -1.13563295
v 3.63765437 -2.34627832 -1.08684918
v 3.63828823 -2.42104185 -1.08529727
v 3.63826584 -2.46738677 -1.08529727
v 3.63165338 -2.46738677 -1.10110870
v 3.43956088 -2.46738677 -0.95761380
v 3.45206065 -2.34627832 -0.96092003
v 3.63828823 -2.34627832 -1.08529727
v 3.63833344 -2.34627832 -1.01561903
v 3.63833344 -2.42104185 -1.01307751
v 3.63831105 -2.46738677 -1.01307751
v 3.45867289 -2.46738677 -0.94848232
v 3.50457300 -2.34627832 -0.93492003
v 3.45391744 -2.34627832 -0.95999790
v 3.63833344 -2.34627832 -1.01307751
v 3.62060304 -2.34627832 -0.97054634
v 3.61994636 -2.42104185 -0.96899444
v 3.61990114 -2.46738677 -0.96906191
v 3.50457300 -2.46738677 -0.93422279
v 3.57680884 -2.34627832 -0.94299442
v 3.61994636 -2.34627832 -0.96899444
v 3.57832588 -2.34627832 -0.94389408
v 3.57680884 -2.34881548 -0.94299442
v 3.57680884 -2.46738677 -0.94387158
v 3.53045551 -2.46738677 -0.93712417
f 1 2 3
f 1 3 4
f 1 4 5
f 1 5 6
f 1 6 7
f 1 7 14
f 1 14 13
f 1 13 22
f 1 22 21
f 1 21 28
f 1 28 35
f 1 35 41
f 1 41 42
f 1 42 36
f 1 36 29
f 1 29 23
f 1 23 15
f 1 15 8
f 1 8 2
f 2 8 9
f 2 9 10
f 2 10 3
f 3 10 9
f 3 9 18
f 3 18 17
f 3 17 16
f 3 16 24
f 3 24 31
f 3 31 30
f 3 30 37
f 3 37 39
f 3 39 38
f 3 38 33
f 3 33 32
f 3 32 26
f 3 26 25
f 3 25 19
f 3 19 11
f 3 11 5
f 3 5 4
f 5 11 12
f 5 12 6
f 6 12 13
f 6 13 14
f 6 14 7
f 8 15 16
f 8 16 17
f 8 17 18
f 8 18 9
f 11 19 12
f 12 19 20
f 12 20 21
f 12 21 22
f 12 22 13
f 15 23 24
f 15 24 16
f 19 25 20
f 20 25 26
f 20 26 27
f 20 27 28
f 20 28 21
f 23 29 30
f 23 30 31
f 23 31 24
f 26 32 27
f 27 32 33
f 27 33 34
f 27 34 28
f 28 34 35
f 29 36 30
f 30 36 37
f 33 38 34
f 34 38 39
f 34 39 35
f 35 39 40
f 35 40 41
f 36 42 37
f 37 40 39
f 37 42 40
f 40 42 41

