# https://github.com/mikedh/trimesh
v 3.50450066 2.56385376 -1.16705351
v 3.53052979 2.46564412 -1.16107281
v 3.50450066 2.46564412 -1.16398234
v 3.03001935 2.56385376 -1.16352051
v 3.03001935 2.60492177 -1.15857893
v 3.03001935 2.63605106 -1.15481501
v 3.28786893 2.63605106 -1.15481501
v 3.43231003 2.63605106 -1.15386826
v 3.50533453 2.64026200 -1.14239178
v 3.55977538 2.61898078 -1.13435594
v 3.58103959 2.56482737 -1.14250724
v 3.57675092 2.49161147 -1.15423772
v 3.57675092 2.46564412 -1.15433009
v 3.45875600 2.46564412 -1.14982725
v 3.03001935 2.48221618 -1.08528649
v 3.03001935 2.51105872 -1.13768111
v 3.03001935 2.67879414 -1.12899871
v 3.30496354 2.67879414 -1.12899871
v 3.36005977 2.67879414 -1.12897561
v 3.43231003 2.67874893 -1.12888325
v 3.48180703 2.67653021 -1.12634318
v 3.60790260 2.58950439 -1.11110279
v 3.61749231 2.54139547 -1.12650482
v 3.52999390 2.66715753 -1.11105661
v 3.61981545 2.49161147 -1.12918344
v 3.61981545 2.46564412 -1.12922962
v 3.43957681 2.46564412 -1.14072919
v 3.03001935 2.48214815 -1.01310244
v 3.40705514 2.46564412 -1.08528649
v 3.03001935 2.69683781 -1.08528649
v 3.30496354 2.69258166 -1.09563148
v 3.36005977 2.69683781 -1.08528649
v 3.43231003 2.69679260 -1.08528649
v 3.50533453 2.68463516 -1.08630251
v 3.57752537 2.63677535 -1.08697217
v 3.61731360 2.60639338 -1.06293391
v 3.62583109 2.56482737 -1.08632560
v 3.63839890 2.49161147 -1.08528649
v 3.54714814 2.67657563 -1.06291082
v 3.63833947 2.46564412 -1.08528649
v 3.03001935 2.51096807 -0.96068473
v 3.40705514 2.46564412 -1.01310244
v 3.43957681 2.46564412 -0.95761356
v 3.50450066 2.46564412 -0.93422186
v 3.03001935 2.69688303 -1.01310244
v 3.30502318 2.69690585 -1.01310244
v 3.36005977 2.69690585 -1.01310244
v 3.43231003 2.69686042 -1.01310244
v 3.50539417 2.68465777 -1.01208642
v 3.61731360 2.60639338 -1.03540884
v 3.62583109 2.56487259 -1.01206333
v 3.63851817 2.49161147 -1.01310244
v 3.63839890 2.46564412 -1.05930854
v 3.54714814 2.67657563 -1.03545502
v 3.03001935 2.56385376 -0.93472987
v 3.57675092 2.46564412 -0.94387411
v 3.50450066 2.56385376 -0.93115069
v 3.03001935 2.68662738 -0.98818671
v 3.36005977 2.67883957 -0.96934404
v 3.30502318 2.68311834 -0.97968903
v 3.30496354 2.67883957 -0.96932095
v 3.43231003 2.67879414 -0.96943641
v 3.48192631 2.67655281 -0.97199957
v 3.53005332 2.66718014 -0.98728614
v 3.57752537 2.63679817 -1.01137058
v 3.60796224 2.58959482 -0.98723995
v 3.61755173 2.54148611 -0.97183792
v 3.63839890 2.46564412 -1.01310244
v 3.61987488 2.49161147 -0.96913622
v 3.61987488 2.46564412 -0.96909004
v 3.63178773 2.46564412 -0.99721549
v 3.03001935 2.63605106 -0.94338919
v 3.60438839 2.46564412 -0.95996889
v 3.57675092 2.49161147 -0.94396647
v 3.50539417 2.64028461 -0.95590478
v 3.43231003 2.63605106 -0.94431285
v 3.28786893 2.63605106 -0.94338919
v 3.58103959 2.56487259 -0.95578933
v 3.55977538 2.61902621 -0.96400990
v 3.03001935 2.67883957 -0.96932095
v 3.30502318 2.64617085 -0.94950844
v 3.03001935 2.65450209 -0.95456548
f 1 2 3
f 1 3 4
f 1 4 5
f 1 5 6
f 1 6 7
f 1 7 8
f 1 8 9
f 1 9 10
f 1 10 11
f 1 11 12
f 1 12 13
f 1 13 2
f 2 13 26
f 2 26 40
f 2 40 53
f 2 53 68
f 2 68 71
f 2 71 70
f 2 70 73
f 2 73 56
f 2 56 44
f 2 44 43
f 2 43 42
f 2 42 29
f 2 29 27
f 2 27 14
f 2 14 3
f 3 14 15
f 3 15 16
f 3 16 4
f 4 16 15
f 4 15 28
f 4 28 41
f 4 41 55
f 4 55 72
f 4 72 82
f 4 82 80
f 4 80 58
f 4 58 45
f 4 45 30
f 4 30 17
f 4 17 6
f 4 6 5
f 6 17 18
f 6 18 7
f 7 18 19
f 7 19 20
f 7 20 8
f 8 20 21
f 8 21 9
f 9 21 10
f 10 22 23
f 10 23 11
f 10 21 24
f 10 24 22
f 11 23 12
f 12 23 25
f 12 25 13
f 13 25 26
f 14 27 15
f 15 27 29
f 15 29 28
f 17 30 31
f 17 31 18
f 18 31 19
f 19 31 32
f 19 32 33
f 19 33 20
f 20 33 21
f 21 34 24
f 21 33 34
f 22 24 35
f 22 35 36
f 22 36 37
f 22 37 23
f 23 37 38
f 23 38 25
f 24 34 39
f 24 39 35
f 25 38 26
f 26 38 40
f 28 29 42
f 28 42 43
f 28 43 44
f 28 44 41
f 30 45 46
f 30 46 47
f 30 47 32
f 30 32 31
f 32 47 48
f 32 48 33
f 33 48 34
f 34 49 39
f 34 48 49
f 35 39 36
f 36 50 51
f 36 51 37
f 36 39 54
f 36 54 50
f 37 51 52
f 37 52 38
f 38 52 53
f 38 53 40
f 39 49 54
f 41 44 55
f 44 56 57
f 44 57 55
f 45 58 46
f 46 58 47
f 47 59 48
f 47 58 60
f 47 60 61
f 47 61 59
f 48 59 62
f 48 62 63
f 48 63 49
f 49 63 64
f 49 64 54
f 50 54 65
f 50 65 66
f 50 66 51
f 51 66 67
f 51 67 52
f 52 68 53
f 52 67 69
f 52 69 70
f 52 70 71
f 52 71 68
f 54 64 65
f 55 57 72
f 56 73 74
f 56 74 57
f 57 75 76
f 57 76 77
f 57 77 72
f 57 74 78
f 57 78 79
f 57 79 75
f 58 80 61
f 58 61 60
f 59 61 81
f 59 81 62
f 61 80 81
f 62 81 77
f 62 77 76
f 62 76 63
f 63 75 79
f 63 79 64
f 63 76 75
f 64 79 66
f 64 66 65
f 66 79 67
f 67 79 78
f 67 78 74
f 67 74 69
f 69 74 73
f 69 73 70
f 72 77 81
f 72 81 82
f 80 82 81

