# https://github.com/mikedh/trimesh
v -3.28621767 2.56383439 -1.16354033
v -3.35870369 2.51067332 -1.13771436
v -3.35870369 2.56383439 -1.16280116
v -3.28621767 2.63605171 -1.15482714
v -3.28447541 2.56385570 -1.16354033
v -3.28447541 2.56383439 -1.16354033
v -3.35870369 2.47944585 -1.08565925
v 0.20076882 2.56385570 -1.16354033
v 0.20076882 2.51105699 -1.13769197
v -3.35870369 2.63605171 -1.15408798
v -3.35870369 2.67878962 -1.12900118
v -3.28447541 2.67780890 -1.12960595
v 0.20076882 2.63605171 -1.15482714
v 0.20076882 2.61590837 -1.15726863
v -3.35835511 2.47933927 -1.08530086
v -3.35870369 2.47914744 -1.01310911
v 0.20076882 2.48221683 -1.08530086
v -3.35870369 2.69684384 -1.08530086
v 0.20076882 2.69181345 -1.09748588
v 0.20076882 2.67878962 -1.12900118
v -3.35870369 2.51060937 -0.96065081
v 0.20076882 2.48219551 -1.06516422
v 0.20076882 2.48215288 -1.01310911
v 0.20076882 2.49016763 -0.99850500
v 0.20076882 2.51099305 -0.96069561
v -3.35870369 2.69690779 -1.01310911
v -3.28447541 2.69684384 -1.08530086
v 0.20076882 2.69682253 -1.08530086
v -3.35870369 2.56340808 -0.93560880
v 0.20076882 2.52570078 -0.95346076
v 0.20076882 2.56385570 -0.93471285
v -3.28447541 2.56383439 -0.93471285
v -3.28621767 2.56383439 -0.93471285
v -3.35870369 2.67883225 -0.96936400
v -3.35835511 2.67883225 -0.96934160
v -3.28447541 2.67927987 -0.97037195
v 0.20076882 2.67885335 -0.96934160
v 0.20076882 2.69688647 -1.01310911
v -3.35870369 2.56383439 -0.93545202
v 0.20076882 2.63605171 -0.94338123
v -3.28447541 2.56385570 -0.93471285
v -3.28621767 2.63605171 -0.94338123
v -3.35870369 2.63560409 -0.94403080
v -3.35870369 2.63605171 -0.94409800
v -3.28447541 2.67885335 -0.96934160
f 1 2 3
f 1 3 10
f 1 10 4
f 1 4 5
f 1 5 8
f 1 8 6
f 1 6 2
f 2 7 16
f 2 16 21
f 2 21 29
f 2 29 39
f 2 39 43
f 2 43 44
f 2 44 34
f 2 34 26
f 2 26 18
f 2 18 11
f 2 11 10
f 2 10 3
f 2 6 8
f 2 8 9
f 2 9 7
f 4 10 11
f 4 11 12
f 4 12 13
f 4 13 14
f 4 14 5
f 5 14 8
f 7 15 16
f 7 9 17
f 7 17 15
f 8 14 13
f 8 13 20
f 8 20 19
f 8 19 28
f 8 28 38
f 8 38 37
f 8 37 40
f 8 40 31
f 8 31 30
f 8 30 25
f 8 25 24
f 8 24 23
f 8 23 22
f 8 22 17
f 8 17 9
f 11 18 19
f 11 19 20
f 11 20 12
f 12 20 13
f 15 17 16
f 16 17 22
f 16 22 23
f 16 23 24
f 16 24 25
f 16 25 21
f 18 26 27
f 18 27 19
f 19 27 28
f 21 25 30
f 21 30 31
f 21 31 32
f 21 32 33
f 21 33 29
f 26 34 35
f 26 35 36
f 26 36 37
f 26 37 38
f 26 38 27
f 27 38 28
f 29 33 39
f 31 40 42
f 31 42 41
f 31 41 33
f 31 33 32
f 33 42 43
f 33 43 39
f 33 41 42
f 34 44 35
f 35 44 42
f 35 42 45
f 35 45 36
f 36 45 37
f 37 45 42
f 37 42 40
f 42 44 43

