# https://github.com/mikedh/trimesh
v -0.10784498 -2.56555292 -1.16354055
v 0.48930018 -2.51275917 -1.13769218
v 0.48930018 -2.56555292 -1.16354055
v 3.28358457 -2.63413653 -1.15527534
v 0.48930018 -2.58468561 -1.16123346
v 0.48930018 -2.63775280 -1.15482736
v -3.19119347 -2.63777369 -1.15480496
v -3.19119347 -2.56555292 -1.16349575
v -3.19119347 -2.52909568 -1.14566620
v -3.19119347 -2.51275917 -1.13766978
v 0.48930018 -2.48391297 -1.08530108
v 3.28358457 -2.51275917 -1.13769218
v 3.28358457 -2.56290380 -1.16224141
v 3.28358457 -2.56555292 -1.16351814
v 3.28358457 -2.63775280 -1.15482736
v 0.48930018 -2.64910629 -1.14799569
v -3.19119347 -2.65099839 -1.14683094
v -3.19119347 -2.48391297 -1.08527868
v -1.11893480 -2.48382879 -1.01308693
v 3.28358457 -2.48391297 -1.08530108
v 3.28358457 -2.67835209 -1.13030053
v 0.48930018 -2.68049653 -1.12900140
v -3.19119347 -2.68051763 -1.12897900
v -3.19119347 -2.48384989 -1.01308693
v -3.19119347 -2.50376048 -0.97689026
v 0.48930018 -2.50504305 -0.97456076
v 0.48930018 -2.48382879 -1.01308693
v 3.28358457 -2.48384989 -1.01310932
v 3.28358457 -2.68049653 -1.12900140
v -3.19119347 -2.69855700 -1.08527868
v 0.48930018 -2.68051763 -1.12897900
v 3.28358457 -2.69765293 -1.08749617
v -3.19119347 -2.51269608 -0.96067343
v 0.48930018 -2.51269608 -0.96067343
v 3.28358457 -2.51269608 -0.96069583
v 3.28358457 -2.48527952 -1.01048865
v -3.19119347 -2.69857810 -1.06294695
v 0.48930018 -2.69855700 -1.08527868
v 0.48930018 -2.69857810 -1.06614999
v 3.28358457 -2.69853590 -1.08530108
v -3.19119347 -2.56555292 -0.93471306
v 3.28358457 -2.51532431 -0.95939669
v -3.06948217 -2.56555292 -0.93471306
v -3.19119347 -2.69859898 -1.01308693
v 0.48930018 -2.69862008 -1.01310932
v 3.28358457 -2.69862008 -1.01310932
v -3.19119347 -2.61540324 -0.94069358
v 0.48930018 -2.61861990 -0.94107436
v 3.28358457 -2.56555292 -0.93475786
v 0.48930018 -2.56555292 -0.93473547
v 3.28358457 -2.56916919 -0.93518344
v -3.19119347 -2.68058071 -0.96931942
v 3.28358457 -2.68055961 -0.96934181
v 0.48930018 -2.68058071 -0.96931942
v -3.19119347 -2.63777369 -0.94338145
v 0.48930018 -2.63777369 -0.94338145
v 3.28358457 -2.63775280 -0.94340385
v 3.28358457 -2.63989724 -0.94470299
f 1 2 12
f 1 12 3
f 1 3 4
f 1 4 5
f 1 5 6
f 1 6 7
f 1 7 8
f 1 8 9
f 1 9 10
f 1 10 2
f 2 10 18
f 2 18 11
f 2 11 20
f 2 20 12
f 3 12 13
f 3 13 14
f 3 14 4
f 4 14 13
f 4 13 12
f 4 12 20
f 4 20 28
f 4 28 36
f 4 36 35
f 4 35 42
f 4 42 49
f 4 49 51
f 4 51 57
f 4 57 58
f 4 58 53
f 4 53 46
f 4 46 40
f 4 40 32
f 4 32 29
f 4 29 21
f 4 21 15
f 4 15 6
f 4 6 5
f 6 16 7
f 6 15 16
f 7 17 23
f 7 23 30
f 7 30 37
f 7 37 44
f 7 44 52
f 7 52 55
f 7 55 47
f 7 47 41
f 7 41 33
f 7 33 25
f 7 25 24
f 7 24 18
f 7 18 10
f 7 10 9
f 7 9 8
f 7 16 17
f 11 18 19
f 11 19 27
f 11 27 20
f 15 21 16
f 16 21 22
f 16 22 23
f 16 23 17
f 18 24 19
f 19 24 25
f 19 25 26
f 19 26 27
f 20 27 28
f 21 29 22
f 22 29 31
f 22 31 23
f 23 31 32
f 23 32 30
f 25 33 26
f 26 33 34
f 26 34 35
f 26 35 27
f 27 35 36
f 27 36 28
f 29 32 31
f 30 32 38
f 30 38 39
f 30 39 37
f 32 40 38
f 33 41 43
f 33 43 34
f 34 42 35
f 34 43 42
f 37 39 45
f 37 45 44
f 38 40 46
f 38 46 39
f 39 46 45
f 41 47 48
f 41 48 43
f 42 43 50
f 42 50 49
f 43 48 51
f 43 51 50
f 44 45 52
f 45 46 54
f 45 54 52
f 46 53 54
f 47 55 48
f 48 56 57
f 48 57 51
f 48 55 56
f 49 50 51
f 52 54 56
f 52 56 55
f 53 58 54
f 54 58 56
f 56 58 57

