# https://github.com/mikedh/trimesh
v -3.35834370 -2.69859898 -1.01308690
v -3.19184348 -2.69859898 -1.01308690
v -3.19184348 -2.69303872 -0.99955795
v -3.35834370 -2.68057641 -0.96931940
v -3.35834370 -2.69855635 -1.08530103
v -3.19184348 -2.69857767 -1.06296930
v -3.19184348 -2.68057641 -0.96931940
v -3.19184348 -2.66734718 -0.96130059
v -3.35834370 -2.63777842 -0.94338145
v -3.35834370 -2.68059772 -1.12879974
v -3.19184348 -2.68609404 -1.11549477
v -3.19184348 -2.69855635 -1.08530103
v -3.19184348 -2.63777842 -0.94338145
v -3.19184348 -2.61543144 -0.94069358
v -3.35834370 -2.56553957 -0.93471306
v -3.28639745 -2.68051246 -1.12900132
v -3.19184348 -2.68051246 -1.12900132
v -3.35834370 -2.63794895 -1.15471528
v -3.19184348 -2.56553957 -0.93471306
v -3.28639745 -2.51268661 -0.96067342
v -3.35834370 -2.51228183 -0.96089741
v -3.28639745 -2.63777842 -1.15482728
v -3.19184348 -2.65098634 -1.14685327
v -3.35834370 -2.56585909 -1.16349567
v -3.19184348 -2.51268661 -0.96067342
v -3.35834370 -2.48098762 -1.01340048
v -3.28639745 -2.56553957 -1.16354047
v -3.19184348 -2.63777842 -1.15482728
v -3.35834370 -2.51270792 -1.13780410
v -3.19184348 -2.50376048 -0.97689024
v -3.35834370 -2.48120056 -1.08552501
v -3.19184348 -2.48384214 -1.01308690
v -3.19184348 -2.48386345 -1.03541862
v -3.19184348 -2.48392740 -1.08530103
v -3.19184348 -2.56553957 -1.16354047
v -3.19184348 -2.51277187 -1.13769211
v -3.19184348 -2.52908987 -1.14568852
v -3.19184348 -2.49283200 -1.10149545
f 1 2 3
f 1 3 4
f 1 4 9
f 1 9 15
f 1 15 21
f 1 21 26
f 1 26 31
f 1 31 29
f 1 29 24
f 1 24 18
f 1 18 10
f 1 10 5
f 1 5 6
f 1 6 2
f 2 6 12
f 2 12 11
f 2 11 17
f 2 17 23
f 2 23 28
f 2 28 35
f 2 35 37
f 2 37 36
f 2 36 38
f 2 38 34
f 2 34 33
f 2 33 32
f 2 32 30
f 2 30 25
f 2 25 19
f 2 19 14
f 2 14 13
f 2 13 8
f 2 8 7
f 2 7 3
f 3 7 4
f 4 7 8
f 4 8 9
f 5 10 11
f 5 11 12
f 5 12 6
f 8 13 9
f 9 13 14
f 9 14 15
f 10 16 17
f 10 17 11
f 10 18 16
f 14 19 15
f 15 20 21
f 15 19 25
f 15 25 20
f 16 18 22
f 16 22 23
f 16 23 17
f 18 24 22
f 20 25 21
f 21 25 26
f 22 24 27
f 22 27 35
f 22 35 28
f 22 28 23
f 24 29 27
f 25 30 26
f 26 30 32
f 26 32 33
f 26 33 34
f 26 34 31
f 27 29 35
f 29 36 37
f 29 37 35
f 29 31 36
f 31 34 38
f 31 38 36

