# https://github.com/mikedh/trimesh
v -0.46980709 2.94694297 -1.11031366
v -0.46980709 2.94694297 -1.28395746
v -0.47010984 2.94694297 -1.11026264
v -0.46980709 2.62381166 -1.11026264
v -0.46980709 2.62320236 -1.28395746
v -3.56181755 2.94694297 -1.28395746
v -3.56181755 2.94694297 -1.11026264
v -0.46980709 2.62301471 -1.11026264
v -0.46980709 2.62245200 -1.28390646
v -0.47010984 2.62245200 -1.28395746
v -3.56181755 2.46805986 -1.28395746
v -3.56181755 2.48868935 -1.11026264
f 1 2 6
f 1 6 7
f 1 7 3
f 1 3 4
f 1 4 8
f 1 8 9
f 1 9 5
f 1 5 2
f 2 5 10
f 2 10 11
f 2 11 6
f 3 7 12
f 3 12 8
f 3 8 4
f 5 9 10
f 6 11 12
f 6 12 7
f 8 12 11
f 8 11 9
f 9 11 10

