# https://github.com/mikedh/trimesh
v -3.37259936 -2.94698982 -1.11022768
v -3.37259936 -2.94698982 -0.90172529
v -3.37259936 -2.62301038 -1.11022768
v -0.91905254 -2.94698982 -1.11022768
v -3.37259936 -2.93871266 -0.81627462
v -0.91905254 -2.94698982 -0.90172529
v -3.37259936 -2.62301038 -0.90172529
v -0.91905254 -2.62301038 -1.11022768
v -3.37259936 -2.91762358 -0.76342323
v -0.91905254 -2.93871266 -0.81627462
v -3.37259936 -2.62849666 -0.81627462
v -0.91905254 -2.62301038 -0.90172529
v -3.37259936 -2.86209420 -0.75313980
v -0.91905254 -2.91762358 -0.76342323
v -0.91905254 -2.87636509 -0.75576311
v -3.37259936 -2.64124544 -0.76660623
v -0.91905254 -2.62849666 -0.81627462
v -3.37259936 -2.85996940 -0.75310479
v -0.91905254 -2.86209420 -0.75313980
v -3.37259936 -2.69001977 -0.75656761
v -0.91905254 -2.64124544 -0.76660623
v -3.37259936 -2.77669137 -0.75292993
v -0.91905254 -2.77669137 -0.75292993
v -3.37259936 -2.69125671 -0.75632276
v -0.91905254 -2.69125671 -0.75632276
v -0.91905254 -2.71323366 -0.75544830
f 1 2 5
f 1 5 9
f 1 9 13
f 1 13 18
f 1 18 22
f 1 22 24
f 1 24 20
f 1 20 16
f 1 16 11
f 1 11 7
f 1 7 3
f 1 3 8
f 1 8 4
f 1 4 6
f 1 6 2
f 2 6 10
f 2 10 5
f 3 7 12
f 3 12 8
f 4 8 12
f 4 12 17
f 4 17 21
f 4 21 25
f 4 25 26
f 4 26 23
f 4 23 19
f 4 19 15
f 4 15 14
f 4 14 10
f 4 10 6
f 5 10 14
f 5 14 9
f 7 11 17
f 7 17 12
f 9 14 15
f 9 15 13
f 11 16 21
f 11 21 17
f 13 15 19
f 13 19 18
f 16 20 21
f 18 19 23
f 18 23 22
f 20 24 25
f 20 25 21
f 22 23 26
f 22 26 24
f 24 26 25

