# https://github.com/mikedh/trimesh
v 0.93189527 2.94693610 -0.90172513
v 0.93189527 2.93871496 -0.81627443
v 0.93189527 2.94693610 -1.11022766
v -3.55943228 2.94693610 -0.90172513
v -3.55943228 2.94564671 -0.88787394
v 0.93189527 2.91759761 -0.76342301
v -3.55943228 2.93871496 -0.81627443
v 0.93189527 2.62303075 -1.11022766
v -3.55943228 2.94693610 -1.11022766
v 0.93189527 2.86209114 -0.75313955
v -3.55943228 2.91759761 -0.76342301
v 0.93189527 2.62303075 -0.90172513
v 0.21352909 2.40960133 -1.11022766
v -3.55943228 2.52437601 -1.11022766
v 0.93189527 2.77665470 -0.75292968
v -3.55943228 2.86209114 -0.75313955
v -3.55943228 2.84822789 -0.75310454
v 0.93189527 2.62851168 -0.81627443
v 0.21352909 2.40965506 -0.90172513
v 0.21352909 2.40960133 -0.98710589
v 0.17572031 2.40449673 -1.11022766
v -3.55943228 2.52437601 -0.90172513
v -0.12850820 2.39804850 -1.11022766
v 0.12779997 2.44974026 -0.76394768
v 0.93189527 2.69121852 -0.75632251
v -3.55943228 2.77665470 -0.75292968
v -3.55943228 2.76279145 -0.75313955
v -3.55943228 2.67735527 -0.75583284
v 0.93189527 2.64124646 -0.76660597
v 0.21352909 2.42233611 -0.81627443
v 0.12779997 2.41003113 -0.81627443
v 0.12779997 2.39815620 -0.90172513
v 0.12779997 2.39804850 -0.98710589
v 0.12779997 2.39804850 -1.11022766
v -0.12850820 2.39804850 -0.98710589
v -0.12850820 2.39815620 -0.90172513
v -0.12850820 2.41003113 -0.81627443
v -3.55943228 2.53770201 -0.81627443
v 0.21352909 2.45629569 -0.76632614
v -0.12850820 2.44974026 -0.76394768
v 0.93189527 2.66161140 -0.76240864
v -3.55943228 2.58514876 -0.76538176
v -3.55943228 2.55430573 -0.78941151
f 1 2 6
f 1 6 10
f 1 10 15
f 1 15 25
f 1 25 41
f 1 41 29
f 1 29 18
f 1 18 12
f 1 12 8
f 1 8 3
f 1 3 9
f 1 9 4
f 1 4 5
f 1 5 2
f 2 5 7
f 2 7 11
f 2 11 6
f 3 8 13
f 3 13 21
f 3 21 34
f 3 34 23
f 3 23 14
f 3 14 9
f 4 9 14
f 4 14 22
f 4 22 38
f 4 38 43
f 4 43 42
f 4 42 28
f 4 28 27
f 4 27 26
f 4 26 17
f 4 17 16
f 4 16 11
f 4 11 7
f 4 7 5
f 6 11 16
f 6 16 10
f 8 12 20
f 8 20 13
f 10 16 17
f 10 17 15
f 12 18 19
f 12 19 20
f 13 20 21
f 14 23 35
f 14 35 22
f 15 24 25
f 15 17 26
f 15 26 27
f 15 27 28
f 15 28 24
f 18 29 30
f 18 30 19
f 19 30 31
f 19 31 32
f 19 32 33
f 19 33 20
f 20 33 21
f 21 33 34
f 22 35 36
f 22 36 37
f 22 37 38
f 23 34 33
f 23 33 35
f 24 31 39
f 24 39 25
f 24 28 40
f 24 40 37
f 24 37 31
f 25 39 41
f 28 42 40
f 29 41 39
f 29 39 30
f 30 39 31
f 31 37 36
f 31 36 32
f 32 36 35
f 32 35 33
f 37 40 43
f 37 43 38
f 40 42 43

