# https://github.com/mikedh/trimesh
v -0.12814960 -0.29330700 -1.36854124
v -0.17046479 -0.29169921 -1.36854124
v 0.12815297 -0.29330700 -1.36854124
v -0.12809218 -0.27550648 -0.90173958
v -0.21352638 -0.28882816 -1.36854124
v -0.21346896 -0.27016633 -0.90173958
v 0.21352975 -0.28882816 -1.36854124
v 0.12809555 -0.27550648 -0.90173958
v -0.12809218 -0.27068311 -0.81634544
v -0.27490348 -0.27487484 -1.36854124
v -0.25911423 -0.25908404 -0.83141498
v -0.22156453 -0.26367774 -0.80830832
v 0.23735715 -0.28354542 -1.36854124
v 0.25911760 -0.25908404 -0.83141498
v 0.21347233 -0.27016633 -0.90173958
v 0.12809555 -0.27068311 -0.81634544
v -0.12809218 -0.26103637 -0.76877291
v -0.19848352 -0.25942857 -0.77036851
v -0.28885544 -0.21354915 -1.36854124
v -0.25549707 -0.25546652 -0.77450524
v -0.26370747 -0.22158809 -0.80830832
v -0.27019542 -0.21349171 -0.90173958
v 0.27484944 -0.27487484 -1.36854124
v 0.27019879 -0.21349171 -0.90173958
v 0.26371084 -0.22158809 -0.80830832
v 0.25550043 -0.25546652 -0.77450524
v 0.22156790 -0.26367774 -0.80830832
v 0.28363399 -0.23737889 -1.36854124
v 0.28880139 -0.21354915 -1.36854124
v 0.19848689 -0.25942857 -0.77036851
v 0.12809555 -0.26103637 -0.76877291
v -0.12809218 -0.21349171 -0.76481345
v -0.22156453 -0.22158809 -0.76776828
v -0.29166879 -0.17048334 -1.36854124
v -0.25940132 -0.19850482 -0.77036851
v -0.27065475 -0.12810659 -0.81634544
v -0.27547765 -0.12810659 -0.90173958
v 0.27548102 -0.12810659 -0.90173958
v 0.27065812 -0.12810659 -0.81634544
v 0.25940469 -0.19850482 -0.77036851
v 0.22156790 -0.22158809 -0.76776828
v 0.29327979 -0.12810659 -1.36854124
v 0.12809555 -0.21349171 -0.76481345
v -0.21346896 -0.12810659 -0.76481345
v -0.26106637 -0.12810659 -0.76877291
v -0.29327642 -0.12810659 -1.36854124
v -0.27065475 0.12810621 -0.81634544
v -0.27547765 0.12810621 -0.90173958
v 0.27548102 0.12810621 -0.90173958
v 0.27065812 0.12810621 -0.81634544
v 0.26106974 -0.12810659 -0.76877291
v 0.21347233 -0.12810659 -0.76481345
v 0.29327979 0.12810621 -1.36854124
v -0.21346896 0.12810621 -0.76481345
v -0.26106637 0.12810621 -0.76877291
v -0.29327642 0.12810621 -1.36854124
v -0.27019542 0.21349133 -0.90173958
v -0.25940132 0.19850443 -0.77036851
v -0.26370747 0.22158771 -0.80830832
v -0.28885544 0.21354876 -1.36854124
v 0.27019879 0.21349133 -0.90173958
v 0.29167216 0.17048296 -1.36854124
v 0.26371084 0.22158771 -0.80830832
v 0.25940469 0.19850443 -0.77036851
v 0.26106974 0.12810621 -0.76877291
v 0.21347233 0.12810621 -0.76481345
v -0.12809218 0.21349133 -0.76481345
v -0.22156453 0.22158771 -0.76776828
v -0.25911423 0.25908366 -0.83141498
v -0.25549707 0.25546614 -0.77450524
v -0.28357324 0.23737851 -1.36854124
v 0.25911760 0.25908366 -0.83141498
v 0.28880139 0.21354876 -1.36854124
v 0.25550043 0.25546614 -0.77450524
v 0.22156790 0.22158771 -0.76776828
v 0.12809555 0.21349133 -0.76481345
v -0.12809218 0.26103598 -0.76877291
v -0.19848352 0.25942819 -0.77036851
v -0.22156453 0.26367736 -0.80830832
v -0.21346896 0.27016594 -0.90173958
v -0.21352638 0.28882778 -1.36854124
v -0.23735378 0.28354503 -1.36854124
v -0.27490348 0.27487446 -1.36854124
v 0.21347233 0.27016594 -0.90173958
v 0.22156790 0.26367736 -0.80830832
v 0.27484944 0.27487446 -1.36854124
v 0.21352975 0.28882778 -1.36854124
v 0.19848689 0.25942819 -0.77036851
v 0.12809555 0.26103598 -0.76877291
v -0.12809218 0.27068272 -0.81634544
v -0.12809218 0.27550610 -0.90173958
v -0.12814960 0.29330662 -1.36854124
v 0.12809555 0.27550610 -0.90173958
v 0.12809555 0.27068272 -0.81634544
v 0.17052557 0.29169883 -1.36854124
v 0.12815297 0.29330662 -1.36854124
f 1 2 5
f 1 5 10
f 1 10 19
f 1 19 34
f 1 34 46
f 1 46 56
f 1 56 60
f 1 60 71
f 1 71 83
f 1 83 82
f 1 82 81
f 1 81 92
f 1 92 96
f 1 96 95
f 1 95 87
f 1 87 86
f 1 86 73
f 1 73 62
f 1 62 53
f 1 53 42
f 1 42 29
f 1 29 28
f 1 28 23
f 1 23 13
f 1 13 7
f 1 7 3
f 1 3 8
f 1 8 4
f 1 4 2
f 2 4 6
f 2 6 5
f 3 7 8
f 4 8 16
f 4 16 9
f 4 9 6
f 5 6 11
f 5 11 10
f 6 9 12
f 6 12 11
f 7 13 14
f 7 14 15
f 7 15 8
f 8 15 16
f 9 16 31
f 9 31 17
f 9 17 18
f 9 18 12
f 10 11 19
f 11 12 20
f 11 20 21
f 11 21 22
f 11 22 19
f 12 18 20
f 13 23 14
f 14 24 25
f 14 25 26
f 14 26 27
f 14 27 15
f 14 23 28
f 14 28 29
f 14 29 24
f 15 27 16
f 16 27 30
f 16 30 31
f 17 31 43
f 17 43 32
f 17 32 33
f 17 33 18
f 18 33 20
f 19 22 34
f 20 33 35
f 20 35 21
f 21 35 36
f 21 36 22
f 22 36 37
f 22 37 34
f 24 38 39
f 24 39 25
f 24 29 38
f 25 40 26
f 25 39 40
f 26 40 41
f 26 41 30
f 26 30 27
f 29 42 38
f 30 41 31
f 31 41 43
f 32 43 52
f 32 52 66
f 32 66 76
f 32 76 67
f 32 67 54
f 32 54 44
f 32 44 33
f 33 45 35
f 33 44 45
f 34 37 46
f 35 45 36
f 36 47 48
f 36 48 37
f 36 45 55
f 36 55 47
f 37 48 56
f 37 56 46
f 38 49 50
f 38 50 39
f 38 42 53
f 38 53 49
f 39 50 65
f 39 65 51
f 39 51 40
f 40 51 41
f 41 51 52
f 41 52 43
f 44 54 55
f 44 55 45
f 47 57 48
f 47 55 58
f 47 58 59
f 47 59 57
f 48 57 60
f 48 60 56
f 49 61 50
f 49 53 62
f 49 62 61
f 50 61 63
f 50 63 64
f 50 64 65
f 51 65 66
f 51 66 52
f 54 67 68
f 54 68 55
f 55 68 58
f 57 59 69
f 57 69 60
f 58 70 59
f 58 68 70
f 59 70 69
f 60 69 71
f 61 72 63
f 61 62 73
f 61 73 72
f 63 74 64
f 63 72 74
f 64 74 75
f 64 75 65
f 65 75 66
f 66 75 76
f 67 76 89
f 67 89 77
f 67 77 68
f 68 77 78
f 68 78 70
f 69 70 79
f 69 79 80
f 69 80 81
f 69 81 82
f 69 82 83
f 69 83 71
f 70 78 79
f 72 84 85
f 72 85 74
f 72 73 86
f 72 86 87
f 72 87 84
f 74 88 75
f 74 85 88
f 75 88 89
f 75 89 76
f 77 90 78
f 77 89 94
f 77 94 90
f 78 90 79
f 79 90 80
f 80 90 91
f 80 91 81
f 81 91 92
f 84 93 94
f 84 94 85
f 84 87 95
f 84 95 93
f 85 94 88
f 88 94 89
f 90 94 93
f 90 93 91
f 91 93 96
f 91 96 92
f 93 95 96

