# https://github.com/mikedh/trimesh
v -0.46980703 2.62250216 -1.28390646
v -0.26622613 2.45019883 -1.28395746
v -0.26594983 2.45019883 -1.11026264
v -0.46980703 2.62304017 -1.11026264
v -0.46980703 2.62320160 -1.28395746
v -0.21359256 2.40936887 -1.28395746
v -0.21359256 2.40958402 -1.11026264
v -0.46980703 2.62379333 -1.11026264
v -0.46980703 2.94698982 -1.28395746
v -0.12817240 2.39742647 -1.28395746
v -0.16588621 2.40312866 -1.11026264
v -0.43218533 2.94698982 -1.11026264
v -0.46980703 2.94698982 -1.11031366
v 0.00062557 2.94698982 -1.28395746
v 0.00062557 2.39893279 -1.28395746
v -0.12817240 2.39807192 -1.11026264
v 0.00062557 2.94698982 -1.11026264
v 0.00062557 2.39973968 -1.11026264
f 1 2 3
f 1 3 4
f 1 4 8
f 1 8 13
f 1 13 9
f 1 9 5
f 1 5 2
f 2 6 3
f 2 5 9
f 2 9 14
f 2 14 15
f 2 15 10
f 2 10 6
f 3 6 7
f 3 7 11
f 3 11 16
f 3 16 18
f 3 18 17
f 3 17 12
f 3 12 8
f 3 8 4
f 6 10 7
f 7 10 11
f 8 12 13
f 9 13 12
f 9 12 17
f 9 17 14
f 10 15 16
f 10 16 11
f 14 17 18
f 14 18 15
f 15 18 16

