# https://github.com/mikedh/trimesh
v 3.56074712 -2.94641311 -1.28395746
v 3.80189871 -2.94641311 -1.28395746
v 3.56074712 -2.94641311 -1.11026264
v 3.56074712 2.94641311 -1.28395746
v 3.80189871 -2.94641311 -1.11026264
v 3.86535133 -2.92506635 -1.28395746
v 3.56074712 2.94641311 -1.11026264
v 3.80189871 2.94641311 -1.28395746
v 3.86522351 -2.92506635 -1.11026264
v 3.87558040 -2.89506559 -1.28395746
v 3.80189871 2.94641311 -1.11026264
v 3.86535133 2.92506635 -1.28395746
v 3.87458942 -2.89737346 -1.11026264
v 3.88670471 -2.86160329 -1.28395746
v 3.86522351 2.92506635 -1.11026264
v 3.88670471 2.86160329 -1.28395746
v 3.88641699 -2.86160329 -1.11026264
v 3.88699243 -2.82121789 -1.28395746
v 3.87705082 2.88987315 -1.11026264
v 3.88731197 2.77621676 -1.28395746
v 3.88641699 2.86160329 -1.11026264
v 3.88731197 -2.77621676 -1.28395746
v 3.88667262 -2.82410247 -1.11026264
v 3.88673653 2.81429454 -1.11026264
v 3.88696034 2.77621676 -1.11026264
v 3.88696034 -2.77621676 -1.11026264
f 1 2 5
f 1 5 3
f 1 3 7
f 1 7 4
f 1 4 8
f 1 8 12
f 1 12 16
f 1 16 20
f 1 20 22
f 1 22 18
f 1 18 14
f 1 14 10
f 1 10 6
f 1 6 2
f 2 6 5
f 3 5 9
f 3 9 13
f 3 13 17
f 3 17 23
f 3 23 26
f 3 26 25
f 3 25 24
f 3 24 21
f 3 21 19
f 3 19 15
f 3 15 11
f 3 11 7
f 4 7 11
f 4 11 8
f 5 6 9
f 6 10 9
f 8 11 12
f 9 10 13
f 10 14 13
f 11 15 12
f 12 15 16
f 13 14 17
f 14 18 17
f 15 19 16
f 16 19 21
f 16 21 20
f 17 18 22
f 17 22 23
f 20 21 24
f 20 24 25
f 20 25 26
f 20 26 22
f 22 26 23

