# https://github.com/mikedh/trimesh
v 0.93214251 2.62301725 -1.11022766
v 0.93214251 2.62301725 -0.90172513
v 0.93214251 2.94698982 -1.11022766
v 3.45918438 2.62119953 -1.11022766
v 0.93214251 2.62524950 -0.86688728
v 3.45918438 2.62119953 -0.90172513
v 0.93214251 2.94698982 -0.90172513
v 3.45918438 2.94698982 -1.11022766
v 0.93214251 2.62850226 -0.81627443
v 3.45918438 2.62716296 -0.81627443
v 0.93214251 2.94207873 -0.85107731
v 3.45918438 2.94698982 -0.90172513
v 0.93214251 2.64125842 -0.76660597
v 3.45918438 2.64084390 -0.76660597
v 0.93214251 2.93869841 -0.81627443
v 3.45918438 2.93869841 -0.81627443
v 0.93214251 2.66163636 -0.76240864
v 3.45918438 2.69068840 -0.75642744
v 0.93214251 2.69126231 -0.75632251
v 0.93214251 2.92622920 -0.78496930
v 3.45918438 2.93847510 -0.81567980
v 3.45918438 2.69126231 -0.75632251
v 0.93214251 2.77669621 -0.75292968
v 0.93214251 2.91761900 -0.76342301
v 3.45918438 2.91761900 -0.76342301
v 3.45918438 2.77669621 -0.75292968
v 0.93214251 2.86209802 -0.75313955
v 3.45918438 2.86209802 -0.75313955
f 1 2 5
f 1 5 9
f 1 9 13
f 1 13 17
f 1 17 19
f 1 19 23
f 1 23 27
f 1 27 24
f 1 24 20
f 1 20 15
f 1 15 11
f 1 11 7
f 1 7 3
f 1 3 8
f 1 8 4
f 1 4 6
f 1 6 2
f 2 6 5
f 3 7 12
f 3 12 8
f 4 8 12
f 4 12 16
f 4 16 21
f 4 21 25
f 4 25 28
f 4 28 26
f 4 26 22
f 4 22 18
f 4 18 14
f 4 14 10
f 4 10 6
f 5 6 9
f 6 10 9
f 7 11 12
f 9 10 13
f 10 14 13
f 11 15 16
f 11 16 12
f 13 14 17
f 14 18 19
f 14 19 17
f 15 20 21
f 15 21 16
f 18 22 19
f 19 22 26
f 19 26 23
f 20 24 25
f 20 25 21
f 23 26 28
f 23 28 27
f 24 27 28
f 24 28 25

