# https://github.com/mikedh/trimesh
v -2.73138794 2.89094355 -0.86058386
v -2.73138794 2.93667369 -0.86058386
v -2.73138794 2.88789851 -0.79755314
v -3.65210779 2.89150889 -0.86028763
v -3.57559144 2.89178675 -0.86057367
v -3.65210779 2.93647021 -0.86057367
v -2.73138794 2.93855327 -0.79711389
v -3.57559144 2.93667369 -0.86057367
v -2.73138794 2.88789370 -0.79711389
v -3.65210779 2.89093371 -0.79711389
v -3.65210779 2.93701587 -0.79739990
v -2.73138794 2.92028804 -0.75622054
v -2.73138794 2.91517481 -0.75649637
v -3.65210779 2.91782824 -0.75843734
v -3.65210779 2.91882983 -0.75861101
f 1 2 7
f 1 7 12
f 1 12 13
f 1 13 9
f 1 9 3
f 1 3 4
f 1 4 5
f 1 5 6
f 1 6 2
f 2 6 8
f 2 8 7
f 3 9 4
f 4 10 14
f 4 14 15
f 4 15 11
f 4 11 6
f 4 6 5
f 4 9 10
f 6 11 8
f 7 8 11
f 7 11 12
f 9 13 10
f 10 13 14
f 11 15 12
f 12 14 13
f 12 15 14

