# https://github.com/mikedh/trimesh
v -0.92238046 -2.91780956 -0.75846392
v -1.24234665 -2.81730021 -0.33202131
v -0.92238046 -2.91872394 -0.75846392
v -0.92238046 -2.90320461 -0.77961936
v -1.37625215 -2.81730021 -0.33202131
v -1.24245835 -2.82080348 -0.33202131
v -0.92238046 -2.89118831 -0.79707715
v -1.22888908 -2.81730021 -0.73439886
v -0.92238046 -2.92697948 -0.77586109
v -1.24485943 -2.87999622 -0.33202131
v -1.24675801 -2.88315158 -0.33202131
v -1.27897805 -2.93665180 -0.33202131
v -1.37362768 -2.87570743 -0.33202131
v -1.38943048 -2.81730021 -0.73439886
v -1.49279124 -2.88803295 -0.79731959
v -1.49279124 -2.91428066 -0.75658480
v -1.49279124 -2.91509205 -0.75658480
v -0.92238046 -2.89149730 -0.83187146
v -1.22888908 -2.81730021 -0.75755466
v -0.92238046 -2.93699947 -0.79707715
v -1.34001168 -2.93665180 -0.33202131
v -1.27160702 -2.94886127 -0.79707715
v -1.37340429 -2.87999622 -0.33202131
v -1.38540994 -2.81730021 -0.78416564
v -1.49279124 -2.89145885 -0.86108900
v -1.49279124 -2.91907184 -0.75731219
v -0.92238046 -2.89175502 -0.86054346
v -1.23229530 -2.81730021 -0.78374135
v -0.92238046 -2.93684498 -0.82574912
v -1.49279124 -2.93514507 -0.79131848
v -1.49279124 -2.93734737 -0.79707715
v -1.34844358 -2.94882259 -0.79707715
v -1.34213365 -2.93665180 -0.95128751
v -1.27640931 -2.93665180 -0.95128751
v -0.92238046 -2.93665180 -0.86054346
v -1.37446527 -2.81730021 -0.80835193
v -1.33587945 -2.81730021 -0.85690641
v -1.34168687 -2.89149730 -0.95128751
v -1.34213365 -2.89183216 -0.95128751
v -1.49279124 -2.93665180 -0.86108900
v -1.27640931 -2.89149730 -0.95128751
v -1.28361279 -2.81730021 -0.85708826
v -1.23547825 -2.81730021 -0.79986553
v -1.49279124 -2.93703815 -0.85290567
v -1.31655862 -2.81730021 -0.85708826
f 1 2 3
f 1 3 9
f 1 9 20
f 1 20 29
f 1 29 35
f 1 35 27
f 1 27 18
f 1 18 7
f 1 7 4
f 1 4 2
f 2 5 13
f 2 13 23
f 2 23 21
f 2 21 12
f 2 12 11
f 2 11 10
f 2 10 6
f 2 6 3
f 2 4 7
f 2 7 8
f 2 8 19
f 2 19 28
f 2 28 43
f 2 43 42
f 2 42 45
f 2 45 37
f 2 37 36
f 2 36 24
f 2 24 14
f 2 14 5
f 3 6 10
f 3 10 11
f 3 11 12
f 3 12 9
f 5 14 15
f 5 15 16
f 5 16 17
f 5 17 13
f 7 18 19
f 7 19 8
f 9 12 20
f 12 21 22
f 12 22 20
f 13 17 23
f 14 24 15
f 15 24 25
f 15 25 40
f 15 40 44
f 15 44 31
f 15 31 30
f 15 30 26
f 15 26 17
f 15 17 16
f 17 26 23
f 18 27 19
f 19 27 28
f 20 22 29
f 21 23 26
f 21 26 30
f 21 30 31
f 21 31 32
f 21 32 22
f 22 32 33
f 22 33 34
f 22 34 35
f 22 35 29
f 24 36 25
f 25 36 37
f 25 37 38
f 25 38 39
f 25 39 33
f 25 33 40
f 27 35 34
f 27 34 41
f 27 41 42
f 27 42 43
f 27 43 28
f 31 44 32
f 32 44 40
f 32 40 33
f 33 39 38
f 33 38 41
f 33 41 34
f 37 45 38
f 38 45 42
f 38 42 41

