# https://github.com/mikedh/trimesh
v 1.15644349 -2.93665706 -0.86401731
v 1.15644349 -2.89007045 -0.86401731
v 1.15644349 -2.93866505 -0.82143296
v 0.57385402 -2.93665706 -0.86058145
v 1.15644349 -2.87489604 -0.79879259
v 0.57385402 -2.89177173 -0.86058145
v 1.15644349 -2.93879002 -0.79712018
v 0.57385402 -2.93700107 -0.79712018
v 0.57385402 -2.93666965 -0.85867012
v 1.15644349 -2.89965923 -0.74778922
v 0.57385402 -2.89118991 -0.79712018
v 1.15644349 -2.92752491 -0.76715299
v 0.57385402 -2.91873058 -0.75849505
v 1.15644349 -2.92052570 -0.75234005
v 0.57385402 -2.91701030 -0.75965548
v 0.57385402 -2.91781093 -0.75849505
f 1 2 5
f 1 5 10
f 1 10 14
f 1 14 12
f 1 12 7
f 1 7 3
f 1 3 4
f 1 4 6
f 1 6 2
f 2 6 5
f 3 7 8
f 3 8 9
f 3 9 4
f 4 9 8
f 4 8 13
f 4 13 16
f 4 16 15
f 4 15 11
f 4 11 6
f 5 6 11
f 5 11 10
f 7 12 8
f 8 12 14
f 8 14 13
f 10 13 14
f 10 11 15
f 10 15 16
f 10 16 13

