# https://github.com/mikedh/trimesh
v 0.33595888 2.93596072 -1.40470241
v 0.33595888 2.89218912 -1.40470241
v 0.33195416 2.93748965 -1.40470241
v 0.31540039 2.92856166 -0.95029467
v 0.31568956 2.92843119 -0.95073951
v 0.31583413 2.92815448 -0.95029467
v 0.26433674 2.87154421 -1.40470241
v 0.31583413 2.90240801 -0.95029467
v 0.26477047 2.87570849 -0.95029467
v 0.26433674 2.87555491 -0.95029467
v 0.26433674 2.95003650 -1.40470241
v 0.26433674 2.94673259 -0.95029467
v 0.19297482 2.88571223 -1.40470241
v 0.20380344 2.89130564 -0.95029467
v 0.18826170 2.88688776 -1.40470241
v 0.18826170 2.94004054 -1.40470241
v 0.26388856 2.94667125 -0.95029467
v 0.20322515 2.89183573 -0.95029467
v 0.20332635 2.89156680 -0.95073951
v 0.20322515 2.93669062 -0.95029467
f 1 2 7
f 1 7 13
f 1 13 15
f 1 15 16
f 1 16 11
f 1 11 3
f 1 3 4
f 1 4 5
f 1 5 6
f 1 6 8
f 1 8 2
f 2 8 9
f 2 9 10
f 2 10 7
f 3 11 12
f 3 12 4
f 4 12 17
f 4 17 20
f 4 20 18
f 4 18 14
f 4 14 10
f 4 10 9
f 4 9 8
f 4 8 6
f 4 6 5
f 7 10 13
f 10 14 15
f 10 15 13
f 11 16 12
f 12 16 17
f 14 18 19
f 14 19 15
f 15 19 18
f 15 18 20
f 15 20 16
f 16 20 17

