# https://github.com/mikedh/trimesh
v -3.73316516 2.93661784 -1.40742771
v -3.73316516 2.89122897 -1.40742771
v -3.73316516 2.93718455 -1.40977146
v -3.75387118 2.92888255 -0.95029467
v -3.73316516 2.89035532 -1.41102894
v -3.75387118 2.90128558 -0.95029467
v -3.73316516 2.94660373 -1.48436921
v -3.75401217 2.92916590 -0.95075198
v -3.75429439 2.92929179 -0.95029467
v -3.73316516 2.87616739 -1.48825631
v -3.80560443 2.87468012 -0.95029467
v -3.73316516 2.94638354 -1.48825631
v -3.80605304 2.95081378 -1.41148624
v -3.80605304 2.94743800 -0.95075198
v -3.80636089 2.94738284 -0.95029467
v -3.80605304 2.87043093 -1.41148624
v -3.80605304 2.87616739 -1.48825631
v -3.73316516 2.87752077 -1.49059994
v -3.80605304 2.87453844 -0.95029467
v -3.80605304 2.94638354 -1.48825631
v -3.73316516 2.92811145 -1.53427255
v -3.86411991 2.93667300 -1.41148624
v -3.86411991 2.93667300 -0.95029467
v -3.86411991 2.89178767 -1.41148624
v -3.86369694 2.89140978 -0.95029467
v -3.85960682 2.89728815 -1.48825631
v -3.85154240 2.90799799 -1.53170026
v -3.80605304 2.90279643 -1.53427255
v -3.73316516 2.90279643 -1.53427255
v -3.80605304 2.92811145 -1.53427255
v -3.85154240 2.92487712 -1.53170026
v -3.85960682 2.93239222 -1.48825631
v -3.86411991 2.89190554 -0.95029467
v -3.86411991 2.89166178 -0.95075198
f 1 2 5
f 1 5 10
f 1 10 18
f 1 18 29
f 1 29 21
f 1 21 12
f 1 12 7
f 1 7 3
f 1 3 4
f 1 4 6
f 1 6 2
f 2 6 5
f 3 7 4
f 4 8 9
f 4 9 15
f 4 15 23
f 4 23 33
f 4 33 25
f 4 25 19
f 4 19 11
f 4 11 6
f 4 7 8
f 5 6 10
f 6 11 10
f 7 12 13
f 7 13 14
f 7 14 9
f 7 9 8
f 9 14 15
f 10 16 17
f 10 17 18
f 10 11 19
f 10 19 16
f 12 20 13
f 12 21 30
f 12 30 20
f 13 20 22
f 13 22 23
f 13 23 15
f 13 15 14
f 16 24 17
f 16 19 25
f 16 25 24
f 17 24 26
f 17 26 27
f 17 27 28
f 17 28 18
f 18 28 29
f 20 30 31
f 20 31 32
f 20 32 22
f 21 29 28
f 21 28 30
f 22 32 26
f 22 26 24
f 22 24 34
f 22 34 33
f 22 33 23
f 24 25 34
f 25 33 34
f 26 32 31
f 26 31 27
f 27 31 30
f 27 30 28

