# https://github.com/mikedh/trimesh
v -1.22560452 -2.80319262 0.59518419
v -1.22610794 -2.78832033 0.59518419
v -1.22709854 -2.81729998 0.59518419
v -1.22893372 -2.81729998 -0.75744162
v -1.23042786 -2.72639680 0.59518419
v -1.38990793 -2.81729998 0.59518419
v -1.23232792 -2.81729998 -0.78374072
v -1.24221836 -2.72639680 -0.72019642
v -1.25852368 -2.66776620 0.59518419
v -1.39104479 -2.80731249 0.59518419
v -1.38945326 -2.81729998 -0.73441216
v -1.23554360 -2.81729998 -0.79980451
v -1.26617280 -2.72639680 -0.79710347
v -1.28822716 -2.66898339 -0.79710347
v -1.27633927 -2.65788789 -0.72019642
v -1.26633519 -2.66116502 0.59518419
v -1.39149957 -2.80319262 0.59518419
v -1.38649748 -2.72639680 0.59518419
v -1.37641225 -2.72639680 -0.72019642
v -1.38540937 -2.81729998 -0.78416718
v -1.28363122 -2.81729998 -0.85709381
v -1.30342812 -2.68273210 -0.83776044
v -1.33126405 -2.66898339 -0.79710347
v -1.34300592 -2.65788789 -0.72019642
v -1.27633927 -2.65788789 0.50846829
v -1.34300592 -2.65788789 0.50846829
v -1.27265267 -2.66125863 0.59518419
v -1.38389909 -2.71035425 0.59518419
v -1.35273385 -2.72639680 -0.79710347
v -1.37446344 -2.81729998 -0.80833390
v -1.31655038 -2.81729998 -0.85709381
v -1.31637174 -2.68273210 -0.83776044
v -1.35646909 -2.66384911 0.59518419
v -1.35374071 -2.66299081 0.59518419
v -1.33587636 -2.81729998 -0.85680954
f 1 2 5
f 1 5 9
f 1 9 16
f 1 16 27
f 1 27 34
f 1 34 33
f 1 33 28
f 1 28 18
f 1 18 17
f 1 17 10
f 1 10 6
f 1 6 3
f 1 3 4
f 1 4 2
f 2 4 5
f 3 6 11
f 3 11 20
f 3 20 30
f 3 30 35
f 3 35 31
f 3 31 21
f 3 21 12
f 3 12 7
f 3 7 4
f 4 7 8
f 4 8 5
f 5 8 9
f 6 10 11
f 7 12 8
f 8 12 13
f 8 13 14
f 8 14 15
f 8 15 9
f 9 15 16
f 10 17 11
f 11 17 18
f 11 18 19
f 11 19 20
f 12 21 22
f 12 22 13
f 13 22 14
f 14 22 32
f 14 32 23
f 14 23 24
f 14 24 15
f 15 24 26
f 15 26 25
f 15 25 16
f 16 25 26
f 16 26 27
f 18 28 19
f 19 24 23
f 19 23 29
f 19 29 20
f 19 28 24
f 20 29 30
f 21 31 32
f 21 32 22
f 23 32 29
f 24 28 33
f 24 33 26
f 26 33 34
f 26 34 27
f 29 32 30
f 30 32 35
f 31 35 32

