# https://github.com/mikedh/trimesh
v -0.92237983 2.91874697 -0.75844599
v -1.27897702 2.93666774 -0.33208188
v -1.24485852 2.88001124 -0.33208188
v -1.24234562 2.81747568 -0.33208188
v -0.92237983 2.91782092 -0.75844599
v -0.92237983 2.92876879 -0.77962800
v -1.34001066 2.93666774 -0.33208188
v -0.92237983 2.93701495 -0.79705781
v -1.27160611 2.94888934 -0.79705781
v -1.37625112 2.81747568 -0.33208188
v -1.22883232 2.81747568 -0.73454053
v -0.92237983 2.89119074 -0.79705781
v -1.49279010 2.91909442 -0.75735662
v -1.37156053 2.88317599 -0.33208188
v -1.34844255 2.94883784 -0.79705781
v -1.49279010 2.93736239 -0.79705781
v -0.92237983 2.93666774 -0.86054340
v -1.27635254 2.93669337 -0.95023413
v -1.34224431 2.93669337 -0.95023413
v -1.37340326 2.88001124 -0.33208188
v -1.49279010 2.91429591 -0.75656987
v -1.49279010 2.89076617 -0.79070319
v -1.49279010 2.88805163 -0.79729988
v -1.38948530 2.81747568 -0.73454053
v -1.23212685 2.81747568 -0.78362233
v -0.92237983 2.89178240 -0.86054340
v -1.49279010 2.93666774 -0.86108808
v -1.27629670 2.93628184 -0.95023413
v -1.34224431 2.89139651 -0.95023413
v -1.49279010 2.88856638 -0.85340200
v -1.38948530 2.81747568 -0.75360436
v -1.24474682 2.81747568 -0.81000909
v -1.28355591 2.81747568 -0.85715429
v -1.27629670 2.89139651 -0.95023413
v -1.25189434 2.81747568 -0.81872400
v -1.49279010 2.89147387 -0.86108808
v -1.33593427 2.81747568 -0.85697267
v -1.38328706 2.81747568 -0.79905498
v -1.38552061 2.81747568 -0.78404599
f 1 2 3
f 1 3 4
f 1 4 5
f 1 5 12
f 1 12 26
f 1 26 17
f 1 17 8
f 1 8 6
f 1 6 2
f 2 7 14
f 2 14 20
f 2 20 10
f 2 10 4
f 2 4 3
f 2 6 8
f 2 8 9
f 2 9 7
f 4 10 24
f 4 24 31
f 4 31 39
f 4 39 38
f 4 38 37
f 4 37 33
f 4 33 35
f 4 35 32
f 4 32 25
f 4 25 11
f 4 11 12
f 4 12 5
f 7 13 14
f 7 9 15
f 7 15 16
f 7 16 13
f 8 17 9
f 9 17 18
f 9 18 19
f 9 19 15
f 10 20 21
f 10 21 22
f 10 22 23
f 10 23 24
f 11 25 26
f 11 26 12
f 13 21 20
f 13 20 14
f 13 16 27
f 13 27 36
f 13 36 30
f 13 30 23
f 13 23 22
f 13 22 21
f 15 19 27
f 15 27 16
f 17 26 34
f 17 34 28
f 17 28 18
f 18 28 34
f 18 34 29
f 18 29 19
f 19 29 36
f 19 36 27
f 23 30 31
f 23 31 24
f 25 32 26
f 26 33 34
f 26 32 35
f 26 35 33
f 29 34 33
f 29 33 37
f 29 37 36
f 30 36 37
f 30 37 38
f 30 38 39
f 30 39 31

