# https://github.com/mikedh/trimesh
v 1.49132684 -2.91709224 -0.75807511
v 1.37894241 -2.72641283 0.60065149
v 1.38402256 -2.79123537 0.60065149
v 1.38451408 -2.80319720 0.60065149
v 1.49132684 -2.91877269 -0.75807511
v 1.49132684 -2.89108920 -0.79574575
v 1.35409923 -2.67036241 0.60065149
v 1.49132684 -2.89054813 -0.79696094
v 1.38323589 -2.81729540 0.60065149
v 1.49132684 -2.93702900 -0.79696094
v 1.33407390 -2.65788789 -0.72010063
v 1.34436511 -2.66141953 0.60065149
v 1.49132684 -2.89111781 -0.85893528
v 1.21621611 -2.81729540 0.60065149
v 1.33263183 -2.93663006 0.58333515
v 1.37025715 -2.88157665 0.58333515
v 1.33948169 -2.94879147 -0.79696094
v 1.49132684 -2.93663006 -0.86045425
v 1.26744296 -2.65788789 -0.72010063
v 1.33407390 -2.65788789 0.50844947
v 1.32237334 -2.66899552 -0.79696094
v 1.25787272 -2.65962533 0.60065149
v 1.49132684 -2.89168727 -0.86045425
v 1.21467562 -2.80342516 0.60065149
v 1.15650060 -2.92048153 -0.75215108
v 1.15650060 -2.92748783 -0.76703704
v 1.15650060 -2.93876621 -0.79696094
v 1.23073523 -2.88411151 0.58333515
v 1.26839339 -2.93663006 0.58333515
v 1.26278887 -2.94884846 -0.79696094
v 1.33322177 -2.93663006 -0.95113730
v 1.22463919 -2.70009645 0.60065149
v 1.24659823 -2.66315675 0.60065149
v 1.26744296 -2.65788789 0.50844947
v 1.27934012 -2.66899552 -0.79696094
v 1.15650060 -2.89003543 -0.86394791
v 1.15650060 -2.87488368 -0.79863183
v 1.30749362 -2.68275178 -0.83766958
v 1.33322177 -2.89148792 -0.95113730
v 1.21991964 -2.72641283 0.60065149
v 1.15650060 -2.89963359 -0.74759415
v 1.15650060 -2.93862385 -0.82126459
v 1.15650060 -2.93663006 -0.86394791
v 1.26757399 -2.93663006 -0.95113730
v 1.29451487 -2.68275178 -0.83766958
v 1.26757399 -2.89180126 -0.95113730
v 1.26806563 -2.89148792 -0.95113730
f 1 2 3
f 1 3 4
f 1 4 5
f 1 5 10
f 1 10 18
f 1 18 23
f 1 23 13
f 1 13 8
f 1 8 6
f 1 6 2
f 2 7 12
f 2 12 22
f 2 22 33
f 2 33 32
f 2 32 40
f 2 40 24
f 2 24 14
f 2 14 9
f 2 9 4
f 2 4 3
f 2 6 8
f 2 8 7
f 4 9 5
f 5 9 10
f 7 11 12
f 7 8 13
f 7 13 11
f 9 14 29
f 9 29 15
f 9 15 16
f 9 16 10
f 10 17 18
f 10 16 15
f 10 15 17
f 11 19 34
f 11 34 20
f 11 20 12
f 11 13 21
f 11 21 35
f 11 35 19
f 12 20 22
f 13 23 21
f 14 24 25
f 14 25 26
f 14 26 27
f 14 27 28
f 14 28 29
f 15 29 30
f 15 30 17
f 17 30 31
f 17 31 18
f 18 31 39
f 18 39 23
f 19 32 33
f 19 33 22
f 19 22 34
f 19 35 36
f 19 36 37
f 19 37 32
f 20 34 22
f 21 23 38
f 21 38 45
f 21 45 35
f 23 39 38
f 24 40 41
f 24 41 25
f 25 41 37
f 25 37 36
f 25 36 43
f 25 43 42
f 25 42 27
f 25 27 26
f 27 42 30
f 27 30 29
f 27 29 28
f 30 42 43
f 30 43 44
f 30 44 31
f 31 44 46
f 31 46 47
f 31 47 39
f 32 37 40
f 35 45 36
f 36 45 46
f 36 46 44
f 36 44 43
f 37 41 40
f 38 39 47
f 38 47 45
f 45 47 46

