# https://github.com/mikedh/trimesh
v -1.23105694 2.81746309 0.58506887
v -1.23887657 2.88285830 0.58506887
v -1.38677854 2.81746309 0.58506887
v -1.24238247 2.81746309 -0.33202140
v -1.24489754 2.87999933 -0.33202140
v -1.23931854 2.88450373 0.58506887
v -1.38609258 2.82505968 0.58506887
v -1.37344102 2.87999933 -0.33202140
v -1.37609331 2.82096384 -0.33202140
v -1.37624574 2.81746309 -0.33202140
v -1.27904168 2.93666613 -0.33202140
v -1.27721245 2.93666613 0.58506887
v -1.37932478 2.88163309 0.58506887
v -1.37158136 2.88316180 -0.33202140
v -1.34002851 2.93666613 -0.33202140
v -1.34002851 2.93666613 0.50840535
v -1.34168996 2.93651439 0.58506887
f 1 2 6
f 1 6 12
f 1 12 17
f 1 17 13
f 1 13 7
f 1 7 3
f 1 3 10
f 1 10 4
f 1 4 5
f 1 5 2
f 2 5 6
f 3 7 8
f 3 8 9
f 3 9 10
f 4 10 9
f 4 9 8
f 4 8 14
f 4 14 15
f 4 15 11
f 4 11 5
f 5 11 6
f 6 11 12
f 7 13 8
f 8 13 14
f 11 15 16
f 11 16 12
f 12 16 17
f 13 17 15
f 13 15 14
f 15 17 16

