# https://github.com/mikedh/trimesh
v 2.56853402 2.95099345 0.66210158
v 2.56853402 2.94988154 0.64086798
v 1.43500050 2.94636020 0.73886569
v 3.79674795 2.94636020 0.73886569
v 3.79674795 2.95080806 0.66210158
v 2.47481010 2.81745988 0.64005991
v 2.47313652 2.81739809 0.64005991
v 2.51449936 2.93984256 0.64086798
v 1.43500050 2.88118403 0.64540201
v 1.43500050 2.93666087 0.67564383
v 3.79674795 2.94966525 0.64086798
v 3.87732192 2.81745988 0.64005991
v 1.43500050 2.92810458 0.78483444
v 3.79674795 2.92810458 0.78483444
v 3.84241423 2.92486132 0.78230552
v 3.85030424 2.93236728 0.73886569
v 3.85484709 2.93666087 0.66210158
v 3.81276716 2.94688525 0.64086798
v 3.85484709 2.93666087 0.64086798
v 2.50111023 2.93486941 0.64086798
v 2.47241920 2.80318910 0.64005991
v 1.43500050 2.81745988 0.64356146
v 3.87612624 2.88001032 0.64086798
v 3.87756087 2.80726640 0.64005991
v 1.43500050 2.89168627 0.79076008
v 3.79674795 2.88001032 0.79264549
v 3.84600081 2.88001032 0.78496902
v 3.86632368 2.88001032 0.73886569
v 3.87612624 2.88001032 0.66210158
v 2.47361465 2.72676934 0.64005991
v 1.59638739 2.72642968 0.65767226
v 1.59638739 2.66032699 0.67908541
v 1.59638739 2.64451172 0.73886569
v 1.43500050 2.81745988 0.79286991
v 2.49967560 2.66082115 0.64005991
v 2.56853402 2.63737632 0.64005991
v 3.87756087 2.80318910 0.66211657
v 3.87756087 2.72642968 0.64005991
v 3.87732192 2.81745988 0.66211657
v 1.43500050 2.88001032 0.79264549
v 3.79674795 2.81745988 0.79286991
v 3.80607237 2.81745988 0.79144832
v 1.43500050 2.82184618 0.79285503
v 3.84647917 2.80318910 0.78508873
v 3.86727995 2.81745988 0.73886569
v 1.59638739 2.67221924 0.78508873
v 2.56853402 2.63543037 0.66211657
v 2.56853402 2.64324531 0.73886569
v 1.59638739 2.72642968 0.79291477
v 1.59638739 2.80318910 0.79291477
v 1.59638739 2.80800775 0.79289989
v 3.79674795 2.63799408 0.64005991
v 3.87756087 2.72642968 0.66211657
v 3.85652067 2.66045059 0.64005991
v 3.79674795 2.80318910 0.79291477
v 3.79674795 2.72642968 0.79291477
v 3.84647917 2.72642968 0.78508873
v 3.86727995 2.72642968 0.73886569
v 3.79674795 2.67221924 0.78508873
v 3.79674795 2.63617172 0.66211657
v 3.72023846 2.64386307 0.73886569
v 3.85126097 2.66631958 0.73886569
v 3.85652067 2.66045059 0.66211657
v 3.84265364 2.67747048 0.78248508
v 3.79674795 2.64392486 0.73886569
f 1 2 3
f 1 3 4
f 1 4 5
f 1 5 2
f 2 6 7
f 2 7 8
f 2 8 9
f 2 9 10
f 2 10 3
f 2 5 11
f 2 11 12
f 2 12 6
f 3 10 9
f 3 9 22
f 3 22 34
f 3 34 43
f 3 43 40
f 3 40 25
f 3 25 13
f 3 13 14
f 3 14 4
f 4 14 15
f 4 15 16
f 4 16 17
f 4 17 5
f 5 18 11
f 5 17 19
f 5 19 18
f 6 12 24
f 6 24 38
f 6 38 54
f 6 54 52
f 6 52 36
f 6 36 35
f 6 35 30
f 6 30 21
f 6 21 7
f 7 20 8
f 7 21 22
f 7 22 20
f 8 20 22
f 8 22 9
f 11 18 12
f 12 18 19
f 12 19 23
f 12 23 24
f 13 25 14
f 14 25 26
f 14 26 15
f 15 27 28
f 15 28 16
f 15 26 27
f 16 28 29
f 16 29 17
f 17 29 23
f 17 23 19
f 21 30 22
f 22 31 32
f 22 32 33
f 22 33 34
f 22 30 35
f 22 35 36
f 22 36 31
f 23 29 24
f 24 37 53
f 24 53 38
f 24 29 39
f 24 39 37
f 25 40 26
f 26 41 42
f 26 42 27
f 26 40 43
f 26 43 41
f 27 42 44
f 27 44 45
f 27 45 28
f 28 45 37
f 28 37 39
f 28 39 29
f 31 36 32
f 32 36 33
f 33 46 34
f 33 36 47
f 33 47 48
f 33 48 46
f 34 46 49
f 34 49 50
f 34 50 51
f 34 51 41
f 34 41 43
f 36 52 47
f 37 45 58
f 37 58 53
f 38 53 63
f 38 63 54
f 41 51 55
f 41 55 42
f 42 55 56
f 42 56 57
f 42 57 44
f 44 57 58
f 44 58 45
f 46 48 59
f 46 59 56
f 46 56 49
f 47 52 60
f 47 60 61
f 47 61 48
f 48 61 59
f 49 56 55
f 49 55 50
f 50 55 51
f 52 54 60
f 53 58 62
f 53 62 63
f 54 63 60
f 56 64 57
f 56 59 64
f 57 64 58
f 58 64 62
f 59 61 65
f 59 65 64
f 60 63 65
f 60 65 61
f 62 64 65
f 62 65 63

