# https://github.com/mikedh/trimesh
v -1.49279033 2.89148623 -0.86113689
v -1.49279033 2.93667483 -0.86113689
v -1.49279033 2.88857600 -0.85342169
v -2.42295979 2.89150065 -0.86057413
v -1.49279033 2.93736010 -0.79711294
v -2.42295979 2.93632258 -0.86057413
v -2.34683437 2.93667483 -0.86057413
v -1.49279033 2.88805941 -0.79734829
v -2.42295979 2.89149584 -0.86007271
v -1.49279033 2.91909259 -0.75738065
v -2.42295979 2.93701747 -0.79711294
v -2.42295979 2.93701266 -0.79761434
v -1.49279033 2.89077189 -0.79075864
v -2.42295979 2.89092158 -0.79711294
v -1.49279033 2.91429522 -0.75660300
v -2.42295979 2.91889002 -0.75874156
v -2.34683437 2.91874514 -0.75848575
v -2.42295979 2.91782824 -0.75843460
f 1 2 5
f 1 5 10
f 1 10 15
f 1 15 13
f 1 13 8
f 1 8 3
f 1 3 4
f 1 4 6
f 1 6 2
f 2 6 7
f 2 7 5
f 3 8 9
f 3 9 4
f 4 9 14
f 4 14 18
f 4 18 16
f 4 16 11
f 4 11 12
f 4 12 6
f 5 7 11
f 5 11 10
f 6 12 7
f 7 12 11
f 8 13 14
f 8 14 9
f 10 11 16
f 10 16 17
f 10 17 18
f 10 18 15
f 13 15 14
f 14 15 18
f 16 18 17

