# https://github.com/mikedh/trimesh
v -0.33690924 -2.81871333 0.58361776
v -0.33690924 -2.81730021 0.58361776
v -0.33362032 -2.88106418 0.58361776
v -0.92232472 -2.81730021 0.65796133
v 1.37752197 -2.81730021 0.58361776
v -0.32093478 -2.92754276 0.58361776
v -0.92232472 -2.88000423 0.65925200
v -0.92232472 -2.84534167 0.65853503
v -0.92232472 -2.81730021 0.79288204
v 1.37047447 -2.88160068 0.58361776
v 1.43531178 -2.81730021 0.64343683
v 3.87751875 -2.81731326 0.64048689
v 3.87610930 -2.88000423 0.64048689
v -0.27301149 -2.94580959 0.58361776
v -0.92232472 -2.93664997 0.68065989
v -0.92232472 -2.91106853 0.67099043
v -0.92232472 -2.88000423 0.79265671
v 1.43531178 -2.86478633 0.79271816
v 1.43531178 -2.81730021 0.79288204
v 1.33288760 -2.93664997 0.58361776
v 3.85496657 -2.93664997 0.64048689
v 3.87751875 -2.81731326 0.66212000
v 3.87610930 -2.88000423 0.66212000
v -0.92232472 -2.94635914 0.73886054
v -0.92232472 -2.94197559 0.71257701
v 0.26448070 -2.94580959 0.58361776
v 2.56808609 -2.94985279 0.64048689
v -0.27301149 -2.95042866 0.66212000
v -0.92232472 -2.92809231 0.78483101
v 1.43531178 -2.91639415 0.78673622
v 3.79670698 -2.88000423 0.79265671
v 3.79670698 -2.81731326 0.79286156
v 3.84603972 -2.81731326 0.78507683
v 3.86342375 -2.81731326 0.74734165
v 3.86718245 -2.81731326 0.73886054
v 3.79670698 -2.94964359 0.64048689
v 3.85496657 -2.93664997 0.66212000
v 3.79670698 -2.95079510 0.66212000
v 3.86624266 -2.88000423 0.73886054
v 3.85026854 -2.93237102 0.73886054
v 2.56808609 -2.95097820 0.66212000
v 3.79670698 -2.94635914 0.73886054
v 1.43531178 -2.94192318 0.75004588
v 3.79670698 -2.92809231 0.78483101
v 3.84228102 -2.92486027 0.78231125
v 3.84603972 -2.88000423 0.78497440
f 1 2 5
f 1 5 10
f 1 10 20
f 1 20 26
f 1 26 14
f 1 14 6
f 1 6 3
f 1 3 4
f 1 4 2
f 2 4 9
f 2 9 19
f 2 19 11
f 2 11 5
f 3 6 7
f 3 7 8
f 3 8 4
f 4 8 7
f 4 7 16
f 4 16 15
f 4 15 25
f 4 25 24
f 4 24 29
f 4 29 17
f 4 17 9
f 5 11 12
f 5 12 13
f 5 13 10
f 6 14 15
f 6 15 16
f 6 16 7
f 9 17 18
f 9 18 19
f 10 13 21
f 10 21 20
f 11 19 22
f 11 22 12
f 12 22 23
f 12 23 13
f 13 23 37
f 13 37 21
f 14 24 25
f 14 25 15
f 14 26 27
f 14 27 28
f 14 28 24
f 17 29 30
f 17 30 31
f 17 31 18
f 18 31 19
f 19 31 32
f 19 32 33
f 19 33 34
f 19 34 35
f 19 35 22
f 20 21 36
f 20 36 26
f 21 37 38
f 21 38 36
f 22 35 39
f 22 39 23
f 23 39 40
f 23 40 37
f 24 28 41
f 24 41 42
f 24 42 43
f 24 43 29
f 26 36 27
f 27 36 38
f 27 38 41
f 27 41 28
f 29 43 44
f 29 44 30
f 30 44 31
f 31 44 45
f 31 45 46
f 31 46 32
f 32 46 33
f 33 46 34
f 34 46 35
f 35 46 39
f 37 40 42
f 37 42 38
f 38 42 41
f 39 46 45
f 39 45 40
f 40 45 42
f 42 45 44
f 42 44 43

