# https://github.com/mikedh/trimesh
v 1.15649969 2.89009211 -0.86400575
v 1.15649969 2.93667209 -0.86400575
v 1.15649969 2.87514910 -0.82431129
v 0.57385356 2.89178721 -0.86058128
v 1.15649969 2.93881122 -0.79712015
v 0.57385356 2.93667209 -0.86058128
v 1.15649969 2.87491152 -0.79879259
v 0.57385356 2.89176844 -0.85866995
v 1.15649969 2.92054072 -0.75234013
v 0.57385356 2.93701609 -0.79712015
v 1.15649969 2.88896624 -0.76333035
v 0.57385356 2.89120539 -0.79712015
v 1.15649969 2.89967448 -0.74778933
v 0.57385356 2.91929606 -0.75965557
v 0.57385356 2.91874560 -0.75849511
v 0.57385356 2.91782618 -0.75849511
f 1 2 5
f 1 5 9
f 1 9 13
f 1 13 11
f 1 11 7
f 1 7 3
f 1 3 4
f 1 4 6
f 1 6 2
f 2 6 5
f 3 7 8
f 3 8 4
f 4 8 12
f 4 12 16
f 4 16 15
f 4 15 14
f 4 14 10
f 4 10 6
f 5 6 10
f 5 10 9
f 7 11 12
f 7 12 8
f 9 10 14
f 9 14 15
f 9 15 13
f 11 13 12
f 12 13 16
f 13 15 16

