# https://github.com/mikedh/trimesh
v 0.20334018 -2.93665432 -0.95128751
v 0.20334018 -2.89187335 -0.95128751
v 0.26383932 -2.94661594 -0.95128751
v -0.13730695 -2.93752521 -0.86430170
v -0.13730695 -2.92128307 -0.86490789
v 0.20382751 -2.89143802 -0.95128751
v -0.13730695 -2.88675418 -0.86490789
v 0.26432667 -2.94668186 -0.95128751
v -0.13730695 -2.94078403 -0.79707715
v 0.26432667 -2.95128674 -0.87387926
v 0.26432667 -2.87569736 -0.95128751
v -0.13730695 -2.88119945 -0.83878183
v 0.20389714 -2.81730021 -0.85617903
v 0.22332091 -2.81730021 -0.86284693
v 0.31563609 -2.92840793 -0.95128751
v 0.57378432 -2.93665432 -0.86054346
v 0.20904895 -2.93716884 -0.33202131
v 0.20577686 -2.93665432 -0.33202131
v -0.13730695 -2.92371082 -0.74888639
v 0.26432667 -2.95209148 -0.79707715
v 0.26432667 -2.94573200 -0.33202131
v 0.26648485 -2.81730021 -0.86999971
v 0.57378432 -2.89175479 -0.86054346
v 0.31563609 -2.90252117 -0.95128751
v -0.13730695 -2.87903560 -0.79707715
v 0.18154934 -2.81730021 -0.79707715
v 0.18649231 -2.81730021 -0.81320134
v 0.57378432 -2.93666759 -0.85866428
v 0.18377716 -2.87999873 -0.33202131
v -0.13730695 -2.90609676 -0.74676480
v 0.57378432 -2.93699741 -0.79707715
v 0.30964882 -2.92745807 -0.33202131
v 0.31869933 -2.81730021 -0.84914737
v 0.31939553 -2.81730021 -0.84720763
v 0.33533832 -2.81730021 -0.80077480
v 0.57378432 -2.89120067 -0.79901687
v 0.17772029 -2.81730021 -0.73846022
v -0.13730695 -2.88684642 -0.77561862
v 0.18224554 -2.81730021 -0.33202131
v 0.18363791 -2.87571063 -0.33202131
v 0.57378432 -2.91872348 -0.75846392
v 0.31688921 -2.87999873 -0.33202131
v 0.57378432 -2.89118739 -0.79707715
v 0.31709807 -2.81730021 -0.33202131
v 0.31709807 -2.82080989 -0.33202131
v 0.57378432 -2.91781322 -0.75846392
v 0.57378432 -2.91700824 -0.75961566
f 1 2 6
f 1 6 11
f 1 11 24
f 1 24 15
f 1 15 8
f 1 8 3
f 1 3 4
f 1 4 5
f 1 5 7
f 1 7 2
f 2 7 6
f 3 8 4
f 4 9 19
f 4 19 30
f 4 30 38
f 4 38 25
f 4 25 12
f 4 12 7
f 4 7 5
f 4 8 10
f 4 10 9
f 6 7 11
f 7 12 13
f 7 13 14
f 7 14 11
f 8 15 16
f 8 16 10
f 9 17 18
f 9 18 19
f 9 10 20
f 9 20 21
f 9 21 17
f 10 16 20
f 11 14 22
f 11 22 23
f 11 23 24
f 12 25 26
f 12 26 27
f 12 27 13
f 13 27 26
f 13 26 37
f 13 37 39
f 13 39 44
f 13 44 35
f 13 35 34
f 13 34 33
f 13 33 22
f 13 22 14
f 15 24 23
f 15 23 16
f 16 23 36
f 16 36 43
f 16 43 47
f 16 47 46
f 16 46 41
f 16 41 31
f 16 31 28
f 16 28 20
f 17 21 32
f 17 32 42
f 17 42 45
f 17 45 44
f 17 44 39
f 17 39 40
f 17 40 29
f 17 29 18
f 18 29 19
f 19 29 30
f 20 28 31
f 20 31 21
f 21 31 32
f 22 33 23
f 23 33 34
f 23 34 35
f 23 35 36
f 25 37 26
f 25 38 39
f 25 39 37
f 29 40 30
f 30 40 39
f 30 39 38
f 31 41 32
f 32 41 42
f 35 43 36
f 35 44 43
f 41 45 42
f 41 46 44
f 41 44 45
f 43 44 47
f 44 46 47

