# https://github.com/mikedh/trimesh
v -0.27327285 2.64360626 0.57150991
v -0.21287760 2.66015373 0.57150991
v -0.19104218 2.81744730 0.58357668
v -0.33699027 2.81744730 0.58357668
v -0.32248064 2.67153786 0.57150991
v -0.27327285 2.64526703 -0.72020967
v -0.21287760 2.66015373 -0.72020967
v -0.13737645 2.87901789 -0.79689153
v -0.19084342 2.72646538 0.57150991
v -0.13737645 2.90607401 -0.74648390
v -0.13737645 2.90978808 -0.74648390
v -0.13737645 2.92367846 -0.74862478
v -0.19220635 2.87998423 0.58357668
v -0.33457674 2.72646538 0.57150991
v -0.33327059 2.71695328 0.57150991
v -0.33403723 2.87998423 0.58357668
v -0.42745536 2.91869616 -0.75835598
v -0.42745536 2.91754855 -0.75855058
v -0.42745536 2.89091540 -0.79689153
v -0.42745536 2.89091540 -0.79747541
v -0.31884614 2.67316841 -0.72020967
v -0.31646099 2.67815094 -0.77995925
v -0.27653822 2.66776337 -0.80214637
v -0.22111203 2.67014877 -0.79689153
v -0.19717541 2.88686899 -1.40470241
v -0.13737645 2.88671793 -0.86462070
v -0.13737645 2.93768969 -0.78034849
v -0.21426893 2.93663272 0.58357668
v -0.13737645 2.94073954 -0.79689153
v -0.32100413 2.92751338 0.58357668
v -0.42745536 2.93696483 -0.79689153
v -0.42745536 2.89148898 -0.86033895
v -0.34485556 2.89218363 -1.40470241
v -0.34085193 2.88994906 -1.40470241
v -0.23119210 2.68277092 -0.83756795
v -0.27327285 2.87152910 -1.40470241
v -0.19717541 2.94001468 -1.40470241
v -0.13737645 2.93747821 -0.86403683
v -0.27327285 2.94578227 0.58357668
v -0.19646555 2.94762431 -0.79689153
v -0.13737645 2.93916919 -0.84574216
v -0.20188892 2.94073954 -1.40470241
v -0.27327285 2.95000972 -1.40470241
v -0.27327285 2.95206325 -0.79689153
v -0.42745536 2.93663272 -0.86033895
v -0.34485556 2.93593829 -1.40470241
f 1 2 3
f 1 3 4
f 1 4 5
f 1 5 6
f 1 6 7
f 1 7 2
f 2 7 8
f 2 8 9
f 2 9 3
f 3 9 10
f 3 10 11
f 3 11 12
f 3 12 13
f 3 13 28
f 3 28 39
f 3 39 30
f 3 30 16
f 3 16 4
f 4 14 15
f 4 15 5
f 4 16 17
f 4 17 18
f 4 18 14
f 5 15 19
f 5 19 20
f 5 20 21
f 5 21 6
f 6 21 22
f 6 22 23
f 6 23 24
f 6 24 7
f 7 24 25
f 7 25 26
f 7 26 8
f 8 10 9
f 8 26 38
f 8 38 41
f 8 41 29
f 8 29 27
f 8 27 12
f 8 12 11
f 8 11 10
f 12 27 13
f 13 27 29
f 13 29 28
f 14 18 19
f 14 19 15
f 16 30 31
f 16 31 17
f 17 31 45
f 17 45 32
f 17 32 20
f 17 20 19
f 17 19 18
f 20 32 21
f 21 32 22
f 22 32 33
f 22 33 34
f 22 34 23
f 23 35 24
f 23 34 36
f 23 36 35
f 24 35 36
f 24 36 25
f 25 36 34
f 25 34 33
f 25 33 46
f 25 46 43
f 25 43 42
f 25 42 37
f 25 37 26
f 26 37 38
f 28 29 39
f 29 40 39
f 29 41 37
f 29 37 42
f 29 42 43
f 29 43 40
f 30 39 31
f 31 39 44
f 31 44 43
f 31 43 45
f 32 45 46
f 32 46 33
f 37 41 38
f 39 40 44
f 40 43 44
f 43 46 45

