# https://github.com/mikedh/trimesh
v 2.67360269 2.93899249 -1.41763538
v 2.67360269 2.88840937 -1.41763538
v 2.57451218 2.95062152 -1.41763538
v 2.56835709 2.94771838 -0.95034045
v 2.62866860 2.93674579 -0.95034045
v 2.62899362 2.93665858 -0.95075215
v 2.62911561 2.93630267 -0.95034045
v 2.56835709 2.87017435 -1.41150490
v 2.56835709 2.87065684 -1.41763538
v 2.62911561 2.89147868 -0.95034045
v 2.56835709 2.87403490 -0.95034045
v 2.56835709 2.95062152 -1.41763538
v 2.56835709 2.95099345 -1.41150490
v 2.56793045 2.94764697 -0.95034045
v 2.46607734 2.93699092 -1.41763538
v 2.56218163 2.87065684 -1.41763538
v 2.51645538 2.90065546 -0.95034045
v 2.46607734 2.89093279 -1.41763538
v 2.51590698 2.92949137 -0.95034045
v 2.51590698 2.90120936 -0.95034045
v 2.51604912 2.90100359 -0.95075215
f 1 2 9
f 1 9 16
f 1 16 18
f 1 18 15
f 1 15 12
f 1 12 3
f 1 3 4
f 1 4 5
f 1 5 6
f 1 6 7
f 1 7 10
f 1 10 2
f 2 8 9
f 2 10 11
f 2 11 8
f 3 12 13
f 3 13 4
f 4 14 19
f 4 19 20
f 4 20 17
f 4 17 11
f 4 11 10
f 4 10 7
f 4 7 5
f 4 13 15
f 4 15 14
f 5 7 6
f 8 16 9
f 8 11 16
f 11 17 18
f 11 18 16
f 12 15 13
f 14 15 19
f 15 18 20
f 15 20 19
f 17 20 21
f 17 21 18
f 18 21 20

