# https://github.com/mikedh/trimesh
v -1.49288234 -2.93665935 -0.86112665
v -1.49288234 -2.89147167 -0.86112665
v -1.49288234 -2.93704548 -0.85292032
v -2.42305272 -2.93665935 -0.86057413
v -1.49288234 -2.88804988 -0.79734852
v -2.42305272 -2.89183833 -0.86057413
v -2.34683598 -2.89177081 -0.86057413
v -1.49288234 -2.93734966 -0.79711317
v -2.42305272 -2.93666416 -0.86008295
v -1.49288234 -2.91428020 -0.75661359
v -2.42305272 -2.89091182 -0.79761454
v -2.42305272 -2.89090701 -0.79711317
v -1.49288234 -2.93514393 -0.79136260
v -2.42305272 -2.93700199 -0.79711317
v -1.49288234 -2.91509113 -0.75661359
v -2.42305272 -2.91760059 -0.75874190
v -2.42305272 -2.91873012 -0.75843494
v -1.49288234 -2.91907756 -0.75738100
f 1 2 5
f 1 5 10
f 1 10 15
f 1 15 18
f 1 18 13
f 1 13 8
f 1 8 3
f 1 3 4
f 1 4 6
f 1 6 2
f 2 6 7
f 2 7 5
f 3 8 9
f 3 9 4
f 4 9 14
f 4 14 17
f 4 17 16
f 4 16 12
f 4 12 11
f 4 11 6
f 5 7 6
f 5 6 11
f 5 11 12
f 5 12 10
f 8 13 14
f 8 14 9
f 10 12 16
f 10 16 17
f 10 17 15
f 13 18 17
f 13 17 14
f 15 17 18

