# https://github.com/mikedh/trimesh
v -0.08980893 -0.12368465 0.06123894
v -0.08980893 -0.12349750 0.06240561
v -0.09036892 -0.12299512 0.06240561
v -0.10224086 -0.10949016 0.07228633
v -0.10224086 -0.10949016 0.07214230
v -0.11396760 -0.09594582 0.07928637
v -0.11537381 -0.09424169 0.07928637
v -0.11383486 -0.09585716 0.07718348
v -0.08980893 -0.12331033 0.05948173
v -0.08980893 -0.12237454 0.06507024
v -0.09126077 -0.12087727 0.06685626
v -0.09162996 -0.12136980 0.06521427
v -0.10293774 -0.10705711 0.07544067
v -0.11376435 -0.09566015 0.08095716
v -0.11646062 -0.09284293 0.08098597
v -0.11645233 -0.09283307 0.07928637
v -0.11633203 -0.09265577 0.07777402
v -0.08980893 -0.12303452 0.05835826
v -0.08980893 -0.12031581 0.06833980
v -0.08980893 -0.11869047 0.07077397
v -0.09150136 -0.11838512 0.07002500
v -0.09449216 -0.07052183 0.13194512
v -0.12480250 -0.08139671 0.08647366
v -0.09636711 -0.06981260 0.13113852
v -0.10811045 -0.07310265 0.11471867
v -0.11080259 -0.07307310 0.11185240
v -0.12485643 -0.08146567 0.08490369
v -0.12482324 -0.08143612 0.08331932
v -0.13040247 -0.07011796 0.07208468
v -0.13098735 -0.06800012 0.06802293
v -0.08980893 -0.09655654 0.00329416
v -0.13066380 -0.06758640 0.06609288
v -0.08980893 -0.06826608 0.13809536
v -0.08980893 -0.06814787 0.13823939
v -0.12490205 -0.07990930 0.08667530
v -0.13172987 -0.06584287 0.07365465
v -0.12761493 -0.07582137 0.08087074
v -0.11336612 -0.07147732 0.10866926
v -0.09132299 -0.06757655 0.13740400
v -0.09694785 -0.06793117 0.13177228
v -0.10524409 -0.07035437 0.12039361
v -0.13040247 -0.07011796 0.07248798
v -0.13103298 -0.06876845 0.07101883
v -0.13192897 -0.06584287 0.06802293
v -0.09177514 -0.09369992 0.00329416
v -0.09138936 -0.09315814 0.00113365
v -0.08980893 -0.09480316 0.00041348
v -0.12794678 -0.06213911 0.04880882
v -0.10838008 -0.06800012 0.00048550
v -0.08980893 -0.06584287 0.13965092
v -0.12295244 -0.07709207 0.09053541
v -0.12425080 -0.07709207 0.08808683
v -0.13082557 -0.06584287 0.07574314
v -0.13065135 -0.06355757 0.07551269
v -0.13100809 -0.06277938 0.07385630
v -0.13171742 -0.06302565 0.07083159
v -0.13218616 -0.06584287 0.07083159
v -0.13091269 -0.06876845 0.07351062
v -0.09956946 -0.06760610 0.12876197
v -0.09957776 -0.06584287 0.12879078
v -0.10764172 -0.06020842 0.11682157
v -0.10755461 -0.05740104 0.11680717
v -0.11330805 -0.06866010 0.10858284
v -0.09714696 -0.06584287 0.13198832
v -0.13180039 -0.06302565 0.06802293
v -0.12883862 -0.06020842 0.05114217
v -0.12818322 -0.06048423 0.04805985
v -0.10803578 -0.06749774 -0.00115649
v -0.09084596 -0.09241936 -0.00075319
v -0.09097870 -0.08978929 -0.00376350
v -0.08980893 -0.09441899 -0.00003302
v -0.12753611 -0.06160718 0.04693638
v -0.11654773 -0.05386474 0.00401433
v -0.11615366 -0.05573632 0.00520980
v -0.11339101 -0.06142002 0.00487853
v -0.11374360 -0.06201105 0.00676537
v -0.08980893 -0.06302565 0.13898837
v -0.09567437 -0.06302565 0.13325582
v -0.10832201 -0.05740104 0.11539563
v -0.13033610 -0.06167614 0.07493655
v -0.10813534 -0.05541126 0.11496353
v -0.10750483 -0.04050754 0.10796349
v -0.12190711 -0.04756046 0.07768760
v -0.13069698 -0.06124272 0.07083159
v -0.13085462 -0.06102601 0.06802293
v -0.09855317 -0.06584287 0.13020231
v -0.10597002 -0.05735179 0.11892446
v -0.10482099 -0.05458382 0.11984628
v -0.10582898 -0.05458382 0.11843475
v -0.09699763 -0.06302565 0.13185869
v -0.12737848 -0.05630765 0.04833351
v -0.12803803 -0.05771626 0.04833351
v -0.12773937 -0.05807087 0.04608659
v -0.12773937 -0.05973560 0.04608659
v -0.12208962 -0.05627809 0.02404942
v -0.10839667 -0.06584287 -0.00147336
v -0.10643461 -0.06584287 -0.00271205
v -0.09252180 -0.08557330 -0.00472852
v -0.09153040 -0.08835113 -0.00421000
v -0.08980893 -0.09058718 -0.00405157
v -0.08980893 -0.09240951 -0.00229435
v -0.08980893 -0.09312859 -0.00148777
v -0.11654773 -0.05251523 0.00401433
v -0.11437826 -0.05176659 0.00137850
v -0.11054540 -0.06020842 -0.00082521
v -0.12211037 -0.05458382 0.02394860
v -0.08980893 -0.04033023 0.13266528
v -0.09402342 -0.06118361 0.13439369
v -0.09675289 -0.06104571 0.13158503
v -0.10787400 -0.03902012 0.10611986
v -0.10698631 -0.03792673 0.10720011
v -0.10798600 -0.03314926 0.10066098
v -0.10524825 -0.02458923 0.09795315
v -0.10562987 -0.03769031 0.10983593
v -0.11929379 -0.04166004 0.06715873
v -0.10543491 -0.02437252 0.09616713
v -0.10463432 -0.02305256 0.09616713
v -0.12569850 -0.05176659 0.06240561
v -0.12706323 -0.05417995 0.06240561
v -0.09676118 -0.05261373 0.12876197
v -0.09063440 -0.03769031 0.13102330
v -0.09355883 -0.03206572 0.12547800
v -0.09419350 -0.02992817 0.12356235
v -0.10476291 -0.03769031 0.11124746
v -0.12644516 -0.05458382 0.04833351
v -0.12621701 -0.05458382 0.04551045
v -0.12193200 -0.05031858 0.02994040
v -0.12732456 -0.05724344 0.04529440
v -0.12199837 -0.05303730 0.02415025
v -0.12257496 -0.05458382 0.02580663
v -0.10891934 -0.06302565 -0.00177583
v -0.10618157 -0.06311430 -0.00328819
v -0.10494958 -0.06410920 -0.00373469
v -0.09058048 -0.08272653 -0.00642813
v -0.08980893 -0.08514973 -0.00624088
v -0.08980893 -0.08544525 -0.00616886
v -0.08980893 -0.08559300 -0.00612565
v -0.08980893 -0.08810486 -0.00517502
v -0.08980893 -0.08835113 -0.00507421
v -0.08980893 -0.09035076 -0.00418119
v -0.11493826 -0.04894937 0.00329416
v -0.11365235 -0.04724524 0.00163777
v -0.11403812 -0.04894937 0.00136411
v -0.11580937 -0.05165824 0.00316453
v -0.11078599 -0.04727479 -0.00101245
v -0.11076940 -0.04894937 -0.00099805
v -0.10913504 -0.06020842 -0.00184785
v -0.08980893 -0.04013322 0.13260767
v -0.08980893 -0.03782822 0.13193071
v -0.10520676 -0.03598619 0.10930301
v -0.10217449 -0.02792853 0.10868366
v -0.09998842 -0.02421491 0.10961988
v -0.10377566 -0.02305256 0.09942229
v -0.10397892 -0.02305256 0.09893257
v -0.10461358 -0.02305256 0.09626795
v -0.10612350 -0.02305256 0.07365465
v -0.10618157 -0.02305256 0.07171019
v -0.11928549 -0.04166989 0.06521427
v -0.12394384 -0.04887056 0.06240561
v -0.12477346 -0.05027918 0.06051877
v -0.09140596 -0.03488294 0.12907884
v -0.09106996 -0.03325762 0.12866114
v -0.09198254 -0.03222332 0.12720640
v -0.09163825 -0.02973116 0.12631340
v -0.09262965 -0.02889387 0.12464260
v -0.09320210 -0.02305256 0.11954381
v -0.09329335 -0.02314122 0.11950060
v -0.09413128 -0.02305256 0.11818989
v -0.12228459 -0.04694973 0.05114217
v -0.12520072 -0.05241672 0.04833351
v -0.11641914 -0.03893147 0.04654750
v -0.11347812 -0.03908908 0.02717496
v -0.11365649 -0.04165019 0.01736626
v -0.11351130 -0.04185705 0.01579629
v -0.11389293 -0.04692018 0.00329416
v -0.10659224 -0.06020842 -0.00325939
v -0.10518602 -0.06020842 -0.00380671
v -0.09689807 -0.06216866 -0.00670179
v -0.08980893 -0.08272653 -0.00668738
v -0.08980893 -0.08358351 -0.00657216
v -0.10566306 -0.03560202 0.00329416
v -0.10531047 -0.03599604 0.00133530
v -0.10475462 -0.03655751 -0.00053714
v -0.10547639 -0.03843895 -0.00137254
v -0.11034214 -0.04540321 -0.00058036
v -0.09108240 -0.02762317 -0.00662978
v -0.10934244 -0.04626020 -0.00155978
v -0.10511551 -0.04740285 -0.00377790
v -0.10924703 -0.04894937 -0.00181905
v -0.08980893 -0.03488294 0.13066321
v -0.09000804 -0.03488294 0.13047597
v -0.09956532 -0.02305256 0.10902934
v -0.10026635 -0.02305256 0.10744497
v -0.10616913 -0.02305256 0.07083159
v -0.11922742 -0.04173885 0.05677389
v -0.12235925 -0.04682167 0.05396523
v -0.08980893 -0.03261734 0.12951094
v -0.08980893 -0.03411461 0.13027432
v -0.09094136 -0.02785958 0.12570845
v -0.08980893 -0.03075560 0.12854592
v -0.08980893 -0.02884462 0.12740805
v -0.08980893 -0.02305256 0.12341832
v -0.09062196 -0.02305256 0.12249650
v -0.09164655 -0.02305256 0.12132983
v -0.09326017 -0.02305256 0.11947179
v -0.12145496 -0.04541306 0.05396523
v -0.12134296 -0.04554112 0.05114217
v -0.11652700 -0.03877386 0.04833351
v -0.11549411 -0.03736525 0.04833351
v -0.11408790 -0.03546412 0.04833351
v -0.11297620 -0.03405550 0.04833351
v -0.10500351 -0.03068665 0.01619958
v -0.10519017 -0.05822848 -0.00380671
v -0.10080560 -0.05176659 -0.00546310
v -0.09703081 -0.05116572 -0.00667298
v -0.09689807 -0.06099646 -0.00670179
v -0.08980893 -0.06302565 -0.00749397
v -0.10156471 -0.03127768 0.00329416
v -0.09679022 -0.02473699 0.00715426
v -0.09136447 -0.02469759 -0.00425322
v -0.09047678 -0.02575158 -0.00612565
v -0.08980893 -0.02676618 -0.00680261
v -0.09703081 -0.04990486 -0.00667298
v -0.10080560 -0.04894937 -0.00534787
v -0.10252293 -0.04130543 -0.00390753
v -0.10620646 -0.04632915 -0.00307214
v -0.10564647 -0.02305256 0.06521427
v -0.10609031 -0.02382090 0.06240561
v -0.11560196 -0.03727660 0.05114217
v -0.08980893 -0.02703214 0.12618376
v -0.08980893 -0.02305256 -0.00324497
v -0.10136560 -0.02320032 0.03143835
v -0.10254366 -0.02460893 0.03143835
v -0.09567852 -0.02305256 0.00892588
v -0.09700592 -0.02443162 0.00892588
v -0.10123701 -0.02305256 0.03143835
v -0.10066042 -0.02305256 0.02873052
v -0.08980893 -0.02380120 -0.00508860
v -0.08980893 -0.02434297 -0.00557833
v -0.08980893 -0.02634261 -0.00662978
v -0.10537684 -0.02305256 0.06240561
f 1 2 3
f 1 3 4
f 1 4 5
f 1 5 6
f 1 6 7
f 1 7 8
f 1 8 9
f 1 9 18
f 1 18 31
f 1 31 47
f 1 47 71
f 1 71 102
f 1 102 101
f 1 101 100
f 1 100 140
f 1 140 139
f 1 139 138
f 1 138 137
f 1 137 136
f 1 136 135
f 1 135 180
f 1 180 179
f 1 179 217
f 1 217 222
f 1 222 240
f 1 240 239
f 1 239 238
f 1 238 231
f 1 231 202
f 1 202 230
f 1 230 201
f 1 201 200
f 1 200 197
f 1 197 198
f 1 198 190
f 1 190 149
f 1 149 148
f 1 148 107
f 1 107 77
f 1 77 50
f 1 50 34
f 1 34 33
f 1 33 20
f 1 20 19
f 1 19 10
f 1 10 2
f 2 10 11
f 2 11 12
f 2 12 3
f 3 12 4
f 4 12 11
f 4 11 13
f 4 13 14
f 4 14 6
f 4 6 5
f 6 14 15
f 6 15 7
f 7 16 8
f 7 15 16
f 8 16 17
f 8 17 18
f 8 18 9
f 10 19 11
f 11 19 20
f 11 20 21
f 11 21 13
f 13 21 22
f 13 22 14
f 14 23 15
f 14 22 24
f 14 24 25
f 14 25 26
f 14 26 23
f 15 23 27
f 15 27 16
f 16 27 28
f 16 28 17
f 17 28 29
f 17 29 30
f 17 30 18
f 18 30 32
f 18 32 31
f 20 33 22
f 20 22 21
f 22 33 34
f 22 34 24
f 23 35 36
f 23 36 37
f 23 37 27
f 23 26 38
f 23 38 35
f 24 34 39
f 24 39 40
f 24 40 41
f 24 41 26
f 24 26 25
f 26 41 38
f 27 37 42
f 27 42 29
f 27 29 28
f 29 42 43
f 29 43 30
f 30 43 44
f 30 44 32
f 31 45 46
f 31 46 47
f 31 32 45
f 32 44 48
f 32 48 49
f 32 49 45
f 34 50 39
f 35 51 52
f 35 52 53
f 35 53 36
f 35 38 51
f 36 53 54
f 36 54 55
f 36 55 56
f 36 56 57
f 36 57 58
f 36 58 37
f 37 58 42
f 38 41 59
f 38 59 60
f 38 60 61
f 38 61 62
f 38 62 63
f 38 63 53
f 38 53 52
f 38 52 51
f 39 50 40
f 40 50 64
f 40 64 59
f 40 59 41
f 42 58 43
f 43 58 57
f 43 57 44
f 44 57 65
f 44 65 66
f 44 66 67
f 44 67 48
f 45 49 46
f 46 49 68
f 46 68 69
f 46 69 47
f 47 69 70
f 47 70 71
f 48 67 72
f 48 72 73
f 48 73 74
f 48 74 75
f 48 75 76
f 48 76 49
f 49 76 75
f 49 75 68
f 50 77 78
f 50 78 64
f 53 63 79
f 53 79 54
f 54 80 55
f 54 79 81
f 54 81 82
f 54 82 80
f 55 80 56
f 56 80 83
f 56 83 84
f 56 84 85
f 56 85 65
f 56 65 57
f 59 64 86
f 59 86 60
f 60 86 62
f 60 62 61
f 62 87 88
f 62 88 89
f 62 89 81
f 62 81 79
f 62 79 63
f 62 86 90
f 62 90 87
f 64 90 86
f 64 78 90
f 65 85 91
f 65 91 92
f 65 92 66
f 66 92 93
f 66 93 67
f 67 93 94
f 67 94 95
f 67 95 72
f 68 75 73
f 68 73 96
f 68 96 97
f 68 97 98
f 68 98 99
f 68 99 70
f 68 70 69
f 70 99 100
f 70 100 101
f 70 101 102
f 70 102 71
f 72 95 73
f 73 103 104
f 73 104 105
f 73 105 96
f 73 75 74
f 73 95 106
f 73 106 103
f 77 107 108
f 77 108 78
f 78 108 107
f 78 107 109
f 78 109 90
f 80 82 110
f 80 110 111
f 80 111 112
f 80 112 113
f 80 113 83
f 81 89 114
f 81 114 82
f 82 114 111
f 82 111 110
f 83 115 85
f 83 85 84
f 83 113 116
f 83 116 117
f 83 117 115
f 85 115 118
f 85 118 119
f 85 119 91
f 87 90 88
f 88 90 109
f 88 109 120
f 88 120 121
f 88 121 122
f 88 122 89
f 89 122 123
f 89 123 124
f 89 124 114
f 91 125 126
f 91 126 92
f 91 119 125
f 92 126 127
f 92 127 128
f 92 128 93
f 93 128 129
f 93 129 130
f 93 130 106
f 93 106 94
f 94 106 95
f 96 105 131
f 96 131 97
f 97 131 132
f 97 132 133
f 97 133 134
f 97 134 135
f 97 135 136
f 97 136 98
f 98 136 137
f 98 137 99
f 99 137 138
f 99 138 139
f 99 139 140
f 99 140 100
f 103 141 142
f 103 142 143
f 103 143 144
f 103 144 104
f 103 106 129
f 103 129 141
f 104 144 143
f 104 143 145
f 104 145 146
f 104 146 147
f 104 147 105
f 105 147 131
f 106 130 129
f 107 148 109
f 109 148 149
f 109 149 121
f 109 121 120
f 111 114 150
f 111 150 151
f 111 151 112
f 112 151 113
f 113 151 152
f 113 152 153
f 113 153 154
f 113 154 155
f 113 155 117
f 113 117 116
f 114 124 123
f 114 123 151
f 114 151 150
f 115 156 157
f 115 157 158
f 115 158 159
f 115 159 118
f 115 117 156
f 117 155 154
f 117 154 153
f 117 153 193
f 117 193 192
f 117 192 168
f 117 168 205
f 117 205 166
f 117 166 204
f 117 204 203
f 117 203 202
f 117 202 231
f 117 231 234
f 117 234 237
f 117 237 236
f 117 236 241
f 117 241 227
f 117 227 194
f 117 194 157
f 117 157 156
f 118 159 160
f 118 160 119
f 119 160 125
f 121 149 161
f 121 161 122
f 122 161 162
f 122 162 163
f 122 163 164
f 122 164 123
f 123 164 165
f 123 165 166
f 123 166 167
f 123 167 168
f 123 168 152
f 123 152 151
f 125 160 169
f 125 169 170
f 125 170 126
f 126 170 169
f 126 169 127
f 127 169 171
f 127 171 172
f 127 172 173
f 127 173 174
f 127 174 175
f 127 175 129
f 127 129 128
f 129 175 141
f 131 147 176
f 131 176 132
f 132 176 133
f 133 176 177
f 133 177 178
f 133 178 134
f 134 178 179
f 134 179 180
f 134 180 135
f 141 175 142
f 142 175 181
f 142 181 182
f 142 182 183
f 142 183 184
f 142 184 185
f 142 185 145
f 142 145 143
f 145 185 184
f 145 184 186
f 145 186 187
f 145 187 188
f 145 188 189
f 145 189 176
f 145 176 147
f 145 147 146
f 149 190 191
f 149 191 161
f 152 192 193
f 152 193 153
f 152 168 192
f 157 194 195
f 157 195 158
f 158 195 159
f 159 195 196
f 159 196 160
f 160 196 169
f 161 191 162
f 162 197 164
f 162 164 163
f 162 191 190
f 162 190 198
f 162 198 197
f 164 199 165
f 164 197 200
f 164 200 201
f 164 201 199
f 165 199 202
f 165 202 203
f 165 203 204
f 165 204 166
f 166 205 167
f 167 205 168
f 169 196 206
f 169 206 195
f 169 195 207
f 169 207 208
f 169 208 171
f 171 208 209
f 171 209 210
f 171 210 172
f 172 210 211
f 172 211 212
f 172 212 173
f 173 212 174
f 174 212 181
f 174 181 175
f 176 188 213
f 176 213 177
f 176 189 188
f 177 213 214
f 177 214 178
f 178 215 223
f 178 223 216
f 178 216 217
f 178 217 179
f 178 214 215
f 181 218 182
f 181 212 219
f 181 219 218
f 182 218 220
f 182 220 183
f 183 220 221
f 183 221 184
f 184 221 186
f 186 221 222
f 186 222 223
f 186 223 224
f 186 224 188
f 186 188 225
f 186 225 187
f 187 225 226
f 187 226 188
f 188 226 225
f 188 224 214
f 188 214 213
f 194 227 228
f 194 228 210
f 194 210 229
f 194 229 195
f 195 229 209
f 195 209 208
f 195 208 207
f 195 206 196
f 199 201 230
f 199 230 202
f 209 229 210
f 210 228 211
f 211 232 233
f 211 233 212
f 211 228 232
f 212 234 235
f 212 235 219
f 212 233 232
f 212 232 236
f 212 236 237
f 212 237 234
f 214 224 223
f 214 223 215
f 216 223 217
f 217 223 222
f 218 219 220
f 219 235 234
f 219 234 220
f 220 231 238
f 220 238 239
f 220 239 221
f 220 234 231
f 221 239 240
f 221 240 222
f 227 241 228
f 228 241 236
f 228 236 232

