# https://github.com/mikedh/trimesh
v -0.02224216 -0.17472312 0.05685089
v -0.02181519 -0.17466375 0.05687112
v -0.02224216 -0.17458950 0.05780179
v -0.02224216 -0.17455982 0.05474675
v -0.02198437 -0.17454498 0.05474675
v -0.01773617 -0.17421835 0.05529302
v -0.01773617 -0.17421835 0.05541441
v -0.02224216 -0.17442621 0.05848968
v -0.01635591 -0.17006136 0.07366374
v -0.02224216 -0.17374327 0.05333050
v 0.00135383 -0.16879942 0.04106987
v 0.00334635 -0.16885881 0.04096871
v 0.00518848 -0.16881427 0.04092824
v 0.00334635 -0.16937844 0.04270866
v 0.00518848 -0.16909635 0.04285029
v 0.00518848 -0.16894788 0.04452955
v 0.00518848 -0.16888850 0.04509605
v -0.01470981 -0.16868065 0.07839805
v -0.01635591 -0.16937844 0.07647600
v -0.01917014 -0.17012075 0.07366374
v -0.02198437 -0.16964567 0.07366374
v -0.02224216 -0.16967535 0.07342095
v -0.02224216 -0.17046222 0.04819156
v -0.00791324 -0.16571138 0.03854086
v -0.02224216 -0.16915574 0.04622905
v -0.00228479 -0.16591922 0.03829807
v -0.00693310 -0.16023306 0.03275448
v 0.00518848 -0.16755232 0.03953223
v 0.00518848 -0.15188940 0.12315139
v 0.00518848 -0.15183002 0.12337395
v -0.01635591 -0.16832434 0.07997615
v -0.01635591 -0.16876973 0.07858013
v -0.01820074 -0.16874004 0.07831712
v -0.02224216 -0.16958628 0.07366374
v -0.02224216 -0.15802096 0.03334122
v -0.01072478 -0.16274210 0.03589046
v -0.00900885 -0.16292026 0.03568814
v -0.02224216 -0.16905181 0.04610765
v -0.00147919 -0.15738256 0.02996246
v 0.00518848 -0.16557776 0.03761018
v 0.00518848 -0.16614192 0.03815645
v -0.01917014 -0.15218633 0.02662417
v -0.01635591 -0.15240902 0.02646231
v -0.01072478 -0.15273565 0.02617906
v -0.00509902 -0.15145886 0.02456050
v -0.00509902 -0.15297319 0.02595651
v 0.00518848 -0.15163701 0.12394044
v -0.00353615 -0.15736771 0.10896871
v -0.00408396 -0.15736771 0.10896871
v -0.01519317 -0.16311326 0.09221655
v -0.02224216 -0.16882911 0.07554532
v -0.02224216 -0.15710048 0.03234985
v -0.00033256 -0.15738256 0.02996246
v 0.00518848 -0.16026276 0.03271402
v -0.02224216 -0.15049384 0.02559233
v -0.01917014 -0.15071654 0.02520792
v -0.02224216 -0.15188940 0.02698834
v -0.00791324 -0.15128069 0.02466166
v 0.00005413 -0.13218826 0.01015525
v -0.00228479 -0.15126585 0.02468189
v 0.00518848 -0.15821395 0.03095383
v 0.00518848 -0.15989160 0.03239031
v -0.02224216 -0.13959660 0.01660929
v -0.01072478 -0.12605671 0.00491515
v -0.00704051 -0.11826236 -0.00119494
v -0.00509902 -0.11817328 -0.00113424
v 0.00518848 -0.15043446 0.12620644
v 0.00334635 -0.15181517 0.12329302
v -0.00596101 -0.15720440 0.10868546
v -0.01828130 -0.16052999 0.09243911
v -0.02224216 -0.16508783 0.08191843
v -0.02224216 -0.16648339 0.07959174
v -0.02224216 -0.16666154 0.07928826
v -0.00660280 -0.15459144 0.11174051
v -0.02224216 -0.14908344 0.02423678
v 0.00193118 -0.13198041 0.01033734
v 0.00518848 -0.15715987 0.03014455
v -0.02224216 -0.13946298 0.01650813
v -0.02224216 -0.13818619 0.01555722
v -0.02224216 -0.13799320 0.01541560
v -0.01353901 -0.12570040 0.00513770
v -0.02224216 -0.09159827 -0.01725920
v -0.02224216 -0.09030664 -0.01814941
v -0.02198437 -0.09030664 -0.01814941
v -0.01917014 -0.09020271 -0.01806849
v -0.00228479 -0.08187389 -0.02100214
v -0.00073535 -0.11233866 -0.00378464
v 0.00518848 -0.11832175 0.00161732
v 0.00236889 -0.12371098 0.00455097
v 0.00334635 -0.12837274 0.00803089
v 0.00518848 -0.14994453 0.12679317
v 0.00334635 -0.14961791 0.12642899
v 0.00334635 -0.15102831 0.12470926
v 0.00189895 -0.15171125 0.12294907
v -0.01926413 -0.15876327 0.09343048
v -0.02098542 -0.15782795 0.09254027
v -0.02015834 -0.15969859 0.09122518
v -0.02224216 -0.16352896 0.08396187
v -0.02224216 -0.16490967 0.08216121
v -0.00961305 -0.15193394 0.11190236
v 0.00165996 -0.14911313 0.12592319
v -0.00142280 -0.14652986 0.12626714
v -0.00346365 -0.14308550 0.12831057
v 0.00518848 -0.12809066 0.00829391
v -0.02224216 -0.08836176 -0.01912056
v -0.02198437 -0.08836176 -0.01912056
v -0.01917014 -0.08836176 -0.01903963
v -0.00509902 -0.07991418 -0.02221606
v -0.00228479 -0.07991418 -0.02197328
v 0.00518848 -0.07701913 -0.02258024
v -0.00003985 -0.08162151 -0.02082005
v 0.00518848 -0.07937970 -0.02124492
v 0.00518848 -0.10972569 -0.00388580
v 0.00518848 -0.12592309 0.00679673
v 0.00518848 -0.14897951 0.12772384
v 0.00309392 -0.14756911 0.12796663
v -0.00158660 -0.14373874 0.12887707
v -0.00946536 -0.13497938 0.13150724
v -0.02224216 -0.15747164 0.09057775
v -0.02224216 -0.15888204 0.08904012
v -0.02224216 -0.16342504 0.08408326
v -0.01502399 -0.12644271 0.13421834
v -0.02224216 -0.11542670 0.13567505
v -0.02224216 -0.08540733 -0.01984891
v -0.02067124 -0.08432355 -0.02067842
v -0.01917014 -0.08579334 -0.02019285
v -0.01072478 -0.07991418 -0.02229699
v -0.00509902 -0.07730121 -0.02312651
v 0.00205739 -0.07572749 -0.02345022
v 0.00518848 -0.07508910 -0.02332882
v 0.00518848 -0.14829658 0.12827011
v 0.00386730 -0.14669317 0.12887707
v -0.00791324 -0.13546931 0.13183096
v -0.01353901 -0.12694749 0.13450159
v -0.02127812 -0.09300868 0.14860334
v -0.02224216 -0.11037894 0.13931682
v -0.02224216 -0.11358575 0.13759710
v -0.02224216 -0.08286860 -0.01960612
v -0.02067124 -0.08390785 -0.02067842
v -0.00656520 -0.07577204 -0.02347045
v -0.01917014 -0.08438293 -0.02069866
v -0.00509902 -0.07589081 -0.02349068
v -0.00319780 -0.07589081 -0.02349068
v 0.00518848 -0.07375293 -0.02355138
v 0.00518848 -0.14700494 0.12911986
v 0.00518848 -0.14206110 0.13211420
v 0.00518848 -0.13826043 0.13440043
v 0.00518848 -0.13607801 0.13551319
v -0.01795100 -0.07862254 0.15675687
v -0.01895263 -0.09094503 0.15038377
v -0.01982805 -0.07780599 0.15641293
v -0.02184473 -0.07695975 0.15600828
v -0.02212400 -0.09130134 0.14906868
v -0.02224216 -0.09130134 0.14900799
v -0.02224216 -0.08225990 -0.01948473
v -0.00656520 -0.07565326 -0.02347045
v -0.02224216 -0.07684097 -0.01839220
v -0.02224216 -0.07480702 -0.01796733
v -0.02224216 -0.05167637 -0.01258559
v -0.01777645 -0.06723537 -0.01782570
v -0.00509902 -0.07548995 -0.02349068
v 0.00518848 -0.07263945 -0.02355138
v 0.00518848 -0.08283891 0.15983214
v 0.00334635 -0.08555579 0.15831474
v 0.00053212 -0.08555579 0.15786964
v -0.00115158 -0.08714436 0.15679733
v -0.01072478 -0.08555579 0.15525970
v -0.01826250 -0.02305256 0.18028677
v -0.01893920 -0.02305256 0.18012492
v -0.02224216 -0.05755553 0.16466761
v -0.02224216 -0.07736059 0.15564411
v -0.02224216 -0.07975086 0.15451111
v 0.00195803 -0.07298092 -0.02345022
v 0.00383508 -0.07269883 -0.02353115
v -0.02224216 -0.04333270 -0.01046122
v -0.02224216 -0.04302093 -0.01038030
v -0.02224216 -0.03743869 -0.00866057
v -0.02224216 -0.02918411 -0.00611133
v -0.02224216 -0.02645238 -0.00524135
v -0.01571144 -0.02305256 -0.00370371
v -0.01353901 -0.02305256 -0.00364302
v -0.01317649 -0.02305256 -0.00362278
v -0.01145250 -0.02441842 -0.00400720
v -0.01062005 -0.02305256 -0.00317768
v -0.00515809 -0.02305256 -0.00176143
v -0.00285677 -0.02305256 -0.00113424
v -0.00153290 -0.02305256 -0.00070936
v 0.00518848 -0.02305256 0.00179941
v 0.00518848 -0.02768463 0.18196604
v -0.00560654 -0.02483412 0.18196604
v -0.00791324 -0.02450750 0.18182441
v 0.00043813 -0.08263106 0.15908356
v -0.01088053 -0.02360187 0.18160186
v -0.01039985 -0.02305256 0.18192557
v -0.02071958 -0.02305256 0.17963935
v -0.02153323 -0.02305256 0.17933586
v -0.02224216 -0.02305256 0.17893123
v -0.02224216 -0.02428480 -0.00418928
v -0.01635591 -0.02305256 -0.00368348
v -0.01111147 -0.02305256 -0.00327884
v 0.00518848 -0.02305256 0.18309903
v 0.00518848 -0.02636329 0.18230998
v -0.00791324 -0.02305256 0.18228975
v -0.00810390 -0.02305256 0.18226951
v -0.02224216 -0.02305256 -0.00348116
v 0.00518848 -0.02326041 0.18305857
v 0.00518848 -0.02440358 0.18279555
f 1 2 3
f 1 3 8
f 1 8 22
f 1 22 34
f 1 34 51
f 1 51 73
f 1 73 72
f 1 72 71
f 1 71 99
f 1 99 98
f 1 98 121
f 1 121 120
f 1 120 119
f 1 119 123
f 1 123 137
f 1 137 136
f 1 136 154
f 1 154 172
f 1 172 171
f 1 171 170
f 1 170 197
f 1 197 205
f 1 205 198
f 1 198 179
f 1 179 178
f 1 178 177
f 1 177 176
f 1 176 175
f 1 175 159
f 1 159 158
f 1 158 157
f 1 157 155
f 1 155 138
f 1 138 124
f 1 124 105
f 1 105 83
f 1 83 82
f 1 82 80
f 1 80 79
f 1 79 78
f 1 78 63
f 1 63 75
f 1 75 55
f 1 55 57
f 1 57 52
f 1 52 35
f 1 35 38
f 1 38 25
f 1 25 23
f 1 23 10
f 1 10 4
f 1 4 5
f 1 5 6
f 1 6 7
f 1 7 2
f 2 7 3
f 3 7 9
f 3 9 8
f 4 10 11
f 4 11 12
f 4 12 13
f 4 13 5
f 5 13 6
f 6 13 14
f 6 14 15
f 6 15 7
f 7 15 16
f 7 16 17
f 7 17 18
f 7 18 9
f 8 9 19
f 8 19 20
f 8 20 21
f 8 21 22
f 9 18 19
f 10 23 11
f 11 24 12
f 11 23 25
f 11 25 24
f 12 24 26
f 12 26 27
f 12 27 28
f 12 28 13
f 13 15 14
f 13 28 41
f 13 41 40
f 13 40 54
f 13 54 62
f 13 62 61
f 13 61 77
f 13 77 104
f 13 104 114
f 13 114 88
f 13 88 113
f 13 113 112
f 13 112 110
f 13 110 130
f 13 130 144
f 13 144 162
f 13 162 188
f 13 188 201
f 13 201 206
f 13 206 207
f 13 207 202
f 13 202 189
f 13 189 163
f 13 163 148
f 13 148 147
f 13 147 146
f 13 146 145
f 13 145 131
f 13 131 115
f 13 115 91
f 13 91 67
f 13 67 47
f 13 47 30
f 13 30 29
f 13 29 17
f 13 17 16
f 13 16 15
f 17 29 18
f 18 29 30
f 18 30 31
f 18 31 32
f 18 32 19
f 19 32 20
f 20 32 33
f 20 33 21
f 21 33 34
f 21 34 22
f 24 35 36
f 24 36 37
f 24 37 26
f 24 25 38
f 24 38 35
f 26 37 27
f 27 39 40
f 27 40 41
f 27 41 28
f 27 37 42
f 27 42 43
f 27 43 44
f 27 44 45
f 27 45 46
f 27 46 39
f 30 47 31
f 31 33 32
f 31 47 48
f 31 48 49
f 31 49 50
f 31 50 33
f 33 51 34
f 33 50 51
f 35 52 37
f 35 37 36
f 37 52 42
f 39 53 40
f 39 46 45
f 39 45 53
f 40 53 54
f 42 55 56
f 42 56 43
f 42 52 57
f 42 57 55
f 43 56 44
f 44 56 58
f 44 58 45
f 45 59 60
f 45 60 61
f 45 61 62
f 45 62 54
f 45 54 53
f 45 58 63
f 45 63 64
f 45 64 65
f 45 65 66
f 45 66 59
f 47 67 68
f 47 68 49
f 47 49 48
f 49 69 50
f 49 68 69
f 50 70 71
f 50 71 72
f 50 72 73
f 50 73 51
f 50 69 74
f 50 74 70
f 55 75 56
f 56 75 63
f 56 63 58
f 59 76 77
f 59 77 61
f 59 61 60
f 59 66 76
f 63 78 64
f 64 78 79
f 64 79 80
f 64 80 81
f 64 81 65
f 65 82 83
f 65 83 84
f 65 84 85
f 65 85 66
f 65 81 82
f 66 85 86
f 66 86 87
f 66 87 88
f 66 88 89
f 66 89 90
f 66 90 76
f 67 91 92
f 67 92 93
f 67 93 68
f 68 93 94
f 68 94 69
f 69 94 74
f 70 95 96
f 70 96 97
f 70 97 98
f 70 98 99
f 70 99 71
f 70 74 100
f 70 100 95
f 74 94 101
f 74 101 102
f 74 102 103
f 74 103 100
f 76 90 104
f 76 104 77
f 80 82 81
f 83 105 106
f 83 106 84
f 84 106 107
f 84 107 85
f 85 107 86
f 86 107 108
f 86 108 109
f 86 109 110
f 86 110 111
f 86 111 87
f 87 111 110
f 87 110 112
f 87 112 113
f 87 113 88
f 88 114 89
f 89 114 104
f 89 104 90
f 91 115 92
f 92 101 94
f 92 94 93
f 92 115 116
f 92 116 117
f 92 117 101
f 95 100 118
f 95 118 96
f 96 119 120
f 96 120 121
f 96 121 98
f 96 98 97
f 96 118 122
f 96 122 123
f 96 123 119
f 100 103 118
f 101 117 103
f 101 103 102
f 103 117 118
f 105 124 125
f 105 125 126
f 105 126 106
f 106 126 107
f 107 126 108
f 108 126 127
f 108 127 128
f 108 128 129
f 108 129 109
f 109 129 110
f 110 129 130
f 115 131 116
f 116 131 117
f 117 131 132
f 117 132 133
f 117 133 118
f 118 133 122
f 122 133 134
f 122 134 135
f 122 135 136
f 122 136 137
f 122 137 123
f 124 138 139
f 124 139 125
f 125 139 156
f 125 156 140
f 125 140 127
f 125 127 141
f 125 141 126
f 126 141 127
f 127 140 142
f 127 142 128
f 128 142 143
f 128 143 129
f 129 143 144
f 129 144 130
f 131 145 132
f 132 145 133
f 133 145 146
f 133 146 147
f 133 147 134
f 134 147 148
f 134 148 149
f 134 149 150
f 134 150 135
f 135 150 149
f 135 149 151
f 135 151 152
f 135 152 153
f 135 153 136
f 136 153 154
f 138 155 139
f 139 155 157
f 139 157 158
f 139 158 159
f 139 159 160
f 139 160 156
f 140 156 161
f 140 161 142
f 142 161 162
f 142 162 144
f 142 144 143
f 148 163 164
f 148 164 165
f 148 165 166
f 148 166 167
f 148 167 149
f 149 167 166
f 149 166 165
f 149 165 168
f 149 168 169
f 149 169 170
f 149 170 151
f 151 170 152
f 152 171 172
f 152 172 153
f 152 170 171
f 153 172 154
f 156 173 174
f 156 174 161
f 156 160 159
f 156 159 175
f 156 175 176
f 156 176 177
f 156 177 178
f 156 178 179
f 156 179 173
f 161 174 162
f 162 174 179
f 162 179 180
f 162 180 181
f 162 181 182
f 162 182 183
f 162 183 184
f 162 184 185
f 162 185 186
f 162 186 187
f 162 187 188
f 163 189 190
f 163 190 191
f 163 191 192
f 163 192 165
f 163 165 164
f 165 192 168
f 168 193 194
f 168 194 204
f 168 204 203
f 168 203 201
f 168 201 188
f 168 188 187
f 168 187 186
f 168 186 185
f 168 185 184
f 168 184 200
f 168 200 182
f 168 182 181
f 168 181 180
f 168 180 199
f 168 199 205
f 168 205 197
f 168 197 196
f 168 196 195
f 168 195 169
f 168 192 193
f 169 195 170
f 170 195 196
f 170 196 197
f 173 179 174
f 179 198 180
f 180 198 199
f 182 200 183
f 183 200 184
f 189 202 203
f 189 203 190
f 190 203 204
f 190 204 191
f 191 204 194
f 191 194 193
f 191 193 192
f 198 205 199
f 201 203 206
f 202 207 203
f 203 207 206

