# https://github.com/mikedh/trimesh
v -0.04958871 -0.11761654 -0.00250553
v -0.04906940 -0.11761654 -0.00244716
v -0.04958871 -0.11761654 0.10506979
v -0.04958871 -0.10919316 -0.00947225
v -0.04718491 -0.11761654 -0.00223310
v -0.04855812 -0.11500622 0.11145270
v -0.04958871 -0.11475630 0.11082998
v -0.02224483 -0.11761654 0.13202200
v -0.04958871 -0.10628664 -0.01186584
v -0.04450272 -0.11761654 -0.00182443
v -0.04958871 -0.11338634 0.11304843
v -0.02224483 -0.11543202 0.13568050
v -0.02224483 -0.11761654 0.00376061
v -0.04958871 -0.10487966 -0.01301398
v -0.04329547 -0.11761654 -0.00157145
v -0.04958871 -0.11286798 0.11378791
v -0.03747603 -0.10102897 0.14262775
v -0.04310541 -0.09539178 0.14543000
v -0.02224483 -0.11358073 0.13760704
v -0.02224483 -0.09157812 -0.01725627
v -0.04958871 -0.10170469 -0.01492106
v -0.04928890 -0.10138072 -0.01513512
v -0.04780861 -0.10138072 -0.01513512
v -0.04704839 -0.10236190 -0.01437618
v -0.04731875 -0.10450940 -0.01281938
v -0.04958871 -0.09064322 0.14385373
v -0.03605998 -0.09791880 0.14525486
v -0.03605998 -0.09651182 0.14601380
v -0.03219731 -0.05327490 0.16520144
v -0.03407377 -0.05293241 0.16500684
v -0.03626610 -0.05190494 0.16487062
v -0.04359260 -0.08746825 0.14848523
v -0.04731875 -0.09057843 0.14587758
v -0.04890076 -0.08992122 0.14552730
v -0.04958871 -0.09022668 0.14437916
v -0.02224483 -0.11074825 0.13910547
v -0.02224483 -0.09030073 -0.01815144
v -0.04958871 -0.10099194 -0.01503783
v -0.04923001 -0.09961273 -0.01513512
v -0.02224483 -0.08539481 -0.01986393
v -0.02224483 -0.08834762 -0.01912444
v -0.02224483 -0.11037800 0.13930008
v -0.02224483 -0.10832306 0.14035092
v -0.02224483 -0.09129118 0.14901065
v -0.02224483 -0.07735095 0.15564654
v -0.02224483 -0.05755138 0.16467602
v -0.02379472 -0.05612589 0.16518198
v -0.02567118 -0.05582043 0.16506522
v -0.02224483 -0.02305256 0.17894026
v -0.03547108 -0.05105335 0.16539604
v -0.03386765 -0.02305256 0.17604071
v -0.03548178 -0.02305256 0.17559312
v -0.03605998 -0.02305256 0.17541798
v -0.04958871 -0.02535742 0.16874318
v -0.04958871 -0.08823654 0.14593596
v -0.04958871 -0.08881044 0.14570244
v -0.04958871 -0.09961273 -0.01501837
v -0.04958871 -0.02924513 -0.01046470
v -0.02224483 -0.08285854 -0.01959148
v -0.02224483 -0.02305256 -0.00347854
v -0.04951911 -0.02305256 0.16959942
v -0.04958871 -0.02311736 0.16954104
v -0.04958871 -0.02663481 -0.00991983
v -0.04731875 -0.02924513 -0.01056201
v -0.02224483 -0.08225687 -0.01949419
v -0.02224483 -0.02427441 -0.00419857
v -0.02768952 -0.02375605 -0.00583321
v -0.02766810 -0.02305256 -0.00540509
v -0.04958871 -0.02305256 0.16956050
v -0.04958871 -0.02619976 -0.00982253
v -0.04435817 -0.02617199 -0.00970576
v -0.04450272 -0.02924513 -0.01042579
v -0.02224483 -0.07683258 -0.01840442
v -0.03178775 -0.04188020 -0.01219665
v -0.02224483 -0.02617199 -0.00511318
v -0.02867459 -0.02479277 -0.00666999
v -0.03043327 -0.02309884 -0.00602781
v -0.03047343 -0.02305256 -0.00600835
v -0.04958871 -0.02305256 -0.00871330
v -0.04958871 -0.02373754 -0.00898574
v -0.04519870 -0.02494088 -0.00939441
v -0.04168936 -0.02924513 -0.01019227
v -0.04332223 -0.02505195 -0.00935548
v -0.02224483 -0.07480542 -0.01795684
v -0.02576219 -0.04692497 -0.01244964
v -0.03736895 -0.02776410 -0.00941386
v -0.02224483 -0.02644043 -0.00522995
v -0.03043327 -0.02450582 -0.00684513
v -0.02393124 -0.02832874 -0.00643647
v -0.02224483 -0.04332420 -0.01046470
v -0.04512642 -0.02305256 -0.00855762
v -0.04729466 -0.02305256 -0.00869384
v -0.04958871 -0.02318215 -0.00877168
v -0.04728663 -0.02384862 -0.00900520
v -0.02224483 -0.05167353 -0.01258585
v -0.02224483 -0.02911554 -0.00608619
v -0.02224483 -0.03767777 -0.00873276
f 1 2 5
f 1 5 10
f 1 10 15
f 1 15 13
f 1 13 8
f 1 8 3
f 1 3 7
f 1 7 11
f 1 11 16
f 1 16 26
f 1 26 35
f 1 35 56
f 1 56 55
f 1 55 54
f 1 54 62
f 1 62 69
f 1 69 79
f 1 79 93
f 1 93 80
f 1 80 70
f 1 70 63
f 1 63 58
f 1 58 57
f 1 57 38
f 1 38 21
f 1 21 14
f 1 14 9
f 1 9 4
f 1 4 2
f 2 4 5
f 3 6 7
f 3 8 6
f 4 9 5
f 5 9 10
f 6 11 7
f 6 8 12
f 6 12 11
f 8 13 20
f 8 20 37
f 8 37 41
f 8 41 40
f 8 40 59
f 8 59 65
f 8 65 73
f 8 73 84
f 8 84 95
f 8 95 90
f 8 90 97
f 8 97 96
f 8 96 87
f 8 87 75
f 8 75 66
f 8 66 60
f 8 60 49
f 8 49 46
f 8 46 45
f 8 45 44
f 8 44 43
f 8 43 42
f 8 42 36
f 8 36 19
f 8 19 12
f 9 14 10
f 10 14 15
f 11 12 17
f 11 17 18
f 11 18 16
f 12 19 17
f 13 15 20
f 14 21 22
f 14 22 23
f 14 23 24
f 14 24 25
f 14 25 15
f 15 25 20
f 16 18 26
f 17 19 18
f 18 19 27
f 18 27 28
f 18 28 29
f 18 29 30
f 18 30 31
f 18 31 32
f 18 32 33
f 18 33 34
f 18 34 35
f 18 35 26
f 19 36 28
f 19 28 27
f 20 25 24
f 20 24 37
f 21 38 22
f 22 38 39
f 22 39 40
f 22 40 41
f 22 41 23
f 23 41 37
f 23 37 24
f 28 36 42
f 28 42 43
f 28 43 44
f 28 44 45
f 28 45 46
f 28 46 47
f 28 47 48
f 28 48 29
f 29 48 49
f 29 49 30
f 30 49 50
f 30 50 31
f 31 50 51
f 31 51 52
f 31 52 53
f 31 53 54
f 31 54 55
f 31 55 32
f 32 55 33
f 33 55 34
f 34 55 56
f 34 56 35
f 38 57 39
f 39 57 58
f 39 58 40
f 40 58 59
f 46 49 47
f 47 49 48
f 49 51 50
f 49 60 68
f 49 68 78
f 49 78 91
f 49 91 92
f 49 92 79
f 49 79 69
f 49 69 61
f 49 61 53
f 49 53 52
f 49 52 51
f 53 61 54
f 54 61 62
f 58 63 64
f 58 64 59
f 59 64 65
f 60 66 67
f 60 67 68
f 61 69 62
f 63 70 64
f 64 70 71
f 64 71 72
f 64 72 65
f 65 72 74
f 65 74 73
f 66 75 67
f 67 76 68
f 67 75 76
f 68 76 77
f 68 77 78
f 70 80 81
f 70 81 71
f 71 82 72
f 71 81 83
f 71 83 82
f 72 82 74
f 73 74 85
f 73 85 84
f 74 82 86
f 74 86 85
f 75 87 76
f 76 86 83
f 76 83 88
f 76 88 77
f 76 87 89
f 76 89 90
f 76 90 85
f 76 85 86
f 77 88 78
f 78 88 91
f 79 92 93
f 80 93 94
f 80 94 81
f 81 94 92
f 81 92 83
f 82 83 86
f 83 92 91
f 83 91 88
f 84 85 95
f 85 90 95
f 87 96 89
f 89 96 97
f 89 97 90
f 92 94 93

