# https://github.com/mikedh/trimesh
v 0.08794275 -0.02304403 0.00055828
v 0.08794275 -0.01238021 -0.00604329
v 0.08941797 0.00848675 -0.01797816
v 0.09202131 0.01156647 -0.01781555
v 0.09739575 -0.01610828 0.00494848
v 0.09352546 -0.02304403 0.00600538
v 0.08794275 -0.02304403 0.14384163
v 0.08794275 0.00765071 -0.01827084
v 0.08794275 0.01333239 -0.02140902
v 0.08794275 0.01357126 -0.02150658
v 0.09486762 0.01713724 -0.01784808
v 0.10357433 0.01399782 -0.00692133
v 0.09825774 -0.01741353 0.00681838
v 0.09615193 -0.02304403 0.00889967
v 0.08797167 -0.02304403 0.14382538
v 0.09584532 0.05519429 0.13753274
v 0.08794275 0.05237904 0.14101238
v 0.08794275 0.01521776 -0.02210820
v 0.08794275 0.01558459 -0.02223828
v 0.09486762 0.01733346 -0.01784808
v 0.10310573 0.01861312 -0.00923026
v 0.10393301 0.01579787 -0.00740914
v 0.10614874 0.01428787 -0.00383194
v 0.11771911 -0.00310695 0.02389141
v 0.10371318 -0.02304403 0.01828171
v 0.09652219 -0.02304403 0.00935495
v 0.09725112 0.05519429 0.13671974
v 0.13269119 -0.02304403 0.11485000
v 0.13417799 -0.01912828 0.11444350
v 0.13434575 -0.01725144 0.11452480
v 0.13434575 -0.01621919 0.11452480
v 0.09550977 0.05800954 0.13737014
v 0.08794275 0.05254113 0.14099613
v 0.08794275 0.01827188 -0.02150658
v 0.08977665 0.01785385 -0.02106756
v 0.09438167 0.01921029 -0.01758791
v 0.10278754 0.02141984 -0.00888880
v 0.10557022 0.02141984 -0.00605956
v 0.10682561 0.02141984 -0.00466120
v 0.10434954 0.01861312 -0.00781564
v 0.10575534 0.01861312 -0.00607582
v 0.10533881 0.01579787 -0.00552298
v 0.10922646 0.01932973 -0.00140919
v 0.10997853 0.01274375 0.00302980
v 0.11147690 0.01298262 0.00540376
v 0.12622913 0.02141984 0.02646050
v 0.12340596 -0.00390887 0.03504579
v 0.12313406 -0.00557243 0.03545229
v 0.12274645 -0.01046072 0.03886690
v 0.11496537 -0.02304403 0.03631407
v 0.11167360 0.05083491 0.12569544
v 0.09691557 0.05800954 0.13642706
v 0.13434575 0.02622282 0.11172808
v 0.13542758 0.02711858 0.11071996
v 0.13413170 0.02809965 0.11159800
v 0.13381930 -0.02304403 0.11367928
v 0.13726148 -0.01710642 0.11195572
v 0.13741769 -0.01516986 0.11210206
v 0.09342711 0.05800954 0.13795550
v 0.09500646 0.05951100 0.13707746
v 0.08794275 0.05463977 0.14023191
v 0.08794275 0.01966244 -0.02035212
v 0.09060972 0.02081413 -0.01853099
v 0.09250148 0.02031080 -0.01805945
v 0.09560812 0.02078854 -0.01570175
v 0.10078587 0.02304074 -0.00958798
v 0.10646114 0.02311752 -0.00414087
v 0.10909918 0.02304927 -0.00119781
v 0.10823140 0.02141984 -0.00288885
v 0.10929010 0.02141984 -0.00149049
v 0.12567375 0.02423508 0.02455807
v 0.12653575 0.02423508 0.02595643
v 0.13579205 0.02423508 0.04551725
v 0.13495319 0.02124922 0.04532213
v 0.12593987 -0.00570039 0.04094818
v 0.12506053 -0.00667293 0.03995632
v 0.12610765 -0.00882276 0.04353352
v 0.12372993 -0.00953084 0.03982624
v 0.12521673 -0.00967587 0.04263922
v 0.12574317 -0.01365134 0.04709447
v 0.11535876 -0.02304403 0.03699699
v 0.11768441 0.04851447 0.12042719
v 0.11439263 0.05058752 0.12260604
v 0.09792799 0.05969868 0.13455716
v 0.09835030 0.05800954 0.13502870
v 0.13734827 0.02705033 0.10912647
v 0.13753917 0.03549608 0.10641105
v 0.13720942 0.03703167 0.10615089
v 0.13746976 0.02423508 0.10927281
v 0.13405071 -0.02304403 0.11338660
v 0.13461766 -0.02304403 0.11226466
v 0.13478543 -0.02304403 0.11176060
v 0.13513254 -0.02304403 0.11024842
v 0.13727884 -0.01717466 0.11024842
v 0.13898548 -0.01235462 0.10743543
v 0.13966813 -0.01023891 0.10743543
v 0.14006730 -0.00883129 0.10743543
v 0.13993425 -0.00841327 0.10894761
v 0.14002681 -0.00672412 0.10904517
v 0.14000366 -0.00390887 0.10899639
v 0.14236402 0.01298262 0.10576065
v 0.09342711 0.05965603 0.13717502
v 0.09606515 0.06016789 0.13553275
v 0.09328248 0.06125987 0.13530512
v 0.08794275 0.05612417 0.13940265
v 0.08794275 0.02122362 -0.01893749
v 0.09060972 0.02222175 -0.01724645
v 0.09350810 0.02147955 -0.01644971
v 0.09451472 0.02266537 -0.01475867
v 0.09897511 0.02479813 -0.00783190
v 0.10178092 0.02349288 -0.00788068
v 0.09351388 0.02374028 -0.01373429
v 0.10471979 0.02503700 -0.00233601
v 0.10743884 0.02361232 -0.00220593
v 0.12532664 0.02821909 0.02792390
v 0.12632170 0.02634225 0.02633042
v 0.13423583 0.02845796 0.04128964
v 0.13423583 0.02844942 0.04128964
v 0.13588461 0.02705033 0.04551725
v 0.13673504 0.02705033 0.04772861
v 0.13720942 0.02504553 0.04915949
v 0.13677553 0.02415831 0.04826519
v 0.13429368 -0.00552124 0.06086671
v 0.12638533 -0.00667293 0.04263922
v 0.12612499 -0.01177450 0.04623269
v 0.12566219 -0.01069959 0.04434653
v 0.11711745 -0.02304403 0.04041160
v 0.13139530 -0.01368546 0.06109435
v 0.12605558 -0.02274544 0.05756593
v 0.12562747 -0.02181556 0.05569603
v 0.12529771 -0.02304403 0.05636269
v 0.11490173 0.05128706 0.12073613
v 0.11251244 0.05176481 0.12380928
v 0.09623871 0.06114897 0.13276855
v 0.11152896 0.05367576 0.12150036
v 0.14375826 0.01298262 0.10436229
v 0.14550538 0.02848355 0.10039484
v 0.14026979 0.03484772 0.10367936
v 0.14591613 0.03175094 0.09813469
v 0.13778216 0.03738997 0.10460618
v 0.13515568 -0.02304403 0.10743543
v 0.13792678 -0.01516986 0.10460618
v 0.13893341 -0.01235462 0.10460618
v 0.14006152 -0.00878010 0.10524033
v 0.14433677 0.00735212 0.09616723
v 0.14486323 0.01016737 0.09898021
v 0.14469545 0.01016737 0.10179320
v 0.14503100 0.01298262 0.10179320
v 0.09224693 0.06224947 0.13419944
v 0.09190560 0.06224947 0.13419944
v 0.09060972 0.05962190 0.13712624
v 0.09405769 0.06211298 0.13276855
v 0.08794275 0.05815456 0.13789046
v 0.08794275 0.02263124 -0.01765295
v 0.08794275 0.02392797 -0.01631963
v 0.09060972 0.02357819 -0.01584809
v 0.09264032 0.02310898 -0.01531151
v 0.09798005 0.02577067 -0.00680752
v 0.09985445 0.02539531 -0.00591321
v 0.09060972 0.02506260 -0.01345786
v 0.10568014 0.02548915 -0.00035229
v 0.09498911 0.02852620 -0.00389698
v 0.09787592 0.03420789 0.01011917
v 0.12563904 0.03122202 0.03577750
v 0.12637955 0.03158886 0.03766366
v 0.12727046 0.03075281 0.03686691
v 0.12743245 0.02950728 0.03405393
v 0.13283003 0.02989971 0.04270426
v 0.13453666 0.02880773 0.04270426
v 0.14258964 0.03113671 0.06680162
v 0.14298304 0.02925988 0.06611870
v 0.13724413 0.02705033 0.04914324
v 0.14297146 0.02705033 0.06611870
v 0.14276899 0.02545502 0.06644390
v 0.14277477 0.01686425 0.07203735
v 0.13705322 -0.00251831 0.06659024
v 0.13401021 -0.00739807 0.06190736
v 0.12904073 -0.02304403 0.06564716
v 0.13354161 -0.00926637 0.06265532
v 0.13436311 -0.01692726 0.07478530
v 0.13182919 -0.02297578 0.07415116
v 0.12617706 -0.02304403 0.05823259
v 0.12574896 -0.02304403 0.05727325
v 0.11532984 0.05157712 0.11868737
v 0.11012317 0.05447768 0.12150036
v 0.11022730 0.05461418 0.11868737
v 0.10759504 0.05602180 0.11868737
v 0.10621238 0.05665310 0.12021582
v 0.09453787 0.06209591 0.12431334
v 0.11313146 0.05293356 0.11868737
v 0.14607233 0.02960112 0.09902900
v 0.14514670 0.03036038 0.10000460
v 0.14704424 0.02986558 0.09616723
v 0.14626902 0.03204100 0.09616723
v 0.14269378 0.03409699 0.10041110
v 0.13956978 0.03662218 0.10179320
v 0.13446145 -0.02304403 0.09616723
v 0.13704165 -0.01653483 0.09785828
v 0.13989375 -0.00536768 0.08615106
v 0.14178551 -0.00109362 0.09335425
v 0.14473016 0.01016737 0.09616723
v 0.14154252 -0.00109362 0.09054126
v 0.14098137 -0.00109362 0.08491529
v 0.14400124 0.00735212 0.09335425
v 0.14409958 0.01861312 0.07927306
v 0.14471860 0.02705033 0.07364709
v 0.09265189 0.06236890 0.13276855
v 0.08794275 0.06388744 0.12712632
v 0.08794275 0.06309405 0.12993930
v 0.08794275 0.06198500 0.13333766
v 0.08798903 0.06036411 0.13577666
v 0.09082377 0.06119162 0.13530512
v 0.08905351 0.05945981 0.13701242
v 0.09312627 0.06267602 0.12431334
v 0.08794275 0.06409218 0.12431334
v 0.08794275 0.05932332 0.13691486
v 0.08794275 0.02399621 -0.01623833
v 0.08794275 0.02532706 -0.01444973
v 0.08794275 0.02540384 -0.01431965
v 0.08794275 0.03403727 0.00207046
v 0.08794275 0.03457473 0.00317614
v 0.09480977 0.03689517 0.01319231
v 0.09738418 0.03683546 0.01623294
v 0.12042659 0.03420789 0.03824902
v 0.12438366 0.03308179 0.03989128
v 0.12550020 0.03395196 0.04460669
v 0.12727046 0.03185332 0.03997258
v 0.13280689 0.03076987 0.04538717
v 0.14326073 0.03006180 0.06785853
v 0.14150203 0.03214337 0.06785853
v 0.14289627 0.03149501 0.06868779
v 0.14488058 0.02986558 0.07364709
v 0.14412272 0.02986558 0.07083411
v 0.14350371 0.02705033 0.06802112
v 0.14334172 0.01861312 0.07364709
v 0.14289627 0.01587465 0.07382596
v 0.13995738 -0.00281690 0.08021615
v 0.13602924 -0.00672412 0.06802112
v 0.13522510 -0.00672412 0.06520814
v 0.13882349 -0.00390887 0.07646008
v 0.13185234 -0.02304403 0.07434628
v 0.13453666 -0.01752444 0.07646008
v 0.13407385 -0.01893206 0.07646008
v 0.13334492 -0.02079183 0.07646008
v 0.13239614 -0.02304403 0.07637878
v 0.11543975 0.05155153 0.11587439
v 0.13816398 0.03762884 0.10179320
v 0.11478603 0.05114203 0.10460618
v 0.11468190 0.05107379 0.10286636
v 0.10609667 0.05661044 0.11725649
v 0.10618923 0.05664456 0.11868737
v 0.10909918 0.05388904 0.10293140
v 0.08794275 0.06396421 0.11024842
v 0.14610125 0.03182772 0.09335425
v 0.13808877 0.03762884 0.09898021
v 0.14365991 0.03222016 0.07364709
v 0.14214418 0.03374721 0.07646008
v 0.13424740 -0.02304403 0.09361441
v 0.13438625 -0.02273691 0.09387457
v 0.13314243 -0.02304403 0.08153321
v 0.14007887 -0.00314961 0.08210231
v 0.14163509 0.00172163 0.08491529
v 0.14271692 0.01422815 0.07486660
v 0.14376404 0.01861312 0.07646008
v 0.08794275 0.06036411 0.13576040
v 0.08794275 0.06410071 0.11306140
v 0.08794275 0.03468563 0.00342004
v 0.09293537 0.03725348 0.01263948
v 0.08794275 0.03939477 0.01429799
v 0.08794275 0.04367736 0.02846048
v 0.10374789 0.04560538 0.05741959
v 0.12362001 0.03436145 0.04325711
v 0.12598037 0.03419083 0.04647659
v 0.14050697 0.03440410 0.07423246
v 0.13185812 0.03147795 0.04624895
v 0.09471720 0.05939157 0.10057370
v 0.14137476 0.03368750 0.07343571
v 0.14324337 0.03181066 0.07083411
v 0.13945407 -0.00381503 0.07928932
v 0.13283003 -0.02304403 0.07872022
v 0.13538131 0.03906206 0.09623227
v 0.13416641 0.03969336 0.09535423
v 0.14073260 0.03453207 0.07646008
v 0.08794275 0.06393009 0.11006956
v 0.08794275 0.03837958 0.01184273
v 0.08794275 0.05769389 0.08322425
v 0.08794275 0.05812044 0.08491529
f 1 2 3
f 1 3 4
f 1 4 5
f 1 5 6
f 1 6 14
f 1 14 26
f 1 26 25
f 1 25 50
f 1 50 81
f 1 81 127
f 1 127 131
f 1 131 183
f 1 183 182
f 1 182 178
f 1 178 241
f 1 241 245
f 1 245 280
f 1 280 260
f 1 260 258
f 1 258 197
f 1 197 141
f 1 141 93
f 1 93 92
f 1 92 91
f 1 91 90
f 1 90 56
f 1 56 28
f 1 28 15
f 1 15 7
f 1 7 17
f 1 17 33
f 1 33 61
f 1 61 105
f 1 105 153
f 1 153 216
f 1 216 265
f 1 265 210
f 1 210 209
f 1 209 208
f 1 208 215
f 1 215 266
f 1 266 253
f 1 253 284
f 1 284 287
f 1 287 286
f 1 286 270
f 1 270 269
f 1 269 285
f 1 285 267
f 1 267 221
f 1 221 220
f 1 220 219
f 1 219 218
f 1 218 217
f 1 217 155
f 1 155 154
f 1 154 106
f 1 106 62
f 1 62 34
f 1 34 19
f 1 19 18
f 1 18 10
f 1 10 9
f 1 9 8
f 1 8 2
f 2 8 3
f 3 8 9
f 3 9 4
f 4 9 10
f 4 10 11
f 4 11 12
f 4 12 5
f 5 13 6
f 5 12 13
f 6 13 14
f 7 15 16
f 7 16 17
f 10 18 11
f 11 18 19
f 11 19 20
f 11 20 21
f 11 21 22
f 11 22 12
f 12 22 23
f 12 23 13
f 13 23 24
f 13 24 25
f 13 25 26
f 13 26 14
f 15 27 16
f 15 28 29
f 15 29 30
f 15 30 31
f 15 31 27
f 16 27 32
f 16 32 33
f 16 33 17
f 19 34 35
f 19 35 20
f 20 35 36
f 20 36 37
f 20 37 21
f 21 37 38
f 21 38 39
f 21 39 40
f 21 40 22
f 22 40 41
f 22 41 42
f 22 42 23
f 23 42 41
f 23 41 43
f 23 43 44
f 23 44 24
f 24 44 45
f 24 45 46
f 24 46 47
f 24 47 48
f 24 48 49
f 24 49 50
f 24 50 25
f 27 51 52
f 27 52 32
f 27 31 53
f 27 53 54
f 27 54 55
f 27 55 51
f 28 56 57
f 28 57 29
f 29 57 58
f 29 58 30
f 30 58 31
f 31 58 53
f 32 59 33
f 32 52 60
f 32 60 59
f 33 59 61
f 34 62 63
f 34 63 35
f 35 63 64
f 35 64 36
f 36 64 65
f 36 65 37
f 37 65 66
f 37 66 67
f 37 67 38
f 38 67 39
f 39 67 68
f 39 68 69
f 39 69 41
f 39 41 40
f 41 69 70
f 41 70 43
f 43 45 44
f 43 70 71
f 43 71 72
f 43 72 46
f 43 46 45
f 46 72 73
f 46 73 74
f 46 74 75
f 46 75 47
f 47 75 48
f 48 75 76
f 48 76 77
f 48 77 78
f 48 78 49
f 49 78 79
f 49 79 80
f 49 80 81
f 49 81 50
f 51 82 83
f 51 83 84
f 51 84 85
f 51 85 52
f 51 55 54
f 51 54 86
f 51 86 87
f 51 87 88
f 51 88 82
f 52 85 84
f 52 84 60
f 53 58 89
f 53 89 86
f 53 86 54
f 56 90 57
f 57 91 92
f 57 92 93
f 57 93 94
f 57 94 95
f 57 95 96
f 57 96 97
f 57 97 98
f 57 98 58
f 57 90 91
f 58 98 99
f 58 99 100
f 58 100 101
f 58 101 89
f 59 60 61
f 60 102 61
f 60 84 103
f 60 103 104
f 60 104 102
f 61 102 105
f 62 106 63
f 63 106 154
f 63 154 107
f 63 107 64
f 64 107 108
f 64 108 65
f 65 108 109
f 65 109 66
f 66 110 111
f 66 111 67
f 66 109 112
f 66 112 110
f 67 111 113
f 67 113 114
f 67 114 68
f 68 70 69
f 68 114 115
f 68 115 116
f 68 116 71
f 68 71 70
f 71 116 72
f 72 116 117
f 72 117 118
f 72 118 73
f 73 118 119
f 73 119 120
f 73 120 121
f 73 121 122
f 73 122 123
f 73 123 74
f 74 123 75
f 75 123 124
f 75 124 77
f 75 77 76
f 77 125 80
f 77 80 126
f 77 126 79
f 77 79 78
f 77 124 123
f 77 123 125
f 79 126 80
f 80 127 81
f 80 125 128
f 80 128 129
f 80 129 130
f 80 130 131
f 80 131 127
f 82 132 83
f 82 88 132
f 83 132 133
f 83 133 84
f 84 134 103
f 84 133 132
f 84 132 135
f 84 135 134
f 86 89 101
f 86 101 136
f 86 136 137
f 86 137 87
f 87 137 138
f 87 138 88
f 88 138 139
f 88 139 140
f 88 140 132
f 93 141 94
f 94 141 95
f 95 141 142
f 95 142 143
f 95 143 96
f 96 143 144
f 96 144 97
f 97 144 145
f 97 145 146
f 97 146 147
f 97 147 98
f 98 147 148
f 98 148 99
f 99 148 136
f 99 136 100
f 100 136 101
f 102 104 149
f 102 149 150
f 102 150 151
f 102 151 105
f 103 134 152
f 103 152 149
f 103 149 104
f 105 151 153
f 107 154 155
f 107 155 156
f 107 156 157
f 107 157 108
f 108 157 109
f 109 157 112
f 110 158 159
f 110 159 111
f 110 112 158
f 111 159 113
f 112 157 160
f 112 160 158
f 113 161 114
f 113 159 162
f 113 162 163
f 113 163 161
f 114 161 115
f 115 161 163
f 115 163 164
f 115 164 165
f 115 165 166
f 115 166 167
f 115 167 168
f 115 168 117
f 115 117 116
f 117 168 169
f 117 169 170
f 117 170 171
f 117 171 172
f 117 172 120
f 117 120 119
f 117 119 118
f 120 172 121
f 121 172 173
f 121 173 122
f 122 173 174
f 122 174 175
f 122 175 176
f 122 176 123
f 123 176 177
f 123 177 128
f 123 128 125
f 128 178 129
f 128 177 179
f 128 179 180
f 128 180 181
f 128 181 178
f 129 178 182
f 129 182 183
f 129 183 131
f 129 131 130
f 132 184 135
f 132 140 184
f 134 135 185
f 134 185 186
f 134 186 187
f 134 187 188
f 134 188 189
f 134 189 152
f 135 184 190
f 135 190 186
f 135 186 185
f 136 148 137
f 137 148 191
f 137 191 192
f 137 192 138
f 138 192 139
f 139 193 194
f 139 194 195
f 139 195 140
f 139 192 191
f 139 191 193
f 140 195 196
f 140 196 184
f 141 197 198
f 141 198 142
f 142 198 143
f 143 198 199
f 143 199 200
f 143 200 144
f 144 200 145
f 145 201 146
f 145 200 202
f 145 202 203
f 145 203 204
f 145 204 264
f 145 264 205
f 145 205 206
f 145 206 201
f 146 201 193
f 146 193 148
f 146 148 147
f 148 193 191
f 149 152 207
f 149 207 208
f 149 208 150
f 150 208 209
f 150 209 210
f 150 210 211
f 150 211 212
f 150 212 151
f 151 212 211
f 151 211 213
f 151 213 153
f 152 208 207
f 152 189 214
f 152 214 215
f 152 215 208
f 153 213 216
f 155 217 156
f 156 217 218
f 156 218 160
f 156 160 157
f 158 162 159
f 158 160 162
f 160 218 219
f 160 219 220
f 160 220 162
f 162 220 221
f 162 221 222
f 162 222 163
f 163 222 164
f 164 222 165
f 165 222 223
f 165 223 224
f 165 224 225
f 165 225 226
f 165 226 227
f 165 227 228
f 165 228 168
f 165 168 166
f 166 168 167
f 168 228 169
f 169 228 170
f 170 229 171
f 170 228 230
f 170 230 231
f 170 231 232
f 170 232 229
f 171 229 233
f 171 233 232
f 171 232 234
f 171 234 173
f 171 173 172
f 173 234 175
f 173 175 174
f 175 234 206
f 175 206 235
f 175 235 236
f 175 236 237
f 175 237 176
f 176 238 239
f 176 239 177
f 176 237 240
f 176 240 180
f 176 180 238
f 177 239 180
f 177 180 179
f 178 181 241
f 180 240 242
f 180 242 243
f 180 243 181
f 180 239 238
f 181 243 244
f 181 244 245
f 181 245 241
f 184 246 190
f 184 196 247
f 184 247 246
f 186 190 246
f 186 246 248
f 186 248 249
f 186 249 187
f 187 250 251
f 187 251 189
f 187 189 188
f 187 249 252
f 187 252 250
f 189 251 250
f 189 250 253
f 189 253 214
f 193 201 206
f 193 206 232
f 193 232 254
f 193 254 194
f 194 255 247
f 194 247 196
f 194 196 195
f 194 254 256
f 194 256 257
f 194 257 255
f 197 258 259
f 197 259 198
f 198 259 260
f 198 260 199
f 199 260 243
f 199 243 237
f 199 237 261
f 199 261 203
f 199 203 202
f 199 202 200
f 203 262 204
f 203 261 237
f 203 237 262
f 204 262 263
f 204 263 236
f 204 236 264
f 205 264 206
f 206 264 235
f 206 234 232
f 210 265 211
f 211 265 216
f 211 216 213
f 214 253 266
f 214 266 215
f 221 267 222
f 222 267 268
f 222 268 269
f 222 269 270
f 222 270 223
f 223 270 224
f 224 271 272
f 224 272 225
f 224 270 271
f 225 272 226
f 226 273 274
f 226 274 275
f 226 275 227
f 226 272 271
f 226 271 276
f 226 276 273
f 227 275 228
f 228 275 274
f 228 274 230
f 229 232 233
f 230 277 231
f 230 274 277
f 231 277 278
f 231 278 232
f 232 256 254
f 232 278 256
f 235 264 236
f 236 263 237
f 237 243 242
f 237 242 279
f 237 279 240
f 237 263 262
f 240 279 242
f 243 260 280
f 243 280 244
f 244 280 245
f 246 247 255
f 246 255 281
f 246 281 282
f 246 282 248
f 248 282 249
f 249 282 283
f 249 283 274
f 249 274 252
f 250 252 253
f 252 274 276
f 252 276 253
f 253 276 284
f 255 257 281
f 256 278 277
f 256 277 257
f 257 277 274
f 257 274 283
f 257 283 282
f 257 282 281
f 258 260 259
f 267 285 268
f 268 285 269
f 270 286 271
f 271 286 287
f 271 287 276
f 273 276 274
f 276 287 284

