# https://github.com/mikedh/trimesh
v 0.02625330 0.00420418 0.18856886
v 0.02625330 0.00776896 0.18809329
v 0.02586601 0.00420418 0.18868774
v 0.02625330 0.00420418 -0.00098470
v 0.02625330 0.00934142 0.18785550
v 0.00223487 0.01192474 0.19340380
v 0.01179126 0.00420418 0.19205636
v -0.00756316 0.00420418 0.00616864
v 0.02625330 0.00968105 -0.00251048
v 0.02023545 0.01860503 0.18634954
v -0.00558039 0.02066420 0.19364158
v -0.00756316 0.01863444 0.19469180
v 0.02625330 0.02457395 0.18119755
v 0.02482993 0.01763962 0.18502190
v 0.02302921 0.01858898 0.18539840
v 0.02207920 0.02036468 0.18504173
v 0.00052684 0.01290887 0.19364158
v -0.00228017 0.01297840 0.19409733
v 0.00218522 0.00863274 0.19332453
v 0.00897764 0.00420418 0.19225451
v -0.00756316 0.03152433 0.00040238
v 0.02625330 0.03004280 -0.00754358
v 0.02625330 0.02738192 -0.00694912
v 0.02625330 0.02705031 -0.00686986
v -0.00756316 0.00420418 0.19156097
v -0.00756316 0.02141299 0.19397844
v -0.00756316 0.01579439 0.19429549
v 0.02625330 0.02733110 0.17994918
v 0.02395605 0.01951427 0.18460579
v 0.02207589 0.02602072 0.18218832
v 0.02001367 0.02699682 0.18244592
v -0.00199881 0.00988429 0.19366140
v -0.00228017 0.00453579 0.19255174
v -0.00228017 0.00420418 0.19247248
v -0.00756316 0.03152433 0.18769698
v 0.02625330 0.03152433 -0.00774173
v -0.00511697 0.00420418 0.19209599
v -0.00756316 0.00424697 0.19158078
v -0.00756316 0.02185959 0.19372084
v 0.01892463 0.02849173 0.18204961
v -0.00756316 0.00769408 0.19255174
v -0.00397828 0.00851507 0.19332453
v 0.02625330 0.02756911 0.17979066
v -0.00509379 0.00453579 0.19221487
v -0.00756316 0.03152166 0.18775642
v -0.00605043 0.03152433 0.18716196
v 0.02625330 0.03152433 0.17469811
v -0.00756316 0.00453579 0.19167986
v -0.00756316 0.02362994 0.19267063
v 0.02509474 0.02862010 0.17941417
v 0.02625330 0.02941167 0.17796764
v 0.00173504 0.03122214 0.18476431
v -0.00643440 0.03130504 0.18767717
v -0.00756316 0.00736515 0.19247248
v -0.00498787 0.00748548 0.19292823
v 0.02625330 0.02911751 0.17832432
v -0.00756316 0.03147085 0.18783568
v 0.00139078 0.03152433 0.18440763
v 0.02625330 0.03103495 0.17558980
v 0.02625330 0.03091995 0.17578796
f 1 2 3
f 1 3 7
f 1 7 20
f 1 20 34
f 1 34 37
f 1 37 25
f 1 25 8
f 1 8 4
f 1 4 9
f 1 9 24
f 1 24 23
f 1 23 22
f 1 22 36
f 1 36 47
f 1 47 59
f 1 59 60
f 1 60 51
f 1 51 56
f 1 56 43
f 1 43 28
f 1 28 13
f 1 13 5
f 1 5 2
f 2 5 6
f 2 6 3
f 3 6 7
f 4 8 9
f 5 10 11
f 5 11 12
f 5 12 6
f 5 13 14
f 5 14 15
f 5 15 16
f 5 16 10
f 6 12 17
f 6 17 18
f 6 18 7
f 7 18 19
f 7 19 20
f 8 21 22
f 8 22 23
f 8 23 24
f 8 24 9
f 8 25 38
f 8 38 48
f 8 48 54
f 8 54 41
f 8 41 27
f 8 27 12
f 8 12 26
f 8 26 39
f 8 39 49
f 8 49 57
f 8 57 45
f 8 45 35
f 8 35 21
f 10 26 11
f 10 16 26
f 11 26 12
f 12 27 18
f 12 18 17
f 13 28 29
f 13 29 14
f 14 29 15
f 15 29 16
f 16 29 28
f 16 28 30
f 16 30 31
f 16 31 26
f 18 27 32
f 18 32 19
f 19 32 33
f 19 33 20
f 20 33 34
f 21 35 46
f 21 46 58
f 21 58 47
f 21 47 36
f 21 36 22
f 25 37 38
f 26 31 40
f 26 40 39
f 27 41 42
f 27 42 32
f 28 43 40
f 28 40 31
f 28 31 30
f 32 42 33
f 33 42 34
f 34 42 44
f 34 44 37
f 35 45 46
f 37 44 38
f 38 44 48
f 39 40 49
f 40 43 50
f 40 50 51
f 40 51 52
f 40 52 53
f 40 53 49
f 41 54 44
f 41 44 55
f 41 55 42
f 42 55 44
f 43 56 50
f 44 54 48
f 45 57 53
f 45 53 52
f 45 52 58
f 45 58 46
f 47 58 59
f 49 53 57
f 50 56 51
f 51 60 52
f 52 60 58
f 58 60 59

