# https://github.com/mikedh/trimesh
v 0.03325630 0.04950512 -0.01256661
v 0.03575354 0.04950512 -0.01212539
v 0.03149637 0.04950512 -0.01241447
v 0.02625612 0.05414810 -0.00973670
v 0.02625612 0.05433473 -0.00963019
v 0.02625612 0.05545906 -0.00896075
v 0.03702476 0.04950512 -0.01160809
v 0.02625612 0.05718425 -0.00748494
v 0.02625612 0.05737543 -0.00730237
v 0.02625612 0.06012024 -0.00454852
v 0.02940592 0.04950512 -0.01188196
v 0.02625612 0.05202235 -0.01037571
v 0.03775077 0.04950512 -0.01130380
v 0.02625612 0.06235069 -0.00212941
v 0.02892851 0.04950512 -0.01174503
v 0.02625612 0.04950512 -0.01068001
v 0.04012936 0.04950512 -0.00985841
v 0.02625612 0.06267388 -0.00174904
v 0.02625612 0.04950512 0.13957927
v 0.04275372 0.04950512 -0.00820002
v 0.02625612 0.06357972 -0.00007544
v 0.05510997 0.04950512 0.00171989
v 0.05481335 0.04950512 0.00147645
v 0.04308423 0.04950512 -0.00795659
v 0.04289214 0.04950512 -0.00810874
v 0.05119744 0.04950512 0.14256134
v 0.02625612 0.09225694 0.09947362
v 0.05510997 0.05087981 0.00444329
v 0.05510997 0.05019702 0.00305877
v 0.05510997 0.04980100 0.00226761
v 0.02625612 0.07115869 0.01588467
v 0.05510997 0.04950512 0.14286563
v 0.05242063 0.04950512 0.14269827
v 0.02625612 0.09369535 0.09805866
v 0.05401389 0.04950512 0.14285041
v 0.05510997 0.05098905 0.00468673
v 0.02625612 0.07454079 0.02332460
v 0.05510997 0.07157292 0.11824842
v 0.02625612 0.09498809 0.09629377
v 0.05510997 0.07211916 0.11762462
v 0.05510997 0.07345743 0.11608795
v 0.05510997 0.07417663 0.11523593
v 0.05510997 0.07558318 0.11354711
v 0.05510997 0.05358821 0.01083342
v 0.02625612 0.07751320 0.03149484
v 0.04758435 0.08229729 0.10651797
v 0.02625612 0.09600773 0.09335735
v 0.05510997 0.07659371 0.11213216
v 0.05510997 0.05410714 0.01226359
v 0.02625612 0.08506942 0.05456015
v 0.02730417 0.08477354 0.05532088
v 0.03334105 0.09065920 0.08287450
v 0.04993187 0.06230973 0.02705218
v 0.04797984 0.08259317 0.10461615
v 0.04426223 0.08480086 0.10330770
v 0.05510997 0.07734933 0.11024555
v 0.02625612 0.09571640 0.09054266
v 0.03534393 0.09012663 0.08772796
v 0.03376196 0.09087769 0.08491326
v 0.05510997 0.05447584 0.01335905
v 0.02625612 0.08566117 0.05638590
v 0.02625612 0.09191099 0.07589101
v 0.02625612 0.09208851 0.07646916
v 0.02625612 0.09264840 0.07834055
v 0.02625612 0.09435993 0.08445682
v 0.02625612 0.09453290 0.08511105
v 0.02625612 0.09510190 0.08756059
v 0.02625612 0.09513830 0.08772796
v 0.03517160 0.08992634 0.08491326
v 0.05510997 0.07133622 0.06425185
v 0.05510997 0.07097662 0.06291296
v 0.05510997 0.07787735 0.10743085
v 0.05510997 0.07768163 0.10461615
v 0.05510997 0.07310692 0.07357839
v 0.05510997 0.07261532 0.07083976
v 0.05510997 0.07155016 0.06517993
f 1 2 7
f 1 7 13
f 1 13 17
f 1 17 20
f 1 20 25
f 1 25 24
f 1 24 23
f 1 23 22
f 1 22 32
f 1 32 35
f 1 35 33
f 1 33 26
f 1 26 19
f 1 19 16
f 1 16 15
f 1 15 11
f 1 11 3
f 1 3 4
f 1 4 5
f 1 5 6
f 1 6 2
f 2 6 8
f 2 8 9
f 2 9 10
f 2 10 7
f 3 11 12
f 3 12 4
f 4 12 16
f 4 16 19
f 4 19 27
f 4 27 34
f 4 34 39
f 4 39 47
f 4 47 57
f 4 57 68
f 4 68 67
f 4 67 66
f 4 66 65
f 4 65 64
f 4 64 63
f 4 63 62
f 4 62 61
f 4 61 50
f 4 50 45
f 4 45 37
f 4 37 31
f 4 31 21
f 4 21 18
f 4 18 14
f 4 14 10
f 4 10 9
f 4 9 8
f 4 8 6
f 4 6 5
f 7 10 14
f 7 14 13
f 11 15 12
f 12 15 16
f 13 14 18
f 13 18 17
f 17 18 20
f 18 21 22
f 18 22 23
f 18 23 24
f 18 24 25
f 18 25 20
f 19 26 27
f 21 28 29
f 21 29 30
f 21 30 22
f 21 31 28
f 22 30 29
f 22 29 28
f 22 28 36
f 22 36 44
f 22 44 49
f 22 49 60
f 22 60 71
f 22 71 70
f 22 70 76
f 22 76 75
f 22 75 74
f 22 74 73
f 22 73 72
f 22 72 56
f 22 56 48
f 22 48 43
f 22 43 42
f 22 42 41
f 22 41 40
f 22 40 38
f 22 38 32
f 26 33 27
f 27 33 35
f 27 35 34
f 28 31 37
f 28 37 36
f 32 38 34
f 32 34 35
f 34 38 40
f 34 40 41
f 34 41 42
f 34 42 43
f 34 43 39
f 36 37 44
f 37 45 44
f 39 46 47
f 39 43 48
f 39 48 46
f 44 45 49
f 45 50 51
f 45 51 52
f 45 52 53
f 45 53 49
f 46 54 55
f 46 55 47
f 46 48 56
f 46 56 54
f 47 55 54
f 47 54 58
f 47 58 59
f 47 59 57
f 49 53 60
f 50 61 52
f 50 52 51
f 52 62 63
f 52 63 64
f 52 64 65
f 52 65 66
f 52 66 67
f 52 67 68
f 52 68 59
f 52 59 69
f 52 69 70
f 52 70 71
f 52 71 53
f 52 61 62
f 53 71 60
f 54 56 72
f 54 72 58
f 57 59 68
f 58 72 73
f 58 73 69
f 58 69 59
f 69 73 74
f 69 74 75
f 69 75 76
f 69 76 70

