# https://github.com/mikedh/trimesh
v 0.09980356 -0.04722430 0.13876707
v 0.09980356 -0.02305256 0.13193778
v 0.08904043 -0.02305256 0.14293128
v 0.06625946 -0.04722430 0.17293439
v 0.09980356 -0.04722430 0.02631268
v 0.09980356 -0.02305256 0.01406992
v 0.08366641 -0.02305256 0.14830311
v 0.05622193 -0.04722430 0.18269945
v 0.09962216 -0.04722430 0.02604201
v 0.09774768 -0.04484640 0.02146138
v 0.09808025 -0.04331792 0.02089921
v 0.09980356 -0.04315940 0.02356431
v 0.09980356 -0.02573331 0.01525671
v 0.09960704 -0.02305256 0.01369513
v 0.04136971 -0.02305256 0.18767568
v 0.04047026 -0.02305256 0.18850852
v 0.03837659 -0.02305256 0.19023667
v 0.05443060 -0.04722430 0.18403200
v 0.08834505 -0.04722430 0.01127989
v 0.08740025 -0.04722430 0.01005146
v 0.08594149 -0.04722430 0.00819838
v 0.09468653 -0.03884842 0.01329954
v 0.09749069 -0.04149368 0.01892121
v 0.09760408 -0.03617477 0.01602709
v 0.09980356 -0.03207674 0.01808837
v 0.09792908 -0.03430084 0.01556903
v 0.09857910 -0.03509347 0.01713061
v 0.09980356 -0.03184486 0.01798427
v 0.09800466 -0.02305256 0.01138400
v 0.03822542 -0.02305256 0.19034078
v 0.03856555 -0.02487916 0.19048652
v 0.05299450 -0.04694747 0.18501059
v 0.05305497 -0.04722430 0.18501059
v 0.07497428 -0.04722430 -0.00471066
v 0.09510980 -0.03697213 0.01284147
v 0.09586564 -0.03782155 0.01436141
v 0.07285037 -0.04722430 -0.00716754
v 0.07234396 -0.02790300 -0.01784873
v 0.09651567 -0.02305256 0.00936436
v 0.03704631 -0.02305256 0.19077801
v 0.03725795 -0.02381206 0.19077801
v 0.03856555 -0.02512996 0.19048652
v 0.03712946 -0.02546358 0.19063227
v 0.05125607 -0.04722430 0.18517716
v 0.09614531 -0.02305256 0.00890630
v 0.07504230 -0.02758831 -0.01489214
v 0.07585861 -0.02305256 -0.01589155
v 0.06758218 -0.04722430 -0.01314318
v 0.06485360 -0.04722430 -0.01609976
v 0.07027296 -0.02305256 -0.02118010
v 0.07150498 -0.02305256 -0.02026397
v 0.07278235 -0.02305256 -0.01920210
v 0.07322829 -0.02305256 -0.01874404
v 0.07435449 -0.02305256 -0.01755723
v 0.07551092 -0.02305256 -0.01628715
v 0.03418169 -0.02305256 0.19090294
v 0.03414390 -0.02373398 0.19084048
v 0.03496776 -0.02550380 0.19065309
v 0.04886762 -0.04722430 0.18501059
v 0.06251050 -0.04722430 -0.01753641
v 0.07016714 -0.02305256 -0.02122174
v 0.06161106 -0.04722430 -0.01791120
v 0.03198976 -0.02305256 0.19065309
v 0.02904199 -0.02305256 0.19019503
v 0.02865651 -0.02348791 0.18994517
v 0.03414390 -0.02643840 0.19009092
v 0.04557973 -0.04722430 0.18434431
v 0.06828511 -0.02305256 -0.02180473
v 0.06085522 -0.04722430 -0.01791120
v 0.02841464 -0.02305256 0.19004928
v 0.04276045 -0.04722430 0.18367804
v 0.02258713 -0.04455537 0.17886839
v 0.06541292 -0.02361568 -0.02132584
v 0.06532978 -0.02305256 -0.02134666
v 0.02297261 -0.04722430 -0.00658455
v 0.02291214 -0.02305256 0.18809210
v 0.02258713 -0.04722430 0.17755665
v 0.02258713 -0.02305256 0.18796717
v 0.02278365 -0.04722430 -0.00652209
v 0.02258713 -0.04722430 -0.00643880
v 0.02258713 -0.02305256 0.00184797
f 1 2 3
f 1 3 4
f 1 4 8
f 1 8 18
f 1 18 33
f 1 33 44
f 1 44 59
f 1 59 67
f 1 67 71
f 1 71 77
f 1 77 80
f 1 80 79
f 1 79 75
f 1 75 69
f 1 69 62
f 1 62 60
f 1 60 49
f 1 49 48
f 1 48 37
f 1 37 34
f 1 34 21
f 1 21 20
f 1 20 19
f 1 19 9
f 1 9 5
f 1 5 12
f 1 12 25
f 1 25 28
f 1 28 13
f 1 13 6
f 1 6 2
f 2 6 14
f 2 14 29
f 2 29 39
f 2 39 45
f 2 45 47
f 2 47 55
f 2 55 54
f 2 54 53
f 2 53 52
f 2 52 51
f 2 51 50
f 2 50 61
f 2 61 68
f 2 68 74
f 2 74 81
f 2 81 78
f 2 78 76
f 2 76 70
f 2 70 64
f 2 64 63
f 2 63 56
f 2 56 40
f 2 40 30
f 2 30 17
f 2 17 16
f 2 16 15
f 2 15 7
f 2 7 3
f 3 7 4
f 4 7 8
f 5 9 10
f 5 10 11
f 5 11 12
f 6 13 14
f 7 15 8
f 8 15 16
f 8 16 17
f 8 17 18
f 9 19 10
f 10 19 20
f 10 20 21
f 10 21 22
f 10 22 11
f 11 22 23
f 11 23 24
f 11 24 12
f 12 24 26
f 12 26 27
f 12 27 25
f 13 28 27
f 13 27 14
f 14 27 26
f 14 26 29
f 17 30 31
f 17 31 32
f 17 32 18
f 18 32 33
f 21 34 22
f 22 35 36
f 22 36 23
f 22 34 37
f 22 37 38
f 22 38 35
f 23 36 24
f 24 36 35
f 24 35 26
f 25 27 28
f 26 35 39
f 26 39 29
f 30 40 31
f 31 40 41
f 31 41 42
f 31 42 33
f 31 33 32
f 33 42 43
f 33 43 44
f 35 45 39
f 35 38 46
f 35 46 47
f 35 47 45
f 37 48 38
f 38 49 50
f 38 50 51
f 38 51 52
f 38 52 53
f 38 53 54
f 38 54 55
f 38 55 47
f 38 47 46
f 38 48 49
f 40 56 41
f 41 56 43
f 41 43 42
f 43 56 57
f 43 57 58
f 43 58 44
f 44 58 59
f 49 60 50
f 50 60 62
f 50 62 61
f 56 63 57
f 57 63 58
f 58 63 64
f 58 64 65
f 58 65 66
f 58 66 67
f 58 67 59
f 61 62 68
f 62 69 68
f 64 70 65
f 65 71 66
f 65 70 72
f 65 72 71
f 66 71 67
f 68 73 74
f 68 69 73
f 69 75 73
f 70 76 72
f 71 72 77
f 72 76 78
f 72 78 81
f 72 81 80
f 72 80 77
f 73 75 74
f 74 75 79
f 74 79 80
f 74 80 81

