# https://github.com/mikedh/trimesh
v -0.00756316 0.01863444 0.19468461
v -0.00756316 0.01891524 0.19462693
v -0.00791757 0.01860503 0.19479997
v -0.00756316 0.01579439 0.19430003
v -0.00756316 0.02141299 0.19397313
v -0.00787636 0.02153065 0.19403081
v -0.01086820 0.02158414 0.19397313
v -0.01072808 0.01860503 0.19458845
v -0.00791757 0.01579439 0.19433848
v -0.00756316 0.00769408 0.19255017
v -0.00756316 0.02185959 0.19372316
v -0.00879122 0.02316195 0.19349239
v -0.01002752 0.02316195 0.19349239
v -0.01250011 0.02075512 0.19356932
v -0.01190669 0.02263245 0.19318474
v -0.02423669 0.00962756 0.19070417
v -0.02423669 0.00830113 0.19070417
v -0.00756316 0.00736515 0.19247326
v -0.00756316 0.02362994 0.19266555
v -0.00756316 0.03147085 0.18783903
v -0.00791757 0.03152433 0.18787748
v -0.01072808 0.03152433 0.18787748
v -0.01217043 0.03130504 0.18766597
v -0.02789613 0.01043519 0.18872357
v -0.02502792 0.01040577 0.19016576
v -0.01249187 0.02604212 0.19070417
v -0.02967639 0.01516861 0.18533924
v -0.02840713 0.01297840 0.18731984
v -0.02900879 0.01155302 0.18764674
v -0.02761590 0.00734910 0.18949273
v -0.02761590 0.00453579 0.18908893
v -0.02763238 0.00420418 0.18899277
v -0.00756316 0.00453579 0.19168485
v -0.00756316 0.03152166 0.18774288
v -0.00756316 0.03152433 0.18770442
v -0.01197262 0.03152433 0.18753136
v -0.01240945 0.03152433 0.18733907
v -0.02933023 0.02038608 0.18224335
v -0.02887692 0.01704326 0.18472391
v -0.02958573 0.00967570 0.18803132
v -0.03003079 0.00734910 0.18830052
v -0.03155556 0.01400798 0.18460853
v -0.03054180 0.01303189 0.18587765
v -0.03033575 0.01842852 0.18272408
v -0.03217371 0.01213066 0.18514695
v -0.03049235 0.01043519 0.18706987
v -0.03006376 0.00453579 0.18826207
v -0.02999783 0.00420418 0.18822361
v -0.02792909 0.00420418 0.18891586
v -0.00756316 0.00420418 0.19156949
v -0.00756316 0.03152433 0.00041255
v -0.02160750 0.03152433 0.18018584
v -0.02966815 0.02347751 0.17980124
v -0.02838240 0.02226340 0.18166648
v -0.03043465 0.02139427 0.18062810
v -0.03195118 0.01737219 0.18212797
v -0.03144018 0.00734910 0.18728139
v -0.03147314 0.00453579 0.18731984
v -0.03244570 0.01016509 0.18553153
v -0.03241273 0.01579439 0.18262793
v -0.03397870 0.01606716 0.18066655
v -0.03465455 0.01718767 0.17920514
v -0.03734967 0.01686676 0.17616693
v -0.04593782 0.02287313 0.16234119
v -0.04597078 0.01736150 0.16520633
v -0.04250091 0.00420418 0.17562852
v -0.04133055 0.00420418 0.17703225
v -0.03167919 0.00420418 0.18710832
v -0.00756316 0.00420418 0.00618130
v -0.00756316 0.03131842 0.00045102
v -0.01630790 0.00420418 0.00396995
v -0.01884643 0.00420418 0.00360460
v -0.05294350 0.00420418 -0.00114500
v -0.05355340 0.00420418 -0.00122192
v -0.05576226 0.00420418 -0.00147190
v -0.00791757 0.03152433 0.00039333
v -0.02552244 0.03152433 0.17695534
v -0.03184403 0.02564365 0.17639769
v -0.03436608 0.02227410 0.17609002
v -0.04109978 0.00420418 0.17730146
v -0.03979754 0.00420418 0.17872441
v -0.03521500 0.02358448 0.17422480
v -0.05505344 0.01860503 0.15184207
v -0.04354764 0.02628547 0.16278345
v -0.04542681 0.02475045 0.16155279
v -0.04560814 0.02778840 0.15886071
v -0.05654524 0.01872269 0.14966918
v -0.05463310 0.00936013 0.15709163
v -0.05693262 0.01579439 0.15064986
v -0.05489684 0.00734910 0.15739929
v -0.04349819 0.00420418 0.17424403
v -0.05688316 0.00420418 -0.00152958
v -0.05844914 0.00420418 -0.00160650
v -0.06139153 0.00420418 -0.00164496
v -0.06239705 0.00420418 -0.00156805
v -0.06424325 0.00420418 -0.00131806
v -0.02198663 0.03152433 0.00272005
v -0.02930550 0.03152433 0.17382098
v -0.03118467 0.03048405 0.17289798
v -0.03473697 0.02857463 0.17085970
v -0.04284707 0.02816280 0.16207197
v -0.04372897 0.02913890 0.16020675
v -0.04457789 0.02703694 0.16087977
v -0.04393501 0.03152433 0.15759159
v -0.04442954 0.03152433 0.15674551
v -0.08868896 0.00720202 0.10724968
v -0.05514411 0.02131404 0.14953458
v -0.05706449 0.01973891 0.14791933
v -0.09060109 0.00420418 0.10701893
v -0.06683947 0.00420418 0.00041255
v -0.04641585 0.03152433 0.00723890
v -0.03207481 0.03152433 0.17101353
v -0.04273168 0.03152433 0.15899531
v -0.06964174 0.03152433 0.11311457
v -0.08822740 0.00886272 0.10619208
v -0.09116979 0.00420418 0.10596133
v -0.06711970 0.00420418 0.00097021
v -0.05180610 0.03152433 0.01262307
v -0.05161654 0.03152433 0.01233462
v -0.05070992 0.03152433 0.01121933
v -0.05016595 0.03152433 0.01064246
v -0.04783347 0.03152433 0.00835419
v -0.04919340 0.02887950 0.00718122
v -0.07022692 0.03152433 0.11194160
v -0.07185884 0.03152433 0.10726892
v -0.07196598 0.03152433 0.10623054
v -0.08945546 0.00734910 0.10461529
v -0.09165606 0.00420418 0.10461529
v -0.07086156 0.03152433 0.11048018
v -0.07101815 0.03152433 0.11007637
v -0.08437016 0.00420418 0.04294742
v -0.07424077 0.02308707 0.05204281
v -0.06024589 0.03152433 0.03512116
v -0.07207313 0.03152433 0.10474990
v -0.09176321 0.00420418 0.10178861
v -0.08515315 0.00420418 0.04552413
v -0.08545810 0.00610290 0.05221588
v -0.08567240 0.00635160 0.05396572
v -0.07663919 0.02226340 0.06240732
v -0.07406769 0.02564900 0.06098436
v -0.07325998 0.02474510 0.05396572
v -0.07153740 0.02590573 0.05200435
v -0.06091349 0.03152433 0.03700562
v -0.07161982 0.03152433 0.08492465
v -0.09130167 0.00420418 0.09619293
v -0.08630702 0.00420418 0.05071600
v -0.08683451 0.00420418 0.05352346
v -0.08849939 0.00420418 0.06521478
v -0.07525453 0.02423700 0.06240732
v -0.08874665 0.00420418 0.06775302
v -0.07147146 0.03152433 0.08279021
v -0.07118300 0.02841150 0.06240732
v -0.07091101 0.02817884 0.05959987
v -0.07185059 0.02617048 0.05396572
v -0.06722685 0.03152433 0.06061901
f 1 2 3
f 1 3 4
f 1 4 10
f 1 10 18
f 1 18 33
f 1 33 50
f 1 50 69
f 1 69 70
f 1 70 51
f 1 51 35
f 1 35 34
f 1 34 20
f 1 20 19
f 1 19 11
f 1 11 5
f 1 5 2
f 2 5 6
f 2 6 3
f 3 6 7
f 3 7 8
f 3 8 9
f 3 9 4
f 4 9 10
f 5 11 12
f 5 12 6
f 6 12 13
f 6 13 7
f 7 14 8
f 7 13 15
f 7 15 14
f 8 14 16
f 8 16 17
f 8 17 9
f 9 17 10
f 10 17 18
f 11 19 12
f 12 19 20
f 12 20 21
f 12 21 22
f 12 22 13
f 13 22 23
f 13 23 15
f 14 15 24
f 14 24 25
f 14 25 16
f 15 26 27
f 15 27 28
f 15 28 29
f 15 29 24
f 15 23 26
f 16 25 30
f 16 30 17
f 17 30 31
f 17 31 32
f 17 32 33
f 17 33 18
f 20 34 21
f 21 34 35
f 21 35 51
f 21 51 76
f 21 76 97
f 21 97 111
f 21 111 122
f 21 122 121
f 21 121 120
f 21 120 119
f 21 119 118
f 21 118 133
f 21 133 143
f 21 143 155
f 21 155 151
f 21 151 144
f 21 144 134
f 21 134 126
f 21 126 125
f 21 125 130
f 21 130 129
f 21 129 124
f 21 124 114
f 21 114 105
f 21 105 104
f 21 104 113
f 21 113 112
f 21 112 98
f 21 98 77
f 21 77 52
f 21 52 37
f 21 37 36
f 21 36 22
f 22 36 23
f 23 36 37
f 23 37 38
f 23 38 39
f 23 39 27
f 23 27 26
f 24 40 41
f 24 41 25
f 24 29 40
f 25 41 30
f 27 42 43
f 27 43 28
f 27 39 38
f 27 38 44
f 27 44 42
f 28 43 29
f 29 43 45
f 29 45 46
f 29 46 40
f 30 41 47
f 30 47 31
f 31 47 48
f 31 48 49
f 31 49 32
f 32 49 48
f 32 48 68
f 32 68 81
f 32 81 80
f 32 80 67
f 32 67 66
f 32 66 91
f 32 91 109
f 32 109 116
f 32 116 128
f 32 128 135
f 32 135 145
f 32 145 150
f 32 150 148
f 32 148 147
f 32 147 146
f 32 146 136
f 32 136 131
f 32 131 117
f 32 117 110
f 32 110 96
f 32 96 95
f 32 95 94
f 32 94 93
f 32 93 92
f 32 92 75
f 32 75 74
f 32 74 73
f 32 73 72
f 32 72 71
f 32 71 69
f 32 69 50
f 32 50 33
f 37 52 53
f 37 53 54
f 37 54 38
f 38 54 53
f 38 53 55
f 38 55 56
f 38 56 44
f 40 46 57
f 40 57 41
f 41 57 58
f 41 58 47
f 42 45 43
f 42 44 56
f 42 56 45
f 45 59 57
f 45 57 46
f 45 56 60
f 45 60 61
f 45 61 62
f 45 62 63
f 45 63 64
f 45 64 65
f 45 65 66
f 45 66 67
f 45 67 59
f 47 58 68
f 47 68 48
f 51 70 71
f 51 71 72
f 51 72 73
f 51 73 74
f 51 74 75
f 51 75 76
f 52 77 78
f 52 78 53
f 53 78 55
f 55 78 56
f 56 62 60
f 56 78 79
f 56 79 62
f 57 59 80
f 57 80 81
f 57 81 58
f 58 81 68
f 59 67 80
f 60 62 61
f 62 79 82
f 62 82 64
f 62 64 63
f 64 83 65
f 64 82 84
f 64 84 85
f 64 85 86
f 64 86 87
f 64 87 83
f 65 88 66
f 65 83 89
f 65 89 88
f 66 88 90
f 66 90 91
f 69 71 70
f 75 92 76
f 76 92 93
f 76 93 94
f 76 94 95
f 76 95 96
f 76 96 97
f 77 98 78
f 78 98 99
f 78 99 100
f 78 100 84
f 78 84 82
f 78 82 79
f 83 87 89
f 84 101 102
f 84 102 103
f 84 103 85
f 84 100 101
f 85 103 86
f 86 103 102
f 86 102 104
f 86 104 105
f 86 105 106
f 86 106 107
f 86 107 108
f 86 108 87
f 87 108 109
f 87 109 89
f 88 89 109
f 88 109 90
f 90 109 91
f 96 110 111
f 96 111 97
f 98 112 99
f 99 112 100
f 100 112 102
f 100 102 101
f 102 113 104
f 102 112 113
f 105 114 106
f 106 114 115
f 106 115 116
f 106 116 109
f 106 109 108
f 106 108 107
f 110 117 118
f 110 118 119
f 110 119 120
f 110 120 121
f 110 121 122
f 110 122 123
f 110 123 111
f 111 123 122
f 114 124 115
f 115 125 126
f 115 126 127
f 115 127 128
f 115 128 116
f 115 124 129
f 115 129 130
f 115 130 125
f 117 131 132
f 117 132 118
f 118 132 133
f 126 134 127
f 127 134 135
f 127 135 128
f 131 136 132
f 132 136 137
f 132 137 138
f 132 138 139
f 132 139 140
f 132 140 141
f 132 141 142
f 132 142 143
f 132 143 133
f 134 144 135
f 135 144 139
f 135 139 145
f 136 146 137
f 137 146 138
f 138 146 147
f 138 147 148
f 138 148 139
f 139 144 149
f 139 149 140
f 139 148 150
f 139 150 145
f 140 149 151
f 140 151 152
f 140 152 153
f 140 153 154
f 140 154 141
f 141 154 142
f 142 154 143
f 143 154 155
f 144 151 149
f 151 155 152
f 152 155 153
f 153 155 154

