# https://github.com/mikedh/trimesh
v 0.02258713 -0.14763018 0.08964046
v 0.02258713 -0.14823882 0.09617689
v 0.02258713 -0.11604811 0.08964046
v 0.04851843 -0.14348127 0.08964046
v 0.02258713 -0.14843320 0.09831680
v 0.02258713 -0.11604811 0.14656191
v 0.09234966 -0.11604811 0.08964046
v 0.05016433 -0.14333151 0.09115784
v 0.05073117 -0.14308933 0.08964046
v 0.02258713 -0.14847462 0.09899767
v 0.02258713 -0.13374631 0.13925382
v 0.02556475 -0.11604811 0.14774859
v 0.06044943 -0.11604811 0.15346148
v 0.05820938 -0.11790270 0.15385056
v 0.04989798 -0.14333788 0.11181765
v 0.06294217 -0.13959685 0.08964046
v 0.04557495 -0.14489930 0.11025487
v 0.05116142 -0.14301285 0.08964046
v 0.05976649 -0.14119969 0.08964046
v 0.05030774 -0.14337612 0.09336259
v 0.02258713 -0.14859890 0.11623363
v 0.02622721 -0.11604811 0.14800149
v 0.02258713 -0.14543464 0.13387812
v 0.04376516 -0.12095224 0.15123079
v 0.05952746 -0.11604811 0.15460276
v 0.05720546 -0.11604811 0.15582835
v 0.05633812 -0.11822136 0.15423963
v 0.03149952 -0.14422374 0.13535011
v 0.03855431 -0.13762436 0.13981797
v 0.03349371 -0.14373620 0.13497401
v 0.04114949 -0.14308933 0.12536389
v 0.03913481 -0.14357050 0.12713417
v 0.03124683 -0.14553024 0.13256824
v 0.04828624 -0.14372664 0.11288111
v 0.04838867 -0.14416957 0.11025487
v 0.05007554 -0.14346216 0.11025487
v 0.06152165 -0.14065797 0.08964046
v 0.06169239 -0.14055282 0.08964046
v 0.04557495 -0.14463799 0.11306917
v 0.02258713 -0.14826750 0.12952698
v 0.02258713 -0.14836628 0.12756864
v 0.02258713 -0.14856704 0.11849674
v 0.02258713 -0.14859890 0.11640223
v 0.03987239 -0.11604811 0.15204785
v 0.02258713 -0.14578835 0.13364467
v 0.02488181 -0.14596998 0.13409210
v 0.04554764 -0.11604811 0.15361063
v 0.04276123 -0.11604811 0.15285842
v 0.04557495 -0.12128365 0.15143830
v 0.05446686 -0.11604811 0.15581538
v 0.05658398 -0.11604811 0.15588022
v 0.04735061 -0.12654148 0.14842946
v 0.03149952 -0.14285352 0.13675726
v 0.02756577 -0.14610382 0.13422828
v 0.02944387 -0.14593493 0.13337232
v 0.03014730 -0.14607514 0.13149828
v 0.02258713 -0.14814641 0.12981878
v 0.02258713 -0.14690046 0.13247097
v 0.02258713 -0.14713308 0.13217916
v 0.02675990 -0.14610382 0.13422828
v 0.04633302 -0.12654148 0.14842946
f 1 2 5
f 1 5 10
f 1 10 21
f 1 21 43
f 1 43 42
f 1 42 41
f 1 41 40
f 1 40 57
f 1 57 59
f 1 59 58
f 1 58 45
f 1 45 23
f 1 23 11
f 1 11 6
f 1 6 3
f 1 3 7
f 1 7 16
f 1 16 38
f 1 38 37
f 1 37 19
f 1 19 18
f 1 18 9
f 1 9 4
f 1 4 2
f 2 4 5
f 3 6 12
f 3 12 22
f 3 22 44
f 3 44 48
f 3 48 47
f 3 47 50
f 3 50 51
f 3 51 26
f 3 26 25
f 3 25 13
f 3 13 7
f 4 8 5
f 4 9 8
f 5 8 10
f 6 11 12
f 7 13 14
f 7 14 15
f 7 15 16
f 8 17 10
f 8 9 18
f 8 18 19
f 8 19 20
f 8 20 17
f 10 17 21
f 11 22 12
f 11 23 24
f 11 24 22
f 13 25 14
f 14 25 26
f 14 26 27
f 14 27 28
f 14 28 29
f 14 29 30
f 14 30 31
f 14 31 15
f 15 31 32
f 15 32 33
f 15 33 34
f 15 34 35
f 15 35 36
f 15 36 37
f 15 37 38
f 15 38 16
f 17 20 19
f 17 19 35
f 17 35 39
f 17 39 40
f 17 40 41
f 17 41 42
f 17 42 43
f 17 43 21
f 19 37 35
f 22 24 44
f 23 45 46
f 23 46 24
f 24 47 48
f 24 48 44
f 24 46 49
f 24 49 50
f 24 50 47
f 26 51 27
f 27 51 52
f 27 52 53
f 27 53 28
f 28 53 54
f 28 54 55
f 28 55 30
f 28 30 29
f 30 55 33
f 30 33 32
f 30 32 31
f 33 55 56
f 33 56 39
f 33 39 34
f 34 39 35
f 35 37 36
f 39 56 40
f 40 56 55
f 40 55 54
f 40 54 57
f 45 58 46
f 46 58 59
f 46 59 60
f 46 60 50
f 46 50 49
f 50 60 53
f 50 53 61
f 50 61 51
f 51 61 52
f 52 61 53
f 53 60 54
f 54 60 59
f 54 59 57

