# https://github.com/mikedh/trimesh
v 0.02625330 -0.00954217 0.19224057
v 0.02625330 -0.00821466 0.19214136
v 0.02609774 -0.00821466 0.19220089
v 0.02586440 -0.00821466 0.19228025
v 0.02586440 -0.00954217 0.19224057
v 0.02625330 -0.01851521 0.19059384
v 0.02625330 -0.00821466 0.00175612
v 0.00695126 -0.00821466 0.19057400
v 0.02146992 -0.01674326 0.19051449
v 0.02303845 -0.01704536 0.19061368
v 0.02625330 -0.02096689 0.19005816
v 0.02625330 -0.02095817 0.00126012
v -0.04512147 -0.02305256 -0.00856072
v -0.05528453 -0.02305256 -0.00973129
v -0.05428638 -0.02216803 -0.00939400
v -0.06139015 -0.01070846 -0.00665607
v -0.06139015 -0.00821466 -0.00560455
v 0.00333456 -0.00821466 0.19007799
v -0.01354339 -0.00821466 0.18722102
v -0.01644712 -0.00821466 0.18670519
v -0.01305079 -0.01430174 0.18509814
v 0.02625330 -0.02305256 0.18922488
v 0.02625330 -0.02305256 0.00118076
v -0.06476055 -0.02305256 -0.01032648
v -0.06701613 -0.02079986 -0.00996936
v -0.06525314 -0.01921237 -0.00943368
v -0.06982912 -0.01896400 -0.00955272
v -0.06420314 -0.01068522 -0.00667592
v -0.06256979 -0.00821466 -0.00564423
v -0.03329913 -0.00821466 0.18343157
v -0.01897492 -0.02055004 0.18140788
v -0.01636934 -0.02119637 0.18164598
v -0.01040632 -0.02305256 0.18194356
v -0.06757355 -0.02305256 -0.01040584
v -0.06982912 -0.02079986 -0.01006856
v -0.07264211 -0.01903372 -0.00953287
v -0.06982912 -0.00821466 -0.00550535
v -0.06536981 -0.00821466 -0.00564423
v -0.03521767 -0.00821466 0.18299509
v -0.03324728 -0.01725015 0.17956276
v -0.01894899 -0.02305256 0.18013812
v -0.07039950 -0.02305256 -0.01026697
v -0.07264211 -0.02079986 -0.00996936
v -0.07435324 -0.01927918 -0.00943368
v -0.07265507 -0.00821466 -0.00504902
v -0.03756399 -0.00821466 0.18238005
v -0.03786214 -0.00850805 0.18218166
v -0.03491952 -0.01683185 0.17932468
v -0.03324728 -0.01865754 0.17878900
v -0.03459544 -0.02219127 0.17638835
v -0.03386951 -0.02305256 0.17605107
v -0.07264211 -0.02305256 -0.01010823
v -0.07536436 -0.02102498 -0.00951304
v -0.07690697 -0.02211284 -0.00937416
v -0.07623289 -0.02023632 -0.00923529
v -0.08307739 -0.01902500 -0.00685447
v -0.08109404 -0.01856168 -0.00723143
v -0.07393842 -0.00821466 -0.00453319
v -0.03799177 -0.00821466 0.18222134
v -0.03933993 -0.00821466 0.18154677
v -0.03883437 -0.00948408 0.18128884
v -0.03775843 -0.01974831 0.17656692
v -0.03607323 -0.02035251 0.17696371
v -0.03607323 -0.02305256 0.17541619
v -0.03548990 -0.02305256 0.17559474
v -0.07599955 -0.02305256 -0.00953287
v -0.08666817 -0.02305256 -0.00705288
v -0.07690697 -0.02238299 -0.00937416
v -0.08603298 -0.02161176 -0.00685447
v -0.08789966 -0.02247595 -0.00629895
v -0.07480694 -0.00821466 -0.00417606
v -0.04033809 -0.00821466 0.18097141
v -0.05153820 -0.02305256 0.16859120
v -0.04070106 -0.01137222 0.17948340
v -0.04951596 -0.02305256 0.16958321
v -0.07682919 -0.02305256 -0.00935432
v -0.08731633 -0.02305256 -0.00675528
v -0.08870337 -0.02305256 -0.00576327
v -0.08913116 -0.02305256 -0.00500934
v -0.08841818 -0.02185867 -0.00441415
v -0.07609029 -0.00821466 -0.00231110
v -0.04198440 -0.00821466 0.17958261
v -0.05188820 -0.02305256 0.16829361
v -0.09566455 -0.02305256 0.00891838
v -0.09563863 -0.02301625 0.00891838
v -0.08294776 -0.01332572 0.00118076
v -0.07812549 -0.00821466 0.00151804
v -0.08487926 -0.01426834 0.00330364
v -0.04269737 -0.00821466 0.17872947
v -0.06535685 -0.02305256 0.15347308
v -0.06507166 -0.02305256 0.15379052
v -0.10065534 -0.02305256 0.02873860
v -0.09954052 -0.02200101 0.02689347
v -0.09268305 -0.00821466 0.04282505
v -0.07879957 -0.00821466 0.00330364
v -0.04326775 -0.00821466 0.17797556
v -0.09325342 -0.02305256 0.11946721
v -0.09318860 -0.02305256 0.11954657
v -0.07417175 -0.02305256 0.14273960
v -0.10122572 -0.02305256 0.03143685
v -0.09976089 -0.02177588 0.02863940
v -0.09296823 -0.00821466 0.04425353
v -0.09080340 -0.00821466 0.11422944
v -0.09082932 -0.00831488 0.11428895
v -0.09134785 -0.01019140 0.11494368
v -0.09412195 -0.02305256 0.11817761
v -0.10537391 -0.02305256 0.06240719
v -0.09382379 -0.00821466 0.04927307
v -0.09374601 -0.00821466 0.04869771
v -0.09321453 -0.00821466 0.04552330
v -0.09652011 -0.00821466 0.10595613
v -0.09653308 -0.00821466 0.10593629
v -0.09684419 -0.01010571 0.10647197
v -0.09955347 -0.02305256 0.10903134
v -0.10616466 -0.02305256 0.07085906
v -0.10532205 -0.02185577 0.07085906
v -0.09699975 -0.00821466 0.09056024
v -0.09715531 -0.00821466 0.10440860
v -0.09738864 -0.00931705 0.10484509
v -0.09946274 -0.01355084 0.10329756
v -0.10025349 -0.02305256 0.10744413
v -0.10617762 -0.02305256 0.07173202
v -0.09772568 -0.00821466 0.10178971
v -0.09751828 -0.00821466 0.10315868
v -0.09976089 -0.01293647 0.10178971
v -0.10049978 -0.01517174 0.10178971
v -0.10397389 -0.02305256 0.09893275
v -0.10376648 -0.02305256 0.09942875
v -0.10611281 -0.02305256 0.07367634
v -0.09836087 -0.00954217 0.10178971
v -0.09920347 -0.01152908 0.10178971
v -0.10460909 -0.02305256 0.09627418
v -0.10462205 -0.02305256 0.09617498
f 1 2 3
f 1 3 4
f 1 4 5
f 1 5 6
f 1 6 11
f 1 11 22
f 1 22 23
f 1 23 12
f 1 12 7
f 1 7 2
f 2 7 17
f 2 17 29
f 2 29 38
f 2 38 37
f 2 37 45
f 2 45 58
f 2 58 71
f 2 71 81
f 2 81 87
f 2 87 95
f 2 95 94
f 2 94 102
f 2 102 110
f 2 110 109
f 2 109 108
f 2 108 117
f 2 117 123
f 2 123 124
f 2 124 118
f 2 118 112
f 2 112 111
f 2 111 103
f 2 103 96
f 2 96 89
f 2 89 82
f 2 82 72
f 2 72 60
f 2 60 59
f 2 59 46
f 2 46 39
f 2 39 30
f 2 30 20
f 2 20 19
f 2 19 18
f 2 18 8
f 2 8 4
f 2 4 3
f 4 8 5
f 5 8 9
f 5 9 10
f 5 10 6
f 6 10 11
f 7 12 13
f 7 13 14
f 7 14 15
f 7 15 16
f 7 16 17
f 8 18 9
f 9 18 11
f 9 11 10
f 11 18 19
f 11 19 20
f 11 20 21
f 11 21 22
f 12 23 13
f 13 23 22
f 13 22 33
f 13 33 41
f 13 41 51
f 13 51 65
f 13 65 64
f 13 64 75
f 13 75 73
f 13 73 83
f 13 83 91
f 13 91 90
f 13 90 99
f 13 99 98
f 13 98 97
f 13 97 106
f 13 106 114
f 13 114 121
f 13 121 128
f 13 128 127
f 13 127 132
f 13 132 133
f 13 133 129
f 13 129 122
f 13 122 115
f 13 115 107
f 13 107 100
f 13 100 92
f 13 92 84
f 13 84 79
f 13 79 78
f 13 78 77
f 13 77 67
f 13 67 76
f 13 76 66
f 13 66 52
f 13 52 42
f 13 42 34
f 13 34 24
f 13 24 14
f 14 24 25
f 14 25 26
f 14 26 15
f 15 26 16
f 16 26 27
f 16 27 28
f 16 28 29
f 16 29 17
f 20 30 21
f 21 30 31
f 21 31 22
f 22 31 32
f 22 32 33
f 24 34 35
f 24 35 25
f 25 35 27
f 25 27 26
f 27 35 36
f 27 36 28
f 28 36 37
f 28 37 38
f 28 38 29
f 30 39 31
f 31 40 41
f 31 41 32
f 31 39 40
f 32 41 33
f 34 42 43
f 34 43 35
f 35 43 36
f 36 43 44
f 36 44 37
f 37 44 45
f 39 46 47
f 39 47 48
f 39 48 40
f 40 48 49
f 40 49 41
f 41 49 50
f 41 50 51
f 42 52 43
f 43 53 44
f 43 52 54
f 43 54 53
f 44 53 55
f 44 55 56
f 44 56 57
f 44 57 45
f 45 57 56
f 45 56 58
f 46 59 47
f 47 59 60
f 47 60 61
f 47 61 48
f 48 62 63
f 48 63 50
f 48 50 49
f 48 61 62
f 50 63 64
f 50 64 65
f 50 65 51
f 52 66 54
f 53 54 55
f 54 67 55
f 54 66 68
f 54 68 67
f 55 67 69
f 55 69 56
f 56 69 70
f 56 70 71
f 56 71 58
f 60 72 73
f 60 73 74
f 60 74 61
f 61 74 75
f 61 75 62
f 62 75 63
f 63 75 64
f 66 76 68
f 67 77 70
f 67 70 69
f 67 68 76
f 70 77 78
f 70 78 79
f 70 79 80
f 70 80 81
f 70 81 71
f 72 82 73
f 73 75 74
f 73 82 83
f 79 84 85
f 79 85 80
f 80 86 87
f 80 87 81
f 80 85 88
f 80 88 86
f 82 89 90
f 82 90 91
f 82 91 83
f 84 92 93
f 84 93 85
f 85 93 94
f 85 94 95
f 85 95 88
f 86 88 87
f 87 88 95
f 89 96 97
f 89 97 98
f 89 98 99
f 89 99 90
f 92 100 101
f 92 101 93
f 93 101 94
f 94 101 102
f 96 103 104
f 96 104 105
f 96 105 97
f 97 105 106
f 100 107 108
f 100 108 109
f 100 109 110
f 100 110 101
f 101 110 102
f 103 111 104
f 104 111 105
f 105 111 106
f 106 111 112
f 106 112 113
f 106 113 114
f 107 115 108
f 108 115 116
f 108 116 117
f 112 114 113
f 112 118 119
f 112 119 120
f 112 120 114
f 114 120 121
f 115 122 123
f 115 123 117
f 115 117 116
f 118 124 125
f 118 125 120
f 118 120 119
f 120 125 126
f 120 126 127
f 120 127 128
f 120 128 121
f 122 129 123
f 123 130 124
f 123 129 130
f 124 130 131
f 124 131 125
f 125 127 126
f 125 131 132
f 125 132 127
f 129 133 130
f 130 133 131
f 131 133 132

