# https://github.com/mikedh/trimesh
v 0.10537039 -0.11604493 0.06898105
v 0.10537039 -0.11604493 0.06848021
v 0.10490041 -0.11604493 0.07097532
v 0.09286701 -0.13867954 0.04270048
v 0.09495766 -0.13779810 0.03614400
v 0.09499007 -0.13784995 0.03425901
v 0.10477075 -0.11650686 0.06521107
v 0.10487609 -0.11604493 0.06521107
v 0.09491715 -0.13774625 0.03241955
v 0.09919569 -0.11604493 0.08201206
v 0.08691108 -0.14097977 0.05339119
v 0.08782676 -0.14131914 0.05087787
v 0.08921243 -0.14045656 0.04976691
v 0.09158669 -0.14008419 0.04270048
v 0.09341803 -0.13914618 0.03425901
v 0.10424404 -0.11604493 0.06239725
v 0.09361251 -0.13865126 0.03146340
v 0.08990120 -0.13832603 0.01736696
v 0.08954466 -0.13797722 0.01530895
v 0.09056567 -0.13620962 0.01736696
v 0.09917137 -0.11604493 0.08205759
v 0.08120636 -0.13800550 0.06721444
v 0.07862952 -0.14104576 0.06521107
v 0.08517698 -0.14298775 0.05140603
v 0.08625472 -0.14321400 0.04931160
v 0.09812605 -0.11604493 0.08387884
v 0.08644920 -0.14328471 0.04743572
v 0.09158669 -0.14018788 0.03988666
v 0.09148945 -0.14031987 0.03425901
v 0.09144893 -0.14021617 0.03143608
v 0.10356336 -0.11604493 0.06008427
v 0.08837778 -0.14005120 0.02018079
v 0.08761607 -0.13977781 0.01745802
v 0.08074448 -0.14323758 0.01598281
v 0.08787538 -0.13851928 0.01444386
v 0.08700022 -0.13799136 0.01276831
v 0.08638438 -0.13199097 0.00751403
v 0.08661937 -0.13058161 0.00707692
v 0.08688678 -0.12776761 0.00643949
v 0.08969862 -0.13620962 0.01506309
v 0.06668526 -0.14043299 0.08351459
v 0.07628766 -0.14253053 0.06499252
v 0.07519372 -0.14326114 0.06391799
v 0.02259522 -0.16371808 0.03994130
v 0.03994438 -0.15955598 0.03425901
v 0.09745348 -0.11604493 0.08462555
v 0.06294964 -0.13959869 0.08963397
v 0.08644920 -0.14328471 0.04654331
v 0.06219603 -0.15210853 0.02299461
v 0.07128793 -0.14847907 0.02299461
v 0.07371082 -0.14742323 0.02299461
v 0.07371082 -0.14718284 0.02018079
v 0.07637680 -0.14559436 0.01723947
v 0.07961812 -0.14402003 0.01710288
v 0.08885588 -0.14026330 0.02299461
v 0.08674092 -0.12554279 0.00665804
v 0.08499060 -0.11604493 0.00610256
v 0.07887262 -0.14383620 0.01532717
v 0.07632818 -0.14418029 0.01445297
v 0.07713040 -0.14287463 0.01345128
v 0.07525855 -0.14331771 0.01309614
v 0.07810280 -0.13205696 0.00463646
v 0.08392907 -0.12937965 0.00453628
v 0.08451251 -0.12776761 0.00404454
v 0.08591438 -0.12776761 0.00502802
v 0.08368597 -0.12213488 0.00174978
v 0.08364546 -0.12018817 0.00177710
v 0.06169363 -0.14055554 0.08963397
v 0.06152346 -0.14065925 0.08963397
v 0.05977315 -0.14119659 0.08963397
v 0.02259522 -0.16419886 0.03703641
v 0.05115934 -0.14301132 0.08963397
v 0.05072987 -0.14309145 0.08963397
v 0.04851767 -0.14348268 0.08963397
v 0.02259522 -0.14763063 0.08963397
v 0.03680030 -0.16046099 0.03143608
v 0.03821028 -0.16007919 0.03143608
v 0.03994438 -0.15956070 0.03143608
v 0.09597057 -0.11604493 0.08610076
v 0.09315063 -0.11604493 0.08886905
v 0.09234840 -0.11604493 0.08963397
v 0.06360600 -0.15158532 0.02299461
v 0.06526718 -0.15096785 0.02299461
v 0.06808713 -0.14980830 0.02299461
v 0.05965159 -0.15293341 0.02299461
v 0.06192052 -0.15199540 0.02113694
v 0.06975641 -0.14897400 0.02101856
v 0.07077742 -0.14841780 0.02011704
v 0.07533958 -0.14617414 0.01808635
v 0.06923780 -0.14880902 0.01914268
v 0.07446442 -0.14601387 0.01621047
v 0.08336184 -0.11604493 0.00229615
v 0.08402631 -0.11604493 0.00370762
v 0.07359737 -0.14513244 0.01481722
v 0.07371082 -0.14352981 0.01287759
v 0.07653076 -0.13226436 0.00447255
v 0.07653076 -0.13058161 0.00340711
v 0.07934261 -0.12811169 0.00245095
v 0.07916434 -0.13063818 0.00398992
v 0.08216255 -0.12975203 0.00423578
v 0.08190324 -0.12749893 0.00277878
v 0.08267306 -0.12563235 0.00211403
v 0.08364546 -0.12375634 0.00181352
v 0.08122257 -0.11650686 -0.00164684
v 0.08319167 -0.11604493 0.00195922
v 0.08120636 -0.11604493 -0.00164684
v 0.08222738 -0.11604493 0.00011976
v 0.02259522 -0.16364266 0.03423169
v 0.02305711 -0.16360967 0.03425901
v 0.02513966 -0.16306289 0.03269274
v 0.03657341 -0.16042800 0.02862225
v 0.02259522 -0.11604493 0.08963397
v 0.03798338 -0.16003206 0.02862225
v 0.05965159 -0.15230179 0.02082733
v 0.03594945 -0.16016875 0.02717436
v 0.07089897 -0.14361937 0.01276831
v 0.07234946 -0.14043771 0.01031874
v 0.05683165 -0.15255160 0.02072715
v 0.07371082 -0.13237748 0.00439970
v 0.07371082 -0.13058161 0.00327052
v 0.07653076 -0.12845108 0.00223241
v 0.07934261 -0.12670233 0.00171335
v 0.08079310 -0.12638181 0.00187727
v 0.07898606 -0.11604493 -0.00314937
v 0.07922106 -0.11629947 -0.00294903
v 0.08110913 -0.11847243 -0.00127348
v 0.07927778 -0.11604493 -0.00296724
v 0.08098758 -0.11604493 -0.00188361
v 0.02259522 -0.16307703 0.03269274
v 0.02305711 -0.16309589 0.03266542
v 0.02259522 -0.11604493 0.00409919
v 0.03541464 -0.16016875 0.02717436
v 0.06526718 -0.13560629 0.00682195
v 0.07110966 -0.14155954 0.01118383
v 0.07218740 -0.14043771 0.01031874
v 0.06346015 -0.13215595 0.00461824
v 0.07371082 -0.12851235 0.00215956
v 0.07653076 -0.12704171 0.00156765
v 0.07831349 -0.12101775 -0.00108226
v 0.07653076 -0.11932086 -0.00202019
v 0.07676576 -0.11604493 -0.00339524
v 0.02259522 -0.14554723 0.01916999
v 0.02966940 -0.15469628 0.02421484
v 0.03353467 -0.16003206 0.02735649
v 0.05272328 -0.11604493 -0.00090924
v 0.05814438 -0.11794922 -0.00095477
v 0.02259522 -0.12146084 0.00655787
v 0.03440983 -0.15894793 0.02640034
v 0.06246344 -0.13544131 0.00693122
v 0.02259522 -0.12760734 0.00962667
v 0.05965159 -0.11650686 -0.00183807
v 0.07089897 -0.12827196 0.00225063
v 0.06250396 -0.13321651 0.00542870
v 0.02259522 -0.14413786 0.01810457
v 0.02259522 -0.14183764 0.01675684
v 0.02259522 -0.14157368 0.01662025
v 0.07371082 -0.11932086 -0.00188361
v 0.07653076 -0.12122045 -0.00117332
v 0.07298962 -0.11604493 -0.00314026
v 0.03150075 -0.15500738 0.02402361
v 0.05918971 -0.11604493 -0.00193823
v 0.05965159 -0.11604493 -0.00201109
v 0.06200155 -0.11604493 -0.00221143
v 0.06246344 -0.11650686 -0.00207484
v 0.03150075 -0.15309367 0.02274874
f 1 2 8
f 1 8 16
f 1 16 31
f 1 31 57
f 1 57 93
f 1 93 92
f 1 92 105
f 1 105 107
f 1 107 106
f 1 106 128
f 1 128 127
f 1 127 124
f 1 124 141
f 1 141 159
f 1 159 163
f 1 163 162
f 1 162 161
f 1 161 145
f 1 145 131
f 1 131 112
f 1 112 81
f 1 81 80
f 1 80 79
f 1 79 46
f 1 46 26
f 1 26 21
f 1 21 10
f 1 10 3
f 1 3 4
f 1 4 5
f 1 5 6
f 1 6 2
f 2 7 8
f 2 6 9
f 2 9 7
f 3 10 11
f 3 11 12
f 3 12 13
f 3 13 4
f 4 13 14
f 4 14 5
f 5 15 6
f 5 14 15
f 6 15 9
f 7 9 8
f 8 9 16
f 9 15 17
f 9 17 18
f 9 18 19
f 9 19 20
f 9 20 16
f 10 21 11
f 11 22 23
f 11 23 24
f 11 24 25
f 11 25 12
f 11 21 26
f 11 26 22
f 12 25 13
f 13 25 14
f 14 25 27
f 14 27 28
f 14 28 15
f 15 29 30
f 15 30 17
f 15 28 27
f 15 27 29
f 16 20 31
f 17 30 32
f 17 32 18
f 18 32 33
f 18 33 19
f 19 34 35
f 19 35 36
f 19 36 37
f 19 37 38
f 19 38 39
f 19 39 40
f 19 40 20
f 19 33 34
f 20 40 39
f 20 39 31
f 22 26 41
f 22 41 23
f 23 41 24
f 24 41 42
f 24 42 25
f 25 42 43
f 25 43 44
f 25 44 45
f 25 45 27
f 26 46 47
f 26 47 41
f 27 48 29
f 27 45 49
f 27 49 48
f 29 48 30
f 30 48 50
f 30 50 51
f 30 51 52
f 30 52 53
f 30 53 54
f 30 54 55
f 30 55 32
f 31 39 56
f 31 56 57
f 32 54 34
f 32 34 33
f 32 55 54
f 34 58 36
f 34 36 35
f 34 54 53
f 34 53 58
f 36 58 59
f 36 59 60
f 36 60 61
f 36 61 62
f 36 62 37
f 37 62 63
f 37 63 64
f 37 64 65
f 37 65 38
f 38 65 39
f 39 65 66
f 39 66 67
f 39 67 56
f 41 47 68
f 41 68 69
f 41 69 42
f 42 69 43
f 43 69 70
f 43 70 44
f 44 71 45
f 44 70 72
f 44 72 73
f 44 73 74
f 44 74 75
f 44 75 112
f 44 112 131
f 44 131 147
f 44 147 150
f 44 150 156
f 44 156 155
f 44 155 154
f 44 154 142
f 44 142 129
f 44 129 108
f 44 108 71
f 45 71 76
f 45 76 77
f 45 77 78
f 45 78 49
f 46 79 47
f 47 80 81
f 47 81 112
f 47 112 75
f 47 75 74
f 47 74 73
f 47 73 72
f 47 72 70
f 47 70 69
f 47 69 68
f 47 79 80
f 48 49 82
f 48 82 83
f 48 83 84
f 48 84 50
f 49 78 85
f 49 85 86
f 49 86 82
f 50 84 87
f 50 87 52
f 50 52 51
f 52 87 88
f 52 88 89
f 52 89 53
f 53 89 88
f 53 88 90
f 53 90 91
f 53 91 58
f 56 67 92
f 56 92 93
f 56 93 57
f 58 91 59
f 59 94 95
f 59 95 61
f 59 61 60
f 59 91 94
f 61 95 62
f 62 96 97
f 62 97 98
f 62 98 99
f 62 99 100
f 62 100 63
f 62 95 96
f 63 100 101
f 63 101 102
f 63 102 64
f 64 102 103
f 64 103 65
f 65 103 66
f 66 103 104
f 66 104 67
f 67 105 92
f 67 104 106
f 67 106 107
f 67 107 105
f 71 108 109
f 71 109 110
f 71 110 111
f 71 111 76
f 76 111 77
f 77 111 113
f 77 113 78
f 78 113 85
f 82 86 83
f 83 86 87
f 83 87 84
f 85 113 86
f 86 114 91
f 86 91 90
f 86 90 88
f 86 88 87
f 86 113 111
f 86 111 115
f 86 115 114
f 91 114 94
f 94 114 95
f 95 116 117
f 95 117 96
f 95 114 118
f 95 118 116
f 96 119 97
f 96 117 119
f 97 120 121
f 97 121 98
f 97 119 120
f 98 101 100
f 98 100 99
f 98 121 122
f 98 122 123
f 98 123 101
f 101 123 102
f 102 123 124
f 102 124 103
f 103 124 125
f 103 125 126
f 103 126 104
f 104 126 125
f 104 125 127
f 104 127 128
f 104 128 106
f 108 129 130
f 108 130 110
f 108 110 109
f 110 130 115
f 110 115 111
f 114 115 118
f 115 132 116
f 115 116 118
f 115 130 132
f 116 133 134
f 116 134 135
f 116 135 117
f 116 132 133
f 117 135 119
f 119 133 136
f 119 136 120
f 119 135 133
f 120 136 137
f 120 137 121
f 121 137 138
f 121 138 139
f 121 139 122
f 122 139 123
f 123 139 124
f 124 139 140
f 124 140 141
f 124 127 125
f 129 142 143
f 129 143 144
f 129 144 132
f 129 132 130
f 131 145 146
f 131 146 147
f 132 144 148
f 132 148 149
f 132 149 133
f 133 149 136
f 133 135 134
f 136 150 147
f 136 147 146
f 136 146 151
f 136 151 152
f 136 152 137
f 136 149 153
f 136 153 154
f 136 154 155
f 136 155 156
f 136 156 150
f 137 152 157
f 137 157 140
f 137 140 158
f 137 158 138
f 138 158 139
f 139 158 140
f 140 157 141
f 141 157 159
f 142 154 143
f 143 154 160
f 143 160 144
f 144 160 148
f 145 161 151
f 145 151 146
f 148 160 149
f 149 160 153
f 151 161 162
f 151 162 163
f 151 163 159
f 151 159 164
f 151 164 157
f 151 157 152
f 153 160 165
f 153 165 154
f 154 165 160
f 157 164 159

