# https://github.com/mikedh/trimesh
v 0.02625330 0.03152745 0.17470247
v 0.02625330 0.06337848 0.12552593
v -0.01486386 0.03974979 0.17924034
v -0.00892536 0.03424640 0.18504415
v 0.00138281 0.03152745 0.18440144
v 0.02625330 0.03152745 -0.00772785
v -0.03042717 0.06337848 0.14580030
v 0.02625330 0.06337848 -0.00044389
v -0.01503711 0.03974979 0.17924034
v -0.01073482 0.03443348 0.18519995
v -0.03301624 0.06337848 0.14652090
v -0.03323761 0.06337848 0.14657933
v -0.00791475 0.03152745 0.18788762
v -0.04640434 0.03152745 0.00722961
v 0.02625330 0.04112797 -0.01059080
v 0.02625330 0.06267067 -0.00174876
v 0.02530044 0.06337848 -0.00174876
v -0.01508523 0.03700277 0.18212277
v -0.01270790 0.03439295 0.18512205
v -0.03447921 0.06337848 0.14644300
v -0.03605767 0.06337848 0.14626772
v -0.01073482 0.03293370 0.18660220
v -0.01073482 0.03152745 0.18786814
v -0.04781918 0.03152745 0.00835921
v -0.04334365 0.04315159 0.00726855
v -0.04131282 0.04675607 0.00676218
v -0.03886812 0.04675607 0.00582734
v -0.03509519 0.04394358 0.00450298
v 0.00052620 0.05519979 -0.00490385
v 0.00334627 0.05238418 -0.00574131
v 0.02625330 0.04394358 -0.01107769
v 0.02625330 0.04346028 -0.01099979
v 0.02625330 0.06234640 -0.00213828
v 0.02243225 0.06337848 -0.00468961
v 0.02491545 0.06337848 -0.00219671
v -0.01829992 0.03742371 0.17959090
v -0.01573009 0.03549675 0.18264862
v -0.01240954 0.03152745 0.18732281
v -0.01197642 0.03152745 0.18753705
v -0.03605767 0.06333794 0.14630667
v -0.03730890 0.06337848 0.14560554
v -0.03784789 0.06279228 0.14580030
v -0.05016764 0.03152745 0.01063788
v -0.04271804 0.04675607 0.00793074
v -0.05070662 0.03152745 0.01122215
v -0.04578835 0.04465138 0.01048207
v -0.04087007 0.04870174 0.00703485
v -0.03253500 0.05144564 0.00444456
v -0.03298736 0.04956857 0.00430822
v -0.03042717 0.04956857 0.00352920
v 0.00052620 0.05801540 -0.00478699
v 0.00718656 0.05405546 -0.00661773
v 0.02625330 0.04619482 -0.01098031
v 0.02625330 0.06011386 -0.00455329
v 0.02088266 0.06337848 -0.00616978
v -0.02017675 0.03634174 0.17885083
v -0.01458474 0.03348248 0.18463514
v -0.01921427 0.03544062 0.18009728
v -0.01773205 0.03403126 0.18198643
v -0.02084086 0.03446466 0.17941562
v -0.02048475 0.03152745 0.18105159
v -0.03848313 0.06337848 0.14486546
v -0.04399814 0.04675607 0.00933299
v -0.04347840 0.04863315 0.00980042
v -0.05162098 0.03152745 0.01233227
v -0.04634659 0.04675607 0.01248809
v -0.04540336 0.04675607 0.01108582
v -0.01508523 0.06232769 0.00179585
v -0.01813629 0.05972410 0.00160109
v -0.04164006 0.04960598 0.00900191
v -0.04054283 0.05113384 0.01007308
v -0.03935898 0.05057882 0.00820339
v -0.00510431 0.06337848 -0.00233303
v -0.00220725 0.06337848 -0.00336525
v 0.00038183 0.06337848 -0.00424168
v 0.00052620 0.06082790 -0.00459223
v 0.00334627 0.06082790 -0.00533232
v 0.02625330 0.04906033 -0.01072713
v 0.02625330 0.05737308 -0.00729938
v 0.02166226 0.06226221 -0.00657877
v 0.01988167 0.06337848 -0.00681249
v -0.02930106 0.03152745 0.17382604
v -0.02161085 0.03152745 0.18017518
v -0.02550889 0.03152745 0.17696166
v -0.04060058 0.06337848 0.14293735
v -0.04241967 0.05051022 0.01124163
v -0.04596160 0.04824339 0.01307236
v -0.04624072 0.05126792 0.01823346
v -0.05180385 0.03152745 0.01262441
v -0.04740532 0.04675607 0.01455253
v -0.01615358 0.06072812 0.00125052
v -0.03791526 0.05409288 0.01266337
v -0.01569159 0.06269873 0.00329548
v -0.01457512 0.06337848 0.00333444
v -0.01349714 0.06337848 0.00236064
v -0.01162030 0.06337848 0.00099733
v -0.00733727 0.06337848 -0.00133977
v -0.04156307 0.05143941 0.01200120
v 0.00064170 0.06337848 -0.00431958
v 0.00334627 0.06337848 -0.00500122
v 0.01183534 0.06068135 -0.00687091
v 0.02625330 0.04958104 -0.01066870
v 0.02625330 0.05717976 -0.00747466
v 0.02625330 0.05545547 -0.00895483
v 0.02625330 0.05433297 -0.00963648
v 0.02625330 0.05414589 -0.00973385
v 0.01805296 0.06337848 -0.00716304
v -0.03210188 0.03152745 0.17096310
v -0.04107220 0.06337848 0.14246993
v -0.04311265 0.05098729 0.01311132
v -0.05437367 0.05103718 0.03560592
v -0.04633696 0.04872981 0.01455253
v -0.03841575 0.05449199 0.01455253
v -0.05204447 0.05164208 0.03143809
v -0.05121674 0.05360646 0.03342463
v -0.03209226 0.06239317 0.02688074
v -0.06024481 0.03152745 0.03511903
v -0.06019668 0.03199516 0.03523588
v -0.05887808 0.03549675 0.03426209
v -0.05790598 0.03843708 0.03410628
v -0.04867579 0.04520328 0.01620797
v -0.02809796 0.06337848 0.02314138
v -0.02784772 0.06337848 0.02275186
v -0.01651933 0.06337848 0.00598315
v -0.01619208 0.06337848 0.00553520
v 0.01441479 0.06337848 -0.00696829
v 0.02625330 0.05201937 -0.01037656
v 0.01759097 0.06337848 -0.00716304
v -0.04271804 0.03152745 0.15900492
v -0.04889716 0.06337848 0.13430954
v -0.05888771 0.03831236 0.03706661
v -0.05726111 0.05129286 0.04668768
v -0.05459504 0.05137393 0.03706661
v -0.05334382 0.05278329 0.03706661
v -0.05284333 0.05232182 0.03451528
v -0.05169798 0.05387462 0.03531379
v -0.05228509 0.06269250 0.06522870
v -0.05183273 0.06239317 0.06339796
v -0.02855033 0.06337848 0.02390094
v -0.06090892 0.03152745 0.03700818
v -0.06054317 0.03283392 0.03694976
v -0.05991756 0.03387223 0.03591754
v 0.01484790 0.06337848 -0.00700724
v -0.04393076 0.03152745 0.15760267
v -0.04937840 0.06337848 0.13374474
v -0.06722279 0.03152745 0.06061292
v -0.06286275 0.04551509 0.06084663
v -0.05677987 0.05303897 0.04834313
v -0.06330549 0.04964028 0.06815007
v -0.06263175 0.05062247 0.06727366
v -0.06287237 0.05107771 0.06916282
v -0.05537465 0.05463230 0.04834313
v -0.05713599 0.05937488 0.06686467
v -0.05450842 0.06235263 0.06904596
v -0.05412343 0.06206888 0.06715680
v -0.05369994 0.06176644 0.06522870
v -0.05091837 0.06337848 0.06522870
v -0.05308395 0.06301678 0.06807217
v -0.05241984 0.06337848 0.06803322
v -0.05140923 0.06337848 0.13111550
v -0.06806977 0.03831236 0.11358724
v -0.06830076 0.03549675 0.11421047
v -0.06963861 0.03152745 0.11310034
v -0.07146732 0.03152745 0.08277644
v -0.06004268 0.05387774 0.06359272
v -0.05735736 0.05684925 0.06057397
v -0.06683779 0.04956857 0.08774278
v -0.06605818 0.05169197 0.08774278
v -0.06512457 0.05309821 0.08774278
v -0.05763648 0.06012633 0.07366174
v -0.05652963 0.06176955 0.07648574
v -0.06046618 0.06337848 0.10965312
v -0.05704937 0.06337848 0.09052783
v -0.05578852 0.06337848 0.08412027
v -0.05295883 0.06337848 0.07048718
v -0.05972506 0.06337848 0.11650862
v -0.06561544 0.05099040 0.11165913
v -0.06652980 0.04956857 0.11023739
v -0.06860875 0.03831236 0.11218498
v -0.07086096 0.03152745 0.11049058
v -0.07022573 0.03152745 0.11195127
v -0.07162132 0.03152745 0.08491878
v -0.07141920 0.03173636 0.08289329
v -0.06697254 0.04956857 0.09052783
v -0.06614481 0.05182917 0.09052783
v -0.06054317 0.06337848 0.11010106
v -0.05978281 0.06337848 0.11637229
v -0.06019668 0.06337848 0.11491160
v -0.06587531 0.05136457 0.11023739
v -0.06723241 0.04956857 0.10743287
v -0.06809864 0.04657211 0.10729654
v -0.06832964 0.04478234 0.10817295
v -0.07101496 0.03152745 0.11008158
v -0.07207369 0.03152745 0.10476468
v -0.06846438 0.04551196 0.10591375
v -0.06616406 0.05182293 0.10743287
v -0.06060092 0.06337848 0.11278873
v -0.06057205 0.06337848 0.11306139
v -0.06846438 0.04551196 0.10628379
v -0.07196782 0.03152745 0.10622537
v -0.07186193 0.03152745 0.10725759
f 1 2 3
f 1 3 4
f 1 4 5
f 1 5 13
f 1 13 23
f 1 23 39
f 1 39 38
f 1 38 61
f 1 61 83
f 1 83 84
f 1 84 82
f 1 82 108
f 1 108 129
f 1 129 144
f 1 144 163
f 1 163 181
f 1 181 180
f 1 180 193
f 1 193 201
f 1 201 200
f 1 200 194
f 1 194 182
f 1 182 164
f 1 164 146
f 1 146 140
f 1 140 117
f 1 117 89
f 1 89 65
f 1 65 45
f 1 45 43
f 1 43 24
f 1 24 14
f 1 14 6
f 1 6 15
f 1 15 32
f 1 32 31
f 1 31 53
f 1 53 78
f 1 78 102
f 1 102 127
f 1 127 106
f 1 106 105
f 1 105 104
f 1 104 103
f 1 103 79
f 1 79 54
f 1 54 33
f 1 33 16
f 1 16 8
f 1 8 2
f 2 7 3
f 2 8 17
f 2 17 35
f 2 35 34
f 2 34 55
f 2 55 81
f 2 81 107
f 2 107 128
f 2 128 143
f 2 143 126
f 2 126 100
f 2 100 99
f 2 99 75
f 2 75 74
f 2 74 73
f 2 73 97
f 2 97 96
f 2 96 95
f 2 95 94
f 2 94 125
f 2 125 124
f 2 124 123
f 2 123 122
f 2 122 139
f 2 139 157
f 2 157 159
f 2 159 175
f 2 175 174
f 2 174 173
f 2 173 172
f 2 172 186
f 2 186 197
f 2 197 198
f 2 198 188
f 2 188 187
f 2 187 176
f 2 176 160
f 2 160 145
f 2 145 130
f 2 130 109
f 2 109 85
f 2 85 62
f 2 62 41
f 2 41 21
f 2 21 20
f 2 20 12
f 2 12 11
f 2 11 7
f 3 9 10
f 3 10 4
f 3 7 11
f 3 11 12
f 3 12 9
f 4 10 13
f 4 13 5
f 6 14 15
f 8 16 17
f 9 18 19
f 9 19 10
f 9 12 20
f 9 20 21
f 9 21 18
f 10 19 22
f 10 22 13
f 13 22 23
f 14 24 25
f 14 25 26
f 14 26 27
f 14 27 28
f 14 28 29
f 14 29 30
f 14 30 31
f 14 31 32
f 14 32 15
f 16 33 34
f 16 34 35
f 16 35 17
f 18 36 37
f 18 37 38
f 18 38 39
f 18 39 19
f 18 21 40
f 18 40 41
f 18 41 42
f 18 42 36
f 19 39 23
f 19 23 22
f 21 41 40
f 24 43 25
f 25 44 26
f 25 43 45
f 25 45 46
f 25 46 44
f 26 44 47
f 26 47 48
f 26 48 27
f 27 48 49
f 27 49 50
f 27 50 28
f 28 50 51
f 28 51 29
f 29 51 30
f 30 51 52
f 30 52 31
f 31 52 53
f 33 54 34
f 34 54 55
f 36 56 37
f 36 42 56
f 37 57 38
f 37 56 58
f 37 58 57
f 38 57 59
f 38 59 60
f 38 60 61
f 41 62 42
f 42 62 56
f 44 46 63
f 44 63 64
f 44 64 47
f 45 65 46
f 46 65 66
f 46 66 67
f 46 67 63
f 47 68 69
f 47 69 48
f 47 64 70
f 47 70 71
f 47 71 72
f 47 72 68
f 48 69 73
f 48 73 74
f 48 74 75
f 48 75 49
f 49 75 76
f 49 76 50
f 50 76 51
f 51 76 77
f 51 77 52
f 52 77 53
f 53 77 78
f 54 79 80
f 54 80 55
f 55 80 81
f 56 82 60
f 56 60 58
f 56 62 82
f 57 58 59
f 58 60 59
f 60 83 61
f 60 82 84
f 60 84 83
f 62 85 82
f 63 67 64
f 64 86 70
f 64 67 87
f 64 87 88
f 64 88 86
f 65 89 66
f 66 89 90
f 66 90 87
f 66 87 67
f 68 91 69
f 68 72 71
f 68 71 92
f 68 92 93
f 68 93 94
f 68 94 95
f 68 95 96
f 68 96 97
f 68 97 91
f 69 91 97
f 69 97 73
f 70 86 71
f 71 86 98
f 71 98 92
f 75 99 76
f 76 99 77
f 77 99 100
f 77 100 101
f 77 101 78
f 78 101 102
f 79 103 80
f 80 103 104
f 80 104 81
f 81 104 105
f 81 105 106
f 81 106 107
f 82 85 109
f 82 109 108
f 86 110 98
f 86 88 110
f 87 90 111
f 87 111 112
f 87 112 88
f 88 113 92
f 88 92 110
f 88 112 114
f 88 114 115
f 88 115 116
f 88 116 113
f 89 117 118
f 89 118 119
f 89 119 120
f 89 120 111
f 89 111 121
f 89 121 90
f 90 121 111
f 92 98 110
f 92 113 122
f 92 122 123
f 92 123 124
f 92 124 125
f 92 125 94
f 92 94 93
f 100 126 101
f 101 126 127
f 101 127 102
f 106 127 107
f 107 127 128
f 108 109 130
f 108 130 129
f 111 120 131
f 111 131 132
f 111 132 133
f 111 133 134
f 111 134 135
f 111 135 114
f 111 114 112
f 113 116 122
f 114 135 115
f 115 135 136
f 115 136 137
f 115 137 138
f 115 138 116
f 116 139 122
f 116 138 137
f 116 137 139
f 117 140 118
f 118 140 141
f 118 141 142
f 118 142 119
f 119 142 120
f 120 142 131
f 126 143 127
f 127 143 128
f 129 130 144
f 130 145 144
f 131 142 141
f 131 141 146
f 131 146 147
f 131 147 132
f 132 148 133
f 132 147 149
f 132 149 150
f 132 150 151
f 132 151 148
f 133 148 152
f 133 152 134
f 134 136 135
f 134 152 153
f 134 153 136
f 136 153 154
f 136 154 155
f 136 155 156
f 136 156 137
f 137 157 139
f 137 156 155
f 137 155 158
f 137 158 159
f 137 159 157
f 140 146 141
f 144 145 160
f 144 160 161
f 144 161 162
f 144 162 163
f 146 164 149
f 146 149 147
f 148 151 165
f 148 165 166
f 148 166 152
f 149 164 167
f 149 167 168
f 149 168 151
f 149 151 150
f 151 168 165
f 152 166 153
f 153 166 165
f 153 165 168
f 153 168 169
f 153 169 170
f 153 170 171
f 153 171 154
f 154 171 172
f 154 172 173
f 154 173 174
f 154 174 175
f 154 175 159
f 154 159 158
f 154 158 155
f 160 176 161
f 161 176 177
f 161 177 178
f 161 178 179
f 161 179 180
f 161 180 181
f 161 181 162
f 162 181 163
f 164 182 183
f 164 183 167
f 167 183 182
f 167 182 184
f 167 184 185
f 167 185 168
f 168 185 186
f 168 186 169
f 169 186 170
f 170 186 171
f 171 186 172
f 176 187 177
f 177 187 188
f 177 188 178
f 178 189 190
f 178 190 191
f 178 191 192
f 178 192 193
f 178 193 179
f 178 188 189
f 179 193 180
f 182 194 195
f 182 195 184
f 184 195 190
f 184 190 185
f 185 190 196
f 185 196 197
f 185 197 186
f 188 198 190
f 188 190 189
f 190 195 199
f 190 199 191
f 190 198 197
f 190 197 196
f 191 199 200
f 191 200 201
f 191 201 192
f 192 201 193
f 194 200 199
f 194 199 195

