# https://github.com/mikedh/trimesh
v 0.02258712 -0.02305256 0.07420438
v 0.02258712 -0.02305256 0.00185143
v 0.00519117 -0.02305256 0.07420438
v 0.02258712 -0.15032255 0.07420438
v 0.02233511 -0.02305256 0.00179399
v 0.02258712 -0.06302637 -0.01679684
v 0.01372568 -0.07273389 -0.02352667
v 0.00519117 -0.02305256 0.00179399
v 0.00519117 -0.15692766 0.07420438
v 0.01924961 -0.15189519 0.07420438
v 0.01912871 -0.16596323 0.03898520
v 0.02258712 -0.16371863 0.03993294
v 0.02191622 -0.02305256 0.00176526
v 0.02258712 -0.06468480 -0.01753395
v 0.02258712 -0.07244795 -0.02090367
v 0.01372568 -0.07321998 -0.02352667
v 0.01179298 -0.07269100 -0.02354583
v 0.02023554 -0.02305256 0.00166954
v 0.02004142 -0.02305256 0.00166954
v 0.00616347 -0.07259092 -0.02359368
v 0.00519117 -0.07263381 -0.02356497
v 0.00519117 -0.15727078 0.07367786
v 0.00617029 -0.15659884 0.07420438
v 0.01745484 -0.15263862 0.07420438
v 0.00532399 -0.16603471 0.05320115
v 0.00753765 -0.16856523 0.04403976
v 0.00915362 -0.16830790 0.04293886
v 0.00833286 -0.16872251 0.04216345
v 0.01912871 -0.16596323 0.03761626
v 0.02258712 -0.16419042 0.03702274
v 0.02258712 -0.07440661 -0.02087495
v 0.01742078 -0.07429224 -0.02241620
v 0.01179298 -0.07333435 -0.02354583
v 0.01464009 -0.07420646 -0.02312460
v 0.01179298 -0.07474973 -0.02321077
v 0.00897823 -0.07489270 -0.02326820
v 0.00519117 -0.07509286 -0.02332564
v 0.00616347 -0.07360599 -0.02359368
v 0.00519117 -0.07374896 -0.02356497
v 0.00519117 -0.15928662 0.06984865
v 0.00519117 -0.15980132 0.06874775
v 0.00519117 -0.16606330 0.05325859
v 0.00519117 -0.16613478 0.05306713
v 0.00642400 -0.16835080 0.04575334
v 0.00566114 -0.16883688 0.04497792
v 0.00519117 -0.16895126 0.04450884
v 0.00519117 -0.16909422 0.04284313
v 0.00833286 -0.16872251 0.04096682
v 0.01867065 -0.16572018 0.03573995
v 0.02258712 -0.16363285 0.03422741
v 0.01760809 -0.16622057 0.03683128
v 0.02258712 -0.07477833 -0.02076964
v 0.02181915 -0.07570762 -0.02064520
v 0.01742078 -0.07633668 -0.02132488
v 0.01460603 -0.07680847 -0.02167908
v 0.00897823 -0.07710870 -0.02231090
v 0.00519117 -0.07702292 -0.02257895
v 0.00519117 -0.16889406 0.04507365
v 0.00519117 -0.16882259 0.04091896
v 0.00616347 -0.16879398 0.04089024
v 0.01679415 -0.16586315 0.03553891
v 0.02258712 -0.16307527 0.03268615
v 0.02258712 -0.07652254 -0.01989850
v 0.02258712 -0.08468600 -0.01537046
v 0.02258712 -0.14183025 0.01675663
v 0.01076789 -0.10407244 -0.00671643
v 0.00519117 -0.07938189 -0.02123872
v 0.00519117 -0.10969108 -0.00390197
v 0.00519117 -0.16755018 0.03951172
v 0.00897823 -0.16669236 0.03761626
v 0.01542679 -0.16586315 0.03553891
v 0.02023554 -0.14560461 0.01910202
v 0.02258712 -0.14554742 0.01916903
v 0.01460603 -0.16273215 0.03298292
v 0.02258712 -0.14413203 0.01810643
v 0.00519117 -0.11756861 0.00113344
v 0.00519117 -0.16614908 0.03813321
v 0.01355199 -0.16567729 0.03573037
v 0.00519117 -0.16557721 0.03759711
v 0.00519117 -0.16025881 0.03270530
v 0.00519117 -0.15988709 0.03237024
v 0.01453622 -0.16457644 0.03457204
v 0.01742078 -0.14541875 0.01918818
v 0.00519117 -0.12667566 0.00730805
v 0.00519117 -0.12591793 0.00679110
v 0.00519117 -0.11832634 0.00162167
v 0.01179298 -0.16244622 0.03324139
v 0.00519117 -0.15821437 0.03094386
v 0.01014636 -0.14333141 0.01870953
v 0.00519117 -0.12809104 0.00829408
v 0.00519117 -0.15715641 0.03013015
f 1 2 5
f 1 5 13
f 1 13 18
f 1 18 19
f 1 19 8
f 1 8 3
f 1 3 9
f 1 9 23
f 1 23 24
f 1 24 10
f 1 10 4
f 1 4 12
f 1 12 30
f 1 30 50
f 1 50 62
f 1 62 73
f 1 73 75
f 1 75 65
f 1 65 64
f 1 64 63
f 1 63 52
f 1 52 31
f 1 31 15
f 1 15 14
f 1 14 6
f 1 6 2
f 2 6 7
f 2 7 5
f 3 8 21
f 3 21 39
f 3 39 37
f 3 37 57
f 3 57 67
f 3 67 68
f 3 68 76
f 3 76 86
f 3 86 85
f 3 85 84
f 3 84 90
f 3 90 91
f 3 91 88
f 3 88 81
f 3 81 80
f 3 80 79
f 3 79 77
f 3 77 69
f 3 69 59
f 3 59 47
f 3 47 46
f 3 46 58
f 3 58 43
f 3 43 42
f 3 42 41
f 3 41 40
f 3 40 22
f 3 22 9
f 4 10 11
f 4 11 12
f 5 7 13
f 6 14 7
f 7 14 15
f 7 15 16
f 7 16 33
f 7 33 17
f 7 17 18
f 7 18 13
f 8 19 20
f 8 20 21
f 9 22 23
f 10 24 25
f 10 25 11
f 11 25 26
f 11 26 27
f 11 27 28
f 11 28 48
f 11 48 29
f 11 29 30
f 11 30 12
f 15 31 32
f 15 32 16
f 16 32 34
f 16 34 35
f 16 35 36
f 16 36 37
f 16 37 33
f 17 33 38
f 17 38 20
f 17 20 18
f 18 20 19
f 20 38 39
f 20 39 21
f 22 40 24
f 22 24 23
f 24 40 41
f 24 41 25
f 25 41 42
f 25 42 43
f 25 43 26
f 26 44 45
f 26 45 28
f 26 28 27
f 26 43 44
f 28 45 46
f 28 46 47
f 28 47 48
f 29 49 50
f 29 50 30
f 29 48 51
f 29 51 49
f 31 52 32
f 32 52 53
f 32 53 34
f 33 37 38
f 34 53 54
f 34 54 55
f 34 55 56
f 34 56 35
f 35 56 57
f 35 57 36
f 36 57 37
f 37 39 38
f 43 58 45
f 43 45 44
f 45 58 46
f 47 59 60
f 47 60 48
f 48 60 61
f 48 61 49
f 48 49 51
f 49 61 62
f 49 62 50
f 52 63 53
f 53 63 64
f 53 64 65
f 53 65 54
f 54 65 55
f 55 66 56
f 55 65 66
f 56 67 57
f 56 66 68
f 56 68 67
f 59 61 60
f 59 69 70
f 59 70 71
f 59 71 61
f 61 71 62
f 62 72 73
f 62 71 74
f 62 74 72
f 65 75 66
f 66 75 68
f 68 75 76
f 69 77 70
f 70 78 71
f 70 77 79
f 70 79 80
f 70 80 81
f 70 81 78
f 71 78 82
f 71 82 74
f 72 83 84
f 72 84 85
f 72 85 86
f 72 86 75
f 72 75 73
f 72 74 83
f 74 82 87
f 74 87 88
f 74 88 83
f 75 86 76
f 78 87 82
f 78 81 87
f 81 88 87
f 83 89 90
f 83 90 84
f 83 88 89
f 88 91 89
f 89 91 90

