# https://github.com/mikedh/trimesh
v 0.05845085 -0.03061829 0.52870835
v 0.06154933 -0.03061829 0.52872342
v 0.05634991 -0.03061829 0.53181163
v 0.05710316 -0.02787325 0.53500529
v 0.05918170 -0.02956199 0.52929587
v 0.06082255 -0.02956199 0.52929587
v 0.06288888 -0.02787325 0.53500529
v 0.06489210 -0.03061829 0.53500529
v 0.05293182 -0.03061829 0.54033811
v 0.04984963 -0.02944089 0.54851812
v 0.05422862 -0.02518877 0.54502316
v 0.05433855 0.03811532 0.64432809
v 0.05870329 0.03265216 0.62882675
v 0.06128468 0.03265216 0.62882675
v 0.07000194 -0.01998127 0.55998217
v 0.06566367 0.03811532 0.64432809
v 0.06842420 -0.03061829 0.54283882
v 0.05009392 -0.03061829 0.54770464
v 0.04987609 -0.00966719 0.57929481
v 0.04984963 -0.03054429 0.54851812
v 0.04984555 0.00056615 0.59851706
v 0.05242287 0.03811532 0.64985675
v 0.07016481 -0.02940052 0.54848799
v 0.07064322 0.03811532 0.65580720
v 0.07014852 -0.03061829 0.54761425
v 0.04986998 -0.03061829 0.54845786
v 0.04987813 0.02032640 0.62927869
v 0.05086549 0.03811532 0.65493347
v 0.04984963 -0.03054429 0.55147075
v 0.04984555 -0.00054397 0.59851706
v 0.04984555 0.00056615 0.60149983
v 0.04985166 0.03053956 0.64853106
v 0.07016481 -0.03059811 0.55150088
v 0.06998769 0.03811532 0.66330931
v 0.07016277 0.02939579 0.65151383
v 0.07000194 0.01998327 0.64000458
v 0.07000398 -0.01001032 0.59003577
v 0.07010169 -0.02027730 0.57063274
v 0.07016277 -0.03061829 0.55147075
v 0.04991681 -0.03061829 0.55153101
v 0.05030157 0.03811532 0.65847361
v 0.04987813 -0.02032440 0.57072313
v 0.04984555 -0.00054397 0.60149983
v 0.04985166 0.03053956 0.65145357
v 0.06939324 0.03811532 0.66879277
v 0.06702765 0.03811532 0.67554164
v 0.06223946 -0.03061829 0.57191323
v 0.06518932 -0.03061829 0.56501371
v 0.05603844 -0.03061829 0.56837308
v 0.05060287 0.03811532 0.66584013
v 0.05000027 0.01999000 0.64000458
v 0.04987813 0.00966919 0.62070701
v 0.04985166 0.02944961 0.65145357
v 0.06267919 0.03811532 0.68259181
v 0.05774850 -0.03061829 0.57192829
v 0.06082662 0.02955726 0.67070594
v 0.05183045 0.03811532 0.67198643
v 0.05297050 0.03811532 0.67561696
v 0.06223132 0.03811532 0.68260688
v 0.05917560 0.02955726 0.67070594
v 0.05732913 0.03811532 0.68260688
v 0.05476607 0.03811532 0.67887089
f 1 2 8
f 1 8 17
f 1 17 25
f 1 25 39
f 1 39 48
f 1 48 47
f 1 47 55
f 1 55 49
f 1 49 40
f 1 40 26
f 1 26 18
f 1 18 9
f 1 9 3
f 1 3 4
f 1 4 5
f 1 5 6
f 1 6 2
f 2 6 7
f 2 7 8
f 3 9 10
f 3 10 11
f 3 11 12
f 3 12 13
f 3 13 4
f 4 13 5
f 5 13 14
f 5 14 6
f 6 14 7
f 7 15 8
f 7 14 16
f 7 16 15
f 8 15 17
f 9 18 10
f 10 19 11
f 10 18 20
f 10 20 30
f 10 30 21
f 10 21 19
f 11 19 12
f 12 22 28
f 12 28 41
f 12 41 50
f 12 50 57
f 12 57 58
f 12 58 62
f 12 62 61
f 12 61 59
f 12 59 54
f 12 54 46
f 12 46 45
f 12 45 34
f 12 34 24
f 12 24 16
f 12 16 14
f 12 14 13
f 12 19 22
f 15 23 17
f 15 16 24
f 15 24 23
f 17 23 25
f 18 26 20
f 19 21 27
f 19 27 28
f 19 28 22
f 20 26 29
f 20 29 43
f 20 43 30
f 21 30 43
f 21 43 31
f 21 31 44
f 21 44 32
f 21 32 27
f 23 33 25
f 23 24 33
f 24 34 35
f 24 35 36
f 24 36 37
f 24 37 38
f 24 38 33
f 25 33 39
f 26 40 29
f 27 32 41
f 27 41 28
f 29 40 42
f 29 42 43
f 31 43 53
f 31 53 44
f 32 44 41
f 33 38 37
f 33 37 39
f 34 45 35
f 35 45 36
f 36 45 46
f 36 46 47
f 36 47 37
f 37 47 48
f 37 48 39
f 40 49 42
f 41 44 50
f 42 49 51
f 42 51 52
f 42 52 43
f 43 52 53
f 44 53 50
f 46 54 47
f 47 54 56
f 47 56 55
f 49 55 51
f 50 53 57
f 51 58 57
f 51 57 53
f 51 53 52
f 51 55 58
f 54 59 56
f 55 56 60
f 55 60 61
f 55 61 62
f 55 62 58
f 56 59 61
f 56 61 60

