# https://github.com/mikedh/trimesh
v -0.05567186 -0.03489512 0.32636720
v -0.05547655 -0.03489512 0.32636720
v -0.06451212 -0.03489512 0.32641320
v -0.06082799 -0.02955508 0.32928082
v -0.04985374 -0.02945487 0.34854148
v -0.05231051 -0.03489512 0.33573683
v -0.05917713 -0.02955508 0.32928082
v -0.05710275 -0.02786574 0.33501609
v -0.05435199 0.03823331 0.44433866
v -0.05000176 -0.01999170 0.35999666
v -0.06482461 -0.03489512 0.32688859
v -0.06289414 -0.02786574 0.33501609
v -0.06129056 0.03263558 0.42881973
v -0.04985374 -0.03053576 0.34854148
v -0.05118389 -0.03489512 0.34154876
v -0.04987841 -0.00966953 0.37928797
v -0.04984757 0.00055957 0.39853328
v -0.05869811 0.03263558 0.42881973
v -0.06565312 0.03823331 0.44432333
v -0.05086523 0.03823331 0.45493509
v -0.04987841 0.02032343 0.42926444
v -0.06734305 -0.03489512 0.33328325
v -0.07000335 -0.01998454 0.35998133
v -0.05086523 -0.03489512 0.34512180
v -0.04984757 -0.00054996 0.39853328
v -0.04985374 -0.03053576 0.35147044
v -0.04984963 0.03053822 0.44852509
v -0.04984757 0.00055957 0.40152359
v -0.07066123 0.03823331 0.45580918
v -0.05054863 0.03823331 0.46585354
v -0.06797215 -0.03489512 0.33501609
v -0.06969703 -0.03322010 0.34180945
v -0.07016577 -0.02939760 0.34848014
v -0.07085037 0.03823331 0.45856946
v -0.05387297 -0.03489512 0.35538085
v -0.04984757 -0.00054996 0.40152359
v -0.04987841 -0.02032813 0.37073109
v -0.04984963 0.03053822 0.45146940
v -0.05054863 0.03823331 0.46824579
v -0.07001569 -0.03489512 0.34383366
v -0.07008970 -0.03489512 0.34450839
v -0.07016577 -0.03060019 0.35150111
v -0.07000541 -0.01001313 0.39003775
v -0.07000130 0.01997983 0.44001422
v -0.07016371 0.02940006 0.45151540
v -0.06824558 0.03823331 0.47183415
v -0.07010409 -0.02027803 0.37063909
v -0.05473850 -0.03489512 0.35789578
v -0.04984963 0.02944301 0.45146940
v -0.04987841 0.00967199 0.42070757
v -0.05677381 -0.03424372 0.36501117
v -0.05287588 0.03823331 0.47568322
v -0.07008970 -0.03489512 0.34481509
v -0.06319841 -0.03424372 0.36501117
v -0.06712513 0.03823331 0.47562188
v -0.06342661 -0.03489512 0.35815647
v -0.05869811 -0.03265460 0.37117581
v -0.05742963 0.03823331 0.48298264
v -0.05743991 0.03822615 0.48299797
v -0.06518233 -0.03489512 0.35815647
v -0.06129056 -0.03265460 0.37117581
v -0.06525017 0.03823331 0.47904156
v -0.05917301 0.02955754 0.47071471
v -0.06257343 0.03823331 0.48299797
v -0.06083005 0.02955754 0.47071471
f 1 2 6
f 1 6 15
f 1 15 24
f 1 24 35
f 1 35 48
f 1 48 56
f 1 56 60
f 1 60 53
f 1 53 41
f 1 41 40
f 1 40 31
f 1 31 22
f 1 22 11
f 1 11 3
f 1 3 4
f 1 4 7
f 1 7 2
f 2 5 6
f 2 7 8
f 2 8 9
f 2 9 10
f 2 10 5
f 3 11 12
f 3 12 4
f 4 12 13
f 4 13 18
f 4 18 7
f 5 14 15
f 5 15 6
f 5 10 16
f 5 16 17
f 5 17 25
f 5 25 14
f 7 18 8
f 8 18 9
f 9 18 19
f 9 19 29
f 9 29 34
f 9 34 46
f 9 46 55
f 9 55 62
f 9 62 64
f 9 64 58
f 9 58 52
f 9 52 39
f 9 39 30
f 9 30 20
f 9 20 10
f 10 20 21
f 10 21 16
f 11 22 23
f 11 23 19
f 11 19 12
f 12 19 13
f 13 19 18
f 14 24 15
f 14 25 36
f 14 36 26
f 14 26 24
f 16 21 17
f 17 21 27
f 17 27 38
f 17 38 28
f 17 28 36
f 17 36 25
f 19 23 29
f 20 30 27
f 20 27 21
f 22 31 32
f 22 32 23
f 23 32 33
f 23 33 34
f 23 34 29
f 24 26 35
f 26 37 35
f 26 36 37
f 27 30 39
f 27 39 38
f 28 38 49
f 28 49 36
f 31 40 32
f 32 40 41
f 32 41 33
f 33 41 42
f 33 42 34
f 34 43 44
f 34 44 45
f 34 45 46
f 34 42 47
f 34 47 43
f 35 37 48
f 36 49 50
f 36 50 37
f 37 51 48
f 37 50 51
f 38 39 49
f 39 52 50
f 39 50 49
f 41 53 42
f 42 53 47
f 43 47 53
f 43 53 54
f 43 54 44
f 44 55 46
f 44 46 45
f 44 54 55
f 48 51 56
f 50 52 51
f 51 57 61
f 51 61 54
f 51 54 60
f 51 60 56
f 51 52 57
f 52 58 59
f 52 59 57
f 53 60 54
f 54 61 55
f 55 61 62
f 57 59 63
f 57 63 65
f 57 65 61
f 58 64 59
f 59 64 65
f 59 65 63
f 61 65 64
f 61 64 62

