# https://github.com/mikedh/trimesh
v 0.05521880 -0.03061830 0.05457273
v 0.06478108 -0.03061830 0.05458534
v 0.05320194 -0.03061830 0.05646554
v 0.04998209 -0.00930005 0.05997354
v 0.05500044 -0.00930005 0.05526677
v 0.06499945 -0.00930005 0.05526677
v 0.06715726 -0.00930005 0.05728576
v 0.07001780 -0.00930005 0.05997354
v 0.07001780 -0.03061830 0.05996090
v 0.04998010 -0.03061830 0.05996090
v 0.04986496 -0.02964995 0.11900374
v 0.04985901 -0.01962839 0.13890341
v 0.04985504 -0.00961101 0.15881571
v 0.04998209 -0.00930005 0.06030160
v 0.07001780 -0.00930005 0.06030160
v 0.07013492 -0.00963814 0.15889141
v 0.07011905 -0.02968960 0.11906683
v 0.07011110 -0.03061830 0.11832234
v 0.04987291 -0.03061830 0.11823401
v 0.04988481 -0.03061830 0.12474525
v 0.04985504 -0.01060231 0.16305560
v 0.04985504 -0.00961101 0.16305560
v 0.05000591 -0.00930005 0.16328272
v 0.06997214 -0.00930005 0.16347200
v 0.07013492 -0.00963814 0.16323224
v 0.07013492 -0.01057101 0.16323224
v 0.07010713 -0.03047430 0.12499762
v 0.07010514 -0.03061830 0.12466955
v 0.04988481 -0.03050769 0.12499762
v 0.05059151 -0.03061830 0.13063818
v 0.04998209 -0.03004021 0.13008296
v 0.04999797 -0.02000404 0.15000787
v 0.05506595 -0.00930005 0.18007821
v 0.06615875 -0.00930005 0.17511904
v 0.06326247 -0.00930005 0.18348524
v 0.07000986 -0.02002074 0.15004572
v 0.07002375 -0.03005273 0.13012081
v 0.06977165 -0.03061830 0.12957820
v 0.05281682 -0.03061830 0.13583708
v 0.05661037 -0.03061830 0.14424112
v 0.05674734 -0.00930005 0.18346000
v 0.06043965 -0.00930005 0.18348524
v 0.06204163 -0.01120753 0.18236217
v 0.06339548 -0.03061830 0.14424112
v 0.06504510 -0.03061830 0.14060694
v 0.06717909 -0.03061830 0.13586232
v 0.06942624 -0.03061830 0.13065079
v 0.05796620 -0.01120753 0.18236217
f 1 2 9
f 1 9 18
f 1 18 28
f 1 28 38
f 1 38 47
f 1 47 46
f 1 46 45
f 1 45 44
f 1 44 40
f 1 40 39
f 1 39 30
f 1 30 20
f 1 20 19
f 1 19 10
f 1 10 3
f 1 3 4
f 1 4 5
f 1 5 6
f 1 6 2
f 2 6 7
f 2 7 8
f 2 8 9
f 3 10 4
f 4 10 11
f 4 11 12
f 4 12 13
f 4 13 22
f 4 22 14
f 4 14 23
f 4 23 33
f 4 33 41
f 4 41 42
f 4 42 35
f 4 35 34
f 4 34 24
f 4 24 15
f 4 15 8
f 4 8 7
f 4 7 6
f 4 6 5
f 8 15 25
f 8 25 16
f 8 16 17
f 8 17 9
f 9 17 18
f 10 19 11
f 11 19 20
f 11 20 21
f 11 21 12
f 12 21 13
f 13 21 22
f 14 22 23
f 15 24 25
f 16 25 26
f 16 26 17
f 17 27 18
f 17 26 27
f 18 27 28
f 20 29 21
f 20 30 31
f 20 31 29
f 21 31 32
f 21 32 33
f 21 33 22
f 21 29 31
f 22 33 23
f 24 34 25
f 25 34 26
f 26 34 35
f 26 35 36
f 26 36 37
f 26 37 27
f 27 37 28
f 28 37 38
f 30 39 32
f 30 32 31
f 32 39 40
f 32 40 33
f 33 40 41
f 35 42 48
f 35 48 43
f 35 43 44
f 35 44 36
f 36 44 45
f 36 45 46
f 36 46 47
f 36 47 37
f 37 47 38
f 40 44 43
f 40 43 48
f 40 48 41
f 41 48 42

