# https://github.com/mikedh/trimesh
v -0.06527814 -0.03489512 0.23232779
v -0.05467216 -0.03489512 0.23247695
v -0.06596105 -0.03489512 0.23459834
v -0.07016004 -0.03046316 0.23849308
v -0.06347033 -0.03430235 0.22498581
v -0.05650984 -0.03430235 0.22498581
v -0.04985398 -0.03043559 0.23849308
v -0.05404102 -0.03489512 0.23459834
v -0.06895749 -0.03489512 0.24535441
v -0.07016004 -0.03046316 0.24230492
v -0.07016004 -0.02942237 0.23849308
v -0.07015805 0.03552000 0.11462414
v -0.07014810 -0.01041250 0.19870055
v -0.07011823 0.02968194 0.11909893
v -0.06162867 -0.03275152 0.21832335
v -0.06500140 0.03552000 0.09599572
v -0.05836345 -0.03275152 0.21832335
v -0.05498674 0.03552000 0.09592944
v -0.04986592 0.02964748 0.11901608
v -0.04985796 0.01961870 0.13892061
v -0.04985597 0.00960371 0.15884173
v -0.04985398 -0.03043559 0.24218893
v -0.05093509 -0.03489512 0.24598420
v -0.05103663 -0.03489512 0.24528813
v -0.04982013 0.03552000 0.11424297
v -0.06891766 -0.03489512 0.24966347
v -0.07016004 -0.02942237 0.24230492
v -0.06838010 -0.03489512 0.25498351
v -0.07002266 0.03004725 0.13013676
v -0.06943930 0.03552000 0.11894977
v -0.06973994 0.03552000 0.10955271
v -0.07012619 0.01966006 0.13900349
v -0.06806154 0.03552000 0.10388464
v -0.06511488 0.03552000 0.09627748
v -0.06257439 0.02828274 0.10501161
v -0.06059734 0.02970262 0.09944299
v -0.05940075 0.02970262 0.09944299
v -0.05742968 0.02828274 0.10501161
v -0.05494095 0.03552000 0.09606203
v -0.05050503 0.03301108 0.11233702
v -0.04985398 -0.02946373 0.24218893
v -0.05137509 -0.03489512 0.25430401
v -0.05107844 -0.03489512 0.24961376
v -0.04991172 0.03552000 0.11379549
v -0.04984403 0.03552000 0.11459100
v -0.04998339 0.03003347 0.13010362
v -0.06563851 -0.03489512 0.26522583
v -0.07000872 0.02001847 0.15007445
v -0.06490981 0.03552000 0.13479388
v -0.05191465 0.03552000 0.10501161
v -0.05427596 -0.03489512 0.26497722
v -0.04999733 0.01999779 0.15002474
v -0.05239647 0.03552000 0.12499905
v -0.05481352 0.03552000 0.13379946
v -0.05509425 0.03552000 0.13477728
v -0.06550512 -0.03489512 0.26522583
v -0.06173618 -0.02902260 0.26191115
v -0.06371721 -0.02733391 0.25498351
v -0.06229366 0.03299040 0.14329597
v -0.06408554 0.03552000 0.13479388
v -0.05629282 -0.02733391 0.25498351
v -0.05826788 -0.02902260 0.26191115
v -0.05437949 -0.03489512 0.26517610
v -0.05771638 0.03299040 0.14329597
f 1 2 8
f 1 8 24
f 1 24 23
f 1 23 43
f 1 43 42
f 1 42 51
f 1 51 63
f 1 63 56
f 1 56 47
f 1 47 28
f 1 28 26
f 1 26 9
f 1 9 3
f 1 3 4
f 1 4 5
f 1 5 6
f 1 6 2
f 2 7 8
f 2 6 7
f 3 9 4
f 4 9 10
f 4 10 27
f 4 27 11
f 4 11 12
f 4 12 13
f 4 13 14
f 4 14 5
f 5 15 17
f 5 17 6
f 5 14 16
f 5 16 15
f 6 17 18
f 6 18 19
f 6 19 20
f 6 20 21
f 6 21 7
f 7 22 23
f 7 23 24
f 7 24 8
f 7 21 25
f 7 25 22
f 9 26 10
f 10 26 28
f 10 28 27
f 11 27 12
f 12 29 30
f 12 30 49
f 12 49 60
f 12 60 55
f 12 55 54
f 12 54 53
f 12 53 45
f 12 45 25
f 12 25 44
f 12 44 50
f 12 50 39
f 12 39 18
f 12 18 16
f 12 16 34
f 12 34 33
f 12 33 31
f 12 31 14
f 12 14 32
f 12 32 13
f 12 27 29
f 13 32 14
f 14 31 33
f 14 33 34
f 14 34 16
f 15 16 35
f 15 35 36
f 15 36 37
f 15 37 17
f 16 18 36
f 16 36 35
f 17 37 38
f 17 38 18
f 18 38 37
f 18 37 36
f 18 39 40
f 18 40 19
f 19 40 25
f 19 25 20
f 20 25 21
f 22 25 41
f 22 41 42
f 22 42 43
f 22 43 23
f 25 40 44
f 25 45 46
f 25 46 41
f 27 28 47
f 27 47 48
f 27 48 29
f 29 49 30
f 29 48 49
f 39 50 40
f 40 50 44
f 41 51 42
f 41 46 52
f 41 52 51
f 45 53 46
f 46 53 54
f 46 54 55
f 46 55 52
f 47 56 62
f 47 62 57
f 47 57 58
f 47 58 49
f 47 49 48
f 49 59 64
f 49 64 60
f 49 58 57
f 49 57 59
f 51 61 62
f 51 62 63
f 51 52 55
f 51 55 61
f 55 60 64
f 55 64 62
f 55 62 61
f 56 63 62
f 57 62 64
f 57 64 59

