# https://github.com/mikedh/trimesh
v 0.03518505 0.06492814 0.13475513
v 0.03518505 0.05507848 0.13473856
v 0.03518505 0.06774886 0.12501469
v 0.03004371 0.07002094 0.13013339
v 0.02001567 0.07000703 0.15004498
v -0.03512821 0.06579483 0.26537323
v -0.02733016 0.06371756 0.25498673
v -0.02901641 0.06173570 0.26191106
v 0.03298948 0.06229428 0.14330289
v 0.03298948 0.05771632 0.14330289
v 0.03003682 0.04998171 0.13010025
v 0.03518505 0.05225975 0.12531286
v -0.02901641 0.05826695 0.26191106
v -0.02733016 0.05629304 0.25498673
v -0.03512821 0.05422571 0.26530698
v 0.02000190 0.04999761 0.15002844
v 0.03518505 0.07009052 0.11464477
v 0.03518505 0.07009450 0.11457849
v 0.03047043 0.07010444 0.12501469
v -0.02942249 0.07016009 0.24229765
v -0.03512821 0.06870302 0.25450633
v 0.03050484 0.04988430 0.12501469
v 0.03518505 0.04991412 0.11454538
v 0.03518505 0.05051444 0.11939901
v -0.02946378 0.04985250 0.24219826
v -0.03512821 0.05149444 0.25501987
v 0.03518505 0.07007660 0.11449566
v 0.03298260 0.06950013 0.11242500
v 0.02968581 0.07011636 0.11908427
v 0.01056577 0.07013226 0.16323105
v -0.01941510 0.07015413 0.22246888
v -0.02942249 0.07016009 0.23848760
v -0.03046177 0.07016009 0.24229765
v -0.03512821 0.06889782 0.25127608
v 0.02964451 0.04986443 0.11901802
v 0.01060019 0.04985647 0.16306537
v 0.03518505 0.05029380 0.10989049
v -0.03043424 0.04985250 0.24219826
v -0.02946378 0.04985250 0.23850417
v 0.00057903 0.04985449 0.18277821
v -0.03512821 0.05109886 0.25119326
v 0.03518505 0.06790788 0.10502025
v 0.03518505 0.06594591 0.09923893
v 0.01965777 0.07012630 0.13899589
v 0.03518505 0.06490429 0.09643939
v -0.03430917 0.06347107 0.22498682
v -0.00001976 0.07014021 0.18292728
v -0.01941510 0.07015413 0.21859258
v -0.03046177 0.07016009 0.23848760
v -0.03512821 0.06908667 0.24625677
v 0.03518505 0.05524148 0.09614122
v 0.03518505 0.05410445 0.09904015
v 0.03518505 0.05209675 0.10424170
v 0.01962336 0.04985846 0.13891304
v -0.03430917 0.05650971 0.22498682
v 0.00057903 0.04985449 0.17875281
v -0.03043424 0.04985250 0.23850417
v -0.03512821 0.05103923 0.24527943
v -0.00038454 0.07014021 0.17881906
v 0.03518505 0.06474725 0.09619093
v 0.02828174 0.06257456 0.10502025
v -0.03275369 0.06163035 0.21831095
v -0.03512821 0.06579483 0.23444566
v -0.03512821 0.06583061 0.23456162
v -0.03512821 0.06895348 0.24532911
v 0.02828174 0.05743008 0.10502025
v 0.02969957 0.05940200 0.09943771
v 0.03518505 0.05531503 0.09614122
v -0.03275369 0.05836236 0.21831095
v 0.00960908 0.04985647 0.15882465
v -0.03512821 0.05419191 0.23444566
v -0.00001288 0.04985449 0.17875281
v 0.02969957 0.06059866 0.09943771
f 1 2 12
f 1 12 24
f 1 24 23
f 1 23 37
f 1 37 53
f 1 53 52
f 1 52 51
f 1 51 68
f 1 68 60
f 1 60 45
f 1 45 43
f 1 43 42
f 1 42 27
f 1 27 18
f 1 18 17
f 1 17 3
f 1 3 4
f 1 4 5
f 1 5 6
f 1 6 7
f 1 7 8
f 1 8 9
f 1 9 10
f 1 10 2
f 2 11 12
f 2 10 13
f 2 13 14
f 2 14 15
f 2 15 16
f 2 16 11
f 3 17 4
f 4 17 18
f 4 18 19
f 4 19 20
f 4 20 5
f 5 20 6
f 6 20 21
f 6 21 34
f 6 34 50
f 6 50 65
f 6 65 64
f 6 64 63
f 6 63 71
f 6 71 58
f 6 58 41
f 6 41 26
f 6 26 15
f 6 15 13
f 6 13 8
f 6 8 7
f 8 13 10
f 8 10 9
f 11 22 23
f 11 23 24
f 11 24 12
f 11 16 25
f 11 25 22
f 13 15 14
f 15 26 25
f 15 25 16
f 18 27 28
f 18 28 29
f 18 29 19
f 19 29 30
f 19 30 31
f 19 31 20
f 20 31 48
f 20 48 32
f 20 32 49
f 20 49 33
f 20 33 21
f 21 33 34
f 22 35 23
f 22 25 36
f 22 36 35
f 23 35 37
f 25 26 38
f 25 38 57
f 25 57 39
f 25 39 56
f 25 56 40
f 25 40 36
f 26 41 38
f 27 42 28
f 28 42 43
f 28 43 29
f 29 44 30
f 29 43 45
f 29 45 46
f 29 46 44
f 30 44 47
f 30 47 31
f 31 47 44
f 31 44 48
f 32 48 49
f 33 50 34
f 33 49 50
f 35 51 52
f 35 52 53
f 35 53 37
f 35 36 54
f 35 54 55
f 35 55 51
f 36 56 54
f 36 40 56
f 38 41 58
f 38 58 57
f 39 57 72
f 39 72 56
f 44 46 49
f 44 49 59
f 44 59 48
f 45 60 61
f 45 61 62
f 45 62 46
f 46 62 69
f 46 69 55
f 46 55 71
f 46 71 63
f 46 63 64
f 46 64 49
f 48 59 49
f 49 64 65
f 49 65 50
f 51 66 67
f 51 67 73
f 51 73 68
f 51 55 69
f 51 69 66
f 54 56 70
f 54 70 55
f 55 57 71
f 55 70 57
f 56 72 70
f 57 58 71
f 57 70 72
f 60 68 73
f 60 73 61
f 61 73 62
f 62 73 67
f 62 67 69
f 66 69 67

