# https://github.com/mikedh/trimesh
v 0.05500797 -0.07642005 0.73497576
v 0.05500797 -0.07641556 0.66495574
v 0.06499282 -0.07621381 0.03507102
v 0.06499282 -0.07625864 0.96492898
v 0.05500797 -0.07639763 0.93499076
v 0.03443762 -0.07001784 0.93991479
v 0.03438002 -0.07001336 0.06028217
v 0.03438002 -0.07001336 0.05998671
v 0.05500797 -0.07638418 0.33514275
v 0.05500797 -0.07624968 0.02502593
v 0.06499282 -0.07582825 0.00503430
v 0.07213073 -0.07212950 0.00503430
v 0.07231175 -0.07230435 0.03507102
v 0.05500797 -0.07637073 0.26512273
v 0.05500797 -0.07631693 0.06500924
v 0.07231586 -0.07233573 0.74492234
v 0.07231586 -0.07233573 0.77495906
v 0.07230353 -0.07232676 0.95498240
v 0.07230353 -0.07231779 0.96492898
v 0.07213073 -0.07212950 0.99496570
v 0.06499282 -0.07582825 0.99496570
v 0.05500797 -0.07624968 0.97497407
v 0.05500797 -0.07609276 0.98492065
v 0.05500797 -0.07582825 0.99496570
v 0.04784126 -0.07212950 0.99496570
v 0.04855711 -0.07143009 1.00136697
v 0.04412625 -0.06499651 0.99496570
v 0.03443762 -0.06456163 0.94592214
v 0.03438002 -0.06451231 0.07397103
v 0.03438002 -0.06482166 0.07347861
v 0.03438002 -0.06951123 0.06530470
v 0.03438002 -0.06954261 0.06500924
v 0.03438002 -0.06461543 0.05417633
v 0.04412625 -0.06499651 0.00503430
v 0.04855711 -0.07143009 -0.00136697
v 0.04784126 -0.07212950 0.00503430
v 0.05500797 -0.07582825 0.00503430
v 0.05500797 -0.07609276 0.01507935
v 0.06499282 -0.07286476 -0.00235176
v 0.07142723 -0.07143458 -0.00136697
v 0.07582929 -0.06499651 0.00503430
v 0.07624070 -0.06499651 0.03507102
v 0.07623246 -0.06499651 0.96492898
v 0.07582929 -0.06499651 0.99496570
v 0.07142723 -0.07143458 1.00136697
v 0.06499282 -0.07286476 1.00235176
v 0.05500797 -0.07286476 1.00235176
v 0.04711718 -0.06499651 1.00235176
v 0.04413448 -0.05499419 0.99496570
v 0.03443762 -0.05541562 0.94592214
v 0.04711307 -0.05499419 1.00235176
v 0.03438002 -0.05548287 0.07397103
v 0.03438002 -0.05538424 0.05417633
v 0.04413448 -0.05499419 0.00503430
v 0.04711307 -0.05499419 -0.00235176
v 0.04711718 -0.06499651 -0.00235176
v 0.05500797 -0.07286476 -0.00235176
v 0.06466369 -0.06466474 -0.00294268
v 0.07286304 -0.06499651 -0.00235176
v 0.07582929 -0.05499419 0.00503430
v 0.07608847 -0.05499419 0.01507935
v 0.07624481 -0.05499419 0.02502593
v 0.07633532 -0.05499419 0.06500924
v 0.07637646 -0.05499419 0.10518950
v 0.07640937 -0.05499419 0.46513771
v 0.07640937 -0.05499419 0.89490896
v 0.07636411 -0.05499419 0.93499076
v 0.07624481 -0.05499419 0.97497407
v 0.07608847 -0.05499419 0.98492065
v 0.07582929 -0.05499419 0.99496570
v 0.07286304 -0.06499651 1.00235176
v 0.06466369 -0.06466474 1.00294268
v 0.05533710 -0.06466474 1.00294268
v 0.05533710 -0.05532596 1.00304115
v 0.04855299 -0.04855163 1.00136697
v 0.03443762 -0.04998182 0.94001329
v 0.05500797 -0.04710800 1.00235176
v 0.03438002 -0.05048843 0.06530470
v 0.03438002 -0.04998182 0.05998671
v 0.04855299 -0.04855163 -0.00136697
v 0.05500797 -0.04710800 -0.00235176
v 0.05533710 -0.05532596 -0.00304115
v 0.05533710 -0.06466474 -0.00294268
v 0.06466369 -0.05532596 -0.00294268
v 0.07285892 -0.05499419 -0.00235176
v 0.07213073 -0.04784775 0.00503430
v 0.07000788 -0.03061830 0.05998671
v 0.07142311 -0.04855163 -0.00136697
v 0.07010661 -0.03061830 0.11848447
v 0.07016010 -0.03061830 0.55140710
v 0.07010661 -0.03061830 0.88161403
v 0.07000788 -0.03061830 0.94001329
v 0.07213073 -0.04784775 0.99496570
v 0.07142311 -0.04855163 1.00136697
v 0.07285892 -0.05499419 1.00235176
v 0.06466369 -0.05532596 1.00294268
v 0.06499282 -0.04710800 1.00235176
v 0.05500797 -0.04413107 0.99496570
v 0.04998881 -0.03061830 0.94001329
v 0.04988184 -0.03061830 0.88171250
v 0.03438002 -0.04998182 0.06038064
v 0.06499282 -0.04412210 0.99496570
v 0.04987773 -0.03061830 0.44878986
v 0.04988184 -0.03061830 0.11838597
v 0.04998881 -0.03061830 0.05998671
v 0.05500797 -0.04413107 0.00503430
v 0.06499282 -0.04412210 0.00503430
v 0.06499282 -0.04710800 -0.00235176
v 0.06477066 -0.03061830 0.05476722
v 0.06678656 -0.03061830 0.94346011
v 0.05523836 -0.03061830 0.94533125
v 0.04987773 -0.03061830 0.54835419
v 0.06475832 -0.03061830 0.94533125
v 0.05321012 -0.03061830 0.05663836
v 0.05522190 -0.03061830 0.05476722
f 1 2 3
f 1 3 4
f 1 4 5
f 1 5 6
f 1 6 7
f 1 7 8
f 1 8 2
f 2 8 9
f 2 9 3
f 3 10 11
f 3 11 12
f 3 12 13
f 3 13 4
f 3 9 14
f 3 14 15
f 3 15 10
f 4 16 17
f 4 17 18
f 4 18 19
f 4 19 20
f 4 20 21
f 4 21 22
f 4 22 5
f 4 13 16
f 5 22 6
f 6 22 23
f 6 23 24
f 6 24 25
f 6 25 26
f 6 26 27
f 6 27 28
f 6 28 29
f 6 29 30
f 6 30 31
f 6 31 32
f 6 32 7
f 7 32 31
f 7 31 30
f 7 30 29
f 7 29 52
f 7 52 78
f 7 78 101
f 7 101 79
f 7 79 53
f 7 53 33
f 7 33 8
f 8 15 14
f 8 14 9
f 8 33 34
f 8 34 35
f 8 35 36
f 8 36 37
f 8 37 38
f 8 38 10
f 8 10 15
f 10 38 11
f 11 37 57
f 11 57 39
f 11 39 40
f 11 40 12
f 11 38 37
f 12 41 42
f 12 42 13
f 12 40 41
f 13 42 16
f 16 42 17
f 17 42 43
f 17 43 18
f 18 43 19
f 19 43 20
f 20 44 45
f 20 45 21
f 20 43 44
f 21 24 23
f 21 23 22
f 21 45 46
f 21 46 47
f 21 47 24
f 24 47 26
f 24 26 25
f 26 47 48
f 26 48 27
f 27 49 50
f 27 50 28
f 27 48 51
f 27 51 49
f 28 50 52
f 28 52 29
f 33 53 34
f 34 54 55
f 34 55 56
f 34 56 35
f 34 53 54
f 35 37 36
f 35 56 57
f 35 57 37
f 39 57 83
f 39 83 58
f 39 58 59
f 39 59 40
f 40 59 41
f 41 59 60
f 41 60 61
f 41 61 62
f 41 62 42
f 42 63 64
f 42 64 65
f 42 65 66
f 42 66 43
f 42 62 63
f 43 66 67
f 43 67 68
f 43 68 44
f 44 68 69
f 44 69 70
f 44 70 71
f 44 71 45
f 45 71 46
f 46 71 72
f 46 72 73
f 46 73 47
f 47 73 48
f 48 73 74
f 48 74 51
f 49 51 75
f 49 75 76
f 49 76 50
f 50 76 52
f 51 74 77
f 51 77 75
f 52 76 78
f 53 79 54
f 54 80 55
f 54 79 80
f 55 80 81
f 55 81 82
f 55 82 56
f 56 82 83
f 56 83 57
f 58 84 59
f 58 83 82
f 58 82 84
f 59 84 85
f 59 85 60
f 60 86 87
f 60 87 61
f 60 85 88
f 60 88 86
f 61 87 62
f 62 87 63
f 63 89 64
f 63 87 89
f 64 89 90
f 64 90 65
f 65 90 66
f 66 90 91
f 66 91 67
f 67 91 92
f 67 92 68
f 68 92 69
f 69 92 70
f 70 93 94
f 70 94 95
f 70 95 71
f 70 92 93
f 71 95 96
f 71 96 72
f 72 96 74
f 72 74 73
f 74 96 97
f 74 97 77
f 75 77 98
f 75 98 99
f 75 99 76
f 76 99 100
f 76 100 101
f 76 101 78
f 77 97 102
f 77 102 98
f 79 101 112
f 79 112 103
f 79 103 104
f 79 104 105
f 79 105 80
f 80 106 81
f 80 105 106
f 81 106 107
f 81 107 108
f 81 108 82
f 82 108 84
f 84 108 85
f 85 108 88
f 86 88 87
f 87 109 115
f 87 115 114
f 87 114 105
f 87 105 104
f 87 104 103
f 87 103 112
f 87 112 100
f 87 100 99
f 87 99 111
f 87 111 113
f 87 113 110
f 87 110 92
f 87 92 91
f 87 91 90
f 87 90 89
f 87 88 107
f 87 107 109
f 88 108 107
f 92 110 102
f 92 102 94
f 92 94 93
f 94 102 97
f 94 97 95
f 95 97 96
f 98 102 111
f 98 111 99
f 100 112 101
f 102 110 113
f 102 113 111
f 105 114 106
f 106 114 115
f 106 115 107
f 107 115 109

