# https://github.com/mikedh/trimesh
v 0.03518505 0.05523356 0.90387818
v 0.03518505 0.06475723 0.90381193
v 0.02969269 0.06061063 0.90058127
v 0.02969269 0.05938812 0.90058127
v 0.02826798 0.05741818 0.89498150
v 0.03518505 0.05508647 0.90364623
v 0.02826798 0.06258652 0.89498150
v 0.03518505 0.06594992 0.90078008
v 0.02968581 0.07011639 0.88091579
v -0.03430917 0.06347508 0.77501711
v -0.03275369 0.06163634 0.78169376
v -0.03275369 0.05835643 0.78169376
v 0.02964451 0.04986446 0.88099864
v 0.03518505 0.05409852 0.90097889
v -0.03430917 0.05650776 0.77501711
v 0.03518505 0.06790792 0.89572704
v 0.03298260 0.06950415 0.88757589
v 0.03518505 0.06970889 0.89006099
v 0.03518505 0.07009055 0.88535586
v 0.03046355 0.07010446 0.87498468
v 0.01056577 0.07013230 0.83676374
v 0.01965777 0.07012633 0.86100182
v -0.03046177 0.07016013 0.76151469
v -0.03512821 0.06579686 0.76555714
v 0.00960908 0.04985650 0.84117067
v 0.01962336 0.04985849 0.86106807
v 0.01060019 0.04985650 0.83692941
v 0.03049796 0.04988433 0.87498468
v 0.03518505 0.04991415 0.88545525
v 0.03301013 0.05050454 0.88765872
v 0.03518505 0.05207690 0.89498150
v -0.03512821 0.06569945 0.76555714
v -0.03512821 0.05419393 0.76554057
v -0.03512821 0.05414821 0.76540804
v -0.03043424 0.04985253 0.76149812
v 0.03518505 0.06948228 0.88065073
v 0.03004371 0.07002098 0.86986536
v -0.02942249 0.07016013 0.75770420
v -0.00001976 0.07014025 0.81706512
v -0.00001976 0.07014025 0.82119039
v -0.00038454 0.07014025 0.82119039
v -0.02942249 0.07016013 0.76151469
v -0.03046177 0.07016013 0.75770420
v -0.03512821 0.06895352 0.75467238
v -0.02946378 0.04985253 0.76149812
v -0.02946378 0.04985253 0.75780362
v 0.03003682 0.04998174 0.86988193
v 0.03518505 0.04992807 0.88535586
v -0.03512821 0.05103926 0.75472206
v -0.03512821 0.05090210 0.75377774
v -0.03043424 0.04985253 0.75780362
v 0.03518505 0.06770517 0.87471959
v 0.03518505 0.06490234 0.86540872
v 0.02001567 0.07000706 0.84993479
v -0.03512821 0.06579487 0.73462585
v -0.03512821 0.06852415 0.74501359
v -0.03512821 0.06889985 0.74870811
v -0.03512821 0.05130761 0.74549404
v -0.03512821 0.05422375 0.73469211
v 0.02000190 0.04999764 0.84998450
v 0.03518505 0.05510436 0.86542529
v 0.03518505 0.05226773 0.87498468
v -0.03512821 0.05109691 0.74880752
v 0.03518505 0.06439345 0.86540872
v 0.03280365 0.06228835 0.85671085
v -0.02901641 0.06173772 0.73810500
v -0.02733016 0.06371760 0.74501359
v -0.02901641 0.05826698 0.73810500
v -0.02733016 0.05629307 0.74501359
v 0.03280365 0.05772232 0.85671085
f 1 2 3
f 1 3 4
f 1 4 5
f 1 5 6
f 1 6 14
f 1 14 31
f 1 31 29
f 1 29 48
f 1 48 62
f 1 62 61
f 1 61 64
f 1 64 53
f 1 53 52
f 1 52 36
f 1 36 19
f 1 19 18
f 1 18 16
f 1 16 8
f 1 8 2
f 2 7 3
f 2 8 9
f 2 9 10
f 2 10 11
f 2 11 7
f 3 7 11
f 3 11 12
f 3 12 4
f 4 12 5
f 5 12 6
f 6 13 14
f 6 12 15
f 6 15 13
f 8 16 9
f 9 16 17
f 9 17 18
f 9 18 19
f 9 19 20
f 9 20 21
f 9 21 22
f 9 22 10
f 10 23 24
f 10 24 32
f 10 32 15
f 10 15 12
f 10 12 11
f 10 22 23
f 13 25 26
f 13 26 27
f 13 27 28
f 13 28 29
f 13 29 30
f 13 30 14
f 13 15 25
f 14 30 31
f 15 32 33
f 15 33 34
f 15 34 35
f 15 35 25
f 16 18 17
f 19 36 37
f 19 37 20
f 20 37 38
f 20 38 21
f 21 38 39
f 21 39 22
f 22 39 40
f 22 40 41
f 22 41 23
f 23 42 38
f 23 38 43
f 23 43 44
f 23 44 24
f 23 41 40
f 23 40 42
f 24 44 57
f 24 57 56
f 24 56 55
f 24 55 59
f 24 59 58
f 24 58 63
f 24 63 50
f 24 50 49
f 24 49 34
f 24 34 33
f 24 33 32
f 25 27 26
f 25 35 45
f 25 45 27
f 27 45 46
f 27 46 28
f 28 46 47
f 28 47 29
f 29 47 48
f 29 31 30
f 34 49 35
f 35 49 50
f 35 50 51
f 35 51 46
f 35 46 45
f 36 52 37
f 37 52 53
f 37 53 54
f 37 54 38
f 38 55 56
f 38 56 43
f 38 42 40
f 38 40 39
f 38 54 55
f 43 56 57
f 43 57 44
f 46 51 58
f 46 58 59
f 46 59 60
f 46 60 47
f 47 60 61
f 47 61 62
f 47 62 48
f 50 63 51
f 51 63 58
f 53 64 70
f 53 70 65
f 53 65 66
f 53 66 67
f 53 67 55
f 53 55 54
f 55 67 66
f 55 66 68
f 55 68 59
f 59 68 69
f 59 69 61
f 59 61 60
f 61 69 68
f 61 68 70
f 61 70 64
f 65 70 68
f 65 68 66

