# https://github.com/mikedh/trimesh
v 0.04998070 0.03437978 0.05996129
v 0.04998070 0.03437978 0.06030056
v 0.05538725 0.03437978 0.05410469
v 0.04998266 -0.00929797 0.05996323
v 0.05046132 0.01499928 0.06529835
v 0.05048683 0.03437978 0.06529835
v 0.04998266 -0.00929797 0.06029862
v 0.05025534 -0.00929797 0.06315035
v 0.05046132 -0.00929797 0.06529835
v 0.06461722 0.03437978 0.05410275
v 0.05500079 -0.00929797 0.05526400
v 0.05213861 -0.00929797 0.05794317
v 0.05517734 0.03437978 0.07339990
v 0.05546179 -0.00929797 0.07350847
v 0.07001986 0.03437978 0.05996129
v 0.07001790 -0.00929797 0.05996323
v 0.06499977 -0.00929797 0.05526400
v 0.05548730 0.03437978 0.07390782
v 0.06453875 -0.00929797 0.07350847
v 0.07001986 0.03437978 0.06029862
v 0.07001790 -0.00929797 0.06029862
v 0.06451326 0.03437978 0.07390782
v 0.06953923 -0.00929797 0.06529641
v 0.06998847 0.03437978 0.06060880
v 0.06953923 0.01499928 0.06529641
v 0.06951372 0.03437978 0.06529641
f 1 2 6
f 1 6 13
f 1 13 18
f 1 18 22
f 1 22 26
f 1 26 24
f 1 24 20
f 1 20 15
f 1 15 10
f 1 10 3
f 1 3 4
f 1 4 7
f 1 7 2
f 2 5 6
f 2 7 8
f 2 8 9
f 2 9 5
f 3 10 11
f 3 11 12
f 3 12 4
f 4 12 11
f 4 11 17
f 4 17 16
f 4 16 21
f 4 21 23
f 4 23 19
f 4 19 14
f 4 14 9
f 4 9 8
f 4 8 7
f 5 13 6
f 5 9 13
f 9 14 13
f 10 15 16
f 10 16 17
f 10 17 11
f 13 14 18
f 14 19 22
f 14 22 18
f 15 20 21
f 15 21 16
f 19 23 22
f 20 24 25
f 20 25 23
f 20 23 21
f 22 25 26
f 22 23 25
f 24 26 25

