# https://github.com/mikedh/trimesh
v -0.05581694 0.03552000 0.07796791
v -0.05016918 0.03552000 0.06520516
v -0.06418671 0.03552000 0.07796791
v -0.05548742 -0.03489512 0.07393003
v -0.05543549 -0.03489512 0.07384315
v -0.05048872 -0.03489512 0.06529716
v -0.04972783 0.03552000 0.06046960
v -0.04997946 -0.03489512 0.06029582
v -0.06946500 0.03552000 0.06607407
v -0.06951293 -0.03489512 0.06529716
v -0.06451224 -0.03489512 0.07393003
v -0.04978175 0.03552000 0.05980259
v -0.04997946 -0.03489512 0.05996102
v -0.06957485 0.03552000 0.06544793
v -0.06953890 -0.01499610 0.06529716
v -0.07001220 -0.03489512 0.06035203
v -0.07013004 0.03552000 0.06051815
v -0.05536759 0.03552000 0.05284110
v -0.05498615 -0.03489512 0.05420834
v -0.07001620 -0.03489512 0.06030092
v -0.07013004 0.03552000 0.06019869
v -0.05674558 0.03552000 0.05186483
v -0.05598469 -0.03489512 0.05315033
v -0.07001620 -0.03489512 0.05996615
v -0.07011805 0.03552000 0.05975658
v -0.06325407 0.03552000 0.05186230
v -0.06368145 -0.03489512 0.05314776
v -0.06461608 -0.03489512 0.05355921
v -0.06540494 0.03552000 0.05430290
v -0.06402095 -0.03489512 0.05314776
f 1 2 7
f 1 7 12
f 1 12 18
f 1 18 22
f 1 22 26
f 1 26 29
f 1 29 25
f 1 25 21
f 1 21 17
f 1 17 14
f 1 14 9
f 1 9 3
f 1 3 11
f 1 11 4
f 1 4 5
f 1 5 6
f 1 6 2
f 2 6 8
f 2 8 7
f 3 9 10
f 3 10 11
f 4 11 10
f 4 10 16
f 4 16 20
f 4 20 24
f 4 24 28
f 4 28 30
f 4 30 27
f 4 27 23
f 4 23 19
f 4 19 13
f 4 13 8
f 4 8 6
f 4 6 5
f 7 8 13
f 7 13 12
f 9 14 15
f 9 15 10
f 10 15 17
f 10 17 16
f 12 13 18
f 13 19 18
f 14 17 15
f 16 17 20
f 17 21 24
f 17 24 20
f 18 19 23
f 18 23 22
f 21 25 24
f 22 23 26
f 23 27 26
f 24 25 28
f 25 29 28
f 26 27 30
f 26 30 28
f 26 28 29

