# https://github.com/mikedh/trimesh
v 0.05667192 -0.03061830 0.85580906
v 0.06333395 -0.03061830 0.85580906
v 0.05507788 -0.03061830 0.85930440
v 0.04999798 -0.02000404 0.84999189
v 0.05674735 -0.00930005 0.81654006
v 0.05796621 -0.01120753 0.81763789
v 0.06714536 -0.03061830 0.86423826
v 0.06204164 -0.01120753 0.81763789
v 0.06326248 -0.00930005 0.81652746
v 0.06494784 -0.00930005 0.81989661
v 0.07000988 -0.02002074 0.84995404
v 0.05285058 -0.03061830 0.86425087
v 0.04985505 -0.01060231 0.83694428
v 0.05060741 -0.03061830 0.86937401
v 0.04998210 -0.03004021 0.86991662
v 0.05385108 -0.00930005 0.82489356
v 0.06941038 -0.03061830 0.86934876
v 0.06997415 -0.00930005 0.83652788
v 0.07013296 -0.00963814 0.83676764
v 0.07013296 -0.01057101 0.83676764
v 0.07002378 -0.03005064 0.86987877
v 0.04985505 -0.00961101 0.84118414
v 0.04985505 -0.00961101 0.83694428
v 0.04988483 -0.03050560 0.87500191
v 0.04988483 -0.03061830 0.87525427
v 0.04986498 -0.02964995 0.88099572
v 0.04985902 -0.01962839 0.86109623
v 0.05024016 -0.03061830 0.87044659
v 0.05000393 -0.00930005 0.83671716
v 0.07010517 -0.03061830 0.87532997
v 0.07001782 -0.00930005 0.93969730
v 0.07013296 -0.00963814 0.84110841
v 0.07012700 -0.01966387 0.86102054
v 0.07011906 -0.02968960 0.88093263
v 0.07010715 -0.03047221 0.87500191
v 0.04998210 -0.00930005 0.94003800
v 0.04998210 -0.00930005 0.93969730
v 0.04987292 -0.03061830 0.88176546
v 0.04998011 -0.03061830 0.94003800
v 0.07011112 -0.03061830 0.88167712
v 0.07001782 -0.00930005 0.94003800
v 0.07001782 -0.03061830 0.94003800
v 0.05523271 -0.03061830 0.94542611
v 0.05500046 -0.00930005 0.94473210
v 0.06786000 -0.00930005 0.94205695
v 0.06476720 -0.03061830 0.94542611
v 0.06679003 -0.03061830 0.94353333
v 0.06499946 -0.00930005 0.94473210
f 1 2 7
f 1 7 17
f 1 17 30
f 1 30 40
f 1 40 42
f 1 42 47
f 1 47 46
f 1 46 43
f 1 43 39
f 1 39 38
f 1 38 25
f 1 25 28
f 1 28 14
f 1 14 12
f 1 12 3
f 1 3 4
f 1 4 5
f 1 5 6
f 1 6 8
f 1 8 2
f 2 8 9
f 2 9 10
f 2 10 11
f 2 11 7
f 3 12 4
f 4 13 5
f 4 12 14
f 4 14 15
f 4 15 13
f 5 13 16
f 5 16 29
f 5 29 37
f 5 37 36
f 5 36 44
f 5 44 48
f 5 48 45
f 5 45 41
f 5 41 31
f 5 31 18
f 5 18 10
f 5 10 9
f 5 9 6
f 6 9 8
f 7 11 17
f 10 18 19
f 10 19 20
f 10 20 11
f 11 20 21
f 11 21 17
f 13 22 23
f 13 23 16
f 13 15 24
f 13 24 25
f 13 25 26
f 13 26 27
f 13 27 22
f 14 28 15
f 15 28 25
f 15 25 24
f 16 23 29
f 17 21 30
f 18 31 19
f 19 31 41
f 19 41 32
f 19 32 20
f 20 32 33
f 20 33 34
f 20 34 35
f 20 35 21
f 21 35 30
f 22 27 36
f 22 36 37
f 22 37 23
f 23 37 29
f 25 38 26
f 26 38 39
f 26 39 36
f 26 36 27
f 30 35 40
f 32 41 33
f 33 41 34
f 34 41 42
f 34 42 40
f 34 40 35
f 36 39 43
f 36 43 44
f 41 45 46
f 41 46 47
f 41 47 42
f 43 46 48
f 43 48 44
f 45 48 46

