# https://github.com/mikedh/trimesh
v 0.03518505 0.06591792 0.55554735
v 0.03518505 0.05408248 0.55554735
v 0.03518505 0.06595770 0.55544622
v 0.03415954 0.06319676 0.56500956
v 0.03415954 0.05677977 0.56500956
v 0.02032539 0.04987942 0.57073024
v 0.03053926 0.04984958 0.55147354
v 0.03518505 0.05086404 0.54510279
v 0.03518505 0.07008518 0.54436604
v 0.01000828 0.07000363 0.59003028
v -0.01998636 0.07000562 0.64001390
v 0.03257652 0.06128917 0.57117806
v 0.03257652 0.05869731 0.57117806
v -0.01999324 0.04999876 0.63999946
v -0.00966925 0.04987743 0.62071387
v 0.00055150 0.04984560 0.60147162
v 0.03053926 0.04984958 0.54852653
v 0.03518505 0.05134343 0.53974327
v 0.03518505 0.07008518 0.54430825
v 0.03059432 0.07016276 0.55150243
v 0.02027033 0.07010110 0.57064356
v -0.00972431 0.07010309 0.62061275
v -0.02940184 0.07016674 0.65151304
v -0.03322171 0.06969730 0.65818715
v -0.03512821 0.06662605 0.66896397
v -0.03512821 0.06488953 0.67338449
v -0.02786701 0.06289441 0.66499127
v -0.02956014 0.06082769 0.67071195
v -0.02956014 0.05917669 0.67071195
v -0.02786701 0.05710201 0.66499127
v -0.03512821 0.05531377 0.67377453
v -0.02945002 0.04985157 0.65145525
v -0.00001976 0.04984560 0.60148606
v 0.00055150 0.04984560 0.59849571
v 0.02944491 0.04984958 0.54852653
v 0.03518505 0.05211124 0.53579948
v 0.03518505 0.07007325 0.54419268
v 0.02939674 0.07016276 0.54848319
v -0.00059102 0.07016475 0.59849571
v -0.03059942 0.07016674 0.64849380
v -0.03512821 0.07008717 0.65554351
v -0.03512821 0.07008518 0.65560129
v -0.03512821 0.07006330 0.65589021
v -0.03512821 0.06807216 0.66499127
v -0.03471525 0.06789314 0.66499127
v -0.03512821 0.06467072 0.67371675
v -0.03512821 0.05544903 0.67377453
v -0.03512821 0.05215102 0.66424008
v -0.03512821 0.05131359 0.65992068
v -0.03053748 0.04985157 0.65145525
v -0.00054972 0.04984560 0.60148606
v -0.00001288 0.04984560 0.59849571
v 0.03518505 0.05527597 0.52619280
v -0.00054972 0.04984560 0.59851015
v 0.00967103 0.04987942 0.57928235
v 0.03322349 0.06969531 0.54182352
v 0.03518505 0.06809404 0.53501939
v 0.01998814 0.07000164 0.55998231
v 0.00971921 0.07010110 0.57938347
v -0.02027543 0.07010508 0.62935266
v -0.01001338 0.07000562 0.60996594
v -0.03424035 0.06319477 0.63498665
v -0.03512821 0.06589603 0.64431885
v -0.03512821 0.05086404 0.65487897
v -0.03053748 0.04985157 0.64852268
v 0.02787567 0.05710201 0.53501939
v 0.02956192 0.05918067 0.52928427
v 0.03518505 0.05539532 0.52619280
v -0.03424035 0.05677778 0.63498665
v -0.03265046 0.05870328 0.62883259
v -0.02033049 0.04987743 0.62926598
v 0.03471015 0.06788717 0.53501939
v 0.03518505 0.06644106 0.53045440
v 0.03518505 0.06490146 0.52653950
v -0.03265046 0.06128519 0.62883259
v -0.03512821 0.06582642 0.64431885
v -0.03512821 0.05407055 0.64444888
v 0.02956192 0.06082172 0.52928427
v 0.03518505 0.06471051 0.52626503
v 0.02787567 0.06288844 0.53501939
f 1 2 8
f 1 8 18
f 1 18 36
f 1 36 53
f 1 53 68
f 1 68 79
f 1 79 74
f 1 74 73
f 1 73 57
f 1 57 37
f 1 37 19
f 1 19 9
f 1 9 3
f 1 3 4
f 1 4 5
f 1 5 2
f 2 5 6
f 2 6 7
f 2 7 8
f 3 9 4
f 4 9 10
f 4 10 11
f 4 11 12
f 4 12 13
f 4 13 5
f 5 13 14
f 5 14 6
f 6 14 15
f 6 15 16
f 6 16 7
f 7 17 8
f 7 16 34
f 7 34 17
f 8 17 18
f 9 19 20
f 9 20 21
f 9 21 10
f 10 21 11
f 11 22 23
f 11 23 24
f 11 24 25
f 11 25 26
f 11 26 12
f 11 21 22
f 12 26 27
f 12 27 28
f 12 28 29
f 12 29 13
f 13 29 30
f 13 30 31
f 13 31 14
f 14 31 32
f 14 32 15
f 15 32 16
f 16 32 33
f 16 33 51
f 16 51 54
f 16 54 52
f 16 52 34
f 17 34 52
f 17 52 35
f 17 35 18
f 18 35 36
f 19 37 38
f 19 38 20
f 20 38 39
f 20 39 23
f 20 23 21
f 21 23 22
f 23 40 41
f 23 41 42
f 23 42 43
f 23 43 24
f 23 39 40
f 24 43 44
f 24 44 45
f 24 45 25
f 25 45 44
f 25 44 43
f 25 43 42
f 25 42 41
f 25 41 63
f 25 63 76
f 25 76 77
f 25 77 64
f 25 64 49
f 25 49 48
f 25 48 31
f 25 31 47
f 25 47 46
f 25 46 26
f 26 46 27
f 27 46 28
f 28 46 47
f 28 47 31
f 28 31 29
f 29 31 30
f 31 48 32
f 32 48 49
f 32 49 50
f 32 50 51
f 32 51 33
f 35 53 36
f 35 52 54
f 35 54 55
f 35 55 53
f 37 56 38
f 37 57 56
f 38 58 59
f 38 59 60
f 38 60 40
f 38 40 39
f 38 56 58
f 40 60 41
f 41 60 61
f 41 61 62
f 41 62 63
f 49 64 50
f 50 65 54
f 50 54 51
f 50 64 65
f 53 66 67
f 53 67 78
f 53 78 68
f 53 55 69
f 53 69 70
f 53 70 66
f 54 65 71
f 54 71 55
f 55 71 69
f 56 57 72
f 56 72 73
f 56 73 58
f 57 73 72
f 58 73 74
f 58 74 75
f 58 75 62
f 58 62 61
f 58 61 60
f 58 60 59
f 62 69 76
f 62 76 63
f 62 75 70
f 62 70 69
f 64 77 65
f 65 77 71
f 66 70 67
f 67 70 75
f 67 75 78
f 68 78 79
f 69 77 76
f 69 71 77
f 74 79 78
f 74 78 80
f 74 80 75
f 75 80 78

