# https://github.com/mikedh/trimesh
v 0.03739074 -0.05664551 0.68012488
v 0.02955996 -0.05917514 0.67071901
v 0.02955996 -0.06082714 0.67071901
v 0.03739074 -0.06336915 0.68006089
v 0.03739074 -0.05355214 0.67516601
v -0.03858191 -0.05438228 0.55565717
v -0.03257311 -0.05869812 0.57117364
v -0.03257311 -0.06128969 0.57117364
v 0.03739074 -0.06517809 0.67738950
v -0.03858191 -0.06562000 0.55565717
v 0.03739074 -0.05094405 0.66684788
v 0.01998902 -0.04999828 0.63999000
v -0.03858191 -0.05086352 0.54505158
v 0.03739074 -0.06644187 0.67508602
v -0.03858191 -0.07073294 0.54418778
v 0.01998158 -0.07000399 0.64002199
v 0.03739074 -0.05086352 0.65493061
v 0.03053416 -0.04985167 0.65145940
v 0.02944841 -0.04985167 0.65145940
v 0.00966697 -0.04987645 0.62071438
v -0.02032497 -0.04987645 0.57072574
v -0.03054291 -0.04984960 0.55146612
v -0.03858191 -0.05038444 0.53388612
v 0.03739074 -0.06719972 0.67254260
v -0.03858191 -0.07094150 0.54110048
v 0.03739074 -0.07063381 0.65776196
v 0.02939636 -0.07016506 0.65150738
v 0.03321879 -0.06969631 0.65817787
v 0.03739074 -0.05427283 0.64435701
v 0.02032367 -0.04987645 0.62927243
v 0.03053416 -0.04985167 0.64853206
v 0.00054966 -0.04984547 0.60148675
v -0.00002296 -0.04984547 0.60148675
v -0.00055840 -0.04984754 0.60147075
v -0.03054291 -0.04984960 0.54852279
v -0.03858191 -0.05038444 0.53116673
v 0.03739074 -0.06906442 0.66499232
v -0.03858191 -0.06868446 0.52846335
v -0.02939767 -0.07016506 0.54849080
v -0.01998289 -0.07000193 0.55999218
v 0.03739074 -0.07050166 0.65579441
v 0.03739074 -0.06572738 0.64434101
v 0.03264617 -0.05870432 0.62884054
v -0.03858191 -0.05259398 0.52408034
v -0.00966828 -0.04987645 0.57929979
v 0.00054966 -0.04984547 0.59849543
v -0.00002296 -0.04984547 0.59849543
v -0.02944229 -0.04984960 0.54852279
v -0.03858191 -0.06740622 0.52416033
v 0.03264617 -0.06128557 0.62884054
v -0.03858191 -0.06527721 0.52027321
v -0.02956127 -0.05917927 0.52927916
v -0.03822495 -0.05743847 0.51700995
v -0.03858191 -0.05713492 0.51672202
v -0.03858191 -0.06287355 0.51670602
v -0.02956127 -0.06082094 0.52927916
v -0.03822495 -0.06256793 0.51700995
f 1 2 3
f 1 3 4
f 1 4 9
f 1 9 14
f 1 14 24
f 1 24 37
f 1 37 26
f 1 26 41
f 1 41 42
f 1 42 29
f 1 29 17
f 1 17 11
f 1 11 5
f 1 5 6
f 1 6 7
f 1 7 2
f 2 7 8
f 2 8 3
f 3 8 4
f 4 8 10
f 4 10 9
f 5 11 12
f 5 12 6
f 6 13 23
f 6 23 36
f 6 36 44
f 6 44 54
f 6 54 55
f 6 55 51
f 6 51 49
f 6 49 38
f 6 38 25
f 6 25 15
f 6 15 10
f 6 10 8
f 6 8 7
f 6 12 13
f 9 10 14
f 10 15 16
f 10 16 14
f 11 17 18
f 11 18 19
f 11 19 12
f 12 19 20
f 12 20 21
f 12 21 13
f 13 21 22
f 13 22 23
f 14 16 24
f 15 25 26
f 15 26 16
f 16 26 27
f 16 27 28
f 16 28 24
f 17 29 30
f 17 30 31
f 17 31 18
f 18 31 46
f 18 46 32
f 18 32 33
f 18 33 19
f 19 33 34
f 19 34 20
f 20 34 21
f 21 34 22
f 22 35 36
f 22 36 23
f 22 34 33
f 22 33 47
f 22 47 35
f 24 28 37
f 25 38 39
f 25 39 40
f 25 40 41
f 25 41 26
f 26 37 28
f 26 28 27
f 29 42 43
f 29 43 44
f 29 44 45
f 29 45 30
f 30 45 46
f 30 46 31
f 32 46 47
f 32 47 33
f 35 47 46
f 35 46 48
f 35 48 36
f 36 48 45
f 36 45 44
f 38 49 40
f 38 40 39
f 40 49 42
f 40 42 41
f 42 50 43
f 42 49 51
f 42 51 50
f 43 50 56
f 43 56 52
f 43 52 53
f 43 53 54
f 43 54 44
f 45 48 46
f 50 51 55
f 50 55 56
f 52 56 57
f 52 57 53
f 53 57 55
f 53 55 54
f 55 57 56

