# https://github.com/mikedh/trimesh
v 0.90009082 -0.51550374 0.12212400
v 0.90009082 -0.52147890 0.12158051
v 0.90009082 -0.51318008 0.12209203
v 0.88738373 -0.42168055 0.13097975
v 0.88743053 -0.43615370 0.13101172
v 0.88743053 -0.47621378 0.13101172
v 0.88743053 -0.51318008 0.13097975
v 0.88740713 -0.52313866 0.13094778
v 0.88731351 -0.53107897 0.13085187
v 0.90009082 -0.51806641 0.11039094
v 0.87451282 -0.54532640 0.13129945
v 0.87451282 -0.54532640 0.12842213
v 0.89080037 -0.43120096 0.12573664
v 0.88729013 -0.41419170 0.13088384
v 0.90009082 -0.51318008 0.10585117
v 0.90006742 -0.48969107 0.09619617
v 0.87987179 -0.42168055 0.13408086
v 0.88246938 -0.43120096 0.13305781
v 0.87989520 -0.43615370 0.13414480
v 0.87989520 -0.48626533 0.13414480
v 0.88406070 -0.52246148 0.13238644
v 0.87991860 -0.52313866 0.13408086
v 0.87956758 -0.53660267 0.13241840
v 0.90006742 -0.50736427 0.09360659
v 0.80276335 -0.50440323 -0.18095349
v 0.87114299 -0.54532640 0.13129945
v 0.74308914 -0.54545918 0.11924669
v 0.85092395 -0.52313866 0.14165779
v 0.81497901 -0.53191550 0.14549422
v 0.74308914 -0.54545918 0.11534632
v 0.79293466 -0.50895763 -0.18095349
v 0.89030893 -0.43940684 0.09622814
v 0.89030893 -0.43469311 0.10930396
v 0.88729013 -0.41419170 0.13053217
v 0.87987179 -0.41212031 0.13238644
v 0.86538617 -0.42168055 0.13810910
v 0.90006742 -0.49435171 0.09251960
v 0.87039413 -0.43120096 0.13695817
v 0.86538617 -0.43615370 0.13846078
v 0.86538617 -0.45066668 0.13849275
v 0.87991860 -0.51318008 0.13411283
v 0.86538617 -0.46513983 0.13849275
v 0.86540957 -0.50863895 0.13846078
v 0.86540957 -0.52313866 0.13817305
v 0.81525984 -0.50235841 -0.14668143
v 0.80276335 -0.49838824 -0.18095349
v 0.81320049 -0.53191550 0.14549422
v 0.78338679 -0.54515378 0.13136339
v 0.74105320 -0.54545918 0.11924669
v 0.85092395 -0.52246148 0.14168977
v 0.85092395 -0.50863895 0.14213735
v 0.81514283 -0.52312539 0.14562211
v 0.74105320 -0.54545918 0.11534632
v 0.78062539 -0.50589038 -0.18095349
v 0.79260704 -0.49155003 -0.18095349
v 0.87886551 -0.41212031 0.12480951
v 0.86538617 -0.41023482 0.13424071
v 0.81497901 -0.41385974 0.14549422
v 0.85092395 -0.42168055 0.14149794
v 0.85092395 -0.43120096 0.14188159
v 0.85092395 -0.43615370 0.14207341
v 0.81525984 -0.50057913 -0.14668143
v 0.85092395 -0.45066668 0.14232917
v 0.85092395 -0.49415252 0.14220129
v 0.81247504 -0.52312539 0.14562211
v 0.77844904 -0.50862568 0.13980353
v 0.74126381 -0.53332298 0.13126749
v 0.71243297 -0.53311053 0.11675302
v 0.71187134 -0.53508896 0.10901623
v 0.81530664 -0.50862568 0.14562211
v 0.72043634 -0.53803671 0.10901623
v 0.66101955 -0.50992694 0.02877102
v 0.66101955 -0.49051433 0.02877102
v 0.78067219 -0.49401975 -0.18095349
v 0.76670140 -0.43228977 -0.03596864
v 0.78741186 -0.43228977 -0.03596864
v 0.86590101 -0.41060660 0.12285932
v 0.79288785 -0.40980992 0.12656787
v 0.79288785 -0.40980992 0.13590316
v 0.81329410 -0.41385974 0.14549422
v 0.81514283 -0.42165399 0.14562211
v 0.81523643 -0.43223665 0.14562211
v 0.81525984 -0.43616697 0.14562211
v 0.81530664 -0.45064012 0.14562211
v 0.81242824 -0.51360498 0.14562211
v 0.81242824 -0.47921464 0.14562211
v 0.81245164 -0.43616697 0.14562211
v 0.79288785 -0.45064012 0.14226523
v 0.77844904 -0.45064012 0.13970761
v 0.74084258 -0.42168055 0.13152324
v 0.74084258 -0.52312539 0.13152324
v 0.71208195 -0.52312539 0.11700877
v 0.67983448 -0.51307384 0.09133670
v 0.67733050 -0.51307384 0.08852333
v 0.66235344 -0.51167963 0.05127804
v 0.66101955 -0.50952860 0.03510113
v 0.66101955 -0.49336911 0.03458960
v 0.66160459 -0.49267866 0.05127804
v 0.67594980 -0.44218196 0.02877102
v 0.67594980 -0.44220852 0.02762010
v 0.71219896 -0.41306306 0.10095974
v 0.72043634 -0.41046054 0.10901623
v 0.73223077 -0.41067299 0.10866455
v 0.73583463 -0.41088544 0.12282735
v 0.74126381 -0.41331534 0.13126749
v 0.81252184 -0.42165399 0.14562211
v 0.79288785 -0.43616697 0.14220129
v 0.71245638 -0.41340828 0.11675302
v 0.71208195 -0.42168055 0.11700877
v 0.67981107 -0.47963955 0.09133670
v 0.67733050 -0.50862568 0.08858726
v 0.66148758 -0.50878501 0.05127804
v 0.66101955 -0.50905058 0.03561265
v 0.66101955 -0.49395336 0.03519704
v 0.66148758 -0.50716508 0.05127804
v 0.67733050 -0.47963955 0.08858726
v 0.66101955 -0.49461725 0.03554870
v 0.71187134 -0.41267799 0.10901623
v 0.71201175 -0.41279749 0.10604299
v 0.66101955 -0.50837340 0.03574054
f 1 2 10
f 1 10 15
f 1 15 3
f 1 3 4
f 1 4 5
f 1 5 6
f 1 6 7
f 1 7 8
f 1 8 9
f 1 9 2
f 2 9 11
f 2 11 12
f 2 12 10
f 3 13 14
f 3 14 4
f 3 15 16
f 3 16 13
f 4 14 17
f 4 17 18
f 4 18 5
f 5 18 19
f 5 19 20
f 5 20 6
f 6 20 21
f 6 21 7
f 7 21 8
f 8 21 9
f 9 21 22
f 9 22 23
f 9 23 11
f 10 24 15
f 10 12 25
f 10 25 24
f 11 26 49
f 11 49 27
f 11 27 30
f 11 30 12
f 11 23 28
f 11 28 29
f 11 29 47
f 11 47 26
f 12 30 31
f 12 31 25
f 13 16 32
f 13 32 33
f 13 33 34
f 13 34 14
f 14 34 35
f 14 35 36
f 14 36 17
f 15 24 37
f 15 37 16
f 16 37 32
f 17 19 18
f 17 36 38
f 17 38 19
f 19 38 39
f 19 39 40
f 19 40 42
f 19 42 20
f 20 41 21
f 20 42 43
f 20 43 41
f 21 41 22
f 22 41 43
f 22 43 44
f 22 44 23
f 23 44 28
f 24 25 45
f 24 45 37
f 25 31 54
f 25 54 74
f 25 74 55
f 25 55 46
f 25 46 62
f 25 62 45
f 26 47 48
f 26 48 49
f 27 49 53
f 27 53 30
f 28 44 50
f 28 50 29
f 29 50 51
f 29 51 52
f 29 52 65
f 29 65 47
f 30 53 31
f 31 53 54
f 32 37 46
f 32 46 34
f 32 34 33
f 34 46 55
f 34 55 56
f 34 56 35
f 35 57 58
f 35 58 59
f 35 59 36
f 35 56 57
f 36 59 60
f 36 60 61
f 36 61 39
f 36 39 38
f 37 45 62
f 37 62 46
f 39 61 63
f 39 63 40
f 40 63 42
f 42 63 43
f 43 63 64
f 43 64 51
f 43 51 44
f 44 51 50
f 47 65 66
f 47 66 67
f 47 67 48
f 48 67 49
f 49 68 69
f 49 69 53
f 49 67 68
f 51 64 52
f 52 70 84
f 52 84 83
f 52 83 82
f 52 82 81
f 52 81 106
f 52 106 87
f 52 87 86
f 52 86 85
f 52 85 65
f 52 64 63
f 52 63 70
f 53 69 71
f 53 71 72
f 53 72 54
f 54 73 74
f 54 72 73
f 55 74 75
f 55 75 76
f 55 76 56
f 56 76 77
f 56 77 57
f 57 77 78
f 57 78 79
f 57 79 58
f 58 79 80
f 58 80 106
f 58 106 81
f 58 81 61
f 58 61 60
f 58 60 59
f 61 81 63
f 63 81 82
f 63 82 83
f 63 83 84
f 63 84 70
f 65 85 66
f 66 85 86
f 66 86 87
f 66 87 88
f 66 88 89
f 66 89 90
f 66 90 91
f 66 91 67
f 67 91 68
f 68 92 93
f 68 93 94
f 68 94 69
f 68 91 92
f 69 94 95
f 69 95 72
f 69 72 71
f 72 95 96
f 72 96 113
f 72 113 120
f 72 120 117
f 72 117 114
f 72 114 97
f 72 97 73
f 73 97 98
f 73 98 99
f 73 99 100
f 73 100 74
f 74 100 75
f 75 100 101
f 75 101 102
f 75 102 76
f 76 102 103
f 76 103 77
f 77 103 102
f 77 102 78
f 78 102 79
f 79 102 104
f 79 104 105
f 79 105 80
f 80 105 90
f 80 90 106
f 87 106 88
f 88 106 89
f 89 106 107
f 89 107 90
f 90 107 106
f 90 105 108
f 90 108 109
f 90 109 92
f 90 92 91
f 92 109 110
f 92 110 93
f 93 110 111
f 93 111 94
f 94 111 112
f 94 112 95
f 95 112 96
f 96 112 113
f 97 114 98
f 98 115 116
f 98 116 99
f 98 114 117
f 98 117 115
f 99 116 108
f 99 108 118
f 99 118 100
f 100 118 119
f 100 119 101
f 101 119 102
f 102 119 118
f 102 118 108
f 102 108 104
f 104 108 105
f 108 116 110
f 108 110 109
f 110 116 111
f 111 116 115
f 111 115 112
f 112 115 120
f 112 120 113
f 115 117 120

