# https://github.com/mikedh/trimesh
v 1.00179900 -0.54544578 0.01313532
v 1.01446431 -0.54539264 -0.05893234
v 1.00399592 -0.54544578 0.01313532
v 1.00179900 -0.54544578 0.01559718
v 0.91506090 -0.54523322 0.11397894
v 1.01515248 -0.54527307 -0.08738317
v 1.01836845 -0.54539264 -0.05893234
v 1.00399592 -0.54544578 0.01559718
v 0.91506090 -0.54523322 0.11669629
v 0.89229778 -0.51314971 0.11911171
v 0.89229778 -0.51240576 0.11017002
v 0.91075973 -0.53861725 0.10907844
v 1.00263277 -0.53330320 -0.08740638
v 0.98642066 -0.50442143 -0.10884321
v 0.99598911 -0.51128981 -0.10884321
v 1.01816992 -0.54527307 -0.08738317
v 1.01982423 -0.53762086 -0.06202129
v 1.01836845 -0.54539264 -0.05628468
v 1.01832876 -0.53372832 -0.01331813
v 1.00568992 -0.53763415 0.01731585
v 0.98919989 -0.54528636 0.04476799
v 0.91668874 -0.54523322 0.11669629
v 0.89229778 -0.51314971 0.12614893
v 0.88615702 -0.45351295 0.09621170
v 0.89229778 -0.51237918 0.11005390
v 0.89277420 -0.50762313 0.09621170
v 0.98692358 -0.44946100 -0.10881998
v 0.98664565 -0.49541413 -0.10884321
v 0.88615702 -0.44629915 0.08617843
v 0.88615702 -0.44255275 0.08617843
v 1.00832356 -0.50895162 -0.10884321
v 1.01937426 -0.53762086 -0.08891602
v 1.02094915 -0.52312681 -0.06464572
v 1.01982423 -0.53762086 -0.05305637
v 1.01865961 -0.52312681 -0.01285362
v 1.00696041 -0.52314010 0.01861646
v 1.02135942 -0.50861952 -0.05052484
v 0.99045715 -0.53763415 0.04695115
v 0.97466854 -0.53286480 0.07338137
v 0.94565879 -0.53275852 0.10220380
v 0.91798570 -0.53762086 0.11799690
v 0.89037880 -0.45937167 0.12837854
v 0.89037880 -0.47120870 0.12640441
v 0.91905769 -0.52311354 0.11904204
v 0.88615702 -0.43960345 0.09621170
v 0.88615702 -0.45272914 0.09428401
v 0.88615702 -0.44892959 0.08896545
v 0.98734707 -0.44178222 -0.10881998
v 0.99561856 -0.48729694 -0.10884321
v 0.98743971 -0.44154308 -0.10881998
v 0.98766470 -0.44130396 -0.10881998
v 0.91050827 -0.41026998 0.10896231
v 0.91302280 -0.41151877 0.09937033
v 1.00263277 -0.41332556 -0.08742961
v 1.00836326 -0.50871251 -0.10884321
v 1.02034037 -0.52312681 -0.09012373
v 1.02124030 -0.49413876 -0.06499410
v 1.01865961 -0.51417268 -0.01283041
v 1.00696041 -0.51417268 0.01861646
v 0.99147618 -0.49073778 0.04864658
v 0.99146296 -0.51192750 0.04864658
v 0.99146296 -0.52312681 0.04862336
v 1.01865961 -0.46515068 -0.01271428
v 1.02135942 -0.49413876 -0.05052484
v 0.97490675 -0.52312681 0.07368330
v 0.94588377 -0.52311354 0.10245927
v 0.89037880 -0.45065666 0.12837854
v 0.91909739 -0.50861952 0.11904204
v 0.91919004 -0.46515068 0.11904204
v 0.89037880 -0.43120729 0.12645086
v 0.89037880 -0.43120729 0.12519670
v 0.99962858 -0.48749621 -0.10884321
v 0.99622734 -0.43529908 -0.10881998
v 0.91181848 -0.41179776 0.11808980
v 0.92314711 -0.41004413 0.10831200
v 0.99866245 -0.41000428 -0.00700090
v 1.01124836 -0.41081467 -0.06615537
v 1.01124836 -0.41098738 -0.07289065
v 1.01124836 -0.41113350 -0.07839502
v 1.01044106 -0.41155864 -0.08893923
v 1.00212985 -0.41236903 -0.07950982
v 1.00838973 -0.49404577 -0.10884321
v 1.00856177 -0.45130762 -0.10881998
v 1.02034037 -0.51132966 -0.09017017
v 1.02034037 -0.49413876 -0.09017017
v 1.02034037 -0.43208411 -0.09014694
v 1.02034037 -0.42165531 -0.09012373
v 1.02094915 -0.42165531 -0.06448315
v 1.02108149 -0.43208411 -0.05442665
v 1.01865961 -0.45064337 -0.01271428
v 1.00694719 -0.42166858 0.01857000
v 0.99146296 -0.42166858 0.04864658
v 0.99147618 -0.47526064 0.04864658
v 0.98713531 -0.43614934 0.05586961
v 0.98712209 -0.47963144 0.05586961
v 0.98710884 -0.50864608 0.05584637
v 0.98700297 -0.51192750 0.05586961
v 1.02112119 -0.43616263 -0.05052484
v 1.01865961 -0.42166858 -0.01285362
v 0.97930057 -0.51192750 0.06734284
v 0.97624343 -0.49073778 0.07177884
v 0.97490675 -0.49073778 0.07370652
v 0.94591023 -0.50861952 0.10245927
v 0.91919004 -0.45065666 0.11904204
v 0.91903122 -0.42166858 0.11904204
v 0.91809157 -0.41179776 0.11808980
v 1.00833679 -0.49375349 -0.10884321
v 1.00771478 -0.43665417 -0.10881998
v 1.01946690 -0.41167821 -0.08900890
v 0.96693966 -0.40980499 0.06546159
v 0.94565879 -0.41355139 0.10220380
v 0.97705072 -0.41173133 0.06546159
v 0.98197390 -0.40972529 0.05150328
v 1.00648397 -0.41007071 0.00749162
v 1.01011019 -0.41015041 -0.00788344
v 1.01986393 -0.41142578 -0.06209096
v 1.00837649 -0.49395276 -0.10884321
v 1.00849560 -0.45011197 -0.10881998
v 1.01986393 -0.41142578 -0.05328861
v 1.01832876 -0.41313956 -0.01329490
v 0.99053655 -0.41165163 0.04702082
v 1.00570315 -0.41123978 0.01726941
v 0.97465529 -0.41349827 0.07338137
v 0.98677799 -0.42166858 0.05586961
v 0.97490675 -0.42166858 0.07370652
v 0.98061077 -0.43614934 0.06546159
v 0.98211949 -0.49073778 0.06323197
v 0.98058430 -0.50864608 0.06546159
v 0.98059755 -0.47963144 0.06546159
v 0.94591023 -0.49415205 0.10245927
v 0.94587053 -0.42166858 0.10243604
f 1 2 7
f 1 7 3
f 1 3 8
f 1 8 4
f 1 4 9
f 1 9 5
f 1 5 2
f 2 6 16
f 2 16 7
f 2 5 6
f 3 7 18
f 3 18 8
f 4 8 22
f 4 22 9
f 5 9 23
f 5 23 10
f 5 10 11
f 5 11 12
f 5 12 13
f 5 13 6
f 6 13 14
f 6 14 15
f 6 15 16
f 7 17 34
f 7 34 18
f 7 16 17
f 8 18 19
f 8 19 20
f 8 20 21
f 8 21 22
f 9 22 23
f 10 23 24
f 10 24 11
f 11 25 12
f 11 24 25
f 12 25 26
f 12 26 14
f 12 14 13
f 14 27 28
f 14 28 49
f 14 49 72
f 14 72 107
f 14 107 117
f 14 117 82
f 14 82 55
f 14 55 31
f 14 31 15
f 14 26 29
f 14 29 30
f 14 30 27
f 15 31 16
f 16 31 32
f 16 32 17
f 17 32 33
f 17 33 34
f 18 34 19
f 19 35 36
f 19 36 20
f 19 34 37
f 19 37 35
f 20 36 38
f 20 38 21
f 21 38 39
f 21 39 22
f 22 39 40
f 22 40 41
f 22 41 23
f 23 42 43
f 23 43 24
f 23 41 44
f 23 44 42
f 24 45 30
f 24 30 29
f 24 29 47
f 24 47 46
f 24 46 25
f 24 43 42
f 24 42 67
f 24 67 45
f 25 46 26
f 26 46 47
f 26 47 29
f 27 48 28
f 27 30 48
f 28 48 50
f 28 50 51
f 28 51 49
f 30 45 52
f 30 52 53
f 30 53 54
f 30 54 50
f 30 50 48
f 31 55 32
f 32 55 56
f 32 56 33
f 33 56 57
f 33 57 37
f 33 37 34
f 35 37 58
f 35 58 36
f 36 59 93
f 36 93 60
f 36 60 61
f 36 61 62
f 36 62 38
f 36 58 63
f 36 63 90
f 36 90 59
f 37 64 90
f 37 90 63
f 37 63 58
f 37 57 64
f 38 62 39
f 39 65 40
f 39 62 65
f 40 65 66
f 40 66 44
f 40 44 41
f 42 44 68
f 42 68 69
f 42 69 104
f 42 104 67
f 44 66 68
f 45 67 70
f 45 70 71
f 45 71 52
f 49 51 73
f 49 73 72
f 50 54 51
f 51 54 73
f 52 71 70
f 52 70 74
f 52 74 75
f 52 75 76
f 52 76 77
f 52 77 78
f 52 78 79
f 52 79 80
f 52 80 81
f 52 81 54
f 52 54 53
f 54 81 80
f 54 80 73
f 55 82 83
f 55 83 56
f 56 83 84
f 56 84 57
f 57 84 85
f 57 85 86
f 57 86 87
f 57 87 88
f 57 88 89
f 57 89 64
f 59 90 91
f 59 91 92
f 59 92 93
f 60 93 94
f 60 94 95
f 60 95 61
f 61 95 96
f 61 96 62
f 62 96 97
f 62 97 65
f 64 89 98
f 64 98 99
f 64 99 90
f 65 97 96
f 65 96 100
f 65 100 101
f 65 101 102
f 65 102 103
f 65 103 66
f 66 103 69
f 66 69 68
f 67 104 105
f 67 105 70
f 69 103 130
f 69 130 104
f 70 105 106
f 70 106 74
f 72 73 108
f 72 108 107
f 73 80 109
f 73 109 108
f 74 106 75
f 75 110 76
f 75 106 111
f 75 111 112
f 75 112 113
f 75 113 110
f 76 114 115
f 76 115 77
f 76 110 113
f 76 113 114
f 77 116 109
f 77 109 78
f 77 115 116
f 78 109 79
f 79 109 80
f 82 117 108
f 82 108 118
f 82 118 83
f 83 118 87
f 83 87 86
f 83 86 85
f 83 85 84
f 87 118 108
f 87 108 109
f 87 109 88
f 88 109 116
f 88 116 119
f 88 119 120
f 88 120 89
f 89 120 98
f 90 99 91
f 91 121 92
f 91 99 120
f 91 120 122
f 91 122 121
f 92 121 123
f 92 123 124
f 92 124 94
f 92 94 93
f 94 124 125
f 94 125 126
f 94 126 127
f 94 127 95
f 95 127 96
f 96 127 128
f 96 128 100
f 98 120 99
f 100 128 127
f 100 127 129
f 100 129 126
f 100 126 101
f 101 126 125
f 101 125 102
f 102 125 130
f 102 130 103
f 104 130 131
f 104 131 105
f 105 131 111
f 105 111 106
f 107 108 117
f 111 131 125
f 111 125 123
f 111 123 112
f 112 121 113
f 112 123 121
f 113 121 122
f 113 122 114
f 114 122 120
f 114 120 115
f 115 120 119
f 115 119 116
f 123 125 124
f 125 131 130
f 126 129 127

