# https://github.com/mikedh/trimesh
v 1.11940116 -0.33743070 0.28932009
v 1.11940116 -0.04403257 0.28932009
v 1.11940116 -0.33591664 0.28290570
v 1.12195705 -0.53346830 0.31202655
v 1.12195705 -0.53340248 0.31205094
v 1.13009058 0.13903682 0.28933229
v 1.11940116 -0.04627074 0.28256425
v 1.12264953 -0.50865094 0.31205094
v 1.11940116 -0.33071618 0.27027203
v 1.12528096 -0.53346830 0.29752710
v 1.14868688 -0.53346830 0.31205094
v 1.11940116 -0.32005194 0.26665022
v 1.16271278 0.13903682 0.28933229
v 1.13087118 0.13903682 0.28797868
v 1.11940116 -0.06667761 0.27099152
v 1.11940116 -0.05963395 0.27228416
v 1.11940116 -0.05239280 0.27414993
v 1.11940116 -0.05061542 0.27463772
v 1.14041487 -0.50865094 0.31205094
v 1.13010315 -0.53346830 0.28932009
v 1.16472729 -0.53346830 0.28932009
v 1.24795111 -0.53281001 0.21522534
v 1.24802666 0.13897100 0.21490828
v 1.11940116 -0.08794025 0.26819894
v 1.16606189 -0.04469085 0.23480997
v 1.21610951 0.13897100 0.19994544
v 1.21609693 0.11461441 0.19994544
v 1.21609693 -0.19774238 0.19994544
v 1.21610951 -0.53281001 0.19994544
v 1.18434346 -0.53281001 0.22292018
v 1.17437168 -0.53281001 0.23018819
v 1.16711950 -0.53281001 0.23671233
v 1.16071090 -0.53281001 0.24395596
v 1.14365065 -0.53281001 0.26899159
v 1.13639847 -0.53281001 0.27969850
v 1.13148815 -0.53281001 0.28695433
v 1.16893255 0.13903682 0.28256425
v 1.13150073 0.13903682 0.28694213
v 1.11940116 -0.08089659 0.26861356
v 1.22796985 -0.53281001 0.19271400
v 1.23531016 -0.53281001 0.18879952
v 1.24795111 -0.53281001 0.18748250
v 1.24801408 -0.19774238 0.20587204
v 1.24802666 0.11461441 0.20590863
v 1.24802666 0.13897100 0.18747030
v 1.18117060 0.13903682 0.25591892
v 1.16711950 0.13903682 0.23672453
v 1.17437168 0.13903682 0.23018819
v 1.18117060 0.13897100 0.22523716
v 1.22796985 0.13897100 0.19271400
v 1.18117060 0.13903682 0.22526155
v 1.14366323 0.13903682 0.26897940
v 1.16071090 0.13903682 0.24396816
v 1.16288908 0.13903682 0.24150483
v 1.23531016 0.13897100 0.18879952
v 1.24801408 -0.19774238 0.18747030
v 1.24802666 0.11461441 0.18747030
v 1.24801408 0.11461441 0.18747030
f 1 2 7
f 1 7 18
f 1 18 17
f 1 17 16
f 1 16 15
f 1 15 39
f 1 39 24
f 1 24 12
f 1 12 9
f 1 9 3
f 1 3 4
f 1 4 5
f 1 5 2
f 2 6 7
f 2 5 8
f 2 8 6
f 3 9 4
f 4 10 20
f 4 20 21
f 4 21 11
f 4 11 5
f 4 9 12
f 4 12 10
f 5 11 19
f 5 19 8
f 6 13 37
f 6 37 46
f 6 46 51
f 6 51 48
f 6 48 47
f 6 47 54
f 6 54 53
f 6 53 52
f 6 52 38
f 6 38 14
f 6 14 15
f 6 15 16
f 6 16 17
f 6 17 18
f 6 18 7
f 6 8 19
f 6 19 13
f 10 12 20
f 11 21 22
f 11 22 23
f 11 23 13
f 11 13 19
f 12 24 25
f 12 25 26
f 12 26 27
f 12 27 28
f 12 28 29
f 12 29 30
f 12 30 31
f 12 31 32
f 12 32 33
f 12 33 34
f 12 34 35
f 12 35 36
f 12 36 20
f 13 23 37
f 14 38 15
f 15 38 39
f 20 36 35
f 20 35 34
f 20 34 33
f 20 33 32
f 20 32 31
f 20 31 30
f 20 30 29
f 20 29 40
f 20 40 41
f 20 41 42
f 20 42 21
f 21 42 22
f 22 42 56
f 22 56 43
f 22 43 23
f 23 43 44
f 23 44 57
f 23 57 45
f 23 45 51
f 23 51 46
f 23 46 37
f 24 39 47
f 24 47 48
f 24 48 49
f 24 49 26
f 24 26 25
f 26 50 27
f 26 49 51
f 26 51 50
f 27 50 40
f 27 40 28
f 28 40 29
f 38 52 39
f 39 52 53
f 39 53 54
f 39 54 47
f 40 50 55
f 40 55 41
f 41 55 58
f 41 58 56
f 41 56 42
f 43 56 57
f 43 57 44
f 45 57 56
f 45 56 58
f 45 58 55
f 45 55 51
f 48 51 49
f 50 51 55

