# https://github.com/mikedh/trimesh
v 0.17861665 0.01650630 -0.12276850
v 0.12581044 0.01651665 -0.11453867
v 0.12581044 0.01653735 -0.12217843
v 0.14028718 0.01653735 -0.12351384
v 0.15481898 0.01653735 -0.12435233
v 0.16624993 0.01653735 -0.12419707
v 0.16930493 0.01653735 -0.12407283
v 0.18381836 0.01650630 -0.12220949
v 0.14738796 0.01650630 -0.00509777
v 0.12238850 0.01651665 -0.05941451
v 0.12625081 0.10372136 -0.21037712
v 0.13831477 0.06472915 -0.21034605
v 0.15761707 0.06472915 -0.21028394
v 0.15122274 0.06472915 -0.21034605
v 0.19591901 0.01650630 -0.11826538
v 0.14738796 0.01650630 0.00238670
v 0.12182888 0.07163143 -0.06500456
v 0.12238850 0.01651665 -0.00488039
v 0.12877368 0.10251062 -0.21037712
v 0.12625081 0.11175161 -0.21037712
v 0.14000279 0.09712952 -0.21037712
v 0.15558044 0.09646723 -0.21037712
v 0.16895631 0.10335917 -0.21037712
v 0.20300142 0.01650630 -0.11065670
v 0.20163448 0.01650630 -0.11289271
v 0.15715838 0.09726407 -0.21037712
v 0.15484651 0.01650630 0.00390845
v 0.13554416 0.01651665 0.00036806
v 0.12238850 0.05122467 -0.01267540
v 0.12238850 0.05412220 -0.01404186
v 0.12238850 0.05761990 -0.01602944
v 0.12238850 0.05997930 -0.01745800
v 0.12238850 0.06434626 -0.02193005
v 0.12238850 0.06689194 -0.02466296
v 0.12238850 0.07080357 -0.03155738
v 0.15475476 0.04546071 0.10688973
v 0.15475476 0.06422208 0.10688973
v 0.12633336 0.11180335 -0.21037712
v 0.12556274 0.08588098 -0.06503561
v 0.12590220 0.08593272 -0.05941451
v 0.12642512 0.08593272 -0.05053251
v 0.13147085 0.10819180 -0.11348278
v 0.13270938 0.11058226 -0.11348278
v 0.16895631 0.11163777 -0.21037712
v 0.20685457 0.01650630 -0.10326539
v 0.20616650 0.01650630 -0.10509770
v 0.15911246 0.01650630 0.00449849
v 0.16933241 0.04433274 0.10688973
v 0.15987392 0.08592237 0.08962265
v 0.15507588 0.06448080 0.10688973
v 0.14750720 0.12222404 -0.20267528
v 0.14750720 0.12222404 -0.20283053
v 0.14158072 0.11790882 -0.21037712
v 0.14529626 0.11494921 -0.11348278
v 0.16867188 0.11180335 -0.21037712
v 0.16903886 0.11251737 -0.11348278
v 0.19503831 0.09323858 -0.06360705
v 0.21379936 0.03971742 -0.04991141
v 0.20822150 0.01650630 -0.09717844
v 0.16931409 0.01650630 0.00567863
v 0.18168997 0.04489156 0.10688973
v 0.18379083 0.01650630 0.00502645
v 0.17003885 0.07000675 0.10688973
v 0.16933241 0.08592237 0.09011955
v 0.15481898 0.11671877 -0.11348278
v 0.15481898 0.11740176 -0.12301693
v 0.14767235 0.12222404 -0.20267528
v 0.15357129 0.11810543 -0.21037712
v 0.14767235 0.12222404 -0.20283053
v 0.15515843 0.11797091 -0.21037712
v 0.17693779 0.08592237 0.08769719
v 0.19500161 0.09323858 -0.05941451
v 0.19503831 0.09323858 -0.06124680
v 0.21555160 0.03971742 -0.03606048
v 0.20870773 0.01650630 -0.09397969
v 0.20029504 0.04593674 0.10688973
v 0.19448785 0.01650630 0.00223141
v 0.17019479 0.07000675 0.10688973
v 0.18165327 0.06937552 0.10688973
v 0.20029504 0.06181094 0.10688973
v 0.20958843 0.01650630 -0.07919710
v 0.21220306 0.01650630 -0.02463191
v 0.19463463 0.01650630 0.00216930
v 0.20003818 0.01650630 -0.00118474
v 0.20357941 0.01650630 -0.00410398
v 0.20916643 0.01650630 -0.00935241
v 0.21013889 0.01650630 -0.01093627
f 1 2 3
f 1 3 4
f 1 4 5
f 1 5 6
f 1 6 7
f 1 7 8
f 1 8 15
f 1 15 25
f 1 25 24
f 1 24 46
f 1 46 45
f 1 45 59
f 1 59 75
f 1 75 81
f 1 81 82
f 1 82 87
f 1 87 86
f 1 86 85
f 1 85 84
f 1 84 83
f 1 83 77
f 1 77 62
f 1 62 60
f 1 60 47
f 1 47 27
f 1 27 16
f 1 16 9
f 1 9 2
f 2 9 10
f 2 10 3
f 3 11 12
f 3 12 4
f 3 10 11
f 4 12 5
f 5 13 6
f 5 12 14
f 5 14 13
f 6 13 7
f 7 13 8
f 8 13 15
f 9 16 18
f 9 18 10
f 10 17 11
f 10 18 17
f 11 19 12
f 11 17 20
f 11 20 38
f 11 38 53
f 11 53 68
f 11 68 70
f 11 70 55
f 11 55 44
f 11 44 23
f 11 23 26
f 11 26 22
f 11 22 21
f 11 21 19
f 12 19 21
f 12 21 22
f 12 22 14
f 13 14 23
f 13 23 24
f 13 24 25
f 13 25 15
f 14 22 26
f 14 26 23
f 16 27 28
f 16 28 18
f 17 18 29
f 17 29 30
f 17 30 31
f 17 31 32
f 17 32 33
f 17 33 34
f 17 34 35
f 17 35 20
f 18 28 36
f 18 36 37
f 18 37 29
f 20 35 39
f 20 39 40
f 20 40 41
f 20 41 42
f 20 42 43
f 20 43 38
f 23 44 45
f 23 45 46
f 23 46 24
f 27 47 48
f 27 48 28
f 28 48 36
f 29 37 30
f 30 37 31
f 31 37 32
f 32 37 33
f 33 37 34
f 34 37 49
f 34 49 35
f 35 41 40
f 35 40 39
f 35 49 41
f 36 48 61
f 36 61 76
f 36 76 80
f 36 80 79
f 36 79 78
f 36 78 63
f 36 63 50
f 36 50 37
f 37 50 49
f 38 51 52
f 38 52 53
f 38 43 51
f 41 43 42
f 41 49 43
f 43 54 51
f 43 49 54
f 44 55 56
f 44 56 57
f 44 57 58
f 44 58 59
f 44 59 45
f 47 60 48
f 48 60 62
f 48 62 61
f 49 50 63
f 49 63 64
f 49 64 65
f 49 65 54
f 51 66 67
f 51 67 69
f 51 69 52
f 51 54 65
f 51 65 66
f 52 68 53
f 52 69 68
f 55 70 69
f 55 69 56
f 56 65 71
f 56 71 72
f 56 72 73
f 56 73 57
f 56 69 67
f 56 67 66
f 56 66 65
f 57 73 74
f 57 74 58
f 58 74 75
f 58 75 59
f 61 62 76
f 62 77 76
f 63 78 64
f 64 78 79
f 64 79 71
f 64 71 65
f 68 69 70
f 71 79 80
f 71 80 72
f 72 74 73
f 72 80 74
f 74 81 75
f 74 80 76
f 74 76 82
f 74 82 81
f 76 77 83
f 76 83 84
f 76 84 85
f 76 85 86
f 76 86 87
f 76 87 82

