# https://github.com/mikedh/trimesh
v 0.99562578 0.01659728 0.02202320
v 1.02009276 0.01755120 -0.06028404
v 1.02009276 0.01755120 -0.05364715
v 1.00567549 0.01767042 0.01725143
v 0.99196740 0.01696824 0.03645968
v 0.98489282 0.01696824 0.03645968
v 0.96946365 0.01707424 -0.18100778
v 0.98140741 0.01680925 -0.16683777
v 0.99956954 0.01687551 -0.10851056
v 1.01063979 0.01725972 -0.10751744
v 1.02128625 0.02796469 -0.06151937
v 1.01848409 0.01927351 -0.09402566
v 1.01892518 0.01855808 -0.02540398
v 1.00693817 0.02799119 0.01855941
v 0.99114578 0.01782941 0.04571257
v 0.98624201 0.01782941 0.04571257
v 0.95477829 0.04533377 0.05188925
v 0.93358915 0.04101470 -0.19554114
v 0.97151338 0.01820039 -0.18987312
v 0.97731662 0.01707424 -0.18100778
v 0.99191552 0.01741870 -0.16223553
v 1.00661817 0.01721998 -0.12301970
v 1.02128625 0.04247205 -0.06227026
v 1.02193490 0.05696617 -0.05052246
v 1.01953059 0.02796469 -0.02363576
v 1.01934898 0.02796469 -0.09402566
v 1.01950463 0.04245881 -0.09402566
v 1.01954788 0.05696617 -0.09402566
v 1.01803438 0.02006844 -0.10204323
v 1.00692953 0.05697941 0.01916497
v 0.99239118 0.02799119 0.04672990
v 0.97986796 0.04355844 0.05188925
v 0.96697286 0.04326696 0.05188925
v 0.95390478 0.04636717 0.05188925
v 0.93358915 0.04744033 -0.17972400
v 0.93358915 0.07617682 -0.19554114
v 0.93856210 0.03980907 -0.19554114
v 0.95127559 0.05615799 0.05188925
v 0.97598473 0.01820039 -0.18987312
v 0.99353281 0.02796469 -0.16371311
v 1.02128625 0.05696617 -0.06258516
v 1.02192626 0.07147353 -0.05052246
v 1.01953923 0.12943674 -0.02353886
v 1.01953923 0.08592790 -0.02353886
v 1.01953059 0.04247205 -0.02353886
v 1.02128625 0.10044851 -0.06277894
v 1.02128625 0.11494262 -0.06277894
v 1.01825924 0.02796469 -0.10255189
v 1.01831977 0.04245881 -0.10269722
v 1.01831977 0.04374392 -0.10269722
v 1.01953923 0.11492935 -0.09402566
v 1.01046682 0.02796469 -0.12301970
v 1.00692953 0.10043526 0.01916497
v 0.99239118 0.10043526 0.04677835
v 0.99239118 0.04248530 0.04675413
v 0.98206471 0.05591952 0.05188925
v 0.93358915 0.05724438 -0.17972400
v 0.95114587 0.05703240 0.05188925
v 0.95174261 0.11816205 -0.18025691
v 0.95174261 0.11537982 -0.19546848
v 0.95178585 0.11537982 -0.19554114
v 0.95252099 0.10044851 0.05188925
v 0.95336857 0.11405496 0.05188925
v 0.95758044 0.04244556 -0.19554114
v 0.96264854 0.04853997 -0.19554114
v 0.97685824 0.02796469 -0.19067248
v 0.99353281 0.05695292 -0.16412487
v 1.01125385 0.05696617 -0.12301970
v 1.01114141 0.04245881 -0.12301970
v 1.02184842 0.10044851 -0.05052246
v 1.02128625 0.12943674 -0.05081314
v 1.01870897 0.14393085 -0.02588844
v 1.00693817 0.12939697 0.01860786
v 1.00693817 0.12571383 0.01868053
v 1.02128625 0.12943674 -0.06154359
v 1.01831112 0.12001688 -0.10267299
v 1.01910681 0.12001688 -0.09705342
v 1.01949599 0.12001688 -0.09402566
v 0.99239118 0.12939697 0.04672990
v 0.99239118 0.11491613 0.04677835
v 0.98205606 0.05819830 0.05188925
v 0.95114587 0.05752261 0.05188925
v 0.96779448 0.14393085 -0.18100778
v 0.97356311 0.15146936 -0.18861359
v 0.95318693 0.11576403 -0.19554114
v 0.95361937 0.11417418 0.05188925
v 0.98790254 0.15161510 0.04430768
v 0.98721931 0.15194632 0.03645968
v 0.97293177 0.15160186 -0.17064066
v 0.97276745 0.15170785 -0.18100778
v 0.96502692 0.05695292 -0.19554114
v 0.97685824 0.04245881 -0.19069668
v 0.99353281 0.07146028 -0.16412487
v 0.97686689 0.10043526 -0.19072093
v 0.99354145 0.10043526 -0.16402797
v 0.99354145 0.11492935 -0.16393107
v 1.01094249 0.11492935 -0.12301970
v 1.01830248 0.12942347 -0.10264877
v 1.02006680 0.14393085 -0.05306581
v 1.01781815 0.15128388 -0.02838332
v 1.00566682 0.14389109 0.01732408
v 0.99112847 0.14389109 0.04566413
v 1.02006680 0.14393085 -0.06025982
v 1.01938355 0.12942347 -0.09402566
v 1.01852735 0.14068491 -0.09402566
v 0.98015337 0.11449216 0.05188925
v 0.97460094 0.15146936 -0.18861359
v 0.95806477 0.11545932 -0.19554114
v 0.96618583 0.11744662 0.05188925
v 0.98946794 0.15161510 0.04430768
v 1.00193927 0.15190658 -0.10851056
v 0.98994363 0.15194632 0.03645968
v 0.97507663 0.15170785 -0.18100778
v 0.97686689 0.12942347 -0.19069668
v 0.97686689 0.11492935 -0.19072093
v 0.99354145 0.12942347 -0.16371311
v 1.01079547 0.12001688 -0.12301970
v 1.01808627 0.13864460 -0.10216433
v 1.01051871 0.12942347 -0.12301970
v 1.01847545 0.15174760 -0.05616625
v 1.00400629 0.15165484 0.01558009
v 0.97938364 0.11500886 0.05188925
v 1.01847545 0.15174760 -0.05858848
v 1.00401494 0.15161510 -0.12037947
v 0.97583770 0.14393085 -0.18975201
v 0.98982255 0.15173435 -0.16024929
v 0.99195876 0.14393085 -0.16221133
v 1.00563223 0.15190658 -0.10851056
v 1.00658359 0.14533521 -0.12432770
f 1 2 3
f 1 3 4
f 1 4 5
f 1 5 6
f 1 6 7
f 1 7 8
f 1 8 9
f 1 9 10
f 1 10 2
f 2 11 3
f 2 10 12
f 2 12 11
f 3 11 13
f 3 13 4
f 4 14 15
f 4 15 5
f 4 13 14
f 5 15 16
f 5 16 6
f 6 16 17
f 6 17 18
f 6 18 7
f 7 18 19
f 7 19 39
f 7 39 20
f 7 20 8
f 8 21 22
f 8 22 9
f 8 20 21
f 9 22 10
f 10 22 12
f 11 23 24
f 11 24 25
f 11 25 13
f 11 12 26
f 11 26 27
f 11 27 28
f 11 28 23
f 12 22 29
f 12 29 26
f 13 25 14
f 14 30 31
f 14 31 15
f 14 25 30
f 15 31 32
f 15 32 33
f 15 33 16
f 16 33 17
f 17 33 32
f 17 32 56
f 17 56 81
f 17 81 106
f 17 106 122
f 17 122 109
f 17 109 86
f 17 86 63
f 17 63 62
f 17 62 82
f 17 82 58
f 17 58 38
f 17 38 34
f 17 34 18
f 18 35 57
f 18 57 36
f 18 36 61
f 18 61 85
f 18 85 108
f 18 108 91
f 18 91 65
f 18 65 64
f 18 64 37
f 18 37 19
f 18 34 38
f 18 38 35
f 19 37 39
f 20 39 21
f 21 39 40
f 21 40 29
f 21 29 22
f 23 41 24
f 23 28 41
f 24 42 43
f 24 43 44
f 24 44 45
f 24 45 25
f 24 41 46
f 24 46 47
f 24 47 42
f 25 45 30
f 26 29 48
f 26 48 27
f 27 48 49
f 27 49 28
f 28 49 50
f 28 50 51
f 28 51 47
f 28 47 46
f 28 46 41
f 29 40 52
f 29 52 48
f 30 53 80
f 30 80 54
f 30 54 55
f 30 55 31
f 30 45 44
f 30 44 43
f 30 43 53
f 31 55 56
f 31 56 32
f 35 38 58
f 35 58 82
f 35 82 57
f 36 59 60
f 36 60 61
f 36 57 62
f 36 62 63
f 36 63 59
f 37 64 39
f 39 64 65
f 39 65 66
f 39 66 40
f 40 67 68
f 40 68 69
f 40 69 52
f 40 66 67
f 42 70 43
f 42 47 70
f 43 70 71
f 43 71 72
f 43 72 73
f 43 73 74
f 43 74 53
f 47 75 70
f 47 51 75
f 48 52 69
f 48 69 68
f 48 68 49
f 49 68 50
f 50 76 51
f 50 68 76
f 51 76 77
f 51 77 78
f 51 78 75
f 53 74 79
f 53 79 80
f 54 80 56
f 54 56 55
f 56 80 81
f 57 82 62
f 59 83 60
f 59 63 83
f 60 83 84
f 60 84 61
f 61 84 85
f 63 86 87
f 63 87 88
f 63 88 89
f 63 89 90
f 63 90 83
f 65 91 66
f 66 91 92
f 66 92 67
f 67 93 68
f 67 92 94
f 67 94 115
f 67 115 93
f 68 93 95
f 68 95 96
f 68 96 97
f 68 97 98
f 68 98 76
f 70 75 71
f 71 99 72
f 71 75 103
f 71 103 99
f 72 99 100
f 72 100 101
f 72 101 73
f 73 101 102
f 73 102 79
f 73 79 74
f 75 78 104
f 75 104 105
f 75 105 103
f 76 98 77
f 77 98 78
f 78 98 104
f 79 106 81
f 79 81 80
f 79 102 106
f 83 90 84
f 84 90 113
f 84 113 107
f 84 107 85
f 85 107 108
f 86 109 87
f 87 110 112
f 87 112 88
f 87 109 110
f 88 111 90
f 88 90 89
f 88 112 128
f 88 128 111
f 90 111 128
f 90 128 113
f 91 108 114
f 91 114 115
f 91 115 94
f 91 94 92
f 93 115 114
f 93 114 95
f 95 114 96
f 96 116 97
f 96 114 116
f 97 117 98
f 97 116 117
f 98 118 104
f 98 117 119
f 98 119 118
f 99 103 123
f 99 123 120
f 99 120 100
f 100 120 121
f 100 121 101
f 101 121 110
f 101 110 102
f 102 110 122
f 102 122 106
f 103 105 123
f 104 118 105
f 105 118 124
f 105 124 123
f 107 125 108
f 107 113 126
f 107 126 127
f 107 127 125
f 108 125 114
f 109 122 110
f 110 121 112
f 112 121 120
f 112 120 128
f 113 128 126
f 114 125 116
f 116 125 127
f 116 127 118
f 116 118 119
f 116 119 117
f 118 127 126
f 118 126 129
f 118 129 124
f 120 123 128
f 123 124 128
f 124 129 126
f 124 126 128

