# https://github.com/mikedh/trimesh
v 0.05818700 -0.42566068 0.11303177
v 0.05818700 -0.42566068 0.11895629
v 0.11201101 -0.40926510 0.13633009
v 0.11715096 -0.40926510 0.13024669
v 0.06104254 -0.42566068 0.11093051
v 0.07206842 -0.45065391 0.09957347
v 0.06481884 -0.45065391 0.10576961
v 0.06478387 -0.46514331 0.10576961
v 0.05828023 -0.52312763 0.11303177
v 0.08702210 -0.49414881 0.13275795
v 0.08701047 -0.46514331 0.13275795
v 0.08708041 -0.42566068 0.13278870
v 0.12560104 -0.40926510 0.14429949
v 0.11201101 -0.40926510 0.13735509
v 0.05828023 -0.52312763 0.11895629
v 0.12591572 -0.40926510 0.12620305
v 0.06797743 -0.42566068 0.10673312
v 0.07360690 -0.44052331 0.10084960
v 0.08232503 -0.45065391 0.09839984
v 0.08232503 -0.49414881 0.09827172
v 0.07202179 -0.46514331 0.09959909
v 0.06498204 -0.49414881 0.10577475
v 0.07223158 -0.49414881 0.09970672
v 0.07315235 -0.50502587 0.10029098
v 0.05920100 -0.53763039 0.11429764
v 0.08711537 -0.52312763 0.13275795
v 0.15644087 -0.40926510 0.15062888
v 0.05920100 -0.53763039 0.11789028
v 0.08821097 -0.53763039 0.13185595
v 0.12750084 -0.40926510 0.12581355
v 0.07288430 -0.42566068 0.10625649
v 0.08232503 -0.44037669 0.10037298
v 0.09681253 -0.44181630 0.10018335
v 0.10614841 -0.44246947 0.10059847
v 0.10743046 -0.49901416 0.09973235
v 0.09680086 -0.50485259 0.09893797
v 0.08232503 -0.50587897 0.09935309
v 0.06837372 -0.53892338 0.11244751
v 0.06781423 -0.52312763 0.10719437
v 0.06027330 -0.54514836 0.11579927
v 0.16114957 -0.53316492 0.14574474
v 0.16761825 -0.40926510 0.15048538
v 0.16306104 -0.53316492 0.14574474
v 0.06027330 -0.54514836 0.11663978
v 0.08939979 -0.54498840 0.13088220
v 0.14030996 -0.40926510 0.12584430
v 0.14244289 -0.40926510 0.12591606
v 0.08232503 -0.42566068 0.10665112
v 0.16990266 -0.44149638 0.10915212
v 0.16990266 -0.49692140 0.10685099
v 0.10743046 -0.50363957 0.09973235
v 0.16990266 -0.50531912 0.10685099
v 0.08232503 -0.53684393 0.11188889
v 0.06390974 -0.54514836 0.11579927
v 0.13203475 -0.54544161 0.12987769
v 0.13203475 -0.54544161 0.13275795
v 0.16097474 -0.54537496 0.13351645
v 0.17725715 -0.45166698 0.13643771
v 0.17725715 -0.44501543 0.13640184
v 0.17725715 -0.43637778 0.13624809
v 0.17725715 -0.43539138 0.13123069
v 0.16837586 -0.40926510 0.13833397
v 0.16356222 -0.52315430 0.14599587
v 0.16285125 -0.54537496 0.13351645
v 0.16463448 -0.53785700 0.13821097
v 0.16990266 -0.51190401 0.13812384
v 0.16990266 -0.51023780 0.13893360
v 0.15942460 -0.40926510 0.12846319
v 0.17725715 -0.43892375 0.11262177
v 0.17725715 -0.45346648 0.11262177
v 0.16990266 -0.51211729 0.12338942
v 0.16451796 -0.53763039 0.12853494
v 0.16285125 -0.54537496 0.13004682
v 0.13423757 -0.54544161 0.12987769
v 0.13423757 -0.54544161 0.13275795
v 0.17725715 -0.45631903 0.12351755
v 0.17725715 -0.43448496 0.12388654
v 0.17725715 -0.43748414 0.11562503
v 0.16623126 -0.40926510 0.13259908
v 0.16299111 -0.40926510 0.12936519
v 0.16454125 -0.41142453 0.12850931
f 1 2 14
f 1 14 3
f 1 3 4
f 1 4 5
f 1 5 6
f 1 6 7
f 1 7 8
f 1 8 9
f 1 9 15
f 1 15 2
f 2 10 11
f 2 11 12
f 2 12 13
f 2 13 14
f 2 15 10
f 3 14 13
f 3 13 27
f 3 27 42
f 3 42 62
f 3 62 79
f 3 79 80
f 3 80 68
f 3 68 47
f 3 47 46
f 3 46 30
f 3 30 16
f 3 16 4
f 4 16 17
f 4 17 5
f 5 17 6
f 6 18 19
f 6 19 20
f 6 20 21
f 6 21 8
f 6 8 7
f 6 17 18
f 8 21 22
f 8 22 9
f 9 22 23
f 9 23 24
f 9 24 25
f 9 25 28
f 9 28 15
f 10 13 12
f 10 12 11
f 10 15 26
f 10 26 13
f 13 26 27
f 15 28 29
f 15 29 26
f 16 30 17
f 17 30 31
f 17 31 18
f 18 32 19
f 18 31 32
f 19 32 33
f 19 33 34
f 19 34 35
f 19 35 36
f 19 36 20
f 20 23 21
f 20 36 37
f 20 37 24
f 20 24 23
f 21 23 22
f 24 37 38
f 24 38 39
f 24 39 40
f 24 40 25
f 25 40 44
f 25 44 28
f 26 29 41
f 26 41 27
f 27 41 43
f 27 43 42
f 28 44 45
f 28 45 29
f 29 45 41
f 30 46 31
f 31 46 47
f 31 47 48
f 31 48 33
f 31 33 32
f 33 48 34
f 34 48 49
f 34 49 50
f 34 50 35
f 35 50 52
f 35 52 51
f 35 51 36
f 36 51 52
f 36 52 53
f 36 53 38
f 36 38 37
f 38 53 54
f 38 54 40
f 38 40 39
f 40 54 74
f 40 74 55
f 40 55 56
f 40 56 44
f 41 45 56
f 41 56 57
f 41 57 64
f 41 64 43
f 42 58 59
f 42 59 60
f 42 60 61
f 42 61 62
f 42 43 63
f 42 63 58
f 43 64 65
f 43 65 66
f 43 66 67
f 43 67 58
f 43 58 63
f 44 56 45
f 47 68 49
f 47 49 48
f 49 68 69
f 49 69 50
f 50 69 70
f 50 70 52
f 52 70 71
f 52 71 72
f 52 72 73
f 52 73 53
f 53 73 54
f 54 73 74
f 55 74 75
f 55 75 56
f 56 75 64
f 56 64 57
f 58 76 70
f 58 70 69
f 58 69 78
f 58 78 77
f 58 77 61
f 58 61 60
f 58 60 59
f 58 67 66
f 58 66 76
f 61 77 62
f 62 77 78
f 62 78 69
f 62 69 79
f 64 75 74
f 64 74 73
f 64 73 65
f 65 73 72
f 65 72 71
f 65 71 66
f 66 71 76
f 68 80 69
f 69 80 81
f 69 81 79
f 70 76 71
f 79 81 80

