# https://github.com/mikedh/trimesh
v 0.06783386 0.15191436 -0.23058598
v 0.06783386 0.15191436 -0.23316084
v 0.03004633 0.15183488 -0.21003473
v 0.03303092 0.15183488 -0.21003473
v 0.01838635 0.15171568 -0.18752564
v 0.20960023 0.15168918 -0.24531119
v 0.20960023 0.15168918 -0.24789789
v 0.16275789 0.15160970 -0.26131793
v 0.16093679 0.15160970 -0.26131793
v 0.08859926 0.15171568 -0.24719785
v 0.03108336 0.15150372 -0.21769992
v 0.01411185 0.15171568 -0.18981572
v 0.01411185 0.15171568 -0.18752564
v 0.00981206 0.11743348 -0.16652352
v 0.15479063 0.06055260 -0.14240071
v 0.25102990 0.11394963 -0.21088907
v 0.23461486 0.15125203 -0.24612992
v 0.23461486 0.15125203 -0.24637912
v 0.16427545 0.14393993 -0.26259942
v 0.15845810 0.14393993 -0.26259942
v 0.13283645 0.15123878 -0.26085517
v 0.08670231 0.14391343 -0.24898955
v 0.06006895 0.15158321 -0.23263873
v 0.02964166 0.14391343 -0.21886273
v 0.00199659 0.13955530 -0.18950721
v 0.05875371 0.14391343 -0.23452535
v 0.00199659 0.13955530 -0.18764432
v -0.00280905 0.11585712 -0.17265802
v 0.00839568 0.11735400 -0.16652352
v 0.14437000 0.05701574 -0.14240071
v 0.16290964 0.05481681 -0.14240071
v 0.25102990 0.05679056 -0.20704461
v 0.25102990 0.11410858 -0.21148231
v 0.25102990 0.11734075 -0.22455823
v 0.25102990 0.11398935 -0.23535596
v 0.23552538 0.14393993 -0.24739956
v 0.21278714 0.12943490 -0.25531392
v 0.16548951 0.12943490 -0.26360797
v 0.19826904 0.12943490 -0.25816167
v 0.19826904 0.11939396 -0.25924145
v 0.19826904 0.11494312 -0.25970421
v 0.15658644 0.12943490 -0.26360797
v 0.13061068 0.14393993 -0.26169763
v 0.08533650 0.12943490 -0.25035411
v 0.02852877 0.12942165 -0.21984759
v 0.05771672 0.12943490 -0.23599670
v 0.00171838 0.12942165 -0.19010050
v -0.00736176 0.05696275 -0.17265802
v 0.00834507 0.04270942 -0.16653536
v 0.00839568 0.09870279 -0.16652352
v 0.14437000 0.05502877 -0.14240071
v 0.16265671 0.04898832 -0.14240071
v 0.25102990 0.05570435 -0.20722259
v 0.25102990 0.10571023 -0.23535596
v 0.23638534 0.11939396 -0.24836065
v 0.23636006 0.12943490 -0.24836065
v 0.21278714 0.11939396 -0.25544445
v 0.16556540 0.11944695 -0.26361986
v 0.19829432 0.05693626 -0.26000083
v 0.21278714 0.11494312 -0.25549190
v 0.15585294 0.08617151 -0.26360797
v 0.12848609 0.12943490 -0.26249262
v 0.16275789 0.11944695 -0.26361986
v 0.08485593 0.11491662 -0.25035411
v 0.05746380 0.11980462 -0.23599670
v 0.05736262 0.11491662 -0.23599670
v 0.02852877 0.02796597 -0.21984759
v 0.00753573 0.10043809 -0.19736223
v 0.08445126 0.10045134 -0.25035411
v 0.00171838 0.02796597 -0.19010050
v 0.00199659 0.01966036 -0.18950721
v -0.00731120 0.05636666 -0.17265802
v -0.00280905 0.04244450 -0.17265802
v 0.00199659 0.01966036 -0.18763244
v 0.00834507 0.01793830 -0.18627977
v 0.00981206 0.01752764 -0.18598310
v 0.14474939 0.04738549 -0.14240071
v 0.15479063 0.04668341 -0.14240071
v 0.22811458 0.01777934 -0.24153796
v 0.23575302 0.01865360 -0.24426703
v 0.25102990 0.04435201 -0.21173152
v 0.25102990 0.10135212 -0.23534407
v 0.23638534 0.02796597 -0.24836065
v 0.16556540 0.10046459 -0.26361986
v 0.21281242 0.02795272 -0.25496980
v 0.16551479 0.02795272 -0.26360797
v 0.15651054 0.04027205 -0.26360797
v 0.12848609 0.04027205 -0.26250451
v 0.12846081 0.04245775 -0.26250451
v 0.12846081 0.08617151 -0.26250451
v 0.08437537 0.07089818 -0.25035411
v 0.16551479 0.08617151 -0.26361986
v 0.15678880 0.02795272 -0.26360797
v 0.06783386 0.10045134 -0.24162098
v 0.05736262 0.10045134 -0.23599670
v 0.05771672 0.02796597 -0.23599670
v 0.02951519 0.01809724 -0.21898141
v 0.00763691 0.05696275 -0.19735039
v 0.00981206 0.01752764 -0.19246176
v 0.02688475 0.01658714 -0.21003473
v 0.02023273 0.01752764 -0.18587635
v 0.22730524 0.01769985 -0.24125318
v 0.22811458 0.01777934 -0.24828947
v 0.23575302 0.01865360 -0.24766061
v 0.25102990 0.04264318 -0.22568547
v 0.25102990 0.05693626 -0.22961300
v 0.16435134 0.01788531 -0.26267060
v 0.12853666 0.02796597 -0.26249262
v 0.08440065 0.05696275 -0.25035411
v 0.15873631 0.01788531 -0.26267060
v 0.13007954 0.01865360 -0.26192306
v 0.06783386 0.05696275 -0.24153796
v 0.08533650 0.02796597 -0.25035411
v 0.05867786 0.01795153 -0.23459653
v 0.08682878 0.01756738 -0.24898955
v 0.06783386 0.01667987 -0.23578311
v 0.03593957 0.01658714 -0.21003473
v 0.21281242 0.01732894 -0.24092094
v 0.22730524 0.01769985 -0.24836065
v 0.25102990 0.04431227 -0.22623130
v 0.21281242 0.01732894 -0.25042530
v 0.12896666 0.01715674 -0.25353410
v 0.08212431 0.01669312 -0.23909362
f 1 2 3
f 1 3 4
f 1 4 5
f 1 5 6
f 1 6 7
f 1 7 2
f 2 7 8
f 2 8 9
f 2 9 10
f 2 10 11
f 2 11 3
f 3 11 12
f 3 12 13
f 3 13 5
f 3 5 4
f 5 13 14
f 5 14 15
f 5 15 16
f 5 16 17
f 5 17 6
f 6 17 18
f 6 18 7
f 7 18 8
f 8 19 20
f 8 20 9
f 8 18 19
f 9 20 21
f 9 21 10
f 10 22 23
f 10 23 11
f 10 21 22
f 11 24 25
f 11 25 12
f 11 23 22
f 11 22 26
f 11 26 24
f 12 25 27
f 12 27 13
f 13 27 28
f 13 28 29
f 13 29 14
f 14 29 15
f 15 30 51
f 15 51 77
f 15 77 78
f 15 78 52
f 15 52 31
f 15 31 16
f 15 29 30
f 16 32 53
f 16 53 81
f 16 81 105
f 16 105 120
f 16 120 106
f 16 106 82
f 16 82 54
f 16 54 35
f 16 35 34
f 16 34 33
f 16 33 17
f 16 31 32
f 17 33 34
f 17 34 18
f 18 34 35
f 18 35 36
f 18 36 37
f 18 37 19
f 19 38 42
f 19 42 20
f 19 37 39
f 19 39 40
f 19 40 41
f 19 41 38
f 20 42 43
f 20 43 21
f 21 43 22
f 22 44 26
f 22 43 44
f 24 45 25
f 24 26 46
f 24 46 45
f 25 47 48
f 25 48 28
f 25 28 27
f 25 45 47
f 26 44 46
f 28 48 29
f 29 48 49
f 29 49 50
f 29 50 51
f 29 51 30
f 31 52 32
f 32 52 53
f 35 54 83
f 35 83 55
f 35 55 56
f 35 56 36
f 36 56 37
f 37 56 57
f 37 57 41
f 37 41 40
f 37 40 39
f 38 58 63
f 38 63 42
f 38 41 59
f 38 59 58
f 41 57 60
f 41 60 59
f 42 61 62
f 42 62 43
f 42 63 61
f 43 62 44
f 44 64 46
f 44 62 64
f 45 46 65
f 45 65 66
f 45 66 95
f 45 95 67
f 45 67 68
f 45 68 47
f 46 64 69
f 46 69 65
f 47 68 70
f 47 70 48
f 48 70 71
f 48 71 72
f 48 72 49
f 49 72 73
f 49 73 74
f 49 74 75
f 49 75 76
f 49 76 77
f 49 77 51
f 49 51 50
f 52 78 79
f 52 79 80
f 52 80 81
f 52 81 53
f 54 82 83
f 55 83 59
f 55 59 56
f 56 59 60
f 56 60 57
f 58 84 92
f 58 92 63
f 58 59 84
f 59 83 85
f 59 85 86
f 59 86 84
f 61 63 87
f 61 87 88
f 61 88 89
f 61 89 90
f 61 90 62
f 62 90 91
f 62 91 69
f 62 69 64
f 63 92 93
f 63 93 87
f 65 69 66
f 66 69 94
f 66 94 95
f 67 95 96
f 67 96 97
f 67 97 71
f 67 71 70
f 67 70 98
f 67 98 68
f 68 98 70
f 69 91 94
f 71 99 76
f 71 76 74
f 71 74 72
f 71 97 99
f 72 74 73
f 74 76 75
f 76 100 101
f 76 101 78
f 76 78 77
f 76 99 100
f 78 102 79
f 78 101 102
f 79 102 119
f 79 119 103
f 79 103 104
f 79 104 80
f 80 104 105
f 80 105 81
f 82 106 83
f 83 106 104
f 83 104 85
f 84 86 92
f 85 104 107
f 85 107 86
f 86 107 110
f 86 110 93
f 86 93 92
f 87 93 88
f 88 108 89
f 88 93 108
f 89 108 109
f 89 109 91
f 89 91 90
f 91 109 94
f 93 110 111
f 93 111 108
f 94 109 112
f 94 112 95
f 95 112 96
f 96 112 109
f 96 109 113
f 96 113 114
f 96 114 97
f 97 100 99
f 97 114 115
f 97 115 116
f 97 116 100
f 100 116 117
f 100 117 101
f 101 117 118
f 101 118 102
f 102 118 121
f 102 121 119
f 103 119 107
f 103 107 104
f 104 106 120
f 104 120 105
f 107 119 121
f 107 121 122
f 107 122 110
f 108 111 113
f 108 113 109
f 110 122 115
f 110 115 111
f 111 115 113
f 113 115 114
f 115 123 116
f 115 122 123
f 116 123 117
f 117 123 118
f 118 123 121
f 121 123 122

