# https://github.com/mikedh/trimesh
v 0.64441359 0.00262084 -0.00566124
v 0.65857122 0.00262084 -0.00345003
v 0.63689621 0.00262084 -0.00372893
v 0.62271683 0.01742614 -0.09400925
v 0.62935707 0.01742614 -0.09400925
v 0.65965134 0.00262084 -0.00217512
v 0.62755203 0.01894614 -0.10259506
v 0.63639601 0.00262084 0.00645052
v 0.62149172 0.01666615 -0.07950704
v 0.61604760 0.02794915 -0.07950704
v 0.61860656 0.02794915 -0.09400925
v 0.62421016 0.01894614 -0.10259506
v 0.67706385 0.04830829 0.02382130
v 0.67706385 0.04605754 0.03061424
v 0.66002105 0.00262084 0.00407997
v 0.64934303 0.04206755 -0.12108141
v 0.65701990 0.04779675 -0.12108141
v 0.66120267 0.04794290 -0.09633998
v 0.64812517 0.04167293 -0.12108141
v 0.62482634 0.01843460 0.00358194
v 0.62298505 0.01799615 -0.02149814
v 0.64776271 0.00262084 0.00790472
v 0.67706385 0.08790113 0.07991783
v 0.63918694 0.04412831 0.03061424
v 0.61600410 0.02794915 -0.06500482
v 0.61494572 0.03806296 -0.06940728
v 0.61358288 0.05694592 -0.06500482
v 0.61547491 0.03806296 -0.07950704
v 0.61747568 0.04246216 -0.09400925
v 0.61780914 0.03806296 -0.09400925
v 0.62315178 0.02794915 -0.10333212
v 0.63344560 0.04276909 -0.12108141
v 0.68764038 0.10372950 0.03744703
v 0.68764038 0.10032414 0.04698901
v 0.68764038 0.08956728 0.07908116
v 0.67694786 0.09820493 -0.08269435
v 0.66002105 0.00262084 0.00439870
v 0.65750559 0.05684362 -0.12108141
v 0.67694786 0.10049953 -0.08343141
v 0.62416666 0.02794915 0.00529511
v 0.61911400 0.02794915 -0.02149814
v 0.64007859 0.08459807 0.04435949
v 0.67706385 0.10047029 0.08238799
v 0.66363114 0.08459807 0.06798536
v 0.65459143 0.08459807 0.05963863
v 0.61447453 0.04246216 -0.06500482
v 0.61407582 0.11493945 -0.06500482
v 0.61523569 0.10045568 -0.07950704
v 0.61523569 0.04246216 -0.07950704
v 0.61791788 0.04246216 -0.02149814
v 0.61732345 0.05693131 -0.02149814
v 0.61771491 0.11495405 -0.02151807
v 0.61728721 0.05694592 -0.09400925
v 0.62236163 0.05694592 -0.10450744
v 0.62258635 0.04246216 -0.10430824
v 0.61919374 0.03806296 -0.09683799
v 0.62275307 0.03806296 -0.10400943
v 0.63243797 0.05639054 -0.12108141
v 0.68764038 0.10614103 0.03302465
v 0.68764038 0.12403016 0.07908116
v 0.67706385 0.11495405 0.08240790
v 0.65750559 0.05735515 -0.12108141
v 0.65836099 0.10108413 -0.12104158
v 0.67694786 0.10068953 -0.08343141
v 0.62415941 0.11901710 0.00529511
v 0.62103503 0.07161970 -0.00685648
v 0.66144189 0.11495405 0.06688972
v 0.64007859 0.12942321 0.04435949
v 0.66155788 0.10047029 0.06688972
v 0.61458327 0.12132633 -0.06500482
v 0.61591711 0.12943782 -0.07950704
v 0.61564164 0.12132633 -0.07950704
v 0.61545316 0.11493945 -0.07950704
v 0.61788889 0.11901710 -0.02149814
v 0.61835283 0.12945245 -0.02149814
v 0.61753367 0.11493945 -0.09396943
v 0.61735970 0.10045568 -0.09396943
v 0.62415941 0.12945245 0.00529511
v 0.62126700 0.12945245 -0.00701583
v 0.62244136 0.11495405 -0.10464689
v 0.62244136 0.10045568 -0.10464689
v 0.63243797 0.05815899 -0.12108141
v 0.68764038 0.10932716 0.03302465
v 0.67706385 0.12762554 0.07987798
v 0.67706385 0.11800866 0.08240790
v 0.68764038 0.11567022 0.05097314
v 0.67694786 0.11377022 -0.08006482
v 0.67026413 0.15168231 0.05688957
v 0.67026413 0.15168231 0.06003703
v 0.65180775 0.06679664 -0.12108141
v 0.65830300 0.11169484 -0.12104158
v 0.67694786 0.11356560 -0.08044330
v 0.65462042 0.12942321 0.05957885
v 0.64028157 0.13870392 0.04418020
v 0.61525743 0.12943782 -0.06500482
v 0.61949096 0.14393621 -0.07950704
v 0.61836008 0.12943782 -0.09396943
v 0.61680876 0.12132633 -0.08761474
v 0.62501482 0.14393621 0.00320346
v 0.62597171 0.15136077 0.00077313
v 0.61788889 0.12132633 -0.09396943
v 0.62062907 0.12132633 -0.09996553
v 0.62218039 0.11495405 -0.10408911
v 0.63290916 0.11517329 -0.12104158
v 0.62269508 0.12147248 -0.10410903
v 0.63344560 0.06258742 -0.12108141
v 0.68764038 0.11138793 0.03786536
v 0.66782841 0.15168231 0.06003703
v 0.66273949 0.14319083 0.06268647
v 0.65481615 0.13784163 0.05910077
v 0.62714607 0.15162386 -0.09094149
v 0.62765352 0.15191616 -0.07950704
v 0.64789319 0.07104969 -0.12108141
v 0.64840789 0.11808172 -0.12104158
v 0.64898782 0.14311774 0.04963846
v 0.65278638 0.15165309 0.04547504
v 0.62261534 0.14485698 -0.02159775
v 0.62450738 0.15191616 -0.07950704
v 0.62530478 0.15162386 -0.09094149
v 0.62261534 0.14522234 -0.09504514
v 0.62532653 0.15149231 -0.02647831
v 0.62415216 0.14123238 -0.10265482
v 0.62302130 0.12943782 -0.10343173
v 0.64028882 0.11670790 -0.12104158
v 0.65816527 0.14751694 0.05511664
v 0.62760277 0.14123238 -0.10265482
v 0.64661734 0.11800866 -0.12104158
f 1 2 6
f 1 6 15
f 1 15 37
f 1 37 22
f 1 22 8
f 1 8 3
f 1 3 4
f 1 4 5
f 1 5 2
f 2 5 7
f 2 7 6
f 3 8 9
f 3 9 4
f 4 9 10
f 4 10 11
f 4 11 12
f 4 12 7
f 4 7 5
f 6 13 14
f 6 14 15
f 6 7 16
f 6 16 17
f 6 17 18
f 6 18 13
f 7 12 19
f 7 19 16
f 8 20 21
f 8 21 9
f 8 22 23
f 8 23 24
f 8 24 20
f 9 25 10
f 9 21 25
f 10 25 26
f 10 26 27
f 10 27 28
f 10 28 29
f 10 29 30
f 10 30 11
f 11 30 31
f 11 31 12
f 12 31 32
f 12 32 19
f 13 33 34
f 13 34 35
f 13 35 14
f 13 18 36
f 13 36 33
f 14 35 37
f 14 37 15
f 16 19 32
f 16 32 58
f 16 58 82
f 16 82 106
f 16 106 113
f 16 113 90
f 16 90 62
f 16 62 38
f 16 38 17
f 17 38 39
f 17 39 36
f 17 36 18
f 20 40 41
f 20 41 21
f 20 24 42
f 20 42 40
f 21 41 25
f 22 37 35
f 22 35 23
f 23 35 43
f 23 43 44
f 23 44 24
f 24 44 45
f 24 45 42
f 25 46 26
f 25 41 46
f 26 46 27
f 27 47 48
f 27 48 49
f 27 49 28
f 27 46 50
f 27 50 51
f 27 51 52
f 27 52 47
f 28 49 29
f 29 49 53
f 29 53 54
f 29 54 55
f 29 55 56
f 29 56 30
f 30 56 31
f 31 56 57
f 31 57 32
f 32 57 55
f 32 55 58
f 33 59 83
f 33 83 107
f 33 107 86
f 33 86 60
f 33 60 35
f 33 35 34
f 33 36 59
f 35 60 85
f 35 85 61
f 35 61 43
f 36 39 59
f 38 62 63
f 38 63 39
f 39 64 83
f 39 83 59
f 39 63 64
f 40 65 66
f 40 66 51
f 40 51 50
f 40 50 41
f 40 42 65
f 41 50 46
f 42 45 67
f 42 67 68
f 42 68 78
f 42 78 65
f 43 61 67
f 43 67 69
f 43 69 45
f 43 45 44
f 45 69 67
f 47 70 71
f 47 71 72
f 47 72 73
f 47 73 48
f 47 52 74
f 47 74 75
f 47 75 70
f 48 73 76
f 48 76 77
f 48 77 53
f 48 53 49
f 51 66 78
f 51 78 52
f 52 78 79
f 52 79 74
f 53 77 80
f 53 80 54
f 54 80 81
f 54 81 58
f 54 58 55
f 55 57 56
f 58 81 80
f 58 80 82
f 60 84 85
f 60 86 87
f 60 87 88
f 60 88 89
f 60 89 84
f 61 85 67
f 62 90 91
f 62 91 63
f 63 91 64
f 64 92 83
f 64 91 92
f 65 78 66
f 67 85 93
f 67 93 68
f 68 93 94
f 68 94 78
f 70 95 71
f 70 75 95
f 71 96 97
f 71 97 98
f 71 98 72
f 71 95 96
f 72 98 76
f 72 76 73
f 74 79 75
f 75 79 99
f 75 99 100
f 75 100 95
f 76 98 101
f 76 101 102
f 76 102 103
f 76 103 77
f 77 103 80
f 78 99 79
f 78 94 99
f 80 104 82
f 80 103 102
f 80 102 105
f 80 105 104
f 82 104 106
f 83 92 87
f 83 87 107
f 84 89 108
f 84 108 109
f 84 109 110
f 84 110 85
f 85 110 93
f 86 107 87
f 87 92 91
f 87 91 111
f 87 111 88
f 88 111 112
f 88 112 89
f 89 112 118
f 89 118 108
f 90 113 91
f 91 113 114
f 91 114 111
f 93 110 94
f 94 110 115
f 94 115 116
f 94 116 100
f 94 100 99
f 95 100 117
f 95 117 96
f 96 118 119
f 96 119 120
f 96 120 97
f 96 117 100
f 96 100 121
f 96 121 118
f 97 101 98
f 97 120 122
f 97 122 123
f 97 123 102
f 97 102 101
f 100 116 118
f 100 118 121
f 102 123 105
f 104 105 123
f 104 123 122
f 104 122 124
f 104 124 113
f 104 113 106
f 108 118 116
f 108 116 125
f 108 125 109
f 109 125 115
f 109 115 110
f 111 119 118
f 111 118 112
f 111 114 126
f 111 126 122
f 111 122 119
f 113 124 127
f 113 127 114
f 114 127 122
f 114 122 126
f 115 125 116
f 119 122 120
f 122 127 124

