# https://github.com/mikedh/trimesh
v 1.19320595 0.13073784 0.42203287
v 1.19377775 0.13073784 0.42125346
v 1.18837640 0.13073784 0.42203287
v 1.19328322 -0.53347073 0.42203287
v 1.19513777 0.13073784 0.41349824
v 1.19833682 -0.53347073 0.41312150
v 1.18112825 0.13073784 0.41896716
v 1.11941058 -0.13452948 0.40091060
v 1.18785867 -0.10254136 0.42203287
v 1.18838414 -0.53347073 0.42203287
v 1.19513777 0.13073784 0.41187444
v 1.19832139 -0.53347073 0.39955959
v 1.16997006 0.13073784 0.41238105
v 1.16175597 0.13073784 0.40693810
v 1.14477918 0.13073784 0.39542868
v 1.14383646 0.13073784 0.39477916
v 1.13721422 0.13073784 0.38979087
v 1.13658830 0.13073784 0.38929724
v 1.13123328 0.13073784 0.38269815
v 1.13072328 0.13073784 0.38204863
v 1.12694465 0.13073784 0.37004557
v 1.12662784 0.13073784 0.36692789
v 1.12549966 0.13073784 0.35554835
v 1.12441011 0.13073784 0.34103815
v 1.12223876 0.13073784 0.31208270
v 1.11940285 -0.04415655 0.31255036
v 1.11940285 -0.05429912 0.31860385
v 1.11940285 -0.06203608 0.32242301
v 1.11940285 -0.07399911 0.32338429
v 1.11940285 -0.10345159 0.32361812
v 1.11940285 -0.30643311 0.32386494
v 1.11941058 -0.15175885 0.40091060
v 1.18112051 -0.53347073 0.41901911
v 1.19384729 0.13073784 0.40401528
v 1.14867374 -0.53347073 0.31206972
v 1.15098417 -0.50856940 0.28934962
v 1.15410599 0.13060782 0.28934962
v 1.14195101 0.13073784 0.31208270
v 1.13009741 0.13060782 0.28934962
v 1.12535284 0.13060782 0.29755951
v 1.12504377 0.13060782 0.29883257
v 1.11940285 -0.04402651 0.28934962
v 1.11940285 -0.04162090 0.29755951
v 1.11940285 -0.04402651 0.31208270
v 1.11940285 -0.32522287 0.32334532
v 1.11940285 -0.33185456 0.32315047
v 1.11940285 -0.33504037 0.32277375
v 1.12195285 -0.53340570 0.31206972
v 1.12342105 -0.53347073 0.33074981
v 1.12456467 -0.53347073 0.34523403
v 1.12546875 -0.53347073 0.35554835
v 1.12572375 -0.53347073 0.35810745
v 1.12694465 -0.53347073 0.37005855
v 1.13071559 -0.53347073 0.38204863
v 1.13658056 -0.53347073 0.38931022
v 1.14382103 -0.53347073 0.39476616
v 1.14691963 -0.53347073 0.39687060
v 1.15663283 -0.53347073 0.40344371
v 1.16177918 -0.53347073 0.40692512
v 1.16997006 -0.53347073 0.41239404
v 1.12232377 -0.53347073 0.31623960
v 1.13012831 -0.50856940 0.28934962
v 1.11940285 -0.33744598 0.28934962
v 1.11940285 -0.34804367 0.31093955
v 1.11940285 -0.34804367 0.30921184
v 1.11940285 -0.34726346 0.30066420
v 1.11940285 -0.34622320 0.29797520
v 1.12545332 -0.50856940 0.29753353
f 1 2 5
f 1 5 11
f 1 11 34
f 1 34 38
f 1 38 25
f 1 25 24
f 1 24 23
f 1 23 22
f 1 22 21
f 1 21 20
f 1 20 19
f 1 19 18
f 1 18 17
f 1 17 16
f 1 16 15
f 1 15 14
f 1 14 13
f 1 13 7
f 1 7 3
f 1 3 9
f 1 9 10
f 1 10 4
f 1 4 2
f 2 4 6
f 2 6 5
f 3 7 8
f 3 8 9
f 4 10 33
f 4 33 60
f 4 60 59
f 4 59 58
f 4 58 57
f 4 57 56
f 4 56 55
f 4 55 54
f 4 54 53
f 4 53 52
f 4 52 51
f 4 51 50
f 4 50 49
f 4 49 61
f 4 61 35
f 4 35 12
f 4 12 6
f 5 6 11
f 6 12 11
f 7 13 8
f 8 13 14
f 8 14 15
f 8 15 16
f 8 16 17
f 8 17 18
f 8 18 19
f 8 19 20
f 8 20 21
f 8 21 22
f 8 22 23
f 8 23 24
f 8 24 25
f 8 25 26
f 8 26 27
f 8 27 28
f 8 28 29
f 8 29 30
f 8 30 31
f 8 31 32
f 8 32 9
f 9 32 10
f 10 32 33
f 11 12 34
f 12 35 36
f 12 36 37
f 12 37 34
f 25 38 37
f 25 37 39
f 25 39 40
f 25 40 41
f 25 41 42
f 25 42 43
f 25 43 44
f 25 44 26
f 26 44 43
f 26 43 42
f 26 42 63
f 26 63 67
f 26 67 66
f 26 66 65
f 26 65 64
f 26 64 47
f 26 47 46
f 26 46 45
f 26 45 31
f 26 31 30
f 26 30 29
f 26 29 28
f 26 28 27
f 31 45 32
f 32 45 46
f 32 46 47
f 32 47 48
f 32 48 49
f 32 49 50
f 32 50 51
f 32 51 52
f 32 52 53
f 32 53 54
f 32 54 55
f 32 55 56
f 32 56 57
f 32 57 58
f 32 58 59
f 32 59 60
f 32 60 33
f 34 37 38
f 35 61 48
f 35 48 62
f 35 62 36
f 36 62 63
f 36 63 42
f 36 42 39
f 36 39 37
f 39 42 40
f 40 42 41
f 47 64 48
f 48 64 65
f 48 65 66
f 48 66 67
f 48 67 63
f 48 63 68
f 48 68 62
f 48 61 49
f 62 68 63

