# https://github.com/mikedh/trimesh
v 0.16927757 -0.40942262 -0.25354318
v 0.16927757 -0.41082031 -0.24417838
v 0.17980123 -0.41188519 -0.24474820
v 0.18430822 -0.41172545 -0.25393959
v 0.19157194 -0.41352247 -0.26126049
v 0.18380505 -0.41295010 -0.26155776
v 0.15479387 -0.41211150 -0.26221428
v 0.14615181 -0.41215143 -0.26222669
v 0.09681538 -0.41098003 -0.24959166
v -0.00054477 -0.41105990 -0.18104037
v 0.00551560 -0.41105990 -0.18104037
v 0.00551560 -0.41133945 -0.16995371
v -0.00842110 -0.41184526 -0.15482884
v 0.19732605 -0.43983879 -0.23779895
v 0.19157194 -0.41352247 -0.25904315
v 0.00580004 -0.44124979 -0.13747422
v 0.19732605 -0.43624475 -0.25273802
v 0.19732605 -0.44668076 -0.25450941
v 0.19183450 -0.42166895 -0.26149583
v 0.18380505 -0.42166895 -0.26247443
v 0.15479387 -0.42166895 -0.26382463
v 0.11738132 -0.41352247 -0.26121092
v 0.08521968 -0.41149917 -0.24836532
v 0.03990889 -0.41232447 -0.22316956
v 0.04548797 -0.41345591 -0.23231138
v 0.00041788 -0.41203163 -0.18504146
v -0.01500660 -0.41184526 -0.16185242
v -0.01500660 -0.41184526 -0.15482884
v -0.00726154 -0.43470065 -0.13747422
v -0.00588319 -0.43524642 -0.13747422
v 0.19732605 -0.43991866 -0.23778655
v 0.00612821 -0.45111339 -0.13747422
v 0.19728231 -0.49955297 -0.23018074
v 0.19732605 -0.45007512 -0.25450941
v 0.19185637 -0.49413530 -0.26149583
v 0.18380505 -0.43519317 -0.26261070
v 0.15479387 -0.43616490 -0.26401048
v 0.11679059 -0.42166895 -0.26140913
v 0.08303177 -0.42166895 -0.24940585
v 0.04520353 -0.42165566 -0.23257148
v 0.00078979 -0.42166895 -0.18946369
v 0.00138053 -0.41301666 -0.18906731
v -0.01680068 -0.42166895 -0.16342560
v -0.02563966 -0.44601519 -0.13747422
v -0.02045441 -0.43635124 -0.13747422
v -0.01962302 -0.43563244 -0.13747422
v -0.01850720 -0.43540614 -0.13747422
v 0.19728231 -0.50335998 -0.23018074
v 0.19732605 -0.45043452 -0.23797235
v 0.00582191 -0.45213836 -0.13747422
v 0.19732605 -0.45445452 -0.25279996
v 0.19728231 -0.50903057 -0.25235401
v 0.19183450 -0.52312716 -0.26149583
v 0.19185637 -0.50863123 -0.26149583
v 0.18452700 -0.46647457 -0.26251160
v 0.18378313 -0.51551314 -0.26261070
v 0.15479387 -0.46647457 -0.26401048
v 0.11679059 -0.51330347 -0.26142153
v 0.09681538 -0.45066083 -0.25445984
v 0.09681538 -0.43616490 -0.25441031
v 0.09440869 -0.43364906 -0.25354318
v 0.08287864 -0.43364906 -0.24940585
v 0.04520353 -0.52314047 -0.23257148
v 0.08285677 -0.43616490 -0.24940585
v 0.08283490 -0.49413530 -0.24940585
v 0.00078979 -0.52312716 -0.18946369
v -0.01710694 -0.45068745 -0.16406976
v -0.01704133 -0.43616490 -0.16372292
v -0.02157023 -0.45068745 -0.15205408
v -0.02618661 -0.45068745 -0.13747422
v 0.17977932 -0.53521376 -0.24485971
v 0.19728231 -0.50393237 -0.23065146
v 0.19732605 -0.45072736 -0.23807146
v 0.00284639 -0.50192238 -0.14458453
v -0.00608010 -0.52332684 -0.14906876
v -0.00577380 -0.53662474 -0.15533672
v -0.01137474 -0.54517055 -0.15816101
v -0.00537998 -0.46262762 -0.13747422
v -0.01181231 -0.51862797 -0.14475795
v 0.19732605 -0.45111339 -0.23840590
v 0.19728231 -0.50881760 -0.24018969
v 0.19728231 -0.50924356 -0.25157362
v 0.19157194 -0.53279113 -0.26126049
v 0.18378313 -0.52312716 -0.26259830
v 0.15481578 -0.52312716 -0.26397331
v 0.15481578 -0.50863123 -0.26398567
v 0.11679059 -0.52312716 -0.26142153
v 0.09681538 -0.46421165 -0.25445984
v 0.04548797 -0.53296416 -0.23231138
v 0.08283490 -0.50863123 -0.24940585
v 0.08287864 -0.51330347 -0.24940585
v 0.08303177 -0.52312716 -0.24940585
v 0.00138053 -0.53404236 -0.18906731
v -0.01697568 -0.52312716 -0.16362381
v -0.01710694 -0.46514344 -0.16406976
v -0.01704133 -0.50864454 -0.16368575
v -0.01498473 -0.53764971 -0.15487837
v -0.01605677 -0.52332684 -0.15065430
v -0.01207487 -0.51862797 -0.14475795
v -0.01802585 -0.46358602 -0.13747422
v 0.16927757 -0.54048502 -0.25353082
v 0.18428635 -0.53661143 -0.25389002
v 0.19157194 -0.53279113 -0.25896882
v -0.01268748 -0.54517055 -0.15816101
v 0.00354652 -0.54541016 -0.17281516
v 0.14862410 -0.54505076 -0.26012086
v -0.01791646 -0.46362595 -0.13747422
v 0.18378313 -0.53456150 -0.26168163
v 0.14862410 -0.54505076 -0.26100035
v 0.15400626 -0.53766302 -0.26217716
v 0.14637059 -0.53762309 -0.26201612
v 0.11738132 -0.53279113 -0.26119856
v 0.09681538 -0.50863123 -0.25444748
v 0.03008536 -0.54535692 -0.20467531
v 0.08508837 -0.53763640 -0.24831575
v 0.08795450 -0.54533029 -0.24691601
v 0.00155557 -0.54541016 -0.17713834
v -0.01268748 -0.54517055 -0.15989523
v -0.01498473 -0.53764971 -0.16188959
v 0.09099562 -0.54533029 -0.24375724
v 0.00354652 -0.54541016 -0.17713834
v 0.09099562 -0.54533029 -0.24691601
v 0.14735515 -0.54505076 -0.26100035
f 1 2 3
f 1 3 4
f 1 4 5
f 1 5 6
f 1 6 7
f 1 7 8
f 1 8 9
f 1 9 10
f 1 10 11
f 1 11 12
f 1 12 13
f 1 13 2
f 2 13 3
f 3 14 15
f 3 15 4
f 3 13 16
f 3 16 14
f 4 15 5
f 5 15 17
f 5 17 18
f 5 18 19
f 5 19 20
f 5 20 21
f 5 21 6
f 6 21 7
f 7 21 8
f 8 22 9
f 8 21 22
f 9 22 23
f 9 23 10
f 10 24 25
f 10 25 26
f 10 26 27
f 10 27 28
f 10 28 12
f 10 12 11
f 10 23 24
f 12 28 13
f 13 28 29
f 13 29 30
f 13 30 16
f 14 31 49
f 14 49 73
f 14 73 80
f 14 80 51
f 14 51 34
f 14 34 18
f 14 18 17
f 14 17 15
f 14 16 31
f 16 30 29
f 16 29 47
f 16 47 46
f 16 46 45
f 16 45 44
f 16 44 70
f 16 70 100
f 16 100 107
f 16 107 78
f 16 78 50
f 16 50 32
f 16 32 33
f 16 33 31
f 18 34 54
f 18 54 35
f 18 35 19
f 19 35 36
f 19 36 20
f 20 36 37
f 20 37 21
f 21 37 38
f 21 38 22
f 22 38 39
f 22 39 23
f 23 39 25
f 23 25 24
f 25 40 41
f 25 41 42
f 25 42 26
f 25 39 40
f 26 42 27
f 27 43 44
f 27 44 28
f 27 42 43
f 28 44 45
f 28 45 46
f 28 46 47
f 28 47 29
f 31 33 48
f 31 48 49
f 32 50 48
f 32 48 33
f 34 51 52
f 34 52 53
f 34 53 54
f 35 54 55
f 35 55 36
f 36 55 56
f 36 56 57
f 36 57 37
f 37 57 87
f 37 87 58
f 37 58 38
f 38 58 59
f 38 59 60
f 38 60 61
f 38 61 39
f 39 61 62
f 39 62 40
f 40 63 66
f 40 66 41
f 40 62 64
f 40 64 65
f 40 65 90
f 40 90 63
f 41 66 95
f 41 95 67
f 41 67 68
f 41 68 43
f 41 43 42
f 43 68 69
f 43 69 70
f 43 70 44
f 48 71 72
f 48 72 73
f 48 73 49
f 48 50 74
f 48 74 75
f 48 75 76
f 48 76 77
f 48 77 71
f 50 78 79
f 50 79 74
f 51 80 81
f 51 81 82
f 51 82 52
f 52 82 83
f 52 83 53
f 53 83 84
f 53 84 56
f 53 56 54
f 54 56 55
f 56 84 85
f 56 85 86
f 56 86 57
f 57 86 87
f 58 87 88
f 58 88 59
f 59 88 90
f 59 90 65
f 59 65 64
f 59 64 61
f 59 61 60
f 61 64 62
f 63 89 66
f 63 90 91
f 63 91 92
f 63 92 89
f 66 93 94
f 66 94 95
f 66 89 93
f 67 95 69
f 67 69 68
f 69 95 96
f 69 96 94
f 69 94 70
f 70 94 97
f 70 97 98
f 70 98 99
f 70 99 100
f 71 101 102
f 71 102 103
f 71 103 72
f 71 77 101
f 72 80 73
f 72 103 81
f 72 81 80
f 74 79 75
f 75 79 76
f 76 79 77
f 77 79 99
f 77 99 104
f 77 104 105
f 77 105 106
f 77 106 101
f 78 107 79
f 79 107 99
f 81 103 82
f 82 103 83
f 83 108 84
f 83 103 102
f 83 102 109
f 83 109 108
f 84 108 85
f 85 108 110
f 85 110 111
f 85 111 112
f 85 112 87
f 85 87 86
f 87 112 92
f 87 92 113
f 87 113 88
f 88 113 90
f 89 114 93
f 89 92 115
f 89 115 116
f 89 116 114
f 90 113 91
f 91 113 92
f 92 112 115
f 93 114 117
f 93 117 118
f 93 118 119
f 93 119 94
f 94 96 95
f 94 119 97
f 97 104 99
f 97 99 98
f 97 119 118
f 97 118 104
f 99 107 100
f 101 106 109
f 101 109 102
f 104 118 117
f 104 117 105
f 105 120 106
f 105 117 121
f 105 121 122
f 105 122 120
f 106 120 122
f 106 122 109
f 108 109 110
f 109 122 116
f 109 116 123
f 109 123 110
f 110 123 111
f 111 123 112
f 112 123 116
f 112 116 115
f 114 116 117
f 116 122 121
f 116 121 117

