# https://github.com/mikedh/trimesh
v 0.00656482 -0.40924963 0.05950145
v 0.00672318 -0.36364263 0.09182928
v 0.05698241 -0.36364263 0.09182928
v 0.01930777 -0.40924963 0.05958383
v 0.00980990 -0.42037629 0.06699658
v 0.00213256 -0.42037629 0.07173250
v 0.00142020 -0.40924963 0.06777904
v 0.00070784 -0.36364263 0.10006568
v 0.03133828 -0.35607124 0.13601751
v 0.27092057 -0.33527580 0.22484698
v 0.34334139 -0.33520055 0.22484698
v 0.09687321 -0.36364263 0.09508266
v 0.02508557 -0.40924963 0.06073691
v 0.02405666 -0.42037629 0.06777904
v 0.02231540 -0.42037629 0.06753195
v 0.04012379 -0.42564333 0.09537093
v 0.02603538 -0.42564333 0.09537093
v 0.00213256 -0.42037629 0.07395632
v -0.00000443 -0.40169707 0.10908453
v 0.00110366 -0.40924963 0.07766270
v -0.00285378 -0.36364263 0.10908453
v -0.00087506 -0.36364263 0.11847401
v 0.00126193 -0.39772796 0.13161105
v 0.07344530 -0.35607124 0.16089141
v 0.12196326 -0.34683509 0.18065875
v 0.25659471 -0.33572726 0.22484698
v 0.45889810 -0.32955729 0.34456290
v 0.46063936 -0.32955729 0.33154940
v 0.46230147 -0.32955729 0.32796657
v 0.47369884 -0.32955729 0.32335419
v 0.48549196 -0.32955729 0.32681347
v 0.48675834 -0.32955729 0.32722530
v 0.63326207 -0.33251060 0.35551730
v 0.35790470 -0.33623516 0.22484698
v 0.30922843 -0.34683509 0.18065875
v 0.31437309 -0.34683509 0.18234721
v 0.09663576 -0.37842799 0.09182928
v 0.09908939 -0.39218816 0.09182928
v 0.80018608 -0.38559494 0.40625345
v 0.69855951 -0.39989121 0.36272414
v 0.09544854 -0.42564333 0.11221435
v 0.08729625 -0.42564333 0.10826088
v 0.08230990 -0.42564333 0.10665479
v 0.78760149 -0.40028625 0.40571808
v 0.02888474 -0.42564333 0.10060104
v 0.00126193 -0.40065306 0.13161105
v 0.00015384 -0.40134906 0.12358057
v 0.03023028 -0.42564333 0.10290723
v 0.59867419 -0.36364263 0.42523834
v 0.59875335 -0.34913943 0.42523834
v 0.60231502 -0.33937657 0.42523834
v 0.24187313 -0.33782467 0.22484698
v 0.47749796 -0.32955729 0.34456290
v 0.60413545 -0.33829496 0.42523834
v 0.61885705 -0.33362045 0.42523834
v 0.63334120 -0.33342293 0.42523834
v 0.80572647 -0.33376152 0.44253474
v 0.48572941 -0.32955729 0.33661478
v 0.64782538 -0.33225665 0.36997216
v 0.79282529 -0.33419418 0.42807987
v 0.67679370 -0.33345114 0.36997216
v 0.64782538 -0.33401547 0.35551730
v 0.37151824 -0.33876522 0.22484698
v 0.69127785 -0.33513472 0.36997216
v 0.69127785 -0.33926371 0.36045914
v 0.33020276 -0.34683509 0.18963641
v 0.69974673 -0.34101312 0.36210641
v 0.80018608 -0.38519990 0.40625345
v 0.80572647 -0.37974475 0.41012455
v 0.80572647 -0.39102187 0.41078347
v 0.80572647 -0.39142631 0.41090702
v 0.79733673 -0.39525433 0.40806547
v 0.79258784 -0.39130404 0.40448262
v 0.10439228 -0.42564333 0.12197447
v 0.80572647 -0.40124561 0.41708430
v 0.80572647 -0.40245890 0.42630906
v 0.80572647 -0.40262819 0.42807987
v 0.80572647 -0.40022982 0.41597239
v 0.05824881 -0.42564333 0.11900937
v 0.60706394 -0.40148073 0.42523834
v 0.60057376 -0.39225400 0.42523834
v 0.60001973 -0.39010015 0.42523834
v 0.59875335 -0.38131547 0.42523834
v 0.59867419 -0.37811760 0.42523834
v 0.80572647 -0.37811760 0.48021625
v 0.80572647 -0.36980320 0.48013387
v 0.80572647 -0.35683308 0.47943378
v 0.80572647 -0.34913943 0.47848661
v 0.80572647 -0.34637422 0.47782767
v 0.80572647 -0.33843603 0.47148567
v 0.80572647 -0.33458920 0.45703080
v 0.80572647 -0.33497482 0.42807987
v 0.80572647 -0.33906619 0.41700195
v 0.78744318 -0.34105075 0.40555336
v 0.80572647 -0.34913943 0.41259547
v 0.10747908 -0.42564333 0.12720458
v 0.80572647 -0.40285393 0.44084629
v 0.08713797 -0.42564333 0.13280532
v 0.61584940 -0.40283513 0.42523834
v 0.80572647 -0.40111392 0.47029140
v 0.80572647 -0.39261139 0.47716877
v 0.10652931 -0.42564333 0.13165223
v 0.73488864 -0.40537459 0.42807987
v 0.80572647 -0.40297620 0.45534235
v 0.09687321 -0.42564333 0.13371133
v 0.72032533 -0.40573200 0.42807987
v 0.61885705 -0.40314550 0.42523834
v 0.80572647 -0.40137728 0.46860291
v 0.80572647 -0.40292918 0.45703080
f 1 2 3
f 1 3 4
f 1 4 5
f 1 5 6
f 1 6 7
f 1 7 8
f 1 8 2
f 2 8 9
f 2 9 10
f 2 10 11
f 2 11 3
f 3 11 12
f 3 12 4
f 4 12 13
f 4 13 14
f 4 14 15
f 4 15 5
f 5 15 16
f 5 16 17
f 5 17 6
f 6 17 18
f 6 18 19
f 6 19 20
f 6 20 7
f 7 20 21
f 7 21 8
f 8 21 9
f 9 21 22
f 9 22 23
f 9 23 24
f 9 24 25
f 9 25 26
f 9 26 10
f 10 26 27
f 10 27 28
f 10 28 29
f 10 29 30
f 10 30 11
f 11 30 31
f 11 31 32
f 11 32 33
f 11 33 34
f 11 34 35
f 11 35 12
f 12 35 36
f 12 36 37
f 12 37 13
f 13 37 38
f 13 38 36
f 13 36 39
f 13 39 40
f 13 40 14
f 14 41 42
f 14 42 43
f 14 43 16
f 14 16 15
f 14 40 44
f 14 44 41
f 16 43 42
f 16 42 41
f 16 41 74
f 16 74 96
f 16 96 102
f 16 102 105
f 16 105 98
f 16 98 79
f 16 79 48
f 16 48 45
f 16 45 17
f 17 45 18
f 18 46 47
f 18 47 19
f 18 45 48
f 18 48 46
f 19 21 20
f 19 47 21
f 21 47 46
f 21 46 23
f 21 23 22
f 23 46 84
f 23 84 49
f 23 49 50
f 23 50 24
f 24 50 51
f 24 51 25
f 25 27 52
f 25 52 26
f 25 51 27
f 26 52 27
f 27 53 58
f 27 58 32
f 27 32 31
f 27 31 30
f 27 30 29
f 27 29 28
f 27 51 54
f 27 54 55
f 27 55 56
f 27 56 57
f 27 57 53
f 32 58 57
f 32 57 59
f 32 59 33
f 33 59 57
f 33 57 60
f 33 60 61
f 33 61 62
f 33 62 34
f 34 63 36
f 34 36 35
f 34 62 64
f 34 64 65
f 34 65 63
f 36 66 39
f 36 38 37
f 36 63 65
f 36 65 67
f 36 67 66
f 39 68 69
f 39 69 70
f 39 70 71
f 39 71 72
f 39 72 73
f 39 73 40
f 39 66 68
f 40 73 72
f 40 72 44
f 41 44 75
f 41 75 76
f 41 76 77
f 41 77 74
f 44 72 78
f 44 78 75
f 46 48 79
f 46 79 80
f 46 80 81
f 46 81 82
f 46 82 83
f 46 83 84
f 49 84 85
f 49 85 50
f 50 85 86
f 50 86 87
f 50 87 51
f 51 87 88
f 51 88 89
f 51 89 54
f 53 57 58
f 54 89 55
f 55 89 90
f 55 90 91
f 55 91 56
f 56 91 57
f 57 91 90
f 57 90 89
f 57 89 88
f 57 88 87
f 57 87 86
f 57 86 85
f 57 85 101
f 57 101 100
f 57 100 108
f 57 108 109
f 57 109 104
f 57 104 97
f 57 97 77
f 57 77 76
f 57 76 75
f 57 75 78
f 57 78 71
f 57 71 70
f 57 70 69
f 57 69 95
f 57 95 93
f 57 93 92
f 57 92 60
f 60 92 61
f 61 64 62
f 61 92 64
f 64 92 93
f 64 93 65
f 65 93 67
f 66 67 68
f 67 93 94
f 67 94 95
f 67 95 68
f 68 95 69
f 71 78 72
f 74 77 96
f 77 97 96
f 79 98 80
f 80 99 100
f 80 100 101
f 80 101 85
f 80 85 81
f 80 98 99
f 81 85 82
f 82 85 83
f 83 85 84
f 93 95 94
f 96 97 103
f 96 103 102
f 97 104 103
f 98 105 106
f 98 106 107
f 98 107 99
f 99 107 100
f 100 107 106
f 100 106 108
f 102 103 106
f 102 106 105
f 103 104 106
f 104 109 106
f 106 109 108

