# https://github.com/mikedh/trimesh
v 1.07845431 -0.03006808 0.26574286
v 1.07805387 -0.01558570 0.26528759
v 1.07322208 -0.01558570 0.27254503
v 1.07330217 -0.03006808 0.27300030
v 1.06561398 -0.04641516 0.28057910
v 1.07751997 -0.03991741 0.26421639
v 1.07845431 -0.03006808 0.25805693
v 1.07701277 -0.00701785 0.26362722
v 1.07805387 -0.01558570 0.25848541
v 1.06427925 -0.00439739 0.27886517
v 1.06598771 -0.01558570 0.28039165
v 1.06604113 -0.03006808 0.28041843
v 1.05752540 -0.04641516 0.28896132
v 1.03929269 -0.05881924 0.30577930
v 1.03929269 -0.07346590 0.29659368
v 1.07751997 -0.03991741 0.25912814
v 1.06622797 -0.04643160 0.23020549
v 1.06534705 -0.03006808 0.22889326
v 1.06513350 -0.01558570 0.22908072
v 1.07701277 -0.00701785 0.25971731
v 1.06201017 0.00665128 0.23411541
v 1.04775502 0.00665128 0.29115730
v 1.06369192 -0.00107868 0.23031261
v 1.04959695 -0.00107868 0.29273733
v 1.05816610 -0.01558570 0.28762231
v 1.03931938 -0.01558570 0.30438673
v 0.84335121 -0.01558570 0.47845821
v 0.84335121 -0.03007629 0.47845821
v 0.84324442 -0.04455866 0.47832431
v 0.85832711 -0.05191074 0.46437182
v 0.83366091 -0.05511445 0.48239490
v 0.83769186 -0.05757062 0.47275402
v 0.82196849 -0.06028966 0.47154892
v 1.02856129 -0.07346590 0.28357849
v 1.03929269 -0.07346590 0.23746293
v 1.06881739 -0.04643160 0.23960535
v 1.06550718 -0.04643160 0.22883970
v 1.04916985 -0.04456688 0.21419091
v 1.06201017 0.00665128 0.23167840
v 1.02493077 0.00789168 0.26858156
v 1.02493077 0.00785881 0.28306967
v 1.02493077 0.00762881 0.29755777
v 1.03931938 0.00693878 0.29605808
v 0.83646389 0.01045463 0.45700724
v 0.83734483 0.00885277 0.47243267
v 0.83312701 0.00774380 0.48153795
v 1.03272571 0.00643768 0.30529726
v 1.04831564 -0.03006808 0.21603875
v 1.04722112 -0.02174667 0.21735098
v 1.01766973 0.00615839 0.31927653
v 0.84281731 -0.00108690 0.47792262
v 0.85848729 -0.00745323 0.46453249
v 0.83555626 -0.00108690 0.48330543
v 0.83609016 -0.01558570 0.48362682
v 0.83601007 -0.04455866 0.48389461
v 0.82196849 -0.04455866 0.48606380
v 0.82196849 -0.05590305 0.48293053
v 0.80576460 -0.05628914 0.47267369
v 0.80576460 -0.05645343 0.47213808
v 0.80576460 -0.05978857 0.45700724
v 0.82196849 -0.06056896 0.45700724
v 1.01665530 -0.07346590 0.26306484
v 1.02081972 -0.07346590 0.27040262
v 1.02824096 -0.07346590 0.28306967
v 1.03833166 -0.07346590 0.23831991
v 0.80576460 -0.05452300 0.41306089
v 1.03083036 -0.05294579 0.21662792
v 1.03929269 -0.05375903 0.21480686
v 1.04900967 -0.04643160 0.21432482
v 1.03945287 -0.04456688 0.21247698
v 1.06024829 0.00665128 0.23167840
v 1.03259225 -0.00821719 0.21767234
v 1.01040867 0.00785881 0.26858156
v 0.83646389 0.01020819 0.42800428
v 0.85095929 0.01033141 0.44254593
v 0.82196849 0.01033962 0.45700724
v 0.82196849 0.00976462 0.47154892
v 0.82196849 0.00771917 0.48124336
v 0.82196849 -0.00108690 0.48432310
v 1.03945287 -0.03006808 0.21456584
v 1.03931938 -0.01702327 0.21697606
v 1.03931938 -0.02980521 0.21459262
v 0.82196849 -0.01558570 0.48491226
v 0.81011590 -0.04455866 0.48094879
v 0.81038285 -0.05396439 0.48070775
v 0.80576460 -0.04455866 0.47877960
v 0.80576460 -0.05981320 0.45532009
v 1.01665530 -0.07346590 0.26014579
v 1.03085707 -0.07346590 0.24552379
v 0.80576460 -0.05477765 0.41354295
v 0.80576460 -0.05466264 0.41330193
v 0.80576460 -0.04613587 0.40979372
v 1.03026977 -0.04454224 0.21611910
v 1.04134822 -0.04643160 0.21301258
v 1.03048335 -0.03007629 0.21636012
v 1.03125749 -0.01559392 0.21705640
v 1.03200494 -0.00821719 0.21767234
v 0.99591328 0.00660198 0.25851220
v 1.01040867 0.00700449 0.25703929
v 0.99591328 0.00743166 0.26858156
v 0.80576460 0.00991248 0.44254593
v 0.80747309 0.01007676 0.45700724
v 0.80576460 0.00986318 0.45700724
v 0.80846081 0.00799025 0.47104011
v 0.81395998 0.00665949 0.47931519
v 0.81321252 -0.00108690 0.47979722
v 0.80576460 -0.00133334 0.47444117
v 0.80576460 -0.05974749 0.44254593
v 1.02354264 -0.07346590 0.25294191
v 0.80576460 -0.05973106 0.44083198
v 0.80576460 -0.05932855 0.42800428
v 0.80576460 -0.05906567 0.42631712
v 0.80576460 -0.01558570 0.41394466
v 1.00829977 -0.01560213 0.23676665
v 1.01556081 -0.01559392 0.23050007
v 0.80576460 -0.00108690 0.41627452
v 1.00149253 -0.00418382 0.24533632
v 0.98859884 0.00619124 0.26127056
v 0.80576460 0.00909922 0.42800428
v 0.80576460 0.00780952 0.46970110
v 0.80576460 -0.00108690 0.47438762
v 0.80576460 0.00734129 0.41932747
f 1 2 3
f 1 3 4
f 1 4 5
f 1 5 6
f 1 6 16
f 1 16 7
f 1 7 9
f 1 9 2
f 2 8 3
f 2 9 20
f 2 20 8
f 3 10 11
f 3 11 4
f 3 8 10
f 4 11 12
f 4 12 13
f 4 13 5
f 5 13 14
f 5 14 15
f 5 15 6
f 6 15 35
f 6 35 16
f 7 16 17
f 7 17 18
f 7 18 19
f 7 19 9
f 8 20 39
f 8 39 21
f 8 21 22
f 8 22 10
f 9 19 23
f 9 23 20
f 10 22 24
f 10 24 11
f 11 24 25
f 11 25 13
f 11 13 12
f 13 25 14
f 14 25 26
f 14 26 27
f 14 27 28
f 14 28 29
f 14 29 30
f 14 30 15
f 15 30 31
f 15 31 32
f 15 32 33
f 15 33 34
f 15 34 64
f 15 64 63
f 15 63 62
f 15 62 88
f 15 88 109
f 15 109 89
f 15 89 65
f 15 65 35
f 16 35 36
f 16 36 17
f 17 37 18
f 17 36 35
f 17 35 37
f 18 37 38
f 18 38 19
f 19 38 23
f 20 23 39
f 21 39 40
f 21 40 41
f 21 41 22
f 22 42 43
f 22 43 44
f 22 44 45
f 22 45 46
f 22 46 47
f 22 47 24
f 22 41 42
f 23 38 48
f 23 48 49
f 23 49 39
f 24 47 50
f 24 50 51
f 24 51 25
f 25 51 26
f 26 51 52
f 26 52 27
f 27 51 53
f 27 53 54
f 27 54 55
f 27 55 28
f 27 52 51
f 28 55 29
f 29 55 31
f 29 31 30
f 31 55 56
f 31 56 57
f 31 57 33
f 31 33 32
f 33 57 58
f 33 58 59
f 33 59 60
f 33 60 61
f 33 61 62
f 33 62 63
f 33 63 64
f 33 64 34
f 35 65 66
f 35 66 67
f 35 67 68
f 35 68 69
f 35 69 37
f 37 69 38
f 38 69 70
f 38 70 48
f 39 71 40
f 39 49 72
f 39 72 97
f 39 97 71
f 40 73 74
f 40 74 75
f 40 75 41
f 40 71 73
f 41 75 42
f 42 75 44
f 42 44 43
f 44 75 74
f 44 74 76
f 44 76 77
f 44 77 45
f 45 77 46
f 46 77 78
f 46 78 79
f 46 79 53
f 46 53 51
f 46 51 50
f 46 50 47
f 48 70 80
f 48 80 49
f 49 81 72
f 49 80 82
f 49 82 81
f 53 79 83
f 53 83 56
f 53 56 54
f 54 56 55
f 56 83 84
f 56 84 85
f 56 85 57
f 57 85 58
f 58 85 86
f 58 86 107
f 58 107 121
f 58 121 120
f 58 120 103
f 58 103 101
f 58 101 119
f 58 119 122
f 58 122 116
f 58 116 113
f 58 113 92
f 58 92 66
f 58 66 91
f 58 91 90
f 58 90 112
f 58 112 111
f 58 111 110
f 58 110 108
f 58 108 87
f 58 87 60
f 58 60 59
f 60 87 62
f 60 62 61
f 62 87 88
f 65 89 90
f 65 90 91
f 65 91 66
f 66 92 67
f 67 93 70
f 67 70 68
f 67 92 93
f 68 70 94
f 68 94 69
f 69 94 70
f 70 93 95
f 70 95 96
f 70 96 97
f 70 97 72
f 70 72 82
f 70 82 80
f 71 97 98
f 71 98 99
f 71 99 100
f 71 100 73
f 72 81 82
f 73 100 74
f 74 101 76
f 74 100 101
f 76 101 102
f 76 102 77
f 77 102 103
f 77 103 104
f 77 104 78
f 78 104 105
f 78 105 79
f 79 105 106
f 79 106 86
f 79 86 84
f 79 84 83
f 84 86 85
f 86 106 107
f 87 108 88
f 88 108 110
f 88 110 111
f 88 111 112
f 88 112 109
f 89 109 112
f 89 112 90
f 92 113 114
f 92 114 95
f 92 95 93
f 95 114 115
f 95 115 96
f 96 115 97
f 97 115 114
f 97 114 116
f 97 116 117
f 97 117 118
f 97 118 98
f 98 118 119
f 98 119 100
f 98 100 99
f 100 119 101
f 101 103 102
f 103 120 104
f 104 120 105
f 105 107 106
f 105 120 121
f 105 121 107
f 113 116 114
f 116 122 117
f 117 122 118
f 118 122 119

