# https://github.com/mikedh/trimesh
v 0.70591653 -0.40967529 -0.21277413
v 0.71702713 -0.41138987 -0.21473504
v 0.72127586 -0.41080505 -0.22383537
v 0.70700691 -0.41033985 -0.22479958
v 0.66211331 -0.40988795 -0.18070623
v 0.67363750 -0.41019365 -0.18104205
v 0.66201931 -0.41088479 -0.16655736
v 0.67147555 -0.41200126 -0.17140004
v 0.78810866 -0.47962753 -0.18641561
v 0.83792777 -0.47976045 -0.23514582
v 0.72930331 -0.41190823 -0.22821222
v 0.72930331 -0.41190823 -0.23461495
v 0.69538872 -0.41115062 -0.22015191
v 0.72041107 -0.41217406 -0.23422497
v 0.66675683 -0.41116391 -0.19218999
v 0.65314587 -0.41254621 -0.17563604
v 0.65188630 -0.41185507 -0.16654651
v 0.65284508 -0.41282533 -0.15841034
v 0.65692460 -0.41282533 -0.15841034
v 0.80273480 -0.49838160 -0.18096624
v 0.83792777 -0.49686638 -0.23020564
v 0.83792777 -0.47976045 -0.26088681
v 0.83373543 -0.47976045 -0.26335690
v 0.82401601 -0.47976045 -0.26335690
v 0.78340874 -0.47999970 -0.26219769
v 0.71257161 -0.41391522 -0.23220986
v 0.70465695 -0.42166406 -0.22882976
v 0.69373435 -0.42166406 -0.22157114
v 0.66523406 -0.42165077 -0.19417256
v 0.72041107 -0.42166406 -0.23697673
v 0.65181110 -0.42165077 -0.17690356
v 0.64827675 -0.42165077 -0.16654651
v 0.66185012 -0.43466299 -0.15267931
v 0.64750597 -0.43641743 -0.15267931
v 0.66203811 -0.43471615 -0.15267931
v 0.67284792 -0.44051117 -0.15267931
v 0.80273480 -0.50441585 -0.18096624
v 0.67412630 -0.45122397 -0.15267931
v 0.67431429 -0.50538613 -0.15267931
v 0.83792777 -0.50339243 -0.23020564
v 0.83792777 -0.48741625 -0.26133099
v 0.83792777 -0.49415497 -0.26148265
v 0.83431824 -0.49415497 -0.26335690
v 0.82395961 -0.49415497 -0.26335690
v 0.78344634 -0.51386601 -0.26220853
v 0.78327715 -0.49415497 -0.26219769
v 0.76393229 -0.49415497 -0.25517743
v 0.72039227 -0.45066573 -0.23813594
v 0.72039227 -0.43616490 -0.23774592
v 0.72039227 -0.43165914 -0.23750756
v 0.71187602 -0.42166406 -0.23271904
v 0.71148123 -0.43616490 -0.23303325
v 0.70437496 -0.43165914 -0.22882976
v 0.70099102 -0.43165914 -0.22658718
v 0.69365915 -0.46515328 -0.22165779
v 0.68640247 -0.47962753 -0.21632759
v 0.67745384 -0.47962753 -0.20907982
v 0.67019717 -0.47962753 -0.20147453
v 0.65147270 -0.43615161 -0.17722858
v 0.64587040 -0.45067902 -0.16654651
v 0.64682918 -0.43615161 -0.16654651
v 0.64720518 -0.43764023 -0.15267931
v 0.64724278 -0.43733453 -0.15267931
v 0.67414510 -0.50619690 -0.15267931
v 0.67352471 -0.50667540 -0.15267931
v 0.65696220 -0.53454730 -0.15838869
v 0.79290257 -0.50896150 -0.18096624
v 0.83792777 -0.51853125 -0.23888344
v 0.83792777 -0.50864251 -0.26100597
v 0.83350984 -0.51853125 -0.26335690
v 0.83397984 -0.50864251 -0.26335690
v 0.82395961 -0.50864251 -0.26335690
v 0.82399721 -0.51853125 -0.26335690
v 0.78354034 -0.52314335 -0.26220853
v 0.75312248 -0.52314335 -0.25088728
v 0.75300968 -0.51386601 -0.25088728
v 0.72039227 -0.50864251 -0.23787593
v 0.71150003 -0.51506222 -0.23301155
v 0.71148123 -0.50864251 -0.23302240
v 0.70426216 -0.47962753 -0.22890556
v 0.70426216 -0.46665521 -0.22890556
v 0.70426216 -0.43616490 -0.22882976
v 0.69365915 -0.47962753 -0.22165779
v 0.70277698 -0.47762054 -0.22790886
v 0.69373435 -0.52314335 -0.22158194
v 0.66532806 -0.52313006 -0.19410756
v 0.65152910 -0.52313006 -0.17716358
v 0.65147270 -0.50862922 -0.17721777
v 0.65147270 -0.49414168 -0.17722858
v 0.64630279 -0.50862922 -0.16654651
v 0.64686678 -0.50848301 -0.15267931
v 0.64650959 -0.45069231 -0.15267931
v 0.66239531 -0.51362676 -0.15267931
v 0.65282628 -0.53454730 -0.15838869
v 0.67093035 -0.54545948 -0.18696814
v 0.78645429 -0.54528668 -0.24578454
v 0.83792777 -0.51853125 -0.26005261
v 0.78645429 -0.54528668 -0.25037806
v 0.78855984 -0.53489287 -0.26173186
v 0.78423593 -0.53489287 -0.26173186
v 0.75432566 -0.53764418 -0.24938135
v 0.72041107 -0.52314335 -0.23737755
v 0.72039227 -0.51506222 -0.23765927
v 0.71155643 -0.52314335 -0.23298990
v 0.70429976 -0.52314335 -0.22882976
v 0.69736268 -0.52314335 -0.22407373
v 0.69533232 -0.53764418 -0.22015191
v 0.66675683 -0.53760431 -0.19233085
v 0.65276988 -0.53469352 -0.17600436
v 0.64741198 -0.52313006 -0.16654651
v 0.64690439 -0.50901466 -0.15267931
v 0.66158692 -0.51362676 -0.15267931
v 0.64733677 -0.51011784 -0.15267931
v 0.65160430 -0.53670050 -0.16654651
v 0.66867440 -0.54545948 -0.18696814
v 0.70018263 -0.54544619 -0.21602427
v 0.75857439 -0.54539303 -0.24534036
v 0.67093035 -0.54545948 -0.18979575
v 0.78402913 -0.54528668 -0.25037806
v 0.75857439 -0.54539303 -0.24735548
v 0.75590483 -0.54539303 -0.24735548
v 0.71213922 -0.53218144 -0.23255657
v 0.69749428 -0.54544619 -0.21824515
v 0.66867440 -0.54545948 -0.18979575
v 0.70018263 -0.54544619 -0.21824515
v 0.72114425 -0.53727203 -0.23435493
f 1 2 3
f 1 3 4
f 1 4 5
f 1 5 6
f 1 6 7
f 1 7 2
f 2 7 8
f 2 8 9
f 2 9 10
f 2 10 11
f 2 11 3
f 3 11 12
f 3 12 4
f 4 13 5
f 4 12 14
f 4 14 13
f 5 15 16
f 5 16 17
f 5 17 7
f 5 7 6
f 5 13 15
f 7 17 18
f 7 18 19
f 7 19 8
f 8 19 9
f 9 20 10
f 9 19 20
f 10 20 21
f 10 21 40
f 10 40 68
f 10 68 97
f 10 97 69
f 10 69 42
f 10 42 41
f 10 41 22
f 10 22 12
f 10 12 11
f 12 22 23
f 12 23 24
f 12 24 25
f 12 25 14
f 13 14 26
f 13 26 27
f 13 27 28
f 13 28 29
f 13 29 15
f 14 25 30
f 14 30 26
f 15 29 16
f 16 29 31
f 16 31 32
f 16 32 17
f 17 32 18
f 18 33 19
f 18 32 34
f 18 34 33
f 19 33 35
f 19 35 36
f 19 36 20
f 20 37 40
f 20 40 21
f 20 36 38
f 20 38 39
f 20 39 37
f 22 41 23
f 23 41 42
f 23 42 43
f 23 43 71
f 23 71 70
f 23 70 73
f 23 73 72
f 23 72 44
f 23 44 24
f 24 44 45
f 24 45 25
f 25 45 46
f 25 46 47
f 25 47 48
f 25 48 49
f 25 49 50
f 25 50 30
f 26 51 27
f 26 30 51
f 27 51 52
f 27 52 53
f 27 53 54
f 27 54 28
f 28 54 55
f 28 55 56
f 28 56 57
f 28 57 29
f 29 57 58
f 29 58 59
f 29 59 31
f 30 50 51
f 31 59 60
f 31 60 61
f 31 61 32
f 32 61 62
f 32 62 63
f 32 63 34
f 33 34 63
f 33 63 62
f 33 62 92
f 33 92 91
f 33 91 111
f 33 111 113
f 33 113 112
f 33 112 93
f 33 93 65
f 33 65 64
f 33 64 39
f 33 39 38
f 33 38 36
f 33 36 35
f 37 39 64
f 37 64 65
f 37 65 66
f 37 66 67
f 37 67 68
f 37 68 40
f 42 69 70
f 42 70 71
f 42 71 43
f 44 72 45
f 45 72 73
f 45 73 74
f 45 74 47
f 45 47 46
f 47 74 75
f 47 75 76
f 47 76 48
f 48 76 77
f 48 77 78
f 48 78 79
f 48 79 80
f 48 80 81
f 48 81 52
f 48 52 49
f 49 52 51
f 49 51 50
f 52 81 82
f 52 82 53
f 53 82 54
f 54 82 81
f 54 81 55
f 55 83 56
f 55 81 84
f 55 84 83
f 56 85 57
f 56 83 85
f 57 85 86
f 57 86 58
f 58 86 87
f 58 87 88
f 58 88 89
f 58 89 59
f 59 89 60
f 60 90 91
f 60 91 92
f 60 92 62
f 60 62 61
f 60 89 88
f 60 88 87
f 60 87 90
f 65 93 66
f 66 93 112
f 66 112 94
f 66 94 115
f 66 115 95
f 66 95 96
f 66 96 67
f 67 96 68
f 68 96 98
f 68 98 97
f 69 97 70
f 70 97 98
f 70 98 99
f 70 99 100
f 70 100 73
f 73 100 74
f 74 100 75
f 75 101 102
f 75 102 103
f 75 103 77
f 75 77 76
f 75 100 101
f 77 103 104
f 77 104 78
f 78 105 79
f 78 104 105
f 79 105 80
f 80 105 84
f 80 84 81
f 83 84 105
f 83 105 106
f 83 106 85
f 85 106 107
f 85 107 86
f 86 107 108
f 86 108 109
f 86 109 87
f 87 109 110
f 87 110 90
f 90 110 111
f 90 111 91
f 94 113 111
f 94 111 110
f 94 110 114
f 94 114 115
f 94 112 113
f 95 116 117
f 95 117 96
f 95 115 124
f 95 124 118
f 95 118 125
f 95 125 116
f 96 117 120
f 96 120 98
f 98 119 100
f 98 100 99
f 98 120 121
f 98 121 119
f 100 119 121
f 100 121 101
f 101 121 122
f 101 122 102
f 102 122 104
f 102 104 103
f 104 122 105
f 105 122 107
f 105 107 106
f 107 122 123
f 107 123 108
f 108 124 109
f 108 123 124
f 109 114 110
f 109 124 114
f 114 124 115
f 116 125 120
f 116 120 117
f 118 124 123
f 118 123 125
f 120 125 123
f 120 123 121
f 121 126 122
f 121 123 126
f 122 126 123

