# https://github.com/mikedh/trimesh
v -3.73315234 2.90279551 -1.53427255
v -3.73315234 2.87751642 -1.49064126
v -3.73315234 2.92810939 -1.53427255
v -2.65505561 2.90279551 -1.53427255
v -3.73315234 2.87616488 -1.48830769
v -2.65505561 2.87616488 -1.48830769
v -3.73315234 2.92904025 -1.53193898
v -2.65505561 2.92810939 -1.53427255
v -3.73315234 2.89034914 -1.41107471
v -2.65505561 2.88641856 -1.41119888
v -3.73315234 2.94638263 -1.48830769
v -2.65505561 2.94638263 -1.48830769
v -3.73315234 2.89123171 -1.40746261
v -2.65505561 2.94030764 -1.41093818
v -3.73315234 2.94661014 -1.48441006
v -3.73315234 2.93661853 -1.40746261
v -3.73315234 2.93718387 -1.40983349
f 1 2 5
f 1 5 9
f 1 9 13
f 1 13 16
f 1 16 17
f 1 17 15
f 1 15 11
f 1 11 7
f 1 7 3
f 1 3 8
f 1 8 4
f 1 4 2
f 2 4 6
f 2 6 5
f 3 7 8
f 4 8 12
f 4 12 14
f 4 14 10
f 4 10 6
f 5 6 10
f 5 10 9
f 7 11 12
f 7 12 8
f 9 10 13
f 10 14 13
f 11 15 12
f 12 15 14
f 13 14 16
f 14 15 17
f 14 17 16

