# https://github.com/mikedh/trimesh
v 1.34490631 -2.88652942 -1.40478572
v 1.34490631 -2.94025257 -1.40478572
v 1.25663161 -2.88648204 -1.40478572
v 1.33324123 -2.89150668 -0.95133185
v 1.25711546 -2.94028942 -1.40478572
v 1.33324123 -2.93666050 -0.95133185
v 1.26754492 -2.89184383 -0.95133185
v 1.26800292 -2.89150668 -0.95133185
v 1.25663161 -2.93995228 -1.40478572
v 1.26754492 -2.93666050 -0.95133185
f 1 2 5
f 1 5 9
f 1 9 3
f 1 3 4
f 1 4 6
f 1 6 2
f 2 6 5
f 3 7 8
f 3 8 4
f 3 9 10
f 3 10 7
f 4 8 7
f 4 7 10
f 4 10 6
f 5 6 10
f 5 10 9

