# https://github.com/mikedh/trimesh
v 1.21457582 -2.80341303 0.60081285
v 1.22011866 -2.72639314 0.60081285
v 1.21630800 -2.81730021 0.60081285
v 0.33845326 -2.80318163 0.60192236
v 1.22462237 -2.70009645 0.60081285
v 0.33845326 -2.81730021 0.60325754
v 0.33845326 -2.80756152 0.60233606
v 1.38328739 -2.81730021 0.60081285
v 0.33845326 -2.72639314 0.60468679
v 1.25787959 -2.65962808 0.60081285
v 1.24679381 -2.66315331 0.60081285
v 0.33845326 -2.81730021 0.79287300
v 1.38467316 -2.80318163 0.60081285
v 3.87723998 -2.81730021 0.64005980
v 0.33845326 -2.70134294 0.61523664
v 1.34448722 -2.66140855 0.60081285
v 0.33845326 -2.65850655 0.65707877
v 1.26272959 -2.64276772 0.66211863
v 2.56842576 -2.63737321 0.64005980
v 3.79686811 -2.63799622 0.64005980
v 0.33845326 -2.80318163 0.79292942
v 1.85824357 -2.81730021 0.79287300
v 1.38398022 -2.79121729 0.60081285
v 3.87758650 -2.72637529 0.64005980
v 3.87758650 -2.81322314 0.64005980
v 3.87723998 -2.81730021 0.66209986
v 1.35418724 -2.67036401 0.60081285
v 3.81384313 -2.64312386 0.64005980
v 3.85645384 -2.66042916 0.64005980
v 0.33845326 -2.65745599 0.66099036
v 0.33845326 -2.64387162 0.73886375
v 2.56842576 -2.63541466 0.66209986
v 3.79686811 -2.63616242 0.66209986
v 0.33845326 -2.72639314 0.79292942
v 1.85824357 -2.80318163 0.79292942
v 3.79686811 -2.81730021 0.79285423
v 1.37913021 -2.72639314 0.60081285
v 3.87758650 -2.72637529 0.66209986
v 3.87758650 -2.80316378 0.66209986
v 3.87550780 -2.81730021 0.67622279
v 3.85645384 -2.66042916 0.66209986
v 0.33845326 -2.67217996 0.78508758
v 1.26272959 -2.64337311 0.73886375
v 2.56842576 -2.64323052 0.73886375
v 3.71996060 -2.64387162 0.73886375
v 3.79686811 -2.64392495 0.73886375
v 1.85824357 -2.72639314 0.79292942
v 1.85824357 -2.68553292 0.78702450
v 3.79686811 -2.80316378 0.79291065
v 3.83740034 -2.81730021 0.78647918
v 3.86719344 -2.72637529 0.73886375
v 3.85125776 -2.66630456 0.73886375
v 3.86719344 -2.81730021 0.73886375
v 3.79686811 -2.67217996 0.78508758
v 3.84259687 -2.67746759 0.78249241
v 3.79686811 -2.72637529 0.79291065
v 3.84606123 -2.81730021 0.78506870
v 3.84606123 -2.80316378 0.78508758
v 3.84606123 -2.72637529 0.78508758
v 3.86338255 -2.81730021 0.74734496
f 1 2 5
f 1 5 11
f 1 11 10
f 1 10 16
f 1 16 27
f 1 27 37
f 1 37 23
f 1 23 13
f 1 13 8
f 1 8 3
f 1 3 4
f 1 4 2
f 2 4 5
f 3 6 7
f 3 7 4
f 3 8 14
f 3 14 26
f 3 26 40
f 3 40 53
f 3 53 60
f 3 60 57
f 3 57 50
f 3 50 36
f 3 36 22
f 3 22 12
f 3 12 6
f 4 7 6
f 4 6 12
f 4 12 21
f 4 21 34
f 4 34 42
f 4 42 31
f 4 31 30
f 4 30 17
f 4 17 15
f 4 15 9
f 4 9 10
f 4 10 11
f 4 11 5
f 8 13 14
f 9 15 10
f 10 15 17
f 10 17 18
f 10 18 19
f 10 19 20
f 10 20 16
f 12 22 35
f 12 35 21
f 13 23 24
f 13 24 25
f 13 25 14
f 14 25 26
f 16 20 28
f 16 28 29
f 16 29 27
f 17 30 18
f 18 30 31
f 18 31 32
f 18 32 19
f 19 32 20
f 20 32 33
f 20 33 28
f 21 35 47
f 21 47 34
f 22 36 35
f 23 37 24
f 24 38 39
f 24 39 25
f 24 37 29
f 24 29 41
f 24 41 38
f 25 39 26
f 26 39 40
f 27 29 37
f 28 33 29
f 29 33 41
f 31 42 43
f 31 43 32
f 32 44 45
f 32 45 33
f 32 43 44
f 33 46 41
f 33 45 46
f 34 47 48
f 34 48 42
f 35 36 49
f 35 49 56
f 35 56 47
f 36 50 49
f 38 51 53
f 38 53 39
f 38 41 52
f 38 52 51
f 39 53 40
f 41 46 52
f 42 48 54
f 42 54 44
f 42 44 43
f 44 54 45
f 45 54 46
f 46 54 55
f 46 55 52
f 47 54 48
f 47 56 54
f 49 50 56
f 50 57 58
f 50 58 59
f 50 59 56
f 51 52 55
f 51 55 59
f 51 59 60
f 51 60 53
f 54 56 55
f 55 56 59
f 57 60 58
f 58 60 59

