# https://github.com/mikedh/trimesh
v 1.49135854 2.89172610 -0.86067924
v 1.49135854 2.89059748 -0.79715692
v 1.49135854 2.93667666 -0.86067924
v 2.41467734 2.89149859 -0.86057882
v 2.41467734 2.89148943 -0.86054867
v 1.49135854 2.91714549 -0.75810567
v 2.41467734 2.89090693 -0.79711675
v 1.49135854 2.93674945 -0.85910270
v 2.41467734 2.93667666 -0.86057882
v 1.49135854 2.91804660 -0.75810567
v 2.41467734 2.91781451 -0.75842699
v 1.49135854 2.93708613 -0.79711675
v 2.41467734 2.93701793 -0.79713683
v 1.49135854 2.91881564 -0.75825627
v 2.41467734 2.91874743 -0.75843703
v 1.49135854 2.93665835 -0.79600215
v 2.41467734 2.93701793 -0.79711675
v 2.41467734 2.91875636 -0.75844707
f 1 2 6
f 1 6 10
f 1 10 14
f 1 14 16
f 1 16 12
f 1 12 8
f 1 8 3
f 1 3 9
f 1 9 4
f 1 4 5
f 1 5 2
f 2 5 7
f 2 7 6
f 3 8 9
f 4 9 13
f 4 13 17
f 4 17 18
f 4 18 15
f 4 15 11
f 4 11 7
f 4 7 5
f 6 7 11
f 6 11 10
f 8 12 9
f 9 12 13
f 10 11 15
f 10 15 14
f 12 16 17
f 12 17 13
f 14 15 18
f 14 18 16
f 16 18 17

