# https://github.com/mikedh/trimesh
v 2.51607841 -2.92941250 -0.95126548
v 2.51607841 -2.90118267 -0.95126548
v 2.56831475 -2.94766788 -0.95126548
v 1.49135980 -2.93664860 -0.86066763
v 2.51649956 -2.90077274 -0.95126548
v 1.49135980 -2.89169780 -0.86066763
v 2.56831475 -2.95162342 -0.87389357
v 2.62834451 -2.93671474 -0.95126548
v 3.64295284 -2.93664860 -0.86055742
v 1.49135980 -2.93705875 -0.79713892
v 2.56831475 -2.95244350 -0.79713892
v 2.56831475 -2.87417003 -0.95126548
v 1.49135980 -2.89112903 -0.85919071
v 2.56494469 -2.81730021 -0.87089573
v 2.62876588 -2.93663532 -0.95126548
v 3.64295284 -2.89148609 -0.86055742
v 3.64295284 -2.93699261 -0.79744754
v 1.49135980 -2.91878986 -0.75827664
v 2.56831475 -2.94877911 -0.72607142
v 2.62876588 -2.89155223 -0.95126548
v 1.49135980 -2.89057330 -0.79718301
v 2.49627899 -2.81730021 -0.80174597
v 2.50344047 -2.81730021 -0.82270912
v 2.51312950 -2.81730021 -0.85028526
v 2.51334030 -2.81730021 -0.85046159
v 2.62834451 -2.81730021 -0.85617079
v 3.64295284 -2.89090404 -0.79713892
v 2.65088205 -2.81730021 -0.79713892
v 3.64295284 -2.91881641 -0.75865138
v 2.56262772 -2.94810459 -0.72607142
v 2.49712173 -2.92839397 -0.72607142
v 2.49606842 -2.92801037 -0.72607142
v 1.49135980 -2.91712314 -0.75814438
v 3.64295284 -2.91781116 -0.75845299
v 2.64498445 -2.93438656 -0.72607142
v 1.49135980 -2.89108920 -0.79590450
v 2.50175545 -2.81730021 -0.72607142
v 2.49838539 -2.81730021 -0.73755597
v 2.65109262 -2.81730021 -0.72607142
v 2.48469436 -2.88726619 -0.72607142
v 2.48469436 -2.88563907 -0.72607142
v 2.50091293 -2.82022372 -0.72607142
v 2.66246667 -2.88545390 -0.72607142
f 1 2 5
f 1 5 12
f 1 12 20
f 1 20 15
f 1 15 8
f 1 8 3
f 1 3 4
f 1 4 6
f 1 6 2
f 2 6 5
f 3 7 4
f 3 8 9
f 3 9 7
f 4 10 18
f 4 18 33
f 4 33 36
f 4 36 21
f 4 21 13
f 4 13 6
f 4 7 11
f 4 11 10
f 5 6 12
f 6 13 14
f 6 14 12
f 7 9 11
f 8 15 9
f 9 16 27
f 9 27 34
f 9 34 29
f 9 29 17
f 9 17 11
f 9 15 20
f 9 20 16
f 10 11 19
f 10 19 18
f 11 17 19
f 12 14 16
f 12 16 20
f 13 21 22
f 13 22 23
f 13 23 24
f 13 24 25
f 13 25 14
f 14 25 24
f 14 24 23
f 14 23 22
f 14 22 38
f 14 38 37
f 14 37 39
f 14 39 28
f 14 28 26
f 14 26 16
f 16 26 28
f 16 28 27
f 17 29 19
f 18 19 30
f 18 30 31
f 18 31 32
f 18 32 33
f 19 29 34
f 19 34 35
f 19 35 43
f 19 43 39
f 19 39 37
f 19 37 42
f 19 42 41
f 19 41 40
f 19 40 32
f 19 32 31
f 19 31 30
f 21 36 37
f 21 37 38
f 21 38 22
f 27 28 39
f 27 39 34
f 32 40 33
f 33 40 41
f 33 41 42
f 33 42 37
f 33 37 36
f 34 43 35
f 34 39 43

