# https://github.com/mikedh/trimesh
v -0.33691565 2.81747568 0.58357668
v -0.92232398 2.81747568 0.65794806
v -0.33391593 2.88000918 0.58357668
v 1.37685169 2.81747568 0.58357668
v -0.92232398 2.81747568 0.79288181
v -0.92232398 2.88000918 0.65923872
v -0.32099400 2.92756007 0.58357668
v 1.37016010 2.88161021 0.58357668
v 1.43500027 2.88119364 0.64540934
v 1.43500027 2.81747568 0.64356547
v -0.92232398 2.85177545 0.79275890
v 1.43500027 2.81747568 0.79288181
v -0.92232398 2.93667186 0.68064868
v -0.27322910 2.94583583 0.58357668
v 1.36923702 2.88314623 0.58357668
v 1.43500027 2.93667186 0.67562918
v -0.92232398 2.88000918 0.79265648
v 1.43500027 2.88000918 0.79265648
v -0.92232398 2.94105861 0.70693473
v -0.92232398 2.94638240 0.73887553
v -0.27322910 2.95044391 0.66210707
v 0.26418362 2.94583583 0.58357668
v 1.33254817 2.93667186 0.58357668
v 1.43500027 2.94638240 0.73887553
v -0.92232398 2.90639445 0.78837444
v 1.43500027 2.89168536 0.79077152
v -0.92232398 2.92810664 0.78485058
v 1.43500027 2.93254557 0.77368457
v 0.26418362 2.95044391 0.66210707
v 1.43500027 2.92810664 0.78485058
f 1 2 3
f 1 3 7
f 1 7 14
f 1 14 22
f 1 22 23
f 1 23 15
f 1 15 8
f 1 8 4
f 1 4 10
f 1 10 12
f 1 12 5
f 1 5 2
f 2 5 11
f 2 11 17
f 2 17 25
f 2 25 27
f 2 27 20
f 2 20 19
f 2 19 13
f 2 13 6
f 2 6 3
f 3 6 7
f 4 8 9
f 4 9 10
f 5 12 11
f 6 13 7
f 7 13 14
f 8 15 16
f 8 16 9
f 9 16 24
f 9 24 28
f 9 28 30
f 9 30 26
f 9 26 18
f 9 18 12
f 9 12 10
f 11 12 18
f 11 18 17
f 13 19 14
f 14 19 20
f 14 20 21
f 14 21 29
f 14 29 22
f 15 23 16
f 16 23 24
f 17 18 26
f 17 26 25
f 20 27 28
f 20 28 24
f 20 24 29
f 20 29 21
f 22 29 24
f 22 24 23
f 25 26 27
f 26 30 27
f 27 30 28

