# https://github.com/mikedh/trimesh
v -2.57726897 2.64225380 0.58435785
v -2.52698248 2.66938591 0.58435785
v -2.57798331 2.64245956 0.58435785
v -2.63641799 2.66057053 -0.72029146
v -2.57726897 2.64376304 -0.72029146
v -2.52641989 2.66971161 0.58435785
v -2.63720832 2.66057053 0.58435785
v -2.65719840 2.72641114 -0.72029146
v -2.62866508 2.67034630 -0.79707744
v -2.65861221 2.72562218 0.58435785
v -2.57199393 2.66715637 -0.80363061
v -2.53321493 2.67681198 -0.78240405
v -2.53038755 2.67122086 -0.72029146
v -2.51248029 2.72641114 0.58435785
v -2.66042106 2.81746286 -0.72128870
v -2.65993469 2.81746286 -0.79707744
v -2.64169280 2.72641114 -0.79707744
v -2.65885528 2.72641114 0.58435785
v -2.61916419 2.68274597 -0.83767856
v -2.59406661 2.68274597 -0.83767856
v -2.54488974 2.72641114 -0.83269248
v -2.52188986 2.81746286 -0.85035753
v -2.51226743 2.81746286 -0.82272027
v -2.50513799 2.81746286 -0.80163619
v -2.51099050 2.80319368 0.58435785
v -2.65893127 2.80226762 0.58435785
v -2.65893127 2.80319368 0.58435785
v -2.65865775 2.81727426 0.58435785
v -2.65724395 2.81746286 0.52267264
v -2.63757316 2.81746286 -0.85619837
v -2.57383345 2.81746286 -0.87101423
v -2.52255888 2.81746286 -0.85064243
v -2.51158331 2.81746286 0.58435785
v -2.51099050 2.80413690 0.58435785
v -2.64915687 2.81746286 0.58435785
f 1 2 6
f 1 6 14
f 1 14 25
f 1 25 34
f 1 34 33
f 1 33 35
f 1 35 28
f 1 28 27
f 1 27 26
f 1 26 18
f 1 18 10
f 1 10 7
f 1 7 3
f 1 3 4
f 1 4 5
f 1 5 2
f 2 5 6
f 3 7 4
f 4 8 9
f 4 9 5
f 4 7 10
f 4 10 8
f 5 9 11
f 5 11 12
f 5 12 13
f 5 13 6
f 6 13 14
f 8 15 16
f 8 16 17
f 8 17 9
f 8 10 18
f 8 18 15
f 9 17 19
f 9 19 11
f 11 19 20
f 11 20 12
f 12 20 21
f 12 21 22
f 12 22 23
f 12 23 24
f 12 24 13
f 13 24 14
f 14 24 25
f 15 18 26
f 15 26 27
f 15 27 28
f 15 28 29
f 15 29 35
f 15 35 33
f 15 33 24
f 15 24 23
f 15 23 22
f 15 22 32
f 15 32 31
f 15 31 30
f 15 30 16
f 16 30 19
f 16 19 17
f 19 30 31
f 19 31 20
f 20 31 21
f 21 31 32
f 21 32 22
f 24 33 34
f 24 34 25
f 28 35 29

