# https://github.com/mikedh/trimesh
v 2.56836419 -2.94983997 0.64047030
v 2.62442971 -2.94213238 0.64047030
v 2.50112465 -2.93479168 0.64047030
v 2.56259247 -2.94809658 -0.72593020
v 2.56836419 -2.94876949 -0.72593020
v 2.64055948 -2.93928783 0.64047030
v 2.47580276 -2.88031757 0.64047030
v 2.49613022 -2.92800144 -0.72593020
v 2.49712127 -2.92839901 -0.72593020
v 2.56490509 -2.81727961 -0.87091421
v 2.64514581 -2.93436344 -0.72593020
v 2.66720293 -2.87998111 0.64047030
v 2.47168289 -2.81727961 0.64047030
v 2.48458679 -2.88726070 -0.72593020
v 2.51303726 -2.81727961 -0.85020218
v 2.62858850 -2.81727961 -0.85611992
v 2.51313454 -2.81706538 -0.85020218
v 2.53596871 -2.72640802 -0.83274496
v 2.58513528 -2.68276162 -0.83777498
v 2.61024339 -2.68276162 -0.83777498
v 2.66265550 -2.88542552 -0.72593020
v 2.67021501 -2.81727961 0.64047030
v 2.56836419 -2.63737183 0.64002650
v 2.51358131 -2.65324593 0.64002650
v 2.49955040 -2.66080087 0.64002650
v 2.47347068 -2.72640802 0.64002650
v 2.47195503 -2.80317934 0.64002650
v 2.48460601 -2.88560909 -0.72593020
v 2.49632454 -2.81727961 -0.80167693
v 2.50339836 -2.81727961 -0.82253688
v 2.52432800 -2.67679742 -0.78244433
v 2.65093698 -2.81727961 -0.79694274
v 2.56309784 -2.66716264 -0.80360017
v 2.61974633 -2.67034364 -0.79694274
v 2.63276673 -2.72640802 -0.79694274
v 2.64827463 -2.72640802 -0.72016043
v 2.66959314 -2.72640802 0.64002650
v 2.64143403 -2.65609048 0.64002650
v 2.56836419 -2.64376427 -0.72016043
v 2.52149078 -2.67120011 -0.72016043
v 2.62748094 -2.66055619 -0.72016043
f 1 2 6
f 1 6 12
f 1 12 22
f 1 22 13
f 1 13 7
f 1 7 3
f 1 3 4
f 1 4 5
f 1 5 2
f 2 5 6
f 3 7 8
f 3 8 9
f 3 9 4
f 4 9 10
f 4 10 5
f 5 11 6
f 5 10 11
f 6 11 12
f 7 13 14
f 7 14 8
f 8 14 15
f 8 15 9
f 9 15 10
f 10 16 11
f 10 15 17
f 10 17 18
f 10 18 19
f 10 19 20
f 10 20 16
f 11 21 12
f 11 16 21
f 12 21 22
f 13 22 23
f 13 23 24
f 13 24 25
f 13 25 26
f 13 26 27
f 13 27 28
f 13 28 14
f 14 28 29
f 14 29 30
f 14 30 15
f 15 30 31
f 15 31 18
f 15 18 17
f 16 20 32
f 16 32 21
f 18 31 19
f 19 31 33
f 19 33 20
f 20 33 34
f 20 34 35
f 20 35 32
f 21 32 36
f 21 36 37
f 21 37 22
f 22 37 38
f 22 38 23
f 23 38 39
f 23 39 24
f 24 39 25
f 25 39 40
f 25 40 26
f 26 40 29
f 26 29 28
f 26 28 27
f 29 40 31
f 29 31 30
f 31 40 39
f 31 39 33
f 32 35 36
f 33 39 34
f 34 39 41
f 34 41 36
f 34 36 35
f 36 41 37
f 37 41 38
f 38 41 39

