# https://github.com/mikedh/trimesh
v 3.87778426 2.80317171 0.63979738
v 3.87638808 2.87569796 -0.33194441
v 3.87629469 2.87997507 0.64086191
v 3.87750502 2.81744936 0.64086191
v 3.87778426 2.72646081 0.63979738
v 3.87778426 2.80317171 -0.71987461
v 3.87638808 2.87569796 -0.33215732
v 3.87629469 2.87997507 -0.33194441
v 3.85519499 2.93662356 -0.33215732
v 3.85516386 2.93662356 0.64086191
v 3.69939580 2.81744936 0.64086191
v 3.79710752 2.63802612 0.63979738
v 3.85662230 2.66048859 0.63979738
v 3.87778426 2.72646081 -0.71987461
v 3.87750502 2.81741846 -0.72008750
v 3.85516386 2.93665446 -1.41142078
v 3.87626402 2.88000574 -0.72008750
v 3.85519499 2.93662356 -0.87359888
v 3.85516386 2.93665446 -0.95067393
v 3.85488463 2.93674670 -0.95024810
v 3.79710752 2.95234729 -0.79694964
v 3.81314985 2.94687015 0.64086191
v 3.70249875 2.72670685 0.63979738
v 3.72843930 2.66104248 0.63979738
v 3.69958188 2.81984941 0.64086191
v 3.56078700 2.93665446 -1.42994442
v 3.56078700 2.89176020 -1.42994442
v 3.79710752 2.64418030 -0.71987461
v 3.85662230 2.66048859 -0.71987461
v 3.85069563 2.89726801 -1.48807011
v 3.85516386 2.89176020 -1.41142078
v 3.85069563 2.93237735 -1.48807011
v 3.79710752 2.94637782 -1.48807011
v 3.79710752 2.95080897 -1.41142078
v 3.79707662 2.94963962 0.64086191
v 3.56078700 2.94637782 -1.48807011
v 3.56078700 2.87615938 -1.48807011
v 3.75062551 2.67178139 -0.71987461
v 3.70454655 2.87994417 0.64086191
v 3.72999089 2.93462359 0.64086191
v 3.75332494 2.67719696 -0.78183270
v 3.79245321 2.66735046 -0.80312415
v 3.84874052 2.67030441 -0.79694964
v 3.84259687 2.90797625 -1.53150456
v 3.84259687 2.92486933 -1.53150456
v 3.79710752 2.92810023 -1.53427243
v 3.74324040 2.93960841 0.64086191
v 3.56078700 2.92810023 -1.53427243
v 3.56078700 2.87822115 -1.49168965
v 3.79710752 2.87615938 -1.48807011
v 3.79710752 2.90277606 -1.53427243
v 3.56078700 2.90277606 -1.53427243
f 1 2 3
f 1 3 4
f 1 4 5
f 1 5 14
f 1 14 6
f 1 6 7
f 1 7 2
f 2 7 8
f 2 8 3
f 3 8 18
f 3 18 9
f 3 9 10
f 3 10 22
f 3 22 35
f 3 35 47
f 3 47 40
f 3 40 39
f 3 39 25
f 3 25 11
f 3 11 4
f 4 11 12
f 4 12 13
f 4 13 5
f 5 13 29
f 5 29 14
f 6 15 7
f 6 14 31
f 6 31 16
f 6 16 15
f 7 15 17
f 7 17 8
f 8 17 16
f 8 16 18
f 9 18 16
f 9 16 19
f 9 19 10
f 10 19 20
f 10 20 21
f 10 21 22
f 11 23 24
f 11 24 12
f 11 25 26
f 11 26 27
f 11 27 23
f 12 24 28
f 12 28 29
f 12 29 13
f 14 29 30
f 14 30 31
f 15 16 17
f 16 31 30
f 16 30 32
f 16 32 33
f 16 33 34
f 16 34 21
f 16 21 20
f 16 20 19
f 21 35 22
f 21 34 36
f 21 36 35
f 23 27 37
f 23 37 24
f 24 38 28
f 24 37 38
f 25 39 26
f 26 39 40
f 26 40 36
f 26 36 48
f 26 48 52
f 26 52 49
f 26 49 37
f 26 37 27
f 28 38 41
f 28 41 37
f 28 37 42
f 28 42 43
f 28 43 29
f 29 43 30
f 30 44 45
f 30 45 32
f 30 43 44
f 32 45 33
f 33 45 46
f 33 46 48
f 33 48 36
f 33 36 34
f 35 36 47
f 36 40 47
f 37 49 50
f 37 50 42
f 37 41 38
f 42 50 43
f 43 50 44
f 44 51 46
f 44 46 45
f 44 50 51
f 46 51 52
f 46 52 48
f 49 52 51
f 49 51 50

