# https://github.com/mikedh/trimesh
v -3.88642857 2.81746309 0.58492931
v -3.88518437 2.87965189 0.58492931
v -3.88269596 2.81746309 0.58492931
v -3.88642857 2.81746309 0.66209734
v -3.88518437 2.88001719 0.58529569
v -3.86414692 2.93641024 0.58492931
v -3.74074962 2.81776315 0.58492931
v -3.74074962 2.81746309 0.58529569
v -3.88461903 2.81746309 0.67634616
v -3.87557041 2.88001719 0.73887851
v -3.88518437 2.88001719 0.66209734
v -3.86403385 2.93667117 0.66209734
v -3.86403385 2.93667117 0.58529569
v -3.80601093 2.94668361 0.58492931
v -3.74357722 2.88001719 0.58492931
v -2.73095009 2.81754137 0.65674380
v -2.74520119 2.81746309 0.65694739
v -3.87636235 2.81746309 0.73887851
v -3.85521183 2.88001719 0.78496353
v -3.85147923 2.92487048 0.78231731
v -3.85950977 2.93238948 0.73887851
v -3.80601093 2.94638331 0.73887851
v -3.80601093 2.95080852 0.66209734
v -3.75737605 2.92842112 0.58492931
v -2.73095009 2.94638331 0.73887851
v -2.73095009 2.93667117 0.68015269
v -2.73095009 2.88001719 0.65810759
v -2.73095009 2.81746309 0.79198620
v -3.87251667 2.81746309 0.74742782
v -3.85532490 2.81746309 0.78508564
v -3.80601093 2.81746309 0.79286156
v -3.80601093 2.88001719 0.79265797
v -3.80601093 2.92810778 0.78484142
v -2.73095009 2.92810778 0.78484142
v -2.73095009 2.81746309 0.79286156
v -2.80774819 2.88001719 0.79265797
v -2.73095009 2.87992586 0.79265797
f 1 2 6
f 1 6 14
f 1 14 24
f 1 24 15
f 1 15 7
f 1 7 3
f 1 3 8
f 1 8 17
f 1 17 28
f 1 28 35
f 1 35 31
f 1 31 30
f 1 30 29
f 1 29 18
f 1 18 9
f 1 9 4
f 1 4 11
f 1 11 5
f 1 5 2
f 2 5 6
f 3 7 8
f 4 9 10
f 4 10 11
f 5 11 6
f 6 11 12
f 6 12 13
f 6 13 14
f 7 15 16
f 7 16 8
f 8 16 17
f 9 18 10
f 10 19 20
f 10 20 21
f 10 21 11
f 10 18 19
f 11 21 12
f 12 21 22
f 12 22 23
f 12 23 13
f 13 23 14
f 14 23 25
f 14 25 26
f 14 26 27
f 14 27 24
f 15 24 16
f 16 27 26
f 16 26 25
f 16 25 34
f 16 34 37
f 16 37 35
f 16 35 28
f 16 28 17
f 16 24 27
f 18 29 19
f 19 29 30
f 19 30 31
f 19 31 32
f 19 32 20
f 20 32 33
f 20 33 22
f 20 22 21
f 22 33 34
f 22 34 25
f 22 25 23
f 31 35 36
f 31 36 32
f 32 36 34
f 32 34 33
f 34 36 37
f 35 37 36

