# https://github.com/mikedh/trimesh
v -0.92276727 2.94638514 0.73885242
v -0.92276727 2.92809199 0.78482517
v -0.92276727 2.93664508 0.68067202
v -1.27733616 2.93664508 0.58507230
v -2.48699087 2.94638514 0.73885242
v -0.92276727 2.87996935 0.79264389
v -2.48699087 2.92809199 0.78482517
v -2.48699087 2.88827891 0.79129646
v -0.92276727 2.87996935 0.65925749
v -1.34204072 2.93646243 0.58507230
v -1.34204072 2.93664508 0.58529684
v -1.23961609 2.88450465 0.58507230
v -2.51165403 2.81744981 0.58437822
v -3.87683155 2.81744981 0.58437822
v -2.48699087 2.93704059 0.66540217
v -3.88640660 2.81744981 0.58531732
v -3.88640660 2.81744981 0.66211543
v -3.87625111 2.81744981 0.73887290
v -3.87247914 2.81744981 0.74742645
v -3.85506992 2.81744981 0.78504982
v -2.47248319 2.80320466 0.79292965
v -0.92276727 2.80317422 0.79292965
v -2.48699087 2.87996935 0.79264389
v -3.80574359 2.81744981 0.79286842
v -0.92276727 2.84566568 0.65854304
v -1.23149181 2.81744981 0.58507230
v -1.23903576 2.88283060 0.58507230
v -3.88640660 2.81726717 0.58437822
v -2.51078359 2.80411790 0.58437822
v -3.88640660 2.72643998 0.66211543
v -3.87625111 2.72643998 0.73887290
v -3.85536015 2.72643998 0.78507019
v -3.85536015 2.80320466 0.78507019
v -3.80574359 2.80320466 0.79292965
v -0.92276727 2.72643998 0.79292965
v -0.92276727 2.81744981 0.65797141
v -0.92276727 2.80317422 0.65768565
v -0.92276727 2.72643998 0.65768565
v -1.24019642 2.66370735 0.61816370
v -1.26834145 2.65488029 0.61816370
v -2.57722891 2.64227897 0.58437822
v -2.52703215 2.66939919 0.58437822
v -2.52645193 2.66973404 0.58437822
v -2.51252447 2.72643998 0.58437822
v -2.51078359 2.80320466 0.58437822
v -3.88640660 2.72643998 0.58437822
v -3.86551563 2.66045036 0.66211543
v -3.86029255 2.66632507 0.73887290
v -3.85158817 2.67749565 0.78247753
v -3.80574359 2.72643998 0.79292965
v -0.92276727 2.67219955 0.78507019
v -0.92276727 2.66035904 0.67910006
v -1.27182332 2.64279648 0.66213591
v -2.57722891 2.63543037 0.66211543
v -3.80574359 2.64255295 0.58437822
v -3.86551563 2.66045036 0.58437822
v -3.80574359 2.63619140 0.66211543
v -3.80574359 2.64392257 0.73887290
v -3.80574359 2.67219955 0.78507019
v -1.27182332 2.64340507 0.73885242
v -0.92276727 2.65968956 0.76418644
v -2.57722891 2.64325287 0.73887290
v -0.92276727 2.65168419 0.71180362
v -0.92276727 2.64453140 0.73885242
v -3.72914279 2.64386169 0.73887290
v -3.80661426 2.64273559 0.58437822
f 1 2 6
f 1 6 22
f 1 22 35
f 1 35 51
f 1 51 61
f 1 61 64
f 1 64 63
f 1 63 52
f 1 52 38
f 1 38 37
f 1 37 36
f 1 36 25
f 1 25 9
f 1 9 3
f 1 3 4
f 1 4 5
f 1 5 7
f 1 7 2
f 2 7 8
f 2 8 6
f 3 9 4
f 4 10 11
f 4 11 5
f 4 9 12
f 4 12 13
f 4 13 14
f 4 14 10
f 5 15 16
f 5 16 17
f 5 17 18
f 5 18 19
f 5 19 20
f 5 20 7
f 5 11 15
f 6 21 22
f 6 8 23
f 6 23 34
f 6 34 21
f 7 20 24
f 7 24 8
f 8 24 23
f 9 25 26
f 9 26 27
f 9 27 12
f 10 14 28
f 10 28 11
f 11 28 15
f 12 27 13
f 13 29 45
f 13 45 44
f 13 44 43
f 13 43 42
f 13 42 41
f 13 41 55
f 13 55 66
f 13 66 56
f 13 56 46
f 13 46 28
f 13 28 14
f 13 27 26
f 13 26 29
f 15 28 16
f 16 28 46
f 16 46 30
f 16 30 17
f 17 30 31
f 17 31 18
f 18 31 19
f 19 31 32
f 19 32 33
f 19 33 20
f 20 33 24
f 21 34 50
f 21 50 35
f 21 35 22
f 23 24 34
f 24 33 34
f 25 36 26
f 26 36 37
f 26 37 38
f 26 38 39
f 26 39 40
f 26 40 41
f 26 41 42
f 26 42 43
f 26 43 44
f 26 44 45
f 26 45 29
f 30 47 48
f 30 48 31
f 30 46 56
f 30 56 47
f 31 48 49
f 31 49 32
f 32 49 50
f 32 50 34
f 32 34 33
f 35 50 59
f 35 59 51
f 38 52 39
f 39 52 40
f 40 52 53
f 40 53 41
f 41 54 55
f 41 53 54
f 47 57 58
f 47 58 48
f 47 56 57
f 48 58 49
f 49 58 59
f 49 59 50
f 51 60 61
f 51 59 62
f 51 62 60
f 52 63 53
f 53 63 64
f 53 64 54
f 54 64 60
f 54 60 62
f 54 62 65
f 54 65 57
f 54 57 55
f 55 57 66
f 56 66 57
f 57 65 58
f 58 65 59
f 59 65 62
f 60 64 61

