# https://github.com/mikedh/trimesh
v -2.57716963 -2.95244350 -0.79684361
v -2.42308293 -2.93698711 -0.79684361
v -2.57722983 -2.94697758 0.58483827
v -2.65398742 -2.94746349 -0.79684361
v -2.57725981 -2.95092510 -1.41070736
v -2.42308293 -2.91870655 -0.75815965
v -2.51434339 -2.87995914 0.58483827
v -2.52830473 -2.92872745 0.58483827
v -2.42308293 -2.93662273 -0.86033998
v -2.51154508 -2.81728304 0.58522897
v -2.65868133 -2.81728304 0.58522897
v -2.63575332 -2.93662273 0.58483827
v -2.73047402 -2.93856617 -0.79684361
v -2.65464935 -2.94020588 -1.41070736
v -2.50312017 -2.93710842 -1.41070736
v -2.42308293 -2.91758297 -0.75855041
v -2.51238760 -2.72645723 0.58522897
v -2.51088316 -2.80313219 0.58522897
v -2.42308293 -2.89177150 -0.86033998
v -2.65732726 -2.88014133 0.58483827
v -2.65889190 -2.80319308 0.58522897
v -2.73047402 -2.92028560 -0.75581516
v -2.73047402 -2.93668339 -0.85994928
v -2.65464935 -2.88645755 -1.41070736
v -2.73047402 -2.89110362 -0.86053539
v -2.50312017 -2.89061771 -1.41070736
v -2.42308293 -2.89083034 -0.79684361
v -2.52640913 -2.66973298 0.58522897
v -2.53323942 -2.67683885 -0.78219059
v -2.53044111 -2.67122094 -0.72006181
v -2.42308293 -2.89083034 -0.79723436
v -2.65883170 -2.72648767 0.58522897
v -2.73047402 -2.91512340 -0.75581516
v -2.57725981 -2.87018108 -1.41070736
v -2.63641524 -2.66056237 -0.72006181
v -2.62865226 -2.67037065 -0.79684361
v -2.73047402 -2.88767223 -0.79684361
v -2.57202437 -2.66715188 -0.80348633
v -2.57722983 -2.64376977 -0.72006181
v -2.57722983 -2.64222115 0.58522897
v -2.63719756 -2.66065347 0.58522897
v -2.61914405 -2.68279046 -0.83748132
f 1 2 3
f 1 3 4
f 1 4 5
f 1 5 2
f 2 6 7
f 2 7 8
f 2 8 3
f 2 5 9
f 2 9 19
f 2 19 31
f 2 31 27
f 2 27 16
f 2 16 6
f 3 8 10
f 3 10 11
f 3 11 12
f 3 12 13
f 3 13 4
f 4 13 5
f 5 14 24
f 5 24 34
f 5 34 26
f 5 26 15
f 5 15 9
f 5 13 14
f 6 16 17
f 6 17 18
f 6 18 7
f 7 18 10
f 7 10 8
f 9 15 26
f 9 26 19
f 10 18 17
f 10 17 28
f 10 28 40
f 10 40 41
f 10 41 32
f 10 32 21
f 10 21 11
f 11 20 12
f 11 21 22
f 11 22 20
f 12 20 13
f 13 20 22
f 13 22 33
f 13 33 37
f 13 37 25
f 13 25 23
f 13 23 14
f 14 23 25
f 14 25 24
f 16 27 17
f 17 27 28
f 19 26 29
f 19 29 30
f 19 30 31
f 21 32 33
f 21 33 22
f 24 25 35
f 24 35 36
f 24 36 34
f 25 37 35
f 26 34 38
f 26 38 29
f 27 31 28
f 28 31 30
f 28 30 39
f 28 39 40
f 29 39 30
f 29 38 39
f 32 41 37
f 32 37 33
f 34 36 42
f 34 42 38
f 35 37 41
f 35 41 40
f 35 40 39
f 35 39 36
f 36 39 38
f 36 38 42

