# https://github.com/mikedh/trimesh
v 2.96653325 2.91874583 -0.75844599
v 2.96653325 2.91782069 -0.75844599
v 2.96653325 2.93700969 -0.79705781
v 2.62627061 2.93665286 -0.33208188
v 2.64701051 2.88001147 -0.33208188
v 2.64809060 2.81747591 -0.33208188
v 2.96653325 2.89119166 -0.79705781
v 2.56837197 2.95247180 -0.79705781
v 2.56837197 2.94702693 -0.33208188
v 2.62303010 2.93723422 -0.33208188
v 2.96653325 2.93666613 -0.86054340
v 2.51306587 2.81747591 -0.33208188
v 2.65424775 2.81747591 -0.73859538
v 2.96653325 2.89177325 -0.86054340
v 2.56837197 2.95165240 -0.87385780
v 2.41476775 2.93665286 -0.86054340
v 2.41476775 2.93700969 -0.79711832
v 2.52176132 2.92877635 -0.33208188
v 2.62918725 2.93629603 -0.95023413
v 2.62870111 2.93674533 -0.95023413
v 2.56837197 2.94771403 -0.95023413
v 2.51306587 2.82096475 -0.33208188
v 2.41476775 2.91780764 -0.75838545
v 2.41476775 2.89090098 -0.79705781
v 2.49626869 2.81747591 -0.80165731
v 2.65106126 2.81747591 -0.79705781
v 2.62870111 2.81747591 -0.85624643
v 2.60887948 2.81747591 -0.86320627
v 2.56837197 2.87403811 -0.95023413
v 2.56885811 2.87417017 -0.95023413
v 2.62918725 2.89146929 -0.95023413
v 2.64603822 2.81747591 -0.81333772
v 2.56793984 2.94764811 -0.95023413
v 2.51592827 2.92949000 -0.95023413
v 2.41476775 2.89148234 -0.86054340
v 2.41476775 2.91874583 -0.75838545
v 2.51328194 2.88001147 -0.33208188
v 2.51279579 2.81747591 -0.84977079
v 2.56491539 2.81747591 -0.87101337
v 2.51646843 2.90064082 -0.95023413
v 2.51301185 2.81747591 -0.85031547
v 2.51592827 2.90119585 -0.95023413
f 1 2 7
f 1 7 14
f 1 14 11
f 1 11 3
f 1 3 4
f 1 4 5
f 1 5 6
f 1 6 2
f 2 6 7
f 3 8 9
f 3 9 10
f 3 10 4
f 3 11 8
f 4 10 9
f 4 9 18
f 4 18 37
f 4 37 22
f 4 22 12
f 4 12 6
f 4 6 5
f 6 12 25
f 6 25 38
f 6 38 41
f 6 41 39
f 6 39 28
f 6 28 27
f 6 27 32
f 6 32 26
f 6 26 13
f 6 13 7
f 7 13 14
f 8 11 15
f 8 15 16
f 8 16 17
f 8 17 9
f 9 17 18
f 11 14 31
f 11 31 19
f 11 19 20
f 11 20 21
f 11 21 15
f 12 22 36
f 12 36 23
f 12 23 24
f 12 24 25
f 13 26 14
f 14 27 28
f 14 28 29
f 14 29 30
f 14 30 31
f 14 26 32
f 14 32 27
f 15 21 16
f 16 21 33
f 16 33 34
f 16 34 42
f 16 42 35
f 16 35 24
f 16 24 23
f 16 23 36
f 16 36 17
f 17 36 18
f 18 36 37
f 19 31 30
f 19 30 29
f 19 29 40
f 19 40 42
f 19 42 34
f 19 34 33
f 19 33 21
f 19 21 20
f 22 37 36
f 24 35 25
f 25 35 38
f 28 39 29
f 29 39 41
f 29 41 40
f 35 41 38
f 35 42 40
f 35 40 41

