# https://github.com/mikedh/trimesh
v -3.80605716 2.64255981 0.58432815
v -3.80605716 2.64416725 -0.72016999
v -3.75605678 2.66979584 0.58432815
v -3.74085925 2.81774438 0.58492925
v -3.88275639 2.81747133 0.58492925
v -3.88638371 2.81747133 0.58492925
v -3.80676876 2.64274177 0.58432815
v -3.75956920 2.67173698 -0.72016999
v -3.75548297 2.67012955 0.58432815
v -3.86556141 2.66045425 -0.72016999
v -3.85766453 2.67028107 -0.79695825
v -3.80139690 2.66733925 -0.80311935
v -3.76225513 2.67716606 -0.78178092
v -3.74370585 2.88001124 0.58492925
v -3.74177752 2.72642144 0.58432815
v -3.74028544 2.80318613 0.58432815
v -3.74028544 2.80412637 0.58432815
v -3.65217646 2.91880305 -0.75848899
v -3.88521275 2.87964731 0.58492925
v -3.88668217 2.80318613 0.58432815
v -3.88668217 2.72642144 0.58432815
v -3.86556141 2.66045425 0.58432815
v -3.65217646 2.89147593 -0.86022211
v -3.65217646 2.89089960 -0.79695825
v -3.88668217 2.72642144 -0.72016999
v -3.87088749 2.72642144 -0.79695825
v -3.86406956 2.89187029 -0.95023413
v -3.84799931 2.68274666 -0.83768154
v -3.82389461 2.68274666 -0.83768154
v -3.65249781 2.89147593 -0.86052263
v -3.75745708 2.92838725 0.58492925
v -3.65217646 2.93697055 -0.79725877
v -3.65217646 2.91780215 -0.75833873
v -3.86418400 2.93639422 0.58492925
v -3.88521275 2.88001124 0.50844157
v -3.88668217 2.80318613 -0.72016999
v -3.65217646 2.93645488 -0.86052263
v -3.88004734 2.88001124 -0.79695825
v -3.86406956 2.93666728 -0.95023413
v -3.86365620 2.89138506 -0.95023413
v -3.80601116 2.87455195 -0.95023413
v -3.80557491 2.87467325 -0.95023413
v -3.75389888 2.90124209 -0.95023413
v -3.80605716 2.94667605 0.58492925
v -3.80601116 2.95237819 -0.79695825
v -3.65249781 2.93666728 -0.86052263
v -3.86409245 2.93666728 0.50844157
v -3.88521275 2.88001124 -0.33202131
v -3.88640660 2.81744112 -0.72016999
v -3.75389888 2.92884227 -0.95023413
v -3.75433490 2.92926684 -0.95023413
v -3.88518986 2.88001124 -0.72016999
v -3.80601116 2.95155925 -0.87374645
v -3.80633251 2.94734324 -0.95023413
v -3.86409245 2.93666728 -0.33202131
f 1 2 3
f 1 3 4
f 1 4 5
f 1 5 6
f 1 6 7
f 1 7 2
f 2 8 9
f 2 9 3
f 2 7 10
f 2 10 11
f 2 11 12
f 2 12 13
f 2 13 8
f 3 9 4
f 4 14 31
f 4 31 44
f 4 44 34
f 4 34 19
f 4 19 6
f 4 6 5
f 4 9 15
f 4 15 16
f 4 16 17
f 4 17 18
f 4 18 14
f 6 19 20
f 6 20 21
f 6 21 22
f 6 22 7
f 7 22 10
f 8 13 23
f 8 23 24
f 8 24 9
f 9 24 15
f 10 22 21
f 10 21 25
f 10 25 11
f 11 26 27
f 11 27 28
f 11 28 12
f 11 25 26
f 12 28 29
f 12 29 13
f 13 29 30
f 13 30 23
f 14 18 32
f 14 32 31
f 15 24 33
f 15 33 16
f 16 33 17
f 17 33 18
f 18 33 24
f 18 24 23
f 18 23 37
f 18 37 32
f 19 34 35
f 19 35 20
f 20 35 48
f 20 48 36
f 20 36 25
f 20 25 21
f 23 30 37
f 25 36 38
f 25 38 27
f 25 27 26
f 27 39 54
f 27 54 51
f 27 51 50
f 27 50 43
f 27 43 42
f 27 42 41
f 27 41 40
f 27 40 28
f 27 38 39
f 28 40 41
f 28 41 29
f 29 41 42
f 29 42 43
f 29 43 30
f 30 43 37
f 31 32 44
f 32 45 44
f 32 37 46
f 32 46 45
f 34 44 45
f 34 45 47
f 34 47 35
f 35 47 55
f 35 55 48
f 36 48 49
f 36 49 38
f 37 43 50
f 37 50 51
f 37 51 46
f 38 49 52
f 38 52 39
f 39 53 54
f 39 52 48
f 39 48 55
f 39 55 45
f 39 45 53
f 45 46 53
f 45 55 47
f 46 51 54
f 46 54 53
f 48 52 49

