# https://github.com/mikedh/trimesh
v 2.96653325 2.89178744 -0.86058243
v 2.96653325 2.89167918 -0.84885375
v 2.96653325 2.93667643 -0.86058243
v 3.64290386 2.89151209 -0.86058243
v 2.96653325 2.89120539 -0.79711961
v 2.96653325 2.93695636 -0.80883827
v 3.64290386 2.93667643 -0.86058243
v 3.64290386 2.89093920 -0.79764956
v 2.96653325 2.89612292 -0.78998041
v 3.64290386 2.89093462 -0.79711961
v 2.96653325 2.93701953 -0.79711961
v 3.64290386 2.93701953 -0.79711961
v 2.96653325 2.91782756 -0.75849399
v 3.64290386 2.91760211 -0.75876396
v 2.96653325 2.92212252 -0.76562318
v 3.64290386 2.91874789 -0.75843400
v 2.96653325 2.91874789 -0.75849399
v 3.56669971 2.91782756 -0.75848398
f 1 2 5
f 1 5 9
f 1 9 13
f 1 13 17
f 1 17 15
f 1 15 11
f 1 11 6
f 1 6 3
f 1 3 7
f 1 7 4
f 1 4 2
f 2 4 5
f 3 6 7
f 4 7 12
f 4 12 16
f 4 16 14
f 4 14 10
f 4 10 8
f 4 8 5
f 5 8 10
f 5 10 9
f 6 11 12
f 6 12 7
f 9 10 13
f 10 14 13
f 11 15 16
f 11 16 12
f 13 14 18
f 13 18 16
f 13 16 17
f 14 16 18
f 15 17 16

