# https://github.com/mikedh/trimesh
v -3.80602878 -2.95235012 -0.79660995
v -3.86410710 -2.93663807 -0.95105101
v -3.86410710 -2.93663807 -1.41070736
v -3.80604641 -2.95074245 -1.41070736
v -3.71378115 -2.94634426 0.73874141
v -3.80602878 -2.95077290 0.66173651
v -3.86408970 -2.93660786 0.66173651
v -3.88520588 -2.88000835 0.66173651
v -3.88520588 -2.88000835 -0.33156114
v -3.88518849 -2.88000835 -0.71982083
v -3.88641804 -2.81728167 -0.72003652
v -3.88668171 -2.80317728 -0.72003652
v -3.86410710 -2.89174678 -1.41070736
v -3.73210429 -2.93694134 -1.41070736
v -3.70721087 -2.94152149 -0.79660995
v -3.71378115 -2.92808452 0.78468544
v -3.80602878 -2.94634426 0.73874141
v -3.70721087 -2.92480877 -0.73729249
v -3.85957478 -2.93236141 0.73874141
v -3.87563176 -2.88000835 0.73874141
v -3.88638325 -2.81731211 0.66173651
v -3.88641804 -2.81728167 0.58516311
v -3.88529377 -2.87570125 -0.33156114
v -3.88668171 -2.80323794 0.58516311
v -3.88668171 -2.72640710 -0.72003652
v -3.85767735 -2.67026261 -0.79682567
v -3.80664356 -2.87063563 -1.41070736
v -3.86556553 -2.66043488 -0.72003652
v -3.73210429 -2.89083675 -1.41070736
v -3.70721087 -2.89359706 -0.87188919
v -3.70721087 -2.93730549 -0.87124208
v -3.71378115 -2.88000835 0.79223488
v -3.80602878 -2.92808452 0.78468544
v -3.85151127 -2.92480877 0.78209701
v -3.70721087 -2.89383968 -0.73405699
v -3.85523563 -2.88000835 0.78468544
v -3.87635182 -2.81731211 0.73874141
v -3.88668171 -2.72646776 0.58516311
v -3.88668171 -2.72640710 0.50837394
v -3.86558293 -2.66046533 0.58516311
v -3.80140857 -2.66732034 -0.80308095
v -3.84801533 -2.68272889 -0.83759290
v -3.80604641 -2.87045367 -1.41070736
v -3.80606380 -2.64414674 -0.72003652
v -3.86556553 -2.66043488 0.50837394
v -3.80606380 -2.64247842 0.58516311
v -3.70721087 -2.88146426 -0.87188919
v -3.76226771 -2.67717828 -0.78172667
v -3.75954471 -2.67174874 -0.72003652
v -3.70721087 -2.86508502 -0.79682567
v -3.71378115 -2.81731211 0.79288204
v -3.80602878 -2.88000835 0.79223488
v -3.70721087 -2.88813732 -0.74225359
v -3.80602878 -2.81731211 0.79288204
v -3.85535877 -2.81731211 0.78490116
v -3.75543399 -2.67008065 0.58516311
v -3.71378115 -2.81731211 0.63434267
f 1 2 3
f 1 3 4
f 1 4 5
f 1 5 6
f 1 6 7
f 1 7 2
f 2 7 8
f 2 8 9
f 2 9 3
f 3 9 10
f 3 10 11
f 3 11 12
f 3 12 25
f 3 25 13
f 3 13 27
f 3 27 43
f 3 43 29
f 3 29 14
f 3 14 4
f 4 14 15
f 4 15 5
f 5 16 33
f 5 33 17
f 5 17 6
f 5 15 18
f 5 18 16
f 6 17 7
f 7 17 19
f 7 19 8
f 8 19 20
f 8 20 21
f 8 21 22
f 8 22 23
f 8 23 9
f 9 23 10
f 10 23 11
f 11 23 22
f 11 22 24
f 11 24 12
f 12 24 38
f 12 38 39
f 12 39 25
f 13 26 27
f 13 25 28
f 13 28 26
f 14 29 47
f 14 47 30
f 14 30 31
f 14 31 15
f 15 31 30
f 15 30 47
f 15 47 50
f 15 50 53
f 15 53 35
f 15 35 18
f 16 32 52
f 16 52 33
f 16 18 32
f 17 33 34
f 17 34 19
f 18 35 32
f 19 34 20
f 20 34 36
f 20 36 37
f 20 37 21
f 21 37 38
f 21 38 24
f 21 24 22
f 25 39 40
f 25 40 28
f 26 41 42
f 26 42 43
f 26 43 27
f 26 28 44
f 26 44 41
f 28 40 45
f 28 45 46
f 28 46 44
f 29 43 41
f 29 41 48
f 29 48 49
f 29 49 50
f 29 50 47
f 32 51 54
f 32 54 52
f 32 35 51
f 33 52 34
f 34 52 36
f 35 53 51
f 36 52 54
f 36 54 55
f 36 55 37
f 37 55 40
f 37 40 38
f 38 40 39
f 40 55 46
f 40 46 45
f 41 43 42
f 41 44 48
f 44 56 49
f 44 49 48
f 44 46 56
f 46 55 54
f 46 54 51
f 46 51 56
f 49 56 57
f 49 57 50
f 50 57 51
f 50 51 53
f 51 57 56

