# https://github.com/mikedh/trimesh
v 0.20327043 2.89182246 -0.95023413
v 0.20327043 2.93668628 -0.95023413
v 0.20382738 2.89129534 -0.95023413
v -0.13730684 2.88676142 -0.86490080
v 0.26383915 2.94666324 -0.95023413
v -0.13730684 2.93754275 -0.86429563
v 0.26432649 2.87555880 -0.95023413
v -0.13730684 2.87905131 -0.79705781
v 0.20389699 2.81747591 -0.85624643
v 0.26432649 2.94672915 -0.95023413
v -0.13730684 2.93921656 -0.84589754
v 0.26474420 2.87571696 -0.95023413
v 0.57378398 2.89176981 -0.86054340
v 0.26648468 2.81747591 -0.87010557
v -0.13730684 2.90610926 -0.74676560
v 0.18147960 2.81747591 -0.79705781
v 0.18029608 2.81747591 -0.72122610
v 0.18224541 2.81747591 -0.33208188
v 0.26432649 2.95130244 -0.87385780
v 0.57378398 2.93667300 -0.86054340
v 0.31535736 2.92855433 -0.95023413
v -0.13730684 2.94079814 -0.79705781
v 0.31577510 2.90239268 -0.95023413
v 0.57378398 2.89120310 -0.79705781
v 0.33540770 2.81747591 -0.80074950
v 0.31932566 2.81747591 -0.84753155
v 0.31702826 2.81747591 -0.84983133
v -0.13730684 2.90985240 -0.74676560
v 0.18377705 2.88001353 -0.33208188
v 0.31709787 2.81747591 -0.33208188
v 0.26432649 2.95210650 -0.79705781
v 0.57378398 2.93701564 -0.79705781
v 0.31577510 2.92814578 -0.95023413
v -0.13730684 2.93775378 -0.78053580
v 0.20577671 2.93667300 -0.33208188
v 0.26105437 2.94523982 -0.33208188
v 0.26432649 2.94574061 -0.33208188
v 0.57378398 2.89199389 -0.79590791
v -0.13730684 2.92371737 -0.74888379
v 0.57378398 2.91782595 -0.75844599
v 0.57378398 2.91874858 -0.75844599
v 0.31688901 2.88001353 -0.33208188
v 0.30714231 2.92848841 -0.33208188
v 0.30964859 2.92747355 -0.33208188
v 0.31006630 2.92482447 -0.33208188
f 1 2 5
f 1 5 10
f 1 10 21
f 1 21 33
f 1 33 23
f 1 23 12
f 1 12 7
f 1 7 3
f 1 3 4
f 1 4 2
f 2 4 6
f 2 6 5
f 3 7 4
f 4 8 15
f 4 15 28
f 4 28 39
f 4 39 34
f 4 34 22
f 4 22 11
f 4 11 6
f 4 7 9
f 4 9 8
f 5 6 10
f 6 11 10
f 7 12 13
f 7 13 14
f 7 14 9
f 8 9 16
f 8 16 17
f 8 17 18
f 8 18 15
f 9 14 27
f 9 27 26
f 9 26 25
f 9 25 30
f 9 30 18
f 9 18 17
f 9 17 16
f 10 11 19
f 10 19 20
f 10 20 21
f 11 22 19
f 12 23 13
f 13 20 32
f 13 32 41
f 13 41 40
f 13 40 38
f 13 38 24
f 13 24 25
f 13 25 26
f 13 26 27
f 13 27 14
f 13 23 33
f 13 33 20
f 15 18 28
f 18 29 28
f 18 30 42
f 18 42 45
f 18 45 44
f 18 44 43
f 18 43 37
f 18 37 36
f 18 36 35
f 18 35 29
f 19 22 31
f 19 31 20
f 20 33 21
f 20 31 32
f 22 34 35
f 22 35 36
f 22 36 37
f 22 37 31
f 24 38 30
f 24 30 25
f 28 29 39
f 29 35 39
f 30 38 40
f 30 40 41
f 30 41 42
f 31 37 32
f 32 37 43
f 32 43 44
f 32 44 41
f 34 39 35
f 41 44 45
f 41 45 42

