# https://github.com/mikedh/trimesh
v -0.92227563 2.89178721 -0.86057241
v -0.92227563 2.89146723 -0.82575759
v -0.92227563 2.93667666 -0.86057241
v -0.42750380 2.89153933 -0.86057241
v -0.92227563 2.89120562 -0.79711186
v -0.92227563 2.93701953 -0.79711186
v -0.42750380 2.93667666 -0.86057241
v -0.42750380 2.89096667 -0.79761179
v -0.92227563 2.91782550 -0.75848758
v -0.42750380 2.89096209 -0.79711186
v -0.92227563 2.91874537 -0.75848758
v -0.42750380 2.91874537 -0.75844759
v -0.42750380 2.93701953 -0.79711186
v -0.42750380 2.91761813 -0.75874757
v -0.50370077 2.91782550 -0.75848758
f 1 2 5
f 1 5 9
f 1 9 11
f 1 11 6
f 1 6 3
f 1 3 7
f 1 7 4
f 1 4 2
f 2 4 5
f 3 6 13
f 3 13 7
f 4 7 13
f 4 13 12
f 4 12 14
f 4 14 10
f 4 10 8
f 4 8 5
f 5 8 10
f 5 10 9
f 6 11 12
f 6 12 13
f 9 10 14
f 9 14 15
f 9 15 12
f 9 12 11
f 12 15 14

