# https://github.com/mikedh/trimesh
v 0.26432761 -2.94582745 0.58343214
v 0.31107793 -2.92794582 0.58343214
v 0.33845338 -2.81729174 0.79276680
v 0.26434369 -2.81729174 0.79276680
v 0.25075234 -2.81729174 0.79146458
v 0.20806658 -2.81729174 0.78527893
v 0.20531939 -2.93664425 0.58343214
v 0.20576922 -2.93664425 -0.33187778
v 0.26432761 -2.94570614 -0.33187778
v 0.31209005 -2.92752147 0.58343214
v 0.30969632 -2.92743061 -0.33187778
v 0.33845338 -2.80316813 0.79292965
v 0.32511909 -2.87999873 0.58343214
v 0.33845338 -2.81729174 0.60296572
v 0.26434369 -2.80316813 0.79292965
v 0.26434369 -2.72639841 0.79292965
v 0.21462125 -2.72639841 0.78479061
v 0.19942338 -2.81729174 0.77290775
v 0.17930950 -2.81729174 0.73888675
v 0.18375962 -2.88124133 0.58343214
v 0.18374356 -2.87999873 -0.33187778
v 0.17773509 -2.81729174 -0.73850133
v 0.18151046 -2.81729174 -0.79710201
v 0.18647468 -2.81729174 -0.81321719
v 0.20390563 -2.81729174 -0.85619104
v 0.22340903 -2.81729174 -0.86270227
v 0.26648039 -2.81729174 -0.87002729
v 0.31870900 -2.81729174 -0.84919152
v 0.31939982 -2.81729174 -0.84723813
v 0.33533669 -2.81729174 -0.80068316
v 0.33845338 -2.72639841 0.79292965
v 0.33845338 -2.80753245 0.60198908
v 0.33845338 -2.67408677 0.78527893
v 0.26434369 -2.67217744 0.78479061
v 0.21839663 -2.67748132 0.78234890
v 0.18186391 -2.72639841 0.66205477
v 0.17432923 -2.81729174 0.66189204
v 0.18327765 -2.87999873 0.58343214
v 0.19254740 -2.72639841 0.73888675
v 0.18205668 -2.72639841 -0.64343800
v 0.18245833 -2.72639841 -0.72027004
v 0.19881290 -2.72639841 -0.79710201
v 0.22228446 -2.68275499 -0.83763413
v 0.24416552 -2.68275499 -0.83763413
v 0.29167092 -2.72639841 -0.82916962
v 0.30752749 -2.67808763 -0.78017294
v 0.30995335 -2.67311700 -0.72027004
v 0.33845338 -2.64390023 0.73888675
v 0.33845338 -2.65744775 0.66091528
v 0.33845338 -2.65850861 0.65700861
v 0.33845338 -2.70136400 0.61517427
v 0.33845338 -2.72639841 0.60443079
v 0.33845338 -2.80316813 0.60182634
v 0.33845338 -2.67217744 0.78479061
v 0.26434369 -2.64377892 0.73888675
v 0.20927148 -2.66614617 0.73888675
v 0.20393776 -2.66011491 0.66205477
v 0.20393776 -2.66011491 -0.72027004
v 0.18191210 -2.72639841 -0.56660602
v 0.21217931 -2.67011659 -0.79710201
v 0.26758889 -2.66772225 -0.80231096
v 0.26434369 -2.64523370 -0.72027004
v 0.26434369 -2.63620202 0.66205477
f 1 2 3
f 1 3 4
f 1 4 5
f 1 5 6
f 1 6 7
f 1 7 8
f 1 8 9
f 1 9 2
f 2 10 3
f 2 9 11
f 2 11 10
f 3 12 15
f 3 15 4
f 3 10 13
f 3 13 14
f 3 14 32
f 3 32 53
f 3 53 52
f 3 52 51
f 3 51 50
f 3 50 49
f 3 49 48
f 3 48 54
f 3 54 33
f 3 33 31
f 3 31 12
f 4 15 5
f 5 15 16
f 5 16 6
f 6 16 17
f 6 17 18
f 6 18 7
f 7 18 19
f 7 19 20
f 7 20 8
f 8 20 21
f 8 21 22
f 8 22 23
f 8 23 24
f 8 24 25
f 8 25 9
f 9 25 26
f 9 26 27
f 9 27 28
f 9 28 11
f 10 11 13
f 11 28 29
f 11 29 30
f 11 30 13
f 12 31 16
f 12 16 15
f 13 30 14
f 14 30 32
f 16 33 34
f 16 34 35
f 16 35 17
f 16 31 33
f 17 35 19
f 17 19 18
f 19 36 37
f 19 37 38
f 19 38 20
f 19 35 39
f 19 39 36
f 20 38 21
f 21 38 37
f 21 37 22
f 22 40 41
f 22 41 23
f 22 37 40
f 23 41 42
f 23 42 24
f 24 42 43
f 24 43 25
f 25 43 26
f 26 43 27
f 27 43 44
f 27 44 28
f 28 44 45
f 28 45 46
f 28 46 29
f 29 46 30
f 30 46 47
f 30 47 48
f 30 48 49
f 30 49 50
f 30 50 51
f 30 51 52
f 30 52 53
f 30 53 32
f 33 54 34
f 34 54 55
f 34 55 35
f 35 55 56
f 35 56 39
f 36 39 56
f 36 56 57
f 36 57 58
f 36 58 59
f 36 59 37
f 37 59 40
f 40 59 58
f 40 58 41
f 41 60 42
f 41 58 60
f 42 60 43
f 43 60 61
f 43 61 44
f 44 61 46
f 44 46 45
f 46 61 62
f 46 62 47
f 47 62 48
f 48 55 54
f 48 62 63
f 48 63 55
f 55 63 57
f 55 57 56
f 57 63 58
f 58 62 60
f 58 63 62
f 60 62 61

