# https://github.com/mikedh/trimesh
v -0.42679012 -2.89156070 -0.86059599
v -0.42688714 -2.89152019 -0.86057596
v -0.42679012 -2.89093379 -0.79718144
v -0.42679012 -2.93666668 -0.86052595
v -0.42688714 -2.93666210 -0.86057596
v -0.92232472 -2.93666210 -0.86057596
v -0.92232472 -2.89176830 -0.86057596
v -0.42688714 -2.89094295 -0.79711143
v -0.42679012 -2.91774913 -0.75849256
v -0.92232472 -2.89150668 -0.83192942
v -0.92232472 -2.89119106 -0.79711143
v -0.42679012 -2.93700954 -0.79711143
v -0.92232472 -2.93700039 -0.79711143
v -0.92232472 -2.91781231 -0.75849256
v -0.42688714 -2.91781231 -0.75844255
v -0.42679012 -2.91873699 -0.75841254
v -0.92232472 -2.91873264 -0.75849256
f 1 2 3
f 1 3 9
f 1 9 16
f 1 16 12
f 1 12 4
f 1 4 5
f 1 5 6
f 1 6 7
f 1 7 2
f 2 7 3
f 3 8 9
f 3 7 10
f 3 10 11
f 3 11 8
f 4 12 6
f 4 6 5
f 6 13 17
f 6 17 14
f 6 14 11
f 6 11 10
f 6 10 7
f 6 12 13
f 8 11 14
f 8 14 9
f 9 15 16
f 9 14 15
f 12 16 13
f 13 16 17
f 14 17 16
f 14 16 15

