# https://github.com/mikedh/trimesh
v -0.27327288 -2.95209148 -0.79671114
v -0.27327288 -2.95036823 -1.41070736
v -0.19647177 -2.94764729 -0.79671114
v -0.27327288 -2.94577274 0.58326643
v -0.42679012 -2.93697498 -0.79671114
v -0.42679012 -2.93664242 -0.86020105
v -0.34690111 -2.93652134 -1.41070736
v -0.19573520 -2.94030064 -1.41070736
v -0.13737656 -2.94075405 -0.79671114
v -0.21431932 -2.93664242 0.58326643
v -0.19108918 -2.81722148 0.58502458
v -0.19378047 -2.81728190 0.58502458
v -0.33721242 -2.81728190 0.58502458
v -0.32100799 -2.92748165 0.58326643
v -0.33381290 -2.88104358 0.58326643
v -0.33398287 -2.87998546 0.58326643
v -0.42679012 -2.91871410 -0.75822649
v -0.42679012 -2.89150417 -0.86039640
v -0.34690111 -2.89117160 -1.41070736
v -0.19573520 -2.88645526 -1.41070736
v -0.13737656 -2.92125377 -0.86469417
v -0.13737656 -2.93748882 -0.86410807
v -0.13737656 -2.92367237 -0.74865416
v -0.19219402 -2.87998546 0.58326643
v -0.19080588 -2.80313265 0.58502458
v -0.33792067 -2.80340479 0.58502458
v -0.42679012 -2.91771640 -0.75822649
v -0.42679012 -2.89089969 -0.79671114
v -0.31885496 -2.67316049 -0.72013254
v -0.31641862 -2.67811875 -0.77991073
v -0.27327288 -2.87106662 -1.41070736
v -0.27655910 -2.66771836 -0.80198567
v -0.22111838 -2.67013719 -0.79690649
v -0.21284618 -2.66016023 -0.72013254
v -0.13737656 -2.88669719 -0.86469417
v -0.13737656 -2.90604641 -0.74650528
v -0.19083421 -2.72643114 0.58502458
v -0.33636256 -2.72667307 0.58502458
v -0.32324603 -2.67131616 0.58502458
v -0.27327288 -2.64522500 -0.72013254
v -0.23120366 -2.68274423 -0.83754003
v -0.27327288 -2.64322961 0.58502458
v -0.21284618 -2.66016023 0.58502458
v -0.13737656 -2.87904819 -0.79671114
v -0.13737656 -2.88116443 -0.83851678
v -0.13737656 -2.88678783 -0.77522222
f 1 2 3
f 1 3 4
f 1 4 5
f 1 5 2
f 2 5 6
f 2 6 7
f 2 7 19
f 2 19 31
f 2 31 20
f 2 20 8
f 2 8 9
f 2 9 3
f 3 9 4
f 4 9 10
f 4 10 11
f 4 11 12
f 4 12 13
f 4 13 14
f 4 14 5
f 5 14 15
f 5 15 16
f 5 16 17
f 5 17 27
f 5 27 28
f 5 28 18
f 5 18 6
f 6 18 7
f 7 18 19
f 8 20 35
f 8 35 21
f 8 21 22
f 8 22 9
f 9 23 24
f 9 24 10
f 9 22 21
f 9 21 35
f 9 35 45
f 9 45 44
f 9 44 46
f 9 46 36
f 9 36 23
f 10 24 11
f 11 25 37
f 11 37 43
f 11 43 42
f 11 42 39
f 11 39 38
f 11 38 26
f 11 26 13
f 11 13 12
f 11 24 25
f 13 26 17
f 13 17 16
f 13 16 15
f 13 15 14
f 17 26 27
f 18 28 29
f 18 29 30
f 18 30 19
f 19 30 32
f 19 32 31
f 20 31 33
f 20 33 34
f 20 34 35
f 23 36 25
f 23 25 24
f 25 36 37
f 26 38 27
f 27 38 28
f 28 38 39
f 28 39 29
f 29 40 30
f 29 39 40
f 30 40 32
f 31 32 41
f 31 41 33
f 32 33 41
f 32 40 33
f 33 40 34
f 34 40 42
f 34 42 43
f 34 43 44
f 34 44 45
f 34 45 35
f 36 46 37
f 37 46 44
f 37 44 43
f 39 42 40

