# https://github.com/mikedh/trimesh
v -1.24421478 -2.88804714 -1.41052791
v -1.24421478 -2.93921368 -1.41052791
v -1.26102993 -2.88580066 -1.41052791
v -1.27646161 -2.89150783 -0.95133242
v -1.26584687 -2.94069683 -1.41052791
v -1.27646161 -2.93666096 -0.95133242
v -1.26584687 -2.88580066 -1.41052791
v -1.34169717 -2.89150783 -0.95133242
v -1.27067627 -2.94069683 -1.41052791
v -1.34215001 -2.93666096 -0.95133242
v -1.35370798 -2.88587047 -1.41052791
v -1.34215001 -2.89184657 -0.95133242
v -1.37268640 -2.88784274 -1.41052791
v -1.35798418 -2.94064854 -1.41052791
v -1.37268640 -2.93935879 -1.41052791
f 1 2 5
f 1 5 9
f 1 9 14
f 1 14 15
f 1 15 13
f 1 13 11
f 1 11 7
f 1 7 3
f 1 3 4
f 1 4 6
f 1 6 2
f 2 6 5
f 3 7 8
f 3 8 4
f 4 8 12
f 4 12 10
f 4 10 6
f 5 6 10
f 5 10 9
f 7 11 8
f 8 11 13
f 8 13 12
f 9 10 14
f 10 12 13
f 10 13 15
f 10 15 14

