# https://github.com/mikedh/trimesh
v 2.64686311 -2.88652667 -1.41111316
v 2.64686311 -2.94025486 -1.41111316
v 2.56810166 -2.87033008 -1.41111316
v 2.56835618 -2.87415813 -0.95133248
v 2.62897782 -2.89156253 -0.95133248
v 2.56835618 -2.95095806 -1.41111316
v 2.62897782 -2.93664768 -0.95133248
v 2.56835618 -2.94768230 -0.95133248
v 2.49384872 -2.89045749 -1.41111316
v 2.51643776 -2.90079746 -0.95133248
v 2.49408859 -2.93716083 -1.41111316
v 2.51607819 -2.92942554 -0.95133248
v 2.51607819 -2.90119983 -0.95133248
v 2.49408859 -2.93715305 -1.41102310
f 1 2 6
f 1 6 11
f 1 11 9
f 1 9 3
f 1 3 4
f 1 4 5
f 1 5 7
f 1 7 2
f 2 7 8
f 2 8 6
f 3 9 4
f 4 10 13
f 4 13 12
f 4 12 8
f 4 8 7
f 4 7 5
f 4 9 10
f 6 8 11
f 8 12 11
f 9 13 10
f 9 11 14
f 9 14 12
f 9 12 13
f 11 12 14

