# https://github.com/mikedh/trimesh
v 2.56835320 2.63737129 0.63997488
v 2.62501840 2.65107651 0.63997488
v 2.67155969 2.81743677 0.64071474
v 2.47034645 2.81743677 0.64071474
v 2.49955543 2.66083557 0.63997488
v 2.56835320 2.64376510 -0.72021130
v 2.64144456 2.65609360 0.63997488
v 2.62749993 2.66059067 -0.72021130
v 2.66858560 2.87797854 0.64071474
v 2.47548713 2.87999773 0.64086283
v 2.66955080 2.72642510 0.63997488
v 2.65420770 2.81743677 -0.73841416
v 2.47349769 2.72676156 0.63997488
v 2.49624649 2.81743677 -0.80160638
v 2.52149673 2.67123688 -0.72021130
v 2.52431313 2.67683510 -0.78236754
v 2.56309441 2.66716804 -0.80367828
v 2.61975938 2.67034973 -0.79701867
v 2.64827920 2.72642510 -0.72021130
v 2.66846750 2.87999773 0.64071474
v 2.64067643 2.93931590 0.64071474
v 2.56835320 2.94990077 0.64071474
v 2.51432747 2.93983592 0.64071474
v 2.50099327 2.93487994 0.64071474
v 2.52175262 2.92876147 -0.33188265
v 2.65101686 2.81743677 -0.79701867
v 2.62620011 2.93665446 -0.33188265
v 2.64695947 2.87999773 -0.33188265
v 2.51298805 2.81743677 -0.85029545
v 2.53599297 2.72642510 -0.83268453
v 2.58513413 2.68277001 -0.83771621
v 2.61022668 2.68277001 -0.83771621
v 2.63277841 2.72642510 -0.79701867
v 2.56835320 2.94702510 -0.33188265
v 2.64597482 2.81743677 -0.81329767
v 2.62864228 2.81743677 -0.85621507
v 2.56492615 2.81743677 -0.87101423
v 2.60884789 2.81743677 -0.86317068
f 1 2 3
f 1 3 4
f 1 4 5
f 1 5 6
f 1 6 2
f 2 7 3
f 2 6 8
f 2 8 7
f 3 9 10
f 3 10 4
f 3 7 11
f 3 11 12
f 3 12 9
f 4 13 5
f 4 10 14
f 4 14 13
f 5 13 15
f 5 15 6
f 6 15 16
f 6 16 17
f 6 17 18
f 6 18 8
f 7 8 11
f 8 18 19
f 8 19 11
f 9 20 10
f 9 12 20
f 10 20 21
f 10 21 22
f 10 22 23
f 10 23 24
f 10 24 25
f 10 25 14
f 11 19 12
f 12 19 26
f 12 26 27
f 12 27 28
f 12 28 20
f 13 14 15
f 14 29 16
f 14 16 15
f 14 25 29
f 16 29 30
f 16 30 31
f 16 31 17
f 17 31 32
f 17 32 18
f 18 32 33
f 18 33 19
f 19 33 26
f 20 28 27
f 20 27 21
f 21 27 34
f 21 34 22
f 22 34 23
f 23 34 24
f 24 34 25
f 25 34 29
f 26 33 35
f 26 35 27
f 27 35 36
f 27 36 34
f 29 37 30
f 29 34 37
f 30 37 31
f 31 37 32
f 32 37 38
f 32 38 36
f 32 36 35
f 32 35 33
f 34 36 38
f 34 38 37

