# https://github.com/mikedh/trimesh
v -1.26488430 2.94029941 -1.40545154
v -1.26488430 2.88650393 -1.40545154
v -1.26546841 2.94034152 -1.40545154
v -1.27637314 2.93669589 -0.95029467
v -1.27634694 2.93628962 -0.95029467
v -1.26546841 2.88644602 -1.40545154
v -1.27634694 2.89141070 -0.95029467
v -1.35392633 2.94030467 -1.40545154
v -1.34224592 2.93669589 -0.95029467
v -1.35348184 2.88649866 -1.40545154
v -1.34226331 2.89141070 -0.95029467
v -1.35392633 2.88680994 -1.40545154
f 1 2 6
f 1 6 10
f 1 10 12
f 1 12 8
f 1 8 3
f 1 3 4
f 1 4 5
f 1 5 7
f 1 7 2
f 2 7 6
f 3 8 9
f 3 9 4
f 4 9 11
f 4 11 7
f 4 7 5
f 6 7 11
f 6 11 10
f 8 11 9
f 8 12 11
f 10 11 12

