# https://github.com/mikedh/trimesh
v -0.33595784 2.78952050 0.57163717
v -0.33595784 2.80319894 0.57163717
v -0.33465544 2.72641480 0.57163717
v -0.92238744 2.72641480 0.65766287
v -0.33537900 2.81490831 0.57163717
v -0.92238744 2.80319894 0.65766287
v -0.33335310 2.71692307 0.57163717
v -0.92238744 2.66032837 0.67908805
v -0.32249998 2.67148773 0.57163717
v -0.27329923 2.64358062 0.57163717
v -0.33523428 2.81744524 0.57163717
v -0.92238744 2.81744524 0.65794451
v -0.92238744 2.65165306 0.71182158
v -0.21288360 2.66011551 0.57163717
v -0.27329923 2.63621795 0.66210387
v -0.92238744 2.64448539 0.73887931
v -0.19117739 2.81744524 0.57163717
v -0.92238744 2.81744524 0.79286476
v -0.21288360 2.66011551 0.66210387
v -0.19088797 2.72641480 0.57163717
v -0.19081561 2.72641480 0.66210387
v -0.27329923 2.64377586 0.73887931
v -0.92238744 2.65965431 0.76420394
v -0.18329078 2.81744524 0.66195223
v -0.19081561 2.80319894 0.57163717
v -0.92238744 2.80319894 0.79292965
v -0.27329923 2.81744524 0.79286476
v -0.21823780 2.66614769 0.73887931
v -0.18821088 2.81744524 0.73887931
v -0.20152402 2.72641480 0.73887931
v -0.22735440 2.67746658 0.78248794
v -0.27329923 2.67217964 0.78510921
v -0.92238744 2.67217964 0.78510921
v -0.92238744 2.72641480 0.79292965
v -0.27329923 2.80319894 0.79292965
v -0.25955195 2.81744524 0.79173820
v -0.20825295 2.81744524 0.77282604
v -0.22359201 2.72641480 0.78510921
v -0.27329923 2.72641480 0.79292965
v -0.21693541 2.81744524 0.78534748
f 1 2 5
f 1 5 11
f 1 11 17
f 1 17 25
f 1 25 20
f 1 20 14
f 1 14 10
f 1 10 9
f 1 9 7
f 1 7 3
f 1 3 4
f 1 4 6
f 1 6 2
f 2 6 5
f 3 7 4
f 4 8 13
f 4 13 16
f 4 16 23
f 4 23 33
f 4 33 34
f 4 34 26
f 4 26 18
f 4 18 12
f 4 12 6
f 4 7 9
f 4 9 10
f 4 10 8
f 5 6 11
f 6 12 11
f 8 10 13
f 10 14 15
f 10 15 16
f 10 16 13
f 11 12 18
f 11 18 27
f 11 27 36
f 11 36 40
f 11 40 37
f 11 37 29
f 11 29 24
f 11 24 17
f 14 19 15
f 14 20 21
f 14 21 19
f 15 19 22
f 15 22 16
f 16 22 23
f 17 24 25
f 18 26 35
f 18 35 27
f 19 28 22
f 19 21 28
f 20 25 24
f 20 24 21
f 21 24 29
f 21 29 30
f 21 30 28
f 22 28 31
f 22 31 32
f 22 32 33
f 22 33 23
f 26 34 39
f 26 39 35
f 27 35 36
f 28 30 31
f 29 37 38
f 29 38 31
f 29 31 30
f 31 38 39
f 31 39 32
f 32 39 34
f 32 34 33
f 35 39 36
f 36 39 40
f 37 40 38
f 38 40 39

