# https://github.com/mikedh/trimesh
v -2.57722479 -2.63544556 0.66214690
v -2.57722479 -2.64230172 0.58526868
v -3.80582943 -2.64254868 0.58526868
v -3.80582943 -2.63621758 0.66214690
v -3.72858844 -2.64390755 0.73884212
v -2.57722479 -2.64328980 0.73884212
v -1.27210427 -2.64341340 0.73884212
v -0.27340975 -2.63621758 0.66210627
v -0.27340975 -2.64322800 0.58504484
v -2.65845496 -2.81747050 0.58510589
v -3.86493885 -2.66052255 0.58526868
v -3.86493885 -2.66046075 0.58530943
v -3.80582943 -2.64396935 0.73884212
v -3.86493885 -2.66046075 0.66214690
v -3.80582943 -2.67222734 0.78509525
v -0.80793254 -2.67219644 0.78507488
v -0.27340975 -2.67219644 0.78507488
v -0.27340975 -2.64378396 0.73886237
v -0.21321256 -2.66012109 0.66210627
v -0.21321256 -2.66012109 0.58504484
v -0.32345328 -2.67133172 0.58504484
v -2.65700431 -2.88013240 0.58510589
v -3.88597172 -2.81728533 0.58526868
v -3.88669682 -2.72645815 0.58526868
v -0.33650813 -2.72667421 0.58504484
v -0.33832133 -2.80344965 0.58504484
v -3.88669682 -2.72639635 0.58530943
v -3.85986180 -2.66635949 0.73884212
v -3.85115879 -2.67750833 0.78249058
v -3.88669682 -2.72639635 0.66214690
v -3.80582943 -2.72639635 0.79286854
v -0.80793254 -2.72642725 0.79292953
v -0.80793254 -2.67222734 0.78509525
v -0.27340975 -2.72642725 0.79292953
v -0.22735528 -2.67747743 0.78247020
v -0.21828939 -2.66614343 0.73886237
v -0.19109181 -2.72642725 0.66210627
v -0.19109181 -2.72642725 0.58504484
v -0.33759600 -2.81728533 0.58504484
v -2.63524634 -2.93661747 0.58510589
v -3.71335772 -2.93689556 0.66599291
v -3.71335772 -2.93911915 0.67936213
v -3.71335772 -2.94631496 0.73884212
v -3.88597172 -2.81728533 0.66214690
v -3.88669682 -2.80314089 0.58530943
v -2.57686224 -2.94696339 0.58510589
v -3.87618061 -2.72639635 0.73884212
v -3.85478520 -2.72639635 0.78509525
v -3.88669682 -2.80314089 0.66214690
v -3.81489521 -2.81728533 0.79146435
v -3.80582943 -2.80314089 0.79286854
v -0.80793254 -2.80317156 0.79292953
v -0.27340975 -2.80317156 0.79292953
v -0.21720151 -2.81728533 0.78531898
v -0.22372888 -2.72642725 0.78507488
v -0.18855340 -2.81728533 0.73886237
v -0.20160825 -2.72642725 0.73886237
v -0.18202592 -2.81728533 0.68229239
v -0.18782807 -2.81728533 0.60016409
v -0.19109181 -2.81722354 0.58504484
v -0.19399289 -2.81728533 0.58504484
v -2.57686224 -2.95094730 0.66214690
v -0.92288766 -2.94631496 0.73886237
v -2.48656629 -2.94316486 0.74679851
v -3.71335772 -2.92806301 0.78481029
v -3.85478520 -2.81728533 0.78507488
v -3.87581807 -2.81728533 0.73884212
v -1.27065384 -2.93887195 0.62922236
v -3.87618061 -2.80314089 0.73884212
v -3.85478520 -2.80314089 0.78509525
v -3.80582943 -2.81728533 0.79282780
v -3.71335772 -2.81728533 0.79284817
v -3.71335772 -2.87997791 0.79262432
v -0.27340975 -2.81728533 0.79284817
v -0.92288766 -2.87997791 0.79262432
v -0.92288766 -2.92803211 0.78481029
v -0.19109181 -2.81728533 0.58532968
v -0.92288766 -2.93661747 0.68068484
v -2.48692884 -2.92806301 0.78481029
v -2.48656629 -2.91975528 0.78617374
v -0.92288766 -2.90165782 0.78910389
f 1 2 3
f 1 3 4
f 1 4 5
f 1 5 6
f 1 6 7
f 1 7 8
f 1 8 2
f 2 8 9
f 2 9 3
f 3 10 11
f 3 11 12
f 3 12 4
f 3 9 10
f 4 13 5
f 4 12 14
f 4 14 13
f 5 13 15
f 5 15 6
f 6 15 16
f 6 16 17
f 6 17 7
f 7 17 18
f 7 18 8
f 8 18 19
f 8 19 20
f 8 20 9
f 9 20 38
f 9 38 60
f 9 60 61
f 9 61 39
f 9 39 26
f 9 26 25
f 9 25 21
f 9 21 10
f 10 22 23
f 10 23 24
f 10 24 11
f 10 21 25
f 10 25 26
f 10 26 22
f 11 24 27
f 11 27 12
f 12 27 30
f 12 30 14
f 13 14 28
f 13 28 29
f 13 29 15
f 14 30 28
f 15 29 31
f 15 31 32
f 15 32 34
f 15 34 33
f 15 33 17
f 15 17 16
f 17 34 35
f 17 35 18
f 17 33 34
f 18 35 36
f 18 36 19
f 19 36 37
f 19 37 38
f 19 38 20
f 22 26 39
f 22 39 40
f 22 40 23
f 23 41 42
f 23 42 43
f 23 43 44
f 23 44 49
f 23 49 45
f 23 45 24
f 23 40 46
f 23 46 41
f 24 45 49
f 24 49 30
f 24 30 27
f 28 30 47
f 28 47 29
f 29 48 31
f 29 47 48
f 30 49 69
f 30 69 47
f 31 48 50
f 31 50 51
f 31 51 52
f 31 52 32
f 32 52 53
f 32 53 34
f 34 53 54
f 34 54 55
f 34 55 35
f 35 55 56
f 35 56 57
f 35 57 36
f 36 57 37
f 37 56 58
f 37 58 38
f 37 57 56
f 38 58 59
f 38 59 60
f 39 61 46
f 39 46 40
f 41 46 42
f 42 46 43
f 43 62 63
f 43 63 64
f 43 64 65
f 43 65 66
f 43 66 67
f 43 67 44
f 43 46 62
f 44 67 49
f 46 68 63
f 46 63 62
f 46 61 60
f 46 60 68
f 47 69 70
f 47 70 48
f 48 70 50
f 49 67 69
f 50 71 51
f 50 70 66
f 50 66 65
f 50 65 71
f 51 71 72
f 51 72 52
f 52 72 73
f 52 73 75
f 52 75 53
f 53 74 54
f 53 75 74
f 54 56 55
f 54 74 76
f 54 76 63
f 54 63 56
f 56 63 58
f 58 63 59
f 59 63 77
f 59 77 60
f 60 77 78
f 60 78 68
f 63 78 77
f 63 76 79
f 63 79 64
f 63 68 78
f 64 79 65
f 65 79 80
f 65 80 73
f 65 73 71
f 66 69 67
f 66 70 69
f 71 73 72
f 73 80 75
f 74 75 81
f 74 81 76
f 75 80 81
f 76 81 80
f 76 80 79

