# https://github.com/mikedh/trimesh
v 3.79708166 -2.95231945 -0.79692964
v 3.64316341 -2.93696400 -0.79733124
v 3.79710455 -2.95075001 -1.41100742
v 3.85518583 -2.93665638 -1.41100742
v 3.85518583 -2.93665638 -0.95115189
v 3.85518583 -2.93662548 0.64047030
v 3.79710455 -2.94961155 0.64047030
v 3.73013577 -2.93459461 0.64047030
v 3.70487317 -2.88034274 0.64047030
v 3.64316341 -2.91877750 -0.75857487
v 3.64316341 -2.93662548 -0.86038565
v 3.72310818 -2.93699489 -1.41100742
v 3.85518583 -2.89197475 -1.41100742
v 3.87778426 -2.80316538 -0.72022011
v 3.87629149 -2.88000423 -0.72022011
v 3.87629149 -2.88000423 0.64047030
v 3.86113402 -2.92068546 0.64047030
v 3.70071621 -2.81728991 0.64047030
v 3.64316341 -2.91776195 -0.75837406
v 3.64316341 -2.89145152 -0.86038565
v 3.72290150 -2.89065158 -1.41100742
v 3.79687498 -2.87055713 -1.41100742
v 3.84875517 -2.67029008 -0.79692964
v 3.85665571 -2.66044289 -0.72022011
v 3.87778426 -2.72641901 -0.72022011
v 3.87778426 -2.80316538 0.63986788
v 3.87665907 -2.86234073 0.64047030
v 3.87748579 -2.81728991 0.64047030
v 3.79712766 -2.63797906 0.63986788
v 3.74244550 -2.65339585 0.63986788
v 3.72848210 -2.66099679 0.63986788
v 3.70246167 -2.72641901 0.63986788
v 3.70092290 -2.80316538 0.63986788
v 3.64316341 -2.89086696 -0.79692964
v 3.75064427 -2.67173638 -0.72022011
v 3.75335446 -2.67715219 -0.78166805
v 3.79246557 -2.66730500 -0.80315474
v 3.83908674 -2.68275293 -0.83769413
v 3.79712766 -2.64413346 -0.72022011
v 3.81419126 -2.64314881 0.63986788
v 3.85665571 -2.66044289 0.63986788
v 3.87778426 -2.72641901 0.63986788
f 1 2 3
f 1 3 4
f 1 4 5
f 1 5 6
f 1 6 7
f 1 7 2
f 2 7 8
f 2 8 9
f 2 9 10
f 2 10 19
f 2 19 34
f 2 34 20
f 2 20 11
f 2 11 3
f 3 11 12
f 3 12 21
f 3 21 22
f 3 22 13
f 3 13 4
f 4 13 25
f 4 25 14
f 4 14 15
f 4 15 16
f 4 16 5
f 5 16 17
f 5 17 6
f 6 17 16
f 6 16 27
f 6 27 28
f 6 28 18
f 6 18 9
f 6 9 8
f 6 8 7
f 9 18 10
f 10 18 19
f 11 20 21
f 11 21 12
f 13 22 23
f 13 23 24
f 13 24 25
f 14 25 42
f 14 42 26
f 14 26 27
f 14 27 15
f 15 27 16
f 18 28 29
f 18 29 30
f 18 30 31
f 18 31 32
f 18 32 33
f 18 33 19
f 19 33 32
f 19 32 34
f 20 34 32
f 20 32 31
f 20 31 35
f 20 35 36
f 20 36 21
f 21 36 37
f 21 37 22
f 22 37 38
f 22 38 23
f 23 38 37
f 23 37 39
f 23 39 24
f 24 39 29
f 24 29 40
f 24 40 41
f 24 41 42
f 24 42 25
f 26 42 28
f 26 28 27
f 28 42 41
f 28 41 40
f 28 40 29
f 29 39 30
f 30 39 31
f 31 39 35
f 35 39 36
f 36 39 37

