# https://github.com/mikedh/trimesh
v 1.49135842 2.91875407 -0.75796674
v 1.49135842 2.91710200 -0.75796674
v 1.49135842 2.93661303 -0.79572377
v 1.37024421 2.88155482 0.58357668
v 1.37699646 2.81743883 0.58357668
v 1.37237476 2.72643448 0.57150991
v 1.49135842 2.89052698 -0.79708616
v 1.49135842 2.93704036 -0.79689153
v 1.36935924 2.88314989 0.58357668
v 1.22254709 2.81743883 0.58357668
v 1.25929110 2.66174881 0.57150991
v 1.34228469 2.66237549 0.57150991
v 1.35061027 2.67938004 0.57150991
v 1.49135842 2.89166636 -0.86053362
v 1.33405742 2.65790359 -0.72020967
v 1.33953136 2.94880397 -0.79689153
v 1.33261524 2.93661303 0.58357668
v 1.49135842 2.93672702 -0.85878198
v 1.22372709 2.82908846 0.58357668
v 1.15649969 2.92049151 -0.75212802
v 1.15649969 2.89964175 -0.74765166
v 1.15649969 2.88890353 -0.76302694
v 1.22821764 2.72643448 0.57150991
v 1.26748553 2.65790359 -0.72020967
v 1.26748553 2.65790359 0.50825715
v 1.33405742 2.65790359 0.50825715
v 1.15649969 2.87486117 -0.79864313
v 1.34487415 2.88653941 -1.40470241
v 1.49135842 2.93661303 -0.86053362
v 1.32238845 2.66904053 -0.79689153
v 1.34487415 2.94025889 -1.40470241
v 1.26276553 2.94888934 -0.79689153
v 1.26833777 2.93661303 0.58357668
v 1.23057764 2.88374796 0.58357668
v 1.15649969 2.93877780 -0.79689153
v 1.27935111 2.66904053 -0.79689153
v 1.15649969 2.87511751 -0.82413888
v 1.25666880 2.88648241 -1.40470241
v 1.25722613 2.88648241 -1.40470241
v 1.30747451 2.68274094 -0.83756795
v 1.25666880 2.94028727 -1.40470241
v 1.15649969 2.93661303 -0.86384222
v 1.29456008 2.68274094 -0.83756795
v 1.15649969 2.89007128 -0.86384222
f 1 2 7
f 1 7 14
f 1 14 29
f 1 29 18
f 1 18 8
f 1 8 3
f 1 3 4
f 1 4 5
f 1 5 2
f 2 5 6
f 2 6 7
f 3 8 4
f 4 9 17
f 4 17 33
f 4 33 34
f 4 34 19
f 4 19 10
f 4 10 5
f 4 8 9
f 5 10 11
f 5 11 12
f 5 12 13
f 5 13 6
f 6 13 7
f 7 13 12
f 7 12 15
f 7 15 14
f 8 16 17
f 8 17 9
f 8 18 16
f 10 19 20
f 10 20 21
f 10 21 22
f 10 22 23
f 10 23 11
f 11 24 25
f 11 25 26
f 11 26 12
f 11 23 27
f 11 27 24
f 12 26 15
f 14 28 31
f 14 31 29
f 14 15 28
f 15 26 25
f 15 25 24
f 15 24 36
f 15 36 30
f 15 30 28
f 16 18 31
f 16 31 32
f 16 32 17
f 17 32 33
f 18 29 31
f 19 34 20
f 20 34 35
f 20 35 42
f 20 42 44
f 20 44 37
f 20 37 27
f 20 27 22
f 20 22 21
f 22 27 23
f 24 27 37
f 24 37 38
f 24 38 36
f 28 39 38
f 28 38 41
f 28 41 31
f 28 30 40
f 28 40 39
f 30 36 43
f 30 43 40
f 31 41 32
f 32 41 35
f 32 35 33
f 33 35 34
f 35 41 42
f 36 38 43
f 37 44 38
f 38 39 40
f 38 40 43
f 38 44 42
f 38 42 41

