# https://github.com/mikedh/trimesh
v 0.34122422 -2.89115947 -1.41180919
v 0.34122422 -2.93670605 -1.41180919
v 0.34122422 -2.89054515 -1.41409183
v 0.31563631 -2.90253444 -0.95134455
v 0.34122422 -2.94636257 -1.48827748
v 0.31563631 -2.92840999 -0.95134455
v 0.34122422 -2.87618442 -1.48833458
v 0.26434131 -2.87569461 -0.95134455
v 0.26434131 -2.94668140 -0.95134455
v 0.26434131 -2.95042133 -1.41146679
v 0.16720272 -2.94636257 -1.48827748
v 0.34113905 -2.92809894 -1.53427266
v 0.34122422 -2.92812229 -1.53415845
v 0.34122422 -2.90281436 -1.53427266
v 0.34113905 -2.90277545 -1.53427266
v 0.16720272 -2.90277545 -1.53427266
v 0.16720272 -2.87615352 -1.48827748
v 0.34113905 -2.87615352 -1.48827748
v 0.20377876 -2.89143916 -0.95134455
v 0.26434131 -2.87099864 -1.41146679
v 0.26389837 -2.94661137 -0.95134455
v 0.16720272 -2.92809894 -1.53427266
v 0.20333583 -2.93665935 -0.95134455
v 0.16720272 -2.94186870 -1.43069801
v 0.16720272 -2.88781597 -1.41551845
v 0.20333583 -2.89189029 -0.95134455
v 0.16720272 -2.93937275 -1.41551845
f 1 2 5
f 1 5 13
f 1 13 14
f 1 14 7
f 1 7 3
f 1 3 4
f 1 4 6
f 1 6 2
f 2 6 5
f 3 7 4
f 4 8 19
f 4 19 26
f 4 26 23
f 4 23 21
f 4 21 9
f 4 9 6
f 4 7 8
f 5 6 9
f 5 9 10
f 5 10 11
f 5 11 22
f 5 22 12
f 5 12 13
f 7 14 15
f 7 15 16
f 7 16 17
f 7 17 18
f 7 18 8
f 8 18 20
f 8 20 17
f 8 17 19
f 9 21 11
f 9 11 10
f 11 21 23
f 11 23 24
f 11 24 27
f 11 27 25
f 11 25 17
f 11 17 16
f 11 16 22
f 12 22 16
f 12 16 15
f 12 15 14
f 12 14 13
f 17 25 26
f 17 26 19
f 17 20 18
f 23 26 25
f 23 25 27
f 23 27 24

