# https://github.com/mikedh/trimesh
v 0.26432335 2.64360557 0.57148147
v 0.30541047 2.66653610 0.57148147
v 0.32816408 2.81746217 0.58357668
v 0.18213396 2.81746217 0.58357668
v 0.25359969 2.64623886 0.57148147
v 0.26432335 2.64523292 -0.72014664
v 0.31355194 2.67150673 0.57148147
v 0.32810331 2.81885263 0.58357668
v 0.32568821 2.72642121 0.57148147
v 0.33540936 2.81743242 -0.80068662
v 0.18322759 2.87829416 0.58357668
v 0.18025048 2.81743242 -0.72114268
v 0.18189092 2.80317125 0.57148147
v 0.18189092 2.78956102 0.57148147
v 0.18192130 2.72642121 0.57148147
v 0.18584014 2.71461571 0.57148147
v 0.20394582 2.66011551 0.57148147
v 0.20394582 2.66011551 -0.72014664
v 0.21219362 2.67011604 -0.79698691
v 0.26757387 2.66774918 -0.80210958
v 0.30753699 2.67810471 -0.78005361
v 0.30993690 2.67313408 -0.72014664
v 0.32512621 2.88001009 0.58357668
v 0.31936946 2.81743242 -0.84750229
v 0.30969385 2.92746852 -0.33196095
v 0.32495913 2.88104578 0.58357668
v 0.18327315 2.88001009 0.58357668
v 0.18375921 2.88001009 -0.33196095
v 0.18145043 2.81743242 -0.79698691
v 0.18246813 2.72642121 -0.72014664
v 0.18207319 2.72642121 -0.64344867
v 0.18192130 2.72642121 -0.56660837
v 0.19882702 2.72642121 -0.79698691
v 0.22227932 2.68274986 -0.83754146
v 0.24418232 2.68274986 -0.83754146
v 0.29164895 2.72642121 -0.82914596
v 0.31701510 2.81743242 -0.84977903
v 0.26432335 2.94572413 -0.33196095
v 0.31209377 2.92755732 0.58357668
v 0.20532805 2.93664073 0.58357668
v 0.20576853 2.93664073 -0.33196095
v 0.20385468 2.81743242 -0.85604009
v 0.26648024 2.81743242 -0.87012743
v 0.26105766 2.94522105 -0.33196095
v 0.26432335 2.94581294 0.58357668
f 1 2 3
f 1 3 4
f 1 4 5
f 1 5 6
f 1 6 2
f 2 7 3
f 2 6 7
f 3 8 23
f 3 23 26
f 3 26 39
f 3 39 45
f 3 45 40
f 3 40 27
f 3 27 11
f 3 11 4
f 3 7 9
f 3 9 10
f 3 10 8
f 4 11 12
f 4 12 13
f 4 13 14
f 4 14 15
f 4 15 16
f 4 16 17
f 4 17 5
f 5 17 18
f 5 18 6
f 6 18 19
f 6 19 20
f 6 20 21
f 6 21 22
f 6 22 7
f 7 22 9
f 8 10 23
f 9 22 10
f 10 22 21
f 10 21 24
f 10 24 25
f 10 25 26
f 10 26 23
f 11 27 12
f 12 28 29
f 12 29 30
f 12 30 31
f 12 31 32
f 12 32 15
f 12 15 14
f 12 14 13
f 12 27 28
f 15 32 16
f 16 32 18
f 16 18 17
f 18 32 31
f 18 31 30
f 18 30 19
f 19 33 34
f 19 34 20
f 19 30 33
f 20 34 35
f 20 35 21
f 21 35 36
f 21 36 24
f 24 37 38
f 24 38 25
f 24 36 37
f 25 38 39
f 25 39 26
f 27 40 41
f 27 41 28
f 28 41 29
f 29 42 34
f 29 34 33
f 29 33 30
f 29 41 42
f 34 42 43
f 34 43 35
f 35 43 37
f 35 37 36
f 37 43 38
f 38 43 42
f 38 42 44
f 38 44 45
f 38 45 39
f 40 45 41
f 41 45 44
f 41 44 42

