# https://github.com/mikedh/trimesh
v -2.42311108 2.91780764 -0.75840258
v -2.42311108 2.89090098 -0.79712776
v -2.42311108 2.91887812 -0.75863038
v -2.48723485 2.92810252 0.78468120
v -2.48723485 2.88002474 0.79265407
v -2.48723485 2.81747591 0.79288181
v -2.42311108 2.89146929 -0.85999918
v -2.48723485 2.81747591 0.62978060
v -2.42311108 2.93699641 -0.79712776
v -2.48723485 2.94637942 0.73866657
v -2.73090500 2.92810252 0.78468120
v -2.73084458 2.88002474 0.79265407
v -2.73090500 2.81747591 0.79288181
v -2.42311108 2.89148234 -0.86045477
v -2.50518949 2.81747591 -0.80168366
v -2.42311108 2.93699641 -0.79758335
v -2.57724951 2.95099162 0.66189982
v -2.73090500 2.94637942 0.73866657
v -2.50069334 2.94637942 -1.48803029
v -2.57721930 2.95247180 -0.79712776
v -2.73090500 2.87991900 0.79265407
v -2.73135750 2.93854251 -0.79712776
v -2.73135750 2.92026560 -0.75612464
v -2.73135750 2.91516451 -0.75635243
v -2.73135750 2.88787470 -0.79712776
v -2.73090500 2.81747591 0.79174290
v -2.50069334 2.87625826 -1.48825802
v -2.50069334 2.90278155 -1.53427266
v -2.42311108 2.93630931 -0.86045477
v -2.51231092 2.81747591 -0.82264079
v -2.42371465 2.93665286 -0.86045477
v -2.65501258 2.94637942 -1.48803029
v -2.50069334 2.92810252 -1.53427266
v -2.57724951 2.95099162 -1.41126331
v -2.73135750 2.93665286 -0.86045477
v -2.73135750 2.88787470 -0.79758335
v -2.73090500 2.81754205 0.65666048
v -2.73084458 2.81747591 0.65666048
v -2.57724951 2.87617884 -1.48803029
v -2.65501258 2.87617884 -1.48803029
v -2.65501258 2.87653567 -1.48871350
v -2.65501258 2.90278155 -1.53427266
v -2.52193701 2.81747591 -0.85020401
v -2.52260099 2.81747591 -0.85065960
v -2.57386984 2.81747591 -0.87093338
v -2.65501258 2.92810252 -1.53427266
v -2.73135750 2.89091425 -0.86045477
v -2.65987106 2.81747591 -0.79712776
v -2.63751067 2.81747591 -0.85612667
f 1 2 7
f 1 7 14
f 1 14 29
f 1 29 16
f 1 16 9
f 1 9 3
f 1 3 4
f 1 4 5
f 1 5 6
f 1 6 2
f 2 6 8
f 2 8 7
f 3 9 4
f 4 10 18
f 4 18 11
f 4 11 12
f 4 12 5
f 4 9 10
f 5 12 13
f 5 13 6
f 6 13 26
f 6 26 38
f 6 38 48
f 6 48 49
f 6 49 45
f 6 45 44
f 6 44 43
f 6 43 30
f 6 30 15
f 6 15 8
f 7 8 15
f 7 15 14
f 9 16 10
f 10 17 18
f 10 16 19
f 10 19 20
f 10 20 17
f 11 21 12
f 11 18 22
f 11 22 23
f 11 23 21
f 12 21 13
f 13 21 23
f 13 23 24
f 13 24 25
f 13 25 36
f 13 36 26
f 14 27 28
f 14 28 33
f 14 33 29
f 14 15 27
f 15 30 27
f 16 29 31
f 16 31 19
f 17 20 18
f 18 20 32
f 18 32 22
f 19 31 29
f 19 29 33
f 19 33 46
f 19 46 32
f 19 32 34
f 19 34 20
f 20 34 32
f 22 32 35
f 22 35 47
f 22 47 36
f 22 36 25
f 22 25 24
f 22 24 23
f 26 36 37
f 26 37 38
f 27 39 40
f 27 40 41
f 27 41 42
f 27 42 28
f 27 30 43
f 27 43 44
f 27 44 45
f 27 45 39
f 28 42 46
f 28 46 33
f 32 46 35
f 35 46 42
f 35 42 47
f 36 47 48
f 36 48 38
f 36 38 37
f 39 45 40
f 40 45 49
f 40 49 48
f 40 48 47
f 40 47 41
f 41 47 42

