# https://github.com/mikedh/trimesh
v -1.19817497 -2.81731211 0.62918974
v -1.41859781 -2.81731211 0.62918974
v -1.20605034 -2.88380847 0.62918974
v -1.24490910 -2.87998660 -0.33202126
v -1.24251419 -2.82081240 -0.33202126
v -1.24238465 -2.81731211 -0.33202126
v -1.41003202 -2.87236667 0.62918974
v -1.37624368 -2.81731211 -0.33202126
v -1.37363294 -2.87571223 -0.33202126
v -1.37343874 -2.87998660 -0.33202126
v -1.23310692 -2.91353840 0.62918974
v -1.27904271 -2.93666050 -0.33202126
v -1.24680779 -2.88315364 -0.33202126
v -1.38914621 -2.90418010 0.62918974
v -1.34189424 -2.93349346 -0.33202126
v -1.34001718 -2.93666050 -0.33202126
v -1.26991593 -2.93893444 0.62918974
v -1.34925176 -2.93891064 0.62918974
v -1.29425397 -2.93893444 0.62918974
f 1 2 7
f 1 7 14
f 1 14 18
f 1 18 19
f 1 19 17
f 1 17 11
f 1 11 3
f 1 3 4
f 1 4 5
f 1 5 6
f 1 6 8
f 1 8 2
f 2 8 9
f 2 9 10
f 2 10 7
f 3 11 12
f 3 12 13
f 3 13 4
f 4 13 12
f 4 12 16
f 4 16 15
f 4 15 10
f 4 10 9
f 4 9 8
f 4 8 6
f 4 6 5
f 7 10 15
f 7 15 16
f 7 16 14
f 11 17 12
f 12 17 19
f 12 19 16
f 14 16 18
f 16 19 18

