# https://github.com/mikedh/trimesh
v -3.75111571 -2.90634478 -0.82476097
v -3.67503433 -2.93557570 -0.76985430
v -3.75111571 -2.93516487 -0.76985430
v -3.80109064 -2.89749650 -0.81899729
v -3.75111571 -2.85950178 -0.82476097
v 3.75111428 -2.90634478 -0.82476097
v -2.53828759 -2.93864099 -0.69401628
v -3.67503433 -2.93824078 -0.69401628
v 3.67503290 -2.93557570 -0.76985430
v -3.75111571 -2.93742951 -0.69401628
v -3.80854969 -2.90727169 -0.76985430
v -3.80109064 -2.86626429 -0.81899729
v -3.75111571 -2.83660154 -0.76985430
v -3.67503433 -2.83606446 -0.76985430
v 3.75111428 -2.85950178 -0.82476097
v 3.80108921 -2.89749650 -0.81899729
v 3.75111428 -2.93516487 -0.76985430
v -2.53828759 -2.93864099 0.59401566
v 2.53828616 -2.93864099 -0.69401628
v -3.67503433 -2.93824078 0.59401566
v 3.67503290 -2.93824078 -0.69401628
v -3.81004168 -2.90820921 -0.69401628
v -3.75111571 -2.93742951 0.59401566
v -3.80854969 -2.85845878 -0.76985430
v -3.75111571 -2.83398932 -0.69401628
v -3.67503433 -2.83292532 -0.69401628
v -2.53828759 -2.83102927 -0.69401628
v 3.67503290 -2.83606446 -0.76985430
v 3.75111428 -2.83660154 -0.76985430
v 3.80108921 -2.86626429 -0.81899729
v 3.80854826 -2.90727169 -0.76985430
v 3.75111428 -2.93742951 -0.69401628
v -3.67503433 -2.93557570 0.66985357
v 2.53828616 -2.93864099 0.59401566
v -3.75111571 -2.93516487 0.66985357
v 3.67503290 -2.93824078 0.59401566
v -3.81004168 -2.85742663 -0.69401628
v -3.81004168 -2.90820921 0.59401566
v -3.80854969 -2.90727169 0.66985357
v -3.75111571 -2.83398932 0.59401566
v -3.67503433 -2.83292532 0.59401566
v -2.53828759 -2.83102927 0.59401566
v 2.53828616 -2.83102927 -0.69401628
v 3.67503290 -2.83292532 -0.69401628
v 3.75111428 -2.83398932 -0.69401628
v 3.80854826 -2.85845878 -0.76985430
v 3.81004025 -2.90820921 -0.69401628
v 3.75111428 -2.93742951 0.59401566
v -3.75111571 -2.90634478 0.72476024
v 3.67503290 -2.93557570 0.66985357
v -3.80109064 -2.89749650 0.71899656
v 3.75111428 -2.93516487 0.66985357
v -3.81004168 -2.85742663 0.59401566
v -3.80854969 -2.85846940 0.66985357
v -3.75111571 -2.83660154 0.66985357
v -3.67503433 -2.83606446 0.66985357
v 2.53828616 -2.83102927 0.59401566
v 3.67503290 -2.83292532 0.59401566
v 3.75111428 -2.83398932 0.59401566
v 3.81004025 -2.85742663 -0.69401628
v 3.81004025 -2.90820921 0.59401566
v 3.80854826 -2.90727169 0.66985357
v -3.75111571 -2.85950178 0.72476024
v 3.75111428 -2.90634478 0.72476024
v -3.80109064 -2.86626429 0.71899656
v 3.80108921 -2.89749650 0.71899656
v 3.67503290 -2.83606446 0.66985357
v 3.75111428 -2.83660154 0.66985357
v 3.80854826 -2.85846940 0.66985357
v 3.81004025 -2.85742663 0.59401566
v 3.75111428 -2.85950178 0.72476024
v 3.80108921 -2.86626429 0.71899656
f 1 2 3
f 1 3 4
f 1 4 12
f 1 12 5
f 1 5 15
f 1 15 6
f 1 6 9
f 1 9 2
f 2 7 8
f 2 8 3
f 2 9 19
f 2 19 7
f 3 8 10
f 3 10 11
f 3 11 4
f 4 11 24
f 4 24 12
f 5 12 13
f 5 13 14
f 5 14 28
f 5 28 15
f 6 15 30
f 6 30 16
f 6 16 17
f 6 17 9
f 7 18 20
f 7 20 8
f 7 19 34
f 7 34 18
f 8 20 23
f 8 23 10
f 9 17 21
f 9 21 19
f 10 22 11
f 10 23 38
f 10 38 22
f 11 22 37
f 11 37 24
f 12 24 13
f 13 25 26
f 13 26 14
f 13 24 25
f 14 26 27
f 14 27 43
f 14 43 28
f 15 28 29
f 15 29 30
f 16 30 46
f 16 46 31
f 16 31 17
f 17 31 32
f 17 32 21
f 18 33 20
f 18 34 50
f 18 50 33
f 19 21 36
f 19 36 34
f 20 33 35
f 20 35 23
f 21 32 48
f 21 48 36
f 22 38 53
f 22 53 37
f 23 35 39
f 23 39 38
f 24 37 25
f 25 37 53
f 25 53 40
f 25 40 41
f 25 41 26
f 26 41 42
f 26 42 27
f 27 42 57
f 27 57 43
f 28 43 44
f 28 44 29
f 29 45 46
f 29 46 30
f 29 44 45
f 31 46 60
f 31 60 47
f 31 47 32
f 32 47 61
f 32 61 48
f 33 49 35
f 33 50 64
f 33 64 49
f 34 36 50
f 35 49 51
f 35 51 39
f 36 48 52
f 36 52 50
f 38 39 54
f 38 54 53
f 39 51 65
f 39 65 54
f 40 55 41
f 40 53 54
f 40 54 55
f 41 55 56
f 41 56 42
f 42 56 67
f 42 67 57
f 43 57 58
f 43 58 44
f 44 58 59
f 44 59 45
f 45 59 70
f 45 70 60
f 45 60 46
f 47 60 70
f 47 70 61
f 48 61 62
f 48 62 52
f 49 63 65
f 49 65 51
f 49 64 71
f 49 71 63
f 50 52 64
f 52 62 66
f 52 66 64
f 54 65 55
f 55 65 63
f 55 63 56
f 56 63 71
f 56 71 67
f 57 67 58
f 58 67 68
f 58 68 59
f 59 68 69
f 59 69 70
f 61 70 69
f 61 69 62
f 62 69 72
f 62 72 66
f 64 66 72
f 64 72 71
f 67 71 68
f 68 71 72
f 68 72 69

