# https://github.com/mikedh/trimesh
v 0.66615956 -2.74262571 -0.30973252
v 1.35913399 -2.74262571 -0.30973252
v 0.66615956 -2.74262571 -0.09318479
v 0.66615956 -2.72345769 -0.36613784
v 1.35913399 -2.72389922 -0.36487504
v 1.35913399 -2.74262571 -0.09318479
v 0.99660288 -2.73909236 -0.02097103
v 0.66615956 -2.73617741 -0.02097103
v 0.66615956 -2.66816195 -0.38732490
v 1.35913399 -2.66939855 -0.38685720
v 1.35913399 -2.72345769 -0.36613784
v 1.06871566 -2.73856239 -0.02097103
v 1.35913399 -2.73502925 -0.02097103
v 0.99660288 -2.71992434 0.02860576
v 0.66615956 -2.72813920 -0.00146771
v 0.66615956 -2.59599473 -0.38826031
v 1.35913399 -2.66816195 -0.38732490
v 1.06871566 -2.71939437 0.02795098
v 1.35913399 -2.71586123 0.02392872
v 1.06871566 -2.66816195 0.03983071
v 0.99660288 -2.66816195 0.04011133
v 0.66615956 -2.71709783 0.02514475
v 1.35913399 -2.59599473 -0.38826031
v 0.66615956 -1.84022650 -0.38826031
v 1.35913399 -2.71480107 0.02416257
v 1.35757367 -2.66816195 0.03356345
v 1.35913399 -2.37277990 0.07785518
v 0.66615956 -2.66816195 0.03506011
v 0.66615956 -2.69633968 0.02935409
v 1.10107474 -2.27411309 0.08833177
v 1.35913399 -1.84022650 -0.38826031
v 0.66615956 -1.84022650 0.05227167
v 1.35913399 -2.66816195 0.03351668
v 1.35913399 -2.31377416 0.07752779
v 1.11830588 -2.23507021 0.08954782
v 1.11572800 -2.27411309 0.08833177
v 1.08621803 -2.23507021 0.08954782
v 0.95868094 -2.05990797 0.08805116
v 0.66615956 -1.87405768 0.05161689
v 1.35913399 -1.84022650 -0.17171258
v 0.92638965 -1.84022650 0.07706008
v 0.66615956 -1.84349475 0.05222491
v 0.95461063 -1.92776350 0.08926718
v 0.95461063 -1.89508070 0.08926718
v 1.35913399 -2.23507021 0.04492870
v 1.02523086 -1.84022650 0.05652780
v 0.99416067 -1.84022650 0.07238302
v 0.96512558 -1.89508070 0.08926718
v 1.11192902 -2.19417254 0.08926718
v 1.06016792 -1.84022650 0.03412470
v 0.95922361 -1.84022650 0.07570373
f 1 2 6
f 1 6 3
f 1 3 8
f 1 8 15
f 1 15 22
f 1 22 29
f 1 29 28
f 1 28 39
f 1 39 42
f 1 42 32
f 1 32 24
f 1 24 16
f 1 16 9
f 1 9 4
f 1 4 5
f 1 5 2
f 2 5 11
f 2 11 10
f 2 10 17
f 2 17 23
f 2 23 31
f 2 31 40
f 2 40 45
f 2 45 34
f 2 34 27
f 2 27 33
f 2 33 25
f 2 25 19
f 2 19 13
f 2 13 6
f 3 6 7
f 3 7 8
f 4 9 10
f 4 10 11
f 4 11 5
f 6 12 7
f 6 13 12
f 7 12 14
f 7 14 8
f 8 14 15
f 9 16 23
f 9 23 17
f 9 17 10
f 12 13 18
f 12 18 14
f 13 19 18
f 14 18 20
f 14 20 21
f 14 21 22
f 14 22 15
f 16 24 31
f 16 31 23
f 18 19 20
f 19 25 20
f 20 25 26
f 20 26 27
f 20 27 21
f 21 28 29
f 21 29 22
f 21 27 30
f 21 30 28
f 24 32 41
f 24 41 51
f 24 51 47
f 24 47 46
f 24 46 50
f 24 50 40
f 24 40 31
f 25 33 26
f 26 33 27
f 27 34 35
f 27 35 36
f 27 36 30
f 28 30 37
f 28 37 38
f 28 38 39
f 30 36 35
f 30 35 37
f 32 42 38
f 32 38 43
f 32 43 44
f 32 44 41
f 34 45 46
f 34 46 47
f 34 47 48
f 34 48 49
f 34 49 35
f 35 49 48
f 35 48 44
f 35 44 37
f 37 44 43
f 37 43 38
f 38 42 39
f 40 50 45
f 41 44 48
f 41 48 51
f 45 50 46
f 47 51 48

