# https://github.com/mikedh/trimesh
v 1.35927375 -2.74262571 -0.30974890
v 2.09476271 -2.74262571 -0.30974890
v 1.35927375 -2.74262571 -0.09316083
v 1.35927375 -2.72389922 -0.36484793
v 2.09476271 -2.74262571 -0.09316083
v 2.09476271 -2.72345769 -0.36611729
v 1.35927375 -2.73502925 -0.02099614
v 1.35927375 -2.72345769 -0.36611729
v 2.09476271 -2.73202587 -0.02099614
v 1.86296937 -2.73317425 -0.02099614
v 2.09476271 -2.67982173 -0.38285383
v 1.35927375 -2.71586123 0.02394812
v 1.35927375 -2.66939855 -0.38684994
v 2.09476271 -2.71285785 0.02122137
v 1.86296937 -2.71400623 0.02220864
v 2.09476271 -2.66816195 -0.38732006
v 1.35927375 -2.66816195 0.03353873
v 1.35927375 -2.66816195 -0.38732006
v 2.09476271 -2.66816195 0.02761512
v 1.39455767 -2.34363024 0.08741543
v 2.09476271 -2.59599473 -0.38826031
v 1.39261348 -2.34363024 0.08741543
v 1.35927375 -2.37277990 0.07782481
v 1.35927375 -2.59599473 -0.38826031
v 1.54606231 -2.27490794 0.08844972
v 2.09476271 -2.65288038 0.02785019
v 1.76078997 -1.94622489 0.09018917
v 1.75524540 -2.05557977 0.08760347
v 1.71592903 -2.08402260 0.09122345
v 1.69015026 -2.13666848 0.09009517
v 1.61828633 -2.21016073 0.08924892
v 1.57176921 -2.23454024 0.08953101
v 2.09476271 -1.84022650 -0.38826031
v 1.39261348 -2.34292361 0.08741543
v 1.66509146 -2.09064755 0.09202269
v 1.35927375 -2.31377416 0.07754274
v 1.35927375 -1.84022650 -0.38826031
v 2.09476271 -2.59599473 0.02850836
v 2.09476271 -1.94622489 0.03532522
v 1.76078997 -1.88942747 0.09037723
v 1.71859330 -1.94622489 0.09188164
v 2.09476271 -1.84022650 0.03410289
v 1.71859330 -1.88554080 0.09094139
v 1.68035710 -1.89817230 0.08910788
v 1.64593732 -1.84022650 0.06160538
v 1.35927375 -2.23507021 0.04491583
v 1.35927375 -1.84022650 -0.17171925
v 2.09476271 -1.93103176 0.03518417
v 2.09476271 -1.85877611 0.03443197
v 1.71895339 -1.84022650 0.08525284
f 1 2 5
f 1 5 3
f 1 3 7
f 1 7 12
f 1 12 17
f 1 17 23
f 1 23 36
f 1 36 46
f 1 46 47
f 1 47 37
f 1 37 24
f 1 24 18
f 1 18 13
f 1 13 8
f 1 8 4
f 1 4 2
f 2 4 6
f 2 6 11
f 2 11 16
f 2 16 21
f 2 21 33
f 2 33 42
f 2 42 49
f 2 49 48
f 2 48 39
f 2 39 38
f 2 38 26
f 2 26 19
f 2 19 14
f 2 14 9
f 2 9 5
f 3 5 7
f 4 8 6
f 5 9 10
f 5 10 7
f 6 8 11
f 7 10 12
f 8 13 11
f 9 14 15
f 9 15 12
f 9 12 10
f 11 13 16
f 12 15 17
f 13 18 16
f 14 17 15
f 14 19 20
f 14 20 17
f 16 18 24
f 16 24 21
f 17 20 22
f 17 22 23
f 19 25 20
f 19 26 27
f 19 27 28
f 19 28 29
f 19 29 30
f 19 30 31
f 19 31 25
f 20 25 32
f 20 32 22
f 21 24 37
f 21 37 33
f 22 34 23
f 22 32 35
f 22 35 34
f 23 34 36
f 25 31 32
f 26 38 27
f 27 39 40
f 27 40 41
f 27 41 29
f 27 29 28
f 27 38 39
f 29 41 35
f 29 35 32
f 29 32 30
f 30 32 31
f 33 37 47
f 33 47 45
f 33 45 50
f 33 50 42
f 34 35 41
f 34 41 43
f 34 43 44
f 34 44 36
f 36 44 45
f 36 45 46
f 39 48 40
f 40 43 41
f 40 48 49
f 40 49 42
f 40 42 50
f 40 50 43
f 43 50 44
f 44 50 45
f 45 47 46

