# https://github.com/mikedh/trimesh
v 2.09483479 -2.74262571 -0.30974967
v 2.87379736 -2.74262571 -0.30974967
v 2.09483479 -2.74262571 -0.09318141
v 2.09483479 -2.72337334 -0.36614290
v 3.59565351 -2.74240193 -0.30974967
v 3.01810684 -2.74262571 -0.23754642
v 3.59565351 -2.72337334 -0.36614290
v 2.58502413 -2.74262571 -0.09318141
v 2.80171987 -2.73210419 -0.02097815
v 2.09483479 -2.74038705 -0.07791084
v 2.09483479 -2.66807911 -0.38734742
v 3.59565351 -2.74240193 -0.09318141
v 3.09033882 -2.74262571 -0.16538466
v 3.64488848 -2.71688137 -0.35937902
v 3.65137078 -2.72337334 -0.30974967
v 3.52357602 -2.66807911 -0.38734742
v 3.59565351 -2.66807911 -0.38705693
v 2.87379736 -2.73210419 -0.02097815
v 2.09483479 -2.73188020 -0.02097815
v 2.80171987 -2.71285182 0.02126490
v 2.09483479 -2.71285182 0.02122340
v 2.09483479 -2.61121756 -0.38805283
v 3.65137078 -2.72337334 -0.09318141
v 3.64535153 -2.71755292 -0.02097815
v 3.59565351 -2.73008931 -0.02097815
v 3.65152527 -2.66807911 -0.36630887
v 3.67112665 -2.66807911 -0.30974967
v 3.52357602 -2.59599495 -0.38821884
v 3.59565351 -2.59599495 -0.38767937
v 2.94587507 -2.71285182 0.02122340
v 2.87379736 -2.71285182 0.02126490
v 2.87379736 -2.66807911 0.02836074
v 2.09483479 -2.66807911 0.02761379
v 2.09483479 -2.59599495 -0.38821884
v 3.67112665 -2.66807911 -0.09318141
v 3.65847062 -2.66807911 -0.02097815
v 3.63686297 -2.70904628 0.01848466
v 3.59565351 -2.71106094 0.01972954
v 3.65167976 -2.59599495 -0.36647485
v 3.67158970 -2.59599495 -0.30974967
v 3.52357602 -0.45563140 -0.38821884
v 3.54904236 -0.45563140 -0.38805283
v 3.59565351 -0.45563140 -0.38767937
v 2.09483479 -2.59599495 0.02852672
v 2.09483479 -2.65285628 0.02782127
v 3.59565351 -2.66807911 0.02387915
v 3.59565351 -2.52368679 0.02545601
v 3.59565351 -0.45563140 0.03446067
v 2.09483479 -1.94611774 0.03529059
v 2.09483479 -0.45563140 -0.38821884
v 3.67158970 -2.59599495 -0.09318141
v 3.63871518 -2.66807911 0.01972954
v 3.65924223 -2.52368679 -0.02097815
v 3.63933229 -2.52368679 0.02018600
v 3.65167976 -0.45563140 -0.36647485
v 3.67158970 -0.45563140 -0.30974967
v 3.64473442 -0.45563140 0.02512403
v 2.51279215 -0.45563140 0.03562255
v 2.09483479 -0.45563140 0.03280083
v 3.67158970 -0.45563140 -0.09318141
v 3.66464435 -0.45563140 -0.02097815
f 1 2 6
f 1 6 13
f 1 13 8
f 1 8 3
f 1 3 10
f 1 10 19
f 1 19 21
f 1 21 33
f 1 33 45
f 1 45 44
f 1 44 49
f 1 49 59
f 1 59 50
f 1 50 34
f 1 34 22
f 1 22 11
f 1 11 4
f 1 4 7
f 1 7 2
f 2 5 6
f 2 7 5
f 3 8 18
f 3 18 9
f 3 9 10
f 4 11 16
f 4 16 7
f 5 12 13
f 5 13 6
f 5 7 14
f 5 14 15
f 5 15 23
f 5 23 12
f 7 16 17
f 7 17 14
f 8 13 12
f 8 12 18
f 9 19 10
f 9 18 31
f 9 31 20
f 9 20 21
f 9 21 19
f 11 22 16
f 12 23 24
f 12 24 25
f 12 25 18
f 14 17 26
f 14 26 27
f 14 27 15
f 15 27 35
f 15 35 23
f 16 22 28
f 16 28 17
f 17 28 29
f 17 29 26
f 18 25 30
f 18 30 31
f 20 31 32
f 20 32 21
f 21 32 33
f 22 34 28
f 23 35 24
f 24 35 36
f 24 36 37
f 24 37 25
f 25 37 38
f 25 38 30
f 26 29 39
f 26 39 40
f 26 40 27
f 27 40 51
f 27 51 35
f 28 34 50
f 28 50 41
f 28 41 42
f 28 42 29
f 29 42 43
f 29 43 55
f 29 55 39
f 30 38 32
f 30 32 31
f 32 44 45
f 32 45 33
f 32 38 46
f 32 46 47
f 32 47 48
f 32 48 49
f 32 49 44
f 35 51 36
f 36 52 37
f 36 51 53
f 36 53 54
f 36 54 52
f 37 52 46
f 37 46 38
f 39 55 56
f 39 56 40
f 40 56 60
f 40 60 51
f 41 50 59
f 41 59 58
f 41 58 48
f 41 48 57
f 41 57 61
f 41 61 60
f 41 60 56
f 41 56 55
f 41 55 43
f 41 43 42
f 46 52 47
f 47 52 48
f 48 58 49
f 48 52 54
f 48 54 57
f 49 58 59
f 51 60 61
f 51 61 53
f 53 61 57
f 53 57 54

