# https://github.com/mikedh/trimesh
v 0.66615962 -0.45532477 -0.38826034
v 3.52331868 -0.45532477 -0.38826034
v 0.66615962 -0.45532477 0.04181585
v 0.66615962 2.52992382 -0.38826034
v 3.59568902 -0.45532477 -0.38765635
v 3.52331868 2.52992382 -0.38826034
v 0.66615962 -0.42987543 0.04247015
v 3.59568902 -0.45532477 0.03446755
v 3.59568902 -0.14103969 0.12153973
v 3.59568902 -0.06898415 0.12591850
v 0.66615962 2.60228599 -0.38735436
v 3.65158509 -0.45532477 -0.36646711
v 3.59568902 2.52992382 -0.38765635
v 3.52331868 2.60228599 -0.38735436
v 3.59568902 2.60228599 -0.38705236
v 0.66615962 -0.21340197 0.04362775
v 3.64452441 -0.45532477 0.02510603
v 3.64334741 -0.19837764 0.09853857
v 3.65040809 -0.14103969 0.10603788
v 0.66615962 -0.18273996 0.04372841
v 3.65099638 -0.06898415 0.10623918
v 3.64893717 2.60228599 0.03008879
v 3.59568902 2.60228599 0.04438271
v 1.06890372 2.60228599 0.04689925
v 0.78001064 2.60228599 0.04689925
v 0.66615962 2.60228599 0.04664760
v 0.66615962 1.73577888 0.04730190
v 0.66615962 2.63417437 -0.37512399
v 3.67158970 -0.45532477 -0.30974437
v 3.65158509 2.52992382 -0.36646711
v 3.65129073 2.60228599 -0.36631611
v 3.59568902 2.65747737 -0.36611482
v 3.64481834 2.65103854 -0.35937049
v 3.66452902 -0.45532477 -0.02099692
v 3.67011878 -0.14103969 0.05122770
v 3.67070706 -0.06898415 0.05122770
v 3.66864786 2.60228599 -0.02099692
v 3.64305349 2.64950543 0.02505571
v 3.59568902 2.65502440 0.02993779
v 1.06890372 2.65563764 0.03104507
v 0.66615962 2.65563764 0.03119605
v 0.66615962 2.62497595 0.04010460
v 0.66615962 2.65747737 -0.36611482
v 3.67158970 -0.45532477 -0.09317120
v 3.67158970 2.52992382 -0.30974437
v 3.67100142 2.60228599 -0.30974437
v 0.66615962 2.66851573 -0.33360114
v 3.59568902 2.67648788 -0.30974437
v 3.65129073 2.65747737 -0.30974437
v 3.66894178 -0.35751316 -0.02099692
v 3.67129534 -0.28545751 -0.02099692
v 3.67158970 -0.21340197 -0.02099692
v 3.67158970 0.21985159 -0.02099692
v 3.67158970 2.52992382 -0.09317120
v 3.67100142 2.60228599 -0.09317120
v 3.65011417 2.65625088 -0.02099692
v 3.59568902 2.67403491 -0.02099692
v 1.14097992 2.65563764 0.03099473
v 0.66615962 2.66391663 0.00920153
v 0.66615962 2.67648788 -0.30974437
v 3.59568902 2.67648788 -0.09317120
v 3.65129073 2.65747737 -0.09317120
v 1.14097992 2.67495499 -0.02099692
v 0.66615962 2.67495499 -0.02099692
v 0.66615962 2.67648788 -0.09317120
f 1 2 5
f 1 5 12
f 1 12 29
f 1 29 44
f 1 44 34
f 1 34 17
f 1 17 8
f 1 8 3
f 1 3 7
f 1 7 16
f 1 16 20
f 1 20 27
f 1 27 26
f 1 26 42
f 1 42 41
f 1 41 59
f 1 59 64
f 1 64 65
f 1 65 60
f 1 60 47
f 1 47 43
f 1 43 28
f 1 28 11
f 1 11 4
f 1 4 6
f 1 6 2
f 2 6 13
f 2 13 5
f 3 8 9
f 3 9 10
f 3 10 7
f 4 11 14
f 4 14 6
f 5 13 30
f 5 30 12
f 6 14 15
f 6 15 13
f 7 10 16
f 8 17 18
f 8 18 9
f 9 19 10
f 9 18 19
f 10 20 16
f 10 19 21
f 10 21 22
f 10 22 23
f 10 23 24
f 10 24 25
f 10 25 26
f 10 26 27
f 10 27 20
f 11 28 14
f 12 30 45
f 12 45 29
f 13 15 31
f 13 31 30
f 14 28 32
f 14 32 15
f 15 32 33
f 15 33 31
f 17 34 19
f 17 19 18
f 19 35 21
f 19 34 35
f 21 35 36
f 21 36 37
f 21 37 22
f 22 37 38
f 22 38 23
f 23 38 39
f 23 39 24
f 24 39 40
f 24 40 41
f 24 41 25
f 25 41 42
f 25 42 26
f 28 43 32
f 29 45 54
f 29 54 53
f 29 53 52
f 29 52 44
f 30 31 45
f 31 33 46
f 31 46 45
f 32 43 47
f 32 47 48
f 32 48 33
f 33 48 49
f 33 49 46
f 34 44 50
f 34 50 35
f 35 50 51
f 35 51 36
f 36 51 52
f 36 52 53
f 36 53 54
f 36 54 37
f 37 54 55
f 37 55 56
f 37 56 38
f 38 56 57
f 38 57 39
f 39 57 58
f 39 58 40
f 40 58 59
f 40 59 41
f 44 52 51
f 44 51 50
f 45 46 55
f 45 55 54
f 46 49 62
f 46 62 55
f 47 60 48
f 48 60 65
f 48 65 61
f 48 61 62
f 48 62 49
f 55 62 56
f 56 62 61
f 56 61 57
f 57 63 59
f 57 59 58
f 57 61 63
f 59 63 64
f 61 65 64
f 61 64 63

