# https://github.com/mikedh/trimesh
v 2.09469493 -0.45563140 0.03281158
v 1.86296873 -0.79103815 0.05333245
v 2.09469493 -0.49241469 0.03285545
v 2.09469493 -0.45563140 -0.38826031
v 1.18764842 -0.45563140 0.03987111
v 1.86296873 -0.86326417 0.05140313
v 2.09469493 -1.31161828 0.02978609
v 2.09469493 -1.22414270 0.03088229
v 2.09469493 -0.93540637 0.03311853
v 2.09469493 -0.86326417 0.03325008
v 0.66615956 -0.45563140 0.04184427
v 0.66615956 -1.31161828 0.05969040
v 0.98151421 -1.31161828 0.05534945
v 2.09469493 -1.31161828 -0.38826031
v 0.66615956 -0.45563140 -0.38826031
v 1.48664095 -1.31161828 0.04491363
v 0.66615956 -1.31161828 -0.38826031
f 1 2 3
f 1 3 10
f 1 10 9
f 1 9 8
f 1 8 7
f 1 7 14
f 1 14 4
f 1 4 15
f 1 15 11
f 1 11 5
f 1 5 2
f 2 6 7
f 2 7 8
f 2 8 9
f 2 9 10
f 2 10 3
f 2 5 11
f 2 11 12
f 2 12 13
f 2 13 6
f 4 14 17
f 4 17 15
f 6 13 16
f 6 16 7
f 7 16 13
f 7 13 12
f 7 12 17
f 7 17 14
f 11 15 17
f 11 17 12

