# https://github.com/mikedh/trimesh
v -3.62782988 -2.59568209 -0.30973227
v -3.60765442 -2.59568209 -0.36647163
v -3.60765442 -2.66782779 -0.36627447
v -3.62740943 -2.66782779 -0.30973227
v -3.62782988 -2.59568209 -0.02100732
v -3.62782988 2.52985066 -0.30973227
v -3.55175189 -2.59568209 -0.38766878
v -3.60765442 2.52985066 -0.36647163
v -3.55175189 -2.66782779 -0.38702794
v -3.60092941 -2.71663241 -0.35937305
v -3.62740943 -2.66782779 -0.02100732
v -3.60723397 -2.72299808 -0.30973227
v -3.60933578 -2.66782779 0.05121090
v -3.62362669 0.07530295 0.05121090
v -3.62782988 2.52985066 -0.02100732
v -3.62740943 2.60199637 -0.30973227
v -3.60765442 2.60199637 -0.36627447
v -3.47945686 -2.59568209 -0.38826034
v -3.55175189 2.52985066 -0.38766878
v -3.47945686 -2.66782779 -0.38732369
v -3.55175189 -2.72299808 -0.36612654
v -3.55175189 -2.74262592 -0.30973227
v -3.59882760 -2.71451038 0.05121090
v -3.60723397 -2.72299808 -0.02100732
v -3.58916032 -2.70549206 0.08818267
v -3.58958077 -2.66782779 0.08833056
v -3.60387168 0.07530295 0.10075308
v -3.62362669 0.14744872 0.05121090
v -3.62740943 2.60199637 -0.02100732
v -3.60723397 2.65716666 -0.30973227
v -3.60092941 2.65080099 -0.35937305
v -3.55175189 2.60199637 -0.38702794
v 0.66615962 -2.59568209 -0.38826034
v 0.66615962 -2.62645007 -0.38786598
v -3.47945686 2.52985066 -0.38826034
v 0.66615962 -2.66782779 -0.38732369
v 0.66615962 -2.73148578 -0.34226744
v 0.66615962 -2.72299808 -0.36612654
v -2.39671255 -2.74262592 -0.30973227
v -3.55175189 -2.74262592 -0.02100732
v -3.55469417 -2.72034565 0.05638695
v -3.58075395 -2.70549206 0.08818267
v -3.55175189 0.07530295 0.11534459
v -3.60387168 0.14744872 0.10060520
v -3.60765442 2.60199637 0.04455597
v -3.60092941 2.65080099 0.03469683
v -3.60723397 2.65716666 -0.02100732
v -3.55175189 2.67626410 -0.30973227
v -3.55175189 2.65716666 -0.36612654
v -3.47945686 2.60199637 -0.38732369
v 0.66615962 2.52985066 -0.38826034
v 0.66615962 2.57175878 -0.38771811
v 0.66615962 -2.74209552 -0.30973227
v -2.03565763 -2.74262592 -0.23751406
v -2.97423233 -2.74262592 -0.02100732
v -0.23122370 -2.72299808 0.03558415
v -0.23122370 -2.74209552 -0.02100732
v -0.23122370 -2.66782779 0.05702778
v -0.40985969 -1.91029728 0.08754182
v 0.66615962 2.60199637 0.04667569
v -3.47945686 2.52985066 0.07610523
v -3.55175189 2.60199637 0.07477424
v -0.23122370 -1.15170566 0.09390097
v -0.15892867 -0.86312259 0.09281647
v -3.55175189 2.65716666 0.04460527
v -3.55175189 2.67626410 -0.02100732
v -0.01433861 2.67679450 -0.23751406
v 0.66615962 2.67679450 -0.26812669
v 0.66615962 2.67626410 -0.30973227
v 0.66615962 2.66830680 -0.33364069
v 0.66615962 2.63382536 -0.37509839
v 0.66615962 2.65716666 -0.36612654
v 0.66615962 2.60199637 -0.38732369
v -1.60230768 -2.74262592 -0.09317623
v 0.66615962 -2.74209552 -0.09317623
v 0.66615962 -2.71663241 0.02513347
v 0.66615962 -2.73626025 -0.02100732
v 0.66615962 -2.69594355 0.02937290
v 0.66615962 -2.66782779 0.03504190
v -0.11563570 -1.76812759 0.08749253
v 0.66615962 2.65557524 0.03119683
v 0.56318117 2.65610564 0.03173908
v -3.47945686 2.60199637 0.07462635
v 0.20212625 -0.42971744 0.08409112
v 0.66615962 -1.48219690 0.06693622
v 0.09872757 -0.83447648 0.08803478
v 0.09872757 -0.81856192 0.08803478
v -0.08663364 2.65663626 0.03287290
v 0.56318117 2.67520308 -0.02100732
v -0.01433861 2.67573370 -0.02100732
v -1.02520824 2.67626410 -0.02100732
v 0.66615962 2.67679450 -0.12373957
v 0.66615962 -1.55434271 0.06664045
v -0.01433861 -1.80154812 0.08340098
v 0.66615962 -1.51296499 0.06698552
v 0.66615962 2.67467268 -0.02100732
v 0.66615962 2.67573370 -0.05157065
f 1 2 3
f 1 3 4
f 1 4 11
f 1 11 5
f 1 5 15
f 1 15 6
f 1 6 8
f 1 8 2
f 2 7 3
f 2 8 19
f 2 19 7
f 3 7 9
f 3 9 10
f 3 10 4
f 4 10 12
f 4 12 24
f 4 24 11
f 5 11 13
f 5 13 14
f 5 14 28
f 5 28 15
f 6 15 29
f 6 29 16
f 6 16 17
f 6 17 8
f 7 18 9
f 7 19 35
f 7 35 18
f 8 17 19
f 9 18 20
f 9 20 21
f 9 21 10
f 10 21 22
f 10 22 12
f 11 23 13
f 11 24 23
f 12 22 40
f 12 40 24
f 13 23 25
f 13 25 26
f 13 26 27
f 13 27 14
f 14 27 28
f 15 28 29
f 16 29 47
f 16 47 30
f 16 30 31
f 16 31 17
f 17 31 32
f 17 32 19
f 18 33 34
f 18 34 20
f 18 35 51
f 18 51 33
f 19 32 35
f 20 34 36
f 20 36 38
f 20 38 21
f 21 37 22
f 21 38 37
f 22 39 54
f 22 54 74
f 22 74 55
f 22 55 40
f 22 37 39
f 23 41 25
f 23 24 40
f 23 40 41
f 25 41 42
f 25 42 43
f 25 43 26
f 26 43 27
f 27 43 44
f 27 44 28
f 28 44 45
f 28 45 29
f 29 45 46
f 29 46 47
f 30 47 66
f 30 66 48
f 30 48 31
f 31 48 49
f 31 49 32
f 32 49 50
f 32 50 35
f 33 51 52
f 33 52 73
f 33 73 71
f 33 71 72
f 33 72 70
f 33 70 69
f 33 69 68
f 33 68 92
f 33 92 97
f 33 97 96
f 33 96 81
f 33 81 60
f 33 60 85
f 33 85 95
f 33 95 93
f 33 93 79
f 33 79 78
f 33 78 76
f 33 76 77
f 33 77 75
f 33 75 53
f 33 53 37
f 33 37 38
f 33 38 36
f 33 36 34
f 35 50 52
f 35 52 51
f 37 53 39
f 39 53 54
f 40 55 41
f 41 56 42
f 41 55 57
f 41 57 56
f 42 56 58
f 42 58 59
f 42 59 43
f 43 60 61
f 43 61 62
f 43 62 44
f 43 59 63
f 43 63 64
f 43 64 60
f 44 62 45
f 45 62 46
f 46 65 66
f 46 66 47
f 46 62 65
f 48 66 67
f 48 67 68
f 48 68 69
f 48 69 70
f 48 70 49
f 49 71 50
f 49 70 72
f 49 72 71
f 50 71 73
f 50 73 52
f 53 74 54
f 53 75 74
f 55 74 57
f 56 76 58
f 56 57 77
f 56 77 76
f 57 74 75
f 57 75 77
f 58 76 78
f 58 78 79
f 58 79 80
f 58 80 59
f 59 80 63
f 60 81 82
f 60 82 83
f 60 83 61
f 60 64 84
f 60 84 85
f 61 83 62
f 62 83 65
f 63 80 86
f 63 86 64
f 64 86 87
f 64 87 84
f 65 83 82
f 65 82 88
f 65 88 89
f 65 89 90
f 65 90 91
f 65 91 66
f 66 91 92
f 66 92 67
f 67 92 68
f 79 93 94
f 79 94 80
f 80 94 93
f 80 93 95
f 80 95 86
f 81 96 82
f 82 96 89
f 82 89 88
f 84 87 95
f 84 95 85
f 86 95 87
f 89 96 97
f 89 97 90
f 90 97 92
f 90 92 91

