# https://github.com/mikedh/trimesh
v 2.09469493 -1.31161828 0.02979091
v 2.09469493 -1.84022650 0.03411817
v 2.09469493 -1.31161828 -0.38826029
v 1.48664095 -1.31161828 0.04493633
v 1.61627898 -1.61524714 0.08882042
v 1.69403381 -1.72959962 0.09117218
v 1.69725032 -1.78398163 0.09225401
v 2.09469493 -1.84022650 -0.38826029
v 1.71892650 -1.84022650 0.08529274
v 0.66615956 -1.31161828 -0.38826029
v 0.98151421 -1.31161828 0.05533116
v 0.66615956 -1.31161828 0.05965843
v 1.57404520 -1.61379838 0.08910262
v 1.66970046 -1.78398163 0.09225401
v 0.66615956 -1.84022650 -0.38826029
v 0.92641450 -1.84022650 0.07706155
v 0.66615956 -1.36863927 0.06323312
v 0.70783390 -1.44082101 0.06840702
v 0.70783390 -1.36863927 0.06384458
v 0.66615956 -1.84022650 0.05227387
v 0.70783390 -1.51305440 0.06859516
v 0.66615956 -1.51305440 0.06699596
v 0.66615956 -1.55465590 0.06661967
v 0.66615956 -1.58518439 0.06572601
v 0.66615956 -1.62678589 0.06407976
v 0.66615956 -1.65736613 0.06243352
v 0.66615956 -1.44082101 0.06652560
v 0.66615956 -1.48247426 0.06690189
f 1 2 8
f 1 8 3
f 1 3 10
f 1 10 12
f 1 12 11
f 1 11 4
f 1 4 5
f 1 5 6
f 1 6 7
f 1 7 2
f 2 7 9
f 2 9 16
f 2 16 20
f 2 20 15
f 2 15 8
f 3 8 15
f 3 15 10
f 4 11 5
f 5 11 12
f 5 12 13
f 5 13 6
f 6 13 7
f 7 13 14
f 7 14 9
f 9 14 16
f 10 15 20
f 10 20 26
f 10 26 25
f 10 25 24
f 10 24 23
f 10 23 22
f 10 22 28
f 10 28 27
f 10 27 17
f 10 17 12
f 12 17 18
f 12 18 19
f 12 19 13
f 13 19 18
f 13 18 16
f 13 16 14
f 16 18 21
f 16 21 22
f 16 22 23
f 16 23 24
f 16 24 25
f 16 25 26
f 16 26 20
f 17 27 18
f 18 27 28
f 18 28 22
f 18 22 21

