# https://github.com/mikedh/trimesh
v 0.79663708 0.03919668 -0.02272100
v 0.81235826 0.03917993 -0.01350190
v 0.79663708 0.03919668 -0.00466894
v 0.79663708 0.07004397 -0.02272100
v 0.86397311 0.03919668 -0.02272100
v 0.81235826 0.03917993 -0.00493440
v 0.85306075 0.03917993 -0.01350190
v 0.79663708 0.04281198 -0.00436726
v 0.81885637 0.03917993 -0.00415005
v 0.90762255 0.04156503 0.09318149
v 0.89313438 0.04285382 0.09318149
v 0.88101365 0.04499624 0.09318149
v 0.86523080 0.04695453 0.08658090
v 0.85752434 0.04918063 0.08658090
v 0.79663708 0.05814358 -0.00647897
v 0.82176632 0.11208032 -0.00733570
v 0.83643943 0.11714343 -0.00733570
v 0.82193895 0.07607785 -0.02272100
v 0.86328261 0.03919668 -0.02161084
v 0.85012613 0.03917993 -0.00795112
v 0.86220987 0.04335596 -0.02272100
v 0.86064391 0.11044841 -0.00733570
v 0.92212302 0.11149449 0.06915631
v 0.92212302 0.10320105 0.06915631
v 0.92260391 0.04790020 0.07074914
v 0.92260391 0.04470333 0.07943730
v 0.92260391 0.04458616 0.07999238
v 0.90843635 0.04159014 0.09318149
v 0.85662423 0.10610501 0.08658090
v 0.85662423 0.10962828 0.08658090
v 0.83678469 0.03917993 -0.00488614
v 0.91069280 0.08462238 0.10055436
v 0.90842401 0.08462238 0.10055436
v 0.86288804 0.03919668 -0.02101956
v 0.88101365 0.07155872 0.09318149
v 0.83643943 0.11716016 -0.00699785
v 0.86002739 0.11215564 0.08658090
v 0.86503351 0.11419761 0.08658090
v 0.90842401 0.12466695 0.10055436
v 0.85093993 0.11602201 -0.00699785
v 0.85093993 0.11596342 -0.00733570
v 0.83338151 0.07324083 -0.02272100
v 0.85892999 0.05072885 -0.02272100
v 0.85396086 0.05740712 -0.02272100
v 0.84599546 0.06621107 -0.02272100
v 0.85113721 0.11586300 -0.00733570
v 0.92212302 0.11600528 0.07999238
v 0.92260391 0.06195137 0.07890635
v 0.92260391 0.05518103 0.07074914
v 0.92260391 0.04467822 0.08814959
v 0.92212302 0.09961085 0.10055436
v 0.87331950 0.11687561 0.08658090
v 0.91720323 0.12093449 0.10055436
v 0.92212302 0.11636514 0.08146454
v 0.92260391 0.06474654 0.08814959
v 0.92212302 0.11659946 0.10055436
v 0.92212302 0.11712668 0.09575174
f 1 2 6
f 1 6 3
f 1 3 8
f 1 8 15
f 1 15 4
f 1 4 18
f 1 18 42
f 1 42 45
f 1 45 44
f 1 44 43
f 1 43 21
f 1 21 5
f 1 5 7
f 1 7 2
f 2 7 20
f 2 20 31
f 2 31 9
f 2 9 6
f 3 6 9
f 3 9 10
f 3 10 11
f 3 11 12
f 3 12 13
f 3 13 14
f 3 14 8
f 4 15 16
f 4 16 17
f 4 17 18
f 5 19 20
f 5 20 7
f 5 21 22
f 5 22 23
f 5 23 24
f 5 24 25
f 5 25 26
f 5 26 27
f 5 27 28
f 5 28 10
f 5 10 19
f 8 14 29
f 8 29 30
f 8 30 15
f 9 31 10
f 10 28 32
f 10 32 33
f 10 33 11
f 10 31 20
f 10 20 34
f 10 34 19
f 11 33 12
f 12 29 14
f 12 14 13
f 12 33 39
f 12 39 35
f 12 35 30
f 12 30 29
f 15 30 16
f 16 36 17
f 16 30 37
f 16 37 38
f 16 38 36
f 17 36 39
f 17 39 40
f 17 40 41
f 17 41 18
f 18 41 42
f 19 34 20
f 21 43 22
f 22 43 44
f 22 44 45
f 22 45 46
f 22 46 23
f 23 47 48
f 23 48 49
f 23 49 25
f 23 25 24
f 23 46 47
f 25 49 48
f 25 48 55
f 25 55 50
f 25 50 27
f 25 27 26
f 27 50 28
f 28 50 51
f 28 51 32
f 30 35 39
f 30 39 37
f 32 51 56
f 32 56 53
f 32 53 39
f 32 39 33
f 36 38 52
f 36 52 39
f 37 39 38
f 38 39 52
f 39 53 54
f 39 54 41
f 39 41 40
f 41 54 47
f 41 47 46
f 41 46 42
f 42 46 45
f 47 54 55
f 47 55 48
f 50 55 56
f 50 56 51
f 53 56 57
f 53 57 54
f 54 57 55
f 55 57 56

