# https://github.com/mikedh/trimesh
v 0.71444676 0.15170025 0.10476159
v 0.71444676 0.15170025 0.10044879
v 0.71184370 0.15170025 0.10476159
v 0.75695760 0.15126249 0.11747551
v 0.70327602 0.15168566 0.09103151
v 0.75695760 0.15126249 0.11618757
v 0.69994894 0.15167107 0.08655328
v 0.71237810 0.13988077 0.11686108
v 0.74940700 0.14074170 0.13165460
v 0.76390482 0.14323692 0.13361604
v 0.75647491 0.15126249 0.11747551
v 0.70327602 0.15168566 0.09307565
v 0.69508760 0.15167107 0.08856198
v 0.69072619 0.14487122 0.09197678
v 0.68326179 0.14066874 0.08922367
v 0.77840264 0.14338284 0.13475036
v 0.78674622 0.14094598 0.13323793
v 0.69508760 0.15167107 0.08655328
v 0.78674622 0.14094598 0.12903146
v 0.80944969 0.11158698 0.11183931
v 0.66271317 0.08460648 0.03123119
v 0.66264421 0.08460648 0.03120757
v 0.73003061 0.11688387 0.07580080
v 0.71198161 0.12941835 0.11718011
v 0.74192537 0.13802758 0.13099291
v 0.68281359 0.12943293 0.09019258
v 0.77840264 0.12943293 0.13919314
v 0.68326179 0.14066874 0.08629333
v 0.64007864 0.08460648 0.04442957
v 0.80944969 0.12051726 0.14095372
v 0.80944969 0.12353779 0.13785795
v 0.80944969 0.12355238 0.13072114
v 0.64695692 0.08460648 0.03146752
v 0.64075096 0.08460648 0.03840346
v 0.64007864 0.08460648 0.03919513
v 0.80944969 0.12218073 0.12542761
v 0.80944969 0.10274427 0.11187476
v 0.67709031 0.05556850 0.02298369
v 0.67709031 0.05565605 0.02298369
v 0.66240287 0.07285995 0.02636304
v 0.71198161 0.02797513 0.11718011
v 0.74178746 0.12943293 0.13112288
v 0.68958843 0.10042415 0.09744755
v 0.76390482 0.12943293 0.13659365
v 0.77838540 0.11491395 0.14028021
v 0.63333827 0.00262892 0.03305084
v 0.64007864 0.07285995 0.04442957
v 0.80944969 0.11484099 0.14097735
v 0.77838540 0.05695474 0.14081192
v 0.63406230 0.00262892 0.02342089
v 0.63852715 0.05679424 0.03064039
v 0.80944969 0.10160608 0.11273733
v 0.79383136 0.04716355 0.10939342
v 0.78683241 0.04935234 0.10137043
v 0.68455471 0.04936693 0.02878530
v 0.67709031 0.04833089 0.02385806
v 0.66300623 0.00262892 0.02296007
v 0.66148921 0.00262892 0.02267648
v 0.64792229 0.00262892 0.02027785
v 0.64493998 0.00262892 0.02093954
v 0.71237810 0.01951181 0.11686108
v 0.74192537 0.02022680 0.13099291
v 0.74180471 0.02796054 0.13111107
v 0.74178746 0.12867415 0.13112288
v 0.68986425 0.07147372 0.09744755
v 0.68281359 0.02796054 0.09019258
v 0.68326179 0.01919079 0.08922367
v 0.64028551 0.01997874 0.04420507
v 0.64009588 0.02794596 0.04441775
v 0.64009588 0.03125833 0.04442957
v 0.63597581 0.00262892 0.03416154
v 0.80944969 0.10057007 0.14096553
v 0.76388758 0.02796054 0.13612101
v 0.77838540 0.04246492 0.13999663
v 0.80944969 0.09296765 0.12451779
v 0.79383136 0.04652149 0.11051593
v 0.78669450 0.01908863 0.12910236
v 0.77838540 0.01786292 0.13431317
v 0.66298899 0.00262892 0.03627660
v 0.77838540 0.01786292 0.12708183
v 0.74942425 0.01923457 0.13156007
v 0.76388758 0.01795047 0.13314340
v 0.77838540 0.02796054 0.13844874
v 0.64874975 0.00262892 0.03911240
v 0.79383136 0.04323831 0.13545932
v 0.80944969 0.09182948 0.13785795
v 0.79383136 0.04093278 0.12391518
v 0.78669450 0.01908863 0.13315522
f 1 2 3
f 1 3 11
f 1 11 4
f 1 4 6
f 1 6 2
f 2 5 3
f 2 6 7
f 2 7 5
f 3 8 9
f 3 9 10
f 3 10 11
f 3 5 12
f 3 12 13
f 3 13 14
f 3 14 15
f 3 15 8
f 4 11 16
f 4 16 17
f 4 17 19
f 4 19 6
f 5 7 18
f 5 18 13
f 5 13 12
f 6 19 20
f 6 20 7
f 7 21 22
f 7 22 18
f 7 20 23
f 7 23 21
f 8 24 25
f 8 25 9
f 8 15 26
f 8 26 24
f 9 25 10
f 10 27 16
f 10 16 11
f 10 25 27
f 13 18 28
f 13 28 15
f 13 15 14
f 15 28 35
f 15 35 29
f 15 29 26
f 16 27 30
f 16 30 17
f 17 30 31
f 17 31 32
f 17 32 19
f 18 22 33
f 18 33 34
f 18 34 35
f 18 35 28
f 19 32 36
f 19 36 20
f 20 36 32
f 20 32 31
f 20 31 30
f 20 30 48
f 20 48 72
f 20 72 86
f 20 86 75
f 20 75 52
f 20 52 37
f 20 37 38
f 20 38 39
f 20 39 23
f 21 23 39
f 21 39 22
f 22 39 40
f 22 40 33
f 24 41 64
f 24 64 42
f 24 42 25
f 24 26 43
f 24 43 41
f 25 42 44
f 25 44 27
f 26 29 43
f 27 44 45
f 27 45 30
f 29 35 46
f 29 46 47
f 29 47 43
f 30 45 49
f 30 49 48
f 33 50 51
f 33 51 34
f 33 40 50
f 34 51 35
f 35 51 50
f 35 50 46
f 37 52 53
f 37 53 54
f 37 54 55
f 37 55 38
f 38 56 57
f 38 57 58
f 38 58 59
f 38 59 39
f 38 55 56
f 39 59 40
f 40 59 60
f 40 60 50
f 41 61 62
f 41 62 63
f 41 63 64
f 41 43 65
f 41 65 66
f 41 66 61
f 42 64 49
f 42 49 44
f 43 47 66
f 43 66 65
f 44 49 45
f 46 67 68
f 46 68 69
f 46 69 70
f 46 70 47
f 46 50 60
f 46 60 59
f 46 59 58
f 46 58 57
f 46 57 79
f 46 79 84
f 46 84 71
f 46 71 61
f 46 61 67
f 47 70 66
f 48 49 72
f 49 64 63
f 49 63 62
f 49 62 73
f 49 73 74
f 49 74 72
f 52 75 53
f 53 75 76
f 53 76 77
f 53 77 57
f 53 57 54
f 54 57 55
f 55 57 56
f 57 78 79
f 57 77 80
f 57 80 78
f 61 81 62
f 61 66 67
f 61 71 81
f 62 81 82
f 62 82 83
f 62 83 73
f 66 70 69
f 66 69 68
f 66 68 67
f 71 84 82
f 71 82 81
f 72 74 83
f 72 83 85
f 72 85 86
f 73 83 74
f 75 86 87
f 75 87 76
f 76 87 77
f 77 87 88
f 77 88 78
f 77 78 80
f 78 88 83
f 78 83 82
f 78 82 84
f 78 84 79
f 83 88 85
f 85 88 86
f 86 88 87

