# https://github.com/mikedh/trimesh
v 0.25936242 0.01667914 -0.22453027
v 0.26065251 0.01789618 -0.21484854
v 0.25102995 0.04434050 -0.21170473
v 0.25506929 0.02796329 -0.22453027
v 0.26091685 0.01814753 -0.23344557
v 0.26560121 0.01814753 -0.23344557
v 0.27060286 0.01697016 -0.22362307
v 0.32883509 0.01734058 -0.15475614
v 0.34293054 0.01728766 -0.10797418
v 0.34626141 0.01769776 -0.09405377
v 0.34791098 0.01833273 -0.08527922
v 0.27189290 0.04698626 -0.15683638
v 0.25102995 0.05569077 -0.20721576
v 0.25102995 0.04263398 -0.22568767
v 0.25957390 0.02796329 -0.23429019
v 0.25102995 0.04431405 -0.22621946
v 0.26660578 0.02796329 -0.23429019
v 0.29073616 0.02796329 -0.21456700
v 0.33696667 0.01917938 -0.16030867
v 0.33177473 0.01845180 -0.16324918
v 0.32750273 0.01786973 -0.16568915
v 0.35254251 0.01814753 -0.10853725
v 0.35384314 0.01769776 -0.09405377
v 0.35335672 0.01833273 -0.08527922
v 0.34413600 0.04346740 -0.07559751
v 0.34039272 0.04508132 -0.07559751
v 0.33455575 0.04744926 -0.07903850
v 0.27127960 0.05583630 -0.15683638
v 0.25102995 0.05677554 -0.20704370
v 0.25102995 0.10135651 -0.23535376
v 0.25102995 0.05694752 -0.22961356
v 0.26660578 0.11820996 -0.23429019
v 0.29150808 0.05694752 -0.21613111
v 0.29141291 0.04244878 -0.21539597
v 0.31954035 0.05697397 -0.18531850
v 0.31846179 0.04248848 -0.18475542
v 0.33738963 0.02798974 -0.16080917
v 0.35219355 0.02798974 -0.12259843
v 0.35162254 0.01890158 -0.12033050
v 0.35759697 0.02798974 -0.09405377
v 0.35475250 0.02798974 -0.08446589
v 0.35526008 0.04248848 -0.08221361
v 0.35483711 0.10168723 -0.07559751
v 0.34039272 0.11475725 -0.07559751
v 0.33330798 0.11163526 -0.07888209
v 0.33405876 0.05721209 -0.07903850
v 0.27127960 0.05697397 -0.15683638
v 0.25102995 0.11396353 -0.21086011
v 0.27192462 0.11257451 -0.15777483
v 0.25102995 0.11398998 -0.23535376
v 0.26660578 0.12945441 -0.23427454
v 0.29145522 0.11492922 -0.21506749
v 0.31801765 0.11490277 -0.18495873
v 0.33738963 0.12942796 -0.16080917
v 0.33738963 0.07148593 -0.16084046
v 0.33738963 0.05697397 -0.16084046
v 0.29144463 0.11820996 -0.21497366
v 0.35041708 0.05697397 -0.12988710
v 0.35224643 0.04248848 -0.12262972
v 0.35572535 0.05697397 -0.10853725
v 0.35561959 0.04248848 -0.10853725
v 0.35863325 0.04248848 -0.09405377
v 0.35504861 0.02798974 -0.10853725
v 0.35556673 0.05697397 -0.08125952
v 0.35484767 0.11031237 -0.07559751
v 0.35905622 0.05697397 -0.09405377
v 0.34046673 0.11535255 -0.07559751
v 0.35000469 0.15142740 -0.08651487
v 0.26253472 0.15171844 -0.21633442
v 0.25801952 0.14393993 -0.22453027
v 0.25102995 0.11732364 -0.22453027
v 0.26291536 0.15149355 -0.23216301
v 0.26106488 0.14393993 -0.23333610
v 0.26545318 0.14393993 -0.23333610
v 0.29138118 0.12945441 -0.21462954
v 0.31742549 0.12942796 -0.18463030
v 0.33696667 0.14073856 -0.16030867
v 0.35222527 0.12941474 -0.12262972
v 0.35224643 0.11492922 -0.12262972
v 0.35573592 0.07145948 -0.10853725
v 0.35483711 0.11369895 -0.07559751
v 0.35872842 0.11492922 -0.09405377
v 0.35564075 0.11492922 -0.10853725
v 0.34330063 0.11679449 -0.07559751
v 0.35117843 0.15142740 -0.08651487
v 0.32033341 0.15171844 -0.15785306
v 0.26229152 0.15182427 -0.22453027
v 0.26407855 0.15149355 -0.23216301
v 0.28208645 0.14014327 -0.21907157
v 0.32870819 0.14453520 -0.16564221
v 0.32538789 0.15171844 -0.16132535
v 0.35166483 0.14136031 -0.12034614
v 0.35551385 0.12941474 -0.10853725
v 0.35807283 0.12941474 -0.09405377
v 0.35311352 0.14393993 -0.08541999
v 0.35389600 0.14491885 -0.09383479
v 0.35117843 0.15142740 -0.08886100
v 0.32538789 0.15171844 -0.15785306
v 0.26575983 0.15182427 -0.22453027
v 0.35300778 0.14325203 -0.10853725
f 1 2 3
f 1 3 4
f 1 4 5
f 1 5 6
f 1 6 7
f 1 7 8
f 1 8 9
f 1 9 10
f 1 10 11
f 1 11 2
f 2 11 12
f 2 12 3
f 3 13 29
f 3 29 48
f 3 48 71
f 3 71 50
f 3 50 30
f 3 30 31
f 3 31 16
f 3 16 14
f 3 14 4
f 3 12 13
f 4 14 5
f 5 15 17
f 5 17 6
f 5 14 16
f 5 16 15
f 6 17 18
f 6 18 19
f 6 19 20
f 6 20 21
f 6 21 7
f 7 21 8
f 8 21 22
f 8 22 23
f 8 23 9
f 9 23 10
f 10 23 24
f 10 24 11
f 11 24 25
f 11 25 26
f 11 26 27
f 11 27 12
f 12 27 28
f 12 28 13
f 13 28 29
f 15 30 17
f 15 16 31
f 15 31 30
f 17 30 50
f 17 50 32
f 17 32 33
f 17 33 34
f 17 34 18
f 18 34 35
f 18 35 36
f 18 36 19
f 19 36 35
f 19 35 37
f 19 37 38
f 19 38 39
f 19 39 22
f 19 22 20
f 20 22 21
f 22 39 40
f 22 40 23
f 23 40 24
f 24 41 42
f 24 42 25
f 24 40 41
f 25 43 65
f 25 65 81
f 25 81 84
f 25 84 67
f 25 67 44
f 25 44 26
f 25 42 43
f 26 44 45
f 26 45 46
f 26 46 27
f 27 46 28
f 28 46 45
f 28 45 47
f 28 47 29
f 29 47 49
f 29 49 48
f 32 51 33
f 32 50 51
f 33 51 52
f 33 52 35
f 33 35 34
f 35 53 54
f 35 54 55
f 35 55 56
f 35 56 37
f 35 52 57
f 35 57 53
f 37 56 58
f 37 58 38
f 38 59 60
f 38 60 61
f 38 61 62
f 38 62 63
f 38 63 39
f 38 58 59
f 39 63 40
f 40 62 42
f 40 42 41
f 40 63 62
f 42 64 43
f 42 62 64
f 43 64 66
f 43 66 65
f 44 67 45
f 45 67 68
f 45 68 49
f 45 49 47
f 48 69 70
f 48 70 71
f 48 49 69
f 49 68 69
f 50 71 70
f 50 70 72
f 50 72 73
f 50 73 74
f 50 74 51
f 51 74 75
f 51 75 57
f 51 57 52
f 53 76 54
f 53 57 75
f 53 75 76
f 54 77 78
f 54 78 58
f 54 58 55
f 54 76 77
f 55 58 56
f 58 78 79
f 58 79 59
f 59 79 80
f 59 80 60
f 60 80 66
f 60 66 61
f 61 66 62
f 62 66 64
f 65 66 81
f 66 82 81
f 66 80 83
f 66 83 82
f 67 84 68
f 68 84 85
f 68 85 98
f 68 98 86
f 68 86 87
f 68 87 69
f 69 87 70
f 70 87 72
f 72 88 74
f 72 74 73
f 72 87 99
f 72 99 88
f 74 88 75
f 75 88 89
f 75 89 77
f 75 77 76
f 77 90 91
f 77 91 92
f 77 92 78
f 77 89 88
f 77 88 90
f 78 92 93
f 78 93 83
f 78 83 80
f 78 80 79
f 81 82 94
f 81 94 95
f 81 95 85
f 81 85 84
f 82 83 93
f 82 93 94
f 85 96 97
f 85 97 91
f 85 91 98
f 85 95 96
f 86 98 99
f 86 99 87
f 88 99 91
f 88 91 90
f 91 97 92
f 91 99 98
f 92 97 100
f 92 100 94
f 92 94 93
f 94 96 95
f 94 100 96
f 96 100 97

