# https://github.com/mikedh/trimesh
v 1.03049404 -0.36364209 0.21661746
v 1.03112197 -0.35293123 0.21701405
v 1.03819288 -0.36364209 0.21661746
v 1.03054865 -0.37812050 0.21672322
v 1.02331393 -0.37812050 0.22243413
v 1.02325935 -0.36364209 0.22272497
v 1.03983094 -0.33073003 0.21897057
v 1.03633643 -0.35293123 0.21701405
v 0.80572649 -0.34914202 0.41261260
v 1.01588812 -0.34914202 0.23065678
v 1.01594273 -0.34854296 0.23070966
v 1.01678905 -0.33987468 0.23155572
v 1.02492468 -0.33073003 0.22684951
v 1.03761956 -0.37812050 0.21672322
v 1.04545489 -0.36364930 0.21809808
v 1.03120387 -0.38629799 0.21711981
v 1.01588812 -0.39262056 0.23068322
v 0.80572649 -0.39103270 0.41076184
v 0.80572649 -0.37975888 0.41012730
v 1.00556841 -0.33018872 0.25408207
v 1.05353593 -0.33073003 0.22293648
v 0.80572649 -0.33905188 0.41700154
v 1.01111046 -0.33073003 0.23991056
v 1.03554470 -0.38629799 0.21711981
v 1.04226071 -0.37811328 0.21783368
v 1.04488158 -0.37811328 0.21849467
v 1.05394545 -0.36364930 0.22367678
v 1.05394545 -0.37811328 0.22415269
v 1.01719856 -0.40014846 0.23195231
v 0.80572649 -0.39142244 0.41092048
v 0.80572649 -0.33376141 0.44251553
v 0.83646720 -0.33334279 0.44251553
v 0.83646720 -0.33353045 0.45703076
v 1.04236990 -0.33073003 0.30550667
v 1.04570060 -0.33073003 0.30569174
v 1.05047822 -0.33073003 0.30577106
v 1.07234617 -0.33073003 0.30413182
v 1.07234617 -0.33073003 0.23684359
v 1.07098114 -0.33073003 0.23578602
v 1.06904279 -0.33073003 0.23433185
v 0.80572649 -0.33496674 0.42802675
v 1.01856359 -0.40014846 0.23195231
v 1.06254520 -0.38691148 0.23131776
v 1.05394545 -0.38812403 0.22846231
v 1.06844220 -0.39819252 0.25001041
v 1.07068085 -0.36364930 0.23599753
v 1.07054435 -0.37811328 0.23610329
v 1.06328232 -0.37811328 0.23078898
v 1.01045526 -0.40103623 0.25405563
v 0.99590392 -0.40138266 0.26857085
v 0.99694137 -0.40070423 0.25500745
v 0.80572649 -0.40262409 0.42802675
v 0.80572649 -0.40245808 0.42630820
v 0.80572649 -0.40124553 0.41705442
v 0.80572649 -0.40022786 0.41597040
v 0.80572649 -0.33458421 0.45703076
v 0.80747375 -0.33443265 0.45703076
v 0.82197048 -0.33373976 0.45703076
v 0.82197048 -0.33506779 0.47151953
v 0.83646720 -0.33588337 0.47151953
v 0.84402952 -0.34914202 0.47905474
v 0.84370191 -0.37014510 0.47879036
v 0.84356541 -0.37812050 0.47863174
v 0.84260988 -0.39261334 0.47762704
v 1.04671073 -0.39988142 0.29030402
v 1.06188997 -0.40019898 0.27634403
v 1.07693273 -0.40040108 0.26233116
v 1.07898030 -0.39261334 0.26431411
v 1.08463155 -0.37812050 0.25405563
v 1.08375793 -0.34606734 0.25397631
v 0.83646720 -0.33990355 0.48140786
v 0.84397492 -0.34162132 0.47902833
v 1.08004499 -0.34606734 0.24316261
v 1.08012694 -0.37812050 0.24334768
v 1.07081734 -0.34854296 0.23589177
v 1.07231890 -0.39920297 0.25336820
v 1.07693273 -0.40040108 0.25738700
v 1.06844220 -0.40069701 0.25725479
v 1.07865269 -0.38990676 0.24456389
v 1.01045526 -0.40151980 0.26854441
v 0.85096393 -0.40375002 0.42802675
v 0.83646720 -0.40351907 0.42802675
v 0.80572649 -0.40285506 0.44084985
v 0.82197048 -0.40364175 0.45703076
v 0.80572649 -0.33843838 0.47149310
v 0.82197048 -0.33898692 0.48235968
v 0.80720073 -0.33827959 0.47196900
v 0.83646720 -0.34914202 0.48418399
v 0.83788685 -0.36465254 0.48304710
v 0.83630340 -0.37812050 0.48378740
v 0.83534787 -0.39261334 0.48331148
v 0.83272699 -0.40144762 0.48156650
v 1.07231890 -0.40056709 0.26492221
v 1.08009962 -0.39389085 0.25315669
v 0.83714972 -0.40256634 0.47218052
v 0.82197048 -0.34914202 0.48637845
v 1.06737742 -0.40072586 0.26772479
v 1.02495199 -0.40151980 0.28303319
v 0.83646720 -0.40392325 0.45703076
v 0.80572649 -0.40298498 0.45531218
v 0.82197048 -0.40318705 0.47151953
v 0.80747375 -0.40302828 0.45703076
v 0.80572649 -0.34637047 0.47786499
v 0.81186917 -0.34040877 0.48021808
v 0.82197048 -0.36364930 0.48672218
v 0.82197048 -0.37812050 0.48635204
v 0.82197048 -0.39261334 0.48468634
v 0.82197048 -0.40118780 0.48098484
v 0.81017652 -0.34914202 0.48127567
v 0.80908449 -0.36364930 0.48148719
v 0.80572649 -0.40293445 0.45703076
v 0.80572649 -0.40112284 0.47025043
v 0.80572649 -0.40136823 0.46861120
v 0.80572649 -0.34914202 0.47849953
v 0.80851117 -0.37812050 0.48132855
v 0.80572649 -0.37812050 0.48019165
v 0.81135046 -0.39261334 0.48013877
v 0.81421704 -0.40004021 0.47894900
v 0.80572649 -0.35683593 0.47942492
v 0.80572649 -0.36979144 0.48013877
v 0.80572649 -0.39261334 0.47712469
f 1 2 8
f 1 8 3
f 1 3 14
f 1 14 4
f 1 4 5
f 1 5 6
f 1 6 2
f 2 7 8
f 2 6 9
f 2 9 10
f 2 10 11
f 2 11 12
f 2 12 13
f 2 13 7
f 3 8 7
f 3 7 15
f 3 15 14
f 4 14 24
f 4 24 16
f 4 16 5
f 5 16 17
f 5 17 18
f 5 18 19
f 5 19 6
f 6 19 9
f 7 13 20
f 7 20 21
f 7 21 15
f 9 19 18
f 9 18 30
f 9 30 55
f 9 55 54
f 9 54 53
f 9 53 52
f 9 52 83
f 9 83 100
f 9 100 111
f 9 111 113
f 9 113 112
f 9 112 121
f 9 121 116
f 9 116 120
f 9 120 119
f 9 119 114
f 9 114 103
f 9 103 85
f 9 85 56
f 9 56 31
f 9 31 41
f 9 41 22
f 9 22 13
f 9 13 12
f 9 12 11
f 9 11 10
f 13 22 23
f 13 23 20
f 14 15 25
f 14 25 24
f 15 26 25
f 15 21 27
f 15 27 28
f 15 28 26
f 16 24 42
f 16 42 29
f 16 29 17
f 17 29 18
f 18 29 30
f 20 31 32
f 20 32 33
f 20 33 34
f 20 34 35
f 20 35 36
f 20 36 37
f 20 37 38
f 20 38 39
f 20 39 40
f 20 40 21
f 20 23 31
f 21 40 27
f 22 41 23
f 23 41 31
f 24 25 26
f 24 26 43
f 24 43 44
f 24 44 45
f 24 45 42
f 26 28 43
f 27 40 46
f 27 46 47
f 27 47 48
f 27 48 28
f 28 48 43
f 29 42 49
f 29 49 50
f 29 50 51
f 29 51 52
f 29 52 53
f 29 53 54
f 29 54 55
f 29 55 30
f 31 56 57
f 31 57 58
f 31 58 33
f 31 33 32
f 33 58 59
f 33 59 60
f 33 60 37
f 33 37 36
f 33 36 35
f 33 35 34
f 37 61 62
f 37 62 63
f 37 63 64
f 37 64 65
f 37 65 66
f 37 66 67
f 37 67 68
f 37 68 69
f 37 69 70
f 37 70 38
f 37 60 71
f 37 71 72
f 37 72 61
f 38 70 73
f 38 73 74
f 38 74 39
f 39 74 75
f 39 75 40
f 40 75 46
f 42 45 76
f 42 76 77
f 42 77 78
f 42 78 49
f 43 48 47
f 43 47 74
f 43 74 79
f 43 79 77
f 43 77 44
f 44 77 76
f 44 76 45
f 46 75 74
f 46 74 47
f 49 78 80
f 49 80 50
f 50 81 82
f 50 82 52
f 50 52 51
f 50 80 81
f 52 82 84
f 52 84 83
f 56 85 59
f 56 59 57
f 57 59 58
f 59 86 60
f 59 85 87
f 59 87 86
f 60 86 71
f 61 72 88
f 61 88 89
f 61 89 62
f 62 89 90
f 62 90 63
f 63 90 91
f 63 91 64
f 64 91 92
f 64 92 65
f 65 92 66
f 66 92 67
f 67 93 77
f 67 77 94
f 67 94 68
f 67 92 95
f 67 95 93
f 68 94 69
f 69 94 79
f 69 79 74
f 69 74 73
f 69 73 70
f 71 86 96
f 71 96 88
f 71 88 72
f 77 79 94
f 77 93 78
f 78 93 97
f 78 97 98
f 78 98 80
f 80 98 81
f 81 99 82
f 81 98 99
f 82 99 84
f 83 84 100
f 84 99 101
f 84 101 102
f 84 102 100
f 85 103 104
f 85 104 87
f 86 87 104
f 86 104 96
f 88 96 105
f 88 105 90
f 88 90 89
f 90 105 106
f 90 106 91
f 91 106 107
f 91 107 92
f 92 107 108
f 92 108 101
f 92 101 95
f 93 95 99
f 93 99 97
f 95 101 99
f 96 104 109
f 96 109 110
f 96 110 105
f 97 99 98
f 100 102 111
f 101 108 112
f 101 112 113
f 101 113 111
f 101 111 102
f 103 114 109
f 103 109 104
f 105 110 115
f 105 115 106
f 106 115 107
f 107 115 116
f 107 116 117
f 107 117 118
f 107 118 108
f 108 118 112
f 109 114 119
f 109 119 120
f 109 120 110
f 110 120 116
f 110 116 115
f 112 118 121
f 116 121 117
f 117 121 118

