# https://github.com/mikedh/trimesh
v 0.63330295 -0.37799678 0.00742936
v 0.65100075 -0.38708222 -0.00221045
v 0.65100075 -0.38708222 0.00218529
v 0.63330295 -0.37669886 0.02038528
v 0.63330295 -0.37523870 -0.00246286
v 0.66240554 -0.37809412 -0.00829580
v 0.66240554 -0.38802320 -0.00351445
v 0.66240554 -0.38802320 0.00320888
v 0.64779315 -0.37731538 0.02038528
v 0.65216159 -0.35349858 0.05945634
v 0.65191721 -0.35349858 0.05917591
v 0.63330295 -0.36203239 0.02038528
v 0.63330295 -0.36676979 -0.00246286
v 0.66240554 -0.36358989 -0.00912309
v 0.67690592 -0.37809412 -0.00849913
v 0.67690592 -0.36358989 -0.00947363
v 0.72148645 -0.38821788 -0.00392809
v 0.72148645 -0.37809412 -0.00904596
v 0.67690592 -0.38805563 0.00325796
v 0.72039689 -0.37789944 0.02038528
v 0.69139612 -0.37776965 0.02038528
v 0.66240554 -0.37763986 0.02038528
v 0.66245646 -0.35349858 0.06002422
v 0.67691611 -0.05672962 0.06039578
v 0.66588808 -0.05672962 0.05919694
v 0.63330295 -0.36232442 0.00749246
v 0.66262957 -0.05672962 0.05037739
v 0.66014495 -0.05672962 0.00472320
v 0.66014495 -0.05672962 -0.00328312
v 0.66131598 -0.05672962 -0.00411038
v 0.66248701 -0.05672962 -0.00469928
v 0.67457405 -0.05672962 -0.00958581
v 0.67691611 -0.05672962 -0.00988727
v 0.68906425 -0.05672962 -0.01026584
v 0.69139612 -0.36358989 -0.00963488
v 0.69140631 -0.05909832 -0.01029389
v 0.72039689 -0.38805563 0.00329301
v 0.69139612 -0.38805563 0.00327196
v 0.73733097 -0.35349858 0.05133786
v 0.72148645 -0.38795830 0.00319485
v 0.72148645 -0.36527718 -0.00977509
v 0.73001968 -0.05672962 -0.00676046
v 0.73410300 -0.35349858 0.03796130
v 0.72148645 -0.37786699 0.02038528
v 0.72038670 -0.35349858 0.06005927
v 0.67252730 -0.35349858 0.06022052
v 0.69142667 -0.30560540 0.06082345
v 0.69142667 -0.29110117 0.06089355
v 0.69142667 -0.08813923 0.06116698
v 0.69142667 -0.07363500 0.06106882
v 0.69142667 -0.05672962 0.06088654
v 0.69140631 -0.05672962 -0.01027986
v 0.72148645 -0.36358989 -0.00981716
v 0.70589650 -0.05672962 -0.00948063
v 0.73155729 -0.35349858 0.05914787
v 0.73001968 -0.05672962 0.00465309
v 0.72788128 -0.05672962 0.03505884
v 0.72617056 -0.05672962 0.05300642
v 0.72266766 -0.05672962 0.05918993
v 0.72038670 -0.32007718 0.06051497
v 0.70589650 -0.32007718 0.06078137
v 0.70589650 -0.30560540 0.06092860
v 0.70588632 -0.07363500 0.06132822
v 0.69374836 -0.05672962 0.06092159
v 0.72173084 -0.05672962 0.05942830
v 0.72062091 -0.05672962 0.05958955
v 0.70822838 -0.05672962 0.06098469
v 0.70588632 -0.05672962 0.06108986
f 1 2 3
f 1 3 4
f 1 4 12
f 1 12 26
f 1 26 13
f 1 13 5
f 1 5 2
f 2 5 6
f 2 6 7
f 2 7 8
f 2 8 3
f 3 8 4
f 4 8 9
f 4 9 10
f 4 10 11
f 4 11 12
f 5 13 14
f 5 14 6
f 6 15 7
f 6 14 16
f 6 16 15
f 7 17 8
f 7 15 18
f 7 18 17
f 8 17 19
f 8 19 20
f 8 20 21
f 8 21 22
f 8 22 9
f 9 22 23
f 9 23 10
f 10 23 24
f 10 24 25
f 10 25 11
f 11 25 12
f 12 25 27
f 12 27 28
f 12 28 29
f 12 29 26
f 13 26 29
f 13 29 30
f 13 30 31
f 13 31 32
f 13 32 14
f 14 32 33
f 14 33 34
f 14 34 16
f 15 16 18
f 16 35 18
f 16 34 36
f 16 36 35
f 17 37 38
f 17 38 19
f 17 18 39
f 17 39 40
f 17 40 37
f 18 35 41
f 18 41 42
f 18 42 43
f 18 43 39
f 19 38 20
f 20 38 37
f 20 37 44
f 20 44 45
f 20 45 46
f 20 46 21
f 21 46 22
f 22 46 23
f 23 46 47
f 23 47 48
f 23 48 49
f 23 49 24
f 24 49 50
f 24 50 51
f 24 51 64
f 24 64 68
f 24 68 67
f 24 67 66
f 24 66 65
f 24 65 59
f 24 59 58
f 24 58 57
f 24 57 56
f 24 56 42
f 24 42 54
f 24 54 52
f 24 52 34
f 24 34 33
f 24 33 32
f 24 32 31
f 24 31 30
f 24 30 29
f 24 29 28
f 24 28 27
f 24 27 25
f 34 52 36
f 35 53 41
f 35 36 53
f 36 52 54
f 36 54 53
f 37 40 44
f 39 55 40
f 39 43 42
f 39 42 56
f 39 56 57
f 39 57 58
f 39 58 59
f 39 59 55
f 40 55 44
f 41 53 42
f 42 53 54
f 44 55 45
f 45 55 60
f 45 60 61
f 45 61 46
f 46 61 62
f 46 62 47
f 47 62 48
f 48 62 63
f 48 63 49
f 49 63 50
f 50 63 51
f 51 63 64
f 55 59 65
f 55 65 66
f 55 66 60
f 60 66 63
f 60 63 62
f 60 62 61
f 63 66 67
f 63 67 68
f 63 68 64

