# https://github.com/mikedh/trimesh
v 0.82405150 -0.51853326 -0.26336909
v 0.82407049 -0.43616723 -0.26335396
v 0.82412748 -0.42166953 -0.26335396
v 0.83356759 -0.51853326 -0.26336909
v 0.82407049 -0.52314013 -0.26336909
v 0.81785940 -0.45274928 -0.25869596
v 0.81785940 -0.45063835 -0.25869596
v 0.81785940 -0.43648585 -0.25402279
v 0.82587495 -0.41173887 -0.26249193
v 0.83333964 -0.42166953 -0.26335396
v 0.83333964 -0.52314013 -0.26336909
v 0.83453629 -0.45063835 -0.26335396
v 0.83463125 -0.46513605 -0.26335396
v 0.85958959 -0.52314013 -0.26156939
v 0.82209510 -0.51853326 -0.26045028
v 0.82593192 -0.53763783 -0.26240121
v 0.82011971 -0.51853326 -0.25381106
v 0.81785940 -0.46432621 -0.25358424
v 0.81785940 -0.43643273 -0.25361449
v 0.82144930 -0.42166953 -0.25353885
v 0.83666363 -0.40982708 -0.25378080
v 0.83197207 -0.41173887 -0.26249193
v 0.82538109 -0.41074314 -0.25353885
v 0.85911474 -0.41334529 -0.26129719
v 0.85957060 -0.42166953 -0.26155426
v 0.83174414 -0.53763783 -0.26240121
v 0.85911474 -0.53329646 -0.26129719
v 0.85958959 -0.47972670 -0.26156939
v 0.90251642 -0.52312686 -0.24689967
v 0.90225051 -0.53242025 -0.24668794
v 0.82826821 -0.54524513 -0.26123668
v 0.82441239 -0.53763783 -0.25353885
v 0.81785940 -0.45925468 -0.23607126
v 0.81785940 -0.46273306 -0.23911108
v 0.82116438 -0.52314013 -0.25353885
v 0.82152527 -0.51853326 -0.24823052
v 0.81785940 -0.43737535 -0.23864223
v 0.81785940 -0.43786657 -0.23607126
v 0.85153606 -0.41069004 -0.25378080
v 0.83645469 -0.41069004 -0.24399595
v 0.99632863 -0.41155300 -0.12367379
v 0.99701242 -0.41050417 -0.13835866
v 0.89444390 -0.40993329 -0.23903545
v 0.90012315 -0.41018555 -0.23885397
v 0.90783479 -0.41055729 -0.23859689
v 0.82743246 -0.41220353 -0.24500921
v 0.90225051 -0.41369047 -0.24668794
v 0.90251642 -0.42168280 -0.24689967
v 0.82986372 -0.54524513 -0.26123668
v 0.91746483 -0.54515218 -0.23212406
v 0.93077973 -0.50861587 -0.23185182
v 0.93076076 -0.52310030 -0.23185182
v 0.93074176 -0.53066777 -0.23182156
v 0.82832518 -0.54525839 -0.25353885
v 0.82895200 -0.54503270 -0.24612836
v 0.82473529 -0.51853326 -0.24230214
v 0.98639466 -0.50442056 -0.10886793
v 0.82767938 -0.53763783 -0.24519069
v 0.98688852 -0.44948333 -0.10886793
v 0.98734439 -0.44179635 -0.10886793
v 0.98742037 -0.44154412 -0.10886793
v 1.00143807 -0.41290719 -0.11487195
v 1.00502796 -0.41290719 -0.11487195
v 1.00612961 -0.41167248 -0.12305373
v 1.00527488 -0.41224336 -0.13406361
v 0.97590990 -0.41216371 -0.18976325
v 0.96605191 -0.41025194 -0.19496574
v 0.92171953 -0.41226992 -0.23369690
v 0.92344799 -0.41249562 -0.23309194
v 0.93074176 -0.41432773 -0.23182156
v 0.93076076 -0.42168280 -0.23185182
v 0.93077973 -0.49057342 -0.23185182
v 0.83007265 -0.54525839 -0.25353885
v 0.99032647 -0.54543100 -0.14699413
v 0.97444734 -0.54507253 -0.18847779
v 0.96122739 -0.46518917 -0.20506818
v 0.96117042 -0.50862916 -0.20499259
v 0.96113243 -0.52310030 -0.20496233
v 0.96063857 -0.53407977 -0.20420615
v 0.98787622 -0.54543100 -0.14699413
v 0.98787622 -0.54543100 -0.14371236
v 1.00128610 -0.53441168 -0.11478121
v 0.99596774 -0.51128441 -0.10886793
v 0.98764830 -0.44130515 -0.10886793
v 0.99621466 -0.43530427 -0.10886793
v 1.00772513 -0.43667172 -0.10886793
v 1.00960555 -0.42166953 -0.12305373
v 1.00666146 -0.42166953 -0.13619600
v 0.97674563 -0.42165624 -0.19050431
v 0.96061958 -0.41303994 -0.20417589
v 0.96111344 -0.42165624 -0.20494721
v 0.96122739 -0.45066491 -0.20506818
v 1.00565476 -0.53495600 -0.13435094
v 1.00654750 -0.53682796 -0.12305373
v 0.99032647 -0.54543100 -0.14371236
v 0.97566298 -0.53761127 -0.18955151
v 0.97674563 -0.46518917 -0.19053456
v 0.97674563 -0.52310030 -0.19050431
v 1.00519890 -0.53441168 -0.11478121
v 1.00831395 -0.50897434 -0.10886793
v 1.00857986 -0.45131544 -0.10886793
v 1.01110610 -0.43616723 -0.12305373
v 1.01188484 -0.45066491 -0.12305373
v 1.00700335 -0.43616723 -0.13645309
v 0.97674563 -0.45066491 -0.19053456
v 1.00700335 -0.45066491 -0.13646822
v 1.00694636 -0.52312686 -0.13640773
v 1.01040331 -0.52312686 -0.12305373
v 1.00700335 -0.46517588 -0.13646822
v 1.00700335 -0.50862916 -0.13645309
v 1.00837093 -0.50873535 -0.10886793
v 1.01146699 -0.50862916 -0.12305373
f 1 2 3
f 1 3 10
f 1 10 4
f 1 4 11
f 1 11 5
f 1 5 6
f 1 6 7
f 1 7 2
f 2 7 3
f 3 7 8
f 3 8 9
f 3 9 22
f 3 22 10
f 4 10 12
f 4 12 13
f 4 13 14
f 4 14 11
f 5 15 6
f 5 11 26
f 5 26 16
f 5 16 15
f 6 15 17
f 6 17 18
f 6 18 34
f 6 34 33
f 6 33 38
f 6 38 37
f 6 37 19
f 6 19 8
f 6 8 7
f 8 19 20
f 8 20 9
f 9 21 22
f 9 20 23
f 9 23 21
f 10 22 24
f 10 24 25
f 10 25 12
f 11 14 27
f 11 27 26
f 12 25 13
f 13 25 28
f 13 28 14
f 14 28 48
f 14 48 29
f 14 29 30
f 14 30 27
f 15 16 17
f 16 26 49
f 16 49 31
f 16 31 32
f 16 32 17
f 17 33 34
f 17 34 18
f 17 32 35
f 17 35 36
f 17 36 33
f 19 37 20
f 20 37 38
f 20 38 23
f 21 39 22
f 21 23 40
f 21 40 41
f 21 41 42
f 21 42 43
f 21 43 44
f 21 44 45
f 21 45 39
f 22 39 24
f 23 38 46
f 23 46 40
f 24 39 45
f 24 45 47
f 24 47 25
f 25 47 48
f 25 48 28
f 26 27 49
f 27 30 50
f 27 50 49
f 29 48 72
f 29 72 51
f 29 51 52
f 29 52 53
f 29 53 30
f 30 53 50
f 31 49 73
f 31 73 54
f 31 54 32
f 32 36 35
f 32 54 55
f 32 55 36
f 33 36 56
f 33 56 57
f 33 57 38
f 36 55 58
f 36 58 56
f 38 57 59
f 38 59 60
f 38 60 61
f 38 61 62
f 38 62 46
f 40 46 62
f 40 62 41
f 41 62 63
f 41 63 64
f 41 64 42
f 42 64 65
f 42 65 66
f 42 66 67
f 42 67 43
f 43 67 44
f 44 67 45
f 45 67 68
f 45 68 47
f 47 68 69
f 47 69 70
f 47 70 48
f 48 70 71
f 48 71 72
f 49 50 74
f 49 74 73
f 50 53 75
f 50 75 74
f 51 72 92
f 51 92 76
f 51 76 52
f 52 76 77
f 52 77 78
f 52 78 53
f 53 78 79
f 53 79 75
f 54 73 74
f 54 74 80
f 54 80 81
f 54 81 55
f 55 56 58
f 55 81 82
f 55 82 57
f 55 57 56
f 57 82 83
f 57 83 100
f 57 100 111
f 57 111 101
f 57 101 86
f 57 86 85
f 57 85 84
f 57 84 61
f 57 61 60
f 57 60 59
f 61 84 62
f 62 84 85
f 62 85 63
f 63 85 86
f 63 86 87
f 63 87 64
f 64 87 65
f 65 87 88
f 65 88 66
f 66 88 89
f 66 89 90
f 66 90 70
f 66 70 67
f 67 70 69
f 67 69 68
f 70 90 91
f 70 91 92
f 70 92 71
f 71 92 72
f 74 93 94
f 74 94 95
f 74 95 81
f 74 81 80
f 74 75 93
f 75 79 96
f 75 96 93
f 76 92 105
f 76 105 97
f 76 97 98
f 76 98 77
f 77 98 78
f 78 98 79
f 79 98 96
f 81 95 99
f 81 99 82
f 82 99 83
f 83 99 100
f 86 101 102
f 86 102 87
f 87 102 88
f 88 102 103
f 88 103 104
f 88 104 89
f 89 105 92
f 89 92 91
f 89 91 90
f 89 104 106
f 89 106 105
f 93 107 108
f 93 108 94
f 93 96 107
f 94 99 95
f 94 108 99
f 96 98 107
f 97 105 106
f 97 106 109
f 97 109 110
f 97 110 98
f 98 110 107
f 99 108 111
f 99 111 100
f 101 111 103
f 101 103 102
f 103 112 107
f 103 107 110
f 103 110 109
f 103 109 106
f 103 106 104
f 103 111 112
f 107 112 108
f 108 112 111

