# https://github.com/mikedh/trimesh
v 0.10928263 -0.30559848 0.00949824
v 0.10928263 -0.31466579 0.00727292
v 0.10928263 -0.28985948 0.00771470
v 0.09559250 -0.29112814 0.05099374
v 0.06320447 -0.33366334 0.14804023
v 0.09038768 -0.33157683 0.05884779
v 0.09005151 -0.33365690 0.05703153
v 0.09129185 -0.33365690 0.05099374
v 0.09805002 -0.33364402 -0.00630803
v 0.10928263 -0.31462715 0.00581665
v 0.10928263 -0.28982729 0.00735472
v 0.09786452 -0.26788027 0.03651285
v 0.09657780 -0.26788027 0.04245247
v 0.09445650 -0.26788027 0.05009380
v 0.06320447 -0.32806067 0.14339326
v 0.04306922 -0.28510044 0.12973050
v 0.03340149 -0.28318779 0.13102314
v 0.02782575 -0.28318779 0.13102314
v 0.00049183 -0.29429010 0.13210308
v -0.00060943 -0.30561136 0.13282303
v -0.00072535 -0.31717733 0.13283939
v -0.00076010 -0.32011390 0.13283939
v -0.00085285 -0.33366334 0.13283939
v 0.06320447 -0.33366334 0.10137415
v 0.09361028 -0.33365690 0.00974366
v 0.09116435 -0.33364402 -0.01774548
v 0.10928263 -0.30559848 -0.00107200
v 0.10928263 -0.31386724 0.00508033
v 0.10928263 -0.29083834 -0.00239738
v 0.09212648 -0.26788027 0.00773108
v 0.08841704 -0.26788027 0.05292453
v 0.02431335 -0.26796399 0.09450185
v 0.02431335 -0.26833750 0.10899910
v 0.02431335 -0.26889133 0.11757310
v 0.03207998 -0.26923264 0.11664044
v 0.04790304 -0.28103045 0.12006021
v 0.06320447 -0.32075788 0.13707730
v 0.02352510 -0.27766240 0.12595074
v 0.00980022 -0.28546107 0.13015593
v 0.00080483 -0.28141684 0.12038746
v -0.00155993 -0.29012996 0.12452720
v -0.00530417 -0.30561136 0.12349635
v -0.00770372 -0.33366334 0.12284185
v -0.00717047 -0.33366334 0.12385633
v 0.05959936 -0.33366334 0.07064520
v 0.03568509 -0.33365690 0.00974366
v 0.08228488 -0.33364402 -0.01911994
v 0.08227330 -0.29112814 -0.00946600
v 0.09776018 -0.29020724 -0.00539173
v 0.10928263 -0.29982837 -0.00225010
v 0.08364118 -0.27523458 -0.00431178
v 0.08077795 -0.26788027 -0.00218467
v 0.08830112 -0.26788027 0.00062970
v 0.08228488 -0.26788027 0.05555890
v 0.00980022 -0.26867881 0.09515636
v 0.01051889 -0.26871745 0.10791917
v 0.06221917 -0.26788027 0.05773513
v 0.06173229 -0.26788027 0.05773513
v 0.05900819 -0.26788027 0.05755514
v 0.05250507 -0.26788027 0.05570617
v 0.03955682 -0.26788027 0.04968474
v 0.03824694 -0.26788027 0.04220703
v 0.03778327 -0.26788027 0.03649648
v 0.01582805 -0.26886557 0.11762219
v 0.01051889 -0.27659983 0.12240006
v 0.00616032 -0.27175062 0.11202618
v 0.00230017 -0.26913604 0.10237226
v 0.00039908 -0.27659983 0.10791917
v -0.00433045 -0.29112170 0.10899910
v -0.00667201 -0.30561136 0.10899910
v -0.00914111 -0.33366334 0.10939180
v 0.02528711 -0.33366334 0.07064520
v 0.00059616 -0.33364402 0.00804197
v 0.00982339 -0.33364402 0.00205325
v -0.00713568 -0.33366334 0.07066157
v 0.06779491 -0.29112814 -0.00915511
v 0.06779491 -0.27663847 -0.00557170
v 0.06779491 -0.26788027 -0.00193922
v 0.00230017 -0.26913604 0.10042511
v 0.03956840 -0.26788027 0.03145683
v -0.00496800 -0.30561136 0.08000461
v -0.00598809 -0.30561136 0.09450185
v 0.00162783 -0.29578415 0.02201560
v -0.00706614 -0.32011390 0.08000461
v -0.00667201 -0.32010746 0.07064520
v -0.00688068 -0.33364402 0.05195914
v -0.00616196 -0.33364402 0.03746188
v -0.00369286 -0.33364402 0.02201560
v 0.00166263 -0.30561136 0.01288529
v 0.00220746 -0.29716227 0.01398158
v 0.00743541 -0.30298390 0.00974366
v 0.00982339 -0.30561136 0.00784561
v -0.00608084 -0.33364402 0.03649648
v 0.05888069 -0.27663847 -0.00202103
v 0.06037603 -0.26905876 0.00002429
v 0.06321609 -0.26788027 -0.00043387
v 0.01658151 -0.28376094 0.01448882
v 0.04294167 -0.26788027 0.02592627
v -0.00526937 -0.32010746 0.05099374
v -0.00591855 -0.31494914 0.07064520
v -0.00642859 -0.32010746 0.06549099
v -0.00014572 -0.30561136 0.02201560
v 0.01097098 -0.29184940 0.01203443
v -0.00398266 -0.32010746 0.03649648
v 0.05991236 -0.26788027 0.00157873
f 1 2 10
f 1 10 28
f 1 28 27
f 1 27 50
f 1 50 29
f 1 29 11
f 1 11 3
f 1 3 4
f 1 4 5
f 1 5 2
f 2 6 7
f 2 7 8
f 2 8 9
f 2 9 10
f 2 5 6
f 3 11 12
f 3 12 13
f 3 13 14
f 3 14 4
f 4 14 5
f 5 15 16
f 5 16 17
f 5 17 18
f 5 18 19
f 5 19 20
f 5 20 21
f 5 21 22
f 5 22 23
f 5 23 44
f 5 44 43
f 5 43 71
f 5 71 75
f 5 75 72
f 5 72 45
f 5 45 24
f 5 24 25
f 5 25 8
f 5 8 7
f 5 7 6
f 5 14 15
f 8 25 9
f 9 26 27
f 9 27 28
f 9 28 10
f 9 25 26
f 11 29 12
f 12 29 30
f 12 30 53
f 12 53 52
f 12 52 78
f 12 78 96
f 12 96 105
f 12 105 98
f 12 98 80
f 12 80 63
f 12 63 62
f 12 62 61
f 12 61 60
f 12 60 59
f 12 59 58
f 12 58 57
f 12 57 54
f 12 54 31
f 12 31 14
f 12 14 13
f 14 31 32
f 14 32 33
f 14 33 34
f 14 34 35
f 14 35 36
f 14 36 37
f 14 37 15
f 15 37 16
f 16 37 36
f 16 36 35
f 16 35 17
f 17 35 34
f 17 34 38
f 17 38 18
f 18 38 39
f 18 39 19
f 19 39 40
f 19 40 41
f 19 41 42
f 19 42 20
f 20 42 43
f 20 43 44
f 20 44 22
f 20 22 21
f 22 44 23
f 24 45 25
f 25 46 47
f 25 47 26
f 25 45 72
f 25 72 46
f 26 47 48
f 26 48 49
f 26 49 29
f 26 29 50
f 26 50 27
f 29 49 51
f 29 51 52
f 29 52 53
f 29 53 30
f 31 54 32
f 32 55 56
f 32 56 33
f 32 54 57
f 32 57 58
f 32 58 59
f 32 59 60
f 32 60 61
f 32 61 62
f 32 62 63
f 32 63 55
f 33 56 64
f 33 64 34
f 34 64 38
f 38 64 39
f 39 64 65
f 39 65 40
f 40 65 64
f 40 64 66
f 40 66 67
f 40 67 68
f 40 68 41
f 41 68 69
f 41 69 42
f 42 69 70
f 42 70 71
f 42 71 43
f 46 73 74
f 46 74 47
f 46 72 75
f 46 75 73
f 47 74 76
f 47 76 48
f 48 76 77
f 48 77 52
f 48 52 51
f 48 51 49
f 52 77 78
f 55 79 67
f 55 67 56
f 55 63 79
f 56 67 64
f 63 80 79
f 64 67 66
f 67 79 69
f 67 69 68
f 69 81 82
f 69 82 70
f 69 79 83
f 69 83 81
f 70 84 71
f 70 82 85
f 70 85 84
f 71 84 86
f 71 86 87
f 71 87 75
f 73 75 88
f 73 88 89
f 73 89 90
f 73 90 74
f 74 90 91
f 74 91 92
f 74 92 76
f 75 87 93
f 75 93 88
f 76 92 77
f 77 94 95
f 77 95 96
f 77 96 78
f 77 92 94
f 79 80 97
f 79 97 90
f 79 90 83
f 80 98 97
f 81 83 99
f 81 99 100
f 81 100 82
f 82 100 101
f 82 101 85
f 83 90 102
f 83 102 99
f 84 85 86
f 85 101 86
f 86 101 87
f 87 101 99
f 87 99 93
f 88 93 90
f 88 90 89
f 90 97 103
f 90 103 91
f 90 93 102
f 91 103 92
f 92 103 94
f 93 99 104
f 93 104 102
f 94 103 95
f 95 105 96
f 95 103 97
f 95 97 105
f 97 98 105
f 99 102 104
f 99 101 100

