# https://github.com/mikedh/trimesh
v 0.16932381 0.15201818 0.13314655
v 0.16932381 0.14392532 0.13928436
v 0.22116465 0.15162016 0.13128141
v 0.24180121 0.15199164 0.11785436
v 0.16932381 0.15201818 0.12942580
v 0.03009219 0.15168650 0.08860221
v 0.11641440 0.15159364 0.13187141
v 0.16932381 0.12942450 0.14315737
v 0.08934222 0.15126197 0.13085320
v 0.22353940 0.14393859 0.13256608
v 0.25282005 0.14393859 0.11883450
v 0.25042158 0.15175285 0.11707405
v 0.24180121 0.15199164 0.11405747
v 0.03009219 0.15168650 0.08642304
v 0.01729227 0.11966001 0.05101406
v 0.02750371 0.14391205 0.09105733
v 0.04227465 0.14133827 0.10553116
v 0.11130868 0.12941124 0.13811389
v 0.15481410 0.11493696 0.14437542
v 0.16217584 0.01650922 0.14816278
v 0.18380980 0.11493696 0.14213916
v 0.18380980 0.12942450 0.14110191
v 0.04030363 0.12942450 0.10747241
v 0.08758492 0.14391205 0.13171915
v 0.22534420 0.12943777 0.13357477
v 0.24180121 0.12943777 0.12606665
v 0.25457740 0.12943777 0.12017626
v 0.25984934 0.11487062 0.10961351
v 0.25984934 0.11835985 0.09504453
v 0.25984934 0.11846598 0.08997251
v 0.25282005 0.14393859 0.11148816
v 0.25042158 0.15175285 0.11438102
v 0.03460423 0.15168650 0.08642304
v 0.01729227 0.11966001 0.05100454
v 0.01729227 0.11643613 0.06659173
v 0.01729227 0.11249585 0.07850574
v 0.02567514 0.12942450 0.09284634
v 0.08597007 0.12941124 0.13252801
v 0.11130868 0.01650922 0.14314785
v 0.15481410 0.01650922 0.14821036
v 0.16930009 0.01650922 0.14729682
v 0.01928707 0.01650922 0.09952656
v 0.03484168 0.01650922 0.11287749
v 0.18380980 0.01650922 0.14403284
v 0.22536797 0.11883746 0.13357477
v 0.24180121 0.11493696 0.12620939
v 0.25764082 0.05738478 0.11564665
v 0.24180121 0.07146106 0.12621891
v 0.25457740 0.08592207 0.12017626
v 0.25764082 0.04890719 0.11564665
v 0.25984934 0.10046268 0.10954690
v 0.25984934 0.11480429 0.07951444
v 0.25984934 0.11333167 0.07540353
v 0.25984934 0.11041292 0.06920862
v 0.02429779 0.11748422 0.05100454
v 0.01729227 0.04004484 0.05100454
v 0.01729227 0.05696025 0.08229311
v 0.01786222 0.01650922 0.09515872
v 0.08288292 0.01650922 0.13663891
v 0.04681043 0.01650922 0.11906289
v 0.19205022 0.01650922 0.13844696
v 0.25270133 0.01745116 0.11885353
v 0.22353940 0.01788899 0.13263269
v 0.22532047 0.02795862 0.13357477
v 0.22536797 0.04247270 0.13357477
v 0.24180121 0.05697351 0.12621891
v 0.25455363 0.02795862 0.12017626
v 0.25457740 0.04247270 0.12016674
v 0.25764082 0.04178282 0.10811950
v 0.25984934 0.09717246 0.09518728
v 0.25984934 0.10518573 0.06920862
v 0.04614552 0.10777280 0.05100454
v 0.03883128 0.11205802 0.05100454
v 0.03883128 0.01650922 0.07741140
v 0.02349039 0.01650922 0.07677383
v 0.01764849 0.01650922 0.07993314
v 0.01729227 0.03977950 0.05587673
v 0.04035113 0.04816423 0.05100454
v 0.25764082 0.04793869 0.07991411
v 0.01729227 0.05554067 0.08215037
v 0.01729227 0.04565678 0.07818221
v 0.19205022 0.01650922 0.13727649
v 0.25270133 0.01745116 0.11176412
v 0.25764082 0.04263190 0.09453067
v 0.25984934 0.10083416 0.07952395
v 0.25764082 0.04768662 0.08036136
v 0.04614552 0.10758706 0.05100454
v 0.03911623 0.01650922 0.07745899
v 0.01729227 0.04257883 0.07527982
v 0.19200272 0.01650922 0.13464056
v 0.18380980 0.01650922 0.12946386
v 0.05077625 0.01650922 0.08135102
f 1 2 3
f 1 3 4
f 1 4 13
f 1 13 5
f 1 5 14
f 1 14 6
f 1 6 7
f 1 7 2
f 2 8 3
f 2 7 9
f 2 9 8
f 3 8 10
f 3 10 11
f 3 11 12
f 3 12 4
f 4 12 32
f 4 32 13
f 5 13 14
f 6 14 34
f 6 34 15
f 6 15 16
f 6 16 17
f 6 17 9
f 6 9 7
f 8 9 18
f 8 18 19
f 8 19 20
f 8 20 21
f 8 21 22
f 8 22 10
f 9 17 23
f 9 23 24
f 9 24 18
f 10 22 25
f 10 25 26
f 10 26 27
f 10 27 11
f 11 27 28
f 11 28 29
f 11 29 30
f 11 30 31
f 11 31 32
f 11 32 12
f 13 32 33
f 13 33 14
f 14 33 34
f 15 34 56
f 15 56 77
f 15 77 89
f 15 89 81
f 15 81 80
f 15 80 57
f 15 57 36
f 15 36 35
f 15 35 16
f 16 35 36
f 16 36 37
f 16 37 23
f 16 23 17
f 18 24 38
f 18 38 39
f 18 39 19
f 19 40 20
f 19 39 40
f 20 41 21
f 20 40 39
f 20 39 59
f 20 59 60
f 20 60 43
f 20 43 42
f 20 42 58
f 20 58 76
f 20 76 75
f 20 75 74
f 20 74 88
f 20 88 92
f 20 92 91
f 20 91 90
f 20 90 82
f 20 82 61
f 20 61 44
f 20 44 41
f 21 25 22
f 21 41 25
f 23 37 42
f 23 42 43
f 23 43 38
f 23 38 24
f 25 41 44
f 25 44 45
f 25 45 46
f 25 46 26
f 26 46 27
f 27 47 28
f 27 46 48
f 27 48 66
f 27 66 49
f 27 49 50
f 27 50 47
f 28 47 50
f 28 50 51
f 28 51 70
f 28 70 85
f 28 85 71
f 28 71 54
f 28 54 53
f 28 53 52
f 28 52 30
f 28 30 29
f 30 52 32
f 30 32 31
f 32 52 53
f 32 53 54
f 32 54 33
f 33 54 34
f 34 55 73
f 34 73 72
f 34 72 87
f 34 87 78
f 34 78 56
f 34 54 55
f 36 57 58
f 36 58 42
f 36 42 37
f 38 59 39
f 38 43 60
f 38 60 59
f 44 61 62
f 44 62 63
f 44 63 64
f 44 64 65
f 44 65 45
f 45 65 66
f 45 66 48
f 45 48 46
f 49 66 67
f 49 67 68
f 49 68 50
f 50 69 51
f 50 68 67
f 50 67 69
f 51 69 70
f 54 71 87
f 54 87 72
f 54 72 73
f 54 73 55
f 56 74 75
f 56 75 76
f 56 76 77
f 56 78 79
f 56 79 74
f 57 80 58
f 58 80 81
f 58 81 76
f 61 82 83
f 61 83 62
f 62 83 69
f 62 69 67
f 62 67 63
f 63 67 64
f 64 67 66
f 64 66 65
f 69 84 70
f 69 83 84
f 70 84 85
f 71 85 86
f 71 86 79
f 71 79 78
f 71 78 87
f 74 79 83
f 74 83 88
f 76 81 89
f 76 89 77
f 79 86 83
f 82 90 83
f 83 86 84
f 83 90 91
f 83 91 92
f 83 92 88
f 84 86 85

