# https://github.com/mikedh/trimesh
v 1.24797726 -0.53285786 0.18747917
v 1.24797726 -0.53285786 0.21520035
v 1.24797726 -0.50858922 0.18747917
v 1.30050443 -0.53285786 0.18205615
v 1.38828049 -0.53285786 0.22826264
v 1.38745926 0.13896866 0.22805006
v 1.24804166 0.13903445 0.21487922
v 1.24799338 -0.19783247 0.20585141
v 1.24797726 -0.50858922 0.20589664
v 1.24799338 -0.19783247 0.18748370
v 1.24804166 0.13903445 0.18747917
v 1.30050443 0.13903445 0.18205615
v 1.31356376 -0.53285786 0.18252202
v 1.40201613 -0.53285786 0.22637204
v 1.40196781 0.13896866 0.22628158
v 1.28589924 0.13903445 0.21308361
v 1.27140677 0.13903445 0.21435908
v 1.25691430 0.13903445 0.21472544
v 1.31338660 0.13903445 0.18253106
v 1.31340272 0.13896866 0.18252202
v 1.31502910 -0.52312409 0.18257629
v 1.31502910 -0.53285786 0.18257629
v 1.40546210 -0.53285786 0.22550364
v 1.41246684 0.13896866 0.22093545
v 1.31338660 0.13903445 0.20700928
v 1.41246684 0.13896866 0.21278057
v 1.40409339 0.13896866 0.20553028
v 1.39684713 0.13896866 0.20275318
v 1.39066371 0.13896866 0.20118372
v 1.32953765 0.13896866 0.18569713
v 1.31995654 0.13896866 0.18363919
v 1.31504518 0.13896866 0.18258534
v 1.32473906 -0.53285786 0.18463876
v 1.41246684 -0.53285786 0.22099877
v 1.41248292 0.12936646 0.22060075
v 1.41248292 0.12936646 0.21277605
v 1.40441543 -0.53285786 0.20539459
v 1.40409339 0.12936646 0.20552575
v 1.39684713 0.11483159 0.20274414
v 1.39715309 -0.53285786 0.20267177
v 1.32953765 0.11489735 0.18569261
v 1.32952157 -0.53285786 0.18566547
v 1.41246684 -0.53285786 0.21264488
v 1.40980990 -0.53285786 0.21024319
v 1.33609147 -0.53285786 0.18731635
f 1 2 9
f 1 9 3
f 1 3 12
f 1 12 4
f 1 4 13
f 1 13 22
f 1 22 33
f 1 33 42
f 1 42 45
f 1 45 40
f 1 40 37
f 1 37 44
f 1 44 43
f 1 43 34
f 1 34 23
f 1 23 14
f 1 14 5
f 1 5 2
f 2 5 6
f 2 6 7
f 2 7 8
f 2 8 9
f 3 9 8
f 3 8 10
f 3 10 11
f 3 11 12
f 4 12 13
f 5 14 15
f 5 15 6
f 6 15 16
f 6 16 17
f 6 17 18
f 6 18 7
f 7 18 17
f 7 17 16
f 7 16 25
f 7 25 19
f 7 19 12
f 7 12 11
f 7 11 10
f 7 10 8
f 12 19 20
f 12 20 13
f 13 21 22
f 13 20 21
f 14 23 15
f 15 24 25
f 15 25 16
f 15 23 24
f 19 26 27
f 19 27 28
f 19 28 29
f 19 29 30
f 19 30 31
f 19 31 32
f 19 32 20
f 19 25 24
f 19 24 26
f 20 32 21
f 21 33 22
f 21 32 33
f 23 34 24
f 24 34 35
f 24 35 36
f 24 36 26
f 26 36 27
f 27 36 37
f 27 37 38
f 27 38 28
f 28 38 37
f 28 37 39
f 28 39 29
f 29 39 30
f 30 39 40
f 30 40 41
f 30 41 31
f 31 41 32
f 32 41 33
f 33 41 42
f 34 43 36
f 34 36 35
f 36 43 44
f 36 44 37
f 37 40 39
f 40 45 41
f 41 45 42

