# https://github.com/mikedh/trimesh
v -0.00655268 0.01651025 0.02558846
v -0.00566834 0.01651025 0.02558846
v -0.00879137 0.01651025 0.02673127
v -0.03370118 0.01698767 -0.03170209
v 0.00147436 0.01651025 0.03008479
v -0.01140106 0.01651025 0.03165849
v -0.04282278 0.01790273 -0.02595054
v -0.04282278 0.01790273 -0.03121497
v -0.04297119 0.01795576 -0.06501227
v -0.03505550 0.01774359 -0.08088052
v -0.01284817 0.01651025 0.03649203
v -0.01111659 0.01651025 0.04795763
v 0.00839443 0.01651025 0.03744750
v -0.04376896 0.02795499 -0.02456418
v -0.04535212 0.02796826 -0.06501227
v -0.01401080 0.01867188 0.04580315
v -0.01533421 0.02796826 0.04715204
v -0.03221695 0.02795499 0.00494288
v -0.04216107 0.01861885 -0.10257525
v -0.03661390 0.01861885 -0.10257525
v 0.01459717 0.01651025 0.04900678
v -0.00090035 0.01651025 0.06665481
v -0.04376896 0.05694479 -0.02385226
v -0.04590249 0.05694479 -0.06501227
v -0.04585305 0.04246315 -0.06501227
v -0.03806100 0.05694479 -0.00704729
v -0.04276097 0.02796826 -0.10324968
v -0.01562487 0.04247642 0.04747053
v -0.02058455 0.05694479 0.03649203
v -0.01918075 0.04561941 -0.10909488
v -0.02557517 0.01924213 -0.09092227
v -0.00554465 0.04776779 -0.10911364
v -0.00539005 0.04779431 -0.10911364
v 0.01516613 0.01651025 0.05095518
v 0.01005181 0.01651025 0.07442969
v 0.01725018 0.05694479 0.08226077
v 0.00428814 0.05694479 0.07250002
v -0.00218049 0.04247642 0.06526844
v -0.00203826 0.02794172 0.06530591
v -0.04376896 0.07143971 -0.02383352
v -0.04592108 0.10044276 -0.06501227
v -0.03806718 0.10044276 -0.00700982
v -0.04276097 0.10044276 -0.10332463
v -0.03331155 0.11434091 -0.10909488
v -0.03290960 0.10113236 -0.10909488
v -0.03370118 0.05694479 -0.10725890
v -0.01562487 0.05694479 0.04747053
v -0.01562487 0.11491116 0.04743306
v -0.01558156 0.12941932 0.04739558
v -0.02018260 0.11491116 0.03649203
v -0.03182736 0.11459286 0.00803410
v -0.01414682 0.05384159 -0.10911364
v 0.00832022 0.10221981 -0.10911364
v 0.01725018 0.04734341 0.00760321
v 0.01725018 0.04469110 0.02199141
v 0.01725018 0.04004955 0.05095518
v 0.01725018 0.03979757 0.05582618
v 0.01517849 0.01651025 0.06639251
v 0.01725018 0.04568571 0.07813915
v 0.01725018 0.05553907 0.08211089
v 0.01724399 0.11248429 0.07847636
v 0.01240179 0.11009720 0.07658417
v -0.00198877 0.12941932 0.06523098
v 0.01725636 0.09800264 0.01820701
v 0.01725636 0.11651580 0.01820701
v -0.00215573 0.05694479 0.06526844
v -0.04376282 0.10044276 -0.02396467
v -0.04592108 0.11493767 -0.06501227
v -0.03772086 0.11493767 -0.00700982
v -0.04376896 0.12944583 -0.02454545
v -0.04376896 0.11977815 -0.02426443
v -0.04376282 0.11493767 -0.02413327
v -0.04276097 0.11493767 -0.10332463
v -0.04276097 0.12943256 -0.10324968
v -0.03330537 0.11491116 -0.10909488
v -0.01414063 0.11703300 -0.10911364
v -0.01414682 0.05693155 -0.10911364
v -0.01433236 0.14143431 0.04614038
v -0.04275475 0.14394075 -0.02600675
v -0.03228498 0.12944583 0.00516770
v -0.03198814 0.11977815 0.00704117
v -0.03592129 0.11977815 -0.00296313
v 0.00832022 0.11321367 -0.10911364
v 0.01725636 0.11268321 0.00632925
v 0.01725018 0.05767418 0.00696623
v 0.01725636 0.10203416 0.00672268
v 0.01725018 0.04259577 0.07523527
v 0.01724399 0.11643623 0.06654240
v 0.00378726 0.15175181 0.06021009
v 0.00149290 0.15175181 0.06021009
v -0.00050458 0.14390094 0.06322637
v 0.01724399 0.11773587 0.02199141
v 0.01724399 0.11866416 0.02839865
v 0.01724399 0.11963226 0.05097392
v -0.04564896 0.12943256 -0.06501227
v -0.04193226 0.14392748 -0.10233168
v -0.01987335 0.11764304 -0.10909488
v -0.04106033 0.15127440 -0.10137623
v -0.01864274 0.11766955 -0.10909488
v -0.04050374 0.15127440 -0.10137623
v -0.00473452 0.11573336 -0.10911364
v -0.02793134 0.15171202 0.00136458
v -0.04148087 0.15161919 -0.02788021
v -0.00417179 0.11565379 -0.10911364
v -0.02644714 0.15118156 -0.08678193
v 0.00269266 0.15127440 0.04346131
v 0.00359553 0.15168551 0.05097392
v 0.00726275 0.14390094 0.05097392
v -0.02517322 0.15199052 -0.00702856
v -0.02835187 0.15199052 -0.00702856
v -0.04302072 0.14453751 -0.06525582
v -0.04132622 0.15143353 -0.07334918
v -0.04148087 0.15161919 -0.02949138
v -0.03289106 0.15183138 -0.02242842
f 1 2 5
f 1 5 13
f 1 13 21
f 1 21 34
f 1 34 58
f 1 58 35
f 1 35 22
f 1 22 12
f 1 12 11
f 1 11 6
f 1 6 3
f 1 3 4
f 1 4 2
f 2 4 5
f 3 6 4
f 4 7 8
f 4 8 9
f 4 9 10
f 4 10 5
f 4 6 11
f 4 11 12
f 4 12 7
f 5 10 13
f 7 14 15
f 7 15 9
f 7 9 8
f 7 12 16
f 7 16 17
f 7 17 18
f 7 18 14
f 9 19 10
f 9 15 19
f 10 19 20
f 10 20 21
f 10 21 13
f 12 22 16
f 14 23 24
f 14 24 25
f 14 25 15
f 14 18 26
f 14 26 23
f 15 25 27
f 15 27 19
f 16 22 17
f 17 28 29
f 17 29 26
f 17 26 18
f 17 22 28
f 19 27 30
f 19 30 20
f 20 31 21
f 20 30 32
f 20 32 33
f 20 33 31
f 21 31 33
f 21 33 34
f 22 35 36
f 22 36 37
f 22 37 38
f 22 38 39
f 22 39 28
f 23 40 41
f 23 41 24
f 23 26 40
f 24 41 27
f 24 27 25
f 26 29 42
f 26 42 40
f 27 43 44
f 27 44 45
f 27 45 46
f 27 46 30
f 27 41 43
f 28 47 29
f 28 39 38
f 28 38 47
f 29 47 48
f 29 48 49
f 29 49 50
f 29 50 51
f 29 51 42
f 30 46 45
f 30 45 52
f 30 52 32
f 32 52 77
f 32 77 76
f 32 76 101
f 32 101 104
f 32 104 83
f 32 83 53
f 32 53 33
f 33 53 54
f 33 54 34
f 34 54 55
f 34 55 56
f 34 56 57
f 34 57 58
f 35 58 59
f 35 59 60
f 35 60 36
f 36 61 62
f 36 62 63
f 36 63 37
f 36 60 64
f 36 64 65
f 36 65 61
f 37 63 66
f 37 66 38
f 38 66 48
f 38 48 47
f 40 67 68
f 40 68 41
f 40 42 67
f 41 68 73
f 41 73 43
f 42 51 69
f 42 69 70
f 42 70 71
f 42 71 72
f 42 72 67
f 43 73 44
f 44 73 74
f 44 74 75
f 44 75 76
f 44 76 77
f 44 77 52
f 44 52 45
f 48 66 63
f 48 63 49
f 49 78 79
f 49 79 80
f 49 80 81
f 49 81 51
f 49 51 50
f 49 63 78
f 51 81 82
f 51 82 69
f 53 83 84
f 53 84 85
f 53 85 54
f 54 85 86
f 54 86 64
f 54 64 55
f 55 64 56
f 56 64 57
f 57 87 58
f 57 64 87
f 58 87 59
f 59 87 64
f 59 64 60
f 61 88 89
f 61 89 90
f 61 90 91
f 61 91 62
f 61 65 88
f 62 91 63
f 63 91 78
f 64 86 84
f 64 84 65
f 65 92 93
f 65 93 94
f 65 94 88
f 65 84 83
f 65 83 92
f 67 72 71
f 67 71 68
f 68 95 74
f 68 74 73
f 68 71 70
f 68 70 95
f 69 82 70
f 70 79 95
f 70 82 80
f 70 80 79
f 74 96 75
f 74 95 96
f 75 97 76
f 75 96 98
f 75 98 97
f 76 97 99
f 76 99 100
f 76 100 101
f 78 91 90
f 78 90 102
f 78 102 103
f 78 103 79
f 79 103 95
f 80 82 81
f 83 104 100
f 83 100 105
f 83 105 106
f 83 106 107
f 83 107 92
f 84 86 85
f 88 94 89
f 89 94 108
f 89 108 107
f 89 107 109
f 89 109 110
f 89 110 90
f 90 110 102
f 92 107 108
f 92 108 93
f 93 108 94
f 95 103 111
f 95 111 98
f 95 98 96
f 97 98 99
f 98 100 99
f 98 111 112
f 98 112 110
f 98 110 109
f 98 109 100
f 100 104 101
f 100 109 105
f 102 110 103
f 103 113 111
f 103 110 113
f 105 109 107
f 105 107 106
f 110 112 114
f 110 114 113
f 111 113 112
f 112 113 114

