# https://github.com/mikedh/trimesh
v 0.55232602 -0.19926530 0.31164330
v 0.55295777 -0.19926530 0.31640244
v 0.53188275 -0.17541553 0.39906444
v 0.53188275 -0.17514186 0.38456234
v 0.53188275 -0.17063139 0.36899811
v 0.53188275 -0.16041440 0.36344236
v 0.53188275 -0.15849872 0.36331981
v 0.53188275 -0.13104057 0.36805853
v 0.53188275 -0.12059046 0.37083640
v 0.55144158 -0.10659278 0.36046025
v 0.55816335 -0.19279860 0.31164330
v 0.60887987 -0.19926530 0.31164330
v 0.56063979 -0.19926530 0.34653005
v 0.55836551 -0.18184169 0.48605665
v 0.55530786 -0.18202414 0.47153412
v 0.53188275 -0.17382420 0.41356655
v 0.51677141 -0.13160818 0.48603623
v 0.51957635 -0.11856328 0.48603623
v 0.53188275 -0.11402240 0.38441935
v 0.54972323 -0.10445411 0.37008066
v 0.56091777 -0.09909223 0.37008066
v 0.56091777 -0.10528525 0.35956152
v 0.57544790 -0.18526763 0.31164330
v 0.55988171 -0.19170392 0.31164330
v 0.60261295 -0.19260602 0.31164330
v 0.60913256 -0.19926530 0.31166372
v 0.57552371 -0.19926530 0.39022020
v 0.54641289 -0.17134090 0.49680046
v 0.53908464 -0.16799605 0.49349154
v 0.55111307 -0.17719945 0.48648559
v 0.57860663 -0.19926530 0.39869678
v 0.58831023 -0.19926530 0.41871378
v 0.64602648 -0.19926530 0.52031021
v 0.56794277 -0.18234849 0.49332813
v 0.54512413 -0.17333767 0.48683282
v 0.52185063 -0.14084198 0.48603623
v 0.51854029 -0.13483139 0.48603623
v 0.52301305 -0.13970676 0.49432898
v 0.52073877 -0.13161832 0.49628983
v 0.52109254 -0.12036747 0.49622854
v 0.52902726 -0.11131611 0.48603623
v 0.53188275 -0.11261351 0.39810444
v 0.53188275 -0.11358656 0.38576744
v 0.56091777 -0.10101804 0.47153412
v 0.57542263 -0.09819013 0.47153412
v 0.58992751 -0.09639607 0.47153412
v 0.58992751 -0.09634539 0.45701159
v 0.58992751 -0.09631499 0.38458276
v 0.60438184 -0.09571697 0.38458276
v 0.61886144 -0.09576764 0.38458276
v 0.57542263 -0.09933548 0.37008066
v 0.54641289 -0.10531566 0.48603623
v 0.63339158 -0.10258911 0.37008066
v 0.64764375 -0.10468723 0.36873257
v 0.64266560 -0.10963355 0.36274790
v 0.58992751 -0.18629135 0.31164330
v 0.65229340 -0.11045456 0.36299301
v 0.61032024 -0.19926530 0.31403308
v 0.65522470 -0.11210671 0.36362620
v 0.65522470 -0.11646515 0.36227811
v 0.77179433 -0.13159804 0.44257076
v 0.77492778 -0.14609238 0.44257076
v 0.76345530 -0.15861021 0.44257076
v 0.75822444 -0.16988133 0.46076989
v 0.75064350 -0.17950030 0.47214688
v 0.74665087 -0.18302759 0.47733495
v 0.55636920 -0.16622227 0.50744216
v 0.54631181 -0.16106310 0.50376557
v 0.54138420 -0.15054204 0.50605323
v 0.63339158 -0.14609238 0.52000384
v 0.61886144 -0.14609238 0.51928893
v 0.60438184 -0.14609238 0.51834936
v 0.58992751 -0.14609238 0.51702172
v 0.57542263 -0.14609238 0.51504045
v 0.56091777 -0.14609238 0.51250768
v 0.55106254 -0.15655262 0.50844299
v 0.66725313 -0.19926530 0.52031021
v 0.64802280 -0.19781587 0.52031021
v 0.53847817 -0.14091293 0.50819789
v 0.53847817 -0.13726401 0.50819789
v 0.53193329 -0.11616107 0.49794429
v 0.53675983 -0.10920785 0.49422685
v 0.54249607 -0.12760450 0.50682938
v 0.54274877 -0.12706730 0.50668641
v 0.55219968 -0.12322579 0.50817747
v 0.54696882 -0.11787404 0.50392896
v 0.54274877 -0.10678537 0.48916133
v 0.56091777 -0.10145388 0.48603623
v 0.57542263 -0.09980173 0.48603623
v 0.58992751 -0.09870706 0.48603623
v 0.60438184 -0.09828134 0.48603623
v 0.60438184 -0.09604131 0.47153412
v 0.60438184 -0.09588928 0.45701159
v 0.60438184 -0.09580818 0.44250948
v 0.60438184 -0.09576764 0.42806865
v 0.60438184 -0.09572710 0.41358697
v 0.61886144 -0.09579805 0.39908486
v 0.63339158 -0.09622376 0.45701159
v 0.63339158 -0.09620349 0.44250948
v 0.63339158 -0.09642647 0.38458276
v 0.64787118 -0.09718667 0.38458276
v 0.65522470 -0.10098764 0.37806702
v 0.65522470 -0.10468723 0.37024406
v 0.63318942 -0.19926530 0.36975385
v 0.76292463 -0.12210071 0.44257076
v 0.75787066 -0.10850847 0.46254690
v 0.75842660 -0.10790031 0.47157496
v 0.75817391 -0.10815371 0.48605665
v 0.75751689 -0.10885309 0.49543195
v 0.75847714 -0.11735711 0.50037492
v 0.76075143 -0.13160818 0.50053834
v 0.75857823 -0.13160818 0.51105746
v 0.75888146 -0.14609238 0.51152725
v 0.75994279 -0.16056644 0.50053834
v 0.75691041 -0.16815823 0.50821831
v 0.75776959 -0.17005364 0.50053834
v 0.75870457 -0.17330727 0.48605665
v 0.75898254 -0.17288156 0.47157496
v 0.75064350 -0.18030104 0.48587281
v 0.74665087 -0.18302759 0.48092986
v 0.66310888 -0.19926530 0.49434940
v 0.63847081 -0.19926530 0.38417425
v 0.63339158 -0.13160818 0.51871702
v 0.61886144 -0.13160818 0.51861491
v 0.60438184 -0.13160818 0.51798171
v 0.70591593 -0.14609238 0.52014682
v 0.58992751 -0.13160818 0.51683788
v 0.57542263 -0.13160818 0.51493832
v 0.56091777 -0.13160818 0.51226258
v 0.54631181 -0.14586939 0.50938259
v 0.66616652 -0.19829225 0.52031021
v 0.74938001 -0.16056644 0.51320215
v 0.74938001 -0.14609238 0.51745064
v 0.73487514 -0.14609238 0.51984043
v 0.72039554 -0.14609238 0.52010597
v 0.65262191 -0.19618399 0.52031021
v 0.54274877 -0.13465908 0.50872896
v 0.54274877 -0.10969437 0.49680046
v 0.54274877 -0.10814357 0.49559536
v 0.56091777 -0.11390077 0.50576726
v 0.54696882 -0.13210484 0.50921917
v 0.56091777 -0.12114793 0.50917833
v 0.56091777 -0.10597449 0.49851620
v 0.54641289 -0.10750501 0.49641238
v 0.58992751 -0.10541702 0.49968045
v 0.57542263 -0.10566028 0.49921067
v 0.60438184 -0.10513321 0.49984387
v 0.61886144 -0.10488995 0.49994600
v 0.63339158 -0.10469737 0.50002769
v 0.61886144 -0.09807863 0.48603623
v 0.63339158 -0.09795700 0.48603623
v 0.63339158 -0.09631499 0.47153412
v 0.61886144 -0.09584872 0.41358697
v 0.74938001 -0.10505212 0.47157496
v 0.64787118 -0.09715626 0.39908486
v 0.65522470 -0.09833202 0.38458276
v 0.74938001 -0.10549810 0.48605665
v 0.74938001 -0.10784963 0.49708641
v 0.74938001 -0.11305949 0.50431704
v 0.75741581 -0.12236424 0.50909662
v 0.74938001 -0.13160818 0.51644978
v 0.75771905 -0.16056644 0.50954596
v 0.63339158 -0.11758009 0.51260981
v 0.73487514 -0.13160818 0.51826768
v 0.61886144 -0.11767132 0.51248724
v 0.60438184 -0.11784363 0.51197661
v 0.58992751 -0.11818825 0.51126172
v 0.57542263 -0.11902953 0.51048555
v 0.65941948 -0.19617385 0.52031021
v 0.66245186 -0.19677187 0.52031021
v 0.57542263 -0.11178236 0.50648215
v 0.58992751 -0.11094108 0.50693151
v 0.60438184 -0.11059647 0.50709493
v 0.61886144 -0.11041402 0.50719706
v 0.63339158 -0.11033293 0.50727874
v 0.73487514 -0.11999244 0.51164980
v 0.74938001 -0.12031679 0.51089405
f 1 2 3
f 1 3 4
f 1 4 5
f 1 5 6
f 1 6 7
f 1 7 8
f 1 8 9
f 1 9 10
f 1 10 11
f 1 11 24
f 1 24 23
f 1 23 56
f 1 56 25
f 1 25 12
f 1 12 26
f 1 26 58
f 1 58 104
f 1 104 122
f 1 122 121
f 1 121 77
f 1 77 33
f 1 33 32
f 1 32 31
f 1 31 27
f 1 27 13
f 1 13 2
f 2 13 14
f 2 14 15
f 2 15 16
f 2 16 3
f 3 16 17
f 3 17 4
f 4 17 5
f 5 17 6
f 6 17 7
f 7 17 8
f 8 17 9
f 9 17 18
f 9 18 19
f 9 19 10
f 10 20 21
f 10 21 22
f 10 22 23
f 10 23 24
f 10 24 11
f 10 19 20
f 12 25 26
f 13 27 14
f 14 28 29
f 14 29 30
f 14 30 15
f 14 27 31
f 14 31 32
f 14 32 33
f 14 33 34
f 14 34 28
f 15 30 35
f 15 35 16
f 16 35 29
f 16 29 36
f 16 36 37
f 16 37 17
f 17 37 38
f 17 38 39
f 17 39 40
f 17 40 18
f 18 40 41
f 18 41 42
f 18 42 43
f 18 43 19
f 19 43 20
f 20 43 42
f 20 42 41
f 20 41 21
f 21 44 45
f 21 45 46
f 21 46 47
f 21 47 48
f 21 48 49
f 21 49 50
f 21 50 51
f 21 51 22
f 21 41 52
f 21 52 44
f 22 51 53
f 22 53 54
f 22 54 55
f 22 55 56
f 22 56 23
f 25 56 57
f 25 57 26
f 26 57 59
f 26 59 60
f 26 60 61
f 26 61 62
f 26 62 63
f 26 63 64
f 26 64 65
f 26 65 66
f 26 66 58
f 28 34 33
f 28 33 67
f 28 67 68
f 28 68 29
f 29 69 38
f 29 38 36
f 29 35 30
f 29 68 69
f 33 70 71
f 33 71 72
f 33 72 73
f 33 73 74
f 33 74 75
f 33 75 76
f 33 76 67
f 33 77 131
f 33 131 170
f 33 170 169
f 33 169 136
f 33 136 78
f 33 78 70
f 36 38 37
f 38 69 39
f 39 69 79
f 39 79 80
f 39 80 40
f 40 81 82
f 40 82 41
f 40 80 83
f 40 83 84
f 40 84 85
f 40 85 86
f 40 86 81
f 41 82 87
f 41 87 52
f 44 88 45
f 44 52 88
f 45 88 46
f 46 88 89
f 46 89 90
f 46 90 91
f 46 91 92
f 46 92 93
f 46 93 94
f 46 94 47
f 47 94 95
f 47 95 96
f 47 96 48
f 48 96 49
f 49 96 50
f 50 97 98
f 50 98 99
f 50 99 100
f 50 100 51
f 50 96 97
f 51 100 101
f 51 101 53
f 52 87 88
f 53 101 102
f 53 102 103
f 53 103 54
f 54 103 57
f 54 57 55
f 55 57 56
f 57 103 59
f 58 66 104
f 59 103 105
f 59 105 61
f 59 61 60
f 61 105 106
f 61 106 107
f 61 107 108
f 61 108 109
f 61 109 62
f 62 109 110
f 62 110 111
f 62 111 112
f 62 112 113
f 62 113 114
f 62 114 115
f 62 115 116
f 62 116 117
f 62 117 118
f 62 118 63
f 63 118 64
f 64 118 65
f 65 118 66
f 66 118 119
f 66 119 120
f 66 120 77
f 66 77 121
f 66 121 122
f 66 122 104
f 67 76 79
f 67 79 69
f 67 69 68
f 70 123 124
f 70 124 125
f 70 125 71
f 70 78 126
f 70 126 123
f 71 125 72
f 72 125 127
f 72 127 73
f 73 127 128
f 73 128 74
f 74 128 75
f 75 128 129
f 75 129 80
f 75 80 79
f 75 79 130
f 75 130 76
f 76 130 79
f 77 120 119
f 77 119 115
f 77 115 132
f 77 132 133
f 77 133 134
f 77 134 135
f 77 135 126
f 77 126 131
f 78 136 126
f 80 129 137
f 80 137 83
f 81 138 139
f 81 139 82
f 81 86 140
f 81 140 138
f 82 139 88
f 82 88 87
f 83 137 141
f 83 141 85
f 83 85 84
f 85 141 129
f 85 129 142
f 85 142 140
f 85 140 86
f 88 143 89
f 88 139 144
f 88 144 143
f 89 143 90
f 90 145 91
f 90 143 146
f 90 146 145
f 91 145 147
f 91 147 148
f 91 148 149
f 91 149 150
f 91 150 92
f 92 150 151
f 92 151 152
f 92 152 93
f 93 152 98
f 93 98 94
f 94 98 153
f 94 153 97
f 94 97 95
f 95 97 96
f 97 153 98
f 98 152 154
f 98 154 155
f 98 155 99
f 99 155 101
f 99 101 100
f 101 155 154
f 101 154 156
f 101 156 102
f 102 156 106
f 102 106 103
f 103 106 105
f 106 154 107
f 106 156 154
f 107 154 108
f 108 154 157
f 108 157 109
f 109 157 158
f 109 158 159
f 109 159 160
f 109 160 110
f 110 112 111
f 110 160 112
f 112 160 161
f 112 161 133
f 112 133 113
f 113 133 162
f 113 162 114
f 114 162 115
f 115 119 116
f 115 162 133
f 115 133 132
f 116 119 117
f 117 119 118
f 123 163 124
f 123 126 135
f 123 135 164
f 123 164 163
f 124 165 166
f 124 166 125
f 124 163 165
f 125 166 167
f 125 167 168
f 125 168 127
f 126 136 169
f 126 169 170
f 126 170 131
f 127 168 128
f 128 168 142
f 128 142 129
f 129 141 137
f 133 161 134
f 134 161 164
f 134 164 135
f 138 140 144
f 138 144 139
f 140 142 168
f 140 168 171
f 140 171 143
f 140 143 144
f 143 171 172
f 143 172 146
f 145 146 172
f 145 172 173
f 145 173 147
f 147 173 148
f 148 173 174
f 148 174 149
f 149 151 150
f 149 174 175
f 149 175 159
f 149 159 158
f 149 158 151
f 151 158 157
f 151 157 152
f 152 157 154
f 159 176 177
f 159 177 160
f 159 175 176
f 160 177 161
f 161 177 164
f 163 175 174
f 163 174 165
f 163 164 176
f 163 176 175
f 164 177 176
f 165 174 173
f 165 173 172
f 165 172 166
f 166 172 167
f 167 172 171
f 167 171 168

