# https://github.com/mikedh/trimesh
v 0.26312533 -0.44973714 -0.22239181
v 0.26312533 -0.43724452 -0.22221357
v 0.28330142 -0.42166670 -0.22039325
v 0.28330142 -0.48329016 -0.22039325
v 0.27816380 -0.48329016 -0.22039325
v 0.27493977 -0.47876854 -0.22039325
v 0.10207017 -0.40927524 -0.10405635
v 0.27606298 -0.41153100 -0.21934939
v 0.28155419 -0.41153100 -0.21934939
v 0.11904307 -0.40928535 -0.11594591
v 0.29053985 -0.42166670 -0.21455028
v 0.29053985 -0.43618240 -0.21578508
v 0.29053985 -0.48329016 -0.21578508
v 0.27816380 -0.51259468 -0.18891263
v 0.27090453 -0.51114817 -0.18891263
v 0.26312533 -0.50716266 -0.18891263
v 0.13322871 -0.46156211 -0.10814258
v 0.12879827 -0.45277178 -0.10814258
v 0.10207017 -0.41513209 -0.09307061
v 0.10207017 -0.40927524 -0.09307061
v 0.10874700 -0.40927524 -0.10814258
v 0.27541818 -0.41068129 -0.21000577
v 0.27816380 -0.41073186 -0.20998032
v 0.28596380 -0.41091394 -0.20989120
v 0.30863592 -0.41212779 -0.19227328
v 0.30564069 -0.42165659 -0.20151507
v 0.12938071 -0.40928535 -0.12014672
v 0.29917189 -0.43618240 -0.20854185
v 0.29917189 -0.47961824 -0.20854185
v 0.29917189 -0.48329016 -0.20852915
v 0.30004546 -0.48329016 -0.20770169
v 0.30942633 -0.47675555 -0.19427184
v 0.30942633 -0.47675555 -0.18546290
v 0.27816380 -0.51115829 -0.18108389
v 0.21280987 -0.50989385 -0.10856267
v 0.19835383 -0.51104702 -0.10856267
v 0.18352334 -0.50755716 -0.10814258
v 0.18362732 -0.50743580 -0.10874089
v 0.18362732 -0.50320752 -0.11753712
v 0.18352334 -0.51024789 -0.09435631
v 0.18352334 -0.51029846 -0.09405079
v 0.18352334 -0.51034903 -0.09242140
v 0.12715507 -0.45546249 -0.09307061
v 0.12268305 -0.45023279 -0.09307061
v 0.18352334 -0.49049238 -0.09235776
v 0.18385613 -0.51033891 -0.09235776
v 0.21185306 -0.40927524 -0.09307061
v 0.15579680 -0.40928535 -0.12652431
v 0.14285914 -0.40928535 -0.12467850
v 0.14034237 -0.40928535 -0.12428387
v 0.18387697 -0.40927524 -0.10814258
v 0.15987361 -0.40928535 -0.12560776
v 0.16827688 -0.40928535 -0.12368557
v 0.17133447 -0.40928535 -0.12259082
v 0.18321133 -0.40928535 -0.11777900
v 0.20045461 -0.40927524 -0.10812986
v 0.20733946 -0.40927524 -0.10282156
v 0.20810904 -0.40927524 -0.10148495
v 0.21156188 -0.40927524 -0.09403806
v 0.29981669 -0.41130846 -0.18631577
v 0.30037826 -0.41138937 -0.19646139
v 0.30004546 -0.41131857 -0.18648126
v 0.30863592 -0.41212779 -0.18683770
v 0.31344074 -0.43686014 -0.17498635
v 0.30940554 -0.42165659 -0.19427184
v 0.30645190 -0.43617229 -0.20159144
v 0.30004546 -0.43617229 -0.20771444
v 0.30004546 -0.43790204 -0.20771444
v 0.30641032 -0.45061717 -0.20161690
v 0.30643111 -0.47675555 -0.20152778
v 0.30959273 -0.45061717 -0.19438641
v 0.31456395 -0.44805796 -0.17498635
v 0.31435593 -0.45154780 -0.17498635
v 0.27816380 -0.50317717 -0.15679558
v 0.27816380 -0.50722337 -0.16652105
v 0.19835383 -0.50925657 -0.09235776
v 0.19835383 -0.50956004 -0.09405079
v 0.19702260 -0.49079583 -0.09235776
v 0.20950268 -0.49520617 -0.09235776
v 0.21097948 -0.49612668 -0.09235776
v 0.21293469 -0.42164647 -0.09307061
v 0.30004546 -0.41131857 -0.18632852
v 0.30953032 -0.43617229 -0.19434825
v 0.21124987 -0.50451241 -0.09235776
v 0.22094271 -0.50228701 -0.10036474
f 1 2 3
f 1 3 4
f 1 4 5
f 1 5 6
f 1 6 7
f 1 7 2
f 2 8 9
f 2 9 3
f 2 7 10
f 2 10 8
f 3 11 12
f 3 12 13
f 3 13 4
f 3 9 11
f 4 13 14
f 4 14 5
f 5 14 15
f 5 15 16
f 5 16 17
f 5 17 6
f 6 17 18
f 6 18 7
f 7 19 20
f 7 20 47
f 7 47 59
f 7 59 58
f 7 58 57
f 7 57 56
f 7 56 51
f 7 51 21
f 7 21 10
f 7 18 17
f 7 17 19
f 8 22 9
f 8 10 22
f 9 22 23
f 9 23 24
f 9 24 25
f 9 25 26
f 9 26 11
f 10 21 27
f 10 27 22
f 11 26 28
f 11 28 12
f 12 28 29
f 12 29 13
f 13 29 30
f 13 30 14
f 14 30 31
f 14 31 32
f 14 32 33
f 14 33 34
f 14 34 35
f 14 35 36
f 14 36 15
f 15 36 37
f 15 37 38
f 15 38 39
f 15 39 16
f 16 39 17
f 17 39 38
f 17 38 37
f 17 37 40
f 17 40 41
f 17 41 42
f 17 42 43
f 17 43 44
f 17 44 19
f 19 45 20
f 19 44 46
f 19 46 45
f 20 45 47
f 21 48 49
f 21 49 50
f 21 50 27
f 21 51 48
f 22 27 50
f 22 50 49
f 22 49 48
f 22 48 52
f 22 52 53
f 22 53 54
f 22 54 55
f 22 55 56
f 22 56 57
f 22 57 58
f 22 58 59
f 22 59 47
f 22 47 23
f 23 47 24
f 24 60 61
f 24 61 25
f 24 47 60
f 25 61 62
f 25 62 82
f 25 82 63
f 25 63 64
f 25 64 65
f 25 65 26
f 26 65 66
f 26 66 67
f 26 67 28
f 28 67 68
f 28 68 29
f 29 68 66
f 29 66 31
f 29 31 30
f 31 66 69
f 31 69 70
f 31 70 32
f 32 71 72
f 32 72 73
f 32 73 33
f 32 70 71
f 33 73 74
f 33 74 75
f 33 75 34
f 34 75 35
f 35 76 77
f 35 77 36
f 35 75 76
f 36 77 46
f 36 46 42
f 36 42 41
f 36 41 40
f 36 40 37
f 42 46 43
f 43 46 44
f 45 46 76
f 45 76 84
f 45 84 80
f 45 80 79
f 45 79 78
f 45 78 47
f 46 77 76
f 47 78 79
f 47 79 80
f 47 80 81
f 47 81 72
f 47 72 64
f 47 64 63
f 47 63 82
f 47 82 60
f 48 51 56
f 48 56 52
f 52 56 53
f 53 56 54
f 54 56 55
f 60 82 62
f 60 62 61
f 64 72 65
f 65 72 83
f 65 83 66
f 66 70 69
f 66 68 67
f 66 83 71
f 66 71 70
f 71 83 72
f 72 81 84
f 72 84 73
f 73 84 85
f 73 85 74
f 74 85 84
f 74 84 75
f 75 84 76
f 80 84 81

