# https://github.com/mikedh/trimesh
v 0.76396238 -0.37684743 -0.13237178
v 0.76392836 -0.37812962 -0.13235683
v 0.76312879 -0.37684743 -0.13231197
v 0.76396238 -0.36363283 -0.13237178
v 0.81593450 -0.40053442 -0.13038317
v 0.76392836 -0.39262641 -0.13214751
v 0.75496296 -0.39262641 -0.13154943
v 0.75480985 -0.37812962 -0.13166904
v 0.75480985 -0.37684743 -0.13166904
v 0.76396238 -0.34913603 -0.13192322
v 0.81593450 -0.39928189 -0.13038317
v 0.75487789 -0.36363283 -0.13166904
v 0.75525216 -0.34913603 -0.13142982
v 0.84832563 -0.40377323 -0.11842158
v 0.82124229 -0.40607077 -0.12742267
v 0.76392836 -0.40080124 -0.13108591
v 0.75566046 -0.40074194 -0.13102612
v 0.73010821 -0.39262641 -0.11341265
v 0.76396238 -0.34125025 -0.13086164
v 0.77137968 -0.34169494 -0.13042803
v 0.75593265 -0.34122802 -0.13089153
v 0.84832563 -0.39510182 -0.11842158
v 0.71122472 -0.34913603 -0.08842787
v 0.86368760 -0.40712321 -0.10631045
v 0.86469132 -0.40925769 -0.10527877
v 0.85325916 -0.40925769 -0.11275477
v 0.83711463 -0.40925769 -0.12042513
v 0.83711463 -0.40801258 -0.12108303
v 0.82449161 -0.40925769 -0.12464161
v 0.82141241 -0.40925769 -0.12556862
v 0.80831306 -0.40925769 -0.12556862
v 0.75026761 -0.40243917 -0.12257822
v 0.73869934 -0.40140155 -0.11744970
v 0.78339025 -0.40925769 -0.11789824
v 0.77371034 -0.40925769 -0.11302390
v 0.72553194 -0.40163872 -0.10493487
v 0.71188820 -0.40097170 -0.08823349
v 0.71108863 -0.39262641 -0.08901100
v 0.71091851 -0.37684743 -0.08890632
v 0.71091851 -0.36363283 -0.08875680
v 0.76396238 -0.33864883 -0.12301183
v 0.80741141 -0.33953821 -0.10436669
v 0.81789090 -0.34066476 -0.10258739
v 0.75292150 -0.34014595 -0.12301183
v 0.71209235 -0.34101309 -0.08769522
v 0.72042830 -0.33744077 -0.07950153
v 0.86135693 -0.39787370 -0.10592170
v 0.70707376 -0.36363283 -0.07950153
v 0.70782230 -0.34913603 -0.07950153
v 0.87117294 -0.40578173 -0.09500674
v 0.87101983 -0.40925769 -0.09591882
v 0.86591618 -0.40926510 -0.01202316
v 0.77595594 -0.40926510 -0.01202316
v 0.73429320 -0.40298020 -0.10925601
v 0.75695338 -0.40925769 -0.10083802
v 0.72059842 -0.40272079 -0.09343678
v 0.71054424 -0.40205377 -0.07948657
v 0.70749907 -0.39262641 -0.07948657
v 0.70709077 -0.37812962 -0.07948657
v 0.70707376 -0.37684743 -0.07950153
v 0.76396238 -0.33607707 -0.10850840
v 0.79293407 -0.33575096 -0.09400495
v 0.74943401 -0.33541003 -0.09400495
v 0.80741141 -0.33750007 -0.09400495
v 0.82239911 -0.34037570 -0.09349659
v 0.82957824 -0.34160600 -0.08833814
v 0.71088448 -0.34010149 -0.07950153
v 0.72150006 -0.33527663 -0.00439764
v 0.73493966 -0.33590660 -0.07950153
v 0.87471146 -0.35292328 -0.01752549
v 0.87248289 -0.40006010 -0.08640934
v 0.72150006 -0.34924721 0.02037782
v 0.71119070 -0.34038311 -0.06972292
v 0.72150006 -0.33517286 0.00659209
v 0.87416708 -0.40925769 -0.09064076
v 0.87387787 -0.40925769 -0.09134350
v 0.87440525 -0.40925769 -0.08962402
v 0.87608946 -0.40925769 -0.08047340
v 0.87860725 -0.40925769 -0.06504294
v 0.88005327 -0.40925769 -0.05053951
v 0.88015536 -0.40925769 -0.03620054
v 0.87665085 -0.40925769 -0.02272878
v 0.87081568 -0.40925769 -0.01544717
v 0.86258181 -0.40926510 -0.00952616
v 0.78243758 -0.40926510 -0.00454716
v 0.75089705 -0.40925769 -0.03750137
v 0.74400714 -0.40925769 -0.05053951
v 0.73914166 -0.40925769 -0.06502798
v 0.73890349 -0.40925769 -0.07347586
v 0.74298640 -0.40925769 -0.08630469
v 0.72044531 -0.40490716 -0.07948657
v 0.71095253 -0.40168320 -0.07003691
v 0.72150006 -0.37787021 0.02037782
v 0.76396238 -0.33482453 -0.09400495
v 0.77845673 -0.33480970 -0.09400495
v 0.77845673 -0.33399444 -0.07950153
v 0.85091147 -0.34245091 -0.02153263
v 0.74943401 -0.33465406 -0.07950153
v 0.76396238 -0.33369057 -0.07950153
v 0.84373235 -0.34185057 -0.05795569
v 0.72150006 -0.33515063 0.00630800
v 0.87583427 -0.35185604 -0.01203811
v 0.87683800 -0.35087772 -0.00701423
v 0.88085285 -0.36364024 -0.00701423
v 0.87557909 -0.40578173 -0.08074254
v 0.75021657 -0.36146868 0.02037782
v 0.86642655 -0.35856339 0.01160100
v 0.86540581 -0.35819282 0.01160100
v 0.86540581 -0.35053680 0.00518661
v 0.86540581 -0.34453353 -0.00701423
v 0.87855620 -0.40712321 -0.06504294
v 0.88034248 -0.40712321 -0.05053951
v 0.88086986 -0.40712321 -0.03605102
v 0.87717823 -0.40713801 -0.02162234
v 0.87835207 -0.37688449 0.01160100
v 0.87617452 -0.38828330 0.00294379
v 0.87488158 -0.40232057 -0.01190355
v 0.87488158 -0.40241693 -0.01202316
v 0.85101355 -0.40926510 -0.00251368
v 0.76474494 -0.40925769 -0.02219051
v 0.79014408 -0.40926510 0.00161307
v 0.73983916 -0.40160166 -0.01242686
v 0.72313323 -0.40099394 -0.04164307
v 0.72150006 -0.38795720 0.00318303
v 0.75021657 -0.37761081 0.02037782
v 0.79337639 -0.40926510 0.00413996
v 0.80938482 -0.40926510 0.01127205
v 0.76396238 -0.33354976 -0.06502798
v 0.77845673 -0.33416492 -0.06502798
v 0.77845673 -0.33512840 -0.05053951
v 0.87617452 -0.35251566 0.00349701
v 0.87879437 -0.36340307 0.00799758
v 0.87836908 -0.36424797 0.01160100
v 0.87836908 -0.36612307 0.01160100
v 0.88068274 -0.37811479 -0.00701423
v 0.87879437 -0.37800362 0.00765367
v 0.81972821 -0.40926510 0.01068892
v 0.81983028 -0.40926510 0.01065903
v 0.83531134 -0.40926510 0.00430443
v 0.84499124 -0.40926510 0.00032720
f 1 2 3
f 1 3 4
f 1 4 11
f 1 11 5
f 1 5 2
f 2 5 6
f 2 6 7
f 2 7 3
f 3 7 8
f 3 8 9
f 3 9 4
f 4 10 11
f 4 9 12
f 4 12 13
f 4 13 10
f 5 11 22
f 5 22 14
f 5 14 15
f 5 15 16
f 5 16 6
f 6 16 17
f 6 17 7
f 7 17 18
f 7 18 8
f 8 18 9
f 9 18 12
f 10 19 20
f 10 20 11
f 10 13 21
f 10 21 19
f 11 20 22
f 12 18 13
f 13 18 23
f 13 23 21
f 14 22 24
f 14 24 25
f 14 25 26
f 14 26 27
f 14 27 28
f 14 28 15
f 15 28 27
f 15 27 29
f 15 29 30
f 15 30 16
f 16 30 31
f 16 31 17
f 17 32 33
f 17 33 18
f 17 31 34
f 17 34 35
f 17 35 32
f 18 36 37
f 18 37 38
f 18 38 39
f 18 39 40
f 18 40 23
f 18 33 36
f 19 41 20
f 19 21 41
f 20 42 43
f 20 43 22
f 20 41 42
f 21 44 41
f 21 23 45
f 21 45 46
f 21 46 44
f 22 47 24
f 22 43 47
f 23 40 48
f 23 48 49
f 23 49 45
f 24 47 50
f 24 50 25
f 25 50 51
f 25 51 52
f 25 52 26
f 26 52 27
f 27 52 29
f 29 52 30
f 30 52 53
f 30 53 31
f 31 53 34
f 32 54 33
f 32 35 54
f 33 54 36
f 34 53 35
f 35 53 55
f 35 55 54
f 36 54 56
f 36 56 37
f 37 56 57
f 37 57 58
f 37 58 38
f 38 58 59
f 38 59 60
f 38 60 39
f 39 60 48
f 39 48 40
f 41 61 62
f 41 62 42
f 41 44 63
f 41 63 61
f 42 62 64
f 42 64 43
f 43 65 66
f 43 66 47
f 43 64 65
f 44 46 63
f 45 49 67
f 45 67 46
f 46 67 68
f 46 68 69
f 46 69 63
f 47 66 70
f 47 70 71
f 47 71 50
f 48 60 93
f 48 93 72
f 48 72 49
f 49 73 67
f 49 72 74
f 49 74 73
f 50 71 75
f 50 75 76
f 50 76 51
f 51 76 52
f 52 76 75
f 52 75 77
f 52 77 78
f 52 78 79
f 52 79 80
f 52 80 81
f 52 81 82
f 52 82 83
f 52 83 84
f 52 84 119
f 52 119 140
f 52 140 139
f 52 139 138
f 52 138 137
f 52 137 127
f 52 127 126
f 52 126 121
f 52 121 85
f 52 85 53
f 53 85 86
f 53 86 87
f 53 87 88
f 53 88 89
f 53 89 90
f 53 90 55
f 54 55 90
f 54 90 56
f 56 91 57
f 56 90 91
f 57 91 92
f 57 92 58
f 58 92 93
f 58 93 59
f 59 93 60
f 61 94 95
f 61 95 62
f 61 63 94
f 62 95 96
f 62 96 97
f 62 97 64
f 63 69 98
f 63 98 99
f 63 99 94
f 64 97 100
f 64 100 65
f 65 100 66
f 66 100 70
f 67 73 101
f 67 101 68
f 68 101 99
f 68 99 98
f 68 98 69
f 70 102 71
f 70 100 102
f 71 102 103
f 71 103 104
f 71 104 105
f 71 105 75
f 72 93 125
f 72 125 106
f 72 106 107
f 72 107 108
f 72 108 109
f 72 109 74
f 73 74 101
f 74 109 110
f 74 110 101
f 75 105 77
f 77 105 78
f 78 105 111
f 78 111 79
f 79 111 112
f 79 112 80
f 80 112 113
f 80 113 81
f 81 113 114
f 81 114 82
f 82 114 115
f 82 115 116
f 82 116 117
f 82 117 118
f 82 118 83
f 83 118 117
f 83 117 116
f 83 116 84
f 84 116 119
f 85 120 86
f 85 121 122
f 85 122 120
f 86 122 87
f 86 120 122
f 87 122 123
f 87 123 92
f 87 92 88
f 88 92 91
f 88 91 89
f 89 91 90
f 92 123 124
f 92 124 93
f 93 124 126
f 93 126 127
f 93 127 125
f 94 99 95
f 95 99 96
f 96 99 128
f 96 128 129
f 96 129 97
f 97 110 100
f 97 129 130
f 97 130 110
f 99 101 128
f 100 110 103
f 100 103 102
f 101 110 130
f 101 130 129
f 101 129 128
f 103 131 104
f 103 110 131
f 104 131 132
f 104 132 133
f 104 133 134
f 104 134 115
f 104 115 135
f 104 135 113
f 104 113 112
f 104 112 111
f 104 111 105
f 106 125 134
f 106 134 133
f 106 133 107
f 107 131 109
f 107 109 108
f 107 133 131
f 109 131 110
f 113 135 136
f 113 136 115
f 113 115 114
f 115 137 138
f 115 138 139
f 115 139 140
f 115 140 119
f 115 119 116
f 115 136 135
f 115 134 125
f 115 125 137
f 121 126 122
f 122 124 123
f 122 126 124
f 125 127 137
f 131 133 132

