# https://github.com/mikedh/trimesh
v 1.01863936 -0.49414256 -0.01281169
v 1.01863936 -0.51417732 -0.01288186
v 1.01863936 -0.48111125 -0.01284679
v 1.00693135 -0.49414256 0.01858975
v 1.00693135 -0.51417732 0.01858975
v 1.01863936 -0.51417732 -0.01772366
v 1.01863936 -0.48111125 -0.01695176
v 0.96560577 -0.43870040 -0.02154796
v 0.96560577 -0.43877228 -0.00712786
v 0.96560577 -0.44126764 0.00722207
v 1.00693135 -0.48111125 0.01855465
v 0.88610883 -0.43959379 0.09619862
v 0.88610883 -0.45352879 0.09619862
v 0.86400258 -0.48995284 0.09307603
v 0.85093129 -0.48995284 0.09577760
v 0.99530353 -0.51417732 0.02083520
v 1.01863936 -0.50863207 -0.01824993
v 1.01420207 -0.51417732 -0.02207423
v 0.94149471 -0.51135336 -0.16929257
v 1.01259824 -0.50909419 -0.03638907
v 1.01863936 -0.49414256 -0.01824993
v 1.01259824 -0.49372153 -0.03638907
v 0.94149471 -0.43332972 -0.18802816
v 0.88006769 -0.40927980 -0.05052849
v 0.88017462 -0.40927980 -0.03624873
v 0.87667289 -0.40927980 -0.02277594
v 0.87084563 -0.40927980 -0.01547818
v 0.86547276 -0.43899819 0.09623371
v 0.86801218 -0.43914197 0.09623371
v 0.86258585 -0.40927980 -0.00954874
v 0.85101149 -0.40927980 -0.00256676
v 0.84499709 -0.40927980 0.00027516
v 0.81989702 -0.40927980 0.01059027
v 0.86801218 -0.46020362 0.09623371
v 0.86739737 -0.46090192 0.09623371
v 0.85363109 -0.46499924 0.09623371
v 0.85130553 -0.46491708 0.09623371
v 0.83093677 -0.44950336 0.09623371
v 0.83831443 -0.48995284 0.09104107
v 0.82698064 -0.50840616 -0.00677699
v 0.98450433 -0.51417732 0.01044993
v 0.82698064 -0.50967952 -0.01656582
v 0.82698064 -0.51022377 -0.02154796
v 0.82698064 -0.51094260 -0.03603822
v 1.01120825 -0.51417732 -0.02375834
v 0.92339807 -0.51119933 -0.16645065
v 0.92339807 -0.51086046 -0.16929257
v 0.78343641 -0.47999192 -0.26219868
v 0.79009234 -0.47999192 -0.26219868
v 0.90893680 -0.47478556 -0.21132486
v 0.92214173 -0.46525595 -0.21132486
v 0.93077574 -0.45680459 -0.21132486
v 0.94149471 -0.47732200 -0.18802816
v 0.99768255 -0.51417732 -0.02186372
v 0.99599851 -0.51417732 -0.02147779
v 0.93077574 -0.43540407 -0.21132486
v 0.78993195 -0.41089203 -0.25349749
v 0.87394637 -0.40926953 -0.09133280
v 0.87421369 -0.40926953 -0.09059600
v 0.87448099 -0.40926953 -0.08961362
v 0.87485521 -0.40926953 -0.08750851
v 0.87613830 -0.40927980 -0.08049143
v 0.87862423 -0.40927980 -0.06508893
v 0.85093129 -0.43879283 0.09623371
v 0.80944534 -0.40927980 0.01122180
v 0.82938639 -0.44168867 0.09623371
v 0.78749947 -0.44836351 -0.01130302
v 0.78012181 -0.48958315 -0.05140563
v 0.98271336 -0.51417732 0.00771327
v 0.82698064 -0.51136363 -0.05052849
v 0.77907931 -0.48958315 -0.05838761
v 0.82698064 -0.51138416 -0.06508893
v 0.82698064 -0.51112743 -0.07950902
v 0.82698064 -0.51030592 -0.09396422
v 0.75317732 -0.47999192 -0.25086610
v 0.75344463 -0.47999192 -0.25097134
v 0.78324929 -0.46512246 -0.26219868
v 0.76397649 -0.46512246 -0.25514653
v 0.79003888 -0.43203583 -0.26219868
v 0.81783875 -0.45065348 -0.25869013
v 0.81783875 -0.45275862 -0.25869013
v 0.98324800 -0.51417732 -0.00670682
v 0.78851523 -0.41264804 -0.26170748
v 0.77905258 -0.40975218 -0.25349749
v 0.87108619 -0.40926953 -0.09592900
v 0.86488468 -0.40926953 -0.08750851
v 0.83363657 -0.44103146 0.09623371
v 0.79340693 -0.40927980 0.00406439
v 0.79017253 -0.40927980 0.00153824
v 0.78749947 -0.40927980 -0.00060198
v 0.74561255 -0.44955471 -0.21413169
v 0.74561255 -0.45619873 -0.22409595
v 0.98271336 -0.51417732 0.00673087
v 0.82698064 -0.51140471 -0.06003663
v 0.75307039 -0.47999192 -0.24188424
v 0.75312386 -0.45066374 -0.25086610
v 0.74561255 -0.45188576 -0.23876165
v 0.78324929 -0.45066374 -0.26219868
v 0.75312386 -0.43616397 -0.25086610
v 0.75317732 -0.42167446 -0.25086610
v 0.76397649 -0.45066374 -0.25511143
v 0.78998542 -0.42167446 -0.26219868
v 0.98314107 -0.51417732 -0.00544377
v 0.78429179 -0.41264804 -0.26170748
v 0.76397649 -0.40984460 -0.25033981
v 0.78749947 -0.40930035 -0.11845382
v 0.81786548 -0.40927980 -0.12547090
v 0.82147412 -0.40927980 -0.12554107
v 0.82454814 -0.40927980 -0.12455867
v 0.83711155 -0.40927980 -0.12038351
v 0.86488468 -0.40926953 -0.10508627
v 0.78749947 -0.40927980 -0.10364779
v 0.76397649 -0.40984460 -0.24205967
v 0.75435347 -0.41137467 -0.24346308
v 0.74561255 -0.43720113 -0.22434153
v 0.74561255 -0.44117523 -0.21444745
v 0.74561255 -0.44458453 -0.21413169
v 0.74561255 -0.45161876 -0.23876165
v 0.78357006 -0.42167446 -0.26219868
v 0.74561255 -0.43646176 -0.23795468
v 0.75435347 -0.41137467 -0.24932235
v 0.74561255 -0.43566077 -0.23465665
v 0.74561255 -0.43575320 -0.23402512
f 1 2 6
f 1 6 17
f 1 17 21
f 1 21 7
f 1 7 3
f 1 3 11
f 1 11 4
f 1 4 5
f 1 5 2
f 2 5 16
f 2 16 41
f 2 41 69
f 2 69 93
f 2 93 103
f 2 103 82
f 2 82 55
f 2 55 54
f 2 54 45
f 2 45 18
f 2 18 6
f 3 7 8
f 3 8 9
f 3 9 10
f 3 10 11
f 4 11 12
f 4 12 13
f 4 13 5
f 5 13 14
f 5 14 15
f 5 15 16
f 6 18 19
f 6 19 20
f 6 20 17
f 7 21 22
f 7 22 23
f 7 23 8
f 8 24 25
f 8 25 9
f 8 23 24
f 9 25 26
f 9 26 10
f 10 12 11
f 10 26 27
f 10 27 12
f 12 28 29
f 12 29 34
f 12 34 13
f 12 27 30
f 12 30 31
f 12 31 32
f 12 32 33
f 12 33 28
f 13 34 35
f 13 35 15
f 13 15 14
f 15 35 36
f 15 36 37
f 15 37 38
f 15 38 39
f 15 39 40
f 15 40 16
f 16 40 42
f 16 42 43
f 16 43 44
f 16 44 41
f 17 20 22
f 17 22 21
f 18 45 19
f 19 46 47
f 19 47 48
f 19 48 49
f 19 49 50
f 19 50 51
f 19 51 52
f 19 52 53
f 19 53 20
f 19 45 54
f 19 54 55
f 19 55 46
f 20 53 52
f 20 52 56
f 20 56 22
f 22 56 23
f 23 56 57
f 23 57 58
f 23 58 59
f 23 59 60
f 23 60 61
f 23 61 62
f 23 62 63
f 23 63 24
f 24 63 61
f 24 61 25
f 25 61 26
f 26 61 27
f 27 61 30
f 28 64 87
f 28 87 66
f 28 66 38
f 28 38 37
f 28 37 36
f 28 36 35
f 28 35 34
f 28 34 29
f 28 33 65
f 28 65 64
f 30 61 31
f 31 61 32
f 32 61 33
f 33 61 65
f 38 66 67
f 38 67 68
f 38 68 39
f 39 68 40
f 40 68 42
f 41 44 70
f 41 70 69
f 42 68 43
f 43 68 71
f 43 71 44
f 44 71 70
f 46 55 72
f 46 72 73
f 46 73 74
f 46 74 47
f 47 74 75
f 47 75 76
f 47 76 48
f 48 77 98
f 48 98 119
f 48 119 102
f 48 102 79
f 48 79 49
f 48 76 78
f 48 78 77
f 49 79 80
f 49 80 81
f 49 81 52
f 49 52 51
f 49 51 50
f 52 81 80
f 52 80 56
f 55 82 72
f 56 80 83
f 56 83 57
f 57 83 84
f 57 84 58
f 58 85 111
f 58 111 86
f 58 86 61
f 58 61 60
f 58 60 59
f 58 84 85
f 61 86 65
f 61 63 62
f 64 65 87
f 65 86 88
f 65 88 66
f 65 66 87
f 66 88 89
f 66 89 90
f 66 90 67
f 67 90 68
f 68 90 91
f 68 91 92
f 68 92 71
f 69 70 94
f 69 94 93
f 70 71 95
f 70 95 94
f 71 92 95
f 72 94 95
f 72 95 75
f 72 75 73
f 72 82 94
f 73 75 74
f 75 96 78
f 75 78 76
f 75 95 92
f 75 92 97
f 75 97 96
f 77 78 98
f 78 96 99
f 78 99 100
f 78 100 101
f 78 101 98
f 79 102 80
f 80 102 83
f 82 103 94
f 83 104 84
f 83 102 119
f 83 119 104
f 84 104 105
f 84 105 106
f 84 106 107
f 84 107 108
f 84 108 109
f 84 109 110
f 84 110 111
f 84 111 85
f 86 111 112
f 86 112 90
f 86 90 89
f 86 89 88
f 90 112 105
f 90 105 113
f 90 113 114
f 90 114 115
f 90 115 116
f 90 116 117
f 90 117 91
f 91 117 116
f 91 116 115
f 91 115 123
f 91 123 122
f 91 122 120
f 91 120 118
f 91 118 97
f 91 97 92
f 93 94 103
f 96 97 118
f 96 118 99
f 98 101 119
f 99 118 100
f 100 118 120
f 100 120 121
f 100 121 104
f 100 104 119
f 100 119 101
f 104 121 105
f 105 121 114
f 105 114 113
f 105 112 106
f 106 112 107
f 107 112 111
f 107 111 108
f 108 111 109
f 109 111 110
f 114 121 122
f 114 122 123
f 114 123 115
f 120 122 121

