# https://github.com/mikedh/trimesh
v 0.82146761 0.08838133 -0.26327893
v 0.82146761 0.11544623 -0.26327893
v 0.82187686 0.04248061 -0.26327893
v 0.80871894 0.10044099 -0.26322327
v 0.82187686 0.11679354 -0.26327893
v 0.80931238 0.11493108 -0.26322327
v 0.81006953 0.12942118 -0.26322327
v 0.82928459 0.04248061 -0.26084290
v 0.82924366 0.03411944 -0.26081506
v 0.82314560 0.02875664 -0.26275000
v 0.81004906 0.02795091 -0.26320935
v 0.81002860 0.02796411 -0.26320935
v 0.81004906 0.04246741 -0.26322327
v 0.78354904 0.02797731 -0.26231844
v 0.78348765 0.10042778 -0.26231844
v 0.78348765 0.11493108 -0.26231844
v 0.78354904 0.12942118 -0.26231844
v 0.82187686 0.12942118 -0.26326502
v 0.82928459 0.11679354 -0.26084290
v 0.78426526 0.14148085 -0.26180339
v 0.81178845 0.14391127 -0.26227669
v 0.83421626 0.05697071 -0.25790572
v 0.81938034 0.01730458 -0.25352083
v 0.81913478 0.01817636 -0.26240199
v 0.83421626 0.04244100 -0.25471795
v 0.83421626 0.04242780 -0.25462053
v 0.81164519 0.01817636 -0.26240199
v 0.78424480 0.01882359 -0.26180339
v 0.73961426 0.02797731 -0.24781348
v 0.74941619 0.04246741 -0.25139101
v 0.74941619 0.05697071 -0.25162765
v 0.74941619 0.11493108 -0.25139101
v 0.73934823 0.12943438 -0.24800836
v 0.82109926 0.14251114 -0.26198435
v 0.82918229 0.13673888 -0.26080115
v 0.82926412 0.12942118 -0.26081506
v 0.83421626 0.06167305 -0.25790572
v 0.81389617 0.15146673 -0.26114916
v 0.74031001 0.14010713 -0.24740980
v 0.75483898 0.15140069 -0.24667203
v 0.81575833 0.15146673 -0.26114916
v 0.80704095 0.01722534 -0.25342337
v 0.83421626 0.04303539 -0.24161895
v 0.83421626 0.04751318 -0.23096990
v 0.81647454 0.01874434 -0.24519648
v 0.64349797 0.01748950 -0.12777864
v 0.63340955 0.01727815 -0.12761159
v 0.73546020 0.01723854 -0.23936384
v 0.74941619 0.01799144 -0.24842596
v 0.74065789 0.01947083 -0.24715925
v 0.71299146 0.02038225 -0.23206961
v 0.73237024 0.02797731 -0.24374877
v 0.73206329 0.04246741 -0.24401324
v 0.73930731 0.04246741 -0.24803620
v 0.73930731 0.11493108 -0.24803620
v 0.71299146 0.13761066 -0.23206961
v 0.68569337 0.11491788 -0.21699392
v 0.68612310 0.12943438 -0.21698000
v 0.82918229 0.13673888 -0.26074544
v 0.83421626 0.11538019 -0.25496854
v 0.73490769 0.15191583 -0.23450568
v 0.72054243 0.14303949 -0.23443606
v 0.72543317 0.15171771 -0.23284913
v 0.74515982 0.14977599 -0.24402715
v 0.80839153 0.15154599 -0.25249072
v 0.81555369 0.15142709 -0.25353475
v 0.67662811 0.01697435 -0.19609954
v 0.83421626 0.04834535 -0.22996766
v 0.65704470 0.04780377 -0.12108297
v 0.64937095 0.04207114 -0.12108297
v 0.64814315 0.04168810 -0.12108297
v 0.63340955 0.02796411 -0.12485536
v 0.62549023 0.01937836 -0.12924027
v 0.62549023 0.01937836 -0.13150928
v 0.63402344 0.01733099 -0.13682684
v 0.72044011 0.01816315 -0.23421334
v 0.72044011 0.02797731 -0.23691389
v 0.68127329 0.01881038 -0.20723577
v 0.68634820 0.02795091 -0.21685470
v 0.73206329 0.05697071 -0.24398540
v 0.72044011 0.04246741 -0.23723406
v 0.68544781 0.05697071 -0.21699392
v 0.72044011 0.05697071 -0.23726190
v 0.68059800 0.14149406 -0.20740282
v 0.67867444 0.11490467 -0.20974144
v 0.67953391 0.12779650 -0.21054879
v 0.67875630 0.12943438 -0.20972752
v 0.81471470 0.15120256 -0.24624047
v 0.83421626 0.10966076 -0.23041309
v 0.83421626 0.11427065 -0.23896016
v 0.73490769 0.15191583 -0.23044093
v 0.66864741 0.15171771 -0.18951521
v 0.63727711 0.15174412 -0.13446039
v 0.80738882 0.15140069 -0.24600384
v 0.64163581 0.15174412 -0.12947692
v 0.63406437 0.01733099 -0.13691037
v 0.66670340 0.01762158 -0.19170069
v 0.65837482 0.10106181 -0.12108297
v 0.65751536 0.05686503 -0.12108297
v 0.83421626 0.05405155 -0.22996766
v 0.63345047 0.04277123 -0.12108297
v 0.62516283 0.02796411 -0.12872521
v 0.62516283 0.02796411 -0.13213569
v 0.63924160 0.02796411 -0.16152148
v 0.63971226 0.01896889 -0.16076979
v 0.68589800 0.04245420 -0.21699392
v 0.68018873 0.02795091 -0.21054879
v 0.67982039 0.03524218 -0.21054879
v 0.67869491 0.04245420 -0.20974144
v 0.67867444 0.08741708 -0.20974144
v 0.66666247 0.14391127 -0.19178424
v 0.66518911 0.11490467 -0.19342683
v 0.66520957 0.12943438 -0.19342683
v 0.63971226 0.14116383 -0.16076979
v 0.65833389 0.11169493 -0.12108297
v 0.63727711 0.15174412 -0.12947692
v 0.63295936 0.14560201 -0.13782910
v 0.63187480 0.14482268 -0.13691037
v 0.62549023 0.14022601 -0.13150928
v 0.63283658 0.14461133 -0.12766728
v 0.64845010 0.11806158 -0.12108297
v 0.66520957 0.02795091 -0.19341292
v 0.67928835 0.02795091 -0.20960222
v 0.63244777 0.05641595 -0.12108297
v 0.62516283 0.04246741 -0.12837722
v 0.62516283 0.12942118 -0.13213569
v 0.63924160 0.12942118 -0.16152148
v 0.66518911 0.04245420 -0.19342683
v 0.62549023 0.14022601 -0.12924027
v 0.63289796 0.11515563 -0.12108297
v 0.64662886 0.11799554 -0.12108297
v 0.62516283 0.10042778 -0.12819626
v 0.63244777 0.05818594 -0.12108297
v 0.62516283 0.12942118 -0.12872521
v 0.62516283 0.11493108 -0.12819626
f 1 2 5
f 1 5 3
f 1 3 4
f 1 4 2
f 2 4 6
f 2 6 7
f 2 7 5
f 3 5 19
f 3 19 8
f 3 8 9
f 3 9 10
f 3 10 11
f 3 11 12
f 3 12 13
f 3 13 4
f 4 13 14
f 4 14 15
f 4 15 16
f 4 16 17
f 4 17 6
f 5 7 18
f 5 18 19
f 6 17 7
f 7 17 20
f 7 20 21
f 7 21 18
f 8 19 37
f 8 37 22
f 8 22 9
f 9 23 24
f 9 24 10
f 9 22 25
f 9 25 26
f 9 26 23
f 10 24 11
f 11 27 28
f 11 28 14
f 11 14 12
f 11 24 27
f 12 14 13
f 14 28 29
f 14 29 30
f 14 30 31
f 14 31 15
f 15 31 16
f 16 31 17
f 17 31 32
f 17 32 33
f 17 33 20
f 18 34 35
f 18 35 36
f 18 36 19
f 18 21 34
f 19 36 37
f 20 38 21
f 20 33 39
f 20 39 40
f 20 40 38
f 21 38 41
f 21 41 34
f 22 37 60
f 22 60 90
f 22 90 89
f 22 89 100
f 22 100 68
f 22 68 44
f 22 44 43
f 22 43 26
f 22 26 25
f 23 42 24
f 23 26 43
f 23 43 44
f 23 44 45
f 23 45 46
f 23 46 47
f 23 47 42
f 24 42 27
f 27 42 48
f 27 48 49
f 27 49 28
f 28 49 50
f 28 50 29
f 29 50 51
f 29 51 52
f 29 52 53
f 29 53 54
f 29 54 30
f 30 54 31
f 31 54 55
f 31 55 33
f 31 33 32
f 33 56 39
f 33 55 57
f 33 57 58
f 33 58 56
f 34 41 35
f 35 41 59
f 35 59 60
f 35 60 37
f 35 37 36
f 38 40 61
f 38 61 41
f 39 56 62
f 39 62 63
f 39 63 64
f 39 64 40
f 40 64 63
f 40 63 61
f 41 61 65
f 41 65 66
f 41 66 59
f 42 47 67
f 42 67 48
f 44 68 45
f 45 68 46
f 46 69 70
f 46 70 71
f 46 71 47
f 46 68 69
f 47 72 73
f 47 73 74
f 47 74 75
f 47 75 67
f 47 71 72
f 48 76 49
f 48 67 76
f 49 76 50
f 50 76 51
f 51 77 52
f 51 76 78
f 51 78 79
f 51 79 77
f 52 77 53
f 53 80 55
f 53 55 54
f 53 77 81
f 53 81 82
f 53 82 83
f 53 83 80
f 55 80 83
f 55 83 57
f 56 58 84
f 56 84 62
f 57 82 85
f 57 85 86
f 57 86 58
f 57 83 82
f 58 86 87
f 58 87 84
f 59 66 88
f 59 88 89
f 59 89 90
f 59 90 60
f 61 91 65
f 61 63 92
f 61 92 93
f 61 93 116
f 61 116 91
f 62 84 63
f 63 84 92
f 65 94 66
f 65 91 95
f 65 95 94
f 66 94 88
f 67 75 96
f 67 96 97
f 67 97 76
f 68 98 99
f 68 99 69
f 68 100 98
f 69 99 98
f 69 98 115
f 69 115 121
f 69 121 131
f 69 131 130
f 69 130 133
f 69 133 124
f 69 124 101
f 69 101 71
f 69 71 70
f 71 101 72
f 72 101 73
f 73 102 103
f 73 103 74
f 73 101 102
f 74 103 104
f 74 104 105
f 74 105 75
f 75 105 96
f 76 97 78
f 77 79 106
f 77 106 81
f 78 97 107
f 78 107 79
f 79 107 108
f 79 108 109
f 79 109 106
f 81 106 82
f 82 106 109
f 82 109 110
f 82 110 85
f 84 87 111
f 84 111 92
f 85 110 128
f 85 128 112
f 85 112 113
f 85 113 87
f 85 87 86
f 87 113 114
f 87 114 111
f 88 94 95
f 88 95 89
f 89 95 115
f 89 115 100
f 91 116 95
f 92 111 114
f 92 114 93
f 93 114 117
f 93 117 118
f 93 118 119
f 93 119 129
f 93 129 116
f 95 116 120
f 95 120 121
f 95 121 115
f 96 105 97
f 97 105 122
f 97 122 123
f 97 123 107
f 98 100 115
f 101 124 102
f 102 124 125
f 102 125 132
f 102 132 135
f 102 135 134
f 102 134 126
f 102 126 103
f 103 126 127
f 103 127 104
f 104 127 112
f 104 112 128
f 104 128 122
f 104 122 105
f 107 123 108
f 108 123 109
f 109 122 128
f 109 128 110
f 109 123 122
f 112 127 113
f 113 127 114
f 114 127 119
f 114 119 118
f 114 118 117
f 116 129 120
f 119 127 126
f 119 126 134
f 119 134 129
f 120 130 131
f 120 131 121
f 120 129 130
f 124 132 125
f 124 133 135
f 124 135 132
f 129 134 130
f 130 134 135
f 130 135 133

