# https://github.com/mikedh/trimesh
v 0.53186396 -0.16159570 0.42739385
v 0.50900266 -0.16578133 0.42204988
v 0.53186396 -0.16211392 0.42739385
v 0.53186396 -0.14082698 0.42105233
v 0.45157409 -0.00545162 0.37781193
v 0.45120704 -0.19926641 0.37812747
v 0.45114320 -0.37809264 0.37815801
v 0.50900266 -0.16948861 0.42204988
v 0.45128684 -0.01561673 0.37807658
v 0.45124693 -0.11710839 0.37811729
v 0.53186396 -0.17040546 0.42697652
v 0.53186396 -0.13018351 0.41743878
v 0.45351313 -0.00545162 0.37781193
v 0.45154219 -0.00513272 0.37003517
v 0.45094372 -0.01561673 0.37003517
v 0.46554623 0.00678638 0.35192672
v 0.45119109 -0.23307039 0.37812747
v 0.45116715 -0.29107131 0.37813766
v 0.45127885 -0.03008706 0.37807658
v 0.45063251 -0.32953929 0.37289547
v 0.45035324 -0.32949942 0.37004535
v 0.45035324 -0.34911211 0.37004535
v 0.45036121 -0.36362230 0.37004535
v 0.45037716 -0.37809264 0.37004535
v 0.45147036 -0.38845706 0.37787300
v 0.45058464 -0.19926641 0.37004535
v 0.45041708 -0.29107131 0.37004535
v 0.53186396 -0.17060478 0.42625381
v 0.45338546 -0.38845706 0.37787300
v 0.46716607 -0.38817803 0.36396848
v 0.46920084 -0.39284202 0.35589652
v 0.47218517 -0.39371900 0.34463855
v 0.47801023 -0.37821224 0.34463855
v 0.53186396 -0.11989881 0.41081226
v 0.46733363 -0.00469421 0.36448761
v 0.46761292 0.00678638 0.35192672
v 0.46463657 0.00582965 0.32512540
v 0.45899504 -0.00178419 0.32512540
v 0.45190127 -0.00700628 0.36223805
v 0.45518881 -0.01561673 0.32512540
v 0.45068837 -0.14608892 0.37003517
v 0.47324645 0.00638774 0.32512540
v 0.46587338 0.00630802 0.32512540
v 0.46539461 0.00626817 0.32512540
v 0.45131876 -0.33460191 0.36102675
v 0.45132674 -0.34911211 0.36105729
v 0.45133471 -0.36362230 0.36110818
v 0.45135866 -0.37809264 0.36114889
v 0.45161400 -0.38801857 0.36171891
v 0.45125493 -0.38969282 0.37004535
v 0.46557815 -0.40045589 0.35129562
v 0.45058464 -0.19922654 0.37003517
v 0.53186396 -0.17387356 0.41351987
v 0.46758100 -0.40045589 0.35129562
v 0.47106805 -0.39658915 0.34463855
v 0.48693133 -0.32949942 0.32728334
v 0.53186396 -0.17064464 0.36897655
v 0.53186396 -0.17518905 0.38451988
v 0.53186396 -0.17542822 0.39900461
v 0.53186396 -0.11260385 0.39802743
v 0.48830379 0.00431486 0.32918683
v 0.48830379 0.00551075 0.32512540
v 0.47520942 0.00638774 0.32512540
v 0.47386885 -0.32949942 0.32340515
v 0.45568355 -0.03008706 0.32512540
v 0.46241825 -0.32949942 0.32805696
v 0.46074255 -0.32949942 0.33163997
v 0.45893121 -0.37809264 0.34463855
v 0.46078247 -0.38861653 0.34463855
v 0.46253795 -0.39343997 0.34463855
v 0.46553825 -0.40037617 0.34463855
v 0.46758100 -0.40045589 0.34463855
v 0.48559875 -0.32949942 0.32688636
v 0.48830379 -0.06054254 0.32512540
v 0.51148429 -0.12815049 0.33274948
v 0.51102945 -0.16059912 0.33311592
v 0.52491381 -0.15481896 0.34794672
v 0.53186396 -0.16043967 0.36343917
v 0.53186396 -0.11360043 0.38569048
v 0.53186396 -0.11403892 0.38436721
v 0.53186396 -0.12061635 0.37082913
v 0.52491381 -0.15302512 0.34794672
v 0.51148429 -0.12233047 0.33274948
v 0.53186396 -0.15852623 0.36328649
v 0.53186396 -0.13102064 0.36804008
f 1 2 8
f 1 8 3
f 1 3 11
f 1 11 28
f 1 28 53
f 1 53 59
f 1 59 58
f 1 58 57
f 1 57 78
f 1 78 84
f 1 84 85
f 1 85 81
f 1 81 80
f 1 80 79
f 1 79 60
f 1 60 34
f 1 34 12
f 1 12 4
f 1 4 5
f 1 5 2
f 2 6 7
f 2 7 8
f 2 5 9
f 2 9 10
f 2 10 6
f 3 8 11
f 4 12 13
f 4 13 5
f 5 14 15
f 5 15 9
f 5 13 36
f 5 36 16
f 5 16 14
f 6 17 18
f 6 18 7
f 6 10 19
f 6 19 17
f 7 20 21
f 7 21 22
f 7 22 23
f 7 23 24
f 7 24 25
f 7 25 8
f 7 18 20
f 8 25 11
f 9 19 10
f 9 15 26
f 9 26 27
f 9 27 21
f 9 21 19
f 11 25 29
f 11 29 30
f 11 30 31
f 11 31 32
f 11 32 33
f 11 33 28
f 12 34 13
f 13 35 36
f 13 34 35
f 14 16 37
f 14 37 38
f 14 38 39
f 14 39 15
f 15 39 40
f 15 40 41
f 15 41 26
f 16 36 63
f 16 63 42
f 16 42 43
f 16 43 44
f 16 44 37
f 17 19 20
f 17 20 18
f 19 21 20
f 21 27 40
f 21 40 45
f 21 45 22
f 22 45 23
f 23 46 47
f 23 47 24
f 23 45 46
f 24 48 49
f 24 49 50
f 24 50 25
f 24 47 48
f 25 50 51
f 25 51 54
f 25 54 29
f 26 52 27
f 26 41 52
f 27 52 40
f 28 33 53
f 29 54 30
f 30 54 31
f 31 54 55
f 31 55 32
f 32 55 56
f 32 56 33
f 33 56 57
f 33 57 58
f 33 58 59
f 33 59 53
f 34 60 61
f 34 61 36
f 34 36 35
f 36 61 62
f 36 62 63
f 37 44 64
f 37 64 38
f 38 64 40
f 38 40 39
f 40 65 66
f 40 66 67
f 40 67 48
f 40 48 47
f 40 47 46
f 40 46 45
f 40 52 41
f 40 64 65
f 42 63 64
f 42 64 43
f 43 64 44
f 48 67 49
f 49 67 66
f 49 66 68
f 49 68 69
f 49 69 70
f 49 70 71
f 49 71 50
f 50 71 51
f 51 71 72
f 51 72 54
f 54 72 55
f 55 72 56
f 56 72 73
f 56 73 74
f 56 74 75
f 56 75 76
f 56 76 77
f 56 77 78
f 56 78 57
f 60 79 62
f 60 62 61
f 62 79 80
f 62 80 81
f 62 81 82
f 62 82 83
f 62 83 75
f 62 75 74
f 62 74 64
f 62 64 63
f 64 74 73
f 64 73 72
f 64 72 71
f 64 71 66
f 64 66 65
f 66 71 70
f 66 70 69
f 66 69 68
f 75 83 82
f 75 82 77
f 75 77 76
f 77 82 84
f 77 84 78
f 81 85 82
f 82 85 84

