# https://github.com/mikedh/trimesh
v 0.63987919 -0.54544923 0.02795446
v 0.64268788 -0.54544923 0.02795446
v 0.63986191 -0.54544923 0.02875738
v 0.62575797 -0.54520999 -0.00022047
v 0.62552463 -0.54509038 -0.05878444
v 0.68517256 -0.54543594 0.08479096
v 0.64268788 -0.54544923 0.03060651
v 0.62647526 -0.54509038 -0.05878444
v 0.63986191 -0.54544923 0.03060651
v 0.62575797 -0.54520999 0.00111772
v 0.62203321 -0.53738127 -0.06418586
v 0.62235297 -0.53649073 -0.06579167
v 0.62385670 -0.53237035 -0.07313956
v 0.63350995 -0.48300560 -0.13666697
v 0.62552463 -0.54509038 -0.05537815
v 0.62155789 -0.53886991 -0.05051200
v 0.68805038 -0.53843131 0.07994914
v 0.68517256 -0.54543594 0.08814859
v 0.65691282 -0.50611958 -0.07895457
v 0.63779644 -0.48300560 -0.13652099
v 0.64568670 -0.48300560 -0.13549909
v 0.68315894 -0.54543594 0.08814859
v 0.66723151 -0.53322102 0.07474239
v 0.63820262 -0.53762052 0.03301525
v 0.62461721 -0.53760723 0.00330749
v 0.61533557 -0.52314605 -0.05051200
v 0.61600965 -0.52314605 -0.06498876
v 0.62553327 -0.48300560 -0.13170351
v 0.62743454 -0.48300560 -0.13335799
v 0.64613609 -0.45030841 -0.15041382
v 0.69208626 -0.51308434 0.06476680
v 0.69603570 -0.51308434 0.07997348
v 0.65698195 -0.50598666 -0.07895457
v 0.68715160 -0.53762052 0.08997340
v 0.64613609 -0.48300560 -0.13462318
v 0.68122311 -0.53762052 0.08997340
v 0.66590062 -0.52311944 0.07586159
v 0.65865853 -0.52311944 0.06642129
v 0.65495105 -0.53149313 0.05887877
v 0.63694087 -0.52311944 0.03471839
v 0.62369250 -0.52311944 0.00508361
v 0.61714177 -0.52314605 -0.03601091
v 0.61646768 -0.51301789 -0.03601091
v 0.61592323 -0.51301789 -0.04039044
v 0.61503309 -0.51301789 -0.05051200
v 0.61441086 -0.50863168 -0.06498876
v 0.62072825 -0.48300560 -0.10851638
v 0.62018380 -0.46515505 -0.10851638
v 0.61997639 -0.45065400 -0.10854071
v 0.62552463 -0.43353448 -0.13170351
v 0.63960264 -0.44463291 -0.14642358
v 0.64613609 -0.43801374 -0.15148435
v 0.69682214 -0.46445060 0.05133625
v 0.70195556 -0.46309486 0.09235779
v 0.70195556 -0.46301512 0.09255245
v 0.69593200 -0.51308434 0.08038710
v 0.70195556 -0.45068058 0.09705362
v 0.69085907 -0.51308434 0.09235779
v 0.68828372 -0.51308434 0.09235779
v 0.67977123 -0.52314605 0.09136024
v 0.66571050 -0.50863168 0.07605623
v 0.65846840 -0.50863168 0.06642129
v 0.63105559 -0.49414390 0.02196911
v 0.63108151 -0.50864497 0.02196911
v 0.65842519 -0.49411732 0.06642129
v 0.63694087 -0.50864497 0.03474273
v 0.62367522 -0.51167544 0.00508361
v 0.61585409 -0.45065400 -0.03603524
v 0.61618249 -0.50863168 -0.03601091
v 0.61491210 -0.50863168 -0.05048767
v 0.61366763 -0.45065400 -0.06501310
v 0.62089245 -0.42165185 -0.10851638
v 0.62552463 -0.42165185 -0.13170351
v 0.63960264 -0.44218728 -0.14642358
v 0.62574068 -0.41351744 -0.13121689
v 0.64613609 -0.43730929 -0.15119240
v 0.69682214 -0.43805361 0.05133625
v 0.70195556 -0.43656495 0.09235779
v 0.70195556 -0.43645862 0.09449890
v 0.68714296 -0.41115153 0.08997340
v 0.68123175 -0.41115153 0.08997340
v 0.67977987 -0.42166514 0.09136024
v 0.67977123 -0.45066729 0.09136024
v 0.66564136 -0.46515505 0.07612923
v 0.66567593 -0.49411732 0.07610490
v 0.63694087 -0.42166514 0.03471839
v 0.63107287 -0.47794152 0.02196911
v 0.62367522 -0.43617951 0.00510794
v 0.62367522 -0.47792823 0.00510794
v 0.63694087 -0.43616622 0.03474273
v 0.65839926 -0.46515505 0.06642129
v 0.61627756 -0.43615293 -0.03603524
v 0.61483432 -0.43615293 -0.05051200
v 0.61483432 -0.49414390 -0.05048767
v 0.62367522 -0.42166514 0.00505928
v 0.61539606 -0.42166514 -0.05051200
v 0.61506766 -0.43389336 -0.06275035
v 0.61500717 -0.43615293 -0.06501310
v 0.62373571 -0.41184271 -0.10851638
v 0.63340624 -0.40979579 -0.12299312
v 0.63340624 -0.41161675 -0.13309037
v 0.64267924 -0.41157686 -0.13309037
v 0.68824915 -0.40986226 0.07997348
v 0.69682214 -0.43512946 0.05999798
v 0.67729094 -0.41002174 0.07941387
v 0.67659957 -0.41004835 0.07936521
v 0.63817670 -0.41123129 0.03289360
v 0.65495105 -0.41402251 0.05887877
v 0.66638458 -0.42165185 0.07542364
v 0.66577963 -0.43617951 0.07598324
v 0.66565000 -0.45068058 0.07612923
v 0.62451350 -0.41180282 0.00342913
v 0.63423589 -0.42844382 0.02875738
v 0.63110744 -0.45066729 0.02196911
v 0.65840790 -0.45068058 0.06642129
v 0.65853754 -0.43617951 0.06642129
v 0.65914249 -0.42165185 0.06642129
v 0.61728004 -0.42166514 -0.03603524
v 0.63115929 -0.43617951 0.02196911
v 0.62103073 -0.40980910 -0.05051200
v 0.62315669 -0.41133761 -0.09871110
v 0.64306814 -0.41072619 -0.12299312
v 0.63278401 -0.40966288 0.00795464
v 0.63619765 -0.40974263 0.02196911
v 0.63742483 -0.41065974 0.02875738
f 1 2 7
f 1 7 9
f 1 9 3
f 1 3 4
f 1 4 5
f 1 5 8
f 1 8 2
f 2 6 18
f 2 18 7
f 2 8 6
f 3 9 10
f 3 10 4
f 4 10 15
f 4 15 5
f 5 11 12
f 5 12 13
f 5 13 14
f 5 14 8
f 5 15 16
f 5 16 11
f 6 17 18
f 6 8 19
f 6 19 17
f 7 18 22
f 7 22 9
f 8 14 20
f 8 20 21
f 8 21 19
f 9 22 23
f 9 23 24
f 9 24 10
f 10 25 26
f 10 26 16
f 10 16 15
f 10 24 25
f 11 16 27
f 11 27 28
f 11 28 12
f 12 28 13
f 13 28 29
f 13 29 14
f 14 30 20
f 14 29 30
f 16 26 27
f 17 31 32
f 17 32 18
f 17 19 33
f 17 33 31
f 18 34 36
f 18 36 22
f 18 32 34
f 19 21 35
f 19 35 33
f 20 30 21
f 21 30 35
f 22 36 23
f 23 37 38
f 23 38 39
f 23 39 24
f 23 36 37
f 24 40 25
f 24 39 38
f 24 38 40
f 25 40 41
f 25 41 42
f 25 42 26
f 26 42 43
f 26 43 44
f 26 44 45
f 26 45 46
f 26 46 27
f 27 46 28
f 28 47 48
f 28 48 49
f 28 49 50
f 28 50 51
f 28 51 29
f 28 46 47
f 29 51 30
f 30 51 52
f 30 52 53
f 30 53 35
f 31 33 32
f 32 54 55
f 32 55 56
f 32 56 34
f 32 33 53
f 32 53 54
f 33 35 53
f 34 56 55
f 34 55 57
f 34 57 58
f 34 58 59
f 34 59 36
f 36 59 60
f 36 60 37
f 37 61 38
f 37 60 61
f 38 61 62
f 38 62 40
f 40 63 64
f 40 64 41
f 40 62 65
f 40 65 66
f 40 66 63
f 41 64 63
f 41 63 67
f 41 67 68
f 41 68 69
f 41 69 43
f 41 43 42
f 43 69 44
f 44 69 45
f 45 69 70
f 45 70 46
f 46 70 71
f 46 71 49
f 46 49 48
f 46 48 47
f 49 71 72
f 49 72 73
f 49 73 50
f 50 73 74
f 50 74 51
f 51 74 52
f 52 74 75
f 52 75 76
f 52 76 77
f 52 77 53
f 53 77 78
f 53 78 54
f 54 78 79
f 54 79 57
f 54 57 55
f 57 79 80
f 57 80 81
f 57 81 82
f 57 82 83
f 57 83 60
f 57 60 59
f 57 59 58
f 60 83 84
f 60 84 85
f 60 85 61
f 61 85 62
f 62 85 65
f 63 86 87
f 63 87 88
f 63 88 89
f 63 89 67
f 63 66 90
f 63 90 86
f 65 85 84
f 65 84 91
f 65 91 66
f 66 91 90
f 67 89 68
f 68 92 93
f 68 93 71
f 68 71 94
f 68 94 70
f 68 70 69
f 68 89 88
f 68 88 95
f 68 95 92
f 70 94 71
f 71 93 96
f 71 96 97
f 71 97 98
f 71 98 72
f 72 75 73
f 72 98 97
f 72 97 96
f 72 96 99
f 72 99 75
f 73 75 74
f 75 99 100
f 75 100 101
f 75 101 76
f 76 101 102
f 76 102 77
f 77 103 104
f 77 104 78
f 77 102 103
f 78 103 79
f 78 104 103
f 79 103 80
f 80 103 81
f 81 103 105
f 81 105 106
f 81 106 107
f 81 107 108
f 81 108 109
f 81 109 82
f 82 109 110
f 82 110 111
f 82 111 84
f 82 84 83
f 84 111 115
f 84 115 91
f 86 107 112
f 86 112 95
f 86 95 113
f 86 113 114
f 86 114 87
f 86 90 115
f 86 115 116
f 86 116 117
f 86 117 108
f 86 108 107
f 87 114 88
f 88 114 95
f 90 91 115
f 92 118 96
f 92 96 93
f 92 95 118
f 95 114 119
f 95 119 113
f 95 112 118
f 96 120 121
f 96 121 99
f 96 118 112
f 96 112 120
f 99 121 100
f 100 122 102
f 100 102 101
f 100 121 120
f 100 120 123
f 100 123 103
f 100 103 122
f 102 122 103
f 103 123 124
f 103 124 105
f 105 124 106
f 106 124 125
f 106 125 107
f 107 125 112
f 108 117 109
f 109 117 110
f 110 117 116
f 110 116 111
f 111 116 115
f 112 125 124
f 112 124 123
f 112 123 120
f 113 119 114

