# https://github.com/mikedh/trimesh
v 0.26261407 -0.54544584 0.10070618
v 0.26465317 -0.54544584 0.10417249
v 0.26261407 -0.54544584 0.10417249
v 0.25378499 -0.51370326 0.09443061
v 0.25378499 -0.50800045 0.08076931
v 0.31748055 -0.50538060 -0.10484765
v 0.34935986 -0.54541937 -0.10206101
v 0.34916016 -0.54543259 -0.02994839
v 0.35185092 -0.54543259 -0.02994839
v 0.29319004 -0.54533997 0.08813236
v 0.26401199 -0.53179083 0.11647445
v 0.35185092 -0.54543259 -0.02761486
v 0.26320269 -0.53179083 0.11647445
v 0.26098487 -0.53701731 0.10897547
v 0.25378499 -0.50800045 0.11853611
v 0.25378499 -0.51196993 0.10897547
v 0.25378499 -0.49414697 0.07984042
v 0.31738594 -0.44905372 -0.11289037
v 0.33583244 -0.51010427 -0.10876706
v 0.34713157 -0.53762596 -0.10371486
v 0.35157763 -0.54541937 -0.10206101
v 0.35204012 -0.54537969 -0.07383219
v 0.32255727 -0.53468855 0.06003947
v 0.29454596 -0.53762596 0.08994480
v 0.35091545 -0.54515473 0.00074989
v 0.26421171 -0.52312416 0.11658773
v 0.29561804 -0.52312416 0.09134944
v 0.35204012 -0.54537969 -0.07086430
v 0.35484651 -0.53787738 -0.07899766
v 0.35933463 -0.52312416 -0.07949608
v 0.35414227 -0.53763921 -0.03221395
v 0.25378499 -0.49467623 0.11853611
v 0.25378499 -0.44905372 0.08342000
v 0.31738594 -0.44434327 -0.11289037
v 0.32455432 -0.45430665 -0.11289037
v 0.32833823 -0.45577536 -0.11289037
v 0.34281162 -0.50964116 -0.10876706
v 0.35349062 -0.53762596 -0.10371486
v 0.33712527 -0.53486057 0.03326061
v 0.33567477 -0.52313738 0.04250408
v 0.32988331 -0.52313738 0.05097724
v 0.32304078 -0.52313738 0.06094570
v 0.35685408 -0.52312416 -0.02147522
v 0.35198756 -0.53763921 0.00229047
v 0.26421171 -0.42166432 0.11658773
v 0.28675741 -0.49410727 0.09857657
v 0.29561804 -0.42166432 0.09134944
v 0.35896676 -0.52312416 -0.08271317
v 0.35979711 -0.50863555 -0.07949608
v 0.36030162 -0.50863555 -0.06501917
v 0.26401199 -0.41392386 0.11647445
v 0.26320269 -0.41392386 0.11647445
v 0.25378499 -0.43639109 0.10874891
v 0.25378499 -0.44051934 0.08462075
v 0.31762768 -0.44133971 -0.11289037
v 0.34272753 -0.45154125 -0.11289037
v 0.34315848 -0.51002487 -0.10867642
v 0.34289570 -0.45148833 -0.11289037
v 0.35492009 -0.52312416 -0.10496093
v 0.35767392 -0.52312416 -0.09399564
v 0.33575886 -0.50862233 0.04259470
v 0.35289149 -0.52312416 0.00355918
v 0.32996740 -0.50862233 0.05097724
v 0.32304078 -0.42166432 0.06094570
v 0.35728501 -0.51294906 -0.02147522
v 0.32255727 -0.41274623 0.06003947
v 0.29460902 -0.41151570 0.08996747
v 0.35988119 -0.49414697 -0.07949608
v 0.36115300 -0.45066796 -0.06501917
v 0.35787362 -0.50863555 -0.09399564
v 0.35745320 -0.50864880 -0.02152051
v 0.26629287 -0.41158185 0.10897547
v 0.26107948 -0.41158185 0.10897547
v 0.25378499 -0.43415495 0.09590321
v 0.25378499 -0.43460481 0.09375093
v 0.26065908 -0.41115844 0.09810080
v 0.34720515 -0.41122461 -0.10373753
v 0.32181101 -0.43951375 -0.11289037
v 0.34231761 -0.43632492 -0.11289037
v 0.35492009 -0.42166432 -0.10498358
v 0.35492009 -0.43617938 -0.10514215
v 0.35492009 -0.49414697 -0.10527808
v 0.35492009 -0.50863555 -0.10527808
v 0.35812588 -0.46515656 -0.09399564
v 0.33574835 -0.45065473 0.04264000
v 0.35290202 -0.51294906 0.00358183
v 0.35752678 -0.49416020 -0.02152051
v 0.32996740 -0.47963192 0.05097724
v 0.33574835 -0.43616615 0.04259470
v 0.33564324 -0.42166432 0.04250408
v 0.32566848 -0.41084088 0.05097724
v 0.33712527 -0.41266684 0.03326061
v 0.28534899 -0.41045717 0.09119086
v 0.35996528 -0.46515656 -0.07951873
v 0.35999681 -0.45066796 -0.07951873
v 0.35956588 -0.43617938 -0.07951873
v 0.35911390 -0.43055596 -0.07951873
v 0.35839916 -0.42166432 -0.07951873
v 0.35521440 -0.42116152 -0.02031978
v 0.35665438 -0.43362567 -0.02131662
v 0.35693816 -0.43616615 -0.02152051
v 0.35742167 -0.45065473 -0.02152051
v 0.35752678 -0.46514334 -0.02152051
v 0.28534899 -0.41045717 0.08385045
v 0.35348009 -0.41122461 -0.10373753
v 0.32891632 -0.43689390 -0.11289037
v 0.32191612 -0.43947405 -0.11289037
v 0.31326569 -0.41027193 0.05022962
v 0.35681204 -0.42166432 -0.09399564
v 0.35737961 -0.43055596 -0.09399564
v 0.35664385 -0.43055596 -0.09823222
v 0.35805230 -0.45066796 -0.09399564
v 0.35290202 -0.47674743 0.00358183
v 0.35290202 -0.42166432 0.00355918
v 0.35213472 -0.41189941 0.00244906
v 0.33007251 -0.41045717 0.03745188
v 0.35772648 -0.43617938 -0.09399564
v 0.35448914 -0.41143631 -0.06796440
v 0.35411074 -0.41111874 -0.02437511
v 0.35411074 -0.41111874 -0.03216863
f 1 2 3
f 1 3 4
f 1 4 5
f 1 5 6
f 1 6 7
f 1 7 8
f 1 8 9
f 1 9 2
f 2 10 11
f 2 11 13
f 2 13 3
f 2 9 12
f 2 12 10
f 3 13 14
f 3 14 15
f 3 15 16
f 3 16 4
f 4 16 15
f 4 15 32
f 4 32 53
f 4 53 74
f 4 74 75
f 4 75 54
f 4 54 33
f 4 33 17
f 4 17 5
f 5 17 18
f 5 18 6
f 6 18 19
f 6 19 7
f 7 19 20
f 7 20 38
f 7 38 21
f 7 21 9
f 7 9 8
f 9 21 22
f 9 22 28
f 9 28 12
f 10 23 24
f 10 24 11
f 10 12 25
f 10 25 23
f 11 26 15
f 11 15 13
f 11 24 27
f 11 27 26
f 12 28 29
f 12 29 30
f 12 30 31
f 12 31 25
f 13 15 14
f 15 26 45
f 15 45 32
f 17 33 34
f 17 34 18
f 18 34 55
f 18 55 78
f 18 78 107
f 18 107 106
f 18 106 79
f 18 79 58
f 18 58 56
f 18 56 36
f 18 36 35
f 18 35 19
f 19 35 36
f 19 36 37
f 19 37 38
f 19 38 20
f 21 38 30
f 21 30 29
f 21 29 22
f 22 29 28
f 23 39 40
f 23 40 41
f 23 41 42
f 23 42 27
f 23 27 24
f 23 25 39
f 25 31 43
f 25 43 44
f 25 44 40
f 25 40 39
f 26 27 46
f 26 46 45
f 27 47 46
f 27 42 64
f 27 64 47
f 30 38 48
f 30 48 49
f 30 49 50
f 30 50 43
f 30 43 31
f 32 45 51
f 32 51 52
f 32 52 53
f 33 54 34
f 34 54 55
f 36 56 37
f 37 57 38
f 37 56 58
f 37 58 57
f 38 57 59
f 38 59 60
f 38 60 48
f 40 61 41
f 40 44 62
f 40 62 61
f 41 61 42
f 42 61 63
f 42 63 88
f 42 88 64
f 43 50 65
f 43 65 62
f 43 62 44
f 45 46 47
f 45 47 51
f 47 64 66
f 47 66 67
f 47 67 51
f 48 60 49
f 49 68 69
f 49 69 50
f 49 60 70
f 49 70 68
f 50 69 71
f 50 71 65
f 51 67 72
f 51 72 73
f 51 73 52
f 52 73 53
f 53 73 74
f 54 75 76
f 54 76 55
f 55 77 78
f 55 76 77
f 57 58 59
f 58 79 80
f 58 80 81
f 58 81 82
f 58 82 83
f 58 83 59
f 59 83 84
f 59 84 70
f 59 70 60
f 61 85 63
f 61 62 86
f 61 86 85
f 62 65 71
f 62 71 87
f 62 87 86
f 63 85 88
f 64 88 85
f 64 85 89
f 64 89 90
f 64 90 66
f 66 91 67
f 66 90 92
f 66 92 91
f 67 93 72
f 67 91 93
f 68 70 84
f 68 84 94
f 68 94 69
f 69 94 95
f 69 95 96
f 69 96 97
f 69 97 98
f 69 98 99
f 69 99 100
f 69 100 101
f 69 101 102
f 69 102 103
f 69 103 87
f 69 87 71
f 72 93 73
f 73 93 76
f 73 76 74
f 74 76 75
f 76 93 104
f 76 104 77
f 77 105 79
f 77 79 106
f 77 106 107
f 77 107 78
f 77 104 108
f 77 108 105
f 79 105 80
f 80 105 109
f 80 109 110
f 80 110 111
f 80 111 112
f 80 112 84
f 80 84 81
f 81 84 82
f 82 84 83
f 84 112 95
f 84 95 94
f 85 86 113
f 85 113 114
f 85 114 89
f 86 87 103
f 86 103 113
f 89 114 90
f 90 114 115
f 90 115 92
f 91 92 115
f 91 115 116
f 91 116 93
f 93 108 104
f 93 116 108
f 95 112 117
f 95 117 96
f 96 117 110
f 96 110 109
f 96 109 97
f 97 109 98
f 98 118 119
f 98 119 99
f 98 109 105
f 98 105 118
f 99 119 115
f 99 115 100
f 100 115 101
f 101 115 114
f 101 114 102
f 102 114 103
f 103 114 113
f 105 108 116
f 105 116 120
f 105 120 118
f 110 117 111
f 111 117 112
f 115 119 116
f 116 119 120
f 118 120 119

