# https://github.com/mikedh/trimesh
v 0.74546682 -0.21859722 0.62872713
v 0.74508619 -0.23307653 0.62802593
v 0.74546682 -0.21859722 0.62592239
v 0.74546682 -0.21493787 0.62851678
v 0.74380592 -0.21859722 0.64310148
v 0.74373672 -0.24156495 0.62564188
v 0.74366751 -0.24162028 0.61652647
v 0.74477478 -0.23353494 0.61575516
v 0.74546682 -0.21858931 0.61898066
v 0.74359830 -0.22412180 0.64310148
v 0.74543221 -0.20411000 0.62795582
v 0.74110696 -0.20411000 0.64317159
v 0.74294087 -0.21493787 0.64317159
v 0.74446336 -0.19461783 0.62641320
v 0.74010350 -0.23859322 0.64310148
v 0.73245644 -0.24534285 0.64310148
v 0.73484399 -0.24415732 0.61652647
v 0.52882346 -0.24870186 0.03664443
v 0.74256024 -0.24082202 0.60895364
v 0.74269866 -0.19798474 0.60860308
v 0.74508619 -0.20331964 0.61638622
v 0.74429035 -0.19470477 0.61652647
v 0.73384054 -0.19083993 0.64317159
v 0.72179902 -0.21493787 0.64317159
v 0.71892706 -0.24679711 0.64310148
v 0.72131460 -0.24656000 0.64310148
v 0.73484399 -0.19136156 0.61652647
v 0.54619369 -0.25242444 0.18073846
v 0.53321792 -0.24870186 0.05108890
v 0.52930789 -0.21858931 0.03664443
v 0.52256050 -0.24870186 0.02030677
v 0.74269866 -0.19622225 0.60860308
v 0.51224909 -0.18118969 0.02212985
v 0.51480964 -0.18004367 0.03664443
v 0.50290654 -0.17561768 0.03664443
v 0.51076120 -0.18196424 0.01329489
v 0.72335612 -0.18888775 0.64317159
v 0.68851186 -0.18137147 0.59289646
v 0.68851186 -0.18137147 0.59885652
v 0.72179902 -0.18866645 0.64317159
v 0.68484404 -0.22672998 0.64310148
v 0.68719699 -0.23723380 0.64310148
v 0.69363297 -0.24068766 0.64310148
v 0.69847725 -0.24248967 0.64310148
v 0.68366758 -0.24078250 0.63952542
v 0.67830427 -0.24418893 0.60201187
v 0.69134923 -0.24648887 0.60201187
v 0.50681657 -0.25242444 0.18073846
v 0.51550168 -0.25242444 0.18459500
v 0.51757780 -0.25242444 0.18543641
v 0.53193764 -0.25242444 0.18620772
v 0.54325251 -0.25242444 0.18221095
v 0.54501722 -0.25242444 0.18150977
v 0.54612448 -0.25242444 0.18094882
v 0.50290654 -0.17400536 0.05108890
v 0.45726644 -0.24870186 -0.03817228
v 0.47304498 -0.24870186 -0.03712049
v 0.47463666 -0.24870186 -0.03691013
v 0.48643598 -0.24870186 -0.03172134
v 0.49370240 -0.24870186 -0.02695326
v 0.49422143 -0.24870186 -0.02639232
v 0.50055360 -0.24870186 -0.01902984
v 0.50764702 -0.24870186 -0.00942358
v 0.51224909 -0.24870186 -0.00276231
v 0.51737018 -0.24870186 0.00761527
v 0.52564007 -0.20411000 0.02682781
v 0.52930789 -0.20411000 0.03664443
v 0.52280272 -0.20411000 0.01960558
v 0.52536326 -0.19521060 0.02759912
v 0.52207607 -0.18525212 0.03664443
v 0.50290654 -0.17766470 0.02212985
v 0.48837368 -0.17355485 0.02212985
v 0.51176466 -0.18435901 0.01154192
v 0.51183386 -0.19355875 -0.00416468
v 0.50788923 -0.18388480 0.00354838
v 0.49823525 -0.18141889 -0.00213123
v 0.50301035 -0.18036772 0.00810610
v 0.72044954 -0.18846886 0.64310148
v 0.48837368 -0.17225077 0.03664443
v 0.48837368 -0.17168961 0.05108890
v 0.68162606 -0.18137147 0.59885652
v 0.69134923 -0.19395393 0.64310148
v 0.69114162 -0.19400925 0.64310148
v 0.68608972 -0.20378595 0.64310148
v 0.68522467 -0.21858931 0.64310148
v 0.68301014 -0.19551093 0.64085765
v 0.65463647 -0.19513156 0.60993531
v 0.65463647 -0.19745521 0.60993531
v 0.39197241 -0.23898839 -0.02148401
v 0.42141873 -0.24870186 0.02388283
v 0.45155710 -0.24870186 0.08839208
v 0.42141873 -0.24870186 -0.02043222
v 0.42574398 -0.24870186 -0.02534053
v 0.40768174 -0.24079040 -0.05815610
v 0.41013847 -0.24079040 -0.05815610
v 0.45217995 -0.24037152 -0.05773540
v 0.46608998 -0.22504652 -0.05717446
v 0.46795849 -0.21539628 -0.05983896
v 0.49861589 -0.20411000 -0.03179147
v 0.50442902 -0.20411000 -0.02141389
v 0.51242210 -0.20411000 -0.00465552
v 0.51782002 -0.20411000 0.00761527
v 0.51370238 -0.18907744 0.00810610
v 0.48837368 -0.17562559 0.00761527
v 0.47394463 -0.17200575 0.00761527
v 0.49854668 -0.19276840 -0.03144086
v 0.47394463 -0.17469296 -0.00696943
v 0.45460209 -0.18124501 -0.04791877
v 0.48837368 -0.17197414 0.06560348
v 0.47394463 -0.17168171 0.02212985
v 0.47394463 -0.17309645 0.05108890
v 0.47394463 -0.17462974 0.06560348
v 0.45249136 -0.18253329 0.07198429
v 0.67685098 -0.18386899 0.60299358
v 0.42141873 -0.18533905 0.00761527
v 0.39197241 -0.19658581 -0.02148401
v 0.39197241 -0.23793722 -0.03599859
v 0.40647068 -0.24141479 -0.05051317
v 0.40667826 -0.23310024 -0.05857683
v 0.45010381 -0.19817443 -0.07316151
v 0.39197241 -0.23315557 -0.05030281
v 0.39197241 -0.21859722 -0.05507087
v 0.45359862 -0.19817443 -0.07316151
v 0.45536336 -0.23309234 -0.05927802
v 0.45359862 -0.19396183 -0.07316151
v 0.45941177 -0.17263014 -0.00696943
v 0.44903117 -0.18124501 -0.04791877
v 0.47394463 -0.17217963 0.03664443
v 0.45941177 -0.17261433 0.00761527
v 0.45941177 -0.17394213 0.02212985
v 0.45941177 -0.17574414 0.03664443
v 0.45816612 -0.17991722 0.06651502
v 0.40321808 -0.19302131 -0.03599859
v 0.39197241 -0.19697309 -0.03599859
v 0.45010381 -0.19396183 -0.07316151
v 0.39197241 -0.20911295 -0.05268686
v 0.40636686 -0.19530544 -0.05892742
v 0.40574401 -0.20411000 -0.05913777
v 0.40425615 -0.19378796 -0.05051317
v 0.39197241 -0.20302721 -0.05107413
f 1 2 3
f 1 3 9
f 1 9 4
f 1 4 5
f 1 5 2
f 2 6 7
f 2 7 8
f 2 8 9
f 2 9 3
f 2 5 10
f 2 10 6
f 4 11 5
f 4 9 11
f 5 12 13
f 5 13 10
f 5 11 14
f 5 14 12
f 6 10 15
f 6 15 16
f 6 16 7
f 7 16 17
f 7 17 18
f 7 18 19
f 7 19 8
f 8 19 20
f 8 20 21
f 8 21 9
f 9 21 11
f 10 13 15
f 11 21 22
f 11 22 14
f 12 23 37
f 12 37 40
f 12 40 24
f 12 24 13
f 12 14 23
f 13 24 25
f 13 25 26
f 13 26 16
f 13 16 15
f 14 22 27
f 14 27 23
f 16 26 28
f 16 28 17
f 17 28 29
f 17 29 18
f 18 30 19
f 18 29 28
f 18 28 31
f 18 31 30
f 19 30 20
f 20 32 21
f 20 30 67
f 20 67 32
f 21 32 22
f 22 33 34
f 22 34 35
f 22 35 27
f 22 32 36
f 22 36 33
f 23 27 38
f 23 38 39
f 23 39 37
f 24 40 41
f 24 41 42
f 24 42 43
f 24 43 44
f 24 44 25
f 25 44 45
f 25 45 46
f 25 46 47
f 25 47 48
f 25 48 49
f 25 49 50
f 25 50 51
f 25 51 52
f 25 52 53
f 25 53 54
f 25 54 28
f 25 28 26
f 27 35 55
f 27 55 38
f 28 54 53
f 28 53 52
f 28 52 51
f 28 51 50
f 28 50 49
f 28 49 48
f 28 48 56
f 28 56 57
f 28 57 58
f 28 58 59
f 28 59 60
f 28 60 61
f 28 61 62
f 28 62 63
f 28 63 64
f 28 64 65
f 28 65 31
f 30 31 66
f 30 66 67
f 31 68 66
f 31 65 68
f 32 67 66
f 32 66 69
f 32 69 70
f 32 70 36
f 33 71 34
f 33 36 71
f 34 71 35
f 35 71 72
f 35 72 55
f 36 73 74
f 36 74 75
f 36 75 76
f 36 76 77
f 36 77 71
f 36 70 73
f 37 39 78
f 37 78 40
f 38 55 79
f 38 79 80
f 38 80 39
f 39 80 81
f 39 81 78
f 40 78 82
f 40 82 83
f 40 83 84
f 40 84 85
f 40 85 41
f 41 45 42
f 41 85 86
f 41 86 87
f 41 87 88
f 41 88 45
f 42 45 43
f 43 45 44
f 45 88 89
f 45 89 90
f 45 90 91
f 45 91 48
f 45 48 46
f 46 48 47
f 48 91 90
f 48 90 92
f 48 92 93
f 48 93 56
f 55 72 79
f 56 94 95
f 56 95 96
f 56 96 57
f 56 93 94
f 57 96 58
f 58 96 59
f 59 96 97
f 59 97 60
f 60 97 98
f 60 98 99
f 60 99 61
f 61 99 62
f 62 99 63
f 63 99 64
f 64 99 100
f 64 100 65
f 65 100 101
f 65 101 102
f 65 102 68
f 66 68 69
f 68 102 69
f 69 102 74
f 69 74 103
f 69 103 70
f 70 103 73
f 71 77 104
f 71 104 72
f 72 104 105
f 72 105 79
f 73 103 74
f 74 102 101
f 74 101 100
f 74 100 106
f 74 106 75
f 75 106 76
f 76 107 104
f 76 104 77
f 76 106 108
f 76 108 107
f 78 81 82
f 79 105 80
f 80 109 81
f 80 105 110
f 80 110 109
f 81 109 111
f 81 111 112
f 81 112 113
f 81 113 114
f 81 114 82
f 82 114 83
f 83 114 86
f 83 86 84
f 84 86 85
f 86 114 87
f 87 114 113
f 87 113 115
f 87 115 116
f 87 116 89
f 87 89 88
f 89 116 134
f 89 134 140
f 89 140 136
f 89 136 122
f 89 122 121
f 89 121 117
f 89 117 92
f 89 92 90
f 92 117 118
f 92 118 94
f 92 94 93
f 94 119 120
f 94 120 123
f 94 123 95
f 94 118 117
f 94 117 121
f 94 121 122
f 94 122 119
f 95 123 96
f 96 123 124
f 96 124 97
f 97 124 123
f 97 123 98
f 98 123 99
f 99 106 100
f 99 123 125
f 99 125 106
f 104 107 105
f 105 107 126
f 105 126 110
f 106 125 108
f 107 108 126
f 108 125 135
f 108 135 127
f 108 127 126
f 109 110 128
f 109 128 111
f 110 126 129
f 110 129 128
f 111 128 129
f 111 129 130
f 111 130 112
f 112 130 131
f 112 131 132
f 112 132 113
f 113 132 131
f 113 131 130
f 113 130 115
f 115 129 126
f 115 126 133
f 115 133 134
f 115 134 116
f 115 130 129
f 119 122 120
f 120 135 125
f 120 125 123
f 120 122 135
f 122 136 137
f 122 137 138
f 122 138 135
f 126 127 139
f 126 139 133
f 127 135 137
f 127 137 139
f 133 139 134
f 134 139 137
f 134 137 140
f 135 138 137
f 136 140 137

