# https://github.com/mikedh/trimesh
v 0.83423489 0.04447859 -0.23857869
v 0.83424768 0.04242466 -0.25472941
v 0.83424768 0.04242466 -0.25463238
v 0.83424768 0.04303031 -0.24161869
v 0.83423489 0.04750683 -0.23095292
v 0.83423489 0.09997423 -0.25496872
v 0.83424768 0.05693384 -0.25790520
v 0.85691931 0.01959442 -0.26133972
v 0.85508868 0.01743517 -0.25353929
v 0.85535752 0.01746149 -0.24363026
v 0.83423489 0.04833629 -0.22995038
v 0.83423489 0.11539188 -0.25496872
v 0.83424768 0.06166052 -0.25790520
v 0.85627923 0.12387093 -0.26162432
v 0.85627923 0.02796815 -0.26161784
v 0.85904438 0.01959442 -0.26133972
v 0.86452346 0.01739567 -0.25276957
v 0.86544517 0.01742199 -0.24270530
v 0.91421925 0.01754050 -0.22454306
v 0.93787658 0.01818565 -0.20952434
v 0.94267718 0.01969975 -0.20226071
v 0.89250775 0.04770432 -0.19555337
v 0.88563327 0.04859961 -0.19930482
v 0.88603012 0.10639936 -0.19555337
v 0.83423489 0.05402411 -0.22995038
v 0.83423489 0.11428593 -0.23896033
v 0.85723935 0.15175700 -0.24540895
v 0.85723935 0.15175700 -0.24933506
v 0.85691931 0.13968357 -0.26134620
v 0.85627923 0.12942708 -0.26162432
v 0.85951803 0.12387093 -0.26162432
v 0.85949243 0.02796815 -0.26161784
v 0.89149641 0.02796815 -0.25026646
v 0.89006264 0.01746149 -0.24894698
v 0.87992376 0.01740883 -0.24912808
v 0.87992376 0.01740883 -0.24171572
v 0.92448612 0.01746149 -0.22535159
v 0.94719614 0.01843581 -0.21004822
v 0.94608242 0.01969975 -0.20226071
v 0.93852947 0.03980459 -0.19555337
v 0.89373670 0.04746732 -0.19555337
v 0.89323744 0.04755949 -0.19555337
v 0.88603012 0.10916426 -0.19555337
v 0.83423489 0.10967774 -0.23040959
v 0.91741964 0.15054570 -0.21867658
v 0.92708484 0.15157266 -0.21603114
v 0.86544517 0.15190183 -0.24487211
v 0.89444078 0.11333795 -0.19555337
v 0.86544517 0.15190183 -0.24896639
v 0.85906997 0.13968357 -0.26134620
v 0.85950523 0.12942708 -0.26162432
v 0.89165004 0.11493106 -0.25026646
v 0.85960765 0.07142985 -0.26161784
v 0.85960765 0.05693384 -0.26161784
v 0.92969637 0.05694702 -0.23131511
v 0.92969637 0.04246417 -0.23128926
v 0.92241225 0.02795499 -0.23456853
v 0.89165004 0.10044823 -0.25026646
v 0.92033840 0.01810664 -0.23363713
v 0.94696571 0.01868597 -0.21852133
v 0.96260927 0.04853379 -0.19555337
v 0.95755263 0.04243782 -0.19555337
v 0.87993658 0.15188867 -0.24437408
v 0.94253637 0.13939391 -0.20224130
v 0.93792779 0.15150684 -0.21590826
v 0.93788939 0.12190916 -0.19555337
v 0.87993658 0.15188867 -0.24732998
v 0.88814240 0.15174384 -0.24716180
v 0.89149641 0.12942708 -0.25026646
v 0.89007543 0.14394943 -0.24892758
v 0.89156042 0.12387093 -0.25026646
v 0.92969637 0.11493106 -0.23132159
v 0.92967076 0.12944024 -0.23128926
v 0.93792779 0.05694702 -0.22590784
v 0.92969637 0.10043505 -0.23132159
v 0.93792779 0.08593903 -0.22592076
v 0.93792779 0.04246417 -0.22587551
v 0.94784903 0.02795499 -0.21912935
v 0.92967076 0.02795499 -0.23072005
v 0.92968358 0.03826413 -0.23112753
v 0.96501596 0.05694702 -0.19555337
v 0.94608242 0.13939391 -0.20224130
v 0.94528871 0.15124351 -0.21670382
v 0.93792779 0.15150684 -0.21835964
v 0.94034730 0.12175116 -0.19555337
v 0.91740684 0.15150684 -0.23224651
v 0.92021038 0.14393625 -0.23352069
v 0.93792779 0.11493106 -0.22591432
v 0.93792779 0.12944024 -0.22587551
v 0.94659447 0.14393625 -0.21825617
v 0.94784903 0.12944024 -0.21912935
v 0.95802631 0.11547088 -0.19555337
v 0.94528871 0.15124351 -0.21735062
f 1 2 3
f 1 3 4
f 1 4 5
f 1 5 11
f 1 11 25
f 1 25 44
f 1 44 26
f 1 26 12
f 1 12 6
f 1 6 2
f 2 6 7
f 2 7 8
f 2 8 9
f 2 9 3
f 3 9 10
f 3 10 4
f 4 10 5
f 5 10 11
f 6 12 13
f 6 13 7
f 7 13 30
f 7 30 14
f 7 14 15
f 7 15 8
f 8 15 32
f 8 32 16
f 8 16 9
f 9 16 17
f 9 17 10
f 10 17 18
f 10 18 19
f 10 19 20
f 10 20 21
f 10 21 22
f 10 22 11
f 11 22 23
f 11 23 24
f 11 24 43
f 11 43 25
f 12 26 27
f 12 27 28
f 12 28 29
f 12 29 13
f 13 29 30
f 14 30 51
f 14 51 31
f 14 31 32
f 14 32 15
f 16 32 33
f 16 33 34
f 16 34 17
f 17 35 36
f 17 36 18
f 17 34 35
f 18 36 37
f 18 37 19
f 19 37 20
f 20 37 38
f 20 38 39
f 20 39 21
f 21 39 40
f 21 40 41
f 21 41 42
f 21 42 22
f 22 42 41
f 22 41 40
f 22 40 62
f 22 62 61
f 22 61 81
f 22 81 92
f 22 92 85
f 22 85 66
f 22 66 48
f 22 48 43
f 22 43 24
f 22 24 23
f 25 43 44
f 26 44 27
f 27 45 46
f 27 46 47
f 27 47 49
f 27 49 28
f 27 44 43
f 27 43 48
f 27 48 45
f 28 49 50
f 28 50 29
f 29 50 51
f 29 51 30
f 31 51 52
f 31 52 53
f 31 53 54
f 31 54 32
f 32 54 33
f 33 55 56
f 33 56 57
f 33 57 34
f 33 54 58
f 33 58 55
f 34 59 37
f 34 37 35
f 34 57 59
f 35 37 36
f 37 59 60
f 37 60 38
f 38 60 61
f 38 61 39
f 39 61 62
f 39 62 40
f 45 48 46
f 46 63 47
f 46 48 64
f 46 64 65
f 46 65 63
f 47 63 67
f 47 67 49
f 48 66 64
f 49 67 68
f 49 68 50
f 50 69 51
f 50 68 70
f 50 70 69
f 51 69 71
f 51 71 52
f 52 72 75
f 52 75 58
f 52 58 54
f 52 54 53
f 52 71 73
f 52 73 72
f 55 74 56
f 55 58 75
f 55 75 76
f 55 76 74
f 56 74 77
f 56 77 78
f 56 78 79
f 56 79 80
f 56 80 57
f 57 80 79
f 57 79 59
f 59 79 60
f 60 79 78
f 60 78 81
f 60 81 61
f 63 65 84
f 63 84 67
f 64 82 65
f 64 66 82
f 65 83 93
f 65 93 84
f 65 82 83
f 66 85 82
f 67 84 68
f 68 84 86
f 68 86 87
f 68 87 70
f 69 73 71
f 69 70 73
f 70 87 73
f 72 88 76
f 72 76 75
f 72 73 89
f 72 89 88
f 73 87 90
f 73 90 89
f 74 78 77
f 74 76 78
f 76 88 91
f 76 91 78
f 78 91 81
f 81 91 90
f 81 90 92
f 82 85 92
f 82 92 83
f 83 92 93
f 84 93 86
f 86 93 87
f 87 93 90
f 88 89 91
f 89 90 91
f 90 93 92

