# https://github.com/mikedh/trimesh
v 0.02438747 -0.01700383 0.07595188
v 0.02438747 -0.03171759 0.07973775
v 0.01494289 -0.03171759 0.08218280
v 0.01142120 -0.01700383 0.08021100
v 0.00037582 0.00050185 0.08218280
v 0.00061596 0.01018533 0.08218280
v 0.00990045 0.01496689 0.08218280
v 0.01998534 0.01649121 0.08218280
v 0.05200086 0.01649121 0.08218280
v 0.09642242 0.00847648 0.08218280
v 0.09738287 0.00828393 0.08218280
v 0.09794318 0.00753781 0.08218280
v 0.09762300 -0.00215369 0.08218280
v 0.09730282 -0.00444018 0.08218280
v 0.09410131 -0.00679887 0.08218280
v 0.02646850 -0.03171759 0.08001380
v 0.22056267 -0.04975277 0.15048646
v 0.21279889 -0.04975277 0.14969773
v 0.05760361 -0.04975277 0.14969773
v 0.00029578 -0.03012106 0.09929815
v 0.00613862 -0.03012106 0.09200245
v 0.01334214 -0.03012106 0.08316870
v -0.01195014 -0.00848365 0.11609801
v -0.01195014 -0.00792206 0.11609801
v -0.01195014 -0.00792206 0.11641351
v -0.00098484 0.00777849 0.10903892
v -0.00050458 0.00748165 0.12355148
v 0.01790436 0.01649121 0.09519679
v 0.18382484 0.01649121 0.12950635
v 0.72760861 0.00617395 0.37732402
v 0.32069123 -0.04975277 0.18065522
v 0.31044625 -0.04975277 0.17671159
v 0.09682264 -0.03012106 0.09448693
v 0.22768610 -0.04975277 0.15249771
v 0.35790928 -0.06389690 0.21125779
v 0.34334221 -0.06449861 0.21125779
v 0.24193303 -0.06241269 0.21125779
v 0.05760361 -0.04975277 0.14977661
v -0.00074471 -0.03012106 0.11006426
v -0.01195014 -0.00848365 0.11641351
v 0.00141636 0.00683181 0.13147816
v 0.01942507 0.01649121 0.09957421
v 0.19206880 0.01649121 0.13467251
v 0.80572649 0.00910224 0.42803909
v 0.80572649 0.00735328 0.41936310
v 0.80572649 -0.00107864 0.41628708
v 0.80572649 -0.01558380 0.41396033
v 0.80028387 -0.05140545 0.40619138
v 0.80028387 -0.05195100 0.40619138
v 0.79284027 -0.05368392 0.40441675
v 0.79284027 -0.05768728 0.41352654
v 0.80572649 -0.05907521 0.42634332
v 0.80572649 -0.05933194 0.42803909
v 0.79284027 -0.05992563 0.42803909
v 0.47396557 -0.06546936 0.32507093
v 0.22776614 -0.06110498 0.21125779
v 0.06512726 -0.04975277 0.15699345
v 0.00077605 -0.02675952 0.11743885
v -0.00010440 -0.03012106 0.11156284
v 0.00141636 0.00402384 0.13147816
v 0.04687837 0.01649121 0.11909518
v 0.03487259 0.01649121 0.11294311
v 0.60522925 -0.02997665 0.44164461
v 0.60530927 -0.01559984 0.44164461
v 0.60755036 -0.00190499 0.44164461
v 0.60795056 0.00003651 0.44164461
v 0.60971143 0.00364676 0.44164461
v 0.61395347 0.00716875 0.44164461
v 0.61779534 0.00785069 0.44164461
v 0.19214885 0.01649121 0.13731474
v 0.80572649 0.00992058 0.44251222
v 0.80572649 -0.04614252 0.40981953
v 0.80572649 -0.05451829 0.41309274
v 0.80572649 -0.05467071 0.41332935
v 0.80572649 -0.05479106 0.41360540
v 0.80572649 -0.05972506 0.44081645
v 0.80572649 -0.05974913 0.44251222
v 0.79284027 -0.06008609 0.44251222
v 0.80572649 -0.05981331 0.45532899
v 0.80572649 -0.05979727 0.45702475
v 0.79284027 -0.05989354 0.45702475
v 0.64700950 -0.06014224 0.44164461
v 0.63252248 -0.06002992 0.44164461
v 0.61891587 -0.05898696 0.44164461
v 0.61803545 -0.05871419 0.44164461
v 0.60835076 -0.05491943 0.44164461
v 0.07241077 -0.04975277 0.16089765
v 0.60522925 -0.04454598 0.44164461
v 0.08297593 0.01649121 0.13668376
v 0.63340290 0.00934294 0.44164461
v 0.80572649 -0.04456203 0.47875414
v 0.80572649 -0.00132735 0.47441619
v 0.80572649 -0.00107864 0.47437673
v 0.80572649 0.00781058 0.46968381
v 0.19214885 0.01649121 0.13849783
v 0.80572649 0.00987243 0.45702475
v 0.80572649 -0.05645979 0.47212888
v 0.80572649 -0.05629132 0.47264156
v 0.11130963 0.01649121 0.14319075
v 0.64780990 0.00952745 0.44164461
v 0.18382484 0.01649121 0.14409778
v 0.16933777 0.01649121 0.14733156
v 0.16221435 0.01649121 0.14819916
v 0.15485079 0.01649121 0.14827803
f 1 2 3
f 1 3 4
f 1 4 5
f 1 5 6
f 1 6 7
f 1 7 8
f 1 8 9
f 1 9 10
f 1 10 11
f 1 11 12
f 1 12 13
f 1 13 14
f 1 14 15
f 1 15 2
f 2 15 16
f 2 16 17
f 2 17 18
f 2 18 19
f 2 19 3
f 3 20 21
f 3 21 22
f 3 22 5
f 3 5 4
f 3 19 20
f 5 22 21
f 5 21 20
f 5 20 23
f 5 23 24
f 5 24 6
f 6 24 25
f 6 25 26
f 6 26 27
f 6 27 7
f 7 28 8
f 7 27 28
f 8 28 42
f 8 42 62
f 8 62 61
f 8 61 89
f 8 89 99
f 8 99 104
f 8 104 103
f 8 103 102
f 8 102 101
f 8 101 95
f 8 95 70
f 8 70 43
f 8 43 29
f 8 29 9
f 9 29 10
f 10 29 11
f 11 29 30
f 11 30 12
f 12 31 13
f 12 30 31
f 13 31 14
f 14 31 32
f 14 32 15
f 15 32 33
f 15 33 16
f 16 33 17
f 17 34 35
f 17 35 36
f 17 36 18
f 17 33 34
f 18 36 19
f 19 36 37
f 19 37 38
f 19 38 39
f 19 39 20
f 20 39 23
f 23 39 40
f 23 40 25
f 23 25 24
f 25 40 60
f 25 60 41
f 25 41 27
f 25 27 26
f 27 41 42
f 27 42 28
f 29 43 44
f 29 44 45
f 29 45 30
f 30 45 46
f 30 46 47
f 30 47 48
f 30 48 31
f 31 35 32
f 31 48 49
f 31 49 35
f 32 35 34
f 32 34 33
f 35 49 50
f 35 50 51
f 35 51 52
f 35 52 53
f 35 53 54
f 35 54 36
f 36 54 55
f 36 55 37
f 37 55 56
f 37 56 38
f 38 56 57
f 38 57 58
f 38 58 59
f 38 59 39
f 39 59 40
f 40 59 58
f 40 58 57
f 40 57 60
f 41 61 62
f 41 62 42
f 41 60 88
f 41 88 63
f 41 63 64
f 41 64 65
f 41 65 66
f 41 66 67
f 41 67 68
f 41 68 69
f 41 69 61
f 43 70 71
f 43 71 44
f 44 71 96
f 44 96 94
f 44 94 93
f 44 93 92
f 44 92 91
f 44 91 98
f 44 98 97
f 44 97 80
f 44 80 79
f 44 79 77
f 44 77 76
f 44 76 53
f 44 53 52
f 44 52 75
f 44 75 74
f 44 74 73
f 44 73 72
f 44 72 47
f 44 47 46
f 44 46 45
f 47 72 48
f 48 72 49
f 49 72 73
f 49 73 50
f 50 73 74
f 50 74 51
f 51 74 75
f 51 75 52
f 53 76 54
f 54 76 77
f 54 77 78
f 54 78 55
f 55 78 79
f 55 79 80
f 55 80 81
f 55 81 82
f 55 82 83
f 55 83 84
f 55 84 56
f 56 84 57
f 57 84 85
f 57 85 86
f 57 86 87
f 57 87 60
f 60 87 88
f 61 69 90
f 61 90 89
f 63 88 91
f 63 91 64
f 64 91 65
f 65 91 66
f 66 91 67
f 67 91 92
f 67 92 93
f 67 93 68
f 68 93 94
f 68 94 69
f 69 94 90
f 70 95 71
f 71 95 96
f 77 79 78
f 80 97 81
f 81 97 83
f 81 83 82
f 83 97 98
f 83 98 84
f 84 98 91
f 84 91 85
f 85 91 86
f 86 91 88
f 86 88 87
f 89 90 100
f 89 100 99
f 90 94 96
f 90 96 100
f 95 101 96
f 96 101 102
f 96 102 103
f 96 103 104
f 96 104 99
f 96 99 100

