# https://github.com/mikedh/trimesh
v 0.74396670 -0.04737342 0.60774079
v 0.74376294 -0.05425610 0.60774079
v 0.74336901 -0.05333940 0.60570385
v 0.74336901 -0.04827508 0.60570385
v 0.69973713 -0.04889873 0.47559040
v 0.68767451 -0.04345120 0.44169151
v 0.73986433 -0.01558238 0.60774079
v 0.72769304 0.00701923 0.68612573
v 0.72769304 0.00187226 0.68954577
v 0.72769304 -0.00108819 0.69080314
v 0.72769304 -0.04394711 0.68934462
v 0.72769304 -0.05757721 0.68881651
v 0.72769304 -0.06720243 0.64385266
v 0.73985074 -0.05671312 0.60774079
v 0.68816354 -0.05516528 0.44169151
v 0.72769304 -0.06720243 0.67561404
v 0.71428561 -0.05328681 0.51896994
v 0.71428561 -0.04873342 0.51896994
v 0.69973713 -0.05327930 0.47559040
v 0.68827221 -0.05406825 0.44169151
v 0.68760659 -0.04321827 0.44169151
v 0.72951330 -0.00182456 0.58779878
v 0.73649549 -0.00108067 0.60774079
v 0.71954263 0.00701171 0.68871593
v 0.71413619 0.00641812 0.69663738
v 0.72769304 0.00743249 0.68122194
v 0.71629605 -0.00108819 0.69766845
v 0.71713826 -0.01557487 0.69852344
v 0.71769520 -0.04457076 0.69854859
v 0.71621454 -0.05906495 0.69749241
v 0.71330756 -0.06676663 0.69646134
v 0.71342982 -0.06720243 0.69585781
v 0.69073092 -0.06720243 0.64619140
v 0.64703112 -0.06015445 0.44169151
v 0.64791408 -0.06013943 0.44169151
v 0.66240823 -0.05978628 0.44169151
v 0.67600584 -0.05904992 0.44169151
v 0.67688880 -0.05898230 0.44169151
v 0.67130577 -0.00463471 0.44169151
v 0.72829074 0.00661348 0.59280315
v 0.73410470 0.00283402 0.60774079
v 0.72769304 0.00783072 0.67458297
v 0.72039843 0.00780818 0.67458297
v 0.71266911 0.00641812 0.69663738
v 0.71121562 -0.00108819 0.69766845
v 0.70974855 -0.01557487 0.69852344
v 0.71641830 -0.02837845 0.69859890
v 0.71632322 -0.03006906 0.69859890
v 0.70872975 -0.04457076 0.69854859
v 0.71072660 -0.05906495 0.69749241
v 0.71275062 -0.06676663 0.69646134
v 0.71285929 -0.06720243 0.69593323
v 0.68838088 -0.06720243 0.66009802
v 0.61891219 -0.05901235 0.44169151
v 0.63253697 -0.06003423 0.44169151
v 0.63341993 -0.06004926 0.44169151
v 0.66790976 0.00217281 0.44169151
v 0.69893567 0.00638806 0.52150984
v 0.72910578 0.00682388 0.60205743
v 0.73096679 0.00681636 0.60774079
v 0.66001744 0.00782322 0.44169151
v 0.64791408 0.00955891 0.44169151
v 0.72769304 0.00771802 0.65280521
v 0.70590427 0.00762786 0.66009802
v 0.71133788 0.00677880 0.68906797
v 0.63341993 0.00935603 0.44169151
v 0.69821571 0.00650830 0.66869846
v 0.69841947 -0.00733971 0.68232842
v 0.70250827 -0.01557487 0.69055168
v 0.70180190 -0.03006906 0.69160790
v 0.70902860 -0.03006906 0.69859890
v 0.70912369 -0.02837845 0.69859890
v 0.70148947 -0.04457076 0.69155759
v 0.70051142 -0.06720243 0.68637719
v 0.71232952 -0.06720243 0.69593323
v 0.69814779 -0.06720243 0.68318346
v 0.68810920 -0.05906495 0.66009802
v 0.60519233 -0.04456325 0.44169151
v 0.61054443 -0.05327179 0.45268100
v 0.60862908 -0.05492483 0.44257167
v 0.60837099 -0.05493234 0.44169151
v 0.61808357 -0.05871932 0.44169151
v 0.66683662 0.00308198 0.44169151
v 0.66930891 0.00590719 0.45044285
v 0.72769304 0.00747759 0.63107772
v 0.72769304 0.00766542 0.64558787
v 0.69730559 0.00684642 0.65984652
v 0.69733275 0.00683890 0.66009802
v 0.70617595 0.00701923 0.67395429
v 0.63341993 0.00933349 0.44257167
v 0.61779830 0.00786078 0.44169151
v 0.69689806 -0.00194478 0.67395429
v 0.68328687 0.00673372 0.62715469
v 0.65440724 0.00669614 0.55402563
v 0.62552761 0.00662852 0.48094684
v 0.66939042 0.00640310 0.59566996
v 0.64053796 0.00627537 0.52269177
v 0.69445294 -0.01557487 0.67458297
v 0.69797120 -0.01557487 0.68330918
v 0.61193000 0.00593725 0.44946212
v 0.61063952 -0.00372555 0.45245466
v 0.62594871 -0.00715185 0.49384753
v 0.69771311 -0.03006906 0.68434025
v 0.69788970 -0.04457076 0.68428994
v 0.68823146 -0.04457076 0.66009802
v 0.60523308 -0.02998640 0.44169151
v 0.61398119 0.00718453 0.44169151
v 0.69774027 -0.02837845 0.68421452
v 0.60535534 -0.01558238 0.44169151
v 0.60974298 0.00366055 0.44169151
v 0.60796347 0.00005391 0.44169151
v 0.60755595 -0.00189218 0.44169151
f 1 2 3
f 1 3 4
f 1 4 5
f 1 5 6
f 1 6 7
f 1 7 8
f 1 8 9
f 1 9 10
f 1 10 11
f 1 11 12
f 1 12 2
f 2 13 14
f 2 14 15
f 2 15 3
f 2 12 16
f 2 16 13
f 3 15 17
f 3 17 18
f 3 18 4
f 4 18 5
f 5 19 20
f 5 20 6
f 5 18 17
f 5 17 19
f 6 20 15
f 6 15 38
f 6 38 37
f 6 37 36
f 6 36 35
f 6 35 34
f 6 34 56
f 6 56 55
f 6 55 54
f 6 54 82
f 6 82 81
f 6 81 78
f 6 78 106
f 6 106 109
f 6 109 112
f 6 112 111
f 6 111 110
f 6 110 107
f 6 107 91
f 6 91 66
f 6 66 62
f 6 62 61
f 6 61 83
f 6 83 57
f 6 57 39
f 6 39 21
f 6 21 22
f 6 22 23
f 6 23 7
f 7 23 8
f 8 24 25
f 8 25 9
f 8 23 26
f 8 26 24
f 9 25 10
f 10 25 27
f 10 27 28
f 10 28 29
f 10 29 11
f 11 29 12
f 12 29 30
f 12 30 31
f 12 31 32
f 12 32 16
f 13 16 32
f 13 32 52
f 13 52 75
f 13 75 74
f 13 74 76
f 13 76 53
f 13 53 33
f 13 33 34
f 13 34 35
f 13 35 36
f 13 36 37
f 13 37 38
f 13 38 15
f 13 15 14
f 15 20 19
f 15 19 17
f 21 39 40
f 21 40 22
f 22 40 23
f 23 40 41
f 23 41 26
f 24 26 42
f 24 42 43
f 24 43 44
f 24 44 25
f 25 44 45
f 25 45 27
f 26 41 42
f 27 45 46
f 27 46 28
f 28 46 72
f 28 72 47
f 28 47 29
f 29 47 48
f 29 48 71
f 29 71 49
f 29 49 50
f 29 50 30
f 30 50 51
f 30 51 31
f 31 51 75
f 31 75 52
f 31 52 32
f 33 53 54
f 33 54 55
f 33 55 56
f 33 56 34
f 39 57 58
f 39 58 40
f 40 59 60
f 40 60 41
f 40 58 61
f 40 61 62
f 40 62 59
f 41 60 42
f 42 63 62
f 42 62 43
f 42 60 63
f 43 64 65
f 43 65 44
f 43 62 66
f 43 66 64
f 44 65 67
f 44 67 68
f 44 68 45
f 45 68 69
f 45 69 46
f 46 69 70
f 46 70 71
f 46 71 72
f 47 72 71
f 47 71 48
f 49 71 73
f 49 73 74
f 49 74 50
f 50 74 51
f 51 74 75
f 53 76 77
f 53 77 78
f 53 78 79
f 53 79 80
f 53 80 81
f 53 81 82
f 53 82 54
f 57 83 84
f 57 84 58
f 58 84 61
f 59 62 60
f 60 62 85
f 60 85 86
f 60 86 63
f 61 84 83
f 62 63 86
f 62 86 85
f 64 87 88
f 64 88 89
f 64 89 65
f 64 66 90
f 64 90 87
f 65 89 67
f 66 91 90
f 67 92 68
f 67 89 88
f 67 88 93
f 67 93 94
f 67 94 95
f 67 95 96
f 67 96 97
f 67 97 92
f 68 98 99
f 68 99 69
f 68 92 97
f 68 97 100
f 68 100 101
f 68 101 102
f 68 102 98
f 69 99 70
f 70 73 71
f 70 99 103
f 70 103 73
f 73 103 104
f 73 104 76
f 73 76 74
f 76 104 77
f 77 104 103
f 77 103 105
f 77 105 106
f 77 106 78
f 78 81 79
f 79 81 80
f 87 90 91
f 87 91 88
f 88 91 93
f 91 107 95
f 91 95 94
f 91 94 93
f 95 107 100
f 95 100 97
f 95 97 96
f 98 103 108
f 98 108 99
f 98 102 109
f 98 109 103
f 99 108 103
f 100 107 110
f 100 110 111
f 100 111 101
f 101 111 112
f 101 112 109
f 101 109 102
f 103 109 105
f 105 109 106

