# https://github.com/mikedh/trimesh
v 0.35921951 -0.33366628 0.00084290
v 0.35921951 -0.33366335 0.00976287
v 0.38647369 -0.33366335 0.00976287
v 0.38639073 -0.33371320 0.00976287
v 0.37448517 -0.33778836 0.00976287
v 0.37224510 -0.33812551 0.00976287
v 0.30097777 -0.33366628 0.00212724
v 0.30097777 -0.33366335 0.09257599
v -0.00728042 -0.33366628 0.09164353
v 0.39671992 -0.33366335 0.03603014
v 0.38680554 -0.33694400 0.03652275
v 0.40132450 -0.34023932 0.18056165
v 0.29035820 -0.35604744 0.18056165
v 0.16889675 -0.36361434 0.13596184
v 0.12583767 -0.36361434 0.10821671
v 0.11625513 -0.36361434 0.10278029
v 0.10899565 -0.36361434 0.09973660
v 0.09684123 -0.36361434 0.09507429
v 0.05685188 -0.36361434 0.09181947
v 0.00665775 -0.36361434 0.09181947
v 0.30097777 -0.33584459 0.00752848
v -0.00197066 -0.34847173 0.09181947
v -0.00470855 -0.34103969 0.09164353
v -0.00732191 -0.33462790 0.09164353
v 0.30097777 -0.33366335 0.18056165
v -0.00906422 -0.33366628 0.10944827
v -0.01246576 -0.34062046 0.11460320
v 0.40028743 -0.33366335 0.04998187
v 0.41128036 -0.33366335 0.18056165
v 0.12724808 -0.35604744 0.18056165
v 0.03470009 -0.36361434 0.13596184
v 0.00060126 -0.36361434 0.09996531
v -0.01246576 -0.34420600 0.11460320
v -0.00765376 -0.33366628 0.12283701
v -0.00711454 -0.33366628 0.12383984
v -0.00080911 -0.33366628 0.13284777
v 0.11306096 -0.33366628 0.18056165
v -0.01246576 -0.34062046 0.11745336
v 0.11430545 -0.33728702 0.18056165
v 0.08236376 -0.35604744 0.16507927
v 0.07784212 -0.35604744 0.16300322
v 0.07323754 -0.35604744 0.16080402
v 0.00989340 -0.36361434 0.12396300
v -0.00280032 -0.36361434 0.10900843
v -0.01246576 -0.34420600 0.11745336
v -0.00080911 -0.33462790 0.13284777
v 0.11339285 -0.33586805 0.18056165
v -0.00006243 -0.34104262 0.13235515
v 0.00026941 -0.34380142 0.13214403
v -0.00085060 -0.36361434 0.11840342
v -0.00524776 -0.34883234 0.12281941
f 1 2 3
f 1 3 4
f 1 4 5
f 1 5 6
f 1 6 7
f 1 7 2
f 2 8 25
f 2 25 29
f 2 29 28
f 2 28 10
f 2 10 3
f 2 7 9
f 2 9 8
f 3 10 4
f 4 10 5
f 5 10 11
f 5 11 12
f 5 12 6
f 6 12 13
f 6 13 14
f 6 14 15
f 6 15 16
f 6 16 17
f 6 17 18
f 6 18 19
f 6 19 20
f 6 20 21
f 6 21 7
f 7 21 20
f 7 20 22
f 7 22 23
f 7 23 24
f 7 24 9
f 8 9 26
f 8 26 25
f 9 24 27
f 9 27 26
f 10 28 11
f 11 28 12
f 12 28 29
f 12 29 25
f 12 25 37
f 12 37 47
f 12 47 39
f 12 39 30
f 12 30 13
f 13 30 31
f 13 31 14
f 14 31 43
f 14 43 50
f 14 50 44
f 14 44 32
f 14 32 20
f 14 20 19
f 14 19 18
f 14 18 17
f 14 17 16
f 14 16 15
f 20 32 22
f 22 32 24
f 22 24 23
f 24 32 33
f 24 33 27
f 25 26 34
f 25 34 35
f 25 35 36
f 25 36 37
f 26 27 38
f 26 38 34
f 27 33 45
f 27 45 38
f 30 39 40
f 30 40 31
f 31 40 41
f 31 41 42
f 31 42 43
f 32 44 33
f 33 44 45
f 34 38 35
f 35 38 36
f 36 38 45
f 36 45 46
f 36 46 37
f 37 46 47
f 39 47 40
f 40 47 46
f 40 46 48
f 40 48 49
f 40 49 41
f 41 49 42
f 42 49 43
f 43 49 50
f 44 50 45
f 45 50 51
f 45 51 49
f 45 49 48
f 45 48 46
f 49 51 50

