# https://github.com/mikedh/trimesh
v 1.30047591 -0.53765987 0.18205615
v 1.30047591 -0.53285788 0.18205615
v 1.31017877 -0.53285788 0.18240850
v 1.31498752 -0.53765987 0.18259643
v 1.31498752 -0.54866786 0.18569714
v 1.30047591 -0.54889633 0.18543875
v 1.28599273 -0.54836463 0.18616695
v 1.27145263 -0.54764391 0.18691864
v 1.25702633 -0.54671343 0.18767033
v 1.24501869 -0.54576217 0.18830457
v 1.23537270 -0.53765987 0.18879786
v 1.24260007 -0.53285788 0.18804617
v 1.31498752 -0.53285788 0.18259643
v 1.32469039 -0.53285788 0.18464009
v 1.32949919 -0.53765987 0.18567365
v 1.33846225 -0.54564794 0.18835155
v 1.32949919 -0.54711428 0.18722401
v 1.31498752 -0.55325176 0.19605636
v 1.37297716 -0.54874263 0.19995574
v 1.32949919 -0.55170025 0.19605636
v 1.30047591 -0.55348022 0.19605636
v 1.28599273 -0.55294853 0.19605636
v 1.27145263 -0.55222780 0.19605636
v 1.25702633 -0.55129524 0.19605636
v 1.24112046 -0.54908533 0.19459996
v 1.22800309 -0.54898564 0.19800605
v 1.21770266 -0.54728667 0.20105979
v 1.22800309 -0.53765987 0.19269725
v 1.23292564 -0.53285788 0.19008983
v 1.23537270 -0.53285788 0.18882135
v 1.32949919 -0.53285788 0.18567365
v 1.33931585 -0.53765987 0.18814013
v 1.39633804 -0.54560224 0.20289202
v 1.38748878 -0.54706443 0.20176450
v 1.37297716 -0.55332653 0.21054986
v 1.35849398 -0.55398286 0.21054986
v 1.38748878 -0.55147387 0.21054986
v 1.24251471 -0.55407632 0.21054986
v 1.22800309 -0.55356954 0.21054986
v 1.34398236 -0.55407632 0.21054986
v 1.21309307 -0.54996389 0.20984515
v 1.21613769 -0.53765987 0.19995574
v 1.17533437 -0.54664074 0.23089245
v 1.19169552 -0.54500821 0.21773789
v 1.22800309 -0.53285788 0.19272074
v 1.22407638 -0.53285788 0.19509326
v 1.39713477 -0.53285788 0.20268062
v 1.39713477 -0.53765987 0.20268062
v 1.40441906 -0.53765987 0.20540549
v 1.41144727 -0.54740922 0.21433180
v 1.40151672 -0.54851832 0.20991562
v 1.38748878 -0.55329122 0.22504337
v 1.37297716 -0.55407632 0.22504337
v 1.19900825 -0.55407632 0.23953687
v 1.21351991 -0.55402439 0.22504337
v 1.18452507 -0.55308353 0.23953687
v 1.19900825 -0.55181241 0.22504337
v 1.17029797 -0.54880494 0.23986574
v 1.18589088 -0.54784330 0.22565411
v 1.21613769 -0.53285788 0.19995574
v 1.19900825 -0.53765987 0.21233512
v 1.20560961 -0.53285788 0.20754311
v 1.16142027 -0.54661372 0.24489265
v 1.16716803 -0.53765987 0.23669455
v 1.17439536 -0.53765987 0.23018774
v 1.18438279 -0.53765987 0.22292924
v 1.40200044 -0.53285788 0.20451286
v 1.40441906 -0.53285788 0.20542898
v 1.41247159 -0.53285788 0.21266399
v 1.41247159 -0.53765987 0.21266399
v 1.41144727 -0.54740922 0.22043927
v 1.37297716 -0.55323722 0.23953687
v 1.28599273 -0.55405348 0.31202788
v 1.30047591 -0.55407425 0.29755787
v 1.31498752 -0.55407632 0.28304087
v 1.32949919 -0.55407632 0.26854737
v 1.35849398 -0.55407632 0.23953687
v 1.40200044 -0.54945089 0.22518431
v 1.17001341 -0.55407632 0.26854737
v 1.17001341 -0.55306483 0.25405387
v 1.15831877 -0.54848093 0.25405387
v 1.18105365 -0.53285788 0.22532525
v 1.14520140 -0.54774569 0.27127224
v 1.13225471 -0.54675912 0.28806780
v 1.13148647 -0.53765987 0.28696375
v 1.14366487 -0.53765987 0.26901717
v 1.16073735 -0.53765987 0.24395304
v 1.16503398 -0.53285788 0.23909056
v 1.16716803 -0.53285788 0.23669455
v 1.17439536 -0.53285788 0.23018774
v 1.41247159 -0.53285788 0.22102653
v 1.41247159 -0.53765987 0.22121445
v 1.39719169 -0.54715374 0.23450995
v 1.35849398 -0.55296514 0.25405387
v 1.19903673 -0.55301083 0.39903589
v 1.21351991 -0.55327668 0.38454238
v 1.22803153 -0.55350099 0.37002538
v 1.24248627 -0.55368585 0.35555537
v 1.25699789 -0.55383539 0.34103839
v 1.27148107 -0.55395377 0.32654488
v 1.18452507 -0.55407425 0.39903589
v 1.30047591 -0.55407632 0.28935976
v 1.38720426 -0.54925357 0.23941942
v 1.32949919 -0.55227143 0.28304087
v 1.34398236 -0.55264112 0.26854737
v 1.15553023 -0.55391223 0.28304087
v 1.17001341 -0.55407632 0.28935976
v 1.14099017 -0.55407425 0.31202788
v 1.14099017 -0.55317284 0.29755787
v 1.14062025 -0.54955473 0.28315832
v 1.12949465 -0.54858894 0.29755787
v 1.12525498 -0.53765779 0.29755787
v 1.13148647 -0.53285788 0.28696375
v 1.14124626 -0.53285788 0.27256421
v 1.16073735 -0.53285788 0.24395304
v 1.32230025 -0.54481299 0.30483985
v 1.40547187 -0.53285788 0.22551317
v 1.19331741 -0.53347474 0.42203287
v 1.32230025 -0.54498952 0.30483985
v 1.33726716 -0.54555655 0.29079267
v 1.38222479 -0.54684843 0.24858063
v 1.22282441 -0.54689827 0.39365662
v 1.23776288 -0.54719735 0.37958593
v 1.25275822 -0.54744243 0.36551526
v 1.19826845 -0.54850585 0.41296563
v 1.19291905 -0.54621288 0.42161005
v 1.18461043 -0.54935742 0.41432807
v 1.31498752 -0.55184357 0.29755787
v 1.25733933 -0.54990367 0.35597820
v 1.24257163 -0.54963574 0.37021330
v 1.22780389 -0.54930964 0.38447191
v 1.17001341 -0.55226311 0.39903589
v 1.15550179 -0.55347193 0.38454238
v 1.14099017 -0.55350724 0.37002538
v 1.17001341 -0.55407425 0.38454238
v 1.15550179 -0.55407425 0.37002538
v 1.14099017 -0.55407425 0.32654488
v 1.12775896 -0.54949035 0.31202788
v 1.12184048 -0.53765779 0.31202788
v 1.12531191 -0.53347474 0.29755787
v 1.13031982 -0.53285788 0.28900740
v 1.19337433 -0.53765779 0.42203287
v 1.16164792 -0.53285788 0.28935976
v 1.18842330 -0.53347474 0.42203287
v 1.35223406 -0.54605294 0.27672199
v 1.36722944 -0.54648080 0.26265131
v 1.20782907 -0.54654103 0.40772729
v 1.18953303 -0.54621288 0.42161005
v 1.17001341 -0.54767922 0.40939510
v 1.15658308 -0.54847679 0.39877750
v 1.14067717 -0.54960873 0.38498870
v 1.14099017 -0.55388317 0.35555537
v 1.13174255 -0.54743621 0.38045507
v 1.13037674 -0.54892124 0.37002538
v 1.12960850 -0.54929927 0.35555537
v 1.12895405 -0.54947373 0.34103839
v 1.14099017 -0.55405763 0.34103839
v 1.12835649 -0.54949035 0.32654488
v 1.12198276 -0.53347474 0.31202788
v 1.12420218 -0.53765779 0.34103839
v 1.12457210 -0.53347474 0.34521965
v 1.12343393 -0.53347474 0.33072614
v 1.13012066 -0.53285788 0.28935976
v 1.18842330 -0.53765779 0.42203287
v 1.18327310 -0.53347474 0.41989525
v 1.18116749 -0.53765779 0.41902613
v 1.16213164 -0.54554823 0.40671720
v 1.14531520 -0.54715997 0.39377407
v 1.13657978 -0.53765779 0.38928743
v 1.13071822 -0.53765779 0.38202892
v 1.12696224 -0.53765779 0.37002538
v 1.12548263 -0.53765779 0.35555537
v 1.12548263 -0.53347474 0.35555537
v 1.12588099 -0.53347474 0.35971315
v 1.12696224 -0.53347474 0.37002538
v 1.13071822 -0.53347474 0.38202892
v 1.13657978 -0.53347474 0.38928743
v 1.14383559 -0.53347474 0.39478415
v 1.15663996 -0.53347474 0.40345207
v 1.16179020 -0.53347474 0.40692864
v 1.17001341 -0.53347474 0.41240186
v 1.17322875 -0.53347474 0.41432807
v 1.18116749 -0.53347474 0.41900262
v 1.17001341 -0.53765779 0.41242535
v 1.16179020 -0.53765779 0.40692864
v 1.14383559 -0.53765779 0.39478415
f 1 2 3
f 1 3 4
f 1 4 5
f 1 5 6
f 1 6 7
f 1 7 8
f 1 8 9
f 1 9 10
f 1 10 11
f 1 11 12
f 1 12 2
f 2 12 30
f 2 30 29
f 2 29 45
f 2 45 46
f 2 46 60
f 2 60 62
f 2 62 82
f 2 82 90
f 2 90 89
f 2 89 88
f 2 88 115
f 2 115 114
f 2 114 113
f 2 113 141
f 2 141 163
f 2 163 143
f 2 143 117
f 2 117 91
f 2 91 69
f 2 69 68
f 2 68 67
f 2 67 47
f 2 47 31
f 2 31 14
f 2 14 13
f 2 13 3
f 3 13 4
f 4 13 14
f 4 14 15
f 4 15 16
f 4 16 17
f 4 17 5
f 5 18 6
f 5 17 19
f 5 19 20
f 5 20 18
f 6 21 22
f 6 22 23
f 6 23 7
f 6 18 21
f 7 23 24
f 7 24 8
f 8 24 25
f 8 25 9
f 9 25 10
f 10 25 26
f 10 26 27
f 10 27 11
f 11 27 28
f 11 28 29
f 11 29 30
f 11 30 12
f 14 31 15
f 15 31 32
f 15 32 16
f 16 32 33
f 16 33 34
f 16 34 17
f 17 34 19
f 18 20 19
f 18 19 35
f 18 35 36
f 18 36 21
f 19 34 37
f 19 37 35
f 21 38 39
f 21 39 22
f 21 36 40
f 21 40 38
f 22 39 23
f 23 39 24
f 24 39 26
f 24 26 25
f 26 39 41
f 26 41 27
f 27 42 28
f 27 41 43
f 27 43 44
f 27 44 42
f 28 45 29
f 28 42 46
f 28 46 45
f 31 47 32
f 32 47 48
f 32 48 33
f 33 48 49
f 33 49 50
f 33 50 51
f 33 51 34
f 34 51 37
f 35 37 52
f 35 52 53
f 35 53 36
f 36 53 40
f 37 51 50
f 37 50 52
f 38 40 53
f 38 53 77
f 38 77 76
f 38 76 75
f 38 75 102
f 38 102 107
f 38 107 79
f 38 79 54
f 38 54 55
f 38 55 39
f 39 55 56
f 39 56 57
f 39 57 41
f 41 57 58
f 41 58 59
f 41 59 43
f 42 60 46
f 42 44 61
f 42 61 62
f 42 62 60
f 43 59 58
f 43 58 63
f 43 63 64
f 43 64 65
f 43 65 44
f 44 65 66
f 44 66 61
f 47 67 49
f 47 49 48
f 49 67 68
f 49 68 69
f 49 69 70
f 49 70 50
f 50 70 92
f 50 92 71
f 50 71 52
f 52 72 73
f 52 73 74
f 52 74 75
f 52 75 76
f 52 76 77
f 52 77 53
f 52 71 78
f 52 78 72
f 54 79 56
f 54 56 55
f 56 79 80
f 56 80 58
f 56 58 57
f 58 80 81
f 58 81 63
f 61 66 82
f 61 82 62
f 63 81 83
f 63 83 84
f 63 84 85
f 63 85 86
f 63 86 87
f 63 87 64
f 64 87 88
f 64 88 89
f 64 89 90
f 64 90 65
f 65 90 82
f 65 82 66
f 69 91 92
f 69 92 70
f 71 92 93
f 71 93 78
f 72 78 94
f 72 94 95
f 72 95 96
f 72 96 97
f 72 97 98
f 72 98 99
f 72 99 100
f 72 100 73
f 73 100 101
f 73 101 74
f 74 101 75
f 75 101 102
f 78 93 103
f 78 103 104
f 78 104 105
f 78 105 94
f 79 106 80
f 79 107 137
f 79 137 108
f 79 108 106
f 80 106 109
f 80 109 110
f 80 110 81
f 81 110 83
f 83 110 84
f 84 110 111
f 84 111 112
f 84 112 85
f 85 113 114
f 85 114 86
f 85 112 113
f 86 114 87
f 87 115 88
f 87 114 115
f 91 116 92
f 91 117 118
f 91 118 116
f 92 119 120
f 92 120 121
f 92 121 93
f 92 116 119
f 93 121 122
f 93 122 123
f 93 123 124
f 93 124 103
f 94 105 95
f 95 125 126
f 95 126 127
f 95 127 101
f 95 101 96
f 95 105 104
f 95 104 128
f 95 128 129
f 95 129 130
f 95 130 131
f 95 131 125
f 96 101 97
f 97 101 98
f 98 101 99
f 99 101 100
f 101 127 132
f 101 132 133
f 101 133 134
f 101 134 135
f 101 135 107
f 101 107 102
f 103 124 131
f 103 131 130
f 103 130 129
f 103 129 104
f 104 129 128
f 106 108 109
f 107 135 136
f 107 136 137
f 108 137 138
f 108 138 109
f 109 138 111
f 109 111 110
f 111 138 139
f 111 139 112
f 112 139 140
f 112 140 113
f 113 140 141
f 116 118 142
f 116 142 119
f 117 143 118
f 118 143 163
f 118 163 144
f 118 144 164
f 118 164 142
f 119 142 126
f 119 126 120
f 120 145 146
f 120 146 121
f 120 126 145
f 121 146 147
f 121 147 122
f 122 147 125
f 122 125 123
f 123 125 124
f 124 125 131
f 125 147 126
f 126 147 145
f 126 142 164
f 126 164 148
f 126 148 127
f 127 148 149
f 127 149 132
f 132 149 150
f 132 150 151
f 132 151 133
f 133 151 134
f 134 152 136
f 134 136 135
f 134 151 153
f 134 153 154
f 134 154 155
f 134 155 156
f 134 156 152
f 136 152 157
f 136 157 137
f 137 157 138
f 138 157 152
f 138 152 158
f 138 158 139
f 139 159 140
f 139 158 156
f 139 156 155
f 139 155 154
f 139 154 160
f 139 160 161
f 139 161 162
f 139 162 159
f 140 159 163
f 140 163 141
f 144 165 166
f 144 166 164
f 144 163 165
f 145 147 146
f 148 164 166
f 148 166 167
f 148 167 149
f 149 167 168
f 149 168 150
f 150 168 151
f 151 168 153
f 152 156 158
f 153 168 169
f 153 169 170
f 153 170 171
f 153 171 154
f 154 171 172
f 154 172 160
f 159 162 163
f 160 172 173
f 160 173 161
f 161 173 163
f 161 163 162
f 163 173 174
f 163 174 175
f 163 175 176
f 163 176 177
f 163 177 178
f 163 178 179
f 163 179 180
f 163 180 181
f 163 181 182
f 163 182 183
f 163 183 165
f 165 183 166
f 166 184 167
f 166 183 182
f 166 182 184
f 167 184 185
f 167 185 186
f 167 186 168
f 168 186 169
f 169 177 176
f 169 176 170
f 169 186 178
f 169 178 177
f 170 176 175
f 170 175 171
f 171 175 174
f 171 174 172
f 172 174 173
f 178 186 179
f 179 186 185
f 179 185 180
f 180 185 184
f 180 184 181
f 181 184 182

