# https://github.com/mikedh/trimesh
v 0.11097661 -0.49412227 -0.02270944
v 0.11097661 -0.49403661 -0.02270944
v 0.11127332 -0.50659520 -0.02270944
v 0.02372218 -0.50597095 0.03268189
v 0.10234423 -0.47876064 -0.01620655
v 0.11134079 -0.47876064 -0.01832092
v 0.12530096 -0.49084186 -0.02270944
v 0.02372218 -0.49726805 0.03268189
v 0.12530096 -0.51007147 -0.02270944
v 0.01459078 -0.54543385 0.07171153
v 0.00227614 -0.53194498 0.07233846
v -0.00143308 -0.50905553 0.05941873
v -0.00221537 -0.45052213 0.05941873
v -0.00225587 -0.44536896 0.05941873
v 0.05993769 -0.44295760 0.01418124
v 0.06739659 -0.44239454 0.00963291
v 0.12198288 -0.47499060 -0.01401845
v 0.06801707 -0.44224766 0.00963291
v 0.08016984 -0.44046056 0.00963291
v 0.08228747 -0.44039936 0.00963291
v 0.09466953 -0.44022799 0.00963291
v 0.09673318 -0.44053401 0.00963291
v 0.13552493 -0.49399987 -0.01401845
v -0.00117679 -0.43644572 0.05941873
v 0.02372218 -0.44169684 0.04047553
v 0.13552493 -0.50684000 -0.01401845
v 0.12530096 -0.51014490 -0.02152935
v 0.03189599 -0.54495648 0.08705294
v 0.01808420 -0.54543385 0.07171153
v 0.01459078 -0.54543385 0.07386276
v 0.00227614 -0.53194498 0.07321125
v 0.00214125 -0.52311968 0.07343252
v 0.00201989 -0.42039863 0.07387506
v 0.00206034 -0.42039863 0.07167465
v 0.00980251 -0.42039863 0.06692963
v 0.10486649 -0.44207629 0.00963291
v 0.10585114 -0.44240678 0.00963291
v 0.02222502 -0.42039863 0.06749510
v 0.02393802 -0.42039863 0.06770407
v 0.03033137 -0.42039863 0.07241222
v 0.03810051 -0.42039863 0.08042712
v 0.13552493 -0.49661931 -0.00959304
v 0.00201989 -0.42039863 0.07268266
v 0.13552493 -0.50543238 -0.00988807
v 0.03189599 -0.54495648 0.08831910
v 0.02472031 -0.54521351 0.08045170
v 0.03135647 -0.54495648 0.08831910
v 0.03078994 -0.53360968 0.10236977
v 0.03039879 -0.52313191 0.10268938
v 0.03020996 -0.42566198 0.10286147
v 0.02525984 -0.42039863 0.09527682
v 0.04078463 -0.42039863 0.09449008
v 0.10427303 -0.44320240 0.01517695
v 0.06182604 -0.50289862 0.08893374
v 0.07574575 -0.44285968 0.05932039
v 0.06182604 -0.50009558 0.08893374
v 0.03317735 -0.53360968 0.10236977
v 0.03480940 -0.53726954 0.09533828
v 0.03517357 -0.53811412 0.09369105
v 0.03398661 -0.52313191 0.10268938
v 0.02670305 -0.42039863 0.09532599
v 0.03405408 -0.42566198 0.10286147
v 0.04016415 -0.42039863 0.09532599
v 0.04986209 -0.43937116 0.09039658
v 0.05060393 -0.45066902 0.09156440
f 1 2 7
f 1 7 9
f 1 9 3
f 1 3 4
f 1 4 8
f 1 8 2
f 2 5 6
f 2 6 7
f 2 8 5
f 3 9 10
f 3 10 4
f 4 10 11
f 4 11 12
f 4 12 13
f 4 13 14
f 4 14 8
f 5 8 15
f 5 15 16
f 5 16 6
f 6 17 7
f 6 16 18
f 6 18 19
f 6 19 20
f 6 20 21
f 6 21 22
f 6 22 17
f 7 23 26
f 7 26 9
f 7 17 23
f 8 14 24
f 8 24 25
f 8 25 15
f 9 26 27
f 9 27 28
f 9 28 29
f 9 29 10
f 10 29 30
f 10 30 31
f 10 31 11
f 11 31 12
f 12 31 32
f 12 32 13
f 13 32 14
f 14 32 33
f 14 33 24
f 15 25 24
f 15 24 16
f 16 24 34
f 16 34 35
f 16 35 18
f 17 22 36
f 17 36 37
f 17 37 23
f 18 35 19
f 19 35 20
f 20 35 21
f 21 35 38
f 21 38 39
f 21 39 40
f 21 40 22
f 22 40 41
f 22 41 36
f 23 37 42
f 23 42 44
f 23 44 26
f 24 33 43
f 24 43 34
f 26 44 45
f 26 45 28
f 26 28 27
f 28 45 46
f 28 46 29
f 29 46 30
f 30 46 45
f 30 45 47
f 30 47 48
f 30 48 31
f 31 48 49
f 31 49 32
f 32 49 33
f 33 49 50
f 33 50 51
f 33 51 61
f 33 61 63
f 33 63 52
f 33 52 41
f 33 41 40
f 33 40 39
f 33 39 38
f 33 38 35
f 33 35 34
f 33 34 43
f 36 41 52
f 36 52 37
f 37 53 42
f 37 52 53
f 42 54 44
f 42 53 55
f 42 55 56
f 42 56 54
f 44 54 57
f 44 57 58
f 44 58 59
f 44 59 45
f 45 59 58
f 45 58 57
f 45 57 48
f 45 48 47
f 48 57 60
f 48 60 49
f 49 60 62
f 49 62 50
f 50 61 51
f 50 62 63
f 50 63 61
f 52 55 53
f 52 63 55
f 54 62 60
f 54 60 57
f 54 56 62
f 55 63 64
f 55 64 56
f 56 64 65
f 56 65 62
f 62 65 64
f 62 64 63

