# https://github.com/mikedh/trimesh
v 0.06326562 -0.34913665 -0.01225629
v 0.06326562 -0.33446255 -0.01105424
v 0.63316823 -0.36682252 -0.00244639
v 0.36878312 -0.36341854 -0.00715269
v 0.36878312 -0.37821844 -0.00708140
v 0.05696447 -0.37811483 -0.01068752
v 0.03884874 -0.37811483 -0.00958734
v 0.03884874 -0.36364054 -0.00911874
v 0.03884874 -0.35999977 -0.00892520
v 0.03884874 -0.34913665 -0.00831400
v 0.06326562 -0.33368556 -0.01094219
v 0.00217963 -0.34067111 -0.00019510
v 0.86534753 -0.35820158 0.01163179
v 0.86631018 -0.35856418 0.01163179
v 0.87838736 -0.36425474 0.01163179
v 0.63316823 -0.37524365 -0.00244639
v 0.05696447 -0.38268061 -0.01000500
v 0.05687699 -0.39261872 -0.00752961
v 0.00988100 -0.40205364 -0.00243619
v 0.00007924 -0.40149126 -0.00175369
v -0.00018332 -0.36824330 -0.00171294
v 0.06335315 -0.33366336 0.01622604
v 0.09065807 -0.33366336 0.01622604
v 0.05328883 -0.33368556 -0.00889465
v 0.00060433 -0.33368556 0.00805623
v 0.00988100 -0.33368556 0.00207655
v -0.01348567 -0.40925380 0.01120393
v 0.73407390 -0.35352481 0.03796471
v 0.73722445 -0.35352481 0.05133999
v 0.73153592 -0.35352481 0.05914309
v 0.86534753 -0.36254535 0.03647742
v 0.87567437 -0.36812490 0.04768293
v 0.87724967 -0.36672631 0.03647742
v 0.72322193 -0.35352481 0.02040263
v 0.87838736 -0.36612692 0.01163179
v 0.87829984 -0.37687163 0.01163179
v 0.86534753 -0.38165939 0.01163179
v 0.05687699 -0.40077345 -0.00240563
v 0.03884874 -0.39261872 -0.00653131
v -0.00613439 -0.40925380 0.01068442
v 0.06335315 -0.33366336 0.05622965
v -0.00692200 -0.33367817 0.05625003
v -0.00709704 -0.33367817 0.06645722
v -0.00735960 -0.33367817 0.09162884
v 0.09144567 -0.33366336 0.05098345
v -0.00368392 -0.33368556 0.02200196
v 0.00655540 -0.40926119 0.05949963
v 0.00139198 -0.40926119 0.06775095
v -0.01567358 -0.40925380 0.02244000
v 0.09039550 -0.33366336 0.05622965
v 0.72033391 -0.35352481 0.06004972
v 0.86534753 -0.36674111 0.04965917
v 0.05845225 -0.33367817 0.09162884
v 0.87567437 -0.37280907 0.04768293
v 0.87724967 -0.37368967 0.03647742
v 0.86534753 -0.37653124 0.03647742
v 0.69127869 -0.39325512 0.05098345
v 0.04655011 -0.40926119 0.07947597
v 0.03946135 -0.40926119 0.07239613
v 0.02510874 -0.40926119 0.06071185
v 0.01933271 -0.40926119 0.05954037
v -0.00604687 -0.33368556 0.03648762
v -0.00613439 -0.33368556 0.03744517
v -0.00683452 -0.33368556 0.05194102
v -0.00735960 -0.33463276 0.09162884
v -0.00482165 -0.34104851 0.09181220
v -0.00622187 -0.33463276 0.03648762
v 0.00112946 -0.40926119 0.07762197
v 0.00112946 -0.40926119 0.07785627
v -0.01296059 -0.40925380 0.04410735
v 0.72033391 -0.36364794 0.06017196
v 0.09652161 -0.37843303 0.09181220
v 0.86534753 -0.37377106 0.04965917
v 0.72033391 -0.37810743 0.06033495
v 0.05801468 -0.34104851 0.09181220
v 0.69127869 -0.39131634 0.05926533
v 0.05145101 -0.40926119 0.09181220
v 0.00042933 -0.40272704 0.09181220
v 0.01416929 -0.40926119 0.09181220
v 0.00988100 -0.40729280 0.09181220
v 0.09897204 -0.39220432 0.09181220
v 0.72969810 -0.38646935 0.05900048
v 0.72033391 -0.38762375 0.05933664
v 0.09407114 -0.40125445 0.09181220
v 0.08234405 -0.40495442 0.09181220
f 1 2 3
f 1 3 4
f 1 4 5
f 1 5 6
f 1 6 7
f 1 7 8
f 1 8 9
f 1 9 10
f 1 10 2
f 2 11 3
f 2 10 12
f 2 12 11
f 3 13 14
f 3 14 15
f 3 15 35
f 3 35 16
f 3 16 4
f 3 11 13
f 4 16 5
f 5 17 6
f 5 16 18
f 5 18 17
f 6 17 7
f 7 19 20
f 7 20 21
f 7 21 8
f 7 17 19
f 8 21 9
f 9 21 10
f 10 21 12
f 11 22 23
f 11 23 13
f 11 12 24
f 11 24 22
f 12 25 26
f 12 26 24
f 12 21 27
f 12 27 25
f 13 28 29
f 13 29 30
f 13 30 31
f 13 31 32
f 13 32 33
f 13 33 14
f 13 23 34
f 13 34 28
f 14 33 15
f 15 33 55
f 15 55 35
f 16 35 36
f 16 36 37
f 16 37 38
f 16 38 18
f 17 18 39
f 17 39 19
f 18 38 19
f 18 19 39
f 19 38 40
f 19 40 27
f 19 27 20
f 20 27 21
f 22 41 50
f 22 50 45
f 22 45 23
f 22 24 26
f 22 26 25
f 22 25 42
f 22 42 43
f 22 43 44
f 22 44 41
f 23 45 29
f 23 29 28
f 23 28 34
f 25 27 46
f 25 46 42
f 27 40 47
f 27 47 48
f 27 48 49
f 27 49 46
f 29 45 50
f 29 50 30
f 30 51 52
f 30 52 31
f 30 50 53
f 30 53 51
f 31 52 32
f 32 54 55
f 32 55 33
f 32 52 73
f 32 73 54
f 35 55 36
f 36 55 54
f 36 54 37
f 37 54 56
f 37 56 57
f 37 57 40
f 37 40 38
f 40 57 58
f 40 58 59
f 40 59 60
f 40 60 61
f 40 61 47
f 41 44 53
f 41 53 50
f 42 46 62
f 42 62 63
f 42 63 64
f 42 64 49
f 42 49 43
f 43 49 44
f 44 49 65
f 44 65 66
f 44 66 75
f 44 75 53
f 46 49 67
f 46 67 62
f 47 61 60
f 47 60 59
f 47 59 58
f 47 58 77
f 47 77 79
f 47 79 69
f 47 69 68
f 47 68 48
f 48 68 49
f 49 68 69
f 49 69 70
f 49 70 65
f 49 64 67
f 51 71 52
f 51 53 72
f 51 72 71
f 52 71 74
f 52 74 73
f 53 75 72
f 54 73 56
f 56 73 57
f 57 73 76
f 57 76 77
f 57 77 58
f 62 67 63
f 63 67 64
f 65 70 78
f 65 78 66
f 66 78 80
f 66 80 79
f 66 79 77
f 66 77 85
f 66 85 84
f 66 84 81
f 66 81 72
f 66 72 75
f 69 79 80
f 69 80 78
f 69 78 70
f 71 72 74
f 72 81 74
f 73 74 82
f 73 82 83
f 73 83 76
f 74 81 84
f 74 84 82
f 76 83 77
f 77 83 85
f 82 84 83
f 83 84 85

