# https://github.com/mikedh/trimesh
v 0.41324940 -0.14434556 0.18056656
v 0.40995829 -0.14434556 0.05652846
v 0.34256433 -0.14434556 0.18056656
v 0.41424584 -0.26114960 0.18056656
v 0.41115124 -0.20418377 0.05106440
v 0.34256433 -0.14434556 0.05652846
v 0.41061792 -0.18967360 0.05106440
v 0.41040039 -0.18439213 0.05106440
v 0.40103933 -0.18435506 0.05106440
v 0.34256433 -0.18435506 0.18056656
v 0.41425287 -0.27565976 0.18056656
v 0.41422480 -0.32009830 0.18056656
v 0.41113019 -0.23318557 0.05106440
v 0.34791852 -0.18435506 0.05106440
v 0.34256433 -0.18435506 0.05652846
v 0.34791852 -0.33366335 0.18056656
v 0.41141789 -0.33355217 0.18056656
v 0.40925656 -0.32858573 0.05106440
v 0.41004250 -0.32013536 0.05106440
v 0.41041441 -0.30566226 0.05106440
v 0.41069511 -0.29117062 0.05106440
v 0.41103193 -0.24767720 0.05106440
v 0.34791852 -0.33366335 0.05106440
v 0.41127755 -0.33366335 0.18056656
v 0.40135510 -0.33338538 0.05106440
v 0.40031656 -0.33366335 0.05106440
f 1 2 6
f 1 6 3
f 1 3 10
f 1 10 16
f 1 16 24
f 1 24 17
f 1 17 12
f 1 12 11
f 1 11 4
f 1 4 5
f 1 5 2
f 2 5 7
f 2 7 8
f 2 8 9
f 2 9 14
f 2 14 6
f 3 6 15
f 3 15 10
f 4 11 5
f 5 11 12
f 5 12 13
f 5 13 22
f 5 22 21
f 5 21 20
f 5 20 19
f 5 19 18
f 5 18 25
f 5 25 26
f 5 26 23
f 5 23 14
f 5 14 9
f 5 9 8
f 5 8 7
f 6 14 23
f 6 23 15
f 10 15 23
f 10 23 16
f 12 17 18
f 12 18 19
f 12 19 20
f 12 20 21
f 12 21 22
f 12 22 13
f 16 23 26
f 16 26 24
f 17 24 18
f 18 24 25
f 24 26 25

