# https://github.com/mikedh/trimesh
v 0.56838868 -0.29718422 0.16050658
v 0.54994136 -0.24870665 0.16692985
v 0.54772537 -0.24870665 0.18056196
v 0.55530864 -0.27662634 0.17529396
v 0.55579788 -0.29112913 0.17534016
v 0.56838868 -0.29876702 0.16050658
v 0.56838868 -0.29718422 0.15886611
v 0.56051763 -0.27662634 0.15248905
v 0.53579649 -0.24870665 0.06595979
v 0.54634398 -0.30559511 0.17910633
v 0.50744918 -0.24870665 0.18056196
v 0.53185376 -0.25243356 0.18615344
v 0.53185376 -0.30559511 0.18515991
v 0.55494890 -0.30559511 0.17492428
v 0.56838868 -0.29876702 0.15886611
v 0.55395603 -0.31338943 0.17450838
v 0.54904921 -0.32131259 0.16699917
v 0.52877441 -0.24870665 0.03652367
v 0.53317759 -0.24870665 0.05105689
v 0.53185376 -0.32009789 0.18314975
v 0.54608498 -0.31897521 0.17721170
v 0.49390867 -0.28156796 0.19049723
v 0.50877302 -0.26815105 0.18941128
v 0.51746427 -0.25243356 0.18529854
v 0.45153160 -0.24870665 0.08827949
v 0.51360789 -0.26815105 0.18941128
v 0.51557925 -0.27662634 0.19008134
v 0.51565120 -0.29111992 0.19042791
v 0.52261571 -0.30559511 0.18820980
v 0.55386969 -0.29871180 0.11542819
v 0.53307687 -0.29112913 0.05105689
v 0.55458917 -0.31393237 0.15687905
v 0.53937947 -0.32765295 0.14421736
v 0.52463024 -0.32741370 0.08707801
v 0.51113290 -0.32844434 0.04045157
v 0.51510439 -0.32076046 0.03423625
v 0.51373740 -0.31769609 0.02201354
v 0.51175164 -0.31510105 0.01094612
v 0.52267327 -0.30834659 0.03423625
v 0.52074508 -0.30454604 0.02309950
v 0.52480292 -0.29900628 0.02866787
v 0.54107743 -0.32868361 0.17598712
v 0.54179690 -0.32934617 0.16699917
v 0.52791104 -0.24871585 0.03423625
v 0.52250059 -0.24871585 0.02028066
v 0.52788227 -0.24870665 0.03423625
v 0.52857296 -0.26212356 0.03652367
v 0.52247182 -0.27662634 0.02065035
v 0.51350716 -0.31454892 0.18950371
v 0.53185376 -0.32943820 0.17753517
v 0.48068472 -0.28190845 0.16108421
v 0.48941914 -0.29111992 0.18148617
v 0.49413890 -0.29111992 0.19028928
v 0.50284454 -0.29111992 0.19197597
v 0.50350646 -0.27668156 0.19086691
v 0.42138563 -0.24871585 0.02374645
v 0.44770400 -0.24870665 0.07998469
v 0.51537780 -0.30559511 0.19015065
v 0.52808372 -0.29112913 0.03652367
v 0.52834273 -0.27662634 0.03652367
v 0.54053063 -0.32857318 0.15248905
v 0.52563750 -0.32848115 0.09449481
v 0.51267257 -0.32996272 0.05105689
v 0.49695925 -0.32851797 -0.00409540
v 0.51006807 -0.32735848 0.03423625
v 0.50947810 -0.32674193 0.03079357
v 0.49526127 -0.32682475 -0.01375340
v 0.50965077 -0.31085880 0.00128812
v 0.51342083 -0.30586197 0.00669476
v 0.51664407 -0.29112913 0.00750344
v 0.52232792 -0.29112913 0.02092761
v 0.52724913 -0.29112913 0.03423625
v 0.53185376 -0.33169275 0.16699917
v 0.48180711 -0.34270787 0.04292383
v 0.52750814 -0.33010076 0.10898181
v 0.51734916 -0.27662634 0.00750344
v 0.51730598 -0.24871585 0.00750344
v 0.51219772 -0.24871585 -0.00282461
v 0.50719018 -0.24871585 -0.01007969
v 0.50048466 -0.24871585 -0.01913695
v 0.49993788 -0.24871585 -0.01983009
v 0.49419645 -0.24871585 -0.02653063
v 0.49366404 -0.24871585 -0.02706204
v 0.48644051 -0.24871585 -0.03177554
v 0.47459798 -0.24871585 -0.03706663
v 0.47302951 -0.24871585 -0.03722836
v 0.45718668 -0.24871585 -0.03824500
v 0.43124242 -0.24870665 0.03423625
v 0.51799669 -0.27851281 0.00923634
v 0.52746497 -0.27851281 0.03423625
v 0.50877302 -0.31454892 0.18950371
v 0.52065874 -0.32879404 0.17688822
v 0.49533323 -0.29884984 0.18904159
v 0.48369213 -0.29112913 0.16826996
v 0.48098691 -0.29867499 0.16011379
v 0.50352085 -0.30445402 0.19005823
v 0.42138563 -0.26212356 0.02282224
v 0.44239428 -0.24870665 0.06552079
v 0.42138563 -0.24871585 -0.02052326
v 0.51441370 -0.33117742 0.06552079
v 0.50542026 -0.33366204 0.05101067
v 0.49864282 -0.32972346 0.00750344
v 0.48962059 -0.33036762 -0.00813883
v 0.48480012 -0.32864680 -0.02149369
v 0.48151932 -0.32749652 -0.02888737
v 0.49107394 -0.32123897 -0.02098538
v 0.49675778 -0.31716236 -0.01585599
v 0.51075877 -0.30120561 -0.00062962
v 0.51166531 -0.29112913 -0.00178488
v 0.51216894 -0.27851281 -0.00254735
v 0.51224089 -0.27662634 -0.00266288
v 0.51727721 -0.27851281 0.00750344
v 0.48044011 -0.34270787 0.04442567
v 0.48180711 -0.34270787 0.04442567
v 0.50285893 -0.33495036 0.05101067
v 0.48044011 -0.34270787 0.04292383
v 0.45940265 -0.33340438 -0.00698357
v 0.47389288 -0.33329395 -0.00698357
v 0.50683044 -0.33366204 0.05597832
v 0.51219772 -0.26212356 -0.00282461
v 0.50701750 -0.26212356 -0.01007969
v 0.50648509 -0.27662634 -0.00989483
v 0.49975080 -0.26212356 -0.01911384
v 0.49143367 -0.30560430 -0.02410458
v 0.48418138 -0.30560430 -0.03082821
v 0.44135824 -0.31427285 -0.04397512
v 0.44131506 -0.30560430 -0.04406753
v 0.43879691 -0.29791120 -0.04358233
v 0.43698383 -0.29791120 -0.04358233
v 0.42571686 -0.24871585 -0.02542157
v 0.49825429 -0.30957969 0.18148617
v 0.49790896 -0.31000299 0.18056196
v 0.49564980 -0.31281889 0.17420802
v 0.50549222 -0.31747524 0.18148617
v 0.51097461 -0.32697198 0.17113501
v 0.49311726 -0.30255835 0.18056196
v 0.48068472 -0.29112913 0.16103800
v 0.46689959 -0.31212871 0.11582098
v 0.48126030 -0.31264404 0.14500294
v 0.42138563 -0.27552207 0.02065035
v 0.42140002 -0.31626974 0.00648681
v 0.42309798 -0.29831610 -0.02884117
v 0.42309798 -0.29862898 -0.02884117
v 0.42140002 -0.30169334 -0.01169704
v 0.42140002 -0.30576075 -0.01081904
v 0.42138563 -0.27851281 -0.01100389
v 0.48071350 -0.32749652 -0.02888737
v 0.48292948 -0.32010709 -0.02983468
v 0.49772188 -0.30560430 -0.01684952
v 0.50570806 -0.29112913 -0.00901683
v 0.44450953 -0.33062529 0.02162076
v 0.43532905 -0.32940138 0.00750344
v 0.44488367 -0.33351480 0.00750344
v 0.44488367 -0.33208845 -0.00698357
v 0.45137333 -0.33366204 -0.00049099
v 0.45937389 -0.33557611 0.00750344
v 0.45937389 -0.33366204 -0.00531999
v 0.44488367 -0.32866520 -0.01825894
v 0.45940265 -0.32975107 -0.01812031
v 0.49920399 -0.27662634 -0.01828204
v 0.43623558 -0.31427285 -0.04397512
v 0.43612048 -0.30560430 -0.04406753
v 0.49328992 -0.31557957 0.16455001
v 0.43702701 -0.32800264 0.01653760
v 0.46451092 -0.31476057 0.10616297
v 0.42138563 -0.27851281 0.01575202
v 0.42140002 -0.31418082 -0.00326362
v 0.43557365 -0.32908851 -0.00698357
v 0.43365985 -0.31741083 -0.03600380
v 0.42140002 -0.31231277 -0.00631352
v 0.44488367 -0.32593213 -0.02549089
v 0.43732918 -0.32757934 -0.01712678
v 0.43239358 -0.32145062 -0.02177095
f 1 2 3
f 1 3 4
f 1 4 5
f 1 5 6
f 1 6 15
f 1 15 7
f 1 7 2
f 2 7 8
f 2 8 9
f 2 9 19
f 2 19 18
f 2 18 46
f 2 46 88
f 2 88 98
f 2 98 57
f 2 57 25
f 2 25 11
f 2 11 3
f 3 10 5
f 3 5 4
f 3 11 12
f 3 12 13
f 3 13 10
f 5 14 6
f 5 10 14
f 6 14 16
f 6 16 17
f 6 17 15
f 7 15 18
f 7 18 19
f 7 19 8
f 8 19 9
f 10 13 20
f 10 20 21
f 10 21 16
f 10 16 14
f 11 22 23
f 11 23 24
f 11 24 12
f 11 25 22
f 12 24 23
f 12 23 26
f 12 26 27
f 12 27 28
f 12 28 29
f 12 29 13
f 13 29 20
f 15 30 31
f 15 31 18
f 15 17 32
f 15 32 33
f 15 33 34
f 15 34 35
f 15 35 36
f 15 36 37
f 15 37 38
f 15 38 39
f 15 39 40
f 15 40 41
f 15 41 30
f 16 21 42
f 16 42 17
f 17 42 43
f 17 43 32
f 18 44 45
f 18 45 46
f 18 31 47
f 18 47 48
f 18 48 44
f 20 29 49
f 20 49 50
f 20 50 42
f 20 42 21
f 22 51 52
f 22 52 53
f 22 53 54
f 22 54 55
f 22 55 23
f 22 25 56
f 22 56 51
f 23 55 26
f 25 57 56
f 26 55 27
f 27 55 54
f 27 54 28
f 28 54 58
f 28 58 29
f 29 58 49
f 30 41 31
f 31 59 60
f 31 60 47
f 31 41 59
f 32 61 33
f 32 43 61
f 33 62 34
f 33 61 62
f 34 62 63
f 34 63 35
f 35 63 64
f 35 64 65
f 35 65 37
f 35 37 36
f 37 65 66
f 37 66 67
f 37 67 38
f 38 68 40
f 38 40 39
f 38 67 68
f 40 68 41
f 41 68 69
f 41 69 70
f 41 70 71
f 41 71 72
f 41 72 59
f 42 50 73
f 42 73 43
f 43 73 74
f 43 74 75
f 43 75 61
f 44 48 45
f 45 48 76
f 45 76 77
f 45 77 46
f 46 77 78
f 46 78 79
f 46 79 80
f 46 80 81
f 46 81 82
f 46 82 83
f 46 83 84
f 46 84 85
f 46 85 86
f 46 86 87
f 46 87 88
f 47 60 48
f 48 71 89
f 48 89 76
f 48 60 90
f 48 90 71
f 49 58 54
f 49 54 91
f 49 91 50
f 50 92 73
f 50 91 92
f 51 56 52
f 52 93 53
f 52 56 94
f 52 94 95
f 52 95 93
f 53 93 91
f 53 91 96
f 53 96 54
f 54 96 91
f 56 97 94
f 56 57 98
f 56 98 88
f 56 88 99
f 56 99 146
f 56 146 166
f 56 166 140
f 56 140 97
f 59 72 60
f 60 72 90
f 61 75 62
f 62 75 63
f 63 75 100
f 63 100 101
f 63 101 102
f 63 102 64
f 64 103 67
f 64 67 66
f 64 66 65
f 64 102 74
f 64 74 103
f 67 103 104
f 67 104 105
f 67 105 106
f 67 106 107
f 67 107 68
f 68 108 69
f 68 107 108
f 69 108 70
f 70 108 109
f 70 109 110
f 70 110 111
f 70 111 112
f 70 112 71
f 71 90 72
f 71 112 89
f 73 92 113
f 73 113 114
f 73 114 74
f 74 115 75
f 74 114 113
f 74 113 116
f 74 116 117
f 74 117 118
f 74 118 104
f 74 104 103
f 74 102 115
f 75 115 119
f 75 119 100
f 76 89 112
f 76 112 111
f 76 111 120
f 76 120 78
f 76 78 77
f 78 120 79
f 79 120 111
f 79 111 121
f 79 121 80
f 80 121 111
f 80 111 81
f 81 111 122
f 81 122 123
f 81 123 82
f 82 123 124
f 82 124 83
f 83 124 125
f 83 125 84
f 84 125 85
f 85 125 126
f 85 126 127
f 85 127 86
f 86 127 128
f 86 128 87
f 87 128 129
f 87 129 130
f 87 130 88
f 88 130 99
f 91 93 131
f 91 131 132
f 91 132 133
f 91 133 134
f 91 134 135
f 91 135 92
f 92 135 113
f 93 95 136
f 93 136 133
f 93 133 132
f 93 132 131
f 94 137 95
f 94 97 137
f 95 138 139
f 95 139 136
f 95 137 140
f 95 140 141
f 95 141 138
f 97 140 137
f 99 130 142
f 99 142 143
f 99 143 144
f 99 144 145
f 99 145 146
f 100 119 101
f 101 119 115
f 101 115 102
f 104 118 105
f 105 118 117
f 105 117 147
f 105 147 161
f 105 161 126
f 105 126 148
f 105 148 106
f 106 148 124
f 106 124 107
f 107 124 149
f 107 149 109
f 107 109 108
f 109 149 150
f 109 150 122
f 109 122 110
f 110 122 111
f 113 135 151
f 113 151 152
f 113 152 153
f 113 153 116
f 116 153 154
f 116 154 155
f 116 155 156
f 116 156 157
f 116 157 117
f 117 157 154
f 117 154 158
f 117 158 159
f 117 159 147
f 122 150 149
f 122 149 124
f 122 124 160
f 122 160 123
f 123 160 124
f 124 148 125
f 125 148 126
f 126 161 162
f 126 162 127
f 127 162 129
f 127 129 128
f 129 162 130
f 130 162 142
f 133 163 134
f 133 136 139
f 133 139 163
f 134 163 135
f 135 163 164
f 135 164 151
f 138 165 139
f 138 141 165
f 139 165 163
f 140 166 141
f 141 166 146
f 141 146 167
f 141 167 168
f 141 168 152
f 141 152 164
f 141 164 165
f 142 162 143
f 143 162 161
f 143 161 169
f 143 169 170
f 143 170 145
f 143 145 144
f 145 170 146
f 146 170 167
f 147 171 161
f 147 159 158
f 147 158 171
f 151 164 152
f 152 168 153
f 153 168 154
f 154 168 172
f 154 172 158
f 154 157 155
f 155 157 156
f 158 172 171
f 161 171 169
f 163 165 164
f 167 170 169
f 167 169 173
f 167 173 168
f 168 173 172
f 169 171 172
f 169 172 173

