# https://github.com/mikedh/trimesh
v 0.71287384 -0.06721074 0.69595234
v 0.71235163 -0.06721074 0.69595234
v 0.70592139 -0.32004616 0.68842484
v 0.71345841 -0.06721074 0.69588327
v 0.72769846 -0.00108605 0.69081602
v 0.70051999 -0.06721074 0.68637896
v 0.69784657 -0.32004616 0.68381512
v 0.72718404 -0.32592681 0.67428492
v 0.75479120 -0.32592681 0.67336121
v 0.76078496 -0.32592681 0.67294686
v 0.71498608 -0.32004616 0.68643938
v 0.75840772 -0.04460291 0.68281375
v 0.75829081 -0.01559169 0.68273608
v 0.75535239 0.00489259 0.68054342
v 0.74568754 0.00672214 0.68272744
v 0.72769846 0.00185426 0.68955571
v 0.75774521 -0.00477782 0.68244257
v 0.69815834 -0.06721074 0.68319357
v 0.69429240 -0.32004616 0.67458703
v 0.68839217 -0.06721074 0.66009318
v 0.68927292 -0.32004616 0.66009318
v 0.72718404 -0.32592681 0.64554750
v 0.76212557 -0.32592681 0.66594597
v 0.76367662 -0.04460291 0.67458703
v 0.76253087 -0.01559169 0.67457843
v 0.75966259 -0.00039999 0.67525172
v 0.75769845 0.00672214 0.67088373
v 0.75007569 0.00717952 0.67525172
v 0.73808037 0.00770222 0.67473381
v 0.73490813 0.00783292 0.67457843
v 0.73490813 0.00701616 0.68384966
v 0.72769846 0.00701616 0.68612863
v 0.72769846 0.00744087 0.68121675
v 0.72769846 0.00780025 0.67457843
v 0.72769846 0.00770222 0.65279013
v 0.72769846 0.00763690 0.64561657
v 0.72769846 0.00747354 0.63111407
v 0.72769846 0.00695084 0.60776331
v 0.69075382 -0.06721074 0.64619495
v 0.68486138 -0.22667446 0.64319086
v 0.69282709 -0.32004616 0.64710137
v 0.73812714 -0.32592681 0.61942574
v 0.76303749 -0.32592681 0.66008454
v 0.76448722 -0.05907584 0.66008454
v 0.76415986 -0.04460291 0.66008454
v 0.76322456 -0.01559169 0.66008454
v 0.75998216 0.00018809 0.65902274
v 0.75769845 0.00672214 0.66314044
v 0.75043423 0.00714684 0.65902274
v 0.73808037 0.00770222 0.67141029
v 0.73490813 0.00770222 0.64561657
v 0.73490813 0.00737554 0.63111407
v 0.73097983 0.00678746 0.60776331
v 0.72769846 -0.02777770 0.60776331
v 0.68528227 -0.21857222 0.64319086
v 0.72769846 -0.05923919 0.60777195
v 0.73576549 -0.05783438 0.60777195
v 0.73985746 -0.05675625 0.60777195
v 0.74377016 -0.05427331 0.60777195
v 0.74553166 -0.32592681 0.62076376
v 0.76058231 -0.32592681 0.65231535
v 0.75317000 -0.04460291 0.63110543
v 0.75898450 -0.01559169 0.64694594
v 0.75883640 -0.32592681 0.64699777
v 0.75828301 -0.00379771 0.64887098
v 0.75595254 0.00590538 0.65347211
v 0.74239838 0.00633010 0.62322400
v 0.74317780 0.00668946 0.63110543
v 0.73412091 0.00283437 0.60776331
v 0.74012246 -0.02777770 0.60776331
v 0.74395722 -0.04741255 0.60777195
v 0.75163453 -0.32592681 0.63111407
v 0.75596813 -0.01559169 0.63969472
v 0.75207102 -0.01559169 0.63110543
v 0.74387928 -0.00108605 0.62059974
v 0.73650594 -0.00108605 0.60776331
v 0.73987304 -0.01559169 0.60776331
v 0.74551607 -0.01559169 0.61819128
f 1 2 3
f 1 3 4
f 1 4 5
f 1 5 2
f 2 5 6
f 2 6 7
f 2 7 3
f 3 7 8
f 3 8 9
f 3 9 10
f 3 10 11
f 3 11 4
f 4 12 13
f 4 13 5
f 4 11 10
f 4 10 12
f 5 14 15
f 5 15 16
f 5 16 6
f 5 13 17
f 5 17 14
f 6 18 7
f 6 16 18
f 7 19 8
f 7 18 20
f 7 20 19
f 8 21 22
f 8 22 42
f 8 42 60
f 8 60 72
f 8 72 64
f 8 64 61
f 8 61 43
f 8 43 23
f 8 23 10
f 8 10 9
f 8 19 21
f 10 23 24
f 10 24 12
f 12 24 13
f 13 25 17
f 13 24 25
f 14 17 26
f 14 26 27
f 14 27 15
f 15 27 28
f 15 28 29
f 15 29 30
f 15 30 31
f 15 31 32
f 15 32 16
f 16 32 18
f 17 25 26
f 18 32 20
f 19 20 21
f 20 32 33
f 20 33 34
f 20 34 35
f 20 35 36
f 20 36 37
f 20 37 38
f 20 38 39
f 20 39 40
f 20 40 21
f 21 41 22
f 21 40 41
f 22 41 42
f 23 43 24
f 24 44 45
f 24 45 46
f 24 46 25
f 24 43 44
f 25 46 26
f 26 47 27
f 26 46 47
f 27 47 48
f 27 48 28
f 28 49 50
f 28 50 29
f 28 48 49
f 29 50 30
f 30 50 51
f 30 51 35
f 30 35 34
f 30 34 33
f 30 33 32
f 30 32 31
f 35 51 36
f 36 51 37
f 37 51 38
f 38 51 52
f 38 52 53
f 38 53 69
f 38 69 76
f 38 76 77
f 38 77 70
f 38 70 54
f 38 54 40
f 38 40 55
f 38 55 39
f 39 55 40
f 40 42 41
f 40 54 56
f 40 56 42
f 42 56 57
f 42 57 58
f 42 58 59
f 42 59 60
f 43 61 44
f 44 62 63
f 44 63 45
f 44 61 64
f 44 64 62
f 45 63 46
f 46 63 65
f 46 65 47
f 47 66 48
f 47 65 66
f 48 66 67
f 48 67 68
f 48 68 52
f 48 52 49
f 49 52 51
f 49 51 50
f 52 68 53
f 53 68 67
f 53 67 69
f 54 70 56
f 56 70 57
f 57 70 58
f 58 70 59
f 59 70 71
f 59 71 60
f 60 71 72
f 62 64 71
f 62 71 63
f 63 73 65
f 63 71 73
f 64 72 71
f 65 73 74
f 65 74 75
f 65 75 67
f 65 67 66
f 67 75 76
f 67 76 69
f 70 77 71
f 71 77 78
f 71 78 74
f 71 74 73
f 74 78 75
f 75 78 77
f 75 77 76

