# https://github.com/mikedh/trimesh
v 0.76443275 -0.37813651 0.66005437
v 0.76191855 -0.39261738 0.66005437
v 0.69559242 -0.39997679 0.43062802
v 0.69559242 -0.37215547 0.43062802
v 0.76300534 -0.32593976 0.66005437
v 0.76290801 -0.34912556 0.67455406
v 0.76350817 -0.37813651 0.67455406
v 0.75784718 -0.40045265 0.66005437
v 0.75687394 -0.40005063 0.65202872
v 0.76028027 -0.39329836 0.67527636
v 0.75802560 -0.40045265 0.67088900
v 0.69156970 -0.40290577 0.43062802
v 0.68075054 -0.40385749 0.42530434
v 0.68075054 -0.33954275 0.42530434
v 0.75882041 -0.32593976 0.64694582
v 0.76057224 -0.32593976 0.65226950
v 0.72717397 -0.32009819 0.64788214
v 0.72717397 -0.32009819 0.67112979
v 0.76209698 -0.32593976 0.66593987
v 0.76078311 -0.32593976 0.67289543
v 0.75783095 -0.34010065 0.68249940
v 0.75836623 -0.34912556 0.68279369
v 0.75826891 -0.37813651 0.68271343
v 0.75773363 -0.38892538 0.68241914
v 0.74939623 -0.40123208 0.66005437
v 0.75533298 -0.39859844 0.68054649
v 0.74568171 -0.40043624 0.68271343
v 0.75006128 -0.40088749 0.67527636
v 0.73489499 -0.40151922 0.67455406
v 0.67791193 -0.40390672 0.42530434
v 0.62811462 -0.37593773 0.42527759
v 0.63890133 -0.35449128 0.42527759
v 0.63890133 -0.33346325 0.42527759
v 0.66521118 -0.33601484 0.42530434
v 0.74553572 -0.32593976 0.62072871
v 0.75161846 -0.32593976 0.63105508
v 0.65074239 -0.33365195 0.42530434
v 0.64795244 -0.33347966 0.42530434
v 0.63341876 -0.33342223 0.42527759
v 0.70384871 -0.32009819 0.64699932
v 0.71495984 -0.32009819 0.68643199
v 0.71705230 -0.33708962 0.69782841
v 0.71768491 -0.34912556 0.69857746
v 0.71711719 -0.37813651 0.69849720
v 0.71628993 -0.39260919 0.69761438
v 0.71411637 -0.40012447 0.69659779
v 0.73677658 -0.40144538 0.67463427
v 0.73677658 -0.40133873 0.67597190
v 0.73489499 -0.40071519 0.68383704
v 0.72357300 -0.40069879 0.68742183
v 0.71953406 -0.40069057 0.68865240
v 0.72357300 -0.40150282 0.67455406
v 0.67689003 -0.40391493 0.42530434
v 0.59873906 -0.37593773 0.42527759
v 0.61894996 -0.33362734 0.42527759
v 0.69278625 -0.32009819 0.64702608
v 0.70589251 -0.32009819 0.68841166
v 0.71014232 -0.33708962 0.69782841
v 0.70879600 -0.34912556 0.69857746
v 0.71692254 -0.37440350 0.69852396
v 0.70993145 -0.37813651 0.69849720
v 0.71121288 -0.39260919 0.69761438
v 0.71265651 -0.40012447 0.69659779
v 0.72039375 -0.40148641 0.67455406
v 0.61890130 -0.40311090 0.42811332
v 0.61890130 -0.40314370 0.42530434
v 0.59873906 -0.36360643 0.42527759
v 0.61591670 -0.40283193 0.42530434
v 0.60706024 -0.40149460 0.42530434
v 0.60055577 -0.39226459 0.42530434
v 0.60006915 -0.39009862 0.42530434
v 0.59875528 -0.38132806 0.42530434
v 0.59872284 -0.37813651 0.42530434
v 0.60418919 -0.33829567 0.42527759
v 0.61894996 -0.33364374 0.42814008
v 0.68925015 -0.32009819 0.66005437
v 0.69779842 -0.32009819 0.68381028
v 0.70978546 -0.37440350 0.69852396
v 0.70156161 -0.34912556 0.69124736
v 0.70268083 -0.37813651 0.69025752
v 0.69828504 -0.38679223 0.68255291
v 0.71129398 -0.40046905 0.68902695
v 0.69815528 -0.40024754 0.66885583
v 0.70586007 -0.40128129 0.66008112
v 0.61890130 -0.40235608 0.44261297
v 0.69718204 -0.40054289 0.66008112
v 0.59882017 -0.34913376 0.42527759
v 0.59872284 -0.37595414 0.42530434
v 0.69776598 -0.33464470 0.68434531
v 0.61020704 -0.40084647 0.44261297
v 0.61129383 -0.40019831 0.45085265
v 0.61056390 -0.39262559 0.45272528
v 0.68877975 -0.37813651 0.66008112
v 0.60240492 -0.33937867 0.42527759
v 0.61056390 -0.34042884 0.45269853
v 0.69424610 -0.32009819 0.67455406
v 0.69804173 -0.37813651 0.68303447
v 0.69453808 -0.37813651 0.67455406
v 0.69671164 -0.39201026 0.67401899
v 0.70616826 -0.40073980 0.67401899
v 0.66920146 -0.40026395 0.59619703
v 0.62511380 -0.40066596 0.48225964
v 0.65413250 -0.40061673 0.55499872
f 1 2 3
f 1 3 4
f 1 4 5
f 1 5 6
f 1 6 7
f 1 7 2
f 2 8 9
f 2 9 3
f 2 7 10
f 2 10 11
f 2 11 8
f 3 12 13
f 3 13 14
f 3 14 4
f 3 9 12
f 4 14 15
f 4 15 16
f 4 16 5
f 5 16 17
f 5 17 18
f 5 18 19
f 5 19 6
f 6 19 20
f 6 20 21
f 6 21 22
f 6 22 7
f 7 22 23
f 7 23 24
f 7 24 10
f 8 25 13
f 8 13 12
f 8 12 9
f 8 11 25
f 10 24 26
f 10 26 11
f 11 26 27
f 11 27 28
f 11 28 25
f 13 25 29
f 13 29 30
f 13 30 31
f 13 31 32
f 13 32 33
f 13 33 14
f 14 33 34
f 14 34 35
f 14 35 36
f 14 36 15
f 15 36 17
f 15 17 16
f 17 36 35
f 17 35 37
f 17 37 38
f 17 38 39
f 17 39 40
f 17 40 56
f 17 56 76
f 17 76 96
f 17 96 77
f 17 77 57
f 17 57 41
f 17 41 18
f 18 41 20
f 18 20 19
f 20 41 42
f 20 42 21
f 21 42 43
f 21 43 22
f 22 43 23
f 23 43 44
f 23 44 24
f 24 44 45
f 24 45 46
f 24 46 26
f 25 28 47
f 25 47 29
f 26 46 27
f 27 48 28
f 27 46 49
f 27 49 48
f 28 48 47
f 29 47 48
f 29 48 49
f 29 49 50
f 29 50 51
f 29 51 52
f 29 52 53
f 29 53 30
f 30 53 31
f 31 54 67
f 31 67 87
f 31 87 94
f 31 94 74
f 31 74 55
f 31 55 39
f 31 39 33
f 31 33 32
f 31 53 54
f 33 39 38
f 33 38 37
f 33 37 34
f 34 37 35
f 39 55 56
f 39 56 40
f 41 57 42
f 42 57 58
f 42 58 59
f 42 59 43
f 43 59 78
f 43 78 60
f 43 60 44
f 44 60 78
f 44 78 61
f 44 61 62
f 44 62 45
f 45 62 63
f 45 63 46
f 46 63 51
f 46 51 50
f 46 50 49
f 51 63 64
f 51 64 52
f 52 64 53
f 53 65 66
f 53 66 54
f 53 64 65
f 54 66 68
f 54 68 69
f 54 69 70
f 54 70 71
f 54 71 72
f 54 72 73
f 54 73 88
f 54 88 67
f 55 74 75
f 55 75 76
f 55 76 56
f 57 77 58
f 58 77 59
f 59 77 79
f 59 79 78
f 61 78 79
f 61 79 80
f 61 80 62
f 62 80 81
f 62 81 63
f 63 82 64
f 63 81 83
f 63 83 82
f 64 84 65
f 64 82 84
f 65 85 68
f 65 68 66
f 65 84 86
f 65 86 83
f 65 83 85
f 67 88 89
f 67 89 87
f 68 85 69
f 69 85 90
f 69 90 91
f 69 91 70
f 70 91 71
f 71 91 92
f 71 92 72
f 72 92 81
f 72 81 93
f 72 93 73
f 73 93 89
f 73 89 88
f 74 94 76
f 74 76 75
f 76 94 95
f 76 95 96
f 77 89 79
f 77 96 89
f 79 89 97
f 79 97 80
f 80 97 81
f 81 97 98
f 81 98 93
f 81 92 91
f 81 91 99
f 81 99 83
f 82 83 100
f 82 100 84
f 83 86 100
f 83 99 101
f 83 101 102
f 83 102 103
f 83 103 85
f 84 100 86
f 85 103 102
f 85 102 90
f 87 95 94
f 87 89 96
f 87 96 95
f 89 98 97
f 89 93 98
f 90 102 91
f 91 102 101
f 91 101 99

