# https://github.com/mikedh/trimesh
v -0.00735602 0.05695344 -0.17263005
v -0.00276920 0.11585040 -0.17263005
v -0.00732204 0.05636065 -0.17263005
v -0.01642769 0.02795944 -0.16485300
v -0.01646166 0.03994696 -0.16493508
v -0.01646166 0.06053652 -0.16493508
v -0.01632578 0.12943187 -0.16481194
v 0.00242918 0.11758925 -0.17263005
v -0.01486479 0.14392229 -0.16302672
v -0.00280317 0.04243668 -0.17263005
v -0.01489877 0.01746048 -0.16294465
v -0.02386853 0.02844684 -0.15065318
v -0.02380058 0.03994696 -0.15196648
v -0.02373260 0.04246302 -0.15225376
v -0.02373260 0.05695344 -0.15225376
v -0.02352873 0.12943187 -0.15215116
v 0.00844301 0.11815570 -0.17263005
v -0.01289416 0.15173394 -0.16058485
v -0.02641672 0.13682199 -0.14484603
v -0.02852328 0.14255229 -0.13700742
v 0.00834105 0.04179120 -0.17263005
v -0.01731107 0.01743413 -0.15198696
v -0.02906691 0.01761856 -0.13487334
v -0.00830734 0.01746048 -0.16294465
v -0.02964451 0.02844684 -0.13881317
v -0.03045991 0.04246302 -0.13754093
v -0.03045991 0.08818688 -0.13754093
v -0.03042593 0.12173878 -0.13749989
v -0.03039196 0.12943187 -0.13749989
v 0.00844301 0.09818527 -0.17263005
v -0.01054979 0.15173394 -0.16058485
v 0.29822717 0.11849820 -0.15777362
v -0.02723216 0.15170759 -0.13187743
v -0.01384548 0.15201057 -0.15198696
v -0.02903294 0.14392229 -0.12801968
v 0.29822717 0.09660450 -0.15777362
v 0.29819320 0.04330612 -0.15682969
v -0.02906691 0.01761856 -0.12801968
v -0.00823940 0.01743413 -0.15198696
v -0.03039196 0.02795944 -0.12689108
v 0.30587188 0.04275284 0.03644775
v -0.03327995 0.11432232 -0.10910029
v -0.03327995 0.11488877 -0.10910029
v -0.01024401 0.15201057 -0.15198696
v 0.31382233 0.12472908 0.03644775
v 0.31382233 0.12408358 0.02877331
v 0.31382233 0.12239744 0.02194016
v 0.31382233 0.11840599 0.00823283
v 0.31382233 0.11267569 -0.00888081
v 0.31382233 0.11226732 -0.00982473
v -0.02723216 0.15170759 -0.12951763
v 0.31382233 0.10329643 -0.00982473
v 0.31382233 0.08597380 0.02128351
v 0.30587188 0.04741613 -0.00621323
v 0.30587188 0.04595389 0.00010693
v 0.30587188 0.04312168 0.01323970
v 0.30587188 0.04281870 0.02906058
v 0.14377075 0.10304614 -0.00334043
v -0.01914582 0.04562458 -0.10912079
v -0.03280427 0.10112288 -0.10910029
v -0.01917980 0.01797422 -0.12834800
v 0.30587188 0.04287139 0.03700180
v 0.28935937 0.04786400 0.03700180
v 0.31382233 0.08597380 0.03033281
v 0.31382233 0.08665880 0.03644775
v 0.14285339 0.10470596 -0.00334043
v 0.14285339 0.11040992 -0.00334043
v -0.02400441 0.15170759 -0.12951763
v -0.01102548 0.15172078 -0.14232209
v 0.31382233 0.12442610 0.03700180
v 0.15460919 0.11548156 -0.00334043
v 0.31382233 0.08729112 0.03700180
v 0.28932540 0.04825919 0.03700180
v 0.28728682 0.10470596 0.03700180
v 0.28728682 0.11189847 0.03700180
f 1 2 8
f 1 8 17
f 1 17 30
f 1 30 21
f 1 21 10
f 1 10 3
f 1 3 4
f 1 4 5
f 1 5 6
f 1 6 7
f 1 7 2
f 2 7 9
f 2 9 8
f 3 10 4
f 4 10 11
f 4 11 12
f 4 12 13
f 4 13 14
f 4 14 5
f 5 14 15
f 5 15 6
f 6 15 7
f 7 15 16
f 7 16 9
f 8 9 18
f 8 18 17
f 9 16 19
f 9 19 20
f 9 20 18
f 10 21 11
f 11 22 23
f 11 23 12
f 11 21 24
f 11 24 39
f 11 39 22
f 12 23 25
f 12 25 13
f 13 25 14
f 14 25 26
f 14 26 27
f 14 27 15
f 15 27 28
f 15 28 16
f 16 28 29
f 16 29 19
f 17 18 31
f 17 31 32
f 17 32 36
f 17 36 30
f 18 20 33
f 18 33 34
f 18 34 44
f 18 44 31
f 19 29 20
f 20 35 33
f 20 29 35
f 21 30 36
f 21 36 37
f 21 37 24
f 22 38 23
f 22 39 38
f 23 38 40
f 23 40 25
f 24 37 41
f 24 41 39
f 25 40 26
f 26 40 42
f 26 42 43
f 26 43 27
f 27 43 28
f 28 43 29
f 29 43 35
f 31 44 45
f 31 45 32
f 32 45 46
f 32 46 47
f 32 47 48
f 32 48 49
f 32 49 50
f 32 50 52
f 32 52 36
f 33 35 51
f 33 51 34
f 34 51 68
f 34 68 44
f 35 43 51
f 36 52 37
f 37 52 53
f 37 53 54
f 37 54 55
f 37 55 56
f 37 56 57
f 37 57 41
f 38 58 59
f 38 59 60
f 38 60 40
f 38 39 61
f 38 61 41
f 38 41 62
f 38 62 63
f 38 63 58
f 39 41 61
f 40 60 42
f 41 57 53
f 41 53 64
f 41 64 65
f 41 65 62
f 42 60 66
f 42 66 67
f 42 67 43
f 43 67 51
f 44 68 69
f 44 69 45
f 45 70 72
f 45 72 65
f 45 65 64
f 45 64 53
f 45 53 52
f 45 52 50
f 45 50 49
f 45 49 48
f 45 48 47
f 45 47 46
f 45 69 68
f 45 68 51
f 45 51 70
f 51 67 71
f 51 71 70
f 53 57 56
f 53 56 55
f 53 55 54
f 58 66 59
f 58 63 66
f 59 66 60
f 62 65 72
f 62 72 70
f 62 70 75
f 62 75 74
f 62 74 73
f 62 73 63
f 63 73 66
f 66 73 74
f 66 74 75
f 66 75 67
f 67 75 70
f 67 70 71

