# https://github.com/mikedh/trimesh
v -0.02813088 -0.54546587 -0.11731291
v -0.02548082 -0.54546587 -0.11731291
v -0.02813088 -0.54546587 -0.11446323
v -0.04155201 -0.54535923 -0.08803242
v -0.03083558 -0.53764072 -0.12014480
v -0.02356157 -0.53764072 -0.12014480
v -0.00781826 -0.50430052 -0.11562091
v -0.00781826 -0.50683337 -0.11236159
v 0.00753573 -0.50404725 -0.06017675
v 0.02368203 -0.50599353 0.03265170
v 0.02368203 -0.51255226 0.05936749
v -0.01063909 -0.54545254 0.04209128
v -0.02548082 -0.54546587 -0.11446323
v -0.01283153 -0.54545254 0.04472724
v -0.02731125 -0.54545254 0.01592763
v -0.04155201 -0.54535923 -0.08610888
v -0.04293160 -0.53884048 -0.05080841
v -0.04572512 -0.52315020 -0.05050565
v -0.04290429 -0.53764072 -0.09066838
v -0.03270702 -0.52313688 -0.12222863
v -0.03864919 -0.52313688 -0.10851452
v -0.00880178 -0.50375397 -0.11738416
v -0.02209311 -0.52313688 -0.12222863
v -0.00781826 -0.49902155 -0.11562091
v 0.00753573 -0.49846165 -0.06017675
v 0.01780132 -0.50262086 -0.00314745
v 0.02368203 -0.49728856 0.03265170
v 0.02369569 -0.44785815 0.04038146
v 0.02369569 -0.45465682 0.04520812
v 0.02369569 -0.46801423 0.05940311
v 0.02273265 -0.46809421 0.05940311
v 0.02091583 -0.51271224 0.05936749
v -0.01063909 -0.54545254 0.04472724
v 0.00976236 -0.51224565 0.05936749
v 0.00568481 -0.51183240 0.05936749
v -0.00146628 -0.50905961 0.05936749
v -0.01466200 -0.53764072 0.04670421
v -0.02912807 -0.53762739 0.01822518
v -0.04166127 -0.53386812 -0.01356660
v -0.04108756 -0.54498595 -0.05584880
v -0.04598470 -0.51271224 -0.05047001
v -0.04598470 -0.51272555 -0.05050565
v -0.04395619 -0.52313688 -0.09269877
v -0.04293843 -0.52315020 -0.02152792
v -0.03272751 -0.51836446 -0.12231767
v -0.03482435 -0.51836446 -0.11770475
v -0.03880630 -0.51836446 -0.10851452
v -0.02103443 -0.51836446 -0.12219300
v -0.01888979 -0.50860636 -0.12212175
v -0.01791309 -0.49298272 -0.12215738
v -0.00880178 -0.49703527 -0.11738416
v -0.02561740 -0.51836446 -0.12231767
v -0.02006456 -0.47942534 -0.12237111
v -0.00781826 -0.49606211 -0.11553186
v -0.00242249 -0.45103086 -0.07581439
v 0.02369569 -0.44169934 0.04047052
v 0.01780132 -0.50034129 -0.00314745
v 0.02369569 -0.43467403 0.05940311
v 0.00996727 -0.46349510 0.05940311
v -0.00223811 -0.45051096 0.05940311
v -0.01603482 -0.52313688 0.04816467
v -0.03050775 -0.52313688 0.01989937
v -0.04201645 -0.52315020 -0.01321040
v -0.04608030 -0.50864636 -0.05047001
v -0.04395619 -0.50864636 -0.09271657
v -0.03927757 -0.49415583 -0.10851452
v -0.03910681 -0.50864636 -0.10851452
v -0.04295209 -0.51272555 -0.02152792
v -0.03276848 -0.50864636 -0.12249578
v -0.03282311 -0.49415583 -0.12253139
v -0.03280263 -0.47942534 -0.12235330
v -0.04252187 -0.41230504 -0.05930404
v -0.03819157 -0.41230504 -0.05930404
v -0.00782509 -0.44023296 -0.07570752
v -0.00368608 -0.44665837 -0.07581439
v -0.01293396 -0.47942534 -0.11241504
v -0.00781826 -0.48815698 -0.11077646
v 0.00384751 -0.40927896 0.03648097
v -0.00412317 -0.40927896 0.04898396
v 0.00978967 -0.43388752 0.05940311
v 0.00411388 -0.40927896 0.04307086
v -0.00229274 -0.44535197 0.05940311
v -0.01603482 -0.51281886 0.04820029
v -0.03050092 -0.43303435 0.01993498
v -0.04202320 -0.45064427 -0.01306791
v -0.04608030 -0.49415583 -0.05047001
v -0.04395619 -0.47942534 -0.09271657
v -0.03922973 -0.47942534 -0.10851452
v -0.04295209 -0.43616708 -0.02152792
v -0.04549976 -0.42166322 -0.05048782
v -0.04310241 -0.41146520 -0.05048782
v -0.03349247 -0.41150520 -0.05007820
v -0.02596576 -0.41351813 -0.04496656
v -0.00081062 -0.40927896 0.02198320
v -0.00584438 -0.40927896 0.04898396
v -0.00120674 -0.43643369 0.05940311
v -0.01604164 -0.42164989 0.04820029
v -0.01604164 -0.43362090 0.04820029
v -0.03050092 -0.42164989 0.01991718
v -0.04202320 -0.43616708 -0.01308573
v -0.04575926 -0.43616708 -0.05048782
v -0.04202320 -0.43352758 -0.01310354
v -0.04201645 -0.42166322 -0.01321040
v -0.04280869 -0.42166322 -0.02151009
v -0.04166127 -0.41310488 -0.01356660
v -0.02914172 -0.41111859 0.01818955
v -0.01300229 -0.40927896 0.04408606
v -0.03370421 -0.41041207 -0.03599005
v -0.00615855 -0.40927896 0.01067351
v -0.01013367 -0.40927896 0.04770160
v -0.01466883 -0.41114526 0.04670421
v -0.01566601 -0.40927896 0.02242846
v -0.01353503 -0.40927896 0.01119001
f 1 2 13
f 1 13 3
f 1 3 16
f 1 16 4
f 1 4 5
f 1 5 6
f 1 6 2
f 2 6 7
f 2 7 8
f 2 8 9
f 2 9 10
f 2 10 11
f 2 11 12
f 2 12 33
f 2 33 13
f 3 13 33
f 3 33 14
f 3 14 15
f 3 15 16
f 4 16 17
f 4 17 18
f 4 18 19
f 4 19 5
f 5 20 23
f 5 23 6
f 5 19 21
f 5 21 20
f 6 22 7
f 6 23 22
f 7 22 51
f 7 51 24
f 7 24 25
f 7 25 9
f 7 9 8
f 9 25 57
f 9 57 26
f 9 26 10
f 10 26 57
f 10 57 27
f 10 27 28
f 10 28 29
f 10 29 30
f 10 30 11
f 11 30 31
f 11 31 32
f 11 32 33
f 11 33 12
f 14 33 32
f 14 32 34
f 14 34 35
f 14 35 36
f 14 36 37
f 14 37 38
f 14 38 15
f 15 38 39
f 15 39 40
f 15 40 16
f 16 40 17
f 17 40 39
f 17 39 18
f 18 41 42
f 18 42 43
f 18 43 19
f 18 39 44
f 18 44 41
f 19 43 21
f 20 45 52
f 20 52 23
f 20 21 46
f 20 46 45
f 21 43 47
f 21 47 46
f 22 23 48
f 22 48 49
f 22 49 50
f 22 50 51
f 23 52 53
f 23 53 50
f 23 50 49
f 23 49 48
f 24 54 25
f 24 51 54
f 25 54 55
f 25 55 56
f 25 56 57
f 27 56 28
f 27 57 56
f 28 56 58
f 28 58 30
f 28 30 29
f 30 58 80
f 30 80 96
f 30 96 82
f 30 82 60
f 30 60 59
f 30 59 31
f 31 59 35
f 31 35 34
f 31 34 32
f 35 59 36
f 36 59 60
f 36 60 61
f 36 61 37
f 37 61 62
f 37 62 38
f 38 62 39
f 39 62 63
f 39 63 44
f 41 64 42
f 41 44 64
f 42 64 43
f 43 65 66
f 43 66 67
f 43 67 47
f 43 64 65
f 44 63 68
f 44 68 64
f 45 69 52
f 45 46 69
f 46 47 67
f 46 67 69
f 50 53 51
f 51 53 54
f 52 69 53
f 53 69 70
f 53 70 71
f 53 71 72
f 53 72 73
f 53 73 74
f 53 74 75
f 53 75 76
f 53 76 77
f 53 77 54
f 54 77 55
f 55 75 56
f 55 77 75
f 56 78 58
f 56 75 78
f 58 79 80
f 58 78 81
f 58 81 79
f 60 82 61
f 61 82 83
f 61 83 62
f 62 84 85
f 62 85 63
f 62 83 84
f 63 85 68
f 64 86 87
f 64 87 65
f 64 68 89
f 64 89 86
f 65 87 66
f 66 87 88
f 66 88 70
f 66 70 69
f 66 69 67
f 68 85 89
f 70 88 71
f 71 88 72
f 72 88 87
f 72 87 90
f 72 90 91
f 72 91 73
f 73 91 92
f 73 92 93
f 73 93 74
f 74 93 94
f 74 94 78
f 74 78 75
f 75 77 76
f 78 94 109
f 78 109 113
f 78 113 112
f 78 112 107
f 78 107 110
f 78 110 95
f 78 95 79
f 78 79 81
f 79 95 80
f 80 95 96
f 82 96 97
f 82 97 98
f 82 98 83
f 83 98 84
f 84 99 100
f 84 100 85
f 84 98 97
f 84 97 99
f 85 100 89
f 86 101 87
f 86 89 101
f 87 101 90
f 89 100 102
f 89 102 103
f 89 103 101
f 90 101 104
f 90 104 105
f 90 105 91
f 91 105 106
f 91 106 107
f 91 107 108
f 91 108 92
f 92 108 109
f 92 109 93
f 93 109 94
f 95 110 96
f 96 110 111
f 96 111 97
f 97 111 99
f 99 106 105
f 99 105 103
f 99 103 102
f 99 102 100
f 99 111 106
f 101 103 104
f 103 105 104
f 106 111 107
f 107 112 108
f 107 111 110
f 108 112 113
f 108 113 109

