# https://github.com/mikedh/trimesh
v 0.33974800 -0.04506184 0.20028147
v 0.35733951 -0.04509161 0.21120742
v 0.33900007 -0.04506184 0.19925866
v 0.17971907 -0.04506184 0.20028147
v 0.38680830 -0.05250287 0.18152837
v 0.33002480 -0.04506184 0.19292239
v 0.20293507 -0.04509161 0.21120742
v 0.34330818 -0.33517267 0.22485077
v 0.35781819 -0.33621441 0.22485077
v 0.37158026 -0.33874436 0.22485077
v 0.36036118 -0.04750250 0.21120742
v 0.40993454 -0.06283102 0.20457211
v 0.40131830 -0.05634244 0.19602118
v 0.40131830 -0.05494353 0.18152837
v 0.16885898 -0.04506184 0.19573514
v 0.40131830 -0.05509235 0.18058356
v 0.38773573 -0.05283028 0.18058356
v 0.38680830 -0.05268146 0.18058356
v 0.31267262 -0.04506184 0.18360435
v 0.32024178 -0.04506184 0.18759160
v 0.15838787 -0.04506184 0.19103711
v 0.12586749 -0.06268220 0.19348147
v 0.12586749 -0.07161143 0.19742972
v 0.12586749 -0.07363539 0.19831818
v 0.14040742 -0.07363539 0.20114394
v 0.22803588 -0.34910227 0.22485077
v 0.23883611 -0.33835742 0.22485077
v 0.24173811 -0.33779190 0.22485077
v 0.25636780 -0.33570842 0.22485077
v 0.27084792 -0.33523219 0.22485077
v 0.38235059 -0.34910227 0.22485077
v 0.36897744 -0.05485424 0.21120742
v 0.40293384 -0.07158167 0.20668275
v 0.41029357 -0.07158167 0.20493616
v 0.41256729 -0.07363539 0.19602118
v 0.41220828 -0.07161143 0.19602118
v 0.41047306 -0.06235479 0.19602118
v 0.40185680 -0.05541976 0.18058356
v 0.41086201 -0.06184880 0.18152837
v 0.30357770 -0.04506184 0.18058356
v 0.13956972 -0.04506184 0.18249051
v 0.13562062 -0.04506184 0.18058356
v 0.11761026 -0.06464664 0.19106311
v 0.11719141 -0.07161143 0.19195158
v 0.11710165 -0.07363539 0.19221161
v 0.12586749 -0.08813052 0.19848288
v 0.22803588 -0.34913203 0.22485077
v 0.12583758 -0.10962021 0.19848288
v 0.40128837 -0.07363539 0.20717249
v 0.38235059 -0.34913203 0.22485077
v 0.41080215 -0.23308175 0.20536523
v 0.41035339 -0.07363539 0.20501851
v 0.41364432 -0.07363539 0.18152837
v 0.41370416 -0.26210177 0.19602551
v 0.41403326 -0.08813052 0.18152837
v 0.41083208 -0.06193810 0.18058356
v 0.11171650 -0.05991413 0.18058356
v 0.10872474 -0.07363539 0.18058790
v 0.11710165 -0.08813052 0.19221161
v 0.12583758 -0.18465554 0.19848288
v 0.12589740 -0.30555737 0.19848288
v 0.12589740 -0.32008226 0.19845687
v 0.12589740 -0.33124380 0.19361149
v 0.21579960 -0.34913203 0.21966734
v 0.36673360 -0.34913203 0.21595746
v 0.40131830 -0.34041115 0.18152837
v 0.41113125 -0.33317847 0.19602551
v 0.41005421 -0.33091640 0.20466746
v 0.41080215 -0.32008226 0.20536523
v 0.41352465 -0.07363539 0.18058790
v 0.41337506 -0.07289129 0.18058790
v 0.41310580 -0.07161143 0.18058356
v 0.41370416 -0.32008226 0.19602551
v 0.41436234 -0.27656712 0.18152837
v 0.41388366 -0.08723760 0.18058790
v 0.41424267 -0.26117908 0.18058356
v 0.10920341 -0.07161143 0.18058356
v 0.11054972 -0.30555737 0.18058356
v 0.11719141 -0.32008226 0.19222462
v 0.11769999 -0.32901149 0.19108045
v 0.12194830 -0.34681044 0.18058356
v 0.18815579 -0.34913203 0.20752354
v 0.35778826 -0.34913203 0.21154114
v 0.41146035 -0.33368446 0.18152837
v 0.34914210 -0.34913203 0.20752354
v 0.40039085 -0.34032186 0.18058356
v 0.40131830 -0.34020280 0.18058356
v 0.41436234 -0.32008226 0.18152837
v 0.41424267 -0.27561467 0.18058356
v 0.11102839 -0.32163000 0.18058356
v 0.11336195 -0.33579771 0.18058356
v 0.11431933 -0.33722638 0.18058356
v 0.11967456 -0.34460789 0.18058356
v 0.30908251 -0.34681044 0.18058356
v 0.41140051 -0.33350587 0.18058356
v 0.31368982 -0.34681044 0.18207012
v 0.31425825 -0.34681044 0.18228248
v 0.41421276 -0.32008226 0.18058356
f 1 2 3
f 1 3 6
f 1 6 20
f 1 20 19
f 1 19 40
f 1 40 42
f 1 42 41
f 1 41 21
f 1 21 15
f 1 15 4
f 1 4 7
f 1 7 2
f 2 5 6
f 2 6 3
f 2 7 8
f 2 8 9
f 2 9 10
f 2 10 11
f 2 11 12
f 2 12 13
f 2 13 14
f 2 14 5
f 4 15 7
f 5 14 16
f 5 16 17
f 5 17 18
f 5 18 19
f 5 19 20
f 5 20 6
f 7 15 21
f 7 21 22
f 7 22 23
f 7 23 24
f 7 24 25
f 7 25 26
f 7 26 27
f 7 27 28
f 7 28 29
f 7 29 30
f 7 30 8
f 8 30 29
f 8 29 28
f 8 28 27
f 8 27 26
f 8 26 47
f 8 47 50
f 8 50 31
f 8 31 10
f 8 10 9
f 10 31 32
f 10 32 11
f 11 32 12
f 12 32 33
f 12 33 34
f 12 34 35
f 12 35 36
f 12 36 37
f 12 37 13
f 13 37 14
f 14 38 16
f 14 37 39
f 14 39 38
f 16 38 56
f 16 56 72
f 16 72 76
f 16 76 89
f 16 89 98
f 16 98 95
f 16 95 87
f 16 87 86
f 16 86 94
f 16 94 81
f 16 81 93
f 16 93 92
f 16 92 91
f 16 91 90
f 16 90 78
f 16 78 77
f 16 77 57
f 16 57 42
f 16 42 40
f 16 40 18
f 16 18 17
f 18 40 19
f 21 41 22
f 22 41 42
f 22 42 43
f 22 43 23
f 23 43 24
f 24 43 44
f 24 44 45
f 24 45 46
f 24 46 26
f 24 26 25
f 26 46 48
f 26 48 60
f 26 60 47
f 31 49 32
f 31 50 69
f 31 69 51
f 31 51 52
f 31 52 34
f 31 34 49
f 32 49 33
f 33 49 34
f 34 52 35
f 35 53 36
f 35 52 54
f 35 54 55
f 35 55 53
f 36 53 37
f 37 53 39
f 38 39 56
f 39 53 56
f 42 57 43
f 43 57 58
f 43 58 44
f 44 58 45
f 45 58 59
f 45 59 60
f 45 60 48
f 45 48 46
f 47 60 61
f 47 61 62
f 47 62 63
f 47 63 64
f 47 64 82
f 47 82 85
f 47 85 83
f 47 83 65
f 47 65 50
f 50 65 66
f 50 66 67
f 50 67 68
f 50 68 69
f 51 69 73
f 51 73 54
f 51 54 52
f 53 70 71
f 53 71 72
f 53 72 56
f 53 55 70
f 54 73 88
f 54 88 74
f 54 74 55
f 55 75 70
f 55 74 76
f 55 76 75
f 57 77 58
f 58 77 78
f 58 78 79
f 58 79 59
f 59 79 60
f 60 79 61
f 61 79 62
f 62 79 80
f 62 80 63
f 63 80 81
f 63 81 64
f 64 81 82
f 65 83 66
f 66 84 67
f 66 83 85
f 66 85 86
f 66 86 87
f 66 87 84
f 67 84 88
f 67 88 73
f 67 73 68
f 68 73 69
f 70 72 71
f 70 75 72
f 72 75 76
f 74 88 89
f 74 89 76
f 78 90 79
f 79 90 80
f 80 90 91
f 80 91 92
f 80 92 93
f 80 93 81
f 81 94 85
f 81 85 82
f 84 95 88
f 84 87 95
f 85 94 96
f 85 96 97
f 85 97 86
f 86 97 96
f 86 96 94
f 88 98 89
f 88 95 98

