# https://github.com/mikedh/trimesh
v 0.12577936 0.07163491 -0.05943603
v 0.12577936 0.01650377 -0.05943603
v 0.12577936 0.07163491 -0.08101502
v 0.12040365 0.11619230 -0.04511219
v 0.12041428 0.11597010 -0.03553470
v 0.12041428 0.11523287 -0.02970346
v 0.12041428 0.11237481 -0.02031246
v 0.12235846 0.05414322 -0.01398963
v 0.12235846 0.05122457 -0.01263352
v 0.12235846 0.01650377 -0.00483594
v 0.12577936 0.01650377 -0.12176591
v 0.12577936 0.07001905 -0.08328649
v 0.12040365 0.11480870 -0.05941907
v 0.12040365 0.11604081 -0.03599239
v 0.01726703 0.11868677 0.02837164
v 0.01726703 0.11966638 0.05096771
v 0.02428945 0.11749507 0.05096771
v 0.03881226 0.11207183 0.05096771
v 0.04613212 0.10777972 0.05096771
v 0.04613212 0.10759793 0.05096771
v 0.04035273 0.04814433 0.05096771
v 0.01725644 0.04002463 0.05096771
v 0.11265884 0.01650377 -0.00824314
v 0.11355126 0.01650377 -0.12079968
v 0.12577936 0.01652395 -0.12218969
v 0.12577936 0.06244471 -0.09335554
v 0.12577936 0.05846566 -0.09728826
v 0.11035346 0.09661008 -0.09399970
v 0.09680804 0.09661008 -0.10084803
v 0.09350400 0.09661008 -0.10144132
v 0.08311385 0.09661008 -0.09455910
v 0.01726703 0.11772736 0.02196406
v 0.01725644 0.07437178 0.03188056
v 0.01725644 0.07600783 0.04876403
v 0.01725644 0.07578566 0.05096771
v 0.01726703 0.09723621 0.05098466
v 0.02582991 0.09723621 0.05098466
v 0.01726703 0.08790461 0.05098466
v 0.01725644 0.04467025 0.02198100
v 0.07833310 0.01650377 -0.06499604
v 0.08079783 0.01650377 -0.04997721
v 0.09677614 0.01650377 -0.02038027
v 0.10189686 0.01650377 -0.01285390
v 0.11094843 0.01650377 -0.00895509
v 0.10087698 0.01650377 -0.10852697
v 0.08171152 0.04834632 -0.10745903
v 0.08171152 0.05441590 -0.10745903
v 0.12577936 0.02440127 -0.11842651
v 0.12577936 0.05654682 -0.09867825
v 0.01726703 0.11268790 0.00635192
v 0.01725644 0.06977667 0.01655659
v 0.01725644 0.04732632 0.00760630
v 0.08182834 0.01650377 -0.07998099
v 0.09838035 0.01650377 -0.10589951
v 0.09010437 0.01650377 -0.09399970
v 0.01725644 0.05767792 0.00696217
v 0.01725644 0.06632277 0.01360708
f 1 2 11
f 1 11 25
f 1 25 48
f 1 48 49
f 1 49 27
f 1 27 26
f 1 26 12
f 1 12 3
f 1 3 4
f 1 4 5
f 1 5 6
f 1 6 7
f 1 7 8
f 1 8 9
f 1 9 10
f 1 10 2
f 2 10 23
f 2 23 44
f 2 44 43
f 2 43 42
f 2 42 41
f 2 41 40
f 2 40 53
f 2 53 55
f 2 55 54
f 2 54 45
f 2 45 24
f 2 24 11
f 3 12 13
f 3 13 4
f 4 14 5
f 4 13 15
f 4 15 16
f 4 16 14
f 5 14 6
f 6 16 7
f 6 14 16
f 7 16 17
f 7 17 18
f 7 18 19
f 7 19 10
f 7 10 9
f 7 9 8
f 10 19 20
f 10 20 21
f 10 21 22
f 10 22 23
f 11 24 25
f 12 26 13
f 13 26 27
f 13 27 28
f 13 28 29
f 13 29 30
f 13 30 31
f 13 31 32
f 13 32 15
f 15 32 33
f 15 33 34
f 15 34 16
f 16 34 35
f 16 35 36
f 16 36 37
f 16 37 17
f 17 37 18
f 18 37 19
f 19 37 20
f 20 37 21
f 21 37 38
f 21 38 22
f 22 38 36
f 22 36 35
f 22 35 34
f 22 34 33
f 22 33 51
f 22 51 57
f 22 57 56
f 22 56 52
f 22 52 39
f 22 39 40
f 22 40 41
f 22 41 42
f 22 42 43
f 22 43 44
f 22 44 23
f 24 45 46
f 24 46 47
f 24 47 30
f 24 30 25
f 25 30 29
f 25 29 28
f 25 28 48
f 27 49 28
f 28 49 48
f 30 47 31
f 31 47 50
f 31 50 32
f 32 50 51
f 32 51 33
f 36 38 37
f 39 52 53
f 39 53 40
f 45 54 46
f 46 54 55
f 46 55 53
f 46 53 52
f 46 52 56
f 46 56 50
f 46 50 47
f 50 56 57
f 50 57 51

