# https://github.com/mikedh/trimesh
v -0.03368117 -0.41112103 -0.08455705
v -0.02564886 -0.41295512 -0.08595585
v -0.02399382 -0.41165762 -0.10851046
v -0.02356866 -0.41116006 -0.11993520
v -0.03061399 -0.41116006 -0.11993520
v -0.04294336 -0.41149176 -0.09060588
v -0.04294336 -0.41149176 -0.08461753
v -0.00779254 -0.44158825 -0.06023315
v 0.07974287 -0.44111023 -0.06916276
v 0.07974287 -0.44063219 -0.07952895
v 0.07974287 -0.44292479 -0.08724123
v 0.00579710 -0.44124680 -0.13746173
v -0.00587935 -0.43523726 -0.13746173
v -0.00726110 -0.43469095 -0.13746173
v -0.02854900 -0.43913957 -0.13262266
v -0.03269419 -0.42165726 -0.12227157
v -0.01851239 -0.43542263 -0.13743148
v -0.01966637 -0.43561773 -0.13743148
v -0.02045592 -0.43634941 -0.13743148
v -0.04396068 -0.42165726 -0.09263981
v -0.04396068 -0.42165726 -0.08354387
v 0.00392945 -0.49687410 -0.06021802
v 0.00757359 -0.49845454 -0.06021802
v -0.00759515 -0.44171508 -0.06023315
v -0.03319529 -0.43673964 -0.07575597
v -0.03339267 -0.45140253 -0.07575597
v -0.00779254 -0.49392786 -0.06021802
v 0.11115844 -0.49188892 -0.06499661
v 0.11115844 -0.49186940 -0.06501930
v 0.11115844 -0.49188892 -0.06512514
v 0.09723475 -0.47176279 -0.07940041
v 0.00613115 -0.45111963 -0.13743148
v 0.00591855 -0.44663199 -0.13746173
v 0.09756880 -0.49188892 -0.08145701
v -0.00779254 -0.43472996 -0.13746173
v -0.02564886 -0.44600760 -0.13743148
v -0.02924744 -0.45063185 -0.13343924
v -0.03567026 -0.45063185 -0.12299744
v -0.04396068 -0.45063185 -0.09296494
v -0.04396068 -0.43615431 -0.08337752
v 0.00757359 -0.50403482 -0.06021802
v -0.03339267 -0.45162693 -0.07575597
v -0.00779254 -0.50869807 -0.06021802
v 0.09031088 -0.50685424 -0.06654662
v 0.09031088 -0.50655181 -0.07232325
v 0.09031088 -0.50576159 -0.08088238
v 0.00581227 -0.45211472 -0.13743148
v -0.00537829 -0.46259240 -0.13743148
v -0.01793539 -0.46355820 -0.13743148
v -0.00779254 -0.44663199 -0.13746173
v 0.09031088 -0.50079592 -0.08296167
v -0.02616509 -0.45063185 -0.13743148
v -0.03278530 -0.47942107 -0.12234719
v -0.03922329 -0.47942107 -0.10851046
v -0.04396068 -0.47942107 -0.09273810
v -0.04396068 -0.46511913 -0.09296494
v -0.04396068 -0.45063185 -0.08337752
v -0.00469502 -0.50799565 -0.06021802
v -0.04396068 -0.47942107 -0.08352118
v -0.00779254 -0.51076630 -0.09401593
v 0.00982084 -0.51030777 -0.09401593
v -0.00779254 -0.50843466 -0.10899437
v -0.00779254 -0.50682496 -0.11237415
v -0.00779254 -0.50428848 -0.11563297
v 0.07912032 -0.50209342 -0.08719585
v -0.01802650 -0.46353869 -0.13743148
v -0.02807829 -0.46148023 -0.13213118
v -0.00779254 -0.51073702 -0.09849206
f 1 2 3
f 1 3 4
f 1 4 5
f 1 5 6
f 1 6 7
f 1 7 8
f 1 8 9
f 1 9 2
f 2 9 3
f 3 9 4
f 4 9 10
f 4 10 11
f 4 11 12
f 4 12 13
f 4 13 14
f 4 14 5
f 5 15 16
f 5 16 6
f 5 14 17
f 5 17 18
f 5 18 19
f 5 19 15
f 6 20 21
f 6 21 7
f 6 16 20
f 7 21 8
f 8 22 23
f 8 23 24
f 8 24 9
f 8 21 25
f 8 25 26
f 8 26 27
f 8 27 22
f 9 24 28
f 9 28 29
f 9 29 10
f 10 29 30
f 10 30 11
f 11 30 31
f 11 31 12
f 12 32 33
f 12 33 50
f 12 50 35
f 12 35 14
f 12 14 13
f 12 31 34
f 12 34 32
f 14 35 17
f 15 19 36
f 15 36 37
f 15 37 38
f 15 38 16
f 16 38 20
f 17 35 18
f 18 35 19
f 19 35 36
f 20 39 56
f 20 56 55
f 20 55 59
f 20 59 57
f 20 57 40
f 20 40 21
f 20 38 39
f 21 40 25
f 22 27 43
f 22 43 58
f 22 58 41
f 22 41 23
f 23 41 28
f 23 28 24
f 25 40 26
f 26 40 57
f 26 57 42
f 26 42 43
f 26 43 27
f 28 44 30
f 28 30 29
f 28 41 44
f 30 44 45
f 30 45 46
f 30 46 34
f 30 34 31
f 32 47 33
f 32 34 47
f 33 47 48
f 33 48 49
f 33 49 50
f 34 46 51
f 34 51 47
f 35 50 52
f 35 52 36
f 36 52 37
f 37 52 53
f 37 53 38
f 38 54 55
f 38 55 56
f 38 56 39
f 38 53 54
f 41 58 44
f 42 57 59
f 42 59 43
f 43 60 44
f 43 44 58
f 43 59 60
f 44 60 61
f 44 61 45
f 45 61 46
f 46 61 62
f 46 62 63
f 46 63 64
f 46 64 65
f 46 65 51
f 47 51 65
f 47 65 48
f 48 65 64
f 48 64 49
f 49 64 66
f 49 66 50
f 50 66 52
f 52 67 53
f 52 66 67
f 53 67 66
f 53 66 64
f 53 64 63
f 53 63 62
f 53 62 54
f 54 62 55
f 55 62 68
f 55 68 60
f 55 60 59
f 60 68 61
f 61 68 62

