# https://github.com/mikedh/trimesh
v 0.99228706 0.11939731 -0.03603137
v 0.99228706 0.11804758 -0.02274663
v 0.99228706 0.11925335 -0.05053413
v 0.74942967 0.11696780 -0.06500856
v 0.77711054 0.11201880 -0.03550737
v 0.80771544 0.09407647 -0.02329899
v 0.76262032 -0.00285180 0.01229222
v 0.85086121 0.00202519 0.01229222
v 0.86652105 -0.00020634 0.01229222
v 0.87249907 -0.01408152 0.01229222
v 0.87298640 -0.01555722 0.01229222
v 0.87652774 -0.03126802 0.01229222
v 0.99228706 0.04213904 -0.02274663
v 0.99228706 0.11790361 -0.06891750
v 0.67697857 0.11374645 -0.08007781
v 0.67697857 0.11313458 -0.06488108
v 0.77711054 0.11565407 -0.07817999
v 0.73006605 -0.00499338 0.00754767
v 0.76262032 -0.04971427 0.01229222
v 0.87643028 -0.03456134 0.01229222
v 0.87532565 -0.04127398 0.01229222
v 0.87678764 -0.04276768 -0.00701172
v 0.99228706 0.04087929 -0.03603137
v 0.99228706 0.04329080 -0.06891750
v 0.80771544 -0.00101619 -0.12555468
v 0.80771544 0.01345288 -0.12501650
v 0.80771544 0.02986553 -0.12001702
v 0.77711054 0.11158690 -0.09288103
v 0.77711054 0.11198282 -0.09230034
v 0.67697857 0.11354850 -0.08047437
v 0.66044152 0.09817963 -0.08410005
v 0.66044152 0.09817963 -0.06479611
v 0.73006605 -0.05156788 0.00754767
v 0.66125376 0.05219899 -0.05193625
v 0.66125376 0.05210901 -0.05192209
v 0.76395238 -0.05023615 0.01229222
v 0.86876281 -0.04550312 0.01229222
v 0.99228706 0.04086129 -0.03774509
v 0.86538392 -0.04930034 -0.00701172
v 0.82993811 -0.05196381 -0.08036107
v 0.99228706 0.04140118 -0.05318257
v 0.99228706 0.04123921 -0.05053413
v 0.80771544 -0.05387143 -0.10455120
v 0.77142491 -0.05194580 -0.13044087
v 0.77181479 -0.04451333 -0.13073829
v 0.76398487 -0.03000828 -0.13239534
v 0.76398487 -0.01552121 -0.13239534
v 0.76398487 -0.00101619 -0.13214040
v 0.77194474 0.00659628 -0.13058250
v 0.76398487 0.00713617 -0.13107820
v 0.75570010 0.00708218 -0.13104986
v 0.69764175 0.10825758 -0.08706009
v 0.66044152 0.09736978 -0.08208894
v 0.66125376 0.05660809 -0.09635092
v 0.66125376 0.04793387 -0.09635092
v 0.66044152 0.09790969 -0.06537680
v 0.66125376 0.04879767 -0.05192209
v 0.73006605 -0.05797458 0.00389366
v 0.73006605 -0.06443527 -0.00148821
v 0.77847508 -0.05050611 0.01229222
v 0.86538392 -0.04728476 0.01229222
v 0.82197823 -0.05433932 -0.07949714
v 0.82197823 -0.05426734 -0.08036107
v 0.85771645 -0.04906639 0.01229222
v 0.85086121 -0.05056009 0.01229222
v 0.79296531 -0.05883841 -0.05057662
v 0.80771544 -0.05702077 -0.06500856
v 0.80745553 -0.05700278 -0.07948298
v 0.80745553 -0.05649889 -0.09398572
v 0.80771544 -0.05642690 -0.09397157
v 0.80771544 -0.05552708 -0.09785218
v 0.80745553 -0.05390741 -0.10463617
v 0.77847508 -0.05684081 -0.10850263
v 0.76398487 -0.05471725 -0.12300539
v 0.76398487 -0.05241371 -0.13087992
v 0.76398487 -0.04451333 -0.13191380
v 0.75531023 -0.04453132 -0.13144643
v 0.75505031 -0.03002627 -0.13167304
v 0.75826675 -0.02075815 -0.13194213
v 0.75826675 -0.01552121 -0.13194213
v 0.75511529 -0.00101619 -0.13155974
v 0.75829924 0.00456269 -0.13140395
v 0.66044152 0.09722582 -0.08172070
v 0.75505031 -0.01552121 -0.13167304
v 0.71209949 -0.05264766 -0.08765494
v 0.71089738 -0.05356548 -0.07949714
v 0.66125376 0.04548636 -0.08082844
v 0.75596002 -0.05244971 -0.13089408
v 0.66044152 0.09709985 -0.07948298
v 0.66125376 0.04577429 -0.06619822
v 0.66125376 0.04588228 -0.06502271
v 0.66125376 0.04841975 -0.05360747
v 0.71164463 -0.05298960 -0.06500856
v 0.77847508 -0.06015214 -0.06500856
v 0.73006605 -0.06443527 -0.00257875
v 0.79296531 -0.05880242 -0.06500856
v 0.79296531 -0.05799259 -0.09398572
v 0.80745553 -0.05558108 -0.09785218
v 0.78909908 -0.05772263 -0.09785218
v 0.77847508 -0.05837051 -0.09785218
v 0.76398487 -0.05739870 -0.10850263
v 0.74946216 -0.05873042 -0.09398572
v 0.75826675 -0.05311557 -0.12862803
v 0.75829924 -0.05241371 -0.13089408
v 0.66125376 0.04546836 -0.08068680
v 0.72044923 -0.05405138 -0.09078492
v 0.72044923 -0.05651689 -0.07949714
v 0.66125376 0.04541437 -0.07951129
v 0.73376983 -0.05570704 -0.09524622
v 0.77847508 -0.05972023 -0.07948298
v 0.73497194 -0.05849647 -0.07949714
v 0.75826675 -0.05966623 -0.08520477
v 0.75826675 -0.06006215 -0.07949714
v 0.76398487 -0.06022412 -0.07948298
v 0.76941058 -0.06004416 -0.07948298
v 0.77847508 -0.05889239 -0.09398572
v 0.77460886 -0.05851447 -0.09785218
v 0.76398487 -0.05865844 -0.09785218
v 0.75826675 -0.05898238 -0.09398572
v 0.76398487 -0.05907236 -0.09398572
v 0.76941058 -0.05901837 -0.09398572
f 1 2 13
f 1 13 23
f 1 23 38
f 1 38 42
f 1 42 41
f 1 41 24
f 1 24 14
f 1 14 3
f 1 3 4
f 1 4 2
f 2 5 6
f 2 6 7
f 2 7 8
f 2 8 9
f 2 9 10
f 2 10 11
f 2 11 12
f 2 12 13
f 2 4 5
f 3 14 4
f 4 15 16
f 4 16 5
f 4 14 17
f 4 17 15
f 5 16 18
f 5 18 7
f 5 7 6
f 7 18 33
f 7 33 19
f 7 19 36
f 7 36 60
f 7 60 65
f 7 65 64
f 7 64 61
f 7 61 37
f 7 37 21
f 7 21 20
f 7 20 12
f 7 12 11
f 7 11 10
f 7 10 9
f 7 9 8
f 12 20 13
f 13 20 21
f 13 21 22
f 13 22 23
f 14 24 25
f 14 25 26
f 14 26 27
f 14 27 28
f 14 28 29
f 14 29 17
f 15 30 31
f 15 31 32
f 15 32 16
f 15 17 29
f 15 29 30
f 16 32 18
f 18 32 34
f 18 34 35
f 18 35 57
f 18 57 33
f 19 33 36
f 21 37 22
f 22 38 23
f 22 37 39
f 22 39 40
f 22 40 24
f 22 24 41
f 22 41 42
f 22 42 38
f 24 40 43
f 24 43 44
f 24 44 25
f 25 44 45
f 25 45 46
f 25 46 47
f 25 47 48
f 25 48 26
f 26 48 49
f 26 49 27
f 27 49 50
f 27 50 28
f 28 50 51
f 28 51 52
f 28 52 30
f 28 30 29
f 30 52 31
f 31 53 83
f 31 83 89
f 31 89 56
f 31 56 32
f 31 52 51
f 31 51 54
f 31 54 55
f 31 55 53
f 32 56 57
f 32 57 35
f 32 35 34
f 33 57 58
f 33 58 36
f 36 58 59
f 36 59 60
f 37 61 39
f 39 62 63
f 39 63 40
f 39 61 64
f 39 64 65
f 39 65 66
f 39 66 67
f 39 67 68
f 39 68 69
f 39 69 62
f 40 63 70
f 40 70 71
f 40 71 43
f 43 71 72
f 43 72 44
f 44 72 73
f 44 73 74
f 44 74 75
f 44 75 76
f 44 76 45
f 45 76 46
f 46 76 77
f 46 77 78
f 46 78 79
f 46 79 80
f 46 80 47
f 47 80 81
f 47 81 48
f 48 81 82
f 48 82 50
f 48 50 49
f 50 82 51
f 51 82 81
f 51 81 54
f 53 55 83
f 54 81 84
f 54 84 78
f 54 78 55
f 55 85 86
f 55 86 87
f 55 87 83
f 55 78 77
f 55 77 88
f 55 88 85
f 56 89 90
f 56 90 91
f 56 91 92
f 56 92 57
f 57 92 93
f 57 93 59
f 57 59 58
f 59 94 66
f 59 66 65
f 59 65 60
f 59 93 86
f 59 86 95
f 59 95 94
f 62 69 63
f 63 69 70
f 66 94 96
f 66 96 67
f 67 96 68
f 68 96 97
f 68 97 69
f 69 98 71
f 69 71 70
f 69 97 99
f 69 99 73
f 69 73 98
f 71 98 72
f 72 98 73
f 73 99 100
f 73 100 101
f 73 101 74
f 74 101 102
f 74 102 103
f 74 103 75
f 75 103 88
f 75 88 104
f 75 104 76
f 76 104 88
f 76 88 77
f 78 84 80
f 78 80 79
f 80 84 81
f 83 87 105
f 83 105 89
f 85 106 107
f 85 107 86
f 85 88 106
f 86 107 95
f 86 93 91
f 86 91 90
f 86 90 108
f 86 108 105
f 86 105 87
f 88 103 102
f 88 102 109
f 88 109 107
f 88 107 106
f 89 105 108
f 89 108 90
f 91 93 92
f 94 110 97
f 94 97 96
f 94 95 110
f 95 111 102
f 95 102 112
f 95 112 113
f 95 113 114
f 95 114 115
f 95 115 110
f 95 107 111
f 97 110 116
f 97 116 99
f 99 116 100
f 100 116 117
f 100 117 101
f 101 117 118
f 101 118 119
f 101 119 102
f 102 111 107
f 102 107 109
f 102 119 112
f 110 115 116
f 112 119 114
f 112 114 113
f 114 119 120
f 114 120 121
f 114 121 116
f 114 116 115
f 116 121 117
f 117 121 118
f 118 121 120
f 118 120 119

