# https://github.com/mikedh/trimesh
v 0.09926572 -0.01916421 -0.13244535
v 0.09922441 -0.03006039 -0.13241470
v 0.09199306 -0.01557868 -0.12861554
v 0.09926572 -0.01557868 -0.13244535
v 0.10740613 -0.01916421 -0.13244535
v 0.10736481 -0.03006039 -0.13241470
v 0.09972027 -0.04456356 -0.13216960
v 0.09199306 -0.03006039 -0.12846236
v 0.09199306 -0.01916421 -0.12858489
v 0.07434856 0.00412033 -0.11617638
v 0.07434856 0.00665380 -0.11617638
v 0.09224097 -0.00108623 -0.12843172
v 0.09951364 -0.00108623 -0.13226151
v 0.10740613 -0.01557868 -0.13244535
v 0.16930648 0.01342768 -0.12487766
v 0.10695162 -0.04456356 -0.13216960
v 0.10149711 -0.05291550 -0.13134236
v 0.09248893 -0.04456356 -0.12791087
v 0.06075361 -0.02127903 -0.10113294
v 0.06038174 -0.01161741 -0.10156188
v 0.06021646 -0.00108623 -0.10183763
v 0.06029910 0.00648205 -0.10174572
v 0.06885273 0.00777027 -0.10735254
v 0.11360446 0.01648722 -0.12080277
v 0.10120784 0.00752336 -0.13149555
v 0.10753013 -0.00108623 -0.13226151
v 0.16930648 0.01648722 -0.12408106
v 0.18381049 0.01648722 -0.12221212
v 0.18381049 0.01342768 -0.12285555
v 0.10641443 0.00752336 -0.13149555
v 0.10575329 -0.05291550 -0.13134236
v 0.09686906 -0.05717736 -0.10851679
v 0.09674506 -0.05424667 -0.12328446
v 0.08748893 -0.05318388 -0.11865808
v 0.05695202 -0.05338785 -0.08903080
v 0.05459668 -0.04456356 -0.09105293
v 0.05401813 -0.03006039 -0.09286058
v 0.05488591 -0.01916421 -0.09482145
v 0.05513382 -0.01610469 -0.09537295
v 0.05389417 -0.00108623 -0.09399421
v 0.04703474 -0.00108623 -0.08324014
v -0.00866728 0.01646574 0.02675154
v 0.05736521 0.00780247 -0.09399421
v 0.09843926 0.01648722 -0.10591252
v 0.10091861 0.01648722 -0.10851679
v 0.32856142 0.03730265 0.00769449
v 0.12583577 0.01648722 -0.12218148
v 0.14025714 0.01648722 -0.12349895
v 0.15480247 0.01648722 -0.12435681
v 0.16624863 0.01648722 -0.12417299
v 0.33071014 0.03730265 0.00769449
v 0.34335466 0.03730265 0.00827661
v 0.19591784 0.01648722 -0.11825978
v 0.19637239 0.01342768 -0.11844360
v 0.19476083 0.00209139 -0.11780022
v 0.11133176 -0.05699486 -0.10851679
v 0.35773471 -0.06073069 -0.00122128
v 0.09686906 -0.05900233 -0.09399421
v 0.08236505 -0.05840116 -0.09399421
v 0.11133176 -0.05917409 -0.09399421
v 0.10542270 -0.07236758 0.01075833
v 0.06798500 -0.05523430 -0.09393293
v -0.00011365 -0.06073069 -0.00192595
v 0.04736529 -0.04456356 -0.08262738
v 0.04674547 -0.03006039 -0.08382228
v 0.04666283 -0.01557868 -0.08382228
v -0.00027897 -0.05904527 -0.00204850
v -0.01135326 0.01646574 0.03165367
v 0.31587556 0.03730265 0.02258472
v 0.31674334 0.03730265 0.02105280
v 0.32157798 0.03730265 0.01553791
v 0.34389185 0.03730265 0.02243153
v 0.40885001 -0.06074143 0.04369455
v 0.12583577 -0.05852999 -0.09399421
v 0.12343906 -0.07236758 0.01048258
v 0.12211678 -0.07236758 0.01042130
v 0.10542270 -0.07236758 0.03866986
v -0.00498965 -0.06074143 0.10898488
v -0.00395660 -0.06073069 0.02206387
v -0.00329545 -0.06073069 0.00741875
v -0.00292354 -0.06073069 0.00631576
v -0.00362605 -0.05904527 0.00757192
v -0.01284082 0.01646574 0.03649454
v 0.31380945 0.03730265 0.03428857
v 0.40930456 -0.06074143 0.18055608
v 0.33612331 0.03730265 0.04390902
v 0.12343906 -0.07236758 0.05101711
v 0.11538130 -0.07236758 0.05101711
v -0.00019633 -0.06074143 0.13263768
v -0.00403923 -0.06074143 0.12344618
v -0.00416319 -0.06074143 0.12179171
v -0.00403923 -0.05905600 0.12344618
v -0.01110530 0.01646574 0.04795328
v 0.31380945 0.03730265 0.03775071
v 0.11162099 -0.06074143 0.18055608
v 0.40186659 -0.05535238 0.18055608
v 0.32880933 0.03730265 0.04694221
v 0.40124677 -0.05497665 0.18055608
v -0.00019633 -0.05905600 0.13260705
v 0.00083673 -0.05050010 0.13187173
v 0.00058881 0.01016421 0.08208440
v -0.00077479 0.01646574 0.06670395
v 0.31678466 0.03730265 0.04905627
v 0.11174494 -0.05983968 0.18055608
v 0.38678408 -0.05257198 0.18055608
v 0.38769315 -0.05272227 0.18055608
v 0.00707638 -0.03011405 0.11958575
v 0.10711690 -0.04973790 0.17608288
v 0.05658011 -0.03011405 0.14961133
v 0.00984495 0.01495207 0.08208440
v 0.01992751 0.01646574 0.08208440
v 0.32050361 -0.04973790 0.18055608
v 0.05195202 0.01646574 0.08208440
v 0.13046381 -0.04973790 0.18055608
f 1 2 3
f 1 3 4
f 1 4 14
f 1 14 5
f 1 5 6
f 1 6 2
f 2 6 16
f 2 16 7
f 2 7 8
f 2 8 9
f 2 9 3
f 3 9 10
f 3 10 11
f 3 11 12
f 3 12 13
f 3 13 4
f 4 13 26
f 4 26 14
f 5 14 15
f 5 15 6
f 6 15 16
f 7 16 31
f 7 31 17
f 7 17 18
f 7 18 8
f 8 18 10
f 8 10 9
f 10 19 20
f 10 20 21
f 10 21 11
f 10 18 19
f 11 21 22
f 11 22 23
f 11 23 24
f 11 24 25
f 11 25 12
f 12 25 13
f 13 25 30
f 13 30 26
f 14 26 15
f 15 27 28
f 15 28 29
f 15 29 16
f 15 26 30
f 15 30 27
f 16 29 31
f 17 31 32
f 17 32 33
f 17 33 34
f 17 34 18
f 18 34 35
f 18 35 36
f 18 36 19
f 19 36 37
f 19 37 38
f 19 38 39
f 19 39 20
f 20 39 21
f 21 39 40
f 21 40 22
f 22 40 41
f 22 41 42
f 22 42 43
f 22 43 23
f 23 43 44
f 23 44 45
f 23 45 24
f 24 45 46
f 24 46 47
f 24 47 25
f 25 47 48
f 25 48 49
f 25 49 30
f 27 30 50
f 27 50 51
f 27 51 52
f 27 52 28
f 28 52 53
f 28 53 29
f 29 53 54
f 29 54 55
f 29 55 31
f 30 49 50
f 31 56 32
f 31 55 57
f 31 57 56
f 32 58 59
f 32 59 33
f 32 56 60
f 32 60 61
f 32 61 58
f 33 59 62
f 33 62 34
f 34 62 35
f 35 63 64
f 35 64 36
f 35 62 63
f 36 64 37
f 37 64 65
f 37 65 38
f 38 65 39
f 39 65 40
f 40 65 66
f 40 66 41
f 41 66 67
f 41 67 68
f 41 68 42
f 42 68 69
f 42 69 70
f 42 70 44
f 42 44 43
f 44 70 71
f 44 71 46
f 44 46 45
f 46 71 70
f 46 70 69
f 46 69 84
f 46 84 94
f 46 94 103
f 46 103 97
f 46 97 86
f 46 86 72
f 46 72 52
f 46 52 51
f 46 51 49
f 46 49 48
f 46 48 47
f 49 51 50
f 52 72 73
f 52 73 57
f 52 57 53
f 53 57 54
f 54 57 55
f 56 57 74
f 56 74 60
f 57 73 75
f 57 75 60
f 57 60 74
f 58 61 59
f 59 63 62
f 59 61 63
f 60 75 76
f 60 76 61
f 61 76 75
f 61 75 87
f 61 87 88
f 61 88 77
f 61 77 78
f 61 78 79
f 61 79 80
f 61 80 81
f 61 81 63
f 63 81 82
f 63 82 67
f 63 67 64
f 64 67 65
f 65 67 66
f 67 82 68
f 68 82 83
f 68 83 69
f 69 83 84
f 72 85 73
f 72 86 85
f 73 85 75
f 75 85 87
f 77 88 89
f 77 89 90
f 77 90 91
f 77 91 78
f 78 91 83
f 78 83 79
f 79 82 80
f 79 83 82
f 80 82 81
f 83 91 90
f 83 90 92
f 83 92 93
f 83 93 94
f 83 94 84
f 85 95 88
f 85 88 87
f 85 86 96
f 85 96 98
f 85 98 106
f 85 106 105
f 85 105 112
f 85 112 114
f 85 114 104
f 85 104 95
f 86 97 98
f 86 98 96
f 88 95 89
f 89 99 92
f 89 92 90
f 89 95 99
f 92 99 100
f 92 100 93
f 93 100 101
f 93 101 102
f 93 102 103
f 93 103 94
f 95 104 99
f 97 103 105
f 97 105 106
f 97 106 98
f 99 104 100
f 100 107 101
f 100 104 108
f 100 108 109
f 100 109 107
f 101 107 109
f 101 109 110
f 101 110 102
f 102 110 111
f 102 111 103
f 103 112 105
f 103 111 113
f 103 113 112
f 104 114 108
f 108 114 109
f 109 111 110
f 109 114 111
f 111 114 112
f 111 112 113

