# https://github.com/mikedh/trimesh
v 0.15474127 0.02791698 0.12707967
v 0.20030195 0.09963929 0.10889001
v 0.20030195 0.09881205 0.12068436
v 0.15474127 0.02791698 0.13874547
v 0.14750240 0.02791698 0.13069510
v 0.15482840 0.09588724 -0.01930531
v 0.16969823 0.09684247 -0.01930531
v 0.18381300 0.10287925 -0.01930531
v 0.20030195 0.10019076 0.10686536
v 0.20030195 0.11713900 0.12068436
v 0.15474127 0.05693877 0.14485154
v 0.12613425 0.04317138 0.13570850
v 0.14750240 0.02791698 0.13175563
v 0.12613425 0.04041398 0.12304645
v 0.12613425 0.04642119 0.10864897
v 0.15474853 0.09591678 -0.01930531
v 0.18381300 0.11257943 -0.01930531
v 0.20029469 0.10420871 0.09388193
v 0.20029469 0.10320422 0.09595478
v 0.20030195 0.11516942 0.10686536
v 0.20030195 0.11612468 0.10901855
v 0.18257867 0.11316045 -0.01930531
v 0.17234838 0.12746947 0.12068436
v 0.15474127 0.08216910 0.14343750
v 0.12613425 0.05994237 0.13599774
v 0.12613425 0.05720466 0.13607808
v 0.12613425 0.04361454 0.13578885
v 0.12612699 0.09962944 0.11316426
v 0.12613425 0.04045336 0.12330354
v 0.12612699 0.10065361 0.10898642
v 0.12612699 0.10175658 0.10712246
v 0.14290638 0.10472081 -0.00328491
v 0.15474853 0.09859541 -0.01930531
v 0.20029469 0.11150601 0.09388193
v 0.16930618 0.11626255 -0.01930531
v 0.16932070 0.12851333 0.12068436
v 0.15474853 0.12124559 0.12068436
v 0.12612699 0.11500201 0.11316426
v 0.12612699 0.11251050 0.10720280
v 0.14290638 0.11043259 -0.00328491
v 0.15476305 0.11651859 -0.01930531
v 0.12612699 0.11285516 0.10781341
f 1 2 3
f 1 3 4
f 1 4 13
f 1 13 5
f 1 5 6
f 1 6 7
f 1 7 8
f 1 8 2
f 2 8 9
f 2 9 20
f 2 20 21
f 2 21 10
f 2 10 3
f 3 10 11
f 3 11 4
f 4 11 12
f 4 12 13
f 5 13 14
f 5 14 15
f 5 15 16
f 5 16 6
f 6 16 33
f 6 33 41
f 6 41 35
f 6 35 22
f 6 22 17
f 6 17 8
f 6 8 7
f 8 17 34
f 8 34 18
f 8 18 19
f 8 19 9
f 9 19 18
f 9 18 34
f 9 34 20
f 10 21 22
f 10 22 23
f 10 23 24
f 10 24 11
f 11 24 25
f 11 25 26
f 11 26 27
f 11 27 12
f 12 27 28
f 12 28 29
f 12 29 13
f 13 29 14
f 14 29 28
f 14 28 30
f 14 30 15
f 15 30 31
f 15 31 32
f 15 32 16
f 16 32 40
f 16 40 33
f 17 22 21
f 17 21 34
f 20 34 21
f 22 35 36
f 22 36 23
f 23 36 24
f 24 36 37
f 24 37 38
f 24 38 25
f 25 38 26
f 26 38 28
f 26 28 27
f 28 38 42
f 28 42 39
f 28 39 31
f 28 31 30
f 31 39 40
f 31 40 32
f 33 40 41
f 35 41 36
f 36 41 38
f 36 38 37
f 38 41 40
f 38 40 42
f 39 42 40

