# https://github.com/mikedh/trimesh
v 0.65524207 -0.14607871 0.35852016
v 0.65524207 -0.15621777 0.35992154
v 0.65524207 -0.14009397 0.35891660
v 1.15004149 -0.10250768 0.37457146
v 1.15004149 -0.18990994 0.37457146
v 0.65524207 -0.16057846 0.36082505
v 0.65524207 -0.13160588 0.35948821
v 1.19181027 -0.10250768 0.40615776
v 1.19186291 -0.10258843 0.40618542
v 0.65524207 -0.11646009 0.36227253
v 0.65524207 -0.11210838 0.36362781
v 0.65524207 -0.10468802 0.37023825
v 0.65524207 -0.10099130 0.37804724
v 0.65524207 -0.09833541 0.38457471
v 1.19186291 -0.18991892 0.40618542
v 1.15004149 -0.18991892 0.37462677
v 0.65524207 -0.17719574 0.36923332
v 0.65524207 -0.17576910 0.36812697
v 0.65524207 -0.16838463 0.36263209
v 0.65524207 -0.16782833 0.36244770
v 1.19328504 -0.10250768 0.41349655
v 0.65524207 -0.09825466 0.39906789
v 1.19333772 -0.10258843 0.41355187
v 1.19333772 -0.18991892 0.41355187
v 1.15004149 -0.18991892 0.39908635
v 0.65524207 -0.17719574 0.44368149
v 1.19317971 -0.10250768 0.42198779
v 0.65524207 -0.09829952 0.40619465
v 1.19317971 -0.10258843 0.42202466
v 1.19317971 -0.11708818 0.42205232
v 1.19317971 -0.16057846 0.42207078
v 1.19317971 -0.18991892 0.42202466
v 1.15446588 -0.18991892 0.40210115
v 1.16157660 -0.18991892 0.40687688
v 1.16979342 -0.18991892 0.41229800
v 1.18111787 -0.18991892 0.41897299
v 1.18833388 -0.18991892 0.42202466
v 0.66224742 -0.17719574 0.44368149
v 0.99587095 -0.15504235 0.45075290
v 0.99587095 -0.14607871 0.45270746
v 0.65524207 -0.10126049 0.44368149
v 1.12644450 -0.11887373 0.43887807
v 0.65524207 -0.09838924 0.41354264
v 0.65524207 -0.09866739 0.42069706
v 0.65524207 -0.10012993 0.43519945
v 1.16357814 -0.15282612 0.43574342
v 1.12644450 -0.13160588 0.44397651
v 1.12644450 -0.14607871 0.44574667
v 1.16357814 -0.15544612 0.43574342
v 1.14092923 -0.16057846 0.44204038
v 1.12644450 -0.16057846 0.44548851
v 1.14092923 -0.17027786 0.43938516
v 1.12644450 -0.17214416 0.44013194
v 0.99587095 -0.13284409 0.45172095
v 1.11195972 -0.14607871 0.44772889
v 0.99587095 -0.12560320 0.44922246
f 1 2 6
f 1 6 20
f 1 20 19
f 1 19 18
f 1 18 17
f 1 17 26
f 1 26 41
f 1 41 45
f 1 45 44
f 1 44 43
f 1 43 28
f 1 28 22
f 1 22 14
f 1 14 13
f 1 13 12
f 1 12 11
f 1 11 10
f 1 10 7
f 1 7 3
f 1 3 4
f 1 4 5
f 1 5 2
f 2 5 6
f 3 7 4
f 4 8 9
f 4 9 15
f 4 15 5
f 4 7 10
f 4 10 11
f 4 11 12
f 4 12 13
f 4 13 14
f 4 14 8
f 5 15 16
f 5 16 17
f 5 17 18
f 5 18 19
f 5 19 20
f 5 20 6
f 8 21 9
f 8 14 22
f 8 22 21
f 9 21 23
f 9 23 24
f 9 24 15
f 15 24 32
f 15 32 37
f 15 37 36
f 15 36 35
f 15 35 34
f 15 34 33
f 15 33 25
f 15 25 16
f 16 25 26
f 16 26 17
f 21 22 27
f 21 27 23
f 22 28 27
f 23 27 29
f 23 29 30
f 23 30 31
f 23 31 24
f 24 31 32
f 25 33 26
f 26 33 34
f 26 34 35
f 26 35 36
f 26 36 37
f 26 37 32
f 26 32 38
f 26 38 39
f 26 39 40
f 26 40 41
f 27 42 29
f 27 28 43
f 27 43 44
f 27 44 45
f 27 45 41
f 27 41 42
f 29 46 30
f 29 42 47
f 29 47 48
f 29 48 46
f 30 46 31
f 31 46 49
f 31 49 32
f 32 49 50
f 32 50 51
f 32 51 52
f 32 52 53
f 32 53 38
f 38 53 39
f 39 53 51
f 39 51 40
f 40 54 41
f 40 51 55
f 40 55 54
f 41 54 56
f 41 56 42
f 42 56 47
f 46 48 50
f 46 50 49
f 47 55 48
f 47 56 54
f 47 54 55
f 48 55 51
f 48 51 50
f 51 53 52

