# https://github.com/mikedh/trimesh
v 0.29984591 0.01642697 0.06847933
v 0.30957013 0.01758132 0.07547216
v 0.29886632 0.01691791 0.08017850
v 0.28523402 0.01705060 0.07989269
v 0.34617121 0.01707711 -0.03599399
v 0.35437508 0.01707711 -0.03599399
v 0.33620208 0.03735125 0.04389961
v 0.31081501 0.02795722 0.07680595
v 0.27890767 0.02014211 0.10203350
v 0.28438712 0.01823146 0.09364972
v 0.35332409 0.01774055 -0.02149387
v 0.35171188 0.01947870 -0.01318631
v 0.27630571 0.01809878 0.09448809
v 0.27612202 0.01780689 0.08465621
v 0.34771197 0.01788648 -0.05047505
v 0.35507914 0.01788648 -0.05047505
v 0.36009941 0.02794395 -0.05047505
v 0.35931371 0.02794395 -0.03599399
v 0.33620208 0.08084513 0.04389961
v 0.34396718 0.03735125 0.02238760
v 0.34474268 0.04245961 0.02196840
v 0.34523246 0.05696197 0.02196840
v 0.34527326 0.07143783 0.02196840
v 0.34532428 0.10042932 0.02196840
v 0.31081501 0.12944735 0.07680595
v 0.29559090 0.07145110 0.09081065
v 0.29555010 0.05693544 0.09077255
v 0.29532561 0.04247287 0.09054390
v 0.28651970 0.02795722 0.09688890
v 0.28651970 0.04247287 0.09780349
v 0.27928520 0.02795722 0.10218592
v 0.25767354 0.04890806 0.11565713
v 0.27767299 0.02014211 0.10203350
v 0.35695664 0.02794395 -0.02149387
v 0.25767354 0.04176963 0.10811173
v 0.25767354 0.04264537 0.09448809
v 0.25767354 0.04768736 0.08033094
v 0.25767354 0.04795273 0.07987364
v 0.33455927 0.04744852 -0.07899896
v 0.34917112 0.01906739 -0.05878263
v 0.35404855 0.01906739 -0.05878263
v 0.35578320 0.02794395 -0.05933520
v 0.35730357 0.03920884 -0.05939234
v 0.36131367 0.04245961 -0.05047505
v 0.36046674 0.04245961 -0.03599399
v 0.35818110 0.04245961 -0.02149387
v 0.33620208 0.12943408 0.04388055
v 0.35829334 0.05694871 -0.02149387
v 0.35768110 0.11494496 -0.02151293
v 0.34448758 0.12943408 0.02196840
v 0.33616126 0.13714303 0.04384245
v 0.30957013 0.14394974 0.07547216
v 0.29531541 0.12944735 0.09052485
v 0.29546846 0.11493169 0.09069634
v 0.28652990 0.11493169 0.09793687
v 0.28651970 0.07145110 0.09807024
v 0.28651970 0.05693544 0.09803215
v 0.25767354 0.05737330 0.11565713
v 0.25767354 0.05669660 0.08090256
v 0.25988777 0.11043371 0.06920338
v 0.25988777 0.10519269 0.06920338
v 0.25994897 0.10521923 0.06905094
v 0.33407968 0.05718754 -0.07899896
v 0.34038565 0.04490100 -0.07899896
v 0.34413045 0.04344147 -0.07551206
v 0.35647706 0.04245961 -0.06200277
v 0.35704846 0.05692217 -0.06343181
v 0.35483423 0.10171636 -0.07553112
v 0.36191569 0.05694871 -0.05047505
v 0.36048717 0.05694871 -0.03599399
v 0.35749743 0.12061058 -0.02149387
v 0.35846680 0.12061058 -0.02715292
v 0.35719132 0.12944735 -0.02149387
v 0.35347713 0.14453354 -0.02162724
v 0.30789672 0.15171174 0.07366202
v 0.34077338 0.14373744 0.02168260
v 0.33817142 0.15175155 0.01667139
v 0.29436646 0.13962423 0.08940066
v 0.28652990 0.12944735 0.09778444
v 0.27928520 0.12944735 0.10218592
v 0.27888727 0.13827085 0.10203350
v 0.25988777 0.11486534 0.10961700
v 0.25767354 0.06898316 0.10813078
v 0.25767354 0.05686909 0.08099783
v 0.25994897 0.11040717 0.06905094
v 0.25767354 0.05694871 0.08105499
v 0.25767354 0.06663465 0.09328768
v 0.25988777 0.11333949 0.07537688
v 0.27750975 0.15163213 0.08623769
v 0.33331439 0.11164114 -0.07878938
v 0.34039585 0.06310527 -0.07899896
v 0.34039585 0.05393678 -0.07899896
v 0.35484445 0.11035410 -0.07553112
v 0.35483423 0.11369774 -0.07553112
v 0.36151774 0.11494496 -0.05047505
v 0.35968106 0.12944735 -0.03599399
v 0.35608931 0.14393647 -0.03599399
v 0.35115066 0.15147291 -0.02656224
v 0.29983571 0.15197712 0.07495770
v 0.28001990 0.15163213 0.08945783
v 0.28430547 0.14379051 0.09425944
v 0.35160983 0.15169848 -0.03599399
v 0.27768323 0.13827085 0.10203350
v 0.27750975 0.15163213 0.08945783
v 0.25988777 0.11835494 0.09502160
v 0.25988777 0.11847436 0.08995322
v 0.25767354 0.06692656 0.09401173
v 0.25988777 0.11479902 0.07949255
v 0.29983571 0.15197712 0.07128027
v 0.34974254 0.15157906 -0.04696911
v 0.34917112 0.14093779 -0.05878263
v 0.33992648 0.11515725 -0.07878938
v 0.34039585 0.11539609 -0.07878938
v 0.35404855 0.14093779 -0.05878263
v 0.36072185 0.12944735 -0.05047505
v 0.36121163 0.12061058 -0.05047505
v 0.35502812 0.14503773 -0.05125628
v 0.35138535 0.15157906 -0.04696911
v 0.34930378 0.15169848 -0.03599399
f 1 2 3
f 1 3 4
f 1 4 5
f 1 5 6
f 1 6 2
f 2 7 8
f 2 8 9
f 2 9 10
f 2 10 3
f 2 6 11
f 2 11 12
f 2 12 7
f 3 10 13
f 3 13 4
f 4 13 14
f 4 14 5
f 5 15 16
f 5 16 6
f 5 14 15
f 6 16 17
f 6 17 18
f 6 18 11
f 7 19 25
f 7 25 8
f 7 12 20
f 7 20 21
f 7 21 22
f 7 22 23
f 7 23 24
f 7 24 19
f 8 25 26
f 8 26 27
f 8 27 28
f 8 28 29
f 8 29 9
f 9 29 30
f 9 30 31
f 9 31 32
f 9 32 33
f 9 33 13
f 9 13 10
f 11 18 34
f 11 34 12
f 12 34 20
f 13 33 35
f 13 35 14
f 14 35 36
f 14 36 37
f 14 37 38
f 14 38 39
f 14 39 40
f 14 40 15
f 15 40 41
f 15 41 16
f 16 41 17
f 17 41 42
f 17 42 43
f 17 43 44
f 17 44 18
f 18 44 45
f 18 45 46
f 18 46 34
f 19 24 47
f 19 47 25
f 20 34 21
f 21 34 46
f 21 46 22
f 22 46 48
f 22 48 23
f 23 48 24
f 24 48 49
f 24 49 50
f 24 50 51
f 24 51 47
f 25 47 51
f 25 51 52
f 25 52 53
f 25 53 54
f 25 54 26
f 26 54 55
f 26 55 56
f 26 56 57
f 26 57 27
f 27 57 30
f 27 30 28
f 28 30 29
f 30 57 31
f 31 57 32
f 32 58 83
f 32 83 107
f 32 107 87
f 32 87 86
f 32 86 84
f 32 84 59
f 32 59 38
f 32 38 37
f 32 37 36
f 32 36 35
f 32 35 33
f 32 57 56
f 32 56 58
f 38 59 60
f 38 60 61
f 38 61 62
f 38 62 39
f 39 63 91
f 39 91 92
f 39 92 64
f 39 64 40
f 39 62 63
f 40 64 41
f 41 64 65
f 41 65 42
f 42 65 66
f 42 66 43
f 43 66 44
f 44 66 67
f 44 67 68
f 44 68 69
f 44 69 45
f 45 69 70
f 45 70 48
f 45 48 46
f 48 70 49
f 49 71 50
f 49 70 72
f 49 72 71
f 50 71 73
f 50 73 74
f 50 74 51
f 51 75 52
f 51 74 76
f 51 76 77
f 51 77 75
f 52 75 78
f 52 78 53
f 53 78 79
f 53 79 54
f 54 79 55
f 55 79 80
f 55 80 58
f 55 58 56
f 58 80 81
f 58 81 82
f 58 82 83
f 59 84 60
f 60 85 62
f 60 62 61
f 60 84 86
f 60 86 87
f 60 87 88
f 60 88 89
f 60 89 90
f 60 90 85
f 62 85 90
f 62 90 63
f 63 90 91
f 64 92 93
f 64 93 68
f 64 68 65
f 65 68 66
f 66 68 67
f 68 93 69
f 69 93 94
f 69 94 95
f 69 95 70
f 70 96 72
f 70 95 96
f 71 72 96
f 71 96 73
f 73 96 74
f 74 96 97
f 74 97 98
f 74 98 77
f 74 77 76
f 75 99 100
f 75 100 101
f 75 101 81
f 75 81 78
f 75 77 99
f 77 98 102
f 77 102 99
f 78 81 79
f 79 81 80
f 81 103 82
f 81 101 100
f 81 100 104
f 81 104 103
f 82 103 104
f 82 104 105
f 82 105 83
f 83 105 106
f 83 106 107
f 87 107 88
f 88 107 108
f 88 108 89
f 89 108 106
f 89 106 104
f 89 104 99
f 89 99 109
f 89 109 110
f 89 110 90
f 90 110 111
f 90 111 112
f 90 112 91
f 91 112 113
f 91 113 94
f 91 94 93
f 91 93 92
f 94 113 114
f 94 114 115
f 94 115 116
f 94 116 95
f 95 116 96
f 96 116 115
f 96 115 97
f 97 102 98
f 97 115 117
f 97 117 118
f 97 118 102
f 99 102 109
f 99 104 100
f 102 118 110
f 102 110 119
f 102 119 109
f 104 106 105
f 106 108 107
f 109 119 110
f 110 118 114
f 110 114 111
f 111 114 113
f 111 113 112
f 114 118 117
f 114 117 115

