# https://github.com/mikedh/trimesh
v 0.36817849 -0.14432101 -0.01233683
v 0.19840466 -0.14432919 -0.00661507
v 0.16761488 -0.14432919 -0.00652065
v 0.15421735 -0.14432919 -0.00646399
v 0.14038961 -0.14431282 -0.00635069
v 0.18387014 -0.06076863 -0.01029739
v 0.36817849 -0.08810396 -0.01233683
v 0.38978049 -0.14432101 -0.01233683
v 0.11319508 -0.14434555 0.08735033
v 0.10035064 -0.14434555 0.10257060
v 0.11811158 -0.14431282 -0.00036455
v 0.12591659 -0.14431282 -0.00368809
v 0.12591659 -0.11705930 -0.00410353
v 0.14038961 -0.10256118 -0.00655843
v 0.16933570 -0.06076863 -0.00950427
v 0.36965345 -0.06076863 -0.01233683
v 0.36833211 -0.07359766 -0.01233683
v 0.38981122 -0.11706748 -0.01233683
v 0.40901640 -0.14432101 -0.00045898
v 0.11319508 -0.14434555 0.16535896
v 0.40960023 -0.14432101 0.00656577
v 0.40966169 -0.14432101 0.00752885
v 0.41319544 -0.14432101 0.18056035
v 0.10035064 -0.10469662 0.09902046
v 0.10529792 -0.10256118 0.00505509
v 0.10529792 -0.11763202 0.00796317
v 0.10529792 -0.14431282 0.01689516
v 0.10035064 -0.14434555 0.15501069
v 0.11722046 -0.11705930 -0.00068559
v 0.11706685 -0.10256118 -0.00068559
v 0.12591659 -0.10256118 -0.00412241
v 0.15492409 -0.06076863 -0.00618075
v 0.38640037 -0.06076863 -0.01233683
v 0.38981122 -0.10256118 -0.01233683
v 0.38978049 -0.10034391 -0.01233683
v 0.40877057 -0.10256118 -0.00008130
v 0.41411728 -0.06076863 0.02269247
v 0.11599135 -0.14431282 0.18054148
v 0.36261666 -0.14432101 0.18056035
v 0.41427093 -0.06076863 0.02514735
v 0.41344127 -0.13156560 0.18056035
v 0.10035064 -0.10207027 0.09885050
v 0.10529792 -0.09492758 0.00528169
v 0.10035064 -0.10230755 0.16892799
v 0.11774286 -0.09417485 -0.00028902
v 0.10529792 -0.08837396 0.00556494
v 0.14610509 -0.06077680 -0.00164865
v 0.12628535 -0.06077680 0.00898287
v 0.12348907 -0.06077680 0.01051247
v 0.15427881 -0.06076863 -0.00527433
v 0.10529792 -0.07835128 0.00734000
v 0.10529792 -0.07358948 0.00966269
v 0.40867838 -0.09491121 0.00006978
v 0.38802898 -0.06827132 -0.01233683
v 0.38938100 -0.08479035 -0.01233683
v 0.11095193 -0.10637389 0.18056035
v 0.10996858 -0.10207027 0.18056035
v 0.40926222 -0.06076863 0.18056035
v 0.41079864 -0.06188135 0.18056035
v 0.41341054 -0.07289403 0.18056035
v 0.41353346 -0.07359766 0.18056035
v 0.41387145 -0.08810396 0.18056035
v 0.41359492 -0.11706748 0.18056035
v 0.10035064 -0.10207027 0.16894687
v 0.10529792 -0.07241948 0.01073907
v 0.11328727 -0.06078498 0.09165581
v 0.12348907 -0.06077680 0.04929963
v 0.15421735 -0.06076863 -0.00255507
v 0.11328727 -0.06078498 0.18054148
v 0.36261666 -0.06076863 0.18056035
v 0.10529792 -0.07241948 0.03868698
v 0.15427881 -0.06077680 0.18054148
v 0.15421735 -0.06076863 -0.00100659
f 1 2 3
f 1 3 4
f 1 4 5
f 1 5 6
f 1 6 7
f 1 7 17
f 1 17 16
f 1 16 33
f 1 33 54
f 1 54 55
f 1 55 35
f 1 35 34
f 1 34 18
f 1 18 8
f 1 8 2
f 2 8 9
f 2 9 3
f 3 9 4
f 4 9 10
f 4 10 11
f 4 11 12
f 4 12 5
f 5 12 13
f 5 13 14
f 5 14 15
f 5 15 6
f 6 15 32
f 6 32 50
f 6 50 68
f 6 68 73
f 6 73 70
f 6 70 58
f 6 58 40
f 6 40 37
f 6 37 33
f 6 33 16
f 6 16 17
f 6 17 7
f 8 18 19
f 8 19 9
f 9 20 28
f 9 28 10
f 9 19 21
f 9 21 22
f 9 22 23
f 9 23 20
f 10 24 25
f 10 25 26
f 10 26 27
f 10 27 11
f 10 28 44
f 10 44 64
f 10 64 42
f 10 42 24
f 11 27 26
f 11 26 25
f 11 25 29
f 11 29 12
f 12 29 13
f 13 29 30
f 13 30 31
f 13 31 14
f 14 31 15
f 15 31 32
f 18 34 19
f 19 34 35
f 19 35 36
f 19 36 37
f 19 37 21
f 20 38 28
f 20 23 39
f 20 39 38
f 21 37 22
f 22 37 40
f 22 40 23
f 23 40 41
f 23 41 63
f 23 63 62
f 23 62 61
f 23 61 60
f 23 60 59
f 23 59 58
f 23 58 70
f 23 70 57
f 23 57 56
f 23 56 39
f 24 42 25
f 25 42 43
f 25 43 30
f 25 30 29
f 28 38 44
f 30 45 31
f 30 43 46
f 30 46 45
f 31 45 32
f 32 47 48
f 32 48 49
f 32 49 50
f 32 45 51
f 32 51 52
f 32 52 47
f 33 37 53
f 33 53 54
f 35 55 36
f 36 55 53
f 36 53 37
f 38 56 57
f 38 57 44
f 38 39 56
f 40 58 59
f 40 59 60
f 40 60 61
f 40 61 62
f 40 62 63
f 40 63 41
f 42 64 71
f 42 71 65
f 42 65 52
f 42 52 51
f 42 51 46
f 42 46 43
f 44 57 64
f 45 46 51
f 47 52 48
f 48 52 49
f 49 66 69
f 49 69 67
f 49 67 73
f 49 73 68
f 49 68 50
f 49 52 65
f 49 65 66
f 53 55 54
f 57 69 64
f 57 70 69
f 64 69 71
f 65 71 69
f 65 69 66
f 67 69 72
f 67 72 73
f 69 70 72
f 70 73 72

