# https://github.com/mikedh/trimesh
v 0.11318194 -0.06084058 0.18054068
v 0.10524605 -0.06081387 0.03851851
v 0.06618158 -0.06076042 0.06301175
v 0.03935736 -0.06076042 0.13155422
v 0.00509615 -0.06076042 0.13265352
v 0.11147641 -0.06084058 0.18054068
v 0.11318194 -0.09115718 0.18054068
v 0.11318194 -0.06084058 0.09169004
v 0.10524605 -0.06081387 0.00717874
v 0.06618158 -0.06076042 -0.01096938
v -0.00027564 -0.06076042 0.13265352
v 0.10868031 -0.07366169 0.18054068
v 0.11317035 -0.09882313 0.18054068
v 0.11317035 -0.10216198 0.18052139
v 0.11318194 -0.10216198 0.11884473
v 0.11318194 -0.07363498 0.08603923
v 0.09648643 -0.06081387 -0.00697719
v 0.10524605 -0.08840599 0.00553944
v 0.08229698 -0.06081387 -0.01646590
v -0.00017122 -0.06078716 -0.00196282
v 0.05498549 -0.06076042 -0.00790291
v -0.00076295 -0.06076042 0.13157350
v -0.00038006 -0.07360827 0.13278852
v -0.00032206 -0.08808544 0.13282710
v 0.10878473 -0.08816559 0.18054068
v 0.11213773 -0.10216198 0.18054068
v 0.10927200 -0.30553702 0.17876637
v 0.10927200 -0.31883894 0.17830350
v 0.10928362 -0.32006763 0.17822636
v 0.10928362 -0.32629123 0.17772492
v 0.10928362 -0.33363665 0.17629776
v 0.11318194 -0.10216198 0.08704211
v 0.11318194 -0.08816559 0.08565352
v 0.10524605 -0.10258934 0.00505729
v 0.10524605 -0.09492337 0.00528871
v 0.08830692 -0.26784827 0.00066008
v 0.08077709 -0.26784827 -0.00215569
v 0.06781747 -0.26784827 -0.00192424
v -0.00300216 -0.06078716 0.00627230
v -0.00178390 -0.06076042 0.06522964
v 0.03936894 -0.06076042 -0.00149995
v 0.04012310 -0.06076042 -0.00192424
v 0.04137614 -0.06076042 -0.00254141
v 0.05319876 -0.06076042 -0.00728576
v 0.06323464 -0.26784827 -0.00040066
v 0.00096578 -0.07091049 -0.00107565
v -0.00423200 -0.06076042 0.12349266
v -0.00452205 -0.07360827 0.12349266
v -0.00432479 -0.08808544 0.12349266
v 0.00065252 -0.09901011 0.13213280
v 0.07339810 -0.33363665 0.16071467
v 0.07306163 -0.32006763 0.16100395
v 0.10883111 -0.08934084 0.18054068
v 0.10994494 -0.10216198 0.18054068
v 0.08133398 -0.33363665 0.16455258
v 0.10977089 -0.10141407 0.18054068
v 0.08229698 -0.33363665 0.16499616
v 0.10928362 -0.33363665 0.09554724
v 0.10928362 -0.32006763 0.09246148
v 0.10552452 -0.18699507 0.02301256
v 0.10552452 -0.18440413 0.02245327
v 0.11318194 -0.09537747 0.08619353
v 0.10524605 -0.11768087 0.00795019
v 0.09213560 -0.26784827 0.00775732
v 0.09678807 -0.33363665 0.09579796
v 0.06322301 -0.33363665 0.10137162
v -0.00335021 -0.06078716 0.00737162
v -0.00079774 -0.07489038 0.00619515
v -0.00397674 -0.06076042 0.09282791
v 0.05992801 -0.26784827 0.00160510
v 0.04294241 -0.26784827 0.02596333
v 0.03956620 -0.26784827 0.03144053
v -0.00503253 -0.06076042 0.10898959
v -0.00534579 -0.07360827 0.10898959
v -0.00504411 -0.08808544 0.10898959
v -0.00309495 -0.10258934 0.10898959
v -0.00087895 -0.10333725 0.12403267
v 0.06322301 -0.33363665 0.14800519
v 0.06647163 -0.33363665 0.15290383
v 0.10552452 -0.18846416 0.02334041
v 0.03776784 -0.26784827 0.03651277
v -0.00398832 -0.06078716 0.02200970
v -0.00493973 -0.06076042 0.10731171
v -0.00409274 -0.06076042 0.09448651
v -0.00091375 -0.08811215 0.02200970
v -0.00275852 -0.07360827 0.02200970
v 0.00110504 -0.08811215 0.01070808
v -0.00301374 -0.10258934 0.09448651
v 0.00224204 -0.12462565 0.10100518
v 0.00224204 -0.12462565 0.10301093
v 0.00224204 -0.09620549 0.01396743
f 1 2 3
f 1 3 4
f 1 4 5
f 1 5 11
f 1 11 6
f 1 6 12
f 1 12 25
f 1 25 53
f 1 53 56
f 1 56 54
f 1 54 26
f 1 26 13
f 1 13 7
f 1 7 15
f 1 15 32
f 1 32 62
f 1 62 33
f 1 33 16
f 1 16 8
f 1 8 9
f 1 9 2
f 2 9 10
f 2 10 3
f 3 10 21
f 3 21 44
f 3 44 43
f 3 43 42
f 3 42 41
f 3 41 40
f 3 40 69
f 3 69 84
f 3 84 83
f 3 83 73
f 3 73 47
f 3 47 22
f 3 22 11
f 3 11 5
f 3 5 4
f 6 11 12
f 7 13 14
f 7 14 15
f 8 16 9
f 9 17 10
f 9 16 18
f 9 18 17
f 10 17 19
f 10 19 20
f 10 20 21
f 11 22 23
f 11 23 12
f 12 23 24
f 12 24 25
f 13 26 14
f 14 27 28
f 14 28 29
f 14 29 30
f 14 30 31
f 14 31 15
f 14 26 27
f 15 31 58
f 15 58 32
f 16 33 34
f 16 34 35
f 16 35 18
f 17 18 35
f 17 35 34
f 17 34 36
f 17 36 19
f 19 36 37
f 19 37 38
f 19 38 20
f 20 39 40
f 20 40 41
f 20 41 42
f 20 42 43
f 20 43 44
f 20 44 21
f 20 38 45
f 20 45 46
f 20 46 39
f 22 47 48
f 22 48 23
f 23 48 24
f 24 48 49
f 24 49 50
f 24 50 51
f 24 51 52
f 24 52 27
f 24 27 25
f 25 27 53
f 26 54 27
f 27 52 55
f 27 55 28
f 27 54 56
f 27 56 53
f 28 55 57
f 28 57 29
f 29 57 30
f 30 57 31
f 31 57 55
f 31 55 51
f 31 51 79
f 31 79 78
f 31 78 66
f 31 66 65
f 31 65 58
f 32 58 59
f 32 59 60
f 32 60 61
f 32 61 34
f 32 34 62
f 33 62 34
f 34 61 63
f 34 63 64
f 34 64 36
f 36 64 58
f 36 58 37
f 37 58 38
f 38 58 65
f 38 65 66
f 38 66 45
f 39 67 40
f 39 46 68
f 39 68 67
f 40 67 69
f 45 66 70
f 45 70 46
f 46 70 71
f 46 71 72
f 46 72 68
f 47 73 74
f 47 74 48
f 48 74 49
f 49 74 75
f 49 75 76
f 49 76 77
f 49 77 50
f 50 77 78
f 50 78 79
f 50 79 51
f 51 55 52
f 58 64 80
f 58 80 59
f 59 80 60
f 60 80 64
f 60 64 61
f 61 64 63
f 66 78 81
f 66 81 72
f 66 72 71
f 66 71 70
f 67 82 73
f 67 73 83
f 67 83 84
f 67 84 69
f 67 68 85
f 67 85 86
f 67 86 82
f 68 72 81
f 68 81 87
f 68 87 85
f 73 82 74
f 74 82 75
f 75 82 86
f 75 86 88
f 75 88 76
f 76 88 89
f 76 89 90
f 76 90 78
f 76 78 77
f 78 90 81
f 81 90 89
f 81 89 88
f 81 88 85
f 81 85 91
f 81 91 87
f 85 87 91
f 85 88 86

