# https://github.com/mikedh/trimesh
v 0.95172398 0.09960675 -0.16513666
v 0.93352631 0.04743577 -0.17970529
v 0.93355215 0.04098291 -0.19554693
v 0.95172398 0.09957353 -0.16530639
v 0.95172398 0.11498731 -0.16666424
v 0.86060631 0.11044456 -0.00739928
v 0.86060631 0.10368442 -0.00739928
v 0.74531983 0.04795898 0.07910734
v 0.79663008 0.03919737 -0.00468357
v 0.89371885 0.04746899 -0.19554693
v 0.93355215 0.07617049 -0.19554693
v 0.95172398 0.09940744 -0.19551866
v 0.95172398 0.09725648 -0.18425977
v 0.95172398 0.09682462 -0.18188351
v 0.79663008 0.03919737 -0.02273172
v 0.76708468 0.03919737 -0.02273172
v 0.95172398 0.11815976 -0.18024278
v 0.85091293 0.11596727 -0.00739928
v 0.85109387 0.11586763 -0.00739928
v 0.75046378 0.11257060 0.09342139
v 0.75046378 0.10289546 0.09342139
v 0.73004309 0.09493943 0.09342139
v 0.74472531 0.04779288 0.07910734
v 0.73492855 0.04589107 0.07910734
v 0.70646881 0.04086665 0.07576928
v 0.70328939 0.04072547 0.07576928
v 0.79285612 0.03919737 -0.00400464
v 0.89250395 0.04769322 -0.19554693
v 0.92804630 0.07573865 -0.19554693
v 0.93786893 0.12191354 -0.19551866
v 0.94032458 0.12174745 -0.19551866
v 0.95172398 0.11520324 -0.19551866
v 0.76770506 0.03919737 -0.02148701
v 0.70328939 0.04741086 0.05277062
v 0.95172398 0.11537764 -0.19546204
v 0.68765075 0.12403958 0.07910734
v 0.73004309 0.11910650 0.09342139
v 0.73397213 0.11822619 0.09342139
v 0.73006894 0.04524329 0.07910734
v 0.68765075 0.08956620 0.07910734
v 0.77825144 0.03919737 -0.00737099
v 0.77925955 0.10282903 -0.09786629
v 0.88601586 0.10639180 -0.19551866
v 0.88601586 0.10915730 -0.19551866
v 0.89389979 0.05800782 -0.19554693
v 0.89441678 0.11333465 -0.19551866
v 0.90682429 0.06897020 -0.19554693
v 0.79293367 0.11631608 -0.09786629
v 0.68765075 0.10032926 0.04699975
v 0.68765075 0.10370934 0.03746648
v 0.68765075 0.10512116 0.03486394
v 0.68765075 0.10610944 0.03305346
v 0.68765075 0.11566000 0.05098845
v 0.78261992 0.11325160 -0.09786629
v 0.77928540 0.11202247 -0.09786629
v 0.77925955 0.10876698 -0.09786629
v 0.90031034 0.06603860 -0.19554693
v 0.89397735 0.05834831 -0.19554693
v 0.68765075 0.10930680 0.03305346
v 0.68765075 0.11135809 0.03789081
f 1 2 3
f 1 3 4
f 1 4 14
f 1 14 13
f 1 13 12
f 1 12 32
f 1 32 35
f 1 35 17
f 1 17 5
f 1 5 6
f 1 6 7
f 1 7 2
f 2 7 8
f 2 8 9
f 2 9 3
f 3 10 28
f 3 28 45
f 3 45 58
f 3 58 57
f 3 57 47
f 3 47 29
f 3 29 11
f 3 11 32
f 3 32 12
f 3 12 13
f 3 13 14
f 3 14 4
f 3 9 15
f 3 15 16
f 3 16 10
f 5 17 18
f 5 18 19
f 5 19 6
f 6 19 20
f 6 20 21
f 6 21 7
f 7 21 8
f 8 21 22
f 8 22 23
f 8 23 9
f 9 23 24
f 9 24 25
f 9 25 26
f 9 26 27
f 9 27 41
f 9 41 33
f 9 33 16
f 9 16 15
f 10 16 28
f 11 29 30
f 11 30 31
f 11 31 32
f 16 33 26
f 16 26 34
f 16 34 28
f 17 35 31
f 17 31 18
f 18 36 37
f 18 37 38
f 18 38 20
f 18 20 19
f 18 31 36
f 20 38 37
f 20 37 22
f 20 22 21
f 22 39 24
f 22 24 23
f 22 37 36
f 22 36 40
f 22 40 26
f 22 26 39
f 24 39 25
f 25 39 26
f 26 33 41
f 26 41 27
f 26 40 34
f 28 42 43
f 28 43 44
f 28 44 45
f 28 34 42
f 29 46 30
f 29 47 46
f 30 46 48
f 30 48 36
f 30 36 31
f 31 35 32
f 34 40 49
f 34 49 50
f 34 50 51
f 34 51 52
f 34 52 42
f 36 53 60
f 36 60 59
f 36 59 52
f 36 52 51
f 36 51 50
f 36 50 49
f 36 49 40
f 36 48 54
f 36 54 55
f 36 55 53
f 42 56 44
f 42 44 43
f 42 52 59
f 42 59 56
f 44 56 55
f 44 55 46
f 44 46 57
f 44 57 58
f 44 58 45
f 46 47 57
f 46 55 54
f 46 54 48
f 53 55 60
f 55 56 59
f 55 59 60

