# https://github.com/mikedh/trimesh
v 0.25376904 -0.45414293 0.10456263
v 0.25376904 -0.46715088 0.09449638
v 0.25376904 -0.43527814 0.10252122
v 0.25375098 -0.49472252 0.11850051
v 0.25375098 -0.50801806 0.11850051
v 0.25375098 -0.51199236 0.10892702
v 0.25375098 -0.51370497 0.09435560
v 0.25375098 -0.50803114 0.08069929
v 0.25376904 -0.44967186 0.08340943
v 0.25371480 -0.43635016 0.10875104
v 0.25376904 -0.43414075 0.09590425
v 0.23510610 -0.41348491 0.13120651
v 0.23539542 -0.42165574 0.13141769
v 0.23508799 -0.53290966 0.13117131
v 0.23539542 -0.46513759 0.13141769
v 0.23541353 -0.51292056 0.13138250
v 0.23537735 -0.52313083 0.13138250
v 0.23508799 -0.53270049 0.12342805
v 0.21119866 -0.50451442 -0.09225716
v 0.22110885 -0.50331168 -0.06019300
v 0.25375098 -0.49416035 0.07978417
v 0.25376904 -0.44900512 0.08340943
v 0.25376904 -0.43459833 0.09372205
v 0.23465397 -0.41429547 0.11617753
v 0.23503375 -0.41362873 0.12346324
v 0.22702240 -0.41275282 0.12423757
v 0.20967959 -0.41170695 0.13342390
v 0.19832267 -0.42165574 0.13697877
v 0.19832267 -0.43615405 0.13852741
v 0.19832267 -0.45063928 0.13923135
v 0.20682228 -0.54526395 0.12976345
v 0.19830456 -0.50864558 0.13866820
v 0.19830456 -0.52313083 0.13757710
v 0.20978811 -0.53762914 0.13349429
v 0.20682228 -0.54526395 0.13148808
v 0.19823226 -0.50926004 -0.09225716
v 0.13882542 -0.50506351 -0.22033784
v 0.13882542 -0.49754635 -0.22033784
v 0.13784885 -0.44186710 -0.22030266
v 0.21094551 -0.49610827 -0.09225716
v 0.22110885 -0.49843533 -0.06019300
v 0.25376904 -0.44050747 0.08460612
v 0.15732564 -0.42474104 -0.11587412
v 0.22729366 -0.41302736 0.11536800
v 0.19832267 -0.41174618 0.13349429
v 0.21307944 -0.41220373 0.12328726
v 0.19832267 -0.41174618 0.12708850
v 0.17727258 -0.43636324 0.13623963
v 0.16989419 -0.49400348 0.13887939
v 0.16989419 -0.51022747 0.13887939
v 0.20391069 -0.54526395 0.12976345
v 0.09967295 -0.51230612 -0.22033784
v 0.11061395 -0.51179627 -0.22033784
v 0.11558711 -0.51101186 -0.22033784
v 0.12582280 -0.50922082 -0.22033784
v 0.19875669 -0.53765529 0.13381106
v 0.20391069 -0.54526395 0.13148808
v 0.09480831 -0.43642859 -0.22033784
v 0.13508196 -0.44109577 -0.22030266
v 0.12580473 -0.43965769 -0.22030266
v 0.11133733 -0.43774899 -0.22030266
v 0.09650822 -0.43631094 -0.22030266
v 0.06902013 -0.43468985 -0.22033784
v 0.15483000 -0.42474104 -0.11605011
v 0.21649736 -0.41267438 0.11515683
v 0.19020284 -0.41356336 0.13173446
v 0.14032642 -0.42474104 -0.11344556
v 0.12661853 -0.42474104 -0.10827164
v 0.12652812 -0.42474104 -0.10813085
v 0.16989419 -0.49085281 0.13803467
v 0.06902013 -0.43733066 -0.21115150
v 0.06902013 -0.44288680 -0.20231715
v 0.09034148 -0.49189866 -0.06508534
v 0.09034148 -0.49358513 -0.06462776
v 0.09034148 -0.50684147 -0.06645800
v 0.16989419 -0.51190084 0.13803467
v 0.06903819 -0.51200543 -0.22033784
v 0.18975071 -0.53283123 0.13212162
v 0.06902013 -0.46244450 -0.22033784
v 0.06902013 -0.43624557 -0.21354488
v 0.06902013 -0.44510929 -0.20231715
v 0.06903819 -0.49797777 -0.20101488
v 0.06903819 -0.50361236 -0.20101488
v 0.06903819 -0.50976990 -0.20942688
v 0.06903819 -0.51024054 -0.21048280
v 0.06902013 -0.46098028 -0.21671260
v 0.06902013 -0.45277024 -0.20907493
f 1 2 9
f 1 9 22
f 1 22 42
f 1 42 23
f 1 23 11
f 1 11 3
f 1 3 4
f 1 4 5
f 1 5 2
f 2 5 6
f 2 6 7
f 2 7 8
f 2 8 9
f 3 10 4
f 3 11 12
f 3 12 10
f 4 10 12
f 4 12 13
f 4 13 15
f 4 15 5
f 5 14 6
f 5 15 16
f 5 16 17
f 5 17 14
f 6 14 7
f 7 14 18
f 7 18 19
f 7 19 20
f 7 20 8
f 8 20 21
f 8 21 9
f 9 21 22
f 11 23 24
f 11 24 25
f 11 25 12
f 12 25 26
f 12 26 27
f 12 27 28
f 12 28 29
f 12 29 30
f 12 30 13
f 13 30 15
f 14 31 18
f 14 17 32
f 14 32 33
f 14 33 34
f 14 34 35
f 14 35 31
f 15 30 16
f 16 30 17
f 17 30 32
f 18 31 19
f 19 36 37
f 19 37 38
f 19 38 39
f 19 39 40
f 19 40 41
f 19 41 20
f 19 31 36
f 20 41 21
f 21 41 22
f 22 41 42
f 23 42 39
f 23 39 43
f 23 43 24
f 24 44 25
f 24 43 44
f 25 44 26
f 26 44 27
f 27 45 28
f 27 44 46
f 27 46 47
f 27 47 45
f 28 45 48
f 28 48 29
f 29 48 49
f 29 49 30
f 30 49 50
f 30 50 32
f 31 35 57
f 31 57 51
f 31 51 52
f 31 52 53
f 31 53 54
f 31 54 55
f 31 55 36
f 32 50 33
f 33 50 56
f 33 56 34
f 34 56 35
f 35 56 57
f 36 55 37
f 37 55 54
f 37 54 53
f 37 53 52
f 37 52 77
f 37 77 79
f 37 79 63
f 37 63 58
f 37 58 38
f 38 58 39
f 39 58 59
f 39 59 43
f 39 42 40
f 40 42 41
f 43 59 60
f 43 60 61
f 43 61 62
f 43 62 63
f 43 63 64
f 43 64 47
f 43 47 65
f 43 65 44
f 44 65 46
f 45 47 63
f 45 63 66
f 45 66 48
f 46 65 47
f 47 64 67
f 47 67 68
f 47 68 69
f 47 69 63
f 48 70 49
f 48 66 71
f 48 71 72
f 48 72 73
f 48 73 70
f 49 70 74
f 49 74 50
f 50 74 75
f 50 75 76
f 50 76 56
f 51 57 77
f 51 77 52
f 56 76 57
f 57 76 78
f 57 78 75
f 57 75 77
f 58 63 62
f 58 62 61
f 58 61 60
f 58 60 59
f 63 69 68
f 63 68 67
f 63 67 64
f 63 79 86
f 63 86 87
f 63 87 81
f 63 81 72
f 63 72 71
f 63 71 80
f 63 80 66
f 66 80 71
f 70 73 74
f 72 81 83
f 72 83 82
f 72 82 74
f 72 74 73
f 74 82 83
f 74 83 75
f 75 83 84
f 75 84 85
f 75 85 77
f 75 78 76
f 77 85 79
f 79 85 86
f 81 87 83
f 83 87 86
f 83 86 84
f 84 86 85

