# https://github.com/mikedh/trimesh
v 0.70822472 0.09035089 -0.22297105
v 0.71845350 0.08391443 -0.22297105
v 0.72903779 0.04757056 -0.19700743
v 0.70822472 0.09643594 -0.21054244
v 0.70822472 0.12519661 -0.22297105
v 0.77706297 0.09802656 -0.23524808
v 0.74794407 0.04468524 -0.19700743
v 0.79289901 0.09318073 -0.23524808
v 0.80770085 -0.05393331 -0.10458113
v 0.80770085 -0.05650420 -0.09401682
v 0.80770085 -0.05652269 -0.09375916
v 0.80770085 -0.05700358 -0.08040600
v 0.70822472 0.11942599 -0.21054244
v 0.77394425 0.02990726 -0.09791213
v 0.77926062 0.11200925 -0.09789698
v 0.78257327 0.11322997 -0.09789698
v 0.79289901 0.11630022 -0.09789698
v 0.73493590 0.13192900 -0.22297105
v 0.77706297 0.11794634 -0.23524808
v 0.76242273 0.04440781 -0.19700743
v 0.79913646 0.09366160 -0.23524808
v 0.76392553 0.04444481 -0.19700743
v 0.81739638 -0.05282357 -0.10239854
v 0.82209871 -0.05345243 -0.09307710
v 0.82193711 -0.05434022 -0.08040600
v 0.82106452 -0.05452517 -0.08040600
v 0.80770085 -0.01921706 -0.08040600
v 0.80770085 0.08600442 -0.08042115
v 0.82150082 0.08600442 -0.08040600
v 0.84181295 0.08600442 -0.08040600
v 0.84305720 0.08598595 -0.08042115
v 0.80770085 0.11570836 -0.09789698
v 0.79230112 0.11829774 -0.23524808
v 0.79913646 0.11663315 -0.23524808
v 0.86590633 0.09660241 -0.12336042
v 0.87325878 0.00340306 -0.10242886
v 0.85960424 0.00406890 -0.11658534
v 0.86787777 0.00144252 -0.10583915
v 0.82941883 -0.05195428 -0.08760549
v 0.82995209 -0.05204676 -0.08040600
v 0.84181295 -0.02267574 -0.08040600
v 0.87151358 0.01081980 -0.08042115
v 0.86513069 0.04322409 -0.08042115
v 0.86214124 0.05544969 -0.08042115
v 0.86614873 0.09660241 -0.10764280
v 0.87325878 0.00719466 -0.10242886
v 0.87329111 0.00310713 -0.09403199
v 0.83620570 -0.04405666 -0.08040600
v 0.84014855 -0.03012947 -0.08040600
v 0.86747378 -0.00003711 -0.08042115
v 0.86787777 0.00033279 -0.08066366
v 0.87290329 0.00488272 -0.08372533
v 0.87290329 0.00680626 -0.08372533
v 0.87329111 0.00739810 -0.09403199
f 1 2 3
f 1 3 4
f 1 4 13
f 1 13 5
f 1 5 19
f 1 19 6
f 1 6 2
f 2 7 3
f 2 6 8
f 2 8 7
f 3 7 9
f 3 9 10
f 3 10 11
f 3 11 12
f 3 12 4
f 4 12 14
f 4 14 13
f 5 13 15
f 5 15 16
f 5 16 17
f 5 17 18
f 5 18 19
f 6 19 33
f 6 33 34
f 6 34 21
f 6 21 8
f 7 8 20
f 7 20 9
f 8 21 22
f 8 22 20
f 9 23 10
f 9 20 22
f 9 22 21
f 9 21 23
f 10 23 24
f 10 24 11
f 11 24 25
f 11 25 26
f 11 26 12
f 12 26 25
f 12 25 40
f 12 40 48
f 12 48 49
f 12 49 41
f 12 41 30
f 12 30 29
f 12 29 27
f 12 27 14
f 13 14 15
f 14 27 28
f 14 28 15
f 15 28 16
f 16 28 17
f 17 28 29
f 17 29 30
f 17 30 31
f 17 31 32
f 17 32 18
f 18 32 33
f 18 33 19
f 21 34 35
f 21 35 36
f 21 36 37
f 21 37 23
f 23 37 38
f 23 38 36
f 23 36 39
f 23 39 24
f 24 39 25
f 25 39 40
f 27 29 28
f 30 41 42
f 30 42 43
f 30 43 44
f 30 44 31
f 31 44 45
f 31 45 32
f 32 45 35
f 32 35 34
f 32 34 33
f 35 45 46
f 35 46 36
f 36 47 40
f 36 40 39
f 36 38 37
f 36 46 54
f 36 54 47
f 40 47 48
f 41 49 42
f 42 49 48
f 42 48 50
f 42 50 51
f 42 51 52
f 42 52 53
f 42 53 45
f 42 45 43
f 43 45 44
f 45 53 54
f 45 54 46
f 47 54 53
f 47 53 52
f 47 52 48
f 48 52 50
f 50 52 51

