# https://github.com/mikedh/trimesh
v 0.19837138 -0.14434001 -0.00663981
v 0.19847105 -0.16071941 -0.00668212
v 0.19837138 -0.14434001 -0.00102482
v 0.19837138 -0.06082126 -0.01032157
v 0.19855969 -0.17507167 -0.00668212
v 0.30421330 -0.14434001 -0.00102482
v 0.19837138 -0.06076045 -0.00102482
v 0.19870366 -0.18433576 -0.00668212
v 0.20276855 -0.26785451 -0.00765739
v 0.19837138 -0.06076045 -0.00849609
v 0.19878120 -0.06076045 -0.01043699
v 0.20973534 -0.06076045 -0.01359939
v 0.22742362 -0.26785451 -0.01746775
v 0.30421330 -0.08198474 -0.00102482
v 0.29582878 -0.26785451 -0.00765739
v 0.29980507 -0.26783424 -0.00765739
v 0.31152343 -0.18433576 -0.00668212
v 0.29979400 -0.06076045 -0.00102482
v 0.24185563 -0.06076045 -0.02067438
v 0.24184456 -0.14436028 -0.02067631
v 0.24184456 -0.26785451 -0.02067631
v 0.30421330 -0.06076045 -0.00104406
v 0.29351390 -0.26785451 -0.00998879
v 0.28211674 -0.26785451 -0.01746775
v 0.28211674 -0.07359232 -0.01746775
v 0.28208351 -0.06076045 -0.01746775
v 0.31059307 -0.14436028 -0.00668212
v 0.27081926 -0.06076045 -0.02067438
v 0.27081926 -0.14436028 -0.02067631
v 0.27081926 -0.26785451 -0.02067631
v 0.30421330 -0.06224027 -0.00335622
v 0.27530503 -0.26785451 -0.01940480
v 0.30421330 -0.07359232 -0.00709185
f 1 2 3
f 1 3 7
f 1 7 10
f 1 10 4
f 1 4 2
f 2 5 3
f 2 4 5
f 3 6 14
f 3 14 18
f 3 18 7
f 3 5 8
f 3 8 9
f 3 9 15
f 3 15 6
f 4 10 11
f 4 11 12
f 4 12 13
f 4 13 9
f 4 9 8
f 4 8 5
f 6 15 16
f 6 16 17
f 6 17 14
f 7 18 22
f 7 22 26
f 7 26 28
f 7 28 19
f 7 19 12
f 7 12 11
f 7 11 10
f 9 13 21
f 9 21 30
f 9 30 32
f 9 32 24
f 9 24 23
f 9 23 15
f 12 19 20
f 12 20 21
f 12 21 13
f 14 17 22
f 14 22 18
f 15 23 16
f 16 23 24
f 16 24 17
f 17 24 25
f 17 25 26
f 17 26 27
f 17 27 22
f 19 28 29
f 19 29 20
f 20 29 30
f 20 30 21
f 22 27 31
f 22 31 26
f 24 32 25
f 25 32 29
f 25 29 28
f 25 28 26
f 26 31 33
f 26 33 27
f 27 33 31
f 29 32 30

