# https://github.com/mikedh/trimesh
v 0.30097656 -0.33367852 0.05625354
v 0.30097656 -0.33698759 0.05625354
v 0.30097656 -0.33367852 0.00210257
v 0.12668077 -0.33367852 0.05625354
v 0.30095266 -0.37690889 0.01344130
v 0.30095266 -0.37701514 0.00864777
v 0.30097656 -0.33692688 0.05098913
v 0.16011098 -0.33700277 0.05625354
v 0.09604640 -0.45265310 0.00959894
v 0.11169814 -0.47495133 -0.00248380
v 0.18288363 -0.46519112 -0.00185282
v 0.30097656 -0.33584915 0.00749881
v 0.30095266 -0.37404002 -0.00297351
v 0.30095266 -0.36689061 -0.00297351
v 0.28207499 -0.33367852 -0.01745772
v 0.06330919 -0.33367852 0.01620065
v 0.05690513 -0.34914612 0.01972282
v 0.05690513 -0.40363946 0.01972282
v 0.06741924 -0.44597426 0.00959894
v 0.06897250 -0.44699126 0.00959894
v 0.08218685 -0.45136286 0.00959894
v 0.13110149 -0.33474107 0.05625354
v 0.27906413 -0.40048219 0.00111372
v 0.27947036 -0.40074023 -0.00700423
v 0.30095266 -0.37699997 0.00747999
v 0.30097656 -0.33672954 0.03649549
v 0.15485390 -0.33697241 0.05625354
v 0.14560624 -0.33691170 0.05625354
v 0.14034916 -0.33682062 0.05625354
v 0.10144685 -0.47495133 -0.00731500
v 0.10228320 -0.47873096 -0.01402973
v 0.14204578 -0.48873406 -0.02338137
v 0.14498494 -0.48873406 -0.02272215
v 0.16919139 -0.48873406 -0.02272215
v 0.17009940 -0.48873406 -0.02319301
v 0.18395896 -0.48873406 -0.03560537
v 0.30095266 -0.37428289 -0.00216360
v 0.30097656 -0.33590987 0.00865719
v 0.28071294 -0.39264971 -0.01638413
v 0.28166876 -0.38205464 -0.01716577
v 0.28197943 -0.37813839 -0.01745772
v 0.28205114 -0.34914612 -0.01745772
v 0.28207499 -0.33463481 -0.01745772
v 0.27896857 -0.40042146 -0.01495264
v 0.27079618 -0.33367852 -0.02065969
v 0.06326139 -0.33367852 0.01313053
v 0.05690513 -0.34914612 -0.01066766
v 0.05690513 -0.40292604 0.01106807
v 0.05690513 -0.40259210 0.00748941
v 0.05690513 -0.40080096 -0.00241786
v 0.05690513 -0.39264971 -0.00753160
v 0.06916366 -0.39264971 -0.02322126
v 0.10240267 -0.47873096 -0.01621459
v 0.10228320 -0.47873096 -0.01544235
v 0.18486697 -0.48873406 -0.03700859
v 0.18639633 -0.48873406 -0.03994687
v 0.30097656 -0.33642596 0.02199245
v 0.12627454 -0.48873406 -0.03994687
v 0.12711090 -0.48873406 -0.03706508
v 0.27072452 -0.37813839 -0.02065969
v 0.27079618 -0.34914612 -0.02065969
v 0.24181063 -0.33367852 -0.02065969
v 0.20453324 -0.40930130 -0.03679197
v 0.18336156 -0.34046363 -0.02323068
v 0.08405074 -0.33504465 -0.02322126
v 0.06326139 -0.33367852 -0.01095019
v 0.05690513 -0.36364227 -0.01073359
v 0.06548370 -0.34914612 -0.02322126
v 0.05690513 -0.38270734 -0.01001784
v 0.06682185 -0.38033940 -0.02322126
v 0.09207972 -0.40930130 -0.03679197
v 0.18584674 -0.48641163 -0.03994687
v 0.20453324 -0.42446533 -0.03679197
v 0.13091033 -0.47873096 -0.03994687
v 0.08230632 -0.33367852 -0.01911521
v 0.18302704 -0.47873096 -0.03994687
v 0.08230632 -0.33510537 -0.02322126
v 0.07026285 -0.33865730 -0.02322126
v 0.06945039 -0.34025111 -0.02322126
v 0.05690513 -0.37813839 -0.01069590
v 0.06574657 -0.36364227 -0.02322126
v 0.06663073 -0.37813839 -0.02322126
v 0.06586603 -0.36596468 -0.02322126
f 1 2 7
f 1 7 26
f 1 26 57
f 1 57 38
f 1 38 12
f 1 12 3
f 1 3 15
f 1 15 45
f 1 45 62
f 1 62 75
f 1 75 66
f 1 66 46
f 1 46 16
f 1 16 4
f 1 4 22
f 1 22 29
f 1 29 28
f 1 28 27
f 1 27 8
f 1 8 2
f 2 5 6
f 2 6 7
f 2 8 9
f 2 9 10
f 2 10 11
f 2 11 5
f 3 12 13
f 3 13 14
f 3 14 15
f 4 16 17
f 4 17 18
f 4 18 19
f 4 19 20
f 4 20 21
f 4 21 22
f 5 11 23
f 5 23 24
f 5 24 6
f 6 24 25
f 6 25 7
f 7 25 26
f 8 27 9
f 9 27 28
f 9 28 29
f 9 29 21
f 9 21 10
f 10 21 20
f 10 20 30
f 10 30 31
f 10 31 32
f 10 32 33
f 10 33 34
f 10 34 11
f 11 34 35
f 11 35 36
f 11 36 23
f 12 37 13
f 12 38 25
f 12 25 37
f 13 39 40
f 13 40 41
f 13 41 42
f 13 42 43
f 13 43 15
f 13 15 14
f 13 37 44
f 13 44 39
f 15 43 61
f 15 61 45
f 16 46 17
f 17 46 66
f 17 66 47
f 17 47 67
f 17 67 80
f 17 80 69
f 17 69 51
f 17 51 50
f 17 50 49
f 17 49 48
f 17 48 18
f 18 48 19
f 19 31 20
f 19 48 49
f 19 49 50
f 19 50 51
f 19 51 52
f 19 52 53
f 19 53 54
f 19 54 31
f 20 31 30
f 21 29 22
f 23 36 55
f 23 55 56
f 23 56 24
f 24 56 44
f 24 44 25
f 25 44 37
f 25 38 57
f 25 57 26
f 31 54 58
f 31 58 59
f 31 59 32
f 32 59 58
f 32 58 56
f 32 56 55
f 32 55 36
f 32 36 35
f 32 35 34
f 32 34 33
f 39 44 56
f 39 56 40
f 40 56 41
f 41 56 60
f 41 60 61
f 41 61 42
f 42 61 43
f 45 61 73
f 45 73 63
f 45 63 64
f 45 64 65
f 45 65 62
f 47 66 68
f 47 68 67
f 51 69 52
f 52 69 70
f 52 70 71
f 52 71 58
f 52 58 53
f 53 58 54
f 56 72 63
f 56 63 73
f 56 73 60
f 56 58 74
f 56 74 76
f 56 76 72
f 58 71 74
f 60 73 61
f 62 65 75
f 63 72 76
f 63 76 74
f 63 74 71
f 63 71 65
f 63 65 64
f 65 71 77
f 65 77 75
f 66 75 77
f 66 77 78
f 66 78 79
f 66 79 68
f 67 68 80
f 68 81 80
f 68 79 71
f 68 71 81
f 69 80 70
f 70 80 82
f 70 82 71
f 71 82 83
f 71 83 81
f 71 79 78
f 71 78 77
f 80 81 83
f 80 83 82

