# https://github.com/mikedh/trimesh
v 0.64651753 -0.45068568 -0.15267927
v 0.64723711 -0.43730663 -0.15267927
v 0.64664836 -0.45247131 -0.15267927
v 0.64689368 -0.50905237 -0.15266436
v 0.64686097 -0.50853267 -0.15266436
v 0.63902734 -0.50325568 -0.14715388
v 0.63902734 -0.49955113 -0.14715388
v 0.62553519 -0.48302723 -0.13169469
v 0.64751513 -0.43638716 -0.15267927
v 0.64615774 -0.43802623 -0.15148781
v 0.64615774 -0.43729330 -0.15120484
v 0.65700052 -0.51249041 -0.15267927
v 0.64733524 -0.51013176 -0.15266436
v 0.62574779 -0.53277217 -0.13121810
v 0.62553519 -0.52313768 -0.13169469
v 0.62036728 -0.49415421 -0.10852083
v 0.62074343 -0.48302723 -0.10852083
v 0.66185770 -0.43466813 -0.15267927
v 0.64615774 -0.42588649 -0.13041388
v 0.66159604 -0.51363642 -0.15267927
v 0.63822599 -0.54531171 -0.13114365
v 0.63341788 -0.53762274 -0.13304998
v 0.62512633 -0.54540498 -0.10260820
v 0.62355634 -0.53658333 -0.10786552
v 0.62108687 -0.52313768 -0.10852083
v 0.62049812 -0.50865260 -0.10852083
v 0.62139759 -0.50769315 -0.07898753
v 0.62152843 -0.49515364 -0.07898753
v 0.62136489 -0.48302723 -0.10007635
v 0.64615774 -0.42296813 -0.12299705
v 0.66203760 -0.43472144 -0.15267927
v 0.78335251 -0.40928263 -0.11787378
v 0.78744104 -0.40928263 -0.11857376
v 0.66239739 -0.51363642 -0.15267927
v 0.64123515 -0.54531171 -0.13114365
v 0.62512633 -0.54540498 -0.10046358
v 0.62313113 -0.53763608 -0.09875086
v 0.62789018 -0.54540498 -0.10260820
v 0.62165926 -0.52313768 -0.09748494
v 0.62141395 -0.50787971 -0.07898753
v 0.78744104 -0.40928263 -0.00052995
v 0.64615774 -0.43877247 -0.09385098
v 0.62177374 -0.48302723 -0.09671049
v 0.64615774 -0.42552670 -0.11787378
v 0.76470880 -0.40928263 -0.02218472
v 0.76359672 -0.40928263 -0.02340596
v 0.75087321 -0.40928263 -0.03752475
v 0.74395541 -0.40928263 -0.05054143
v 0.73911460 -0.40928263 -0.06501768
v 0.73886928 -0.40928263 -0.07347702
v 0.74295781 -0.40928263 -0.08630011
v 0.75690788 -0.40928263 -0.10083590
v 0.77367086 -0.40928263 -0.11301857
v 0.67284767 -0.44050482 -0.15267927
v 0.78744104 -0.42869822 -0.10612300
v 0.78740833 -0.45175173 -0.09419352
v 0.78740833 -0.44090458 -0.10065719
v 0.76361308 -0.50601410 -0.09140848
v 0.67413965 -0.50620066 -0.15267927
v 0.67431954 -0.50540113 -0.15267927
v 0.67412330 -0.45121869 -0.15267927
v 0.67353455 -0.50668039 -0.15267927
v 0.64123515 -0.54531171 -0.12914795
v 0.76361308 -0.51053153 -0.07983644
v 0.76361308 -0.51062482 -0.07952368
v 0.63300902 -0.51135773 -0.07898753
v 0.62789018 -0.54540498 -0.10046358
v 0.76361308 -0.50597412 -0.06148797
v 0.78744104 -0.41177453 -0.00152780
v 0.78238761 -0.40928263 -0.00456601
v 0.64615774 -0.43067041 -0.10804424
v 0.78744104 -0.43198967 -0.10365072
v 0.78740833 -0.46526403 -0.08119173
v 0.78740833 -0.47026118 -0.07529401
v 0.78740833 -0.47026118 -0.04619261
v 0.76361308 -0.50650716 -0.06314113
v 0.78740833 -0.46458441 -0.03605032
v 0.78744104 -0.43230948 -0.01807418
v 0.78744104 -0.43230948 -0.09897425
f 1 2 9
f 1 9 18
f 1 18 31
f 1 31 54
f 1 54 61
f 1 61 60
f 1 60 59
f 1 59 62
f 1 62 34
f 1 34 20
f 1 20 12
f 1 12 3
f 1 3 4
f 1 4 5
f 1 5 6
f 1 6 7
f 1 7 8
f 1 8 2
f 2 8 10
f 2 10 11
f 2 11 9
f 3 12 4
f 4 12 13
f 4 13 14
f 4 14 6
f 4 6 5
f 6 14 15
f 6 15 8
f 6 8 7
f 8 15 16
f 8 16 17
f 8 17 11
f 8 11 10
f 9 11 19
f 9 19 18
f 11 17 19
f 12 20 13
f 13 20 21
f 13 21 22
f 13 22 14
f 14 22 21
f 14 21 23
f 14 23 24
f 14 24 25
f 14 25 26
f 14 26 15
f 15 26 16
f 16 26 27
f 16 27 28
f 16 28 17
f 17 28 29
f 17 29 30
f 17 30 19
f 18 19 32
f 18 32 33
f 18 33 31
f 19 30 32
f 20 34 35
f 20 35 21
f 21 35 38
f 21 38 23
f 23 36 37
f 23 37 24
f 23 38 67
f 23 67 36
f 24 37 25
f 25 37 39
f 25 39 27
f 25 27 26
f 27 39 40
f 27 40 41
f 27 41 28
f 28 42 43
f 28 43 29
f 28 41 42
f 29 43 30
f 30 43 44
f 30 44 45
f 30 45 46
f 30 46 47
f 30 47 48
f 30 48 49
f 30 49 50
f 30 50 51
f 30 51 52
f 30 52 53
f 30 53 32
f 31 33 54
f 32 53 52
f 32 52 51
f 32 51 50
f 32 50 49
f 32 49 48
f 32 48 47
f 32 47 46
f 32 46 45
f 32 45 70
f 32 70 41
f 32 41 33
f 33 41 69
f 33 69 78
f 33 78 79
f 33 79 72
f 33 72 55
f 33 55 56
f 33 56 57
f 33 57 58
f 33 58 59
f 33 59 60
f 33 60 61
f 33 61 54
f 34 62 58
f 34 58 35
f 35 63 67
f 35 67 38
f 35 58 64
f 35 64 65
f 35 65 63
f 36 66 40
f 36 40 37
f 36 67 68
f 36 68 69
f 36 69 66
f 37 40 39
f 40 66 69
f 40 69 41
f 41 70 42
f 42 71 43
f 42 70 45
f 42 45 71
f 43 71 44
f 44 71 45
f 55 72 56
f 56 72 73
f 56 73 58
f 56 58 57
f 58 73 74
f 58 74 64
f 58 62 59
f 63 65 67
f 64 74 65
f 65 74 75
f 65 75 76
f 65 76 67
f 67 76 68
f 68 76 75
f 68 75 77
f 68 77 69
f 69 77 78
f 72 79 74
f 72 74 73
f 74 79 78
f 74 78 75
f 75 78 77

