# https://github.com/mikedh/trimesh
v 0.34683248 -0.45063092 -0.13756284
v 0.34632028 -0.43618182 -0.13756284
v 0.34289574 -0.45145846 -0.11290918
v 0.34292500 -0.49330826 -0.10880755
v 0.34652516 -0.50865055 -0.13756284
v 0.34029076 -0.50865055 -0.15180133
v 0.34032002 -0.46513253 -0.15180133
v 0.34032002 -0.45063092 -0.15180133
v 0.34027611 -0.43618182 -0.15180133
v 0.33967608 -0.42166707 -0.15169881
v 0.34514950 -0.42166707 -0.13756284
v 0.34231034 -0.43631319 -0.11290918
v 0.34232497 -0.43653649 -0.11290918
v 0.33582714 -0.49233623 -0.10488171
v 0.33582714 -0.51219716 -0.10488171
v 0.34282257 -0.50964886 -0.10880755
v 0.34586659 -0.52313904 -0.13756284
v 0.34017368 -0.52313904 -0.15178668
v 0.33585643 -0.52313904 -0.15902312
v 0.33588569 -0.50865055 -0.15905243
v 0.33590032 -0.45063092 -0.15905243
v 0.33588569 -0.43618182 -0.15905243
v 0.33588569 -0.43358098 -0.15902312
v 0.33584178 -0.42166707 -0.15893521
v 0.33809553 -0.41268235 -0.14932570
v 0.34032002 -0.41156584 -0.13756284
v 0.33970536 -0.41235396 -0.12911058
v 0.33402708 -0.41235396 -0.12911058
v 0.32889028 -0.43687801 -0.11290918
v 0.32886100 -0.49208665 -0.10488171
v 0.33210990 -0.51240732 -0.10488171
v 0.33641254 -0.54495717 -0.13020923
v 0.33906144 -0.53762754 -0.12931567
v 0.34005659 -0.53841567 -0.13644955
v 0.33871019 -0.53410723 -0.14942827
v 0.30843088 -0.53764068 -0.19185076
v 0.30625028 -0.52312591 -0.20153352
v 0.30644053 -0.50865055 -0.20160674
v 0.30644053 -0.49414894 -0.20160674
v 0.30644053 -0.47679689 -0.20153352
v 0.32625602 -0.41130312 -0.16319796
v 0.30005977 -0.47679689 -0.20768596
v 0.25289193 -0.42165393 -0.23707112
v 0.25163335 -0.41173660 -0.23531330
v 0.31923133 -0.41130312 -0.15541953
v 0.33213919 -0.41156584 -0.13756284
v 0.31760689 -0.44134409 -0.11290918
v 0.32189485 -0.43947885 -0.11290918
v 0.21737335 -0.41125059 -0.24152434
v 0.31744589 -0.49762985 -0.10488171
v 0.32896345 -0.51113318 -0.10488171
v 0.33590032 -0.54495717 -0.13020923
v 0.32351932 -0.54541691 -0.15823210
v 0.33641254 -0.54495717 -0.13086840
v 0.32351932 -0.54541691 -0.16069308
v 0.30733325 -0.54506226 -0.18903818
v 0.27926380 -0.54532498 -0.21789606
v 0.28157606 -0.53762754 -0.21930232
v 0.29899144 -0.52312591 -0.20815468
v 0.30005977 -0.51042386 -0.20765665
v 0.30005977 -0.50865055 -0.20768596
v 0.30005977 -0.48136806 -0.20771522
v 0.30005977 -0.47963416 -0.20771522
v 0.24504772 -0.41140821 -0.23594320
v 0.24182805 -0.41125059 -0.23628010
v 0.24182805 -0.41125059 -0.22910226
v 0.29919635 -0.48331212 -0.20853554
v 0.29054720 -0.48331212 -0.21578664
v 0.28330297 -0.48331212 -0.22038634
v 0.25312610 -0.43619496 -0.23726155
v 0.24504772 -0.45110379 -0.24228606
v 0.24147684 -0.45124828 -0.24435152
v 0.22561272 -0.42165393 -0.25106059
v 0.22350534 -0.41125059 -0.24933203
v 0.20164101 -0.44227670 -0.23058178
v 0.21737335 -0.41125059 -0.24933203
v 0.19736763 -0.43626063 -0.25273055
v 0.19736763 -0.43984663 -0.23778893
v 0.31744589 -0.50539294 -0.10488171
v 0.19733837 -0.49957391 -0.23017162
v 0.32038748 -0.50732388 -0.10488171
v 0.32082651 -0.54541691 -0.15823210
v 0.21918809 -0.54544318 -0.24436617
v 0.22128087 -0.54544318 -0.24436617
v 0.22128087 -0.54544318 -0.24735448
v 0.22385659 -0.53764068 -0.24937599
v 0.25151626 -0.53764068 -0.23521074
v 0.28330297 -0.52312591 -0.22038634
v 0.29054720 -0.52312591 -0.21539113
v 0.25292123 -0.52311279 -0.23708577
v 0.29918170 -0.50863743 -0.20852093
v 0.29054720 -0.50863743 -0.21577199
v 0.24232565 -0.49414894 -0.24454195
v 0.25337487 -0.45067031 -0.23742272
v 0.23639857 -0.45651562 -0.24676854
v 0.22581763 -0.43618182 -0.25126567
v 0.19736763 -0.44666397 -0.25453232
v 0.21576356 -0.42165393 -0.25106059
v 0.19736763 -0.43992545 -0.23775962
v 0.19733837 -0.49383369 -0.25264264
v 0.19733837 -0.49513410 -0.23891685
v 0.19733837 -0.50335695 -0.23017162
v 0.19733837 -0.50390864 -0.23064039
v 0.19733837 -0.50884759 -0.24016199
v 0.19733837 -0.50926793 -0.25157327
v 0.21918809 -0.54544318 -0.24735448
v 0.21735874 -0.53764068 -0.24937599
v 0.19733837 -0.50904463 -0.25234969
v 0.22586155 -0.52311279 -0.25087016
v 0.22733964 -0.49414894 -0.25116311
v 0.19736763 -0.45007921 -0.25453232
v 0.19733837 -0.49456928 -0.25264264
f 1 2 3
f 1 3 4
f 1 4 5
f 1 5 6
f 1 6 7
f 1 7 8
f 1 8 9
f 1 9 2
f 2 9 10
f 2 10 11
f 2 11 12
f 2 12 13
f 2 13 3
f 3 13 4
f 4 14 15
f 4 15 16
f 4 16 5
f 4 13 12
f 4 12 14
f 5 17 18
f 5 18 6
f 5 16 17
f 6 19 20
f 6 20 7
f 6 18 19
f 7 20 21
f 7 21 8
f 8 21 22
f 8 22 9
f 9 22 23
f 9 23 24
f 9 24 10
f 10 25 11
f 10 24 25
f 11 25 26
f 11 26 27
f 11 27 12
f 12 27 28
f 12 28 29
f 12 29 30
f 12 30 14
f 14 30 50
f 14 50 79
f 14 79 81
f 14 81 51
f 14 51 31
f 14 31 15
f 15 31 32
f 15 32 16
f 16 32 33
f 16 33 17
f 17 33 34
f 17 34 35
f 17 35 18
f 18 35 19
f 19 35 36
f 19 36 37
f 19 37 38
f 19 38 20
f 20 38 21
f 21 38 39
f 21 39 22
f 22 39 40
f 22 40 23
f 23 40 24
f 24 41 25
f 24 40 42
f 24 42 43
f 24 43 44
f 24 44 41
f 25 41 26
f 26 41 45
f 26 45 46
f 26 46 28
f 26 28 27
f 28 47 48
f 28 48 29
f 28 46 49
f 28 49 47
f 29 48 30
f 30 48 47
f 30 47 50
f 31 51 52
f 31 52 32
f 32 52 82
f 32 82 53
f 32 53 55
f 32 55 54
f 32 54 34
f 32 34 33
f 34 54 35
f 35 54 55
f 35 55 56
f 35 56 36
f 36 56 57
f 36 57 37
f 37 57 58
f 37 58 59
f 37 59 60
f 37 60 38
f 38 60 61
f 38 61 62
f 38 62 63
f 38 63 39
f 39 63 40
f 40 63 42
f 41 44 64
f 41 64 65
f 41 65 66
f 41 66 45
f 42 63 67
f 42 67 68
f 42 68 43
f 43 68 69
f 43 69 70
f 43 70 71
f 43 71 72
f 43 72 73
f 43 73 44
f 44 73 74
f 44 74 64
f 45 66 49
f 45 49 46
f 47 49 75
f 47 75 50
f 49 66 65
f 49 65 74
f 49 74 76
f 49 76 77
f 49 77 78
f 49 78 75
f 50 75 80
f 50 80 102
f 50 102 79
f 51 81 52
f 52 81 79
f 52 79 83
f 52 83 82
f 53 82 83
f 53 83 84
f 53 84 85
f 53 85 55
f 55 85 57
f 55 57 56
f 57 85 86
f 57 86 87
f 57 87 58
f 58 88 89
f 58 89 59
f 58 87 90
f 58 90 88
f 59 89 91
f 59 91 60
f 60 91 61
f 61 91 67
f 61 67 62
f 62 67 63
f 64 74 65
f 67 91 92
f 67 92 68
f 68 92 88
f 68 88 69
f 69 88 93
f 69 93 94
f 69 94 70
f 70 94 71
f 71 94 93
f 71 93 72
f 72 93 95
f 72 95 96
f 72 96 73
f 73 96 97
f 73 97 98
f 73 98 76
f 73 76 74
f 75 78 99
f 75 99 80
f 76 98 77
f 77 98 97
f 77 97 100
f 77 100 101
f 77 101 78
f 78 101 80
f 78 80 99
f 79 102 103
f 79 103 83
f 80 101 100
f 80 100 112
f 80 112 108
f 80 108 105
f 80 105 104
f 80 104 103
f 80 103 102
f 83 103 104
f 83 104 105
f 83 105 106
f 83 106 85
f 83 85 84
f 85 106 107
f 85 107 86
f 86 107 108
f 86 108 109
f 86 109 90
f 86 90 87
f 88 92 89
f 88 90 93
f 89 92 91
f 90 109 93
f 93 109 110
f 93 110 96
f 93 96 95
f 96 110 97
f 97 111 112
f 97 112 100
f 97 110 111
f 105 108 106
f 106 108 107
f 108 112 111
f 108 111 109
f 109 111 110

