# https://github.com/mikedh/trimesh
v 0.83645674 0.15202980 0.13287884
v 0.83645674 0.15202980 0.12940503
v 0.82195912 0.15161947 0.13182841
v 0.81394582 0.13969306 0.14579739
v 0.81626691 0.13969306 0.14579739
v 0.88746556 0.15132825 0.13095305
v 0.89313935 0.15175183 0.12232839
v 0.89721048 0.15173858 0.12094623
v 0.94613767 0.15173858 0.08937781
v 0.82195912 0.15161947 0.13009610
v 0.94407448 0.15173858 0.08489962
v 0.95783527 0.15154003 0.07164014
v 0.81468267 0.15119589 0.13098069
v 0.81357738 0.12942126 0.14606461
v 0.81348528 0.14428625 0.13669359
v 0.79388493 0.06838614 0.12326825
v 0.79388493 0.05739954 0.13589195
v 0.79388493 0.05729365 0.13590116
v 0.81704061 0.12942126 0.14606461
v 0.85093596 0.11494014 0.14093221
v 0.88986034 0.12940802 0.13282356
v 0.88871822 0.14391561 0.13194820
v 0.91808191 0.14392886 0.11801607
v 0.91671873 0.15155328 0.11675370
v 0.90892647 0.15168564 0.11696563
v 0.97485662 0.14016959 0.07363044
v 0.96249586 0.15154003 0.07342773
v 0.96249586 0.15154003 0.07164014
v 0.81468267 0.15119589 0.13073190
v 0.96614330 0.11746838 0.05193982
v 0.95356150 0.11419888 0.05193982
v 0.95332202 0.11405327 0.05193982
v 0.86005455 0.11214717 0.08661349
v 0.81352213 0.11494014 0.14606461
v 0.79388493 0.06487837 0.11800685
v 0.79388493 0.04323610 0.13546808
v 0.81357738 0.02797403 0.14606461
v 0.81352213 0.10043256 0.14606461
v 0.81704061 0.02797403 0.14606461
v 0.85093596 0.05696273 0.14142057
v 0.88997088 0.07148356 0.13282356
v 0.91918718 0.12942126 0.11902964
v 0.94529029 0.13712512 0.10181720
v 0.97518820 0.12942126 0.07407274
v 0.98012515 0.11452980 0.05193982
v 0.97485662 0.14016959 0.07122549
v 0.96715648 0.14456422 0.06881133
v 0.97933300 0.11505927 0.05193982
v 0.85662817 0.10961894 0.08661349
v 0.80946942 0.11157800 0.11185165
v 0.79388493 0.05657887 0.10882013
v 0.95247464 0.10047226 0.05193982
v 0.79388493 0.04110499 0.12535992
v 0.81320896 0.01841701 0.13800203
v 0.81396423 0.01959509 0.14578818
v 0.81626691 0.01959509 0.14578818
v 0.88984193 0.02798725 0.13282356
v 0.88997088 0.05698920 0.13282356
v 0.91918718 0.02797403 0.11902964
v 0.94534555 0.12942126 0.10184485
v 0.97518820 0.08004780 0.07407274
v 0.98205939 0.05590379 0.05194903
v 0.98204096 0.05820698 0.05194903
v 0.98012515 0.11340466 0.05193982
v 0.95112987 0.05750543 0.05194903
v 0.79388493 0.05611557 0.10882013
v 0.96605120 0.09808962 0.05193982
v 0.95474047 0.04530107 0.05194903
v 0.95385624 0.04634677 0.05194903
v 0.95124041 0.05614204 0.05194903
v 0.95112987 0.05702892 0.05194903
v 0.79388493 0.04093291 0.12392248
v 0.82144332 0.01782135 0.13805732
v 0.81346686 0.01877440 0.12937738
v 0.82195912 0.01794048 0.12852966
v 0.83645674 0.01697420 0.13576294
v 0.88893927 0.01845673 0.13213248
v 0.91817401 0.01800668 0.11810821
v 0.94530873 0.02056139 0.10180799
v 0.94534555 0.02796078 0.10184485
v 0.97518820 0.02796078 0.07406352
v 0.97485662 0.01939654 0.07363044
v 0.97983038 0.04355380 0.05194903
v 0.98010671 0.10085614 0.05193982
v 0.79388493 0.04716746 0.10940985
v 0.96765386 0.09839409 0.05193982
v 0.96693543 0.04324935 0.05194903
v 0.95569839 0.01803315 0.06897719
v 0.79388493 0.04651885 0.11052478
v 0.83645674 0.01697420 0.12740551
v 0.89404201 0.01680212 0.12292733
v 0.96693543 0.01770223 0.07532588
v 0.94744559 0.01820523 0.09450099
v 0.97485662 0.01939654 0.07122549
v 0.96693543 0.01770223 0.06876525
v 0.94197444 0.01749043 0.08308439
f 1 2 10
f 1 10 3
f 1 3 4
f 1 4 5
f 1 5 6
f 1 6 7
f 1 7 8
f 1 8 9
f 1 9 2
f 2 9 11
f 2 11 12
f 2 12 10
f 3 10 29
f 3 29 13
f 3 13 4
f 4 14 19
f 4 19 5
f 4 13 15
f 4 15 16
f 4 16 17
f 4 17 18
f 4 18 14
f 5 19 20
f 5 20 21
f 5 21 22
f 5 22 6
f 6 22 23
f 6 23 24
f 6 24 7
f 7 24 8
f 8 24 25
f 8 25 9
f 9 25 24
f 9 24 26
f 9 26 27
f 9 27 28
f 9 28 11
f 10 12 29
f 11 28 12
f 12 28 30
f 12 30 31
f 12 31 32
f 12 32 33
f 12 33 29
f 13 29 16
f 13 16 15
f 14 18 34
f 14 34 38
f 14 38 37
f 14 37 39
f 14 39 19
f 16 29 35
f 16 35 51
f 16 51 66
f 16 66 85
f 16 85 89
f 16 89 72
f 16 72 53
f 16 53 36
f 16 36 18
f 16 18 17
f 18 36 37
f 18 37 38
f 18 38 34
f 19 39 40
f 19 40 20
f 20 40 21
f 21 40 41
f 21 41 42
f 21 42 22
f 22 42 23
f 23 42 43
f 23 43 24
f 24 43 26
f 26 44 45
f 26 45 46
f 26 46 28
f 26 28 27
f 26 43 44
f 28 46 47
f 28 47 45
f 28 45 48
f 28 48 30
f 29 33 49
f 29 49 50
f 29 50 51
f 29 51 35
f 30 48 45
f 30 45 64
f 30 64 84
f 30 84 86
f 30 86 67
f 30 67 52
f 30 52 32
f 30 32 31
f 32 52 49
f 32 49 33
f 36 53 54
f 36 54 55
f 36 55 37
f 37 55 56
f 37 56 39
f 39 56 40
f 40 57 58
f 40 58 41
f 40 56 57
f 41 58 59
f 41 59 42
f 42 59 80
f 42 80 60
f 42 60 43
f 43 60 44
f 44 61 62
f 44 62 63
f 44 63 45
f 44 60 80
f 44 80 61
f 45 47 46
f 45 63 62
f 45 62 64
f 49 51 50
f 49 52 65
f 49 65 51
f 51 65 71
f 51 71 66
f 52 67 68
f 52 68 69
f 52 69 70
f 52 70 71
f 52 71 65
f 53 72 54
f 54 73 55
f 54 72 74
f 54 74 75
f 54 75 73
f 55 73 76
f 55 76 56
f 56 76 77
f 56 77 57
f 57 77 59
f 57 59 58
f 59 78 79
f 59 79 80
f 59 77 78
f 61 81 62
f 61 80 81
f 62 81 82
f 62 82 83
f 62 83 84
f 62 84 64
f 66 71 70
f 66 70 85
f 67 86 83
f 67 83 87
f 67 87 68
f 68 88 85
f 68 85 69
f 68 87 88
f 69 85 70
f 72 89 74
f 73 75 90
f 73 90 76
f 74 89 85
f 74 85 88
f 74 88 75
f 75 88 90
f 76 91 77
f 76 90 91
f 77 91 78
f 78 92 93
f 78 93 79
f 78 91 92
f 79 93 82
f 79 82 81
f 79 81 80
f 82 93 92
f 82 92 95
f 82 95 94
f 82 94 83
f 83 94 95
f 83 95 87
f 83 86 84
f 87 95 88
f 88 95 90
f 90 95 96
f 90 96 91
f 91 96 95
f 91 95 92

