# https://github.com/mikedh/trimesh
v 0.11134308 -0.33373422 -0.06503760
v 0.12587043 -0.33496323 -0.07950081
v 0.11134308 -0.33375153 -0.07950081
v 0.09686924 -0.33402849 -0.07950081
v 0.09686924 -0.33402849 -0.06503760
v 0.08405411 -0.33504978 -0.02325091
v 0.18333779 -0.34046781 -0.02325091
v 0.14029081 -0.33652112 -0.09398849
v 0.12587043 -0.33529213 -0.09398849
v 0.11134308 -0.33482475 -0.09398849
v 0.09686924 -0.33504978 -0.09398849
v 0.08234189 -0.33594990 -0.09398849
v 0.08234189 -0.33522289 -0.07950081
v 0.08234189 -0.33510171 -0.02325091
v 0.30434568 -0.44141969 -0.00820037
v 0.19829324 -0.34252770 -0.02325091
v 0.15481816 -0.33854640 -0.09398849
v 0.15481816 -0.34001775 -0.10347155
v 0.10583178 -0.34077939 -0.13133341
v 0.09686924 -0.33643457 -0.10850064
v 0.06792151 -0.33887529 -0.09391508
v 0.06784125 -0.33653843 -0.07950081
v 0.09673547 -0.33934266 -0.12329423
v 0.08252916 -0.33890991 -0.10835380
v 0.05261831 -0.33986196 -0.07880334
v 0.04590305 -0.34167951 -0.07200001
v 0.07030261 -0.33866757 -0.02325091
v 0.30006504 -0.44204284 -0.00820037
v 0.30298121 -0.49625775 -0.00744172
v 0.31868576 -0.45679096 -0.00820037
v 0.30434568 -0.43920401 -0.02152561
v 0.21118863 -0.34978058 -0.02325091
v 0.20698825 -0.34704561 -0.02325091
v 0.17686336 -0.34173144 -0.07300337
v 0.16297810 -0.34110828 -0.10200320
v 0.10706248 -0.34914012 -0.13215324
v 0.10155118 -0.34077939 -0.13133341
v 0.19224687 -0.39864670 -0.11667443
v 0.16209523 -0.39985839 -0.13025662
v 0.05697916 -0.34039856 -0.08903281
v 0.08753215 -0.34048512 -0.11865670
v 0.04590305 -0.34167951 -0.07355400
v 0.04558201 -0.34914012 -0.07158397
v 0.05866468 -0.34914012 -0.03959851
v 0.06551365 -0.34914012 -0.02325091
v 0.05965455 -0.34090056 -0.04094448
v 0.06947325 -0.34026008 -0.02325091
v 0.20458039 -0.40929233 -0.01408599
v 0.29931594 -0.49717517 -0.00744172
v 0.29993127 -0.49700207 -0.00744172
v 0.30298121 -0.50287016 -0.00744172
v 0.31868576 -0.46189741 -0.00820037
v 0.31868576 -0.45679096 -0.03207322
v 0.30434568 -0.43901360 -0.03601328
v 0.30434568 -0.43956752 -0.04012465
v 0.30434568 -0.44193898 -0.04629172
v 0.10743703 -0.36364589 -0.13242244
v 0.09970515 -0.34914012 -0.13215324
v 0.09248158 -0.34914012 -0.12801741
v 0.30298121 -0.49759060 -0.04731956
v 0.19224687 -0.40160670 -0.11667443
v 0.16209523 -0.39991032 -0.13025662
v 0.10757080 -0.37813435 -0.13242244
v 0.05465157 -0.34914012 -0.09067246
v 0.04740129 -0.34914012 -0.08260880
v 0.04558201 -0.34914012 -0.07540168
v 0.04536799 -0.36364589 -0.07130254
v 0.05724670 -0.37813435 -0.03959851
v 0.05780857 -0.36364589 -0.03950061
v 0.06575448 -0.36364589 -0.02325091
v 0.29931594 -0.50522431 -0.00744172
v 0.20458039 -0.41218311 -0.01404927
v 0.05724670 -0.37851517 -0.03959851
v 0.29993127 -0.50541472 -0.00744172
v 0.30298121 -0.50633216 -0.00745396
v 0.31314770 -0.49026850 -0.02273699
v 0.31868576 -0.46489203 -0.01762226
v 0.31868576 -0.46428619 -0.02331211
v 0.31285341 -0.49026850 -0.03449601
v 0.30298121 -0.50503390 -0.04731956
v 0.31494018 -0.45679096 -0.03606223
v 0.30434568 -0.44770321 -0.04629172
v 0.09922358 -0.36364589 -0.13242244
v 0.09200002 -0.36364589 -0.12876380
v 0.07412844 -0.38109437 -0.11656431
v 0.15615588 -0.40570916 -0.12844566
v 0.10695547 -0.40124319 -0.13150472
v 0.10799885 -0.39264014 -0.13227560
v 0.10757080 -0.37851517 -0.13242244
v 0.18240142 -0.48902217 -0.09233660
v 0.16351317 -0.48597560 -0.09543235
v 0.04683947 -0.36364589 -0.08382018
v 0.04536799 -0.36364589 -0.07660083
v 0.04536799 -0.37813435 -0.07131477
v 0.06588820 -0.36596543 -0.02325091
v 0.05732700 -0.39264014 -0.04014914
v 0.21298111 -0.50572630 -0.03401879
v 0.06663734 -0.37813435 -0.02325091
v 0.06666409 -0.37851517 -0.02325091
v 0.06685137 -0.38035003 -0.02325091
v 0.06923247 -0.39264014 -0.02325091
v 0.07311177 -0.40108740 -0.02325091
v 0.09834072 -0.44893222 -0.02361800
v 0.11211897 -0.46385344 -0.02361800
v 0.04550175 -0.39264014 -0.07148607
v 0.21298111 -0.50622830 -0.03481413
v 0.30298121 -0.50977685 -0.01835643
v 0.30298121 -0.51038270 -0.03285635
v 0.30298121 -0.51024422 -0.03601328
v 0.29979750 -0.51050387 -0.03601328
v 0.21298111 -0.50572630 -0.06021653
v 0.09922358 -0.37851517 -0.13242244
v 0.09197326 -0.37813435 -0.12892288
v 0.07359337 -0.39264014 -0.11687020
v 0.15481816 -0.48597560 -0.09600747
v 0.10120338 -0.40124319 -0.13150472
v 0.09951787 -0.39264014 -0.13227560
v 0.13930089 -0.48902217 -0.09233660
v 0.05553448 -0.39360948 -0.09517539
v 0.04699999 -0.37851517 -0.08410161
v 0.04678596 -0.37813435 -0.08382018
v 0.06543343 -0.39360948 -0.10711794
v 0.06051071 -0.39907944 -0.10137916
v 0.04536799 -0.37813435 -0.07660083
v 0.04579604 -0.40029115 -0.07185317
v 0.05858442 -0.40152015 -0.04154406
v 0.08335852 -0.47174680 -0.06768062
v 0.12247270 -0.48902217 -0.06022876
v 0.04550175 -0.39264014 -0.07601348
v 0.21298111 -0.51000188 -0.05035414
v 0.21298111 -0.51001919 -0.05052544
v 0.28532366 -0.51053848 -0.03601328
v 0.09224080 -0.39264014 -0.12853132
v 0.08236860 -0.39264014 -0.12240097
v 0.07410164 -0.40062004 -0.11642970
v 0.06051071 -0.39997955 -0.10137916
v 0.08335852 -0.47174680 -0.07943961
v 0.12648580 -0.48902217 -0.07939069
v 0.04705350 -0.39264014 -0.08323286
v 0.04678596 -0.37851517 -0.08380795
v 0.04579604 -0.40029115 -0.07437383
v 0.12225867 -0.48902217 -0.06502535
v 0.12584372 -0.48902217 -0.07756747
f 1 2 3
f 1 3 4
f 1 4 5
f 1 5 6
f 1 6 7
f 1 7 2
f 2 8 9
f 2 9 3
f 2 7 8
f 3 9 10
f 3 10 11
f 3 11 4
f 4 11 12
f 4 12 13
f 4 13 14
f 4 14 5
f 5 14 6
f 6 14 15
f 6 15 7
f 7 15 16
f 7 16 8
f 8 17 18
f 8 18 19
f 8 19 9
f 8 16 17
f 9 19 20
f 9 20 10
f 10 20 11
f 11 20 12
f 12 21 22
f 12 22 13
f 12 20 23
f 12 23 24
f 12 24 21
f 13 22 14
f 14 22 25
f 14 25 26
f 14 26 27
f 14 27 28
f 14 28 15
f 15 28 29
f 15 29 30
f 15 30 31
f 15 31 32
f 15 32 33
f 15 33 16
f 16 33 34
f 16 34 17
f 17 35 18
f 17 34 35
f 18 35 19
f 19 36 58
f 19 58 37
f 19 37 20
f 19 35 38
f 19 38 39
f 19 39 36
f 20 37 23
f 21 40 22
f 21 24 40
f 22 40 25
f 23 41 24
f 23 37 41
f 24 41 40
f 25 40 42
f 25 42 26
f 26 42 66
f 26 66 43
f 26 43 44
f 26 44 45
f 26 45 46
f 26 46 27
f 27 47 48
f 27 48 28
f 27 46 47
f 28 49 50
f 28 50 29
f 28 48 49
f 29 50 49
f 29 49 71
f 29 71 74
f 29 74 51
f 29 51 52
f 29 52 30
f 30 52 77
f 30 77 78
f 30 78 53
f 30 53 54
f 30 54 31
f 31 54 32
f 32 34 33
f 32 54 55
f 32 55 56
f 32 56 35
f 32 35 34
f 35 56 38
f 36 57 83
f 36 83 58
f 36 39 57
f 37 58 59
f 37 59 41
f 38 56 60
f 38 60 80
f 38 80 61
f 38 61 62
f 38 62 39
f 39 62 89
f 39 89 63
f 39 63 57
f 40 64 65
f 40 65 42
f 40 41 59
f 40 59 64
f 42 65 66
f 43 66 93
f 43 93 67
f 43 67 68
f 43 68 69
f 43 69 44
f 44 69 45
f 45 70 71
f 45 71 49
f 45 49 72
f 45 72 48
f 45 48 47
f 45 47 46
f 45 69 68
f 45 68 73
f 45 73 70
f 48 72 49
f 51 74 75
f 51 75 52
f 52 76 77
f 52 75 76
f 53 78 79
f 53 79 80
f 53 80 81
f 53 81 56
f 53 56 55
f 53 55 54
f 56 81 82
f 56 82 80
f 56 80 60
f 57 63 89
f 57 89 112
f 57 112 83
f 58 83 84
f 58 84 59
f 59 84 85
f 59 85 64
f 61 80 62
f 62 86 87
f 62 87 88
f 62 88 89
f 62 80 90
f 62 90 91
f 62 91 86
f 64 85 65
f 65 85 92
f 65 92 66
f 66 92 93
f 67 93 124
f 67 124 94
f 67 94 73
f 67 73 68
f 70 95 71
f 70 73 96
f 70 96 95
f 71 97 74
f 71 95 98
f 71 98 99
f 71 99 100
f 71 100 101
f 71 101 102
f 71 102 103
f 71 103 104
f 71 104 97
f 73 94 105
f 73 105 96
f 74 97 75
f 75 97 106
f 75 106 107
f 75 107 76
f 76 79 78
f 76 78 77
f 76 107 108
f 76 108 109
f 76 109 79
f 79 109 80
f 80 82 81
f 80 109 110
f 80 110 111
f 80 111 90
f 83 112 113
f 83 113 84
f 84 113 114
f 84 114 85
f 85 114 92
f 86 91 115
f 86 115 87
f 87 116 117
f 87 117 88
f 87 115 116
f 88 117 112
f 88 112 89
f 90 111 118
f 90 118 115
f 90 115 91
f 92 119 120
f 92 120 121
f 92 121 93
f 92 114 122
f 92 122 123
f 92 123 119
f 93 121 124
f 94 124 129
f 94 129 105
f 95 96 98
f 96 105 125
f 96 125 126
f 96 126 101
f 96 101 100
f 96 100 99
f 96 99 98
f 97 104 106
f 101 126 102
f 102 126 103
f 103 127 104
f 103 126 127
f 104 127 128
f 104 128 106
f 105 129 141
f 105 141 125
f 106 130 107
f 106 128 130
f 107 130 131
f 107 131 132
f 107 132 108
f 108 132 110
f 108 110 109
f 110 132 131
f 110 131 111
f 111 131 118
f 112 117 113
f 113 117 133
f 113 133 134
f 113 134 114
f 114 134 135
f 114 135 136
f 114 136 123
f 114 123 122
f 115 118 116
f 116 118 137
f 116 137 135
f 116 135 133
f 116 133 117
f 118 138 137
f 118 131 138
f 119 139 140
f 119 140 120
f 119 123 136
f 119 136 139
f 120 140 121
f 121 140 124
f 124 140 129
f 125 141 137
f 125 137 127
f 125 127 126
f 127 137 142
f 127 142 128
f 128 142 131
f 128 131 130
f 129 140 139
f 129 139 141
f 131 142 143
f 131 143 138
f 133 135 134
f 135 137 136
f 136 137 141
f 136 141 139
f 137 138 143
f 137 143 142

