# https://github.com/mikedh/trimesh
v 0.73003802 -0.03006245 -0.01184535
v 0.73003802 -0.01559445 -0.01142948
v 0.87650492 -0.03129087 0.01230372
v 0.87645796 -0.03459146 0.01230372
v 0.87528396 -0.04130431 0.01230372
v 0.73003802 -0.04455527 -0.01102079
v 0.69139030 -0.05672775 -0.01027509
v 0.68904232 -0.05672775 -0.01025358
v 0.67692675 -0.04455527 -0.01014603
v 0.66241624 -0.03006245 -0.00980904
v 0.73003802 -0.00282637 -0.00620962
v 0.86650251 -0.00023305 0.01230372
v 0.87251336 -0.01410546 0.01230372
v 0.87302990 -0.01558205 0.01230372
v 0.66241624 -0.01557584 -0.00917806
v 0.64438377 0.00262084 -0.00562167
v 0.87537788 -0.00395552 0.02590550
v 0.87669275 -0.01558205 0.02371859
v 0.87669275 -0.01558205 0.03141218
v 0.87645796 -0.03005625 0.03124725
v 0.87598835 -0.04456768 0.03096046
v 0.87467349 -0.05291842 0.02640740
v 0.86875659 -0.04554793 0.01230372
v 0.86537550 -0.04730990 0.01230372
v 0.73003802 -0.05672775 -0.00676171
v 0.70590081 -0.05672775 -0.00947920
v 0.39695381 -0.06076042 0.01423250
v 0.67692675 -0.05672775 -0.00989507
v 0.85086498 0.00198182 0.01230372
v 0.86636163 -0.00082865 0.02145282
v 0.87537788 -0.00395552 0.03074535
v 0.39695381 -0.01557584 0.01656997
v 0.63687024 0.00262084 -0.00370006
v 0.65856556 0.00262084 -0.00342043
v 0.39695381 -0.00223699 0.02305179
v 0.74342150 -0.01558205 0.05918217
v 0.74337454 -0.00419129 0.05905311
v 0.87467349 -0.05291842 0.03023626
v 0.74267014 -0.02545279 0.05867309
v 0.73543838 -0.03019274 0.05962672
v 0.72167922 -0.05672775 0.05944030
v 0.86537550 -0.05347679 0.02493036
v 0.85086498 -0.05059808 0.01230372
v 0.85772109 -0.04909669 0.01230372
v 0.73003802 -0.05672775 0.00466033
v 0.41432885 -0.06076042 0.02513112
v 0.41414101 -0.06076042 0.02266460
v 0.40399775 -0.06076042 0.01616843
v 0.39695381 -0.06076042 0.04366596
v 0.85086498 0.00128074 0.02201210
v 0.65969259 0.00262084 -0.00213697
v 0.66302672 0.00262084 0.02295138
v 0.66297976 0.00262084 0.03625920
v 0.72041131 0.00238507 0.03648864
v 0.86537550 -0.00177168 0.03150539
v 0.63409962 0.00262084 0.02341028
v 0.39695381 -0.00212531 0.02622099
v 0.73492182 -0.01558205 0.06080979
v 0.73492182 -0.00299389 0.05964823
v 0.86537550 -0.05347679 0.03074535
v 0.72266537 -0.05672775 0.05921085
v 0.72059915 -0.05672775 0.05959804
v 0.40892852 -0.06076042 0.04366596
v 0.72787788 -0.05672775 0.03506178
v 0.41381230 -0.06076042 0.03724151
v 0.66241624 -0.03006245 0.06037959
v 0.39695381 -0.05653542 0.04366596
v 0.70590081 -0.05672775 0.06111094
v 0.69373827 -0.05672775 0.06093168
v 0.69139030 -0.05672775 0.06088867
v 0.67692675 -0.05672775 0.06040110
v 0.73492182 0.00015161 0.05099386
v 0.64870405 0.00262084 0.03908423
v 0.63339523 0.00262084 0.03301830
v 0.39695381 -0.00212531 0.03135481
v 0.73003802 -0.01558205 0.06101056
v 0.73003802 -0.02047089 0.06097471
v 0.70824878 -0.05672775 0.06099622
v 0.67692675 -0.00624485 0.05931840
v 0.72041131 -0.00450769 0.05975579
v 0.72041131 -0.01559445 0.06140492
v 0.66241624 -0.00659228 0.05904594
v 0.72618734 -0.05672775 0.05302301
v 0.41306095 -0.06076042 0.03951444
v 0.66241624 -0.01557584 0.06013580
v 0.70590081 -0.03006245 0.06134039
v 0.67692675 -0.01559445 0.06056601
v 0.65452704 -0.00760355 0.05863724
v 0.72041131 -0.03006245 0.06129020
v 0.63597801 0.00262084 0.03413684
v 0.70590081 -0.01559445 0.06116113
f 1 2 3
f 1 3 4
f 1 4 5
f 1 5 6
f 1 6 7
f 1 7 8
f 1 8 9
f 1 9 10
f 1 10 2
f 2 11 12
f 2 12 13
f 2 13 14
f 2 14 3
f 2 10 15
f 2 15 16
f 2 16 11
f 3 17 18
f 3 18 19
f 3 19 4
f 3 14 17
f 4 20 21
f 4 21 22
f 4 22 5
f 4 19 20
f 5 22 23
f 5 23 6
f 6 23 24
f 6 24 25
f 6 25 26
f 6 26 7
f 7 26 27
f 7 27 8
f 8 27 28
f 8 28 9
f 9 28 10
f 10 27 15
f 10 28 27
f 11 29 12
f 11 16 29
f 12 30 31
f 12 31 17
f 12 17 13
f 12 29 30
f 13 17 14
f 15 27 32
f 15 32 16
f 16 33 56
f 16 56 74
f 16 74 90
f 16 90 73
f 16 73 53
f 16 53 52
f 16 52 51
f 16 51 34
f 16 34 29
f 16 32 35
f 16 35 33
f 17 31 19
f 17 19 18
f 19 36 20
f 19 31 37
f 19 37 36
f 20 36 21
f 21 38 22
f 21 36 39
f 21 39 40
f 21 40 41
f 21 41 38
f 22 38 60
f 22 60 42
f 22 42 43
f 22 43 44
f 22 44 24
f 22 24 23
f 24 44 25
f 25 44 43
f 25 43 42
f 25 42 60
f 25 60 45
f 25 45 46
f 25 46 47
f 25 47 48
f 25 48 27
f 25 27 26
f 27 48 47
f 27 47 46
f 27 46 65
f 27 65 84
f 27 84 63
f 27 63 49
f 27 49 67
f 27 67 75
f 27 75 57
f 27 57 35
f 27 35 32
f 29 50 30
f 29 34 51
f 29 51 52
f 29 52 53
f 29 53 54
f 29 54 50
f 30 50 55
f 30 55 31
f 31 55 37
f 33 35 57
f 33 57 56
f 36 37 58
f 36 58 39
f 37 59 58
f 37 55 59
f 38 41 61
f 38 61 60
f 39 58 40
f 40 58 62
f 40 62 41
f 41 62 63
f 41 63 61
f 45 64 65
f 45 65 46
f 45 60 64
f 49 66 67
f 49 63 68
f 49 68 69
f 49 69 70
f 49 70 71
f 49 71 66
f 50 54 72
f 50 72 55
f 53 73 54
f 54 73 72
f 55 72 59
f 56 57 74
f 57 75 74
f 58 59 76
f 58 76 77
f 58 77 78
f 58 78 62
f 59 79 80
f 59 80 81
f 59 81 76
f 59 72 73
f 59 73 75
f 59 75 82
f 59 82 79
f 60 61 83
f 60 83 64
f 61 63 84
f 61 84 83
f 62 78 63
f 63 78 68
f 64 83 65
f 65 83 84
f 66 85 67
f 66 71 70
f 66 70 86
f 66 86 87
f 66 87 85
f 67 85 88
f 67 88 75
f 68 78 89
f 68 89 86
f 68 86 69
f 69 86 70
f 73 90 75
f 74 75 90
f 75 88 82
f 76 81 77
f 77 81 89
f 77 89 78
f 79 87 91
f 79 91 81
f 79 81 80
f 79 82 87
f 81 91 86
f 81 86 89
f 82 88 85
f 82 85 87
f 86 91 87

