# https://github.com/mikedh/trimesh
v -0.97211372 0.17508428 -0.42355634
v 0.14478845 0.17508428 -0.42355634
v -0.97211372 0.17508428 0.00366147
v -0.97211372 1.67039152 -0.42355634
v 0.14478845 0.17508428 0.04522448
v 0.14478845 1.67039152 -0.42355634
v -0.91406022 0.17508428 0.04608638
v -0.97211372 0.17537697 0.04522448
v -0.97211372 1.67039152 0.06083454
v -0.17915255 0.17508428 0.04713982
v 0.14478845 0.81222916 0.06562291
v 0.10969394 0.79656770 0.06562291
v 0.05809078 0.78632182 0.06562291
v 0.14478845 1.67039152 -0.19989186
v -0.90105012 0.17508428 0.04632582
v -0.97211372 0.33257749 0.04733135
v -0.48658493 1.10774848 0.06562291
v -0.90105012 1.67039152 0.06260624
v -0.97211372 0.91015019 0.05393930
v -0.75662683 0.17508428 0.04718772
v -0.02478039 0.77563688 0.06562291
v 0.14478845 1.36638277 0.06562291
v -0.14854051 1.67039152 0.06562291
v 0.14478845 1.40224325 0.04120226
v -0.84179392 0.17508428 0.04704406
v -0.75662683 0.91015019 0.05829671
v -0.82878382 0.91015019 0.05686019
v -0.50068832 1.12663010 0.06562291
v -0.03472930 0.78075982 0.06562291
v -0.68359526 1.56061469 0.06562291
v -0.68436052 1.56251746 0.06562291
v -0.70655430 1.63204289 0.06562291
v -0.71409793 1.67039152 0.06562291
v -0.82878382 0.17508428 0.04718772
f 1 2 5
f 1 5 10
f 1 10 20
f 1 20 34
f 1 34 25
f 1 25 15
f 1 15 7
f 1 7 3
f 1 3 8
f 1 8 16
f 1 16 19
f 1 19 9
f 1 9 4
f 1 4 6
f 1 6 2
f 2 6 14
f 2 14 24
f 2 24 22
f 2 22 11
f 2 11 5
f 3 7 8
f 4 9 18
f 4 18 33
f 4 33 23
f 4 23 14
f 4 14 6
f 5 11 12
f 5 12 13
f 5 13 10
f 7 15 8
f 8 15 17
f 8 17 16
f 9 19 18
f 10 13 21
f 10 21 20
f 11 22 23
f 11 23 33
f 11 33 32
f 11 32 31
f 11 31 30
f 11 30 28
f 11 28 17
f 11 17 29
f 11 29 21
f 11 21 13
f 11 13 12
f 14 23 24
f 15 25 17
f 16 26 27
f 16 27 19
f 16 17 28
f 16 28 26
f 17 25 29
f 18 28 30
f 18 30 31
f 18 31 32
f 18 32 33
f 18 19 28
f 19 27 28
f 20 21 34
f 21 29 34
f 22 24 23
f 25 34 29
f 26 28 27

