# https://github.com/mikedh/trimesh
v 0.20291559 2.01707515 0.06563039
v 0.46989502 1.80329371 0.06563039
v 0.49848163 1.80329371 0.09879418
v 0.20291559 2.03970250 0.08431022
v 0.20291559 2.69231668 0.06563039
v 0.78583121 1.80329371 0.06563039
v 0.54293067 1.80329371 0.12308842
v 0.20291559 2.07342523 0.10475950
v 0.20291559 2.68593918 0.07826279
v 0.54293067 2.69581130 0.06563039
v 0.78583121 1.80329371 0.08787895
v 0.78583121 2.69415146 0.06563039
v 0.61511042 1.80329371 0.13174894
v 0.20291559 2.13755101 0.13224171
v 0.54293067 2.68183304 0.09326190
v 0.20291559 2.66514639 0.09080561
v 0.21535446 2.67903730 0.09149247
v 0.78583121 2.68375496 0.08628123
v 0.78583121 1.82198964 0.09176871
v 0.78571707 1.80329371 0.09304540
v 0.47075092 2.06530031 0.14189519
v 0.20291559 2.20971414 0.13793077
v 0.78583121 2.20971414 0.09335150
v 0.78583121 2.64286827 0.09259744
v 0.78583121 2.68052242 0.09243319
f 1 2 3
f 1 3 4
f 1 4 8
f 1 8 14
f 1 14 22
f 1 22 16
f 1 16 9
f 1 9 5
f 1 5 10
f 1 10 12
f 1 12 6
f 1 6 2
f 2 6 11
f 2 11 20
f 2 20 13
f 2 13 7
f 2 7 3
f 3 7 4
f 4 7 8
f 5 9 10
f 6 12 18
f 6 18 25
f 6 25 24
f 6 24 23
f 6 23 19
f 6 19 11
f 7 13 14
f 7 14 8
f 9 15 10
f 9 16 17
f 9 17 15
f 10 15 18
f 10 18 12
f 11 19 20
f 13 21 22
f 13 22 14
f 13 20 23
f 13 23 24
f 13 24 25
f 13 25 21
f 15 25 18
f 15 17 22
f 15 22 25
f 16 22 17
f 19 23 20
f 21 25 22

