# https://github.com/mikedh/trimesh
v -0.97237558 2.71705230 -0.01692848
v -1.40670187 2.71580817 0.05528004
v -0.97237558 2.69689577 0.05896708
v -0.97237558 2.71705230 -0.30681601
v -3.57230812 2.71705230 -0.01692848
v -1.40670187 2.71207535 0.06562291
v -3.57230812 2.69813990 0.03971786
v -0.97237558 2.68171598 0.06562291
v -1.34854713 2.70809379 0.06562291
v -0.97237558 2.70510763 -0.37787532
v -3.57230812 2.70510763 -0.37787532
v -3.57230812 2.71705230 -0.30566682
v -3.62784313 2.69813990 -0.01692848
v -3.62155622 2.69166987 0.03301416
v -1.47874019 2.70809379 0.06562291
v -3.57230812 2.64264707 0.06112185
v -0.97237558 1.87022728 0.06562291
v -0.97237558 2.68594649 -0.41872009
v -3.57230812 2.68594649 -0.41872009
v -3.61317352 2.68345781 -0.41713991
v -3.62181830 2.69191883 -0.37787532
v -3.62784313 2.69813990 -0.30566682
v -3.64775221 2.64264707 -0.01692848
v -3.62810521 2.64264707 0.04005305
v -1.54763528 2.69614913 0.06562291
v -3.57230812 2.57048157 0.06136125
v -1.62779433 2.64264707 0.06562291
v -1.11776221 0.18827318 0.04771443
v -0.97237558 0.33260417 0.04733135
v -1.03838897 1.92074317 0.06562291
v -3.57230812 0.17508428 0.05116204
v -0.97237558 2.68519985 -0.41881584
v -3.57230812 2.64264707 -0.42350846
v -3.61553138 2.64264707 -0.41872009
v -3.63517794 2.64264707 -0.37787532
v -3.64775221 2.64264707 -0.30566682
v -3.64827594 2.57048157 -0.01692848
v -3.62836729 2.57048157 0.03990939
v -3.62836729 2.42615059 0.03962211
v -3.62679524 0.54910076 0.03612660
v -3.62627151 0.18827318 0.03531258
v -3.62627151 0.17508428 0.03526470
v -1.60186053 2.51946821 0.06562291
v -1.61705409 2.57794699 0.06562291
v -1.62753236 2.63841677 0.06562291
v -1.13086010 0.17508428 0.04752290
v -1.11776221 0.17508428 0.04747500
v -0.97237558 0.17533313 0.04522448
v -0.97237558 2.64264707 -0.42350846
v -3.57230812 2.57048157 -0.42355634
v -3.61553138 2.57048157 -0.41876796
v -3.63544002 2.57048157 -0.37787532
v -3.64827594 2.57048157 -0.30566682
v -3.64827594 2.28181960 -0.01692848
v -3.62810521 1.99290867 0.03871231
v -3.64801386 1.99290867 -0.01692848
v -3.64670431 0.54910076 -0.01692848
v -3.64618015 0.17508428 -0.01692848
v -3.62993892 0.17508428 0.02587949
v -0.97342337 0.17508428 0.04522448
v -0.97237558 0.17508428 0.00366147
v -0.97237558 2.57048157 -0.42355634
v -3.57230812 0.17508428 -0.42355634
v -3.60793449 0.17508428 -0.41962986
v -3.61553138 0.17508428 -0.41876796
v -3.63544002 0.17508428 -0.37787532
v -3.64827594 0.17508428 -0.30566682
v -3.64827594 0.17508428 -0.08908912
v -0.97237558 0.17508428 -0.42355634
f 1 2 3
f 1 3 8
f 1 8 17
f 1 17 29
f 1 29 48
f 1 48 61
f 1 61 69
f 1 69 62
f 1 62 49
f 1 49 32
f 1 32 18
f 1 18 10
f 1 10 4
f 1 4 12
f 1 12 5
f 1 5 2
f 2 6 3
f 2 5 7
f 2 7 6
f 3 6 9
f 3 9 8
f 4 10 11
f 4 11 12
f 5 12 22
f 5 22 13
f 5 13 14
f 5 14 7
f 6 15 25
f 6 25 27
f 6 27 45
f 6 45 44
f 6 44 43
f 6 43 30
f 6 30 17
f 6 17 8
f 6 8 9
f 6 7 16
f 6 16 15
f 7 14 16
f 10 18 19
f 10 19 11
f 11 19 20
f 11 20 21
f 11 21 12
f 12 21 22
f 13 22 36
f 13 36 23
f 13 23 14
f 14 23 24
f 14 24 16
f 15 16 25
f 16 24 26
f 16 26 27
f 16 27 25
f 17 28 29
f 17 30 26
f 17 26 31
f 17 31 28
f 18 32 19
f 19 33 20
f 19 32 33
f 20 34 35
f 20 35 21
f 20 33 34
f 21 35 36
f 21 36 22
f 23 36 53
f 23 53 37
f 23 37 24
f 24 38 26
f 24 37 38
f 26 38 39
f 26 39 40
f 26 40 41
f 26 41 42
f 26 42 31
f 26 30 43
f 26 43 44
f 26 44 45
f 26 45 27
f 28 46 47
f 28 47 48
f 28 48 29
f 28 31 46
f 31 42 59
f 31 59 58
f 31 58 68
f 31 68 67
f 31 67 66
f 31 66 65
f 31 65 64
f 31 64 63
f 31 63 69
f 31 69 61
f 31 61 60
f 31 60 47
f 31 47 46
f 32 49 33
f 33 50 51
f 33 51 34
f 33 49 62
f 33 62 50
f 34 51 52
f 34 52 35
f 35 52 53
f 35 53 36
f 37 53 67
f 37 67 68
f 37 68 54
f 37 54 38
f 38 54 39
f 39 55 40
f 39 54 56
f 39 56 57
f 39 57 55
f 40 55 58
f 40 58 59
f 40 59 42
f 40 42 41
f 47 60 48
f 48 60 61
f 50 63 64
f 50 64 51
f 50 62 69
f 50 69 63
f 51 64 65
f 51 65 66
f 51 66 52
f 52 66 67
f 52 67 53
f 54 68 56
f 55 57 58
f 56 68 57
f 57 68 58

