# https://github.com/mikedh/trimesh
v 1.62752425 1.56732539 0.06562293
v 1.98693029 1.61531644 0.06562293
v 1.98693029 1.63217243 0.06655807
v 1.91474522 1.84872292 0.07765155
v 1.62752425 1.63217243 0.06845534
v 1.62752425 2.66414261 0.06562293
v 2.20348530 1.65031676 0.06562293
v 2.20348530 1.70432017 0.06859567
v 1.62752425 1.99312577 0.07671101
v 1.62752425 1.92248112 0.07626975
v 1.62752425 1.92097814 0.07626031
v 1.62752425 1.85022612 0.07529684
v 1.62752425 1.84872292 0.07527255
v 1.62752425 1.77657528 0.07341171
v 1.62752425 1.63367552 0.06851740
v 2.20348530 1.77657528 0.07075742
v 1.98693029 1.84872292 0.07599312
v 1.62752425 2.57062983 0.07940848
v 1.62752425 2.64288483 0.07733174
v 1.65255809 2.66317627 0.06562293
v 2.24820594 1.67093042 0.06562293
v 2.24820594 1.70432017 0.06737851
v 2.24820594 1.77657528 0.06905852
v 2.06750043 2.57062983 0.06562293
v 2.05911537 2.57062983 0.06589415
v 1.98693029 2.57062983 0.06822863
v 1.91474522 2.57062983 0.07052803
v 2.03268398 2.61636609 0.06562293
v 1.91474522 2.64288483 0.06829205
v 1.92191520 2.64836034 0.06562293
v 1.85507717 2.65244001 0.06562293
v 2.24820594 1.89166817 0.06562293
v 2.24820594 1.82123826 0.06836493
v 2.05911537 2.58168799 0.06562293
v 2.24820594 1.84872292 0.06777389
v 2.24820594 1.86439804 0.06698988
v 1.99379645 2.64288483 0.06562293
f 1 2 3
f 1 3 4
f 1 4 5
f 1 5 15
f 1 15 14
f 1 14 13
f 1 13 12
f 1 12 11
f 1 11 10
f 1 10 9
f 1 9 18
f 1 18 19
f 1 19 6
f 1 6 20
f 1 20 31
f 1 31 30
f 1 30 37
f 1 37 28
f 1 28 34
f 1 34 24
f 1 24 32
f 1 32 21
f 1 21 7
f 1 7 2
f 2 7 3
f 3 7 8
f 3 8 4
f 4 9 10
f 4 10 11
f 4 11 12
f 4 12 13
f 4 13 14
f 4 14 15
f 4 15 5
f 4 8 16
f 4 16 17
f 4 17 18
f 4 18 9
f 6 19 20
f 7 21 8
f 8 21 22
f 8 22 16
f 16 22 23
f 16 23 24
f 16 24 25
f 16 25 26
f 16 26 27
f 16 27 18
f 16 18 17
f 18 27 28
f 18 28 19
f 19 28 29
f 19 29 30
f 19 30 31
f 19 31 20
f 21 32 36
f 21 36 35
f 21 35 33
f 21 33 23
f 21 23 22
f 23 33 24
f 24 34 25
f 24 33 35
f 24 35 36
f 24 36 32
f 25 34 26
f 26 34 28
f 26 28 27
f 28 37 29
f 29 37 30

