# https://github.com/mikedh/trimesh
v -5.01925959 -4.37577016 -1.36886228
v -5.08142183 -4.36794782 -1.36886228
v -5.07972712 -4.36675143 -1.47026750
v -5.01925959 -4.37337737 -1.47026750
v -4.70357184 -4.37365358 -1.45872347
v -4.70357184 -4.37577016 -1.36886228
v -5.01925959 -4.37577016 -1.06646661
v -5.10932053 -4.30946330 -1.36886228
v -5.08142183 -4.36794782 -1.06646661
v -5.10886542 -4.31047566 -1.06646661
v -5.10436029 -4.30946330 -1.47026750
v -5.07534588 -4.36376030 -1.52520923
v -4.70357184 -4.37337737 -1.47026750
v -5.01925959 -4.36555504 -1.52731689
v -4.70357184 -4.36647523 -1.52080246
v -4.70357184 -4.37038654 -1.26750481
v -4.91787417 -4.37577016 -1.06646661
v -5.12577025 -4.20809329 -1.36886228
v -5.10932053 -4.30946330 -1.06646661
v -5.11923980 -4.20809329 -1.47026750
v -5.08468675 -4.30946330 -1.53282546
v -5.01925959 -4.30946330 -1.54470477
v -4.70357184 -4.36555504 -1.52731689
v -4.70357184 -4.36261014 -1.20829986
v -4.83789840 -4.36794782 -1.06646661
v -5.12577025 -3.90568614 -1.36886228
v -5.12577025 -4.20809329 -1.06646661
v -5.11923980 -3.90568614 -1.47026750
v -5.09134110 -4.20809329 -1.53838193
v -5.01925959 -4.20809329 -1.55576982
v -4.70357184 -4.30946330 -1.54470477
v -4.70357184 -4.30780667 -1.17069804
v -4.78743294 -4.32303763 -1.06646661
v -4.83694769 -4.36730354 -1.06646661
v -5.12184352 -4.10672359 -1.06646661
v -5.11353616 -3.90568614 -1.26750481
v -5.09134110 -3.90568614 -1.53838193
v -4.70357184 -4.20809329 -1.55576982
v -5.01925959 -3.90568614 -1.55576982
v -4.70357184 -4.20809329 -1.15604049
v -4.76180766 -4.27067317 -1.06646661
v -4.76213826 -4.27255978 -1.06646661
v -5.09398652 -4.03388236 -1.06646661
v -5.08572026 -3.90568614 -1.20288716
v -4.91787417 -3.90568614 -1.55576982
v -4.70357184 -4.11827320 -1.55433273
v -4.70357184 -4.09880909 -1.15503456
v -4.75870774 -4.20809329 -1.06646661
v -5.09241571 -4.03328431 -1.06646661
v -5.01925959 -3.90568614 -1.18722368
v -5.01925959 -4.01197952 -1.06646661
v -4.91572495 -3.90568614 -1.55548243
v -4.70357184 -4.10672359 -1.55414113
v -4.70357184 -4.08762755 -1.15714222
v -4.76515538 -4.06038673 -1.06646661
v -4.76184906 -4.11003656 -1.06646661
v -4.91787417 -3.90568614 -1.18578666
v -4.91787417 -4.01197952 -1.06646661
v -4.81867936 -3.90568614 -1.53842983
v -4.70357184 -4.03250193 -1.53876512
v -4.70357184 -4.02822284 -1.18822961
v -4.76672589 -4.05850012 -1.06646661
v -4.82851613 -3.90568614 -1.20082739
v -4.91580775 -4.01234760 -1.06646661
v -4.82599491 -3.90568614 -1.20125855
v -4.81714995 -3.90568614 -1.53771136
v -4.70357184 -4.02477176 -1.53680115
v -4.70357184 -3.98915650 -1.26252320
v -4.77557086 -3.90568614 -1.24254874
v -4.77623206 -3.90568614 -1.24163861
v -4.81648875 -4.03369832 -1.06646661
v -4.76817250 -3.90568614 -1.50475587
v -4.76709789 -3.90568614 -1.50365407
v -4.70357184 -3.98947864 -1.48827805
v -4.70357184 -3.98763797 -1.27856986
v -4.75163998 -3.90568614 -1.36886228
v -4.75845963 -3.90568614 -1.29317950
v -4.70357184 -3.98611943 -1.47778778
v -4.75833573 -3.90568614 -1.45417286
v -4.70357184 -3.98234622 -1.36886228
v -4.75796373 -3.90568614 -1.45163427
f 1 2 3
f 1 3 4
f 1 4 5
f 1 5 6
f 1 6 17
f 1 17 7
f 1 7 9
f 1 9 2
f 2 8 3
f 2 9 10
f 2 10 8
f 3 8 11
f 3 11 12
f 3 12 4
f 4 13 5
f 4 12 14
f 4 14 15
f 4 15 13
f 5 13 15
f 5 15 23
f 5 23 31
f 5 31 38
f 5 38 46
f 5 46 53
f 5 53 60
f 5 60 67
f 5 67 74
f 5 74 78
f 5 78 80
f 5 80 75
f 5 75 68
f 5 68 61
f 5 61 54
f 5 54 47
f 5 47 40
f 5 40 32
f 5 32 24
f 5 24 16
f 5 16 6
f 6 16 17
f 7 17 25
f 7 25 34
f 7 34 33
f 7 33 42
f 7 42 41
f 7 41 48
f 7 48 56
f 7 56 55
f 7 55 62
f 7 62 71
f 7 71 64
f 7 64 58
f 7 58 51
f 7 51 49
f 7 49 43
f 7 43 35
f 7 35 27
f 7 27 19
f 7 19 10
f 7 10 9
f 8 18 11
f 8 10 19
f 8 19 27
f 8 27 18
f 11 18 20
f 11 20 21
f 11 21 12
f 12 21 22
f 12 22 14
f 14 23 15
f 14 22 31
f 14 31 23
f 16 24 25
f 16 25 17
f 18 26 28
f 18 28 20
f 18 27 26
f 20 28 37
f 20 37 29
f 20 29 21
f 21 29 30
f 21 30 22
f 22 30 38
f 22 38 31
f 24 32 33
f 24 33 34
f 24 34 25
f 26 27 35
f 26 35 36
f 26 36 44
f 26 44 50
f 26 50 57
f 26 57 63
f 26 63 65
f 26 65 70
f 26 70 69
f 26 69 77
f 26 77 76
f 26 76 81
f 26 81 79
f 26 79 73
f 26 73 72
f 26 72 66
f 26 66 59
f 26 59 52
f 26 52 45
f 26 45 39
f 26 39 37
f 26 37 28
f 29 37 39
f 29 39 30
f 30 39 45
f 30 45 38
f 32 40 41
f 32 41 42
f 32 42 33
f 35 43 36
f 36 43 44
f 38 45 46
f 40 47 48
f 40 48 41
f 43 49 44
f 44 49 51
f 44 51 50
f 45 52 53
f 45 53 46
f 47 54 55
f 47 55 56
f 47 56 48
f 50 51 57
f 51 58 57
f 52 59 53
f 53 59 60
f 54 61 55
f 55 61 62
f 57 58 63
f 58 64 65
f 58 65 63
f 59 66 67
f 59 67 60
f 61 68 69
f 61 69 70
f 61 70 62
f 62 70 65
f 62 65 71
f 64 71 65
f 66 72 67
f 67 72 73
f 67 73 74
f 68 75 76
f 68 76 77
f 68 77 69
f 73 78 74
f 73 79 78
f 75 80 76
f 76 80 78
f 76 78 81
f 78 79 81

