# https://github.com/mikedh/trimesh
v -4.91790288 4.37577016 -0.96655273
v -4.83828944 4.36797260 -0.96655273
v -4.82272425 4.36774445 -1.13505414
v -4.84897085 4.37029286 -1.13505414
v -4.91790288 4.37577016 -1.13505414
v -5.01927560 4.37577016 -0.96655273
v -4.78758313 4.31571180 -0.96655273
v -4.74180050 4.31183191 -1.13505414
v -4.78063445 4.33917971 -1.13505414
v -5.01927560 4.37577016 -1.13505414
v -5.08145749 4.36797260 -0.96655273
v -4.78678896 4.31407602 -0.96655273
v -4.73465327 4.29718842 -1.13505414
v -5.08145749 4.36797260 -1.13505414
v -5.10933201 4.30947388 -0.96655273
v -4.76494989 4.26501003 -0.96655273
v -4.72012038 4.20772824 -1.13505414
v -5.10933201 4.30947388 -1.13505414
v -5.12577085 4.20807063 -0.96655273
v -4.76407654 4.20807063 -0.96655273
v -4.72075559 4.18779753 -1.13505414
v -4.76487071 4.11571995 -0.96655273
v -4.76606167 4.06189952 -0.96655273
v -5.12577085 4.20807063 -1.13505414
v -5.12366636 4.13774276 -1.13505414
v -5.12247510 4.10670576 -1.13505414
v -5.12183989 4.10670576 -0.96655273
v -4.72087496 4.18639051 -1.13505414
v -4.73886225 4.08224877 -1.13505414
v -4.72861782 4.09890821 -1.13505414
v -4.81514005 4.03592127 -0.96655273
v -4.80584844 4.00811716 -1.13505414
v -4.78178581 4.03135691 -1.13505414
v -5.10468606 4.03980086 -1.13505414
v -5.09539475 4.01572433 -1.13505414
v -5.09396537 4.03512257 -0.96655273
v -4.81676797 4.03512257 -0.96655273
v -4.82002413 4.03439972 -0.96655273
v -4.91790288 4.01420277 -0.96655273
v -4.91790288 3.98723544 -1.13505414
v -5.01927560 3.98765398 -1.13505414
v -5.01927560 4.01420277 -0.96655273
f 1 2 3
f 1 3 4
f 1 4 5
f 1 5 10
f 1 10 6
f 1 6 11
f 1 11 15
f 1 15 19
f 1 19 27
f 1 27 36
f 1 36 42
f 1 42 39
f 1 39 38
f 1 38 37
f 1 37 31
f 1 31 23
f 1 23 22
f 1 22 20
f 1 20 16
f 1 16 12
f 1 12 7
f 1 7 2
f 2 7 8
f 2 8 9
f 2 9 3
f 3 9 8
f 3 8 13
f 3 13 17
f 3 17 21
f 3 21 28
f 3 28 30
f 3 30 29
f 3 29 33
f 3 33 32
f 3 32 40
f 3 40 41
f 3 41 35
f 3 35 34
f 3 34 26
f 3 26 25
f 3 25 24
f 3 24 18
f 3 18 14
f 3 14 10
f 3 10 5
f 3 5 4
f 6 10 14
f 6 14 11
f 7 12 13
f 7 13 8
f 11 14 18
f 11 18 15
f 12 16 13
f 13 16 17
f 15 18 24
f 15 24 19
f 16 20 17
f 17 20 22
f 17 22 23
f 17 23 21
f 19 24 25
f 19 25 26
f 19 26 27
f 21 23 28
f 23 29 30
f 23 30 28
f 23 31 32
f 23 32 33
f 23 33 29
f 26 34 27
f 27 34 35
f 27 35 36
f 31 37 32
f 32 37 38
f 32 38 39
f 32 39 40
f 35 41 36
f 36 41 42
f 39 42 40
f 40 42 41

