# https://github.com/mikedh/trimesh
v -0.15210023 -4.37573480 -1.06421918
v -0.23170950 -4.36798469 -0.96328691
v -0.23134405 -4.36802005 -1.06421918
v 0.00078366 -4.37573480 -1.06421918
v -0.15210023 -4.37573480 0.96555231
v -0.28241700 -4.32257980 -1.06421918
v -0.23195315 -4.36770154 -1.06421918
v -0.23170950 -4.36798469 0.96555231
v 0.00078366 -4.01423058 -1.06421918
v 0.00078366 -4.37573480 0.96555231
v -0.30708553 -4.27214970 -1.06421918
v -0.23283633 -4.36695844 0.96555231
v -0.28241700 -4.31564351 0.96555231
v -0.05120295 -4.01423058 -1.06421918
v 0.00078366 -4.01423058 0.96555231
v -0.30717689 -4.27161874 -1.06421918
v -0.30501459 -4.26493025 0.96555231
v -0.15258751 -4.01433665 -1.06421918
v -0.15210023 -4.01423058 -0.96328691
v -0.15210023 -4.01423058 0.96555231
v -0.31031376 -4.20809450 -1.06421918
v -0.30510596 -4.26351446 0.96555231
v -0.25324115 -4.03514553 -1.06421918
v -0.25324115 -4.03514553 0.96555231
v -0.30729871 -4.11031307 -1.06421918
v -0.30586734 -4.20809450 0.96555231
v -0.30501459 -4.11261338 0.96555231
v -0.30400958 -4.06303275 0.96555231
v -0.30394867 -4.05988297 -1.06421918
v -0.30391822 -4.06190012 0.96555231
f 1 2 3
f 1 3 7
f 1 7 6
f 1 6 11
f 1 11 16
f 1 16 21
f 1 21 25
f 1 25 29
f 1 29 23
f 1 23 18
f 1 18 14
f 1 14 9
f 1 9 4
f 1 4 10
f 1 10 5
f 1 5 8
f 1 8 2
f 2 6 7
f 2 7 3
f 2 8 6
f 4 9 15
f 4 15 10
f 5 10 15
f 5 15 20
f 5 20 24
f 5 24 30
f 5 30 28
f 5 28 27
f 5 27 26
f 5 26 22
f 5 22 17
f 5 17 13
f 5 13 12
f 5 12 8
f 6 8 12
f 6 12 13
f 6 13 11
f 9 14 19
f 9 19 20
f 9 20 15
f 11 13 17
f 11 17 16
f 14 18 19
f 16 17 22
f 16 22 21
f 18 23 19
f 19 23 24
f 19 24 20
f 21 22 26
f 21 26 27
f 21 27 28
f 21 28 25
f 23 29 24
f 24 29 30
f 25 28 29
f 28 30 29

