# https://github.com/mikedh/trimesh
v -4.70353074 -4.37577016 -1.36888132
v -4.70353074 -4.37338221 -1.47028910
v -4.38916752 -4.37577016 -1.36888132
v -4.70353074 -4.37037808 -1.26751282
v -4.70353074 -4.36648792 -1.52081651
v -4.38916752 -4.37338221 -1.47028910
v -4.38916752 -4.36995440 -1.26751282
v -4.70353074 -4.36259806 -1.20827659
v -4.70353074 -4.36556380 -1.52728924
v -4.38916752 -4.36556380 -1.52728924
v -4.38916752 -4.36725821 -1.51508900
v -4.38916752 -4.36217438 -1.21474939
v -4.70353074 -4.30782963 -1.17073415
v -4.70353074 -4.30948597 -1.54470704
v -4.38916752 -4.32150247 -1.54098036
v -4.38916752 -4.35085111 -1.21231717
v -4.70353074 -4.20807607 -1.15606232
v -4.38916752 -4.30948597 -1.20345136
v -4.70353074 -4.20807607 -1.55576982
v -4.38916752 -4.30948597 -1.54470704
v -4.70353074 -4.09880909 -1.15504241
v -4.38916752 -4.20807607 -1.19423250
v -4.70353074 -4.11829768 -1.55435751
v -4.38916752 -4.20807607 -1.55576982
v -4.70353074 -4.08763963 -1.15716080
v -4.38916752 -4.10670455 -1.19544861
v -4.38916752 -4.04411772 -1.20674665
v -4.70353074 -4.10670455 -1.55416138
v -4.38916752 -4.10670455 -1.55416138
v -4.38916752 -4.12846566 -1.55451450
v -4.70353074 -4.02824943 -1.18823037
v -4.38916752 -4.02324265 -1.26751282
v -4.70353074 -3.98911842 -1.26253067
v -4.70353074 -4.03248621 -1.53878355
v -4.38916752 -4.03918770 -1.53678287
v -4.38916752 -4.02131676 -1.28924582
v -4.70353074 -3.98761621 -1.27853631
v -4.70353074 -4.02474457 -1.53678287
v -4.70353074 -3.98946504 -1.48825614
v -4.70353074 -3.98611430 -1.47782118
v -4.38916752 -4.02278029 -1.48452932
v -4.38916752 -4.01426865 -1.36888132
v -4.70353074 -3.98230119 -1.36888132
v -4.38916752 -4.01511601 -1.39061432
v -4.38916752 -4.01831263 -1.47028910
f 1 2 6
f 1 6 3
f 1 3 4
f 1 4 8
f 1 8 13
f 1 13 17
f 1 17 21
f 1 21 25
f 1 25 31
f 1 31 33
f 1 33 37
f 1 37 43
f 1 43 40
f 1 40 39
f 1 39 38
f 1 38 34
f 1 34 28
f 1 28 23
f 1 23 19
f 1 19 14
f 1 14 9
f 1 9 5
f 1 5 2
f 2 5 6
f 3 6 11
f 3 11 10
f 3 10 15
f 3 15 20
f 3 20 24
f 3 24 30
f 3 30 29
f 3 29 35
f 3 35 41
f 3 41 45
f 3 45 44
f 3 44 42
f 3 42 36
f 3 36 32
f 3 32 27
f 3 27 26
f 3 26 22
f 3 22 18
f 3 18 16
f 3 16 12
f 3 12 7
f 3 7 4
f 4 7 8
f 5 9 10
f 5 10 11
f 5 11 6
f 7 12 8
f 8 12 13
f 9 14 15
f 9 15 10
f 12 16 13
f 13 16 18
f 13 18 17
f 14 19 24
f 14 24 20
f 14 20 15
f 17 18 22
f 17 22 21
f 19 23 24
f 21 22 26
f 21 26 27
f 21 27 25
f 23 28 29
f 23 29 30
f 23 30 24
f 25 27 31
f 27 32 33
f 27 33 31
f 28 34 29
f 29 34 35
f 32 36 37
f 32 37 33
f 34 38 35
f 35 38 39
f 35 39 40
f 35 40 41
f 36 42 37
f 37 42 43
f 40 44 45
f 40 45 41
f 40 43 42
f 40 42 44

