# https://github.com/mikedh/trimesh
v 5.01928441 0.45010779 1.55576982
v 5.08698500 0.45010779 1.53943070
v 4.91792831 0.45010779 1.55576982
v 5.01928441 -0.45865366 1.55576982
v 5.09133782 0.45010779 1.53835474
v 5.08960382 -0.45865366 1.53879307
v 4.81972198 0.45010779 1.53835474
v 4.91792831 -0.45865366 1.55576982
v 5.11756115 0.45010779 1.47439322
v 5.09133782 -0.45865366 1.53835474
v 4.81667857 0.45010779 1.53548539
v 4.81972198 -0.45865366 1.53835474
v 5.11922443 0.45010779 1.47028850
v 5.11922443 -0.45865366 1.47028850
v 4.76904408 0.45010779 1.49057293
v 4.76904408 -0.45865366 1.49057293
v 5.12534692 0.45010779 1.37496406
v 5.12577180 -0.25348391 1.36886681
v 5.12577180 -0.45865366 1.36886681
v 4.76879628 0.45010779 1.48750428
v 4.76893771 -0.45865366 1.48933755
v 5.12573614 0.45010779 1.36886681
v 5.12573614 0.05062288 1.14868784
v 5.11373958 -0.45865366 1.26995562
v 5.12573614 -0.05062742 1.14868784
v 4.76504513 0.45010779 1.43984214
v 4.76504513 -0.45865366 1.43984214
v 5.11416387 0.45010779 1.27362201
v 5.09951282 0.15374159 1.14868784
v 5.08556891 0.45010779 1.20551596
v 5.11342107 0.45010779 1.26752476
v 5.11342107 -0.45865366 1.26752476
v 5.08556891 -0.45865366 1.20551596
v 5.10390070 -0.14004442 1.14868784
v 4.76497411 0.45010779 1.43557801
v 4.76500947 -0.45865366 1.43812854
v 5.01928441 0.21833537 1.14868784
v 5.01928441 0.45010779 1.19419813
v 5.01928441 -0.45865366 1.19423802
v 5.09951282 -0.15374613 1.14868784
v 4.76423101 0.45010779 1.36886681
v 4.76423101 -0.45865366 1.36886681
v 4.91792831 0.22509724 1.14868784
v 4.91792831 0.45010779 1.19419813
v 4.91792831 -0.22510179 1.14868784
v 4.96722608 -0.22225468 1.14868784
v 5.01928441 -0.21833990 1.14868784
v 5.03722698 -0.20739634 1.14868784
v 4.91792831 -0.45865366 1.19423802
v 4.76504513 0.45010779 1.30972728
v 4.76423101 0.05062288 1.14868784
v 4.76423101 -0.05062742 1.14868784
v 4.76504513 -0.45865366 1.30972728
v 4.88844882 0.21219628 1.14868784
v 4.83483328 0.45010779 1.20479862
v 4.80988370 -0.15988520 1.14868784
v 4.82952491 -0.45865366 1.20551596
v 4.76585894 0.45010779 1.30665879
v 4.76504513 0.10605252 1.14868784
v 4.76490340 0.09697737 1.14868784
v 4.76504513 -0.10605706 1.14868784
v 4.76536334 -0.45865366 1.30849191
v 4.80988370 0.15988067 1.14868784
v 4.82952491 0.45010779 1.20551596
v 4.80312419 -0.15463586 1.14868784
v 4.77881165 -0.45865366 1.25899650
v 4.77881165 0.45010779 1.25899650
f 1 2 5
f 1 5 9
f 1 9 13
f 1 13 17
f 1 17 22
f 1 22 28
f 1 28 31
f 1 31 30
f 1 30 38
f 1 38 44
f 1 44 55
f 1 55 64
f 1 64 67
f 1 67 58
f 1 58 50
f 1 50 41
f 1 41 35
f 1 35 26
f 1 26 20
f 1 20 15
f 1 15 11
f 1 11 7
f 1 7 3
f 1 3 8
f 1 8 4
f 1 4 2
f 2 4 6
f 2 6 5
f 3 7 12
f 3 12 8
f 4 8 12
f 4 12 16
f 4 16 21
f 4 21 27
f 4 27 36
f 4 36 42
f 4 42 53
f 4 53 62
f 4 62 66
f 4 66 57
f 4 57 49
f 4 49 39
f 4 39 33
f 4 33 32
f 4 32 24
f 4 24 19
f 4 19 14
f 4 14 10
f 4 10 6
f 5 6 10
f 5 10 9
f 7 11 12
f 9 10 14
f 9 14 13
f 11 15 16
f 11 16 12
f 13 14 19
f 13 19 18
f 13 18 17
f 15 20 21
f 15 21 16
f 17 18 22
f 18 19 25
f 18 25 23
f 18 23 22
f 19 24 25
f 20 26 21
f 21 26 27
f 22 23 28
f 23 29 30
f 23 30 31
f 23 31 28
f 23 25 34
f 23 34 40
f 23 40 48
f 23 48 47
f 23 47 46
f 23 46 45
f 23 45 56
f 23 56 65
f 23 65 61
f 23 61 52
f 23 52 51
f 23 51 60
f 23 60 59
f 23 59 63
f 23 63 54
f 23 54 43
f 23 43 37
f 23 37 29
f 24 32 25
f 25 32 33
f 25 33 34
f 26 35 36
f 26 36 27
f 29 37 38
f 29 38 30
f 33 39 40
f 33 40 34
f 35 41 42
f 35 42 36
f 37 43 38
f 38 43 44
f 39 45 46
f 39 46 47
f 39 47 48
f 39 48 40
f 39 49 45
f 41 50 51
f 41 51 52
f 41 52 42
f 42 52 53
f 43 54 44
f 44 54 55
f 45 49 56
f 49 57 56
f 50 58 59
f 50 59 60
f 50 60 51
f 52 61 53
f 53 61 62
f 54 63 64
f 54 64 55
f 56 57 65
f 57 66 61
f 57 61 65
f 58 67 59
f 59 67 64
f 59 64 63
f 61 66 62

