# https://github.com/mikedh/trimesh
v 4.75274214 -3.90376448 -1.36892650
v 4.75927803 -3.90376448 -1.45342523
v 4.75935116 -3.90376448 -1.29392895
v 4.76504754 -0.45794663 -1.30971595
v 4.76501098 -0.45794663 -1.31069144
v 4.76424401 -0.45794663 -1.36892650
v 4.76504754 -0.45794663 -1.43984184
v 4.76826079 -3.90376448 -1.50421842
v 4.76906403 -0.45794663 -1.49056280
v 4.77578274 -3.90376448 -1.24324410
v 4.77881316 -0.45794663 -1.25903117
v 4.81890575 -3.90376448 -1.53828538
v 4.81974556 -0.45794663 -1.53835761
v 4.82646427 -3.90376448 -1.20209654
v 4.82953156 -0.45794663 -1.20552857
v 4.91793224 -3.80223854 -1.55573416
v 4.91778627 -3.90376448 -1.55569805
v 4.91793224 -0.45794663 -1.55573416
v 4.91793224 -3.90376448 -1.18670692
v 4.91650829 -0.45794663 -1.19447396
v 5.01911307 -3.90376448 -1.55573416
v 5.01925933 -0.45794663 -1.55573416
v 5.01929590 -3.90376448 -1.18815195
v 5.01925933 -0.45794663 -1.19429339
v 4.91793224 -0.45794663 -1.19429339
v 5.01929590 -3.80223854 -1.55573416
v 5.09122903 -3.90376448 -1.53835761
v 5.09130156 -0.45794663 -1.53835761
v 5.01929590 -2.70130365 -1.55573416
v 5.08560578 -3.90376448 -1.20361386
v 5.08553264 -0.45794663 -1.20552857
v 5.09130156 -2.70130365 -1.53835761
v 5.09133843 -3.80223854 -1.53832150
v 5.11916218 -3.90376448 -1.47033232
v 5.09177661 -0.45794663 -1.53723767
v 5.09133843 -2.70130365 -1.53832150
v 5.11342953 -3.90376448 -1.26766528
v 5.11342953 -3.80223854 -1.26755694
v 5.11299135 -0.45794663 -1.26650923
v 5.11923531 -3.80223854 -1.47025994
v 5.12573494 -3.90376448 -1.36907110
v 5.11919844 -0.45794663 -1.47025994
v 5.11923531 -2.70130365 -1.47025994
v 5.12577120 -3.80223854 -1.36892650
v 5.11342953 -0.45794663 -1.26755694
v 5.11930844 -0.45794663 -1.46863428
v 5.12577120 -0.45794663 -1.36892650
f 1 2 8
f 1 8 12
f 1 12 17
f 1 17 21
f 1 21 27
f 1 27 34
f 1 34 41
f 1 41 37
f 1 37 30
f 1 30 23
f 1 23 19
f 1 19 14
f 1 14 10
f 1 10 3
f 1 3 4
f 1 4 5
f 1 5 6
f 1 6 7
f 1 7 2
f 2 7 9
f 2 9 8
f 3 10 11
f 3 11 4
f 4 11 15
f 4 15 20
f 4 20 25
f 4 25 24
f 4 24 31
f 4 31 39
f 4 39 45
f 4 45 47
f 4 47 46
f 4 46 42
f 4 42 35
f 4 35 28
f 4 28 22
f 4 22 18
f 4 18 13
f 4 13 9
f 4 9 7
f 4 7 6
f 4 6 5
f 8 9 13
f 8 13 12
f 10 14 15
f 10 15 11
f 12 16 17
f 12 13 18
f 12 18 16
f 14 19 15
f 15 19 20
f 16 21 17
f 16 18 22
f 16 22 29
f 16 29 26
f 16 26 21
f 19 23 24
f 19 24 25
f 19 25 20
f 21 26 27
f 22 28 29
f 23 30 31
f 23 31 24
f 26 29 28
f 26 28 32
f 26 32 27
f 27 32 33
f 27 33 34
f 28 35 36
f 28 36 33
f 28 33 32
f 30 37 38
f 30 38 39
f 30 39 31
f 33 40 34
f 33 36 43
f 33 43 40
f 34 40 41
f 35 42 43
f 35 43 36
f 37 41 44
f 37 44 38
f 38 44 47
f 38 47 45
f 38 45 39
f 40 44 41
f 40 43 47
f 40 47 44
f 42 46 43
f 43 46 47

