# https://github.com/mikedh/trimesh
v 4.91786273 -3.96068997 -1.15832864
v 4.91786273 -4.01424085 -0.96054584
v 5.01928774 -4.01424085 -0.96054584
v 5.01928774 -3.96357473 -1.15832864
v 4.80227381 -3.99945140 -1.15832864
v 4.81677497 -4.03512468 -0.96054584
v 5.09192106 -4.03455595 -0.96054584
v 5.09394456 -4.03512468 -0.96054584
v 5.03088026 -3.96897860 -1.15832864
v 4.72070366 -4.07575519 -1.15832864
v 4.76606262 -4.06194092 -0.96054584
v 5.12185112 -4.10671573 -0.96054584
v 5.09588345 -4.00956830 -1.15832864
v 4.69587436 -4.09948328 -1.15832864
v 4.69511585 -4.12581177 -1.15832864
v 4.76505087 -4.11264753 -0.96054584
v 5.12572889 -4.20808846 -0.96054584
v 5.12269424 -4.10671573 -1.15832864
v 5.09900271 -4.01765355 -1.15832864
v 4.69794017 -4.20808846 -1.15832864
v 4.76505087 -4.26476797 -0.96054584
v 4.76500886 -4.26322405 -0.96054584
v 4.76425005 -4.20808846 -0.96054584
v 4.76425005 -4.20548807 -0.96054584
v 5.12530763 -4.21085143 -0.96054584
v 5.12572889 -4.20808846 -1.15832864
v 5.12298919 -4.11447611 -1.15832864
v 4.70034293 -4.21820536 -1.15832864
v 4.76564106 -4.26614930 -0.96054584
v 4.72534085 -4.30552025 -1.15832864
v 5.12450681 -4.21584884 -1.15832864
v 5.10933115 -4.30946149 -0.96054584
v 4.78760373 -4.31547488 -0.96054584
v 4.72664755 -4.30828323 -1.15832864
v 5.10933115 -4.30946149 -1.15832864
v 5.10857204 -4.31108670 -0.96054584
v 4.83688307 -4.36654715 -0.96054584
v 4.76138342 -4.34651641 -1.15832864
v 5.10718073 -4.31397146 -1.15832864
v 5.08142399 -4.36796928 -0.96054584
v 5.08142399 -4.36796928 -1.15832864
v 4.83827408 -4.36796928 -0.96054584
v 4.81757609 -4.36764412 -1.15832864
v 5.02097399 -4.37552659 -0.96054584
v 5.02405125 -4.37516093 -1.15832864
v 4.82617567 -4.36849752 -1.15832864
v 4.91786273 -4.37572966 -0.96054584
v 5.01928774 -4.37572966 -0.96054584
v 5.01928774 -4.37572966 -1.15832864
v 4.91786273 -4.37572966 -1.15832864
f 1 2 3
f 1 3 4
f 1 4 9
f 1 9 13
f 1 13 19
f 1 19 18
f 1 18 27
f 1 27 26
f 1 26 31
f 1 31 35
f 1 35 39
f 1 39 41
f 1 41 45
f 1 45 49
f 1 49 50
f 1 50 46
f 1 46 43
f 1 43 38
f 1 38 34
f 1 34 30
f 1 30 28
f 1 28 20
f 1 20 15
f 1 15 14
f 1 14 10
f 1 10 5
f 1 5 6
f 1 6 2
f 2 6 11
f 2 11 16
f 2 16 24
f 2 24 23
f 2 23 22
f 2 22 21
f 2 21 29
f 2 29 33
f 2 33 37
f 2 37 42
f 2 42 47
f 2 47 48
f 2 48 44
f 2 44 40
f 2 40 36
f 2 36 32
f 2 32 25
f 2 25 17
f 2 17 12
f 2 12 8
f 2 8 7
f 2 7 3
f 3 7 4
f 4 7 8
f 4 8 9
f 5 10 11
f 5 11 6
f 8 12 13
f 8 13 9
f 10 14 11
f 11 14 15
f 11 15 16
f 12 17 18
f 12 18 19
f 12 19 13
f 15 20 21
f 15 21 22
f 15 22 23
f 15 23 24
f 15 24 16
f 17 25 26
f 17 26 27
f 17 27 18
f 20 28 21
f 21 28 30
f 21 30 29
f 25 31 26
f 25 32 31
f 29 30 33
f 30 34 33
f 31 32 35
f 32 36 35
f 33 34 38
f 33 38 37
f 35 36 39
f 36 40 41
f 36 41 39
f 37 38 42
f 38 43 42
f 40 44 45
f 40 45 41
f 42 43 46
f 42 46 47
f 44 48 45
f 45 48 49
f 46 50 47
f 47 50 49
f 47 49 48

