# https://github.com/mikedh/trimesh
v -4.61302950 -4.20808423 1.19294333
v -4.61302950 -4.20868741 1.19297884
v -4.61302950 -4.10676257 1.19425736
v -0.57192437 -4.10672721 1.19550044
v -0.57192437 -4.20808423 1.19425736
v -4.61302950 -4.30979602 1.20281659
v -0.57192437 -4.30947660 1.20345589
v -4.61302950 -4.04455016 1.20611959
v -0.57192437 -4.04412437 1.20672330
v -0.57192437 -4.09842288 1.19695657
v -4.51215026 -4.36214234 1.21474985
v -4.61302950 -4.36221336 1.21503399
v -0.57192437 -4.36214234 1.21474985
v -4.61302950 -4.02286642 1.26717081
v -4.51215026 -4.04412437 1.20675881
v -4.38872148 -4.04412437 1.20672330
v -0.57192437 -4.02322120 1.26752597
v -4.61302950 -4.36991451 1.26756148
v -0.57192437 -4.36888524 1.26052938
v -0.57192437 -4.36991451 1.26752597
v -4.38872148 -4.36991451 1.26752597
v -4.61302950 -4.01321339 1.36892287
v -0.57192437 -4.01424266 1.36892287
v -4.61302950 -4.37577016 1.36892287
v -0.57192437 -4.37498928 1.35549798
v -4.38911706 -4.37577016 1.36892287
v -4.61302950 -4.01754294 1.46960962
v -0.57192437 -4.01835917 1.47024876
v -4.61302950 -4.37332147 1.47024876
v -4.38872148 -4.37335682 1.47024876
v -0.57192437 -4.37573480 1.36892287
v -0.57192437 -4.37367625 1.45678836
v -0.57192437 -4.37335682 1.47024876
v -4.61302950 -4.01761396 1.47024876
v -0.57192437 -4.02112759 1.47909221
v -4.61302950 -4.36554930 1.52728682
v -4.38872148 -4.37168901 1.48250173
v -0.57192437 -4.36554930 1.52728682
v -4.61302950 -4.03887191 1.53630781
v -0.57192437 -4.03922699 1.53676942
v -4.61302950 -4.30947660 1.54465400
v -4.38872148 -4.30947660 1.54468951
v -0.57192437 -4.30947660 1.54468951
v -4.61302950 -4.10676257 1.55413660
v -4.51215026 -4.03919133 1.53673391
v -4.38911706 -4.03919133 1.53673391
v -4.38872148 -4.03922699 1.53676942
v -0.57192437 -4.10672721 1.55417211
v -4.61302950 -4.30883776 1.54472502
v -0.57192437 -4.22153435 1.55427863
v -4.61302950 -4.20808423 1.55573476
v -4.38872148 -4.10672721 1.55417211
v -0.57192437 -4.12021300 1.55438516
v -0.57192437 -4.20808423 1.55573476
v -4.38872148 -4.18643584 1.55541519
f 1 2 6
f 1 6 12
f 1 12 18
f 1 18 24
f 1 24 29
f 1 29 36
f 1 36 41
f 1 41 49
f 1 49 51
f 1 51 44
f 1 44 39
f 1 39 34
f 1 34 27
f 1 27 22
f 1 22 14
f 1 14 8
f 1 8 3
f 1 3 4
f 1 4 5
f 1 5 2
f 2 5 7
f 2 7 6
f 3 8 9
f 3 9 10
f 3 10 4
f 4 10 9
f 4 9 17
f 4 17 23
f 4 23 28
f 4 28 35
f 4 35 40
f 4 40 48
f 4 48 53
f 4 53 54
f 4 54 50
f 4 50 43
f 4 43 38
f 4 38 33
f 4 33 32
f 4 32 31
f 4 31 25
f 4 25 20
f 4 20 19
f 4 19 13
f 4 13 7
f 4 7 5
f 6 11 12
f 6 7 13
f 6 13 11
f 8 14 15
f 8 15 16
f 8 16 9
f 9 16 14
f 9 14 17
f 11 13 12
f 12 13 19
f 12 19 20
f 12 20 21
f 12 21 18
f 14 22 17
f 14 16 15
f 17 22 23
f 18 21 24
f 20 25 26
f 20 26 24
f 20 24 21
f 22 27 28
f 22 28 23
f 24 26 33
f 24 33 30
f 24 30 29
f 25 31 26
f 26 31 32
f 26 32 33
f 27 34 28
f 28 34 35
f 29 30 37
f 29 37 36
f 30 33 37
f 33 38 37
f 34 39 40
f 34 40 35
f 36 37 38
f 36 38 43
f 36 43 42
f 36 42 41
f 39 44 45
f 39 45 46
f 39 46 40
f 40 47 52
f 40 52 48
f 40 46 45
f 40 45 47
f 41 42 49
f 42 43 50
f 42 50 51
f 42 51 49
f 44 51 52
f 44 52 47
f 44 47 45
f 48 52 53
f 50 54 51
f 51 54 55
f 51 55 52
f 52 55 53
f 53 55 54

