# https://github.com/mikedh/trimesh
v 0.45944086 -4.20809178 -1.55573476
v 0.45944086 -4.21082786 -1.55545024
v 0.45944086 -4.10671724 -1.55416954
v 4.61460459 -4.10803210 -1.55420505
v 4.61460459 -4.20809178 -1.55573476
v 0.45944086 -4.30946632 -1.54470674
v 4.61460459 -4.20940664 -1.55559243
v 4.61460459 -4.30946632 -1.54470674
v 0.45944086 -4.03920523 -1.53677365
v 4.61460459 -4.03874348 -1.53677365
v 4.61460459 -4.10671724 -1.55416954
v 0.45944086 -4.36557257 -1.52731085
v 4.61460459 -4.36557257 -1.52731085
v 0.45944086 -4.01831203 -1.47028533
v 4.61460459 -4.01710385 -1.47039200
v 0.45944086 -4.36578562 -1.52578128
v 4.61460459 -4.36567894 -1.52656382
v 0.45944086 -4.01436808 -1.37163780
v 4.61460459 -4.01280451 -1.37028593
v 0.45944086 -4.37335410 -1.47028533
v 4.61460459 -4.37335410 -1.47028533
v 0.45944086 -4.01426140 -1.36893420
v 4.61460459 -4.01276916 -1.36893420
v 0.45944086 -4.37342512 -1.46754607
v 4.61460459 -4.37338946 -1.46896911
v 0.45944086 -4.02296675 -1.27025117
v 4.61460459 -4.02222063 -1.26744075
v 0.45944086 -4.02321546 -1.26751192
v 0.45944086 -4.37573480 -1.36893420
v 4.61460459 -4.37573480 -1.36893420
v 4.61460459 -4.04336254 -1.20685770
v 0.45944086 -4.04354023 -1.20781823
v 0.45944086 -4.04410866 -1.20618177
v 0.45944086 -4.37559277 -1.36619495
v 4.61460459 -4.37569914 -1.36761799
v 4.61460459 -4.04389561 -1.20589718
v 0.45944086 -4.10504731 -1.19454898
v 4.61460459 -4.10661057 -1.19365969
v 0.45944086 -4.36994292 -1.26751192
v 4.61460459 -4.36994292 -1.26751192
v 0.45944086 -4.10671724 -1.19426438
v 4.61460459 -4.20674157 -1.19234340
v 0.45944086 -4.36216138 -1.21464846
v 4.61460459 -4.36983625 -1.26672923
v 4.61460459 -4.36216138 -1.21457737
v 0.45944086 -4.20809178 -1.19294817
v 4.61460459 -4.20809178 -1.19237898
v 0.45944086 -4.30946632 -1.20273107
v 4.61460459 -4.36148628 -1.21404369
v 4.61460459 -4.30946632 -1.20223305
v 4.61460459 -4.30811611 -1.20201963
f 1 2 6
f 1 6 12
f 1 12 16
f 1 16 20
f 1 20 24
f 1 24 29
f 1 29 34
f 1 34 39
f 1 39 43
f 1 43 48
f 1 48 46
f 1 46 41
f 1 41 37
f 1 37 33
f 1 33 32
f 1 32 28
f 1 28 26
f 1 26 22
f 1 22 18
f 1 18 14
f 1 14 9
f 1 9 3
f 1 3 4
f 1 4 5
f 1 5 2
f 2 5 7
f 2 7 8
f 2 8 6
f 3 9 10
f 3 10 11
f 3 11 4
f 4 11 10
f 4 10 15
f 4 15 19
f 4 19 23
f 4 23 27
f 4 27 31
f 4 31 36
f 4 36 38
f 4 38 42
f 4 42 47
f 4 47 51
f 4 51 50
f 4 50 49
f 4 49 45
f 4 45 44
f 4 44 40
f 4 40 35
f 4 35 30
f 4 30 25
f 4 25 21
f 4 21 17
f 4 17 13
f 4 13 8
f 4 8 7
f 4 7 5
f 6 8 13
f 6 13 12
f 9 14 15
f 9 15 10
f 12 13 17
f 12 17 16
f 14 18 19
f 14 19 15
f 16 17 20
f 17 21 20
f 18 22 19
f 19 22 23
f 20 21 25
f 20 25 24
f 22 26 23
f 23 26 28
f 23 28 27
f 24 25 30
f 24 30 29
f 27 28 32
f 27 32 33
f 27 33 31
f 29 30 35
f 29 35 34
f 31 33 36
f 33 37 38
f 33 38 36
f 34 35 39
f 35 40 39
f 37 41 38
f 38 41 42
f 39 40 44
f 39 44 45
f 39 45 43
f 41 46 42
f 42 46 47
f 43 45 49
f 43 49 50
f 43 50 48
f 46 48 51
f 46 51 47
f 48 50 51

