# https://github.com/mikedh/trimesh
v 5.01928381 4.20808030 1.55576982
v 5.09135293 4.20808030 1.53835474
v 5.08466776 4.30946904 1.53285523
v 5.01928381 4.30946904 1.54469102
v 4.75055001 4.24350458 1.55190413
v 4.75055001 4.20808030 1.55576982
v 5.01928381 3.80224458 1.55576982
v 5.11923289 4.20808030 1.47028850
v 5.09135293 3.80224458 1.53835474
v 5.10435580 4.30946904 1.47028850
v 5.07533777 4.36375607 1.52520379
v 4.75055001 4.30946904 1.54469102
v 5.01928381 4.36555262 1.52731583
v 4.75055001 4.32906160 1.53863366
v 4.75055001 4.10669156 1.55445466
v 4.91790262 3.80224458 1.55576982
v 5.12577120 4.20808030 1.36886681
v 5.11923289 3.80224458 1.47028850
v 5.10931483 4.30946904 1.36886681
v 5.07974560 4.36678770 1.47028850
v 5.01928381 4.37335622 1.47028850
v 4.75055001 4.36830351 1.50739011
v 4.75055001 4.36555262 1.52731583
v 4.75055001 4.01254493 1.53847426
v 4.81975371 3.80224458 1.53835474
v 5.12577120 4.20808030 1.14868784
v 5.12294265 4.22553965 1.14868784
v 5.12577120 3.80224458 1.36886681
v 5.10931483 4.30946904 1.14868784
v 5.10453954 4.31951796 1.14868784
v 5.08143487 4.36796686 1.36886681
v 5.01928381 4.37577016 1.36886681
v 4.75055001 4.37335622 1.47028850
v 4.75055001 3.96437676 1.50499914
v 4.76902625 3.80224458 1.49057293
v 5.12327325 4.12415091 1.14868784
v 5.11342893 3.80224458 1.26752476
v 5.12261205 4.10669156 1.14868784
v 5.08143487 4.36796686 1.14868784
v 5.01928381 4.37577016 1.14868784
v 4.75055001 4.37577016 1.36886681
v 4.75055001 3.92098056 1.45928964
v 4.76502246 3.80224458 1.43984214
v 5.08554896 3.80224458 1.20547607
v 5.10134412 4.02686054 1.14868784
v 4.91790262 4.37577016 1.14868784
v 4.75055001 4.37492794 1.33351854
v 4.75055001 3.90745096 1.36886681
v 4.76421439 3.80224458 1.36886681
v 5.01928381 3.80224458 1.19415831
v 5.09568702 4.01215177 1.14868784
v 4.75055001 4.36942647 1.23285401
v 4.75055001 4.37144755 1.26752476
v 4.83565887 4.36920163 1.14868784
v 4.75055001 3.91632101 1.30558282
v 4.76502246 3.80224458 1.30972728
v 4.91790262 3.98015198 1.14868784
v 5.01928381 3.98284665 1.14868784
v 4.91790262 3.80224458 1.19415831
v 4.81971715 4.36768612 1.14868784
v 4.75055001 4.36442997 1.19407861
v 4.75055001 3.92176657 1.28661355
v 4.77883401 3.80224458 1.25899650
v 4.75055001 3.93989982 1.25158409
v 4.75055001 4.01501508 1.17538826
v 4.80377512 4.00305720 1.14868784
v 4.82952461 3.80224458 1.20547607
v 4.77049583 4.34332130 1.14868784
v 4.75055001 4.35028268 1.16984894
v 4.75055001 4.06380063 1.14868784
v 4.79275556 4.01372379 1.14868784
v 4.75165212 4.06245314 1.14868784
v 4.75055001 4.32210052 1.14868784
f 1 2 3
f 1 3 4
f 1 4 5
f 1 5 6
f 1 6 16
f 1 16 7
f 1 7 9
f 1 9 2
f 2 8 3
f 2 9 18
f 2 18 8
f 3 8 10
f 3 10 11
f 3 11 4
f 4 12 5
f 4 11 13
f 4 13 14
f 4 14 12
f 5 12 14
f 5 14 23
f 5 23 22
f 5 22 33
f 5 33 41
f 5 41 47
f 5 47 53
f 5 53 52
f 5 52 61
f 5 61 69
f 5 69 73
f 5 73 70
f 5 70 65
f 5 65 64
f 5 64 62
f 5 62 55
f 5 55 48
f 5 48 42
f 5 42 34
f 5 34 24
f 5 24 15
f 5 15 6
f 6 15 16
f 7 16 25
f 7 25 35
f 7 35 43
f 7 43 49
f 7 49 56
f 7 56 63
f 7 63 67
f 7 67 59
f 7 59 50
f 7 50 44
f 7 44 37
f 7 37 28
f 7 28 18
f 7 18 9
f 8 17 10
f 8 18 28
f 8 28 17
f 10 17 19
f 10 19 20
f 10 20 11
f 11 20 21
f 11 21 13
f 13 22 23
f 13 23 14
f 13 21 22
f 15 24 25
f 15 25 16
f 17 26 27
f 17 27 19
f 17 28 26
f 19 27 29
f 19 29 30
f 19 30 31
f 19 31 20
f 20 31 32
f 20 32 21
f 21 32 41
f 21 41 33
f 21 33 22
f 24 34 35
f 24 35 25
f 26 36 38
f 26 38 45
f 26 45 51
f 26 51 58
f 26 58 57
f 26 57 66
f 26 66 71
f 26 71 72
f 26 72 70
f 26 70 73
f 26 73 68
f 26 68 60
f 26 60 54
f 26 54 46
f 26 46 40
f 26 40 39
f 26 39 30
f 26 30 29
f 26 29 27
f 26 28 36
f 28 37 38
f 28 38 36
f 30 39 31
f 31 39 40
f 31 40 32
f 32 40 46
f 32 46 41
f 34 42 35
f 35 42 43
f 37 44 38
f 38 44 45
f 41 46 47
f 42 48 43
f 43 48 49
f 44 50 51
f 44 51 45
f 46 52 53
f 46 53 47
f 46 54 52
f 48 55 56
f 48 56 49
f 50 57 58
f 50 58 51
f 50 59 57
f 52 54 60
f 52 60 61
f 55 62 56
f 56 62 64
f 56 64 65
f 56 65 63
f 57 59 66
f 59 67 66
f 60 68 69
f 60 69 61
f 63 65 70
f 63 70 67
f 66 67 71
f 67 70 72
f 67 72 71
f 68 73 69

