# https://github.com/mikedh/trimesh
v 5.01927354 3.80224458 1.55576982
v 5.09133359 3.80224458 1.53835368
v 4.91790776 3.80224458 1.55576982
v 5.01927354 0.45019683 1.55576982
v 5.08701582 0.45019683 1.53941559
v 5.11922322 3.80224458 1.47028200
v 5.09133359 0.45019683 1.53835368
v 5.11755994 0.45019683 1.47438824
v 4.81972773 3.80224458 1.53835368
v 4.91790776 0.45019683 1.55576982
v 5.12577120 3.80224458 1.36893556
v 5.11922322 0.45019683 1.47028200
v 4.76904469 3.80224458 1.49056537
v 4.81668371 0.45019683 1.53548630
v 4.81972773 0.45019683 1.53835368
v 5.11345431 3.80224458 1.26751841
v 5.12577120 0.45019683 1.36893556
v 4.76501007 3.80224458 1.43987447
v 4.76879719 0.45019683 1.48752105
v 4.76904469 0.45019683 1.49056537
v 5.08556468 3.80224458 1.20549986
v 5.11345431 0.45019683 1.26751841
v 4.76419596 3.80224458 1.36893556
v 4.76497472 0.45019683 1.43559130
v 4.76504543 0.45019683 1.43987447
v 5.01927354 3.80224458 1.19417229
v 5.08556468 0.45019683 1.20549986
v 4.76501007 3.80224458 1.30971353
v 4.76423131 0.45019683 1.36893556
v 4.91790776 3.80224458 1.19417229
v 5.01927354 0.45019683 1.19420772
v 4.77881316 3.80224458 1.25902264
v 4.77881316 0.45019683 1.25902264
v 4.76585954 0.45019683 1.30666922
v 4.76504543 0.45019683 1.30971353
v 4.82953156 3.80224458 1.20549986
v 4.91790776 0.45019683 1.19420772
v 4.83484053 0.45019683 1.20479190
v 4.78189253 0.45019683 1.25576603
v 4.82953156 0.45019683 1.20549986
f 1 2 6
f 1 6 11
f 1 11 16
f 1 16 21
f 1 21 26
f 1 26 30
f 1 30 36
f 1 36 32
f 1 32 28
f 1 28 23
f 1 23 18
f 1 18 13
f 1 13 9
f 1 9 3
f 1 3 10
f 1 10 4
f 1 4 5
f 1 5 2
f 2 5 7
f 2 7 8
f 2 8 6
f 3 9 15
f 3 15 10
f 4 10 15
f 4 15 14
f 4 14 20
f 4 20 19
f 4 19 25
f 4 25 24
f 4 24 29
f 4 29 35
f 4 35 34
f 4 34 33
f 4 33 39
f 4 39 40
f 4 40 38
f 4 38 37
f 4 37 31
f 4 31 27
f 4 27 22
f 4 22 17
f 4 17 12
f 4 12 8
f 4 8 7
f 4 7 5
f 6 8 12
f 6 12 17
f 6 17 11
f 9 13 14
f 9 14 15
f 11 17 22
f 11 22 16
f 13 18 19
f 13 19 20
f 13 20 14
f 16 22 27
f 16 27 21
f 18 23 24
f 18 24 25
f 18 25 19
f 21 27 26
f 23 28 35
f 23 35 29
f 23 29 24
f 26 27 31
f 26 31 37
f 26 37 30
f 28 32 33
f 28 33 34
f 28 34 35
f 30 37 38
f 30 38 36
f 32 36 39
f 32 39 33
f 36 38 40
f 36 40 39

