# https://github.com/mikedh/trimesh
v 4.99307318 0.32888432 -1.18662170
v 4.91794825 0.32888432 -1.18662170
v 5.01925873 0.32491242 -1.18662170
v 5.01925873 3.59973363 -1.19428214
v 4.82304251 0.23713366 -1.18662170
v 4.91794825 3.59973363 -1.19428214
v 5.05015098 0.30108112 -1.18662170
v 5.08553687 3.59933654 -1.20551996
v 5.08553687 3.59973363 -1.20555607
v 5.09084524 0.22521808 -1.18662170
v 5.10308840 0.17755549 -1.18662170
v 5.12481566 0.07150598 -1.18662170
v 5.12573554 0.05085227 -1.18662170
v 4.76635394 0.12472928 -1.18662170
v 4.82955362 3.59973363 -1.20551996
v 4.76500917 0.11400526 -1.18662170
v 5.11342167 3.59933654 -1.26752657
v 5.11342167 3.59973363 -1.26756268
v 5.12573554 -0.05043086 -1.18662170
v 5.12573554 3.59933654 -1.36891955
v 4.77884519 3.59973363 -1.25899876
v 4.76430142 0.05085227 -1.18662170
v 5.12570048 3.59973363 -1.36895566
v 5.09084524 -0.22479682 -1.18662170
v 5.08553687 -0.45794663 -1.20555607
v 5.11342167 -0.45794663 -1.26756268
v 5.12573554 -0.45794663 -1.36891955
v 5.12007421 0.54416062 -1.45661762
v 5.11918938 3.59973363 -1.47027641
v 4.76504452 3.59973363 -1.30973151
v 4.76430142 -0.05043086 -1.18662170
v 4.76430142 3.59973363 -1.36891955
v 5.01925873 -0.32449116 -1.18662170
v 5.01925873 -0.45794663 -1.19428214
v 5.11929575 -0.45794663 -1.46861418
v 5.09130518 3.59933654 -1.53835353
v 5.09126953 3.59973363 -1.53835353
v 5.11918938 -0.45794663 -1.47024030
v 5.09505604 0.54416062 -1.52921151
v 4.76430142 -0.45794663 -1.36891955
v 4.76437214 -0.06830437 -1.18662170
v 4.76504452 3.59973363 -1.43981509
v 4.76504452 3.59933654 -1.43985120
v 4.76433678 0.54416062 -1.37842284
v 4.76430142 -0.45794663 -1.37007575
v 4.91794825 -0.32846306 -1.18662170
v 4.91794825 -0.45794663 -1.19428214
v 5.01925873 3.59933654 -1.55573416
v 5.09176513 -0.45794663 -1.53723344
v 5.09130518 0.54416062 -1.53835353
v 5.02895467 0.54416062 -1.55342161
v 5.01922337 3.59973363 -1.55573416
v 4.76500917 -0.45794663 -1.31070700
v 4.76504452 -0.45794663 -1.30973151
v 4.76500917 -0.11358400 -1.18662170
v 4.76907853 3.59973363 -1.49054784
v 4.76504452 -0.45794663 -1.43985120
v 4.87226474 -0.30542609 -1.18662170
v 4.91649741 -0.45794663 -1.19446285
v 4.82304251 -0.23671239 -1.18662170
v 5.01925873 -0.45794663 -1.55573416
v 5.09130518 -0.45794663 -1.53831742
v 4.91791289 3.59973363 -1.55573416
v 4.77884519 -0.45794663 -1.25903495
v 4.82955362 -0.45794663 -1.20555607
v 4.81975160 3.59973363 -1.53835353
v 4.76907853 -0.45794663 -1.49054784
v 4.91794825 -0.45794663 -1.55573416
v 4.81975160 0.54416062 -1.53835353
v 4.81975160 -0.45794663 -1.53831742
v 4.82134387 -0.45794663 -1.53860647
f 1 2 5
f 1 5 14
f 1 14 16
f 1 16 22
f 1 22 31
f 1 31 41
f 1 41 55
f 1 55 60
f 1 60 58
f 1 58 46
f 1 46 33
f 1 33 24
f 1 24 19
f 1 19 13
f 1 13 12
f 1 12 11
f 1 11 10
f 1 10 7
f 1 7 3
f 1 3 4
f 1 4 6
f 1 6 2
f 2 6 5
f 3 7 4
f 4 8 9
f 4 9 18
f 4 18 23
f 4 23 29
f 4 29 37
f 4 37 52
f 4 52 63
f 4 63 66
f 4 66 56
f 4 56 42
f 4 42 32
f 4 32 30
f 4 30 21
f 4 21 15
f 4 15 6
f 4 7 10
f 4 10 11
f 4 11 12
f 4 12 13
f 4 13 8
f 5 6 14
f 6 15 16
f 6 16 14
f 8 17 18
f 8 18 9
f 8 13 17
f 13 19 27
f 13 27 20
f 13 20 17
f 15 21 16
f 16 21 22
f 17 20 18
f 18 20 23
f 19 24 25
f 19 25 26
f 19 26 27
f 20 28 29
f 20 29 23
f 20 27 28
f 21 30 22
f 22 30 32
f 22 32 45
f 22 45 40
f 22 40 31
f 24 33 34
f 24 34 25
f 25 34 47
f 25 47 59
f 25 59 65
f 25 65 64
f 25 64 54
f 25 54 53
f 25 53 40
f 25 40 45
f 25 45 57
f 25 57 67
f 25 67 70
f 25 70 71
f 25 71 68
f 25 68 61
f 25 61 62
f 25 62 49
f 25 49 38
f 25 38 35
f 25 35 27
f 25 27 26
f 27 35 28
f 28 35 29
f 29 36 37
f 29 35 38
f 29 38 39
f 29 39 36
f 31 40 41
f 32 42 43
f 32 43 44
f 32 44 45
f 33 46 34
f 34 46 47
f 36 48 52
f 36 52 37
f 36 39 49
f 36 49 50
f 36 50 51
f 36 51 48
f 38 49 39
f 40 53 41
f 41 53 54
f 41 54 55
f 42 56 43
f 43 56 67
f 43 67 57
f 43 57 44
f 44 57 45
f 46 58 47
f 47 58 60
f 47 60 59
f 48 51 61
f 48 61 68
f 48 68 63
f 48 63 52
f 49 62 50
f 50 62 61
f 50 61 51
f 54 64 55
f 55 64 65
f 55 65 60
f 56 66 69
f 56 69 67
f 59 60 65
f 63 68 69
f 63 69 66
f 67 69 70
f 68 71 69
f 69 71 70

