# https://github.com/mikedh/trimesh
v -2.28208003 4.20807577 -1.55576982
v -4.38916783 4.10672993 -1.55417725
v -4.38916783 4.20807577 -1.55573446
v -4.38916783 4.30945696 -1.54465778
v -0.56775679 4.20807577 -1.55576982
v -0.56775679 4.10672993 -1.55417725
v -4.38916783 4.03924875 -1.53676625
v -4.38916783 4.36554386 -1.52731750
v -0.56775679 4.31501252 -1.54295914
v -0.56775679 4.30945696 -1.54465778
v -0.56775679 4.03924875 -1.53676625
v -4.38916783 4.03475480 -1.52250473
v -4.38916783 4.37166544 -1.48251594
v -0.56775679 4.36632231 -1.52165541
v -0.56775679 4.36554386 -1.52731750
v -0.56775679 4.02042317 -1.47688921
v -4.38916783 4.01837096 -1.47027158
v -4.38916783 4.37332872 -1.47027158
v -0.56775679 4.37332872 -1.47027158
v -0.56775679 4.01837096 -1.47027158
v -4.38916783 4.01745077 -1.44854311
v -4.38916783 4.37520415 -1.39061251
v -0.56775679 4.37357652 -1.46022130
v -0.56775679 4.01423058 -1.36891940
v -4.38916783 4.01423058 -1.36891940
v -4.38916783 4.37569944 -1.36891940
v -0.56775679 4.37569944 -1.36891940
v -0.56775679 4.02321878 -1.26749650
v -4.38916783 4.02321878 -1.26749650
v -4.38916783 4.37339943 -1.32762119
v -0.56775679 4.37516879 -1.35886913
v -0.56775679 4.04204406 -1.21278610
v -4.38916783 4.04413193 -1.20673479
v -4.38916783 4.36993174 -1.26749650
v -0.56775679 4.37339943 -1.32762119
v -0.56775679 4.04413193 -1.20673479
v -4.38916783 4.10676529 -1.19544589
v -4.38916783 4.36214658 -1.21473254
v -0.56775679 4.36993174 -1.26749650
v -0.56775679 4.10676529 -1.19544589
v -4.38916783 4.20804041 -1.19427806
v -0.56775679 4.19799059 -1.19438420
v -4.38916783 4.30945696 -1.20344365
v -0.56775679 4.36214658 -1.21473254
v -0.56775679 4.20804041 -1.19427806
v -0.56775679 4.29940714 -1.20252354
v -0.56775679 4.30945696 -1.20344365
f 1 2 3
f 1 3 4
f 1 4 10
f 1 10 5
f 1 5 6
f 1 6 2
f 2 6 11
f 2 11 7
f 2 7 12
f 2 12 17
f 2 17 21
f 2 21 25
f 2 25 29
f 2 29 33
f 2 33 37
f 2 37 41
f 2 41 43
f 2 43 38
f 2 38 34
f 2 34 30
f 2 30 26
f 2 26 22
f 2 22 18
f 2 18 13
f 2 13 8
f 2 8 4
f 2 4 3
f 4 8 9
f 4 9 10
f 5 10 9
f 5 9 15
f 5 15 14
f 5 14 19
f 5 19 23
f 5 23 27
f 5 27 31
f 5 31 35
f 5 35 39
f 5 39 44
f 5 44 47
f 5 47 46
f 5 46 45
f 5 45 42
f 5 42 40
f 5 40 36
f 5 36 32
f 5 32 28
f 5 28 24
f 5 24 20
f 5 20 16
f 5 16 11
f 5 11 6
f 7 11 12
f 8 13 14
f 8 14 15
f 8 15 9
f 11 16 12
f 12 16 17
f 13 18 19
f 13 19 14
f 16 20 17
f 17 20 21
f 18 22 23
f 18 23 19
f 20 24 21
f 21 24 25
f 22 26 27
f 22 27 23
f 24 28 29
f 24 29 25
f 26 30 31
f 26 31 27
f 28 32 29
f 29 32 33
f 30 34 39
f 30 39 35
f 30 35 31
f 32 36 33
f 33 36 40
f 33 40 37
f 34 38 44
f 34 44 39
f 37 40 42
f 37 42 41
f 38 43 47
f 38 47 44
f 41 42 45
f 41 45 46
f 41 46 43
f 43 46 47

