# https://github.com/mikedh/trimesh
v 4.75051314 3.90747333 -1.36889431
v 4.75051314 3.92182097 -1.28663349
v 4.50769957 4.02326411 -1.26753231
v 4.50769957 4.01427953 -1.36889431
v 4.50769957 4.01446296 -1.37349539
v 4.50769957 4.01835917 -1.47025631
v 4.75051314 3.91622854 -1.44046587
v 4.50769957 4.04320419 -1.20953153
v 4.75051314 4.07318320 -1.09427352
v 4.50769957 4.04416698 -1.20674302
v 4.75051314 3.92104191 -1.45924174
v 4.50769957 4.01927603 -1.47327706
v 4.75051314 4.10627936 -1.08981190
v 4.50769957 4.10673779 -1.19549606
v 4.50769957 4.10389564 -1.19596083
v 4.75051314 3.93213491 -1.49498090
v 4.50769957 4.03921611 -1.53676201
v 4.75051314 4.20804313 -1.08098167
v 4.50769957 4.20345943 -1.19433419
v 4.75051314 3.97705780 -1.52458550
v 4.50769957 4.10673779 -1.55414370
v 4.75051314 4.01253768 -1.53848151
v 4.75051314 4.25709159 -1.08530382
v 4.50769957 4.20804313 -1.19428773
v 4.75051314 4.10673779 -1.55442248
v 4.75051314 4.06406112 -1.54917077
v 4.50769957 4.20804313 -1.55577027
v 4.75051314 4.17265512 -1.55549149
v 4.75051314 4.28289910 -1.09538892
v 4.50769957 4.36211001 -1.21478316
v 4.50769957 4.35972629 -1.21422546
v 4.50769957 4.30944034 -1.20348981
v 4.50769957 4.30485633 -1.20307150
v 4.61349070 4.20804313 -1.55577027
v 4.50769957 4.30944034 -1.54466277
v 4.61349070 4.30944034 -1.54470916
v 4.75051314 4.20804313 -1.55572373
v 4.75051314 4.36435623 -1.19405534
v 4.50769957 4.36994866 -1.26753231
v 4.75051314 4.30944034 -1.54470916
v 4.75051314 4.27405232 -1.54856668
v 4.50769957 4.31200749 -1.54387268
v 4.50769957 4.36554809 -1.52728108
v 4.75051314 4.37141552 -1.26753231
v 4.50769957 4.37572422 -1.36889431
v 4.75051314 4.36554809 -1.52728108
v 4.50769957 4.36591465 -1.52472496
v 4.75051314 4.37577016 -1.36889431
v 4.61349070 4.37577016 -1.36889431
v 4.50769957 4.37334081 -1.47025631
v 4.61349070 4.37334081 -1.47025631
v 4.75051314 4.37059022 -1.49019397
v 4.75051314 4.37329487 -1.47025631
f 1 2 3
f 1 3 4
f 1 4 5
f 1 5 6
f 1 6 7
f 1 7 11
f 1 11 16
f 1 16 20
f 1 20 22
f 1 22 26
f 1 26 25
f 1 25 28
f 1 28 37
f 1 37 41
f 1 41 40
f 1 40 46
f 1 46 52
f 1 52 53
f 1 53 48
f 1 48 44
f 1 44 38
f 1 38 29
f 1 29 23
f 1 23 18
f 1 18 13
f 1 13 9
f 1 9 2
f 2 8 3
f 2 9 10
f 2 10 8
f 3 8 10
f 3 10 15
f 3 15 14
f 3 14 19
f 3 19 24
f 3 24 33
f 3 33 32
f 3 32 31
f 3 31 30
f 3 30 39
f 3 39 45
f 3 45 50
f 3 50 47
f 3 47 43
f 3 43 42
f 3 42 35
f 3 35 27
f 3 27 21
f 3 21 17
f 3 17 12
f 3 12 6
f 3 6 5
f 3 5 4
f 6 11 7
f 6 12 11
f 9 13 14
f 9 14 15
f 9 15 10
f 11 12 16
f 12 17 16
f 13 18 14
f 14 18 19
f 16 17 20
f 17 21 22
f 17 22 20
f 18 23 24
f 18 24 19
f 21 25 26
f 21 26 22
f 21 27 28
f 21 28 25
f 23 29 30
f 23 30 31
f 23 31 32
f 23 32 33
f 23 33 24
f 27 34 28
f 27 35 36
f 27 36 40
f 27 40 34
f 28 34 37
f 29 38 30
f 30 38 39
f 34 40 41
f 34 41 37
f 35 42 36
f 36 42 43
f 36 43 46
f 36 46 40
f 38 44 39
f 39 44 45
f 43 47 46
f 44 48 49
f 44 49 45
f 45 49 50
f 46 47 51
f 46 51 52
f 47 50 51
f 48 53 51
f 48 51 50
f 48 50 49
f 51 53 52

