# https://github.com/mikedh/trimesh
v 4.76423101 -0.05064547 -1.18658552
v 4.76437244 -0.06859999 -1.18658552
v 4.76423101 -0.05064547 -1.06431082
v 4.76423101 0.05064630 -1.18658552
v 4.76500947 -0.11403328 -1.18658552
v 4.76504513 -0.10335066 -1.06470579
v 4.76504513 -0.10315760 -1.06431082
v 4.76423101 0.05064630 -1.06431082
v 4.76500947 0.11403411 -1.18658552
v 4.82301320 -0.23688334 -1.18658552
v 4.87223996 -0.30586986 -1.18658552
v 4.81653684 -0.14350699 -1.06431082
v 4.76504513 0.10335150 -1.06431082
v 4.76631888 0.12439495 -1.18658552
v 4.91792800 -0.32871521 -1.18658552
v 4.91792800 -0.18173274 -1.06431082
v 4.81632440 0.14331477 -1.06431082
v 4.91792800 0.32871604 -1.18658552
v 4.82301320 0.23688417 -1.18658552
v 5.01928381 -0.32459662 -1.18658552
v 5.01928381 -0.17819331 -1.06431082
v 4.91753878 0.18160487 -1.06431082
v 4.99309554 0.32871604 -1.18658552
v 5.09087728 -0.22510672 -1.18658552
v 5.09788398 -0.13797263 -1.06431082
v 5.01889458 0.17819414 -1.06431082
v 5.01928381 0.32459745 -1.18658552
v 5.12577120 -0.05064547 -1.18658552
v 5.12577120 -0.05064547 -1.06470579
v 5.12562977 -0.05103159 -1.06431082
v 5.09799036 0.13765170 -1.06431082
v 5.05017908 0.30072245 -1.18658552
v 5.12577120 0.05064630 -1.18658552
v 5.12577120 0.05026019 -1.06431082
v 5.12577120 0.05064630 -1.06470579
v 5.09087728 0.22510755 -1.18658552
v 5.12485132 0.07117494 -1.18658552
v 5.10312164 0.17761496 -1.18658552
f 1 2 3
f 1 3 8
f 1 8 4
f 1 4 9
f 1 9 14
f 1 14 19
f 1 19 18
f 1 18 23
f 1 23 27
f 1 27 32
f 1 32 36
f 1 36 38
f 1 38 37
f 1 37 33
f 1 33 28
f 1 28 24
f 1 24 20
f 1 20 15
f 1 15 11
f 1 11 10
f 1 10 5
f 1 5 2
f 2 5 3
f 3 5 6
f 3 6 7
f 3 7 12
f 3 12 16
f 3 16 21
f 3 21 25
f 3 25 30
f 3 30 34
f 3 34 31
f 3 31 26
f 3 26 22
f 3 22 17
f 3 17 13
f 3 13 8
f 4 8 9
f 5 10 6
f 6 10 11
f 6 11 7
f 7 11 12
f 8 13 9
f 9 13 14
f 11 15 12
f 12 15 16
f 13 17 18
f 13 18 19
f 13 19 14
f 15 20 21
f 15 21 16
f 17 22 18
f 18 22 23
f 20 24 25
f 20 25 21
f 22 26 23
f 23 26 27
f 24 28 29
f 24 29 30
f 24 30 25
f 26 31 27
f 27 31 32
f 28 33 35
f 28 35 34
f 28 34 29
f 29 34 30
f 31 34 35
f 31 35 36
f 31 36 32
f 33 37 35
f 35 37 38
f 35 38 36

