# https://github.com/mikedh/trimesh
v -4.61302950 4.20744539 1.19297877
v -4.61302950 4.10633678 1.19432837
v -4.61302950 4.20808423 1.19297877
v -0.56688949 4.20808423 1.19429286
v -0.56688949 4.11591880 1.19535833
v -4.61302950 4.04398234 1.20661678
v -0.56688949 4.10672721 1.19550036
v -0.56688949 4.04412437 1.20672330
v -4.61302950 4.30883776 1.20270999
v -0.56688949 4.30947660 1.20345581
v -0.56688949 4.21724015 1.19510970
v -4.61302950 4.02272439 1.26759698
v -0.56688949 4.02322120 1.26752597
v -4.61302950 4.30947660 1.20278109
v -0.56688949 4.36214234 1.21474977
v -4.61302950 4.02265337 1.26823628
v -0.56688949 4.01424266 1.36892272
v -4.61302950 4.01321339 1.36895823
v -4.61302950 4.36178757 1.21464325
v -0.56688949 4.36991451 1.26752597
v -3.59080085 4.36214234 1.21474977
v -4.38886019 4.36828205 1.25626744
v -0.56688949 4.01796904 1.46108558
v -4.61302950 4.01761396 1.47024861
v -0.56688949 4.01835917 1.47024861
v -4.61302950 4.36984350 1.26724175
v -4.51203452 4.36214234 1.21478528
v -0.56688949 4.37044668 1.27672450
v -3.59080085 4.36991451 1.26752597
v -4.51203452 4.36991451 1.26759698
v -4.38886019 4.36991451 1.26756148
v -4.61302950 4.03901394 1.53673376
v -0.56688949 4.03731046 1.53073155
v -0.56688949 4.03922699 1.53676927
v -4.61302950 4.37577016 1.36895823
v -0.56688949 4.37573480 1.36892272
v -4.38886019 4.37577016 1.36895823
v -4.38886019 4.10676257 1.55417181
v -4.61302950 4.10676257 1.55413630
v -0.56688949 4.10672721 1.55417181
v -3.59080085 4.10672721 1.55417181
v -4.61302950 4.37339248 1.46960931
v -0.56688949 4.37552175 1.37805024
v -0.56688949 4.37335682 1.47024861
v -4.61302950 4.20808423 1.55573446
v -3.59080085 4.11549300 1.55431384
v -3.59080085 4.20808423 1.55577012
v -0.56688949 4.20808423 1.55577012
v -4.61302950 4.37332147 1.47024861
v -3.59080085 4.37335682 1.47024861
v -4.38886019 4.36725278 1.51506920
v -0.56688949 4.36554930 1.52728652
v -4.38886019 4.22976797 1.55339048
v -4.38886019 4.30947660 1.54468921
v -4.61302950 4.30947660 1.54465370
v -0.56688949 4.30947660 1.54468921
v -4.61302950 4.36562031 1.52689593
v -3.59080085 4.31430297 1.54319757
v -4.51203452 4.36554930 1.52728652
v -4.38886019 4.32150731 1.54096012
f 1 2 6
f 1 6 12
f 1 12 16
f 1 16 18
f 1 18 24
f 1 24 32
f 1 32 39
f 1 39 45
f 1 45 55
f 1 55 57
f 1 57 49
f 1 49 42
f 1 42 35
f 1 35 26
f 1 26 19
f 1 19 14
f 1 14 9
f 1 9 3
f 1 3 4
f 1 4 5
f 1 5 2
f 2 5 7
f 2 7 8
f 2 8 6
f 3 9 10
f 3 10 11
f 3 11 4
f 4 11 10
f 4 10 15
f 4 15 20
f 4 20 28
f 4 28 36
f 4 36 43
f 4 43 44
f 4 44 52
f 4 52 56
f 4 56 48
f 4 48 40
f 4 40 34
f 4 34 33
f 4 33 25
f 4 25 23
f 4 23 17
f 4 17 13
f 4 13 8
f 4 8 7
f 4 7 5
f 6 8 12
f 8 13 12
f 9 14 10
f 10 14 15
f 12 13 16
f 13 17 18
f 13 18 16
f 14 19 15
f 15 19 21
f 15 21 22
f 15 22 20
f 17 23 18
f 18 23 25
f 18 25 24
f 19 26 27
f 19 27 21
f 20 22 29
f 20 29 28
f 21 27 22
f 22 27 26
f 22 26 30
f 22 30 31
f 22 31 29
f 24 25 33
f 24 33 34
f 24 34 32
f 26 35 30
f 28 29 35
f 28 35 37
f 28 37 36
f 29 31 35
f 30 35 31
f 32 38 39
f 32 34 40
f 32 40 41
f 32 41 38
f 35 42 37
f 36 37 43
f 37 42 44
f 37 44 43
f 38 45 39
f 38 41 46
f 38 46 47
f 38 47 45
f 40 48 46
f 40 46 41
f 42 49 50
f 42 50 44
f 44 50 51
f 44 51 52
f 45 53 54
f 45 54 55
f 45 47 53
f 46 48 47
f 47 48 56
f 47 56 54
f 47 54 53
f 49 57 51
f 49 51 50
f 51 57 52
f 52 58 56
f 52 57 59
f 52 59 58
f 54 60 55
f 54 56 58
f 54 58 60
f 55 60 59
f 55 59 57
f 58 59 60

