# https://github.com/mikedh/trimesh
v -5.12577025 -0.04678752 1.06861039
v -5.12577025 0.05043860 1.16584228
v -5.12577025 0.05068536 1.06861039
v -5.12573459 -0.05068644 1.06861039
v -5.12569953 -0.05088385 1.16584228
v -5.10004191 0.15817698 1.16584228
v -5.12474399 0.05483104 1.06861039
v -5.09795374 -0.13873283 1.06861039
v -5.09919275 -0.16148472 1.16584228
v -5.09919275 0.16148367 1.16584228
v -5.09795374 0.13873176 1.06861039
v -5.01928286 -0.17895582 1.06861039
v -5.01928286 -0.24617508 1.16584228
v -5.05545114 0.22421177 1.16584228
v -5.01928286 0.24617403 1.16584228
v -5.01928286 0.17895473 1.06861039
v -4.91792705 -0.18241056 1.06861039
v -4.91792705 -0.25209751 1.16584228
v -5.00845368 0.24696366 1.16584228
v -4.91792705 0.25209642 1.16584228
v -4.92383709 0.18226143 1.06861039
v -4.91350351 -0.18097929 1.06861039
v -4.81621737 -0.14426041 1.06861039
v -4.86385187 -0.22850657 1.16584228
v -4.81140430 0.17564807 1.16584228
v -4.81621737 0.14425933 1.06861039
v -4.91792705 0.18240947 1.06861039
v -4.76504417 -0.10344518 1.06861039
v -4.81140430 -0.17564916 1.16584228
v -4.76504417 0.10665207 1.16584228
v -4.76504417 0.10344410 1.06861039
v -4.76681353 0.10571435 1.06861039
v -4.76423006 -0.05068644 1.06861039
v -4.76504417 -0.10665314 1.16584228
v -4.76423006 0.05068536 1.16584228
v -4.76423006 0.05068536 1.06861039
v -4.76500851 0.10132191 1.06861039
v -4.76423006 -0.05068644 1.16584228
f 1 2 3
f 1 3 7
f 1 7 11
f 1 11 16
f 1 16 21
f 1 21 27
f 1 27 26
f 1 26 32
f 1 32 31
f 1 31 37
f 1 37 36
f 1 36 33
f 1 33 28
f 1 28 23
f 1 23 22
f 1 22 17
f 1 17 12
f 1 12 8
f 1 8 4
f 1 4 5
f 1 5 2
f 2 6 3
f 2 5 9
f 2 9 13
f 2 13 18
f 2 18 24
f 2 24 29
f 2 29 34
f 2 34 38
f 2 38 35
f 2 35 30
f 2 30 25
f 2 25 20
f 2 20 19
f 2 19 15
f 2 15 14
f 2 14 10
f 2 10 6
f 3 6 7
f 4 8 9
f 4 9 5
f 6 10 7
f 7 10 11
f 8 12 13
f 8 13 9
f 10 14 11
f 11 14 15
f 11 15 16
f 12 17 18
f 12 18 13
f 15 19 16
f 16 19 20
f 16 20 21
f 17 22 18
f 18 22 23
f 18 23 24
f 20 25 26
f 20 26 27
f 20 27 21
f 23 28 24
f 24 28 29
f 25 30 31
f 25 31 32
f 25 32 26
f 28 33 34
f 28 34 29
f 30 35 36
f 30 36 37
f 30 37 31
f 33 36 35
f 33 35 38
f 33 38 34

