# https://github.com/mikedh/trimesh
v -4.91787930 4.37577016 -1.13507061
v -4.70998776 4.37577016 -1.36889311
v -5.01926110 4.37577016 -1.13507061
v -4.84897568 4.37027382 -1.13507061
v -4.70998776 4.37041253 -1.26750678
v -4.70998776 4.37073588 -1.27261328
v -4.70998776 4.37336831 -1.47027928
v -5.01926110 4.37577016 -1.36889311
v -5.08144963 4.36796445 -1.13507061
v -4.82272455 4.36773357 -1.13507061
v -4.70998776 4.36302264 -1.21047196
v -4.70998776 4.36556290 -1.52731417
v -5.01926110 4.37336831 -1.47027928
v -5.07973981 4.36676382 -1.47027928
v -5.08144963 4.36796445 -1.36889311
v -5.10932839 4.30949201 -1.13507061
v -4.78064170 4.33914405 -1.13507061
v -4.70998776 4.36265306 -1.20783644
v -5.01926110 4.36556290 -1.52731417
v -4.70998776 4.30949201 -1.54469223
v -5.07534468 4.36376151 -1.52521391
v -5.10436331 4.30949201 -1.47027928
v -5.10932839 4.30949201 -1.36889311
v -5.12577085 4.20806549 -1.13507061
v -4.74181440 4.31184763 -1.13507061
v -4.70998776 4.31401830 -1.16986805
v -5.01926110 4.30949201 -1.54469223
v -4.70998776 4.20806549 -1.55576982
v -5.08466439 4.30949201 -1.53283226
v -5.11921804 4.20806549 -1.47027928
v -5.12577085 4.20806549 -1.36889311
v -5.12577085 3.90392495 -1.36889311
v -5.12365427 4.13776905 -1.13507061
v -4.73465145 4.29716001 -1.13507061
v -4.70998776 4.30769062 -1.16842673
v -5.01926110 4.20806549 -1.55576982
v -4.70998776 4.10673145 -1.55416380
v -4.91792010 3.90392495 -1.55576982
v -5.09133929 4.20806549 -1.53835051
v -5.11921804 3.90392495 -1.47027928
v -5.11343885 3.90392495 -1.26750678
v -5.12247450 4.10673145 -1.13507061
v -4.72012189 4.20774214 -1.13507061
v -4.70998776 4.20764997 -1.15310761
v -5.01926110 4.00530523 -1.55576982
v -4.70998776 4.02373372 -1.53678559
v -4.81893955 3.90392495 -1.53835051
v -5.01930159 3.90392495 -1.55572872
v -5.09133929 3.90392495 -1.53835051
v -5.08556010 3.90392495 -1.20347130
v -5.10464798 4.03980690 -1.13507061
v -4.72077312 4.18778968 -1.13507061
v -4.70998776 4.09823310 -1.15220162
v -4.70998776 4.11033422 -1.15203693
v -4.70998776 3.98382819 -1.47835062
v -4.76822841 3.90392495 -1.50425317
v -5.01926110 3.90392495 -1.18811100
v -5.01926110 3.98766184 -1.13507061
v -5.09540926 4.01569713 -1.13507061
v -4.72858729 4.09892603 -1.13507061
v -4.70998776 4.02710532 -1.18695790
v -4.70998776 3.97205072 -1.36889311
v -4.75272184 3.90392495 -1.36893420
v -4.75923386 3.90392495 -1.45356001
v -4.91787930 3.90392495 -1.18666968
v -4.91787930 3.98719978 -1.13507061
v -4.73888431 4.08225239 -1.13507061
v -4.78178128 4.03135449 -1.13507061
v -4.80587503 4.00812260 -1.13507061
v -4.82642826 3.90392495 -1.20207115
v -4.77575761 3.90392495 -1.24316923
v -4.70998776 3.98881653 -1.25622340
v -4.70998776 3.97334381 -1.35938044
v -4.75931515 3.90392495 -1.29390357
v -4.70998776 3.98673803 -1.26219456
f 1 2 8
f 1 8 3
f 1 3 9
f 1 9 16
f 1 16 24
f 1 24 33
f 1 33 42
f 1 42 51
f 1 51 59
f 1 59 58
f 1 58 66
f 1 66 69
f 1 69 68
f 1 68 67
f 1 67 60
f 1 60 52
f 1 52 43
f 1 43 34
f 1 34 25
f 1 25 17
f 1 17 10
f 1 10 4
f 1 4 5
f 1 5 6
f 1 6 2
f 2 7 13
f 2 13 8
f 2 6 5
f 2 5 11
f 2 11 18
f 2 18 26
f 2 26 35
f 2 35 44
f 2 44 54
f 2 54 53
f 2 53 61
f 2 61 72
f 2 72 75
f 2 75 73
f 2 73 62
f 2 62 55
f 2 55 46
f 2 46 37
f 2 37 28
f 2 28 20
f 2 20 12
f 2 12 7
f 3 8 15
f 3 15 9
f 4 10 5
f 5 10 11
f 7 12 19
f 7 19 13
f 8 13 14
f 8 14 15
f 9 15 23
f 9 23 16
f 10 17 18
f 10 18 11
f 12 20 27
f 12 27 19
f 13 19 21
f 13 21 14
f 14 21 22
f 14 22 23
f 14 23 15
f 16 23 31
f 16 31 24
f 17 25 18
f 18 25 26
f 19 27 21
f 20 28 36
f 20 36 27
f 21 27 29
f 21 29 22
f 22 29 30
f 22 30 31
f 22 31 23
f 24 31 32
f 24 32 33
f 25 34 26
f 26 34 35
f 27 36 29
f 28 37 38
f 28 38 45
f 28 45 36
f 29 36 39
f 29 39 30
f 30 39 49
f 30 49 40
f 30 40 32
f 30 32 31
f 32 40 49
f 32 49 48
f 32 48 38
f 32 38 47
f 32 47 56
f 32 56 64
f 32 64 63
f 32 63 74
f 32 74 71
f 32 71 70
f 32 70 65
f 32 65 57
f 32 57 50
f 32 50 41
f 32 41 42
f 32 42 33
f 34 43 35
f 35 43 44
f 36 45 49
f 36 49 39
f 37 46 47
f 37 47 38
f 38 48 45
f 41 50 51
f 41 51 42
f 43 52 53
f 43 53 54
f 43 54 44
f 45 48 49
f 46 55 56
f 46 56 47
f 50 57 58
f 50 58 59
f 50 59 51
f 52 60 53
f 53 60 61
f 55 62 63
f 55 63 64
f 55 64 56
f 57 65 58
f 58 65 66
f 60 67 61
f 61 67 68
f 61 68 69
f 61 69 70
f 61 70 71
f 61 71 72
f 62 73 63
f 63 73 75
f 63 75 74
f 65 70 69
f 65 69 66
f 71 74 72
f 72 74 75

