# https://github.com/mikedh/trimesh
v -0.36243345 -4.09845763 1.15333743
v -0.35929817 -4.09106109 1.15333743
v -0.36013798 -4.20820057 1.15333743
v -0.57115524 -4.20809450 1.19426612
v -0.57115524 -4.10670334 1.19544793
v -0.33124838 -4.04923057 1.15333743
v -0.34266986 -4.30375241 1.15333743
v -0.57115524 -4.29603766 1.20222338
v -0.57115524 -4.04409929 1.20675352
v -0.26327943 -4.03341154 1.15333743
v -0.57115524 -4.36214537 1.21475015
v -0.57115524 -4.35517371 1.21325322
v -0.57115524 -4.30948567 1.20344456
v -0.32357805 -4.32066872 1.15333743
v -0.57115524 -4.02321938 1.26753594
v -0.15214402 -4.01423058 1.15333743
v -0.26020011 -4.03277451 1.15333743
v -0.57115524 -4.36890488 1.26052410
v -0.25135405 -4.36766618 1.15333743
v -0.15214402 -4.37573480 1.15333743
v -0.57115524 -4.01423058 1.36889265
v 0.00081410 -4.01423058 1.15333743
v -0.57115524 -4.36993113 1.26753594
v 0.00081410 -4.37573480 1.15333743
v -0.57115524 -4.37573480 1.36889265
v -0.57115524 -4.37499170 1.35542047
v -0.57115524 -4.01833560 1.47028865
v 0.00081410 -4.01624773 1.41876339
v 0.00081410 -4.01423058 1.36889265
v 0.00081410 -4.37573480 1.36889265
v -0.57115524 -4.37368229 1.45681647
v -0.57115524 -4.02109586 1.47911246
v 0.00081410 -4.01833560 1.47028865
v 0.00081410 -4.37453176 1.42037847
v -0.57115524 -4.37336377 1.47028865
v 0.00081410 -4.37336377 1.47028865
v -0.57115524 -4.03921551 1.53678302
v 0.00081410 -4.03921551 1.53678302
v 0.00081410 -4.02859847 1.50298425
v -0.57115524 -4.36557801 1.52728939
v 0.00081410 -4.36557801 1.52728939
v -0.57115524 -4.04816896 1.53910720
v 0.00081410 -4.07241079 1.54533107
v -0.57115524 -4.30948567 1.54470084
v 0.00081410 -4.33708942 1.53615279
v -0.57115524 -4.10670334 1.55415503
v 0.00081410 -4.10670334 1.55415503
v -0.57115524 -4.20809450 1.55577012
v 0.00081410 -4.30948567 1.54470084
v -0.57115524 -4.12018671 1.55439135
v 0.00081410 -4.20809450 1.55577012
f 1 2 6
f 1 6 10
f 1 10 17
f 1 17 16
f 1 16 22
f 1 22 24
f 1 24 20
f 1 20 19
f 1 19 14
f 1 14 7
f 1 7 3
f 1 3 4
f 1 4 5
f 1 5 2
f 2 5 6
f 3 7 4
f 4 8 13
f 4 13 12
f 4 12 11
f 4 11 18
f 4 18 23
f 4 23 26
f 4 26 25
f 4 25 31
f 4 31 35
f 4 35 40
f 4 40 44
f 4 44 48
f 4 48 50
f 4 50 46
f 4 46 42
f 4 42 37
f 4 37 32
f 4 32 27
f 4 27 21
f 4 21 15
f 4 15 9
f 4 9 5
f 4 7 8
f 5 9 6
f 6 9 10
f 7 11 12
f 7 12 13
f 7 13 8
f 7 14 11
f 9 15 16
f 9 16 17
f 9 17 10
f 11 14 19
f 11 19 20
f 11 20 18
f 15 21 16
f 16 21 29
f 16 29 22
f 18 20 23
f 20 24 30
f 20 30 25
f 20 25 26
f 20 26 23
f 21 27 28
f 21 28 29
f 22 29 28
f 22 28 33
f 22 33 39
f 22 39 38
f 22 38 43
f 22 43 47
f 22 47 51
f 22 51 49
f 22 49 45
f 22 45 41
f 22 41 36
f 22 36 34
f 22 34 30
f 22 30 24
f 25 30 31
f 27 32 33
f 27 33 28
f 30 34 31
f 31 34 36
f 31 36 35
f 32 37 38
f 32 38 39
f 32 39 33
f 35 36 41
f 35 41 40
f 37 42 38
f 38 42 43
f 40 41 45
f 40 45 44
f 42 46 47
f 42 47 43
f 44 45 49
f 44 49 51
f 44 51 48
f 46 50 47
f 47 50 51
f 48 51 50

