# https://github.com/mikedh/trimesh
v 0.43670986 4.20807577 -1.55577012
v 0.55996608 4.20807577 -1.55577012
v -0.35981931 4.10672993 -1.55418117
v -0.35981931 4.20807577 -1.55572192
v -0.35981931 4.30945696 -1.54469631
v 0.55996608 4.30719200 -1.54493701
v 0.55996608 4.10672993 -1.55413313
v 0.43661980 4.10672993 -1.55418117
v 0.00085614 4.30945696 -1.54469631
v -0.35981931 4.03931946 -1.53675189
v 0.43670986 4.05223530 -1.54012228
v -0.35981931 4.36554386 -1.52726703
v 0.43670986 4.36554386 -1.52731508
v 0.55996608 4.30945696 -1.54464811
v 0.55996608 4.03924875 -1.53675189
v 0.55996608 4.36554386 -1.52731508
v -0.35981931 4.01946793 -1.47353453
v 0.43670986 4.03924875 -1.53675189
v 0.55996608 4.03875315 -1.53525935
v 0.43670986 4.02236961 -1.48306775
v -0.35981931 4.36593309 -1.52447444
v 0.43661980 4.36706541 -1.51628932
v 0.55996608 4.37332872 -1.47026055
v 0.43670986 4.36706541 -1.51628932
v -0.35981931 4.01844167 -1.47021250
v 0.43670986 4.01837096 -1.47026055
v 0.55996608 4.01837096 -1.47026055
v -0.35981931 4.37332872 -1.47021250
v 0.43670986 4.37332872 -1.47026055
v 0.55996608 4.37566409 -1.37112542
v 0.00085614 4.01624773 -1.41869494
v -0.35981931 4.01423058 -1.36881438
v 0.55996608 4.01826489 -1.46799770
v -0.35981931 4.37562873 -1.36881438
v 0.43670986 4.37569944 -1.36891063
v 0.55996608 4.37569944 -1.36891063
v 0.55996608 4.01423058 -1.36891063
v 0.43670986 4.01423058 -1.36891063
v -0.15202126 4.01423058 -1.06452372
v -0.35981931 4.02141407 -1.27256795
v -0.35981931 4.37039168 -1.26760877
v -0.15211129 4.37562873 -1.06452372
v 0.00085614 4.37562873 -1.06389780
v 0.55996608 4.37003781 -1.26982356
v 0.15202291 4.37562873 -1.06389780
v 0.55996608 4.02325414 -1.26756072
v 0.15202291 4.01423058 -1.06389780
v -0.25294917 4.03521474 -1.06452372
v -0.35981931 4.02183865 -1.26760877
v 0.00085614 4.01423058 -1.06389780
v -0.35981931 4.36260682 -1.20780992
v -0.23161114 4.36787923 -1.06452372
v -0.28230019 4.32244351 -1.06452372
v -0.30705949 4.27187682 -1.06452372
v -0.31021067 4.20807577 -1.06452372
v 0.55996608 4.36989638 -1.26756072
v 0.23089255 4.36791458 -1.06389780
v 0.55996608 4.36211122 -1.21474312
v 0.55996608 4.02371408 -1.26616443
v 0.25313089 4.03525009 -1.06389780
v 0.55996608 4.04413193 -1.20675065
v -0.30381829 4.05963093 -1.06452372
v -0.35981931 4.04275180 -1.18705845
v -0.35981931 4.04169019 -1.19013987
v -0.30723956 4.11051614 -1.06452372
v -0.35981931 4.30768760 -1.16842545
v -0.35981931 4.20807577 -1.15297018
v -0.35981931 4.09830804 -1.15234426
v 0.23206297 4.36749000 -1.06389780
v 0.55996608 4.30945696 -1.20347666
v 0.28230184 4.32247887 -1.06389780
v 0.30688107 4.27226604 -1.06389780
v 0.30345978 4.05945415 -1.06389780
v 0.55996608 4.10672993 -1.19548420
v 0.30381992 4.06016189 -1.06389780
v -0.35981931 4.09091241 -1.15369243
v 0.55996608 4.20807577 -1.19428055
v 0.30706114 4.27127515 -1.06389780
v 0.55996608 4.10899459 -1.19543607
v 0.30715118 4.11037472 -1.06389780
v 0.31012229 4.20726195 -1.06389780
v 0.31012229 4.20807577 -1.06389780
f 1 2 8
f 1 8 3
f 1 3 4
f 1 4 5
f 1 5 9
f 1 9 2
f 2 6 14
f 2 14 16
f 2 16 23
f 2 23 30
f 2 30 36
f 2 36 44
f 2 44 56
f 2 56 58
f 2 58 70
f 2 70 77
f 2 77 79
f 2 79 74
f 2 74 61
f 2 61 59
f 2 59 46
f 2 46 37
f 2 37 33
f 2 33 27
f 2 27 19
f 2 19 15
f 2 15 7
f 2 7 8
f 2 9 6
f 3 10 17
f 3 17 25
f 3 25 32
f 3 32 40
f 3 40 49
f 3 49 64
f 3 64 63
f 3 63 76
f 3 76 68
f 3 68 67
f 3 67 66
f 3 66 51
f 3 51 41
f 3 41 34
f 3 34 28
f 3 28 21
f 3 21 12
f 3 12 5
f 3 5 4
f 3 8 11
f 3 11 10
f 5 12 13
f 5 13 16
f 5 16 9
f 6 9 14
f 7 15 8
f 8 15 11
f 9 16 14
f 10 11 18
f 10 18 19
f 10 19 20
f 10 20 17
f 11 15 18
f 12 21 13
f 13 21 22
f 13 22 24
f 13 24 16
f 15 19 18
f 16 24 23
f 17 20 26
f 17 26 25
f 19 27 20
f 20 27 26
f 21 28 22
f 22 28 29
f 22 29 23
f 22 23 24
f 23 29 30
f 25 31 32
f 25 26 31
f 26 27 33
f 26 33 31
f 28 34 30
f 28 30 29
f 30 35 36
f 30 34 35
f 31 33 37
f 31 37 38
f 31 38 32
f 32 39 40
f 32 38 37
f 32 37 47
f 32 47 50
f 32 50 39
f 34 41 42
f 34 42 35
f 35 42 43
f 35 43 45
f 35 45 36
f 36 45 44
f 37 46 47
f 39 48 49
f 39 49 40
f 39 50 48
f 41 51 52
f 41 52 42
f 42 52 43
f 43 52 53
f 43 53 54
f 43 54 55
f 43 55 50
f 43 50 47
f 43 47 60
f 43 60 73
f 43 73 75
f 43 75 80
f 43 80 81
f 43 81 82
f 43 82 78
f 43 78 72
f 43 72 71
f 43 71 69
f 43 69 57
f 43 57 45
f 44 45 56
f 45 57 58
f 45 58 56
f 46 59 47
f 47 59 61
f 47 61 60
f 48 62 63
f 48 63 64
f 48 64 49
f 48 50 62
f 50 55 65
f 50 65 62
f 51 66 54
f 51 54 53
f 51 53 52
f 54 66 67
f 54 67 55
f 55 67 68
f 55 68 65
f 57 69 58
f 58 69 71
f 58 71 72
f 58 72 70
f 60 61 73
f 61 74 75
f 61 75 73
f 62 65 68
f 62 68 76
f 62 76 63
f 70 72 78
f 70 78 77
f 74 79 80
f 74 80 75
f 77 81 79
f 77 78 82
f 77 82 81
f 79 81 80

