# https://github.com/mikedh/trimesh
v 5.12572103 -3.90376478 -1.36900205
v 5.12577120 -3.90390319 -1.36888525
v 5.11917185 -3.90376478 -1.47038052
v 5.11347184 -3.90376478 -1.26766241
v 5.12577120 -4.20805492 -1.15834798
v 5.12577120 -4.20805492 -1.36888525
v 5.11922141 -3.90390319 -1.47026372
v 5.12267128 -4.10673265 -1.15834798
v 5.12297105 -4.11449455 -1.15834798
v 5.09132392 -3.90390319 -1.53838103
v 5.09122359 -3.90376478 -1.53838103
v 5.08557435 -3.90376478 -1.20355206
v 5.09897310 -4.01765415 -1.15834798
v 5.10932209 -4.30946965 -1.15834798
v 5.11922141 -4.20805492 -1.47026372
v 5.10932209 -4.30946965 -1.36888525
v 5.10432256 -4.30946965 -1.47026372
v 5.09132392 -4.20805492 -1.53838103
v 5.01927928 -3.90390319 -1.55577027
v 5.01912939 -3.90376478 -1.55577027
v 5.08552418 -3.90390319 -1.20347425
v 5.09587317 -4.00956860 -1.15834798
v 5.01927928 -3.90376478 -1.18810798
v 5.03087845 -3.96900277 -1.15834798
v 5.08142460 -4.36796203 -1.15834798
v 5.08467441 -4.30946965 -1.53281806
v 5.08142460 -4.36796203 -1.36888525
v 5.07972444 -4.36676080 -1.47026372
v 5.07532508 -4.36375758 -1.52519336
v 5.01927928 -4.20805492 -1.55577027
v 4.91788751 -3.90390319 -1.55577027
v 4.91773732 -3.90376478 -1.55573144
v 4.91788751 -3.90376478 -1.18670753
v 4.94528517 -3.96147175 -1.15834798
v 5.01927928 -3.96359710 -1.15834798
v 5.02402919 -4.37516970 -1.15834798
v 5.01927928 -4.30946965 -1.54468317
v 5.01927928 -4.37572422 -1.36888525
v 5.01927928 -4.37336770 -1.47026372
v 5.01927928 -4.36555957 -1.52729408
v 4.61506121 -4.20805492 -1.55577027
v 4.61506121 -4.10673265 -1.55417528
v 4.81894504 -3.90390319 -1.53838103
v 4.81884531 -3.90376478 -1.53830321
v 4.82644463 -3.90376478 -1.20203489
v 4.80224662 -3.99945019 -1.15834798
v 4.91788751 -3.96073228 -1.15834798
v 5.01927928 -4.37572422 -1.15834798
v 4.61506121 -4.30946965 -1.54468317
v 4.61506121 -4.37572422 -1.36888525
v 4.61506121 -4.37341394 -1.46897999
v 4.61506121 -4.37336770 -1.47026372
v 4.61506121 -4.36569798 -1.52655490
v 4.61506121 -4.36555957 -1.52729408
v 4.61506121 -4.03876856 -1.53678619
v 4.76824900 -3.90376478 -1.50422522
v 4.77574859 -3.90376478 -1.24323201
v 4.61506121 -4.04389712 -1.20592505
v 4.72070276 -4.07577694 -1.15834798
v 4.91788751 -4.37572422 -1.15834798
v 4.61506121 -4.37567799 -1.36756269
v 4.61506121 -4.01709962 -1.47038052
v 4.75924992 -3.90376478 -1.45345817
v 4.75934995 -3.90376478 -1.29392124
v 4.61506121 -4.02222818 -1.26742904
v 4.61506121 -4.04334259 -1.20685869
v 4.69590489 -4.09947875 -1.15834798
v 4.61506121 -4.10659395 -1.19363204
v 4.82614455 -4.36847032 -1.15834798
v 4.61506121 -4.36214053 -1.21456128
v 4.61506121 -4.36985649 -1.26672878
v 4.61506121 -4.36994866 -1.26750678
v 4.61506121 -4.01280270 -1.37024694
v 4.75275030 -3.90376478 -1.36888525
v 4.61506121 -4.01280270 -1.36888525
v 4.61506121 -4.20676122 -1.19234831
v 4.69515484 -4.12581419 -1.15834798
v 4.81759513 -4.36763868 -1.15834798
v 4.61506121 -4.36149383 -1.21405555
v 4.76134958 -4.34652397 -1.15834798
v 4.61506121 -4.20805492 -1.19238722
v 4.69795468 -4.20805492 -1.15834798
v 4.61506121 -4.30946965 -1.20222935
v 4.72665238 -4.30826842 -1.15834798
v 4.61506121 -4.30808348 -1.20203489
v 4.70035441 -4.21817333 -1.15834798
v 4.72530247 -4.30554231 -1.15834798
f 1 2 7
f 1 7 3
f 1 3 11
f 1 11 20
f 1 20 32
f 1 32 44
f 1 44 56
f 1 56 63
f 1 63 74
f 1 74 64
f 1 64 57
f 1 57 45
f 1 45 33
f 1 33 23
f 1 23 12
f 1 12 4
f 1 4 2
f 2 5 6
f 2 6 15
f 2 15 7
f 2 4 8
f 2 8 9
f 2 9 5
f 3 7 10
f 3 10 11
f 4 12 13
f 4 13 8
f 5 9 8
f 5 8 13
f 5 13 22
f 5 22 24
f 5 24 35
f 5 35 34
f 5 34 47
f 5 47 46
f 5 46 59
f 5 59 67
f 5 67 77
f 5 77 82
f 5 82 86
f 5 86 87
f 5 87 84
f 5 84 80
f 5 80 78
f 5 78 69
f 5 69 60
f 5 60 48
f 5 48 36
f 5 36 25
f 5 25 14
f 5 14 16
f 5 16 6
f 6 16 17
f 6 17 15
f 7 15 18
f 7 18 10
f 10 18 30
f 10 30 19
f 10 19 11
f 11 19 20
f 12 21 22
f 12 22 13
f 12 23 24
f 12 24 21
f 14 25 27
f 14 27 16
f 15 17 26
f 15 26 18
f 16 27 28
f 16 28 17
f 17 28 29
f 17 29 26
f 18 26 30
f 19 30 41
f 19 41 31
f 19 31 20
f 20 31 32
f 21 24 22
f 23 33 34
f 23 34 35
f 23 35 24
f 25 36 27
f 26 29 37
f 26 37 30
f 27 36 38
f 27 38 28
f 28 38 39
f 28 39 29
f 29 39 40
f 29 40 37
f 30 37 49
f 30 49 41
f 31 41 42
f 31 42 32
f 32 42 43
f 32 43 44
f 33 45 46
f 33 46 47
f 33 47 34
f 36 48 38
f 37 40 54
f 37 54 49
f 38 48 60
f 38 60 50
f 38 50 51
f 38 51 39
f 39 51 52
f 39 52 53
f 39 53 40
f 40 53 54
f 41 49 54
f 41 54 53
f 41 53 52
f 41 52 51
f 41 51 50
f 41 50 61
f 41 61 72
f 41 72 71
f 41 71 70
f 41 70 79
f 41 79 83
f 41 83 85
f 41 85 81
f 41 81 76
f 41 76 68
f 41 68 58
f 41 58 66
f 41 66 65
f 41 65 75
f 41 75 73
f 41 73 62
f 41 62 55
f 41 55 42
f 42 55 43
f 43 55 44
f 44 55 56
f 45 57 58
f 45 58 46
f 46 58 59
f 50 60 61
f 55 62 56
f 56 62 63
f 57 64 65
f 57 65 66
f 57 66 58
f 58 67 59
f 58 68 67
f 60 69 70
f 60 70 71
f 60 71 72
f 60 72 61
f 62 73 74
f 62 74 63
f 64 74 75
f 64 75 65
f 67 68 76
f 67 76 77
f 69 78 70
f 70 78 80
f 70 80 79
f 73 75 74
f 76 81 82
f 76 82 77
f 79 80 84
f 79 84 83
f 81 85 82
f 82 85 86
f 83 84 87
f 83 87 85
f 85 87 86

