# https://github.com/mikedh/trimesh
v -0.56775664 4.01423058 -1.36888887
v -0.56775664 4.01833560 -1.47028910
v -0.35991760 4.01423058 -1.36888887
v -0.35991760 4.02137901 -1.27250540
v -0.35991760 4.02180390 -1.26752823
v -0.56775664 4.02321938 -1.26752823
v -0.56775664 4.02038811 -1.47688588
v -0.35991760 4.01833560 -1.47028910
v -0.35991760 4.04165725 -1.19006583
v -0.56775664 4.04409929 -1.20673547
v -0.35991760 4.01936186 -1.47356777
v -0.56775664 4.03921551 -1.53677002
v -0.35991760 4.03921551 -1.53677002
v -0.35991760 4.04271916 -1.18706374
v -0.35991760 4.09081359 -1.15364551
v -0.35991760 4.09820983 -1.15222346
v -0.56775664 4.10670334 -1.19543803
v -0.56775664 4.04590400 -1.53850810
v -0.35991760 4.04254207 -1.53763899
v -0.35991760 4.20809450 -1.15289501
v -0.56775664 4.20809450 -1.19425297
v -0.56775664 4.10670334 -1.55415065
v -0.35991760 4.10670334 -1.55415065
v -0.35991760 4.30771631 -1.16837951
v -0.56775664 4.30948567 -1.20345680
v -0.56775664 4.11678942 -1.55430870
v -0.35991760 4.11172855 -1.55422968
v -0.35991760 4.36264067 -1.20780199
v -0.56775664 4.36214537 -1.21475423
v -0.56775664 4.35694307 -1.21360868
v -0.56775664 4.20809450 -1.55573068
v -0.35991760 4.20809450 -1.55573068
v -0.35991760 4.37042643 -1.26752823
v -0.56775664 4.36993113 -1.26752823
v -0.56775664 4.21814523 -1.55466408
v -0.35991760 4.21308436 -1.55521710
v -0.56775664 4.37573480 -1.36888887
v -0.56775664 4.37516879 -1.35881594
v -0.35991760 4.37573480 -1.36888887
v -0.56775664 4.30948567 -1.54470976
v -0.35991760 4.30948567 -1.54470976
v -0.56775664 4.37361158 -1.46021617
v -0.35991760 4.37336377 -1.47028910
v -0.56775664 4.36557801 -1.52728969
v -0.35991760 4.36557801 -1.52728969
v -0.56775664 4.37336377 -1.47028910
v -0.35991760 4.36596754 -1.52448502
v -0.56775664 4.36635677 -1.52164090
f 1 2 8
f 1 8 3
f 1 3 4
f 1 4 5
f 1 5 6
f 1 6 10
f 1 10 17
f 1 17 21
f 1 21 25
f 1 25 30
f 1 30 29
f 1 29 34
f 1 34 38
f 1 38 37
f 1 37 42
f 1 42 46
f 1 46 48
f 1 48 44
f 1 44 40
f 1 40 35
f 1 35 31
f 1 31 26
f 1 26 22
f 1 22 18
f 1 18 12
f 1 12 7
f 1 7 2
f 2 7 8
f 3 8 11
f 3 11 13
f 3 13 19
f 3 19 23
f 3 23 27
f 3 27 32
f 3 32 36
f 3 36 41
f 3 41 45
f 3 45 47
f 3 47 43
f 3 43 39
f 3 39 33
f 3 33 28
f 3 28 24
f 3 24 20
f 3 20 16
f 3 16 15
f 3 15 14
f 3 14 9
f 3 9 5
f 3 5 4
f 5 9 6
f 6 9 10
f 7 11 8
f 7 12 13
f 7 13 11
f 9 14 10
f 10 14 15
f 10 15 16
f 10 16 17
f 12 18 19
f 12 19 13
f 16 20 21
f 16 21 17
f 18 22 23
f 18 23 19
f 20 24 25
f 20 25 21
f 22 26 27
f 22 27 23
f 24 28 29
f 24 29 30
f 24 30 25
f 26 31 32
f 26 32 27
f 28 33 34
f 28 34 29
f 31 35 36
f 31 36 32
f 33 37 38
f 33 38 34
f 33 39 37
f 35 40 36
f 36 40 41
f 37 39 42
f 39 43 42
f 40 44 45
f 40 45 41
f 42 43 46
f 43 47 48
f 43 48 46
f 44 48 47
f 44 47 45

