# https://github.com/mikedh/trimesh
v 4.75050015 3.90747333 1.36889401
v 4.75050015 3.92099749 1.45928782
v 4.61378927 4.01754476 1.47030240
v 4.61378927 4.01318981 1.36889401
v 4.61378927 4.02267936 1.26753201
v 4.75050015 3.91632131 1.30559506
v 4.75050015 3.96441182 1.50501909
v 4.61378927 4.03895411 1.53676156
v 4.61378927 4.04408871 1.20623156
v 4.75050015 3.92177685 1.28658681
v 4.75050015 4.01250202 1.53848121
v 4.61378927 4.10671150 1.55414325
v 4.75050015 3.93988501 1.25159112
v 4.61378927 4.10666557 1.19424104
v 4.75050015 4.10625307 1.08981175
v 4.75050015 4.01502354 1.17541863
v 4.75050015 4.10671150 1.55442202
v 4.61378927 4.20807275 1.55576982
v 4.61378927 4.20798088 1.19289325
v 4.75050015 4.20807275 1.08098152
v 4.75050015 4.13279672 1.08511782
v 4.75050015 4.20807275 1.55576982
v 4.61378927 4.30947962 1.54470885
v 4.61378927 4.30938775 1.20265303
v 4.75050015 4.28293597 1.09538877
v 4.75050015 4.30947962 1.54470885
v 4.61378927 4.36559251 1.52728063
v 4.61378927 4.36210850 1.21464355
v 4.75050015 4.31388050 1.12169362
v 4.75050015 4.36559251 1.52728063
v 4.61378927 4.37338614 1.47020947
v 4.61378927 4.36994776 1.26748555
v 4.75050015 4.36440065 1.19405511
v 4.75050015 4.35032650 1.16988815
v 4.75050015 4.36829747 1.50738936
v 4.75050015 4.37334020 1.47025586
v 4.75050015 4.37421143 1.43484201
v 4.75050015 4.37577016 1.36889401
v 4.71509763 4.37577016 1.36889401
v 4.61378927 4.37572422 1.36880109
v 4.75050015 4.37146055 1.26753201
v 4.75050015 4.36944339 1.23286171
v 4.75050015 4.37489893 1.33348001
f 1 2 3
f 1 3 4
f 1 4 5
f 1 5 6
f 1 6 10
f 1 10 13
f 1 13 16
f 1 16 15
f 1 15 21
f 1 21 20
f 1 20 25
f 1 25 29
f 1 29 34
f 1 34 33
f 1 33 42
f 1 42 41
f 1 41 43
f 1 43 38
f 1 38 37
f 1 37 36
f 1 36 35
f 1 35 30
f 1 30 26
f 1 26 22
f 1 22 17
f 1 17 11
f 1 11 7
f 1 7 2
f 2 7 8
f 2 8 3
f 3 8 12
f 3 12 18
f 3 18 23
f 3 23 27
f 3 27 31
f 3 31 40
f 3 40 32
f 3 32 28
f 3 28 24
f 3 24 19
f 3 19 14
f 3 14 9
f 3 9 5
f 3 5 4
f 5 9 10
f 5 10 6
f 7 11 8
f 8 11 12
f 9 13 10
f 9 14 15
f 9 15 16
f 9 16 13
f 11 17 12
f 12 17 18
f 14 19 20
f 14 20 21
f 14 21 15
f 17 22 18
f 18 22 26
f 18 26 23
f 19 24 20
f 20 24 25
f 23 26 30
f 23 30 27
f 24 28 25
f 25 28 29
f 27 30 31
f 28 32 33
f 28 33 34
f 28 34 29
f 30 35 31
f 31 35 36
f 31 36 37
f 31 37 38
f 31 38 39
f 31 39 40
f 32 40 41
f 32 41 42
f 32 42 33
f 38 43 39
f 39 43 40
f 40 43 41

