# https://github.com/mikedh/trimesh
v -4.61305126 4.37577016 1.36887241
v -4.61305126 4.37336831 1.47026432
v -4.61305126 4.36990454 1.26716537
v -4.91789230 4.37577016 1.09606365
v -5.01927167 4.37577016 1.36887241
v -4.61370370 4.36556290 1.52728335
v -4.61305126 4.36560913 1.52692328
v -5.01927167 4.37336831 1.47026432
v -4.61305126 4.36182172 1.21460177
v -4.61370370 4.36214506 1.21464680
v -4.83136825 4.36787228 1.09606365
v -5.01927167 4.37577016 1.09606365
v -5.08145447 4.36796445 1.36887241
v -5.07969750 4.36676382 1.47026432
v -4.61305126 4.30949201 1.54469948
v -5.01927167 4.36556290 1.52728335
v -5.07533138 4.36376151 1.52521316
v -4.61305126 4.30949201 1.20272095
v -4.75026469 4.28316533 1.09606365
v -4.78449288 4.32999901 1.09606365
v -4.81360187 4.35600233 1.09606365
v -5.08145447 4.36796445 1.09606365
v -5.10072669 4.32755092 1.09606365
v -5.10930844 4.30949201 1.36887241
v -5.10433974 4.30949201 1.47026432
v -4.61305126 4.20871219 1.55568022
v -5.01927167 4.30949201 1.54469948
v -5.08466620 4.30949201 1.53281866
v -4.61305126 4.20806549 1.19291032
v -4.74409174 4.24940283 1.09606365
v -5.10930844 4.30949201 1.09606365
v -5.12577025 4.20806549 1.36887241
v -5.11919568 4.20806549 1.47026432
v -4.61305126 4.20806549 1.55572524
v -5.01927167 4.20806549 1.55572524
v -5.09134110 4.20806549 1.53835413
v -4.61305126 4.10631593 1.19430541
v -4.74208426 4.20806549 1.09606365
v -5.12577025 4.20806549 1.09606365
v -5.12577025 3.90392495 1.36887241
v -5.11919568 3.90392495 1.47026432
v -4.61305126 4.10737814 1.55419523
v -4.91789230 3.90392495 1.55572524
v -5.01927167 3.90392495 1.55572524
v -5.09134110 3.90392495 1.53835413
v -4.61305126 4.04396360 1.20654622
v -4.74961225 4.07398492 1.09606365
v -4.74750444 4.10525371 1.09606365
v -5.12210643 4.10673145 1.09606365
v -5.11342374 3.90392495 1.26752536
v -4.61305126 4.10673145 1.55415020
v -4.81892172 3.90392495 1.53835413
v -4.61305126 4.02271774 1.26752536
v -4.77576033 3.90392495 1.24317875
v -4.82650018 3.90392495 1.20204592
v -4.77786815 4.03966819 1.09606365
v -5.09460360 4.02604310 1.09606365
v -5.08556977 3.90392495 1.20348603
v -4.61305126 4.03897526 1.53677894
v -4.76823203 3.90392495 1.50424169
v -4.61305126 4.01324935 1.36887241
v -4.75934869 3.90392495 1.29385219
v -4.91789230 3.90392495 1.18665487
v -4.87979963 4.00807636 1.09606365
v -4.81194554 4.02267150 1.09606365
v -5.06614705 4.01514290 1.09606365
v -5.01927167 4.00151781 1.09606365
v -5.01927167 3.90392495 1.18809498
v -4.61305126 4.01759099 1.47026432
v -4.75919820 3.90392495 1.45352329
v -4.61305126 4.01324935 1.36954751
v -4.75272396 3.90392495 1.36882738
v -4.98082786 4.00133317 1.09606365
v -4.91789230 4.00133317 1.09606365
f 1 2 7
f 1 7 15
f 1 15 26
f 1 26 34
f 1 34 42
f 1 42 51
f 1 51 59
f 1 59 69
f 1 69 71
f 1 71 61
f 1 61 53
f 1 53 46
f 1 46 37
f 1 37 29
f 1 29 18
f 1 18 9
f 1 9 3
f 1 3 4
f 1 4 12
f 1 12 5
f 1 5 8
f 1 8 2
f 2 6 7
f 2 8 16
f 2 16 6
f 3 9 10
f 3 10 11
f 3 11 4
f 4 11 21
f 4 21 20
f 4 20 19
f 4 19 30
f 4 30 38
f 4 38 48
f 4 48 47
f 4 47 56
f 4 56 65
f 4 65 64
f 4 64 74
f 4 74 73
f 4 73 67
f 4 67 66
f 4 66 57
f 4 57 49
f 4 49 39
f 4 39 31
f 4 31 23
f 4 23 22
f 4 22 12
f 5 12 22
f 5 22 13
f 5 13 14
f 5 14 8
f 6 15 7
f 6 16 27
f 6 27 15
f 8 14 17
f 8 17 16
f 9 18 19
f 9 19 20
f 9 20 21
f 9 21 11
f 9 11 10
f 13 22 23
f 13 23 24
f 13 24 14
f 14 24 25
f 14 25 17
f 15 27 26
f 16 17 27
f 17 25 28
f 17 28 27
f 18 29 30
f 18 30 19
f 23 31 24
f 24 31 39
f 24 39 32
f 24 32 25
f 25 32 33
f 25 33 28
f 26 27 35
f 26 35 34
f 27 28 35
f 28 33 36
f 28 36 35
f 29 37 38
f 29 38 30
f 32 39 40
f 32 40 41
f 32 41 33
f 33 41 45
f 33 45 36
f 34 35 44
f 34 44 43
f 34 43 42
f 35 36 45
f 35 45 44
f 37 46 47
f 37 47 48
f 37 48 38
f 39 49 40
f 40 49 50
f 40 50 58
f 40 58 68
f 40 68 63
f 40 63 55
f 40 55 54
f 40 54 62
f 40 62 72
f 40 72 70
f 40 70 60
f 40 60 52
f 40 52 43
f 40 43 44
f 40 44 45
f 40 45 41
f 42 43 51
f 43 52 51
f 46 53 54
f 46 54 55
f 46 55 56
f 46 56 47
f 49 57 50
f 50 57 58
f 51 52 59
f 52 60 59
f 53 61 62
f 53 62 54
f 55 63 64
f 55 64 65
f 55 65 56
f 57 66 58
f 58 66 67
f 58 67 68
f 59 60 69
f 60 70 69
f 61 71 72
f 61 72 62
f 63 68 67
f 63 67 73
f 63 73 74
f 63 74 64
f 69 70 72
f 69 72 71

