# https://github.com/mikedh/trimesh
v 4.75055001 3.90745912 -1.36890111
v 4.75055001 3.92174028 -1.28657910
v 4.75055001 3.91619499 -1.44049035
v 4.76425126 3.59973363 -1.36890111
v 4.76502246 3.59973363 -1.30970734
v 4.75055001 4.00894548 -1.18662163
v 4.75055001 3.92098056 -1.45928208
v 4.76502246 3.59973363 -1.43983987
v 4.77883401 3.59973363 -1.25900586
v 4.75055001 4.35419672 -1.18662163
v 4.82952461 3.59973363 -1.20552177
v 4.91790262 3.59973363 -1.19424670
v 4.81743980 3.93890771 -1.18662163
v 4.75055001 3.93214699 -1.49502245
v 4.76902625 3.59973363 -1.49057746
v 4.77027523 4.36536315 -1.18662163
v 4.75055001 4.36437557 -1.19406599
v 5.01928381 3.59973363 -1.19424670
v 4.91790262 3.90411684 -1.18662163
v 4.85226180 3.92622184 -1.18662163
v 4.75055001 3.97704117 -1.52458323
v 4.81971715 3.59973363 -1.53835171
v 4.75055001 4.01243976 -1.53849632
v 4.75055001 4.06394266 -1.54919313
v 4.79646561 4.36726245 -1.18662163
v 4.75055001 4.37144030 -1.26753443
v 5.08554896 3.59973363 -1.20555789
v 5.09091233 3.95584759 -1.18662163
v 5.01928381 3.90700341 -1.18662163
v 4.91790262 3.59973363 -1.55573416
v 4.75055001 4.10663384 -1.55443321
v 4.91790262 4.37577016 -1.18662163
v 4.75055001 4.37577016 -1.36890111
v 5.11342893 3.59973363 -1.26753443
v 5.12316325 4.10663384 -1.18662163
v 4.91790262 3.70114413 -1.55577027
v 5.01924724 3.59973363 -1.55577027
v 4.75055001 4.17264545 -1.55548107
v 4.75055001 4.20804404 -1.55577027
v 5.01928381 4.37577016 -1.18662163
v 4.75055001 4.37493459 -1.40428021
v 5.01928381 4.37577016 -1.36890111
v 5.12573433 3.59973363 -1.36893738
v 5.12577120 4.20804404 -1.18662163
v 5.09131606 3.59973363 -1.53838783
v 5.01928381 3.70114413 -1.55577027
v 4.75055001 4.30945454 -1.54467591
v 5.01928381 4.20804404 -1.55577027
v 5.08143487 4.36794601 -1.18662163
v 5.01928381 4.37333930 -1.47026795
v 4.75055001 4.37333930 -1.47026795
v 5.08143487 4.36794601 -1.36890111
v 5.07974560 4.36673058 -1.47026795
v 5.11919603 3.59973363 -1.47030406
v 5.12577120 3.70114413 -1.36890111
v 5.12577120 4.20804404 -1.36890111
v 5.10931483 4.30945454 -1.18662163
v 5.09135293 3.70114413 -1.53835171
v 5.09135293 4.20804404 -1.53835171
v 5.01928381 4.30945454 -1.54467591
v 4.75055001 4.34599271 -1.53336473
v 5.08466776 4.30945454 -1.53282259
v 5.10369520 4.32130484 -1.18662163
v 5.07533777 4.36376816 -1.52519759
v 5.01928381 4.36559100 -1.52729362
v 4.75055001 4.36559100 -1.52729362
v 5.10931483 4.30945454 -1.36890111
v 5.10435580 4.30945454 -1.47026795
v 5.11923289 3.70114413 -1.47026795
v 5.11923289 4.20804404 -1.47026795
f 1 2 6
f 1 6 10
f 1 10 17
f 1 17 26
f 1 26 33
f 1 33 41
f 1 41 51
f 1 51 66
f 1 66 61
f 1 61 47
f 1 47 39
f 1 39 38
f 1 38 31
f 1 31 24
f 1 24 23
f 1 23 21
f 1 21 14
f 1 14 7
f 1 7 3
f 1 3 4
f 1 4 2
f 2 4 5
f 2 5 6
f 3 7 8
f 3 8 4
f 4 8 15
f 4 15 22
f 4 22 30
f 4 30 37
f 4 37 45
f 4 45 54
f 4 54 43
f 4 43 34
f 4 34 27
f 4 27 18
f 4 18 12
f 4 12 11
f 4 11 9
f 4 9 5
f 5 9 6
f 6 9 11
f 6 11 12
f 6 12 13
f 6 13 20
f 6 20 19
f 6 19 29
f 6 29 28
f 6 28 35
f 6 35 44
f 6 44 57
f 6 57 63
f 6 63 49
f 6 49 40
f 6 40 32
f 6 32 25
f 6 25 16
f 6 16 10
f 7 14 8
f 8 14 15
f 10 16 17
f 12 18 19
f 12 19 20
f 12 20 13
f 14 21 15
f 15 21 23
f 15 23 24
f 15 24 22
f 16 25 26
f 16 26 17
f 18 27 28
f 18 28 29
f 18 29 19
f 22 24 31
f 22 31 30
f 25 32 26
f 26 32 33
f 27 34 35
f 27 35 28
f 30 36 37
f 30 31 38
f 30 38 39
f 30 39 36
f 32 40 42
f 32 42 33
f 33 42 41
f 34 43 35
f 35 43 44
f 36 39 48
f 36 48 46
f 36 46 37
f 37 46 45
f 39 47 60
f 39 60 48
f 40 49 52
f 40 52 42
f 41 42 50
f 41 50 51
f 42 52 53
f 42 53 50
f 43 54 69
f 43 69 55
f 43 55 44
f 44 56 67
f 44 67 57
f 44 55 56
f 45 58 69
f 45 69 54
f 45 46 48
f 45 48 59
f 45 59 58
f 47 61 60
f 48 60 62
f 48 62 59
f 49 63 52
f 50 53 64
f 50 64 65
f 50 65 66
f 50 66 51
f 52 63 67
f 52 67 53
f 53 67 68
f 53 68 64
f 55 69 70
f 55 70 56
f 56 70 68
f 56 68 67
f 57 67 63
f 58 59 70
f 58 70 69
f 59 62 70
f 60 61 65
f 60 65 64
f 60 64 62
f 61 66 65
f 62 64 68
f 62 68 70

