# https://github.com/mikedh/trimesh
v -0.36017741 -4.20807577 -1.55572207
v 0.00083379 -4.25956235 -1.55014052
v -0.36017741 -4.30418425 -1.54528091
v -0.36017741 -4.10672993 -1.55418238
v 0.45903411 -4.20807577 -1.55572207
v 0.00091398 -4.25956235 -1.55014052
v 0.00083379 -4.30945696 -1.54470356
v -0.36017741 -4.30945696 -1.54470356
v -0.36017741 -4.03924875 -1.53676443
v 0.45903411 -4.04105346 -1.53724553
v 0.45903411 -4.10672993 -1.55418238
v 0.45903411 -4.30945696 -1.54465536
v 0.45903411 -4.31097851 -1.54422232
v 0.45903411 -4.36554386 -1.52728561
v -0.36017741 -4.36554386 -1.52728561
v -0.36017741 -4.03815178 -1.53330006
v 0.45903411 -4.03924875 -1.53676443
v 0.45903411 -4.36575600 -1.52574593
v -0.36017741 -4.37293949 -1.47320348
v -0.36017741 -4.01837096 -1.47026840
v 0.00083379 -4.02895143 -1.50404571
v 0.45903411 -4.01890161 -1.47204864
v 0.45903411 -4.37332872 -1.47026840
v -0.36017741 -4.37332872 -1.47026840
v -0.36017741 -4.01423058 -1.36884037
v 0.45903411 -4.01837096 -1.47026840
v 0.45903411 -4.37339943 -1.46752583
v -0.36017741 -4.37559337 -1.37408498
v -0.36017741 -4.02187401 -1.26750844
v -0.15208676 -4.01423058 -1.06470051
v 0.45903411 -4.01423058 -1.36884037
v 0.45903411 -4.37569944 -1.36884037
v -0.36017741 -4.37569944 -1.36884037
v -0.36017741 -4.04275180 -1.18715516
v -0.25320517 -4.03517938 -1.06426746
v -0.15256789 -4.01433695 -1.06426746
v -0.05112873 -4.01423058 -1.06426746
v 0.15199018 -4.01423058 -1.06465238
v 0.45903411 -4.02300634 -1.27029922
v 0.45903411 -4.37555802 -1.36614585
v 0.15207037 -4.37569944 -1.06465238
v -0.15208676 -4.37569944 -1.06426746
v -0.36017741 -4.37071020 -1.27284929
v -0.36017741 -4.09827269 -1.15236745
v -0.30388466 -4.05991409 -1.06426746
v -0.30388466 -4.05966659 -1.06470051
v 0.00083379 -4.01423058 -1.06426746
v 0.25326898 -4.03517938 -1.06465238
v 0.45903411 -4.02325414 -1.26755664
v 0.45903411 -4.36989638 -1.26755664
v 0.23169811 -4.36794994 -1.06465238
v 0.00083379 -4.37569944 -1.06426746
v -0.23131355 -4.36798530 -1.06426746
v -0.36017741 -4.37039168 -1.26750844
v -0.36017741 -4.11055180 -1.15222308
v -0.31021958 -4.20807577 -1.06426746
v -0.30725259 -4.11033936 -1.06426746
v 0.31028340 -4.20811112 -1.06465238
v 0.30723621 -4.11044543 -1.06465238
v 0.30386827 -4.05966659 -1.06465238
v 0.45903411 -4.04413193 -1.20620897
v 0.45903411 -4.04356591 -1.20784490
v 0.45903411 -4.36211122 -1.21467739
v 0.28229742 -4.32265595 -1.06465238
v 0.30715603 -4.27187682 -1.06465238
v -0.23187488 -4.36766678 -1.06426746
v -0.36017741 -4.36260682 -1.20784490
v -0.36017741 -4.36303140 -1.21058755
v -0.36017741 -4.20754481 -1.15347409
v -0.30717240 -4.27159366 -1.06426746
v 0.45903411 -4.20807577 -1.19297718
v 0.45903411 -4.10672993 -1.19427624
v 0.45903411 -4.10506695 -1.19456499
v 0.45903411 -4.30945696 -1.20274467
v -0.28239398 -4.32254958 -1.06426746
v -0.36017741 -4.31409234 -1.16997783
v -0.36017741 -4.20853571 -1.15361847
v -0.30701204 -4.27212462 -1.06426746
v -0.36017741 -4.30768760 -1.16848619
f 1 2 3
f 1 3 8
f 1 8 15
f 1 15 19
f 1 19 24
f 1 24 28
f 1 28 33
f 1 33 43
f 1 43 54
f 1 54 68
f 1 68 67
f 1 67 76
f 1 76 79
f 1 79 77
f 1 77 69
f 1 69 55
f 1 55 44
f 1 44 34
f 1 34 29
f 1 29 25
f 1 25 20
f 1 20 16
f 1 16 9
f 1 9 4
f 1 4 11
f 1 11 5
f 1 5 6
f 1 6 2
f 2 6 3
f 3 6 7
f 3 7 8
f 4 9 10
f 4 10 11
f 5 11 10
f 5 10 17
f 5 17 22
f 5 22 26
f 5 26 31
f 5 31 39
f 5 39 49
f 5 49 62
f 5 62 61
f 5 61 73
f 5 73 72
f 5 72 71
f 5 71 74
f 5 74 63
f 5 63 50
f 5 50 40
f 5 40 32
f 5 32 27
f 5 27 23
f 5 23 18
f 5 18 14
f 5 14 13
f 5 13 12
f 5 12 7
f 5 7 6
f 7 12 13
f 7 13 14
f 7 14 15
f 7 15 8
f 9 16 17
f 9 17 10
f 14 18 15
f 15 18 19
f 16 20 21
f 16 21 17
f 17 21 22
f 18 23 19
f 19 23 24
f 20 25 31
f 20 31 26
f 20 26 22
f 20 22 21
f 23 27 24
f 24 27 28
f 25 29 30
f 25 30 37
f 25 37 47
f 25 47 38
f 25 38 31
f 27 32 28
f 28 32 33
f 29 34 35
f 29 35 36
f 29 36 30
f 30 36 37
f 31 38 39
f 32 40 41
f 32 41 52
f 32 52 42
f 32 42 33
f 33 42 43
f 34 44 45
f 34 45 46
f 34 46 35
f 35 46 45
f 35 45 57
f 35 57 56
f 35 56 70
f 35 70 78
f 35 78 75
f 35 75 66
f 35 66 53
f 35 53 42
f 35 42 52
f 35 52 47
f 35 47 37
f 35 37 36
f 38 47 48
f 38 48 49
f 38 49 39
f 40 50 41
f 41 51 52
f 41 50 51
f 42 53 54
f 42 54 43
f 44 55 56
f 44 56 57
f 44 57 45
f 47 52 58
f 47 58 59
f 47 59 60
f 47 60 48
f 48 60 61
f 48 61 62
f 48 62 49
f 50 63 51
f 51 64 52
f 51 63 64
f 52 64 65
f 52 65 58
f 53 66 67
f 53 67 68
f 53 68 54
f 55 69 56
f 56 69 70
f 58 65 71
f 58 71 72
f 58 72 59
f 59 72 60
f 60 72 73
f 60 73 61
f 63 74 65
f 63 65 64
f 65 74 71
f 66 75 67
f 67 75 76
f 69 77 70
f 70 77 79
f 70 79 76
f 70 76 78
f 75 78 76

