# https://github.com/mikedh/trimesh
v -0.15210022 4.01423058 -1.06450793
v -0.25303486 4.03511018 -1.06450793
v 0.00081410 4.01423058 -1.06450793
v -0.15210022 4.01423058 1.10869497
v -0.25819667 4.03429636 1.10869497
v -0.30392959 4.05959981 -1.06450793
v 0.00081410 4.37573480 -1.06450793
v 0.00081410 4.01423058 1.10869497
v -0.30399536 4.05722878 1.10869497
v -0.30731600 4.11049015 -1.06450793
v -0.32858788 4.10319969 1.10869497
v -0.33351953 4.15876137 1.10869497
v -0.15226462 4.37573480 -1.06450793
v 0.00081410 4.37573480 1.10869497
v -0.31030788 4.20809450 -1.06450793
v -0.33506481 4.20809450 1.10869497
v -0.23173009 4.36798469 -1.06450793
v -0.19520293 4.37233752 1.10869497
v -0.15210022 4.37573480 1.10869497
v -0.30718448 4.27190190 -1.06450793
v -0.32480696 4.28772093 1.10869497
v -0.28246044 4.32250909 -1.06450793
v -0.31103119 4.31589100 1.10869497
v -0.24142902 4.36780761 1.10869497
f 1 2 6
f 1 6 10
f 1 10 15
f 1 15 20
f 1 20 22
f 1 22 17
f 1 17 13
f 1 13 7
f 1 7 3
f 1 3 8
f 1 8 4
f 1 4 5
f 1 5 2
f 2 5 6
f 3 7 14
f 3 14 8
f 4 8 14
f 4 14 19
f 4 19 18
f 4 18 24
f 4 24 23
f 4 23 21
f 4 21 16
f 4 16 12
f 4 12 11
f 4 11 9
f 4 9 5
f 5 9 6
f 6 9 11
f 6 11 12
f 6 12 10
f 7 13 19
f 7 19 14
f 10 12 16
f 10 16 15
f 13 17 18
f 13 18 19
f 15 16 20
f 16 21 20
f 17 22 23
f 17 23 24
f 17 24 18
f 20 21 22
f 21 23 22

