# https://github.com/mikedh/trimesh
v 4.91792317 3.98014533 1.14853546
v 5.01925782 3.98281734 1.14853546
v 4.80380685 4.00307110 1.14853546
v 4.91795974 4.01279122 -1.05306356
v 5.01925782 4.01279122 -1.05306356
v 5.09565378 4.01217172 1.14853546
v 5.02785226 4.01519246 -1.05306356
v 5.09392764 4.03443930 -1.05306356
v 4.79278820 4.01372077 1.14853546
v 4.76608619 4.05992074 -1.05306356
v 4.81677195 4.03443930 -1.05306356
v 5.10130967 4.02692642 1.14853546
v 5.12180458 4.10674051 -1.05306356
v 4.75055001 4.06375470 1.14853546
v 4.76311138 4.10480434 -1.05306356
v 5.12257578 4.10670183 1.14853546
v 5.12529373 4.19643005 -1.05306356
v 4.75055001 4.32213467 1.14853546
v 4.75055001 4.07134494 1.12655398
v 4.76020969 4.20808665 -1.05306356
v 5.12323699 4.12416723 1.14853546
v 5.12573433 4.20808665 -1.05306356
v 4.75055001 4.31384725 1.12138190
v 4.77053058 4.34335666 1.14853546
v 4.78760947 4.32178624 -1.05306356
v 4.76307451 4.27105515 -1.05306356
v 4.76032000 4.21459262 -1.05306356
v 4.75055001 4.10623705 1.08970266
v 4.75055001 4.13284205 1.08496151
v 4.75055001 4.20808665 1.08086691
v 4.75055001 4.28290514 1.09530574
v 5.12577120 4.20808665 1.14853546
v 5.12577120 4.20808665 -0.00010616
v 5.10931665 4.30943248 -1.05306356
v 4.81974707 4.36767645 1.14853546
v 4.83829493 4.36794752 -1.05306356
v 4.79341253 4.32782743 -1.05306356
v 5.10931665 4.30943248 -0.00010616
v 5.10927978 4.30943248 1.14853546
v 5.08463512 4.36124785 -1.05306356
v 5.10450509 4.31954002 1.14853546
v 4.83568728 4.36922551 1.14853546
v 4.90877752 4.37484060 -1.05306356
v 5.08140284 4.36794752 -1.05306356
v 5.08140284 4.36794752 1.14853546
v 4.91792317 4.37577016 1.14853546
v 4.91792317 4.37577016 -0.00010616
v 4.91795974 4.37573148 -1.05306356
v 5.07427767 4.36887708 -1.05306356
v 5.01925782 4.37577016 1.14853546
v 5.01925782 4.37577016 -0.00010616
v 5.01925782 4.37573148 -1.05306356
f 1 2 6
f 1 6 12
f 1 12 16
f 1 16 21
f 1 21 32
f 1 32 39
f 1 39 41
f 1 41 45
f 1 45 50
f 1 50 46
f 1 46 42
f 1 42 35
f 1 35 24
f 1 24 18
f 1 18 14
f 1 14 9
f 1 9 3
f 1 3 4
f 1 4 5
f 1 5 2
f 2 5 7
f 2 7 8
f 2 8 6
f 3 9 10
f 3 10 11
f 3 11 4
f 4 11 10
f 4 10 15
f 4 15 20
f 4 20 27
f 4 27 26
f 4 26 25
f 4 25 37
f 4 37 36
f 4 36 43
f 4 43 48
f 4 48 52
f 4 52 49
f 4 49 44
f 4 44 40
f 4 40 34
f 4 34 22
f 4 22 17
f 4 17 13
f 4 13 8
f 4 8 7
f 4 7 5
f 6 8 13
f 6 13 12
f 9 14 10
f 10 14 15
f 12 13 16
f 13 17 16
f 14 18 23
f 14 23 31
f 14 31 30
f 14 30 29
f 14 29 28
f 14 28 19
f 14 19 20
f 14 20 15
f 16 17 21
f 17 22 21
f 18 24 25
f 18 25 26
f 18 26 27
f 18 27 23
f 19 28 20
f 20 28 29
f 20 29 30
f 20 30 31
f 20 31 23
f 20 23 27
f 21 22 33
f 21 33 32
f 22 34 33
f 24 35 36
f 24 36 37
f 24 37 25
f 32 38 39
f 32 33 34
f 32 34 38
f 34 40 41
f 34 41 38
f 35 42 43
f 35 43 36
f 38 41 39
f 40 44 45
f 40 45 41
f 42 46 47
f 42 47 48
f 42 48 43
f 44 49 45
f 45 49 50
f 46 50 51
f 46 51 47
f 47 51 52
f 47 52 48
f 49 52 51
f 49 51 50

