# https://github.com/mikedh/trimesh
v 0.00081412 4.01423058 -1.06359318
v 0.00081412 4.37569944 -1.06359318
v 0.15212035 4.01423058 -1.06359318
v 0.00081412 4.01423058 1.36878386
v 0.15212035 4.37569944 -1.06359318
v 0.00081412 4.37569944 1.36878386
v 0.25320346 4.03517938 -1.06359318
v 0.31064463 4.01423058 1.36878386
v 0.31064463 4.01656625 1.42596501
v 0.00081412 4.01837096 1.47006880
v 0.23103371 4.36798530 -1.06359318
v 0.31064463 4.37569944 1.36878386
v 0.00081412 4.37332872 1.47006880
v 0.31064463 4.37467349 1.41288780
v 0.30348722 4.05945415 -1.06359318
v 0.30391183 4.06009118 -1.06359318
v 0.31064463 4.01557535 1.32442366
v 0.31064463 4.01837096 1.47006880
v 0.31064463 4.03011911 1.50776211
v 0.00081412 4.02895143 1.50391592
v 0.23212552 4.36749000 -1.06359318
v 0.31064463 4.37170079 1.26724251
v 0.28240931 4.32254958 -1.06359318
v 0.00081412 4.36950685 1.49827468
v 0.31064463 4.37332872 1.47006880
v 0.30727823 4.11037472 -1.06359318
v 0.31064463 4.01982180 1.26724251
v 0.31064463 4.03924875 1.53673739
v 0.00081412 4.03924875 1.53673739
v 0.31064463 4.36483612 1.19057367
v 0.31028069 4.20807577 -1.06359318
v 0.30715692 4.27134586 -1.06359318
v 0.30697494 4.27226604 -1.06359318
v 0.00081412 4.36554386 1.52724995
v 0.31064463 4.36554386 1.52724995
v 0.31064463 4.02739422 1.21339480
v 0.31064463 4.10672993 1.55391736
v 0.00081412 4.10672993 1.55391736
v 0.31064463 4.27499064 1.07339082
v 0.31064463 4.26773674 1.07031379
v 0.31064463 4.20807577 1.06518545
v 0.31064463 4.10924239 1.07159593
v 0.31064463 4.06550532 1.07749350
v 0.31064463 4.03818713 1.17159873
v 0.00081412 4.33794252 1.53571173
v 0.31064463 4.30945696 1.54442993
v 0.31064463 4.16391381 1.55494301
v 0.00081412 4.15825217 1.55494301
v 0.00081412 4.30945696 1.54442993
v 0.31064463 4.26522428 1.54930192
v 0.31064463 4.20807577 1.55545584
v 0.00081412 4.20807577 1.55545584
f 1 2 5
f 1 5 11
f 1 11 21
f 1 21 23
f 1 23 33
f 1 33 32
f 1 32 31
f 1 31 26
f 1 26 16
f 1 16 15
f 1 15 7
f 1 7 3
f 1 3 8
f 1 8 4
f 1 4 10
f 1 10 20
f 1 20 29
f 1 29 38
f 1 38 48
f 1 48 52
f 1 52 49
f 1 49 45
f 1 45 34
f 1 34 24
f 1 24 13
f 1 13 6
f 1 6 2
f 2 6 12
f 2 12 5
f 3 7 8
f 4 8 9
f 4 9 10
f 5 12 11
f 6 13 14
f 6 14 12
f 7 15 8
f 8 15 16
f 8 16 17
f 8 17 27
f 8 27 36
f 8 36 44
f 8 44 43
f 8 43 42
f 8 42 41
f 8 41 40
f 8 40 39
f 8 39 30
f 8 30 22
f 8 22 12
f 8 12 14
f 8 14 25
f 8 25 35
f 8 35 46
f 8 46 50
f 8 50 51
f 8 51 47
f 8 47 37
f 8 37 28
f 8 28 19
f 8 19 18
f 8 18 9
f 9 18 10
f 10 18 19
f 10 19 20
f 11 12 21
f 12 22 23
f 12 23 21
f 13 24 25
f 13 25 14
f 16 26 17
f 17 26 27
f 19 28 29
f 19 29 20
f 22 30 31
f 22 31 32
f 22 32 33
f 22 33 23
f 24 34 35
f 24 35 25
f 26 31 27
f 27 31 36
f 28 37 38
f 28 38 29
f 30 39 31
f 31 39 40
f 31 40 41
f 31 41 42
f 31 42 43
f 31 43 44
f 31 44 36
f 34 45 35
f 35 45 46
f 37 47 48
f 37 48 38
f 45 49 46
f 46 49 50
f 47 51 48
f 48 51 52
f 49 52 50
f 50 52 51

