# https://github.com/mikedh/trimesh
v 0.31067497 4.01423058 1.36886878
v 0.31067497 4.01557535 1.32465197
v 0.43675326 4.01423058 1.36886878
v 0.43675326 4.01752179 1.45072526
v 0.31067497 4.01653089 1.42604827
v 0.31067497 4.01978674 1.26752053
v 0.43675326 4.01568142 1.34932896
v 0.43675326 4.01833560 1.47026508
v 0.31067497 4.01833560 1.47026508
v 0.43675326 4.02293623 1.26752053
v 0.31067497 4.02736007 1.21360581
v 0.43675326 4.03518119 1.52398790
v 0.31067497 4.03008497 1.50776060
v 0.31067497 4.03815389 1.17159737
v 0.43675326 4.02697054 1.25182147
v 0.43675326 4.03921551 1.53675839
v 0.31067497 4.03921551 1.53675839
v 0.31067497 4.06547449 1.07754661
v 0.43675326 4.04381613 1.20232356
v 0.43675326 4.10670334 1.55418586
v 0.31067497 4.07725921 1.54660030
v 0.31067497 4.10921610 1.07164141
v 0.43675326 4.10500470 1.18571225
v 0.43675326 4.05358370 1.19555415
v 0.43675326 4.18859473 1.55543408
v 0.31067497 4.10670334 1.55418586
v 0.31067497 4.20809450 1.06530414
v 0.43675326 4.20809450 1.18489602
v 0.43675326 4.20809450 1.55572222
v 0.31067497 4.20809450 1.55572222
v 0.31067497 4.26776121 1.07053719
v 0.43675326 4.30913179 1.19574620
v 0.43675326 4.28995053 1.54684039
v 0.31067497 4.26524876 1.54952887
v 0.31067497 4.27501633 1.07336974
v 0.43675326 4.36225144 1.21326969
v 0.31067497 4.30948567 1.54467999
v 0.43675326 4.30948567 1.54467999
v 0.31067497 4.36487026 1.19075325
v 0.43675326 4.37003721 1.26752053
v 0.43675326 4.35478418 1.53066114
v 0.31067497 4.34112404 1.53488598
v 0.31067497 4.37173585 1.26752053
v 0.43675326 4.37573480 1.36886878
v 0.43675326 4.36557801 1.52730057
v 0.31067497 4.36557801 1.52730057
v 0.31067497 4.37573480 1.36886878
v 0.43675326 4.37531022 1.38840875
v 0.43675326 4.37187758 1.48125926
v 0.31067497 4.37336377 1.47026508
v 0.31067497 4.37470855 1.41308574
v 0.43675326 4.37336377 1.47026508
f 1 2 3
f 1 3 4
f 1 4 5
f 1 5 9
f 1 9 13
f 1 13 17
f 1 17 21
f 1 21 26
f 1 26 30
f 1 30 34
f 1 34 37
f 1 37 42
f 1 42 46
f 1 46 50
f 1 50 51
f 1 51 47
f 1 47 43
f 1 43 39
f 1 39 35
f 1 35 31
f 1 31 27
f 1 27 22
f 1 22 18
f 1 18 14
f 1 14 11
f 1 11 6
f 1 6 2
f 2 6 3
f 3 6 7
f 3 7 10
f 3 10 15
f 3 15 19
f 3 19 24
f 3 24 23
f 3 23 28
f 3 28 32
f 3 32 36
f 3 36 40
f 3 40 44
f 3 44 48
f 3 48 52
f 3 52 49
f 3 49 45
f 3 45 41
f 3 41 38
f 3 38 33
f 3 33 29
f 3 29 25
f 3 25 20
f 3 20 16
f 3 16 12
f 3 12 8
f 3 8 4
f 4 8 9
f 4 9 5
f 6 10 7
f 6 11 10
f 8 12 13
f 8 13 9
f 10 11 14
f 10 14 15
f 12 16 17
f 12 17 13
f 14 18 15
f 15 18 19
f 16 20 21
f 16 21 17
f 18 22 23
f 18 23 24
f 18 24 19
f 20 25 26
f 20 26 21
f 22 27 23
f 23 27 28
f 25 29 30
f 25 30 26
f 27 31 28
f 28 31 32
f 29 33 34
f 29 34 30
f 31 35 36
f 31 36 32
f 33 37 34
f 33 38 37
f 35 39 36
f 36 39 40
f 37 38 41
f 37 41 42
f 39 43 40
f 40 43 44
f 41 45 46
f 41 46 42
f 43 47 44
f 44 47 48
f 45 49 46
f 46 49 50
f 47 51 48
f 48 51 50
f 48 50 52
f 49 52 50

