# https://github.com/mikedh/trimesh
v -4.91792705 0.52057441 1.55577012
v -5.01924750 0.52057441 1.55577012
v -4.91792705 0.38323859 1.55577012
v -4.81975639 0.52057441 1.53836713
v -5.09133626 0.52057441 1.53836713
v -5.01924750 0.38323859 1.55577012
v -4.91792705 -0.47377186 1.55573204
v -4.83663734 -0.47377186 1.54134390
v -4.81975639 0.38323859 1.53836713
v -4.78758706 0.52057441 1.50806446
v -5.11922348 0.52057441 1.47028140
v -5.09133626 0.38323859 1.53836713
v -5.01924750 -0.47377186 1.55573204
v -4.81972103 -0.47377186 1.53832890
v -4.76904313 -0.47377186 1.49054679
v -4.76904313 0.38323859 1.49054679
v -4.76907848 0.52057441 1.49054679
v -5.12577025 0.52057441 1.36891607
v -5.11922348 0.38323859 1.47028140
v -5.09133626 -0.47377186 1.53832890
v -4.76571656 -0.47377186 1.44856577
v -4.76791050 0.38323859 1.47631141
v -4.76653037 0.52057441 1.45841221
v -5.12577025 0.38323859 1.36891607
v -5.11341951 0.52057441 1.26755090
v -5.12577025 0.05036231 1.16591843
v -5.12577025 -0.47377186 1.36887800
v -5.11918782 -0.47377186 1.47024332
v -4.76504417 -0.47377186 1.43982597
v -4.76504417 0.38323859 1.43982597
v -4.76507953 0.52057441 1.43986420
v -5.08553229 0.52057441 1.20557148
v -5.10000686 0.15810911 1.16591843
v -5.12569953 -0.05076590 1.16591843
v -5.12577025 -0.05066857 1.16614742
v -5.11341951 -0.47377186 1.26755090
v -4.76437149 -0.47377186 1.38109063
v -4.76479637 0.38323859 1.41994226
v -4.76423006 0.52057441 1.36891607
v -5.06129046 0.52057441 1.20141154
v -5.09919275 0.16141839 1.16591843
v -5.09919275 -0.16143267 1.16591843
v -5.08553229 -0.47377186 1.20557148
v -4.76426542 -0.47377186 1.36887800
v -4.76423006 0.38323859 1.36891607
v -4.76507953 0.52057441 1.30972275
v -4.76426542 0.05065430 1.16591843
v -5.01924750 0.52057441 1.19423658
v -5.05541578 0.22410037 1.16591843
v -5.01924750 -0.24611172 1.16591843
v -5.01924750 -0.47377186 1.19427481
v -4.76490244 -0.47377186 1.31995086
v -4.76426542 -0.05066857 1.16591843
v -4.77884605 0.52057441 1.25904016
v -4.76504417 0.10662035 1.16591843
v -4.91792705 0.52057441 1.19423658
v -4.91792705 0.25193739 1.16591843
v -5.00841832 0.24697345 1.16591843
v -5.01924750 0.24609746 1.16591843
v -4.91792705 -0.25195167 1.16591843
v -4.91792705 -0.47377186 1.19427481
v -4.76504417 -0.47377186 1.30972275
v -4.76504417 -0.10663461 1.16591843
v -4.82955931 0.52057441 1.20557148
v -4.81140430 0.17553157 1.16591843
v -4.86385187 -0.22849458 1.16591843
v -4.90267433 -0.47377186 1.19622117
v -4.77881069 -0.47377186 1.25904016
v -4.81140430 -0.17554585 1.16591843
v -4.82078264 -0.47377186 1.21476919
v -4.82952395 -0.47377186 1.20557148
f 1 2 6
f 1 6 3
f 1 3 9
f 1 9 4
f 1 4 10
f 1 10 17
f 1 17 23
f 1 23 31
f 1 31 39
f 1 39 46
f 1 46 54
f 1 54 64
f 1 64 56
f 1 56 48
f 1 48 40
f 1 40 32
f 1 32 25
f 1 25 18
f 1 18 11
f 1 11 5
f 1 5 2
f 2 5 12
f 2 12 6
f 3 6 13
f 3 13 7
f 3 7 8
f 3 8 9
f 4 9 10
f 5 11 19
f 5 19 12
f 6 12 20
f 6 20 13
f 7 13 20
f 7 20 28
f 7 28 27
f 7 27 36
f 7 36 43
f 7 43 51
f 7 51 61
f 7 61 67
f 7 67 71
f 7 71 70
f 7 70 68
f 7 68 62
f 7 62 52
f 7 52 44
f 7 44 37
f 7 37 29
f 7 29 21
f 7 21 15
f 7 15 14
f 7 14 8
f 8 14 9
f 9 14 10
f 10 14 15
f 10 15 16
f 10 16 17
f 11 18 24
f 11 24 19
f 12 19 20
f 15 21 22
f 15 22 16
f 16 22 17
f 17 22 23
f 18 25 26
f 18 26 35
f 18 35 27
f 18 27 24
f 19 24 27
f 19 27 28
f 19 28 20
f 21 29 30
f 21 30 22
f 22 30 23
f 23 30 31
f 25 32 26
f 26 33 41
f 26 41 49
f 26 49 59
f 26 59 58
f 26 58 57
f 26 57 65
f 26 65 55
f 26 55 47
f 26 47 53
f 26 53 63
f 26 63 69
f 26 69 66
f 26 66 60
f 26 60 50
f 26 50 42
f 26 42 34
f 26 34 35
f 26 32 33
f 27 35 36
f 29 37 38
f 29 38 30
f 30 38 31
f 31 38 39
f 32 40 41
f 32 41 33
f 34 42 43
f 34 43 36
f 34 36 35
f 37 44 45
f 37 45 38
f 38 45 39
f 39 45 53
f 39 53 47
f 39 47 46
f 40 48 41
f 41 48 49
f 42 50 51
f 42 51 43
f 44 52 53
f 44 53 45
f 46 47 55
f 46 55 54
f 48 56 57
f 48 57 58
f 48 58 59
f 48 59 49
f 50 60 51
f 51 60 61
f 52 62 53
f 53 62 63
f 54 55 64
f 55 65 64
f 56 64 65
f 56 65 57
f 60 66 61
f 61 66 67
f 62 68 63
f 63 68 70
f 63 70 71
f 63 71 69
f 66 69 71
f 66 71 67

