# https://github.com/mikedh/trimesh
v -0.57115524 -4.37573480 -1.36887256
v -0.57115524 -4.37545164 -1.38234368
v -0.36017737 -4.37562873 -1.37416612
v -0.36017737 -4.37573480 -1.36887256
v -0.36017737 -4.37074495 -1.27279656
v -0.57115524 -4.37070959 -1.28097413
v -0.57115524 -4.37336377 -1.47028155
v -0.36017737 -4.37336377 -1.47028155
v -0.36017737 -4.37042643 -1.26750300
v -0.57115524 -4.36993113 -1.26750300
v -0.57115524 -4.37233752 -1.47786651
v -0.36017737 -4.37297455 -1.47324442
v -0.36017737 -4.36306555 -1.21057637
v -0.57115524 -4.36320698 -1.22175625
v -0.57115524 -4.36557801 -1.52728712
v -0.36017737 -4.36557801 -1.52728712
v -0.36017737 -4.36264067 -1.20785049
v -0.57115524 -4.36214537 -1.21472439
v -0.57115524 -4.35814641 -1.52961796
v -0.36017737 -4.36267602 -1.52819568
v -0.36017737 -4.31412165 -1.16992585
v -0.36017737 -4.30771631 -1.16846413
v -0.57115524 -4.30948567 -1.20346548
v -0.57115524 -4.30948567 -1.54470885
v -0.36017737 -4.30948567 -1.54470885
v -0.36017737 -4.20855445 -1.15357080
v -0.36025999 -4.20809450 -1.15349177
v -0.57115524 -4.20809450 -1.19426083
v -0.57115524 -4.20809450 -1.55573068
v -0.36017737 -4.20809450 -1.55573068
v -0.36017737 -4.20756355 -1.15345226
v -0.36017737 -4.11052551 -1.15218818
v -0.57115524 -4.12018671 -1.19528799
v -0.57115524 -4.19464650 -1.55553320
v -0.36017737 -4.20282149 -1.55565166
v -0.36017737 -4.09824519 -1.15234615
v -0.57115524 -4.10670334 -1.19544597
v -0.57115524 -4.10670334 -1.55415050
v -0.36017737 -4.10670334 -1.55415050
v -0.36017737 -4.04271916 -1.18711051
v -0.57115524 -4.04409929 -1.20674438
v -0.57115524 -4.05241571 -1.20524322
v -0.57115524 -4.09774989 -1.55185910
v -0.36017737 -4.10319969 -1.55328139
v -0.36017737 -4.02183926 -1.26750300
v -0.57115524 -4.02321938 -1.26750300
v -0.57115524 -4.03921551 -1.53676836
v -0.36017737 -4.03921551 -1.53676836
v -0.36017737 -4.01423058 -1.36887256
v -0.57115524 -4.01423058 -1.36887256
v -0.36017737 -4.03811854 -1.53333134
v -0.57115524 -4.03641959 -1.52795875
v -0.36017737 -4.01833560 -1.47028155
v -0.57115524 -4.01776929 -1.45681042
v -0.57115524 -4.01833560 -1.47028155
f 1 2 3
f 1 3 4
f 1 4 5
f 1 5 6
f 1 6 10
f 1 10 14
f 1 14 18
f 1 18 23
f 1 23 28
f 1 28 33
f 1 33 37
f 1 37 42
f 1 42 41
f 1 41 46
f 1 46 50
f 1 50 54
f 1 54 55
f 1 55 52
f 1 52 47
f 1 47 43
f 1 43 38
f 1 38 34
f 1 34 29
f 1 29 24
f 1 24 19
f 1 19 15
f 1 15 11
f 1 11 7
f 1 7 2
f 2 7 8
f 2 8 3
f 3 8 12
f 3 12 16
f 3 16 20
f 3 20 25
f 3 25 30
f 3 30 35
f 3 35 39
f 3 39 44
f 3 44 48
f 3 48 51
f 3 51 53
f 3 53 49
f 3 49 45
f 3 45 40
f 3 40 36
f 3 36 32
f 3 32 31
f 3 31 26
f 3 26 22
f 3 22 21
f 3 21 17
f 3 17 13
f 3 13 9
f 3 9 5
f 3 5 4
f 5 9 10
f 5 10 6
f 7 11 12
f 7 12 8
f 9 13 10
f 10 13 14
f 11 15 12
f 12 15 16
f 13 17 18
f 13 18 14
f 15 19 16
f 16 19 20
f 17 21 18
f 18 21 22
f 18 22 23
f 19 24 25
f 19 25 20
f 22 26 27
f 22 27 23
f 23 27 28
f 24 29 30
f 24 30 25
f 26 31 27
f 27 31 28
f 28 31 32
f 28 32 33
f 29 34 30
f 30 34 35
f 32 36 37
f 32 37 33
f 34 38 39
f 34 39 35
f 36 40 41
f 36 41 42
f 36 42 37
f 38 43 44
f 38 44 39
f 40 45 46
f 40 46 41
f 43 47 44
f 44 47 48
f 45 49 50
f 45 50 46
f 47 51 48
f 47 52 51
f 49 53 54
f 49 54 50
f 51 52 53
f 52 55 53
f 53 55 54

