# https://github.com/mikedh/trimesh
v 0.45903411 -4.20533425 1.55572419
v 0.45903411 -4.20809450 1.55572419
v 0.45903411 -4.10670334 1.55415911
v 0.00085896 -4.10670334 1.55415911
v 0.00085896 -4.15660279 1.55494165
v 0.00085896 -4.20809450 1.55572419
v 0.45903411 -4.30676077 1.54499926
v 0.45903411 -4.10489863 1.55369887
v 0.00085896 -4.07241079 1.54532140
v 0.00085896 -4.25795829 1.55029267
v 0.00085896 -4.30948567 1.54467697
v 0.45903411 -4.30948567 1.54467697
v 0.45903411 -4.03921551 1.53675990
v 0.00085896 -4.03921551 1.53675990
v 0.00085896 -4.36557801 1.52732384
v 0.45903411 -4.36557801 1.52732384
v 0.45903411 -4.03864919 1.53496471
v 0.00085896 -4.02859847 1.50297398
v 0.00085896 -4.37336377 1.47029288
v 0.45903411 -4.37336377 1.47029288
v 0.45903411 -4.01833560 1.47029288
v 0.00085896 -4.01833560 1.47029288
v 0.00085896 -4.37453176 1.42039661
v 0.45903411 -4.37569944 1.37160516
v 0.45903411 -4.01819417 1.46753111
v 0.00085896 -4.01624773 1.41878560
v 0.00085896 -4.37573480 1.36888933
v 0.45903411 -4.37573480 1.36888933
v 0.45903411 -4.01423058 1.36888933
v 0.00085896 -4.01423058 1.36888933
v 0.00085896 -4.37573480 1.08553017
v 0.15210385 -4.37573480 1.08553017
v 0.45903411 -4.37010792 1.27024754
v 0.45903411 -4.02321938 1.26753186
v 0.15210385 -4.01423058 1.08553017
v 0.00085896 -4.01423058 1.08553017
v 0.17251204 -4.37414253 1.08553017
v 0.45903411 -4.36993113 1.26753186
v 0.45903411 -4.04409929 1.20617414
v 0.25558011 -4.03472095 1.08553017
v 0.23633811 -4.36791368 1.08553017
v 0.45903411 -4.36235751 1.21607052
v 0.45903411 -4.10670334 1.19425245
v 0.31738777 -4.10695114 1.08553017
v 0.30397669 -4.05850284 1.08553017
v 0.29594797 -4.31943002 1.08553017
v 0.45903411 -4.36214537 1.21464362
v 0.45903411 -4.10946390 1.19420636
v 0.32200766 -4.20809450 1.08553017
v 0.31972015 -4.13328084 1.08553017
v 0.31550396 -4.27940451 1.08553017
v 0.45903411 -4.30948567 1.20272193
v 0.45903411 -4.20809450 1.19296358
v 0.45903411 -4.21081940 1.19319370
f 1 2 7
f 1 7 12
f 1 12 16
f 1 16 20
f 1 20 24
f 1 24 28
f 1 28 33
f 1 33 38
f 1 38 42
f 1 42 47
f 1 47 52
f 1 52 54
f 1 54 53
f 1 53 48
f 1 48 43
f 1 43 39
f 1 39 34
f 1 34 29
f 1 29 25
f 1 25 21
f 1 21 17
f 1 17 13
f 1 13 8
f 1 8 3
f 1 3 4
f 1 4 5
f 1 5 6
f 1 6 2
f 2 6 7
f 3 8 4
f 4 8 9
f 4 9 14
f 4 14 18
f 4 18 22
f 4 22 26
f 4 26 30
f 4 30 36
f 4 36 31
f 4 31 27
f 4 27 23
f 4 23 19
f 4 19 15
f 4 15 11
f 4 11 10
f 4 10 6
f 4 6 5
f 6 10 7
f 7 11 12
f 7 10 11
f 8 13 9
f 9 13 14
f 11 15 16
f 11 16 12
f 13 17 14
f 14 17 18
f 15 19 20
f 15 20 16
f 17 21 18
f 18 21 22
f 19 23 24
f 19 24 20
f 21 25 22
f 22 25 26
f 23 27 24
f 24 27 28
f 25 29 30
f 25 30 26
f 27 31 32
f 27 32 28
f 28 32 33
f 29 34 35
f 29 35 36
f 29 36 30
f 31 36 35
f 31 35 40
f 31 40 45
f 31 45 44
f 31 44 50
f 31 50 49
f 31 49 51
f 31 51 46
f 31 46 41
f 31 41 37
f 31 37 32
f 32 37 38
f 32 38 33
f 34 39 40
f 34 40 35
f 37 41 38
f 38 41 42
f 39 43 44
f 39 44 45
f 39 45 40
f 41 46 47
f 41 47 42
f 43 48 49
f 43 49 50
f 43 50 44
f 46 51 47
f 47 51 52
f 48 53 49
f 49 53 51
f 51 53 54
f 51 54 52

