# https://github.com/mikedh/trimesh
v 0.00081410 -4.01423058 1.15333743
v 0.00081410 -4.37573480 1.15333743
v 0.00081410 -4.01423058 0.96555231
v -0.15212440 -4.01423058 1.15333743
v 0.00081410 -4.37573480 0.96555231
v -0.15212440 -4.37573480 1.15333743
v -0.15212440 -4.01423058 0.96555231
v -0.26011655 -4.03277451 1.15333743
v -0.15212440 -4.37573480 0.96555231
v -0.25129796 -4.36766618 1.15333743
v -0.25321813 -4.03514553 0.96555231
v -0.26321017 -4.03341154 1.15333743
v -0.23170505 -4.36798469 0.96555231
v -0.32358904 -4.32066872 1.15333743
v -0.30392502 -4.06190012 0.96555231
v -0.33123417 -4.04923057 1.15333743
v -0.34268414 -4.30375241 1.15333743
v -0.23284293 -4.36695844 0.96555231
v -0.30399613 -4.06303275 0.96555231
v -0.36245483 -4.09845763 1.15333743
v -0.35932567 -4.09106109 1.15333743
v -0.36014349 -4.20820057 1.15333743
v -0.30502734 -4.26493025 0.96555231
v -0.28241192 -4.31564351 0.96555231
v -0.30502734 -4.11261338 0.96555231
v -0.30584519 -4.20809450 0.96555231
v -0.30509845 -4.26351446 0.96555231
f 1 2 5
f 1 5 3
f 1 3 7
f 1 7 4
f 1 4 8
f 1 8 12
f 1 12 16
f 1 16 21
f 1 21 20
f 1 20 22
f 1 22 17
f 1 17 14
f 1 14 10
f 1 10 6
f 1 6 2
f 2 6 9
f 2 9 5
f 3 5 9
f 3 9 13
f 3 13 18
f 3 18 24
f 3 24 23
f 3 23 27
f 3 27 26
f 3 26 25
f 3 25 19
f 3 19 15
f 3 15 11
f 3 11 7
f 4 7 8
f 6 10 9
f 7 11 12
f 7 12 8
f 9 10 13
f 10 14 13
f 11 15 16
f 11 16 12
f 13 14 17
f 13 17 18
f 15 19 20
f 15 20 21
f 15 21 16
f 17 22 23
f 17 23 24
f 17 24 18
f 19 25 20
f 20 25 26
f 20 26 27
f 20 27 22
f 22 27 23

