# https://github.com/mikedh/trimesh
v 5.12573614 -4.20808634 1.06364048
v 5.12570048 -4.20701990 1.06364048
v 5.10950401 -4.30844067 1.06364048
v 5.12530642 -4.21085929 -0.96052650
v 5.12573614 -4.20808634 -0.96052650
v 5.12183057 -4.10670123 1.06364048
v 5.12183057 -4.10670123 -0.96052650
v 5.10932511 -4.30947176 1.06364048
v 5.10932511 -4.30947176 -0.96052650
v 5.12154409 -4.10595480 1.06364048
v 5.09395302 -4.03514130 -0.96052650
v 5.09395302 -4.03432386 1.06364048
v 5.08144817 -4.36798499 1.06364048
v 5.10857264 -4.31107129 -0.96052650
v 5.01927958 -4.01423874 -0.96052650
v 5.01927958 -4.01260355 1.06364048
v 5.01927958 -4.37573480 1.06364048
v 5.02099968 -4.37555711 -0.96052650
v 5.08144817 -4.36798499 -0.96052650
v 4.91791138 -4.01423874 -0.96052650
v 4.91791138 -4.01260355 1.06364048
v 4.91791138 -4.37573480 1.06364048
v 5.01927958 -4.37573480 -0.96052650
v 4.91515234 -4.01480747 -0.96052650
v 4.81675805 -4.03432386 1.06364048
v 4.81675805 -4.03514130 -0.96052650
v 4.91708730 -4.37566379 1.06364048
v 4.91791138 -4.37573480 -0.96052650
v 4.76605597 -4.05963456 1.06364048
v 4.76605597 -4.06194515 -0.96052650
v 4.83829281 -4.36798499 1.06364048
v 4.83829281 -4.36798499 -0.96052650
v 4.76272366 -4.10979390 1.06364048
v 4.76501672 -4.11263786 -0.96052650
v 4.75971379 -4.20808634 1.06364048
v 4.78812834 -4.32308689 1.06364048
v 4.78759073 -4.31547941 -0.96052650
v 4.78759073 -4.32255381 1.06364048
v 4.76422859 -4.20808634 -0.96052650
v 4.76283094 -4.27186110 1.06364048
v 4.76501672 -4.26478670 -0.96052650
f 1 2 6
f 1 6 10
f 1 10 12
f 1 12 16
f 1 16 21
f 1 21 25
f 1 25 29
f 1 29 33
f 1 33 35
f 1 35 40
f 1 40 38
f 1 38 36
f 1 36 31
f 1 31 27
f 1 27 22
f 1 22 17
f 1 17 13
f 1 13 8
f 1 8 3
f 1 3 4
f 1 4 5
f 1 5 2
f 2 5 7
f 2 7 6
f 3 8 9
f 3 9 4
f 4 9 14
f 4 14 19
f 4 19 18
f 4 18 23
f 4 23 28
f 4 28 32
f 4 32 37
f 4 37 41
f 4 41 39
f 4 39 34
f 4 34 30
f 4 30 26
f 4 26 24
f 4 24 20
f 4 20 15
f 4 15 11
f 4 11 7
f 4 7 5
f 6 7 10
f 7 11 12
f 7 12 10
f 8 13 14
f 8 14 9
f 11 15 16
f 11 16 12
f 13 17 18
f 13 18 19
f 13 19 14
f 15 20 21
f 15 21 16
f 17 22 28
f 17 28 23
f 17 23 18
f 20 24 21
f 21 24 26
f 21 26 25
f 22 27 28
f 25 26 29
f 26 30 29
f 27 31 32
f 27 32 28
f 29 30 33
f 30 34 35
f 30 35 33
f 31 36 32
f 32 36 38
f 32 38 37
f 34 39 35
f 35 39 41
f 35 41 40
f 37 38 40
f 37 40 41

