# https://github.com/mikedh/trimesh
v -4.91792705 -0.19434646 -1.12905336
v -5.01924750 -0.19038955 -1.12905336
v -4.81143966 -0.15610890 -1.12905336
v -4.91353887 -0.18095381 1.06861031
v -4.91792705 -0.18243765 1.06861031
v -5.01924750 -0.17893730 1.06861031
v -5.07134119 -0.16428908 -1.12905336
v -4.79427586 -0.14267820 -1.12905336
v -4.81621737 -0.14423814 1.06861031
v -5.09791869 -0.13872128 1.06861031
v -5.09912203 -0.15005938 -1.12905336
v -4.76507953 -0.10546792 -1.12905336
v -4.76507953 -0.10345142 1.06861031
v -5.12569953 -0.05067978 1.06861031
v -5.12577025 -0.05067978 1.06452304
v -5.10896031 -0.11920301 -1.12905336
v -4.76423006 -0.05067978 -1.12905336
v -4.76461929 -0.07639977 -0.81218192
v -4.76423006 -0.05067978 1.06861031
v -5.12577025 -0.04672286 1.06861031
v -5.12577025 -0.05067978 -1.12905336
v -4.76423006 0.05064023 -1.12905336
v -4.76423006 0.05067827 1.06861031
v -5.12577025 0.05067827 1.06861031
v -5.12577025 0.05064023 -1.12905336
v -4.76507953 0.10546641 -1.12905336
v -4.76500851 0.10128121 1.06861031
v -4.76423006 0.05067827 -0.81218192
v -5.12474399 0.05482543 1.06861031
v -5.12577025 0.05067827 -0.81218192
v -5.09912203 0.15009592 -1.12905336
v -4.81143966 0.15610739 -1.12905336
v -4.76684889 0.10569469 1.06861031
v -4.76507953 0.10344991 1.06861031
v -5.09791869 0.13871977 1.06861031
v -5.01924750 0.19038804 -1.12905336
v -5.02243264 0.17733779 1.06861031
v -4.84534299 0.16889129 -1.12905336
v -4.81621737 0.14423663 1.06861031
v -4.91792705 0.19434495 -1.12905336
v -5.01924750 0.17893578 1.06861031
v -4.91792705 0.18243614 1.06861031
v -4.92383709 0.18224590 1.06861031
f 1 2 7
f 1 7 11
f 1 11 16
f 1 16 21
f 1 21 25
f 1 25 31
f 1 31 36
f 1 36 40
f 1 40 38
f 1 38 32
f 1 32 26
f 1 26 22
f 1 22 17
f 1 17 12
f 1 12 8
f 1 8 3
f 1 3 4
f 1 4 5
f 1 5 6
f 1 6 2
f 2 6 7
f 3 8 9
f 3 9 4
f 4 9 13
f 4 13 19
f 4 19 23
f 4 23 27
f 4 27 34
f 4 34 33
f 4 33 39
f 4 39 42
f 4 42 43
f 4 43 41
f 4 41 37
f 4 37 35
f 4 35 29
f 4 29 24
f 4 24 20
f 4 20 14
f 4 14 10
f 4 10 6
f 4 6 5
f 6 10 7
f 7 10 11
f 8 12 13
f 8 13 9
f 10 14 15
f 10 15 16
f 10 16 11
f 12 17 18
f 12 18 19
f 12 19 13
f 14 20 15
f 15 20 24
f 15 24 30
f 15 30 25
f 15 25 21
f 15 21 16
f 17 22 28
f 17 28 23
f 17 23 19
f 17 19 18
f 22 26 27
f 22 27 28
f 23 28 27
f 24 29 30
f 25 30 29
f 25 29 31
f 26 32 33
f 26 33 34
f 26 34 27
f 29 35 31
f 31 35 37
f 31 37 36
f 32 38 39
f 32 39 33
f 36 37 41
f 36 41 40
f 38 40 42
f 38 42 39
f 40 41 43
f 40 43 42

