# https://github.com/mikedh/trimesh
v -4.74032367 -4.20807123 1.09917536
v -4.74213503 -4.14828636 1.09917536
v -4.74900242 -4.28429131 1.09917536
v -4.76179406 -4.27068737 -1.06641887
v -4.75869988 -4.20807123 -1.06641887
v -4.74598379 -4.10471640 1.09917536
v -4.76186961 -4.11004774 -1.06641887
v -4.76515236 -4.06041090 -1.06641887
v -4.76515236 -4.31734577 1.09917536
v -4.76213373 -4.27252563 -1.06641887
v -4.76602027 -4.05772680 1.09917536
v -4.76669930 -4.05849891 -1.06641887
v -4.83065749 -4.36786533 1.09917536
v -4.83692110 -4.36731352 -1.06641887
v -4.78741511 -4.32304488 -1.06641887
v -4.81141337 -4.02147360 1.09917536
v -4.81650748 -4.03368049 -1.06641887
v -4.88412556 -4.37308636 1.09917536
v -4.83790233 -4.36797563 -1.06641887
v -4.91793461 -4.00014826 1.09917536
v -4.91582165 -4.01235515 -1.06641887
v -4.91793461 -4.37573359 1.09917536
v -4.91793461 -4.37573359 -1.06641887
v -5.01928648 -4.00036886 1.09917536
v -4.91793461 -4.01198738 -1.06641887
v -5.01928648 -4.01198738 -1.06641887
v -5.01928648 -4.37573359 1.09917536
v -5.01928648 -4.37573359 -1.06641887
v -5.09463987 -4.02518698 1.09917536
v -5.09241389 -4.03327615 -1.06641887
v -5.06030259 -4.37062286 1.09917536
v -5.02034296 -4.37562329 -1.06641887
v -5.11343099 -4.07394141 1.09917536
v -5.09399861 -4.03386453 -1.06641887
v -5.08143331 -4.36797563 1.09917536
v -5.08143331 -4.36797563 -1.06641887
v -5.12214752 -4.10670183 1.09917536
v -5.12184593 -4.10670183 -1.06641887
v -5.10931811 -4.30947751 1.09917536
v -5.10886542 -4.31047022 -1.06641887
v -5.12471377 -4.17365659 1.09917536
v -5.12577025 -4.20807123 -1.06641887
v -5.12577025 -4.20807123 1.09917536
v -5.10931811 -4.30947751 -1.06641887
f 1 2 6
f 1 6 11
f 1 11 16
f 1 16 20
f 1 20 24
f 1 24 29
f 1 29 33
f 1 33 37
f 1 37 41
f 1 41 43
f 1 43 39
f 1 39 35
f 1 35 31
f 1 31 27
f 1 27 22
f 1 22 18
f 1 18 13
f 1 13 9
f 1 9 3
f 1 3 4
f 1 4 5
f 1 5 2
f 2 5 7
f 2 7 8
f 2 8 6
f 3 9 10
f 3 10 4
f 4 10 15
f 4 15 14
f 4 14 19
f 4 19 23
f 4 23 28
f 4 28 32
f 4 32 36
f 4 36 40
f 4 40 44
f 4 44 42
f 4 42 38
f 4 38 34
f 4 34 30
f 4 30 26
f 4 26 25
f 4 25 21
f 4 21 17
f 4 17 12
f 4 12 8
f 4 8 7
f 4 7 5
f 6 8 11
f 8 12 11
f 9 13 14
f 9 14 15
f 9 15 10
f 11 12 16
f 12 17 16
f 13 18 19
f 13 19 14
f 16 17 21
f 16 21 20
f 18 22 23
f 18 23 19
f 20 21 25
f 20 25 26
f 20 26 24
f 22 27 28
f 22 28 23
f 24 26 30
f 24 30 29
f 27 31 32
f 27 32 28
f 29 30 34
f 29 34 33
f 31 35 36
f 31 36 32
f 33 34 38
f 33 38 37
f 35 39 40
f 35 40 36
f 37 38 42
f 37 42 41
f 39 43 42
f 39 42 44
f 39 44 40
f 41 42 43

