# https://github.com/mikedh/trimesh
v -4.70998776 4.11033936 -1.15203013
v -4.38916783 4.10670334 -1.19546297
v -4.38916783 4.12844057 -1.19518631
v -4.38916783 4.20807788 -1.19423779
v -4.70998776 4.20764302 -1.15313669
v -4.70998776 4.09824579 -1.15218818
v -4.38916783 4.04410050 -1.20672625
v -4.38916783 4.30949141 -1.20344607
v -4.70998776 4.30771299 -1.16843104
v -4.70998776 4.02710592 -1.18696606
v -4.70998776 3.98880897 -1.25620572
v -4.70998776 3.98671415 -1.26217325
v -4.38916783 4.02323268 -1.26750844
v -4.38916783 4.32075545 -1.20585676
v -4.38916783 4.36217468 -1.21474886
v -4.70998776 4.31403643 -1.16985378
v -4.70998776 3.97201204 -1.36887815
v -4.38916783 4.01615828 -1.34718156
v -4.70998776 4.36264882 -1.20783281
v -4.38916783 4.36383434 -1.22605166
v -4.70998776 4.36304410 -1.21048065
v -4.38916783 4.01426110 -1.36887815
v -4.70998776 3.98382909 -1.47834957
v -4.38916783 4.01833197 -1.47028729
v -4.38916783 4.36992086 -1.26750844
v -4.70998776 4.37043459 -1.26750844
v -4.70998776 4.02374641 -1.53680009
v -4.38916783 4.03919979 -1.53680009
v -4.38916783 4.37118555 -1.28924477
v -4.38916783 4.37577016 -1.36887815
v -4.70998776 4.37071140 -1.27264622
v -4.38916783 4.10670334 -1.55414944
v -4.38916783 4.09223845 -1.55043455
v -4.70998776 4.10670334 -1.55414944
v -4.38916783 4.37525643 -1.39061432
v -4.70998776 4.37577016 -1.36887815
v -4.38916783 4.18634065 -1.55541413
v -4.70998776 4.20297924 -1.55565136
v -4.38916783 4.37335924 -1.47028729
v -4.70998776 4.37335924 -1.47028729
v -4.38916783 4.20807788 -1.55573038
v -4.70998776 4.20807788 -1.55573038
v -4.38916783 4.37169928 -1.48249917
v -4.70998776 4.36557347 -1.52731523
v -4.38916783 4.28775448 -1.54707535
v -4.70998776 4.30949141 -1.54470417
v -4.38916783 4.36557347 -1.52731523
v -4.38916783 4.30949141 -1.54470417
f 1 2 3
f 1 3 4
f 1 4 5
f 1 5 9
f 1 9 16
f 1 16 19
f 1 19 21
f 1 21 26
f 1 26 31
f 1 31 36
f 1 36 40
f 1 40 44
f 1 44 46
f 1 46 42
f 1 42 38
f 1 38 34
f 1 34 27
f 1 27 23
f 1 23 17
f 1 17 12
f 1 12 11
f 1 11 10
f 1 10 6
f 1 6 2
f 2 6 7
f 2 7 13
f 2 13 18
f 2 18 22
f 2 22 24
f 2 24 28
f 2 28 33
f 2 33 32
f 2 32 37
f 2 37 41
f 2 41 45
f 2 45 48
f 2 48 47
f 2 47 43
f 2 43 39
f 2 39 35
f 2 35 30
f 2 30 29
f 2 29 25
f 2 25 20
f 2 20 15
f 2 15 14
f 2 14 8
f 2 8 4
f 2 4 3
f 4 8 5
f 5 8 9
f 6 10 7
f 7 10 11
f 7 11 12
f 7 12 13
f 8 14 9
f 9 14 15
f 9 15 16
f 12 17 13
f 13 17 18
f 15 19 16
f 15 20 21
f 15 21 19
f 17 22 18
f 17 23 24
f 17 24 22
f 20 25 21
f 21 25 26
f 23 27 28
f 23 28 24
f 25 29 26
f 26 29 30
f 26 30 31
f 27 32 33
f 27 33 28
f 27 34 32
f 30 35 36
f 30 36 31
f 32 34 37
f 34 38 37
f 35 39 40
f 35 40 36
f 37 38 42
f 37 42 41
f 39 43 40
f 40 43 44
f 41 42 45
f 42 46 45
f 43 47 44
f 44 47 48
f 44 48 46
f 45 46 48

