# https://github.com/mikedh/trimesh
v -4.91792705 0.19427027 -1.12909514
v -5.01924750 0.19033710 -1.12909514
v -4.84534299 0.16882508 -1.12909514
v -4.82955931 0.36034636 -1.20519903
v -4.91322035 0.36034636 -1.19417191
v -4.91792705 0.36034636 -1.19358709
v -5.01924750 0.36034636 -1.19358709
v -5.09912203 0.15004218 -1.12909514
v -5.08553229 0.36034636 -1.20519903
v -4.81143966 0.15598206 -1.12909514
v -4.82679875 0.36034636 -1.20808107
v -4.76507953 0.10541274 -1.12909514
v -5.12577025 0.05066944 -1.12909514
v -5.11341951 0.36034636 -1.26751902
v -4.77884605 0.36034636 -1.25903979
v -4.76423006 0.05066944 -1.12909514
v -4.76497316 0.36034636 -1.31292240
v -4.76507953 0.36034636 -1.30970613
v -5.12577025 -0.05062975 -1.12909514
v -5.12577025 0.36034636 -1.36889341
v -4.76423006 -0.05062975 -1.12909514
v -4.76423006 0.36034636 -1.36889341
v -5.12577025 -0.45967942 -1.36889341
v -5.11341951 -0.45967942 -1.26751902
v -5.08553229 -0.45967942 -1.20557496
v -5.10896031 -0.11917928 -1.12909514
v -5.11957705 0.36034636 -1.46483764
v -4.76507953 -0.10545333 -1.12909514
v -4.76507953 -0.45967942 -1.30970613
v -4.76423006 -0.45967942 -1.36889341
v -4.76507953 0.36034636 -1.43981781
v -4.76500851 -0.45967942 -1.43747882
v -5.11922348 -0.45967942 -1.47026780
v -5.02147710 -0.45967942 -1.19463132
v -5.09912203 -0.15000250 -1.12909514
v -5.11922348 0.36034636 -1.47026780
v -4.79427586 -0.14261777 -1.12909514
v -4.82955931 -0.45967942 -1.20557496
v -4.77884605 -0.45967942 -1.25903979
v -4.76525631 0.36034636 -1.44253289
v -4.76507953 -0.45967942 -1.43981781
v -5.09133626 -0.45967942 -1.53835187
v -5.01924750 -0.45967942 -1.19425539
v -5.07134119 -0.16421008 -1.12909514
v -5.09133626 0.36034636 -1.53835187
v -4.81143966 -0.15602265 -1.12909514
v -4.83249665 -0.45967942 -1.20515725
v -4.76907848 0.36034636 -1.49056764
v -4.76890140 -0.45967942 -1.48885509
v -5.01924750 -0.45967942 -1.55576982
v -4.91792705 -0.45967942 -1.19425539
v -4.91792705 -0.19431086 -1.12909514
v -5.01528390 -0.19053823 -1.12909514
v -5.01924750 -0.19029741 -1.12909514
v -5.01924750 0.36034636 -1.55576982
v -4.81975639 0.36034636 -1.53835187
v -4.76907848 -0.45967942 -1.49056764
v -4.91792705 -0.45967942 -1.55576982
v -4.91792705 0.36034636 -1.55576982
v -4.81975639 -0.45967942 -1.53835187
f 1 2 8
f 1 8 13
f 1 13 19
f 1 19 26
f 1 26 35
f 1 35 44
f 1 44 54
f 1 54 53
f 1 53 52
f 1 52 46
f 1 46 37
f 1 37 28
f 1 28 21
f 1 21 16
f 1 16 12
f 1 12 10
f 1 10 3
f 1 3 4
f 1 4 5
f 1 5 6
f 1 6 7
f 1 7 2
f 2 7 9
f 2 9 8
f 3 10 4
f 4 11 15
f 4 15 18
f 4 18 17
f 4 17 22
f 4 22 31
f 4 31 40
f 4 40 48
f 4 48 56
f 4 56 59
f 4 59 55
f 4 55 45
f 4 45 36
f 4 36 27
f 4 27 20
f 4 20 14
f 4 14 9
f 4 9 7
f 4 7 6
f 4 6 5
f 4 10 12
f 4 12 11
f 8 9 13
f 9 14 13
f 11 12 15
f 12 16 17
f 12 17 18
f 12 18 15
f 13 14 20
f 13 20 23
f 13 23 19
f 16 21 30
f 16 30 22
f 16 22 17
f 19 23 24
f 19 24 25
f 19 25 26
f 20 27 23
f 21 28 29
f 21 29 30
f 22 30 32
f 22 32 31
f 23 33 42
f 23 42 50
f 23 50 58
f 23 58 60
f 23 60 57
f 23 57 49
f 23 49 41
f 23 41 32
f 23 32 30
f 23 30 29
f 23 29 39
f 23 39 38
f 23 38 47
f 23 47 51
f 23 51 43
f 23 43 34
f 23 34 25
f 23 25 24
f 23 27 33
f 25 34 35
f 25 35 26
f 27 36 33
f 28 37 38
f 28 38 39
f 28 39 29
f 31 32 41
f 31 41 40
f 33 36 45
f 33 45 42
f 34 43 35
f 35 43 44
f 37 46 38
f 38 46 47
f 40 41 49
f 40 49 48
f 42 45 55
f 42 55 50
f 43 51 52
f 43 52 53
f 43 53 54
f 43 54 44
f 46 52 51
f 46 51 47
f 48 49 57
f 48 57 60
f 48 60 56
f 50 55 59
f 50 59 58
f 56 60 58
f 56 58 59

