# https://github.com/mikedh/trimesh
v -5.12577025 -3.90568614 1.36892333
v -5.12562398 -3.90568614 1.36714868
v -5.11921441 -3.90568614 1.47029666
v -5.12034946 -0.47377201 1.45280346
v -5.12577025 -0.47377201 1.36892333
v -5.11353737 -3.90568614 1.26751388
v -5.09134231 -3.90568614 1.53834960
v -5.09614057 -0.47377201 1.52665130
v -5.11921441 -0.47377201 1.47029666
v -5.12364581 -0.47377201 1.35143028
v -5.11313424 -3.90568614 1.26581169
v -5.11342737 -0.47377201 1.26751388
v -5.02054573 -3.90568614 1.55544435
v -5.03167983 -0.47377201 1.55276418
v -5.09134231 -0.47377201 1.53834960
v -5.08573900 -3.90568614 1.20290166
v -5.10862971 -0.47377201 1.25682975
v -5.01930038 -3.90568614 1.55573416
v -5.01930038 -0.47377201 1.55573416
v -5.08405395 -3.90568614 1.20224975
v -5.08555587 -0.47377201 1.20554550
v -4.91792131 -3.90568614 1.55573416
v -4.91792131 -0.47377201 1.55573416
v -5.01930038 -3.90568614 1.18721937
v -5.07412864 -0.47377201 1.20358976
v -4.81870324 -3.90568614 1.53842198
v -4.83664973 -0.47377201 1.54135569
v -5.01699282 -3.90568614 1.18718318
v -5.01930038 -0.47377201 1.19424565
v -4.76816011 -3.90568614 1.50477582
v -4.81972859 -0.47377201 1.53834960
v -4.91792131 -3.90568614 1.18577072
v -4.91792131 -0.47377201 1.19424565
v -4.75830793 -3.90568614 1.45414355
v -4.76903920 -0.47377201 1.49057852
v -4.77775603 -0.47377201 1.49879990
v -4.82599159 -3.90568614 1.20127185
v -4.82954420 -0.47377201 1.20554550
v -4.75160553 -3.90568614 1.36892333
v -4.76570628 -0.47377201 1.44860219
v -4.77555847 -3.90568614 1.24252374
v -4.82079080 -0.47377201 1.21474478
v -4.77449625 -3.90568614 1.24361028
v -4.75805167 -3.90568614 1.29558256
v -4.76504720 -0.47377201 1.30970749
v -4.76490063 -0.47377201 1.31992095
v -4.76424124 -0.47377201 1.36892333
v -4.76504720 -0.47377201 1.43987372
v -4.77881825 -0.47377201 1.25900277
v -4.75845450 -3.90568614 1.29315608
v -4.77643755 -0.47377201 1.26773131
f 1 2 6
f 1 6 11
f 1 11 16
f 1 16 20
f 1 20 24
f 1 24 28
f 1 28 32
f 1 32 37
f 1 37 41
f 1 41 43
f 1 43 50
f 1 50 44
f 1 44 39
f 1 39 34
f 1 34 30
f 1 30 26
f 1 26 22
f 1 22 18
f 1 18 13
f 1 13 7
f 1 7 3
f 1 3 4
f 1 4 5
f 1 5 2
f 2 5 6
f 3 7 8
f 3 8 9
f 3 9 4
f 4 9 8
f 4 8 15
f 4 15 14
f 4 14 19
f 4 19 23
f 4 23 27
f 4 27 31
f 4 31 36
f 4 36 35
f 4 35 40
f 4 40 48
f 4 48 47
f 4 47 46
f 4 46 45
f 4 45 51
f 4 51 49
f 4 49 42
f 4 42 38
f 4 38 33
f 4 33 29
f 4 29 25
f 4 25 21
f 4 21 17
f 4 17 12
f 4 12 10
f 4 10 5
f 5 10 6
f 6 10 12
f 6 12 11
f 7 13 14
f 7 14 15
f 7 15 8
f 11 12 16
f 12 17 16
f 13 18 19
f 13 19 14
f 16 17 21
f 16 21 20
f 18 22 23
f 18 23 19
f 20 21 24
f 21 25 24
f 22 26 23
f 23 26 27
f 24 25 29
f 24 29 28
f 26 30 31
f 26 31 27
f 28 29 32
f 29 33 32
f 30 34 35
f 30 35 36
f 30 36 31
f 32 33 38
f 32 38 37
f 34 39 40
f 34 40 35
f 37 38 41
f 38 42 43
f 38 43 41
f 39 44 45
f 39 45 46
f 39 46 47
f 39 47 48
f 39 48 40
f 42 49 43
f 43 49 50
f 44 50 45
f 45 50 51
f 49 51 50

