# https://github.com/mikedh/trimesh
v 4.61460459 -4.20809178 1.19236146
v 4.61460459 -4.10661057 1.19364209
v 4.61460459 -4.30946632 1.20225066
v 0.45944086 -4.30946632 1.20271302
v 0.45944086 -4.21082786 1.19321516
v 0.45944086 -4.20809178 1.19296615
v 4.61460459 -4.04474840 1.20545212
v 0.45944086 -4.10945332 1.19421120
v 0.45944086 -4.10671724 1.19424678
v 0.45944086 -4.04410866 1.20619915
v 4.61460459 -4.36216138 1.21455871
v 0.45944086 -4.36216138 1.21466546
v 0.45944086 -4.31088785 1.20303319
v 4.61460459 -4.04389561 1.20591463
v 0.45944086 -4.02321546 1.26752612
v 4.61460459 -4.02222063 1.26745503
v 4.61460459 -4.36994292 1.26752612
v 0.45944086 -4.36994292 1.26752612
v 0.45944086 -4.36237443 1.21608835
v 0.45944086 -4.01447445 1.36616866
v 4.61460459 -4.01284017 1.36759155
v 4.61460459 -4.37573480 1.36890776
v 0.45944086 -4.37573480 1.36890776
v 0.45944086 -4.01426140 1.36890776
v 4.61460459 -4.01276916 1.36890776
v 4.61460459 -4.37573480 1.37022398
v 0.45944086 -4.37569914 1.37164686
v 0.45944086 -4.01831203 1.47028940
v 4.61460459 -4.01710385 1.47039608
v 4.61460459 -4.37335410 1.47028940
v 0.45944086 -4.37335410 1.47028940
v 0.45944086 -4.03863680 1.53499583
v 4.61460459 -4.03824576 1.53606289
v 0.45944086 -4.03920523 1.53677440
v 4.61460459 -4.37328309 1.47103643
v 0.45944086 -4.36557257 1.52731206
v 4.61460459 -4.03874348 1.53677440
v 0.45944086 -4.10490498 1.55370688
v 4.61460459 -4.36557257 1.52731206
v 0.45944086 -4.30946632 1.54470704
v 4.61460459 -4.10565140 1.55395589
v 0.45944086 -4.10671724 1.55416939
v 4.61460459 -4.30946632 1.54470704
v 0.45944086 -4.20809178 1.55577012
v 4.61460459 -4.30818713 1.54484937
v 4.61460459 -4.10671724 1.55416939
v 0.55788894 -4.20809178 1.55577012
v 4.61460459 -4.20809178 1.55573446
v 4.61460459 -4.20677723 1.55573446
f 1 2 7
f 1 7 14
f 1 14 16
f 1 16 21
f 1 21 25
f 1 25 29
f 1 29 33
f 1 33 37
f 1 37 41
f 1 41 46
f 1 46 49
f 1 49 48
f 1 48 45
f 1 45 43
f 1 43 39
f 1 39 35
f 1 35 30
f 1 30 26
f 1 26 22
f 1 22 17
f 1 17 11
f 1 11 3
f 1 3 4
f 1 4 5
f 1 5 6
f 1 6 2
f 2 6 8
f 2 8 9
f 2 9 10
f 2 10 7
f 3 11 12
f 3 12 13
f 3 13 4
f 4 13 12
f 4 12 19
f 4 19 18
f 4 18 23
f 4 23 27
f 4 27 31
f 4 31 36
f 4 36 40
f 4 40 44
f 4 44 42
f 4 42 38
f 4 38 34
f 4 34 32
f 4 32 28
f 4 28 24
f 4 24 20
f 4 20 15
f 4 15 10
f 4 10 9
f 4 9 8
f 4 8 6
f 4 6 5
f 7 10 14
f 10 15 16
f 10 16 14
f 11 17 18
f 11 18 19
f 11 19 12
f 15 20 21
f 15 21 16
f 17 22 23
f 17 23 18
f 20 24 21
f 21 24 25
f 22 26 23
f 23 26 27
f 24 28 25
f 25 28 29
f 26 30 31
f 26 31 27
f 28 32 29
f 29 32 34
f 29 34 33
f 30 35 31
f 31 35 36
f 33 34 37
f 34 38 37
f 35 39 36
f 36 39 43
f 36 43 40
f 37 38 41
f 38 42 41
f 40 43 45
f 40 45 44
f 41 42 46
f 42 44 47
f 42 47 46
f 44 45 47
f 45 48 47
f 46 47 49
f 47 48 49

