# https://github.com/mikedh/trimesh
v 4.91792800 -0.22506090 1.14853554
v 4.96722578 -0.22228508 1.14853554
v 4.80991906 -0.15989523 1.14853554
v 4.81653684 -0.14346061 -1.06431090
v 4.91792800 -0.18174930 -1.06431090
v 5.01924845 -0.17818039 -1.06431090
v 5.01924845 -0.21827557 1.14853554
v 4.80312419 -0.15460795 1.14853554
v 4.76508048 -0.10314512 -1.06431090
v 5.09784893 -0.13795303 -1.06431090
v 5.03719102 -0.20739260 1.14853554
v 4.76508048 -0.10609719 1.14853554
v 4.76508048 -0.10332136 -0.96315590
v 4.76423101 -0.05066890 -1.06431090
v 5.12562977 -0.05097733 -1.06431090
v 5.10390070 -0.14002388 1.14853554
v 5.09951221 -0.15372674 1.14853554
v 4.76423101 -0.05066890 1.14853554
v 4.76423101 0.05067056 -1.06431090
v 5.12577120 0.05027402 -1.06431090
v 5.12577120 -0.05066890 -0.96315590
v 5.12577120 -0.05066890 1.14853554
v 4.76423101 0.05067056 1.14853554
v 4.76508048 0.10332302 -1.06431090
v 4.76490340 0.09702236 1.14853554
v 5.09799036 0.13764627 -1.06431090
v 5.09951221 0.15372840 1.14853554
v 5.12577120 0.05067056 -0.96315590
v 5.12577120 0.05067056 1.14853554
v 4.81632440 0.14333009 -1.06431090
v 4.76508048 0.10609885 1.14853554
v 4.80991906 0.15989689 1.14853554
v 5.01885922 0.17818205 -1.06431090
v 5.01924845 0.21827723 1.14853554
v 4.91757413 0.18157473 -1.06431090
v 4.88844852 0.21219687 1.14853554
v 4.91792800 0.22506256 1.14853554
f 1 2 7
f 1 7 11
f 1 11 17
f 1 17 16
f 1 16 22
f 1 22 29
f 1 29 27
f 1 27 34
f 1 34 37
f 1 37 36
f 1 36 32
f 1 32 31
f 1 31 25
f 1 25 23
f 1 23 18
f 1 18 12
f 1 12 8
f 1 8 3
f 1 3 4
f 1 4 5
f 1 5 6
f 1 6 2
f 2 6 7
f 3 8 4
f 4 9 14
f 4 14 19
f 4 19 24
f 4 24 30
f 4 30 35
f 4 35 33
f 4 33 26
f 4 26 20
f 4 20 15
f 4 15 10
f 4 10 6
f 4 6 5
f 4 8 9
f 6 10 7
f 7 10 11
f 8 12 13
f 8 13 9
f 9 13 14
f 10 15 16
f 10 16 17
f 10 17 11
f 12 18 14
f 12 14 13
f 14 18 23
f 14 23 19
f 15 20 21
f 15 21 16
f 16 21 22
f 19 23 25
f 19 25 24
f 20 26 27
f 20 27 28
f 20 28 29
f 20 29 22
f 20 22 21
f 24 25 31
f 24 31 32
f 24 32 30
f 26 33 34
f 26 34 27
f 27 29 28
f 30 32 36
f 30 36 37
f 30 37 35
f 33 35 37
f 33 37 34

