# https://github.com/mikedh/trimesh
v -4.38879371 -4.20809450 -1.55573461
v -4.38879371 -4.22982358 -1.55339894
v -4.38879371 -4.10670334 -1.55417755
v -0.57152895 -4.19464650 -1.55555768
v -0.57152895 -4.20809450 -1.55573461
v -4.38879371 -4.30948567 -1.54469314
v -0.57152895 -4.30948567 -1.54469314
v -4.38879371 -4.03921551 -1.53680115
v -0.57152895 -4.09774989 -1.55187708
v -0.57152895 -4.10670334 -1.55417755
v -4.38879371 -4.32151819 -1.54097719
v -0.57152895 -4.36557801 -1.52731674
v -4.38879371 -4.02279480 -1.48453068
v -0.57152895 -4.03641959 -1.52795377
v -0.57152895 -4.03921551 -1.53680115
v -4.38879371 -4.36557801 -1.52731674
v -0.57152895 -4.37233752 -1.47784203
v -4.38879371 -4.01833560 -1.47026870
v -0.57152895 -4.01833560 -1.47026870
v -4.38879371 -4.37336377 -1.47026870
v -0.57152895 -4.37336377 -1.47026870
v -4.38879371 -4.01423058 -1.36891290
v -0.57152895 -4.01776929 -1.45682070
v -4.38879371 -4.37389473 -1.44853948
v -0.57152895 -4.37545164 -1.38232555
v -4.38879371 -4.02321938 -1.26752159
v -0.57152895 -4.01423058 -1.36891290
v -4.38879371 -4.37573480 -1.36891290
v -0.57152895 -4.37573480 -1.36891290
v -4.38879371 -4.04409929 -1.20672225
v -0.57152895 -4.02321938 -1.26752159
v -4.38879371 -4.37449640 -1.34718367
v -0.57152895 -4.37070959 -1.28096974
v -4.38879371 -4.09329069 -1.19787486
v -0.57152895 -4.04409929 -1.20672225
v -4.38879371 -4.36993113 -1.26752159
v -0.57152895 -4.36993113 -1.26752159
v -4.38879371 -4.10670334 -1.19546841
v -0.57152895 -4.10670334 -1.19546841
v -4.38879371 -4.36826785 -1.25619696
v -0.57152895 -4.36320698 -1.22172747
v -4.38879371 -4.20809450 -1.19422978
v -0.57152895 -4.12018671 -1.19529139
v -4.38879371 -4.36214537 -1.21472031
v -0.57152895 -4.36214537 -1.21472031
v -4.38879371 -4.30948567 -1.20343103
v -4.20790908 -4.20809450 -1.19422978
v -0.57152895 -4.20809450 -1.19426514
v -0.57152895 -4.30948567 -1.20343103
v -0.57152895 -4.22154251 -1.19546841
f 1 2 6
f 1 6 11
f 1 11 16
f 1 16 20
f 1 20 24
f 1 24 28
f 1 28 32
f 1 32 36
f 1 36 40
f 1 40 44
f 1 44 46
f 1 46 42
f 1 42 38
f 1 38 34
f 1 34 30
f 1 30 26
f 1 26 22
f 1 22 18
f 1 18 13
f 1 13 8
f 1 8 3
f 1 3 4
f 1 4 5
f 1 5 2
f 2 5 7
f 2 7 6
f 3 8 9
f 3 9 10
f 3 10 4
f 4 10 9
f 4 9 15
f 4 15 14
f 4 14 19
f 4 19 23
f 4 23 27
f 4 27 31
f 4 31 35
f 4 35 39
f 4 39 43
f 4 43 48
f 4 48 50
f 4 50 49
f 4 49 45
f 4 45 41
f 4 41 37
f 4 37 33
f 4 33 29
f 4 29 25
f 4 25 21
f 4 21 17
f 4 17 12
f 4 12 7
f 4 7 5
f 6 7 11
f 7 12 11
f 8 13 14
f 8 14 15
f 8 15 9
f 11 12 16
f 12 17 16
f 13 18 19
f 13 19 14
f 16 17 20
f 17 21 20
f 18 22 23
f 18 23 19
f 20 21 24
f 21 25 24
f 22 26 31
f 22 31 27
f 22 27 23
f 24 25 28
f 25 29 28
f 26 30 35
f 26 35 31
f 28 29 32
f 29 33 32
f 30 34 35
f 32 33 36
f 33 37 36
f 34 38 39
f 34 39 35
f 36 37 41
f 36 41 40
f 38 42 43
f 38 43 39
f 40 41 44
f 41 45 44
f 42 46 49
f 42 49 47
f 42 47 43
f 43 47 48
f 44 45 49
f 44 49 46
f 47 49 50
f 47 50 48

