# https://github.com/mikedh/trimesh
v -0.33505117 4.20809450 1.10873879
v -0.32477070 4.28772093 1.10873879
v -0.33349520 4.15876137 1.10873879
v -0.56683377 4.20809450 1.19425018
v -0.31104492 4.31589100 1.10873879
v -0.56683377 4.30948567 1.20344025
v -0.32860503 4.10319969 1.10873879
v -0.56683377 4.10670334 1.19547551
v -0.56683377 4.11590459 1.19534428
v -0.56683377 4.36214537 1.21473096
v -0.24147123 4.36780761 1.10873879
v -0.56683377 4.04409929 1.20672240
v -0.30398752 4.05722878 1.10873879
v -0.56683377 4.36285311 1.21950104
v -0.15211463 4.37573480 1.10873879
v -0.19523697 4.37233752 1.10873879
v -0.56683377 4.02321938 1.26750814
v -0.25825338 4.03429636 1.10873879
v -0.15211463 4.01423058 1.10873879
v -0.56683377 4.36993113 1.26750814
v 0.00081410 4.37573480 1.10873879
v -0.56683377 4.37046179 1.27669821
v -0.56683377 4.37573480 1.36886153
v -0.56683377 4.01504439 1.35967146
v 0.00081410 4.01423058 1.10873879
v -0.56683377 4.01423058 1.36886153
v 0.00081410 4.37573480 1.36886153
v -0.56683377 4.37552266 1.37805160
v 0.00081410 4.01423058 1.36886153
v -0.56683377 4.01794637 1.46106866
v 0.00081410 4.37336377 1.47025873
v -0.56683377 4.37336377 1.47025873
v 0.00081410 4.01833560 1.47025873
v -0.56683377 4.01833560 1.47025873
v 0.00081410 4.36954160 1.49835401
v -0.56683377 4.37265603 1.47546632
v 0.00081410 4.02891698 1.50404314
v -0.56683377 4.03730442 1.53073805
v 0.00081410 4.36557801 1.52732460
v -0.56683377 4.36557801 1.52732460
v 0.00081410 4.03921551 1.53677728
v -0.56683377 4.03921551 1.53677728
v 0.00081410 4.30948567 1.54469828
v -0.56683377 4.30948567 1.54469828
v 0.00081410 4.07350806 1.54561725
v -0.56683377 4.10670334 1.55415095
v 0.00081410 4.20809450 1.55577012
v -0.56683377 4.30028441 1.54570474
v 0.00081410 4.10670334 1.55415095
v -0.56683377 4.20809450 1.55577012
v 0.00081410 4.15823072 1.55498230
f 1 2 5
f 1 5 11
f 1 11 16
f 1 16 15
f 1 15 21
f 1 21 25
f 1 25 19
f 1 19 18
f 1 18 13
f 1 13 7
f 1 7 3
f 1 3 4
f 1 4 2
f 2 4 6
f 2 6 5
f 3 7 8
f 3 8 9
f 3 9 4
f 4 9 8
f 4 8 12
f 4 12 17
f 4 17 24
f 4 24 26
f 4 26 30
f 4 30 34
f 4 34 38
f 4 38 42
f 4 42 46
f 4 46 50
f 4 50 48
f 4 48 44
f 4 44 40
f 4 40 36
f 4 36 32
f 4 32 28
f 4 28 23
f 4 23 22
f 4 22 20
f 4 20 14
f 4 14 10
f 4 10 6
f 5 6 10
f 5 10 11
f 7 12 8
f 7 13 12
f 10 14 15
f 10 15 16
f 10 16 11
f 12 13 18
f 12 18 19
f 12 19 17
f 14 20 15
f 15 20 22
f 15 22 23
f 15 23 27
f 15 27 21
f 17 19 24
f 19 25 29
f 19 29 26
f 19 26 24
f 21 27 31
f 21 31 35
f 21 35 39
f 21 39 43
f 21 43 47
f 21 47 51
f 21 51 49
f 21 49 45
f 21 45 41
f 21 41 37
f 21 37 33
f 21 33 29
f 21 29 25
f 23 28 27
f 26 29 30
f 27 28 31
f 28 32 31
f 29 33 30
f 30 33 34
f 31 32 36
f 31 36 35
f 33 37 34
f 34 37 38
f 35 36 40
f 35 40 39
f 37 41 38
f 38 41 42
f 39 40 44
f 39 44 43
f 41 45 42
f 42 45 46
f 43 44 48
f 43 48 47
f 45 49 46
f 46 49 51
f 46 51 50
f 47 50 51
f 47 48 50

