# https://github.com/mikedh/trimesh
v -4.74209846 4.20802983 1.09601862
v -4.74408872 4.24937835 1.09601862
v -4.74754403 4.10528151 1.09601862
v -4.76605895 4.06191674 -0.96655258
v -4.76485742 4.11572872 -0.96655258
v -4.76414363 4.20806640 -0.96655258
v -4.76496983 4.26499401 -0.96655258
v -4.75032302 4.28313904 1.09601862
v -4.74964700 4.07397676 1.09601862
v -4.81514488 4.03592731 -0.96655258
v -4.77788930 4.03966638 1.09601862
v -4.78682764 4.31404066 -0.96655258
v -4.78453670 4.32994945 1.09601862
v -4.78761637 4.31569004 -0.96655258
v -4.81675982 4.03512106 -0.96655258
v -4.81195249 4.02265760 1.09601862
v -4.81364267 4.35601231 1.09601862
v -4.83831694 4.36796233 -0.96655258
v -4.82002715 4.03442450 -0.96655258
v -4.87989150 4.00810507 1.09601862
v -4.83140663 4.36781577 1.09601862
v -4.91793581 4.37577016 -0.96655258
v -4.91793581 4.01422665 -0.96655258
v -4.91793581 4.00128693 1.09601862
v -4.91793581 4.37577016 1.09601862
v -5.01926200 4.37577016 -0.96655258
v -5.01926200 4.01422665 -0.96655258
v -4.98084206 4.00128693 1.09601862
v -5.01926200 4.37577016 1.09601862
v -5.08141760 4.36796233 -0.96655258
v -5.02166567 4.01488664 -0.96655258
v -5.01926200 4.00154350 1.09601862
v -5.08141760 4.36796233 1.09601862
v -5.10932174 4.30945847 -0.96655258
v -5.09392366 4.03512106 -0.96655258
v -5.06609447 4.01510634 1.09601862
v -5.10928366 4.30945847 1.09601862
v -5.10932174 4.30945847 0.66416265
v -5.12573338 4.20806640 -0.96655258
v -5.12092605 4.10440182 -0.96655258
v -5.09456190 4.02603011 1.09601862
v -5.12573338 4.20802983 1.09601862
v -5.12573338 4.20806640 0.66416265
v -5.12182780 4.10674776 -0.96655258
v -5.12209071 4.10674776 1.09601862
v -5.12573338 4.20802983 0.66416265
f 1 2 8
f 1 8 13
f 1 13 17
f 1 17 21
f 1 21 25
f 1 25 29
f 1 29 33
f 1 33 37
f 1 37 42
f 1 42 45
f 1 45 41
f 1 41 36
f 1 36 32
f 1 32 28
f 1 28 24
f 1 24 20
f 1 20 16
f 1 16 11
f 1 11 9
f 1 9 3
f 1 3 4
f 1 4 5
f 1 5 6
f 1 6 7
f 1 7 2
f 2 7 8
f 3 9 4
f 4 10 15
f 4 15 19
f 4 19 23
f 4 23 27
f 4 27 31
f 4 31 35
f 4 35 40
f 4 40 44
f 4 44 39
f 4 39 34
f 4 34 30
f 4 30 26
f 4 26 22
f 4 22 18
f 4 18 14
f 4 14 12
f 4 12 7
f 4 7 6
f 4 6 5
f 4 9 11
f 4 11 10
f 7 12 8
f 8 12 14
f 8 14 13
f 10 11 15
f 11 16 15
f 13 14 18
f 13 18 17
f 15 16 20
f 15 20 19
f 17 18 21
f 18 22 21
f 19 20 23
f 20 24 23
f 21 22 25
f 22 26 29
f 22 29 25
f 23 24 28
f 23 28 27
f 26 30 33
f 26 33 29
f 27 28 32
f 27 32 31
f 30 34 38
f 30 38 33
f 31 32 35
f 32 36 35
f 33 38 37
f 34 39 43
f 34 43 38
f 35 36 41
f 35 41 40
f 37 38 42
f 38 43 42
f 39 44 45
f 39 45 46
f 39 46 42
f 39 42 43
f 40 41 44
f 41 45 44
f 42 46 45

