# https://github.com/mikedh/trimesh
v 0.55996623 4.20809450 -1.55573491
v 0.55996623 4.10670334 -1.55417785
v 0.55996623 4.30722071 -1.54494109
v 4.50769957 4.21269513 -1.55523946
v 4.50769957 4.20809450 -1.55573491
v 4.50769957 4.11130397 -1.55424856
v 0.55996623 4.03921551 -1.53680145
v 4.50769957 4.10670334 -1.55417785
v 0.55996623 4.30948567 -1.54469344
v 4.50769957 4.30948567 -1.54469344
v 0.55996623 4.03871990 -1.53531510
v 4.50769957 4.03921551 -1.53680145
v 0.55996623 4.36433961 -1.52770642
v 4.50769957 4.31203378 -1.54391483
v 0.55996623 4.01833560 -1.47026901
v 4.50769957 4.01925579 -1.47331257
v 0.55996623 4.36557801 -1.52731704
v 4.50769957 4.36557801 -1.52731704
v 0.55996623 4.01822953 -1.46800405
v 4.50769957 4.01833560 -1.47026901
v 0.55996623 4.37336377 -1.47026901
v 4.50769957 4.36593188 -1.52473357
v 0.55996623 4.01423058 -1.36891320
v 4.50769957 4.01423058 -1.36891320
v 0.55996623 4.37569944 -1.37117816
v 4.50769957 4.37336377 -1.47026901
v 0.55996623 4.02321938 -1.26752189
v 4.50769957 4.02321938 -1.26752189
v 0.55996623 4.37573480 -1.36891320
v 4.50769957 4.37573480 -1.36891320
v 0.55996623 4.02367933 -1.26617712
v 4.50769957 4.04409929 -1.20672255
v 0.55996623 4.37007256 -1.26978684
v 4.50769957 4.37548730 -1.36431258
v 0.55996623 4.04409929 -1.20672255
v 4.50769957 4.10387207 -1.19596416
v 0.55996623 4.36993113 -1.26752189
v 4.50769957 4.36993113 -1.26752189
v 0.55996623 4.10670334 -1.19546871
v 4.50769957 4.10670334 -1.19546871
v 0.55996623 4.36214537 -1.21472061
v 4.50769957 4.36957726 -1.26511543
v 0.55996623 4.10896830 -1.19543328
v 4.50769957 4.20349388 -1.19430080
v 1.16626946 4.20809450 -1.19423008
v 0.55996623 4.30948567 -1.20343134
v 4.50769957 4.36214537 -1.21472061
v 0.55996623 4.20809450 -1.19423008
v 4.50769957 4.20809450 -1.19426544
v 4.50769957 4.30948567 -1.20343134
f 1 2 7
f 1 7 11
f 1 11 15
f 1 15 19
f 1 19 23
f 1 23 27
f 1 27 31
f 1 31 35
f 1 35 39
f 1 39 43
f 1 43 48
f 1 48 46
f 1 46 41
f 1 41 37
f 1 37 33
f 1 33 29
f 1 29 25
f 1 25 21
f 1 21 17
f 1 17 13
f 1 13 9
f 1 9 3
f 1 3 4
f 1 4 5
f 1 5 6
f 1 6 2
f 2 6 8
f 2 8 12
f 2 12 7
f 3 9 10
f 3 10 4
f 4 10 14
f 4 14 18
f 4 18 22
f 4 22 26
f 4 26 30
f 4 30 34
f 4 34 38
f 4 38 42
f 4 42 47
f 4 47 50
f 4 50 49
f 4 49 44
f 4 44 40
f 4 40 36
f 4 36 32
f 4 32 28
f 4 28 24
f 4 24 20
f 4 20 16
f 4 16 12
f 4 12 8
f 4 8 6
f 4 6 5
f 7 12 11
f 9 13 14
f 9 14 10
f 11 12 16
f 11 16 15
f 13 17 18
f 13 18 14
f 15 16 20
f 15 20 19
f 17 21 22
f 17 22 18
f 19 20 24
f 19 24 23
f 21 25 26
f 21 26 22
f 23 24 28
f 23 28 27
f 25 29 30
f 25 30 26
f 27 28 31
f 28 32 31
f 29 33 34
f 29 34 30
f 31 32 35
f 32 36 35
f 33 37 38
f 33 38 34
f 35 36 39
f 36 40 39
f 37 41 42
f 37 42 38
f 39 40 43
f 40 44 45
f 40 45 43
f 41 46 50
f 41 50 47
f 41 47 42
f 43 45 48
f 44 49 45
f 45 49 50
f 45 50 46
f 45 46 48

