# https://github.com/mikedh/trimesh
v 4.75274274 -3.90376478 1.36893390
v 4.75935176 -3.90376478 1.29401160
v 4.75924237 -3.90376478 1.45350138
v 4.76504815 -0.45874246 1.43984637
v 4.76501158 -0.45874246 1.43811237
v 4.76424461 -0.45874246 1.36893390
v 4.76504815 -0.45874246 1.30972577
v 4.77574678 -3.90376478 1.24325671
v 4.77881376 -0.45874246 1.25904311
v 4.76822483 -3.90376478 1.50418412
v 4.76906463 -0.45874246 1.49052896
v 4.76895493 -0.45874246 1.48933695
v 4.82639174 -3.90376478 1.20214700
v 4.82953216 -0.45874246 1.20554270
v 4.81894292 -3.90376478 1.53832165
v 4.81974616 -0.45874246 1.53835791
v 4.91778688 -3.90376478 1.18672188
v 4.91793284 -0.45874246 1.19427186
v 4.91793284 -3.90376478 1.55573370
v 4.91793284 -0.45874246 1.55573370
v 5.01915024 -3.90376478 1.18816683
v 5.01925994 -0.45874246 1.19427186
v 5.01929650 -3.90376478 1.55573370
v 5.01925994 -0.45874246 1.55573370
v 5.08542385 -3.90376478 1.20351973
v 5.02086641 -0.45874246 1.19452472
v 5.08553325 -0.45874246 1.20554270
v 5.09133903 -3.90376478 1.53824942
v 5.09133903 -3.80226181 1.53832165
v 5.09130216 -2.70158136 1.53835791
v 5.01929650 -2.70158136 1.55573370
v 5.09130216 -0.45874246 1.53835791
v 5.11343013 -3.80226181 1.26753231
v 5.11339327 -3.90376478 1.26746009
v 5.11339327 -0.45874246 1.26753231
v 5.11343013 -2.70158136 1.26753231
v 5.11923592 -3.90376478 1.47011866
v 5.11923592 -3.80226181 1.47026311
v 5.11525600 -2.70158136 1.47998067
v 5.09133903 -2.70158136 1.53832165
v 5.11854208 -0.45874246 1.47192489
v 5.12573554 -3.90376478 1.36878945
v 5.12577180 -2.70158136 1.36893390
v 5.11372206 -0.45874246 1.26998886
v 5.12577180 -0.45874246 1.36893390
v 5.12573554 -3.80226181 1.36893390
v 5.11923592 -2.70158136 1.47026311
v 5.11919905 -0.45874246 1.47026311
f 1 2 8
f 1 8 13
f 1 13 17
f 1 17 21
f 1 21 25
f 1 25 34
f 1 34 42
f 1 42 37
f 1 37 28
f 1 28 23
f 1 23 19
f 1 19 15
f 1 15 10
f 1 10 3
f 1 3 4
f 1 4 5
f 1 5 6
f 1 6 7
f 1 7 2
f 2 7 9
f 2 9 8
f 3 10 11
f 3 11 12
f 3 12 4
f 4 12 11
f 4 11 16
f 4 16 20
f 4 20 24
f 4 24 32
f 4 32 41
f 4 41 48
f 4 48 45
f 4 45 44
f 4 44 35
f 4 35 27
f 4 27 26
f 4 26 22
f 4 22 18
f 4 18 14
f 4 14 9
f 4 9 7
f 4 7 6
f 4 6 5
f 8 9 14
f 8 14 13
f 10 15 16
f 10 16 11
f 13 14 17
f 14 18 17
f 15 19 20
f 15 20 16
f 17 18 22
f 17 22 21
f 19 23 31
f 19 31 24
f 19 24 20
f 21 22 26
f 21 26 27
f 21 27 25
f 23 28 29
f 23 29 30
f 23 30 32
f 23 32 31
f 24 31 32
f 25 33 34
f 25 27 35
f 25 35 36
f 25 36 33
f 28 37 38
f 28 38 29
f 29 38 39
f 29 39 40
f 29 40 32
f 29 32 30
f 32 40 41
f 33 42 34
f 33 36 45
f 33 45 43
f 33 43 42
f 35 44 36
f 36 44 45
f 37 42 46
f 37 46 38
f 38 46 43
f 38 43 45
f 38 45 47
f 38 47 39
f 39 47 41
f 39 41 40
f 41 47 48
f 42 43 46
f 45 48 47

