# https://github.com/mikedh/trimesh
v -4.75162004 -3.90568614 1.36885956
v -4.75804381 -3.90568614 1.29556126
v -4.75834510 -3.90568614 1.45413584
v -4.61305126 -4.01754748 1.46964467
v -4.61305126 -4.01322185 1.36885956
v -4.75844543 -3.90568614 1.29314777
v -4.61305126 -4.02283892 1.26713576
v -4.76818187 -3.90568614 1.50477431
v -4.61305126 -4.01759341 1.47027052
v -4.77450562 -3.90568614 1.24362668
v -4.61305126 -4.04451179 1.20608363
v -4.61305126 -4.03885196 1.53637309
v -4.81872107 -3.90568614 1.53842893
v -4.77555937 -3.90568614 1.24255403
v -4.61305126 -4.10672359 1.19423968
v -4.74599890 -4.10474481 1.09917536
v -4.76602389 -4.05776397 1.09917536
v -4.81144389 -4.02145849 1.09917536
v -4.82599824 -3.90568614 1.20125666
v -4.61370370 -4.03899007 1.53677531
v -4.61305126 -4.10672359 1.55416123
v -4.91789230 -3.90568614 1.55577027
v -4.61305126 -4.20809329 1.19294356
v -4.74032759 -4.20809329 1.09917536
v -4.74213442 -4.14822865 1.09917536
v -4.91789230 -4.00015400 1.09917536
v -4.91789230 -3.90568614 1.18579256
v -4.61305126 -4.20809329 1.55577027
v -5.01927167 -3.90568614 1.55577027
v -4.61305126 -4.20873758 1.19298829
v -4.74900998 -4.28429343 1.09917536
v -5.01927167 -4.00038397 1.09917536
v -5.01696290 -3.90568614 1.18717805
v -4.61305126 -4.30881902 1.54477549
v -5.01927167 -4.20809329 1.55577027
v -5.09134110 -3.90568614 1.53838420
v -4.61305126 -4.30983138 1.20277625
v -4.76517049 -4.31733187 1.09917536
v -4.61305126 -4.36219583 1.21497778
v -5.01927167 -3.90568614 1.18722277
v -5.09465377 -4.02518577 1.09917536
v -5.08406423 -3.90568614 1.20223993
v -4.61305126 -4.30946330 1.54468619
v -5.01927167 -4.30946330 1.54468619
v -5.09134110 -4.20809329 1.53838420
v -5.08466620 -4.30946330 1.53284224
v -5.09184335 -3.90568614 1.53717753
v -4.83066565 -4.36785566 1.09917536
v -4.61305126 -4.36992630 1.26753806
v -5.11342374 -4.07391512 1.09917536
v -5.11312275 -3.90568614 1.26583964
v -5.08572026 -3.90568614 1.20291035
v -4.61305126 -4.36555504 1.52730012
v -5.07533138 -4.36376030 1.52519956
v -5.01927167 -4.36555504 1.52730012
v -5.11919568 -4.20809329 1.47027052
v -5.10433974 -4.30946330 1.47027052
v -5.11919568 -3.90568614 1.47027052
v -4.88411589 -4.37305523 1.09917536
v -4.61305126 -4.36997223 1.26816375
v -4.91789230 -4.37577016 1.09917536
v -5.12215659 -4.10672359 1.09917536
v -5.11352467 -3.90568614 1.26753806
v -4.61305126 -4.37337737 1.47027052
v -5.07969750 -4.36675143 1.47027052
v -5.01927167 -4.37337737 1.47027052
v -5.11934617 -3.90568614 1.46848273
v -5.12577025 -4.20809329 1.36885956
v -5.10930844 -4.30946330 1.36885956
v -4.61305126 -4.37577016 1.36885956
v -5.01927167 -4.37577016 1.09917536
v -5.12471619 -4.17358256 1.09917536
v -5.12577025 -3.90568614 1.36885956
v -5.12561975 -3.90568614 1.36707177
v -5.08145447 -4.36794782 1.36885956
v -5.01927167 -4.37577016 1.36885956
v -5.12577025 -4.20809329 1.09917536
v -5.11492988 -4.27499850 1.09917536
v -5.09093978 -4.34806940 1.09917536
v -5.10930844 -4.30946330 1.09917536
v -5.06032525 -4.37061651 1.09917536
v -5.08145447 -4.36794782 1.09917536
f 1 2 6
f 1 6 10
f 1 10 14
f 1 14 19
f 1 19 27
f 1 27 33
f 1 33 40
f 1 40 42
f 1 42 52
f 1 52 51
f 1 51 63
f 1 63 74
f 1 74 73
f 1 73 67
f 1 67 58
f 1 58 47
f 1 47 36
f 1 36 29
f 1 29 22
f 1 22 13
f 1 13 8
f 1 8 3
f 1 3 4
f 1 4 5
f 1 5 2
f 2 5 7
f 2 7 6
f 3 8 9
f 3 9 4
f 4 9 12
f 4 12 21
f 4 21 28
f 4 28 34
f 4 34 43
f 4 43 53
f 4 53 64
f 4 64 70
f 4 70 60
f 4 60 49
f 4 49 39
f 4 39 37
f 4 37 30
f 4 30 23
f 4 23 15
f 4 15 11
f 4 11 7
f 4 7 5
f 6 7 10
f 7 11 10
f 8 12 9
f 8 13 12
f 10 11 14
f 11 15 16
f 11 16 17
f 11 17 18
f 11 18 19
f 11 19 14
f 12 20 21
f 12 13 20
f 13 22 21
f 13 21 20
f 15 23 24
f 15 24 25
f 15 25 16
f 16 25 24
f 16 24 31
f 16 31 38
f 16 38 48
f 16 48 59
f 16 59 61
f 16 61 71
f 16 71 81
f 16 81 82
f 16 82 79
f 16 79 80
f 16 80 78
f 16 78 77
f 16 77 72
f 16 72 62
f 16 62 50
f 16 50 41
f 16 41 32
f 16 32 26
f 16 26 18
f 16 18 17
f 18 26 19
f 19 26 27
f 21 22 28
f 22 29 35
f 22 35 28
f 23 30 24
f 24 30 31
f 26 32 27
f 27 32 33
f 28 35 34
f 29 36 45
f 29 45 35
f 30 37 31
f 31 37 39
f 31 39 38
f 32 40 33
f 32 41 42
f 32 42 40
f 34 35 44
f 34 44 43
f 35 45 46
f 35 46 44
f 36 47 45
f 38 39 48
f 39 49 48
f 41 50 51
f 41 51 52
f 41 52 42
f 43 44 55
f 43 55 53
f 44 46 54
f 44 54 55
f 45 47 56
f 45 56 46
f 46 56 57
f 46 57 54
f 47 58 56
f 48 49 59
f 49 60 61
f 49 61 59
f 50 62 51
f 51 62 63
f 53 55 66
f 53 66 64
f 54 57 65
f 54 65 66
f 54 66 55
f 56 58 67
f 56 67 68
f 56 68 57
f 57 69 65
f 57 68 69
f 60 70 61
f 61 70 76
f 61 76 71
f 62 72 73
f 62 73 74
f 62 74 63
f 64 66 76
f 64 76 70
f 65 69 75
f 65 75 76
f 65 76 66
f 67 73 68
f 68 73 77
f 68 77 78
f 68 78 69
f 69 79 75
f 69 78 80
f 69 80 79
f 71 76 81
f 72 77 73
f 75 81 76
f 75 79 82
f 75 82 81

