# https://github.com/mikedh/trimesh
v -4.91790952 3.78985607 1.55573491
v -4.83197597 3.78985607 1.54054943
v -5.01927379 3.78985607 1.55573491
v -4.91790952 0.52058785 1.55573491
v -4.81973040 3.78985607 1.53835474
v -4.85565390 0.52058785 1.54472623
v -4.81973040 0.52058785 1.53835474
v -5.02826351 3.78985607 1.55357573
v -5.01927379 0.52058785 1.55573491
v -4.77534783 3.78985607 1.49651485
v -4.78759371 0.52058785 1.50805434
v -5.09133324 3.78985607 1.53835474
v -5.04564126 0.52058785 1.54939878
v -4.76904796 3.78985607 1.49056794
v -4.76904796 0.52058785 1.49056794
v -5.09480184 3.78985607 1.52989462
v -5.09133324 0.52058785 1.53835474
v -4.76550865 3.78985607 1.44617948
v -4.76649985 0.52058785 1.45842702
v -5.11922287 3.78985607 1.47028517
v -5.11922287 0.52058785 1.47028517
v -4.76501335 3.78985607 1.43987870
v -4.76504871 0.52058785 1.43987870
v -5.12577025 3.78985607 1.36890655
v -5.12162956 0.52058785 1.43315319
v -4.76419923 3.78985607 1.36890655
v -4.76451775 0.52058785 1.39485292
v -5.11345336 3.78985607 1.26752793
v -5.12577025 0.52058785 1.36890655
v -4.76490698 3.78985607 1.31708454
v -4.76423459 0.52058785 1.36890655
v -4.76473019 0.52058785 1.33138519
v -5.08556433 3.78985607 1.20547599
v -5.11345336 0.52058785 1.26752793
v -4.76501335 3.78985607 1.30972184
v -4.76504871 0.52058785 1.30972184
v -5.01927379 3.78985607 1.19414879
v -5.08556433 0.52058785 1.20554678
v -4.77881644 3.78985607 1.25899710
v -4.77881644 0.52058785 1.25899710
v -4.91790952 3.78985607 1.19414879
v -5.01927379 0.52058785 1.19425494
v -5.06128502 0.52058785 1.20140526
v -4.82953393 3.78985607 1.20547599
v -4.81095282 0.52058785 1.22512165
v -4.88556039 0.52058785 1.19836110
v -4.91790952 0.52058785 1.19425494
v -4.82953393 0.52058785 1.20554678
f 1 2 5
f 1 5 10
f 1 10 14
f 1 14 18
f 1 18 22
f 1 22 26
f 1 26 30
f 1 30 35
f 1 35 39
f 1 39 44
f 1 44 41
f 1 41 37
f 1 37 33
f 1 33 28
f 1 28 24
f 1 24 20
f 1 20 16
f 1 16 12
f 1 12 8
f 1 8 3
f 1 3 9
f 1 9 4
f 1 4 2
f 2 4 6
f 2 6 7
f 2 7 5
f 3 8 9
f 4 9 13
f 4 13 17
f 4 17 21
f 4 21 25
f 4 25 29
f 4 29 34
f 4 34 38
f 4 38 43
f 4 43 42
f 4 42 47
f 4 47 46
f 4 46 48
f 4 48 45
f 4 45 40
f 4 40 36
f 4 36 32
f 4 32 31
f 4 31 27
f 4 27 23
f 4 23 19
f 4 19 15
f 4 15 11
f 4 11 7
f 4 7 6
f 5 7 10
f 7 11 10
f 8 12 13
f 8 13 9
f 10 11 15
f 10 15 14
f 12 16 17
f 12 17 13
f 14 15 18
f 15 19 18
f 16 20 21
f 16 21 17
f 18 19 22
f 19 23 22
f 20 24 25
f 20 25 21
f 22 23 27
f 22 27 26
f 24 28 34
f 24 34 29
f 24 29 25
f 26 27 31
f 26 31 32
f 26 32 30
f 28 33 34
f 30 32 35
f 32 36 35
f 33 37 38
f 33 38 34
f 35 36 40
f 35 40 39
f 37 41 47
f 37 47 42
f 37 42 43
f 37 43 38
f 39 40 44
f 40 45 44
f 41 44 46
f 41 46 47
f 44 45 48
f 44 48 46

