# https://github.com/mikedh/trimesh
v -5.12577085 0.45642825 -1.36893284
v -5.11923436 0.36034636 -1.47028230
v -5.12573459 0.36034636 -1.36893284
v -5.12507701 0.36034636 -1.36347700
v -5.11342797 0.36034636 -1.26751116
v -5.12577085 3.90392495 -1.36893284
v -5.09283274 0.36034636 -1.53470497
v -5.11923436 3.90392495 -1.47028230
v -5.08556614 0.36034636 -1.20518399
v -5.08556614 3.90357802 -1.20348581
v -5.11342797 3.90392495 -1.26751116
v -5.09133566 0.36034636 -1.53835428
v -5.09133566 3.90392495 -1.53835428
v -5.01928799 0.36034636 -1.19354961
v -5.01928799 3.90392495 -1.18809370
v -5.08556614 3.90392495 -1.20348581
v -5.01928799 0.36034636 -1.55576982
v -5.01928799 3.90392495 -1.55573370
v -5.01928799 3.90357802 -1.55576982
v -4.91791768 0.36034636 -1.19354961
v -4.91791768 3.90392495 -1.18664845
v -4.91791768 0.36034636 -1.55576982
v -4.91795395 3.90392495 -1.55576982
v -4.91317049 0.36034636 -1.19416383
v -4.82640650 3.90392495 -1.20204056
v -4.82951066 0.36034636 -1.20518399
v -4.82501882 0.36034636 -1.53929381
v -4.91791768 3.90357802 -1.55576982
v -4.81892051 3.90357802 -1.53835428
v -4.81895708 3.90392495 -1.53835428
v -4.77575791 3.90357802 -1.24319454
v -4.77575791 3.90392495 -1.24319454
v -4.77882520 0.36034636 -1.25902022
v -4.81972405 0.36034636 -1.53835428
v -4.76823536 3.90392495 -1.50424607
v -4.76823536 3.90357802 -1.50424607
v -4.75932542 3.90357802 -1.29388725
v -4.75932542 3.90392495 -1.29392351
v -4.76502181 0.36034636 -1.30971293
v -4.76903890 0.36034636 -1.49055207
v -4.75925229 3.90392495 -1.45358932
v -4.75921573 3.90357802 -1.45355321
v -4.75271580 3.90392495 -1.36896896
v -4.76425514 0.36034636 -1.36893284
v -4.76502181 0.36034636 -1.43985936
v -4.76429171 0.36034636 -1.37269050
f 1 2 3
f 1 3 4
f 1 4 5
f 1 5 11
f 1 11 6
f 1 6 8
f 1 8 2
f 2 7 12
f 2 12 17
f 2 17 22
f 2 22 27
f 2 27 34
f 2 34 40
f 2 40 45
f 2 45 46
f 2 46 44
f 2 44 39
f 2 39 33
f 2 33 26
f 2 26 24
f 2 24 20
f 2 20 14
f 2 14 9
f 2 9 5
f 2 5 4
f 2 4 3
f 2 8 7
f 5 9 10
f 5 10 16
f 5 16 11
f 6 11 16
f 6 16 15
f 6 15 21
f 6 21 25
f 6 25 32
f 6 32 38
f 6 38 43
f 6 43 41
f 6 41 35
f 6 35 30
f 6 30 23
f 6 23 18
f 6 18 13
f 6 13 8
f 7 8 13
f 7 13 12
f 9 14 15
f 9 15 10
f 10 15 16
f 12 13 19
f 12 19 17
f 13 18 19
f 14 20 21
f 14 21 15
f 17 19 23
f 17 23 28
f 17 28 22
f 18 23 19
f 20 24 21
f 21 24 26
f 21 26 25
f 22 28 29
f 22 29 27
f 23 30 29
f 23 29 28
f 25 31 32
f 25 26 31
f 26 33 31
f 27 29 34
f 29 30 35
f 29 35 36
f 29 36 34
f 31 37 32
f 31 33 37
f 32 37 38
f 33 39 37
f 34 36 40
f 35 41 42
f 35 42 36
f 36 42 40
f 37 43 38
f 37 39 43
f 39 44 43
f 40 42 45
f 41 43 42
f 42 43 45
f 43 44 46
f 43 46 45

