# https://github.com/mikedh/trimesh
v -4.91795395 3.90392464 1.18664920
v -4.91791738 3.78986695 1.19416458
v -5.01928769 3.78986695 1.19416458
v -5.01928769 3.90392464 1.18809445
v -4.82647964 3.90392464 1.20204124
v -4.82644307 3.90389140 1.20204124
v -4.82951036 3.78986695 1.20550991
v -4.90688936 3.78986695 1.19557372
v -5.08556554 3.78986695 1.20550991
v -5.08556554 3.90389140 1.20348649
v -5.08556554 3.90392464 1.20348649
v -4.77575791 3.90392464 1.24315910
v -4.82319296 3.78986695 1.21215814
v -5.10995877 3.78986695 1.25977964
v -5.11342737 3.78986695 1.26751192
v -5.11342737 3.90392464 1.26751192
v -4.77882520 3.78986695 1.25902090
v -4.75932542 3.90392464 1.29385189
v -5.12577025 3.78986695 1.36893345
v -5.12577025 3.90392464 1.36893345
v -4.76502181 3.78986695 1.30971368
v -4.75271580 3.90392464 1.36889734
v -5.11923375 3.78986695 1.47028276
v -5.11923375 3.90392464 1.47028276
v -4.76491242 3.78986695 1.31708454
v -4.76421857 3.78986695 1.36893345
v -4.75921573 3.90392464 1.45351770
v -4.75921573 3.90389140 1.45355381
v -4.76502181 3.78986695 1.43985997
v -5.09133505 3.78986695 1.53835489
v -5.09133505 3.90392464 1.53835489
v -4.76823536 3.90392464 1.50424652
v -4.76823536 3.90389140 1.50424652
v -4.76903890 3.78986695 1.49055268
v -5.01928769 3.78986695 1.55573416
v -5.01928769 3.90392464 1.55573416
v -4.81888395 3.90392464 1.53835489
v -4.81972405 3.78986695 1.53835489
v -4.77535630 3.78986695 1.49651439
v -4.91791738 3.78986695 1.55573416
v -4.91791738 3.90392464 1.55573416
f 1 2 3
f 1 3 4
f 1 4 11
f 1 11 16
f 1 16 20
f 1 20 24
f 1 24 31
f 1 31 36
f 1 36 41
f 1 41 37
f 1 37 32
f 1 32 27
f 1 27 22
f 1 22 18
f 1 18 12
f 1 12 5
f 1 5 6
f 1 6 7
f 1 7 8
f 1 8 2
f 2 8 7
f 2 7 13
f 2 13 17
f 2 17 21
f 2 21 25
f 2 25 26
f 2 26 29
f 2 29 34
f 2 34 39
f 2 39 38
f 2 38 40
f 2 40 35
f 2 35 30
f 2 30 23
f 2 23 19
f 2 19 15
f 2 15 14
f 2 14 9
f 2 9 3
f 3 9 4
f 4 9 10
f 4 10 11
f 5 12 6
f 6 12 7
f 7 12 13
f 9 14 10
f 10 14 15
f 10 15 16
f 10 16 11
f 12 17 13
f 12 18 17
f 15 19 20
f 15 20 16
f 17 18 21
f 18 22 21
f 19 23 24
f 19 24 20
f 21 22 25
f 22 26 25
f 22 27 28
f 22 28 29
f 22 29 26
f 23 30 31
f 23 31 24
f 27 32 28
f 28 33 34
f 28 34 29
f 28 32 33
f 30 35 36
f 30 36 31
f 32 37 33
f 33 37 38
f 33 38 39
f 33 39 34
f 35 40 41
f 35 41 36
f 37 41 40
f 37 40 38

