# https://github.com/mikedh/trimesh
v 4.75975036 -4.20865568 1.06368853
v 4.75975036 -4.20805492 1.06368853
v 4.76284998 -4.27186080 1.06368853
v 4.61501165 -4.20805492 1.19240528
v 4.76270009 -4.11033634 1.06368853
v 4.61501165 -4.10659395 1.19365772
v 4.78734807 -4.32203676 1.06368853
v 4.61501165 -4.36214053 1.21456452
v 4.61501165 -4.30946965 1.20223237
v 4.76609979 -4.05965209 1.06368853
v 4.61501165 -4.04472876 1.20545997
v 4.78759799 -4.32254505 1.06368853
v 4.61501165 -4.36227924 1.21533527
v 4.78809812 -4.32309928 1.06368853
v 4.83829432 -4.36796203 1.06368853
v 4.77574920 -3.90376478 1.24322717
v 4.82639507 -3.90376478 1.20213605
v 4.81679582 -4.03433323 1.06368853
v 4.61501165 -4.04389712 1.20589347
v 4.61501165 -4.36994866 1.26750602
v 4.91703804 -4.37567799 1.06368853
v 4.61501165 -4.02222818 1.26745782
v 4.75935025 -3.90376478 1.29400087
v 4.91773792 -3.90376478 1.18672090
v 4.91788811 -4.01261806 1.06368853
v 4.81784565 -4.03410205 1.06368853
v 4.61501165 -4.37572422 1.36886077
v 4.91788811 -4.37572422 1.06368853
v 4.61501165 -4.01284894 1.36756012
v 4.75275090 -3.90376478 1.36886077
v 5.01913029 -3.90376478 1.18811787
v 5.01928018 -4.01261806 1.06368853
v 4.61501165 -4.37572422 1.37020962
v 5.01928018 -4.37572422 1.06368853
v 4.61501165 -4.01280270 1.36886077
v 4.75925022 -3.90376478 1.45354792
v 4.61501165 -4.01709962 1.47040832
v 5.08547523 -3.90376478 1.20348490
v 5.02008010 -4.01284894 1.06368853
v 4.61501165 -4.37336770 1.47026372
v 5.01928018 -4.37572422 1.36886077
v 5.01928018 -4.37336770 1.47026372
v 5.08077548 -4.36805450 1.06368853
v 4.76824961 -3.90376478 1.50422522
v 4.61501165 -4.03826026 1.53606727
v 5.11337272 -3.90376478 1.26745782
v 5.09392462 -4.03433323 1.06368853
v 4.61501165 -4.37327523 1.47103447
v 5.08142520 -4.36796203 1.36886077
v 5.07972565 -4.36676080 1.47026372
v 5.07532568 -4.36375758 1.52518037
v 5.01928018 -4.36555957 1.52729997
v 5.08142520 -4.36796203 1.06368853
v 4.81894564 -3.90376478 1.53837952
v 4.61501165 -4.03876856 1.53678982
v 5.12572224 -3.90376478 1.36871632
v 5.11342288 -3.90390319 1.26750602
v 5.12182211 -4.10673265 1.06368853
v 4.61501165 -4.36555957 1.52729997
v 5.08172558 -4.36736157 1.06368853
v 5.10932330 -4.30946965 1.36886077
v 5.10432377 -4.30946965 1.47026372
v 5.01928018 -4.30946965 1.54469012
v 5.08467501 -4.30946965 1.53283967
v 4.61501165 -4.36486634 1.52754082
v 4.61501165 -4.10562390 1.55393927
v 4.91788811 -3.90376478 1.55576982
v 5.12572224 -3.90390319 1.36886077
v 5.12572224 -4.20703833 1.06368853
v 5.11922262 -3.90376478 1.47011927
v 5.10932330 -4.30946965 1.06368853
v 5.12572224 -4.20805492 1.36886077
v 5.11922262 -4.20805492 1.47026372
v 5.01928018 -4.20805492 1.55576982
v 4.61501165 -4.30817595 1.54483457
v 4.61501165 -4.30946965 1.54469012
v 5.09132452 -4.20805492 1.53837952
v 4.61501165 -4.10673265 1.55418012
v 5.01928018 -3.90376478 1.55576982
v 4.61501165 -4.20805492 1.55576982
v 5.11922262 -3.90390319 1.47026372
v 5.12572224 -4.20805492 1.06368853
v 5.09137469 -3.90376478 1.53828327
v 5.09132452 -3.90390319 1.53837952
f 1 2 5
f 1 5 10
f 1 10 18
f 1 18 26
f 1 26 25
f 1 25 32
f 1 32 39
f 1 39 47
f 1 47 58
f 1 58 69
f 1 69 82
f 1 82 71
f 1 71 60
f 1 60 53
f 1 53 43
f 1 43 34
f 1 34 28
f 1 28 21
f 1 21 15
f 1 15 14
f 1 14 12
f 1 12 7
f 1 7 3
f 1 3 4
f 1 4 2
f 2 4 6
f 2 6 5
f 3 7 8
f 3 8 9
f 3 9 4
f 4 9 8
f 4 8 13
f 4 13 20
f 4 20 27
f 4 27 33
f 4 33 40
f 4 40 48
f 4 48 59
f 4 59 65
f 4 65 76
f 4 76 75
f 4 75 80
f 4 80 78
f 4 78 66
f 4 66 55
f 4 55 45
f 4 45 37
f 4 37 35
f 4 35 29
f 4 29 22
f 4 22 19
f 4 19 11
f 4 11 6
f 5 6 10
f 6 11 10
f 7 12 8
f 8 12 14
f 8 14 15
f 8 15 13
f 10 16 17
f 10 17 18
f 10 11 19
f 10 19 16
f 13 15 20
f 15 21 20
f 16 19 22
f 16 22 23
f 16 23 30
f 16 30 36
f 16 36 44
f 16 44 54
f 16 54 67
f 16 67 79
f 16 79 83
f 16 83 70
f 16 70 56
f 16 56 46
f 16 46 38
f 16 38 31
f 16 31 24
f 16 24 17
f 17 24 25
f 17 25 26
f 17 26 18
f 20 21 27
f 21 28 27
f 22 29 23
f 23 29 30
f 24 31 32
f 24 32 25
f 27 28 34
f 27 34 41
f 27 41 33
f 29 35 30
f 30 35 37
f 30 37 36
f 31 38 32
f 32 38 39
f 33 41 42
f 33 42 40
f 34 43 41
f 36 37 44
f 37 45 44
f 38 46 47
f 38 47 39
f 40 42 48
f 41 43 49
f 41 49 50
f 41 50 42
f 42 50 51
f 42 51 52
f 42 52 48
f 43 53 49
f 44 45 55
f 44 55 54
f 46 56 57
f 46 57 58
f 46 58 47
f 48 52 59
f 49 53 60
f 49 60 61
f 49 61 50
f 50 61 62
f 50 62 51
f 51 63 52
f 51 62 64
f 51 64 63
f 52 63 65
f 52 65 59
f 54 55 66
f 54 66 67
f 56 68 72
f 56 72 82
f 56 82 69
f 56 69 58
f 56 58 57
f 56 70 81
f 56 81 68
f 60 71 61
f 61 71 82
f 61 82 72
f 61 72 62
f 62 72 73
f 62 73 64
f 63 64 74
f 63 74 75
f 63 75 76
f 63 76 65
f 64 73 77
f 64 77 74
f 66 78 67
f 67 78 80
f 67 80 74
f 67 74 79
f 68 81 73
f 68 73 72
f 70 83 81
f 73 83 77
f 73 81 83
f 74 80 75
f 74 77 84
f 74 84 79
f 77 83 84
f 79 84 83

