# https://github.com/mikedh/trimesh
v 0.43676561 4.20806942 1.18488363
v 0.43676561 4.10503583 1.18571859
v 0.43676561 4.30911578 1.19573864
v 4.61377597 4.30939984 1.20270909
v 4.61377597 4.20799871 1.19290692
v 0.43676561 4.05360757 1.19552084
v 4.61377597 4.10666829 1.19428644
v 4.61336710 4.04413102 1.20619431
v 0.43676561 4.36224751 1.21327370
v 4.61377597 4.36210578 1.21465329
v 0.43676561 4.04384726 1.20230974
v 4.61377597 4.04413102 1.20626699
v 4.61377597 4.02272922 1.26754893
v 0.43676561 4.37002058 1.26754893
v 4.61377597 4.36994957 1.26751267
v 0.43676561 4.02698837 1.25186536
v 4.61377597 4.01318196 1.36894735
v 0.43676561 4.02294227 1.26754893
v 0.43676561 4.37573480 1.36891094
v 4.32020774 4.37577016 1.36894735
v 4.61336710 4.37577016 1.36894735
v 4.61377597 4.37573480 1.36887467
v 4.61377597 4.01754748 1.47023682
v 0.43676561 4.01836371 1.47027309
v 0.43676561 4.01754748 1.45074128
v 0.43676561 4.01424659 1.36891094
v 0.43676561 4.01570197 1.34937913
v 0.43676561 4.37530871 1.38837022
v 3.69463743 4.37335682 1.47023682
v 4.61336710 4.37335682 1.47020041
v 4.61377597 4.37335682 1.47012788
v 0.58395860 4.02368749 1.48737252
v 4.61377597 4.03894927 1.53671034
v 4.61336710 4.03894927 1.53671034
v 0.43676561 4.03923333 1.53678287
v 0.43676561 4.03518724 1.52393109
v 0.43676561 4.37335682 1.47027309
v 0.58395860 4.37335682 1.47027309
v 4.32020774 4.36640028 1.52117189
v 0.43676561 4.37186609 1.48123705
v 4.61336710 4.36551303 1.52723484
v 4.61377597 4.36551303 1.52719843
v 4.61377597 4.10673930 1.55410019
v 3.69463743 4.10673930 1.55413645
v 0.58395860 4.10670395 1.55417271
v 0.43676561 4.10670395 1.55417271
v 0.58395860 4.36757159 1.51264046
v 0.43676561 4.36554839 1.52727111
v 0.58395860 4.36554839 1.52727111
v 3.69463743 4.36551303 1.52727111
v 3.69463743 4.36203476 1.52836022
v 3.69463743 4.30947086 1.54466095
v 4.32020774 4.30947086 1.54462469
v 4.61377597 4.30947086 1.54458828
v 4.61377597 4.20799871 1.55569744
v 3.69463743 4.20168101 1.55566118
v 0.55779103 4.20806942 1.55577012
v 0.43676561 4.20806942 1.55577012
v 0.43676561 4.30947086 1.54466095
v 0.58395860 4.32391611 1.54023182
v 3.69463743 4.30304678 1.54538698
v 3.69463743 4.20803406 1.55573386
v 0.43676561 4.28994993 1.54680292
f 1 2 6
f 1 6 11
f 1 11 16
f 1 16 18
f 1 18 27
f 1 27 26
f 1 26 25
f 1 25 24
f 1 24 36
f 1 36 35
f 1 35 46
f 1 46 58
f 1 58 63
f 1 63 59
f 1 59 48
f 1 48 40
f 1 40 37
f 1 37 28
f 1 28 19
f 1 19 14
f 1 14 9
f 1 9 3
f 1 3 4
f 1 4 5
f 1 5 2
f 2 5 7
f 2 7 8
f 2 8 6
f 3 9 10
f 3 10 4
f 4 10 15
f 4 15 22
f 4 22 31
f 4 31 42
f 4 42 54
f 4 54 55
f 4 55 43
f 4 43 33
f 4 33 23
f 4 23 17
f 4 17 13
f 4 13 12
f 4 12 7
f 4 7 5
f 6 8 11
f 7 12 8
f 8 12 13
f 8 13 11
f 9 14 15
f 9 15 10
f 11 13 16
f 13 17 18
f 13 18 16
f 14 19 20
f 14 20 21
f 14 21 15
f 15 21 22
f 17 23 24
f 17 24 25
f 17 25 26
f 17 26 27
f 17 27 18
f 19 28 20
f 20 28 21
f 21 29 30
f 21 30 31
f 21 31 22
f 21 28 29
f 23 32 24
f 23 33 34
f 23 34 35
f 23 35 36
f 23 36 32
f 24 32 36
f 28 37 38
f 28 38 29
f 29 39 30
f 29 38 40
f 29 40 39
f 30 39 41
f 30 41 42
f 30 42 31
f 33 43 44
f 33 44 45
f 33 45 46
f 33 46 34
f 34 46 35
f 37 40 38
f 39 40 47
f 39 47 48
f 39 48 49
f 39 49 41
f 40 48 47
f 41 49 50
f 41 50 51
f 41 51 52
f 41 52 53
f 41 53 54
f 41 54 42
f 43 55 56
f 43 56 44
f 44 56 45
f 45 56 57
f 45 57 58
f 45 58 46
f 48 59 60
f 48 60 49
f 49 60 51
f 49 51 50
f 51 60 52
f 52 61 53
f 52 60 59
f 52 59 61
f 53 55 54
f 53 61 55
f 55 62 56
f 55 61 62
f 56 62 57
f 57 62 61
f 57 61 58
f 58 61 63
f 59 63 61

