# https://github.com/mikedh/trimesh
v 4.75055001 4.00895998 -1.18658544
v 4.81743980 3.93886692 -1.18658544
v 4.76608770 4.05989022 -1.05307670
v 4.75055001 4.01500873 -1.17538456
v 4.75055001 4.35420639 -1.18658544
v 4.85226180 3.92616896 -1.18658544
v 4.81677860 4.03440213 -1.05307670
v 4.76307572 4.10477201 -1.05307670
v 4.75055001 4.07314240 -1.09425985
v 4.75055001 4.28291300 -1.09538386
v 4.78757623 4.32179198 -1.05307670
v 4.79341676 4.32784103 -1.05307670
v 4.83826682 4.36796656 -1.05307670
v 4.77027523 4.36538067 -1.18658544
v 4.91790262 3.90409750 -1.18658544
v 4.91790262 4.01279243 -1.05307670
v 4.75055001 4.20806428 -1.08099391
v 4.75055001 4.10624944 -1.08980306
v 4.76021060 4.20806428 -1.05307670
v 4.75055001 4.25714780 -1.08526779
v 4.76307572 4.27109232 -1.05307670
v 4.91790262 4.37577016 -1.05307670
v 4.79646561 4.36727393 -1.18658544
v 5.01928381 3.90696050 -1.18658544
v 5.01928381 4.01279243 -1.05307670
v 4.76028404 4.21457479 -1.05307670
v 5.01928381 4.37577016 -1.05307670
v 4.91790262 4.37577016 -1.18658544
v 4.81534589 4.36861296 -1.18658544
v 5.09091233 3.95581314 -1.18658544
v 5.09396088 4.03440213 -1.05307670
v 5.02784259 4.01519337 -1.05307670
v 5.01928381 4.37577016 -1.18658544
v 5.08143487 4.36796656 -1.05307670
v 5.12316325 4.10671120 -1.18658544
v 5.12184084 4.10671120 -1.05307670
v 5.08143487 4.36796656 -1.18658544
v 5.08463089 4.36127111 -1.05307670
v 5.12577120 4.20806428 -1.18658544
v 5.12577120 4.20806428 -1.05307670
v 5.10369520 4.32128399 -1.18658544
v 5.10931483 4.30946330 -1.05307670
v 5.10931483 4.30946330 -1.18658544
v 5.11122531 4.29782756 -1.05307670
f 1 2 3
f 1 3 4
f 1 4 9
f 1 9 18
f 1 18 17
f 1 17 20
f 1 20 10
f 1 10 5
f 1 5 14
f 1 14 23
f 1 23 29
f 1 29 28
f 1 28 33
f 1 33 37
f 1 37 41
f 1 41 43
f 1 43 39
f 1 39 35
f 1 35 30
f 1 30 24
f 1 24 15
f 1 15 6
f 1 6 2
f 2 6 7
f 2 7 3
f 3 7 16
f 3 16 25
f 3 25 32
f 3 32 31
f 3 31 36
f 3 36 40
f 3 40 44
f 3 44 42
f 3 42 38
f 3 38 34
f 3 34 27
f 3 27 22
f 3 22 13
f 3 13 12
f 3 12 11
f 3 11 21
f 3 21 26
f 3 26 19
f 3 19 8
f 3 8 9
f 3 9 4
f 5 10 11
f 5 11 12
f 5 12 13
f 5 13 14
f 6 15 7
f 7 15 16
f 8 17 18
f 8 18 9
f 8 19 17
f 10 20 21
f 10 21 11
f 13 22 14
f 14 22 23
f 15 24 25
f 15 25 16
f 17 19 26
f 17 26 20
f 20 26 21
f 22 27 33
f 22 33 28
f 22 28 29
f 22 29 23
f 24 30 31
f 24 31 32
f 24 32 25
f 27 34 37
f 27 37 33
f 30 35 36
f 30 36 31
f 34 38 37
f 35 39 40
f 35 40 36
f 37 38 41
f 38 42 41
f 39 43 44
f 39 44 40
f 41 42 43
f 42 44 43

