# https://github.com/mikedh/trimesh
v -5.12577025 -3.90568614 -1.36892287
v -5.11921441 -3.90568614 -1.47029620
v -5.11353737 -3.90568614 -1.26751358
v -5.12577025 -0.45967942 -1.36892287
v -5.11873815 -3.90568614 -1.47149139
v -5.11921441 -0.45967942 -1.47029620
v -5.08573900 -3.90568614 -1.20290128
v -5.11342737 -0.45967942 -1.26751358
v -5.09134231 -3.90568614 -1.53834915
v -5.11829876 -0.45967942 -1.47254167
v -5.09134231 -0.45967942 -1.53834915
v -5.01930038 -3.90568614 -1.18721899
v -5.08555587 -0.45967942 -1.20554512
v -5.09006039 -3.90568614 -1.53867506
v -5.01930038 -0.45967942 -1.55576982
v -4.92022857 -3.90568614 -1.18580653
v -5.01930038 -0.45967942 -1.19424519
v -5.02149795 -0.45967942 -1.19460737
v -5.01930038 -3.90568614 -1.55576982
v -4.91792131 -0.45967942 -1.55576982
v -4.91792131 -3.90568614 -1.18580653
v -4.91792131 -0.45967942 -1.19424519
v -4.91792131 -3.90568614 -1.55576982
v -4.81972859 -0.45967942 -1.53834915
v -4.81870324 -3.90568614 -1.53842152
v -4.91576031 -3.90568614 -1.55548001
v -4.82851885 -3.90568614 -1.20080065
v -4.82954420 -0.45967942 -1.20554512
v -4.83247429 -0.45967942 -1.20514675
v -4.81804384 -0.45967942 -1.53679178
v -4.76816011 -3.90568614 -1.50477536
v -4.81712819 -3.90568614 -1.53769716
v -4.82599159 -3.90568614 -1.20127147
v -4.77881825 -0.45967942 -1.25900239
v -4.77625442 -3.90568614 -1.24161791
v -4.76903920 -0.45967942 -1.49054180
v -4.76709820 -3.90568614 -1.50365256
v -4.76548659 -0.45967942 -1.30800492
v -4.77555847 -3.90568614 -1.24252336
v -4.75845450 -3.90568614 -1.29315563
v -4.76889263 -0.45967942 -1.48887580
v -4.75797824 -3.90568614 -1.45164409
v -4.75830793 -3.90568614 -1.45414309
v -4.76504720 -0.45967942 -1.30970704
v -4.75160553 -3.90568614 -1.36892287
v -4.76504720 -0.45967942 -1.43987327
v -4.76424124 -0.45967942 -1.36892287
v -4.76501033 -0.45967942 -1.43748290
f 1 2 5
f 1 5 9
f 1 9 14
f 1 14 19
f 1 19 23
f 1 23 26
f 1 26 25
f 1 25 32
f 1 32 31
f 1 31 37
f 1 37 43
f 1 43 42
f 1 42 45
f 1 45 40
f 1 40 39
f 1 39 35
f 1 35 33
f 1 33 27
f 1 27 21
f 1 21 16
f 1 16 12
f 1 12 7
f 1 7 3
f 1 3 4
f 1 4 6
f 1 6 2
f 2 6 5
f 3 7 8
f 3 8 4
f 4 8 13
f 4 13 18
f 4 18 17
f 4 17 22
f 4 22 29
f 4 29 28
f 4 28 34
f 4 34 38
f 4 38 44
f 4 44 47
f 4 47 48
f 4 48 46
f 4 46 41
f 4 41 36
f 4 36 30
f 4 30 24
f 4 24 20
f 4 20 15
f 4 15 11
f 4 11 10
f 4 10 6
f 5 6 10
f 5 10 11
f 5 11 9
f 7 12 13
f 7 13 8
f 9 11 14
f 11 15 14
f 12 16 17
f 12 17 18
f 12 18 13
f 14 15 19
f 15 20 23
f 15 23 19
f 16 21 22
f 16 22 17
f 20 24 25
f 20 25 26
f 20 26 23
f 21 27 28
f 21 28 29
f 21 29 22
f 24 30 31
f 24 31 32
f 24 32 25
f 27 33 28
f 28 33 35
f 28 35 34
f 30 36 31
f 31 36 37
f 34 35 39
f 34 39 40
f 34 40 38
f 36 41 42
f 36 42 43
f 36 43 37
f 38 40 44
f 40 45 44
f 41 46 42
f 42 46 45
f 44 45 47
f 45 46 48
f 45 48 47

