# https://github.com/mikedh/trimesh
v 0.00081414 -4.37569944 -1.06459542
v 0.15212185 -4.37569944 -1.06459542
v 0.00081414 -4.37569944 -0.81224614
v 0.00081414 -4.01423058 -1.06459542
v 0.23170617 -4.36794994 -1.06459542
v 0.17246601 -4.37410718 1.08553017
v 0.15212185 -4.37569944 1.08553017
v 0.00084559 -4.37569944 1.08553017
v 0.00081414 -4.01423058 -0.81224614
v 0.15202752 -4.01423058 -1.06459542
v 0.28236220 -4.32265595 -1.06459542
v 0.29597736 -4.31940040 1.08553017
v 0.23629697 -4.36787923 1.08553017
v 0.00084559 -4.01423058 1.08553017
v 0.15212185 -4.01423058 -0.96315054
v 0.25554060 -4.03475480 1.08553017
v 0.25327665 -4.03517938 -1.06459542
v 0.30717137 -4.27187682 -1.06459542
v 0.31553542 -4.27937852 1.08553017
v 0.15212185 -4.01423058 1.08553017
v 0.30393266 -4.05853396 1.08553017
v 0.30393266 -4.05966659 -1.06459542
v 0.31031575 -4.20811112 -1.06459542
v 0.32204430 -4.20807577 1.08553017
v 0.31735917 -4.10697773 1.08553017
v 0.30729715 -4.11044543 -1.06459542
v 0.31971747 -4.13330502 1.08553017
f 1 2 7
f 1 7 8
f 1 8 3
f 1 3 9
f 1 9 4
f 1 4 10
f 1 10 17
f 1 17 22
f 1 22 26
f 1 26 23
f 1 23 18
f 1 18 11
f 1 11 5
f 1 5 2
f 2 5 6
f 2 6 7
f 3 8 14
f 3 14 9
f 4 9 14
f 4 14 20
f 4 20 15
f 4 15 10
f 5 11 12
f 5 12 13
f 5 13 6
f 6 13 12
f 6 12 19
f 6 19 24
f 6 24 27
f 6 27 25
f 6 25 21
f 6 21 16
f 6 16 20
f 6 20 14
f 6 14 8
f 6 8 7
f 10 15 16
f 10 16 17
f 11 18 19
f 11 19 12
f 15 20 16
f 16 21 22
f 16 22 17
f 18 23 24
f 18 24 19
f 21 25 22
f 22 25 27
f 22 27 26
f 23 26 24
f 24 26 27

